<svg width="88" height="25" viewBox="0 0 88 25" fill="none" xmlns="http://www.w3.org/2000/svg">
<path fill-rule="evenodd" clip-rule="evenodd" d="M5.66903 0C5.88227 0.0933407 6.08643 0.205571 6.27899 0.335304C6.93246 0.758787 7.46719 1.33712 7.83397 2.0171C8.20076 2.69708 8.38782 3.45688 8.37797 4.22659C8.37797 7.50022 5.91122 8.21274 4.90434 8.49731C5.92244 8.78188 8.38245 9.48557 8.38245 12.768C8.39162 13.5381 8.20377 14.2981 7.83621 14.9781C7.46864 15.6581 6.93315 16.2362 6.27899 16.6593C6.08285 16.7794 5.8774 16.8842 5.66455 16.9726H17.2089V0H5.66903ZM2.5699 9.58936H0V15.5189H2.46674C4.37062 15.5189 5.89103 14.5241 5.89103 12.5541C5.89776 10.8467 4.6913 9.58936 2.5699 9.58936ZM2.46674 1.47587C4.37735 1.47587 5.89776 2.47075 5.89776 4.44066C5.89776 6.14806 4.6913 7.40545 2.5699 7.40545H0V1.47587H2.46674ZM36.7343 16.9594H42.5962C45.6415 16.9594 47.9894 15.8564 47.9894 12.7019C47.9894 11.0806 47.1305 9.52757 44.9082 8.85035C46.7179 8.03856 47.3593 6.64219 47.3593 5.33627C47.3593 2.31854 45.0988 1.23762 42.1836 1.23762H36.7343V16.9594ZM37.7883 2.17956H42.1836V2.18398C44.2669 2.18398 46.33 2.76635 46.33 5.33407C46.33 7.90179 44.4978 8.53269 42.3226 8.53269H37.7883V2.17956ZM37.7883 9.34227H42.5962V9.34669C44.8499 9.34669 46.9466 9.97538 46.9466 12.7019C46.9466 15.4285 44.7938 15.991 42.5962 15.991H37.7883V9.34227ZM49.0949 9.09741C49.0949 13.2203 50.6737 17.1624 55.4143 17.1624C60.1774 17.1624 61.7359 13.2225 61.7359 9.09962C61.7359 4.9767 60.1639 1.03247 55.4143 1.03247C50.6647 1.03247 49.0949 4.9745 49.0949 9.09741ZM50.1467 9.10624C50.1467 5.85467 51.0863 2.04721 55.4143 2.04721C59.7423 2.04721 60.7043 5.85467 60.7043 9.10624C60.7043 12.3578 59.7423 16.1653 55.4143 16.1653C51.0863 16.1653 50.1467 12.3578 50.1467 9.10624ZM62.6508 13.2424C63.3146 16.0814 65.5818 17.1624 68.7415 17.1624C71.6051 17.1624 74.3073 15.5851 74.3073 12.6578C74.3073 9.44155 71.4038 8.75027 68.7141 8.10988C66.3934 7.55734 64.2318 7.0427 64.2318 4.9767C64.2318 2.73326 66.499 2.07147 68.2391 2.07147C70.2529 2.07147 71.7598 2.64722 72.7443 4.43404L73.6413 4.02815C72.5425 1.91044 70.7036 1.07659 68.2369 1.07659C65.667 1.07659 63.2002 2.27221 63.2002 4.9745C63.2002 7.78981 65.8218 8.40685 68.3904 9.01144C70.8575 9.59211 73.2758 10.1613 73.2758 12.6556C73.2758 15.1108 70.8247 16.2138 68.7415 16.2138C66.5191 16.2138 64.252 15.5167 63.6577 13.0615L62.6508 13.2424ZM86.9012 16.9594H88L81.8645 1.23762H80.4899L74.3544 16.9528H75.4308L77.3078 12.1328H85.0466L86.9012 16.9594ZM81.1537 2.20603L84.6811 11.2394H77.6509L81.1537 2.20603ZM36.7074 24.9516H37.8287C39.3805 24.9516 39.4769 24.3096 39.4769 23.0258C39.4769 21.7419 39.3805 21.1022 37.8287 21.1022H36.7074V24.9516ZM37.8511 21.3448C38.5171 21.3448 38.8759 21.4706 39.0553 21.764C39.2274 22.0501 39.2254 22.5278 39.2238 22.9227C39.2236 22.9601 39.2235 22.9967 39.2235 23.0324C39.2235 23.055 39.2235 23.078 39.2236 23.1013C39.2241 23.5034 39.2249 24.0017 39.0553 24.2832C38.8759 24.581 38.5238 24.7067 37.8511 24.7067H36.9541V21.3448H37.8511ZM41.8539 24.9516H44.3207V24.7067H42.1073V23.0589H44.0404V22.8383H42.1073V21.3448H44.3207V21.1022H41.8539V24.9516ZM47.8122 24.9516L49.1353 21.1022H48.8729L47.6687 24.6096L46.4578 21.1022H46.1954L47.5162 24.9516H47.8122ZM51.1491 24.9516H53.6158V24.7067H51.4025V23.0589H53.3355V22.8383H51.4025V21.3448H53.6158V21.1022H51.1491V24.9516ZM55.9368 24.9516H58.1793L58.1771 24.7243H56.188V21.1022H55.9368V24.9516ZM59.7872 23.0258C59.7872 24.0361 60.1751 25.0001 61.3345 25.0001C62.5006 25.0001 62.8818 24.0361 62.8818 23.0258C62.8818 22.0154 62.4961 21.0514 61.3345 21.0514C60.1729 21.0514 59.7872 22.0154 59.7872 23.0258ZM60.0451 23.0258C60.0451 22.2316 60.276 21.3007 61.3345 21.3007C62.3952 21.3007 62.6284 22.2316 62.6284 23.0258C62.6284 23.8199 62.3997 24.7508 61.3345 24.7508C60.2693 24.7508 60.0451 23.8199 60.0451 23.0258ZM65.3732 23.1868H66.555C67.3063 23.1868 67.8288 22.9155 67.8288 22.1434C67.8288 21.3713 67.295 21.1022 66.5505 21.1022H65.1153V24.9516H65.3732V23.1868ZM65.3777 21.3448H66.5483C67.0932 21.3448 67.5798 21.475 67.5798 22.1434C67.5798 22.8118 67.1044 22.9596 66.555 22.9596H65.3777V21.3448ZM72.917 24.9516H73.1681L73.1592 21.1022H72.8968L71.5356 24.6471L70.1901 21.1022H69.9255V24.9516H70.1767V21.6934L71.4212 24.9516H71.6679L72.917 21.6868V24.9516ZM75.7649 24.9516H78.2317L78.2339 24.7067H76.0206V23.0589H77.9536V22.8383H76.0206V21.3448H78.2317V21.1022H75.7649V24.9516ZM82.9521 24.9516H83.2257L83.2302 21.1022H82.9723V24.5324L80.833 21.1022H80.5527V24.9516H80.8106V21.5213L82.9521 24.9516ZM86.6276 21.3448H87.9058V21.1022H85.1049V21.3448H86.3764V24.9516H86.6276V21.3448Z" fill="white"/>
</svg>
