<?xml version="1.0" encoding="UTF-8"?>
<svg id="Layer_1" data-name="Layer 1" xmlns="http://www.w3.org/2000/svg" viewBox="0 0 1687.95 1727.87">
  <path d="M792.85,23.32c12.86-14.81,31.51-23.32,51.12-23.32s38.27,8.51,51.13,23.32l85.18,98.13c7.62,8.78,17.83,14.91,29.17,17.49,11.33,2.59,23.19,1.5,33.87-3.1l119.32-51.45c18.01-7.77,38.51-7.34,56.18,1.17,17.67,8.51,30.78,24.26,35.94,43.19l34.17,125.37c3.06,11.22,9.6,21.17,18.69,28.42s20.25,11.41,31.86,11.9l129.84,5.41c19.59.82,37.87,10.09,50.1,25.43s17.21,35.22,13.65,54.51l-23.62,127.78c-2.11,11.43-.53,23.24,4.51,33.71,5.05,10.48,13.29,19.07,23.55,24.55l114.62,61.21c17.31,9.24,29.75,25.53,34.12,44.65,4.36,19.12.22,39.2-11.36,55.03l-76.72,104.88c-6.86,9.39-10.56,20.71-10.56,32.33s3.7,22.95,10.56,32.33l76.72,104.89c11.58,15.83,15.72,35.9,11.36,55.03-4.37,19.12-16.81,35.41-34.12,44.65l-114.62,61.21c-10.26,5.48-18.5,14.07-23.55,24.54-5.04,10.48-6.62,22.29-4.51,33.72l23.62,127.78c3.56,19.29-1.42,39.17-13.65,54.51s-30.51,24.61-50.1,25.43l-129.84,5.41c-11.61.48-22.77,4.65-31.86,11.9-9.09,7.25-15.63,17.2-18.69,28.42l-34.17,125.37c-5.16,18.93-18.27,34.68-35.94,43.2-17.67,8.51-38.17,8.94-56.18,1.17l-119.32-51.45c-10.68-4.61-22.54-5.69-33.87-3.11-11.34,2.59-21.55,8.71-29.17,17.49l-85.18,98.13c-12.86,14.81-31.51,23.32-51.13,23.32s-38.26-8.51-51.12-23.32l-85.18-98.13c-7.62-8.78-17.84-14.91-29.17-17.49-11.33-2.59-23.2-1.5-33.87,3.11l-119.32,51.45c-18.02,7.77-38.51,7.34-56.18-1.17-17.68-8.51-30.79-24.27-35.95-43.2l-34.16-125.37c-3.06-11.21-9.61-21.17-18.69-28.42-9.09-7.25-20.25-11.41-31.86-11.9l-129.83-5.41c-19.6-.82-37.88-10.1-50.11-25.43s-17.21-35.22-13.64-54.51l23.61-127.78c2.11-11.43.53-23.24-4.51-33.72-5.04-10.47-13.29-19.06-23.54-24.54l-114.63-61.21c-17.3-9.24-29.75-25.53-34.11-44.65-4.37-19.13-.22-39.2,11.36-55.03l76.72-104.89c6.86-9.38,10.56-20.7,10.56-32.33s-3.7-22.94-10.56-32.33l-76.72-104.88c-11.58-15.83-15.73-35.91-11.36-55.03,4.36-19.12,16.81-35.41,34.11-44.65l114.63-61.21c10.25-5.48,18.5-14.07,23.54-24.55,5.04-10.47,6.62-22.28,4.51-33.71l-23.61-127.78c-3.57-19.29,1.41-39.17,13.64-54.51s30.51-24.61,50.11-25.43l129.83-5.41c11.61-.49,22.77-4.65,31.86-11.9,9.09-7.25,15.63-17.2,18.69-28.42l34.16-125.37c5.16-18.93,18.27-34.68,35.95-43.19,17.67-8.51,38.16-8.94,56.18-1.17l119.32,51.45c10.67,4.6,22.54,5.69,33.87,3.1,11.33-2.58,21.55-8.71,29.17-17.49l85.18-98.13ZM444.94,915.97l263.72,246.14c18.79,17.54,43.87,26.74,69.54,25.51,25.67-1.23,49.75-12.78,66.78-32.03l404.38-457.12c34.83-39.37,31.14-99.61-8.23-134.44-39.37-34.83-99.62-31.14-134.44,8.23l-339.57,383.86-192.21-179.4c-38.43-35.87-98.75-33.79-134.62,4.64-35.86,38.43-33.78,98.74,4.65,134.61" style="fill: #009c5f; fill-rule: evenodd;"/>
</svg>