<svg width="18" height="16" viewBox="0 0 18 16" fill="none" xmlns="http://www.w3.org/2000/svg">
<path fill-rule="evenodd" clip-rule="evenodd" d="M0 4.09296L8.52818 0L17.1833 4.09296V6.0158H16.0374V11.7825H0.95452V6.0158H0V4.09296ZM2.80011 10.0451H14.1928V4.77481L8.52818 1.92284L2.80011 4.77481V10.0451ZM9.33971 13.4738C9.33971 13.1287 9.54141 13.0429 9.68345 13.0429C9.82549 13.0429 10.0281 13.1287 10.0281 13.4738C10.0281 13.8188 9.82644 13.9047 9.68345 13.9047C9.54046 13.9047 9.33971 13.8188 9.33971 13.4738ZM9.07551 13.4738C9.07551 14.0532 9.51679 14.1233 9.68345 14.1233C9.85011 14.1233 10.2923 14.0532 10.2923 13.4738C10.2923 12.8943 9.85106 12.8242 9.68345 12.8242C9.51584 12.8242 9.07551 12.8943 9.07551 13.4738ZM2.94882 13.8723L2.82193 13.7561H2.82098L2.95734 13.6177L3.09181 13.7394C3.12685 13.6758 3.14957 13.59 3.14957 13.4746C3.14957 13.1296 2.94882 13.0438 2.80583 13.0438C2.66284 13.0438 2.46114 13.1296 2.46114 13.4746C2.46114 13.8197 2.66284 13.9055 2.80583 13.9055C2.84939 13.9055 2.90147 13.8972 2.94882 13.8723ZM3.28214 13.9148L3.4204 14.0412L3.2812 14.1805L3.13063 14.0412C3.01037 14.1104 2.87969 14.1242 2.80583 14.1242C2.63822 14.1242 2.19695 14.0541 2.19695 13.4746C2.19695 12.8952 2.63822 12.8251 2.80583 12.8251C2.97344 12.8251 3.41472 12.8952 3.41472 13.4746C3.41472 13.6776 3.35979 13.8188 3.28214 13.9148ZM1.30016 13.0751H1.9725V12.8573H1.0407V14.0909H2.00185V13.8723H1.30016V13.5539H1.91757V13.3344H1.30016V13.0751ZM4.66082 13.6601C4.66082 13.9839 4.45912 14.1242 4.14 14.1242C4.02353 14.1242 3.85118 14.0965 3.73755 13.9747C3.66842 13.9 3.64191 13.7985 3.63907 13.6757V12.8573H3.90894V13.6582C3.90894 13.8308 4.01121 13.9055 4.13432 13.9055C4.31613 13.9055 4.38999 13.8197 4.38999 13.6702V12.8573H4.66082V13.6601ZM5.37292 13.136H5.37008L5.2072 13.6241H5.53011L5.37292 13.136ZM5.60397 13.8363H5.13618L5.04812 14.091H4.76971L5.22141 12.8565H5.52727L5.97328 14.091H5.68541L5.60397 13.8363ZM6.44398 13.8677H7.0737V14.0909H6.17884V12.8573H6.44398V13.8677ZM8.07645 14.0909V13.5373H8.57076V14.0909H8.83496V12.8573H8.57076V13.3242H8.07645V12.8573H7.81226V14.0909H8.07645ZM11.0347 14.1242C11.3538 14.1242 11.5555 13.9839 11.5555 13.6601V12.8573H11.2856V13.6702C11.2856 13.8197 11.2118 13.9055 11.03 13.9055C10.9059 13.9055 10.8036 13.8308 10.8036 13.6582V12.8573H10.5338V13.6757C10.5366 13.7985 10.5631 13.9 10.6323 13.9747C10.7459 14.0965 10.9182 14.1242 11.0347 14.1242ZM12.0394 13.7109C12.0413 13.7792 12.0773 13.9102 12.3083 13.9102C12.4333 13.9102 12.5735 13.8807 12.5735 13.7496C12.5735 13.6537 12.4779 13.6279 12.3443 13.5974L12.208 13.566C12.0025 13.5199 11.8055 13.4756 11.8055 13.2043C11.8055 13.0669 11.8822 12.8242 12.2923 12.8242C12.6805 12.8242 12.7847 13.0715 12.7866 13.2228H12.5318C12.5252 13.1684 12.5034 13.0373 12.2724 13.0373C12.172 13.0373 12.0517 13.0733 12.0517 13.185C12.0517 13.2819 12.1332 13.3012 12.1852 13.3132L12.494 13.387C12.6672 13.4286 12.8254 13.4978 12.8254 13.7192C12.8254 14.091 12.4371 14.1233 12.3263 14.1233C11.8642 14.1233 11.7847 13.8641 11.7847 13.7109H12.0385H12.0394ZM13.0451 14.0909H13.3083V12.8573H13.0451V14.0909ZM14.3661 12.8573H14.6123V14.0909H14.3481L13.8311 13.2107H13.8273V14.0909H13.5801V12.8573H13.8595L14.3613 13.7163H14.3661V12.8573ZM16.0261 13.4258H15.4977V13.6334H15.7922C15.7382 13.8825 15.5432 13.9047 15.4854 13.9047C15.3055 13.9047 15.1171 13.817 15.1171 13.4802C15.1171 13.1647 15.2941 13.0374 15.4807 13.0374C15.6672 13.0374 15.7572 13.1924 15.7572 13.2403H16.0214C16.0081 13.0696 15.8547 12.8242 15.4655 12.8242C15.0394 12.8224 14.8472 13.1407 14.8472 13.4775C14.8472 13.9102 15.1237 14.1233 15.4286 14.1233C15.656 14.1233 15.7531 14.0152 15.8202 13.9406L15.8235 13.937L15.85 14.091H16.0261V13.4258ZM1.24898 15.3495C1.24898 15.0045 1.44973 14.9177 1.59272 14.9177C1.73571 14.9177 1.93646 15.0035 1.93646 15.3495C1.93646 15.6955 1.73571 15.7813 1.59272 15.7813C1.44973 15.7813 1.24898 15.6946 1.24898 15.3495ZM0.984782 15.3495C0.984782 15.929 1.42606 16 1.59367 16C1.76128 16 2.20255 15.929 2.20255 15.3495C2.20255 14.7701 1.76128 14.7 1.59367 14.7C1.42606 14.7 0.984782 14.7701 0.984782 15.3495ZM2.92601 14.9454V15.308H3.17127C3.36918 15.308 3.36918 15.1714 3.36918 15.1161C3.36918 14.9961 3.30005 14.9454 3.13623 14.9454H2.92601ZM3.22903 15.5211H2.92601H2.92506V15.9668H2.66086V14.7322H3.23945C3.4847 14.7322 3.63243 14.8854 3.63243 15.1271C3.63243 15.2388 3.56993 15.5211 3.22903 15.5211ZM4.35125 15.308V14.9454H4.56052C4.72434 14.9454 4.79347 14.9961 4.79347 15.1161C4.79347 15.1714 4.79347 15.308 4.5965 15.308H4.35125ZM4.35219 15.5211H4.65427C4.99422 15.5211 5.05861 15.2388 5.05861 15.1271C5.05861 14.8854 4.91089 14.7322 4.66563 14.7322H4.08705V15.9668H4.35219V15.5211ZM6.06422 14.9177C5.92124 14.9177 5.72048 15.0045 5.72048 15.3495C5.72048 15.6946 5.92218 15.7813 6.06422 15.7813C6.20627 15.7813 6.40796 15.6955 6.40796 15.3495C6.40796 15.0035 6.20721 14.9177 6.06422 14.9177ZM6.06517 16C5.89662 16 5.45629 15.929 5.45629 15.3495C5.45629 14.7701 5.89851 14.7 6.06517 14.7C6.23183 14.7 6.67311 14.7701 6.67311 15.3495C6.67311 15.929 6.23373 16 6.06517 16ZM7.3928 15.2748V14.9445H7.72234C7.87763 14.9445 7.90699 15.0414 7.90699 15.1069C7.90699 15.2287 7.8407 15.2757 7.70245 15.2757H7.3928V15.2748ZM7.13334 15.9668H7.39375V15.4833H7.66647C7.86248 15.4833 7.8729 15.5488 7.8729 15.7168C7.8729 15.8441 7.88332 15.9068 7.90036 15.9659H8.19297V15.9327C8.13615 15.9124 8.13615 15.8672 8.13615 15.6872C8.13615 15.4566 8.07933 15.4187 7.97612 15.3735C8.10111 15.3329 8.17119 15.2157 8.17119 15.0801C8.17119 14.9731 8.10964 14.7313 7.77252 14.7313H7.13144V15.9659L7.13334 15.9668ZM8.89373 15.9668H9.15793V14.95H9.54144V14.7322H8.51116V14.95H8.89373V15.9668ZM10.9609 15.5341C10.9609 15.8589 10.7602 15.9991 10.4401 15.9991C10.3246 15.9991 10.1513 15.9705 10.0386 15.8487C9.96948 15.774 9.94297 15.6734 9.94013 15.5498V14.7313H10.21V15.5322C10.21 15.7038 10.3123 15.7804 10.4363 15.7804C10.6181 15.7804 10.692 15.6937 10.692 15.5442V14.7313H10.9619V15.5341H10.9609ZM12.4883 14.7322H12.2412V15.5912H12.2383L11.7346 14.7322H11.4562V15.9668H11.7043V15.0856H11.7071L12.2232 15.9668H12.4883V14.7322ZM13.2354 15.9668H12.9693V14.7322H13.2354V15.9668ZM14.0034 15.9668H14.2685V14.95H14.6511V14.7322H13.6217V14.95H14.0034V15.9668ZM15.6511 15.9668H15.386V15.5008L14.9495 14.7322H15.261L15.5243 15.2683L15.7752 14.7322H16.0744L15.6511 15.5036V15.9668ZM11.137 6.63485H5.85493V4.77475H11.137V6.63485ZM5.85493 9.30229H11.137V7.44127H5.85493V9.30229Z" fill="white" fill-opacity="0.5"/>
</svg>
