<svg width="21" height="15" viewBox="0 0 21 15" fill="none" xmlns="http://www.w3.org/2000/svg">
<path d="M1 6.36377C0.447715 6.36377 -2.57986e-08 6.81148 0 7.36377C2.57986e-08 7.91605 0.447715 8.36377 1 8.36377L1 7.36377L1 6.36377ZM19.8743 8.07087C20.2648 7.68035 20.2648 7.04718 19.8743 6.65666L13.5103 0.2927C13.1198 -0.0978246 12.4866 -0.0978245 12.0961 0.2927C11.7056 0.683224 11.7056 1.31639 12.0961 1.70691L17.753 7.36377L12.0961 13.0206C11.7056 13.4111 11.7056 14.0443 12.0961 14.4348C12.4866 14.8254 13.1198 14.8254 13.5103 14.4348L19.8743 8.07087ZM1 7.36377L1 8.36377L19.1672 8.36377L19.1672 7.36377L19.1672 6.36377L1 6.36377L1 7.36377Z" fill="#C8A2C7"/>
</svg>
