<svg width="28" height="28" viewBox="0 0 28 28" fill="none" xmlns="http://www.w3.org/2000/svg">
<rect width="28" height="28" rx="14" fill="white"/>
<path d="M6.3608 13.6464C6.16554 13.8417 6.16554 14.1583 6.3608 14.3536L9.54278 17.5355C9.73804 17.7308 10.0546 17.7308 10.2499 17.5355C10.4452 17.3403 10.4452 17.0237 10.2499 16.8284L7.42146 14L10.2499 11.1716C10.4452 10.9763 10.4452 10.6597 10.2499 10.4645C10.0546 10.2692 9.73804 10.2692 9.54278 10.4645L6.3608 13.6464ZM21.6393 14.3536C21.8346 14.1583 21.8346 13.8417 21.6393 13.6464L18.4574 10.4645C18.2621 10.2692 17.9455 10.2692 17.7502 10.4645C17.555 10.6597 17.555 10.9763 17.7502 11.1716L20.5787 14L17.7502 16.8284C17.555 17.0237 17.555 17.3403 17.7502 17.5355C17.9455 17.7308 18.2621 17.7308 18.4574 17.5355L21.6393 14.3536ZM6.71436 14.5H21.2858V13.5H6.71436V14.5Z" fill="#3A2A22"/>
</svg>
