<?xml version="1.0" encoding="UTF-8"?> <svg xmlns="http://www.w3.org/2000/svg" id="Layer_2" data-name="Layer 2" viewBox="0 0 771.06 827.84"><defs><style> .cls-1 { stroke-dasharray: 6.02 5.02; } .cls-1, .cls-2, .cls-3, .cls-4, .cls-5, .cls-6, .cls-7, .cls-8, .cls-9, .cls-10, .cls-11 { fill: none; } .cls-1, .cls-2, .cls-3, .cls-6, .cls-8, .cls-9, .cls-10 { stroke-width: .25px; } .cls-1, .cls-3, .cls-4, .cls-5, .cls-6, .cls-9, .cls-10, .cls-11 { stroke-linecap: round; stroke-linejoin: round; } .cls-1, .cls-3, .cls-6, .cls-9 { stroke: #75655e; } .cls-2 { stroke: #afa49f; } .cls-2, .cls-7, .cls-8 { stroke-miterlimit: 10; } .cls-3 { stroke-dasharray: 1.54 1.54; } .cls-12 { fill: #3a2a22; } .cls-4 { stroke: #55453d; stroke-width: .15px; } .cls-13 { fill: #fff; } .cls-5, .cls-7 { stroke-width: .75px; } .cls-5, .cls-7, .cls-10, .cls-11 { stroke: #3a2a22; } .cls-14 { fill: #bc8ebc; } .cls-8 { stroke: #bc8ebc; } .cls-9 { stroke-dasharray: 6.06 5.05; } .cls-15 { fill: #afa49f; } .cls-11 { stroke-width: .35px; } .cls-16 { fill: #75655e; } </style></defs><g id="Layer_1-2" data-name="Layer 1"><g><polyline class="cls-6" points="160.44 809.42 147.04 809.42 139.93 708.06 131.89 708.61 101.67 277.48"></polyline><polygon class="cls-13" points="760.69 86.18 760.69 .12 729.35 2.59 694.05 5.64 658.84 9.15 623.55 12.93 588.44 17.09 553.32 21.62 518.21 26.52 483.19 31.78 448.17 37.33 413.25 43.33 378.41 49.62 343.58 56.27 308.93 63.29 274.28 70.68 239.72 78.45 205.16 86.48 170.79 94.89 136.51 103.67 102.23 112.82 68.13 122.34 34.13 132.13 .12 142.29 57.23 277.48 115.16 277.48 141.03 647.08 149.17 647.08 160.44 809.42 185.2 809.42 184.14 827.46 268.66 827.46 268.66 808.43 588.55 808.43 588.55 600.53 676.33 600.53 676.33 518.48 760.69 518.48 760.69 86.18"></polygon><polyline class="cls-11" points="156.9 647.08 167.75 801.6 194.22 801.6 194.22 809.42 192.22 809.42"></polyline><polyline class="cls-11" points="154.9 647.08 165.89 803.6 192.23 803.6 192.23 809.42"></polyline><polygon class="cls-11" points="760.69 2.54 743.39 3.79 707.54 6.74 671.78 10.16 636.02 13.86 600.36 17.92 564.69 22.45 529.02 27.26 493.45 32.52 457.97 38.07 422.58 43.98 387.19 50.36 351.89 57.01 316.59 64.03 281.48 71.52 246.37 79.28 211.35 87.41 176.42 95.91 141.59 104.78 106.85 114.02 72.29 123.54 37.73 133.52 3.27 143.77 58.8 275.17 112.58 275.17 112.58 273.23 60.09 273.23 6.04 145.07 40.32 134.9 74.6 125.02 109.06 115.5 143.62 106.35 178.27 97.48 213.01 89.07 247.85 80.94 282.78 73.27 317.8 65.88 352.82 58.86 387.93 52.3 423.13 46.01 458.43 40.1 493.73 34.46 529.11 29.29 564.5 24.48 599.99 20.05 635.47 15.98 671.04 12.2 706.62 8.87 742.28 5.91 760.69 4.53 760.69 2.54"></polygon><rect class="cls-11" x="752.45" y="7.21" width="3.42" height="76.88"></rect><g><path class="cls-4" d="M620.13,581.35c0-25.52,20.68-43.4,46.2-43.4"></path><path class="cls-4" d="M470.06,680.62c-23.13,0-39.35-18.62-39.35-41.58"></path><path class="cls-4" d="M679,383.74c23.13,0,39.35-18.62,39.35-41.58"></path><path class="cls-4" d="M620.78,329.3c0-23.13-18.62-39.35-41.58-39.35"></path><path class="cls-4" d="M209.02,230.17c-23.13,0-39.35,18.62-39.34,41.59"></path><path class="cls-4" d="M453.73,753.34c23.13,0,39.35-18.62,39.35-41.58"></path></g><line class="cls-4" x1="666.33" y1="581.35" x2="666.33" y2="537.95"></line><line class="cls-4" x1="676.33" y1="584.15" x2="676.33" y2="537.95"></line><g><path class="cls-4" d="M208.95,788.71c0-23.13,18.62-39.35,41.58-39.35"></path><path class="cls-4" d="M318.72,624.05c0-23.13,18.62-39.35,41.58-39.35"></path><path class="cls-4" d="M390.25,530.47c23.13,0,39.35,18.62,39.35,41.58"></path></g><rect class="cls-11" x="620.13" y="581.35" width="46.2" height="2.8"></rect><rect class="cls-11" x="470.06" y="639.04" width="2.23" height="41.58"></rect><rect class="cls-11" x="451.5" y="711.76" width="2.23" height="41.58"></rect><rect class="cls-11" x="571.62" y="483.16" width="69.3" height="2.21"></rect><line class="cls-11" x1="606.27" y1="483.16" x2="606.27" y2="485.38"></line><rect class="cls-11" x="540.48" y="552.37" width="2.21" height="62.37"></rect><line class="cls-11" x1="542.69" y1="583.55" x2="540.48" y2="583.55"></line><rect class="cls-11" x="307.72" y="499.26" width="2.21" height="34.65"></rect><rect class="cls-11" x="305.51" y="533.89" width="2.21" height="34.65"></rect><rect class="cls-11" x="208.95" y="788.71" width="41.58" height="2.23"></rect><rect class="cls-11" x="318.72" y="624.05" width="41.58" height="2.23"></rect><rect class="cls-11" x="388.02" y="530.47" width="2.23" height="41.58"></rect><rect class="cls-11" x="502.42" y="659.83" width="2.21" height="41.58"></rect><rect class="cls-11" x="676.77" y="342.16" width="2.23" height="41.58"></rect><rect class="cls-11" x="579.2" y="329.3" width="41.58" height="2.23"></rect><rect class="cls-11" x="209.02" y="230.17" width="2.23" height="41.58"></rect><rect class="cls-11" x="620.13" y="339.95" width="41.58" height="2.21"></rect><line class="cls-6" x1="369.55" y1="399.92" x2="369.55" y2="399.17"></line><line class="cls-3" x1="369.55" y1="397.63" x2="369.54" y2="373.82"></line><polyline class="cls-6" points="369.54 373.06 369.54 372.31 368.79 372.31"></polyline><line class="cls-3" x1="367.26" y1="372.31" x2="343.45" y2="372.31"></line><polyline class="cls-6" points="342.68 372.31 341.93 372.31 341.93 373.06"></polyline><line class="cls-3" x1="341.93" y1="374.59" x2="341.94" y2="398.4"></line><line class="cls-6" x1="341.94" y1="399.17" x2="341.94" y2="399.92"></line><line class="cls-6" x1="473.43" y1="399.91" x2="473.43" y2="399.16"></line><line class="cls-3" x1="473.42" y1="397.62" x2="473.42" y2="373.82"></line><polyline class="cls-6" points="473.42 373.05 473.42 372.3 472.67 372.3"></polyline><line class="cls-3" x1="471.14" y1="372.3" x2="447.33" y2="372.3"></line><polyline class="cls-6" points="446.56 372.3 445.81 372.3 445.81 373.05"></polyline><line class="cls-3" x1="445.81" y1="374.59" x2="445.81" y2="398.39"></line><line class="cls-6" x1="445.81" y1="399.16" x2="445.81" y2="399.91"></line><line class="cls-6" x1="340.62" y1="462.65" x2="343.62" y2="462.65"></line><line class="cls-1" x1="348.64" y1="462.65" x2="434.44" y2="462.64"></line><line class="cls-6" x1="436.95" y1="462.64" x2="439.95" y2="462.64"></line><line class="cls-6" x1="221.7" y1="141.46" x2="218.73" y2="141.87"></line><polyline class="cls-9" points="213.73 142.56 179.94 147.19 138.17 153.2 96.5 159.57 54.83 166.23 18.6 172.25"></polyline><line class="cls-6" x1="16.11" y1="172.66" x2="13.15" y2="173.16"></line><rect class="cls-11" x="338.31" y="350.2" width="138.6" height="49.71"></rect><g><rect class="cls-11" x="387.2" y="369.97" width="1.74" height="9.78" rx=".59" ry=".59"></rect><path class="cls-11" d="M388.07,385.65c.49,0,.9.4.9.9s-.4.9-.9.9-.9-.4-.9-.9.4-.9.9-.9Z"></path></g><polyline class="cls-11" points="388.94 371.29 391.36 371.29 391.36 372.84 388.94 372.84"></polyline><line class="cls-11" x1="390.5" y1="372.84" x2="390.5" y2="371.29"></line><polyline class="cls-11" points="388.94 375.15 400.99 375.15 401 396.91 375.15 396.91 375.15 375.15 387.2 375.15"></polyline><polyline class="cls-11" points="387.2 376.23 376.23 376.23 376.23 395.83 399.92 395.83 399.91 376.23 388.94 376.23"></polyline><line class="cls-11" x1="476.91" y1="450.73" x2="297.93" y2="450.74"></line><line class="cls-11" x1="340.62" y1="450.74" x2="340.62" y2="478.45"></line><line class="cls-11" x1="439.95" y1="450.73" x2="439.95" y2="478.45"></line><line class="cls-11" x1="340.62" y1="453.24" x2="297.93" y2="453.24"></line><line class="cls-11" x1="476.91" y1="453.23" x2="439.95" y2="453.24"></line><line class="cls-11" x1="540.48" y1="342.16" x2="540.48" y2="422.17"></line><polyline class="cls-11" points="725.62 342.16 725.63 425.89 750.77 425.89"></polyline><path class="cls-11" d="M742.68,401.94v9.87c0,.4-.32.72-.72.72h-10.9c-.4,0-.72-.32-.72-.72v-20.82c0-.4.32-.72.72-.72h10.9c.4,0,.72.32.72.72v9.48"></path><rect class="cls-11" x="740.25" y="400.47" width="5.89" height="1.47"></rect><g><circle class="cls-11" cx="736.51" cy="401.21" r=".84"></circle><path class="cls-11" d="M742.68,367.19v9.87c0,.4-.32.72-.72.72h-10.9c-.4,0-.72-.32-.72-.72v-20.82c0-.4.32-.72.72-.72h10.9c.4,0,.72.32.72.72v9.48"></path></g><rect class="cls-11" x="740.24" y="365.72" width="5.89" height="1.47"></rect><circle class="cls-11" cx="736.51" cy="366.45" r=".84"></circle><line class="cls-11" x1="674.46" y1="466.9" x2="749.83" y2="466.89"></line><line class="cls-11" x1="674.46" y1="466.9" x2="750.65" y2="466.89"></line><line class="cls-11" x1="674.46" y1="468.18" x2="750.65" y2="468.17"></line><line class="cls-11" x1="679.14" y1="468.18" x2="679.14" y2="466.9"></line><line class="cls-11" x1="717.15" y1="468.18" x2="717.15" y2="466.89"></line><line class="cls-11" x1="737.26" y1="508.47" x2="737.26" y2="468.17"></line><g><path class="cls-11" d="M687.59,488.32c0,.67-.54,1.21-1.21,1.21s-1.21-.54-1.21-1.21.54-1.21,1.21-1.21,1.21.54,1.21,1.21Z"></path><path class="cls-11" d="M691.56,488.32c0,2.86-2.32,5.18-5.18,5.18s-5.18-2.32-5.18-5.18,2.32-5.18,5.18-5.18,5.18,2.32,5.18,5.18Z"></path><path class="cls-11" d="M743.19,438.67v15.44c0,.6.48,1.08,1.08,1.08h5.29c.6,0,1.08-.48,1.08-1.08v-15.44c0-.6-.48-1.08-1.08-1.08h-5.29c-.6,0-1.08.48-1.08,1.08Z"></path><path class="cls-11" d="M739.04,441.93c0-.28-.11-.54-.32-.73-2.09-1.88-5.3-3.09-8.9-3.08-6.31,0-11.42,3.7-11.42,8.28s5.11,8.27,11.42,8.27c3.6,0,6.8-1.2,8.9-3.08.21-.19.32-.46.32-.73v-8.92Z"></path></g><line class="cls-11" x1="729.83" y1="438.11" x2="743.35" y2="438.11"></line><line class="cls-11" x1="729.83" y1="454.66" x2="743.35" y2="454.66"></line><line class="cls-11" x1="536.97" y1="714.07" x2="536.96" y2="789.43"></line><line class="cls-11" x1="536.97" y1="714.07" x2="536.96" y2="790.25"></line><line class="cls-11" x1="538.25" y1="714.07" x2="538.24" y2="790.25"></line><line class="cls-11" x1="538.25" y1="718.75" x2="536.97" y2="718.75"></line><line class="cls-11" x1="538.25" y1="756.75" x2="536.96" y2="756.75"></line><line class="cls-11" x1="578.54" y1="776.87" x2="538.24" y2="776.86"></line><g><path class="cls-11" d="M559.62,725.99c0,.67-.54,1.21-1.21,1.21s-1.21-.54-1.21-1.21.54-1.21,1.21-1.21,1.21.54,1.21,1.21Z"></path><path class="cls-11" d="M563.59,725.99c0,2.86-2.32,5.18-5.18,5.18s-5.18-2.32-5.18-5.18,2.32-5.18,5.18-5.18,5.18,2.32,5.18,5.18Z"></path></g><line class="cls-11" x1="367.54" y1="500.81" x2="364.33" y2="500.81"></line><g><path class="cls-11" d="M363.47,500.81h-11.6c-1.38,0-2.5,1.12-2.5,2.5v61.83c0,1.38,1.12,2.5,2.5,2.5h24.04c1.38,0,2.5-1.12,2.5-2.5v-61.83c0-1.38-1.12-2.5-2.5-2.5h-8.37"></path><path class="cls-11" d="M364.33,496.78v10.86c0,.24-.19.43-.43.43s-.43-.19-.43-.43v-10.81"></path><path class="cls-11" d="M363.47,506.56c-.46.17-.79.61-.79,1.14,0,.67.54,1.21,1.21,1.21s1.21-.54,1.21-1.21c0-.51-.32-.95-.77-1.13"></path><path class="cls-11" d="M363.47,502.53c-2.66.22-4.76,2.45-4.76,5.17,0,2.86,2.32,5.18,5.18,5.18s5.18-2.32,5.18-5.18c0-2.71-2.09-4.94-4.74-5.17"></path></g><rect class="cls-11" x="361.35" y="495.82" width="5.08" height=".97"></rect><line class="cls-11" x1="382.12" y1="495.82" x2="382.11" y2="572.05"></line><line class="cls-11" x1="383.4" y1="495.82" x2="383.4" y2="572"></line><line class="cls-11" x1="383.4" y1="500.5" x2="382.12" y2="500.5"></line><line class="cls-11" x1="383.4" y1="538.5" x2="382.12" y2="538.5"></line><g><rect class="cls-11" x="467.15" y="498.15" width="7.45" height="17.6" rx="1.08" ry="1.08"></rect><path class="cls-11" d="M463,502.5c0-.28-.11-.54-.32-.73-2.09-1.88-5.3-3.09-8.9-3.09-6.31,0-11.42,3.7-11.42,8.28,0,4.57,5.11,8.28,11.42,8.28,3.59,0,6.8-1.2,8.9-3.08.21-.19.32-.46.32-.73v-8.92Z"></path></g><line class="cls-11" x1="453.78" y1="498.68" x2="467.3" y2="498.68"></line><line class="cls-11" x1="453.78" y1="515.23" x2="467.3" y2="515.23"></line><polyline class="cls-11" points="474.6 527.63 449.58 527.63 449.58 572.05"></polyline><path class="cls-11" d="M466.53,545.64v9.87c0,.4-.32.72-.72.72h-10.9c-.4,0-.72-.32-.72-.72v-20.82c0-.4.32-.72.72-.72h10.9c.4,0,.72.32.72.72v9.48"></path><rect class="cls-11" x="464.1" y="544.17" width="5.89" height="1.47"></rect><g><circle class="cls-11" cx="460.36" cy="544.9" r=".84"></circle><path class="cls-11" d="M523.7,782.8h-15.44c-.6,0-1.08.48-1.08,1.08v5.29c0,.6.48,1.08,1.08,1.08h15.44c.6,0,1.08-.48,1.08-1.08v-5.29c0-.6-.48-1.08-1.08-1.08Z"></path><path class="cls-11" d="M520.44,778.65c.28,0,.54-.11.73-.32,1.88-2.09,3.08-5.3,3.09-8.9,0-6.31-3.7-11.42-8.28-11.42-4.57,0-8.28,5.11-8.28,11.42,0,3.6,1.2,6.8,3.08,8.9.19.21.46.32.73.32h8.92Z"></path></g><line class="cls-11" x1="524.25" y1="769.43" x2="524.25" y2="782.95"></line><line class="cls-11" x1="507.7" y1="769.43" x2="507.7" y2="782.95"></line><polyline class="cls-11" points="495.3 790.25 495.3 765.23 446.88 765.23"></polyline><path class="cls-11" d="M470.55,782.18h-9.87c-.4,0-.72-.32-.72-.72v-10.9c0-.4.32-.72.72-.72h20.82c.4,0,.72.32.72.72v10.9c0,.4-.32.72-.72.72h-9.48"></path><rect class="cls-11" x="470.55" y="779.75" width="1.47" height="5.89"></rect><circle class="cls-11" cx="471.28" cy="776.01" r=".84"></circle><rect class="cls-11" x="549.14" y="554.43" width="38.03" height="30.61"></rect><polyline class="cls-11" points="546.21 614.74 546.21 590.53 573.93 590.53"></polyline><rect class="cls-11" x="372.59" y="452.02" width="36.97" height="24.28"></rect><rect class="cls-11" x="373.67" y="453.1" width="34.82" height="22.12"></rect><path class="cls-11" d="M391.08,453.85c.71,0,1.28.57,1.28,1.28s-.57,1.28-1.28,1.28c-.71,0-1.28-.57-1.28-1.28,0-.71.57-1.28,1.28-1.28Z"></path><line class="cls-11" x1="408.49" y1="453.09" x2="409.57" y2="452.01"></line><line class="cls-11" x1="373.67" y1="453.1" x2="372.59" y2="452.02"></line><line class="cls-11" x1="373.68" y1="475.22" x2="372.6" y2="476.3"></line><line class="cls-11" x1="408.49" y1="475.21" x2="409.57" y2="476.29"></line><rect class="cls-11" x="390.33" y="454.39" width="1.49" height="1.49" transform="translate(-207.28 409.82) rotate(-45)"></rect><line class="cls-11" x1="391.08" y1="456.19" x2="391.08" y2="454.08"></line><g><path class="cls-10" d="M611.31,466.5c.03,1.51.06,3.03.13,4.57.04.8.09,1.6.13,2.35.03.57.07,1.11.16,1.78.09.65.25,1.42-.23,1.73-.11.07-.25.12-.38.13-.77.06-.9-1.18-.97-2.24-.15-2.35.04-3.74.16-5.44.06-.9.1-1.9.14-2.89-.04-.99-.08-1.98-.14-2.89-.11-1.7-.3-3.09-.16-5.44.07-1.05.2-2.3.97-2.24.13.01.27.06.38.13.48.3.32,1.08.23,1.73-.1.67-.13,1.21-.16,1.78-.05.75-.09,1.56-.13,2.36-.07,1.54-.1,3.06-.13,4.57Z"></path><path class="cls-10" d="M606.61,466.5c.03,1.51.06,3.03.13,4.57.04.8.09,1.6.13,2.35.03.57.07,1.11.16,1.78.09.65.25,1.42-.23,1.73-.11.07-.25.12-.38.13-.77.06-.9-1.18-.97-2.24-.15-2.35.04-3.74.16-5.44.06-.9.1-1.9.14-2.89-.04-.99-.08-1.98-.14-2.89-.11-1.7-.3-3.09-.16-5.44.07-1.05.2-2.3.97-2.24.13.01.27.06.38.13.48.3.32,1.08.23,1.73-.1.67-.13,1.21-.16,1.78-.04.75-.09,1.56-.13,2.36-.07,1.54-.1,3.06-.13,4.57Z"></path><path class="cls-10" d="M601.92,466.5c.03,1.51.06,3.03.13,4.57.04.8.09,1.6.13,2.35.03.57.07,1.11.16,1.78.09.65.25,1.42-.23,1.73-.11.07-.25.12-.38.13-.77.06-.9-1.18-.97-2.24-.15-2.35.04-3.74.16-5.44.06-.9.1-1.9.14-2.89-.04-.99-.08-1.98-.14-2.89-.11-1.7-.3-3.09-.16-5.44.07-1.05.2-2.3.97-2.24.13.01.27.06.38.13.48.3.32,1.08.23,1.73-.1.67-.13,1.21-.16,1.78-.04.75-.09,1.56-.13,2.36-.07,1.54-.1,3.06-.13,4.57Z"></path></g><line class="cls-10" x1="546.21" y1="466.5" x2="666.33" y2="466.5"></line><g><path class="cls-10" d="M323.74,534.35c-1.51.03-3.03.06-4.57.13-.8.04-1.6.09-2.35.13-.57.03-1.11.07-1.78.16-.65.09-1.42.25-1.73-.23-.07-.11-.12-.25-.13-.38-.06-.77,1.18-.9,2.24-.97,2.35-.15,3.74.04,5.44.16.9.06,1.9.1,2.89.14.99-.04,1.98-.08,2.89-.14,1.7-.12,3.09-.3,5.44-.16,1.05.07,2.3.2,2.24.97-.01.13-.06.27-.13.38-.3.48-1.08.33-1.73.23-.67-.1-1.21-.13-1.78-.16-.75-.04-1.56-.09-2.36-.13-1.54-.07-3.06-.1-4.57-.13Z"></path><path class="cls-10" d="M323.74,529.65c-1.51.03-3.03.06-4.57.13-.8.04-1.6.09-2.35.13-.57.03-1.11.07-1.78.16-.65.09-1.42.25-1.73-.23-.07-.11-.12-.25-.13-.38-.06-.77,1.18-.9,2.24-.97,2.35-.15,3.74.04,5.44.16.9.06,1.9.1,2.89.14.99-.04,1.98-.08,2.89-.14,1.7-.12,3.09-.3,5.44-.16,1.05.07,2.3.2,2.24.97-.01.13-.06.27-.13.38-.3.48-1.08.33-1.73.23-.67-.1-1.21-.13-1.78-.16-.75-.04-1.56-.09-2.36-.13-1.54-.07-3.06-.1-4.57-.13Z"></path><path class="cls-10" d="M323.74,524.96c-1.51.03-3.03.06-4.57.13-.8.04-1.6.09-2.35.13-.57.03-1.11.07-1.78.16-.65.09-1.42.25-1.73-.23-.07-.11-.12-.25-.13-.38-.06-.77,1.18-.9,2.24-.97,2.35-.15,3.74.04,5.44.16.9.06,1.9.1,2.89.14.99-.04,1.98-.08,2.89-.14,1.7-.12,3.09-.3,5.44-.16,1.05.07,2.3.2,2.24.97-.01.13-.06.27-.13.38-.3.48-1.08.32-1.73.23-.67-.1-1.21-.13-1.78-.16-.75-.04-1.56-.09-2.36-.13-1.54-.07-3.06-.1-4.57-.13Z"></path></g><line class="cls-10" x1="323.74" y1="486.58" x2="323.74" y2="572.05"></line><g><path class="cls-10" d="M539.45,647.78c.03,1.51.06,3.03.13,4.57.04.8.09,1.6.13,2.36.03.57.07,1.11.16,1.78.09.65.25,1.42-.23,1.73-.11.07-.25.12-.38.13-.77.06-.9-1.18-.97-2.24-.15-2.35.04-3.74.16-5.44.06-.9.1-1.89.14-2.89-.04-.99-.08-1.98-.14-2.89-.11-1.7-.3-3.09-.16-5.44.07-1.05.2-2.3.97-2.24.13,0,.27.06.38.13.48.31.32,1.08.23,1.73-.1.67-.13,1.21-.16,1.78-.04.75-.09,1.56-.13,2.35-.07,1.55-.1,3.06-.13,4.57Z"></path><path class="cls-10" d="M534.76,647.78c.03,1.51.06,3.03.13,4.57.04.8.09,1.6.13,2.36.03.57.07,1.11.16,1.78.09.65.25,1.42-.23,1.73-.11.07-.25.12-.38.13-.77.06-.9-1.18-.97-2.24-.15-2.35.04-3.74.16-5.44.06-.9.1-1.89.14-2.89-.04-.99-.08-1.98-.14-2.89-.11-1.7-.3-3.09-.16-5.44.07-1.05.2-2.3.97-2.24.13,0,.27.06.38.13.48.31.32,1.08.23,1.73-.1.67-.13,1.21-.16,1.78-.04.75-.09,1.56-.13,2.35-.07,1.55-.1,3.06-.13,4.57Z"></path><path class="cls-10" d="M530.06,647.78c.03,1.51.06,3.03.13,4.57.04.8.09,1.6.13,2.36.03.57.07,1.11.16,1.78.09.65.25,1.42-.23,1.73-.11.07-.25.12-.38.13-.77.06-.9-1.18-.97-2.24-.15-2.35.04-3.74.16-5.44.06-.9.1-1.89.14-2.89-.04-.99-.08-1.98-.14-2.89-.11-1.7-.3-3.09-.16-5.44.07-1.05.2-2.3.97-2.24.13,0,.27.06.38.13.48.31.32,1.08.23,1.73-.1.67-.13,1.21-.16,1.78-.05.75-.09,1.56-.13,2.35-.07,1.55-.1,3.06-.13,4.57Z"></path><path class="cls-10" d="M564.2,681.94c-1.51.03-3.03.06-4.57.13-.8.04-1.6.09-2.35.13-.57.03-1.11.07-1.78.16-.65.09-1.42.25-1.73-.23-.07-.11-.12-.25-.13-.38-.06-.77,1.18-.9,2.24-.97,2.35-.15,3.74.04,5.44.16.9.06,1.9.1,2.89.14.99-.04,1.98-.08,2.89-.14,1.7-.11,3.09-.3,5.44-.16,1.05.07,2.3.2,2.24.97-.01.13-.06.27-.13.38-.31.48-1.08.33-1.73.23-.67-.1-1.21-.13-1.78-.16-.75-.04-1.56-.09-2.35-.13-1.55-.07-3.06-.1-4.57-.13Z"></path><path class="cls-10" d="M564.2,677.25c-1.51.03-3.03.06-4.57.13-.8.04-1.6.09-2.35.13-.57.03-1.11.07-1.78.16-.65.09-1.42.25-1.73-.23-.07-.11-.12-.25-.13-.38-.06-.77,1.18-.9,2.24-.97,2.35-.15,3.74.04,5.44.16.9.06,1.9.1,2.89.14.99-.04,1.98-.08,2.89-.14,1.7-.11,3.09-.3,5.44-.16,1.05.07,2.3.2,2.24.97-.01.13-.06.27-.13.38-.31.48-1.08.33-1.73.23-.67-.1-1.21-.13-1.78-.16-.75-.04-1.56-.09-2.35-.13-1.55-.07-3.06-.1-4.57-.13Z"></path><path class="cls-10" d="M564.2,672.55c-1.51.03-3.03.06-4.57.13-.8.04-1.6.09-2.35.13-.57.03-1.11.07-1.78.16-.65.09-1.42.25-1.73-.23-.07-.11-.12-.25-.13-.38-.06-.77,1.18-.9,2.24-.97,2.35-.15,3.74.04,5.44.16.9.06,1.9.1,2.89.14.99-.04,1.98-.08,2.89-.14,1.7-.11,3.09-.3,5.44-.16,1.05.07,2.3.2,2.24.97-.01.13-.06.27-.13.38-.31.48-1.08.33-1.73.23-.67-.1-1.21-.13-1.78-.16-.75-.04-1.56-.09-2.35-.13-1.55-.07-3.06-.1-4.57-.13Z"></path></g><polyline class="cls-10" points="564.2 706.03 564.2 647.78 504.63 647.78"></polyline><line class="cls-10" x1="258.66" y1="639.04" x2="258.66" y2="749.36"></line><line class="cls-10" x1="167.37" y1="279.79" x2="123.48" y2="279.79"></line><line class="cls-10" x1="148.52" y1="639.04" x2="258.66" y2="639.04"></line><line class="cls-10" x1="123.48" y1="279.79" x2="148.52" y2="639.04"></line><polyline class="cls-10" points="185.2 809.42 160.44 809.42 149.17 647.08"></polyline><polyline class="cls-10" points="760.69 94.29 737.38 95.26 691.09 97.48 644.89 100.16 598.6 103.21 552.4 106.54 506.2 110.32 460 114.39 413.89 118.92 367.78 123.72 321.77 128.9 275.75 134.44 229.74 140.35"></polyline><line class="cls-10" x1="229.74" y1="140.35" x2="229.74" y2="182.77"></line><polyline class="cls-10" points="115.16 277.48 57.23 277.48 .12 142.3 34.13 132.13 68.13 122.34 102.23 112.82 136.51 103.67 170.79 94.89 205.16 86.48 239.72 78.45 274.28 70.68 308.93 63.29 343.58 56.27 378.41 49.62 413.24 43.33 448.17 37.33 483.19 31.78 518.21 26.52 553.32 21.62 588.44 17.09 623.55 12.94 658.85 9.15 694.05 5.64 729.35 2.59 760.69 .12 760.69 86.18"></polyline><line class="cls-10" x1="760.69" y1="88.47" x2="760.69" y2="94.29"></line><line class="cls-10" x1="186.4" y1="827.46" x2="192.78" y2="827.46"></line><line class="cls-10" x1="219.62" y1="141.74" x2="221.7" y2="141.46"></line><polygon class="cls-5" points="252.84 747.05 252.84 644.77 143.16 644.77 117.29 274.06 167.37 274.06 167.37 271.75 114.79 271.75 117.29 274.06 114.79 271.75 141.04 647.08 250.53 647.08 250.53 747.05 252.84 747.05"></polygon><polygon class="cls-5" points="186.4 827.46 187.33 811.73 252.84 811.73 252.84 793.25 250.53 793.25 250.53 809.42 185.2 809.42 184.14 827.46 186.4 827.46"></polygon><polygon class="cls-5" points="760.69 86.18 735.54 87.22 688.69 89.53 641.84 92.31 595.09 95.36 548.24 98.77 501.49 102.56 454.73 106.81 408.07 111.34 361.41 116.33 314.84 121.6 268.27 127.23 221.7 133.33 221.7 182.77 224.01 182.77 224.01 135.27 270.21 129.36 316.5 123.72 362.79 118.46 409.09 113.56 455.47 109.03 501.86 104.87 548.33 101.08 594.72 97.67 641.2 94.62 687.77 91.94 734.24 89.63 760.69 88.47 760.69 86.18"></polygon><polyline class="cls-5" points="221.7 135.64 216.57 136.28 216.25 133.98 221.7 133.33"></polyline><rect class="cls-5" x="252.84" y="645.97" width="5.82" height="2.31"></rect><rect class="cls-5" x="252.84" y="677.75" width="5.82" height="2.31"></rect><rect class="cls-5" x="250.53" y="790.94" width="8.13" height="2.31"></rect><rect class="cls-5" x="250.53" y="747.05" width="8.13" height="2.31"></rect><rect class="cls-5" x="211.26" y="271.75" width="2.31" height="8.04"></rect><rect class="cls-5" x="167.37" y="271.75" width="2.31" height="8.04"></rect><rect class="cls-5" x="249.42" y="639.04" width="2.31" height="5.73"></rect><polyline class="cls-5" points="117.29 274.06 117.38 275.72 123.57 281.54 123.48 279.79 125.14 279.79 118.95 274.06 117.29 274.06"></polyline><polyline class="cls-5" points="122.65 351.86 128.47 351.49 128.65 353.8 122.83 354.17 122.65 351.86"></polyline><polyline class="cls-5" points="127.54 420.97 133.27 420.6 133.46 422.91 127.73 423.28 127.54 420.97"></polyline><rect class="cls-5" x="182.43" y="639.04" width="2.31" height="5.73"></rect><polyline class="cls-5" points="129.95 455.53 135.68 455.16 135.86 457.47 130.13 457.84 129.95 455.53"></polyline><polyline class="cls-5" points="132.35 490.18 138.08 489.72 138.26 492.03 132.53 492.49 132.35 490.18"></polyline><polyline class="cls-5" points="137.15 559.3 142.98 558.83 143.16 561.14 137.34 561.61 137.15 559.3"></polyline><polyline class="cls-5" points="142.05 628.41 147.78 628.04 147.97 630.26 142.14 630.72 142.05 628.41"></polyline><polyline class="cls-5" points="148.52 639.04 148.43 637.47 143.07 643.2 143.16 644.77 144.73 644.77 150.18 639.04 148.52 639.04"></polyline><rect class="cls-5" x="252.84" y="808.22" width="5.82" height="2.31"></rect><rect class="cls-5" x="249.42" y="811.73" width="2.31" height="5.73"></rect><polyline class="cls-5" points="192.69 819.03 192.78 817.46 194.44 817.46 188.99 811.73 187.33 811.73 187.23 813.3 192.69 819.03"></polyline><rect class="cls-5" x="224.01" y="180.46" width="5.73" height="2.31"></rect><polygon class="cls-5" points="298.31 125.94 298.95 131.65 296.74 131.91 296 126.22 298.31 125.94"></polygon><polyline class="cls-5" points="367.14 117.99 367.78 123.72 365.47 124 364.83 118.27 367.14 117.99"></polyline><polygon class="cls-5" points="436.07 110.92 436.63 116.68 434.32 116.91 433.76 111.16 436.07 110.92"></polygon><polygon class="cls-5" points="505 104.6 505.46 110.39 503.15 110.6 502.68 104.81 505 104.6"></polygon><polyline class="cls-5" points="574.11 99.14 574.58 104.87 572.27 105.06 571.8 99.33 574.11 99.14"></polyline><polyline class="cls-5" points="608.67 96.74 609.04 102.47 606.73 102.66 606.36 96.83 608.67 96.74"></polyline><polyline class="cls-5" points="643.23 94.52 643.6 100.25 641.29 100.44 640.92 94.62 643.23 94.52"></polyline><rect class="cls-5" x="710.27" y="90.76" width="2.31" height="5.74" transform="translate(-3.69 34.43) rotate(-2.77)"></rect><polygon class="cls-5" points="747 89.07 747.27 94.85 744.96 94.95 744.67 89.17 747 89.07"></polygon><polyline class="cls-5" points="224.01 135.27 224.01 136.84 229.74 141.93 229.74 140.35 231.31 140.17 225.49 135.09 224.01 135.27"></polyline><polygon class="cls-5" points="218.88 136.01 219.62 141.74 217.4 142.01 216.57 136.28 218.88 136.01"></polygon><polygon class="cls-12" points="229.74 181.66 229.74 182.77 213.57 182.77 213.57 279.79 212.46 279.79 212.46 285.61 235.56 285.61 235.56 181.66 229.74 181.66"></polygon><polygon class="cls-7" points="229.74 181.66 229.74 182.77 213.57 182.77 213.57 279.79 212.46 279.79 212.46 285.61 235.56 285.61 235.56 181.66 229.74 181.66"></polygon><polygon class="cls-12" points="482.73 450.73 476.91 450.73 476.91 478.45 297.93 478.45 297.93 450.73 288.69 450.73 288.69 465.23 142.24 465.23 141.59 455.9 135.77 456.36 138.17 490.92 143.99 490.46 143.71 487.13 304.86 487.13 304.86 499.24 310.59 499.24 310.59 486.58 338.31 486.58 338.31 572.05 310.59 572.05 310.59 568.54 304.86 568.54 304.86 577.78 360.3 577.78 360.3 584.61 366.03 584.61 366.03 577.78 388.02 577.78 388.02 572.05 344.13 572.05 344.13 495.82 383.4 495.82 383.4 486.58 474.6 486.58 474.6 572.05 429.6 572.05 429.6 577.78 482.73 577.78 482.73 450.73"></polygon><polygon class="cls-7" points="482.73 450.73 476.91 450.73 476.91 478.45 297.93 478.45 297.93 450.73 288.69 450.73 288.69 465.23 142.24 465.23 141.59 455.9 135.77 456.36 138.17 490.92 143.99 490.46 143.71 487.13 304.86 487.13 304.86 499.24 310.59 499.24 310.59 486.58 338.31 486.58 338.31 572.05 310.59 572.05 310.59 568.54 304.86 568.54 304.86 577.78 360.3 577.78 360.3 584.61 366.03 584.61 366.03 577.78 388.02 577.78 388.02 572.05 344.13 572.05 344.13 495.82 383.4 495.82 383.4 486.58 474.6 486.58 474.6 572.05 429.6 572.05 429.6 577.78 482.73 577.78 482.73 450.73"></polygon><g><polygon class="cls-12" points="192.78 817.46 258.66 817.46 258.66 792.05 264.39 792.05 264.39 798.43 441.15 798.43 441.15 706.03 451.5 706.03 451.5 711.76 446.88 711.76 446.88 790.3 578.55 790.3 578.55 714.07 536.97 714.07 536.97 711.76 493.08 711.76 493.08 706.03 498.9 706.03 498.9 701.41 504.63 701.41 504.63 706.03 578.55 706.03 578.55 633.22 504.63 633.22 504.63 659.83 498.9 659.83 498.9 639.04 472.29 639.04 472.29 633.22 498.9 633.22 498.9 627.49 540.48 627.49 540.48 614.74 546.21 614.74 546.21 618.25 573.93 618.25 573.93 590.53 590.1 590.53 590.1 548.95 546.21 548.95 546.21 552.37 540.48 552.37 540.48 540.82 595.92 540.82 595.92 590.53 666.33 590.53 666.33 584.15 676.33 584.15 676.33 600.53 588.55 600.53 588.55 808.43 268.66 808.43 268.66 827.46 192.78 827.46 192.78 817.46"></polygon><polygon class="cls-7" points="192.78 817.46 258.66 817.46 258.66 792.05 264.39 792.05 264.39 798.43 441.15 798.43 441.15 706.03 451.5 706.03 451.5 711.76 446.88 711.76 446.88 790.3 578.55 790.3 578.55 714.07 536.97 714.07 536.97 711.76 493.08 711.76 493.08 706.03 498.9 706.03 498.9 701.41 504.63 701.41 504.63 706.03 578.55 706.03 578.55 633.22 504.63 633.22 504.63 659.83 498.9 659.83 498.9 639.04 472.29 639.04 472.29 633.22 498.9 633.22 498.9 627.49 540.48 627.49 540.48 614.74 546.21 614.74 546.21 618.25 573.93 618.25 573.93 590.53 590.1 590.53 590.1 548.95 546.21 548.95 546.21 552.37 540.48 552.37 540.48 540.82 595.92 540.82 595.92 590.53 666.33 590.53 666.33 584.15 676.33 584.15 676.33 600.53 588.55 600.53 588.55 808.43 268.66 808.43 268.66 827.46 192.78 827.46 192.78 817.46"></polygon><polygon class="cls-12" points="579.2 289.95 573.37 289.95 573.37 104.97 607.93 102.56 608.3 108.29 595.37 109.22 595.37 260.2 579.2 260.2 579.2 289.95"></polygon><polygon class="cls-7" points="579.2 289.95 573.37 289.95 573.37 104.97 607.93 102.56 608.3 108.29 595.37 109.22 595.37 260.2 579.2 260.2 579.2 289.95"></polygon><polygon class="cls-12" points="258.66 647.08 258.66 639.04 250.53 639.04 250.53 633.22 360.3 633.22 360.3 626.29 366.03 626.29 366.03 633.22 430.71 633.22 430.71 639.04 264.39 639.04 264.39 647.08 258.66 647.08"></polygon><polygon class="cls-7" points="258.66 647.08 258.66 639.04 250.53 639.04 250.53 633.22 360.3 633.22 360.3 626.29 366.03 626.29 366.03 633.22 430.71 633.22 430.71 639.04 264.39 639.04 264.39 647.08 258.66 647.08"></polygon><polygon class="cls-12" points="760.69 332.16 760.69 94.27 746.16 94.8 746.44 100.62 749.49 100.44 749.49 336.43 718.44 336.43 718.44 342.16 750.69 342.16 750.69 508.48 674.46 508.48 674.46 466.9 672.15 466.9 672.15 342.16 676.77 342.16 676.77 336.43 661.71 336.43 661.71 342.16 666.33 342.16 666.33 443.8 590.1 443.8 590.1 422.17 573.93 422.17 573.93 342.11 620.13 342.11 620.13 336.43 579.2 336.43 579.2 331.53 573.37 331.53 573.37 336.43 540.48 336.43 540.48 342.16 568.2 342.16 568.2 422.17 540.48 422.17 540.48 485.38 571.62 485.38 571.62 479.65 546.21 479.65 546.21 458.03 582.06 458.03 582.06 451.93 666.33 451.93 666.33 479.65 640.92 479.65 640.92 485.38 666.33 485.38 666.33 537.95 676.33 537.95 676.33 518.48 760.69 518.48 770.69 518.48 770.69 332.16 760.69 332.16"></polygon><polygon class="cls-7" points="760.69 332.16 760.69 94.27 746.16 94.8 746.44 100.62 749.49 100.44 749.49 336.43 718.44 336.43 718.44 342.16 750.69 342.16 750.69 508.48 674.46 508.48 674.46 466.9 672.15 466.9 672.15 342.16 676.77 342.16 676.77 336.43 661.71 336.43 661.71 342.16 666.33 342.16 666.33 443.8 590.1 443.8 590.1 422.17 573.93 422.17 573.93 342.11 620.13 342.11 620.13 336.43 579.2 336.43 579.2 331.53 573.37 331.53 573.37 336.43 540.48 336.43 540.48 342.16 568.2 342.16 568.2 422.17 540.48 422.17 540.48 485.38 571.62 485.38 571.62 479.65 546.21 479.65 546.21 458.03 582.06 458.03 582.06 451.93 666.33 451.93 666.33 479.65 640.92 479.65 640.92 485.38 666.33 485.38 666.33 537.95 676.33 537.95 676.33 518.48 760.69 518.48 770.69 518.48 770.69 332.16 760.69 332.16"></polygon><path class="cls-14" d="M688.48,561.19c-.08-.02-.14-.07-.14-.14s.06-.13.14-.14c3.3-.56,4.94-2.74,4.94-6.02v-3.84c0-1.16,1.01-1.98,2.66-2.2.33-.05.61.23.45.47-.31.46-.47,1.06-.47,1.78v3.48c0,2.95-1.67,5.22-4.98,6.17-.37.11-.37.5,0,.61,3.31.96,4.98,3.22,4.98,6.18v3.48c0,.72.16,1.32.47,1.78.16.23-.12.51-.45.47-1.64-.22-2.66-1.05-2.66-2.21v-3.84c0-3.29-1.64-5.47-4.94-6.02h0Z"></path><path class="cls-8" d="M688.48,561.19c-.08-.02-.14-.07-.14-.14s.06-.13.14-.14c3.3-.56,4.94-2.74,4.94-6.02v-3.84c0-1.16,1.01-1.98,2.66-2.2.33-.05.61.23.45.47-.31.46-.47,1.06-.47,1.78v3.48c0,2.95-1.67,5.22-4.98,6.17-.37.11-.37.5,0,.61,3.31.96,4.98,3.22,4.98,6.18v3.48c0,.72.16,1.32.47,1.78.16.23-.12.51-.45.47-1.64-.22-2.66-1.05-2.66-2.21v-3.84c0-3.29-1.64-5.47-4.94-6.02h0Z"></path></g><g><path class="cls-12" d="M622.47,208.2h2.52c1.9,0,2.97.89,2.97,2.53s-1.07,2.54-2.97,2.54h-1.72v3.99h-.8v-9.06ZM624.92,212.55c1.41,0,2.24-.61,2.24-1.81s-.81-1.81-2.24-1.81h-1.64v3.62h1.64Z"></path><path class="cls-12" d="M629.47,210.85h.78v1.09c.43-.78,1.31-1.18,2.02-1.18.33,0,.66.07.99.24l-.39.7c-.21-.1-.51-.17-.77-.17-.68,0-1.46.36-1.74,1.3-.08.27-.12.57-.12,1.27v3.15h-.78v-6.41Z"></path><path class="cls-12" d="M634.52,208.2h.94v1.39h-.94v-1.39ZM634.61,210.85h.77v6.41h-.77v-6.41Z"></path><path class="cls-12" d="M637.42,210.85h.78v1.1c.38-.85,1.11-1.19,1.88-1.19.91,0,1.57.4,1.89,1.25.4-.83,1.09-1.25,2-1.25,1.55,0,2.13,1.16,2.13,2.68v3.82h-.78v-3.64c0-1.33-.39-2.18-1.52-2.18-1.02,0-1.65.77-1.65,2.26v3.57h-.78v-3.76c0-1.4-.52-2.07-1.5-2.07-1.03,0-1.67.79-1.67,2.26v3.57h-.78v-6.41Z"></path><path class="cls-12" d="M652.24,216.06c-.43.82-1.25,1.29-2.25,1.29-1.44,0-2.31-.77-2.31-1.94,0-.69.29-1.16.72-1.44.46-.31,1.09-.42,1.77-.42h2.05v-.28c0-1.19-.62-1.83-1.82-1.83-.79,0-1.4.29-1.98,1.02l-.56-.48c.68-.85,1.53-1.22,2.59-1.22,1.63,0,2.54.89,2.54,2.51v3.99h-.71l-.04-1.2ZM650.06,216.71c1.18,0,2.17-.93,2.17-2.2v-.36h-1.95c-.51,0-1.03.08-1.37.33-.28.21-.44.51-.44.94,0,.79.6,1.3,1.6,1.3Z"></path><path class="cls-12" d="M654.95,210.85h.78v1.09c.43-.78,1.31-1.18,2.02-1.18.33,0,.66.07.99.24l-.39.7c-.21-.1-.51-.17-.77-.17-.68,0-1.46.36-1.74,1.3-.08.27-.12.57-.12,1.27v3.15h-.78v-6.41Z"></path><path class="cls-12" d="M662,217.06l-2.55-6.21h.86l2.1,5.42,2.11-5.42h.85l-3.69,9.05h-.84l1.17-2.84Z"></path><path class="cls-12" d="M670.27,208.2h2.72c1.68,0,2.68.84,2.68,2.25,0,.94-.46,1.68-1.24,2,1.1.25,1.7,1.07,1.7,2.31,0,1.61-1.02,2.5-2.88,2.5h-2.97v-9.06ZM673.24,212.2c.98,0,1.63-.64,1.63-1.64s-.69-1.61-1.88-1.61h-1.91v3.26h2.16ZM673.18,216.51c1.42,0,2.14-.6,2.14-1.79,0-1.13-.66-1.79-1.79-1.79h-2.46v3.58h2.11Z"></path><path class="cls-12" d="M677.59,214.1c0-1.84.99-3.34,2.81-3.34,1.96,0,2.76,1.53,2.76,2.94,0,.1-.01.4-.04.55h-4.76c.03,1.51.84,2.39,2.14,2.39.82,0,1.35-.23,1.91-.83l.55.49c-.73.75-1.43,1.05-2.46,1.05-1.89,0-2.91-1.41-2.91-3.25ZM682.41,213.67c0-.08,0-.16,0-.24,0-.92-.58-2.02-2-2.02-1.23,0-1.98.98-2.07,2.26h4.06Z"></path><path class="cls-12" d="M684.57,214.05c0-1.96,1.29-3.29,2.92-3.29,1.05,0,1.87.54,2.29,1.36v-3.92h.77v9.06h-.77v-1.26c-.44.85-1.25,1.35-2.29,1.35-1.72,0-2.92-1.42-2.92-3.3ZM687.61,216.63c1.3,0,2.23-1.08,2.23-2.58s-.93-2.58-2.23-2.58-2.26,1.09-2.26,2.58.95,2.58,2.26,2.58Z"></path><path class="cls-12" d="M692.59,210.85h.78v1.09c.43-.78,1.31-1.18,2.02-1.18.33,0,.66.07.99.24l-.39.7c-.21-.1-.51-.17-.77-.17-.68,0-1.46.36-1.74,1.3-.08.27-.12.57-.12,1.27v3.15h-.78v-6.41Z"></path><path class="cls-12" d="M696.97,214.05c0-1.92,1.25-3.29,3.05-3.29s3.04,1.36,3.04,3.29-1.27,3.3-3.04,3.3-3.05-1.36-3.05-3.3ZM700.02,216.66c1.37,0,2.26-1.04,2.26-2.61s-.9-2.61-2.26-2.61-2.28,1.05-2.28,2.61.9,2.61,2.28,2.61Z"></path><path class="cls-12" d="M704.5,214.05c0-1.92,1.25-3.29,3.05-3.29s3.04,1.36,3.04,3.29-1.27,3.3-3.04,3.3-3.05-1.36-3.05-3.3ZM707.55,216.66c1.37,0,2.26-1.04,2.26-2.61s-.9-2.61-2.26-2.61-2.28,1.05-2.28,2.61.9,2.61,2.28,2.61Z"></path><path class="cls-12" d="M712.34,210.85h.78v1.1c.38-.85,1.11-1.19,1.88-1.19.91,0,1.57.4,1.89,1.25.4-.83,1.09-1.25,2-1.25,1.55,0,2.13,1.16,2.13,2.68v3.82h-.78v-3.64c0-1.33-.39-2.18-1.52-2.18-1.02,0-1.65.77-1.65,2.26v3.57h-.78v-3.76c0-1.4-.52-2.07-1.5-2.07-1.03,0-1.67.79-1.67,2.26v3.57h-.78v-6.41Z"></path></g><g><path class="cls-12" d="M328.04,719.45h2.72c1.68,0,2.68.84,2.68,2.25,0,.94-.46,1.68-1.24,2,1.1.25,1.7,1.07,1.7,2.31,0,1.61-1.02,2.5-2.88,2.5h-2.97v-9.06ZM331.01,723.45c.98,0,1.63-.64,1.63-1.64s-.69-1.61-1.88-1.61h-1.91v3.26h2.16ZM330.96,727.76c1.42,0,2.14-.6,2.14-1.79,0-1.13-.66-1.79-1.79-1.79h-2.46v3.58h2.11Z"></path><path class="cls-12" d="M335.34,725.35c0-1.84.99-3.34,2.81-3.34,1.96,0,2.76,1.53,2.76,2.94,0,.1-.01.4-.04.55h-4.76c.03,1.51.84,2.39,2.14,2.39.82,0,1.35-.23,1.91-.83l.55.49c-.73.75-1.43,1.05-2.46,1.05-1.89,0-2.91-1.41-2.91-3.25ZM340.16,724.92c0-.08,0-.16,0-.24,0-.92-.58-2.01-2-2.01-1.23,0-1.98.98-2.07,2.26h4.06Z"></path><path class="cls-12" d="M342.31,725.3c0-1.96,1.29-3.29,2.92-3.29,1.05,0,1.87.54,2.29,1.36v-3.92h.77v9.06h-.77v-1.26c-.44.84-1.25,1.35-2.29,1.35-1.72,0-2.92-1.42-2.92-3.3ZM345.35,727.88c1.3,0,2.23-1.08,2.23-2.58s-.93-2.58-2.23-2.58-2.26,1.09-2.26,2.58.95,2.58,2.26,2.58Z"></path><path class="cls-12" d="M350.32,722.1h.78v1.09c.43-.78,1.31-1.18,2.02-1.18.33,0,.66.07.99.24l-.39.7c-.21-.1-.51-.17-.77-.17-.68,0-1.46.36-1.74,1.3-.08.27-.12.57-.12,1.27v3.15h-.78v-6.41Z"></path><path class="cls-12" d="M354.71,725.3c0-1.92,1.25-3.29,3.05-3.29s3.04,1.37,3.04,3.29-1.27,3.3-3.04,3.3-3.05-1.37-3.05-3.3ZM357.75,727.91c1.37,0,2.26-1.04,2.26-2.61s-.9-2.61-2.26-2.61-2.28,1.05-2.28,2.61.9,2.61,2.28,2.61Z"></path><path class="cls-12" d="M362.24,725.3c0-1.92,1.25-3.29,3.05-3.29s3.04,1.37,3.04,3.29-1.27,3.3-3.04,3.3-3.05-1.37-3.05-3.3ZM365.29,727.91c1.37,0,2.26-1.04,2.26-2.61s-.9-2.61-2.26-2.61-2.28,1.05-2.28,2.61.9,2.61,2.28,2.61Z"></path><path class="cls-12" d="M370.08,722.1h.78v1.1c.38-.84,1.11-1.19,1.88-1.19.91,0,1.57.4,1.89,1.25.4-.83,1.09-1.25,2-1.25,1.55,0,2.13,1.16,2.13,2.68v3.82h-.78v-3.64c0-1.33-.39-2.18-1.52-2.18-1.02,0-1.65.77-1.65,2.26v3.57h-.78v-3.76c0-1.4-.52-2.07-1.5-2.07-1.03,0-1.67.79-1.67,2.26v3.57h-.78v-6.41Z"></path></g><g><path class="cls-12" d="M200.1,558.92h2.72c1.68,0,2.68.84,2.68,2.25,0,.94-.46,1.68-1.24,2,1.1.25,1.7,1.07,1.7,2.31,0,1.61-1.02,2.5-2.88,2.5h-2.97v-9.06ZM203.07,562.92c.98,0,1.63-.64,1.63-1.64s-.69-1.61-1.88-1.61h-1.91v3.26h2.16ZM203.02,567.23c1.42,0,2.14-.6,2.14-1.79,0-1.13-.66-1.79-1.79-1.79h-2.46v3.58h2.11Z"></path><path class="cls-12" d="M207.4,564.82c0-1.84.99-3.34,2.81-3.34,1.96,0,2.76,1.53,2.76,2.94,0,.1-.01.4-.04.55h-4.76c.03,1.51.84,2.39,2.14,2.39.82,0,1.35-.23,1.91-.83l.55.49c-.73.75-1.43,1.05-2.46,1.05-1.89,0-2.91-1.41-2.91-3.25ZM212.22,564.39c0-.08,0-.16,0-.24,0-.92-.58-2.01-2-2.01-1.23,0-1.98.98-2.07,2.26h4.06Z"></path><path class="cls-12" d="M214.37,564.77c0-1.96,1.29-3.29,2.92-3.29,1.05,0,1.87.54,2.29,1.36v-3.92h.77v9.06h-.77v-1.26c-.44.84-1.25,1.35-2.29,1.35-1.72,0-2.92-1.42-2.92-3.3ZM217.41,567.35c1.3,0,2.23-1.08,2.23-2.58s-.93-2.58-2.23-2.58-2.26,1.09-2.26,2.58.95,2.58,2.26,2.58Z"></path><path class="cls-12" d="M222.38,561.57h.78v1.09c.43-.78,1.31-1.18,2.02-1.18.33,0,.66.07.99.24l-.39.7c-.21-.1-.51-.17-.77-.17-.68,0-1.46.36-1.74,1.3-.08.27-.12.57-.12,1.27v3.15h-.78v-6.41Z"></path><path class="cls-12" d="M226.77,564.77c0-1.92,1.25-3.29,3.05-3.29s3.04,1.37,3.04,3.29-1.27,3.3-3.04,3.3-3.05-1.37-3.05-3.3ZM229.81,567.38c1.37,0,2.26-1.04,2.26-2.61s-.9-2.61-2.26-2.61-2.28,1.05-2.28,2.61.9,2.61,2.28,2.61Z"></path><path class="cls-12" d="M234.3,564.77c0-1.92,1.25-3.29,3.05-3.29s3.04,1.37,3.04,3.29-1.27,3.3-3.04,3.3-3.05-1.37-3.05-3.3ZM237.35,567.38c1.37,0,2.26-1.04,2.26-2.61s-.9-2.61-2.26-2.61-2.28,1.05-2.28,2.61.9,2.61,2.28,2.61Z"></path><path class="cls-12" d="M242.14,561.57h.78v1.1c.38-.84,1.11-1.19,1.88-1.19.91,0,1.57.4,1.89,1.25.4-.83,1.09-1.25,2-1.25,1.55,0,2.13,1.16,2.13,2.68v3.82h-.78v-3.64c0-1.33-.39-2.18-1.52-2.18-1.02,0-1.65.77-1.65,2.26v3.57h-.78v-3.76c0-1.4-.52-2.07-1.5-2.07-1.03,0-1.67.79-1.67,2.26v3.57h-.78v-6.41Z"></path></g><g><path class="cls-12" d="M183.75,371.63h2.43c2.94,0,4.62,1.68,4.62,4.6s-1.64,4.46-4.63,4.46h-2.42v-9.06ZM186.1,379.94c2.5,0,3.89-1.16,3.89-3.74s-1.4-3.83-3.82-3.83h-1.61v7.57h1.54Z"></path><path class="cls-12" d="M192.41,371.63h.94v1.39h-.94v-1.39ZM192.5,374.28h.77v6.41h-.77v-6.41Z"></path><path class="cls-12" d="M195.3,374.28h.78v1.05c.4-.76,1.12-1.14,2.01-1.14,1.38,0,2.2.81,2.2,2.51v3.99h-.78v-3.71c0-1.45-.55-2.11-1.61-2.11-1.16,0-1.83.79-1.83,2.55v3.27h-.78v-6.41Z"></path><path class="cls-12" d="M202.18,371.63h.94v1.39h-.94v-1.39ZM202.27,374.28h.77v6.41h-.77v-6.41Z"></path><path class="cls-12" d="M205.07,374.28h.78v1.05c.4-.76,1.12-1.14,2.01-1.14,1.38,0,2.2.81,2.2,2.51v3.99h-.78v-3.71c0-1.45-.55-2.11-1.61-2.11-1.16,0-1.83.79-1.83,2.55v3.27h-.78v-6.41Z"></path><path class="cls-12" d="M211.53,381.45s0-.1.03-.26l1.11-.88c-.57-.22-.96-.59-.96-1.26,0-.53.27-.9.72-1.2-.36-.37-.56-.87-.56-1.45,0-1.3,1.04-2.2,2.39-2.2.64,0,1.22.21,1.64.59l1.02-.86.4.49-1,.88c.19.33.3.71.3,1.14,0,1.28-.96,2.13-2.33,2.13-.53,0-.99-.12-1.37-.34-.31.18-.45.42-.45.72,0,.66.63.83,1.62.98,1.6.25,2.99.44,2.99,1.75,0,1.16-1.05,1.78-2.7,1.78-1.82,0-2.85-.7-2.85-2ZM214.39,382.84c1.09,0,1.92-.34,1.92-1.08,0-.86-1.16-.96-2.31-1.14-.31-.05-.6-.1-.89-.17l-.8.92c-.01.09-.01.11-.01.15,0,.9.79,1.33,2.09,1.33ZM214.26,377.92c.98,0,1.59-.65,1.59-1.53s-.64-1.56-1.58-1.56-1.62.65-1.62,1.55.63,1.55,1.61,1.55Z"></path><path class="cls-12" d="M222.01,371.63h2.52c1.99,0,2.97.93,2.97,2.5,0,1.25-.64,2.07-1.85,2.38l2.44,4.19h-.92l-2.34-4.07c-.21,0-.44,0-.65,0h-1.36v4.06h-.81v-9.06ZM224.46,375.91c1.38,0,2.24-.55,2.24-1.78s-.88-1.77-2.24-1.77h-1.64v3.56h1.64Z"></path><path class="cls-12" d="M229.02,377.48c0-1.92,1.25-3.29,3.05-3.29s3.04,1.37,3.04,3.29-1.27,3.3-3.04,3.3-3.05-1.36-3.05-3.3ZM232.07,380.09c1.37,0,2.26-1.04,2.26-2.61s-.9-2.61-2.26-2.61-2.28,1.05-2.28,2.61.9,2.61,2.28,2.61Z"></path><path class="cls-12" d="M236.55,377.48c0-1.92,1.25-3.29,3.05-3.29s3.04,1.37,3.04,3.29-1.27,3.3-3.04,3.3-3.05-1.36-3.05-3.3ZM239.6,380.09c1.37,0,2.26-1.04,2.26-2.61s-.9-2.61-2.26-2.61-2.28,1.05-2.28,2.61.9,2.61,2.28,2.61Z"></path><path class="cls-12" d="M244.39,374.28h.78v1.1c.38-.85,1.11-1.19,1.88-1.19.91,0,1.57.4,1.89,1.25.4-.83,1.09-1.25,2-1.25,1.55,0,2.13,1.16,2.13,2.69v3.82h-.78v-3.64c0-1.33-.39-2.18-1.52-2.18-1.02,0-1.65.77-1.65,2.26v3.57h-.78v-3.76c0-1.4-.52-2.07-1.5-2.07-1.03,0-1.67.79-1.67,2.26v3.57h-.78v-6.41Z"></path></g><g><path class="cls-12" d="M371.51,208.2h.81v8.33h4.18v.73h-4.99v-9.06Z"></path><path class="cls-12" d="M377.63,208.2h.94v1.39h-.94v-1.39ZM377.72,210.85h.77v6.41h-.77v-6.41Z"></path><path class="cls-12" d="M379.89,210.85h.86l2.1,5.42,2.11-5.42h.85l-2.61,6.41h-.68l-2.63-6.41Z"></path><path class="cls-12" d="M387.14,208.2h.94v1.39h-.94v-1.39ZM387.23,210.85h.77v6.41h-.77v-6.41Z"></path><path class="cls-12" d="M390.04,210.85h.78v1.05c.4-.76,1.12-1.14,2.01-1.14,1.38,0,2.2.81,2.2,2.51v3.99h-.78v-3.71c0-1.45-.55-2.11-1.61-2.11-1.16,0-1.83.79-1.83,2.55v3.27h-.78v-6.41Z"></path><path class="cls-12" d="M396.49,218.02s0-.1.03-.26l1.11-.88c-.57-.22-.96-.59-.96-1.26,0-.53.27-.9.72-1.2-.36-.37-.56-.87-.56-1.45,0-1.3,1.04-2.2,2.38-2.2.64,0,1.22.21,1.64.58l1.02-.86.4.49-1,.88c.19.33.3.71.3,1.14,0,1.28-.96,2.13-2.33,2.13-.53,0-.99-.12-1.37-.34-.31.18-.45.42-.45.72,0,.66.63.83,1.62.98,1.6.25,2.99.44,2.99,1.75,0,1.16-1.05,1.78-2.7,1.78-1.82,0-2.85-.7-2.85-2ZM399.35,219.41c1.09,0,1.92-.34,1.92-1.08,0-.86-1.16-.96-2.31-1.14-.31-.05-.6-.1-.89-.17l-.8.92c-.01.09-.01.11-.01.15,0,.9.79,1.33,2.09,1.33ZM399.22,214.49c.98,0,1.59-.65,1.59-1.53s-.64-1.56-1.58-1.56-1.62.65-1.62,1.55.63,1.55,1.61,1.55Z"></path><path class="cls-12" d="M406.97,208.2h2.52c1.99,0,2.97.93,2.97,2.5,0,1.25-.64,2.07-1.85,2.38l2.44,4.19h-.92l-2.34-4.07c-.21,0-.44,0-.65,0h-1.36v4.06h-.81v-9.06ZM409.42,212.48c1.38,0,2.24-.55,2.24-1.78s-.88-1.77-2.24-1.77h-1.64v3.56h1.64Z"></path><path class="cls-12" d="M413.98,214.05c0-1.92,1.25-3.29,3.05-3.29s3.04,1.36,3.04,3.29-1.27,3.3-3.04,3.3-3.05-1.36-3.05-3.3ZM417.03,216.66c1.37,0,2.26-1.04,2.26-2.61s-.9-2.61-2.26-2.61-2.28,1.05-2.28,2.61.9,2.61,2.28,2.61Z"></path><path class="cls-12" d="M421.51,214.05c0-1.92,1.25-3.29,3.05-3.29s3.04,1.36,3.04,3.29-1.27,3.3-3.04,3.3-3.05-1.36-3.05-3.3ZM424.56,216.66c1.37,0,2.26-1.04,2.26-2.61s-.9-2.61-2.26-2.61-2.28,1.05-2.28,2.61.9,2.61,2.28,2.61Z"></path><path class="cls-12" d="M429.35,210.85h.78v1.1c.38-.85,1.11-1.19,1.88-1.19.91,0,1.57.4,1.89,1.25.4-.83,1.09-1.25,2-1.25,1.55,0,2.13,1.16,2.13,2.68v3.82h-.78v-3.64c0-1.33-.39-2.18-1.52-2.18-1.02,0-1.65.77-1.65,2.26v3.57h-.78v-3.76c0-1.4-.52-2.07-1.5-2.07-1.03,0-1.67.79-1.67,2.26v3.57h-.78v-6.41Z"></path></g><g><path class="cls-12" d="M114.72,208.2h2.43c2.94,0,4.62,1.68,4.62,4.6s-1.64,4.46-4.63,4.46h-2.42v-9.06ZM117.06,216.51c2.5,0,3.89-1.16,3.89-3.74s-1.4-3.83-3.82-3.83h-1.61v7.57h1.54Z"></path><path class="cls-12" d="M123.22,214.1c0-1.84.99-3.34,2.81-3.34,1.96,0,2.76,1.53,2.76,2.94,0,.1-.01.4-.04.55h-4.76c.03,1.51.84,2.39,2.15,2.39.82,0,1.35-.23,1.91-.83l.55.49c-.73.75-1.43,1.05-2.46,1.05-1.89,0-2.91-1.41-2.91-3.25ZM128.04,213.67c0-.08,0-.16,0-.24,0-.92-.58-2.02-2-2.02-1.23,0-1.98.98-2.07,2.26h4.06Z"></path><path class="cls-12" d="M130.2,214.05c0-1.83,1.06-3.29,2.86-3.29,1.17,0,2.09.58,2.51,1.74l-.7.27c-.27-.82-.9-1.33-1.81-1.33-1.42,0-2.09,1.25-2.09,2.61s.68,2.62,2.09,2.62c.91,0,1.53-.51,1.81-1.33l.7.27c-.42,1.16-1.34,1.75-2.51,1.75-1.8,0-2.86-1.46-2.86-3.3Z"></path><path class="cls-12" d="M139.27,213.73l-1.3,1.37v2.16h-.78v-9.06h.78v5.9l3.15-3.24h1.01l-2.28,2.35,2.67,4.06h-.92l-2.31-3.53Z"></path></g><g><path class="cls-12" d="M185.63,706.36h2.72c1.68,0,2.68.84,2.68,2.25,0,.94-.46,1.68-1.24,2,1.1.25,1.7,1.07,1.7,2.31,0,1.61-1.02,2.5-2.88,2.5h-2.97v-9.06ZM188.6,710.36c.98,0,1.63-.64,1.63-1.64s-.69-1.61-1.88-1.61h-1.91v3.26h2.16ZM188.55,714.67c1.42,0,2.14-.6,2.14-1.79,0-1.13-.66-1.79-1.79-1.79h-2.46v3.58h2.11Z"></path><path class="cls-12" d="M197.45,714.22c-.43.82-1.25,1.29-2.25,1.29-1.44,0-2.31-.77-2.31-1.94,0-.69.29-1.16.72-1.44.46-.31,1.09-.42,1.77-.42h2.05v-.28c0-1.19-.62-1.83-1.82-1.83-.79,0-1.4.29-1.98,1.02l-.56-.48c.68-.84,1.53-1.21,2.59-1.21,1.63,0,2.54.89,2.54,2.51v3.99h-.71l-.04-1.2ZM195.27,714.87c1.18,0,2.17-.93,2.17-2.2v-.36h-1.95c-.51,0-1.03.08-1.37.32-.28.21-.44.51-.44.94,0,.79.6,1.3,1.6,1.3Z"></path><path class="cls-12" d="M200.03,714.09v-7.73h.77v7.59c0,.6.23.84.64.84.17,0,.38-.04.61-.12v.67c-.29.11-.6.17-.84.17-.72,0-1.18-.44-1.18-1.42Z"></path><path class="cls-12" d="M203,712.21c0-1.83,1.06-3.29,2.86-3.29,1.17,0,2.09.58,2.51,1.74l-.7.27c-.27-.82-.9-1.33-1.81-1.33-1.42,0-2.09,1.25-2.09,2.61s.68,2.62,2.09,2.62c.91,0,1.53-.51,1.81-1.33l.7.27c-.42,1.16-1.34,1.75-2.51,1.75-1.8,0-2.86-1.46-2.86-3.3Z"></path><path class="cls-12" d="M209.6,712.21c0-1.92,1.25-3.29,3.05-3.29s3.04,1.37,3.04,3.29-1.27,3.3-3.04,3.3-3.05-1.37-3.05-3.3ZM212.65,714.82c1.37,0,2.26-1.04,2.26-2.61s-.9-2.61-2.26-2.61-2.28,1.05-2.28,2.61.9,2.61,2.28,2.61Z"></path><path class="cls-12" d="M217.44,709.01h.78v1.05c.4-.76,1.12-1.14,2.01-1.14,1.38,0,2.2.81,2.2,2.51v3.99h-.78v-3.71c0-1.45-.55-2.11-1.61-2.11-1.16,0-1.83.79-1.83,2.55v3.27h-.78v-6.41Z"></path><path class="cls-12" d="M226.16,715.22l-2.55-6.21h.86l2.1,5.42,2.11-5.42h.85l-3.69,9.05h-.84l1.17-2.84Z"></path></g><g><path class="cls-12" d="M384.44,420.69h.81v4.86l4.65-4.86h1.09l-3.45,3.54,3.48,5.52h-.95l-3.11-4.93-1.71,1.75v3.17h-.81v-9.06Z"></path><path class="cls-12" d="M392.17,420.69h.94v1.39h-.94v-1.39ZM392.25,423.34h.77v6.41h-.77v-6.41Z"></path><path class="cls-12" d="M395.82,428.26v-4.31h-1.42v-.62h1.42v-1.85l.79-.46v2.31h1.54v.62h-1.54v4.12c0,.71.22,1.11.81,1.11.19,0,.46-.04.73-.12v.62c-.32.1-.64.16-.92.16-.85,0-1.4-.49-1.4-1.57Z"></path><path class="cls-12" d="M399.17,426.54c0-1.83,1.06-3.29,2.86-3.29,1.17,0,2.09.58,2.51,1.74l-.7.27c-.27-.82-.9-1.33-1.81-1.33-1.42,0-2.09,1.25-2.09,2.61s.68,2.62,2.09,2.62c.91,0,1.53-.51,1.81-1.33l.7.27c-.42,1.16-1.34,1.75-2.51,1.75-1.8,0-2.86-1.46-2.86-3.3Z"></path><path class="cls-12" d="M406.17,420.69h.78v3.69c.4-.75,1.1-1.13,2.01-1.13,1.4,0,2.2.85,2.2,2.51v3.99h-.78v-3.71c0-1.43-.53-2.11-1.61-2.11-1.18,0-1.83.83-1.83,2.55v3.27h-.78v-9.06Z"></path><path class="cls-12" d="M412.8,426.59c0-1.84.99-3.34,2.81-3.34,1.96,0,2.76,1.53,2.76,2.94,0,.1-.01.4-.04.55h-4.76c.03,1.51.84,2.39,2.14,2.39.82,0,1.35-.23,1.91-.83l.55.49c-.73.75-1.43,1.05-2.46,1.05-1.89,0-2.91-1.41-2.91-3.25ZM417.62,426.16c0-.08,0-.16,0-.24,0-.92-.58-2.01-2-2.01-1.23,0-1.98.98-2.07,2.26h4.06Z"></path><path class="cls-12" d="M420.11,423.34h.78v1.05c.4-.76,1.12-1.14,2.01-1.14,1.38,0,2.2.81,2.2,2.51v3.99h-.78v-3.71c0-1.45-.55-2.11-1.61-2.11-1.16,0-1.83.79-1.83,2.55v3.27h-.78v-6.41Z"></path></g><g><path class="cls-12" d="M605.37,509.23h5.86v.73h-5.06v3.37h4.39v.73h-4.39v4.24h-.81v-9.06Z"></path><path class="cls-12" d="M611.96,515.08c0-1.92,1.25-3.29,3.05-3.29s3.04,1.37,3.04,3.29-1.27,3.3-3.04,3.3-3.05-1.37-3.05-3.3ZM615.01,517.68c1.37,0,2.26-1.04,2.26-2.61s-.9-2.61-2.26-2.61-2.28,1.05-2.28,2.61.9,2.61,2.28,2.61Z"></path><path class="cls-12" d="M621.53,518.09l-2.55-6.21h.86l2.1,5.42,2.11-5.42h.85l-3.69,9.05h-.84l1.17-2.84Z"></path><path class="cls-12" d="M625.86,515.13c0-1.84.99-3.34,2.81-3.34,1.96,0,2.76,1.53,2.76,2.94,0,.1-.01.4-.04.55h-4.76c.03,1.51.84,2.39,2.14,2.39.82,0,1.35-.23,1.91-.83l.55.49c-.73.75-1.43,1.05-2.46,1.05-1.89,0-2.91-1.41-2.91-3.25ZM630.67,514.7c0-.08,0-.16,0-.24,0-.92-.58-2.01-2-2.01-1.23,0-1.98.98-2.07,2.26h4.06Z"></path><path class="cls-12" d="M633.15,511.88h.78v1.09c.43-.78,1.31-1.18,2.02-1.18.33,0,.66.07.99.24l-.39.7c-.21-.1-.51-.17-.77-.17-.68,0-1.46.36-1.74,1.3-.08.27-.12.57-.12,1.27v3.15h-.78v-6.41Z"></path></g><g><path class="cls-12" d="M610.71,382.77h.65l1.71,6.06,1.76-5.7h.63l1.76,5.7,1.7-6.06h.65l-2.01,6.98h-.63l-1.79-5.71-1.79,5.71h-.64l-2.01-6.98Z"></path><path class="cls-12" d="M620.72,382.77h.62v6.98h-.62v-6.98Z"></path><path class="cls-12" d="M622.77,386.26c0-2.16,1.26-3.58,3.16-3.58,1.35,0,2.39.71,2.84,1.89l-.58.22c-.38-.96-1.17-1.52-2.26-1.52-1.55,0-2.54,1.17-2.54,2.99s.99,3,2.54,3c1.09,0,1.89-.56,2.26-1.52l.58.22c-.45,1.18-1.49,1.9-2.84,1.9-1.89,0-3.16-1.42-3.16-3.59Z"></path></g><path class="cls-12" d="M557.94,566.24h.65l1.71,6.06,1.76-5.7h.63l1.76,5.7,1.7-6.06h.65l-2.01,6.98h-.63l-1.79-5.71-1.79,5.71h-.64l-2.01-6.98Z"></path><path class="cls-12" d="M570.22,565.36h.48l-3.55,9.08h-.47l3.55-9.08Z"></path><path class="cls-12" d="M571.92,566.24h1.87c2.26,0,3.56,1.29,3.56,3.54s-1.27,3.43-3.57,3.43h-1.86v-6.98ZM573.73,572.64c1.92,0,2.99-.89,2.99-2.88s-1.08-2.95-2.94-2.95h-1.24v5.83h1.19Z"></path><path class="cls-12" d="M557.95,600.78h.62v6.42h3.22v.56h-3.84v-6.98Z"></path><g><path class="cls-12" d="M311.48,462.24h1.94c1.53,0,2.29.72,2.29,1.92,0,.97-.5,1.6-1.43,1.83l1.88,3.22h-.71l-1.8-3.13c-.16,0-.34,0-.5,0h-1.05v3.13h-.62v-6.98ZM313.36,465.54c1.06,0,1.73-.43,1.73-1.37s-.68-1.37-1.73-1.37h-1.26v2.74h1.26Z"></path><path class="cls-12" d="M317.33,462.24h4.56v.56h-3.94v2.59h3.53v.56h-3.53v2.7h3.94v.56h-4.56v-6.98Z"></path><path class="cls-12" d="M323.19,462.24h4.51v.56h-3.89v2.59h3.38v.56h-3.38v3.26h-.62v-6.98Z"></path></g><path class="cls-12" d="M449.02,465.73c0-2.17,1.27-3.59,3.16-3.59s3.18,1.42,3.18,3.59-1.27,3.58-3.18,3.58-3.16-1.42-3.16-3.58ZM452.18,468.72c1.57,0,2.55-1.16,2.55-2.99s-.99-3-2.55-3-2.54,1.15-2.54,3,.99,2.99,2.54,2.99Z"></path><path class="cls-12" d="M459.05,461.24h.48l-3.55,9.08h-.47l3.55-9.08Z"></path><path class="cls-12" d="M460.76,462.24h.93l2.35,5.66,2.35-5.66h.92v6.98h-.62v-6.16l-2.35,5.59h-.61l-2.36-5.59v6.16h-.62v-6.98Z"></path><g><path class="cls-12" d="M348.35,382.77h1.87c2.26,0,3.56,1.29,3.56,3.54s-1.27,3.43-3.57,3.43h-1.86v-6.98ZM350.16,389.18c1.92,0,2.99-.89,2.99-2.88s-1.08-2.95-2.94-2.95h-1.24v5.83h1.19Z"></path><path class="cls-12" d="M354.44,382.77h.65l1.71,6.06,1.76-5.7h.63l1.76,5.7,1.7-6.06h.65l-2.01,6.98h-.63l-1.79-5.71-1.79,5.71h-.64l-2.01-6.98Z"></path></g><g><path class="cls-12" d="M452.28,382.77h.65l1.71,6.06,1.76-5.7h.63l1.76,5.7,1.7-6.06h.65l-2.01,6.98h-.63l-1.79-5.71-1.79,5.71h-.64l-2.01-6.98Z"></path><path class="cls-12" d="M462.28,382.77h4.51v.56h-3.89v2.59h3.38v.56h-3.38v3.26h-.62v-6.98Z"></path></g><path class="cls-12" d="M552.16,379.04h1.94c1.46,0,2.29.69,2.29,1.95s-.83,1.96-2.29,1.96h-1.33v3.07h-.62v-6.98ZM554.04,382.39c1.09,0,1.73-.47,1.73-1.4s-.62-1.39-1.73-1.39h-1.27v2.79h1.27Z"></path><g><path class="cls-12" d="M524.41,673.52h.65l1.71,6.06,1.76-5.7h.63l1.76,5.7,1.7-6.06h.65l-2.01,6.98h-.63l-1.79-5.71-1.79,5.71h-.64l-2.01-6.98Z"></path><path class="cls-12" d="M534.42,673.52h.62v6.98h-.62v-6.98Z"></path><path class="cls-12" d="M536.47,677c0-2.16,1.26-3.58,3.16-3.58,1.35,0,2.39.71,2.84,1.89l-.58.22c-.38-.96-1.17-1.52-2.26-1.52-1.55,0-2.54,1.17-2.54,2.99s.99,3,2.54,3c1.09,0,1.89-.56,2.26-1.52l.58.21c-.45,1.18-1.49,1.9-2.84,1.9-1.89,0-3.16-1.42-3.16-3.59Z"></path></g><polyline class="cls-2" points="174.2 117.77 160.05 117.77 156.27 143.21"></polyline><path class="cls-15" d="M155.68,147.21l2.88-5.31s-2.28,1.32-4.08-.61l1.21,5.91Z"></path><g><path class="cls-16" d="M180.64,114.6h1.67c1.03,0,1.65.52,1.65,1.38,0,.58-.28,1.03-.76,1.23.68.16,1.04.66,1.04,1.42,0,.99-.63,1.54-1.77,1.54h-1.83v-5.57ZM182.47,117.06c.6,0,1-.39,1-1.01s-.42-.99-1.16-.99h-1.17v2h1.33ZM182.44,119.71c.88,0,1.32-.37,1.32-1.1,0-.7-.41-1.1-1.1-1.1h-1.51v2.2h1.3Z"></path><path class="cls-16" d="M187.99,119.43c-.26.5-.77.8-1.38.8-.88,0-1.42-.48-1.42-1.2,0-.42.18-.71.44-.89.28-.19.67-.26,1.09-.26h1.26v-.17c0-.73-.38-1.13-1.12-1.13-.48,0-.86.18-1.22.63l-.34-.3c.42-.52.94-.75,1.59-.75,1,0,1.56.55,1.56,1.54v2.45h-.44l-.02-.74ZM186.65,119.83c.72,0,1.33-.57,1.33-1.35v-.22h-1.2c-.32,0-.63.05-.84.2-.17.13-.27.31-.27.58,0,.49.37.8.98.8Z"></path><path class="cls-16" d="M189.65,119.35v-4.75h.48v4.67c0,.37.14.52.39.52.1,0,.24-.02.38-.07v.41c-.18.07-.37.1-.52.1-.44,0-.72-.27-.72-.88Z"></path><path class="cls-16" d="M191.56,118.2c0-1.13.65-2.02,1.76-2.02.72,0,1.28.36,1.54,1.07l-.43.17c-.17-.5-.55-.82-1.11-.82-.87,0-1.29.77-1.29,1.61s.42,1.61,1.29,1.61c.56,0,.94-.31,1.11-.82l.43.16c-.26.71-.82,1.08-1.54,1.08-1.11,0-1.76-.9-1.76-2.03Z"></path><path class="cls-16" d="M195.7,118.2c0-1.18.77-2.02,1.88-2.02s1.87.84,1.87,2.02-.78,2.03-1.87,2.03-1.88-.84-1.88-2.03ZM197.57,119.8c.84,0,1.39-.64,1.39-1.6s-.55-1.6-1.39-1.6-1.4.64-1.4,1.6.56,1.6,1.4,1.6Z"></path><path class="cls-16" d="M200.6,116.23h.48v.64c.25-.47.69-.7,1.24-.7.85,0,1.36.5,1.36,1.54v2.45h-.48v-2.28c0-.89-.34-1.3-.99-1.3-.71,0-1.13.48-1.13,1.57v2.01h-.48v-3.94Z"></path><path class="cls-16" d="M206.05,120.05l-1.57-3.82h.53l1.29,3.33,1.3-3.33h.52l-2.27,5.56h-.52l.72-1.75Z"></path><path class="cls-16" d="M212.86,114.6h.42l2.05,5.57h-.54l-.51-1.45h-2.42l-.51,1.45h-.55l2.05-5.57ZM214.12,118.28l-1.05-2.99-1.06,2.99h2.11Z"></path><path class="cls-16" d="M216.65,119.39v.78h-.47v-5.57h.47v2.41c.26-.5.77-.84,1.41-.84,1,0,1.79.82,1.79,2.02s-.74,2.03-1.79,2.03c-.64,0-1.14-.31-1.41-.83ZM217.99,119.78c.81,0,1.39-.67,1.39-1.59s-.58-1.59-1.39-1.59-1.37.66-1.37,1.59.57,1.59,1.37,1.59Z"></path><path class="cls-16" d="M220.8,118.2c0-1.18.77-2.02,1.88-2.02s1.87.84,1.87,2.02-.78,2.03-1.87,2.03-1.88-.84-1.88-2.03ZM222.67,119.8c.84,0,1.39-.64,1.39-1.6s-.55-1.6-1.39-1.6-1.4.64-1.4,1.6.56,1.6,1.4,1.6Z"></path><path class="cls-16" d="M225.2,116.23h.53l1.29,3.33,1.3-3.33h.52l-1.61,3.94h-.42l-1.61-3.94Z"></path><path class="cls-16" d="M229.51,118.23c0-1.13.61-2.05,1.73-2.05,1.21,0,1.7.94,1.7,1.81,0,.06,0,.24-.02.34h-2.93c.02.93.52,1.47,1.32,1.47.5,0,.83-.14,1.17-.51l.34.3c-.45.46-.88.65-1.51.65-1.16,0-1.79-.87-1.79-2ZM232.47,117.96s0-.1,0-.15c0-.57-.36-1.24-1.23-1.24-.75,0-1.22.6-1.27,1.39h2.49Z"></path></g><g><path class="cls-16" d="M62.58,588.81h.5v5.12h2.57v.45h-3.07v-5.57Z"></path><path class="cls-16" d="M66.17,592.44c0-1.13.61-2.05,1.73-2.05,1.21,0,1.7.94,1.7,1.81,0,.06,0,.24-.02.34h-2.93c.02.93.52,1.47,1.32,1.47.5,0,.83-.14,1.18-.51l.34.3c-.45.46-.88.65-1.52.65-1.16,0-1.79-.87-1.79-2ZM69.14,592.18s0-.1,0-.15c0-.57-.36-1.24-1.23-1.24-.76,0-1.22.6-1.27,1.39h2.49Z"></path><path class="cls-16" d="M70.53,592.41c0-1.21.79-2.02,1.79-2.02.64,0,1.15.33,1.41.84v-2.41h.47v5.57h-.47v-.78c-.27.52-.77.83-1.41.83-1.06,0-1.79-.88-1.79-2.03ZM72.41,594c.8,0,1.37-.66,1.37-1.59s-.57-1.59-1.37-1.59-1.39.67-1.39,1.59.58,1.59,1.39,1.59Z"></path><path class="cls-16" d="M75.29,594.86s0-.06.02-.16l.68-.54c-.35-.14-.59-.36-.59-.78,0-.32.16-.55.44-.74-.22-.23-.34-.54-.34-.89,0-.8.64-1.36,1.47-1.36.4,0,.75.13,1.01.36l.63-.53.24.3-.62.54c.12.2.18.44.18.7,0,.79-.59,1.31-1.44,1.31-.32,0-.61-.08-.84-.21-.19.11-.28.26-.28.44,0,.41.39.51,1,.6.98.15,1.84.27,1.84,1.08,0,.72-.64,1.1-1.66,1.1-1.12,0-1.75-.43-1.75-1.23ZM77.05,595.71c.67,0,1.18-.21,1.18-.66,0-.53-.71-.59-1.42-.7-.19-.03-.37-.06-.55-.1l-.49.56c0,.06,0,.07,0,.09,0,.55.49.82,1.29.82ZM76.97,592.68c.6,0,.98-.4.98-.94s-.39-.96-.97-.96-1,.4-1,.95.39.95.99.95Z"></path><path class="cls-16" d="M79.44,592.44c0-1.13.61-2.05,1.73-2.05,1.21,0,1.7.94,1.7,1.81,0,.06,0,.24-.02.34h-2.93c.02.93.52,1.47,1.32,1.47.5,0,.83-.14,1.18-.51l.34.3c-.45.46-.88.65-1.52.65-1.16,0-1.79-.87-1.79-2ZM82.4,592.18s0-.1,0-.15c0-.57-.36-1.24-1.23-1.24-.76,0-1.22.6-1.27,1.39h2.49Z"></path></g><polyline class="cls-2" points="89.08 591.73 105.23 591.73 113.35 579.64"></polyline><path class="cls-15" d="M115.6,576.29l-4.88,3.56s2.63-.21,3.43,2.3l1.45-5.86Z"></path></g></g></svg> 