<?xml version="1.0" encoding="UTF-8"?> <svg xmlns="http://www.w3.org/2000/svg" id="Layer_2" data-name="Layer 2" viewBox="0 0 802.97 703.61"><defs><style> .cls-1 { stroke: #afa49f; } .cls-1, .cls-2, .cls-3, .cls-4, .cls-5, .cls-6, .cls-7, .cls-8, .cls-9, .cls-10, .cls-11, .cls-12, .cls-13, .cls-14, .cls-15, .cls-16, .cls-17 { fill: none; } .cls-1, .cls-2, .cls-3, .cls-9, .cls-12, .cls-14, .cls-17 { stroke-width: .25px; } .cls-1, .cls-11, .cls-12 { stroke-miterlimit: 10; } .cls-2 { stroke-dasharray: 1.54 1.54; } .cls-2, .cls-3, .cls-4, .cls-5, .cls-6, .cls-7, .cls-8, .cls-9, .cls-10, .cls-13, .cls-14, .cls-15, .cls-16, .cls-17 { stroke-linecap: round; stroke-linejoin: round; } .cls-2, .cls-3, .cls-9, .cls-17 { stroke: #75655e; } .cls-18 { fill: #3a2a22; } .cls-3 { stroke-dasharray: 6.08 5.07; } .cls-4 { stroke-dasharray: 1.02 1.02; } .cls-4, .cls-5, .cls-6, .cls-7, .cls-10, .cls-13, .cls-16 { stroke: #55453d; stroke-width: .15px; } .cls-6 { stroke-dasharray: 1.02 1.02; } .cls-19 { fill: #fff; } .cls-7 { stroke-dasharray: .62 .62; } .cls-8, .cls-11 { stroke-width: .75px; } .cls-8, .cls-11, .cls-14, .cls-15 { stroke: #3a2a22; } .cls-20 { fill: #bc8ebc; } .cls-10 { stroke-dasharray: 1.08 1.08; } .cls-12 { stroke: #bc8ebc; } .cls-21 { fill: #afa49f; } .cls-13 { stroke-dasharray: 1.02 1.02; } .cls-15 { stroke-width: .35px; } .cls-22 { fill: #75655e; } .cls-16 { stroke-dasharray: 1.01 1.01; } .cls-17 { stroke-dasharray: 1.44 1.44; } </style></defs><g id="Layer_1-2" data-name="Layer 1"><g><polyline class="cls-19" points="623.72 616.61 585.65 613.1 547.58 609.31 509.61 605.06 471.63 600.53 433.65 595.64 395.77 590.37 357.98 584.83 320.19 578.91 282.49 572.63 244.79 565.98 205.98 558.68 167.17 551.1 128.46 543.15 130.09 535.21 96.49 528 59.62 519.78 22.84 511.18 65.35 422.66 99.81 422.66 99.79 422.66 121.71 51.4 189.35 51.4 189.35 55.26 294.85 55.26 294.85 39.65 515.5 39.65 515.5 .38 612.84 .38 612.84 138.98 786.09 138.98 786.09 613.56 786.09 619.34 783.05 619.23 778.31 619.01 739.59 616.98 708.82 614.99 708.27 623.08 665.95 620.03 623.63 616.61"></polyline><line class="cls-5" x1="121.68" y1="533.4" x2="121.58" y2="533.89"></line><line class="cls-6" x1="121.37" y1="534.89" x2="120.25" y2="540.41"></line><polyline class="cls-5" points="120.15 540.91 120.05 541.4 120.54 541.5"></polyline><line class="cls-10" x1="121.6" y1="541.71" x2="127.44" y2="542.9"></line><line class="cls-5" x1="127.97" y1="543.01" x2="128.46" y2="543.11"></line><line class="cls-5" x1="120.71" y1="541.53" x2="120.81" y2="541.04"></line><line class="cls-6" x1="121.02" y1="540.04" x2="122.14" y2="534.53"></line><line class="cls-5" x1="122.24" y1="534.03" x2="122.34" y2="533.54"></line><line class="cls-5" x1="122.08" y1="541.81" x2="122.18" y2="541.32"></line><line class="cls-13" x1="122.38" y1="540.32" x2="123.5" y2="534.83"></line><line class="cls-5" x1="123.6" y1="534.33" x2="123.7" y2="533.84"></line><line class="cls-5" x1="124.59" y1="542.32" x2="124.69" y2="541.83"></line><line class="cls-4" x1="124.89" y1="540.84" x2="126.01" y2="535.36"></line><line class="cls-5" x1="126.11" y1="534.86" x2="126.21" y2="534.37"></line><line class="cls-5" x1="708.27" y1="623.08" x2="708.77" y2="623.11"></line><line class="cls-7" x1="709.39" y1="623.15" x2="710.32" y2="623.21"></line><line class="cls-5" x1="710.63" y1="623.23" x2="711.13" y2="623.26"></line><line class="cls-5" x1="711.65" y1="615.18" x2="711.62" y2="615.68"></line><line class="cls-16" x1="711.56" y1="616.69" x2="711.2" y2="622.26"></line><line class="cls-5" x1="711.16" y1="622.77" x2="711.13" y2="623.26"></line><line class="cls-5" x1="711.38" y1="615.16" x2="711.34" y2="615.66"></line><line class="cls-16" x1="711.28" y1="616.67" x2="710.92" y2="622.24"></line><line class="cls-5" x1="710.89" y1="622.75" x2="710.85" y2="623.25"></line><line class="cls-5" x1="710.53" y1="615.1" x2="710.5" y2="615.6"></line><line class="cls-16" x1="710.44" y1="616.62" x2="710.08" y2="622.19"></line><line class="cls-5" x1="710.04" y1="622.69" x2="710.01" y2="623.19"></line><line class="cls-5" x1="710" y1="615.07" x2="709.97" y2="615.57"></line><line class="cls-16" x1="709.9" y1="616.58" x2="709.55" y2="622.15"></line><line class="cls-5" x1="709.51" y1="622.66" x2="709.48" y2="623.16"></line><polyline class="cls-15" points="244.79 551.84 244.79 553.87 208.66 547.15 172.98 540.22 137.29 532.92 101.7 525.24 66.12 517.39 28.28 508.59 67.69 426.49 99.44 426.49 99.44 428.49"></polyline><polyline class="cls-15" points="99.44 428.49 68.95 428.49 31.16 507.21 66.55 515.43 102.12 523.29 137.7 530.96 173.36 538.26 209.03 545.19 244.79 551.84"></polyline><polyline class="cls-15" points="623.63 602.66 662.25 605.89 700.97 608.67 739.59 611.16 776.25 613.17"></polyline><polyline class="cls-15" points="623.63 600.66 662.25 603.89 700.97 606.66 739.59 609.16 776.09 611.16"></polyline><g><path class="cls-5" d="M477.07,92.33c-23.13,0-39.35,18.61-39.35,41.58"></path><path class="cls-5" d="M203.21,441.06c0,23.13,18.61,39.35,41.58,39.35"></path><path class="cls-5" d="M622.44,185.94c23.13,0,39.35,18.61,39.35,41.58"></path><path class="cls-5" d="M657.17,240.09c0,23.13-18.61,39.35-41.58,39.35"></path><path class="cls-5" d="M507.02,333.86c0-23.13,18.61-39.35,41.57-39.35"></path><path class="cls-5" d="M600.61,331.46c-23.13,0-39.35-18.61-39.35-41.57"></path><path class="cls-5" d="M628.16,568.19c23.13,0,39.35-18.61,39.35-41.57"></path><path class="cls-5" d="M554.88,70.48c0,26.48,21.47,45.05,47.95,45.05"></path></g><line class="cls-5" x1="602.84" y1="70.48" x2="602.84" y2="115.53"></line><line class="cls-5" x1="612.84" y1="67.5" x2="612.84" y2="115.53"></line><rect class="cls-15" x="477.07" y="92.33" width="2.23" height="41.58"></rect><rect class="cls-15" x="203.21" y="438.83" width="41.58" height="2.23"></rect><rect class="cls-15" x="620.21" y="185.94" width="2.23" height="41.58"></rect><rect class="cls-15" x="675.73" y="263.27" width="2.23" height="41.58"></rect><rect class="cls-15" x="548.6" y="374.15" width="2.23" height="41.58"></rect><rect class="cls-15" x="615.59" y="237.86" width="41.58" height="2.23"></rect><rect class="cls-15" x="507.02" y="333.86" width="41.58" height="2.23"></rect><rect class="cls-15" x="308.36" y="134.59" width="41.58" height="2.23"></rect><rect class="cls-15" x="329.15" y="136.83" width="41.58" height="2.23"></rect><rect class="cls-15" x="600.61" y="289.89" width="2.23" height="41.58"></rect><rect class="cls-15" x="625.93" y="526.61" width="2.23" height="41.58"></rect><rect class="cls-15" x="554.88" y="67.57" width="47.95" height="2.91"></rect><rect class="cls-15" x="529.56" y="57.76" width="69.3" height="2.23"></rect><line class="cls-15" x1="564.21" y1="57.76" x2="564.21" y2="59.99"></line><rect class="cls-15" x="523.27" y="65.82" width="2.23" height="62.37"></rect><line class="cls-15" x1="523.27" y1="97" x2="525.5" y2="97"></line><line class="cls-9" x1="364.91" y1="249.41" x2="364.16" y2="249.41"></line><line class="cls-17" x1="362.71" y1="249.41" x2="337.47" y2="249.41"></line><polyline class="cls-9" points="336.75 249.41 336 249.41 336 248.66"></polyline><line class="cls-2" x1="336" y1="247.13" x2="336" y2="223.32"></line><polyline class="cls-9" points="336 222.55 336 221.8 336.75 221.8"></polyline><line class="cls-17" x1="338.19" y1="221.8" x2="363.44" y2="221.8"></line><line class="cls-9" x1="364.16" y1="221.8" x2="364.91" y2="221.8"></line><line class="cls-9" x1="364.91" y1="352.9" x2="364.16" y2="352.9"></line><line class="cls-17" x1="362.71" y1="352.9" x2="337.47" y2="352.9"></line><polyline class="cls-9" points="336.75 352.9 336 352.9 336 352.15"></polyline><line class="cls-2" x1="336" y1="350.61" x2="336" y2="326.8"></line><polyline class="cls-9" points="336 326.04 336 325.29 336.75 325.29"></polyline><line class="cls-17" x1="338.19" y1="325.29" x2="363.44" y2="325.29"></line><line class="cls-9" x1="364.16" y1="325.29" x2="364.91" y2="325.29"></line><line class="cls-9" x1="427.64" y1="265.14" x2="427.64" y2="268.14"></line><line class="cls-3" x1="427.64" y1="273.2" x2="427.64" y2="359.84"></line><line class="cls-9" x1="427.64" y1="362.37" x2="427.64" y2="365.37"></line><line class="cls-15" x1="415.72" y1="407.7" x2="415.73" y2="200.9"></line><line class="cls-15" x1="415.73" y1="265.14" x2="443.45" y2="265.14"></line><line class="cls-15" x1="415.73" y1="228.99" x2="443.45" y2="228.99"></line><line class="cls-15" x1="415.72" y1="365.37" x2="443.45" y2="365.38"></line><line class="cls-15" x1="418.23" y1="265.14" x2="418.23" y2="200.9"></line><rect class="cls-15" x="315.33" y="218.27" width="49.58" height="138.6"></rect><g><path class="cls-15" d="M334.26,305.17h9.89c.33,0,.59.27.59.59v.56c0,.33-.26.59-.59.59h-9.89c-.33,0-.59-.26-.59-.59v-.56c0-.33.26-.59.59-.59Z"></path><path class="cls-15" d="M350.64,306.04c0,.49.4.9.9.9s.9-.4.9-.9-.4-.9-.9-.9-.9.4-.9.9Z"></path></g><polyline class="cls-15" points="334.98 306.91 334.98 309.34 337.83 309.34 337.83 306.91"></polyline><line class="cls-15" x1="337.83" y1="308.47" x2="334.98" y2="308.47"></line><polyline class="cls-15" points="340.14 306.91 340.14 318.97 361.9 318.97 361.9 293.12 340.14 293.12 340.14 305.17"></polyline><polyline class="cls-15" points="341.22 305.17 341.22 294.2 360.82 294.2 360.82 317.89 341.22 317.89 341.22 306.91"></polyline><line class="cls-15" x1="418.23" y1="365.37" x2="418.23" y2="407.7"></line><polyline class="cls-15" points="608.66 174.39 692.92 174.38 692.92 148.98"></polyline><path class="cls-15" d="M668.71,157.32h9.87c.4,0,.72.32.72.72v10.9c0,.4-.32.72-.72.72h-20.82c-.4,0-.72-.32-.72-.72v-10.9c0-.4.32-.72.72-.72h9.48"></path><rect class="cls-15" x="667.24" y="153.87" width="1.47" height="5.89"></rect><g><circle class="cls-15" cx="667.98" cy="163.49" r=".84"></circle><path class="cls-15" d="M633.95,157.32h9.87c.4,0,.72.32.72.72v10.9c0,.4-.32.72-.72.72h-20.82c-.4,0-.72-.32-.72-.72v-10.9c0-.4.32-.72.72-.72h9.48"></path></g><rect class="cls-15" x="632.48" y="153.87" width="1.47" height="5.89"></rect><circle class="cls-15" cx="633.22" cy="163.49" r=".84"></circle><line class="cls-15" x1="733.4" y1="225.21" x2="733.39" y2="149.79"></line><line class="cls-15" x1="733.4" y1="225.21" x2="733.39" y2="148.98"></line><line class="cls-15" x1="734.68" y1="225.2" x2="734.67" y2="148.97"></line><line class="cls-15" x1="734.68" y1="220.52" x2="733.4" y2="220.52"></line><line class="cls-15" x1="734.68" y1="182.52" x2="733.4" y2="182.52"></line><line class="cls-15" x1="774.98" y1="162.36" x2="734.67" y2="162.36"></line><g><path class="cls-15" d="M756.04,213.32c0,.67-.54,1.21-1.21,1.21s-1.21-.54-1.21-1.21.54-1.21,1.21-1.21,1.21.54,1.21,1.21Z"></path><path class="cls-15" d="M760.02,213.32c0,2.86-2.32,5.18-5.18,5.18s-5.18-2.32-5.18-5.18,2.32-5.18,5.18-5.18,5.18,2.32,5.18,5.18Z"></path><path class="cls-15" d="M705.17,156.43h15.44c.6,0,1.08-.48,1.08-1.08v-5.29c0-.6-.48-1.08-1.08-1.08h-15.44c-.6,0-1.08.49-1.08,1.08v5.29c0,.6.48,1.08,1.08,1.08Z"></path><path class="cls-15" d="M708.43,160.58c-.28,0-.54.11-.73.32-1.88,2.09-3.08,5.3-3.08,8.9,0,6.31,3.71,11.42,8.28,11.42s8.28-5.11,8.28-11.42c0-3.59-1.2-6.8-3.08-8.9-.19-.21-.46-.32-.73-.32h-8.92Z"></path></g><line class="cls-15" x1="704.61" y1="169.79" x2="704.61" y2="156.27"></line><line class="cls-15" x1="721.17" y1="169.79" x2="721.16" y2="156.27"></line><g><path class="cls-15" d="M457.28,252.02h5.29c.6,0,1.08.48,1.08,1.08v15.44c0,.6-.48,1.08-1.08,1.08h-5.29c-.6,0-1.08-.48-1.08-1.08v-15.44c0-.6.48-1.08,1.08-1.08Z"></path><path class="cls-15" d="M467.8,256.36c0-.28.11-.54.32-.73,2.09-1.88,5.3-3.09,8.9-3.09,6.31,0,11.42,3.71,11.42,8.28s-5.11,8.28-11.42,8.28c-3.59,0-6.8-1.2-8.9-3.08-.21-.19-.32-.46-.32-.73v-8.92Z"></path></g><line class="cls-15" x1="477.02" y1="252.54" x2="463.5" y2="252.54"></line><line class="cls-15" x1="477.02" y1="269.1" x2="463.5" y2="269.1"></line><polyline class="cls-15" points="456.2 282.5 481.22 282.5 481.22 340.71"></polyline><path class="cls-15" d="M464.26,312.15v9.87c0,.4.32.72.72.72h10.9c.4,0,.72-.32.72-.72v-20.82c0-.4-.32-.72-.72-.72h-10.9c-.4,0-.72.32-.72.72v9.48"></path><rect class="cls-15" x="460.81" y="310.67" width="5.89" height="1.47"></rect><circle class="cls-15" cx="470.43" cy="311.41" r=".84"></circle><line class="cls-15" x1="541.3" y1="224.31" x2="541.3" y2="221.1"></line><g><path class="cls-15" d="M541.3,220.24v-11.6c0-1.38-1.12-2.5-2.5-2.5h-61.83c-1.38,0-2.5,1.12-2.5,2.5v24.04c0,1.38,1.12,2.5,2.5,2.5h61.83c1.38,0,2.5-1.12,2.5-2.5v-8.37"></path><path class="cls-15" d="M545.32,221.1h-10.86c-.24,0-.43-.19-.43-.43s.19-.43.43-.43h10.81"></path><path class="cls-15" d="M535.54,220.24c-.17-.46-.61-.79-1.14-.79-.67,0-1.21.54-1.21,1.21s.54,1.21,1.21,1.21c.51,0,.95-.32,1.13-.77"></path><path class="cls-15" d="M539.57,220.24c-.21-2.66-2.45-4.76-5.17-4.76-2.86,0-5.18,2.32-5.18,5.18,0,2.86,2.32,5.18,5.18,5.18,2.71,0,4.94-2.09,5.16-4.74"></path></g><rect class="cls-15" x="545.32" y="218.12" width=".97" height="5.08"></rect><line class="cls-15" x1="546.29" y1="238.89" x2="470.06" y2="238.89"></line><line class="cls-15" x1="546.29" y1="240.17" x2="470.1" y2="240.17"></line><line class="cls-15" x1="541.61" y1="240.17" x2="541.61" y2="238.89"></line><line class="cls-15" x1="503.6" y1="240.18" x2="503.6" y2="238.89"></line><g><path class="cls-15" d="M413.83,57.68h15.44c.6,0,1.08.48,1.08,1.08v5.3c0,.6-.48,1.08-1.08,1.08h-15.44c-.6,0-1.08-.48-1.08-1.08v-5.29c0-.6.48-1.08,1.08-1.08Z"></path><path class="cls-15" d="M417.09,69.28c-.28,0-.54.11-.73.32-1.88,2.09-3.08,5.3-3.08,8.9,0,6.31,3.7,11.42,8.28,11.42s8.28-5.11,8.28-11.42c0-3.6-1.2-6.8-3.08-8.9-.19-.21-.46-.32-.73-.32h-8.92Z"></path></g><line class="cls-15" x1="413.27" y1="78.5" x2="413.27" y2="64.98"></line><line class="cls-15" x1="429.82" y1="78.5" x2="429.82" y2="64.98"></line><polyline class="cls-15" points="442.34 57.68 442.34 82.7 483.92 82.7"></polyline><path class="cls-15" d="M463.67,65.75h9.87c.4,0,.72.32.72.72v10.9c0,.4-.32.72-.72.72h-20.82c-.4,0-.72-.32-.72-.72v-10.9c0-.4.32-.72.72-.72h9.48"></path><rect class="cls-15" x="462.2" y="62.3" width="1.47" height="5.89"></rect><circle class="cls-15" cx="462.94" cy="71.92" r=".84"></circle><rect class="cls-15" x="564.16" y="13.3" width="30.61" height="38.03"></rect><polyline class="cls-15" points="529.56 54.27 556.08 54.27 556.08 26.55"></polyline><rect class="cls-15" x="417.01" y="295.88" width="24.28" height="36.98"></rect><rect class="cls-15" x="418.09" y="296.96" width="22.12" height="34.82"></rect><path class="cls-15" d="M418.84,314.37c0-.71.57-1.28,1.28-1.28s1.28.57,1.28,1.28-.57,1.28-1.28,1.28c-.71,0-1.28-.57-1.28-1.28Z"></path><line class="cls-15" x1="418.09" y1="296.97" x2="417.01" y2="295.89"></line><line class="cls-15" x1="418.09" y1="331.78" x2="417.01" y2="332.86"></line><line class="cls-15" x1="440.21" y1="331.78" x2="441.29" y2="332.86"></line><line class="cls-15" x1="440.2" y1="296.96" x2="441.28" y2="295.88"></line><polygon class="cls-15" points="420.12 315.43 421.18 314.37 420.12 313.32 419.07 314.37 420.12 315.43"></polygon><line class="cls-15" x1="421.18" y1="314.37" x2="419.07" y2="314.37"></line><g><path class="cls-14" d="M506.52,86.74c1.51-.03,3.03-.06,4.57-.13.8-.04,1.6-.09,2.35-.13.57-.03,1.11-.07,1.78-.16.65-.09,1.42-.25,1.73.23.07.11.12.25.13.38.06.77-1.18.9-2.24.97-2.35.15-3.74-.04-5.44-.16-.9-.06-1.9-.1-2.89-.14-.99.04-1.98.08-2.89.14-1.7.12-3.09.3-5.44.16-1.05-.07-2.3-.2-2.24-.97.01-.13.06-.27.13-.38.31-.48,1.08-.33,1.73-.23.67.1,1.21.13,1.78.16.75.04,1.56.09,2.35.13,1.55.07,3.06.1,4.57.13Z"></path><path class="cls-14" d="M506.52,91.44c1.51-.03,3.03-.06,4.57-.13.8-.04,1.6-.09,2.35-.13.57-.03,1.11-.07,1.78-.16.65-.09,1.42-.25,1.73.23.07.11.12.25.13.38.06.77-1.18.9-2.24.97-2.35.15-3.74-.04-5.44-.16-.9-.06-1.9-.1-2.89-.14-.99.04-1.98.08-2.89.14-1.7.12-3.09.3-5.44.16-1.05-.07-2.3-.2-2.24-.97.01-.13.06-.27.13-.38.31-.48,1.08-.33,1.73-.23.67.1,1.21.13,1.78.16.75.04,1.56.09,2.35.13,1.55.07,3.06.1,4.57.13Z"></path><path class="cls-14" d="M506.52,96.13c1.51-.03,3.03-.06,4.57-.13.8-.04,1.6-.09,2.35-.13.57-.03,1.11-.07,1.78-.16.65-.09,1.42-.25,1.73.23.07.11.12.25.13.38.06.77-1.18.9-2.24.97-2.35.15-3.74-.04-5.44-.16-.9-.06-1.9-.1-2.89-.14-.99.04-1.98.08-2.89.14-1.7.12-3.09.3-5.44.16-1.05-.07-2.3-.2-2.24-.97.01-.13.06-.27.13-.38.31-.48,1.08-.32,1.73-.23.67.1,1.21.13,1.78.16.75.04,1.56.09,2.35.13,1.55.07,3.06.1,4.57.13Z"></path></g><line class="cls-14" x1="506.52" y1="133.91" x2="506.52" y2="49.64"></line><g><path class="cls-14" d="M466.15,384.64c1.51-.03,3.03-.06,4.57-.13.8-.04,1.6-.09,2.35-.13.57-.03,1.11-.07,1.78-.16.65-.09,1.42-.25,1.73.23.07.11.12.25.13.38.06.77-1.18.9-2.24.97-2.35.15-3.74-.04-5.44-.16-.9-.06-1.9-.1-2.89-.14-.99.04-1.98.08-2.89.14-1.7.12-3.09.3-5.44.16-1.05-.07-2.3-.2-2.24-.97.01-.13.06-.27.12-.38.31-.48,1.08-.33,1.73-.23.67.1,1.21.13,1.78.16.75.04,1.56.09,2.35.13,1.55.07,3.06.1,4.57.13Z"></path><path class="cls-14" d="M466.15,389.33c1.51-.03,3.03-.06,4.57-.13.8-.04,1.6-.09,2.35-.13.57-.03,1.11-.07,1.78-.16.65-.09,1.42-.25,1.73.23.07.11.12.25.13.38.06.77-1.18.9-2.24.97-2.35.15-3.74-.04-5.44-.16-.9-.06-1.9-.1-2.89-.14-.99.04-1.98.08-2.89.14-1.7.12-3.09.3-5.44.16-1.05-.07-2.3-.2-2.24-.97.01-.13.06-.27.12-.38.31-.48,1.08-.32,1.73-.23.67.1,1.21.13,1.78.16.75.04,1.56.09,2.35.13,1.55.07,3.06.1,4.57.13Z"></path><path class="cls-14" d="M466.15,394.03c1.51-.03,3.03-.06,4.57-.13.8-.04,1.6-.09,2.35-.13.57-.03,1.11-.07,1.78-.16.65-.09,1.42-.25,1.73.23.07.11.12.25.13.38.06.77-1.18.9-2.24.97-2.35.15-3.74-.04-5.44-.16-.9-.06-1.9-.1-2.89-.14-.99.04-1.98.08-2.89.14-1.7.12-3.09.3-5.44.16-1.05-.07-2.3-.2-2.24-.97.01-.13.06-.27.12-.38.31-.48,1.08-.32,1.73-.23.67.1,1.21.13,1.78.16.75.04,1.56.09,2.35.13,1.55.07,3.06.1,4.57.13Z"></path><path class="cls-14" d="M512.41,361c.03,1.51.06,3.03.13,4.57.04.8.09,1.6.13,2.35.03.57.07,1.11.16,1.78.09.65.25,1.42-.23,1.73-.11.07-.25.12-.38.13-.77.06-.9-1.18-.97-2.24-.15-2.35.04-3.74.16-5.44.06-.9.1-1.9.14-2.89-.04-.99-.08-1.98-.14-2.89-.11-1.7-.3-3.09-.16-5.44.07-1.05.2-2.3.97-2.24.13.01.27.06.38.13.48.3.32,1.08.23,1.73-.1.67-.13,1.21-.16,1.78-.04.75-.09,1.56-.13,2.36-.07,1.54-.1,3.06-.13,4.57Z"></path><path class="cls-14" d="M507.71,361c.03,1.51.06,3.03.13,4.57.04.8.09,1.6.13,2.35.03.57.07,1.11.16,1.78.09.65.25,1.42-.23,1.73-.11.07-.25.12-.38.13-.77.06-.9-1.18-.97-2.24-.15-2.35.04-3.74.16-5.44.06-.9.1-1.9.14-2.89-.04-.99-.08-1.98-.14-2.89-.11-1.7-.3-3.09-.16-5.44.07-1.05.2-2.3.97-2.24.13.01.27.06.38.13.48.3.32,1.08.23,1.73-.1.67-.13,1.21-.16,1.78-.04.75-.09,1.56-.13,2.36-.07,1.54-.1,3.06-.13,4.57Z"></path><path class="cls-14" d="M503.02,361c.03,1.51.06,3.03.13,4.57.04.8.09,1.6.13,2.35.03.57.07,1.11.16,1.78.09.65.25,1.42-.23,1.73-.11.07-.25.12-.38.13-.77.06-.9-1.18-.97-2.24-.15-2.35.04-3.74.16-5.44.06-.9.1-1.9.14-2.89-.04-.99-.08-1.98-.14-2.89-.11-1.7-.3-3.09-.16-5.44.07-1.05.2-2.3.97-2.24.13.01.27.06.38.13.48.3.32,1.08.23,1.73-.1.67-.13,1.21-.16,1.78-.04.75-.09,1.56-.13,2.36-.07,1.54-.1,3.06-.13,4.57Z"></path></g><polyline class="cls-14" points="548.6 361 466.15 361 466.15 420.35"></polyline><polyline class="cls-14" points="623.63 608.48 662.25 611.71 700.97 614.49 739.59 616.98 778.31 619.01 783.05 619.23 786.09 619.34 786.09 613.56"></polyline><line class="cls-14" x1="669.83" y1="518.58" x2="776.09" y2="518.58"></line><polyline class="cls-14" points="252.92 559.23 293.02 566.16 333.12 572.72 373.32 578.91 413.6 584.73 453.89 590.19 494.27 595.18 534.65 599.8 575.12 603.95 615.59 607.74"></polyline><line class="cls-14" x1="129.29" y1="59.44" x2="108.04" y2="420.35"></line><line class="cls-14" x1="108.04" y1="420.35" x2="183.62" y2="420.35"></line><line class="cls-14" x1="252.92" y1="482.72" x2="252.92" y2="559.23"></line><line class="cls-14" x1="615.59" y1="607.74" x2="615.59" y2="518.58"></line><polyline class="cls-14" points="99.81 422.66 65.35 422.66 22.84 511.18 59.62 519.78 96.49 528 133.54 535.95 170.5 543.52 207.64 550.82 244.79 557.75"></polyline><polygon class="cls-8" points="189.35 53.71 123.84 53.71 101.94 426.17 183.62 426.17 183.62 428.48 99.44 428.48 121.71 51.4 189.35 51.4 189.35 53.71"></polygon><polygon class="cls-8" points="621.32 518.58 621.32 614.12 583.71 610.61 546.2 606.82 508.68 602.66 471.17 598.13 433.65 593.33 396.23 588.15 358.9 582.61 321.57 576.79 284.33 570.6 247.1 564.04 247.1 482.72 244.79 482.72 244.79 565.98 282.49 572.63 320.19 578.91 357.98 584.83 395.77 590.37 433.65 595.64 471.63 600.53 509.61 605.06 547.58 609.31 585.65 613.1 623.72 616.61 623.63 616.61 623.63 518.58 621.32 518.58"></polygon><polygon class="cls-8" points="623.91 614.3 666.13 617.72 708.45 620.77 708.27 623.08 665.95 620.03 623.63 616.61 623.91 614.3"></polygon><rect class="cls-8" x="669.83" y="524.3" width="106.26" height="2.31"></rect><polygon class="cls-8" points="128.92 540.94 167.54 548.79 206.16 556.37 244.79 563.57 244.79 565.98 205.98 558.68 167.17 551.1 128.46 543.15 130.12 535.21 128.92 540.94"></polygon><line class="cls-11" x1="189.35" y1="53.71" x2="189.35" y2="55.26"></line><polyline class="cls-8" points="209.21 557.01 210.32 551.28 212.63 551.75 211.52 557.38 209.21 557.01"></polyline><polyline class="cls-8" points="128.92 540.94 130.12 535.21 132.43 535.76 131.23 541.4 128.92 540.94"></polyline><polyline class="cls-8" points="280.92 569.95 281.93 564.31 284.24 564.68 283.23 570.41 280.92 569.95"></polyline><polyline class="cls-8" points="349.29 581.13 350.22 575.4 352.53 575.77 351.6 581.5 349.29 581.13"></polyline><polyline class="cls-8" points="417.85 591.2 418.69 585.47 421 585.75 420.16 591.48 417.85 591.2"></polyline><polyline class="cls-8" points="486.6 600.07 487.25 594.34 489.56 594.62 488.91 600.35 486.6 600.07"></polyline><polyline class="cls-8" points="555.44 607.74 555.99 602.01 558.3 602.29 557.75 608.02 555.44 607.74"></polyline><polyline class="cls-8" points="650.98 616.61 651.35 610.79 653.66 610.98 653.29 616.7 650.98 616.61"></polyline><polygon class="cls-8" points="706.15 620.6 706.51 614.86 708.82 614.99 708.43 620.77 706.15 620.6"></polygon><rect class="cls-8" x="623.63" y="518.57" width="2.31" height="8.04"></rect><rect class="cls-8" x="667.52" y="518.57" width="2.31" height="8.04"></rect><rect class="cls-8" x="244.79" y="436.52" width="8.13" height="2.31"></rect><rect class="cls-8" x="244.79" y="480.41" width="8.13" height="2.31"></rect><rect class="cls-8" x="247.1" y="519.31" width="5.82" height="2.31"></rect><polyline class="cls-8" points="254.4 559.42 252.92 559.23 252.92 557.66 247.1 562.56 247.1 564.04 248.67 564.31 254.4 559.42"></polyline><rect class="cls-8" x="615.59" y="525.5" width="5.73" height="2.31"></rect><rect class="cls-8" x="615.59" y="569.39" width="5.73" height="2.31"></rect><rect class="cls-8" x="674.45" y="518.57" width="2.31" height="5.73"></rect><rect class="cls-8" x="743.75" y="518.57" width="2.31" height="5.73"></rect><rect class="cls-8" x="773.78" y="518.57" width="2.31" height="5.73"></rect><polyline class="cls-8" points="615.59 606.08 615.59 607.74 613.83 607.65 619.66 613.93 621.32 614.12 621.32 612.36 615.59 606.08"></polyline><polyline class="cls-8" points="129.2 61.01 129.29 59.44 130.95 59.44 125.5 53.71 123.84 53.71 123.74 55.28 129.2 61.01"></polyline><rect class="cls-8" x="181.31" y="420.35" width="2.31" height="5.82"></rect><rect class="cls-8" x="137.42" y="420.35" width="2.31" height="5.82"></rect><polyline class="cls-8" points="121.16 99.36 126.98 99.63 126.79 101.94 121.06 101.67 121.16 99.36"></polyline><polyline class="cls-8" points="117.09 168.47 122.91 168.84 122.73 171.15 117 170.78 117.09 168.47"></polyline><polyline class="cls-8" points="113.03 237.68 118.75 238.05 118.66 240.36 112.93 239.99 113.03 237.68"></polyline><polyline class="cls-8" points="108.96 306.79 114.69 307.16 114.6 309.47 108.78 309.1 108.96 306.79"></polyline><polyline class="cls-8" points="104.89 376 110.62 376.37 110.53 378.68 104.71 378.31 104.89 376"></polyline><polyline class="cls-8" points="109.7 420.35 108.04 420.35 108.13 418.69 102.03 424.51 101.94 426.17 103.6 426.17 109.7 420.35"></polyline><polygon class="cls-18" points="602.88 115.53 612.88 115.53 612.88 138.98 786.09 138.98 786.09 613.56 783.02 613.56 776.09 613.1 776.09 518.57 774.98 518.57 774.98 315.29 672.14 315.29 672.14 304.85 677.96 304.85 677.96 309.47 774.98 309.47 774.98 233.24 677.96 233.24 677.96 263.27 672.14 263.27 672.14 233.24 661.79 233.24 661.79 227.52 733.4 227.52 733.4 225.21 774.98 225.21 774.98 148.97 608.66 148.97 608.66 227.52 620.21 227.52 620.21 233.24 615.59 233.24 615.59 237.86 609.77 237.86 609.77 233.24 602.88 233.24 602.88 115.53"></polygon><polygon class="cls-11" points="602.88 115.53 612.88 115.53 612.88 138.98 786.09 138.98 786.09 613.56 783.02 613.56 776.09 613.1 776.09 518.57 774.98 518.57 774.98 315.29 672.14 315.29 672.14 304.85 677.96 304.85 677.96 309.47 774.98 309.47 774.98 233.24 677.96 233.24 677.96 263.27 672.14 263.27 672.14 233.24 661.79 233.24 661.79 227.52 733.4 227.52 733.4 225.21 774.98 225.21 774.98 148.97 608.66 148.97 608.66 227.52 620.21 227.52 620.21 233.24 615.59 233.24 615.59 237.86 609.77 237.86 609.77 233.24 602.88 233.24 602.88 115.53"></polygon><polygon class="cls-18" points="615.64 279.44 609.77 279.44 609.77 284.06 602.84 284.06 602.84 289.88 609.77 289.88 609.77 526.61 615.59 526.61 615.59 518.57 623.63 518.57 623.63 512.75 615.59 512.75 615.64 279.44"></polygon><polygon class="cls-11" points="615.64 279.44 609.77 279.44 609.77 284.06 602.84 284.06 602.84 289.88 609.77 289.88 609.77 526.61 615.59 526.61 615.59 518.57 623.63 518.57 623.63 512.75 615.59 512.75 615.64 279.44"></polygon><polygon class="cls-18" points="182.42 414.63 182.42 420.35 183.62 420.35 183.62 436.52 252.92 436.52 252.92 437.73 258.65 437.73 258.65 414.63 182.42 414.63"></polygon><polygon class="cls-11" points="182.42 414.63 182.42 420.35 183.62 420.35 183.62 436.52 252.92 436.52 252.92 437.73 258.65 437.73 258.65 414.63 182.42 414.63"></polygon><polygon class="cls-18" points="489.09 588.71 488.45 594.44 454.07 590.18 419.79 585.56 420.62 579.93 443.45 582.98 443.45 416.93 415.73 416.93 415.73 407.69 443.45 407.69 443.45 200.9 415.73 200.9 415.73 195.17 554.33 195.17 554.33 284.06 561.26 284.06 561.26 289.88 554.33 289.88 554.33 294.41 548.65 294.41 548.6 240.17 546.29 240.17 546.29 200.9 470.06 200.9 470.06 240.17 456.2 240.17 456.2 340.7 548.6 340.7 548.6 336.08 554.33 336.08 554.33 374.15 548.6 374.15 548.6 346.43 451.58 346.43 451.58 420.35 548.6 420.35 548.6 415.73 554.33 415.73 554.33 426.17 465.99 426.17 465.99 585.84 489.09 588.71 488.45 594.44 489.09 588.71"></polygon><polygon class="cls-11" points="489.09 588.71 488.45 594.44 454.07 590.18 419.79 585.56 420.62 579.93 443.45 582.98 443.45 416.93 415.73 416.93 415.73 407.69 443.45 407.69 443.45 200.9 415.73 200.9 415.73 195.17 554.33 195.17 554.33 284.06 561.26 284.06 561.26 289.88 554.33 289.88 554.33 294.41 548.65 294.41 548.6 240.17 546.29 240.17 546.29 200.9 470.06 200.9 470.06 240.17 456.2 240.17 456.2 340.7 548.6 340.7 548.6 336.08 554.33 336.08 554.33 374.15 548.6 374.15 548.6 346.43 451.58 346.43 451.58 420.35 548.6 420.35 548.6 415.73 554.33 415.73 554.33 426.17 465.99 426.17 465.99 585.84 489.09 588.71 488.45 594.44 489.09 588.71"></polygon><polygon class="cls-18" points="515.5 .38 515.5 39.65 294.85 39.65 294.85 55.26 189.35 55.26 189.35 59.44 129.29 59.44 126.77 100.65 132.85 100.97 134.95 65.26 299.12 65.26 299.12 139.73 308.36 139.73 308.36 133.91 304.85 133.91 304.85 54.27 394.94 54.27 394.94 133.91 391.52 133.91 391.52 139.73 437.72 139.73 437.72 133.91 400.76 133.91 400.76 57.68 483.92 57.68 483.92 133.91 479.3 133.91 479.3 139.73 525.55 139.73 525.55 128.18 519.68 128.18 519.68 133.91 491.96 133.91 491.96 49.65 519.68 49.65 519.68 65.82 525.5 65.82 525.5 59.99 529.56 59.99 529.56 54.27 525.5 54.27 525.5 26.54 556.08 26.54 556.08 10.38 602.84 10.38 602.84 54.27 598.86 54.27 598.86 59.99 602.84 59.99 602.84 67.57 612.84 67.57 612.84 .38 515.5 .38"></polygon><polygon class="cls-11" points="515.5 .38 515.5 39.65 294.85 39.65 294.85 55.26 189.35 55.26 189.35 59.44 129.29 59.44 126.77 100.65 132.85 100.97 134.95 65.26 299.12 65.26 299.12 139.73 308.36 139.73 308.36 133.91 304.85 133.91 304.85 54.27 394.94 54.27 394.94 133.91 391.52 133.91 391.52 139.73 437.72 139.73 437.72 133.91 400.76 133.91 400.76 57.68 483.92 57.68 483.92 133.91 479.3 133.91 479.3 139.73 525.55 139.73 525.55 128.18 519.68 128.18 519.68 133.91 491.96 133.91 491.96 49.65 519.68 49.65 519.68 65.82 525.5 65.82 525.5 59.99 529.56 59.99 529.56 54.27 525.5 54.27 525.5 26.54 556.08 26.54 556.08 10.38 602.84 10.38 602.84 54.27 598.86 54.27 598.86 59.99 602.84 59.99 602.84 67.57 612.84 67.57 612.84 .38 515.5 .38"></polygon><g><path class="cls-20" d="M624.99,91.66c-.08-.02-.14-.07-.14-.14s.06-.13.14-.14c3.3-.56,4.94-2.74,4.94-6.02v-3.84c0-1.16,1.01-1.98,2.66-2.2.33-.05.61.23.45.47-.31.46-.47,1.06-.47,1.78v3.48c0,2.95-1.67,5.22-4.98,6.17-.37.11-.37.5,0,.61,3.31.96,4.98,3.22,4.98,6.18v3.48c0,.72.16,1.32.47,1.78.16.23-.12.51-.45.47-1.64-.22-2.66-1.05-2.66-2.21v-3.84c0-3.29-1.64-5.47-4.94-6.02h0Z"></path><path class="cls-12" d="M624.99,91.66c-.08-.02-.14-.07-.14-.14s.06-.13.14-.14c3.3-.56,4.94-2.74,4.94-6.02v-3.84c0-1.16,1.01-1.98,2.66-2.2.33-.05.61.23.45.47-.31.46-.47,1.06-.47,1.78v3.48c0,2.95-1.67,5.22-4.98,6.17-.37.11-.37.5,0,.61,3.31.96,4.98,3.22,4.98,6.18v3.48c0,.72.16,1.32.47,1.78.16.23-.12.51-.45.47-1.64-.22-2.66-1.05-2.66-2.21v-3.84c0-3.29-1.64-5.47-4.94-6.02h0Z"></path></g><g><path class="cls-18" d="M646.58,410.39h2.52c1.9,0,2.97.89,2.97,2.53s-1.07,2.54-2.97,2.54h-1.72v3.99h-.8v-9.06ZM649.02,414.74c1.41,0,2.24-.61,2.24-1.81s-.81-1.81-2.24-1.81h-1.64v3.62h1.64Z"></path><path class="cls-18" d="M653.57,413.04h.78v1.09c.43-.78,1.31-1.18,2.02-1.18.33,0,.66.07.99.24l-.39.7c-.21-.1-.51-.17-.77-.17-.68,0-1.46.36-1.74,1.3-.08.27-.12.57-.12,1.27v3.15h-.78v-6.41Z"></path><path class="cls-18" d="M658.63,410.39h.94v1.39h-.94v-1.39ZM658.71,413.04h.77v6.41h-.77v-6.41Z"></path><path class="cls-18" d="M661.52,413.04h.78v1.1c.38-.84,1.11-1.19,1.88-1.19.91,0,1.57.4,1.89,1.25.4-.83,1.09-1.25,2-1.25,1.55,0,2.13,1.16,2.13,2.68v3.82h-.78v-3.64c0-1.33-.39-2.18-1.52-2.18-1.02,0-1.65.77-1.65,2.26v3.57h-.78v-3.76c0-1.4-.52-2.07-1.5-2.07-1.03,0-1.67.79-1.67,2.26v3.57h-.78v-6.41Z"></path><path class="cls-18" d="M676.35,418.25c-.43.82-1.25,1.29-2.25,1.29-1.44,0-2.31-.77-2.31-1.94,0-.69.29-1.16.72-1.44.46-.31,1.09-.42,1.77-.42h2.05v-.28c0-1.19-.62-1.83-1.82-1.83-.79,0-1.4.29-1.98,1.02l-.56-.48c.68-.84,1.53-1.21,2.59-1.21,1.63,0,2.54.89,2.54,2.51v3.99h-.71l-.04-1.2ZM674.17,418.9c1.18,0,2.17-.93,2.17-2.2v-.36h-1.95c-.51,0-1.03.08-1.37.32-.28.21-.44.51-.44.94,0,.79.6,1.3,1.6,1.3Z"></path><path class="cls-18" d="M679.06,413.04h.78v1.09c.43-.78,1.31-1.18,2.02-1.18.33,0,.66.07.99.24l-.39.7c-.21-.1-.51-.17-.77-.17-.68,0-1.46.36-1.74,1.3-.08.27-.12.57-.12,1.27v3.15h-.78v-6.41Z"></path><path class="cls-18" d="M686.11,419.25l-2.55-6.21h.86l2.1,5.42,2.11-5.42h.85l-3.69,9.05h-.84l1.17-2.84Z"></path><path class="cls-18" d="M694.37,410.39h2.72c1.68,0,2.68.84,2.68,2.25,0,.94-.46,1.68-1.24,2,1.1.25,1.7,1.07,1.7,2.31,0,1.61-1.02,2.5-2.88,2.5h-2.97v-9.06ZM697.34,414.4c.98,0,1.63-.64,1.63-1.64s-.69-1.61-1.88-1.61h-1.91v3.26h2.16ZM697.29,418.71c1.42,0,2.14-.6,2.14-1.79,0-1.13-.66-1.79-1.79-1.79h-2.46v3.58h2.11Z"></path><path class="cls-18" d="M701.7,416.29c0-1.84.99-3.34,2.81-3.34,1.96,0,2.76,1.53,2.76,2.94,0,.1-.01.4-.04.55h-4.76c.03,1.51.84,2.39,2.14,2.39.82,0,1.35-.23,1.91-.83l.55.49c-.73.75-1.43,1.05-2.46,1.05-1.89,0-2.91-1.41-2.91-3.25ZM706.51,415.87c0-.08,0-.16,0-.24,0-.92-.58-2.01-2-2.01-1.23,0-1.98.98-2.07,2.26h4.06Z"></path><path class="cls-18" d="M708.68,416.24c0-1.96,1.29-3.29,2.92-3.29,1.05,0,1.87.54,2.29,1.36v-3.92h.77v9.06h-.77v-1.26c-.44.84-1.25,1.35-2.29,1.35-1.72,0-2.92-1.42-2.92-3.3ZM711.72,418.82c1.3,0,2.23-1.08,2.23-2.58s-.93-2.58-2.23-2.58-2.26,1.09-2.26,2.58.95,2.58,2.26,2.58Z"></path><path class="cls-18" d="M716.69,413.04h.78v1.09c.43-.78,1.31-1.18,2.02-1.18.33,0,.66.07.99.24l-.39.7c-.21-.1-.51-.17-.77-.17-.68,0-1.46.36-1.74,1.3-.08.27-.12.57-.12,1.27v3.15h-.78v-6.41Z"></path><path class="cls-18" d="M721.07,416.24c0-1.92,1.25-3.29,3.05-3.29s3.04,1.37,3.04,3.29-1.27,3.3-3.04,3.3-3.05-1.37-3.05-3.3ZM724.12,418.85c1.37,0,2.26-1.04,2.26-2.61s-.9-2.61-2.26-2.61-2.28,1.05-2.28,2.61.9,2.61,2.28,2.61Z"></path><path class="cls-18" d="M728.6,416.24c0-1.92,1.25-3.29,3.05-3.29s3.04,1.37,3.04,3.29-1.27,3.3-3.04,3.3-3.05-1.37-3.05-3.3ZM731.65,418.85c1.37,0,2.26-1.04,2.26-2.61s-.9-2.61-2.26-2.61-2.28,1.05-2.28,2.61.9,2.61,2.28,2.61Z"></path><path class="cls-18" d="M736.44,413.04h.78v1.1c.38-.84,1.11-1.19,1.88-1.19.91,0,1.57.4,1.89,1.25.4-.83,1.09-1.25,2-1.25,1.55,0,2.13,1.16,2.13,2.68v3.82h-.78v-3.64c0-1.33-.39-2.18-1.52-2.18-1.02,0-1.65.77-1.65,2.26v3.57h-.78v-3.76c0-1.4-.52-2.07-1.5-2.07-1.03,0-1.67.79-1.67,2.26v3.57h-.78v-6.41Z"></path></g><g><path class="cls-18" d="M313.12,481.98h2.43c2.94,0,4.62,1.68,4.62,4.6s-1.64,4.46-4.63,4.46h-2.42v-9.06ZM315.47,490.3c2.5,0,3.89-1.16,3.89-3.74s-1.4-3.83-3.82-3.83h-1.61v7.57h1.54Z"></path><path class="cls-18" d="M321.78,481.98h.94v1.39h-.94v-1.39ZM321.86,484.63h.77v6.41h-.77v-6.41Z"></path><path class="cls-18" d="M324.67,484.63h.78v1.05c.4-.76,1.12-1.14,2.01-1.14,1.38,0,2.2.81,2.2,2.51v3.99h-.78v-3.71c0-1.45-.55-2.11-1.61-2.11-1.16,0-1.83.79-1.83,2.55v3.27h-.78v-6.41Z"></path><path class="cls-18" d="M331.55,481.98h.94v1.39h-.94v-1.39ZM331.63,484.63h.77v6.41h-.77v-6.41Z"></path><path class="cls-18" d="M334.44,484.63h.78v1.05c.4-.76,1.12-1.14,2.01-1.14,1.38,0,2.2.81,2.2,2.51v3.99h-.78v-3.71c0-1.45-.55-2.11-1.61-2.11-1.16,0-1.83.79-1.83,2.55v3.27h-.78v-6.41Z"></path><path class="cls-18" d="M340.9,491.8s0-.1.03-.26l1.11-.88c-.57-.22-.96-.59-.96-1.26,0-.53.27-.9.72-1.2-.36-.37-.56-.87-.56-1.45,0-1.3,1.04-2.2,2.39-2.2.64,0,1.22.21,1.64.58l1.02-.86.4.49-1,.88c.19.33.3.71.3,1.14,0,1.28-.96,2.13-2.33,2.13-.53,0-.99-.12-1.37-.34-.31.17-.45.42-.45.71,0,.66.63.83,1.62.98,1.6.25,2.99.44,2.99,1.75,0,1.16-1.05,1.78-2.7,1.78-1.82,0-2.85-.7-2.85-2ZM343.76,493.2c1.09,0,1.92-.34,1.92-1.08,0-.86-1.16-.96-2.31-1.14-.31-.05-.6-.1-.89-.17l-.8.92c-.01.09-.01.11-.01.15,0,.9.79,1.33,2.09,1.33ZM343.63,488.27c.98,0,1.59-.65,1.59-1.53s-.64-1.56-1.58-1.56-1.62.65-1.62,1.55.63,1.55,1.61,1.55Z"></path><path class="cls-18" d="M351.38,481.98h2.52c1.99,0,2.97.93,2.97,2.5,0,1.25-.64,2.07-1.85,2.38l2.44,4.19h-.92l-2.34-4.07c-.21,0-.44,0-.65,0h-1.36v4.06h-.81v-9.06ZM353.82,486.27c1.38,0,2.24-.55,2.24-1.78s-.88-1.77-2.24-1.77h-1.64v3.56h1.64Z"></path><path class="cls-18" d="M358.39,487.83c0-1.92,1.25-3.29,3.05-3.29s3.04,1.37,3.04,3.29-1.27,3.3-3.04,3.3-3.05-1.37-3.05-3.3ZM361.44,490.44c1.37,0,2.26-1.04,2.26-2.61s-.9-2.61-2.26-2.61-2.28,1.05-2.28,2.61.9,2.61,2.28,2.61Z"></path><path class="cls-18" d="M365.92,487.83c0-1.92,1.25-3.29,3.05-3.29s3.04,1.37,3.04,3.29-1.27,3.3-3.04,3.3-3.05-1.37-3.05-3.3ZM368.97,490.44c1.37,0,2.26-1.04,2.26-2.61s-.9-2.61-2.26-2.61-2.28,1.05-2.28,2.61.9,2.61,2.28,2.61Z"></path><path class="cls-18" d="M373.76,484.63h.78v1.1c.38-.84,1.11-1.19,1.88-1.19.91,0,1.57.4,1.89,1.25.4-.83,1.09-1.25,2-1.25,1.55,0,2.13,1.16,2.13,2.68v3.82h-.78v-3.64c0-1.33-.39-2.18-1.52-2.18-1.02,0-1.65.77-1.65,2.26v3.57h-.78v-3.76c0-1.4-.52-2.07-1.5-2.07-1.03,0-1.67.79-1.67,2.26v3.57h-.78v-6.41Z"></path></g><g><path class="cls-18" d="M512.97,481.98h2.72c1.68,0,2.68.84,2.68,2.25,0,.94-.46,1.68-1.24,2,1.1.25,1.7,1.07,1.7,2.31,0,1.61-1.02,2.5-2.88,2.5h-2.97v-9.06ZM515.94,485.99c.98,0,1.63-.64,1.63-1.64s-.69-1.61-1.88-1.61h-1.91v3.26h2.16ZM515.89,490.3c1.42,0,2.14-.6,2.14-1.79,0-1.13-.66-1.79-1.79-1.79h-2.46v3.58h2.11Z"></path><path class="cls-18" d="M520.27,487.88c0-1.84.99-3.34,2.81-3.34,1.96,0,2.76,1.53,2.76,2.94,0,.1-.01.4-.04.55h-4.76c.03,1.51.84,2.39,2.14,2.39.82,0,1.35-.23,1.91-.83l.55.49c-.73.75-1.43,1.05-2.46,1.05-1.89,0-2.91-1.41-2.91-3.25ZM525.08,487.46c0-.08,0-.16,0-.24,0-.92-.58-2.01-2-2.01-1.23,0-1.98.98-2.07,2.26h4.06Z"></path><path class="cls-18" d="M527.23,487.83c0-1.96,1.29-3.29,2.92-3.29,1.05,0,1.87.54,2.29,1.36v-3.92h.77v9.06h-.77v-1.26c-.44.84-1.25,1.35-2.29,1.35-1.72,0-2.92-1.42-2.92-3.3ZM530.28,490.41c1.3,0,2.23-1.08,2.23-2.58s-.93-2.58-2.23-2.58-2.26,1.09-2.26,2.58.95,2.58,2.26,2.58Z"></path><path class="cls-18" d="M535.25,484.63h.78v1.09c.43-.78,1.31-1.18,2.02-1.18.33,0,.66.07.99.24l-.39.7c-.21-.1-.51-.17-.77-.17-.68,0-1.46.36-1.74,1.3-.08.27-.12.57-.12,1.27v3.15h-.78v-6.41Z"></path><path class="cls-18" d="M539.63,487.83c0-1.92,1.25-3.29,3.05-3.29s3.04,1.37,3.04,3.29-1.27,3.3-3.04,3.3-3.05-1.37-3.05-3.3ZM542.68,490.44c1.37,0,2.26-1.04,2.26-2.61s-.9-2.61-2.26-2.61-2.28,1.05-2.28,2.61.9,2.61,2.28,2.61Z"></path><path class="cls-18" d="M547.16,487.83c0-1.92,1.25-3.29,3.05-3.29s3.04,1.37,3.04,3.29-1.27,3.3-3.04,3.3-3.05-1.37-3.05-3.3ZM550.21,490.44c1.37,0,2.26-1.04,2.26-2.61s-.9-2.61-2.26-2.61-2.28,1.05-2.28,2.61.9,2.61,2.28,2.61Z"></path><path class="cls-18" d="M555,484.63h.78v1.1c.38-.84,1.11-1.19,1.88-1.19.91,0,1.57.4,1.89,1.25.4-.83,1.09-1.25,2-1.25,1.55,0,2.13,1.16,2.13,2.68v3.82h-.78v-3.64c0-1.33-.39-2.18-1.52-2.18-1.02,0-1.65.77-1.65,2.26v3.57h-.78v-3.76c0-1.4-.52-2.07-1.5-2.07-1.03,0-1.67.79-1.67,2.26v3.57h-.78v-6.41Z"></path></g><g><path class="cls-18" d="M125.16,481.98h2.72c1.68,0,2.68.84,2.68,2.25,0,.94-.46,1.68-1.24,2,1.1.25,1.7,1.07,1.7,2.31,0,1.61-1.02,2.5-2.88,2.5h-2.97v-9.06ZM128.13,485.99c.98,0,1.63-.64,1.63-1.64s-.69-1.61-1.89-1.61h-1.91v3.26h2.16ZM128.08,490.3c1.42,0,2.14-.6,2.14-1.79,0-1.13-.66-1.79-1.79-1.79h-2.46v3.58h2.11Z"></path><path class="cls-18" d="M136.98,489.84c-.43.82-1.25,1.29-2.25,1.29-1.44,0-2.31-.77-2.31-1.94,0-.69.29-1.16.72-1.44.46-.31,1.09-.42,1.77-.42h2.05v-.28c0-1.19-.62-1.83-1.82-1.83-.79,0-1.4.29-1.98,1.02l-.56-.48c.68-.84,1.53-1.21,2.59-1.21,1.63,0,2.54.89,2.54,2.51v3.99h-.72l-.04-1.2ZM134.8,490.49c1.18,0,2.16-.93,2.16-2.2v-.36h-1.95c-.51,0-1.03.08-1.37.32-.28.21-.44.51-.44.94,0,.79.6,1.3,1.6,1.3Z"></path><path class="cls-18" d="M139.57,489.71v-7.73h.77v7.59c0,.6.23.84.64.84.17,0,.38-.04.61-.12v.67c-.29.11-.6.17-.84.17-.72,0-1.18-.44-1.18-1.42Z"></path><path class="cls-18" d="M142.53,487.83c0-1.83,1.06-3.29,2.86-3.29,1.17,0,2.09.58,2.51,1.74l-.7.27c-.27-.82-.9-1.33-1.81-1.33-1.42,0-2.09,1.25-2.09,2.61s.68,2.62,2.09,2.62c.91,0,1.53-.51,1.81-1.33l.7.27c-.42,1.16-1.34,1.75-2.51,1.75-1.8,0-2.86-1.46-2.86-3.3Z"></path><path class="cls-18" d="M149.13,487.83c0-1.92,1.25-3.29,3.05-3.29s3.04,1.37,3.04,3.29-1.27,3.3-3.04,3.3-3.05-1.37-3.05-3.3ZM152.18,490.44c1.37,0,2.26-1.04,2.26-2.61s-.9-2.61-2.26-2.61-2.27,1.05-2.27,2.61.9,2.61,2.27,2.61Z"></path><path class="cls-18" d="M156.97,484.63h.78v1.05c.4-.76,1.12-1.14,2.01-1.14,1.38,0,2.2.81,2.2,2.51v3.99h-.78v-3.71c0-1.45-.55-2.11-1.61-2.11-1.16,0-1.83.79-1.83,2.55v3.27h-.78v-6.41Z"></path><path class="cls-18" d="M165.69,490.84l-2.55-6.21h.86l2.1,5.42,2.11-5.42h.85l-3.69,9.05h-.84l1.17-2.84Z"></path></g><g><path class="cls-18" d="M176.25,235.89h.81v8.33h4.18v.73h-4.99v-9.06Z"></path><path class="cls-18" d="M182.37,235.89h.94v1.39h-.94v-1.39ZM182.46,238.54h.77v6.41h-.77v-6.41Z"></path><path class="cls-18" d="M184.63,238.54h.86l2.1,5.42,2.11-5.42h.85l-2.61,6.41h-.68l-2.63-6.41Z"></path><path class="cls-18" d="M191.88,235.89h.94v1.39h-.94v-1.39ZM191.97,238.54h.77v6.41h-.77v-6.41Z"></path><path class="cls-18" d="M194.77,238.54h.78v1.05c.4-.76,1.12-1.14,2.01-1.14,1.38,0,2.2.81,2.2,2.51v3.99h-.78v-3.71c0-1.45-.55-2.11-1.61-2.11-1.16,0-1.83.79-1.83,2.55v3.27h-.78v-6.41Z"></path><path class="cls-18" d="M201.23,245.71s0-.1.03-.26l1.11-.88c-.57-.22-.96-.59-.96-1.26,0-.53.27-.9.72-1.2-.36-.37-.56-.87-.56-1.45,0-1.3,1.04-2.2,2.38-2.2.64,0,1.22.21,1.64.58l1.02-.86.4.49-1,.88c.19.33.3.71.3,1.14,0,1.28-.96,2.13-2.33,2.13-.53,0-.99-.12-1.37-.34-.31.18-.45.42-.45.72,0,.66.63.83,1.62.98,1.6.25,2.99.44,2.99,1.75,0,1.16-1.05,1.78-2.7,1.78-1.82,0-2.85-.7-2.85-2ZM204.09,247.1c1.09,0,1.92-.34,1.92-1.08,0-.86-1.16-.96-2.31-1.14-.31-.05-.6-.1-.89-.17l-.8.92c-.01.09-.01.11-.01.15,0,.9.79,1.33,2.09,1.33ZM203.96,242.18c.98,0,1.59-.65,1.59-1.53s-.64-1.56-1.58-1.56-1.62.65-1.62,1.55.63,1.55,1.61,1.55Z"></path><path class="cls-18" d="M211.71,235.89h2.52c1.99,0,2.97.93,2.97,2.5,0,1.25-.64,2.07-1.85,2.38l2.44,4.19h-.92l-2.34-4.07c-.21,0-.44,0-.65,0h-1.36v4.06h-.81v-9.06ZM214.16,240.18c1.38,0,2.24-.55,2.24-1.78s-.88-1.77-2.24-1.77h-1.64v3.56h1.64Z"></path><path class="cls-18" d="M218.72,241.74c0-1.92,1.25-3.29,3.05-3.29s3.04,1.36,3.04,3.29-1.27,3.3-3.04,3.3-3.05-1.36-3.05-3.3ZM221.77,244.35c1.37,0,2.26-1.04,2.26-2.61s-.9-2.61-2.26-2.61-2.28,1.05-2.28,2.61.9,2.61,2.28,2.61Z"></path><path class="cls-18" d="M226.25,241.74c0-1.92,1.25-3.29,3.05-3.29s3.04,1.36,3.04,3.29-1.27,3.3-3.04,3.3-3.05-1.36-3.05-3.3ZM229.3,244.35c1.37,0,2.26-1.04,2.26-2.61s-.9-2.61-2.26-2.61-2.28,1.05-2.28,2.61.9,2.61,2.28,2.61Z"></path><path class="cls-18" d="M234.09,238.54h.78v1.1c.38-.85,1.11-1.19,1.88-1.19.91,0,1.57.4,1.89,1.25.4-.83,1.09-1.25,2-1.25,1.55,0,2.13,1.16,2.13,2.68v3.82h-.78v-3.64c0-1.33-.39-2.18-1.52-2.18-1.02,0-1.65.77-1.65,2.26v3.57h-.78v-3.76c0-1.4-.52-2.07-1.5-2.07-1.03,0-1.67.79-1.67,2.26v3.57h-.78v-6.41Z"></path></g><g><path class="cls-18" d="M339.06,89.56h5.86v.73h-5.06v3.37h4.39v.73h-4.39v4.24h-.81v-9.06Z"></path><path class="cls-18" d="M346.23,97.29v-7.73h.77v7.59c0,.6.23.85.64.85.17,0,.38-.04.61-.12v.67c-.29.11-.6.17-.84.17-.72,0-1.18-.44-1.18-1.42Z"></path><path class="cls-18" d="M349.21,95.47c0-1.84.99-3.34,2.81-3.34,1.96,0,2.76,1.53,2.76,2.94,0,.1-.01.4-.04.55h-4.76c.03,1.51.84,2.39,2.14,2.39.82,0,1.35-.23,1.91-.83l.55.49c-.73.75-1.43,1.05-2.46,1.05-1.89,0-2.91-1.41-2.91-3.25ZM354.02,95.04c0-.08,0-.16,0-.24,0-.92-.58-2.02-2-2.02-1.23,0-1.98.98-2.07,2.26h4.06Z"></path><path class="cls-18" d="M358.16,95.41l-2.37-3.19h.96l1.92,2.65,1.94-2.65h.94l-2.38,3.19,2.39,3.22h-.96l-1.93-2.67-1.94,2.67h-.94l2.37-3.22Z"></path></g><g><path class="cls-18" d="M548.34,141.39h5.86v.73h-5.06v3.37h4.39v.73h-4.39v4.24h-.81v-9.06Z"></path><path class="cls-18" d="M554.94,147.24c0-1.92,1.25-3.29,3.05-3.29s3.04,1.36,3.04,3.29-1.27,3.3-3.04,3.3-3.05-1.36-3.05-3.3ZM557.98,149.85c1.37,0,2.26-1.04,2.26-2.61s-.9-2.61-2.26-2.61-2.28,1.05-2.28,2.61.9,2.61,2.28,2.61Z"></path><path class="cls-18" d="M564.5,150.25l-2.55-6.21h.86l2.1,5.42,2.11-5.42h.85l-3.69,9.05h-.84l1.17-2.84Z"></path><path class="cls-18" d="M568.83,147.29c0-1.84.99-3.34,2.81-3.34,1.96,0,2.76,1.53,2.76,2.94,0,.1-.01.4-.04.55h-4.76c.03,1.51.84,2.39,2.14,2.39.82,0,1.35-.23,1.91-.83l.55.49c-.73.75-1.43,1.05-2.46,1.05-1.89,0-2.91-1.41-2.91-3.25ZM573.65,146.87c0-.08,0-.16,0-.24,0-.92-.58-2.02-2-2.02-1.23,0-1.98.98-2.07,2.26h4.06Z"></path><path class="cls-18" d="M576.13,144.04h.78v1.09c.43-.78,1.31-1.18,2.02-1.18.33,0,.66.07.99.24l-.39.7c-.21-.1-.51-.17-.77-.17-.68,0-1.46.36-1.74,1.3-.08.27-.12.57-.12,1.27v3.15h-.78v-6.41Z"></path></g><g><path class="cls-18" d="M678.15,565.9h2.72c1.68,0,2.68.84,2.68,2.25,0,.94-.46,1.68-1.24,2,1.1.25,1.7,1.07,1.7,2.31,0,1.61-1.02,2.5-2.88,2.5h-2.97v-9.06ZM681.12,569.91c.98,0,1.63-.64,1.63-1.64s-.69-1.61-1.88-1.61h-1.91v3.26h2.16ZM681.07,574.22c1.42,0,2.14-.6,2.14-1.79,0-1.13-.66-1.79-1.79-1.79h-2.46v3.58h2.11Z"></path><path class="cls-18" d="M689.98,573.76c-.43.82-1.25,1.29-2.25,1.29-1.44,0-2.31-.77-2.31-1.94,0-.69.29-1.16.72-1.44.46-.31,1.09-.42,1.77-.42h2.05v-.28c0-1.19-.62-1.83-1.82-1.83-.79,0-1.4.29-1.98,1.02l-.56-.48c.68-.84,1.53-1.21,2.59-1.21,1.63,0,2.54.89,2.54,2.51v3.99h-.71l-.04-1.2ZM687.81,574.41c1.18,0,2.17-.93,2.17-2.2v-.36h-1.95c-.51,0-1.03.08-1.37.32-.28.21-.44.51-.44.94,0,.79.6,1.3,1.6,1.3Z"></path><path class="cls-18" d="M692.57,573.63v-7.73h.77v7.59c0,.6.23.84.64.84.17,0,.38-.04.61-.12v.67c-.29.11-.6.17-.84.17-.72,0-1.18-.44-1.18-1.42Z"></path><path class="cls-18" d="M695.53,571.75c0-1.83,1.06-3.29,2.86-3.29,1.17,0,2.09.58,2.51,1.74l-.7.27c-.27-.82-.9-1.33-1.81-1.33-1.42,0-2.09,1.25-2.09,2.61s.68,2.62,2.09,2.62c.91,0,1.53-.51,1.81-1.33l.7.27c-.42,1.16-1.34,1.75-2.51,1.75-1.8,0-2.86-1.46-2.86-3.3Z"></path><path class="cls-18" d="M702.14,571.75c0-1.92,1.25-3.29,3.05-3.29s3.04,1.37,3.04,3.29-1.27,3.3-3.04,3.3-3.05-1.37-3.05-3.3ZM705.19,574.36c1.37,0,2.26-1.04,2.26-2.61s-.9-2.61-2.26-2.61-2.28,1.05-2.28,2.61.9,2.61,2.28,2.61Z"></path><path class="cls-18" d="M709.98,568.56h.78v1.05c.4-.76,1.12-1.14,2.01-1.14,1.38,0,2.2.81,2.2,2.51v3.99h-.78v-3.71c0-1.45-.55-2.11-1.61-2.11-1.16,0-1.83.79-1.83,2.55v3.27h-.78v-6.41Z"></path><path class="cls-18" d="M718.69,574.76l-2.55-6.21h.86l2.1,5.42,2.11-5.42h.85l-3.69,9.05h-.84l1.17-2.84Z"></path></g><g><path class="cls-18" d="M345.05,381.19h.81v4.86l4.65-4.86h1.09l-3.45,3.54,3.48,5.52h-.95l-3.11-4.93-1.71,1.75v3.17h-.81v-9.06Z"></path><path class="cls-18" d="M352.78,381.19h.94v1.39h-.94v-1.39ZM352.86,383.84h.77v6.41h-.77v-6.41Z"></path><path class="cls-18" d="M356.43,388.77v-4.31h-1.42v-.62h1.42v-1.85l.79-.46v2.31h1.54v.62h-1.54v4.12c0,.71.22,1.11.81,1.11.19,0,.46-.04.73-.12v.62c-.32.1-.64.16-.92.16-.85,0-1.4-.49-1.4-1.57Z"></path><path class="cls-18" d="M359.79,387.04c0-1.83,1.06-3.29,2.86-3.29,1.17,0,2.09.58,2.51,1.74l-.7.27c-.27-.82-.9-1.33-1.81-1.33-1.42,0-2.09,1.25-2.09,2.61s.68,2.62,2.09,2.62c.91,0,1.53-.51,1.81-1.33l.7.27c-.42,1.16-1.34,1.75-2.51,1.75-1.8,0-2.86-1.46-2.86-3.3Z"></path><path class="cls-18" d="M366.79,381.19h.78v3.69c.4-.75,1.1-1.13,2.01-1.13,1.4,0,2.2.85,2.2,2.51v3.99h-.78v-3.71c0-1.43-.53-2.11-1.61-2.11-1.18,0-1.83.83-1.83,2.55v3.27h-.78v-9.06Z"></path><path class="cls-18" d="M373.42,387.09c0-1.84.99-3.34,2.81-3.34,1.96,0,2.76,1.53,2.76,2.94,0,.1-.01.4-.04.55h-4.76c.03,1.51.84,2.39,2.14,2.39.82,0,1.35-.23,1.91-.83l.55.49c-.73.75-1.43,1.05-2.46,1.05-1.89,0-2.91-1.41-2.91-3.25ZM378.23,386.67c0-.08,0-.16,0-.24,0-.92-.58-2.01-2-2.01-1.23,0-1.98.98-2.07,2.26h4.06Z"></path><path class="cls-18" d="M380.72,383.84h.78v1.05c.4-.76,1.12-1.14,2.01-1.14,1.38,0,2.2.81,2.2,2.51v3.99h-.78v-3.71c0-1.45-.55-2.11-1.61-2.11-1.16,0-1.83.79-1.83,2.55v3.27h-.78v-6.41Z"></path></g><g><path class="cls-18" d="M717.64,267.93h.65l1.71,6.06,1.76-5.7h.63l1.76,5.7,1.7-6.06h.65l-2.01,6.98h-.63l-1.79-5.71-1.79,5.71h-.64l-2.01-6.98Z"></path><path class="cls-18" d="M727.64,267.93h.62v6.98h-.62v-6.98Z"></path><path class="cls-18" d="M729.69,271.41c0-2.16,1.26-3.58,3.16-3.58,1.35,0,2.39.71,2.84,1.89l-.58.22c-.38-.96-1.17-1.52-2.26-1.52-1.55,0-2.54,1.17-2.54,2.99s.99,3,2.54,3c1.09,0,1.89-.56,2.26-1.52l.58.22c-.45,1.18-1.49,1.9-2.84,1.9-1.89,0-3.16-1.42-3.16-3.59Z"></path></g><path class="cls-18" d="M420.88,247.16c0-2.17,1.27-3.59,3.16-3.59s3.18,1.42,3.18,3.59-1.27,3.58-3.18,3.58-3.16-1.42-3.16-3.58ZM424.04,250.15c1.57,0,2.55-1.16,2.55-2.99s-.99-3-2.55-3-2.54,1.15-2.54,3,.99,2.99,2.54,2.99Z"></path><path class="cls-18" d="M430.92,242.66h.48l-3.55,9.08h-.48l3.55-9.08Z"></path><path class="cls-18" d="M432.62,243.66h.93l2.35,5.66,2.35-5.66h.92v6.98h-.62v-6.16l-2.35,5.59h-.61l-2.36-5.59v6.16h-.62v-6.98Z"></path><path class="cls-18" d="M428.28,211.71h1.94c1.46,0,2.29.69,2.29,1.95s-.83,1.96-2.29,1.96h-1.33v3.07h-.62v-6.98ZM430.16,215.06c1.09,0,1.73-.47,1.73-1.4s-.62-1.39-1.73-1.39h-1.27v2.79h1.27Z"></path><path class="cls-18" d="M569.39,29.1h.65l1.71,6.06,1.76-5.7h.63l1.76,5.7,1.7-6.06h.65l-2.01,6.98h-.63l-1.79-5.71-1.79,5.71h-.64l-2.01-6.98Z"></path><path class="cls-18" d="M581.67,28.1h.48l-3.55,9.08h-.47l3.55-9.08Z"></path><path class="cls-18" d="M583.37,29.1h1.87c2.26,0,3.56,1.29,3.56,3.54s-1.27,3.43-3.57,3.43h-1.86v-6.98ZM585.18,35.5c1.92,0,2.99-.89,2.99-2.88s-1.08-2.95-2.94-2.95h-1.24v5.83h1.19Z"></path><g><path class="cls-18" d="M422.34,382.23h1.94c1.53,0,2.29.72,2.29,1.92,0,.97-.5,1.6-1.43,1.83l1.88,3.22h-.71l-1.8-3.13c-.16,0-.34,0-.5,0h-1.05v3.13h-.62v-6.98ZM424.22,385.53c1.06,0,1.73-.42,1.73-1.37s-.68-1.37-1.73-1.37h-1.26v2.74h1.26Z"></path><path class="cls-18" d="M428.19,382.23h4.56v.56h-3.94v2.59h3.53v.56h-3.53v2.7h3.94v.56h-4.56v-6.98Z"></path><path class="cls-18" d="M434.05,382.23h4.51v.56h-3.89v2.59h3.38v.56h-3.38v3.26h-.62v-6.98Z"></path></g><g><path class="cls-18" d="M498.24,386.84h.65l1.71,6.06,1.76-5.7h.63l1.76,5.7,1.7-6.06h.65l-2.01,6.98h-.63l-1.79-5.71-1.79,5.71h-.64l-2.01-6.98Z"></path><path class="cls-18" d="M508.25,386.84h.62v6.98h-.62v-6.98Z"></path><path class="cls-18" d="M510.3,390.32c0-2.16,1.26-3.58,3.16-3.58,1.35,0,2.39.71,2.84,1.89l-.58.22c-.38-.96-1.17-1.52-2.26-1.52-1.55,0-2.54,1.17-2.54,2.99s.99,3,2.54,3c1.09,0,1.89-.56,2.26-1.52l.58.21c-.45,1.18-1.49,1.9-2.84,1.9-1.89,0-3.16-1.42-3.16-3.59Z"></path></g><g><path class="cls-18" d="M343.68,232.83h.65l1.71,6.06,1.76-5.7h.63l1.76,5.7,1.7-6.06h.65l-2.01,6.98h-.63l-1.79-5.71-1.79,5.71h-.64l-2.01-6.98Z"></path><path class="cls-18" d="M353.68,232.83h4.51v.56h-3.89v2.59h3.38v.56h-3.38v3.26h-.62v-6.98Z"></path></g><g><path class="cls-18" d="M343.75,335.77h1.87c2.26,0,3.56,1.29,3.56,3.54s-1.27,3.43-3.57,3.43h-1.86v-6.98ZM345.55,342.17c1.92,0,2.99-.89,2.99-2.88s-1.08-2.95-2.94-2.95h-1.24v5.83h1.19Z"></path><path class="cls-18" d="M349.84,335.77h.65l1.71,6.06,1.76-5.7h.63l1.76,5.7,1.7-6.06h.65l-2.01,6.98h-.63l-1.79-5.71-1.79,5.71h-.64l-2.01-6.98Z"></path></g><path class="cls-18" d="M539.65,37.1h.62v6.42h3.22v.56h-3.84v-6.98Z"></path><g><path class="cls-22" d="M0,559.96h3.61v.45H.5v2.07h2.7v.45H.5v2.61h-.5v-5.57Z"></path><path class="cls-22" d="M4.34,559.96h.58v.86h-.58v-.86ZM4.4,561.59h.47v3.94h-.47v-3.94Z"></path><path class="cls-22" d="M6.2,561.59h.48v.64c.25-.47.69-.7,1.24-.7.85,0,1.36.5,1.36,1.54v2.46h-.48v-2.28c0-.89-.34-1.3-.99-1.3-.71,0-1.13.48-1.13,1.57v2.01h-.48v-3.94Z"></path><path class="cls-22" d="M12.78,559.96h3.64v.45h-3.15v2.07h2.82v.45h-2.82v2.16h3.15v.45h-3.64v-5.57Z"></path><path class="cls-22" d="M18.58,563.56l-1.46-1.96h.59l1.18,1.63,1.2-1.63h.58l-1.46,1.96,1.47,1.98h-.59l-1.19-1.64-1.19,1.64h-.58l1.46-1.98Z"></path><path class="cls-22" d="M22.1,564.62v-2.65h-.88v-.38h.88v-1.14l.48-.28v1.42h.95v.38h-.95v2.54c0,.44.14.68.5.68.12,0,.28-.02.45-.08v.38c-.2.06-.4.1-.57.1-.52,0-.86-.3-.86-.97Z"></path><path class="cls-22" d="M24.25,563.59c0-1.13.61-2.05,1.73-2.05,1.21,0,1.7.94,1.7,1.81,0,.06,0,.24-.02.34h-2.93c.02.93.52,1.47,1.32,1.47.5,0,.83-.14,1.18-.51l.34.3c-.45.46-.88.65-1.52.65-1.16,0-1.79-.87-1.79-2ZM27.21,563.33s0-.1,0-.15c0-.57-.36-1.24-1.23-1.24-.76,0-1.22.6-1.27,1.39h2.49Z"></path><path class="cls-22" d="M28.82,561.59h.48v.64c.25-.47.69-.7,1.24-.7.85,0,1.36.5,1.36,1.54v2.46h-.48v-2.28c0-.89-.34-1.3-.99-1.3-.71,0-1.13.48-1.13,1.57v2.01h-.48v-3.94Z"></path><path class="cls-22" d="M32.78,564.69l.34-.28c.2.46.66.77,1.26.77.57,0,.95-.27.95-.72,0-.55-.53-.68-1.1-.82-.66-.16-1.23-.38-1.23-1.06,0-.62.53-1.05,1.3-1.05.6,0,1.1.26,1.37.76l-.37.21c-.21-.38-.57-.58-1.02-.58-.48,0-.84.24-.84.62,0,.4.36.54.93.68.67.16,1.44.34,1.44,1.2,0,.71-.56,1.17-1.42,1.17-.79,0-1.35-.4-1.6-.9Z"></path><path class="cls-22" d="M36.88,559.96h.58v.86h-.58v-.86ZM36.93,561.59h.47v3.94h-.47v-3.94Z"></path><path class="cls-22" d="M38.55,563.56c0-1.18.77-2.02,1.88-2.02s1.87.84,1.87,2.02-.78,2.03-1.87,2.03-1.88-.84-1.88-2.03ZM40.43,565.16c.84,0,1.39-.64,1.39-1.6s-.55-1.6-1.39-1.6-1.4.64-1.4,1.6.56,1.6,1.4,1.6Z"></path><path class="cls-22" d="M43.45,561.59h.48v.64c.25-.47.69-.7,1.24-.7.85,0,1.36.5,1.36,1.54v2.46h-.48v-2.28c0-.89-.34-1.3-.99-1.3-.71,0-1.13.48-1.13,1.57v2.01h-.48v-3.94Z"></path><path class="cls-22" d="M47.85,561.77h.58v.86h-.58v-.86ZM47.85,564.68h.58v.85h-.58v-.85Z"></path></g><g><path class="cls-22" d="M33.4,570.85h-1.47v-.39h1.03c.29,0,.44-.1.44-.41v-.49h.48v5.57h-.48v-4.28Z"></path><path class="cls-22" d="M39.2,570.01h-3.43v-.45h3.98v.4l-2.75,5.18h-.53l2.74-5.12Z"></path><path class="cls-22" d="M40.59,572.34c0-1.33.3-2.84,1.72-2.84s1.75,1.39,1.75,2.85-.4,2.84-1.72,2.84c-1.44,0-1.75-1.51-1.75-2.85ZM42.35,574.73c.88,0,1.23-1,1.23-2.36s-.36-2.41-1.26-2.41c-.96,0-1.23,1.1-1.23,2.39s.28,2.37,1.26,2.37Z"></path><path class="cls-22" d="M48.02,571.17c0-.73-.43-1.2-1.19-1.2-.84,0-1.26.58-1.27,1.45l-.47-.03c0-1.07.62-1.88,1.75-1.88.99,0,1.64.65,1.64,1.65,0,1.49-1.5,2.65-2.81,3.53h3.04v.45h-3.64v-.44c1.02-.82,2.94-2.02,2.94-3.53Z"></path></g><g><path class="cls-22" d="M13.16,580.45h-1.47v-.39h1.03c.29,0,.44-.1.44-.41v-.49h.48v5.57h-.48v-4.28Z"></path><path class="cls-22" d="M16.73,581.37c.23-.14.5-.22.76-.22,1.01,0,1.81.81,1.81,1.81s-.84,1.83-1.87,1.83-1.88-.79-1.88-1.82c0-.37.12-.7.29-1l1.67-2.81h.54l-1.34,2.21ZM17.43,584.34c.76,0,1.39-.6,1.39-1.38s-.62-1.38-1.39-1.38-1.39.59-1.39,1.38.62,1.38,1.39,1.38Z"></path><path class="cls-22" d="M20.35,581.93c0-1.33.3-2.84,1.72-2.84s1.75,1.39,1.75,2.85-.4,2.84-1.72,2.84c-1.44,0-1.75-1.51-1.75-2.85ZM22.11,584.33c.88,0,1.23-1,1.23-2.36s-.36-2.41-1.26-2.41c-.96,0-1.23,1.1-1.23,2.39s.28,2.37,1.26,2.37Z"></path><path class="cls-22" d="M27.78,580.77c0-.73-.43-1.2-1.19-1.2-.84,0-1.26.58-1.27,1.45l-.47-.03c0-1.07.62-1.88,1.75-1.88.99,0,1.64.65,1.64,1.65,0,1.49-1.5,2.65-2.81,3.53h3.04v.45h-3.64v-.44c1.02-.82,2.94-2.02,2.94-3.53Z"></path><path class="cls-22" d="M30.06,583.61h.53l-1.06,2.37h-.34l.87-2.37Z"></path><path class="cls-22" d="M33.39,580.45h-1.47v-.39h1.03c.29,0,.44-.1.44-.41v-.49h.48v5.57h-.48v-4.28Z"></path><path class="cls-22" d="M35.91,583.15c0-.7.41-1.25,1.08-1.45-.46-.18-.76-.62-.76-1.19,0-.9.78-1.41,1.54-1.41.86,0,1.53.57,1.53,1.45,0,.55-.3.97-.77,1.15.67.21,1.07.76,1.07,1.45,0,1.09-.9,1.63-1.84,1.63s-1.85-.55-1.85-1.63ZM37.76,584.34c.72,0,1.36-.41,1.36-1.22,0-.73-.56-1.21-1.36-1.21s-1.38.48-1.38,1.21c0,.82.66,1.22,1.38,1.22ZM37.78,581.56c.61,0,1.05-.4,1.05-.98,0-.61-.42-1.03-1.06-1.03-.56,0-1.06.36-1.06.98s.44,1.02,1.07,1.02Z"></path><path class="cls-22" d="M40.58,581.93c0-1.33.3-2.84,1.72-2.84s1.75,1.39,1.75,2.85-.4,2.84-1.72,2.84c-1.44,0-1.75-1.51-1.75-2.85ZM42.34,584.33c.88,0,1.23-1,1.23-2.36s-.36-2.41-1.26-2.41c-.96,0-1.23,1.1-1.23,2.39s.28,2.37,1.26,2.37Z"></path><path class="cls-22" d="M48.01,580.77c0-.73-.43-1.2-1.19-1.2-.84,0-1.26.58-1.27,1.45l-.47-.03c0-1.07.62-1.88,1.75-1.88.99,0,1.64.65,1.64,1.65,0,1.49-1.5,2.65-2.81,3.53h3.04v.45h-3.64v-.44c1.02-.82,2.94-2.02,2.94-3.53Z"></path></g><g><path class="cls-22" d="M33.4,590.05h-1.47v-.39h1.03c.29,0,.44-.1.44-.41v-.49h.48v5.57h-.48v-4.28Z"></path><path class="cls-22" d="M35.89,592.81l.47-.08c.14.7.66,1.21,1.4,1.21.85,0,1.41-.68,1.41-1.48s-.52-1.38-1.34-1.38c-.51,0-.95.24-1.26.69l-.5-.15.5-2.86h2.84v.45h-2.45l-.34,1.96c.38-.39.82-.55,1.27-.55,1.04,0,1.78.82,1.78,1.83s-.81,1.94-1.91,1.94c-.94,0-1.69-.64-1.88-1.58Z"></path><path class="cls-22" d="M40.59,591.54c0-1.33.3-2.84,1.72-2.84s1.75,1.39,1.75,2.85-.4,2.84-1.72,2.84c-1.44,0-1.75-1.51-1.75-2.85ZM42.35,593.93c.88,0,1.23-1,1.23-2.36s-.36-2.41-1.26-2.41c-.96,0-1.23,1.1-1.23,2.39s.28,2.37,1.26,2.37Z"></path><path class="cls-22" d="M48.02,590.37c0-.73-.43-1.2-1.19-1.2-.84,0-1.26.58-1.27,1.45l-.47-.03c0-1.07.62-1.88,1.75-1.88.99,0,1.64.65,1.64,1.65,0,1.49-1.5,2.65-2.81,3.53h3.04v.45h-3.64v-.44c1.02-.82,2.94-2.02,2.94-3.53Z"></path></g><g><path class="cls-22" d="M33.4,599.65h-1.47v-.39h1.03c.29,0,.44-.1.44-.41v-.49h.48v5.57h-.48v-4.28Z"></path><path class="cls-22" d="M38.47,602.6h-2.77v-.4l2.79-3.84h.46v3.79h.91v.45h-.91v1.33h-.48v-1.33ZM38.47,602.15v-3.15l-2.25,3.15h2.25Z"></path><path class="cls-22" d="M40.59,601.13c0-1.33.3-2.84,1.72-2.84s1.75,1.39,1.75,2.85-.4,2.84-1.72,2.84c-1.44,0-1.75-1.51-1.75-2.85ZM42.35,603.53c.88,0,1.23-1,1.23-2.36s-.36-2.41-1.26-2.41c-.96,0-1.23,1.1-1.23,2.39s.28,2.37,1.26,2.37Z"></path><path class="cls-22" d="M48.02,599.97c0-.73-.43-1.2-1.19-1.2-.84,0-1.26.58-1.27,1.45l-.47-.03c0-1.07.62-1.88,1.75-1.88.99,0,1.64.65,1.64,1.65,0,1.49-1.5,2.65-2.81,3.53h3.04v.45h-3.64v-.44c1.02-.82,2.94-2.02,2.94-3.53Z"></path></g><g><path class="cls-22" d="M33.4,609.25h-1.47v-.39h1.03c.29,0,.44-.1.44-.41v-.49h.48v5.57h-.48v-4.28Z"></path><path class="cls-22" d="M35.8,611.88l.48-.02c0,.78.58,1.27,1.48,1.27s1.44-.47,1.44-1.2c0-.9-.86-1.14-1.78-1.14v-.38c.7,0,1.48-.21,1.48-1.03,0-.6-.48-1.01-1.16-1.01-.74,0-1.19.44-1.2,1.09l-.47-.02c0-.9.7-1.52,1.68-1.52s1.62.6,1.62,1.42c0,.74-.55,1.08-1.1,1.22.67.11,1.4.5,1.4,1.39,0,.98-.78,1.66-1.93,1.66s-1.94-.68-1.94-1.71Z"></path><path class="cls-22" d="M40.59,610.74c0-1.33.3-2.84,1.72-2.84s1.75,1.39,1.75,2.85-.4,2.84-1.72,2.84c-1.44,0-1.75-1.51-1.75-2.85ZM42.35,613.13c.88,0,1.23-1,1.23-2.36s-.36-2.41-1.26-2.41c-.96,0-1.23,1.1-1.23,2.39s.28,2.37,1.26,2.37Z"></path><path class="cls-22" d="M48.02,609.57c0-.73-.43-1.2-1.19-1.2-.84,0-1.26.58-1.27,1.45l-.47-.03c0-1.07.62-1.88,1.75-1.88.99,0,1.64.65,1.64,1.65,0,1.49-1.5,2.65-2.81,3.53h3.04v.45h-3.64v-.44c1.02-.82,2.94-2.02,2.94-3.53Z"></path></g><g><path class="cls-22" d="M754.56,649.98h3.61v.45h-3.11v2.07h2.7v.45h-2.7v2.61h-.5v-5.57Z"></path><path class="cls-22" d="M758.9,649.98h.58v.86h-.58v-.86ZM758.95,651.62h.47v3.94h-.47v-3.94Z"></path><path class="cls-22" d="M760.76,651.62h.48v.64c.25-.47.69-.7,1.24-.7.85,0,1.36.5,1.36,1.54v2.46h-.48v-2.28c0-.89-.34-1.3-.99-1.3-.71,0-1.13.48-1.13,1.57v2.01h-.48v-3.94Z"></path><path class="cls-22" d="M767.32,649.98h3.64v.45h-3.15v2.07h2.82v.45h-2.82v2.16h3.15v.45h-3.64v-5.57Z"></path><path class="cls-22" d="M773.13,653.58l-1.46-1.96h.59l1.18,1.63,1.2-1.63h.58l-1.46,1.96,1.47,1.98h-.59l-1.19-1.64-1.19,1.64h-.58l1.46-1.98Z"></path><path class="cls-22" d="M776.65,654.65v-2.65h-.88v-.38h.88v-1.14l.48-.28v1.42h.95v.38h-.95v2.54c0,.44.14.68.5.68.12,0,.28-.02.45-.08v.38c-.2.06-.4.1-.57.1-.52,0-.86-.3-.86-.97Z"></path><path class="cls-22" d="M778.8,653.61c0-1.13.61-2.05,1.73-2.05,1.21,0,1.7.94,1.7,1.81,0,.06,0,.24-.02.34h-2.93c.02.93.52,1.47,1.32,1.47.5,0,.83-.14,1.17-.51l.34.3c-.45.46-.88.65-1.51.65-1.16,0-1.79-.87-1.79-2ZM781.76,653.35s0-.1,0-.15c0-.57-.36-1.24-1.23-1.24-.75,0-1.22.6-1.27,1.39h2.49Z"></path><path class="cls-22" d="M783.37,651.62h.48v.64c.25-.47.69-.7,1.24-.7.85,0,1.36.5,1.36,1.54v2.46h-.48v-2.28c0-.89-.34-1.3-.99-1.3-.71,0-1.13.48-1.13,1.57v2.01h-.48v-3.94Z"></path><path class="cls-22" d="M787.32,654.71l.34-.28c.2.46.66.77,1.26.77.57,0,.95-.27.95-.72,0-.55-.53-.68-1.1-.82-.66-.16-1.23-.38-1.23-1.06,0-.62.53-1.05,1.29-1.05.6,0,1.1.26,1.37.76l-.37.21c-.21-.38-.57-.58-1.01-.58-.48,0-.84.24-.84.62,0,.4.36.54.93.68.67.16,1.43.34,1.43,1.2,0,.71-.56,1.17-1.42,1.17-.79,0-1.35-.4-1.6-.9Z"></path><path class="cls-22" d="M791.43,649.98h.58v.86h-.58v-.86ZM791.48,651.62h.47v3.94h-.47v-3.94Z"></path><path class="cls-22" d="M793.1,653.58c0-1.18.77-2.02,1.88-2.02s1.87.84,1.87,2.02-.78,2.03-1.87,2.03-1.88-.84-1.88-2.03ZM794.97,655.18c.84,0,1.39-.64,1.39-1.6s-.55-1.6-1.39-1.6-1.4.64-1.4,1.6.56,1.6,1.4,1.6Z"></path><path class="cls-22" d="M797.99,651.62h.48v.64c.25-.47.69-.7,1.24-.7.85,0,1.36.5,1.36,1.54v2.46h-.48v-2.28c0-.89-.34-1.3-.99-1.3-.71,0-1.13.48-1.13,1.57v2.01h-.48v-3.94Z"></path><path class="cls-22" d="M802.4,651.79h.58v.86h-.58v-.86ZM802.4,654.71h.58v.85h-.58v-.85Z"></path></g><g><path class="cls-22" d="M756.29,660.88h-1.47v-.39h1.03c.29,0,.44-.1.44-.41v-.49h.48v5.57h-.48v-4.28Z"></path><path class="cls-22" d="M759.85,661.79c.23-.14.5-.22.76-.22,1.01,0,1.81.81,1.81,1.81s-.84,1.83-1.87,1.83-1.88-.79-1.88-1.82c0-.37.12-.7.29-1l1.67-2.81h.54l-1.34,2.21ZM760.56,664.76c.76,0,1.39-.6,1.39-1.38s-.62-1.38-1.39-1.38-1.39.59-1.39,1.38.62,1.38,1.39,1.38Z"></path><path class="cls-22" d="M763.49,662.36c0-1.33.3-2.84,1.72-2.84s1.75,1.39,1.75,2.85-.4,2.84-1.72,2.84c-1.44,0-1.75-1.51-1.75-2.85ZM765.24,664.75c.88,0,1.23-1,1.23-2.36s-.36-2.41-1.26-2.41c-.96,0-1.23,1.1-1.23,2.39s.28,2.37,1.26,2.37Z"></path><path class="cls-22" d="M770.91,661.2c0-.73-.43-1.2-1.19-1.2-.83,0-1.26.58-1.27,1.45l-.47-.03c0-1.07.62-1.88,1.76-1.88.99,0,1.64.65,1.64,1.65,0,1.49-1.5,2.65-2.81,3.53h3.04v.45h-3.64v-.44c1.02-.82,2.94-2.02,2.94-3.53Z"></path><path class="cls-22" d="M773.17,664.03h.53l-1.06,2.37h-.34l.87-2.37Z"></path><path class="cls-22" d="M776.51,660.88h-1.47v-.39h1.03c.29,0,.44-.1.44-.41v-.49h.48v5.57h-.48v-4.28Z"></path><path class="cls-22" d="M782.3,660.03h-3.43v-.45h3.98v.4l-2.75,5.18h-.53l2.74-5.12Z"></path><path class="cls-22" d="M783.7,662.36c0-1.33.3-2.84,1.72-2.84s1.75,1.39,1.75,2.85-.4,2.84-1.72,2.84c-1.44,0-1.75-1.51-1.75-2.85ZM785.46,664.75c.88,0,1.23-1,1.23-2.36s-.36-2.41-1.26-2.41c-.96,0-1.23,1.1-1.23,2.39s.28,2.37,1.26,2.37Z"></path><path class="cls-22" d="M791.12,661.2c0-.73-.43-1.2-1.19-1.2-.83,0-1.26.58-1.27,1.45l-.47-.03c0-1.07.62-1.88,1.76-1.88.99,0,1.64.65,1.64,1.65,0,1.49-1.5,2.65-2.81,3.53h3.04v.45h-3.64v-.44c1.02-.82,2.94-2.02,2.94-3.53Z"></path></g><g><path class="cls-22" d="M756.29,670.48h-1.47v-.39h1.03c.29,0,.44-.1.44-.41v-.49h.48v5.57h-.48v-4.28Z"></path><path class="cls-22" d="M758.77,673.23l.47-.08c.14.7.66,1.21,1.4,1.21.85,0,1.41-.68,1.41-1.48s-.52-1.38-1.34-1.38c-.51,0-.95.24-1.26.69l-.5-.15.5-2.86h2.84v.45h-2.45l-.34,1.96c.38-.39.82-.55,1.27-.55,1.04,0,1.78.82,1.78,1.83s-.81,1.94-1.91,1.94c-.94,0-1.7-.64-1.88-1.58Z"></path><path class="cls-22" d="M763.49,671.96c0-1.33.3-2.84,1.72-2.84s1.75,1.39,1.75,2.85-.4,2.84-1.72,2.84c-1.44,0-1.75-1.51-1.75-2.85ZM765.24,674.35c.88,0,1.23-1,1.23-2.36s-.36-2.41-1.26-2.41c-.96,0-1.23,1.1-1.23,2.39s.28,2.37,1.26,2.37Z"></path><path class="cls-22" d="M770.91,670.79c0-.73-.43-1.2-1.19-1.2-.83,0-1.26.58-1.27,1.45l-.47-.03c0-1.07.62-1.88,1.76-1.88.99,0,1.64.65,1.64,1.65,0,1.49-1.5,2.65-2.81,3.53h3.04v.45h-3.64v-.44c1.02-.82,2.94-2.02,2.94-3.53Z"></path></g><g><path class="cls-22" d="M756.29,680.08h-1.47v-.39h1.03c.29,0,.44-.1.44-.41v-.49h.48v5.57h-.48v-4.28Z"></path><path class="cls-22" d="M761.36,683.02h-2.77v-.4l2.79-3.84h.46v3.79h.91v.45h-.91v1.33h-.48v-1.33ZM761.36,682.57v-3.15l-2.25,3.15h2.25Z"></path><path class="cls-22" d="M763.49,681.56c0-1.33.3-2.84,1.72-2.84s1.75,1.39,1.75,2.85-.4,2.84-1.72,2.84c-1.44,0-1.75-1.51-1.75-2.85ZM765.24,683.95c.88,0,1.23-1,1.23-2.36s-.36-2.41-1.26-2.41c-.96,0-1.23,1.1-1.23,2.39s.28,2.37,1.26,2.37Z"></path><path class="cls-22" d="M770.91,680.4c0-.73-.43-1.2-1.19-1.2-.83,0-1.26.58-1.27,1.45l-.47-.03c0-1.07.62-1.88,1.76-1.88.99,0,1.64.65,1.64,1.65,0,1.49-1.5,2.65-2.81,3.53h3.04v.45h-3.64v-.44c1.02-.82,2.94-2.02,2.94-3.53Z"></path></g><g><path class="cls-22" d="M756.29,689.68h-1.47v-.39h1.03c.29,0,.44-.1.44-.41v-.49h.48v5.57h-.48v-4.28Z"></path><path class="cls-22" d="M758.81,692.38c0-.7.41-1.25,1.08-1.45-.46-.18-.76-.62-.76-1.19,0-.9.78-1.41,1.54-1.41.86,0,1.53.57,1.53,1.45,0,.55-.3.97-.77,1.15.67.21,1.07.76,1.07,1.45,0,1.09-.9,1.63-1.84,1.63s-1.85-.55-1.85-1.63ZM760.66,693.56c.72,0,1.36-.41,1.36-1.22,0-.73-.56-1.21-1.36-1.21s-1.38.48-1.38,1.21c0,.82.66,1.22,1.38,1.22ZM760.68,690.79c.61,0,1.05-.4,1.05-.98,0-.61-.42-1.03-1.06-1.03-.56,0-1.06.36-1.06.98s.44,1.02,1.07,1.02Z"></path><path class="cls-22" d="M763.49,691.16c0-1.33.3-2.84,1.72-2.84s1.75,1.39,1.75,2.85-.4,2.84-1.72,2.84c-1.44,0-1.75-1.51-1.75-2.85ZM765.24,693.55c.88,0,1.23-1,1.23-2.36s-.36-2.41-1.26-2.41c-.96,0-1.23,1.1-1.23,2.39s.28,2.37,1.26,2.37Z"></path><path class="cls-22" d="M770.91,690c0-.73-.43-1.2-1.19-1.2-.83,0-1.26.58-1.27,1.45l-.47-.03c0-1.07.62-1.88,1.76-1.88.99,0,1.64.65,1.64,1.65,0,1.49-1.5,2.65-2.81,3.53h3.04v.45h-3.64v-.44c1.02-.82,2.94-2.02,2.94-3.53Z"></path></g><g><path class="cls-22" d="M756.29,699.28h-1.47v-.39h1.03c.29,0,.44-.1.44-.41v-.49h.48v5.57h-.48v-4.28Z"></path><path class="cls-22" d="M758.68,701.91l.48-.02c0,.78.58,1.27,1.48,1.27s1.44-.47,1.44-1.2c0-.9-.86-1.14-1.78-1.14v-.38c.7,0,1.48-.21,1.48-1.03,0-.6-.48-1.01-1.16-1.01-.74,0-1.19.44-1.2,1.09l-.47-.02c0-.9.7-1.52,1.68-1.52s1.62.6,1.62,1.42c0,.74-.55,1.08-1.1,1.22.67.11,1.4.5,1.4,1.39,0,.98-.78,1.65-1.93,1.65s-1.94-.68-1.94-1.71Z"></path><path class="cls-22" d="M763.49,700.76c0-1.33.3-2.84,1.72-2.84s1.75,1.39,1.75,2.85-.4,2.84-1.72,2.84c-1.44,0-1.75-1.51-1.75-2.85ZM765.24,703.15c.88,0,1.23-1,1.23-2.36s-.36-2.41-1.26-2.41c-.96,0-1.23,1.1-1.23,2.39s.28,2.37,1.26,2.37Z"></path><path class="cls-22" d="M770.91,699.59c0-.73-.43-1.2-1.19-1.2-.83,0-1.26.58-1.27,1.45l-.47-.03c0-1.07.62-1.88,1.76-1.88.99,0,1.64.65,1.64,1.65,0,1.49-1.5,2.65-2.81,3.53h3.04v.45h-3.64v-.44c1.02-.82,2.94-2.02,2.94-3.53Z"></path></g><polyline class="cls-1" points="57.14 571.74 77.28 571.74 113.37 547.66"></polyline><path class="cls-21" d="M116.73,545.42l-5.86,1.43s2.51.81,2.29,3.43l3.57-4.87Z"></path><polyline class="cls-1" points="745.87 661.77 725.72 661.77 716.07 634.23"></polyline><path class="cls-21" d="M714.73,630.42l3.82,4.67s-2.49-.86-3.9,1.37l.07-6.04Z"></path><polyline class="cls-1" points="57.14 581.42 76.99 581.42 115.64 549.02"></polyline><path class="cls-21" d="M118.73,546.42l-5.67,2.06s2.58.53,2.65,3.16l3.02-5.23Z"></path><polyline class="cls-1" points="745.87 671.45 726.01 671.45 713.98 634.29"></polyline><path class="cls-21" d="M712.73,630.45l3.71,4.76s-2.47-.92-3.93,1.27l.22-6.03Z"></path><polyline class="cls-1" points="57.14 591.1 81.15 591.1 118.06 549.44"></polyline><path class="cls-21" d="M120.73,546.42l-5.31,2.88s2.63.14,3.09,2.74l2.22-5.61Z"></path><polyline class="cls-1" points="745.87 681.13 721.86 681.13 712.52 634.4"></polyline><path class="cls-21" d="M711.73,630.45l3.14,5.16s-2.34-1.2-4.05.81l.91-5.97Z"></path><polyline class="cls-1" points="57.14 600.78 87.26 600.78 121.45 550.76"></polyline><path class="cls-21" d="M123.73,547.42l-4.91,3.52s2.63-.19,3.41,2.33l1.5-5.85Z"></path><polyline class="cls-1" points="745.87 690.81 715.75 690.81 710.55 634.47"></polyline><path class="cls-21" d="M710.18,630.45l2.58,5.46s-2.21-1.44-4.11.38l1.53-5.84Z"></path><polyline class="cls-1" points="57.14 610.46 93.82 610.46 124.84 551.99"></polyline><path class="cls-21" d="M126.73,548.42l-4.48,4.04s2.59-.48,3.65,1.93l.84-5.98Z"></path><polyline class="cls-1" points="745.87 700.49 709.19 700.49 708.33 634.48"></polyline><path class="cls-21" d="M708.28,630.45l2.14,5.64s-2.08-1.61-4.13.05l1.99-5.7Z"></path></g></g></svg> 