<?xml version="1.0" encoding="UTF-8"?> <svg xmlns="http://www.w3.org/2000/svg" id="Layer_2" data-name="Layer 2" viewBox="0 0 615.62 558.93"><defs><style> .cls-1 { stroke: #afa49f; } .cls-1, .cls-2, .cls-3, .cls-4, .cls-5, .cls-6, .cls-7, .cls-8, .cls-9, .cls-10 { fill: none; } .cls-1, .cls-2, .cls-4, .cls-6, .cls-8, .cls-9 { stroke-width: .25px; } .cls-1, .cls-7, .cls-8 { stroke-miterlimit: 10; } .cls-2 { stroke-dasharray: 1.54 1.54; } .cls-2, .cls-3, .cls-4, .cls-5, .cls-6, .cls-9, .cls-10 { stroke-linecap: round; stroke-linejoin: round; } .cls-2, .cls-4, .cls-6 { stroke: #75655e; } .cls-11 { fill: #3a2a22; } .cls-3 { stroke: #55453d; stroke-width: .15px; } .cls-12 { fill: #fff; } .cls-4 { stroke-dasharray: 6.15 5.13; } .cls-5 { stroke-width: .5px; } .cls-5, .cls-7, .cls-9, .cls-10 { stroke: #3a2a22; } .cls-13 { fill: #bc8ebc; } .cls-7 { stroke-width: .75px; } .cls-8 { stroke: #bc8ebc; } .cls-14 { fill: #afa49f; } .cls-10 { stroke-width: .35px; } .cls-15 { fill: #75655e; } </style></defs><g id="Layer_1-2" data-name="Layer 1"><g><polyline class="cls-6" points="159.32 509.84 159.32 527.03 124.58 526.29 89.75 525.27 89.47 533.31 125.69 534.42 161.91 535.16 198.13 535.53 234.44 535.44 270.67 535.07 306.89 534.24 343.11 533.13 379.33 531.56 415.46 529.62 451.68 527.31 487.81 524.63 523.84 521.58 559.97 518.07 596.01 514.28 604.8 513.26 604.8 491.25"></polyline><polygon class="cls-12" points="604.8 491.25 571.33 494.32 534.01 497.37 496.58 500.14 459.16 502.63 421.74 504.67 384.32 506.51 346.8 507.9 309.29 509.01 271.87 509.66 234.35 510.12 196.84 510.12 159.32 509.84 159.32 501.8 120.61 501.16 81.89 500.14 43.18 498.75 4.46 497 2.24 496.88 .37 496.77 .37 491.04 .37 9.59 155.9 9.59 155.9 20.38 236.31 20.38 236.31 46.99 417.38 46.99 417.38 16.96 615.25 16.96 615.25 118.92 555.19 118.92 555.19 207.49 604.8 207.49 604.8 491.25"></polygon><polyline class="cls-10" points="9.18 491.48 43.18 493.03 81.89 494.41 120.61 495.34 159.32 495.98"></polyline><polyline class="cls-10" points="9.18 489.48 43.18 491.02 81.89 492.41 120.61 493.33 159.32 493.98"></polyline><g><path class="cls-3" d="M217.22,76.67c-25.57,0-43.48-20.73-43.48-46.29"></path><path class="cls-3" d="M69.23,136.72c0-23.13,18.61-39.35,41.58-39.35"></path><path class="cls-3" d="M117.74,409.14c0,23.13,18.61,39.35,41.58,39.35"></path><path class="cls-3" d="M462.03,269.43c0,23.13-18.61,39.35-41.58,39.35"></path><path class="cls-3" d="M501.22,78.89c23.13,0,39.35,18.61,39.35,41.58"></path></g><line class="cls-3" x1="173.74" y1="20.38" x2="220.03" y2="20.38"></line><line class="cls-3" x1="217.22" y1="30.38" x2="173.74" y2="30.38"></line><rect class="cls-10" x="217.22" y="30.38" width="2.81" height="46.29"></rect><rect class="cls-10" x="69.23" y="136.72" width="41.58" height="2.23"></rect><rect class="cls-10" x="117.74" y="406.91" width="41.58" height="2.23"></rect><rect class="cls-10" x="150.16" y="155.12" width="2.23" height="41.58"></rect><rect class="cls-10" x="416.38" y="186.3" width="2.31" height="43.89"></rect><rect class="cls-10" x="150.16" y="37.95" width="2.23" height="41.58"></rect><rect class="cls-10" x="50.75" y="225.62" width="41.58" height="2.23"></rect><rect class="cls-10" x="420.45" y="267.2" width="41.58" height="2.23"></rect><rect class="cls-10" x="498.98" y="78.89" width="2.23" height="41.58"></rect><rect class="cls-10" x="488.54" y="134.33" width="2.23" height="41.58"></rect><rect class="cls-10" x="545.19" y="225.06" width="2.23" height="62.37"></rect><line class="cls-10" x1="545.19" y1="256.25" x2="547.42" y2="256.25"></line><path class="cls-3" d="M125.57,213.07c0,23.13,18.61,39.35,41.58,39.35"></path><rect class="cls-10" x="125.57" y="210.84" width="41.58" height="2.23"></rect><polyline class="cls-6" points="365.97 163.12 366.72 163.12 366.72 162.37"></polyline><line class="cls-2" x1="366.72" y1="160.84" x2="366.72" y2="137.03"></line><polyline class="cls-6" points="366.72 136.26 366.72 135.51 365.97 135.51"></polyline><line class="cls-2" x1="364.43" y1="135.51" x2="340.62" y2="135.51"></line><polyline class="cls-6" points="339.86 135.51 339.11 135.51 339.11 136.26"></polyline><line class="cls-2" x1="339.11" y1="137.8" x2="339.11" y2="161.61"></line><polyline class="cls-6" points="339.11 162.37 339.11 163.12 339.86 163.12"></polyline><line class="cls-2" x1="341.39" y1="163.12" x2="365.2" y2="163.12"></line><polyline class="cls-6" points="262.49 163.13 263.24 163.13 263.24 162.38"></polyline><line class="cls-2" x1="263.24" y1="160.84" x2="263.23" y2="137.03"></line><polyline class="cls-6" points="263.23 136.27 263.23 135.52 262.48 135.52"></polyline><line class="cls-2" x1="260.95" y1="135.52" x2="237.14" y2="135.52"></line><polyline class="cls-6" points="236.37 135.52 235.62 135.52 235.62 136.27"></polyline><line class="cls-2" x1="235.62" y1="137.8" x2="235.63" y2="161.61"></line><polyline class="cls-6" points="235.62 162.38 235.62 163.13 236.37 163.13"></polyline><line class="cls-2" x1="237.91" y1="163.13" x2="261.72" y2="163.13"></line><line class="cls-6" x1="268.29" y1="72.79" x2="271.29" y2="72.79"></line><line class="cls-4" x1="276.41" y1="72.79" x2="364.06" y2="72.79"></line><line class="cls-6" x1="366.63" y1="72.79" x2="369.63" y2="72.79"></line><line class="cls-10" x1="411.21" y1="84.71" x2="232.14" y2="84.7"></line><line class="cls-10" x1="268.28" y1="84.7" x2="268.29" y2="56.99"></line><line class="cls-10" x1="369.63" y1="84.71" x2="369.63" y2="56.99"></line><line class="cls-10" x1="268.29" y1="82.2" x2="232.14" y2="82.2"></line><line class="cls-10" x1="411.21" y1="82.2" x2="369.63" y2="82.2"></line><rect class="cls-10" x="232.14" y="135.52" width="138.6" height="49.62"></rect><g><rect class="cls-10" x="281.61" y="155.68" width="1.74" height="9.78" rx=".59" ry=".59"></rect><path class="cls-10" d="M282.48,149.78c-.49,0-.9-.4-.9-.9s.4-.9.9-.9.9.4.9.9-.4.9-.9.9Z"></path></g><polyline class="cls-10" points="281.61 164.14 279.19 164.14 279.19 162.59 281.61 162.59"></polyline><line class="cls-10" x1="280.05" y1="162.59" x2="280.05" y2="164.14"></line><polyline class="cls-10" points="281.61 160.28 269.56 160.28 269.55 138.52 295.4 138.52 295.4 160.28 283.35 160.28"></polyline><polyline class="cls-10" points="283.35 159.2 294.32 159.2 294.32 139.6 270.63 139.6 270.64 159.2 281.61 159.2"></polyline><line class="cls-10" x1="103.51" y1="42.24" x2="103.51" y2="39.03"></line><g><path class="cls-10" d="M103.51,38.17v-11.6c0-1.38-1.12-2.5-2.5-2.5h-61.83c-1.38,0-2.5,1.12-2.5,2.5v24.04c0,1.38,1.12,2.5,2.5,2.5h61.83c1.38,0,2.5-1.12,2.5-2.5v-8.37"></path><path class="cls-10" d="M107.54,39.03h-10.86c-.24,0-.43-.19-.43-.43s.19-.43.43-.43h10.81"></path><path class="cls-10" d="M97.76,38.16c-.17-.46-.61-.79-1.14-.79-.67,0-1.21.54-1.21,1.21s.54,1.21,1.21,1.21c.51,0,.95-.32,1.13-.77"></path><path class="cls-10" d="M101.79,38.17c-.22-2.66-2.45-4.76-5.17-4.76-2.86,0-5.18,2.32-5.18,5.18s2.32,5.18,5.18,5.18c2.72,0,4.94-2.09,5.17-4.74"></path></g><rect class="cls-10" x="107.54" y="36.05" width=".97" height="5.08"></rect><line class="cls-10" x1="108.5" y1="56.82" x2="32.27" y2="56.81"></line><line class="cls-10" x1="108.5" y1="58.1" x2="32.32" y2="58.09"></line><line class="cls-10" x1="103.82" y1="58.1" x2="103.82" y2="56.82"></line><line class="cls-10" x1="65.82" y1="58.1" x2="65.82" y2="56.82"></line><g><rect class="cls-10" x="18.41" y="69.67" width="7.45" height="17.6" rx="1.08" ry="1.08"></rect><path class="cls-10" d="M30.01,74.01c0-.28.11-.54.32-.73,2.09-1.88,5.3-3.09,8.9-3.09,6.31,0,11.42,3.71,11.42,8.28s-5.11,8.28-11.42,8.28c-3.59,0-6.8-1.2-8.9-3.08-.21-.19-.32-.46-.32-.73v-8.92Z"></path></g><line class="cls-10" x1="39.23" y1="70.2" x2="25.71" y2="70.2"></line><line class="cls-10" x1="39.23" y1="86.75" x2="25.71" y2="86.75"></line><polyline class="cls-10" points="18.41 99.15 43.43 99.15 43.43 143.57"></polyline><path class="cls-10" d="M26.48,117.15v9.87c0,.4.32.72.72.72h10.9c.4,0,.72-.32.72-.72v-20.82c0-.4-.32-.72-.72-.72h-10.9c-.4,0-.72.32-.72.72v9.48"></path><rect class="cls-10" x="23.03" y="115.68" width="5.89" height="1.47"></rect><circle class="cls-10" cx="32.65" cy="116.42" r=".84"></circle><polyline class="cls-10" points="563.16 26.88 563.17 52.02 480.51 52.03 480.51 27"></polyline><path class="cls-10" d="M539.83,34.96h9.87c.4,0,.72.32.72.72v10.9c0,.4-.32.72-.72.72h-20.82c-.4,0-.72-.32-.72-.72v-10.9c0-.4.32-.72.72-.72h9.48"></path><rect class="cls-10" x="538.36" y="31.51" width="1.47" height="5.89"></rect><g><circle class="cls-10" cx="539.1" cy="41.14" r=".84"></circle><path class="cls-10" d="M505.08,34.96h9.87c.4,0,.72.32.72.72v10.9c0,.4-.32.72-.72.72h-20.82c-.4,0-.72-.32-.72-.72v-10.9c0-.4.32-.72.72-.72h9.48"></path></g><rect class="cls-10" x="503.61" y="31.51" width="1.47" height="5.89"></rect><circle class="cls-10" cx="504.34" cy="41.14" r=".84"></circle><line class="cls-10" x1="468.96" y1="103.19" x2="468.96" y2="26.96"></line><line class="cls-10" x1="467.67" y1="103.19" x2="467.68" y2="27"></line><line class="cls-10" x1="467.67" y1="98.51" x2="468.96" y2="98.51"></line><line class="cls-10" x1="467.67" y1="60.5" x2="468.96" y2="60.5"></line><line class="cls-10" x1="427.38" y1="40.39" x2="467.68" y2="40.39"></line><g><path class="cls-10" d="M448.73,91.3c0,.67-.54,1.21-1.21,1.21s-1.21-.54-1.21-1.21.54-1.21,1.21-1.21,1.21.54,1.21,1.21Z"></path><path class="cls-10" d="M452.7,91.3c0,2.86-2.32,5.18-5.18,5.18s-5.18-2.32-5.18-5.18,2.32-5.18,5.18-5.18,5.18,2.32,5.18,5.18Z"></path><path class="cls-10" d="M576.94,27h15.44c.6,0,1.08.48,1.08,1.08v5.29c0,.6-.48,1.08-1.08,1.08h-15.44c-.6,0-1.08-.48-1.08-1.08v-5.29c0-.6.48-1.08,1.08-1.08Z"></path><path class="cls-10" d="M580.2,38.6c-.28,0-.54.11-.73.32-1.88,2.09-3.08,5.3-3.08,8.9,0,6.31,3.7,11.42,8.28,11.42s8.28-5.11,8.28-11.42c0-3.6-1.2-6.8-3.08-8.9-.19-.21-.46-.32-.73-.32h-8.92Z"></path></g><line class="cls-10" x1="576.39" y1="47.82" x2="576.39" y2="34.3"></line><line class="cls-10" x1="592.94" y1="47.82" x2="592.94" y2="34.3"></line><rect class="cls-10" x="105.7" y="160.65" width="38.03" height="30.61"></rect><rect class="cls-10" x="301.24" y="59.14" width="36.98" height="24.28"></rect><rect class="cls-10" x="302.32" y="60.22" width="34.82" height="22.12"></rect><path class="cls-10" d="M319.73,81.59c-.71,0-1.28-.57-1.28-1.28s.57-1.28,1.28-1.28,1.28.57,1.28,1.28c0,.71-.57,1.28-1.28,1.28Z"></path><line class="cls-10" x1="302.32" y1="82.34" x2="301.24" y2="83.42"></line><line class="cls-10" x1="337.14" y1="82.34" x2="338.22" y2="83.42"></line><line class="cls-10" x1="337.14" y1="60.22" x2="338.22" y2="59.14"></line><line class="cls-10" x1="302.32" y1="60.23" x2="301.24" y2="59.15"></line><polygon class="cls-10" points="320.78 80.31 319.73 79.25 318.68 80.31 319.73 81.36 320.78 80.31"></polygon><line class="cls-10" x1="319.73" y1="79.25" x2="319.73" y2="81.36"></line><g><path class="cls-9" d="M133.51,57.96c-1.51.03-3.03.06-4.57.13-.8.04-1.6.09-2.35.13-.57.03-1.11.07-1.78.16-.65.09-1.42.25-1.73-.23-.07-.11-.12-.25-.13-.38-.06-.77,1.18-.9,2.24-.97,2.35-.15,3.74.04,5.44.16.9.06,1.9.1,2.89.14.99-.04,1.98-.08,2.89-.14,1.7-.12,3.09-.3,5.44-.16,1.05.07,2.3.2,2.24.97-.01.13-.06.27-.13.38-.3.48-1.08.33-1.73.23-.67-.1-1.21-.13-1.78-.16-.75-.04-1.56-.09-2.36-.13-1.54-.07-3.06-.1-4.57-.13Z"></path><path class="cls-9" d="M133.51,53.27c-1.51.03-3.03.06-4.57.13-.8.04-1.6.09-2.35.13-.57.03-1.11.07-1.78.16-.65.09-1.42.25-1.73-.23-.07-.11-.12-.25-.13-.38-.06-.77,1.18-.9,2.24-.97,2.35-.15,3.74.04,5.44.16.9.06,1.9.1,2.89.14.99-.04,1.98-.08,2.89-.14,1.7-.12,3.09-.3,5.44-.16,1.05.07,2.3.2,2.24.97-.01.13-.06.27-.13.38-.3.48-1.08.33-1.73.23-.67-.1-1.21-.13-1.78-.16-.75-.04-1.56-.09-2.36-.13-1.54-.07-3.06-.1-4.57-.13Z"></path><path class="cls-9" d="M133.51,48.57c-1.51.03-3.03.06-4.57.13-.8.04-1.6.09-2.35.13-.57.03-1.11.07-1.78.16-.65.09-1.42.25-1.73-.23-.07-.11-.12-.25-.13-.38-.06-.77,1.18-.9,2.24-.97,2.35-.15,3.74.04,5.44.16.9.06,1.9.1,2.89.14.99-.04,1.98-.08,2.89-.14,1.7-.12,3.09-.3,5.44-.16,1.05.07,2.3.2,2.24.97-.01.13-.06.27-.13.38-.3.48-1.08.32-1.73.23-.67-.1-1.21-.13-1.78-.16-.75-.04-1.56-.09-2.36-.13-1.54-.07-3.06-.1-4.57-.13Z"></path></g><line class="cls-9" x1="133.51" y1="18.83" x2="133.51" y2="87.02"></line><g><path class="cls-9" d="M56.35,163.96c-.03-1.51-.06-3.03-.13-4.57-.04-.8-.09-1.6-.13-2.35-.03-.57-.07-1.11-.16-1.78-.09-.65-.25-1.42.23-1.73.11-.07.25-.12.38-.13.77-.06.9,1.18.97,2.24.15,2.35-.04,3.74-.16,5.44-.06.9-.1,1.9-.14,2.89.04.99.08,1.98.14,2.89.12,1.7.3,3.09.16,5.44-.07,1.05-.2,2.3-.97,2.24-.13-.01-.27-.06-.38-.13-.48-.3-.32-1.08-.23-1.73.1-.67.13-1.21.16-1.78.04-.75.09-1.56.13-2.36.07-1.54.1-3.06.13-4.57Z"></path><path class="cls-9" d="M61.04,163.96c-.03-1.51-.06-3.03-.13-4.57-.04-.8-.09-1.6-.13-2.35-.03-.57-.07-1.11-.16-1.78-.09-.65-.25-1.42.23-1.73.11-.07.25-.12.38-.13.77-.06.9,1.18.97,2.24.15,2.35-.04,3.74-.16,5.44-.06.9-.1,1.9-.14,2.89.04.99.08,1.98.14,2.89.12,1.7.3,3.09.16,5.44-.07,1.05-.2,2.3-.97,2.24-.13-.01-.27-.06-.38-.13-.48-.3-.33-1.08-.23-1.73.1-.67.13-1.21.16-1.78.04-.75.09-1.56.13-2.36.07-1.54.1-3.06.13-4.57Z"></path><path class="cls-9" d="M65.74,163.96c-.03-1.51-.06-3.03-.13-4.57-.04-.8-.09-1.6-.13-2.35-.03-.57-.07-1.11-.16-1.78-.09-.65-.25-1.42.23-1.73.11-.07.25-.12.38-.13.77-.06.9,1.18.97,2.24.15,2.35-.04,3.74-.16,5.44-.06.9-.1,1.9-.14,2.89.04.99.08,1.98.14,2.89.12,1.7.3,3.09.16,5.44-.07,1.05-.2,2.3-.97,2.24-.13-.01-.27-.06-.38-.13-.48-.3-.33-1.08-.23-1.73.1-.67.13-1.21.16-1.78.04-.75.09-1.56.13-2.36.07-1.54.1-3.06.13-4.57Z"></path><path class="cls-9" d="M25.77,199.1c-1.51.03-3.03.06-4.57.13-.8.04-1.6.09-2.35.13-.57.03-1.11.07-1.78.16-.65.09-1.42.25-1.73-.23-.07-.11-.12-.25-.13-.38-.06-.77,1.18-.9,2.24-.97,2.35-.15,3.74.04,5.44.16.9.06,1.9.1,2.89.14.99-.04,1.98-.08,2.89-.14,1.7-.12,3.09-.3,5.44-.16,1.05.07,2.3.2,2.24.97-.01.13-.06.27-.13.38-.3.48-1.08.32-1.73.23-.67-.1-1.21-.13-1.78-.16-.75-.04-1.56-.09-2.36-.13-1.54-.07-3.06-.1-4.57-.13Z"></path><path class="cls-9" d="M25.77,194.41c-1.51.03-3.03.06-4.57.13-.8.04-1.6.09-2.35.13-.57.03-1.11.07-1.78.16-.65.09-1.42.25-1.73-.23-.07-.11-.12-.25-.13-.38-.06-.77,1.18-.9,2.24-.97,2.35-.15,3.74.04,5.44.16.9.06,1.9.1,2.89.14.99-.04,1.98-.08,2.89-.14,1.7-.12,3.09-.3,5.44-.16,1.05.07,2.3.2,2.24.97-.01.13-.06.27-.13.38-.3.48-1.08.33-1.73.23-.67-.1-1.21-.13-1.78-.16-.75-.04-1.56-.09-2.36-.13-1.54-.07-3.06-.1-4.57-.13Z"></path><path class="cls-9" d="M25.77,189.72c-1.51.03-3.03.06-4.57.13-.8.04-1.6.09-2.35.13-.57.03-1.11.07-1.78.16-.65.09-1.42.25-1.73-.23-.07-.11-.12-.25-.13-.38-.06-.77,1.18-.9,2.24-.97,2.35-.15,3.74.04,5.44.16.9.06,1.9.1,2.89.14.99-.04,1.98-.08,2.89-.14,1.7-.12,3.09-.3,5.44-.16,1.05.07,2.3.2,2.24.97-.01.13-.06.27-.13.38-.3.48-1.08.33-1.73.23-.67-.1-1.21-.13-1.78-.16-.75-.04-1.56-.09-2.36-.13-1.54-.07-3.06-.1-4.57-.13Z"></path></g><polyline class="cls-9" points="24.94 225.62 24.94 163.96 96.95 163.96"></polyline><g><path class="cls-9" d="M580.22,261.24c-1.51.03-3.03.06-4.57.13-.8.04-1.6.09-2.35.13-.57.03-1.11.07-1.78.16-.65.09-1.42.25-1.73-.23-.07-.11-.12-.25-.13-.38-.06-.77,1.18-.9,2.24-.97,2.35-.15,3.74.04,5.44.16.9.06,1.9.1,2.89.14.99-.04,1.98-.08,2.89-.14,1.7-.12,3.09-.3,5.44-.16,1.05.07,2.3.2,2.24.97-.01.13-.06.27-.12.38-.31.48-1.08.33-1.73.23-.67-.1-1.21-.13-1.78-.16-.75-.04-1.56-.09-2.35-.13-1.55-.07-3.06-.1-4.57-.13Z"></path><path class="cls-9" d="M580.22,256.55c-1.51.03-3.03.06-4.57.13-.8.04-1.6.09-2.35.13-.57.03-1.11.07-1.78.16-.65.09-1.42.25-1.73-.23-.07-.11-.12-.25-.13-.38-.06-.77,1.18-.9,2.24-.97,2.35-.15,3.74.04,5.44.16.9.06,1.9.1,2.89.14.99-.04,1.98-.08,2.89-.14,1.7-.12,3.09-.3,5.44-.16,1.05.07,2.3.2,2.24.97-.01.13-.06.27-.12.38-.31.48-1.08.32-1.73.23-.67-.1-1.21-.13-1.78-.16-.75-.04-1.56-.09-2.35-.13-1.55-.07-3.06-.1-4.57-.13Z"></path><path class="cls-9" d="M580.22,251.85c-1.51.03-3.03.06-4.57.13-.8.04-1.6.09-2.35.13-.57.03-1.11.07-1.78.16-.65.09-1.42.25-1.73-.23-.07-.11-.12-.25-.13-.38-.06-.77,1.18-.9,2.24-.97,2.35-.15,3.74.04,5.44.16.9.06,1.9.1,2.89.14.99-.04,1.98-.08,2.89-.14,1.7-.12,3.09-.3,5.44-.16,1.05.07,2.3.2,2.24.97-.01.13-.06.27-.12.38-.31.48-1.08.33-1.73.23-.67-.1-1.21-.13-1.78-.16-.75-.04-1.56-.09-2.35-.13-1.55-.07-3.06-.1-4.57-.13Z"></path></g><line class="cls-9" x1="580.22" y1="217.49" x2="580.22" y2="294.92"></line><line class="cls-9" x1="9.17" y1="396.56" x2="167.45" y2="396.56"></line><polyline class="cls-9" points="167.45 450.8 167.45 501.89 206.91 502.08 246.27 501.89 285.73 501.34 325.18 500.42 364.54 499.12 404 497.46 443.36 495.43 482.72 493.02 521.99 490.25 561.36 487.02 600.63 483.51"></polyline><polyline class="cls-9" points=".38 491.04 .38 496.77 2.24 496.88 4.46 497 43.18 498.75 81.89 500.14 120.61 501.16 159.32 501.8"></polyline><line class="cls-9" x1="604.8" y1="483.11" x2="604.8" y2="488.92"></line><rect class="cls-5" x="9.17" y="402.29" width="150.2" height="2.31"></rect><polygon class="cls-5" points="604.8 488.92 566.07 492.47 525.69 495.7 485.31 498.66 444.93 501.16 404.46 503.28 364.08 504.94 323.61 506.24 283.14 507.16 242.67 507.72 202.2 507.9 161.63 507.62 161.63 450.8 159.32 450.8 159.32 509.84 196.84 510.12 234.35 510.12 271.87 509.66 309.29 509.01 346.8 507.9 384.32 506.52 421.74 504.67 459.16 502.63 496.58 500.14 534.01 497.37 571.33 494.32 604.8 491.25 604.8 488.92"></polygon><polyline class="cls-5" points="167.45 501.9 167.45 500.23 161.63 505.96 161.63 507.62 161.73 507.62 163.3 507.62 169.03 501.9 167.45 501.9"></polyline><rect class="cls-5" x="197.3" y="502.03" width="2.31" height="5.83"></rect><polygon class="cls-5" points="268.82 501.58 268.91 507.36 266.6 507.39 266.51 501.61 268.82 501.58"></polygon><rect class="cls-5" x="335.8" y="500.03" width="2.31" height="5.78" transform="translate(-15.75 10.92) rotate(-1.81)"></rect><polygon class="cls-5" points="372.58 498.78 372.76 504.59 370.45 504.67 370.27 498.88 372.58 498.78"></polygon><polygon class="cls-5" points="407.14 497.3 407.42 503.13 405.11 503.25 404.83 497.41 407.14 497.3"></polygon><polygon class="cls-5" points="476.16 493.43 476.53 499.22 474.22 499.35 473.85 493.58 476.16 493.43"></polygon><polyline class="cls-5" points="545.19 488.4 545.65 494.13 543.34 494.32 542.88 488.59 545.19 488.4"></polyline><rect class="cls-5" x="159.32" y="402.29" width="8.13" height="4.62"></rect><rect class="cls-5" x="159.32" y="448.49" width="8.13" height="2.31"></rect><rect class="cls-5" x="39.2" y="396.56" width="2.31" height="5.73"></rect><rect class="cls-5" x="108.5" y="396.56" width="2.31" height="5.73"></rect><rect class="cls-5" x="158.21" y="396.56" width="2.31" height="5.73"></rect><rect class="cls-5" x="9.17" y="396.56" width="2.31" height="5.73"></rect><polygon class="cls-11" points=".38 491.04 9.17 491.55 9.17 396.56 40.4 396.56 40.4 390.74 21.92 390.74 21.92 231.35 50.75 231.35 50.75 225.62 10.38 225.62 10.38 149.39 96.95 149.39 96.95 225.62 92.33 225.62 92.33 231.35 102.78 231.35 102.78 205.94 167.46 205.94 167.46 210.56 173.18 210.56 173.18 200.21 152.39 200.21 152.39 196.7 146.66 196.7 146.66 200.21 102.78 200.21 102.78 151.7 146.66 151.7 146.66 155.12 152.39 155.12 152.39 143.57 116.64 143.57 116.64 138.95 110.81 138.95 110.81 143.57 18.41 143.57 18.41 58.1 32.27 58.1 32.27 18.83 108.5 18.83 108.5 58.1 110.81 58.1 110.81 97.37 116.64 97.37 116.64 92.75 152.44 92.75 152.44 79.53 146.66 79.53 146.66 87.02 118.95 87.02 118.95 18.83 146.66 18.83 146.66 37.95 152.39 37.95 152.39 30.38 173.83 30.38 173.83 20.38 155.9 20.38 155.9 9.59 .38 9.59 .38 491.04"></polygon><polygon class="cls-7" points=".38 491.04 9.17 491.55 9.17 396.56 40.4 396.56 40.4 390.74 21.92 390.74 21.92 231.35 50.75 231.35 50.75 225.62 10.38 225.62 10.38 149.39 96.95 149.39 96.95 225.62 92.33 225.62 92.33 231.35 102.78 231.35 102.78 205.94 167.46 205.94 167.46 210.56 173.18 210.56 173.18 200.21 152.39 200.21 152.39 196.7 146.66 196.7 146.66 200.21 102.78 200.21 102.78 151.7 146.66 151.7 146.66 155.12 152.39 155.12 152.39 143.57 116.64 143.57 116.64 138.95 110.81 138.95 110.81 143.57 18.41 143.57 18.41 58.1 32.27 58.1 32.27 18.83 108.5 18.83 108.5 58.1 110.81 58.1 110.81 97.37 116.64 97.37 116.64 92.75 152.44 92.75 152.44 79.53 146.66 79.53 146.66 87.02 118.95 87.02 118.95 18.83 146.66 18.83 146.66 37.95 152.39 37.95 152.39 30.38 173.83 30.38 173.83 20.38 155.9 20.38 155.9 9.59 .38 9.59 .38 491.04"></polygon><polygon class="cls-11" points="173.18 252.14 167.5 252.14 167.5 390.74 159.32 390.74 159.32 396.56 167.45 396.56 167.45 404.6 173.18 404.6 173.18 252.14"></polygon><polygon class="cls-7" points="173.18 252.14 167.5 252.14 167.5 390.74 159.32 390.74 159.32 396.56 167.45 396.56 167.45 404.6 173.18 404.6 173.18 252.14"></polygon><polygon class="cls-11" points="604.8 483.11 594.8 484.06 594.8 300.65 545.23 300.65 545.23 287.43 550.91 287.43 550.91 294.92 594.8 294.92 594.8 217.49 550.91 217.49 550.91 225.06 545.19 225.06 545.19 126.29 540.57 126.29 540.57 120.47 545.19 120.47 545.19 108.92 605.25 108.92 605.25 26.96 427.38 26.96 427.38 103.19 468.96 103.19 468.96 105.5 494.37 105.5 494.37 120.47 498.99 120.47 498.99 126.29 494.37 126.29 494.37 134.33 488.54 134.33 488.54 111.23 420.45 111.23 420.45 180.53 488.54 180.53 488.54 175.91 494.37 175.91 494.37 262.58 420.45 262.58 420.45 267.2 414.72 267.2 414.72 252.14 420.45 252.14 420.45 256.76 488.54 256.76 488.54 186.35 420.45 186.35 420.45 208.25 418.69 208.25 418.69 179.94 416.38 179.94 416.38 208.25 414.62 208.25 414.62 84.71 411.21 84.71 411.21 56.99 232.13 56.99 232.13 84.71 226.31 84.71 226.31 30.38 220.03 30.38 220.03 20.38 236.31 20.38 236.31 46.99 417.38 46.99 417.38 16.96 615.25 16.96 615.25 118.92 555.19 118.92 555.19 207.49 604.8 207.49 604.8 483.11"></polygon><polygon class="cls-7" points="604.8 483.11 594.8 484.06 594.8 300.65 545.23 300.65 545.23 287.43 550.91 287.43 550.91 294.92 594.8 294.92 594.8 217.49 550.91 217.49 550.91 225.06 545.19 225.06 545.19 126.29 540.57 126.29 540.57 120.47 545.19 120.47 545.19 108.92 605.25 108.92 605.25 26.96 427.38 26.96 427.38 103.19 468.96 103.19 468.96 105.5 494.37 105.5 494.37 120.47 498.99 120.47 498.99 126.29 494.37 126.29 494.37 134.33 488.54 134.33 488.54 111.23 420.45 111.23 420.45 180.53 488.54 180.53 488.54 175.91 494.37 175.91 494.37 262.58 420.45 262.58 420.45 267.2 414.72 267.2 414.72 252.14 420.45 252.14 420.45 256.76 488.54 256.76 488.54 186.35 420.45 186.35 420.45 208.25 418.69 208.25 418.69 179.94 416.38 179.94 416.38 208.25 414.62 208.25 414.62 84.71 411.21 84.71 411.21 56.99 232.13 56.99 232.13 84.71 226.31 84.71 226.31 30.38 220.03 30.38 220.03 20.38 236.31 20.38 236.31 46.99 417.38 46.99 417.38 16.96 615.25 16.96 615.25 118.92 555.19 118.92 555.19 207.49 604.8 207.49 604.8 483.11"></polygon><polygon class="cls-11" points="371.2 493.12 371.38 498.84 405.94 497.36 405.94 319.13 420.45 319.13 420.45 308.78 414.62 308.78 414.62 313.4 384.04 313.4 384.04 492.56 371.2 493.12"></polygon><polygon class="cls-7" points="371.2 493.12 371.38 498.84 405.94 497.36 405.94 319.13 420.45 319.13 420.45 308.78 414.62 308.78 414.62 313.4 384.04 313.4 384.04 492.56 371.2 493.12"></polygon><g><path class="cls-13" d="M197.07,8.22c-.02.08-.07.14-.14.14s-.13-.06-.14-.14c-.56-3.3-2.74-4.94-6.02-4.94h-3.84c-1.16,0-1.98-1.01-2.2-2.66-.05-.34.23-.61.47-.46.46.31,1.06.47,1.78.47h3.48c2.95,0,5.22,1.67,6.17,4.98.11.37.5.37.61,0,.96-3.31,3.22-4.98,6.18-4.98h3.48c.72,0,1.32-.16,1.78-.47.23-.16.51.12.47.46-.22,1.64-1.05,2.66-2.21,2.66h-3.84c-3.29,0-5.47,1.64-6.02,4.95h0Z"></path><path class="cls-8" d="M197.07,8.22c-.02.08-.07.14-.14.14s-.13-.06-.14-.14c-.56-3.3-2.74-4.94-6.02-4.94h-3.84c-1.16,0-1.98-1.01-2.2-2.66-.05-.34.23-.61.47-.46.46.31,1.06.47,1.78.47h3.48c2.95,0,5.22,1.67,6.17,4.98.11.37.5.37.61,0,.96-3.31,3.22-4.98,6.18-4.98h3.48c.72,0,1.32-.16,1.78-.47.23-.16.51.12.47.46-.22,1.64-1.05,2.66-2.21,2.66h-3.84c-3.29,0-5.47,1.64-6.02,4.95h0Z"></path></g><g><path class="cls-11" d="M451.05,394.39h2.52c1.9,0,2.97.89,2.97,2.53s-1.07,2.54-2.97,2.54h-1.72v3.99h-.8v-9.06ZM453.49,398.74c1.41,0,2.24-.61,2.24-1.81s-.81-1.81-2.24-1.81h-1.64v3.62h1.64Z"></path><path class="cls-11" d="M458.04,397.05h.78v1.09c.43-.78,1.31-1.18,2.02-1.18.33,0,.66.07.99.24l-.39.7c-.21-.1-.51-.17-.77-.17-.68,0-1.46.36-1.74,1.3-.08.27-.12.57-.12,1.27v3.15h-.78v-6.41Z"></path><path class="cls-11" d="M463.1,394.39h.94v1.39h-.94v-1.39ZM463.18,397.05h.77v6.41h-.77v-6.41Z"></path><path class="cls-11" d="M465.99,397.05h.78v1.1c.38-.84,1.11-1.19,1.88-1.19.91,0,1.57.4,1.89,1.25.4-.83,1.09-1.25,2-1.25,1.55,0,2.13,1.16,2.13,2.68v3.82h-.78v-3.64c0-1.33-.39-2.18-1.52-2.18-1.02,0-1.65.77-1.65,2.26v3.57h-.78v-3.76c0-1.4-.52-2.07-1.5-2.07-1.03,0-1.67.79-1.67,2.26v3.57h-.78v-6.41Z"></path><path class="cls-11" d="M480.82,402.25c-.43.82-1.25,1.29-2.25,1.29-1.44,0-2.31-.77-2.31-1.94,0-.69.29-1.16.72-1.44.46-.31,1.09-.42,1.77-.42h2.05v-.28c0-1.19-.62-1.83-1.82-1.83-.79,0-1.4.29-1.98,1.02l-.56-.48c.68-.84,1.53-1.21,2.59-1.21,1.63,0,2.54.89,2.54,2.51v3.99h-.71l-.04-1.2ZM478.64,402.9c1.18,0,2.17-.93,2.17-2.2v-.36h-1.95c-.51,0-1.03.08-1.37.32-.28.21-.44.51-.44.94,0,.79.6,1.3,1.6,1.3Z"></path><path class="cls-11" d="M483.53,397.05h.78v1.09c.43-.78,1.31-1.18,2.02-1.18.33,0,.66.07.99.24l-.39.7c-.21-.1-.51-.17-.77-.17-.68,0-1.46.36-1.74,1.3-.08.27-.12.57-.12,1.27v3.15h-.78v-6.41Z"></path><path class="cls-11" d="M490.58,403.25l-2.55-6.21h.86l2.1,5.42,2.11-5.42h.85l-3.69,9.05h-.84l1.17-2.84Z"></path><path class="cls-11" d="M498.84,394.39h2.72c1.68,0,2.68.84,2.68,2.25,0,.94-.46,1.68-1.24,2,1.1.25,1.7,1.07,1.7,2.31,0,1.61-1.02,2.5-2.88,2.5h-2.97v-9.06ZM501.81,398.4c.98,0,1.63-.64,1.63-1.64s-.69-1.61-1.88-1.61h-1.91v3.26h2.16ZM501.76,402.71c1.42,0,2.14-.6,2.14-1.79,0-1.13-.66-1.79-1.79-1.79h-2.46v3.58h2.11Z"></path><path class="cls-11" d="M506.17,400.3c0-1.84.99-3.34,2.81-3.34,1.96,0,2.76,1.53,2.76,2.94,0,.1-.01.4-.04.55h-4.76c.03,1.51.84,2.39,2.14,2.39.82,0,1.35-.23,1.91-.83l.55.49c-.73.75-1.43,1.05-2.46,1.05-1.89,0-2.91-1.41-2.91-3.25ZM510.98,399.87c0-.08,0-.16,0-.24,0-.92-.58-2.01-2-2.01-1.23,0-1.98.98-2.07,2.26h4.06Z"></path><path class="cls-11" d="M513.15,400.24c0-1.96,1.29-3.29,2.92-3.29,1.05,0,1.87.54,2.29,1.36v-3.92h.77v9.06h-.77v-1.26c-.44.84-1.25,1.35-2.29,1.35-1.72,0-2.92-1.42-2.92-3.3ZM516.19,402.82c1.3,0,2.23-1.08,2.23-2.58s-.93-2.58-2.23-2.58-2.26,1.09-2.26,2.58.95,2.58,2.26,2.58Z"></path><path class="cls-11" d="M521.16,397.05h.78v1.09c.43-.78,1.31-1.18,2.02-1.18.33,0,.66.07.99.24l-.39.7c-.21-.1-.51-.17-.77-.17-.68,0-1.46.36-1.74,1.3-.08.27-.12.57-.12,1.27v3.15h-.78v-6.41Z"></path><path class="cls-11" d="M525.54,400.24c0-1.92,1.25-3.29,3.05-3.29s3.04,1.37,3.04,3.29-1.27,3.3-3.04,3.3-3.05-1.37-3.05-3.3ZM528.59,402.85c1.37,0,2.26-1.04,2.26-2.61s-.9-2.61-2.26-2.61-2.28,1.05-2.28,2.61.9,2.61,2.28,2.61Z"></path><path class="cls-11" d="M533.08,400.24c0-1.92,1.25-3.29,3.05-3.29s3.04,1.37,3.04,3.29-1.27,3.3-3.04,3.3-3.05-1.37-3.05-3.3ZM536.12,402.85c1.37,0,2.26-1.04,2.26-2.61s-.9-2.61-2.26-2.61-2.28,1.05-2.28,2.61.9,2.61,2.28,2.61Z"></path><path class="cls-11" d="M540.92,397.05h.78v1.1c.38-.84,1.11-1.19,1.88-1.19.91,0,1.57.4,1.89,1.25.4-.83,1.09-1.25,2-1.25,1.55,0,2.13,1.16,2.13,2.68v3.82h-.78v-3.64c0-1.33-.39-2.18-1.52-2.18-1.02,0-1.65.77-1.65,2.26v3.57h-.78v-3.76c0-1.4-.52-2.07-1.5-2.07-1.03,0-1.67.79-1.67,2.26v3.57h-.78v-6.41Z"></path></g><g><path class="cls-11" d="M69.44,306.39h2.72c1.68,0,2.68.84,2.68,2.25,0,.94-.46,1.68-1.24,2,1.1.25,1.7,1.07,1.7,2.31,0,1.61-1.02,2.5-2.88,2.5h-2.97v-9.06ZM72.41,310.4c.98,0,1.63-.64,1.63-1.64s-.69-1.61-1.88-1.61h-1.91v3.26h2.16ZM72.36,314.71c1.42,0,2.14-.6,2.14-1.79,0-1.13-.66-1.79-1.79-1.79h-2.46v3.58h2.11Z"></path><path class="cls-11" d="M76.74,312.3c0-1.84.99-3.34,2.81-3.34,1.96,0,2.76,1.53,2.76,2.94,0,.1-.01.4-.04.55h-4.76c.03,1.51.84,2.39,2.14,2.39.82,0,1.35-.23,1.91-.83l.55.49c-.73.75-1.43,1.05-2.46,1.05-1.89,0-2.91-1.41-2.91-3.25ZM81.55,311.87c0-.08,0-.16,0-.24,0-.92-.58-2.01-2-2.01-1.23,0-1.98.98-2.07,2.26h4.06Z"></path><path class="cls-11" d="M83.71,312.24c0-1.96,1.29-3.29,2.92-3.29,1.05,0,1.87.54,2.29,1.36v-3.92h.77v9.06h-.77v-1.26c-.44.84-1.25,1.35-2.29,1.35-1.72,0-2.92-1.42-2.92-3.3ZM86.75,314.82c1.3,0,2.23-1.08,2.23-2.58s-.93-2.58-2.23-2.58-2.26,1.09-2.26,2.58.95,2.58,2.26,2.58Z"></path><path class="cls-11" d="M91.72,309.05h.78v1.09c.43-.78,1.31-1.18,2.02-1.18.33,0,.66.07.99.24l-.39.7c-.21-.1-.51-.17-.77-.17-.68,0-1.46.36-1.74,1.3-.08.27-.12.57-.12,1.27v3.15h-.78v-6.41Z"></path><path class="cls-11" d="M96.1,312.24c0-1.92,1.25-3.29,3.05-3.29s3.04,1.37,3.04,3.29-1.27,3.3-3.04,3.3-3.05-1.37-3.05-3.3ZM99.15,314.85c1.37,0,2.26-1.04,2.26-2.61s-.9-2.61-2.26-2.61-2.28,1.05-2.28,2.61.9,2.61,2.28,2.61Z"></path><path class="cls-11" d="M103.63,312.24c0-1.92,1.25-3.29,3.05-3.29s3.04,1.37,3.04,3.29-1.27,3.3-3.04,3.3-3.05-1.37-3.05-3.3ZM106.68,314.85c1.37,0,2.26-1.04,2.26-2.61s-.9-2.61-2.26-2.61-2.28,1.05-2.28,2.61.9,2.61,2.28,2.61Z"></path><path class="cls-11" d="M111.47,309.05h.78v1.1c.38-.84,1.11-1.19,1.88-1.19.91,0,1.57.4,1.89,1.25.4-.83,1.09-1.25,2-1.25,1.55,0,2.13,1.16,2.13,2.68v3.82h-.78v-3.64c0-1.33-.39-2.18-1.52-2.18-1.02,0-1.65.77-1.65,2.26v3.57h-.78v-3.76c0-1.4-.52-2.07-1.5-2.07-1.03,0-1.67.79-1.67,2.26v3.57h-.78v-6.41Z"></path></g><g><path class="cls-11" d="M63.12,444.38h2.72c1.68,0,2.68.84,2.68,2.25,0,.94-.46,1.68-1.24,2,1.1.25,1.7,1.07,1.7,2.31,0,1.61-1.02,2.5-2.88,2.5h-2.97v-9.06ZM66.09,448.39c.98,0,1.63-.64,1.63-1.64s-.69-1.61-1.88-1.61h-1.91v3.26h2.16ZM66.04,452.7c1.42,0,2.14-.6,2.14-1.79,0-1.13-.66-1.79-1.79-1.79h-2.46v3.58h2.11Z"></path><path class="cls-11" d="M74.94,452.24c-.43.82-1.25,1.29-2.25,1.29-1.44,0-2.31-.77-2.31-1.94,0-.69.29-1.16.72-1.44.46-.31,1.09-.42,1.77-.42h2.05v-.28c0-1.19-.62-1.83-1.82-1.83-.79,0-1.4.29-1.98,1.02l-.56-.48c.68-.84,1.53-1.21,2.59-1.21,1.63,0,2.54.89,2.54,2.51v3.99h-.71l-.04-1.2ZM72.76,452.89c1.18,0,2.17-.93,2.17-2.2v-.36h-1.95c-.51,0-1.03.08-1.37.32-.28.21-.44.51-.44.94,0,.79.6,1.3,1.6,1.3Z"></path><path class="cls-11" d="M77.53,452.11v-7.73h.77v7.59c0,.6.23.84.64.84.17,0,.38-.04.61-.12v.67c-.29.11-.6.17-.84.17-.72,0-1.18-.44-1.18-1.42Z"></path><path class="cls-11" d="M80.49,450.23c0-1.83,1.06-3.29,2.86-3.29,1.17,0,2.09.58,2.51,1.74l-.7.27c-.27-.82-.9-1.33-1.81-1.33-1.42,0-2.09,1.25-2.09,2.61s.68,2.62,2.09,2.62c.91,0,1.53-.51,1.81-1.33l.7.27c-.42,1.16-1.34,1.75-2.51,1.75-1.8,0-2.86-1.46-2.86-3.3Z"></path><path class="cls-11" d="M87.1,450.23c0-1.92,1.25-3.29,3.05-3.29s3.04,1.37,3.04,3.29-1.27,3.3-3.04,3.3-3.05-1.37-3.05-3.3ZM90.14,452.84c1.37,0,2.26-1.04,2.26-2.61s-.9-2.61-2.26-2.61-2.28,1.05-2.28,2.61.9,2.61,2.28,2.61Z"></path><path class="cls-11" d="M94.93,447.03h.78v1.05c.4-.76,1.12-1.14,2.01-1.14,1.38,0,2.2.81,2.2,2.51v3.99h-.78v-3.71c0-1.45-.55-2.11-1.61-2.11-1.16,0-1.83.79-1.83,2.55v3.27h-.78v-6.41Z"></path><path class="cls-11" d="M103.65,453.24l-2.55-6.21h.86l2.1,5.42,2.11-5.42h.85l-3.69,9.05h-.84l1.17-2.84Z"></path></g><g><path class="cls-11" d="M245.21,400.39h.81v8.33h4.18v.73h-4.99v-9.06Z"></path><path class="cls-11" d="M251.33,400.39h.94v1.39h-.94v-1.39ZM251.42,403.05h.77v6.41h-.77v-6.41Z"></path><path class="cls-11" d="M253.59,403.05h.86l2.1,5.42,2.11-5.42h.85l-2.61,6.41h-.68l-2.63-6.41Z"></path><path class="cls-11" d="M260.84,400.39h.94v1.39h-.94v-1.39ZM260.93,403.05h.77v6.41h-.77v-6.41Z"></path><path class="cls-11" d="M263.73,403.05h.78v1.05c.4-.76,1.12-1.14,2.01-1.14,1.38,0,2.2.81,2.2,2.51v3.99h-.78v-3.71c0-1.45-.55-2.11-1.61-2.11-1.16,0-1.83.79-1.83,2.55v3.27h-.78v-6.41Z"></path><path class="cls-11" d="M270.19,410.22s0-.1.03-.26l1.11-.88c-.57-.22-.96-.59-.96-1.26,0-.53.27-.9.72-1.2-.36-.37-.56-.87-.56-1.45,0-1.3,1.04-2.2,2.39-2.2.64,0,1.22.21,1.64.58l1.02-.86.4.49-1,.88c.19.33.3.71.3,1.14,0,1.28-.96,2.13-2.33,2.13-.53,0-.99-.12-1.37-.34-.31.17-.45.42-.45.71,0,.66.63.83,1.62.98,1.6.25,2.99.44,2.99,1.75,0,1.16-1.05,1.78-2.7,1.78-1.82,0-2.85-.7-2.85-2ZM273.05,411.61c1.09,0,1.92-.34,1.92-1.08,0-.86-1.16-.96-2.31-1.14-.31-.05-.6-.1-.89-.17l-.8.92c-.01.09-.01.11-.01.15,0,.9.79,1.33,2.09,1.33ZM272.92,406.68c.98,0,1.59-.65,1.59-1.53s-.64-1.56-1.58-1.56-1.62.65-1.62,1.55.63,1.55,1.61,1.55Z"></path><path class="cls-11" d="M280.67,400.39h2.52c1.99,0,2.97.93,2.97,2.5,0,1.25-.64,2.07-1.85,2.38l2.44,4.19h-.92l-2.34-4.07c-.21,0-.44,0-.65,0h-1.36v4.06h-.81v-9.06ZM283.12,404.68c1.38,0,2.24-.55,2.24-1.78s-.88-1.77-2.24-1.77h-1.64v3.56h1.64Z"></path><path class="cls-11" d="M287.68,406.24c0-1.92,1.25-3.29,3.05-3.29s3.04,1.37,3.04,3.29-1.27,3.3-3.04,3.3-3.05-1.37-3.05-3.3ZM290.73,408.85c1.37,0,2.26-1.04,2.26-2.61s-.9-2.61-2.26-2.61-2.28,1.05-2.28,2.61.9,2.61,2.28,2.61Z"></path><path class="cls-11" d="M295.21,406.24c0-1.92,1.25-3.29,3.05-3.29s3.04,1.37,3.04,3.29-1.27,3.3-3.04,3.3-3.05-1.37-3.05-3.3ZM298.26,408.85c1.37,0,2.26-1.04,2.26-2.61s-.9-2.61-2.26-2.61-2.28,1.05-2.28,2.61.9,2.61,2.28,2.61Z"></path><path class="cls-11" d="M303.05,403.05h.78v1.1c.38-.84,1.11-1.19,1.88-1.19.91,0,1.57.4,1.89,1.25.4-.83,1.09-1.25,2-1.25,1.55,0,2.13,1.16,2.13,2.68v3.82h-.78v-3.64c0-1.33-.39-2.18-1.52-2.18-1.02,0-1.65.77-1.65,2.26v3.57h-.78v-3.76c0-1.4-.52-2.07-1.5-2.07-1.03,0-1.67.79-1.67,2.26v3.57h-.78v-6.41Z"></path></g><g><path class="cls-11" d="M259.31,245.35h2.43c2.94,0,4.62,1.68,4.62,4.6s-1.64,4.46-4.63,4.46h-2.42v-9.06ZM261.66,253.66c2.5,0,3.89-1.16,3.89-3.74s-1.4-3.83-3.82-3.83h-1.61v7.57h1.54Z"></path><path class="cls-11" d="M267.97,245.35h.94v1.39h-.94v-1.39ZM268.06,248h.77v6.41h-.77v-6.41Z"></path><path class="cls-11" d="M270.86,248h.78v1.05c.4-.76,1.12-1.14,2.01-1.14,1.38,0,2.2.81,2.2,2.51v3.99h-.78v-3.71c0-1.45-.55-2.11-1.61-2.11-1.16,0-1.83.79-1.83,2.55v3.27h-.78v-6.41Z"></path><path class="cls-11" d="M277.74,245.35h.94v1.39h-.94v-1.39ZM277.82,248h.77v6.41h-.77v-6.41Z"></path><path class="cls-11" d="M280.63,248h.78v1.05c.4-.76,1.12-1.14,2.01-1.14,1.38,0,2.2.81,2.2,2.51v3.99h-.78v-3.71c0-1.45-.55-2.11-1.61-2.11-1.16,0-1.83.79-1.83,2.55v3.27h-.78v-6.41Z"></path><path class="cls-11" d="M287.09,255.17s0-.1.03-.26l1.11-.88c-.57-.22-.96-.59-.96-1.26,0-.53.27-.9.72-1.2-.36-.37-.56-.87-.56-1.45,0-1.3,1.04-2.2,2.38-2.2.64,0,1.22.21,1.64.59l1.02-.86.4.49-1,.88c.19.33.3.71.3,1.14,0,1.28-.96,2.13-2.33,2.13-.53,0-.99-.12-1.37-.34-.31.18-.45.42-.45.72,0,.66.63.83,1.62.98,1.6.25,2.99.44,2.99,1.75,0,1.16-1.05,1.78-2.7,1.78-1.82,0-2.85-.7-2.85-2ZM289.95,256.56c1.09,0,1.92-.34,1.92-1.08,0-.86-1.16-.96-2.31-1.14-.31-.05-.6-.1-.89-.17l-.8.92c-.01.09-.01.11-.01.15,0,.9.79,1.33,2.09,1.33ZM289.82,251.63c.98,0,1.59-.65,1.59-1.53s-.64-1.56-1.58-1.56-1.62.65-1.62,1.55.63,1.55,1.61,1.55Z"></path><path class="cls-11" d="M297.57,245.35h2.52c1.99,0,2.97.93,2.97,2.5,0,1.25-.64,2.07-1.85,2.38l2.44,4.19h-.92l-2.34-4.07c-.21,0-.44,0-.65,0h-1.36v4.06h-.81v-9.06ZM300.02,249.63c1.38,0,2.24-.55,2.24-1.78s-.88-1.77-2.24-1.77h-1.64v3.56h1.64Z"></path><path class="cls-11" d="M304.58,251.2c0-1.92,1.25-3.29,3.05-3.29s3.04,1.37,3.04,3.29-1.27,3.3-3.04,3.3-3.05-1.36-3.05-3.3ZM307.63,253.8c1.37,0,2.26-1.04,2.26-2.61s-.9-2.61-2.26-2.61-2.28,1.05-2.28,2.61.9,2.61,2.28,2.61Z"></path><path class="cls-11" d="M312.11,251.2c0-1.92,1.25-3.29,3.05-3.29s3.04,1.37,3.04,3.29-1.27,3.3-3.04,3.3-3.05-1.36-3.05-3.3ZM315.16,253.8c1.37,0,2.26-1.04,2.26-2.61s-.9-2.61-2.26-2.61-2.28,1.05-2.28,2.61.9,2.61,2.28,2.61Z"></path><path class="cls-11" d="M319.95,248h.78v1.1c.38-.85,1.11-1.19,1.88-1.19.91,0,1.57.4,1.89,1.25.4-.83,1.09-1.25,2-1.25,1.55,0,2.13,1.16,2.13,2.69v3.82h-.78v-3.64c0-1.33-.39-2.18-1.52-2.18-1.02,0-1.65.77-1.65,2.26v3.57h-.78v-3.76c0-1.4-.52-2.07-1.5-2.07-1.03,0-1.67.79-1.67,2.26v3.57h-.78v-6.41Z"></path></g><g><path class="cls-11" d="M273.64,105.63h.81v4.86l4.65-4.86h1.09l-3.45,3.54,3.48,5.52h-.95l-3.11-4.93-1.71,1.76v3.17h-.81v-9.06Z"></path><path class="cls-11" d="M281.36,105.63h.94v1.39h-.94v-1.39ZM281.45,108.28h.77v6.41h-.77v-6.41Z"></path><path class="cls-11" d="M285.02,113.21v-4.31h-1.42v-.62h1.42v-1.85l.79-.46v2.31h1.54v.62h-1.54v4.12c0,.71.22,1.11.81,1.11.19,0,.46-.04.73-.12v.62c-.32.1-.64.16-.92.16-.85,0-1.4-.49-1.4-1.57Z"></path><path class="cls-11" d="M288.37,111.48c0-1.83,1.06-3.29,2.86-3.29,1.17,0,2.09.58,2.51,1.74l-.7.27c-.27-.82-.9-1.33-1.81-1.33-1.42,0-2.09,1.25-2.09,2.61s.68,2.62,2.09,2.62c.91,0,1.53-.51,1.81-1.33l.7.27c-.42,1.16-1.34,1.75-2.51,1.75-1.8,0-2.86-1.46-2.86-3.3Z"></path><path class="cls-11" d="M295.37,105.63h.78v3.69c.4-.75,1.1-1.13,2.01-1.13,1.4,0,2.2.85,2.2,2.51v3.99h-.78v-3.71c0-1.43-.53-2.11-1.61-2.11-1.18,0-1.83.83-1.83,2.55v3.27h-.78v-9.06Z"></path><path class="cls-11" d="M302,111.53c0-1.84.99-3.34,2.81-3.34,1.96,0,2.76,1.53,2.76,2.94,0,.1-.01.4-.04.55h-4.76c.03,1.51.84,2.39,2.14,2.39.82,0,1.35-.23,1.91-.83l.55.49c-.73.75-1.43,1.05-2.46,1.05-1.89,0-2.91-1.41-2.91-3.25ZM306.82,111.11c0-.08,0-.16,0-.24,0-.92-.58-2.02-2-2.02-1.23,0-1.98.98-2.07,2.26h4.06Z"></path><path class="cls-11" d="M309.31,108.28h.78v1.05c.4-.76,1.12-1.14,2.01-1.14,1.38,0,2.2.81,2.2,2.51v3.99h-.78v-3.71c0-1.45-.55-2.11-1.61-2.11-1.16,0-1.83.79-1.83,2.55v3.27h-.78v-6.41Z"></path></g><g><path class="cls-11" d="M445.11,141.93h.65l1.71,6.06,1.76-5.7h.63l1.76,5.7,1.7-6.06h.65l-2.01,6.98h-.63l-1.79-5.71-1.79,5.71h-.64l-2.01-6.98Z"></path><path class="cls-11" d="M455.11,141.93h.62v6.98h-.62v-6.98Z"></path><path class="cls-11" d="M457.16,145.42c0-2.16,1.26-3.58,3.16-3.58,1.35,0,2.39.71,2.84,1.89l-.58.22c-.38-.96-1.17-1.52-2.26-1.52-1.55,0-2.54,1.17-2.54,2.99s.99,3,2.54,3c1.09,0,1.89-.56,2.26-1.52l.58.22c-.45,1.18-1.49,1.9-2.84,1.9-1.89,0-3.16-1.42-3.16-3.59Z"></path></g><g><path class="cls-11" d="M443.3,217.39h5.86v.73h-5.06v3.37h4.39v.73h-4.39v4.24h-.81v-9.06Z"></path><path class="cls-11" d="M450.48,225.12v-7.73h.77v7.59c0,.6.23.85.64.85.17,0,.38-.04.61-.12v.67c-.29.11-.6.17-.84.17-.72,0-1.18-.44-1.18-1.42Z"></path><path class="cls-11" d="M453.45,223.3c0-1.84.99-3.34,2.81-3.34,1.96,0,2.76,1.53,2.76,2.94,0,.1-.01.4-.04.55h-4.76c.03,1.51.84,2.39,2.14,2.39.82,0,1.35-.23,1.91-.83l.55.49c-.73.75-1.43,1.05-2.46,1.05-1.89,0-2.91-1.41-2.91-3.25ZM458.26,222.87c0-.08,0-.16,0-.24,0-.92-.58-2.02-2-2.02-1.23,0-1.98.98-2.07,2.26h4.06Z"></path><path class="cls-11" d="M462.42,223.24l-2.37-3.19h.96l1.92,2.65,1.94-2.65h.94l-2.38,3.19,2.39,3.22h-.96l-1.93-2.67-1.94,2.67h-.94l2.37-3.22Z"></path></g><path class="cls-11" d="M241.02,69.75c0-2.17,1.27-3.59,3.16-3.59s3.18,1.42,3.18,3.59-1.27,3.58-3.18,3.58-3.16-1.42-3.16-3.58ZM244.17,72.74c1.57,0,2.55-1.16,2.55-2.99s-.99-3-2.55-3-2.54,1.15-2.54,3,.99,2.99,2.54,2.99Z"></path><path class="cls-11" d="M251.05,65.26h.48l-3.55,9.08h-.48l3.55-9.08Z"></path><path class="cls-11" d="M252.75,66.26h.93l2.35,5.66,2.35-5.66h.92v6.98h-.62v-6.16l-2.35,5.59h-.61l-2.36-5.59v6.16h-.62v-6.98Z"></path><g><path class="cls-11" d="M382.37,66.26h1.94c1.53,0,2.29.72,2.29,1.92,0,.97-.5,1.6-1.43,1.83l1.88,3.22h-.71l-1.8-3.13c-.16,0-.34,0-.5,0h-1.05v3.13h-.62v-6.98ZM384.25,69.56c1.06,0,1.73-.43,1.73-1.37s-.68-1.37-1.73-1.37h-1.26v2.74h1.26Z"></path><path class="cls-11" d="M388.23,66.26h4.56v.56h-3.94v2.59h3.53v.56h-3.53v2.7h3.94v.56h-4.56v-6.98Z"></path><path class="cls-11" d="M394.08,66.26h4.51v.56h-3.89v2.59h3.38v.56h-3.38v3.26h-.62v-6.98Z"></path></g><path class="cls-11" d="M114.86,172.26h.65l1.71,6.06,1.76-5.7h.63l1.76,5.7,1.7-6.06h.65l-2.01,6.98h-.63l-1.79-5.71-1.79,5.71h-.64l-2.01-6.98Z"></path><path class="cls-11" d="M127.14,171.26h.48l-3.55,9.08h-.47l3.55-9.08Z"></path><path class="cls-11" d="M128.84,172.26h1.87c2.26,0,3.56,1.29,3.56,3.54s-1.27,3.43-3.57,3.43h-1.86v-6.98ZM130.65,178.66c1.92,0,2.99-.89,2.99-2.88s-1.08-2.95-2.94-2.95h-1.24v5.83h1.19Z"></path><g><path class="cls-11" d="M51.71,191.17h.65l1.71,6.06,1.76-5.7h.63l1.76,5.7,1.7-6.06h.65l-2.01,6.98h-.63l-1.79-5.71-1.79,5.71h-.64l-2.01-6.98Z"></path><path class="cls-11" d="M61.71,191.17h.62v6.98h-.62v-6.98Z"></path><path class="cls-11" d="M63.76,194.66c0-2.16,1.26-3.58,3.16-3.58,1.35,0,2.39.71,2.84,1.89l-.58.22c-.38-.96-1.17-1.52-2.26-1.52-1.55,0-2.54,1.17-2.54,2.99s.99,3,2.54,3c1.09,0,1.89-.56,2.26-1.52l.58.22c-.45,1.18-1.49,1.9-2.84,1.9-1.89,0-3.16-1.42-3.16-3.59Z"></path></g><g><path class="cls-11" d="M242.2,145.67h1.87c2.26,0,3.56,1.29,3.56,3.54s-1.27,3.43-3.57,3.43h-1.86v-6.98ZM244.01,152.07c1.92,0,2.99-.89,2.99-2.88s-1.08-2.95-2.94-2.95h-1.24v5.83h1.19Z"></path><path class="cls-11" d="M248.29,145.67h.65l1.71,6.06,1.76-5.7h.63l1.76,5.7,1.7-6.06h.65l-2.01,6.98h-.63l-1.79-5.71-1.79,5.71h-.64l-2.01-6.98Z"></path></g><g><path class="cls-11" d="M345.75,145.67h.65l1.71,6.06,1.76-5.7h.63l1.76,5.7,1.7-6.06h.65l-2.01,6.98h-.63l-1.79-5.71-1.79,5.71h-.64l-2.01-6.98Z"></path><path class="cls-11" d="M355.76,145.67h4.51v.56h-3.89v2.59h3.38v.56h-3.38v3.26h-.62v-6.98Z"></path></g><g><path class="cls-15" d="M385.03,551.66h.5v5.12h2.57v.45h-3.07v-5.57Z"></path><path class="cls-15" d="M388.62,555.29c0-1.13.61-2.05,1.73-2.05,1.21,0,1.7.94,1.7,1.81,0,.06,0,.24-.02.34h-2.93c.02.93.52,1.47,1.32,1.47.5,0,.83-.14,1.17-.51l.34.3c-.45.46-.88.65-1.51.65-1.16,0-1.79-.87-1.79-2ZM391.59,555.03s0-.1,0-.15c0-.57-.36-1.24-1.23-1.24-.75,0-1.22.6-1.27,1.39h2.49Z"></path><path class="cls-15" d="M392.99,555.26c0-1.21.79-2.02,1.79-2.02.64,0,1.15.33,1.41.84v-2.41h.47v5.57h-.47v-.78c-.27.52-.77.83-1.41.83-1.05,0-1.79-.88-1.79-2.03ZM394.86,556.85c.8,0,1.37-.66,1.37-1.59s-.57-1.59-1.37-1.59-1.39.67-1.39,1.59.58,1.59,1.39,1.59Z"></path><path class="cls-15" d="M397.74,557.7s0-.06.02-.16l.68-.54c-.35-.14-.59-.36-.59-.78,0-.32.16-.55.44-.74-.22-.23-.34-.54-.34-.89,0-.8.64-1.36,1.47-1.36.4,0,.75.13,1.01.36l.63-.53.24.3-.62.54c.12.2.18.44.18.7,0,.79-.59,1.31-1.44,1.31-.32,0-.61-.08-.84-.21-.19.11-.28.26-.28.44,0,.41.39.51,1,.6.98.15,1.84.27,1.84,1.08,0,.72-.64,1.1-1.66,1.1-1.12,0-1.75-.43-1.75-1.23ZM399.5,558.56c.67,0,1.18-.21,1.18-.66,0-.53-.71-.59-1.42-.7-.19-.03-.37-.06-.55-.1l-.49.56c0,.06,0,.07,0,.09,0,.55.49.82,1.29.82ZM399.42,555.53c.6,0,.98-.4.98-.94s-.39-.96-.97-.96-1,.4-1,.95.39.95.99.95Z"></path><path class="cls-15" d="M401.89,555.29c0-1.13.61-2.05,1.73-2.05,1.21,0,1.7.94,1.7,1.81,0,.06,0,.24-.02.34h-2.93c.02.93.52,1.47,1.32,1.47.5,0,.83-.14,1.17-.51l.34.3c-.45.46-.88.65-1.51.65-1.16,0-1.79-.87-1.79-2ZM404.85,555.03s0-.1,0-.15c0-.57-.36-1.24-1.23-1.24-.75,0-1.22.6-1.27,1.39h2.49Z"></path></g><polyline class="cls-1" points="379.35 553.9 368.2 553.9 358.5 540.48"></polyline><path class="cls-14" d="M356.14,537.21l4.99,3.39s-2.63-.12-3.35,2.42l-1.65-5.81Z"></path></g></g></svg> 