<?xml version="1.0" encoding="UTF-8"?> <svg xmlns="http://www.w3.org/2000/svg" id="Layer_2" data-name="Layer 2" viewBox="0 0 758.76 702.86"><defs><style> .cls-1 { stroke: #afa49f; } .cls-1, .cls-2, .cls-3, .cls-4, .cls-5, .cls-6, .cls-7, .cls-8, .cls-9, .cls-10, .cls-11 { fill: none; } .cls-1, .cls-2, .cls-4, .cls-6, .cls-7, .cls-9, .cls-10 { stroke-width: .25px; } .cls-1, .cls-8, .cls-9 { stroke-miterlimit: 10; } .cls-2 { stroke-dasharray: 1.54 1.54; } .cls-2, .cls-3, .cls-4, .cls-5, .cls-6, .cls-7, .cls-10, .cls-11 { stroke-linecap: round; stroke-linejoin: round; } .cls-2, .cls-4, .cls-6, .cls-7 { stroke: #75655e; } .cls-12 { fill: #3a2a22; } .cls-3 { stroke: #55453d; stroke-width: .15px; } .cls-4 { stroke-dasharray: 6.04 5.04; } .cls-13 { fill: #fff; } .cls-5, .cls-8 { stroke-width: .75px; } .cls-5, .cls-8, .cls-10, .cls-11 { stroke: #3a2a22; } .cls-14 { fill: #bc8ebc; } .cls-7 { stroke-dasharray: 6.14 5.12; } .cls-9 { stroke: #bc8ebc; } .cls-15 { fill: #afa49f; } .cls-11 { stroke-width: .35px; } .cls-16 { fill: #75655e; } </style></defs><g id="Layer_1-2" data-name="Layer 1"><g><polyline class="cls-6" points="632.23 167.46 644.79 167.46 639.62 123.1 647.66 122.18 679.07 393.84"></polyline><polygon class="cls-13" points="670.98 .38 668.91 18.51 662.16 78.29 654.13 77.36 660.78 18.51 598.22 18.51 598.22 167.46 632.23 167.46 654.39 393.84 654.4 393.83 702.73 393.83 758.63 547.59 724.16 558.86 689.61 569.67 654.96 580.21 620.12 590.28 585.29 600.07 550.27 609.5 515.16 618.55 479.95 627.15 444.75 635.46 409.36 643.41 373.88 650.98 338.39 658.1 302.82 664.94 267.15 671.41 231.4 677.5 195.64 683.14 159.79 688.5 123.84 693.4 87.9 698.02 51.95 702.17 46.58 702.74 46.58 672.36 46.58 406.15 .38 406.15 .38 296.05 197.83 296.05 197.83 210.44 162.08 210.44 162.08 127.84 150.52 127.84 150.52 85.84 244.03 85.84 244.03 .38 670.98 .38"></polygon><polygon class="cls-11" points="753.09 544.91 699.68 398.18 656.53 398.18 656.53 396.15 701.06 396.15 755.67 546.2 721.67 557.2 687.57 567.92 653.39 578.27 619.11 588.25 584.73 597.85 550.18 607.09 515.62 616.06 480.88 624.56 446.13 632.78 411.3 640.64 376.37 648.12 341.35 655.24 306.24 661.98 271.13 668.36 235.92 674.36 200.63 680.09 165.24 685.36 129.85 690.25 94.46 694.87 58.98 699.03 58.98 681.48 61.01 681.48 61.01 696.82 96.21 692.56 131.42 688.04 166.62 683.14 201.64 677.87 236.75 672.24 271.68 666.23 306.61 659.86 341.44 653.11 376.19 646.09 410.93 638.6 445.58 630.84 480.14 622.71 514.51 614.21 548.88 605.34 583.16 596.19 617.35 586.58 651.45 576.7 685.45 566.44 719.27 555.91 753.09 544.91"></polygon><g><path class="cls-3" d="M218.27,136.25c0,25.52-20.68,43.4-46.2,43.4"></path><path class="cls-3" d="M304.81,152.56c0-23.16,18.64-39.39,41.62-39.39"></path><path class="cls-3" d="M455.05,151.45c0-23.16-18.64-39.39-41.62-39.39"></path><path class="cls-3" d="M220.54,459.79c0-23.16,18.64-39.39,41.62-39.39"></path><path class="cls-3" d="M169.84,354.52c-23.16,0-39.39,18.64-39.39,41.62"></path><path class="cls-3" d="M577.36,441.28c23.16,0,39.39-18.64,39.39-41.62"></path></g><line class="cls-3" x1="162.07" y1="133.45" x2="162.07" y2="179.65"></line><line class="cls-3" x1="172.07" y1="136.25" x2="172.07" y2="179.65"></line><rect class="cls-11" x="172.07" y="133.45" width="46.2" height="2.8"></rect><rect class="cls-11" x="304.81" y="152.56" width="41.62" height="2.23"></rect><rect class="cls-11" x="214.76" y="220.59" width="41.58" height="2.23"></rect><rect class="cls-11" x="413.42" y="151.45" width="41.62" height="2.23"></rect><rect class="cls-11" x="220.54" y="459.79" width="41.62" height="2.23"></rect><rect class="cls-11" x="169.84" y="354.52" width="2.23" height="41.62"></rect><rect class="cls-11" x="318.71" y="467.75" width="41.58" height="2.23"></rect><rect class="cls-11" x="297.92" y="469.99" width="41.58" height="2.23"></rect><rect class="cls-11" x="187.04" y="396.15" width="41.62" height="2.23"></rect><rect class="cls-11" x="575.12" y="399.66" width="2.23" height="41.62"></rect><rect class="cls-11" x="423.86" y="54.27" width="2.23" height="41.58"></rect><rect class="cls-11" x="177.8" y="127.15" width="62.37" height="2.23"></rect><line class="cls-11" x1="208.99" y1="127.15" x2="208.99" y2="129.34"></line><polyline class="cls-6" points="376.35 374.59 376.35 375.34 375.6 375.34"></polyline><line class="cls-2" x1="374.07" y1="375.34" x2="350.26" y2="375.34"></line><polyline class="cls-6" points="349.49 375.34 348.74 375.34 348.74 374.59"></polyline><line class="cls-2" x1="348.74" y1="373.05" x2="348.74" y2="349.25"></line><polyline class="cls-6" points="348.74 348.48 348.74 347.73 349.49 347.73"></polyline><line class="cls-2" x1="351.03" y1="347.73" x2="374.84" y2="347.73"></line><polyline class="cls-6" points="375.6 347.73 376.35 347.73 376.35 348.48"></polyline><line class="cls-2" x1="376.35" y1="350.01" x2="376.35" y2="373.82"></line><polyline class="cls-6" points="376.35 270.61 376.35 271.36 375.6 271.36"></polyline><line class="cls-2" x1="374.07" y1="271.36" x2="350.26" y2="271.36"></line><polyline class="cls-6" points="349.49 271.36 348.74 271.36 348.74 270.61"></polyline><line class="cls-2" x1="348.74" y1="269.08" x2="348.74" y2="245.27"></line><polyline class="cls-6" points="348.74 244.5 348.74 243.75 349.49 243.75"></polyline><line class="cls-2" x1="351.03" y1="243.75" x2="374.84" y2="243.75"></line><polyline class="cls-6" points="375.6 243.75 376.35 243.75 376.35 244.5"></polyline><line class="cls-2" x1="376.35" y1="246.04" x2="376.35" y2="269.85"></line><line class="cls-6" x1="286.01" y1="262.55" x2="286.01" y2="265.55"></line><line class="cls-7" x1="286.01" y1="270.68" x2="286.01" y2="358.25"></line><line class="cls-6" x1="286.01" y1="360.81" x2="286.01" y2="363.81"></line><line class="cls-6" x1="560.15" y1="518.85" x2="563.06" y2="518.1"></line><polyline class="cls-4" points="567.94 516.84 594.44 509.98 628.72 500.93 663 491.59 697.09 481.89 725.8 473.55"></polyline><line class="cls-6" x1="728.21" y1="472.84" x2="731.1" y2="472.01"></line><line class="cls-11" x1="297.93" y1="405.39" x2="297.92" y2="226.41"></line><line class="cls-11" x1="297.92" y1="262.55" x2="270.2" y2="262.55"></line><line class="cls-11" x1="297.93" y1="363.81" x2="270.2" y2="363.81"></line><line class="cls-11" x1="295.43" y1="262.55" x2="295.43" y2="226.41"></line><line class="cls-11" x1="295.43" y1="405.39" x2="295.43" y2="363.81"></line><rect class="cls-11" x="348.75" y="240.27" width="49.71" height="138.6"></rect><g><rect class="cls-11" x="368.91" y="328.29" width="9.78" height="1.74" rx=".59" ry=".59"></rect><path class="cls-11" d="M363.01,329.16c0-.49-.4-.9-.9-.9s-.9.4-.9.9.4.9.9.9.9-.4.9-.9Z"></path></g><polyline class="cls-11" points="377.37 328.29 377.37 325.86 375.82 325.86 375.82 328.29"></polyline><line class="cls-11" x1="375.82" y1="326.72" x2="377.37" y2="326.72"></line><polyline class="cls-11" points="373.51 328.29 373.51 316.23 351.75 316.23 351.75 342.08 373.51 342.08 373.51 330.03"></polyline><polyline class="cls-11" points="372.43 330.02 372.43 341 352.83 341 352.83 317.31 372.43 317.31 372.43 328.28"></polyline><polyline class="cls-11" points="176.69 339.25 92.96 339.25 92.96 314.11"></polyline><path class="cls-11" d="M116.9,322.19h-9.87c-.4,0-.72.32-.72.72v10.9c0,.4.32.72.72.72h20.82c.4,0,.72-.32.72-.72v-10.9c0-.4-.32-.72-.72-.72h-9.48"></path><rect class="cls-11" x="116.9" y="318.74" width="1.47" height="5.89"></rect><g><circle class="cls-11" cx="117.64" cy="328.36" r=".84"></circle><path class="cls-11" d="M151.66,322.19h-9.87c-.4,0-.72.32-.72.72v10.9c0,.4.32.72.72.72h20.82c.4,0,.72-.32.72-.72v-10.9c0-.4-.32-.72-.72-.72h-9.48"></path></g><rect class="cls-11" x="151.66" y="318.74" width="1.47" height="5.89"></rect><circle class="cls-11" cx="152.4" cy="328.36" r=".84"></circle><line class="cls-11" x1="51.95" y1="390.42" x2="51.96" y2="315.05"></line><line class="cls-11" x1="51.95" y1="390.42" x2="51.96" y2="314.23"></line><line class="cls-11" x1="50.67" y1="390.42" x2="50.68" y2="314.23"></line><line class="cls-11" x1="50.67" y1="385.73" x2="51.96" y2="385.73"></line><line class="cls-11" x1="50.67" y1="347.73" x2="51.96" y2="347.73"></line><line class="cls-11" x1="10.37" y1="327.62" x2="50.68" y2="327.62"></line><g><path class="cls-11" d="M33.23,378.5c0,.67-.54,1.21-1.21,1.21s-1.21-.54-1.21-1.21.54-1.21,1.21-1.21,1.21.54,1.21,1.21Z"></path><path class="cls-11" d="M37.2,378.5c0,2.86-2.32,5.18-5.18,5.18s-5.18-2.32-5.18-5.18,2.32-5.18,5.18-5.18,5.18,2.32,5.18,5.18Z"></path><rect class="cls-11" x="63.66" y="314.23" width="17.6" height="7.45" rx="1.08" ry="1.08"></rect><path class="cls-11" d="M76.92,325.83c.28,0,.54.11.73.32,1.88,2.09,3.09,5.3,3.09,8.9,0,6.31-3.71,11.42-8.28,11.42s-8.28-5.11-8.28-11.42c0-3.6,1.2-6.8,3.08-8.9.19-.21.46-.32.73-.32h8.92Z"></path></g><line class="cls-11" x1="80.74" y1="335.05" x2="80.74" y2="321.53"></line><line class="cls-11" x1="64.18" y1="335.05" x2="64.18" y2="321.53"></line><g><rect class="cls-11" x="254.03" y="65.01" width="7.45" height="17.6" rx="1.08" ry="1.08"></rect><path class="cls-11" d="M265.63,69.36c0-.28.11-.54.32-.73,2.09-1.88,5.3-3.09,8.9-3.09,6.31,0,11.42,3.71,11.42,8.28s-5.11,8.28-11.42,8.28c-3.6,0-6.8-1.2-8.9-3.08-.21-.19-.32-.46-.32-.73v-8.92Z"></path></g><line class="cls-11" x1="274.85" y1="65.54" x2="261.33" y2="65.54"></line><line class="cls-11" x1="274.85" y1="82.09" x2="261.33" y2="82.09"></line><line class="cls-11" x1="339.13" y1="37.3" x2="339.13" y2="34.09"></line><g><path class="cls-11" d="M339.13,33.22v-11.6c0-1.38-1.12-2.5-2.5-2.5h-61.83c-1.38,0-2.5,1.12-2.5,2.5v24.04c0,1.38,1.12,2.5,2.5,2.5h61.83c1.38,0,2.5-1.12,2.5-2.5v-8.37"></path><path class="cls-11" d="M343.16,34.09h-10.86c-.24,0-.43-.19-.43-.43s.19-.43.43-.43h10.81"></path><path class="cls-11" d="M333.38,33.22c-.17-.46-.61-.79-1.14-.79-.67,0-1.21.54-1.21,1.21s.54,1.21,1.21,1.21c.51,0,.95-.32,1.13-.77"></path><path class="cls-11" d="M337.41,33.22c-.22-2.66-2.45-4.76-5.17-4.76-2.86,0-5.18,2.32-5.18,5.18s2.32,5.18,5.18,5.18c2.72,0,4.94-2.09,5.17-4.74"></path></g><rect class="cls-11" x="343.16" y="31.11" width=".97" height="5.08"></rect><line class="cls-11" x1="344.12" y1="51.87" x2="268.76" y2="51.87"></line><line class="cls-11" x1="344.12" y1="51.87" x2="267.94" y2="51.87"></line><line class="cls-11" x1="344.12" y1="53.16" x2="267.94" y2="53.15"></line><line class="cls-11" x1="339.44" y1="53.16" x2="339.44" y2="51.87"></line><line class="cls-11" x1="301.44" y1="53.16" x2="301.44" y2="51.87"></line><polyline class="cls-11" points="254.03 94.72 279.05 94.72 279.05 159.4"></polyline><path class="cls-11" d="M262.1,127.56v9.87c0,.4.32.72.72.72h10.9c.4,0,.72-.32.72-.72v-20.82c0-.4-.32-.72-.72-.72h-10.9c-.4,0-.72.32-.72.72v9.48"></path><rect class="cls-11" x="258.65" y="126.09" width="5.89" height="1.47"></rect><circle class="cls-11" cx="268.27" cy="126.82" r=".84"></circle><rect class="cls-11" x="219.7" y="231.65" width="30.61" height="38.03"></rect><rect class="cls-11" x="272.35" y="293.96" width="24.28" height="36.98"></rect><rect class="cls-11" x="273.43" y="295.04" width="22.12" height="34.82"></rect><path class="cls-11" d="M294.8,312.45c0,.71-.57,1.28-1.28,1.28s-1.28-.57-1.28-1.28.57-1.28,1.28-1.28,1.28.57,1.28,1.28Z"></path><line class="cls-11" x1="295.55" y1="329.85" x2="296.63" y2="330.93"></line><line class="cls-11" x1="295.55" y1="295.04" x2="296.63" y2="293.96"></line><line class="cls-11" x1="273.43" y1="295.04" x2="272.35" y2="293.96"></line><line class="cls-11" x1="273.44" y1="329.86" x2="272.36" y2="330.94"></line><polygon class="cls-11" points="293.52 311.39 292.46 312.45 293.52 313.5 294.57 312.45 293.52 311.39"></polygon><line class="cls-11" x1="292.46" y1="312.45" x2="294.57" y2="312.45"></line><g><path class="cls-10" d="M208.3,110.41c.03,1.51.06,3.03.13,4.57.04.8.09,1.6.13,2.35.03.57.07,1.11.16,1.78.09.65.25,1.42-.23,1.73-.11.07-.25.12-.38.13-.77.06-.9-1.18-.97-2.24-.15-2.35.04-3.74.16-5.44.06-.9.1-1.9.14-2.89-.04-.99-.08-1.98-.14-2.89-.12-1.7-.3-3.09-.16-5.44.07-1.05.2-2.3.97-2.24.13.01.27.06.38.13.48.3.32,1.08.23,1.73-.1.67-.13,1.21-.16,1.78-.04.75-.09,1.56-.13,2.36-.07,1.54-.1,3.06-.13,4.57Z"></path><path class="cls-10" d="M203.6,110.41c.03,1.51.06,3.03.13,4.57.04.8.09,1.6.13,2.35.03.57.07,1.11.16,1.78.09.65.25,1.42-.23,1.73-.11.07-.25.12-.38.13-.77.06-.9-1.18-.97-2.24-.15-2.35.04-3.74.16-5.44.06-.9.1-1.9.14-2.89-.04-.99-.08-1.98-.14-2.89-.12-1.7-.3-3.09-.16-5.44.07-1.05.2-2.3.97-2.24.13.01.27.06.38.13.48.3.33,1.08.23,1.73-.1.67-.13,1.21-.16,1.78-.04.75-.09,1.56-.13,2.36-.07,1.54-.1,3.06-.13,4.57Z"></path><path class="cls-10" d="M198.91,110.41c.03,1.51.06,3.03.13,4.57.04.8.09,1.6.13,2.35.03.57.07,1.11.16,1.78.09.65.25,1.42-.23,1.73-.11.07-.25.12-.38.13-.77.06-.9-1.18-.97-2.24-.15-2.35.04-3.74.16-5.44.06-.9.1-1.9.14-2.89-.04-.99-.08-1.98-.14-2.89-.12-1.7-.3-3.09-.16-5.44.07-1.05.2-2.3.97-2.24.13.01.27.06.38.13.48.3.33,1.08.23,1.73-.1.67-.13,1.21-.16,1.78-.04.75-.09,1.56-.13,2.36-.07,1.54-.1,3.06-.13,4.57Z"></path></g><line class="cls-10" x1="160.52" y1="110.41" x2="245.99" y2="110.41"></line><g><path class="cls-10" d="M400.2,28.45c.03,1.51.06,3.03.13,4.57.04.8.09,1.6.13,2.35.03.57.07,1.11.16,1.78.09.65.25,1.42-.23,1.73-.11.07-.25.12-.38.13-.77.06-.9-1.18-.97-2.24-.15-2.35.04-3.74.16-5.44.06-.9.1-1.9.14-2.89-.04-.99-.08-1.98-.14-2.89-.11-1.7-.3-3.09-.16-5.44.07-1.05.2-2.3.97-2.24.13.01.27.06.38.13.48.3.32,1.08.23,1.73-.1.67-.13,1.21-.16,1.78-.04.75-.09,1.56-.13,2.36-.07,1.54-.1,3.06-.13,4.57Z"></path><path class="cls-10" d="M395.51,28.45c.03,1.51.06,3.03.13,4.57.04.8.09,1.6.13,2.35.03.57.07,1.11.16,1.78.09.65.25,1.42-.23,1.73-.11.07-.25.12-.38.13-.77.06-.9-1.18-.97-2.24-.15-2.35.04-3.74.16-5.44.06-.9.1-1.9.14-2.89-.04-.99-.08-1.98-.14-2.89-.11-1.7-.3-3.09-.16-5.44.07-1.05.2-2.3.97-2.24.13.01.27.06.38.13.48.3.32,1.08.23,1.73-.1.67-.13,1.21-.16,1.78-.04.75-.09,1.56-.13,2.36-.07,1.54-.1,3.06-.13,4.57Z"></path><path class="cls-10" d="M390.81,28.45c.03,1.51.06,3.03.13,4.57.04.8.09,1.6.13,2.35.03.57.07,1.11.16,1.78.09.65.25,1.42-.23,1.73-.11.07-.25.12-.38.13-.77.06-.9-1.18-.97-2.24-.15-2.35.04-3.74.16-5.44.06-.9.1-1.9.14-2.89-.04-.99-.08-1.98-.14-2.89-.11-1.7-.3-3.09-.16-5.44.07-1.05.2-2.3.97-2.24.13.01.27.06.38.13.48.3.32,1.08.23,1.73-.1.67-.13,1.21-.16,1.78-.04.75-.09,1.56-.13,2.36-.07,1.54-.1,3.06-.13,4.57Z"></path><path class="cls-10" d="M366.82,59.41c1.51-.03,3.03-.06,4.57-.13.8-.04,1.6-.09,2.35-.13.57-.03,1.11-.07,1.78-.16.65-.09,1.42-.25,1.73.23.07.11.12.25.13.38.06.77-1.18.9-2.24.97-2.35.15-3.74-.04-5.44-.16-.9-.06-1.9-.1-2.89-.14-.99.04-1.98.08-2.89.14-1.7.12-3.09.3-5.44.16-1.05-.07-2.3-.2-2.24-.97.01-.13.06-.27.13-.38.3-.48,1.08-.32,1.73-.23.67.1,1.21.13,1.78.16.75.04,1.56.09,2.36.13,1.54.07,3.06.1,4.57.13Z"></path><path class="cls-10" d="M366.82,64.11c1.51-.03,3.03-.06,4.57-.13.8-.04,1.6-.09,2.35-.13.57-.03,1.11-.07,1.78-.16.65-.09,1.42-.25,1.73.23.07.11.12.25.13.38.06.77-1.18.9-2.24.97-2.35.15-3.74-.04-5.44-.16-.9-.06-1.9-.1-2.89-.14-.99.04-1.98.08-2.89.14-1.7.12-3.09.3-5.44.16-1.05-.07-2.3-.2-2.24-.97.01-.13.06-.27.13-.38.3-.48,1.08-.33,1.73-.23.67.1,1.21.13,1.78.16.75.04,1.56.09,2.36.13,1.54.07,3.06.1,4.57.13Z"></path><path class="cls-10" d="M366.82,68.8c1.51-.03,3.03-.06,4.57-.13.8-.04,1.6-.09,2.35-.13.57-.03,1.11-.07,1.78-.16.65-.09,1.42-.25,1.73.23.07.11.12.25.13.38.06.77-1.18.9-2.24.97-2.35.15-3.74-.04-5.44-.16-.9-.06-1.9-.1-2.89-.14-.99.04-1.98.08-2.89.14-1.7.12-3.09.3-5.44.16-1.05-.07-2.3-.2-2.24-.97.01-.13.06-.27.13-.38.3-.48,1.08-.33,1.73-.23.67.1,1.21.13,1.78.16.75.04,1.56.09,2.36.13,1.54.07,3.06.1,4.57.13Z"></path></g><polyline class="cls-10" points="366.82 100.47 366.82 28.45 423.86 28.45"></polyline><polyline class="cls-10" points="758.63 547.59 724.17 558.86 689.61 569.67 654.96 580.21 620.12 590.28 585.29 600.07 550.27 609.5 515.16 618.55 479.95 627.14 444.75 635.46 409.36 643.41 373.88 650.98 338.4 658.1 302.82 664.94 267.15 671.4 231.4 677.5 195.64 683.14 159.79 688.5 123.84 693.4 87.9 698.02 51.96 702.17 46.58 702.74 46.58 672.36"></polyline><polyline class="cls-10" points="654.4 393.84 702.73 393.84 758.63 547.59"></polyline><polyline class="cls-10" points="56.57 613.1 95.01 608.11 133.45 602.84 171.8 597.12 210.14 591.11 248.4 584.64 286.56 577.9 324.72 570.87 362.79 563.39 400.76 555.54 438.74 547.4 476.53 538.9 514.32 530.03 552.02 520.79"></polyline><line class="cls-10" x1="619.01" y1="391.53" x2="646.09" y2="391.53"></line><polyline class="cls-10" points="572.81 391.53 552.02 391.53 552.02 442.35"></polyline><line class="cls-10" x1="646.09" y1="391.53" x2="624.83" y2="175.59"></line><line class="cls-10" x1="624.83" y1="175.59" x2="590.18" y2="175.59"></line><line class="cls-10" x1="590.18" y1="175.59" x2="590.18" y2="10.38"></line><line class="cls-10" x1="654.13" y1="77.37" x2="660.78" y2="18.51"></line><line class="cls-10" x1="560.15" y1="518.85" x2="575.95" y2="514.79"></line><line class="cls-10" x1="668.68" y1=".38" x2="662.9" y2=".38"></line><polygon class="cls-5" points="668.68 .38 666.88 16.2 595.91 16.2 595.91 169.77 630.1 169.77 652.46 397.35 619.01 397.35 619.01 399.66 654.96 399.66 632.23 167.46 598.22 167.46 598.22 18.51 668.91 18.51 670.98 .38 668.68 .38"></polygon><polygon class="cls-5" points="659.85 78.01 666.6 18.51 668.91 18.51 662.16 78.29 659.85 78.01"></polygon><polygon class="cls-5" points="557.84 442.35 557.84 397.35 572.81 397.35 572.81 399.66 560.15 399.66 560.15 442.35 552.02 442.35 557.84 442.35"></polygon><polygon class="cls-5" points="46.58 678.11 62.3 676.67 62.3 618.18 100.74 613.19 139.18 607.83 177.62 602.1 215.87 596.01 254.13 589.54 292.38 582.79 330.54 575.59 368.61 568.1 406.59 560.25 444.47 552.02 482.35 543.52 520.15 534.56 557.85 525.32 557.85 511.65 560.16 511.65 560.16 527.17 522.46 536.41 484.66 545.37 446.78 553.87 408.9 562.1 370.92 569.95 332.85 577.53 294.69 584.64 256.44 591.48 218.18 597.95 179.93 604.05 141.49 609.77 103.05 615.23 64.61 620.22 64.61 678.8 46.58 680.45 46.58 678.11"></polygon><polygon class="cls-5" points="560.15 524.77 577.43 520.42 577.99 522.64 560.15 527.17 560.15 524.77"></polygon><polyline class="cls-5" points="623.26 175.59 624.84 175.59 625.02 177.06 630.29 171.34 630.1 169.77 628.53 169.77 623.26 175.59"></polyline><polyline class="cls-5" points="650.71 397.35 652.46 397.35 652.28 395.59 645.9 389.86 646.09 391.53 644.33 391.53 650.71 397.35"></polyline><polyline class="cls-5" points="552.02 519.41 552.02 520.79 550.64 521.16 556.37 525.69 557.84 525.32 557.84 523.84 552.02 519.41"></polyline><rect class="cls-5" x="56.57" y="619.38" width="5.73" height="2.31"></rect><polyline class="cls-5" points="56.57 669.83 56.57 671.4 54.91 671.59 59.62 675.75 60.73 676.76 62.3 676.67 62.3 675.1 56.57 669.83"></polyline><polyline class="cls-5" points="132.44 602.94 133.27 608.67 130.96 609.03 130.13 603.31 132.44 602.94"></polyline><polyline class="cls-5" points="200.81 592.59 201.74 598.32 199.43 598.69 198.5 592.96 200.81 592.59"></polyline><polyline class="cls-5" points="269 581.04 270.02 586.77 267.8 587.14 266.79 581.5 269 581.04"></polyline><polyline class="cls-5" points="337.01 568.47 338.12 574.11 335.9 574.57 334.79 568.93 337.01 568.47"></polyline><polyline class="cls-5" points="371.01 561.73 372.12 567.36 369.9 567.82 368.7 562.19 371.01 561.73"></polyline><polyline class="cls-5" points="404.83 554.7 406.03 560.34 403.81 560.8 402.61 555.17 404.83 554.7"></polyline><polyline class="cls-5" points="472.47 539.83 473.76 545.46 471.45 546.02 470.16 540.38 472.47 539.83"></polyline><polyline class="cls-5" points="539.73 523.84 541.12 529.48 538.9 530.03 537.52 524.4 539.73 523.84"></polyline><polyline class="cls-5" points="64.71 612.08 65.45 617.81 63.14 618.09 62.49 612.36 64.71 612.08"></polyline><rect class="cls-5" x="552.02" y="511.65" width="5.82" height="2.31"></rect><rect class="cls-5" x="572.81" y="391.53" width="2.31" height="8.13"></rect><rect class="cls-5" x="616.7" y="391.53" width="2.31" height="8.13"></rect><rect class="cls-5" x="552.02" y="398.46" width="5.82" height="2.31"></rect><rect class="cls-5" x="552.02" y="440.04" width="5.82" height="2.31"></rect><rect class="cls-5" x="558.95" y="391.53" width="2.31" height="5.82"></rect><rect class="cls-5" x="590.18" y="158.22" width="5.73" height="2.31"></rect><rect class="cls-5" x="597.11" y="169.77" width="2.31" height="5.82"></rect><rect class="cls-5" x="590.18" y="88.92" width="5.73" height="2.31"></rect><polyline class="cls-5" points="625.2 178.91 630.93 178.36 631.21 180.67 625.39 181.22 625.2 178.91"></polyline><polyline class="cls-5" points="631.95 247.84 637.68 247.29 637.96 249.6 632.23 250.15 631.95 247.84"></polyline><polyline class="cls-5" points="638.69 316.87 644.52 316.31 644.7 318.62 638.97 319.18 638.69 316.87"></polyline><rect class="cls-5" x="590.18" y="17.31" width="5.73" height="2.31"></rect><rect class="cls-5" x="597.11" y="10.38" width="2.31" height="5.82"></rect><polyline class="cls-5" points="661.89 8.8 661.7 10.38 660.13 10.38 665.31 16.2 666.88 16.2 667.06 14.63 661.89 8.8"></polyline><polyline class="cls-5" points="654.31 75.06 660.13 75.7 659.85 78.01 654.13 77.37 654.31 75.06"></polyline><polyline class="cls-5" points="575.96 514.79 577.43 520.42 575.22 520.98 573.74 515.34 575.96 514.79"></polyline><polygon class="cls-12" points="162.07 133.45 172.07 133.45 172.07 129.39 177.8 129.39 177.8 123.56 172.07 123.56 172.07 117.84 160.52 117.84 160.52 95.84 245.99 95.84 245.99 123.56 240.17 123.56 240.17 129.39 248.3 129.39 248.3 165.14 352.25 165.14 352.25 154.8 346.43 154.8 346.43 159.42 254.03 159.42 254.03 53.16 267.89 53.16 267.89 13.89 344.12 13.89 344.12 53.16 346.43 53.16 346.43 113.22 352.25 113.22 352.25 106.29 407.69 106.29 407.69 112.11 413.42 112.11 413.42 106.29 429.59 106.29 429.59 95.84 423.86 95.84 423.86 100.46 352.25 100.46 352.25 13.89 423.86 13.89 423.86 54.26 429.59 54.26 429.59 13.89 590.18 13.89 590.18 10.37 661.7 10.37 662.9 .38 244.03 .38 244.03 85.84 150.52 85.84 150.52 127.84 162.07 127.84 162.07 133.45"></polygon><polygon class="cls-8" points="162.07 133.45 172.07 133.45 172.07 129.39 177.8 129.39 177.8 123.56 172.07 123.56 172.07 117.84 160.52 117.84 160.52 95.84 245.99 95.84 245.99 123.56 240.17 123.56 240.17 129.39 248.3 129.39 248.3 165.14 352.25 165.14 352.25 154.8 346.43 154.8 346.43 159.42 254.03 159.42 254.03 53.16 267.89 53.16 267.89 13.89 344.12 13.89 344.12 53.16 346.43 53.16 346.43 113.22 352.25 113.22 352.25 106.29 407.69 106.29 407.69 112.11 413.42 112.11 413.42 106.29 429.59 106.29 429.59 95.84 423.86 95.84 423.86 100.46 352.25 100.46 352.25 13.89 423.86 13.89 423.86 54.26 429.59 54.26 429.59 13.89 590.18 13.89 590.18 10.37 661.7 10.37 662.9 .38 244.03 .38 244.03 85.84 150.52 85.84 150.52 127.84 162.07 127.84 162.07 133.45"></polygon><polygon class="cls-12" points="590.18 159.42 590.18 175.59 598.22 175.59 598.22 181.96 454.45 181.96 454.45 165.15 407.69 165.15 407.69 153.69 413.42 153.69 413.42 159.42 590.18 159.42"></polygon><polygon class="cls-8" points="590.18 159.42 590.18 175.59 598.22 175.59 598.22 181.96 454.45 181.96 454.45 165.15 407.69 165.15 407.69 153.69 413.42 153.69 413.42 159.42 590.18 159.42"></polygon><polygon class="cls-12" points=".38 296.06 .38 406.15 46.58 406.15 46.58 672.36 56.58 671.41 56.58 613.1 59.99 612.64 59.99 401.97 130.49 401.97 130.49 396.15 51.96 396.15 51.96 390.42 10.38 390.42 10.38 314.19 176.7 314.19 176.7 396.15 172.08 396.15 172.08 401.97 187.04 401.97 187.04 396.15 182.42 396.15 182.42 306.06 262.17 306.06 262.17 396.15 228.62 396.15 228.62 401.97 262.17 401.97 262.17 420.45 267.89 420.45 267.89 414.63 297.92 414.63 297.92 405.39 270.2 405.39 270.2 226.41 297.92 226.41 297.92 220.59 256.34 220.59 256.34 226.41 262.17 226.41 262.17 274.92 207.83 274.92 207.83 226.41 214.76 226.41 214.76 220.59 207.83 220.59 207.83 200.44 172.08 200.44 172.08 179.65 162.08 179.65 162.08 210.44 197.83 210.44 197.83 296.06 .38 296.06"></polygon><polygon class="cls-8" points=".38 296.06 .38 406.15 46.58 406.15 46.58 672.36 56.58 671.41 56.58 613.1 59.99 612.64 59.99 401.97 130.49 401.97 130.49 396.15 51.96 396.15 51.96 390.42 10.38 390.42 10.38 314.19 176.7 314.19 176.7 396.15 172.08 396.15 172.08 401.97 187.04 401.97 187.04 396.15 182.42 396.15 182.42 306.06 262.17 306.06 262.17 396.15 228.62 396.15 228.62 401.97 262.17 401.97 262.17 420.45 267.89 420.45 267.89 414.63 297.92 414.63 297.92 405.39 270.2 405.39 270.2 226.41 297.92 226.41 297.92 220.59 256.34 220.59 256.34 226.41 262.17 226.41 262.17 274.92 207.83 274.92 207.83 226.41 214.76 226.41 214.76 220.59 207.83 220.59 207.83 200.44 172.08 200.44 172.08 179.65 162.08 179.65 162.08 210.44 197.83 210.44 197.83 296.06 .38 296.06"></polygon><polygon class="cls-12" points="538.63 524.12 552.02 520.79 552.02 511.65 570.5 511.65 570.5 442.35 552.02 442.35 552.02 441.24 546.29 441.24 546.29 516.36 537.24 518.58 538.63 524.12"></polygon><polygon class="cls-8" points="538.63 524.12 552.02 520.79 552.02 511.65 570.5 511.65 570.5 442.35 552.02 442.35 552.02 441.24 546.29 441.24 546.29 516.36 537.24 518.58 538.63 524.12"></polygon><polygon class="cls-12" points="267.89 581.31 233.8 587.14 199.7 592.77 198.78 587.04 228.07 582.24 228.07 467.75 262.16 467.75 262.16 462.03 267.89 462.03 267.89 467.75 297.92 467.75 297.92 473.58 249.97 473.58 249.97 578.54 266.78 575.49 267.89 581.31"></polygon><polygon class="cls-8" points="267.89 581.31 233.8 587.14 199.7 592.77 198.78 587.04 228.07 582.24 228.07 467.75 262.16 467.75 262.16 462.03 267.89 462.03 267.89 467.75 297.92 467.75 297.92 473.58 249.97 473.58 249.97 578.54 266.78 575.49 267.89 581.31"></polygon><polygon class="cls-12" points="402.52 549.34 403.72 554.98 369.81 561.91 368.7 556.27 384.59 553.04 384.59 473.58 381.08 473.58 381.08 467.76 390.32 467.76 390.32 551.84 402.52 549.34 403.72 554.98 402.52 549.34"></polygon><polygon class="cls-8" points="402.52 549.34 403.72 554.98 369.81 561.91 368.7 556.27 384.59 553.04 384.59 473.58 381.08 473.58 381.08 467.76 390.32 467.76 390.32 551.84 402.52 549.34 403.72 554.98 402.52 549.34"></polygon><g><path class="cls-14" d="M149.92,156.41c.08.02.14.07.14.14s-.06.13-.14.14c-3.3.56-4.94,2.74-4.94,6.02v3.84c0,1.16-1.01,1.98-2.66,2.2-.34.05-.61-.23-.46-.47.31-.46.47-1.06.47-1.78v-3.48c0-2.95,1.67-5.22,4.98-6.17.37-.11.37-.5,0-.61-3.31-.96-4.98-3.22-4.98-6.18v-3.48c0-.72-.16-1.32-.47-1.78-.16-.23.12-.51.46-.47,1.64.22,2.66,1.05,2.66,2.21v3.84c0,3.29,1.64,5.47,4.95,6.02h0Z"></path><path class="cls-9" d="M149.92,156.41c.08.02.14.07.14.14s-.06.13-.14.14c-3.3.56-4.94,2.74-4.94,6.02v3.84c0,1.16-1.01,1.98-2.66,2.2-.34.05-.61-.23-.46-.47.31-.46.47-1.06.47-1.78v-3.48c0-2.95,1.67-5.22,4.98-6.17.37-.11.37-.5,0-.61-3.31-.96-4.98-3.22-4.98-6.18v-3.48c0-.72-.16-1.32-.47-1.78-.16-.23.12-.51.46-.47,1.64.22,2.66,1.05,2.66,2.21v3.84c0,3.29,1.64,5.47,4.95,6.02h0Z"></path></g><g><path class="cls-12" d="M95.33,487.09h2.52c1.9,0,2.97.89,2.97,2.53s-1.07,2.54-2.97,2.54h-1.72v3.99h-.8v-9.06ZM97.77,491.44c1.41,0,2.24-.61,2.24-1.81s-.81-1.81-2.24-1.81h-1.64v3.62h1.64Z"></path><path class="cls-12" d="M102.34,489.75h.78v1.09c.43-.78,1.31-1.18,2.02-1.18.33,0,.66.07.99.24l-.39.7c-.21-.1-.51-.17-.77-.17-.68,0-1.46.36-1.74,1.3-.08.27-.12.57-.12,1.27v3.15h-.78v-6.41Z"></path><path class="cls-12" d="M107.39,487.09h.94v1.39h-.94v-1.39ZM107.48,489.75h.77v6.41h-.77v-6.41Z"></path><path class="cls-12" d="M110.28,489.75h.78v1.1c.38-.84,1.11-1.19,1.88-1.19.91,0,1.57.4,1.89,1.25.4-.83,1.09-1.25,2-1.25,1.55,0,2.13,1.16,2.13,2.68v3.82h-.78v-3.64c0-1.33-.39-2.18-1.52-2.18-1.02,0-1.65.77-1.65,2.26v3.57h-.78v-3.76c0-1.4-.52-2.07-1.5-2.07-1.03,0-1.67.79-1.67,2.26v3.57h-.78v-6.41Z"></path><path class="cls-12" d="M125.11,494.95c-.43.82-1.25,1.29-2.25,1.29-1.44,0-2.31-.77-2.31-1.94,0-.69.29-1.16.72-1.44.46-.31,1.09-.42,1.77-.42h2.05v-.28c0-1.19-.62-1.83-1.82-1.83-.79,0-1.4.29-1.98,1.02l-.56-.48c.68-.84,1.53-1.21,2.59-1.21,1.63,0,2.54.89,2.54,2.51v3.99h-.71l-.04-1.2ZM122.93,495.6c1.18,0,2.17-.93,2.17-2.2v-.36h-1.95c-.51,0-1.03.08-1.37.32-.28.21-.44.51-.44.94,0,.79.6,1.3,1.6,1.3Z"></path><path class="cls-12" d="M127.82,489.75h.78v1.09c.43-.78,1.31-1.18,2.02-1.18.33,0,.66.07.99.24l-.39.7c-.21-.1-.51-.17-.77-.17-.68,0-1.46.36-1.74,1.3-.08.27-.12.57-.12,1.27v3.15h-.78v-6.41Z"></path><path class="cls-12" d="M134.87,495.95l-2.55-6.21h.86l2.1,5.42,2.11-5.42h.85l-3.69,9.05h-.84l1.17-2.84Z"></path><path class="cls-12" d="M143.14,487.09h2.72c1.68,0,2.68.84,2.68,2.25,0,.94-.46,1.68-1.24,2,1.1.25,1.7,1.07,1.7,2.31,0,1.61-1.02,2.5-2.88,2.5h-2.97v-9.06ZM146.11,491.1c.98,0,1.63-.64,1.63-1.64s-.69-1.61-1.88-1.61h-1.91v3.26h2.16ZM146.05,495.41c1.42,0,2.14-.6,2.14-1.79,0-1.13-.66-1.79-1.79-1.79h-2.46v3.58h2.11Z"></path><path class="cls-12" d="M150.46,493c0-1.84.99-3.34,2.81-3.34,1.96,0,2.76,1.53,2.76,2.94,0,.1-.01.4-.04.55h-4.76c.03,1.51.84,2.39,2.14,2.39.82,0,1.35-.23,1.91-.83l.55.49c-.73.75-1.43,1.05-2.46,1.05-1.89,0-2.91-1.41-2.91-3.25ZM155.28,492.57c0-.08,0-.16,0-.24,0-.92-.58-2.01-2-2.01-1.23,0-1.98.98-2.07,2.26h4.06Z"></path><path class="cls-12" d="M157.44,492.94c0-1.96,1.29-3.29,2.92-3.29,1.05,0,1.87.54,2.29,1.36v-3.92h.77v9.06h-.77v-1.26c-.44.84-1.25,1.35-2.29,1.35-1.72,0-2.92-1.42-2.92-3.3ZM160.48,495.52c1.3,0,2.23-1.08,2.23-2.58s-.93-2.58-2.23-2.58-2.26,1.09-2.26,2.58.95,2.58,2.26,2.58Z"></path><path class="cls-12" d="M165.46,489.75h.78v1.09c.43-.78,1.31-1.18,2.02-1.18.33,0,.66.07.99.24l-.39.7c-.21-.1-.51-.17-.77-.17-.68,0-1.46.36-1.74,1.3-.08.27-.12.57-.12,1.27v3.15h-.78v-6.41Z"></path><path class="cls-12" d="M169.84,492.94c0-1.92,1.25-3.29,3.05-3.29s3.04,1.37,3.04,3.29-1.27,3.3-3.04,3.3-3.05-1.37-3.05-3.3ZM172.89,495.55c1.37,0,2.26-1.04,2.26-2.61s-.9-2.61-2.26-2.61-2.28,1.05-2.28,2.61.9,2.61,2.28,2.61Z"></path><path class="cls-12" d="M177.37,492.94c0-1.92,1.25-3.29,3.05-3.29s3.04,1.37,3.04,3.29-1.27,3.3-3.04,3.3-3.05-1.37-3.05-3.3ZM180.42,495.55c1.37,0,2.26-1.04,2.26-2.61s-.9-2.61-2.26-2.61-2.28,1.05-2.28,2.61.9,2.61,2.28,2.61Z"></path><path class="cls-12" d="M185.21,489.75h.78v1.1c.38-.84,1.11-1.19,1.88-1.19.91,0,1.57.4,1.89,1.25.4-.83,1.09-1.25,2-1.25,1.55,0,2.13,1.16,2.13,2.68v3.82h-.78v-3.64c0-1.33-.39-2.18-1.52-2.18-1.02,0-1.65.77-1.65,2.26v3.57h-.78v-3.76c0-1.4-.52-2.07-1.5-2.07-1.03,0-1.67.79-1.67,2.26v3.57h-.78v-6.41Z"></path></g><g><path class="cls-12" d="M484.22,81.59h2.72c1.68,0,2.68.84,2.68,2.25,0,.94-.46,1.68-1.24,2,1.1.25,1.7,1.07,1.7,2.31,0,1.61-1.02,2.5-2.88,2.5h-2.97v-9.06ZM487.19,85.6c.98,0,1.63-.64,1.63-1.64s-.69-1.61-1.88-1.61h-1.91v3.26h2.16ZM487.14,89.91c1.42,0,2.14-.6,2.14-1.79,0-1.13-.66-1.79-1.79-1.79h-2.46v3.58h2.11Z"></path><path class="cls-12" d="M491.52,87.5c0-1.84.99-3.34,2.81-3.34,1.96,0,2.76,1.53,2.76,2.94,0,.1-.01.4-.04.55h-4.76c.03,1.51.84,2.39,2.14,2.39.82,0,1.35-.23,1.91-.83l.55.49c-.73.75-1.43,1.05-2.46,1.05-1.89,0-2.91-1.41-2.91-3.25ZM496.34,87.07c0-.08,0-.16,0-.24,0-.92-.58-2.02-2-2.02-1.23,0-1.98.98-2.07,2.26h4.06Z"></path><path class="cls-12" d="M498.49,87.44c0-1.96,1.29-3.29,2.92-3.29,1.05,0,1.87.54,2.29,1.36v-3.92h.77v9.06h-.77v-1.26c-.44.85-1.25,1.35-2.29,1.35-1.72,0-2.92-1.42-2.92-3.3ZM501.53,90.03c1.3,0,2.23-1.08,2.23-2.58s-.93-2.58-2.23-2.58-2.26,1.09-2.26,2.58.95,2.58,2.26,2.58Z"></path><path class="cls-12" d="M506.5,84.25h.78v1.09c.43-.78,1.31-1.18,2.02-1.18.33,0,.66.07.99.24l-.39.7c-.21-.1-.51-.17-.77-.17-.68,0-1.46.36-1.74,1.3-.08.27-.12.57-.12,1.27v3.15h-.78v-6.41Z"></path><path class="cls-12" d="M510.88,87.44c0-1.92,1.25-3.29,3.05-3.29s3.04,1.36,3.04,3.29-1.27,3.3-3.04,3.3-3.05-1.36-3.05-3.3ZM513.93,90.05c1.37,0,2.26-1.04,2.26-2.61s-.9-2.61-2.26-2.61-2.28,1.05-2.28,2.61.9,2.61,2.28,2.61Z"></path><path class="cls-12" d="M518.42,87.44c0-1.92,1.25-3.29,3.05-3.29s3.04,1.36,3.04,3.29-1.27,3.3-3.04,3.3-3.05-1.36-3.05-3.3ZM521.46,90.05c1.37,0,2.26-1.04,2.26-2.61s-.9-2.61-2.26-2.61-2.28,1.05-2.28,2.61.9,2.61,2.28,2.61Z"></path><path class="cls-12" d="M526.25,84.25h.78v1.1c.38-.85,1.11-1.19,1.88-1.19.91,0,1.57.4,1.89,1.25.4-.83,1.09-1.25,2-1.25,1.55,0,2.13,1.16,2.13,2.68v3.82h-.78v-3.64c0-1.33-.39-2.18-1.52-2.18-1.02,0-1.65.77-1.65,2.26v3.57h-.78v-3.76c0-1.4-.52-2.07-1.5-2.07-1.03,0-1.67.79-1.67,2.26v3.57h-.78v-6.41Z"></path></g><g><path class="cls-12" d="M212.46,178.16h5.86v.73h-5.06v3.37h4.39v.73h-4.39v4.24h-.81v-9.06Z"></path><path class="cls-12" d="M219.05,184.01c0-1.92,1.25-3.29,3.05-3.29s3.04,1.36,3.04,3.29-1.27,3.3-3.04,3.3-3.05-1.36-3.05-3.3ZM222.1,186.62c1.37,0,2.26-1.04,2.26-2.61s-.9-2.61-2.26-2.61-2.28,1.05-2.28,2.61.9,2.61,2.28,2.61Z"></path><path class="cls-12" d="M228.62,187.02l-2.55-6.21h.86l2.1,5.42,2.11-5.42h.85l-3.69,9.05h-.84l1.17-2.84Z"></path><path class="cls-12" d="M232.94,184.06c0-1.84.99-3.34,2.81-3.34,1.96,0,2.76,1.53,2.76,2.94,0,.1-.01.4-.04.55h-4.76c.03,1.51.84,2.39,2.14,2.39.82,0,1.35-.23,1.91-.83l.55.49c-.73.75-1.43,1.05-2.46,1.05-1.89,0-2.91-1.41-2.91-3.25ZM237.76,183.63c0-.08,0-.16,0-.24,0-.92-.58-2.02-2-2.02-1.23,0-1.98.98-2.07,2.26h4.06Z"></path><path class="cls-12" d="M240.24,180.81h.78v1.09c.43-.78,1.31-1.18,2.02-1.18.33,0,.66.07.99.24l-.39.7c-.21-.1-.51-.17-.77-.17-.68,0-1.46.36-1.74,1.3-.08.27-.12.57-.12,1.27v3.15h-.78v-6.41Z"></path></g><g><path class="cls-12" d="M487.83,281.89h.81v8.33h4.18v.73h-4.99v-9.06Z"></path><path class="cls-12" d="M493.95,281.89h.94v1.39h-.94v-1.39ZM494.04,284.54h.77v6.41h-.77v-6.41Z"></path><path class="cls-12" d="M496.21,284.54h.86l2.1,5.42,2.11-5.42h.85l-2.61,6.41h-.68l-2.63-6.41Z"></path><path class="cls-12" d="M503.46,281.89h.94v1.39h-.94v-1.39ZM503.55,284.54h.77v6.41h-.77v-6.41Z"></path><path class="cls-12" d="M506.35,284.54h.78v1.05c.4-.76,1.12-1.14,2.01-1.14,1.38,0,2.2.81,2.2,2.51v3.99h-.78v-3.71c0-1.45-.55-2.11-1.61-2.11-1.16,0-1.83.79-1.83,2.55v3.27h-.78v-6.41Z"></path><path class="cls-12" d="M512.81,291.71s0-.1.03-.26l1.11-.88c-.57-.22-.96-.59-.96-1.26,0-.53.27-.9.72-1.2-.36-.37-.56-.87-.56-1.45,0-1.3,1.04-2.2,2.38-2.2.64,0,1.22.21,1.64.59l1.02-.86.4.49-1,.88c.19.33.3.71.3,1.14,0,1.28-.96,2.13-2.33,2.13-.53,0-.99-.12-1.37-.34-.31.18-.45.42-.45.72,0,.66.63.83,1.62.98,1.6.25,2.99.44,2.99,1.75,0,1.16-1.05,1.78-2.7,1.78-1.82,0-2.85-.7-2.85-2ZM515.67,293.1c1.09,0,1.92-.34,1.92-1.08,0-.86-1.16-.96-2.31-1.14-.31-.05-.6-.1-.89-.17l-.8.92c-.01.09-.01.11-.01.15,0,.9.79,1.33,2.09,1.33ZM515.54,288.17c.98,0,1.59-.65,1.59-1.53s-.64-1.56-1.58-1.56-1.62.65-1.62,1.55.63,1.55,1.61,1.55Z"></path><path class="cls-12" d="M523.29,281.89h2.52c1.99,0,2.97.93,2.97,2.5,0,1.25-.64,2.07-1.85,2.38l2.44,4.19h-.92l-2.34-4.07c-.21,0-.44,0-.65,0h-1.36v4.06h-.81v-9.06ZM525.74,286.17c1.38,0,2.24-.55,2.24-1.78s-.88-1.77-2.24-1.77h-1.64v3.56h1.64Z"></path><path class="cls-12" d="M530.3,287.74c0-1.92,1.25-3.29,3.05-3.29s3.04,1.37,3.04,3.29-1.27,3.3-3.04,3.3-3.05-1.36-3.05-3.3ZM533.35,290.34c1.37,0,2.26-1.04,2.26-2.61s-.9-2.61-2.26-2.61-2.28,1.05-2.28,2.61.9,2.61,2.28,2.61Z"></path><path class="cls-12" d="M537.83,287.74c0-1.92,1.25-3.29,3.05-3.29s3.04,1.37,3.04,3.29-1.27,3.3-3.04,3.3-3.05-1.36-3.05-3.3ZM540.88,290.34c1.37,0,2.26-1.04,2.26-2.61s-.9-2.61-2.26-2.61-2.28,1.05-2.28,2.61.9,2.61,2.28,2.61Z"></path><path class="cls-12" d="M545.67,284.54h.78v1.1c.38-.85,1.11-1.19,1.88-1.19.91,0,1.57.4,1.89,1.25.4-.83,1.09-1.25,2-1.25,1.55,0,2.13,1.16,2.13,2.69v3.82h-.78v-3.64c0-1.33-.39-2.18-1.52-2.18-1.02,0-1.65.77-1.65,2.26v3.57h-.78v-3.76c0-1.4-.52-2.07-1.5-2.07-1.03,0-1.67.79-1.67,2.26v3.57h-.78v-6.41Z"></path></g><g><path class="cls-12" d="M328.25,394.83h.81v4.86l4.65-4.86h1.09l-3.45,3.54,3.48,5.52h-.95l-3.11-4.93-1.71,1.75v3.17h-.81v-9.06Z"></path><path class="cls-12" d="M335.98,394.83h.94v1.39h-.94v-1.39ZM336.07,397.48h.77v6.41h-.77v-6.41Z"></path><path class="cls-12" d="M339.64,402.41v-4.31h-1.42v-.62h1.42v-1.85l.79-.46v2.31h1.54v.62h-1.54v4.12c0,.71.22,1.11.81,1.11.19,0,.46-.04.73-.12v.62c-.32.1-.64.16-.92.16-.85,0-1.4-.49-1.4-1.57Z"></path><path class="cls-12" d="M342.99,400.68c0-1.83,1.06-3.29,2.86-3.29,1.17,0,2.09.58,2.51,1.74l-.7.27c-.27-.82-.9-1.33-1.81-1.33-1.42,0-2.09,1.25-2.09,2.61s.68,2.62,2.09,2.62c.91,0,1.53-.51,1.81-1.33l.7.27c-.42,1.16-1.34,1.75-2.51,1.75-1.8,0-2.86-1.46-2.86-3.3Z"></path><path class="cls-12" d="M349.99,394.83h.78v3.69c.4-.75,1.1-1.13,2.01-1.13,1.4,0,2.2.85,2.2,2.51v3.99h-.78v-3.71c0-1.43-.53-2.11-1.61-2.11-1.18,0-1.83.83-1.83,2.55v3.27h-.78v-9.06Z"></path><path class="cls-12" d="M356.62,400.73c0-1.84.99-3.34,2.81-3.34,1.96,0,2.76,1.53,2.76,2.94,0,.1-.01.4-.04.55h-4.76c.03,1.51.84,2.39,2.14,2.39.82,0,1.35-.23,1.91-.83l.55.49c-.73.75-1.43,1.05-2.46,1.05-1.89,0-2.91-1.41-2.91-3.25ZM361.44,400.31c0-.08,0-.16,0-.24,0-.92-.58-2.01-2-2.01-1.23,0-1.98.98-2.07,2.26h4.06Z"></path><path class="cls-12" d="M363.93,397.48h.78v1.05c.4-.76,1.12-1.14,2.01-1.14,1.38,0,2.2.81,2.2,2.51v3.99h-.78v-3.71c0-1.45-.55-2.11-1.61-2.11-1.16,0-1.83.79-1.83,2.55v3.27h-.78v-6.41Z"></path></g><g><path class="cls-12" d="M212.89,347.77h.65l1.71,6.06,1.76-5.7h.63l1.76,5.7,1.7-6.06h.65l-2.01,6.98h-.63l-1.79-5.71-1.79,5.71h-.64l-2.01-6.98Z"></path><path class="cls-12" d="M222.89,347.77h.62v6.98h-.62v-6.98Z"></path><path class="cls-12" d="M224.94,351.25c0-2.16,1.26-3.58,3.16-3.58,1.35,0,2.39.71,2.84,1.89l-.58.22c-.38-.96-1.17-1.52-2.26-1.52-1.55,0-2.54,1.17-2.54,2.99s.99,3,2.54,3c1.09,0,1.89-.56,2.26-1.52l.58.21c-.45,1.18-1.49,1.9-2.84,1.9-1.89,0-3.16-1.42-3.16-3.59Z"></path></g><g><path class="cls-12" d="M306.08,513.58h5.86v.73h-5.06v3.37h4.39v.73h-4.39v4.24h-.81v-9.06Z"></path><path class="cls-12" d="M313.26,521.31v-7.73h.77v7.59c0,.6.23.84.64.84.17,0,.38-.04.61-.12v.67c-.29.11-.6.17-.84.17-.72,0-1.18-.44-1.18-1.42Z"></path><path class="cls-12" d="M316.23,519.48c0-1.84.99-3.34,2.81-3.34,1.96,0,2.76,1.53,2.76,2.94,0,.1-.01.4-.04.55h-4.76c.03,1.51.84,2.39,2.14,2.39.82,0,1.35-.23,1.91-.83l.55.49c-.73.75-1.43,1.05-2.46,1.05-1.89,0-2.91-1.41-2.91-3.25ZM321.04,519.06c0-.08,0-.16,0-.24,0-.92-.58-2.01-2-2.01-1.23,0-1.98.98-2.07,2.26h4.06Z"></path><path class="cls-12" d="M325.18,519.43l-2.37-3.19h.96l1.92,2.65,1.94-2.65h.94l-2.38,3.19,2.39,3.22h-.96l-1.93-2.67-1.94,2.67h-.94l2.37-3.22Z"></path></g><path class="cls-12" d="M273.7,244.63c0-2.17,1.27-3.59,3.16-3.59s3.18,1.42,3.18,3.59-1.27,3.58-3.18,3.58-3.16-1.42-3.16-3.58ZM276.86,247.61c1.57,0,2.55-1.16,2.55-2.99s-.99-3-2.55-3-2.54,1.15-2.54,3,.99,2.99,2.54,2.99Z"></path><path class="cls-12" d="M283.73,240.13h.48l-3.55,9.08h-.47l3.55-9.08Z"></path><path class="cls-12" d="M285.43,241.13h.93l2.35,5.66,2.35-5.66h.92v6.98h-.62v-6.16l-2.35,5.59h-.61l-2.36-5.59v6.16h-.62v-6.98Z"></path><g><path class="cls-12" d="M275.15,381.13h1.94c1.53,0,2.29.72,2.29,1.92,0,.97-.5,1.6-1.43,1.83l1.88,3.22h-.71l-1.8-3.13c-.16,0-.34,0-.5,0h-1.05v3.13h-.62v-6.98ZM277.03,384.43c1.06,0,1.73-.43,1.73-1.37s-.68-1.37-1.73-1.37h-1.26v2.74h1.26Z"></path><path class="cls-12" d="M281.01,381.13h4.56v.56h-3.94v2.59h3.53v.56h-3.53v2.7h3.94v.56h-4.56v-6.98Z"></path><path class="cls-12" d="M286.86,381.13h4.51v.56h-3.89v2.59h3.38v.56h-3.38v3.26h-.62v-6.98Z"></path></g><path class="cls-12" d="M225.39,247.46h.65l1.71,6.06,1.76-5.7h.63l1.76,5.7,1.7-6.06h.65l-2.01,6.98h-.63l-1.79-5.71-1.79,5.71h-.64l-2.01-6.98Z"></path><path class="cls-12" d="M237.67,246.46h.48l-3.55,9.08h-.47l3.55-9.08Z"></path><path class="cls-12" d="M239.38,247.46h1.87c2.26,0,3.56,1.29,3.56,3.54s-1.27,3.43-3.57,3.43h-1.86v-6.98ZM241.18,253.86c1.92,0,2.99-.89,2.99-2.88s-1.08-2.95-2.94-2.95h-1.24v5.83h1.19Z"></path><g><path class="cls-12" d="M355.1,358.13h1.87c2.26,0,3.56,1.29,3.56,3.54s-1.27,3.43-3.57,3.43h-1.86v-6.98ZM356.91,364.54c1.92,0,2.99-.89,2.99-2.88s-1.08-2.95-2.94-2.95h-1.24v5.83h1.19Z"></path><path class="cls-12" d="M361.19,358.13h.65l1.71,6.06,1.76-5.7h.63l1.76,5.7,1.7-6.06h.65l-2.01,6.98h-.63l-1.79-5.71-1.79,5.71h-.64l-2.01-6.98Z"></path></g><g><path class="cls-12" d="M355.03,253.9h.65l1.71,6.06,1.76-5.7h.63l1.76,5.7,1.7-6.06h.65l-2.01,6.98h-.63l-1.79-5.71-1.79,5.71h-.64l-2.01-6.98Z"></path><path class="cls-12" d="M365.04,253.9h4.51v.56h-3.89v2.59h3.38v.56h-3.38v3.26h-.62v-6.98Z"></path></g><g><path class="cls-12" d="M385.9,60.97h.65l1.71,6.06,1.76-5.7h.63l1.76,5.7,1.7-6.06h.65l-2.01,6.98h-.63l-1.79-5.71-1.79,5.71h-.64l-2.01-6.98Z"></path><path class="cls-12" d="M395.91,60.97h.62v6.98h-.62v-6.98Z"></path><path class="cls-12" d="M397.96,64.46c0-2.16,1.26-3.58,3.16-3.58,1.35,0,2.39.71,2.84,1.89l-.58.22c-.38-.96-1.17-1.52-2.26-1.52-1.55,0-2.54,1.17-2.54,2.99s.99,3,2.54,3c1.09,0,1.89-.56,2.26-1.52l.58.22c-.45,1.18-1.49,1.9-2.84,1.9-1.89,0-3.16-1.42-3.16-3.59Z"></path></g><g><path class="cls-12" d="M630.06,444.59h2.43c2.94,0,4.62,1.68,4.62,4.6s-1.64,4.46-4.63,4.46h-2.42v-9.06ZM632.41,452.91c2.5,0,3.89-1.16,3.89-3.74s-1.4-3.83-3.82-3.83h-1.61v7.57h1.54Z"></path><path class="cls-12" d="M638.56,450.5c0-1.84.99-3.34,2.81-3.34,1.96,0,2.76,1.53,2.76,2.94,0,.1-.01.4-.04.55h-4.76c.03,1.51.84,2.39,2.14,2.39.82,0,1.35-.23,1.91-.83l.55.49c-.73.75-1.43,1.05-2.46,1.05-1.89,0-2.91-1.41-2.91-3.25ZM643.38,450.07c0-.08,0-.16,0-.24,0-.92-.58-2.01-2-2.01-1.23,0-1.98.98-2.07,2.26h4.06Z"></path><path class="cls-12" d="M645.54,450.44c0-1.83,1.06-3.29,2.86-3.29,1.17,0,2.09.58,2.51,1.74l-.7.27c-.27-.82-.9-1.33-1.81-1.33-1.42,0-2.09,1.25-2.09,2.61s.68,2.62,2.09,2.62c.91,0,1.53-.51,1.81-1.33l.7.27c-.42,1.16-1.34,1.75-2.51,1.75-1.8,0-2.86-1.46-2.86-3.3Z"></path><path class="cls-12" d="M654.61,450.13l-1.3,1.37v2.16h-.78v-9.06h.78v5.9l3.15-3.24h1.01l-2.28,2.35,2.67,4.06h-.92l-2.31-3.53Z"></path></g><g><path class="cls-12" d="M433.68,444.59h2.43c2.94,0,4.62,1.68,4.62,4.6s-1.64,4.46-4.63,4.46h-2.42v-9.06ZM436.03,452.91c2.5,0,3.89-1.16,3.89-3.74s-1.4-3.83-3.82-3.83h-1.61v7.57h1.54Z"></path><path class="cls-12" d="M442.34,444.59h.94v1.39h-.94v-1.39ZM442.42,447.25h.77v6.41h-.77v-6.41Z"></path><path class="cls-12" d="M445.23,447.25h.78v1.05c.4-.76,1.12-1.14,2.01-1.14,1.38,0,2.2.81,2.2,2.51v3.99h-.78v-3.71c0-1.45-.55-2.11-1.61-2.11-1.16,0-1.83.79-1.83,2.55v3.27h-.78v-6.41Z"></path><path class="cls-12" d="M452.11,444.59h.94v1.39h-.94v-1.39ZM452.19,447.25h.77v6.41h-.77v-6.41Z"></path><path class="cls-12" d="M455,447.25h.78v1.05c.4-.76,1.12-1.14,2.01-1.14,1.38,0,2.2.81,2.2,2.51v3.99h-.78v-3.71c0-1.45-.55-2.11-1.61-2.11-1.16,0-1.83.79-1.83,2.55v3.27h-.78v-6.41Z"></path><path class="cls-12" d="M461.46,454.42s0-.1.03-.26l1.11-.88c-.57-.22-.96-.59-.96-1.26,0-.53.27-.9.72-1.2-.36-.37-.56-.87-.56-1.45,0-1.3,1.04-2.2,2.39-2.2.64,0,1.22.21,1.64.58l1.02-.86.4.49-1,.88c.19.33.3.71.3,1.14,0,1.28-.96,2.13-2.33,2.13-.53,0-.99-.12-1.37-.34-.31.17-.45.42-.45.71,0,.66.63.83,1.62.98,1.6.25,2.99.44,2.99,1.75,0,1.16-1.05,1.78-2.7,1.78-1.82,0-2.85-.7-2.85-2ZM464.31,455.81c1.09,0,1.92-.34,1.92-1.08,0-.86-1.16-.96-2.31-1.14-.31-.05-.6-.1-.89-.17l-.8.92c-.01.09-.01.11-.01.15,0,.9.79,1.33,2.09,1.33ZM464.18,450.88c.98,0,1.59-.65,1.59-1.53s-.64-1.56-1.58-1.56-1.62.65-1.62,1.55.63,1.55,1.61,1.55Z"></path><path class="cls-12" d="M471.94,444.59h2.52c1.99,0,2.97.93,2.97,2.5,0,1.25-.64,2.07-1.85,2.38l2.44,4.19h-.92l-2.34-4.07c-.21,0-.44,0-.65,0h-1.36v4.06h-.81v-9.06ZM474.38,448.88c1.38,0,2.24-.55,2.24-1.78s-.88-1.77-2.24-1.77h-1.64v3.56h1.64Z"></path><path class="cls-12" d="M478.95,450.44c0-1.92,1.25-3.29,3.05-3.29s3.04,1.37,3.04,3.29-1.27,3.3-3.04,3.3-3.05-1.37-3.05-3.3ZM481.99,453.05c1.37,0,2.26-1.04,2.26-2.61s-.9-2.61-2.26-2.61-2.28,1.05-2.28,2.61.9,2.61,2.28,2.61Z"></path><path class="cls-12" d="M486.48,450.44c0-1.92,1.25-3.29,3.05-3.29s3.04,1.37,3.04,3.29-1.27,3.3-3.04,3.3-3.05-1.37-3.05-3.3ZM489.53,453.05c1.37,0,2.26-1.04,2.26-2.61s-.9-2.61-2.26-2.61-2.28,1.05-2.28,2.61.9,2.61,2.28,2.61Z"></path><path class="cls-12" d="M494.32,447.25h.78v1.1c.38-.84,1.11-1.19,1.88-1.19.91,0,1.57.4,1.89,1.25.4-.83,1.09-1.25,2-1.25,1.55,0,2.13,1.16,2.13,2.68v3.82h-.78v-3.64c0-1.33-.39-2.18-1.52-2.18-1.02,0-1.65.77-1.65,2.26v3.57h-.78v-3.76c0-1.4-.52-2.07-1.5-2.07-1.03,0-1.67.79-1.67,2.26v3.57h-.78v-6.41Z"></path></g><g><path class="cls-16" d="M700.38,257.39h.5v5.12h2.57v.45h-3.07v-5.57Z"></path><path class="cls-16" d="M703.97,261.02c0-1.13.61-2.06,1.73-2.06,1.21,0,1.7.94,1.7,1.81,0,.06,0,.24-.02.34h-2.93c.02.93.52,1.47,1.32,1.47.5,0,.83-.14,1.17-.51l.34.3c-.45.46-.88.65-1.51.65-1.16,0-1.79-.87-1.79-2ZM706.93,260.76s0-.1,0-.15c0-.57-.36-1.24-1.23-1.24-.75,0-1.22.6-1.27,1.39h2.49Z"></path><path class="cls-16" d="M708.34,260.99c0-1.21.79-2.02,1.79-2.02.64,0,1.15.33,1.41.84v-2.41h.47v5.57h-.47v-.78c-.27.52-.77.83-1.41.83-1.05,0-1.79-.88-1.79-2.03ZM710.21,262.58c.8,0,1.37-.66,1.37-1.59s-.57-1.59-1.37-1.59-1.39.67-1.39,1.59.58,1.59,1.39,1.59Z"></path><path class="cls-16" d="M713.09,263.43s0-.06.02-.16l.68-.54c-.35-.14-.59-.36-.59-.78,0-.32.16-.55.44-.74-.22-.23-.34-.54-.34-.89,0-.8.64-1.36,1.47-1.36.4,0,.75.13,1.01.36l.63-.53.24.3-.62.54c.12.2.18.44.18.7,0,.79-.59,1.31-1.44,1.31-.32,0-.61-.08-.84-.21-.19.11-.28.26-.28.44,0,.41.39.51,1,.6.98.15,1.84.27,1.84,1.08,0,.72-.64,1.1-1.66,1.1-1.12,0-1.75-.43-1.75-1.23ZM714.84,264.29c.67,0,1.18-.21,1.18-.66,0-.53-.71-.59-1.42-.7-.19-.03-.37-.06-.55-.1l-.49.56c0,.06,0,.07,0,.09,0,.55.49.82,1.29.82ZM714.76,261.26c.6,0,.98-.4.98-.94s-.39-.96-.97-.96-1,.4-1,.95.39.95.99.95Z"></path><path class="cls-16" d="M717.24,261.02c0-1.13.61-2.06,1.73-2.06,1.21,0,1.7.94,1.7,1.81,0,.06,0,.24-.02.34h-2.93c.02.93.52,1.47,1.32,1.47.5,0,.83-.14,1.17-.51l.34.3c-.45.46-.88.65-1.51.65-1.16,0-1.79-.87-1.79-2ZM720.2,260.76s0-.1,0-.15c0-.57-.36-1.24-1.23-1.24-.75,0-1.22.6-1.27,1.39h2.49Z"></path></g><g><path class="cls-16" d="M643.38,521.55h1.67c1.03,0,1.65.52,1.65,1.38,0,.58-.28,1.03-.76,1.23.68.16,1.04.66,1.04,1.42,0,.99-.63,1.54-1.77,1.54h-1.83v-5.57ZM645.2,524.02c.6,0,1-.39,1-1.01s-.42-.99-1.16-.99h-1.17v2h1.33ZM645.17,526.67c.88,0,1.32-.37,1.32-1.1,0-.7-.41-1.1-1.1-1.1h-1.51v2.2h1.3Z"></path><path class="cls-16" d="M650.73,526.39c-.26.5-.77.79-1.38.79-.88,0-1.42-.48-1.42-1.2,0-.42.18-.71.44-.89.28-.19.67-.26,1.09-.26h1.26v-.17c0-.73-.38-1.13-1.12-1.13-.48,0-.86.18-1.22.63l-.34-.3c.42-.52.94-.75,1.59-.75,1,0,1.56.55,1.56,1.54v2.46h-.44l-.02-.74ZM649.39,526.79c.72,0,1.33-.57,1.33-1.35v-.22h-1.2c-.32,0-.63.05-.84.2-.17.13-.27.31-.27.58,0,.49.37.8.98.8Z"></path><path class="cls-16" d="M652.39,526.31v-4.75h.48v4.67c0,.37.14.52.39.52.1,0,.24-.02.38-.07v.41c-.18.07-.37.1-.52.1-.44,0-.72-.27-.72-.88Z"></path><path class="cls-16" d="M654.3,525.15c0-1.13.65-2.02,1.76-2.02.72,0,1.28.36,1.54,1.07l-.43.17c-.17-.5-.55-.82-1.11-.82-.87,0-1.29.77-1.29,1.61s.42,1.61,1.29,1.61c.56,0,.94-.31,1.11-.82l.43.16c-.26.71-.82,1.08-1.54,1.08-1.11,0-1.76-.9-1.76-2.03Z"></path><path class="cls-16" d="M658.44,525.15c0-1.18.77-2.02,1.88-2.02s1.87.84,1.87,2.02-.78,2.03-1.87,2.03-1.88-.84-1.88-2.03ZM660.31,526.75c.84,0,1.39-.64,1.39-1.6s-.55-1.6-1.39-1.6-1.4.64-1.4,1.6.56,1.6,1.4,1.6Z"></path><path class="cls-16" d="M663.34,523.18h.48v.64c.25-.47.69-.7,1.24-.7.85,0,1.36.5,1.36,1.54v2.46h-.48v-2.28c0-.89-.34-1.3-.99-1.3-.71,0-1.13.48-1.13,1.57v2.01h-.48v-3.94Z"></path><path class="cls-16" d="M668.78,527l-1.57-3.82h.53l1.29,3.33,1.3-3.33h.52l-2.27,5.56h-.52l.72-1.75Z"></path><path class="cls-16" d="M675.58,521.55h.42l2.05,5.57h-.54l-.51-1.45h-2.42l-.51,1.45h-.55l2.05-5.57ZM676.85,525.23l-1.05-2.99-1.06,2.99h2.11Z"></path><path class="cls-16" d="M679.38,526.35v.78h-.47v-5.57h.47v2.41c.26-.5.77-.84,1.41-.84,1,0,1.79.82,1.79,2.02s-.74,2.03-1.79,2.03c-.64,0-1.14-.31-1.41-.83ZM680.71,526.74c.81,0,1.39-.67,1.39-1.59s-.58-1.59-1.39-1.59-1.37.66-1.37,1.59.57,1.59,1.37,1.59Z"></path><path class="cls-16" d="M683.52,525.15c0-1.18.77-2.02,1.88-2.02s1.87.84,1.87,2.02-.78,2.03-1.87,2.03-1.88-.84-1.88-2.03ZM685.4,526.75c.84,0,1.39-.64,1.39-1.6s-.55-1.6-1.39-1.6-1.4.64-1.4,1.6.56,1.6,1.4,1.6Z"></path><path class="cls-16" d="M687.92,523.18h.53l1.29,3.33,1.3-3.33h.52l-1.61,3.94h-.42l-1.61-3.94Z"></path><path class="cls-16" d="M692.24,525.18c0-1.13.61-2.05,1.73-2.05,1.21,0,1.7.94,1.7,1.81,0,.06,0,.24-.02.34h-2.93c.02.93.52,1.47,1.32,1.47.5,0,.83-.14,1.17-.51l.34.3c-.45.46-.88.65-1.51.65-1.16,0-1.79-.87-1.79-2ZM695.2,524.92s0-.1,0-.15c0-.57-.36-1.24-1.23-1.24-.75,0-1.22.6-1.27,1.39h2.49Z"></path></g><polyline class="cls-1" points="694.69 259.88 683.55 259.88 673.85 273.3"></polyline><path class="cls-15" d="M671.48,276.57l4.99-3.39s-2.63.12-3.35-2.42l-1.65,5.81Z"></path><polyline class="cls-1" points="637.69 524.64 626.55 524.64 616.85 511.22"></polyline><path class="cls-15" d="M614.48,507.94l4.99,3.39s-2.63-.12-3.35,2.42l-1.65-5.81Z"></path></g></g></svg> 