<?xml version="1.0" encoding="UTF-8"?> <svg xmlns="http://www.w3.org/2000/svg" id="Layer_2" data-name="Layer 2" viewBox="0 0 730.14 671.24"><defs><style> .cls-1 { stroke: #afa49f; } .cls-1, .cls-2, .cls-3, .cls-4, .cls-5, .cls-6, .cls-7, .cls-8, .cls-9, .cls-10, .cls-11, .cls-12 { fill: none; } .cls-1, .cls-2, .cls-3, .cls-8, .cls-10, .cls-11 { stroke-width: .25px; } .cls-1, .cls-9, .cls-10 { stroke-miterlimit: 10; } .cls-2 { stroke-dasharray: 1.54 1.54; } .cls-2, .cls-3, .cls-4, .cls-5, .cls-6, .cls-7, .cls-8, .cls-11, .cls-12 { stroke-linecap: round; stroke-linejoin: round; } .cls-2, .cls-3, .cls-8 { stroke: #75655e; } .cls-13, .cls-14, .cls-15 { fill: #3a2a22; } .cls-3 { stroke-dasharray: 6.08 5.07; } .cls-4, .cls-5, .cls-6 { stroke: #55453d; stroke-width: .15px; } .cls-5 { stroke-dasharray: 1.02 1.02; } .cls-14 { font-size: 10px; } .cls-14, .cls-15, .cls-16 { font-family: HKGrotesk-Light, 'HK Grotesk'; font-weight: 300; } .cls-17 { letter-spacing: 0em; } .cls-18 { letter-spacing: 0em; } .cls-6 { stroke-dasharray: .99 .99; } .cls-15 { font-size: 13px; } .cls-19 { fill: #fff; } .cls-20 { letter-spacing: 0em; } .cls-16 { fill: #75655e; font-size: 8px; } .cls-21 { letter-spacing: 0em; } .cls-7, .cls-9 { stroke-width: .75px; } .cls-7, .cls-9, .cls-11, .cls-12 { stroke: #3a2a22; } .cls-22 { fill: #bc8ebc; } .cls-23 { letter-spacing: -.02em; } .cls-24 { letter-spacing: -.02em; } .cls-25 { letter-spacing: -.02em; } .cls-26 { letter-spacing: -.02em; } .cls-27 { letter-spacing: -.01em; } .cls-28 { letter-spacing: -.03em; } .cls-29 { letter-spacing: -.03em; } .cls-10 { stroke: #bc8ebc; } .cls-30 { fill: #afa49f; } .cls-31 { letter-spacing: 0em; } .cls-32 { letter-spacing: 0em; } .cls-33 { letter-spacing: 0em; } .cls-34 { letter-spacing: 0em; } .cls-35 { letter-spacing: 0em; } .cls-36 { letter-spacing: 0em; } .cls-37 { letter-spacing: -.01em; } .cls-38 { letter-spacing: -.01em; } .cls-39 { letter-spacing: 0em; } .cls-40 { letter-spacing: 0em; } .cls-41 { letter-spacing: 0em; } .cls-42 { letter-spacing: 0em; } .cls-43 { letter-spacing: 0em; } .cls-44 { letter-spacing: 0em; } .cls-45 { letter-spacing: 0em; } .cls-46 { letter-spacing: 0em; } .cls-12 { stroke-width: .35px; } .cls-47 { letter-spacing: 0em; } .cls-48 { letter-spacing: .01em; } .cls-49 { letter-spacing: 0em; } </style></defs><g id="Layer_1-2" data-name="Layer 1"><g><polygon class="cls-19" points=".38 .38 7.97 1.21 46.69 5.74 85.31 10.63 123.84 15.99 162.37 21.63 200.9 27.73 239.25 34.1 277.6 40.94 315.94 48.06 354.1 55.63 392.26 63.49 430.33 71.8 468.31 80.4 506.19 89.45 543.98 98.78 585.75 109.59 627.42 120.87 625.29 128.73 650.24 135.65 685.54 145.82 720.65 156.26 676.21 276.93 661.89 276.93 661.89 276.93 616.98 670.86 543.98 670.86 543.98 666.97 111.4 666.97 111.4 501.21 98.55 501.21 98.55 323.89 .38 323.89 .38 .38"></polygon><line class="cls-4" x1="640.54" y1="132.97" x2="640.68" y2="132.49"></line><line class="cls-5" x1="640.96" y1="131.51" x2="642.49" y2="126.09"></line><polyline class="cls-4" points="642.62 125.6 642.76 125.12 642.28 124.98"></polyline><line class="cls-6" x1="641.32" y1="124.72" x2="628.42" y2="121.14"></line><line class="cls-4" x1="627.94" y1="121.01" x2="627.46" y2="120.88"></line><line class="cls-4" x1="640.93" y1="124.61" x2="640.79" y2="125.1"></line><line class="cls-5" x1="640.51" y1="126.08" x2="638.98" y2="131.5"></line><line class="cls-4" x1="638.85" y1="131.99" x2="638.71" y2="132.47"></line><line class="cls-4" x1="638.98" y1="124.07" x2="638.85" y2="124.55"></line><line class="cls-5" x1="638.57" y1="125.54" x2="637.04" y2="130.95"></line><line class="cls-4" x1="636.9" y1="131.44" x2="636.77" y2="131.92"></line><line class="cls-4" x1="636.62" y1="123.42" x2="636.48" y2="123.9"></line><line class="cls-5" x1="636.2" y1="124.88" x2="634.68" y2="130.3"></line><line class="cls-4" x1="634.54" y1="130.79" x2="634.4" y2="131.27"></line><line class="cls-4" x1="632.72" y1="122.33" x2="632.58" y2="122.81"></line><line class="cls-5" x1="632.3" y1="123.8" x2="630.77" y2="129.21"></line><line class="cls-4" x1="630.63" y1="129.71" x2="630.5" y2="130.19"></line><polygon class="cls-12" points="543.99 113.11 577.99 121.88 611.9 131.03 645.72 140.36 679.44 150.07 713.08 160.04 713.08 160.14 672.14 271.2 662.53 271.2 662.53 273.2 673.54 273.2 715.72 158.74 680 148.14 646.25 138.44 612.42 129.1 578.49 119.95 543.99 111.04 543.99 113.11"></polygon><path class="cls-4" d="M167.57,587.66c0-26.19-21.23-44.55-47.43-44.55"></path><line class="cls-4" x1="120.15" y1="587.66" x2="120.15" y2="543.11"></line><line class="cls-4" x1="111.4" y1="590.6" x2="111.4" y2="543.11"></line><g><path class="cls-4" d="M268.07,599.78c-23.13,0-39.35-18.62-39.35-41.58"></path><path class="cls-4" d="M143.8,276.45c0-23.13,18.62-39.35,41.58-39.35"></path><path class="cls-4" d="M115.45,330.8c23.18,0,39.44-18.66,39.44-41.67"></path><path class="cls-4" d="M585.66,205.4c0-23.18-18.65-39.44-41.67-39.44"></path><path class="cls-4" d="M467.83,521.79c-23.13,0-39.35-18.62-39.35-41.58"></path><path class="cls-4" d="M523.19,467.63c0-23.13-18.62-39.35-41.58-39.35"></path><path class="cls-4" d="M370.74,487.06c0,23.13,18.62,39.35,41.58,39.35"></path><path class="cls-4" d="M329.08,521.79c23.13,0,39.35-18.62,39.35-41.58"></path></g><rect class="cls-12" x="120.15" y="587.66" width="47.43" height="2.88"></rect><rect class="cls-12" x="268.06" y="558.2" width="2.23" height="41.58"></rect><rect class="cls-12" x="143.8" y="276.45" width="41.58" height="2.23"></rect><rect class="cls-12" x="113.22" y="289.13" width="2.24" height="41.67"></rect><rect class="cls-12" x="543.98" y="205.4" width="41.67" height="2.24"></rect><rect class="cls-12" x="102.78" y="238.86" width="2.23" height="41.58"></rect><rect class="cls-12" x="467.83" y="480.21" width="2.23" height="41.58"></rect><rect class="cls-12" x="412.32" y="585.36" width="2.23" height="41.58"></rect><rect class="cls-12" x="481.62" y="467.63" width="41.58" height="2.23"></rect><rect class="cls-12" x="552.12" y="459.5" width="34.65" height="2.23"></rect><rect class="cls-12" x="586.77" y="457.26" width="34.65" height="2.23"></rect><rect class="cls-12" x="370.74" y="484.83" width="41.58" height="2.23"></rect><rect class="cls-12" x="326.85" y="480.21" width="2.23" height="41.58"></rect><rect class="cls-12" x="124.12" y="600.33" width="62.37" height="2.23"></rect><line class="cls-12" x1="155.3" y1="600.33" x2="155.3" y2="602.56"></line><rect class="cls-12" x="122.46" y="494.8" width="34.65" height="2.23"></rect><polyline class="cls-8" points="435.76 309.39 436.51 309.39 436.51 310.14"></polyline><line class="cls-2" x1="436.51" y1="311.67" x2="436.5" y2="335.48"></line><polyline class="cls-8" points="436.5 336.25 436.5 337 435.75 337"></polyline><line class="cls-2" x1="434.22" y1="337" x2="410.41" y2="337"></line><polyline class="cls-8" points="409.64 337 408.89 337 408.89 336.25"></polyline><line class="cls-2" x1="408.89" y1="334.71" x2="408.9" y2="310.9"></line><polyline class="cls-8" points="408.89 310.14 408.89 309.39 409.64 309.39"></polyline><line class="cls-2" x1="411.18" y1="309.39" x2="434.99" y2="309.39"></line><polyline class="cls-8" points="331.78 309.38 332.53 309.38 332.53 310.13"></polyline><line class="cls-2" x1="332.53" y1="311.67" x2="332.53" y2="335.48"></line><polyline class="cls-8" points="332.53 336.24 332.53 336.99 331.78 336.99"></polyline><line class="cls-2" x1="330.25" y1="336.99" x2="306.44" y2="336.99"></line><polyline class="cls-8" points="305.67 336.99 304.92 336.99 304.92 336.24"></polyline><line class="cls-2" x1="304.92" y1="334.71" x2="304.92" y2="310.9"></line><polyline class="cls-8" points="304.92 310.13 304.92 309.38 305.67 309.38"></polyline><line class="cls-2" x1="307.21" y1="309.38" x2="331.02" y2="309.38"></line><line class="cls-8" x1="344.88" y1="399.73" x2="347.88" y2="399.73"></line><line class="cls-3" x1="352.95" y1="399.73" x2="439.58" y2="399.73"></line><line class="cls-8" x1="442.12" y1="399.73" x2="445.12" y2="399.73"></line><line class="cls-12" x1="487.44" y1="387.81" x2="280.65" y2="387.82"></line><line class="cls-12" x1="344.88" y1="387.82" x2="344.88" y2="415.53"></line><line class="cls-12" x1="308.73" y1="387.81" x2="308.73" y2="415.53"></line><line class="cls-12" x1="445.12" y1="387.81" x2="445.12" y2="415.53"></line><line class="cls-12" x1="344.88" y1="390.32" x2="280.65" y2="390.32"></line><line class="cls-12" x1="487.44" y1="390.31" x2="445.12" y2="390.31"></line><rect class="cls-12" x="301.43" y="287.42" width="138.6" height="49.57"></rect><g><path class="cls-12" d="M351.5,307.05h.56c.33,0,.59.26.59.59v8.59c0,.33-.27.59-.59.59h-.56c-.33,0-.59-.26-.59-.59v-8.59c0-.33.26-.59.59-.59Z"></path><path class="cls-12" d="M351.78,322.73c-.49,0-.9.4-.9.9s.4.9.9.9.9-.4.9-.9-.4-.9-.9-.9Z"></path></g><polyline class="cls-12" points="350.91 308.37 348.48 308.37 348.48 309.92 350.91 309.92"></polyline><line class="cls-12" x1="349.35" y1="309.92" x2="349.35" y2="308.37"></line><polyline class="cls-12" points="350.91 312.23 338.85 312.23 338.85 333.99 364.7 333.99 364.7 312.23 352.65 312.23"></polyline><polyline class="cls-12" points="352.65 313.31 363.62 313.31 363.62 332.91 339.93 332.91 339.93 313.31 350.91 313.31"></polyline><polyline class="cls-12" points="165.53 289.08 165.54 372.86 190.68 372.86"></polyline><path class="cls-12" d="M182.59,348.89v9.87c0,.4-.32.72-.72.72h-10.9c-.4,0-.72-.32-.72-.72v-20.82c0-.4.32-.72.72-.72h10.9c.4,0,.72.32.72.72v9.48"></path><rect class="cls-12" x="180.16" y="347.42" width="5.89" height="1.47"></rect><g><circle class="cls-12" cx="176.42" cy="348.16" r=".84"></circle><path class="cls-12" d="M182.59,314.14v9.87c0,.4-.32.72-.72.72h-10.9c-.4,0-.72-.32-.72-.72v-20.82c0-.4.32-.72.72-.72h10.9c.4,0,.72.32.72.72v9.48"></path></g><rect class="cls-12" x="180.15" y="312.67" width="5.89" height="1.47"></rect><circle class="cls-12" cx="176.42" cy="313.4" r=".84"></circle><line class="cls-12" x1="114.37" y1="413.87" x2="189.74" y2="413.86"></line><line class="cls-12" x1="114.37" y1="413.87" x2="190.56" y2="413.86"></line><line class="cls-12" x1="114.37" y1="415.15" x2="190.56" y2="415.14"></line><line class="cls-12" x1="119.06" y1="415.15" x2="119.06" y2="413.87"></line><line class="cls-12" x1="157.06" y1="415.15" x2="157.06" y2="413.86"></line><line class="cls-12" x1="177.17" y1="454.14" x2="177.17" y2="415.14"></line><g><path class="cls-12" d="M127.46,433.8c0,.67-.54,1.21-1.21,1.21s-1.21-.54-1.21-1.21.54-1.21,1.21-1.21,1.21.54,1.21,1.21Z"></path><path class="cls-12" d="M131.44,433.8c0,2.86-2.32,5.18-5.18,5.18s-5.18-2.32-5.18-5.18,2.32-5.18,5.18-5.18,5.18,2.32,5.18,5.18Z"></path><path class="cls-12" d="M183.1,385.64v15.44c0,.6.48,1.08,1.08,1.08h5.29c.6,0,1.08-.48,1.08-1.08v-15.44c0-.6-.48-1.08-1.08-1.08h-5.29c-.6,0-1.08.48-1.08,1.08Z"></path><path class="cls-12" d="M178.96,388.9c0-.28-.11-.54-.32-.73-2.09-1.88-5.3-3.09-8.9-3.08-6.31,0-11.42,3.71-11.42,8.28s5.11,8.27,11.42,8.27c3.59,0,6.8-1.2,8.9-3.08.21-.19.32-.46.32-.73v-8.92Z"></path></g><line class="cls-12" x1="169.74" y1="385.08" x2="183.26" y2="385.08"></line><line class="cls-12" x1="169.74" y1="401.63" x2="183.26" y2="401.63"></line><line class="cls-12" x1="304.05" y1="487.51" x2="300.85" y2="487.51"></line><g><path class="cls-12" d="M299.98,487.51h-11.6c-1.38,0-2.5,1.12-2.5,2.5v61.83c0,1.38,1.12,2.5,2.5,2.5h24.04c1.38,0,2.5-1.12,2.5-2.5v-61.83c0-1.38-1.12-2.5-2.5-2.5h-8.37"></path><path class="cls-12" d="M300.85,483.49v10.86c0,.24-.19.43-.43.43s-.43-.19-.43-.43v-10.81"></path><path class="cls-12" d="M299.98,493.27c-.46.17-.79.61-.79,1.14,0,.67.54,1.21,1.21,1.21s1.21-.54,1.21-1.21c0-.51-.32-.95-.77-1.13"></path><path class="cls-12" d="M299.98,489.24c-2.66.22-4.76,2.45-4.76,5.17,0,2.86,2.32,5.18,5.18,5.18s5.18-2.32,5.18-5.18c0-2.72-2.09-4.94-4.74-5.17"></path></g><rect class="cls-12" x="297.86" y="482.52" width="5.08" height=".97"></rect><line class="cls-12" x1="318.63" y1="482.52" x2="318.63" y2="558.75"></line><line class="cls-12" x1="319.92" y1="482.52" x2="319.91" y2="558.71"></line><line class="cls-12" x1="319.92" y1="487.2" x2="318.63" y2="487.2"></line><line class="cls-12" x1="319.92" y1="525.21" x2="318.63" y2="525.21"></line><g><path class="cls-12" d="M333.49,565.16h15.44c.6,0,1.08.48,1.08,1.08v5.29c0,.6-.48,1.08-1.08,1.08h-15.44c-.6,0-1.08-.48-1.08-1.08v-5.29c0-.6.48-1.08,1.08-1.08Z"></path><path class="cls-12" d="M336.76,561.01c-.28,0-.54-.11-.73-.32-1.88-2.09-3.08-5.3-3.08-8.9,0-6.31,3.7-11.42,8.28-11.42s8.28,5.11,8.28,11.42c0,3.6-1.2,6.8-3.08,8.9-.19.21-.46.32-.73.32h-8.92Z"></path></g><line class="cls-12" x1="332.94" y1="551.79" x2="332.94" y2="565.31"></line><line class="cls-12" x1="349.49" y1="551.79" x2="349.49" y2="565.31"></line><polyline class="cls-12" points="363.89 572.61 363.89 547.59 412.32 547.59"></polyline><path class="cls-12" d="M385.9,564.55h9.87c.4,0,.72-.32.72-.72v-10.9c0-.4-.32-.72-.72-.72h-20.82c-.4,0-.72.32-.72.72v10.9c0,.4.32.72.72.72h9.48"></path><rect class="cls-12" x="384.43" y="562.11" width="1.47" height="5.89"></rect><g><circle class="cls-12" cx="385.17" cy="558.38" r=".84"></circle><path class="cls-12" d="M199.77,627.51h5.29c.6,0,1.08.48,1.08,1.08v15.44c0,.6-.48,1.08-1.08,1.08h-5.29c-.6,0-1.08-.48-1.08-1.08v-15.44c0-.6.48-1.08,1.08-1.08Z"></path><path class="cls-12" d="M210.29,640.77c0,.27.11.54.32.73,2.09,1.88,5.3,3.08,8.9,3.08,6.31,0,11.42-3.7,11.42-8.28s-5.11-8.27-11.42-8.27c-3.6,0-6.8,1.2-8.9,3.08-.21.19-.32.46-.32.73v8.92Z"></path></g><line class="cls-12" x1="219.5" y1="644.59" x2="205.98" y2="644.59"></line><line class="cls-12" x1="219.5" y1="628.04" x2="205.98" y2="628.04"></line><polyline class="cls-12" points="198.69 613.64 223.7 613.64 223.7 558.2"></polyline><path class="cls-12" d="M206.75,585.37v-9.87c0-.4.32-.72.72-.72h10.9c.4,0,.72.32.72.72v20.82c0,.4-.32.72-.72.72h-10.9c-.4,0-.72-.32-.72-.72v-9.48"></path><rect class="cls-12" x="203.3" y="585.37" width="5.89" height="1.47"></rect><circle class="cls-12" cx="212.92" cy="586.11" r=".84"></circle><rect class="cls-12" x="126.19" y="609.08" width="30.61" height="38.03"></rect><polyline class="cls-12" points="162.84 633.87 162.84 606.15 186.49 606.15"></polyline><rect class="cls-12" x="374.83" y="389.1" width="36.98" height="24.28"></rect><rect class="cls-12" x="375.91" y="390.18" width="34.82" height="22.12"></rect><path class="cls-12" d="M393.32,390.93c.71,0,1.28.57,1.28,1.28s-.57,1.28-1.28,1.28-1.28-.57-1.28-1.28c0-.71.57-1.28,1.28-1.28Z"></path><line class="cls-12" x1="410.73" y1="390.18" x2="411.81" y2="389.1"></line><line class="cls-12" x1="375.91" y1="390.18" x2="374.83" y2="389.1"></line><line class="cls-12" x1="375.91" y1="412.3" x2="374.83" y2="413.38"></line><line class="cls-12" x1="410.73" y1="412.29" x2="411.81" y2="413.37"></line><polygon class="cls-12" points="392.27 392.21 393.32 393.27 394.37 392.21 393.32 391.16 392.27 392.21"></polygon><line class="cls-12" x1="393.32" y1="393.27" x2="393.32" y2="391.16"></line><g><path class="cls-11" d="M141.91,478.05c.03,1.51.06,3.03.13,4.57.04.8.09,1.6.13,2.35.03.57.07,1.11.16,1.78.09.65.25,1.42-.23,1.73-.11.07-.25.12-.38.13-.77.06-.9-1.18-.97-2.24-.15-2.35.04-3.74.16-5.44.06-.9.1-1.9.14-2.89-.04-.99-.08-1.98-.14-2.89-.12-1.7-.3-3.09-.16-5.44.07-1.05.2-2.3.97-2.24.13.01.27.06.38.13.48.3.33,1.08.23,1.73-.1.67-.13,1.21-.16,1.78-.04.75-.09,1.56-.13,2.36-.07,1.54-.1,3.06-.13,4.57Z"></path><path class="cls-11" d="M137.21,478.05c.03,1.51.06,3.03.13,4.57.04.8.09,1.6.13,2.35.03.57.07,1.11.16,1.78.09.65.25,1.42-.23,1.73-.11.07-.25.12-.38.13-.77.06-.9-1.18-.97-2.24-.15-2.35.04-3.74.16-5.44.06-.9.1-1.9.14-2.89-.04-.99-.08-1.98-.14-2.89-.12-1.7-.3-3.09-.16-5.44.07-1.05.2-2.3.97-2.24.13.01.27.06.38.13.48.3.32,1.08.23,1.73-.1.67-.13,1.21-.16,1.78-.04.75-.09,1.56-.13,2.36-.07,1.54-.1,3.06-.13,4.57Z"></path><path class="cls-11" d="M132.52,478.05c.03,1.51.06,3.03.13,4.57.04.8.09,1.6.13,2.35.03.57.07,1.11.16,1.78.09.65.25,1.42-.23,1.73-.11.07-.25.12-.38.13-.77.06-.9-1.18-.97-2.24-.15-2.35.04-3.74.16-5.44.06-.9.1-1.9.14-2.89-.04-.99-.08-1.98-.14-2.89-.12-1.7-.3-3.09-.16-5.44.07-1.05.2-2.3.97-2.24.13.01.27.06.38.13.48.3.33,1.08.23,1.73-.1.67-.13,1.21-.16,1.78-.04.75-.09,1.56-.13,2.36-.07,1.54-.1,3.06-.13,4.57Z"></path></g><line class="cls-11" x1="114.33" y1="478.05" x2="159.42" y2="478.05"></line><g><path class="cls-11" d="M359.96,642.4c.03,1.51.06,3.03.13,4.57.04.8.09,1.6.13,2.36.03.57.07,1.11.16,1.78.09.65.25,1.42-.23,1.73-.11.07-.25.12-.38.13-.77.06-.9-1.18-.97-2.24-.15-2.35.04-3.74.16-5.44.06-.9.1-1.89.14-2.89-.04-.99-.08-1.98-.14-2.89-.11-1.7-.3-3.09-.16-5.44.07-1.05.2-2.3.97-2.24.13,0,.27.06.38.13.48.31.32,1.08.23,1.73-.1.67-.13,1.21-.16,1.78-.04.75-.09,1.56-.13,2.35-.07,1.55-.1,3.06-.13,4.57Z"></path><path class="cls-11" d="M355.26,642.4c.03,1.51.06,3.03.13,4.57.04.8.09,1.6.13,2.36.03.57.07,1.11.16,1.78.09.65.25,1.42-.23,1.73-.11.07-.25.12-.38.13-.77.06-.9-1.18-.97-2.24-.15-2.35.04-3.74.16-5.44.06-.9.1-1.89.14-2.89-.04-.99-.08-1.98-.14-2.89-.11-1.7-.3-3.09-.16-5.44.07-1.05.2-2.3.97-2.24.13,0,.27.06.38.13.48.31.32,1.08.23,1.73-.1.67-.13,1.21-.16,1.78-.04.75-.09,1.56-.13,2.35-.07,1.55-.1,3.06-.13,4.57Z"></path><path class="cls-11" d="M350.57,642.4c.03,1.51.06,3.03.13,4.57.04.8.09,1.6.13,2.36.03.57.07,1.11.16,1.78.09.65.25,1.42-.23,1.73-.11.07-.25.12-.38.13-.77.06-.9-1.18-.97-2.24-.15-2.35.04-3.74.16-5.44.06-.9.1-1.89.14-2.89-.04-.99-.08-1.98-.14-2.89-.11-1.7-.3-3.09-.16-5.44.07-1.05.2-2.3.97-2.24.13,0,.27.06.38.13.48.31.32,1.08.23,1.73-.1.67-.13,1.21-.16,1.78-.04.75-.09,1.56-.13,2.35-.07,1.55-.1,3.06-.13,4.57Z"></path><path class="cls-11" d="M297.52,617.46c-1.51.03-3.03.06-4.57.13-.8.04-1.6.09-2.35.13-.57.03-1.11.07-1.78.16-.65.09-1.42.25-1.73-.23-.07-.11-.12-.25-.13-.38-.06-.77,1.18-.9,2.24-.97,2.35-.15,3.74.04,5.44.16.9.06,1.9.1,2.89.14.99-.04,1.98-.08,2.89-.14,1.7-.11,3.09-.3,5.44-.16,1.05.07,2.3.2,2.24.97-.01.13-.06.27-.13.38-.3.48-1.08.33-1.73.23-.67-.1-1.21-.13-1.78-.16-.75-.04-1.56-.09-2.36-.13-1.54-.07-3.06-.1-4.57-.13Z"></path><path class="cls-11" d="M297.52,612.76c-1.51.03-3.03.06-4.57.13-.8.04-1.6.09-2.35.13-.57.03-1.11.07-1.78.16-.65.09-1.42.25-1.73-.23-.07-.11-.12-.25-.13-.38-.06-.77,1.18-.9,2.24-.97,2.35-.15,3.74.04,5.44.16.9.06,1.9.1,2.89.14.99-.04,1.98-.08,2.89-.14,1.7-.11,3.09-.3,5.44-.16,1.05.07,2.3.2,2.24.97-.01.13-.06.27-.13.38-.3.48-1.08.33-1.73.23-.67-.1-1.21-.13-1.78-.16-.75-.04-1.56-.09-2.36-.13-1.54-.07-3.06-.1-4.57-.13Z"></path><path class="cls-11" d="M297.52,608.07c-1.51.03-3.03.06-4.57.13-.8.04-1.6.09-2.35.13-.57.03-1.11.07-1.78.16-.65.09-1.42.25-1.73-.23-.07-.11-.12-.25-.13-.38-.06-.77,1.18-.9,2.24-.97,2.35-.15,3.74.04,5.44.16.9.06,1.9.1,2.89.14.99-.04,1.98-.08,2.89-.14,1.7-.11,3.09-.3,5.44-.16,1.05.07,2.3.2,2.24.97-.01.13-.06.27-.13.38-.3.48-1.08.33-1.73.23-.67-.1-1.21-.13-1.78-.16-.75-.04-1.56-.09-2.36-.13-1.54-.07-3.06-.1-4.57-.13Z"></path></g><polyline class="cls-11" points="297.52 580.74 297.52 642.4 412.32 642.4"></polyline><g><path class="cls-11" d="M591.76,474.88c.03,1.51.06,3.03.13,4.57.04.8.09,1.6.13,2.35.03.57.07,1.11.16,1.78.09.65.25,1.42-.23,1.73-.11.07-.25.12-.38.13-.77.06-.9-1.18-.97-2.24-.15-2.35.04-3.74.16-5.44.06-.9.1-1.9.14-2.89-.04-.99-.08-1.98-.14-2.89-.11-1.7-.3-3.09-.16-5.44.07-1.05.2-2.3.97-2.24.13.01.27.06.38.13.48.3.32,1.08.23,1.73-.1.67-.13,1.21-.16,1.78-.04.75-.09,1.56-.13,2.36-.07,1.54-.1,3.06-.13,4.57Z"></path><path class="cls-11" d="M587.06,474.88c.03,1.51.06,3.03.13,4.57.04.8.09,1.6.13,2.35.03.57.07,1.11.16,1.78.09.65.25,1.42-.23,1.73-.11.07-.25.12-.38.13-.77.06-.9-1.18-.97-2.24-.15-2.35.04-3.74.16-5.44.06-.9.1-1.9.14-2.89-.04-.99-.08-1.98-.14-2.89-.11-1.7-.3-3.09-.16-5.44.07-1.05.2-2.3.97-2.24.13.01.27.06.38.13.48.3.32,1.08.23,1.73-.1.67-.13,1.21-.16,1.78-.04.75-.09,1.56-.13,2.36-.07,1.54-.1,3.06-.13,4.57Z"></path><path class="cls-11" d="M582.37,474.88c.03,1.51.06,3.03.13,4.57.04.8.09,1.6.13,2.35.03.57.07,1.11.16,1.78.09.65.25,1.42-.23,1.73-.11.07-.25.12-.38.13-.77.06-.9-1.18-.97-2.24-.15-2.35.04-3.74.16-5.44.06-.9.1-1.9.14-2.89-.04-.99-.08-1.98-.14-2.89-.11-1.7-.3-3.09-.16-5.44.07-1.05.2-2.3.97-2.24.13.01.27.06.38.13.48.3.32,1.08.23,1.73-.1.67-.13,1.21-.16,1.78-.04.75-.09,1.56-.13,2.36-.07,1.54-.1,3.06-.13,4.57Z"></path></g><line class="cls-11" x1="548.61" y1="474.88" x2="624.84" y2="474.88"></line><polyline class="cls-11" points="535.95 105.16 498.89 96.01 461.84 87.23 424.7 78.83 387.46 70.79 350.22 63.12 312.8 55.73 275.38 48.7 237.86 42.05 200.35 35.77 162.74 29.85 125.04 24.31 87.34 19.13 49.55 14.24 15.37 10.14"></polyline><line class="cls-11" x1="609.77" y1="662.7" x2="653.48" y2="279.24"></line><line class="cls-11" x1="653.48" y1="279.24" x2="554.43" y2="279.24"></line><line class="cls-11" x1="535.95" y1="163.74" x2="535.95" y2="105.16"></line><polyline class="cls-11" points="543.99 107.19 579.47 116.34 614.95 125.86 650.25 135.65 685.54 145.82 720.65 156.26 676.21 276.93 661.89 276.93 662.53 271.2"></polyline><line class="cls-11" x1=".38" y1="2.67" x2=".38" y2="8.48"></line><polygon class="cls-7" points=".38 2.67 9.08 3.61 47.52 8.14 85.87 13.04 124.21 18.4 162.47 24.03 200.72 30.04 238.88 36.41 277.04 43.16 315.02 50.27 352.99 57.76 390.88 65.61 428.76 73.84 466.46 82.43 504.07 91.3 541.68 100.63 541.68 163.74 543.98 163.74 543.98 98.78 506.19 89.45 468.31 80.4 430.33 71.8 392.26 63.49 354.1 55.63 315.94 48.06 277.6 40.94 239.25 34.1 200.9 27.73 162.37 21.63 123.84 15.99 85.31 10.63 46.69 5.74 7.97 1.21 .38 .38 .38 2.67"></polygon><polygon class="cls-7" points="543.99 101.19 585.47 111.9 626.78 123.08 627.42 120.87 585.75 109.59 543.99 98.78 543.99 101.19"></polygon><polygon class="cls-7" points="543.99 668.52 614.95 668.52 659.95 273.51 659.95 273.54 554.43 273.54 554.43 271.23 662.53 271.23 616.98 670.86 616.98 670.83 543.99 670.83 543.99 668.52"></polygon><polyline class="cls-7" points="494.18 88.9 492.8 94.53 490.58 93.98 491.87 88.34 494.18 88.9"></polyline><polyline class="cls-7" points="572.54 108.58 571.06 114.12 568.84 113.57 570.32 107.93 572.54 108.58"></polyline><polyline class="cls-7" points="626.78 123.08 625.3 128.72 623.08 128.07 624.56 122.53 626.78 123.08"></polyline><polyline class="cls-7" points="426.64 73.37 425.44 79.01 423.13 78.46 424.42 72.82 426.64 73.37"></polyline><polyline class="cls-7" points="358.91 58.96 357.71 64.6 355.49 64.13 356.6 58.5 358.91 58.96"></polyline><polyline class="cls-7" points="290.9 45.75 289.79 51.38 287.58 50.92 288.59 45.28 290.9 45.75"></polyline><polyline class="cls-7" points="222.62 33.64 221.69 39.37 219.38 38.91 220.4 33.27 222.62 33.64"></polyline><polyline class="cls-7" points="154.24 22.74 153.41 28.47 151.1 28.1 151.93 22.37 154.24 22.74"></polyline><polyline class="cls-7" points="85.59 13.04 84.85 18.77 82.54 18.49 83.37 12.76 85.59 13.04"></polyline><polyline class="cls-7" points="16.84 4.54 16.2 10.26 13.89 9.99 14.63 4.26 16.84 4.54"></polyline><rect class="cls-7" x="600.63" y="273.51" width="2.31" height="5.73"></rect><rect class="cls-7" x="554.43" y="273.51" width="2.31" height="5.73"></rect><polyline class="cls-7" points="615.13 615.85 620.86 616.5 620.59 618.81 614.86 618.16 615.13 615.85"></polyline><polyline class="cls-7" points="611.25 650.23 616.98 650.97 616.7 653.18 610.98 652.54 611.25 650.23"></polyline><polyline class="cls-7" points="626.87 512.55 632.6 513.2 632.41 515.51 626.68 514.86 626.87 512.55"></polyline><polyline class="cls-7" points="622.99 547.02 628.72 547.66 628.44 549.97 622.71 549.33 622.99 547.02"></polyline><polyline class="cls-7" points="634.72 443.71 640.45 444.36 640.27 446.67 634.45 446.02 634.72 443.71"></polyline><polyline class="cls-7" points="638.7 409.25 644.42 409.89 644.15 412.2 638.42 411.56 638.7 409.25"></polyline><polyline class="cls-7" points="646.55 340.41 652.28 341.06 652 343.37 646.27 342.72 646.55 340.41"></polyline><polyline class="cls-7" points="609.96 661.13 609.77 662.7 608.2 662.7 613.38 668.52 614.95 668.52 615.13 666.95 609.96 661.13"></polyline><polyline class="cls-7" points="654.13 280.26 659.76 275.27 659.95 273.51 658.19 273.51 651.72 279.24 653.48 279.24 653.29 281 654.13 280.26"></polyline><rect class="cls-7" x="535.95" y="207.63" width="8.04" height="2.31"></rect><rect class="cls-7" x="535.95" y="163.74" width="8.04" height="2.31"></rect><polyline class="cls-7" points="534.47 104.79 535.95 105.16 535.95 106.55 541.68 102.11 541.68 100.63 540.29 100.26 534.47 104.79"></polyline><polygon class="cls-13" points="543.99 662.7 609.77 662.7 611.07 651.43 605.34 650.78 604.6 656.97 418.14 656.97 418.14 626.94 412.32 626.94 412.32 656.97 282.96 656.97 282.96 580.74 412.32 580.74 412.32 585.36 418.14 585.36 418.14 526.41 412.32 526.41 412.32 572.61 319.92 572.61 319.92 558.75 280.65 558.75 280.65 482.52 319.92 482.52 319.92 480.21 326.85 480.21 326.85 474.48 274.92 474.48 274.92 552.47 270.3 552.47 270.3 558.2 274.92 558.2 274.92 656.97 198.69 656.97 198.69 558.2 228.72 558.2 228.72 552.47 190.56 552.47 190.56 600.33 186.49 600.33 186.49 606.15 190.56 606.15 190.56 633.87 162.84 633.87 162.84 650.04 120.15 650.04 120.15 606.15 124.12 606.15 124.12 600.33 120.15 600.33 120.15 590.54 111.4 590.54 111.4 666.97 543.99 666.97 543.99 662.7"></polygon><polygon class="cls-9" points="543.99 662.7 609.77 662.7 611.07 651.43 605.34 650.78 604.6 656.97 418.14 656.97 418.14 626.94 412.32 626.94 412.32 656.97 282.96 656.97 282.96 580.74 412.32 580.74 412.32 585.36 418.14 585.36 418.14 526.41 412.32 526.41 412.32 572.61 319.92 572.61 319.92 558.75 280.65 558.75 280.65 482.52 319.92 482.52 319.92 480.21 326.85 480.21 326.85 474.48 274.92 474.48 274.92 552.47 270.3 552.47 270.3 558.2 274.92 558.2 274.92 656.97 198.69 656.97 198.69 558.2 228.72 558.2 228.72 552.47 190.56 552.47 190.56 600.33 186.49 600.33 186.49 606.15 190.56 606.15 190.56 633.87 162.84 633.87 162.84 650.04 120.15 650.04 120.15 606.15 124.12 606.15 124.12 600.33 120.15 600.33 120.15 590.54 111.4 590.54 111.4 666.97 543.99 666.97 543.99 662.7"></polygon><polygon class="cls-13" points=".38 8.48 15.09 10.08 14.44 15.9 10.38 15.44 10.38 229.62 108.6 229.62 108.6 238.86 102.78 238.86 102.78 235.35 10.38 235.35 10.38 313.89 102.78 313.89 102.78 280.44 108.6 280.44 108.6 283.31 113.22 283.31 113.22 289.13 108.6 289.13 108.6 413.87 114.37 413.87 114.37 455.45 190.55 455.45 190.55 289.08 154.89 289.08 154.89 283.31 185.38 283.31 185.38 278.69 191.11 278.69 191.11 283.31 198.69 283.31 198.69 497.03 157.11 497.03 157.11 491.21 159.42 491.21 159.42 463.49 114.33 463.49 114.33 491.21 122.46 491.21 122.46 497.03 120.15 497.03 120.15 543.11 111.4 543.11 111.4 501.21 98.55 501.21 98.6 323.89 .38 323.89 .38 8.48"></polygon><polygon class="cls-9" points=".38 8.48 15.09 10.08 14.44 15.9 10.38 15.44 10.38 229.62 108.6 229.62 108.6 238.86 102.78 238.86 102.78 235.35 10.38 235.35 10.38 313.89 102.78 313.89 102.78 280.44 108.6 280.44 108.6 283.31 113.22 283.31 113.22 289.13 108.6 289.13 108.6 413.87 114.37 413.87 114.37 455.45 190.55 455.45 190.55 289.08 154.89 289.08 154.89 283.31 185.38 283.31 185.38 278.69 191.11 278.69 191.11 283.31 198.69 283.31 198.69 497.03 157.11 497.03 157.11 491.21 159.42 491.21 159.42 463.49 114.33 463.49 114.33 491.21 122.46 491.21 122.46 497.03 120.15 497.03 120.15 543.11 111.4 543.11 111.4 501.21 98.55 501.21 98.6 323.89 .38 323.89 .38 8.48"></polygon><polygon class="cls-13" points="428.49 474.48 428.49 480.21 418.14 480.21 418.14 484.83 412.32 484.83 412.32 480.21 368.43 480.21 368.43 474.48 428.49 474.48"></polygon><polygon class="cls-9" points="428.49 474.48 428.49 480.21 418.14 480.21 418.14 484.83 412.32 484.83 412.32 480.21 368.43 480.21 368.43 474.48 428.49 474.48"></polygon><polygon class="cls-13" points="475.89 469.86 475.89 474.48 470.07 474.48 470.07 480.21 475.89 480.21 475.89 508.58 621.51 508.58 621.05 513.01 626.78 513.75 634.63 444.82 628.9 444.17 627.51 456 621.42 456 621.42 461.73 624.84 461.73 624.84 489.45 548.61 489.45 548.61 461.73 552.12 461.73 552.12 456 542.88 456 542.88 474.48 481.62 474.48 481.62 469.86 475.89 469.86"></polygon><polygon class="cls-9" points="475.89 469.86 475.89 474.48 470.07 474.48 470.07 480.21 475.89 480.21 475.89 508.58 621.51 508.58 621.05 513.01 626.78 513.75 634.63 444.82 628.9 444.17 627.51 456 621.42 456 621.42 461.73 624.84 461.73 624.84 489.45 548.61 489.45 548.61 461.73 552.12 461.73 552.12 456 542.88 456 542.88 474.48 481.62 474.48 481.62 469.86 475.89 469.86"></polygon><polygon class="cls-13" points="280.65 387.81 274.92 387.81 274.92 423.66 475.89 423.66 475.89 428.28 481.62 428.28 481.62 423.66 496.68 423.66 496.68 285.06 555.54 285.06 555.54 279.24 554.43 279.24 554.43 209.94 530.13 209.94 530.13 279.24 490.86 279.24 490.86 387.81 487.44 387.81 487.44 415.53 280.65 415.53 280.65 387.81"></polygon><polygon class="cls-9" points="280.65 387.81 274.92 387.81 274.92 423.66 475.89 423.66 475.89 428.28 481.62 428.28 481.62 423.66 496.68 423.66 496.68 285.06 555.54 285.06 555.54 279.24 554.43 279.24 554.43 209.94 530.13 209.94 530.13 279.24 490.86 279.24 490.86 387.81 487.44 387.81 487.44 415.53 280.65 415.53 280.65 387.81"></polygon><polygon class="cls-13" points="151.38 34.01 152.21 28.28 186.4 33.55 220.59 39.19 219.57 44.82 191.11 40.2 191.11 237.11 185.38 237.11 185.38 181.11 169.21 181.11 169.21 36.69 151.38 34.01 152.21 28.28 151.38 34.01"></polygon><polygon class="cls-9" points="151.38 34.01 152.21 28.28 186.4 33.55 220.59 39.19 219.57 44.82 191.11 40.2 191.11 237.11 185.38 237.11 185.38 181.11 169.21 181.11 169.21 36.69 151.38 34.01 152.21 28.28 151.38 34.01"></polygon><line class="cls-9" x1="543.99" y1="666.97" x2="543.99" y2="668.52"></line><g><path class="cls-22" d="M99.25,566.72c.08.02.14.07.14.14s-.06.13-.14.14c-3.3.56-4.94,2.74-4.94,6.02v3.83c0,1.16-1.01,1.98-2.66,2.2-.34.05-.61-.23-.46-.47.31-.46.47-1.06.47-1.78v-3.48c0-2.95,1.67-5.22,4.98-6.17.37-.11.37-.5,0-.61-3.31-.96-4.98-3.22-4.98-6.18v-3.48c0-.72-.16-1.32-.47-1.78-.16-.23.12-.51.46-.47,1.64.22,2.66,1.05,2.66,2.2v3.84c0,3.29,1.64,5.46,4.95,6.02h0Z"></path><path class="cls-10" d="M99.25,566.72c.08.02.14.07.14.14s-.06.13-.14.14c-3.3.56-4.94,2.74-4.94,6.02v3.83c0,1.16-1.01,1.98-2.66,2.2-.34.05-.61-.23-.46-.47.31-.46.47-1.06.47-1.78v-3.48c0-2.95,1.67-5.22,4.98-6.17.37-.11.37-.5,0-.61-3.31-.96-4.98-3.22-4.98-6.18v-3.48c0-.72-.16-1.32-.47-1.78-.16-.23.12-.51.46-.47,1.64.22,2.66,1.05,2.66,2.2v3.84c0,3.29,1.64,5.46,4.95,6.02h0Z"></path></g><text class="cls-15" transform="translate(39.66 137)"><tspan class="cls-46" x="0" y="0">P</tspan><tspan x="7.11" y="0">ri</tspan><tspan class="cls-33" x="15.05" y="0">m</tspan><tspan x="25.62" y="0">ary </tspan><tspan class="cls-45" x="47.81" y="0">Be</tspan><tspan x="62.5" y="0">d</tspan><tspan class="cls-29" x="70.23" y="0">r</tspan><tspan x="74.91" y="0">oom</tspan></text><text class="cls-15" transform="translate(242.85 189)"><tspan class="cls-35" x="0" y="0">L</tspan><tspan x="6.3" y="0">ivi</tspan><tspan class="cls-32" x="18.62" y="0">n</tspan><tspan x="25.5" y="0">g </tspan><tspan class="cls-26" x="35.46" y="0">R</tspan><tspan class="cls-21" x="42.87" y="0">oom</tspan></text><text class="cls-15" transform="translate(414.11 189)"><tspan class="cls-31" x="0" y="0">D</tspan><tspan class="cls-21" x="8.83" y="0">ini</tspan><tspan class="cls-32" x="21.41" y="0">n</tspan><tspan x="28.29" y="0">g </tspan><tspan class="cls-26" x="38.26" y="0">R</tspan><tspan class="cls-21" x="45.66" y="0">oom</tspan></text><text class="cls-15" transform="translate(605.96 189)"><tspan class="cls-35" x="0" y="0">B</tspan><tspan class="cls-40" x="7.67" y="0">a</tspan><tspan class="cls-25" x="14.53" y="0">l</tspan><tspan class="cls-42" x="17.76" y="0">c</tspan><tspan class="cls-21" x="24.38" y="0">o</tspan><tspan class="cls-38" x="31.92" y="0">n</tspan><tspan x="38.72" y="0">y</tspan></text><text class="cls-15" transform="translate(493.22 587.02)"><tspan class="cls-35" x="0" y="0">B</tspan><tspan class="cls-44" x="7.67" y="0">e</tspan><tspan x="14.66" y="0">d</tspan><tspan class="cls-29" x="22.39" y="0">r</tspan><tspan x="27.06" y="0">oom</tspan></text><text class="cls-15" transform="translate(544.72 367)"><tspan class="cls-35" x="0" y="0">B</tspan><tspan class="cls-44" x="7.67" y="0">e</tspan><tspan x="14.66" y="0">d</tspan><tspan class="cls-29" x="22.39" y="0">r</tspan><tspan x="27.06" y="0">oom</tspan></text><text class="cls-15" transform="translate(364.29 367)"><tspan class="cls-39" x="0" y="0">K</tspan><tspan x="7.9" y="0">i</tspan><tspan class="cls-23" x="10.71" y="0">t</tspan><tspan class="cls-17" x="15.11" y="0">c</tspan><tspan class="cls-34" x="21.83" y="0">h</tspan><tspan x="28.74" y="0">en</tspan></text><text class="cls-15" transform="translate(157.6 529)"><tspan class="cls-28" x="0" y="0">F</tspan><tspan class="cls-27" x="6.99" y="0">oy</tspan><tspan x="20.86" y="0">er</tspan></text><text class="cls-14" transform="translate(47.53 278.05)"><tspan x="0" y="0">WIC</tspan></text><text class="cls-14" transform="translate(131.59 631.58)"><tspan x="0" y="0">W</tspan></text><text class="cls-14" transform="translate(141.04 630.71)"><tspan x="0" y="0">/</tspan></text><text class="cls-14" transform="translate(145.01 631.58)"><tspan x="0" y="0">D</tspan></text><text class="cls-14" transform="translate(316.78 406.5)"><tspan x="0" y="0">O</tspan></text><text class="cls-14" transform="translate(324.25 405.5)"><tspan x="0" y="0">/</tspan></text><text class="cls-14" transform="translate(328.23 406.5)"><tspan x="0" y="0">M</tspan></text><text class="cls-14" transform="translate(292.16 406.5)"><tspan x="0" y="0">P</tspan></text><text class="cls-14" transform="translate(457.41 406.5)"><tspan class="cls-36" x="0" y="0">R</tspan><tspan class="cls-43" x="5.85" y="0">E</tspan><tspan x="11.71" y="0">F</tspan></text><text class="cls-14" transform="translate(310.79 326.93)"><tspan class="cls-24" x="0" y="0">D</tspan><tspan x="6.64" y="0">W</tspan></text><text class="cls-14" transform="translate(414.81 326.93)"><tspan x="0" y="0">WF</tspan></text><text class="cls-14" transform="translate(174.16 623.96)"><tspan x="0" y="0">L</tspan></text><text class="cls-14" transform="translate(345.28 615.31)"><tspan x="0" y="0">WIC</tspan></text><text class="cls-16" transform="translate(680.36 51.47)"><tspan class="cls-37" x="0" y="0">F</tspan><tspan class="cls-48" x="4.45" y="0">i</tspan><tspan class="cls-47" x="6.26" y="0">n Ex</tspan><tspan class="cls-41" x="21.68" y="0">t</tspan><tspan class="cls-49" x="24.47" y="0">e</tspan><tspan class="cls-20" x="28.87" y="0">n</tspan><tspan class="cls-47" x="33.18" y="0">s</tspan><tspan class="cls-48" x="36.98" y="0">i</tspan><tspan class="cls-47" x="38.79" y="0">on</tspan><tspan x="47.85" y="0">:</tspan></text><text class="cls-16" transform="translate(680.36 61.07)"><tspan class="cls-49" x="0" y="0">1</tspan><tspan class="cls-48" x="4.55" y="0">3</tspan><tspan class="cls-49" x="9.11" y="0">0</tspan><tspan class="cls-18" x="13.66" y="0">5</tspan></text><text class="cls-16" transform="translate(680.36 70.67)"><tspan class="cls-49" x="0" y="0">1</tspan><tspan class="cls-48" x="4.55" y="0">4</tspan><tspan class="cls-49" x="9.11" y="0">0</tspan><tspan class="cls-18" x="13.66" y="0">5</tspan></text><text class="cls-16" transform="translate(680.36 80.27)"><tspan class="cls-49" x="0" y="0">1</tspan><tspan class="cls-48" x="4.55" y="0">5</tspan><tspan class="cls-49" x="9.11" y="0">0</tspan><tspan class="cls-18" x="13.66" y="0">5</tspan></text><text class="cls-16" transform="translate(680.36 89.87)"><tspan class="cls-49" x="0" y="0">1</tspan><tspan class="cls-48" x="4.55" y="0">6</tspan><tspan class="cls-49" x="9.11" y="0">0</tspan><tspan class="cls-18" x="13.66" y="0">5</tspan></text><text class="cls-16" transform="translate(680.36 99.47)"><tspan class="cls-49" x="0" y="0">1</tspan><tspan class="cls-48" x="4.55" y="0">7</tspan><tspan class="cls-49" x="9.11" y="0">0</tspan><tspan class="cls-18" x="13.66" y="0">5</tspan></text><text class="cls-16" transform="translate(680.36 109.07)"><tspan class="cls-49" x="0" y="0">1</tspan><tspan class="cls-48" x="4.55" y="0">8</tspan><tspan class="cls-49" x="9.11" y="0">0</tspan><tspan class="cls-18" x="13.66" y="0">5</tspan></text><polyline class="cls-1" points="672.37 106.67 648.22 106.67 646.22 113.59"></polyline><path class="cls-30" d="M645.1,117.47l3.56-4.88s-2.44,1-3.97-1.14l.41,6.02Z"></path><polyline class="cls-1" points="672.37 96.99 649.51 96.99 644.33 113.13"></polyline><path class="cls-30" d="M643.1,116.97l3.7-4.77s-2.46.93-3.93-1.26l.23,6.03Z"></path><polyline class="cls-1" points="672.37 87.31 650.36 87.31 642.73 112.61"></polyline><path class="cls-30" d="M641.57,116.47l3.61-4.84s-2.45.97-3.95-1.19l.34,6.03Z"></path><polyline class="cls-1" points="672.37 77.63 650.24 77.63 640.24 111.6"></polyline><path class="cls-30" d="M639.1,115.47l3.58-4.86s-2.44.99-3.96-1.17l.38,6.03Z"></path><polyline class="cls-1" points="672.37 67.95 648.68 67.95 636.23 110.6"></polyline><path class="cls-30" d="M635.1,114.47l3.57-4.87s-2.44.99-3.96-1.16l.39,6.02Z"></path><polyline class="cls-1" points="672.37 58.27 645.52 58.27 630.62 108.8"></polyline><path class="cls-30" d="M629.48,112.67l3.58-4.86s-2.44.98-3.96-1.17l.38,6.03Z"></path></g></g></svg> 