<?xml version="1.0" encoding="UTF-8"?> <svg xmlns="http://www.w3.org/2000/svg" id="Layer_2" data-name="Layer 2" viewBox="0 0 794.69 570.85"><defs><style> .cls-1 { stroke: #afa49f; } .cls-1, .cls-2, .cls-3, .cls-4, .cls-5, .cls-6, .cls-7, .cls-8, .cls-9, .cls-10, .cls-11, .cls-12, .cls-13 { fill: none; } .cls-1, .cls-2, .cls-3, .cls-5, .cls-7, .cls-8, .cls-10, .cls-11, .cls-13 { stroke-width: .25px; } .cls-1, .cls-3, .cls-5, .cls-9, .cls-10, .cls-13 { stroke-miterlimit: 10; } .cls-2 { stroke-dasharray: 1.54 1.54; } .cls-2, .cls-3, .cls-5, .cls-7, .cls-8, .cls-13 { stroke: #75655e; } .cls-2, .cls-4, .cls-6, .cls-7, .cls-8, .cls-11, .cls-12 { stroke-linecap: round; stroke-linejoin: round; } .cls-14 { fill: #3a2a22; } .cls-3 { stroke-dasharray: 5.56 4.63; } .cls-4 { stroke: #55453d; stroke-width: .15px; } .cls-15 { fill: #fff; } .cls-5 { stroke-dasharray: 5.85 4.88; } .cls-6 { stroke-width: .5px; } .cls-6, .cls-9, .cls-11, .cls-12 { stroke: #3a2a22; } .cls-16 { fill: #bc8ebc; } .cls-8 { stroke-dasharray: 6.32 5.26; } .cls-9 { stroke-width: .75px; } .cls-10 { stroke: #bc8ebc; } .cls-17 { fill: #afa49f; } .cls-12 { stroke-width: .35px; } .cls-18 { fill: #75655e; } </style></defs><g id="Layer_1-2" data-name="Layer 1"><g><polyline class="cls-7" points="371.94 52 371.94 34.9 405.39 36.1 405.75 28.06 370.27 26.77 334.88 25.94 299.49 25.38 264.1 25.2 228.62 25.38 193.23 25.94 176.69 26.37"></polyline><polygon class="cls-15" points="696.1 75.74 692.93 75.37 654.22 71.12 615.5 67.33 576.69 63.91 537.79 60.87 498.99 58.19 455.37 55.6 454.91 63.65 414.35 61.7 371.94 60.13 371.94 52 332.02 50.89 292.01 50.24 252.09 49.87 212.08 49.96 176.69 50.45 176.69 50.42 176.69 26.4 176.69 26.37 157.85 26.86 122.46 28.16 87.07 29.82 51.68 31.85 16.29 34.16 .37 35.41 .37 550.51 794.32 550.51 794.32 387.29 696.1 387.29 696.1 75.74"></polygon><polyline class="cls-12" points="498.99 72.05 456.67 69.55 414.35 67.52 371.94 65.86"></polyline><polyline class="cls-12" points="498.99 74.05 456.67 71.55 414.35 69.52 371.94 67.86"></polyline><polygon class="cls-12" points=".38 37.75 30.89 35.55 66.74 33.24 102.59 31.39 138.53 29.91 174.39 28.71 174.39 47.93 172.44 47.93 172.44 30.84 136.69 31.94 100.93 33.52 65.26 35.36 29.59 37.58 .38 39.78 .38 37.75"></polygon><rect class="cls-12" x="4.09" y="41.55" width="3.42" height="76.88"></rect><g><path class="cls-4" d="M775.23,494.18c-25.57,0-43.48,20.73-43.48,46.29"></path><path class="cls-4" d="M588.05,349.99c-23.13,0-39.35,18.62-39.35,41.58"></path><path class="cls-4" d="M642.21,304.82c0,23.13-18.62,39.35-41.58,39.35"></path><path class="cls-4" d="M604.22,500.14c-23.13,0-39.35-18.62-39.35-41.58"></path><path class="cls-4" d="M179.08,495.52c-23.13,0-39.35-18.62-39.35-41.58"></path><path class="cls-4" d="M144.36,398.57c0-23.13,18.62-39.35,41.58-39.35"></path><path class="cls-4" d="M376.48,112.06c23.13,0,39.35,18.62,39.35,41.58"></path><path class="cls-4" d="M166.81,74.4c-23.13.4-39.3,19.41-38.9,42.37"></path></g><line class="cls-4" x1="731.74" y1="550.47" x2="778.03" y2="550.47"></line><line class="cls-4" x1="775.23" y1="540.47" x2="731.74" y2="540.47"></line><rect class="cls-12" x="775.23" y="494.18" width="2.81" height="46.29"></rect><rect class="cls-12" x="588.05" y="349.99" width="2.23" height="41.58"></rect><rect class="cls-12" x="600.63" y="302.58" width="41.58" height="2.23"></rect><rect class="cls-12" x="622.62" y="452.73" width="41.58" height="2.23"></rect><rect class="cls-12" x="604.22" y="458.56" width="2.23" height="41.58"></rect><rect class="cls-12" x="179.08" y="453.94" width="2.23" height="41.58"></rect><rect class="cls-12" x="124.77" y="362.64" width="2.23" height="41.58"></rect><rect class="cls-12" x="538.94" y="276.62" width="2.23" height="48.51"></rect><rect class="cls-12" x="541.17" y="325.13" width="2.23" height="48.51"></rect><rect class="cls-12" x="432.55" y="455.65" width="41.58" height="2.23"></rect><rect class="cls-12" x="453.34" y="453.41" width="41.58" height="2.23"></rect><rect class="cls-12" x="144.36" y="398.57" width="41.58" height="2.23"></rect><rect class="cls-12" x="374.25" y="112.06" width="2.23" height="41.58"></rect><rect class="cls-12" x="167.17" y="74.38" width="2.23" height="41.58" transform="translate(-1.64 2.95) rotate(-1)"></rect><rect class="cls-12" x="706.96" y="463.18" width="2.23" height="69.3"></rect><line class="cls-12" x1="706.96" y1="497.83" x2="709.2" y2="497.83"></line><polyline class="cls-7" points="242.72 428.65 241.97 428.65 241.97 429.4"></polyline><line class="cls-2" x1="241.97" y1="430.94" x2="241.97" y2="454.74"></line><polyline class="cls-7" points="241.97 455.51 241.97 456.26 242.72 456.26"></polyline><line class="cls-2" x1="244.26" y1="456.26" x2="268.07" y2="456.26"></line><polyline class="cls-7" points="268.83 456.26 269.58 456.26 269.58 455.51"></polyline><line class="cls-2" x1="269.58" y1="453.97" x2="269.58" y2="430.17"></line><polyline class="cls-7" points="269.58 429.4 269.58 428.65 268.83 428.65"></polyline><line class="cls-2" x1="267.3" y1="428.65" x2="243.49" y2="428.65"></line><polyline class="cls-7" points="346.21 428.65 345.46 428.65 345.46 429.4"></polyline><line class="cls-2" x1="345.46" y1="430.93" x2="345.46" y2="454.74"></line><polyline class="cls-7" points="345.46 455.51 345.46 456.26 346.21 456.26"></polyline><line class="cls-2" x1="347.74" y1="456.26" x2="371.55" y2="456.26"></line><polyline class="cls-7" points="372.32 456.26 373.07 456.26 373.07 455.51"></polyline><line class="cls-2" x1="373.07" y1="453.97" x2="373.07" y2="430.17"></line><polyline class="cls-7" points="373.07 429.4 373.07 428.65 372.32 428.65"></polyline><line class="cls-2" x1="370.78" y1="428.65" x2="346.97" y2="428.65"></line><line class="cls-7" x1="271.55" y1="518.98" x2="274.55" y2="518.98"></line><line class="cls-8" x1="279.82" y1="518.98" x2="369.82" y2="518.98"></line><line class="cls-7" x1="372.45" y1="518.98" x2="375.45" y2="518.98"></line><line class="cls-13" x1="100.28" y1="117.48" x2="100.28" y2="114.48"></line><line class="cls-5" x1="100.28" y1="109.6" x2="100.28" y2="79.84"></line><polyline class="cls-13" points="100.28 77.4 100.28 74.4 103.28 74.4"></polyline><line class="cls-3" x1="107.91" y1="74.4" x2="166.76" y2="74.4"></line><line class="cls-13" x1="169.07" y1="74.4" x2="172.07" y2="74.4"></line><line class="cls-12" x1="417.03" y1="507.07" x2="195.18" y2="507.08"></line><line class="cls-12" x1="235.65" y1="507.07" x2="235.65" y2="534.79"></line><line class="cls-12" x1="271.4" y1="507.07" x2="271.41" y2="534.79"></line><line class="cls-12" x1="375.45" y1="507.07" x2="375.45" y2="534.79"></line><line class="cls-12" x1="271.4" y1="509.57" x2="195.18" y2="509.57"></line><line class="cls-12" x1="417.03" y1="509.57" x2="375.45" y2="509.57"></line><rect class="cls-12" x="237.95" y="406.64" width="138.6" height="49.62"></rect><g><rect class="cls-12" x="325.34" y="426.32" width="1.74" height="9.78" rx=".59" ry=".59"></rect><path class="cls-12" d="M326.21,441.99c.49,0,.9.4.9.9s-.4.9-.9.9-.9-.4-.9-.9.4-.9.9-.9Z"></path></g><polyline class="cls-12" points="327.08 427.63 329.5 427.63 329.5 429.18 327.08 429.18"></polyline><line class="cls-12" x1="328.64" y1="429.18" x2="328.64" y2="427.63"></line><polyline class="cls-12" points="327.08 431.5 339.13 431.5 339.14 453.25 313.29 453.25 313.29 431.5 325.34 431.5"></polyline><polyline class="cls-12" points="325.34 432.58 314.37 432.58 314.37 452.17 338.06 452.17 338.05 432.58 327.08 432.58"></polyline><polyline class="cls-12" points="185.93 507.41 102.2 507.41 102.2 532.55"></polyline><path class="cls-12" d="M126.14,524.47h-9.87c-.4,0-.72-.32-.72-.72v-10.9c0-.4.32-.72.72-.72h20.82c.4,0,.72.32.72.72v10.9c0,.4-.32.72-.72.72h-9.48"></path><rect class="cls-12" x="126.14" y="522.03" width="1.47" height="5.89"></rect><g><circle class="cls-12" cx="126.88" cy="518.3" r=".84"></circle><path class="cls-12" d="M160.9,524.47h-9.87c-.4,0-.72-.32-.72-.72v-10.9c0-.4.32-.72.72-.72h20.82c.4,0,.72.32.72.72v10.9c0,.4-.32.72-.72.72h-9.48"></path></g><rect class="cls-12" x="160.9" y="522.03" width="1.47" height="5.89"></rect><circle class="cls-12" cx="161.64" cy="518.3" r=".84"></circle><line class="cls-12" x1="61.19" y1="456.25" x2="61.2" y2="531.61"></line><line class="cls-12" x1="59.91" y1="456.25" x2="59.92" y2="532.43"></line><line class="cls-12" x1="59.91" y1="460.93" x2="61.2" y2="460.93"></line><line class="cls-12" x1="59.91" y1="498.93" x2="61.2" y2="498.93"></line><g><path class="cls-12" d="M40.97,468.13c0,.67-.54,1.21-1.21,1.21s-1.21-.54-1.21-1.21.54-1.21,1.21-1.21,1.21.54,1.21,1.21Z"></path><path class="cls-12" d="M44.94,468.13c0,2.86-2.32,5.18-5.18,5.18s-5.18-2.32-5.18-5.18,2.32-5.18,5.18-5.18,5.18,2.32,5.18,5.18Z"></path></g><line class="cls-12" x1="19.61" y1="519.04" x2="59.92" y2="519.04"></line><g><rect class="cls-12" x="72.9" y="524.98" width="17.6" height="7.45" rx="1.08" ry="1.08"></rect><path class="cls-12" d="M86.16,520.83c.28,0,.54-.11.73-.32,1.88-2.09,3.09-5.3,3.09-8.9,0-6.31-3.71-11.42-8.28-11.42s-8.28,5.11-8.28,11.42c0,3.6,1.2,6.8,3.08,8.9.19.21.46.32.73.32h8.92Z"></path></g><line class="cls-12" x1="89.98" y1="511.61" x2="89.98" y2="525.13"></line><line class="cls-12" x1="73.42" y1="511.61" x2="73.42" y2="525.13"></line><line class="cls-12" x1="671.86" y1="282.1" x2="671.86" y2="278.89"></line><g><path class="cls-12" d="M671.86,278.03v-11.6c0-1.38-1.12-2.5-2.5-2.5h-61.83c-1.38,0-2.5,1.12-2.5,2.5v24.04c0,1.38,1.12,2.5,2.5,2.5h61.83c1.38,0,2.5-1.12,2.5-2.5v-8.37"></path><path class="cls-12" d="M675.89,278.89h-10.86c-.24,0-.43-.19-.43-.43s.19-.43.43-.43h10.81"></path><path class="cls-12" d="M666.11,278.03c-.17-.46-.61-.79-1.14-.79-.67,0-1.21.54-1.21,1.21s.54,1.21,1.21,1.21c.51,0,.95-.32,1.13-.77"></path><path class="cls-12" d="M670.14,278.03c-.21-2.66-2.45-4.76-5.17-4.76-2.86,0-5.18,2.32-5.18,5.18s2.32,5.18,5.18,5.18c2.71,0,4.94-2.09,5.17-4.74"></path></g><rect class="cls-12" x="675.89" y="275.91" width=".97" height="5.08"></rect><line class="cls-12" x1="676.86" y1="296.68" x2="600.63" y2="296.68"></line><line class="cls-12" x1="676.86" y1="297.96" x2="600.67" y2="297.96"></line><line class="cls-12" x1="672.17" y1="297.96" x2="672.17" y2="296.68"></line><line class="cls-12" x1="634.17" y1="297.97" x2="634.17" y2="296.68"></line><g><rect class="cls-12" x="656.92" y="381.8" width="17.6" height="7.45" rx="1.08" ry="1.08"></rect><path class="cls-12" d="M670.18,377.66c.28,0,.54-.11.73-.32,1.88-2.09,3.08-5.3,3.08-8.9,0-6.31-3.7-11.42-8.28-11.42s-8.28,5.11-8.28,11.42c0,3.6,1.2,6.8,3.08,8.9.19.21.46.32.73.32h8.92Z"></path></g><line class="cls-12" x1="674" y1="368.44" x2="674" y2="381.96"></line><line class="cls-12" x1="657.45" y1="368.44" x2="657.45" y2="381.96"></line><polyline class="cls-12" points="645.05 389.26 645.05 364.24 600.63 364.24"></polyline><path class="cls-12" d="M627.04,381.19h-9.87c-.4,0-.72-.32-.72-.72v-10.9c0-.4.32-.72.72-.72h20.82c.4,0,.72.32.72.72v10.9c0,.4-.32.72-.72.72h-9.48"></path><rect class="cls-12" x="627.04" y="378.76" width="1.47" height="5.89"></rect><g><circle class="cls-12" cx="627.77" cy="375.02" r=".84"></circle><path class="cls-12" d="M541.25,527.33h15.44c.6,0,1.08.48,1.08,1.08v5.3c0,.6-.48,1.08-1.08,1.08h-15.44c-.6,0-1.08-.48-1.08-1.08v-5.29c0-.6.48-1.08,1.08-1.08Z"></path><path class="cls-12" d="M544.51,523.19c-.28,0-.54-.11-.73-.32-1.88-2.09-3.08-5.3-3.08-8.9,0-6.31,3.7-11.42,8.28-11.42s8.28,5.11,8.28,11.42c0,3.6-1.2,6.8-3.08,8.9-.19.21-.46.32-.73.32h-8.92Z"></path></g><line class="cls-12" x1="540.7" y1="513.97" x2="540.7" y2="527.49"></line><line class="cls-12" x1="557.25" y1="513.97" x2="557.25" y2="527.49"></line><polyline class="cls-12" points="569.65 534.79 569.65 509.77 611.07 509.77"></polyline><path class="cls-12" d="M590.9,526.72h9.87c.4,0,.72-.32.72-.72v-10.9c0-.4-.32-.72-.72-.72h-20.82c-.4,0-.72.32-.72.72v10.9c0,.4.32.72.72.72h9.48"></path><rect class="cls-12" x="589.43" y="524.29" width="1.47" height="5.89"></rect><circle class="cls-12" cx="590.17" cy="520.55" r=".84"></circle><rect class="cls-12" x="628.06" y="498.41" width="30.61" height="38.03"></rect><rect class="cls-12" x="304.81" y="508.4" width="36.98" height="24.28"></rect><rect class="cls-12" x="305.89" y="509.48" width="34.82" height="22.12"></rect><path class="cls-12" d="M323.3,510.23c.71,0,1.28.57,1.28,1.28s-.57,1.28-1.28,1.28-1.28-.57-1.28-1.28c0-.71.57-1.28,1.28-1.28Z"></path><line class="cls-12" x1="340.7" y1="509.47" x2="341.78" y2="508.39"></line><line class="cls-12" x1="305.89" y1="509.48" x2="304.81" y2="508.4"></line><line class="cls-12" x1="305.89" y1="531.59" x2="304.81" y2="532.67"></line><line class="cls-12" x1="340.71" y1="531.59" x2="341.79" y2="532.67"></line><polygon class="cls-12" points="322.24 511.51 323.3 512.56 324.35 511.51 323.3 510.45 322.24 511.51"></polygon><line class="cls-12" x1="323.3" y1="512.56" x2="323.3" y2="510.45"></line><g><path class="cls-11" d="M524.98,330.17c-1.51.03-3.03.06-4.57.13-.8.04-1.6.09-2.35.13-.57.03-1.11.07-1.78.16-.65.09-1.42.25-1.73-.23-.07-.11-.12-.25-.13-.38-.06-.77,1.18-.9,2.24-.97,2.35-.15,3.74.04,5.44.16.9.06,1.9.1,2.89.14.99-.04,1.98-.08,2.89-.14,1.7-.12,3.09-.3,5.44-.16,1.05.07,2.3.2,2.24.97-.01.13-.06.27-.12.38-.31.48-1.08.33-1.73.23-.67-.1-1.21-.13-1.78-.16-.75-.04-1.56-.09-2.35-.13-1.55-.07-3.06-.1-4.57-.13Z"></path><path class="cls-11" d="M524.98,325.47c-1.51.03-3.03.06-4.57.13-.8.04-1.6.09-2.35.13-.57.03-1.11.07-1.78.16-.65.09-1.42.25-1.73-.23-.07-.11-.12-.25-.13-.38-.06-.77,1.18-.9,2.24-.97,2.35-.15,3.74.04,5.44.16.9.06,1.9.1,2.89.14.99-.04,1.98-.08,2.89-.14,1.7-.12,3.09-.3,5.44-.16,1.05.07,2.3.2,2.24.97-.01.13-.06.27-.12.38-.31.48-1.08.32-1.73.23-.67-.1-1.21-.13-1.78-.16-.75-.04-1.56-.09-2.35-.13-1.55-.07-3.06-.1-4.57-.13Z"></path><path class="cls-11" d="M524.98,320.78c-1.51.03-3.03.06-4.57.13-.8.04-1.6.09-2.35.13-.57.03-1.11.07-1.78.16-.65.09-1.42.25-1.73-.23-.07-.11-.12-.25-.13-.38-.06-.77,1.18-.9,2.24-.97,2.35-.15,3.74.04,5.44.16.9.06,1.9.1,2.89.14.99-.04,1.98-.08,2.89-.14,1.7-.12,3.09-.3,5.44-.16,1.05.07,2.3.2,2.24.97-.01.13-.06.27-.12.38-.31.48-1.08.32-1.73.23-.67-.1-1.21-.13-1.78-.16-.75-.04-1.56-.09-2.35-.13-1.55-.07-3.06-.1-4.57-.13Z"></path></g><line class="cls-11" x1="524.98" y1="258.69" x2="524.98" y2="391.57"></line><g><path class="cls-11" d="M690.31,502.86c-1.51.03-3.03.06-4.57.13-.8.04-1.6.09-2.35.13-.57.03-1.11.07-1.78.16-.65.09-1.42.25-1.73-.23-.07-.11-.12-.25-.13-.38-.06-.77,1.18-.9,2.24-.97,2.35-.15,3.74.04,5.44.16.9.06,1.9.1,2.89.14.99-.04,1.98-.08,2.89-.14,1.7-.11,3.09-.3,5.44-.16,1.05.07,2.3.2,2.24.97-.01.13-.06.27-.13.38-.31.48-1.08.33-1.73.23-.67-.1-1.21-.13-1.78-.16-.75-.04-1.56-.09-2.35-.13-1.55-.07-3.06-.1-4.57-.13Z"></path><path class="cls-11" d="M690.31,498.17c-1.51.03-3.03.06-4.57.13-.8.04-1.6.09-2.35.13-.57.03-1.11.07-1.78.16-.65.09-1.42.25-1.73-.23-.07-.11-.12-.25-.13-.38-.06-.77,1.18-.9,2.24-.97,2.35-.15,3.74.04,5.44.16.9.06,1.9.1,2.89.14.99-.04,1.98-.08,2.89-.14,1.7-.11,3.09-.3,5.44-.16,1.05.07,2.3.2,2.24.97-.01.13-.06.27-.13.38-.31.48-1.08.33-1.73.23-.67-.1-1.21-.13-1.78-.16-.75-.04-1.56-.09-2.35-.13-1.55-.07-3.06-.1-4.57-.13Z"></path><path class="cls-11" d="M690.31,493.47c-1.51.03-3.03.06-4.57.13-.8.04-1.6.09-2.35.13-.57.03-1.11.07-1.78.16-.65.09-1.42.25-1.73-.23-.07-.11-.12-.25-.13-.38-.06-.77,1.18-.9,2.24-.97,2.35-.15,3.74.04,5.44.16.9.06,1.9.1,2.89.14.99-.04,1.98-.08,2.89-.14,1.7-.11,3.09-.3,5.44-.16,1.05.07,2.3.2,2.24.97-.01.13-.06.27-.13.38-.31.48-1.08.33-1.73.23-.67-.1-1.21-.13-1.78-.16-.75-.04-1.56-.09-2.35-.13-1.55-.07-3.06-.1-4.57-.13Z"></path></g><line class="cls-11" x1="690.31" y1="458.56" x2="690.31" y2="537.1"></line><polyline class="cls-11" points="696.1 83.81 658.84 79.81 620.95 76.02 582.98 72.6 545.09 69.46 507.02 66.78"></polyline><polyline class="cls-11" points="363.8 59.85 327.12 58.93 290.44 58.28 253.66 58 216.98 58 180.21 58.46"></polyline><polyline class="cls-11" points="128 124.9 81.71 126.1 35.41 127.67 .38 129.09 .38 123.34"></polyline><line class="cls-11" x1="180.21" y1="58.46" x2="180.21" y2="123.98"></line><line class="cls-11" x1="507.12" y1="66.78" x2="507.12" y2="161.67"></line><line class="cls-11" x1="507.12" y1="161.67" x2="418.14" y2="161.67"></line><polyline class="cls-11" points="363.8 59.85 363.8 161.67 369.63 161.67"></polyline><polyline class="cls-11" points="498.99 66.23 456.67 63.73 414.35 61.7 371.94 60.13"></polyline><polyline class="cls-11" points="176.69 50.42 176.69 26.4 176.69 26.37 157.84 26.86 122.46 28.16 87.07 29.82 51.68 31.85 16.29 34.16 .37 35.41 .37 121.03"></polyline><line class="cls-11" x1="696.1" y1="78.02" x2="696.1" y2="83.81"></line><polygon class="cls-6" points="696.1 75.74 692.93 75.37 654.22 71.12 615.5 67.33 576.69 63.91 537.79 60.87 498.99 58.19 498.99 153.64 418.14 153.64 418.14 155.95 501.3 155.95 501.3 60.59 539.92 63.36 578.45 66.41 616.98 69.83 655.51 73.62 694.04 77.78 696.1 78.02 696.1 75.74"></polygon><polygon class="cls-6" points="174.38 123.98 174.38 52.74 213.47 52.27 252.55 52.18 291.55 52.55 330.63 53.2 369.63 54.21 369.63 161.67 371.94 161.67 371.94 52 332.02 50.89 292.01 50.24 252.09 49.87 212.08 49.96 172.07 50.52 172.07 123.98 174.38 123.98"></polygon><polygon class="cls-6" points=".38 121.03 34.12 119.63 80.97 117.97 125.6 116.83 125.62 119.17 79.03 120.37 32.46 121.94 .38 123.34 .38 121.03"></polygon><polygon class="cls-6" points="455.28 57.91 498.99 60.5 498.99 58.19 455.37 55.6 455.28 57.91"></polygon><polyline class="cls-6" points="666.05 74.82 665.4 80.64 663.09 80.36 663.74 74.63 666.05 74.82"></polyline><polyline class="cls-6" points="631.58 71.31 631.03 77.13 628.72 76.85 629.27 71.12 631.58 71.31"></polyline><polyline class="cls-6" points="562.56 65.21 562.1 70.94 559.79 70.75 560.25 65.02 562.56 65.21"></polyline><polyline class="cls-6" points="356.41 53.84 356.23 59.66 353.92 59.57 354.1 53.75 356.41 53.84"></polyline><polyline class="cls-6" points="287.21 52.46 287.11 58.28 284.8 58.19 284.9 52.46 287.21 52.46"></polyline><polyline class="cls-6" points="217.91 52.27 217.91 58 215.6 58.09 215.6 52.27 217.91 52.27"></polyline><polyline class="cls-6" points="102.59 119.72 102.68 125.45 100.37 125.55 100.28 119.82 102.59 119.72"></polyline><rect class="cls-6" x="174.38" y="114.83" width="5.82" height="2.31"></rect><rect class="cls-6" x="169.76" y="115.94" width="2.31" height="8.04"></rect><polyline class="cls-6" points="180.11 60.03 180.21 60.03 180.21 58.46 181.87 58.37 176.05 52.73 174.66 52.73 174.48 52.73 174.48 54.4 180.11 60.03"></polyline><polygon class="cls-6" points="125.6 116.83 127.91 116.77 128 124.9 125.69 124.9 125.6 116.83"></polygon><polyline class="cls-6" points="507.12 66.78 508.78 66.87 502.96 60.77 501.3 60.59 501.3 62.34 507.12 68.44 507.12 66.78"></polyline><rect class="cls-6" x="501.3" y="132.85" width="5.82" height="2.31"></rect><rect class="cls-6" x="371.94" y="153.64" width="2.31" height="8.04"></rect><rect class="cls-6" x="415.83" y="153.64" width="2.31" height="8.04"></rect><rect class="cls-6" x="501.3" y="152.43" width="5.82" height="2.31"></rect><rect class="cls-6" x="497.88" y="155.95" width="2.31" height="5.73"></rect><rect class="cls-6" x="428.58" y="155.95" width="2.31" height="5.73"></rect><rect class="cls-6" x="363.8" y="152.43" width="5.82" height="2.31"></rect><rect class="cls-6" x="363.8" y="106.88" width="5.82" height="2.31"></rect><polyline class="cls-6" points="363.8 61.42 369.63 55.88 369.63 54.21 368.05 54.21 362.23 59.76 363.8 59.85 363.8 61.42"></polyline><polyline class="cls-6" points="33.29 121.94 33.48 127.76 31.26 127.76 30.98 122.03 33.29 121.94"></polyline><polyline class="cls-6" points="457.59 58 457.22 63.82 454.91 63.64 455.28 57.91 457.59 58"></polyline><polygon class="cls-14" points="778.03 540.47 778.03 550.47 794.32 550.47 794.32 387.29 696.1 387.29 696.1 83.76 665.68 80.46 665.03 88.49 686.1 88.49 686.1 252.97 594.9 252.97 594.9 302.58 600.63 302.58 600.63 258.69 676.86 258.69 676.86 297.96 686.1 297.96 686.1 389.26 600.67 389.26 600.67 344.16 594.9 344.16 594.9 391.57 590.28 391.57 590.28 397.29 784.32 397.29 784.32 540.47 778.03 540.47"></polygon><polygon class="cls-9" points="778.03 540.47 778.03 550.47 794.32 550.47 794.32 387.29 696.1 387.29 696.1 83.76 665.68 80.46 665.03 88.49 686.1 88.49 686.1 252.97 594.9 252.97 594.9 302.58 600.63 302.58 600.63 258.69 676.86 258.69 676.86 297.96 686.1 297.96 686.1 389.26 600.67 389.26 600.67 344.16 594.9 344.16 594.9 391.57 590.28 391.57 590.28 397.29 784.32 397.29 784.32 540.47 778.03 540.47"></polygon><polygon class="cls-14" points=".38 129.09 32.37 127.76 32.55 133.49 10.38 134.42 10.38 352.3 130.49 352.3 130.49 362.64 124.77 362.64 124.77 358.02 19.61 358.02 19.61 448.11 124.81 448.11 124.81 404.22 130.49 404.22 130.49 448.11 139.73 448.11 139.73 453.94 61.2 453.94 61.2 456.25 19.61 456.25 19.61 532.48 185.93 532.48 185.93 453.94 181.32 453.94 181.32 448.11 185.93 448.11 185.93 400.81 191.76 400.81 191.76 507.07 195.17 507.07 195.17 534.79 417.03 534.79 417.03 507.07 420.45 507.07 420.45 452.73 432.55 452.73 432.55 458.56 426.27 458.56 426.27 540.51 522.09 540.51 522.09 458.56 515.71 458.56 515.71 452.73 564.87 452.73 564.87 458.56 527.91 458.56 527.91 534.79 611.07 534.79 611.07 458.56 606.45 458.56 606.45 452.69 622.62 452.69 622.62 458.56 619.11 458.56 619.11 540.51 667.62 540.51 667.62 458.56 664.2 458.56 664.2 452.73 709.2 452.73 709.2 463.18 703.47 463.18 703.47 458.56 675.75 458.56 675.75 537.1 703.47 537.1 703.47 532.48 709.2 532.48 709.2 540.47 731.74 540.47 731.74 550.47 .38 550.51 .38 129.09"></polygon><polygon class="cls-9" points=".38 129.09 32.37 127.76 32.55 133.49 10.38 134.42 10.38 352.3 130.49 352.3 130.49 362.64 124.77 362.64 124.77 358.02 19.61 358.02 19.61 448.11 124.81 448.11 124.81 404.22 130.49 404.22 130.49 448.11 139.73 448.11 139.73 453.94 61.2 453.94 61.2 456.25 19.61 456.25 19.61 532.48 185.93 532.48 185.93 453.94 181.32 453.94 181.32 448.11 185.93 448.11 185.93 400.81 191.76 400.81 191.76 507.07 195.17 507.07 195.17 534.79 417.03 534.79 417.03 507.07 420.45 507.07 420.45 452.73 432.55 452.73 432.55 458.56 426.27 458.56 426.27 540.51 522.09 540.51 522.09 458.56 515.71 458.56 515.71 452.73 564.87 452.73 564.87 458.56 527.91 458.56 527.91 534.79 611.07 534.79 611.07 458.56 606.45 458.56 606.45 452.69 622.62 452.69 622.62 458.56 619.11 458.56 619.11 540.51 667.62 540.51 667.62 458.56 664.2 458.56 664.2 452.73 709.2 452.73 709.2 463.18 703.47 463.18 703.47 458.56 675.75 458.56 675.75 537.1 703.47 537.1 703.47 532.48 709.2 532.48 709.2 540.47 731.74 540.47 731.74 550.47 .38 550.51 .38 129.09"></polygon><polygon class="cls-14" points="548.7 397.29 504.81 397.29 504.81 167.5 498.99 167.5 498.99 161.67 507.12 161.67 507.12 133.95 527.26 133.95 527.26 252.97 544.08 252.97 544.08 276.62 538.26 276.62 538.26 258.69 510.54 258.69 510.54 391.57 538.26 391.57 538.26 373.64 544.08 373.64 544.08 391.57 548.7 391.57 548.7 397.29"></polygon><polygon class="cls-9" points="548.7 397.29 504.81 397.29 504.81 167.5 498.99 167.5 498.99 161.67 507.12 161.67 507.12 133.95 527.26 133.95 527.26 252.97 544.08 252.97 544.08 276.62 538.26 276.62 538.26 258.69 510.54 258.69 510.54 391.57 538.26 391.57 538.26 373.64 544.08 373.64 544.08 391.57 548.7 391.57 548.7 397.29"></polygon><polygon class="cls-14" points="191.76 115.94 180.21 115.94 180.21 123.98 171.52 123.98 171.52 235.59 185.93 235.59 185.93 359.13 191.76 359.13 191.76 115.94"></polygon><polygon class="cls-9" points="191.76 115.94 180.21 115.94 180.21 123.98 171.52 123.98 171.52 235.59 185.93 235.59 185.93 359.13 191.76 359.13 191.76 115.94"></polygon><g><path class="cls-16" d="M754.75,562.62c.02-.08.07-.14.14-.14s.13.06.14.14c.56,3.3,2.74,4.94,6.02,4.94h3.83c1.16,0,1.98,1.01,2.21,2.66.05.33-.23.61-.47.45-.46-.31-1.06-.47-1.78-.47h-3.48c-2.95,0-5.22-1.67-6.17-4.98-.11-.37-.5-.37-.61,0-.96,3.31-3.22,4.98-6.18,4.98h-3.48c-.72,0-1.31.16-1.78.47-.23.16-.51-.12-.47-.45.22-1.64,1.05-2.66,2.2-2.66h3.84c3.29,0,5.46-1.64,6.02-4.95h0Z"></path><path class="cls-10" d="M754.75,562.62c.02-.08.07-.14.14-.14s.13.06.14.14c.56,3.3,2.74,4.94,6.02,4.94h3.83c1.16,0,1.98,1.01,2.21,2.66.05.33-.23.61-.47.45-.46-.31-1.06-.47-1.78-.47h-3.48c-2.95,0-5.22-1.67-6.17-4.98-.11-.37-.5-.37-.61,0-.96,3.31-3.22,4.98-6.18,4.98h-3.48c-.72,0-1.31.16-1.78.47-.23.16-.51-.12-.47-.45.22-1.64,1.05-2.66,2.2-2.66h3.84c3.29,0,5.46-1.64,6.02-4.95h0Z"></path></g><g><path class="cls-14" d="M48.74,245.92h2.52c1.9,0,2.97.89,2.97,2.53s-1.07,2.54-2.97,2.54h-1.72v3.99h-.8v-9.06ZM51.18,250.27c1.41,0,2.24-.61,2.24-1.81s-.81-1.81-2.24-1.81h-1.64v3.62h1.64Z"></path><path class="cls-14" d="M55.74,248.57h.78v1.09c.43-.78,1.31-1.18,2.02-1.18.33,0,.66.07.99.24l-.39.7c-.21-.1-.51-.17-.77-.17-.68,0-1.46.36-1.74,1.3-.08.27-.12.57-.12,1.27v3.15h-.78v-6.41Z"></path><path class="cls-14" d="M60.8,245.92h.94v1.39h-.94v-1.39ZM60.89,248.57h.77v6.41h-.77v-6.41Z"></path><path class="cls-14" d="M63.69,248.57h.78v1.1c.38-.85,1.11-1.19,1.88-1.19.91,0,1.57.4,1.89,1.25.4-.83,1.09-1.25,2-1.25,1.55,0,2.13,1.16,2.13,2.68v3.82h-.78v-3.64c0-1.33-.39-2.18-1.52-2.18-1.02,0-1.65.77-1.65,2.26v3.57h-.78v-3.76c0-1.4-.52-2.07-1.5-2.07-1.03,0-1.67.79-1.67,2.26v3.57h-.78v-6.41Z"></path><path class="cls-14" d="M78.52,253.78c-.43.82-1.25,1.29-2.25,1.29-1.44,0-2.31-.77-2.31-1.94,0-.69.29-1.16.72-1.44.46-.31,1.09-.42,1.77-.42h2.05v-.28c0-1.19-.62-1.83-1.82-1.83-.79,0-1.4.29-1.98,1.02l-.56-.48c.68-.85,1.53-1.22,2.59-1.22,1.63,0,2.54.89,2.54,2.51v3.99h-.72l-.04-1.2ZM76.34,254.43c1.18,0,2.16-.93,2.16-2.2v-.36h-1.95c-.51,0-1.03.08-1.37.33-.28.21-.44.51-.44.94,0,.79.6,1.3,1.6,1.3Z"></path><path class="cls-14" d="M81.23,248.57h.78v1.09c.43-.78,1.31-1.18,2.02-1.18.33,0,.66.07.99.24l-.39.7c-.21-.1-.51-.17-.77-.17-.68,0-1.46.36-1.74,1.3-.08.27-.12.57-.12,1.27v3.15h-.78v-6.41Z"></path><path class="cls-14" d="M88.28,254.78l-2.55-6.21h.86l2.1,5.42,2.11-5.42h.85l-3.69,9.05h-.84l1.17-2.84Z"></path><path class="cls-14" d="M96.54,245.92h2.72c1.68,0,2.68.84,2.68,2.25,0,.94-.46,1.68-1.24,2,1.1.25,1.7,1.07,1.7,2.31,0,1.61-1.02,2.5-2.88,2.5h-2.97v-9.06ZM99.52,249.92c.98,0,1.63-.64,1.63-1.64s-.69-1.61-1.89-1.61h-1.91v3.26h2.16ZM99.46,254.23c1.42,0,2.14-.6,2.14-1.79,0-1.13-.66-1.79-1.79-1.79h-2.46v3.58h2.11Z"></path><path class="cls-14" d="M103.87,251.82c0-1.84.99-3.34,2.81-3.34,1.96,0,2.76,1.53,2.76,2.94,0,.1-.01.4-.04.55h-4.76c.03,1.51.84,2.39,2.15,2.39.82,0,1.35-.23,1.91-.83l.55.49c-.73.75-1.43,1.05-2.46,1.05-1.89,0-2.91-1.41-2.91-3.25ZM108.69,251.39c0-.08,0-.16,0-.24,0-.92-.58-2.02-2-2.02-1.23,0-1.98.98-2.07,2.26h4.06Z"></path><path class="cls-14" d="M110.85,251.77c0-1.96,1.29-3.29,2.92-3.29,1.05,0,1.87.54,2.29,1.36v-3.92h.77v9.06h-.77v-1.26c-.44.85-1.25,1.35-2.29,1.35-1.72,0-2.92-1.42-2.92-3.3ZM113.89,254.35c1.3,0,2.23-1.08,2.23-2.58s-.93-2.58-2.23-2.58-2.26,1.09-2.26,2.58.95,2.58,2.26,2.58Z"></path><path class="cls-14" d="M118.87,248.57h.78v1.09c.43-.78,1.31-1.18,2.02-1.18.33,0,.66.07.99.24l-.39.7c-.21-.1-.51-.17-.77-.17-.68,0-1.46.36-1.74,1.3-.08.27-.12.57-.12,1.27v3.15h-.78v-6.41Z"></path><path class="cls-14" d="M123.25,251.77c0-1.92,1.25-3.29,3.05-3.29s3.04,1.36,3.04,3.29-1.27,3.3-3.04,3.3-3.05-1.36-3.05-3.3ZM126.29,254.37c1.37,0,2.26-1.04,2.26-2.61s-.9-2.61-2.26-2.61-2.27,1.05-2.27,2.61.9,2.61,2.27,2.61Z"></path><path class="cls-14" d="M130.78,251.77c0-1.92,1.25-3.29,3.05-3.29s3.04,1.36,3.04,3.29-1.27,3.3-3.04,3.3-3.05-1.36-3.05-3.3ZM133.83,254.37c1.36,0,2.26-1.04,2.26-2.61s-.9-2.61-2.26-2.61-2.27,1.05-2.27,2.61.9,2.61,2.27,2.61Z"></path><path class="cls-14" d="M138.62,248.57h.78v1.1c.38-.85,1.11-1.19,1.88-1.19.91,0,1.57.4,1.89,1.25.4-.83,1.09-1.25,2-1.25,1.55,0,2.13,1.16,2.13,2.68v3.82h-.78v-3.64c0-1.33-.39-2.18-1.52-2.18-1.02,0-1.65.77-1.65,2.26v3.57h-.78v-3.76c0-1.4-.52-2.07-1.5-2.07-1.03,0-1.67.79-1.67,2.26v3.57h-.78v-6.41Z"></path></g><g><path class="cls-14" d="M245.23,245.92h.81v8.33h4.18v.73h-4.99v-9.06Z"></path><path class="cls-14" d="M251.35,245.92h.94v1.39h-.94v-1.39ZM251.43,248.57h.77v6.41h-.77v-6.41Z"></path><path class="cls-14" d="M253.6,248.57h.86l2.1,5.42,2.11-5.42h.85l-2.61,6.41h-.68l-2.63-6.41Z"></path><path class="cls-14" d="M260.86,245.92h.94v1.39h-.94v-1.39ZM260.94,248.57h.77v6.41h-.77v-6.41Z"></path><path class="cls-14" d="M263.75,248.57h.78v1.05c.4-.76,1.12-1.14,2.01-1.14,1.38,0,2.2.81,2.2,2.51v3.99h-.78v-3.71c0-1.45-.55-2.11-1.61-2.11-1.16,0-1.83.79-1.83,2.55v3.27h-.78v-6.41Z"></path><path class="cls-14" d="M270.2,255.74s0-.1.03-.26l1.11-.88c-.57-.22-.96-.59-.96-1.26,0-.53.27-.9.72-1.2-.36-.37-.56-.87-.56-1.45,0-1.3,1.04-2.2,2.38-2.2.64,0,1.22.21,1.64.58l1.02-.86.4.49-1,.88c.19.33.3.71.3,1.14,0,1.28-.96,2.13-2.33,2.13-.53,0-.99-.12-1.37-.34-.31.18-.45.42-.45.72,0,.66.63.83,1.62.98,1.6.25,2.99.44,2.99,1.75,0,1.16-1.05,1.78-2.7,1.78-1.82,0-2.85-.7-2.85-2ZM273.06,257.13c1.09,0,1.92-.34,1.92-1.08,0-.86-1.16-.96-2.31-1.14-.31-.05-.6-.1-.89-.17l-.8.92c-.01.09-.01.11-.01.15,0,.9.79,1.33,2.09,1.33ZM272.93,252.2c.98,0,1.59-.65,1.59-1.53s-.64-1.56-1.58-1.56-1.62.65-1.62,1.55.63,1.55,1.61,1.55Z"></path><path class="cls-14" d="M280.69,245.92h2.52c1.99,0,2.97.93,2.97,2.5,0,1.25-.64,2.07-1.85,2.38l2.44,4.19h-.92l-2.34-4.07c-.21,0-.44,0-.65,0h-1.36v4.06h-.81v-9.06ZM283.13,250.2c1.38,0,2.24-.55,2.24-1.78s-.88-1.77-2.24-1.77h-1.64v3.56h1.64Z"></path><path class="cls-14" d="M287.7,251.77c0-1.92,1.25-3.29,3.05-3.29s3.04,1.36,3.04,3.29-1.27,3.3-3.04,3.3-3.05-1.36-3.05-3.3ZM290.74,254.37c1.37,0,2.26-1.04,2.26-2.61s-.9-2.61-2.26-2.61-2.28,1.05-2.28,2.61.9,2.61,2.28,2.61Z"></path><path class="cls-14" d="M295.23,251.77c0-1.92,1.25-3.29,3.05-3.29s3.04,1.36,3.04,3.29-1.27,3.3-3.04,3.3-3.05-1.36-3.05-3.3ZM298.28,254.37c1.37,0,2.26-1.04,2.26-2.61s-.9-2.61-2.26-2.61-2.28,1.05-2.28,2.61.9,2.61,2.28,2.61Z"></path><path class="cls-14" d="M303.07,248.57h.78v1.1c.38-.85,1.11-1.19,1.88-1.19.91,0,1.57.4,1.89,1.25.4-.83,1.09-1.25,2-1.25,1.55,0,2.13,1.16,2.13,2.68v3.82h-.78v-3.64c0-1.33-.39-2.18-1.52-2.18-1.02,0-1.65.77-1.65,2.26v3.57h-.78v-3.76c0-1.4-.52-2.07-1.5-2.07-1.03,0-1.67.79-1.67,2.26v3.57h-.78v-6.41Z"></path></g><g><path class="cls-14" d="M397.63,245.92h2.43c2.94,0,4.62,1.68,4.62,4.6s-1.64,4.46-4.63,4.46h-2.42v-9.06ZM399.98,254.23c2.5,0,3.89-1.16,3.89-3.74s-1.4-3.83-3.82-3.83h-1.61v7.57h1.54Z"></path><path class="cls-14" d="M406.29,245.92h.94v1.39h-.94v-1.39ZM406.37,248.57h.77v6.41h-.77v-6.41Z"></path><path class="cls-14" d="M409.18,248.57h.78v1.05c.4-.76,1.12-1.14,2.01-1.14,1.38,0,2.2.81,2.2,2.51v3.99h-.78v-3.71c0-1.45-.55-2.11-1.61-2.11-1.16,0-1.83.79-1.83,2.55v3.27h-.78v-6.41Z"></path><path class="cls-14" d="M416.06,245.92h.94v1.39h-.94v-1.39ZM416.14,248.57h.77v6.41h-.77v-6.41Z"></path><path class="cls-14" d="M418.95,248.57h.78v1.05c.4-.76,1.12-1.14,2.01-1.14,1.38,0,2.2.81,2.2,2.51v3.99h-.78v-3.71c0-1.45-.55-2.11-1.61-2.11-1.16,0-1.83.79-1.83,2.55v3.27h-.78v-6.41Z"></path><path class="cls-14" d="M425.41,255.74s0-.1.03-.26l1.11-.88c-.57-.22-.96-.59-.96-1.26,0-.53.27-.9.72-1.2-.36-.37-.56-.87-.56-1.45,0-1.3,1.04-2.2,2.39-2.2.64,0,1.22.21,1.64.58l1.02-.86.4.49-1,.88c.19.33.3.71.3,1.14,0,1.28-.96,2.13-2.33,2.13-.53,0-.99-.12-1.37-.34-.31.18-.45.42-.45.72,0,.66.63.83,1.62.98,1.6.25,2.99.44,2.99,1.75,0,1.16-1.05,1.78-2.7,1.78-1.82,0-2.85-.7-2.85-2ZM428.27,257.13c1.09,0,1.92-.34,1.92-1.08,0-.86-1.16-.96-2.31-1.14-.31-.05-.6-.1-.89-.17l-.8.92c-.01.09-.01.11-.01.15,0,.9.79,1.33,2.09,1.33ZM428.14,252.2c.98,0,1.59-.65,1.59-1.53s-.64-1.56-1.58-1.56-1.62.65-1.62,1.55.63,1.55,1.61,1.55Z"></path><path class="cls-14" d="M435.89,245.92h2.52c1.99,0,2.97.93,2.97,2.5,0,1.25-.64,2.07-1.85,2.38l2.44,4.19h-.92l-2.34-4.07c-.21,0-.44,0-.65,0h-1.36v4.06h-.81v-9.06ZM438.33,250.2c1.38,0,2.24-.55,2.24-1.78s-.88-1.77-2.24-1.77h-1.64v3.56h1.64Z"></path><path class="cls-14" d="M442.9,251.77c0-1.92,1.25-3.29,3.05-3.29s3.04,1.36,3.04,3.29-1.27,3.3-3.04,3.3-3.05-1.36-3.05-3.3ZM445.95,254.37c1.37,0,2.26-1.04,2.26-2.61s-.9-2.61-2.26-2.61-2.28,1.05-2.28,2.61.9,2.61,2.28,2.61Z"></path><path class="cls-14" d="M450.43,251.77c0-1.92,1.25-3.29,3.05-3.29s3.04,1.36,3.04,3.29-1.27,3.3-3.04,3.3-3.05-1.36-3.05-3.3ZM453.48,254.37c1.37,0,2.26-1.04,2.26-2.61s-.9-2.61-2.26-2.61-2.28,1.05-2.28,2.61.9,2.61,2.28,2.61Z"></path><path class="cls-14" d="M458.27,248.57h.78v1.1c.38-.85,1.11-1.19,1.88-1.19.91,0,1.57.4,1.89,1.25.4-.83,1.09-1.25,2-1.25,1.55,0,2.13,1.16,2.13,2.68v3.82h-.78v-3.64c0-1.33-.39-2.18-1.52-2.18-1.02,0-1.65.77-1.65,2.26v3.57h-.78v-3.76c0-1.4-.52-2.07-1.5-2.07-1.03,0-1.67.79-1.67,2.26v3.57h-.78v-6.41Z"></path></g><g><path class="cls-14" d="M463.65,494.88h5.86v.73h-5.06v3.37h4.39v.73h-4.39v4.24h-.81v-9.06Z"></path><path class="cls-14" d="M470.83,502.61v-7.73h.77v7.59c0,.6.23.84.64.84.17,0,.38-.04.61-.12v.67c-.29.11-.6.17-.84.17-.72,0-1.18-.44-1.18-1.42Z"></path><path class="cls-14" d="M473.8,500.78c0-1.84.99-3.34,2.81-3.34,1.96,0,2.76,1.53,2.76,2.94,0,.1-.01.4-.04.55h-4.76c.03,1.51.84,2.39,2.14,2.39.82,0,1.35-.23,1.91-.83l.55.49c-.73.75-1.43,1.05-2.46,1.05-1.89,0-2.91-1.41-2.91-3.25ZM478.61,500.35c0-.08,0-.16,0-.24,0-.92-.58-2.01-2-2.01-1.23,0-1.98.98-2.07,2.26h4.06Z"></path><path class="cls-14" d="M482.77,500.72l-2.37-3.19h.96l1.92,2.65,1.94-2.65h.94l-2.38,3.19,2.39,3.22h-.96l-1.93-2.67-1.94,2.67h-.94l2.37-3.22Z"></path></g><g><path class="cls-14" d="M413.97,106.87h2.72c1.68,0,2.68.84,2.68,2.25,0,.94-.46,1.68-1.24,2,1.1.25,1.7,1.07,1.7,2.31,0,1.61-1.02,2.5-2.88,2.5h-2.97v-9.06ZM416.94,110.87c.98,0,1.63-.64,1.63-1.64s-.69-1.61-1.88-1.61h-1.91v3.26h2.16ZM416.89,115.18c1.42,0,2.14-.6,2.14-1.79,0-1.13-.66-1.79-1.79-1.79h-2.46v3.58h2.11Z"></path><path class="cls-14" d="M425.8,114.73c-.43.82-1.25,1.29-2.25,1.29-1.44,0-2.31-.77-2.31-1.94,0-.69.29-1.16.72-1.44.46-.31,1.09-.42,1.77-.42h2.05v-.28c0-1.19-.62-1.83-1.82-1.83-.79,0-1.4.29-1.98,1.02l-.56-.48c.68-.85,1.53-1.22,2.59-1.22,1.63,0,2.54.89,2.54,2.51v3.99h-.71l-.04-1.2ZM423.63,115.38c1.18,0,2.17-.93,2.17-2.2v-.36h-1.95c-.51,0-1.03.08-1.37.33-.28.21-.44.51-.44.94,0,.79.6,1.3,1.6,1.3Z"></path><path class="cls-14" d="M428.39,114.6v-7.73h.77v7.59c0,.6.23.85.64.85.17,0,.38-.04.61-.12v.67c-.29.11-.6.17-.84.17-.72,0-1.18-.44-1.18-1.42Z"></path><path class="cls-14" d="M431.35,112.72c0-1.83,1.06-3.29,2.86-3.29,1.17,0,2.09.59,2.51,1.74l-.7.27c-.27-.82-.9-1.33-1.81-1.33-1.42,0-2.09,1.25-2.09,2.61s.68,2.62,2.09,2.62c.91,0,1.53-.51,1.81-1.33l.7.27c-.42,1.16-1.34,1.75-2.51,1.75-1.8,0-2.86-1.46-2.86-3.3Z"></path><path class="cls-14" d="M437.96,112.72c0-1.92,1.25-3.29,3.05-3.29s3.04,1.37,3.04,3.29-1.27,3.3-3.04,3.3-3.05-1.36-3.05-3.3ZM441.01,115.32c1.37,0,2.26-1.04,2.26-2.61s-.9-2.61-2.26-2.61-2.28,1.05-2.28,2.61.9,2.61,2.28,2.61Z"></path><path class="cls-14" d="M445.8,109.52h.78v1.05c.4-.76,1.12-1.14,2.01-1.14,1.38,0,2.2.81,2.2,2.51v3.99h-.78v-3.71c0-1.45-.55-2.11-1.61-2.11-1.16,0-1.83.79-1.83,2.55v3.27h-.78v-6.41Z"></path><path class="cls-14" d="M454.51,115.73l-2.55-6.21h.86l2.1,5.42,2.11-5.42h.85l-3.69,9.05h-.84l1.17-2.84Z"></path></g><g><path class="cls-14" d="M76.02,73.38h2.43c2.94,0,4.62,1.68,4.62,4.6s-1.65,4.46-4.63,4.46h-2.42v-9.06ZM78.37,81.69c2.5,0,3.89-1.16,3.89-3.74s-1.4-3.83-3.82-3.83h-1.61v7.57h1.54Z"></path><path class="cls-14" d="M84.53,79.28c0-1.84.99-3.34,2.81-3.34,1.96,0,2.76,1.53,2.76,2.94,0,.1-.01.4-.04.55h-4.76c.03,1.51.84,2.39,2.15,2.39.82,0,1.35-.23,1.91-.83l.55.49c-.73.75-1.43,1.05-2.46,1.05-1.89,0-2.91-1.41-2.91-3.25ZM89.34,78.85c0-.08,0-.16,0-.24,0-.92-.58-2.02-2-2.02-1.23,0-1.98.98-2.07,2.26h4.06Z"></path><path class="cls-14" d="M91.51,79.23c0-1.83,1.06-3.29,2.86-3.29,1.17,0,2.09.58,2.51,1.74l-.7.27c-.27-.82-.9-1.33-1.81-1.33-1.42,0-2.09,1.25-2.09,2.61s.68,2.62,2.09,2.62c.91,0,1.53-.51,1.81-1.33l.7.27c-.42,1.16-1.34,1.75-2.51,1.75-1.8,0-2.86-1.46-2.86-3.3Z"></path><path class="cls-14" d="M100.57,78.91l-1.3,1.37v2.16h-.78v-9.06h.78v5.9l3.15-3.24h1.01l-2.28,2.35,2.67,4.06h-.92l-2.31-3.53Z"></path></g><g><path class="cls-14" d="M581.61,166.38h2.72c1.68,0,2.68.84,2.68,2.25,0,.94-.46,1.68-1.24,2,1.1.25,1.7,1.07,1.7,2.31,0,1.61-1.02,2.5-2.88,2.5h-2.97v-9.06ZM584.58,170.38c.98,0,1.63-.64,1.63-1.64s-.69-1.61-1.88-1.61h-1.91v3.26h2.16ZM584.53,174.69c1.42,0,2.14-.6,2.14-1.79,0-1.13-.66-1.79-1.79-1.79h-2.46v3.58h2.11Z"></path><path class="cls-14" d="M588.91,172.28c0-1.84.99-3.34,2.81-3.34,1.96,0,2.76,1.53,2.76,2.94,0,.1-.01.4-.04.55h-4.76c.03,1.51.84,2.39,2.14,2.39.82,0,1.35-.23,1.91-.83l.55.49c-.73.75-1.43,1.05-2.46,1.05-1.89,0-2.91-1.41-2.91-3.25ZM593.73,171.85c0-.08,0-.16,0-.24,0-.92-.58-2.02-2-2.02-1.23,0-1.98.98-2.07,2.26h4.06Z"></path><path class="cls-14" d="M595.88,172.23c0-1.96,1.29-3.29,2.92-3.29,1.05,0,1.87.54,2.29,1.36v-3.92h.77v9.06h-.77v-1.26c-.44.85-1.25,1.35-2.29,1.35-1.72,0-2.92-1.42-2.92-3.3ZM598.92,174.81c1.3,0,2.23-1.08,2.23-2.58s-.93-2.58-2.23-2.58-2.26,1.09-2.26,2.58.95,2.58,2.26,2.58Z"></path><path class="cls-14" d="M603.9,169.03h.78v1.09c.43-.78,1.31-1.18,2.02-1.18.33,0,.66.07.99.24l-.39.7c-.21-.1-.51-.17-.77-.17-.68,0-1.46.36-1.74,1.3-.08.27-.12.57-.12,1.27v3.15h-.78v-6.41Z"></path><path class="cls-14" d="M608.28,172.23c0-1.92,1.25-3.29,3.05-3.29s3.04,1.36,3.04,3.29-1.27,3.3-3.04,3.3-3.05-1.36-3.05-3.3ZM611.33,174.83c1.37,0,2.26-1.04,2.26-2.61s-.9-2.61-2.26-2.61-2.28,1.05-2.28,2.61.9,2.61,2.28,2.61Z"></path><path class="cls-14" d="M615.81,172.23c0-1.92,1.25-3.29,3.05-3.29s3.04,1.36,3.04,3.29-1.27,3.3-3.04,3.3-3.05-1.36-3.05-3.3ZM618.86,174.83c1.37,0,2.26-1.04,2.26-2.61s-.9-2.61-2.26-2.61-2.28,1.05-2.28,2.61.9,2.61,2.28,2.61Z"></path><path class="cls-14" d="M623.65,169.03h.78v1.1c.38-.85,1.11-1.19,1.88-1.19.91,0,1.57.4,1.89,1.25.4-.83,1.09-1.25,2-1.25,1.55,0,2.13,1.16,2.13,2.68v3.82h-.78v-3.64c0-1.33-.39-2.18-1.52-2.18-1.02,0-1.65.77-1.65,2.26v3.57h-.78v-3.76c0-1.4-.52-2.07-1.5-2.07-1.03,0-1.67.79-1.67,2.26v3.57h-.78v-6.41Z"></path></g><g><path class="cls-14" d="M285.82,476.93h.81v4.86l4.65-4.86h1.09l-3.45,3.54,3.48,5.52h-.95l-3.11-4.93-1.71,1.75v3.17h-.81v-9.06Z"></path><path class="cls-14" d="M293.55,476.93h.94v1.39h-.94v-1.39ZM293.64,479.58h.77v6.41h-.77v-6.41Z"></path><path class="cls-14" d="M297.2,484.51v-4.31h-1.42v-.62h1.42v-1.85l.79-.46v2.31h1.54v.62h-1.54v4.12c0,.71.22,1.11.81,1.11.19,0,.46-.04.73-.12v.62c-.32.1-.64.16-.92.16-.85,0-1.4-.49-1.4-1.57Z"></path><path class="cls-14" d="M300.56,482.78c0-1.83,1.06-3.29,2.86-3.29,1.17,0,2.09.58,2.51,1.74l-.7.27c-.27-.82-.9-1.33-1.81-1.33-1.42,0-2.09,1.25-2.09,2.61s.68,2.62,2.09,2.62c.91,0,1.53-.51,1.81-1.33l.7.27c-.42,1.16-1.34,1.75-2.51,1.75-1.8,0-2.86-1.46-2.86-3.3Z"></path><path class="cls-14" d="M307.56,476.93h.78v3.69c.4-.75,1.1-1.13,2.01-1.13,1.4,0,2.2.85,2.2,2.51v3.99h-.78v-3.71c0-1.43-.53-2.11-1.61-2.11-1.18,0-1.83.83-1.83,2.55v3.27h-.78v-9.06Z"></path><path class="cls-14" d="M314.19,482.83c0-1.84.99-3.34,2.81-3.34,1.96,0,2.76,1.53,2.76,2.94,0,.1-.01.4-.04.55h-4.76c.03,1.51.84,2.39,2.14,2.39.82,0,1.35-.23,1.91-.83l.55.49c-.73.75-1.43,1.05-2.46,1.05-1.89,0-2.91-1.41-2.91-3.25ZM319,482.4c0-.08,0-.16,0-.24,0-.92-.58-2.01-2-2.01-1.23,0-1.98.98-2.07,2.26h4.06Z"></path><path class="cls-14" d="M321.49,479.58h.78v1.05c.4-.76,1.12-1.14,2.01-1.14,1.38,0,2.2.81,2.2,2.51v3.99h-.78v-3.71c0-1.45-.55-2.11-1.61-2.11-1.16,0-1.83.79-1.83,2.55v3.27h-.78v-6.41Z"></path></g><g><path class="cls-14" d="M728.66,420.38h5.86v.73h-5.06v3.37h4.39v.73h-4.39v4.24h-.81v-9.06Z"></path><path class="cls-14" d="M735.26,426.23c0-1.92,1.25-3.29,3.05-3.29s3.04,1.37,3.04,3.29-1.27,3.3-3.04,3.3-3.05-1.37-3.05-3.3ZM738.3,428.83c1.37,0,2.26-1.04,2.26-2.61s-.9-2.61-2.26-2.61-2.28,1.05-2.28,2.61.9,2.61,2.28,2.61Z"></path><path class="cls-14" d="M744.82,429.24l-2.55-6.21h.86l2.1,5.42,2.11-5.42h.85l-3.69,9.05h-.84l1.17-2.84Z"></path><path class="cls-14" d="M749.15,426.28c0-1.84.99-3.34,2.81-3.34,1.96,0,2.76,1.53,2.76,2.94,0,.1-.01.4-.04.55h-4.76c.03,1.51.84,2.39,2.14,2.39.82,0,1.35-.23,1.91-.83l.55.49c-.73.75-1.43,1.05-2.46,1.05-1.89,0-2.91-1.41-2.91-3.25ZM753.97,425.85c0-.08,0-.16,0-.24,0-.92-.58-2.01-2-2.01-1.23,0-1.98.98-2.07,2.26h4.06Z"></path><path class="cls-14" d="M756.45,423.03h.78v1.09c.43-.78,1.31-1.18,2.02-1.18.33,0,.66.07.99.24l-.39.7c-.21-.1-.51-.17-.77-.17-.68,0-1.46.36-1.74,1.3-.08.27-.12.57-.12,1.27v3.15h-.78v-6.41Z"></path></g><g><path class="cls-14" d="M62.87,398.91h.65l1.71,6.06,1.76-5.7h.63l1.76,5.7,1.7-6.06h.65l-2.01,6.98h-.63l-1.79-5.71-1.79,5.71h-.64l-2.01-6.98Z"></path><path class="cls-14" d="M72.88,398.91h.62v6.98h-.62v-6.98Z"></path><path class="cls-14" d="M74.92,402.39c0-2.16,1.26-3.58,3.16-3.58,1.35,0,2.39.71,2.84,1.89l-.58.22c-.38-.96-1.17-1.52-2.26-1.52-1.55,0-2.54,1.17-2.54,2.99s.99,3,2.54,3c1.09,0,1.89-.56,2.26-1.52l.58.21c-.45,1.18-1.49,1.9-2.84,1.9-1.89,0-3.16-1.42-3.16-3.59Z"></path></g><path class="cls-14" d="M633.84,513.54h.65l1.71,6.06,1.76-5.7h.63l1.76,5.7,1.7-6.06h.65l-2.01,6.98h-.63l-1.79-5.71-1.79,5.71h-.64l-2.01-6.98Z"></path><path class="cls-14" d="M646.12,512.67h.48l-3.55,9.08h-.47l3.55-9.08Z"></path><path class="cls-14" d="M647.82,513.54h1.87c2.26,0,3.56,1.29,3.56,3.54s-1.27,3.43-3.57,3.43h-1.86v-6.98ZM649.63,519.95c1.92,0,2.99-.89,2.99-2.88s-1.08-2.95-2.94-2.95h-1.24v5.83h1.19Z"></path><path class="cls-14" d="M244.23,522c0-2.17,1.27-3.59,3.16-3.59s3.18,1.42,3.18,3.59-1.27,3.58-3.18,3.58-3.16-1.42-3.16-3.58ZM247.39,524.99c1.57,0,2.55-1.16,2.55-2.99s-.99-3-2.55-3-2.54,1.15-2.54,3,.99,2.99,2.54,2.99Z"></path><path class="cls-14" d="M254.27,517.51h.48l-3.55,9.08h-.47l3.55-9.08Z"></path><path class="cls-14" d="M255.97,518.51h.93l2.35,5.66,2.35-5.66h.92v6.98h-.62v-6.16l-2.35,5.59h-.61l-2.36-5.59v6.16h-.62v-6.98Z"></path><path class="cls-14" d="M213.4,518.51h1.94c1.46,0,2.29.69,2.29,1.95s-.83,1.96-2.29,1.96h-1.33v3.07h-.62v-6.98ZM215.28,521.86c1.09,0,1.73-.47,1.73-1.4s-.62-1.39-1.73-1.39h-1.27v2.79h1.27Z"></path><g><path class="cls-14" d="M388.16,518.51h1.94c1.53,0,2.29.72,2.29,1.92,0,.97-.5,1.6-1.43,1.83l1.88,3.22h-.71l-1.8-3.13c-.16,0-.34,0-.5,0h-1.05v3.13h-.62v-6.98ZM390.04,521.81c1.06,0,1.73-.42,1.73-1.37s-.68-1.37-1.73-1.37h-1.26v2.74h1.26Z"></path><path class="cls-14" d="M394.01,518.51h4.56v.56h-3.94v2.59h3.53v.56h-3.53v2.7h3.94v.56h-4.56v-6.98Z"></path><path class="cls-14" d="M399.87,518.51h4.51v.56h-3.89v2.59h3.38v.56h-3.38v3.26h-.62v-6.98Z"></path></g><g><path class="cls-14" d="M352.13,438.94h1.87c2.26,0,3.56,1.29,3.56,3.54s-1.27,3.43-3.57,3.43h-1.86v-6.98ZM353.93,445.34c1.92,0,2.99-.89,2.99-2.88s-1.08-2.95-2.94-2.95h-1.24v5.83h1.19Z"></path><path class="cls-14" d="M358.22,438.94h.65l1.71,6.06,1.76-5.7h.63l1.76,5.7,1.7-6.06h.65l-2.01,6.98h-.63l-1.79-5.71-1.79,5.71h-.64l-2.01-6.98Z"></path></g><g><path class="cls-14" d="M248.52,438.94h.65l1.71,6.06,1.76-5.7h.63l1.76,5.7,1.7-6.06h.65l-2.01,6.98h-.63l-1.79-5.71-1.79,5.71h-.64l-2.01-6.98Z"></path><path class="cls-14" d="M258.53,438.94h4.51v.56h-3.89v2.59h3.38v.56h-3.38v3.26h-.62v-6.98Z"></path></g><polyline class="cls-1" points="303.05 3.24 291.9 3.24 283.6 17.22"></polyline><path class="cls-17" d="M281.53,20.69l4.67-3.82s-2.61.35-3.55-2.11l-1.12,5.93Z"></path><g><path class="cls-18" d="M309.49.08h.5v5.12h2.57v.45h-3.07V.08Z"></path><path class="cls-18" d="M313.09,3.71c0-1.13.61-2.06,1.73-2.06,1.21,0,1.7.94,1.7,1.81,0,.06,0,.24-.02.34h-2.93c.02.93.52,1.47,1.32,1.47.5,0,.83-.14,1.17-.51l.34.3c-.45.46-.88.65-1.51.65-1.16,0-1.79-.87-1.79-2ZM316.05,3.44s0-.1,0-.15c0-.57-.36-1.24-1.23-1.24-.75,0-1.22.6-1.27,1.39h2.49Z"></path><path class="cls-18" d="M317.45,3.67c0-1.21.79-2.02,1.79-2.02.64,0,1.15.33,1.41.84V.08h.47v5.57h-.47v-.78c-.27.52-.77.83-1.41.83-1.05,0-1.79-.88-1.79-2.03ZM319.32,5.26c.8,0,1.37-.66,1.37-1.59s-.57-1.59-1.37-1.59-1.39.67-1.39,1.59.58,1.59,1.39,1.59Z"></path><path class="cls-18" d="M322.2,6.12s0-.06.02-.16l.68-.54c-.35-.14-.59-.36-.59-.78,0-.32.16-.55.44-.74-.22-.23-.34-.54-.34-.89,0-.8.64-1.36,1.47-1.36.4,0,.75.13,1.01.36l.63-.53.24.3-.62.54c.12.2.18.44.18.7,0,.79-.59,1.31-1.44,1.31-.32,0-.61-.08-.84-.21-.19.11-.28.26-.28.44,0,.41.39.51,1,.6.98.15,1.84.27,1.84,1.08,0,.72-.64,1.1-1.66,1.1-1.12,0-1.75-.43-1.75-1.23ZM323.96,6.97c.67,0,1.18-.21,1.18-.66,0-.53-.71-.59-1.42-.7-.19-.03-.37-.06-.55-.1l-.49.56c0,.06,0,.07,0,.09,0,.55.49.82,1.29.82ZM323.88,3.94c.6,0,.98-.4.98-.94s-.39-.96-.97-.96-1,.4-1,.95.39.95.99.95Z"></path><path class="cls-18" d="M326.35,3.71c0-1.13.61-2.06,1.73-2.06,1.21,0,1.7.94,1.7,1.81,0,.06,0,.24-.02.34h-2.93c.02.93.52,1.47,1.32,1.47.5,0,.83-.14,1.17-.51l.34.3c-.45.46-.88.65-1.51.65-1.16,0-1.79-.87-1.79-2ZM329.32,3.44s0-.1,0-.15c0-.57-.36-1.24-1.23-1.24-.75,0-1.22.6-1.27,1.39h2.49Z"></path></g><polyline class="cls-1" points="138.25 3.24 127.11 3.24 106.24 64.61"></polyline><path class="cls-17" d="M104.94,68.43l3.78-4.71s-2.48.88-3.91-1.33l.13,6.03Z"></path><g><path class="cls-18" d="M142.08,2.86c0-1.72,1-2.86,2.52-2.86,1.08,0,1.91.57,2.27,1.51l-.46.18c-.3-.77-.94-1.22-1.81-1.22-1.24,0-2.03.93-2.03,2.39s.79,2.39,2.03,2.39c.87,0,1.51-.45,1.81-1.22l.46.17c-.36.94-1.19,1.52-2.27,1.52-1.51,0-2.52-1.14-2.52-2.87Z"></path><path class="cls-18" d="M150.48,4.91c-.26.5-.77.8-1.38.8-.88,0-1.42-.48-1.42-1.2,0-.42.18-.71.44-.89.28-.19.67-.26,1.09-.26h1.26v-.17c0-.73-.38-1.13-1.12-1.13-.48,0-.86.18-1.22.63l-.34-.3c.42-.52.94-.75,1.59-.75,1,0,1.56.55,1.56,1.54v2.45h-.44l-.02-.74ZM149.14,5.31c.72,0,1.33-.57,1.33-1.35v-.22h-1.2c-.32,0-.63.05-.84.2-.17.13-.27.31-.27.58,0,.49.37.8.98.8Z"></path><path class="cls-18" d="M152.23,1.71h.48v.64c.25-.47.69-.7,1.24-.7.85,0,1.36.5,1.36,1.54v2.45h-.48v-2.28c0-.89-.34-1.3-.99-1.3-.71,0-1.13.48-1.13,1.57v2.01h-.48V1.71Z"></path><path class="cls-18" d="M156.37,3.67c0-1.18.77-2.02,1.88-2.02s1.87.84,1.87,2.02-.78,2.03-1.87,2.03-1.88-.84-1.88-2.03ZM158.24,5.28c.84,0,1.39-.64,1.39-1.6s-.55-1.6-1.39-1.6-1.4.64-1.4,1.6.56,1.6,1.4,1.6Z"></path><path class="cls-18" d="M164.94,3.68c0,1.21-.79,2.02-1.79,2.02-.64,0-1.15-.33-1.41-.84v2.41h-.47V1.71h.47v.78c.27-.52.77-.83,1.41-.83,1.06,0,1.79.88,1.79,2.03ZM163.07,5.27c.81,0,1.39-.67,1.39-1.59s-.58-1.59-1.39-1.59-1.37.66-1.37,1.59.57,1.59,1.37,1.59Z"></path><path class="cls-18" d="M167.26,5.52l-1.57-3.82h.53l1.29,3.33,1.3-3.33h.52l-2.27,5.56h-.52l.72-1.75Z"></path><path class="cls-18" d="M174.07.08h.42l2.05,5.57h-.54l-.51-1.45h-2.42l-.51,1.45h-.55l2.05-5.57ZM175.33,3.75l-1.05-2.99-1.06,2.99h2.11Z"></path><path class="cls-18" d="M177.86,4.87v.78h-.47V.08h.47v2.41c.26-.5.77-.84,1.41-.84,1,0,1.79.82,1.79,2.02s-.74,2.03-1.79,2.03c-.64,0-1.14-.31-1.41-.83ZM179.2,5.26c.81,0,1.39-.67,1.39-1.59s-.58-1.59-1.39-1.59-1.37.66-1.37,1.59.57,1.59,1.37,1.59Z"></path><path class="cls-18" d="M182.01,3.67c0-1.18.77-2.02,1.88-2.02s1.87.84,1.87,2.02-.78,2.03-1.87,2.03-1.88-.84-1.88-2.03ZM183.88,5.28c.84,0,1.39-.64,1.39-1.6s-.55-1.6-1.39-1.6-1.4.64-1.4,1.6.56,1.6,1.4,1.6Z"></path><path class="cls-18" d="M186.42,1.71h.53l1.29,3.33,1.3-3.33h.52l-1.61,3.94h-.42l-1.61-3.94Z"></path><path class="cls-18" d="M190.74,3.71c0-1.13.61-2.06,1.73-2.06,1.21,0,1.7.94,1.7,1.81,0,.06,0,.24-.02.34h-2.93c.02.93.52,1.47,1.32,1.47.5,0,.83-.14,1.17-.51l.34.3c-.45.46-.88.65-1.51.65-1.16,0-1.79-.87-1.79-2ZM193.7,3.44s0-.1,0-.15c0-.57-.36-1.24-1.23-1.24-.75,0-1.22.6-1.27,1.39h2.49Z"></path></g></g></g></svg> 