<?xml version="1.0" encoding="UTF-8"?> <svg xmlns="http://www.w3.org/2000/svg" id="Layer_2" data-name="Layer 2" viewBox="0 0 758.04 775.64"><defs><style> .cls-1 { stroke-dasharray: 6.02 5.02; } .cls-1, .cls-2, .cls-3, .cls-4, .cls-5, .cls-6, .cls-7, .cls-8, .cls-9, .cls-10, .cls-11, .cls-12, .cls-13, .cls-14, .cls-15, .cls-16, .cls-17, .cls-18, .cls-19, .cls-20 { fill: none; } .cls-1, .cls-2, .cls-3, .cls-5, .cls-6, .cls-7, .cls-8, .cls-9, .cls-10, .cls-11, .cls-12, .cls-13, .cls-16, .cls-17, .cls-18, .cls-19, .cls-20 { stroke-linecap: round; stroke-linejoin: round; } .cls-1, .cls-4, .cls-5, .cls-12, .cls-15, .cls-17 { stroke-width: .25px; } .cls-1, .cls-5, .cls-12 { stroke: #75655e; } .cls-2 { stroke-dasharray: 1.01 1.01; } .cls-2, .cls-3, .cls-6, .cls-7, .cls-8, .cls-9, .cls-10, .cls-13, .cls-16, .cls-18, .cls-20 { stroke: #55453d; stroke-width: .15px; } .cls-3 { stroke-dasharray: 1.01 1.01; } .cls-4 { stroke: #afa49f; } .cls-4, .cls-14, .cls-15 { stroke-miterlimit: 10; } .cls-5 { stroke-dasharray: 1.54 1.54; } .cls-21 { fill: #3a2a22; } .cls-6 { stroke-dasharray: 1 1; } .cls-7 { stroke-dasharray: 1 1; } .cls-8 { stroke-dasharray: .94 .94; } .cls-22 { fill: #fff; } .cls-10 { stroke-dasharray: 1.02 1.02; } .cls-11, .cls-14 { stroke-width: .75px; } .cls-11, .cls-14, .cls-17, .cls-19 { stroke: #3a2a22; } .cls-23 { fill: #bc8ebc; } .cls-13 { stroke-dasharray: 1.01 1.01; } .cls-15 { stroke: #bc8ebc; } .cls-16 { stroke-dasharray: 1.01 1.01; } .cls-24 { fill: #afa49f; } .cls-18 { stroke-dasharray: 1 1; } .cls-19 { stroke-width: .35px; } .cls-20 { stroke-dasharray: .98 .98; } .cls-25 { fill: #75655e; } </style></defs><g id="Layer_1-2" data-name="Layer 1"><g><polygon class="cls-22" points=".13 120.94 44.2 225.28 102.14 225.28 128.01 594.88 136.14 594.88 147.41 757.23 172.17 757.23 171.11 775.26 255.63 775.26 255.63 756.23 575.52 756.23 575.52 548.33 663.3 548.33 663.3 466.28 747.66 466.28 747.66 33.99 722.51 35.03 675.66 37.34 628.82 40.11 582.06 43.16 535.21 46.58 488.46 50.37 441.71 54.62 395.04 59.14 348.38 64.13 301.81 69.4 255.24 75.04 208.67 81.13 179.2 85.11 180.31 93.16 166.91 94.99 125.14 101 83.47 107.38 41.8 114.03 .13 120.96 .13 120.94"></polygon><line class="cls-9" x1="160.17" y1="95.96" x2="160.09" y2="95.47"></line><line class="cls-13" x1="159.94" y1="94.47" x2="159.11" y2="88.97"></line><line class="cls-9" x1="159.04" y1="88.47" x2="158.96" y2="87.97"></line><line class="cls-9" x1="144" y1="98.29" x2="143.93" y2="97.79"></line><line class="cls-3" x1="143.77" y1="96.79" x2="142.94" y2="91.28"></line><line class="cls-9" x1="142.87" y1="90.78" x2="142.79" y2="90.28"></line><line class="cls-9" x1="131.88" y1="100.03" x2="131.81" y2="99.54"></line><line class="cls-13" x1="131.66" y1="98.54" x2="130.83" y2="93.03"></line><line class="cls-9" x1="130.76" y1="92.53" x2="130.69" y2="92.04"></line><line class="cls-9" x1="126.44" y1="100.82" x2="126.36" y2="100.32"></line><line class="cls-18" x1="126.21" y1="99.33" x2="125.39" y2="93.86"></line><polyline class="cls-9" points="125.31 93.36 125.23 92.87 125.73 92.79"></polyline><polyline class="cls-2" points="126.73 92.64 130.69 92.04 142.79 90.28 158.96 87.97 178.2 85.25"></polyline><line class="cls-9" x1="178.7" y1="85.18" x2="179.2" y2="85.11"></line><line class="cls-9" x1="129.21" y1="612.25" x2="129.24" y2="612.75"></line><line class="cls-8" x1="129.3" y1="613.68" x2="129.88" y2="622.56"></line><polyline class="cls-9" points="129.91 623.02 129.95 623.52 130.45 623.49"></polyline><line class="cls-10" x1="131.47" y1="623.42" x2="137.07" y2="623.04"></line><line class="cls-9" x1="137.58" y1="623" x2="138.08" y2="622.97"></line><line class="cls-9" x1="130.6" y1="631.94" x2="131.1" y2="631.91"></line><line class="cls-16" x1="132.11" y1="631.84" x2="137.67" y2="631.46"></line><line class="cls-9" x1="138.17" y1="631.43" x2="138.67" y2="631.39"></line><line class="cls-9" x1="131.18" y1="639.42" x2="131.68" y2="639.39"></line><line class="cls-7" x1="132.68" y1="639.32" x2="138.19" y2="638.94"></line><line class="cls-9" x1="138.69" y1="638.91" x2="139.19" y2="638.88"></line><line class="cls-9" x1="129.95" y1="623.52" x2="129.99" y2="624.02"></line><line class="cls-20" x1="130.06" y1="624.99" x2="131.54" y2="643.98"></line><polyline class="cls-9" points="131.57 644.46 131.61 644.96 132.11 644.93"></polyline><line class="cls-6" x1="133.11" y1="644.86" x2="138.58" y2="644.49"></line><line class="cls-9" x1="139.08" y1="644.45" x2="139.58" y2="644.42"></line><polygon class="cls-19" points="208.67 95.09 158.5 102.02 108.33 109.41 58.34 117.17 8.26 125.49 47.99 219.55 101.77 219.55 101.77 221.55 46.66 221.55 5.43 123.93 58.01 115.2 108.02 107.43 158.21 100.04 208.67 93.07 208.67 95.09"></polygon><polyline class="cls-19" points="143.87 594.88 154.73 749.4 181.2 749.4 181.2 757.23 179.2 757.23"></polyline><polyline class="cls-19" points="141.87 594.88 152.86 751.4 179.2 751.4 179.2 757.23"></polyline><g><path class="cls-9" d="M607.1,529.15c0-25.52,20.68-43.4,46.2-43.4"></path><path class="cls-9" d="M457.03,628.42c-23.13,0-39.35-18.62-39.35-41.58"></path><path class="cls-9" d="M665.97,331.54c23.13,0,39.35-18.62,39.35-41.58"></path><path class="cls-9" d="M607.75,277.1c0-23.13-18.62-39.35-41.58-39.35"></path><path class="cls-9" d="M195.99,177.97c-23.13,0-39.35,18.62-39.34,41.59"></path><path class="cls-9" d="M440.7,701.14c23.13,0,39.35-18.62,39.35-41.58"></path></g><line class="cls-9" x1="653.3" y1="529.15" x2="653.3" y2="485.75"></line><line class="cls-9" x1="663.3" y1="531.95" x2="663.3" y2="485.75"></line><g><path class="cls-9" d="M195.92,736.51c0-23.13,18.62-39.35,41.58-39.35"></path><path class="cls-9" d="M305.69,571.85c0-23.13,18.62-39.35,41.58-39.35"></path><path class="cls-9" d="M377.23,478.27c23.13,0,39.35,18.62,39.35,41.58"></path></g><rect class="cls-19" x="607.1" y="529.15" width="46.2" height="2.8"></rect><rect class="cls-19" x="457.03" y="586.84" width="2.23" height="41.58"></rect><rect class="cls-19" x="438.47" y="659.56" width="2.23" height="41.58"></rect><rect class="cls-19" x="558.59" y="430.97" width="69.3" height="2.21"></rect><line class="cls-19" x1="593.24" y1="430.97" x2="593.24" y2="433.18"></line><rect class="cls-19" x="527.45" y="500.17" width="2.21" height="62.37"></rect><line class="cls-19" x1="529.66" y1="531.35" x2="527.45" y2="531.35"></line><rect class="cls-19" x="195.92" y="736.51" width="41.58" height="2.23"></rect><rect class="cls-19" x="305.69" y="571.86" width="41.58" height="2.23"></rect><rect class="cls-19" x="374.99" y="478.27" width="2.23" height="41.58"></rect><rect class="cls-19" x="489.39" y="607.63" width="2.21" height="41.58"></rect><rect class="cls-19" x="663.74" y="289.96" width="2.23" height="41.58"></rect><rect class="cls-19" x="566.17" y="277.1" width="41.58" height="2.23"></rect><rect class="cls-19" x="196" y="177.97" width="2.23" height="41.58"></rect><rect class="cls-19" x="607.1" y="287.75" width="41.58" height="2.21"></rect><rect class="cls-19" x="294.7" y="447.06" width="2.21" height="34.65"></rect><rect class="cls-19" x="292.48" y="481.69" width="2.21" height="34.65"></rect><line class="cls-12" x1="356.52" y1="347.72" x2="356.52" y2="346.97"></line><line class="cls-5" x1="356.52" y1="345.43" x2="356.52" y2="321.63"></line><polyline class="cls-12" points="356.52 320.86 356.52 320.11 355.77 320.11"></polyline><line class="cls-5" x1="354.23" y1="320.11" x2="330.42" y2="320.11"></line><polyline class="cls-12" points="329.66 320.11 328.91 320.11 328.91 320.86"></polyline><line class="cls-5" x1="328.91" y1="322.4" x2="328.91" y2="346.2"></line><line class="cls-12" x1="328.91" y1="346.97" x2="328.91" y2="347.72"></line><line class="cls-12" x1="460.4" y1="347.71" x2="460.4" y2="346.96"></line><line class="cls-5" x1="460.4" y1="345.43" x2="460.39" y2="321.62"></line><polyline class="cls-12" points="460.39 320.85 460.39 320.1 459.64 320.1"></polyline><line class="cls-5" x1="458.11" y1="320.1" x2="434.3" y2="320.1"></line><polyline class="cls-12" points="433.53 320.1 432.78 320.1 432.78 320.85"></polyline><line class="cls-5" x1="432.78" y1="322.39" x2="432.79" y2="346.2"></line><line class="cls-12" x1="432.79" y1="346.96" x2="432.79" y2="347.71"></line><line class="cls-12" x1="327.59" y1="410.45" x2="330.59" y2="410.45"></line><line class="cls-1" x1="335.61" y1="410.45" x2="421.41" y2="410.45"></line><line class="cls-12" x1="423.92" y1="410.45" x2="426.92" y2="410.45"></line><rect class="cls-19" x="325.28" y="298" width="138.6" height="49.71"></rect><g><rect class="cls-19" x="374.17" y="317.78" width="1.74" height="9.78" rx=".59" ry=".59"></rect><path class="cls-19" d="M375.04,333.45c.49,0,.9.4.9.9s-.4.9-.9.9-.9-.4-.9-.9.4-.9.9-.9Z"></path></g><polyline class="cls-19" points="375.91 319.09 378.33 319.09 378.33 320.64 375.91 320.64"></polyline><line class="cls-19" x1="377.47" y1="320.64" x2="377.47" y2="319.09"></line><polyline class="cls-19" points="375.91 322.95 387.97 322.95 387.97 344.71 362.12 344.71 362.12 322.95 374.17 322.95"></polyline><polyline class="cls-19" points="374.17 324.03 363.2 324.04 363.2 343.63 386.89 343.63 386.89 324.03 375.91 324.03"></polyline><line class="cls-19" x1="463.88" y1="398.53" x2="284.9" y2="398.55"></line><line class="cls-19" x1="327.59" y1="398.54" x2="327.59" y2="426.25"></line><line class="cls-19" x1="426.92" y1="398.53" x2="426.92" y2="426.25"></line><line class="cls-19" x1="327.59" y1="401.04" x2="284.9" y2="401.05"></line><line class="cls-19" x1="463.88" y1="401.03" x2="426.92" y2="401.04"></line><line class="cls-19" x1="527.45" y1="289.96" x2="527.45" y2="369.98"></line><polyline class="cls-19" points="712.59 289.96 712.6 373.69 737.74 373.69"></polyline><path class="cls-19" d="M729.65,349.75v9.87c0,.4-.32.72-.72.72h-10.9c-.4,0-.72-.32-.72-.72v-20.82c0-.4.32-.72.72-.72h10.9c.4,0,.72.32.72.72v9.48"></path><rect class="cls-19" x="727.22" y="348.28" width="5.89" height="1.47"></rect><g><circle class="cls-19" cx="723.48" cy="349.01" r=".84"></circle><path class="cls-19" d="M729.65,314.99v9.87c0,.4-.32.72-.72.72h-10.9c-.4,0-.72-.32-.72-.72v-20.82c0-.4.32-.72.72-.72h10.9c.4,0,.72.32.72.72v9.48"></path></g><rect class="cls-19" x="727.22" y="313.52" width="5.89" height="1.47"></rect><circle class="cls-19" cx="723.48" cy="314.26" r=".84"></circle><line class="cls-19" x1="661.43" y1="414.7" x2="736.8" y2="414.69"></line><line class="cls-19" x1="661.43" y1="414.7" x2="737.62" y2="414.69"></line><line class="cls-19" x1="661.43" y1="415.98" x2="737.62" y2="415.97"></line><line class="cls-19" x1="666.12" y1="415.98" x2="666.12" y2="414.7"></line><line class="cls-19" x1="704.12" y1="415.98" x2="704.12" y2="414.7"></line><line class="cls-19" x1="724.23" y1="456.27" x2="724.23" y2="415.97"></line><g><path class="cls-19" d="M674.52,436.13c0,.67-.54,1.21-1.21,1.21s-1.21-.54-1.21-1.21.54-1.21,1.21-1.21,1.21.54,1.21,1.21Z"></path><path class="cls-19" d="M678.5,436.13c0,2.86-2.32,5.18-5.18,5.18s-5.18-2.32-5.18-5.18,2.32-5.18,5.18-5.18,5.18,2.32,5.18,5.18Z"></path><path class="cls-19" d="M730.16,386.47v15.44c0,.6.48,1.08,1.08,1.08h5.29c.6,0,1.08-.48,1.08-1.08v-15.44c0-.6-.48-1.08-1.08-1.08h-5.29c-.6,0-1.08.48-1.08,1.08Z"></path><path class="cls-19" d="M726.02,389.73c0-.28-.11-.54-.32-.73-2.09-1.88-5.3-3.09-8.9-3.08-6.31,0-11.42,3.71-11.42,8.28s5.11,8.27,11.42,8.27c3.6,0,6.8-1.2,8.9-3.08.21-.19.32-.46.32-.73v-8.92Z"></path></g><line class="cls-19" x1="716.8" y1="385.91" x2="730.32" y2="385.91"></line><line class="cls-19" x1="716.8" y1="402.47" x2="730.32" y2="402.46"></line><line class="cls-19" x1="523.94" y1="661.87" x2="523.93" y2="737.24"></line><line class="cls-19" x1="523.94" y1="661.87" x2="523.93" y2="738.05"></line><line class="cls-19" x1="525.22" y1="661.87" x2="525.21" y2="738.05"></line><line class="cls-19" x1="525.22" y1="666.55" x2="523.94" y2="666.55"></line><line class="cls-19" x1="525.22" y1="704.55" x2="523.94" y2="704.55"></line><line class="cls-19" x1="565.51" y1="724.67" x2="525.21" y2="724.67"></line><g><path class="cls-19" d="M546.58,673.75c0,.67-.54,1.21-1.21,1.21s-1.21-.54-1.21-1.21.54-1.21,1.21-1.21,1.21.54,1.21,1.21Z"></path><path class="cls-19" d="M550.55,673.75c0,2.86-2.32,5.18-5.18,5.18s-5.18-2.32-5.18-5.18,2.32-5.18,5.18-5.18,5.18,2.32,5.18,5.18Z"></path></g><line class="cls-19" x1="354.51" y1="448.61" x2="351.3" y2="448.61"></line><g><path class="cls-19" d="M350.44,448.61h-11.6c-1.38,0-2.5,1.12-2.5,2.5v61.83c0,1.38,1.12,2.5,2.5,2.5h24.04c1.38,0,2.5-1.12,2.5-2.5v-61.83c0-1.38-1.12-2.5-2.5-2.5h-8.37"></path><path class="cls-19" d="M351.3,444.59v10.86c0,.24-.19.43-.43.43s-.43-.19-.43-.43v-10.81"></path><path class="cls-19" d="M350.44,454.36c-.46.17-.79.61-.79,1.14,0,.67.54,1.21,1.21,1.21s1.21-.54,1.21-1.21c0-.51-.32-.95-.77-1.13"></path><path class="cls-19" d="M350.44,450.33c-2.66.22-4.76,2.45-4.76,5.17,0,2.86,2.32,5.18,5.18,5.18s5.18-2.32,5.18-5.18c0-2.72-2.09-4.94-4.74-5.17"></path></g><rect class="cls-19" x="348.32" y="443.62" width="5.08" height=".97"></rect><line class="cls-19" x1="369.09" y1="443.62" x2="369.09" y2="519.85"></line><line class="cls-19" x1="370.37" y1="443.62" x2="370.37" y2="519.81"></line><line class="cls-19" x1="370.37" y1="448.3" x2="369.09" y2="448.3"></line><line class="cls-19" x1="370.37" y1="486.3" x2="369.09" y2="486.3"></line><g><rect class="cls-19" x="454.12" y="445.96" width="7.45" height="17.6" rx="1.08" ry="1.08"></rect><path class="cls-19" d="M449.97,450.3c0-.28-.11-.54-.32-.73-2.09-1.88-5.3-3.09-8.9-3.09-6.31,0-11.42,3.7-11.42,8.28,0,4.57,5.11,8.28,11.42,8.28,3.59,0,6.8-1.2,8.9-3.08.21-.19.32-.46.32-.73v-8.92Z"></path></g><line class="cls-19" x1="440.75" y1="446.48" x2="454.27" y2="446.48"></line><line class="cls-19" x1="440.75" y1="463.03" x2="454.27" y2="463.03"></line><polyline class="cls-19" points="461.57 475.43 436.55 475.43 436.55 519.85"></polyline><path class="cls-19" d="M453.51,493.44v9.87c0,.4-.32.72-.72.72h-10.9c-.4,0-.72-.32-.72-.72v-20.82c0-.4.32-.72.72-.72h10.9c.4,0,.72.32.72.72v9.48"></path><rect class="cls-19" x="451.07" y="491.97" width="5.89" height="1.47"></rect><g><circle class="cls-19" cx="447.34" cy="492.7" r=".84"></circle><path class="cls-19" d="M510.67,730.6h-15.44c-.6,0-1.08.48-1.08,1.08v5.29c0,.6.48,1.08,1.08,1.08h15.44c.6,0,1.08-.48,1.08-1.08v-5.29c0-.6-.48-1.08-1.08-1.08Z"></path><path class="cls-19" d="M507.41,726.45c.28,0,.54-.11.73-.32,1.88-2.09,3.08-5.3,3.09-8.9,0-6.31-3.7-11.42-8.28-11.42-4.57,0-8.28,5.11-8.28,11.42,0,3.6,1.2,6.8,3.08,8.9.19.21.46.32.73.32h8.92Z"></path></g><line class="cls-19" x1="511.23" y1="717.23" x2="511.22" y2="730.75"></line><line class="cls-19" x1="494.67" y1="717.23" x2="494.67" y2="730.75"></line><polyline class="cls-19" points="482.27 738.05 482.27 713.03 433.85 713.03"></polyline><path class="cls-19" d="M457.52,729.99h-9.87c-.4,0-.72-.32-.72-.72v-10.9c0-.4.32-.72.72-.72h20.82c.4,0,.72.32.72.72v10.9c0,.4-.32.72-.72.72h-9.48"></path><rect class="cls-19" x="457.52" y="727.55" width="1.47" height="5.89"></rect><circle class="cls-19" cx="458.25" cy="723.82" r=".84"></circle><rect class="cls-19" x="536.11" y="502.24" width="38.03" height="30.61"></rect><polyline class="cls-19" points="533.18 562.54 533.18 538.33 560.9 538.33"></polyline><rect class="cls-19" x="359.57" y="399.81" width="36.97" height="24.28"></rect><rect class="cls-19" x="360.64" y="400.89" width="34.82" height="22.12"></rect><path class="cls-19" d="M378.05,401.64c.71,0,1.28.57,1.28,1.28s-.57,1.28-1.28,1.28-1.28-.57-1.28-1.28c0-.71.57-1.28,1.28-1.28Z"></path><line class="cls-19" x1="395.46" y1="400.89" x2="396.54" y2="399.81"></line><line class="cls-19" x1="360.64" y1="400.9" x2="359.56" y2="399.82"></line><line class="cls-19" x1="360.65" y1="423.01" x2="359.57" y2="424.09"></line><line class="cls-19" x1="395.46" y1="423.01" x2="396.54" y2="424.09"></line><polygon class="cls-19" points="377 402.93 378.05 403.98 379.11 402.93 378.05 401.87 377 402.93"></polygon><line class="cls-19" x1="378.05" y1="403.98" x2="378.05" y2="401.87"></line><g><path class="cls-17" d="M598.28,414.3c.03,1.51.06,3.03.13,4.57.04.8.09,1.6.13,2.35.03.57.07,1.11.16,1.78.09.65.25,1.42-.23,1.73-.11.07-.25.12-.38.13-.77.06-.9-1.18-.97-2.24-.15-2.35.04-3.74.16-5.44.06-.9.1-1.9.14-2.89-.04-.99-.08-1.98-.14-2.89-.11-1.7-.3-3.09-.16-5.44.07-1.05.2-2.3.97-2.24.13.01.27.06.38.13.48.3.32,1.08.23,1.73-.1.67-.13,1.21-.16,1.78-.05.75-.09,1.56-.13,2.36-.07,1.54-.1,3.06-.13,4.57Z"></path><path class="cls-17" d="M593.58,414.3c.03,1.51.06,3.03.13,4.57.04.8.09,1.6.13,2.35.03.57.07,1.11.16,1.78.09.65.25,1.42-.23,1.73-.11.07-.25.12-.38.13-.77.06-.9-1.18-.97-2.24-.15-2.35.04-3.74.16-5.44.06-.9.1-1.9.14-2.89-.04-.99-.08-1.98-.14-2.89-.11-1.7-.3-3.09-.16-5.44.07-1.05.2-2.3.97-2.24.13.01.27.06.38.13.48.3.32,1.08.23,1.73-.1.67-.13,1.21-.16,1.78-.04.75-.09,1.56-.13,2.36-.07,1.54-.1,3.06-.13,4.57Z"></path><path class="cls-17" d="M588.89,414.3c.03,1.51.06,3.03.13,4.57.04.8.09,1.6.13,2.35.03.57.07,1.11.16,1.78.09.65.25,1.42-.23,1.73-.11.07-.25.12-.38.13-.77.06-.9-1.18-.97-2.24-.15-2.35.04-3.74.16-5.44.06-.9.1-1.9.14-2.89-.04-.99-.08-1.98-.14-2.89-.11-1.7-.3-3.09-.16-5.44.07-1.05.2-2.3.97-2.24.13.01.27.06.38.13.48.3.32,1.08.23,1.73-.1.67-.13,1.21-.16,1.78-.04.75-.09,1.56-.13,2.36-.07,1.54-.1,3.06-.13,4.57Z"></path></g><line class="cls-17" x1="533.18" y1="414.3" x2="653.3" y2="414.3"></line><g><path class="cls-17" d="M310.71,482.15c-1.51.03-3.03.06-4.57.13-.8.04-1.6.09-2.35.13-.57.03-1.11.07-1.78.16-.65.09-1.42.25-1.73-.23-.07-.11-.12-.25-.13-.38-.06-.77,1.18-.9,2.24-.97,2.35-.15,3.74.04,5.44.16.9.06,1.9.1,2.89.14.99-.04,1.98-.08,2.89-.14,1.7-.12,3.09-.3,5.44-.16,1.05.07,2.3.2,2.24.97-.01.13-.06.27-.13.38-.3.48-1.08.32-1.73.23-.67-.1-1.21-.13-1.78-.16-.75-.04-1.56-.09-2.36-.13-1.54-.07-3.06-.1-4.57-.13Z"></path><path class="cls-17" d="M310.71,477.46c-1.51.03-3.03.06-4.57.13-.8.04-1.6.09-2.35.13-.57.03-1.11.07-1.78.16-.65.09-1.42.25-1.73-.23-.07-.11-.12-.25-.13-.38-.06-.77,1.18-.9,2.24-.97,2.35-.15,3.74.04,5.44.16.9.06,1.9.1,2.89.14.99-.04,1.98-.08,2.89-.14,1.7-.12,3.09-.3,5.44-.16,1.05.07,2.3.2,2.24.97-.01.13-.06.27-.13.38-.3.48-1.08.32-1.73.23-.67-.1-1.21-.13-1.78-.16-.75-.04-1.56-.09-2.36-.13-1.54-.07-3.06-.1-4.57-.13Z"></path><path class="cls-17" d="M310.71,472.76c-1.51.03-3.03.06-4.57.13-.8.04-1.6.09-2.35.13-.57.03-1.11.07-1.78.16-.65.09-1.42.25-1.73-.23-.07-.11-.12-.25-.13-.38-.06-.77,1.18-.9,2.24-.97,2.35-.15,3.74.04,5.44.16.9.06,1.9.1,2.89.14.99-.04,1.98-.08,2.89-.14,1.7-.12,3.09-.3,5.44-.16,1.05.07,2.3.2,2.24.97-.01.13-.06.27-.13.38-.3.48-1.08.33-1.73.23-.67-.1-1.21-.13-1.78-.16-.75-.04-1.56-.09-2.36-.13-1.54-.07-3.06-.1-4.57-.13Z"></path></g><line class="cls-17" x1="310.71" y1="434.38" x2="310.71" y2="519.85"></line><g><path class="cls-17" d="M526.42,595.59c.03,1.51.06,3.03.13,4.57.04.8.09,1.6.13,2.36.03.57.07,1.11.16,1.78.09.65.25,1.42-.23,1.73-.11.07-.25.12-.38.13-.77.06-.9-1.18-.97-2.24-.15-2.35.04-3.74.16-5.44.06-.9.1-1.89.14-2.89-.04-.99-.08-1.98-.14-2.89-.11-1.7-.3-3.09-.16-5.44.07-1.05.2-2.3.97-2.24.13,0,.27.06.38.13.48.31.32,1.08.23,1.73-.1.67-.13,1.21-.16,1.78-.04.75-.09,1.56-.13,2.35-.07,1.55-.1,3.06-.13,4.57Z"></path><path class="cls-17" d="M521.73,595.59c.03,1.51.06,3.03.13,4.57.04.8.09,1.6.13,2.36.03.57.07,1.11.16,1.78.09.65.25,1.42-.23,1.73-.11.07-.25.12-.38.13-.77.06-.9-1.18-.97-2.24-.15-2.35.04-3.74.16-5.44.06-.9.1-1.89.14-2.89-.04-.99-.08-1.98-.14-2.89-.11-1.7-.3-3.09-.16-5.44.07-1.05.2-2.3.97-2.24.13,0,.27.06.38.13.48.31.32,1.08.23,1.73-.1.67-.13,1.21-.16,1.78-.04.75-.09,1.56-.13,2.35-.07,1.55-.1,3.06-.13,4.57Z"></path><path class="cls-17" d="M517.03,595.59c.03,1.51.06,3.03.13,4.57.04.8.09,1.6.13,2.36.03.57.07,1.11.16,1.78.09.65.25,1.42-.23,1.73-.11.07-.25.12-.38.13-.77.06-.9-1.18-.97-2.24-.15-2.35.04-3.74.16-5.44.06-.9.1-1.89.14-2.89-.04-.99-.08-1.98-.14-2.89-.11-1.7-.3-3.09-.16-5.44.07-1.05.2-2.3.97-2.24.13,0,.27.06.38.13.48.31.32,1.08.23,1.73-.1.67-.13,1.21-.16,1.78-.05.75-.09,1.56-.13,2.35-.07,1.55-.1,3.06-.13,4.57Z"></path><path class="cls-17" d="M551.17,629.74c-1.51.03-3.03.06-4.57.13-.8.04-1.6.09-2.35.13-.57.03-1.11.07-1.78.16-.65.09-1.42.25-1.73-.23-.07-.11-.12-.25-.13-.38-.06-.77,1.18-.9,2.24-.97,2.35-.15,3.74.04,5.44.16.9.06,1.9.1,2.89.14.99-.04,1.98-.08,2.89-.14,1.7-.11,3.09-.3,5.44-.16,1.05.07,2.3.2,2.24.97-.01.13-.06.27-.13.38-.31.48-1.08.33-1.73.23-.67-.1-1.21-.13-1.78-.16-.75-.04-1.56-.09-2.35-.13-1.55-.07-3.06-.1-4.57-.13Z"></path><path class="cls-17" d="M551.17,625.05c-1.51.03-3.03.06-4.57.13-.8.04-1.6.09-2.35.13-.57.03-1.11.07-1.78.16-.65.09-1.42.25-1.73-.23-.07-.11-.12-.25-.13-.38-.06-.77,1.18-.9,2.24-.97,2.35-.15,3.74.04,5.44.16.9.06,1.9.1,2.89.14.99-.04,1.98-.08,2.89-.14,1.7-.11,3.09-.3,5.44-.16,1.05.07,2.3.2,2.24.97-.01.13-.06.27-.13.38-.31.48-1.08.33-1.73.23-.67-.1-1.21-.13-1.78-.16-.75-.04-1.56-.09-2.35-.13-1.55-.07-3.06-.1-4.57-.13Z"></path><path class="cls-17" d="M551.17,620.36c-1.51.03-3.03.06-4.57.13-.8.04-1.6.09-2.35.13-.57.03-1.11.07-1.78.16-.65.09-1.42.25-1.73-.23-.07-.11-.12-.25-.13-.38-.06-.77,1.18-.9,2.24-.97,2.35-.15,3.74.04,5.44.16.9.06,1.9.1,2.89.14.99-.04,1.98-.08,2.89-.14,1.7-.11,3.09-.3,5.44-.16,1.05.07,2.3.2,2.24.97-.01.13-.06.27-.13.38-.31.48-1.08.33-1.73.23-.67-.1-1.21-.13-1.78-.16-.75-.04-1.56-.09-2.35-.13-1.55-.07-3.06-.1-4.57-.13Z"></path></g><polyline class="cls-17" points="551.17 653.83 551.17 595.59 491.6 595.59"></polyline><line class="cls-17" x1="245.63" y1="586.84" x2="245.63" y2="697.17"></line><line class="cls-17" x1="154.34" y1="227.59" x2="110.45" y2="227.59"></line><line class="cls-17" x1="135.49" y1="586.84" x2="245.63" y2="586.84"></line><line class="cls-17" x1="110.45" y1="227.59" x2="135.49" y2="586.84"></line><polyline class="cls-17" points="172.17 757.23 147.41 757.23 136.14 594.88"></polyline><polyline class="cls-17" points="747.66 42.09 724.36 43.07 678.06 45.28 631.86 47.96 585.57 51.01 539.37 54.34 493.17 58.13 446.97 62.19 400.86 66.72 354.76 71.52 308.74 76.7 262.73 82.24 216.71 88.16"></polyline><line class="cls-17" x1="216.71" y1="88.16" x2="216.71" y2="130.57"></line><line class="cls-17" x1="747.66" y1="36.28" x2="747.66" y2="42.09"></line><line class="cls-17" x1="173.37" y1="775.26" x2="179.75" y2="775.26"></line><line class="cls-17" x1="206.59" y1="89.54" x2="208.67" y2="89.27"></line><polyline class="cls-17" points="208.67 89.27 166.91 94.99 125.14 101 83.47 107.38 41.8 114.03 .12 120.96 44.2 225.28 102.14 225.28"></polyline><line class="cls-17" x1="131.52" y1="612.09" x2="137.25" y2="611.7"></line><polygon class="cls-11" points="239.81 694.86 239.81 592.57 130.13 592.57 104.26 221.86 154.34 221.86 154.34 219.55 101.76 219.55 104.26 221.86 101.76 219.55 128.01 594.88 237.5 594.88 237.5 694.86 239.81 694.86"></polygon><polygon class="cls-11" points="173.37 775.26 174.3 759.54 239.81 759.54 239.81 741.06 237.5 741.06 237.5 757.23 172.17 757.23 171.11 775.26 173.37 775.26"></polygon><polygon class="cls-11" points="747.66 33.99 722.51 35.03 675.66 37.34 628.81 40.11 582.06 43.16 535.21 46.58 488.46 50.37 441.7 54.62 395.04 59.14 348.38 64.13 301.81 69.4 255.24 75.04 208.67 81.13 208.67 130.57 210.98 130.57 210.98 83.08 257.18 77.16 303.47 71.53 349.77 66.26 396.06 61.36 442.44 56.83 488.83 52.68 535.31 48.89 581.69 45.47 628.17 42.42 674.74 39.74 721.21 37.43 747.66 36.28 747.66 33.99"></polygon><polygon class="cls-11" points="179.57 87.42 208.67 83.44 208.67 81.13 179.2 85.11 179.57 87.42"></polygon><polyline class="cls-11" points="131.52 612.07 130.32 594.88 131.52 612.07 129.21 612.25 128.01 594.88"></polyline><rect class="cls-11" x="239.81" y="593.77" width="5.82" height="2.31"></rect><rect class="cls-11" x="239.81" y="625.56" width="5.82" height="2.31"></rect><rect class="cls-11" x="237.5" y="738.75" width="8.13" height="2.31"></rect><rect class="cls-11" x="237.5" y="694.86" width="8.13" height="2.31"></rect><rect class="cls-11" x="198.23" y="219.55" width="2.31" height="8.04"></rect><rect class="cls-11" x="154.34" y="219.55" width="2.31" height="8.04"></rect><rect class="cls-11" x="236.39" y="586.84" width="2.31" height="5.73"></rect><polyline class="cls-11" points="104.26 221.86 104.35 223.52 110.54 229.34 110.45 227.59 112.11 227.59 105.92 221.86 104.26 221.86"></polyline><polyline class="cls-11" points="109.62 299.66 115.44 299.29 115.63 301.6 109.8 301.97 109.62 299.66"></polyline><polyline class="cls-11" points="114.52 368.78 120.25 368.41 120.43 370.72 114.7 371.09 114.52 368.78"></polyline><rect class="cls-11" x="169.4" y="586.84" width="2.31" height="5.73"></rect><polyline class="cls-11" points="116.92 403.33 122.65 402.96 122.83 405.27 117.1 405.64 116.92 403.33"></polyline><polyline class="cls-11" points="119.32 437.98 125.05 437.52 125.24 439.83 119.51 440.29 119.32 437.98"></polyline><polyline class="cls-11" points="124.13 507.1 129.95 506.64 130.13 508.95 124.31 509.41 124.13 507.1"></polyline><polyline class="cls-11" points="129.02 576.21 134.75 575.84 134.94 578.06 129.12 578.52 129.02 576.21"></polyline><polyline class="cls-11" points="135.49 586.84 135.4 585.27 130.04 591 130.13 592.57 131.7 592.57 137.15 586.84 135.49 586.84"></polyline><rect class="cls-11" x="239.81" y="756.02" width="5.82" height="2.31"></rect><rect class="cls-11" x="236.39" y="759.53" width="2.31" height="5.73"></rect><polyline class="cls-11" points="179.66 766.84 179.75 765.26 181.41 765.26 175.96 759.54 174.3 759.54 174.21 761.11 179.66 766.84"></polyline><rect class="cls-11" x="210.98" y="128.26" width="5.73" height="2.31"></rect><polygon class="cls-11" points="285.28 73.74 285.93 79.45 283.71 79.72 282.97 74.02 285.28 73.74"></polygon><polyline class="cls-11" points="354.11 65.8 354.76 71.53 352.45 71.8 351.8 66.07 354.11 65.8"></polyline><polygon class="cls-11" points="423.04 58.73 423.6 64.49 421.29 64.71 420.73 58.96 423.04 58.73"></polygon><polygon class="cls-11" points="491.97 52.4 492.43 58.19 490.12 58.4 489.66 52.61 491.97 52.4"></polygon><polyline class="cls-11" points="561.09 46.95 561.55 52.68 559.24 52.86 558.78 47.13 561.09 46.95"></polyline><polyline class="cls-11" points="595.64 44.54 596.01 50.27 593.7 50.46 593.33 44.64 595.64 44.54"></polyline><polyline class="cls-11" points="630.2 42.33 630.57 48.06 628.26 48.24 627.89 42.42 630.2 42.33"></polyline><rect class="cls-11" x="697.24" y="38.57" width="2.31" height="5.74" transform="translate(-1.19 33.74) rotate(-2.77)"></rect><polygon class="cls-11" points="733.97 36.87 734.25 42.65 731.94 42.75 731.64 36.97 733.97 36.87"></polygon><polyline class="cls-11" points="210.98 83.08 210.98 84.65 216.71 89.73 216.71 88.16 218.28 87.97 212.46 82.89 210.98 83.08"></polyline><polygon class="cls-11" points="181.88 87.1 182.62 92.84 180.3 93.15 179.57 87.42 181.88 87.1"></polygon><polygon class="cls-21" points="216.71 129.46 216.71 130.57 200.54 130.57 200.54 227.59 199.43 227.59 199.43 233.41 222.53 233.41 222.53 129.46 216.71 129.46"></polygon><polygon class="cls-14" points="216.71 129.46 216.71 130.57 200.54 130.57 200.54 227.59 199.43 227.59 199.43 233.41 222.53 233.41 222.53 129.46 216.71 129.46"></polygon><polygon class="cls-21" points="469.7 398.53 463.88 398.53 463.88 426.25 284.9 426.25 284.9 398.53 275.66 398.53 275.66 413.04 129.21 413.04 128.56 403.7 122.74 404.16 125.14 438.72 130.96 438.26 130.69 434.93 291.83 434.93 291.83 447.04 297.56 447.04 297.56 434.38 325.28 434.38 325.28 519.85 297.56 519.85 297.56 516.34 291.83 516.34 291.83 525.58 347.27 525.58 347.27 532.42 353 532.42 353 525.58 374.99 525.58 374.99 519.85 331.1 519.85 331.1 443.62 370.37 443.62 370.37 434.38 461.57 434.38 461.57 519.85 416.57 519.85 416.57 525.58 469.7 525.58 469.7 398.53"></polygon><polygon class="cls-14" points="469.7 398.53 463.88 398.53 463.88 426.25 284.9 426.25 284.9 398.53 275.66 398.53 275.66 413.04 129.21 413.04 128.56 403.7 122.74 404.16 125.14 438.72 130.96 438.26 130.69 434.93 291.83 434.93 291.83 447.04 297.56 447.04 297.56 434.38 325.28 434.38 325.28 519.85 297.56 519.85 297.56 516.34 291.83 516.34 291.83 525.58 347.27 525.58 347.27 532.42 353 532.42 353 525.58 374.99 525.58 374.99 519.85 331.1 519.85 331.1 443.62 370.37 443.62 370.37 434.38 461.57 434.38 461.57 519.85 416.57 519.85 416.57 525.58 469.7 525.58 469.7 398.53"></polygon><g><polygon class="cls-21" points="179.75 765.26 245.63 765.26 245.63 739.85 251.36 739.85 251.36 746.23 428.12 746.23 428.12 653.83 438.47 653.83 438.47 659.56 433.85 659.56 433.85 738.1 565.52 738.1 565.52 661.87 523.94 661.87 523.94 659.56 480.05 659.56 480.05 653.83 485.87 653.83 485.87 649.21 491.6 649.21 491.6 653.83 565.52 653.83 565.52 581.02 491.6 581.02 491.6 607.63 485.87 607.63 485.87 586.84 459.26 586.84 459.26 581.02 485.87 581.02 485.87 575.29 527.45 575.29 527.45 562.54 533.18 562.54 533.18 566.05 560.9 566.05 560.9 538.33 577.07 538.33 577.07 496.75 533.18 496.75 533.18 500.17 527.45 500.17 527.45 488.62 582.89 488.62 582.89 538.33 653.3 538.33 653.3 531.95 663.3 531.95 663.3 548.33 575.52 548.33 575.52 756.23 255.63 756.23 255.63 775.26 179.75 775.26 179.75 765.26"></polygon><polygon class="cls-14" points="179.75 765.26 245.63 765.26 245.63 739.85 251.36 739.85 251.36 746.23 428.12 746.23 428.12 653.83 438.47 653.83 438.47 659.56 433.85 659.56 433.85 738.1 565.52 738.1 565.52 661.87 523.94 661.87 523.94 659.56 480.05 659.56 480.05 653.83 485.87 653.83 485.87 649.21 491.6 649.21 491.6 653.83 565.52 653.83 565.52 581.02 491.6 581.02 491.6 607.63 485.87 607.63 485.87 586.84 459.26 586.84 459.26 581.02 485.87 581.02 485.87 575.29 527.45 575.29 527.45 562.54 533.18 562.54 533.18 566.05 560.9 566.05 560.9 538.33 577.07 538.33 577.07 496.75 533.18 496.75 533.18 500.17 527.45 500.17 527.45 488.62 582.89 488.62 582.89 538.33 653.3 538.33 653.3 531.95 663.3 531.95 663.3 548.33 575.52 548.33 575.52 756.23 255.63 756.23 255.63 775.26 179.75 775.26 179.75 765.26"></polygon><polygon class="cls-21" points="566.17 237.75 560.35 237.75 560.35 52.77 594.9 50.37 595.27 56.09 582.34 57.02 582.34 208 566.17 208 566.17 237.75"></polygon><polygon class="cls-14" points="566.17 237.75 560.35 237.75 560.35 52.77 594.9 50.37 595.27 56.09 582.34 57.02 582.34 208 566.17 208 566.17 237.75"></polygon><polygon class="cls-21" points="245.63 594.88 245.63 586.84 237.5 586.84 237.5 581.02 347.27 581.02 347.27 574.09 353 574.09 353 581.02 417.68 581.02 417.68 586.84 251.36 586.84 251.36 594.88 245.63 594.88"></polygon><polygon class="cls-14" points="245.63 594.88 245.63 586.84 237.5 586.84 237.5 581.02 347.27 581.02 347.27 574.09 353 574.09 353 581.02 417.68 581.02 417.68 586.84 251.36 586.84 251.36 594.88 245.63 594.88"></polygon><polygon class="cls-21" points="747.66 279.96 747.66 42.07 733.13 42.6 733.41 48.43 736.46 48.24 736.46 284.23 705.41 284.23 705.41 289.96 737.66 289.96 737.66 456.28 661.43 456.28 661.43 414.7 659.12 414.7 659.12 289.96 663.74 289.96 663.74 284.23 648.68 284.23 648.68 289.96 653.3 289.96 653.3 391.6 577.07 391.6 577.07 369.98 560.9 369.98 560.9 289.91 607.1 289.91 607.1 284.23 566.17 284.23 566.17 279.33 560.35 279.33 560.35 284.23 527.45 284.23 527.45 289.96 555.17 289.96 555.17 369.98 527.45 369.98 527.45 433.18 558.59 433.18 558.59 427.45 533.18 427.45 533.18 405.83 569.03 405.83 569.03 399.73 653.3 399.73 653.3 427.45 627.89 427.45 627.89 433.18 653.3 433.18 653.3 485.75 663.3 485.75 663.3 466.28 747.66 466.28 757.66 466.28 757.66 279.96 747.66 279.96"></polygon><polygon class="cls-14" points="747.66 279.96 747.66 42.07 733.13 42.6 733.41 48.43 736.46 48.24 736.46 284.23 705.41 284.23 705.41 289.96 737.66 289.96 737.66 456.28 661.43 456.28 661.43 414.7 659.12 414.7 659.12 289.96 663.74 289.96 663.74 284.23 648.68 284.23 648.68 289.96 653.3 289.96 653.3 391.6 577.07 391.6 577.07 369.98 560.9 369.98 560.9 289.91 607.1 289.91 607.1 284.23 566.17 284.23 566.17 279.33 560.35 279.33 560.35 284.23 527.45 284.23 527.45 289.96 555.17 289.96 555.17 369.98 527.45 369.98 527.45 433.18 558.59 433.18 558.59 427.45 533.18 427.45 533.18 405.83 569.03 405.83 569.03 399.73 653.3 399.73 653.3 427.45 627.89 427.45 627.89 433.18 653.3 433.18 653.3 485.75 663.3 485.75 663.3 466.28 747.66 466.28 757.66 466.28 757.66 279.96 747.66 279.96"></polygon><path class="cls-23" d="M675.46,509c-.08-.02-.14-.07-.14-.14s.06-.13.14-.14c3.3-.56,4.94-2.74,4.94-6.02v-3.84c0-1.16,1.01-1.98,2.66-2.2.33-.05.61.23.45.47-.31.46-.47,1.06-.47,1.78v3.48c0,2.95-1.67,5.21-4.98,6.17-.37.11-.37.5,0,.61,3.31.96,4.98,3.22,4.98,6.18v3.48c0,.72.16,1.32.47,1.78.16.23-.12.51-.45.47-1.64-.22-2.66-1.05-2.66-2.21v-3.84c0-3.29-1.64-5.47-4.94-6.02h0Z"></path><path class="cls-15" d="M675.46,509c-.08-.02-.14-.07-.14-.14s.06-.13.14-.14c3.3-.56,4.94-2.74,4.94-6.02v-3.84c0-1.16,1.01-1.98,2.66-2.2.33-.05.61.23.45.47-.31.46-.47,1.06-.47,1.78v3.48c0,2.95-1.67,5.21-4.98,6.17-.37.11-.37.5,0,.61,3.31.96,4.98,3.22,4.98,6.18v3.48c0,.72.16,1.32.47,1.78.16.23-.12.51-.45.47-1.64-.22-2.66-1.05-2.66-2.21v-3.84c0-3.29-1.64-5.47-4.94-6.02h0Z"></path></g><g><path class="cls-21" d="M609.44,156.04h2.52c1.9,0,2.97.89,2.97,2.53s-1.07,2.54-2.97,2.54h-1.72v3.99h-.8v-9.06ZM611.89,160.39c1.41,0,2.24-.61,2.24-1.81s-.81-1.81-2.24-1.81h-1.64v3.62h1.64Z"></path><path class="cls-21" d="M616.44,158.69h.78v1.09c.43-.78,1.31-1.18,2.02-1.18.33,0,.66.07.99.24l-.39.7c-.21-.1-.51-.17-.77-.17-.68,0-1.46.36-1.74,1.3-.08.27-.12.57-.12,1.27v3.15h-.78v-6.41Z"></path><path class="cls-21" d="M621.49,156.04h.94v1.39h-.94v-1.39ZM621.58,158.69h.77v6.41h-.77v-6.41Z"></path><path class="cls-21" d="M624.39,158.69h.78v1.1c.38-.85,1.11-1.19,1.88-1.19.91,0,1.57.4,1.89,1.25.4-.83,1.09-1.25,2-1.25,1.55,0,2.13,1.16,2.13,2.68v3.82h-.78v-3.64c0-1.33-.39-2.18-1.52-2.18-1.02,0-1.65.77-1.65,2.26v3.57h-.78v-3.76c0-1.4-.52-2.07-1.5-2.07-1.03,0-1.67.79-1.67,2.26v3.57h-.78v-6.41Z"></path><path class="cls-21" d="M639.21,163.9c-.43.82-1.25,1.29-2.25,1.29-1.44,0-2.31-.77-2.31-1.94,0-.69.29-1.16.72-1.44.46-.31,1.09-.42,1.77-.42h2.05v-.28c0-1.19-.62-1.83-1.82-1.83-.79,0-1.4.29-1.98,1.02l-.56-.48c.68-.85,1.53-1.22,2.59-1.22,1.63,0,2.54.89,2.54,2.51v3.99h-.71l-.04-1.2ZM637.04,164.55c1.18,0,2.17-.93,2.17-2.2v-.36h-1.95c-.51,0-1.03.08-1.37.33-.28.21-.44.51-.44.94,0,.79.6,1.3,1.6,1.3Z"></path><path class="cls-21" d="M641.92,158.69h.78v1.09c.43-.78,1.31-1.18,2.02-1.18.33,0,.66.07.99.24l-.39.7c-.21-.1-.51-.17-.77-.17-.68,0-1.46.36-1.74,1.3-.08.27-.12.57-.12,1.27v3.15h-.78v-6.41Z"></path><path class="cls-21" d="M648.98,164.9l-2.55-6.21h.86l2.1,5.42,2.11-5.42h.85l-3.69,9.05h-.84l1.17-2.84Z"></path><path class="cls-21" d="M657.24,156.04h2.72c1.68,0,2.68.84,2.68,2.25,0,.94-.46,1.68-1.24,2,1.1.25,1.7,1.07,1.7,2.31,0,1.61-1.02,2.5-2.88,2.5h-2.97v-9.06ZM660.21,160.05c.98,0,1.63-.64,1.63-1.64s-.69-1.61-1.88-1.61h-1.91v3.26h2.16ZM660.16,164.36c1.42,0,2.14-.6,2.14-1.79,0-1.13-.66-1.79-1.79-1.79h-2.46v3.58h2.11Z"></path><path class="cls-21" d="M664.56,161.94c0-1.84.99-3.34,2.81-3.34,1.96,0,2.76,1.53,2.76,2.94,0,.1-.01.4-.04.55h-4.76c.03,1.51.84,2.39,2.14,2.39.82,0,1.35-.23,1.91-.83l.55.49c-.73.75-1.43,1.05-2.46,1.05-1.89,0-2.91-1.41-2.91-3.25ZM669.38,161.52c0-.08,0-.16,0-.24,0-.92-.58-2.02-2-2.02-1.23,0-1.98.98-2.07,2.26h4.06Z"></path><path class="cls-21" d="M671.54,161.89c0-1.96,1.29-3.29,2.92-3.29,1.05,0,1.87.54,2.29,1.36v-3.92h.77v9.06h-.77v-1.26c-.44.85-1.25,1.35-2.29,1.35-1.72,0-2.92-1.42-2.92-3.3ZM674.59,164.47c1.3,0,2.23-1.08,2.23-2.58s-.93-2.58-2.23-2.58-2.26,1.09-2.26,2.58.95,2.58,2.26,2.58Z"></path><path class="cls-21" d="M679.56,158.69h.78v1.09c.43-.78,1.31-1.18,2.02-1.18.33,0,.66.07.99.24l-.39.7c-.21-.1-.51-.17-.77-.17-.68,0-1.46.36-1.74,1.3-.08.27-.12.57-.12,1.27v3.15h-.78v-6.41Z"></path><path class="cls-21" d="M683.94,161.89c0-1.92,1.25-3.29,3.05-3.29s3.04,1.36,3.04,3.29-1.27,3.3-3.04,3.3-3.05-1.36-3.05-3.3ZM686.99,164.5c1.37,0,2.26-1.04,2.26-2.61s-.9-2.61-2.26-2.61-2.28,1.05-2.28,2.61.9,2.61,2.28,2.61Z"></path><path class="cls-21" d="M691.47,161.89c0-1.92,1.25-3.29,3.05-3.29s3.04,1.36,3.04,3.29-1.27,3.3-3.04,3.3-3.05-1.36-3.05-3.3ZM694.52,164.5c1.37,0,2.26-1.04,2.26-2.61s-.9-2.61-2.26-2.61-2.28,1.05-2.28,2.61.9,2.61,2.28,2.61Z"></path><path class="cls-21" d="M699.31,158.69h.78v1.1c.38-.85,1.11-1.19,1.88-1.19.91,0,1.57.4,1.89,1.25.4-.83,1.09-1.25,2-1.25,1.55,0,2.13,1.16,2.13,2.68v3.82h-.78v-3.64c0-1.33-.39-2.18-1.52-2.18-1.02,0-1.65.77-1.65,2.26v3.57h-.78v-3.76c0-1.4-.52-2.07-1.5-2.07-1.03,0-1.67.79-1.67,2.26v3.57h-.78v-6.41Z"></path></g><g><path class="cls-21" d="M315.01,667.29h2.72c1.68,0,2.68.84,2.68,2.25,0,.94-.46,1.68-1.24,2,1.1.25,1.7,1.07,1.7,2.31,0,1.61-1.02,2.5-2.88,2.5h-2.97v-9.06ZM317.98,671.3c.98,0,1.63-.64,1.63-1.64s-.69-1.61-1.88-1.61h-1.91v3.26h2.16ZM317.93,675.61c1.42,0,2.14-.6,2.14-1.79,0-1.13-.66-1.79-1.79-1.79h-2.46v3.58h2.11Z"></path><path class="cls-21" d="M322.31,673.19c0-1.84.99-3.34,2.81-3.34,1.96,0,2.76,1.53,2.76,2.94,0,.1-.01.4-.04.55h-4.76c.03,1.51.84,2.39,2.14,2.39.82,0,1.35-.23,1.91-.83l.55.49c-.73.75-1.43,1.05-2.46,1.05-1.89,0-2.91-1.41-2.91-3.25ZM327.13,672.77c0-.08,0-.16,0-.24,0-.92-.58-2.01-2-2.01-1.23,0-1.98.98-2.07,2.26h4.06Z"></path><path class="cls-21" d="M329.28,673.14c0-1.96,1.29-3.29,2.92-3.29,1.05,0,1.87.54,2.29,1.36v-3.92h.77v9.06h-.77v-1.26c-.44.84-1.25,1.35-2.29,1.35-1.72,0-2.92-1.42-2.92-3.3ZM332.32,675.72c1.3,0,2.23-1.08,2.23-2.58s-.93-2.58-2.23-2.58-2.26,1.09-2.26,2.58.95,2.58,2.26,2.58Z"></path><path class="cls-21" d="M337.3,669.94h.78v1.09c.43-.78,1.31-1.18,2.02-1.18.33,0,.66.07.99.24l-.39.7c-.21-.1-.51-.17-.77-.17-.68,0-1.46.36-1.74,1.3-.08.27-.12.57-.12,1.27v3.15h-.78v-6.41Z"></path><path class="cls-21" d="M341.68,673.14c0-1.92,1.25-3.29,3.05-3.29s3.04,1.37,3.04,3.29-1.27,3.3-3.04,3.3-3.05-1.37-3.05-3.3ZM344.73,675.75c1.37,0,2.26-1.04,2.26-2.61s-.9-2.61-2.26-2.61-2.28,1.05-2.28,2.61.9,2.61,2.28,2.61Z"></path><path class="cls-21" d="M349.21,673.14c0-1.92,1.25-3.29,3.05-3.29s3.04,1.37,3.04,3.29-1.27,3.3-3.04,3.3-3.05-1.37-3.05-3.3ZM352.26,675.75c1.37,0,2.26-1.04,2.26-2.61s-.9-2.61-2.26-2.61-2.28,1.05-2.28,2.61.9,2.61,2.28,2.61Z"></path><path class="cls-21" d="M357.05,669.94h.78v1.1c.38-.84,1.11-1.19,1.88-1.19.91,0,1.57.4,1.89,1.25.4-.83,1.09-1.25,2-1.25,1.55,0,2.13,1.16,2.13,2.68v3.82h-.78v-3.64c0-1.33-.39-2.18-1.52-2.18-1.02,0-1.65.77-1.65,2.26v3.57h-.78v-3.76c0-1.4-.52-2.07-1.5-2.07-1.03,0-1.67.79-1.67,2.26v3.57h-.78v-6.41Z"></path></g><g><path class="cls-21" d="M187.07,506.76h2.72c1.68,0,2.68.84,2.68,2.25,0,.94-.46,1.68-1.24,2,1.1.25,1.7,1.07,1.7,2.31,0,1.61-1.02,2.5-2.88,2.5h-2.97v-9.06ZM190.05,510.77c.98,0,1.63-.64,1.63-1.64s-.69-1.61-1.88-1.61h-1.91v3.26h2.16ZM189.99,515.08c1.42,0,2.14-.6,2.14-1.79,0-1.13-.66-1.79-1.79-1.79h-2.46v3.58h2.11Z"></path><path class="cls-21" d="M194.37,512.66c0-1.84.99-3.34,2.81-3.34,1.96,0,2.76,1.53,2.76,2.94,0,.1-.01.4-.04.55h-4.76c.03,1.51.84,2.39,2.14,2.39.82,0,1.35-.23,1.91-.83l.55.49c-.73.75-1.43,1.05-2.46,1.05-1.89,0-2.91-1.41-2.91-3.25ZM199.19,512.23c0-.08,0-.16,0-.24,0-.92-.58-2.01-2-2.01-1.23,0-1.98.98-2.07,2.26h4.06Z"></path><path class="cls-21" d="M201.34,512.61c0-1.96,1.29-3.29,2.92-3.29,1.05,0,1.87.54,2.29,1.36v-3.92h.77v9.06h-.77v-1.26c-.44.84-1.25,1.35-2.29,1.35-1.72,0-2.92-1.42-2.92-3.3ZM204.38,515.19c1.3,0,2.23-1.08,2.23-2.58s-.93-2.58-2.23-2.58-2.26,1.09-2.26,2.58.95,2.58,2.26,2.58Z"></path><path class="cls-21" d="M209.36,509.41h.78v1.09c.43-.78,1.31-1.18,2.02-1.18.33,0,.66.07.99.24l-.39.7c-.21-.1-.51-.17-.77-.17-.68,0-1.46.36-1.74,1.3-.08.27-.12.57-.12,1.27v3.15h-.78v-6.41Z"></path><path class="cls-21" d="M213.74,512.61c0-1.92,1.25-3.29,3.05-3.29s3.04,1.37,3.04,3.29-1.27,3.3-3.04,3.3-3.05-1.37-3.05-3.3ZM216.79,515.22c1.37,0,2.26-1.04,2.26-2.61s-.9-2.61-2.26-2.61-2.28,1.05-2.28,2.61.9,2.61,2.28,2.61Z"></path><path class="cls-21" d="M221.27,512.61c0-1.92,1.25-3.29,3.05-3.29s3.04,1.37,3.04,3.29-1.27,3.3-3.04,3.3-3.05-1.37-3.05-3.3ZM224.32,515.22c1.37,0,2.26-1.04,2.26-2.61s-.9-2.61-2.26-2.61-2.28,1.05-2.28,2.61.9,2.61,2.28,2.61Z"></path><path class="cls-21" d="M229.11,509.41h.78v1.1c.38-.84,1.11-1.19,1.88-1.19.91,0,1.57.4,1.89,1.25.4-.83,1.09-1.25,2-1.25,1.55,0,2.13,1.16,2.13,2.68v3.82h-.78v-3.64c0-1.33-.39-2.18-1.52-2.18-1.02,0-1.65.77-1.65,2.26v3.57h-.78v-3.76c0-1.4-.52-2.07-1.5-2.07-1.03,0-1.67.79-1.67,2.26v3.57h-.78v-6.41Z"></path></g><g><path class="cls-21" d="M170.73,319.47h2.43c2.94,0,4.62,1.68,4.62,4.6s-1.64,4.46-4.63,4.46h-2.42v-9.06ZM173.07,327.79c2.5,0,3.89-1.16,3.89-3.74s-1.4-3.83-3.82-3.83h-1.61v7.57h1.54Z"></path><path class="cls-21" d="M179.38,319.47h.94v1.39h-.94v-1.39ZM179.47,322.12h.77v6.41h-.77v-6.41Z"></path><path class="cls-21" d="M182.28,322.12h.78v1.05c.4-.76,1.12-1.14,2.01-1.14,1.38,0,2.2.81,2.2,2.51v3.99h-.78v-3.71c0-1.45-.55-2.11-1.61-2.11-1.16,0-1.83.79-1.83,2.55v3.27h-.78v-6.41Z"></path><path class="cls-21" d="M189.15,319.47h.94v1.39h-.94v-1.39ZM189.24,322.12h.77v6.41h-.77v-6.41Z"></path><path class="cls-21" d="M192.05,322.12h.78v1.05c.4-.76,1.12-1.14,2.01-1.14,1.38,0,2.2.81,2.2,2.51v3.99h-.78v-3.71c0-1.45-.55-2.11-1.61-2.11-1.16,0-1.83.79-1.83,2.55v3.27h-.78v-6.41Z"></path><path class="cls-21" d="M198.5,329.29s0-.1.03-.26l1.11-.88c-.57-.22-.96-.59-.96-1.26,0-.53.27-.9.72-1.2-.36-.37-.56-.87-.56-1.45,0-1.3,1.04-2.2,2.39-2.2.64,0,1.22.21,1.64.59l1.02-.86.4.49-1,.88c.19.33.3.71.3,1.14,0,1.28-.96,2.13-2.33,2.13-.53,0-.99-.12-1.37-.34-.31.18-.45.42-.45.72,0,.66.63.83,1.62.98,1.6.25,2.99.44,2.99,1.75,0,1.16-1.05,1.78-2.7,1.78-1.82,0-2.85-.7-2.85-2ZM201.36,330.68c1.09,0,1.92-.34,1.92-1.08,0-.86-1.16-.96-2.31-1.14-.31-.05-.6-.1-.89-.17l-.8.92c-.01.09-.01.11-.01.15,0,.9.79,1.33,2.09,1.33ZM201.23,325.76c.98,0,1.59-.65,1.59-1.53s-.64-1.56-1.58-1.56-1.62.65-1.62,1.55.63,1.55,1.61,1.55Z"></path><path class="cls-21" d="M208.98,319.47h2.52c1.99,0,2.97.93,2.97,2.5,0,1.25-.64,2.07-1.85,2.38l2.44,4.19h-.92l-2.34-4.07c-.21,0-.44,0-.65,0h-1.36v4.06h-.81v-9.06ZM211.43,323.76c1.38,0,2.24-.55,2.24-1.78s-.88-1.77-2.24-1.77h-1.64v3.56h1.64Z"></path><path class="cls-21" d="M215.99,325.32c0-1.92,1.25-3.29,3.05-3.29s3.04,1.37,3.04,3.29-1.27,3.3-3.04,3.3-3.05-1.36-3.05-3.3ZM219.04,327.93c1.37,0,2.26-1.04,2.26-2.61s-.9-2.61-2.26-2.61-2.28,1.05-2.28,2.61.9,2.61,2.28,2.61Z"></path><path class="cls-21" d="M223.52,325.32c0-1.92,1.25-3.29,3.05-3.29s3.04,1.37,3.04,3.29-1.27,3.3-3.04,3.3-3.05-1.36-3.05-3.3ZM226.57,327.93c1.37,0,2.26-1.04,2.26-2.61s-.9-2.61-2.26-2.61-2.28,1.05-2.28,2.61.9,2.61,2.28,2.61Z"></path><path class="cls-21" d="M231.36,322.12h.78v1.1c.38-.85,1.11-1.19,1.88-1.19.91,0,1.57.4,1.89,1.25.4-.83,1.09-1.25,2-1.25,1.55,0,2.13,1.16,2.13,2.69v3.82h-.78v-3.64c0-1.33-.39-2.18-1.52-2.18-1.02,0-1.65.77-1.65,2.26v3.57h-.78v-3.76c0-1.4-.52-2.07-1.5-2.07-1.03,0-1.67.79-1.67,2.26v3.57h-.78v-6.41Z"></path></g><g><path class="cls-21" d="M358.48,156.04h.81v8.33h4.18v.73h-4.99v-9.06Z"></path><path class="cls-21" d="M364.61,156.04h.94v1.39h-.94v-1.39ZM364.69,158.69h.77v6.41h-.77v-6.41Z"></path><path class="cls-21" d="M366.86,158.69h.86l2.1,5.42,2.11-5.42h.85l-2.61,6.41h-.68l-2.63-6.41Z"></path><path class="cls-21" d="M374.12,156.04h.94v1.39h-.94v-1.39ZM374.2,158.69h.77v6.41h-.77v-6.41Z"></path><path class="cls-21" d="M377.01,158.69h.78v1.05c.4-.76,1.12-1.14,2.01-1.14,1.38,0,2.2.81,2.2,2.51v3.99h-.78v-3.71c0-1.45-.55-2.11-1.61-2.11-1.16,0-1.83.79-1.83,2.55v3.27h-.78v-6.41Z"></path><path class="cls-21" d="M383.46,165.86s0-.1.03-.26l1.11-.88c-.57-.22-.96-.59-.96-1.26,0-.53.27-.9.72-1.2-.36-.37-.56-.87-.56-1.45,0-1.3,1.04-2.2,2.38-2.2.64,0,1.22.21,1.64.58l1.02-.86.4.49-1,.88c.19.33.3.71.3,1.14,0,1.28-.96,2.13-2.33,2.13-.53,0-.99-.12-1.37-.34-.31.18-.45.42-.45.72,0,.66.63.83,1.62.98,1.6.25,2.99.44,2.99,1.75,0,1.16-1.05,1.78-2.7,1.78-1.82,0-2.85-.7-2.85-2ZM386.32,167.25c1.09,0,1.92-.34,1.92-1.08,0-.86-1.16-.96-2.31-1.14-.31-.05-.6-.1-.89-.17l-.8.92c-.01.09-.01.11-.01.15,0,.9.79,1.33,2.09,1.33ZM386.19,162.33c.98,0,1.59-.65,1.59-1.53s-.64-1.56-1.58-1.56-1.62.65-1.62,1.55.63,1.55,1.61,1.55Z"></path><path class="cls-21" d="M393.95,156.04h2.52c1.99,0,2.97.93,2.97,2.5,0,1.25-.64,2.07-1.85,2.38l2.44,4.19h-.92l-2.34-4.07c-.21,0-.44,0-.65,0h-1.36v4.06h-.81v-9.06ZM396.39,160.33c1.38,0,2.24-.55,2.24-1.78s-.88-1.77-2.24-1.77h-1.64v3.56h1.64Z"></path><path class="cls-21" d="M400.95,161.89c0-1.92,1.25-3.29,3.05-3.29s3.04,1.36,3.04,3.29-1.27,3.3-3.04,3.3-3.05-1.36-3.05-3.3ZM404,164.5c1.37,0,2.26-1.04,2.26-2.61s-.9-2.61-2.26-2.61-2.28,1.05-2.28,2.61.9,2.61,2.28,2.61Z"></path><path class="cls-21" d="M408.49,161.89c0-1.92,1.25-3.29,3.05-3.29s3.04,1.36,3.04,3.29-1.27,3.3-3.04,3.3-3.05-1.36-3.05-3.3ZM411.54,164.5c1.37,0,2.26-1.04,2.26-2.61s-.9-2.61-2.26-2.61-2.28,1.05-2.28,2.61.9,2.61,2.28,2.61Z"></path><path class="cls-21" d="M416.33,158.69h.78v1.1c.38-.85,1.11-1.19,1.88-1.19.91,0,1.57.4,1.89,1.25.4-.83,1.09-1.25,2-1.25,1.55,0,2.13,1.16,2.13,2.68v3.82h-.78v-3.64c0-1.33-.39-2.18-1.52-2.18-1.02,0-1.65.77-1.65,2.26v3.57h-.78v-3.76c0-1.4-.52-2.07-1.5-2.07-1.03,0-1.67.79-1.67,2.26v3.57h-.78v-6.41Z"></path></g><g><path class="cls-21" d="M96.74,156.04h2.72c1.68,0,2.68.84,2.68,2.25,0,.94-.46,1.68-1.24,2,1.1.25,1.7,1.07,1.7,2.31,0,1.61-1.02,2.5-2.88,2.5h-2.97v-9.06ZM99.71,160.05c.98,0,1.63-.64,1.63-1.64s-.69-1.61-1.89-1.61h-1.91v3.26h2.16ZM99.66,164.36c1.42,0,2.14-.6,2.14-1.79,0-1.13-.66-1.79-1.79-1.79h-2.46v3.58h2.11Z"></path><path class="cls-21" d="M108.56,163.9c-.43.82-1.25,1.29-2.25,1.29-1.44,0-2.31-.77-2.31-1.94,0-.69.29-1.16.72-1.44.46-.31,1.09-.42,1.77-.42h2.05v-.28c0-1.19-.62-1.83-1.82-1.83-.79,0-1.4.29-1.98,1.02l-.56-.48c.68-.85,1.53-1.22,2.59-1.22,1.63,0,2.54.89,2.54,2.51v3.99h-.72l-.04-1.2ZM106.38,164.55c1.18,0,2.16-.93,2.16-2.2v-.36h-1.95c-.51,0-1.03.08-1.37.33-.28.21-.44.51-.44.94,0,.79.6,1.3,1.6,1.3Z"></path><path class="cls-21" d="M111.14,163.77v-7.73h.77v7.59c0,.6.23.85.64.85.17,0,.38-.04.61-.12v.67c-.29.11-.6.17-.84.17-.72,0-1.18-.44-1.18-1.42Z"></path><path class="cls-21" d="M114.11,161.89c0-1.83,1.06-3.29,2.86-3.29,1.17,0,2.09.58,2.51,1.74l-.7.27c-.27-.82-.9-1.33-1.81-1.33-1.42,0-2.09,1.25-2.09,2.61s.68,2.62,2.09,2.62c.91,0,1.53-.51,1.81-1.33l.7.27c-.42,1.16-1.34,1.75-2.51,1.75-1.8,0-2.86-1.46-2.86-3.3Z"></path><path class="cls-21" d="M120.71,161.89c0-1.92,1.25-3.29,3.05-3.29s3.04,1.36,3.04,3.29-1.27,3.3-3.04,3.3-3.05-1.36-3.05-3.3ZM123.76,164.5c1.37,0,2.26-1.04,2.26-2.61s-.9-2.61-2.26-2.61-2.27,1.05-2.27,2.61.9,2.61,2.27,2.61Z"></path><path class="cls-21" d="M128.55,158.69h.78v1.05c.4-.76,1.12-1.14,2.01-1.14,1.38,0,2.2.81,2.2,2.51v3.99h-.78v-3.71c0-1.45-.55-2.11-1.61-2.11-1.16,0-1.83.79-1.83,2.55v3.27h-.78v-6.41Z"></path><path class="cls-21" d="M137.27,164.9l-2.55-6.21h.86l2.1,5.42,2.11-5.42h.85l-3.69,9.05h-.84l1.17-2.84Z"></path></g><g><path class="cls-21" d="M172.6,654.2h2.72c1.68,0,2.68.84,2.68,2.25,0,.94-.46,1.68-1.24,2,1.1.25,1.7,1.07,1.7,2.31,0,1.61-1.02,2.5-2.88,2.5h-2.97v-9.06ZM175.57,658.21c.98,0,1.63-.64,1.63-1.64s-.69-1.61-1.88-1.61h-1.91v3.26h2.16ZM175.52,662.52c1.42,0,2.14-.6,2.14-1.79,0-1.13-.66-1.79-1.79-1.79h-2.46v3.58h2.11Z"></path><path class="cls-21" d="M184.42,662.06c-.43.82-1.25,1.29-2.25,1.29-1.44,0-2.31-.77-2.31-1.94,0-.69.29-1.16.72-1.44.46-.31,1.09-.42,1.77-.42h2.05v-.28c0-1.19-.62-1.83-1.82-1.83-.79,0-1.4.29-1.98,1.02l-.56-.48c.68-.84,1.53-1.21,2.59-1.21,1.63,0,2.54.89,2.54,2.51v3.99h-.71l-.04-1.2ZM182.24,662.71c1.18,0,2.17-.93,2.17-2.2v-.36h-1.95c-.51,0-1.03.08-1.37.32-.28.21-.44.51-.44.94,0,.79.6,1.3,1.6,1.3Z"></path><path class="cls-21" d="M187,661.93v-7.73h.77v7.59c0,.6.23.84.64.84.17,0,.38-.04.61-.12v.67c-.29.11-.6.17-.84.17-.72,0-1.18-.44-1.18-1.42Z"></path><path class="cls-21" d="M189.97,660.05c0-1.83,1.06-3.29,2.86-3.29,1.17,0,2.09.58,2.51,1.74l-.7.27c-.27-.82-.9-1.33-1.81-1.33-1.42,0-2.09,1.25-2.09,2.61s.68,2.62,2.09,2.62c.91,0,1.53-.51,1.81-1.33l.7.27c-.42,1.16-1.34,1.75-2.51,1.75-1.8,0-2.86-1.46-2.86-3.3Z"></path><path class="cls-21" d="M196.57,660.05c0-1.92,1.25-3.29,3.05-3.29s3.04,1.37,3.04,3.29-1.27,3.3-3.04,3.3-3.05-1.37-3.05-3.3ZM199.62,662.66c1.37,0,2.26-1.04,2.26-2.61s-.9-2.61-2.26-2.61-2.28,1.05-2.28,2.61.9,2.61,2.28,2.61Z"></path><path class="cls-21" d="M204.41,656.85h.78v1.05c.4-.76,1.12-1.14,2.01-1.14,1.38,0,2.2.81,2.2,2.51v3.99h-.78v-3.71c0-1.45-.55-2.11-1.61-2.11-1.16,0-1.83.79-1.83,2.55v3.27h-.78v-6.41Z"></path><path class="cls-21" d="M213.13,663.06l-2.55-6.21h.86l2.1,5.42,2.11-5.42h.85l-3.69,9.05h-.84l1.17-2.84Z"></path></g><g><path class="cls-21" d="M371.41,368.53h.81v4.86l4.65-4.86h1.09l-3.45,3.54,3.48,5.52h-.95l-3.11-4.93-1.71,1.76v3.17h-.81v-9.06Z"></path><path class="cls-21" d="M379.14,368.53h.94v1.39h-.94v-1.39ZM379.22,371.18h.77v6.41h-.77v-6.41Z"></path><path class="cls-21" d="M382.79,376.11v-4.31h-1.42v-.62h1.42v-1.85l.79-.46v2.31h1.54v.62h-1.54v4.12c0,.71.22,1.11.81,1.11.19,0,.46-.04.73-.12v.62c-.32.1-.64.16-.92.16-.85,0-1.4-.49-1.4-1.57Z"></path><path class="cls-21" d="M386.14,374.38c0-1.83,1.06-3.29,2.86-3.29,1.17,0,2.09.58,2.51,1.74l-.7.27c-.27-.82-.9-1.33-1.81-1.33-1.42,0-2.09,1.25-2.09,2.61s.68,2.62,2.09,2.62c.91,0,1.53-.51,1.81-1.33l.7.27c-.42,1.16-1.34,1.75-2.51,1.75-1.8,0-2.86-1.46-2.86-3.3Z"></path><path class="cls-21" d="M393.14,368.53h.78v3.69c.4-.75,1.1-1.13,2.01-1.13,1.4,0,2.2.85,2.2,2.51v3.99h-.78v-3.71c0-1.43-.53-2.11-1.61-2.11-1.18,0-1.83.83-1.83,2.55v3.27h-.78v-9.06Z"></path><path class="cls-21" d="M399.77,374.43c0-1.84.99-3.34,2.81-3.34,1.96,0,2.76,1.53,2.76,2.94,0,.1-.01.4-.04.55h-4.76c.03,1.51.84,2.39,2.14,2.39.82,0,1.35-.23,1.91-.83l.55.49c-.73.75-1.43,1.05-2.46,1.05-1.89,0-2.91-1.41-2.91-3.25ZM404.59,374c0-.08,0-.16,0-.24,0-.92-.58-2.02-2-2.02-1.23,0-1.98.98-2.07,2.26h4.06Z"></path><path class="cls-21" d="M407.08,371.18h.78v1.05c.4-.76,1.12-1.14,2.01-1.14,1.38,0,2.2.81,2.2,2.51v3.99h-.78v-3.71c0-1.45-.55-2.11-1.61-2.11-1.16,0-1.83.79-1.83,2.55v3.27h-.78v-6.41Z"></path></g><g><path class="cls-21" d="M592.34,457.07h5.86v.73h-5.06v3.37h4.39v.73h-4.39v4.24h-.81v-9.06Z"></path><path class="cls-21" d="M598.93,462.92c0-1.92,1.25-3.29,3.05-3.29s3.04,1.37,3.04,3.29-1.27,3.3-3.04,3.3-3.05-1.37-3.05-3.3ZM601.98,465.52c1.37,0,2.26-1.04,2.26-2.61s-.9-2.61-2.26-2.61-2.28,1.05-2.28,2.61.9,2.61,2.28,2.61Z"></path><path class="cls-21" d="M608.5,465.93l-2.55-6.21h.86l2.1,5.42,2.11-5.42h.85l-3.69,9.05h-.84l1.17-2.84Z"></path><path class="cls-21" d="M612.83,462.97c0-1.84.99-3.34,2.81-3.34,1.96,0,2.76,1.53,2.76,2.94,0,.1-.01.4-.04.55h-4.76c.03,1.51.84,2.39,2.14,2.39.82,0,1.35-.23,1.91-.83l.55.49c-.73.75-1.43,1.05-2.46,1.05-1.89,0-2.91-1.41-2.91-3.25ZM617.65,462.54c0-.08,0-.16,0-.24,0-.92-.58-2.01-2-2.01-1.23,0-1.98.98-2.07,2.26h4.06Z"></path><path class="cls-21" d="M620.12,459.72h.78v1.09c.43-.78,1.31-1.18,2.02-1.18.33,0,.66.07.99.24l-.39.7c-.21-.1-.51-.17-.77-.17-.68,0-1.46.36-1.74,1.3-.08.27-.12.57-.12,1.27v3.15h-.78v-6.41Z"></path></g><g><path class="cls-21" d="M597.68,330.62h.65l1.71,6.06,1.76-5.7h.63l1.76,5.7,1.7-6.06h.65l-2.01,6.98h-.63l-1.79-5.71-1.79,5.71h-.64l-2.01-6.98Z"></path><path class="cls-21" d="M607.69,330.62h.62v6.98h-.62v-6.98Z"></path><path class="cls-21" d="M609.74,334.1c0-2.16,1.26-3.58,3.16-3.58,1.35,0,2.39.71,2.84,1.89l-.58.22c-.38-.96-1.17-1.52-2.26-1.52-1.55,0-2.54,1.17-2.54,2.99s.99,3,2.54,3c1.09,0,1.89-.56,2.26-1.52l.58.22c-.45,1.18-1.49,1.9-2.84,1.9-1.89,0-3.16-1.42-3.16-3.59Z"></path></g><path class="cls-21" d="M544.91,514.08h.65l1.71,6.06,1.76-5.7h.63l1.76,5.7,1.7-6.06h.65l-2.01,6.98h-.63l-1.79-5.71-1.79,5.71h-.64l-2.01-6.98Z"></path><path class="cls-21" d="M557.19,513.2h.48l-3.55,9.08h-.47l3.55-9.08Z"></path><path class="cls-21" d="M558.89,514.08h1.87c2.26,0,3.56,1.29,3.56,3.54s-1.27,3.43-3.57,3.43h-1.86v-6.98ZM560.7,520.48c1.92,0,2.99-.89,2.99-2.88s-1.08-2.95-2.94-2.95h-1.24v5.83h1.19Z"></path><g><path class="cls-21" d="M298.45,410.08h1.94c1.53,0,2.29.72,2.29,1.92,0,.97-.5,1.6-1.43,1.83l1.88,3.22h-.71l-1.8-3.13c-.16,0-.34,0-.5,0h-1.05v3.13h-.62v-6.98ZM300.33,413.38c1.06,0,1.73-.43,1.73-1.37s-.68-1.37-1.73-1.37h-1.26v2.74h1.26Z"></path><path class="cls-21" d="M304.3,410.08h4.56v.56h-3.94v2.59h3.53v.56h-3.53v2.7h3.94v.56h-4.56v-6.98Z"></path><path class="cls-21" d="M310.16,410.08h4.51v.56h-3.89v2.59h3.38v.56h-3.38v3.26h-.62v-6.98Z"></path></g><path class="cls-21" d="M435.99,413.57c0-2.17,1.27-3.59,3.16-3.59s3.18,1.42,3.18,3.59-1.27,3.58-3.18,3.58-3.16-1.42-3.16-3.58ZM439.15,416.56c1.57,0,2.55-1.16,2.55-2.99s-.99-3-2.55-3-2.54,1.15-2.54,3,.99,2.99,2.54,2.99Z"></path><path class="cls-21" d="M446.02,409.08h.48l-3.55,9.08h-.47l3.55-9.08Z"></path><path class="cls-21" d="M447.73,410.08h.93l2.35,5.66,2.35-5.66h.92v6.98h-.62v-6.16l-2.35,5.59h-.61l-2.36-5.59v6.16h-.62v-6.98Z"></path><g><path class="cls-21" d="M335.32,330.62h1.87c2.26,0,3.56,1.29,3.56,3.54s-1.27,3.43-3.57,3.43h-1.86v-6.98ZM337.13,337.02c1.92,0,2.99-.89,2.99-2.88s-1.08-2.95-2.94-2.95h-1.24v5.83h1.19Z"></path><path class="cls-21" d="M341.41,330.62h.65l1.71,6.06,1.76-5.7h.63l1.76,5.7,1.7-6.06h.65l-2.01,6.98h-.63l-1.79-5.71-1.79,5.71h-.64l-2.01-6.98Z"></path></g><g><path class="cls-21" d="M439.25,330.62h.65l1.71,6.06,1.76-5.7h.63l1.76,5.7,1.7-6.06h.65l-2.01,6.98h-.63l-1.79-5.71-1.79,5.71h-.64l-2.01-6.98Z"></path><path class="cls-21" d="M449.26,330.62h4.51v.56h-3.89v2.59h3.38v.56h-3.38v3.26h-.62v-6.98Z"></path></g><path class="cls-21" d="M544.93,548.55h.62v6.42h3.22v.56h-3.84v-6.98Z"></path><g><path class="cls-21" d="M511.38,621.08h.65l1.71,6.06,1.76-5.7h.63l1.76,5.7,1.7-6.06h.65l-2.01,6.98h-.63l-1.79-5.71-1.79,5.71h-.64l-2.01-6.98Z"></path><path class="cls-21" d="M521.39,621.08h.62v6.98h-.62v-6.98Z"></path><path class="cls-21" d="M523.44,624.56c0-2.16,1.26-3.58,3.16-3.58,1.35,0,2.39.71,2.84,1.89l-.58.22c-.38-.96-1.17-1.52-2.26-1.52-1.55,0-2.54,1.17-2.54,2.99s.99,3,2.54,3c1.09,0,1.89-.56,2.26-1.52l.58.21c-.45,1.18-1.49,1.9-2.84,1.9-1.89,0-3.16-1.42-3.16-3.59Z"></path></g><path class="cls-21" d="M539.13,325.84h1.94c1.46,0,2.29.69,2.29,1.95s-.83,1.96-2.29,1.96h-1.33v3.07h-.62v-6.98ZM541.01,329.19c1.09,0,1.73-.47,1.73-1.4s-.62-1.39-1.73-1.39h-1.27v2.79h1.27Z"></path><g><path class="cls-25" d="M48.23,0h3.61v.45h-3.11v2.07h2.7v.45h-2.7v2.61h-.5V0Z"></path><path class="cls-25" d="M52.57,0h.58v.86h-.58v-.86ZM52.62,1.63h.47v3.94h-.47V1.63Z"></path><path class="cls-25" d="M54.43,1.63h.48v.64c.25-.47.69-.7,1.24-.7.85,0,1.36.5,1.36,1.54v2.45h-.48v-2.28c0-.89-.34-1.3-.99-1.3-.71,0-1.13.48-1.13,1.57v2.01h-.48V1.63Z"></path><path class="cls-25" d="M61,0h3.64v.45h-3.15v2.07h2.82v.45h-2.82v2.16h3.15v.45h-3.64V0Z"></path><path class="cls-25" d="M66.8,3.59l-1.46-1.96h.59l1.18,1.63,1.2-1.63h.58l-1.46,1.96,1.47,1.98h-.59l-1.19-1.64-1.19,1.64h-.58l1.46-1.98Z"></path><path class="cls-25" d="M70.33,4.66v-2.65h-.88v-.38h.88V.49l.48-.28v1.42h.95v.38h-.95v2.53c0,.44.14.68.5.68.12,0,.28-.02.45-.08v.38c-.2.06-.4.1-.57.1-.52,0-.86-.3-.86-.97Z"></path><path class="cls-25" d="M72.48,3.63c0-1.13.61-2.06,1.73-2.06,1.21,0,1.7.94,1.7,1.81,0,.06,0,.24-.02.34h-2.93c.02.93.52,1.47,1.32,1.47.5,0,.83-.14,1.18-.51l.34.3c-.45.46-.88.65-1.52.65-1.16,0-1.79-.87-1.79-2ZM75.44,3.37s0-.1,0-.15c0-.57-.36-1.24-1.23-1.24-.76,0-1.22.6-1.27,1.39h2.49Z"></path><path class="cls-25" d="M77.05,1.63h.48v.64c.25-.47.69-.7,1.24-.7.85,0,1.36.5,1.36,1.54v2.45h-.48v-2.28c0-.89-.34-1.3-.99-1.3-.71,0-1.13.48-1.13,1.57v2.01h-.48V1.63Z"></path><path class="cls-25" d="M81,4.73l.34-.28c.2.46.66.77,1.26.77.57,0,.95-.27.95-.72,0-.55-.53-.68-1.1-.82-.66-.16-1.23-.38-1.23-1.06,0-.62.53-1.05,1.3-1.05.6,0,1.1.26,1.37.76l-.37.21c-.21-.38-.57-.58-1.02-.58-.48,0-.84.24-.84.62,0,.4.36.54.93.68.67.16,1.44.34,1.44,1.2,0,.71-.56,1.17-1.42,1.17-.79,0-1.35-.4-1.6-.9Z"></path><path class="cls-25" d="M85.11,0h.58v.86h-.58v-.86ZM85.16,1.63h.47v3.94h-.47V1.63Z"></path><path class="cls-25" d="M86.78,3.6c0-1.18.77-2.02,1.88-2.02s1.87.84,1.87,2.02-.78,2.03-1.87,2.03-1.88-.84-1.88-2.03ZM88.65,5.2c.84,0,1.39-.64,1.39-1.6s-.55-1.6-1.39-1.6-1.4.64-1.4,1.6.56,1.6,1.4,1.6Z"></path><path class="cls-25" d="M91.67,1.63h.48v.64c.25-.47.69-.7,1.24-.7.85,0,1.36.5,1.36,1.54v2.45h-.48v-2.28c0-.89-.34-1.3-.99-1.3-.71,0-1.13.48-1.13,1.57v2.01h-.48V1.63Z"></path><path class="cls-25" d="M96.07,1.81h.58v.86h-.58v-.86ZM96.07,4.72h.58v.85h-.58v-.85Z"></path></g><g><path class="cls-25" d="M81.62,10.89h-1.47v-.39h1.03c.29,0,.44-.1.44-.41v-.49h.48v5.57h-.48v-4.28Z"></path><path class="cls-25" d="M86.7,13.84h-2.77v-.4l2.79-3.84h.46v3.79h.91v.45h-.91v1.34h-.48v-1.34ZM86.7,13.39v-3.15l-2.25,3.15h2.25Z"></path><path class="cls-25" d="M88.82,12.37c0-1.33.3-2.84,1.72-2.84s1.75,1.39,1.75,2.85-.4,2.84-1.72,2.84c-1.44,0-1.75-1.51-1.75-2.85ZM90.57,14.77c.88,0,1.23-1,1.23-2.36s-.36-2.41-1.26-2.41c-.96,0-1.23,1.1-1.23,2.39s.28,2.38,1.26,2.38Z"></path><path class="cls-25" d="M95.3,10.89h-1.47v-.39h1.03c.29,0,.44-.1.44-.41v-.49h.48v5.57h-.48v-4.28Z"></path></g><g><path class="cls-25" d="M81.62,20.49h-1.47v-.39h1.03c.29,0,.44-.1.44-.41v-.49h.48v5.57h-.48v-4.28Z"></path><path class="cls-25" d="M84.11,23.25l.47-.08c.14.7.66,1.21,1.4,1.21.85,0,1.41-.68,1.41-1.48s-.52-1.38-1.34-1.38c-.51,0-.95.24-1.26.69l-.5-.15.5-2.86h2.84v.45h-2.45l-.34,1.96c.38-.39.82-.55,1.27-.55,1.04,0,1.78.82,1.78,1.83s-.81,1.94-1.91,1.94c-.94,0-1.69-.64-1.88-1.58Z"></path><path class="cls-25" d="M88.82,21.97c0-1.33.3-2.84,1.72-2.84s1.75,1.39,1.75,2.85-.4,2.84-1.72,2.84c-1.44,0-1.75-1.51-1.75-2.85ZM90.57,24.37c.88,0,1.23-1,1.23-2.36s-.36-2.41-1.26-2.41c-.96,0-1.23,1.1-1.23,2.4s.28,2.37,1.26,2.37Z"></path><path class="cls-25" d="M95.3,20.49h-1.47v-.39h1.03c.29,0,.44-.1.44-.41v-.49h.48v5.57h-.48v-4.28Z"></path></g><g><path class="cls-25" d="M81.62,30.09h-1.47v-.39h1.03c.29,0,.44-.1.44-.41v-.49h.48v5.57h-.48v-4.28Z"></path><path class="cls-25" d="M85.19,31.01c.23-.14.5-.22.76-.22,1.01,0,1.81.81,1.81,1.81s-.84,1.83-1.87,1.83-1.88-.8-1.88-1.82c0-.37.12-.7.29-1l1.67-2.81h.54l-1.34,2.21ZM85.9,33.98c.76,0,1.39-.6,1.39-1.38s-.62-1.38-1.39-1.38-1.39.59-1.39,1.38.62,1.38,1.39,1.38Z"></path><path class="cls-25" d="M88.82,31.57c0-1.33.3-2.84,1.72-2.84s1.75,1.39,1.75,2.85-.4,2.84-1.72,2.84c-1.44,0-1.75-1.51-1.75-2.85ZM90.57,33.96c.88,0,1.23-1,1.23-2.36s-.36-2.41-1.26-2.41c-.96,0-1.23,1.1-1.23,2.4s.28,2.37,1.26,2.37Z"></path><path class="cls-25" d="M95.3,30.09h-1.47v-.39h1.03c.29,0,.44-.1.44-.41v-.49h.48v5.57h-.48v-4.28Z"></path></g><g><path class="cls-25" d="M81.62,39.69h-1.47v-.39h1.03c.29,0,.44-.1.44-.41v-.49h.48v5.57h-.48v-4.28Z"></path><path class="cls-25" d="M87.42,38.85h-3.43v-.45h3.98v.4l-2.75,5.18h-.53l2.74-5.12Z"></path><path class="cls-25" d="M88.82,41.17c0-1.33.3-2.84,1.72-2.84s1.75,1.39,1.75,2.85-.4,2.84-1.72,2.84c-1.44,0-1.75-1.51-1.75-2.85ZM90.57,43.56c.88,0,1.23-1,1.23-2.36s-.36-2.41-1.26-2.41c-.96,0-1.23,1.1-1.23,2.39s.28,2.38,1.26,2.38Z"></path><path class="cls-25" d="M95.3,39.69h-1.47v-.39h1.03c.29,0,.44-.1.44-.41v-.49h.48v5.57h-.48v-4.28Z"></path></g><g><path class="cls-25" d="M81.62,49.29h-1.47v-.39h1.03c.29,0,.44-.1.44-.41v-.49h.48v5.57h-.48v-4.28Z"></path><path class="cls-25" d="M84.15,51.99c0-.7.41-1.25,1.08-1.45-.46-.18-.76-.62-.76-1.19,0-.9.78-1.41,1.54-1.41.86,0,1.53.57,1.53,1.45,0,.55-.3.97-.77,1.15.67.21,1.07.76,1.07,1.45,0,1.09-.9,1.64-1.84,1.64s-1.85-.55-1.85-1.64ZM86,53.18c.72,0,1.36-.41,1.36-1.22,0-.73-.56-1.22-1.36-1.22s-1.38.48-1.38,1.22c0,.82.66,1.22,1.38,1.22ZM86.02,50.4c.61,0,1.05-.4,1.05-.98,0-.61-.42-1.03-1.06-1.03-.56,0-1.06.36-1.06.98s.44,1.02,1.07,1.02Z"></path><path class="cls-25" d="M88.82,50.77c0-1.33.3-2.84,1.72-2.84s1.75,1.39,1.75,2.85-.4,2.84-1.72,2.84c-1.44,0-1.75-1.51-1.75-2.85ZM90.57,53.17c.88,0,1.23-1,1.23-2.36s-.36-2.41-1.26-2.41c-.96,0-1.23,1.1-1.23,2.4s.28,2.37,1.26,2.37Z"></path><path class="cls-25" d="M95.3,49.29h-1.47v-.39h1.03c.29,0,.44-.1.44-.41v-.49h.48v5.57h-.48v-4.28Z"></path></g><polyline class="cls-4" points="105.36 50.25 119.71 50.25 124.17 80.7"></polyline><path class="cls-24" d="M124.76,84.7l-2.86-5.31s2.28,1.32,4.08-.6l-1.22,5.91Z"></path><polyline class="cls-4" points="105.36 40.57 124.71 40.57 130.22 79.58"></polyline><path class="cls-24" d="M130.78,83.57l-2.84-5.33s2.27,1.33,4.09-.58l-1.25,5.91Z"></path><polyline class="cls-4" points="105.36 30.89 133.71 30.89 140.99 77.58"></polyline><path class="cls-24" d="M141.61,81.57l-2.91-5.29s2.29,1.3,4.08-.64l-1.17,5.92Z"></path><polyline class="cls-4" points="105.36 11.56 165.7 11.56 176.96 72.06"></polyline><path class="cls-24" d="M177.7,76.03l-3.07-5.2s2.33,1.23,4.06-.76l-.99,5.96Z"></path><polyline class="cls-4" points="105.36 21.21 148.7 21.21 157.93 75.59"></polyline><path class="cls-24" d="M158.61,79.57l-2.98-5.25s2.31,1.27,4.07-.69l-1.09,5.94Z"></path><g><path class="cls-25" d="M.72,621h3.61v.45H1.22v2.07h2.7v.45H1.22v2.61h-.5v-5.57Z"></path><path class="cls-25" d="M5.07,621h.58v.86h-.58v-.86ZM5.12,622.63h.47v3.94h-.47v-3.94Z"></path><path class="cls-25" d="M6.93,622.63h.48v.64c.25-.47.69-.7,1.24-.7.85,0,1.36.5,1.36,1.54v2.46h-.48v-2.28c0-.89-.34-1.3-.99-1.3-.71,0-1.13.48-1.13,1.57v2.01h-.48v-3.94Z"></path><path class="cls-25" d="M13.5,621h3.64v.45h-3.15v2.07h2.82v.45h-2.82v2.16h3.15v.45h-3.64v-5.57Z"></path><path class="cls-25" d="M19.3,624.59l-1.46-1.96h.59l1.18,1.63,1.2-1.63h.58l-1.46,1.96,1.47,1.98h-.59l-1.19-1.64-1.19,1.64h-.58l1.46-1.98Z"></path><path class="cls-25" d="M22.83,625.66v-2.65h-.88v-.38h.88v-1.14l.48-.28v1.42h.95v.38h-.95v2.54c0,.44.14.68.5.68.12,0,.28-.02.45-.08v.38c-.2.06-.4.1-.57.1-.52,0-.86-.3-.86-.97Z"></path><path class="cls-25" d="M24.97,624.63c0-1.13.61-2.05,1.73-2.05,1.21,0,1.7.94,1.7,1.81,0,.06,0,.24-.02.34h-2.93c.02.93.52,1.47,1.32,1.47.5,0,.83-.14,1.18-.51l.34.3c-.45.46-.88.65-1.52.65-1.16,0-1.79-.87-1.79-2ZM27.94,624.37s0-.1,0-.15c0-.57-.36-1.24-1.23-1.24-.76,0-1.22.6-1.27,1.39h2.49Z"></path><path class="cls-25" d="M29.54,622.63h.48v.64c.25-.47.69-.7,1.24-.7.85,0,1.36.5,1.36,1.54v2.46h-.48v-2.28c0-.89-.34-1.3-.99-1.3-.71,0-1.13.48-1.13,1.57v2.01h-.48v-3.94Z"></path><path class="cls-25" d="M33.5,625.73l.34-.28c.2.46.66.77,1.26.77.57,0,.95-.27.95-.72,0-.55-.53-.68-1.1-.82-.66-.16-1.23-.38-1.23-1.06,0-.62.53-1.05,1.3-1.05.6,0,1.1.26,1.37.76l-.37.21c-.21-.38-.57-.58-1.02-.58-.48,0-.84.24-.84.62,0,.4.36.54.93.68.67.16,1.44.34,1.44,1.2,0,.71-.56,1.17-1.42,1.17-.79,0-1.35-.4-1.6-.9Z"></path><path class="cls-25" d="M37.6,621h.58v.86h-.58v-.86ZM37.65,622.63h.47v3.94h-.47v-3.94Z"></path><path class="cls-25" d="M39.27,624.6c0-1.18.77-2.02,1.88-2.02s1.87.84,1.87,2.02-.78,2.03-1.87,2.03-1.88-.84-1.88-2.03ZM41.15,626.2c.84,0,1.39-.64,1.39-1.6s-.55-1.6-1.39-1.6-1.4.64-1.4,1.6.56,1.6,1.4,1.6Z"></path><path class="cls-25" d="M44.17,622.63h.48v.64c.25-.47.69-.7,1.24-.7.85,0,1.36.5,1.36,1.54v2.46h-.48v-2.28c0-.89-.34-1.3-.99-1.3-.71,0-1.13.48-1.13,1.57v2.01h-.48v-3.94Z"></path><path class="cls-25" d="M48.57,622.81h.58v.86h-.58v-.86ZM48.57,625.72h.58v.85h-.58v-.85Z"></path></g><g><path class="cls-25" d="M34.12,631.89h-1.47v-.39h1.03c.29,0,.44-.1.44-.41v-.49h.48v5.57h-.48v-4.28Z"></path><path class="cls-25" d="M39.2,634.84h-2.77v-.4l2.79-3.84h.46v3.79h.91v.45h-.91v1.33h-.48v-1.33ZM39.2,634.39v-3.15l-2.25,3.15h2.25Z"></path><path class="cls-25" d="M41.31,633.37c0-1.33.3-2.84,1.72-2.84s1.75,1.39,1.75,2.85-.4,2.84-1.72,2.84c-1.44,0-1.75-1.51-1.75-2.85ZM43.07,635.76c.88,0,1.23-1,1.23-2.36s-.36-2.41-1.26-2.41c-.96,0-1.23,1.1-1.23,2.39s.28,2.37,1.26,2.37Z"></path><path class="cls-25" d="M47.79,631.89h-1.47v-.39h1.03c.29,0,.44-.1.44-.41v-.49h.48v5.57h-.48v-4.28Z"></path></g><g><path class="cls-25" d="M34.12,641.49h-1.47v-.39h1.03c.29,0,.44-.1.44-.41v-.49h.48v5.57h-.48v-4.28Z"></path><path class="cls-25" d="M36.61,644.25l.47-.08c.14.7.66,1.21,1.4,1.21.85,0,1.41-.68,1.41-1.48s-.52-1.38-1.34-1.38c-.51,0-.95.24-1.26.69l-.5-.15.5-2.86h2.84v.45h-2.45l-.34,1.96c.38-.39.82-.55,1.27-.55,1.04,0,1.78.82,1.78,1.83s-.81,1.94-1.91,1.94c-.94,0-1.69-.64-1.88-1.58Z"></path><path class="cls-25" d="M41.31,642.97c0-1.33.3-2.84,1.72-2.84s1.75,1.39,1.75,2.85-.4,2.84-1.72,2.84c-1.44,0-1.75-1.51-1.75-2.85ZM43.07,645.36c.88,0,1.23-1,1.23-2.36s-.36-2.41-1.26-2.41c-.96,0-1.23,1.1-1.23,2.39s.28,2.37,1.26,2.37Z"></path><path class="cls-25" d="M47.79,641.49h-1.47v-.39h1.03c.29,0,.44-.1.44-.41v-.49h.48v5.57h-.48v-4.28Z"></path></g><g><path class="cls-25" d="M34.12,651.09h-1.47v-.39h1.03c.29,0,.44-.1.44-.41v-.49h.48v5.57h-.48v-4.28Z"></path><path class="cls-25" d="M37.69,652.01c.23-.14.5-.22.76-.22,1.01,0,1.81.81,1.81,1.81s-.84,1.83-1.87,1.83-1.88-.79-1.88-1.82c0-.37.12-.7.29-1l1.67-2.81h.54l-1.34,2.21ZM38.39,654.98c.76,0,1.39-.6,1.39-1.38s-.62-1.38-1.39-1.38-1.39.59-1.39,1.38.62,1.38,1.39,1.38Z"></path><path class="cls-25" d="M41.31,652.57c0-1.33.3-2.84,1.72-2.84s1.75,1.39,1.75,2.85-.4,2.84-1.72,2.84c-1.44,0-1.75-1.51-1.75-2.85ZM43.07,654.96c.88,0,1.23-1,1.23-2.36s-.36-2.41-1.26-2.41c-.96,0-1.23,1.1-1.23,2.39s.28,2.37,1.26,2.37Z"></path><path class="cls-25" d="M47.79,651.09h-1.47v-.39h1.03c.29,0,.44-.1.44-.41v-.49h.48v5.57h-.48v-4.28Z"></path></g><g><path class="cls-25" d="M34.12,660.69h-1.47v-.39h1.03c.29,0,.44-.1.44-.41v-.49h.48v5.57h-.48v-4.28Z"></path><path class="cls-25" d="M39.92,659.85h-3.43v-.45h3.98v.4l-2.75,5.18h-.53l2.74-5.12Z"></path><path class="cls-25" d="M41.31,662.17c0-1.33.3-2.84,1.72-2.84s1.75,1.39,1.75,2.85-.4,2.84-1.72,2.84c-1.44,0-1.75-1.51-1.75-2.85ZM43.07,664.56c.88,0,1.23-1,1.23-2.36s-.36-2.41-1.26-2.41c-.96,0-1.23,1.1-1.23,2.39s.28,2.37,1.26,2.37Z"></path><path class="cls-25" d="M47.79,660.69h-1.47v-.39h1.03c.29,0,.44-.1.44-.41v-.49h.48v5.57h-.48v-4.28Z"></path></g><g><path class="cls-25" d="M34.12,670.29h-1.47v-.39h1.03c.29,0,.44-.1.44-.41v-.49h.48v5.57h-.48v-4.28Z"></path><path class="cls-25" d="M36.65,672.99c0-.7.41-1.25,1.08-1.45-.46-.18-.76-.62-.76-1.19,0-.9.78-1.41,1.54-1.41.86,0,1.53.57,1.53,1.45,0,.55-.3.97-.77,1.15.67.21,1.07.76,1.07,1.45,0,1.09-.9,1.63-1.84,1.63s-1.85-.55-1.85-1.63ZM38.5,674.18c.72,0,1.36-.41,1.36-1.22,0-.73-.56-1.21-1.36-1.21s-1.38.48-1.38,1.21c0,.82.66,1.22,1.38,1.22ZM38.52,671.4c.61,0,1.05-.4,1.05-.98,0-.61-.42-1.03-1.06-1.03-.56,0-1.06.36-1.06.98s.44,1.02,1.07,1.02Z"></path><path class="cls-25" d="M41.31,671.77c0-1.33.3-2.84,1.72-2.84s1.75,1.39,1.75,2.85-.4,2.84-1.72,2.84c-1.44,0-1.75-1.51-1.75-2.85ZM43.07,674.16c.88,0,1.23-1,1.23-2.36s-.36-2.41-1.26-2.41c-.96,0-1.23,1.1-1.23,2.39s.28,2.37,1.26,2.37Z"></path><path class="cls-25" d="M47.79,670.29h-1.47v-.39h1.03c.29,0,.44-.1.44-.41v-.49h.48v5.57h-.48v-4.28Z"></path></g><polyline class="cls-4" points="57.86 633.75 79.78 633.75 117.16 615.35"></polyline><path class="cls-24" d="M120.78,613.57l-6,.65s2.38,1.13,1.82,3.7l4.18-4.36Z"></path><polyline class="cls-4" points="57.86 643.43 84.78 643.43 118.18 626.41"></polyline><path class="cls-24" d="M121.78,624.57l-5.99.74s2.4,1.1,1.88,3.68l4.12-4.42Z"></path><polyline class="cls-4" points="57.86 653.11 87.78 653.11 119.3 634.62"></polyline><path class="cls-24" d="M122.78,632.57l-5.94,1.09s2.46.95,2.09,3.56l3.85-4.65Z"></path><polyline class="cls-4" points="57.86 672.45 103.19 672.45 121.21 650.68"></polyline><path class="cls-24" d="M123.78,647.57l-5.21,3.05s2.63.06,3.18,2.63l2.03-5.69Z"></path><polyline class="cls-4" points="57.86 662.79 95.19 662.79 120.61 642.81"></polyline><path class="cls-24" d="M123.78,640.31l-5.73,1.88s2.56.61,2.55,3.24l3.18-5.13Z"></path></g></g></svg> 