<?xml version="1.0" encoding="UTF-8"?> <svg xmlns="http://www.w3.org/2000/svg" id="Layer_2" data-name="Layer 2" viewBox="0 0 615.62 597.78"><defs><style> .cls-1 { stroke: #afa49f; } .cls-1, .cls-2, .cls-3, .cls-4, .cls-5, .cls-6, .cls-7, .cls-8, .cls-9, .cls-10, .cls-11, .cls-12 { fill: none; } .cls-1, .cls-2, .cls-4, .cls-6, .cls-9, .cls-10 { stroke-width: .25px; } .cls-1, .cls-8, .cls-9 { stroke-miterlimit: 10; } .cls-2 { stroke-dasharray: 1.54 1.54; } .cls-2, .cls-3, .cls-4, .cls-5, .cls-6, .cls-7, .cls-10, .cls-11, .cls-12 { stroke-linecap: round; stroke-linejoin: round; } .cls-2, .cls-4, .cls-6 { stroke: #75655e; } .cls-13 { fill: #3a2a22; } .cls-3, .cls-7, .cls-11 { stroke: #55453d; stroke-width: .15px; } .cls-14 { fill: #fff; } .cls-4 { stroke-dasharray: 6.15 5.13; } .cls-5 { stroke-width: .5px; } .cls-5, .cls-8, .cls-10, .cls-12 { stroke: #3a2a22; } .cls-7 { stroke-dasharray: 1.02 1.02; } .cls-15 { fill: #bc8ebc; } .cls-8 { stroke-width: .75px; } .cls-9 { stroke: #bc8ebc; } .cls-16 { fill: #afa49f; } .cls-11 { stroke-dasharray: 1 1; } .cls-12 { stroke-width: .35px; } .cls-17 { fill: #75655e; } </style></defs><g id="Layer_1-2" data-name="Layer 1"><g><polygon class="cls-14" points="159.32 512.21 196.84 512.48 234.35 512.48 271.87 512.02 309.29 511.37 346.8 510.27 384.32 508.88 421.74 507.03 459.16 505 496.58 502.5 534.01 499.73 571.34 496.68 604.8 493.62 604.8 209.85 555.19 209.85 555.19 121.28 615.25 121.28 615.25 19.32 417.38 19.32 417.38 49.35 236.31 49.35 236.31 22.74 155.9 22.74 155.9 11.95 .38 11.95 .38 493.4 .38 499.13 2.24 499.25 4.46 499.36 43.18 501.12 81.89 502.5 120.61 503.52 149.15 504 149.15 512.04 159.32 512.21"></polygon><line class="cls-3" x1="131.36" y1="511.73" x2="131.37" y2="511.23"></line><line class="cls-11" x1="131.39" y1="510.22" x2="131.52" y2="504.69"></line><line class="cls-3" x1="131.53" y1="504.19" x2="131.54" y2="503.69"></line><line class="cls-3" x1="115.99" y1="511.44" x2="116" y2="510.94"></line><line class="cls-11" x1="116.02" y1="509.93" x2="116.15" y2="504.41"></line><line class="cls-3" x1="116.16" y1="503.9" x2="116.17" y2="503.4"></line><line class="cls-3" x1="104.44" y1="511.13" x2="104.45" y2="510.63"></line><line class="cls-11" x1="104.47" y1="509.63" x2="104.6" y2="504.1"></line><line class="cls-3" x1="104.61" y1="503.6" x2="104.62" y2="503.1"></line><line class="cls-3" x1="96.59" y1="502.89" x2="96.57" y2="503.39"></line><line class="cls-11" x1="96.53" y1="504.39" x2="96.34" y2="509.92"></line><polyline class="cls-3" points="96.33 510.42 96.31 510.92 96.81 510.93"></polyline><polyline class="cls-7" points="97.82 510.96 120.61 511.56 148.14 512.02"></polyline><line class="cls-3" x1="148.65" y1="512.03" x2="149.15" y2="512.04"></line><polyline class="cls-12" points="9.18 493.85 43.18 495.39 81.89 496.78 120.61 497.7 159.32 498.35"></polyline><polyline class="cls-12" points="9.18 491.85 43.18 493.39 81.89 494.77 120.61 495.7 159.32 496.34"></polyline><g><path class="cls-3" d="M217.22,79.03c-25.57,0-43.48-20.73-43.48-46.29"></path><path class="cls-3" d="M69.23,139.08c0-23.13,18.61-39.35,41.58-39.35"></path><path class="cls-3" d="M117.74,411.5c0,23.13,18.61,39.35,41.58,39.35"></path><path class="cls-3" d="M462.03,271.79c0,23.13-18.61,39.35-41.58,39.35"></path><path class="cls-3" d="M501.22,81.25c23.13,0,39.35,18.61,39.35,41.58"></path></g><line class="cls-3" x1="173.74" y1="22.74" x2="220.03" y2="22.74"></line><line class="cls-3" x1="217.22" y1="32.74" x2="173.74" y2="32.74"></line><rect class="cls-12" x="217.22" y="32.74" width="2.81" height="46.29"></rect><rect class="cls-12" x="69.23" y="139.08" width="41.58" height="2.23"></rect><rect class="cls-12" x="117.74" y="409.27" width="41.58" height="2.23"></rect><rect class="cls-12" x="150.16" y="157.48" width="2.23" height="41.58"></rect><rect class="cls-12" x="416.38" y="188.67" width="2.31" height="43.89"></rect><rect class="cls-12" x="150.16" y="40.32" width="2.23" height="41.58"></rect><rect class="cls-12" x="50.75" y="227.98" width="41.58" height="2.23"></rect><rect class="cls-12" x="420.45" y="269.56" width="41.58" height="2.23"></rect><rect class="cls-12" x="498.98" y="81.25" width="2.23" height="41.58"></rect><rect class="cls-12" x="488.54" y="136.69" width="2.23" height="41.58"></rect><rect class="cls-12" x="545.19" y="227.43" width="2.23" height="62.37"></rect><line class="cls-12" x1="545.19" y1="258.61" x2="547.42" y2="258.61"></line><path class="cls-3" d="M125.5,215.61c0,23.13,18.61,39.35,41.58,39.35"></path><rect class="cls-12" x="125.5" y="213.38" width="41.58" height="2.23"></rect><polyline class="cls-6" points="365.97 165.49 366.72 165.49 366.72 164.74"></polyline><line class="cls-2" x1="366.72" y1="163.2" x2="366.72" y2="139.4"></line><polyline class="cls-6" points="366.72 138.63 366.72 137.88 365.97 137.88"></polyline><line class="cls-2" x1="364.43" y1="137.88" x2="340.62" y2="137.88"></line><polyline class="cls-6" points="339.86 137.88 339.11 137.88 339.11 138.63"></polyline><line class="cls-2" x1="339.11" y1="140.16" x2="339.11" y2="163.97"></line><polyline class="cls-6" points="339.11 164.74 339.11 165.49 339.86 165.49"></polyline><line class="cls-2" x1="341.39" y1="165.49" x2="365.2" y2="165.49"></line><polyline class="cls-6" points="262.49 165.49 263.24 165.49 263.24 164.74"></polyline><line class="cls-2" x1="263.24" y1="163.2" x2="263.23" y2="139.4"></line><polyline class="cls-6" points="263.23 138.63 263.23 137.88 262.48 137.88"></polyline><line class="cls-2" x1="260.95" y1="137.88" x2="237.14" y2="137.88"></line><polyline class="cls-6" points="236.37 137.88 235.62 137.88 235.62 138.63"></polyline><line class="cls-2" x1="235.62" y1="140.17" x2="235.63" y2="163.97"></line><polyline class="cls-6" points="235.62 164.74 235.62 165.49 236.37 165.49"></polyline><line class="cls-2" x1="237.91" y1="165.49" x2="261.72" y2="165.49"></line><line class="cls-6" x1="268.29" y1="75.16" x2="271.29" y2="75.16"></line><line class="cls-4" x1="276.41" y1="75.16" x2="364.06" y2="75.16"></line><line class="cls-6" x1="366.63" y1="75.16" x2="369.63" y2="75.16"></line><line class="cls-12" x1="411.21" y1="87.07" x2="232.14" y2="87.06"></line><line class="cls-12" x1="268.28" y1="87.07" x2="268.29" y2="59.35"></line><line class="cls-12" x1="369.63" y1="87.07" x2="369.63" y2="59.35"></line><line class="cls-12" x1="268.29" y1="84.57" x2="232.14" y2="84.57"></line><line class="cls-12" x1="411.21" y1="84.57" x2="369.63" y2="84.57"></line><rect class="cls-12" x="232.14" y="137.88" width="138.6" height="49.62"></rect><g><rect class="cls-12" x="281.61" y="158.05" width="1.74" height="9.78" rx=".59" ry=".59"></rect><path class="cls-12" d="M282.48,152.15c-.49,0-.9-.4-.9-.9s.4-.9.9-.9.9.4.9.9-.4.9-.9.9Z"></path></g><polyline class="cls-12" points="281.61 166.51 279.19 166.51 279.19 164.96 281.61 164.96"></polyline><line class="cls-12" x1="280.05" y1="164.96" x2="280.05" y2="166.51"></line><polyline class="cls-12" points="281.61 162.64 269.56 162.64 269.55 140.89 295.4 140.89 295.4 162.64 283.35 162.64"></polyline><polyline class="cls-12" points="283.35 161.56 294.32 161.56 294.32 141.97 270.63 141.97 270.64 161.56 281.61 161.56"></polyline><line class="cls-12" x1="103.51" y1="44.6" x2="103.51" y2="41.39"></line><g><path class="cls-12" d="M103.51,40.53v-11.6c0-1.38-1.12-2.5-2.5-2.5h-61.83c-1.38,0-2.5,1.12-2.5,2.5v24.04c0,1.38,1.12,2.5,2.5,2.5h61.83c1.38,0,2.5-1.12,2.5-2.5v-8.37"></path><path class="cls-12" d="M107.54,41.39h-10.86c-.24,0-.43-.19-.43-.43s.19-.43.43-.43h10.81"></path><path class="cls-12" d="M97.76,40.53c-.17-.46-.61-.79-1.14-.79-.67,0-1.21.54-1.21,1.21s.54,1.21,1.21,1.21c.51,0,.95-.32,1.13-.77"></path><path class="cls-12" d="M101.79,40.53c-.22-2.66-2.45-4.76-5.17-4.76-2.86,0-5.18,2.32-5.18,5.18s2.32,5.18,5.18,5.18c2.72,0,4.94-2.09,5.17-4.74"></path></g><rect class="cls-12" x="107.54" y="38.41" width=".97" height="5.08"></rect><line class="cls-12" x1="108.5" y1="59.18" x2="32.27" y2="59.18"></line><line class="cls-12" x1="108.5" y1="60.46" x2="32.32" y2="60.46"></line><line class="cls-12" x1="103.82" y1="60.46" x2="103.82" y2="59.18"></line><line class="cls-12" x1="65.82" y1="60.46" x2="65.82" y2="59.18"></line><g><rect class="cls-12" x="18.41" y="72.03" width="7.45" height="17.6" rx="1.08" ry="1.08"></rect><path class="cls-12" d="M30.01,76.38c0-.28.11-.54.32-.73,2.09-1.88,5.3-3.09,8.9-3.09,6.31,0,11.42,3.71,11.42,8.28s-5.11,8.28-11.42,8.28c-3.59,0-6.8-1.2-8.9-3.08-.21-.19-.32-.46-.32-.73v-8.92Z"></path></g><line class="cls-12" x1="39.23" y1="72.56" x2="25.71" y2="72.56"></line><line class="cls-12" x1="39.23" y1="89.11" x2="25.71" y2="89.11"></line><polyline class="cls-12" points="18.41 101.51 43.43 101.51 43.43 145.93"></polyline><path class="cls-12" d="M26.48,119.52v9.87c0,.4.32.72.72.72h10.9c.4,0,.72-.32.72-.72v-20.82c0-.4-.32-.72-.72-.72h-10.9c-.4,0-.72.32-.72.72v9.48"></path><rect class="cls-12" x="23.03" y="118.05" width="5.89" height="1.47"></rect><circle class="cls-12" cx="32.65" cy="118.78" r=".84"></circle><polyline class="cls-12" points="563.16 29.24 563.17 54.39 480.51 54.39 480.51 29.37"></polyline><path class="cls-12" d="M539.83,37.33h9.87c.4,0,.72.32.72.72v10.9c0,.4-.32.72-.72.72h-20.82c-.4,0-.72-.32-.72-.72v-10.9c0-.4.32-.72.72-.72h9.48"></path><rect class="cls-12" x="538.36" y="33.88" width="1.47" height="5.89"></rect><g><circle class="cls-12" cx="539.1" cy="43.5" r=".84"></circle><path class="cls-12" d="M505.08,37.33h9.87c.4,0,.72.32.72.72v10.9c0,.4-.32.72-.72.72h-20.82c-.4,0-.72-.32-.72-.72v-10.9c0-.4.32-.72.72-.72h9.48"></path></g><rect class="cls-12" x="503.61" y="33.88" width="1.47" height="5.89"></rect><circle class="cls-12" cx="504.34" cy="43.5" r=".84"></circle><line class="cls-12" x1="468.96" y1="105.55" x2="468.96" y2="29.32"></line><line class="cls-12" x1="467.67" y1="105.55" x2="467.68" y2="29.37"></line><line class="cls-12" x1="467.67" y1="100.87" x2="468.96" y2="100.87"></line><line class="cls-12" x1="467.67" y1="62.87" x2="468.96" y2="62.87"></line><line class="cls-12" x1="427.38" y1="42.76" x2="467.68" y2="42.76"></line><g><path class="cls-12" d="M448.73,93.67c0,.67-.54,1.21-1.21,1.21s-1.21-.54-1.21-1.21.54-1.21,1.21-1.21,1.21.54,1.21,1.21Z"></path><path class="cls-12" d="M452.7,93.67c0,2.86-2.32,5.18-5.18,5.18s-5.18-2.32-5.18-5.18,2.32-5.18,5.18-5.18,5.18,2.32,5.18,5.18Z"></path><path class="cls-12" d="M576.94,29.37h15.44c.6,0,1.08.48,1.08,1.08v5.29c0,.6-.48,1.08-1.08,1.08h-15.44c-.6,0-1.08-.48-1.08-1.08v-5.29c0-.6.48-1.08,1.08-1.08Z"></path><path class="cls-12" d="M580.2,40.97c-.28,0-.54.11-.73.32-1.88,2.09-3.08,5.3-3.08,8.9,0,6.31,3.7,11.42,8.28,11.42s8.28-5.11,8.28-11.42c0-3.6-1.2-6.8-3.08-8.9-.19-.21-.46-.32-.73-.32h-8.92Z"></path></g><line class="cls-12" x1="576.39" y1="50.19" x2="576.39" y2="36.67"></line><line class="cls-12" x1="592.94" y1="50.19" x2="592.94" y2="36.67"></line><rect class="cls-12" x="105.7" y="163.02" width="38.03" height="30.61"></rect><rect class="cls-12" x="301.24" y="61.51" width="36.98" height="24.28"></rect><rect class="cls-12" x="302.32" y="62.59" width="34.82" height="22.12"></rect><path class="cls-12" d="M319.73,83.95c-.71,0-1.28-.57-1.28-1.28s.57-1.28,1.28-1.28,1.28.57,1.28,1.28-.57,1.28-1.28,1.28Z"></path><line class="cls-12" x1="302.32" y1="84.71" x2="301.24" y2="85.79"></line><line class="cls-12" x1="337.14" y1="84.7" x2="338.22" y2="85.78"></line><line class="cls-12" x1="337.14" y1="62.59" x2="338.22" y2="61.51"></line><line class="cls-12" x1="302.32" y1="62.59" x2="301.24" y2="61.51"></line><polygon class="cls-12" points="320.78 82.67 319.73 81.62 318.68 82.67 319.73 83.73 320.78 82.67"></polygon><line class="cls-12" x1="319.73" y1="81.62" x2="319.73" y2="83.73"></line><g><path class="cls-10" d="M133.51,60.32c-1.51.03-3.03.06-4.57.13-.8.04-1.6.09-2.35.13-.57.03-1.11.07-1.78.16-.65.09-1.42.25-1.73-.23-.07-.11-.12-.25-.13-.38-.06-.77,1.18-.9,2.24-.97,2.35-.15,3.74.04,5.44.16.9.06,1.9.1,2.89.14.99-.04,1.98-.08,2.89-.14,1.7-.12,3.09-.3,5.44-.16,1.05.07,2.3.2,2.24.97-.01.13-.06.27-.13.38-.3.48-1.08.33-1.73.23-.67-.1-1.21-.13-1.78-.16-.75-.04-1.56-.09-2.36-.13-1.54-.07-3.06-.1-4.57-.13Z"></path><path class="cls-10" d="M133.51,55.63c-1.51.03-3.03.06-4.57.13-.8.04-1.6.09-2.35.13-.57.03-1.11.07-1.78.16-.65.09-1.42.25-1.73-.23-.07-.11-.12-.25-.13-.38-.06-.77,1.18-.9,2.24-.97,2.35-.15,3.74.04,5.44.16.9.06,1.9.1,2.89.14.99-.04,1.98-.08,2.89-.14,1.7-.12,3.09-.3,5.44-.16,1.05.07,2.3.2,2.24.97-.01.13-.06.27-.13.38-.3.48-1.08.33-1.73.23-.67-.1-1.21-.13-1.78-.16-.75-.04-1.56-.09-2.36-.13-1.54-.07-3.06-.1-4.57-.13Z"></path><path class="cls-10" d="M133.51,50.94c-1.51.03-3.03.06-4.57.13-.8.04-1.6.09-2.35.13-.57.03-1.11.07-1.78.16-.65.09-1.42.25-1.73-.23-.07-.11-.12-.25-.13-.38-.06-.77,1.18-.9,2.24-.97,2.35-.15,3.74.04,5.44.16.9.06,1.9.1,2.89.14.99-.04,1.98-.08,2.89-.14,1.7-.12,3.09-.3,5.44-.16,1.05.07,2.3.2,2.24.97-.01.13-.06.27-.13.38-.3.48-1.08.32-1.73.23-.67-.1-1.21-.13-1.78-.16-.75-.04-1.56-.09-2.36-.13-1.54-.07-3.06-.1-4.57-.13Z"></path></g><line class="cls-10" x1="133.51" y1="21.19" x2="133.51" y2="89.38"></line><g><path class="cls-10" d="M56.35,166.32c-.03-1.51-.06-3.03-.13-4.57-.04-.8-.09-1.6-.13-2.35-.03-.57-.07-1.11-.16-1.78-.09-.65-.25-1.42.23-1.73.11-.07.25-.12.38-.13.77-.06.9,1.18.97,2.24.15,2.35-.04,3.74-.16,5.44-.06.9-.1,1.9-.14,2.89.04.99.08,1.98.14,2.89.12,1.7.3,3.09.16,5.44-.07,1.05-.2,2.3-.97,2.24-.13-.01-.27-.06-.38-.13-.48-.3-.32-1.08-.23-1.73.1-.67.13-1.21.16-1.78.04-.75.09-1.56.13-2.36.07-1.54.1-3.06.13-4.57Z"></path><path class="cls-10" d="M61.04,166.32c-.03-1.51-.06-3.03-.13-4.57-.04-.8-.09-1.6-.13-2.35-.03-.57-.07-1.11-.16-1.78-.09-.65-.25-1.42.23-1.73.11-.07.25-.12.38-.13.77-.06.9,1.18.97,2.24.15,2.35-.04,3.74-.16,5.44-.06.9-.1,1.9-.14,2.89.04.99.08,1.98.14,2.89.12,1.7.3,3.09.16,5.44-.07,1.05-.2,2.3-.97,2.24-.13-.01-.27-.06-.38-.13-.48-.3-.33-1.08-.23-1.73.1-.67.13-1.21.16-1.78.04-.75.09-1.56.13-2.36.07-1.54.1-3.06.13-4.57Z"></path><path class="cls-10" d="M65.74,166.32c-.03-1.51-.06-3.03-.13-4.57-.04-.8-.09-1.6-.13-2.35-.03-.57-.07-1.11-.16-1.78-.09-.65-.25-1.42.23-1.73.11-.07.25-.12.38-.13.77-.06.9,1.18.97,2.24.15,2.35-.04,3.74-.16,5.44-.06.9-.1,1.9-.14,2.89.04.99.08,1.98.14,2.89.12,1.7.3,3.09.16,5.44-.07,1.05-.2,2.3-.97,2.24-.13-.01-.27-.06-.38-.13-.48-.3-.33-1.08-.23-1.73.1-.67.13-1.21.16-1.78.04-.75.09-1.56.13-2.36.07-1.54.1-3.06.13-4.57Z"></path><path class="cls-10" d="M25.77,201.47c-1.51.03-3.03.06-4.57.13-.8.04-1.6.09-2.35.13-.57.03-1.11.07-1.78.16-.65.09-1.42.25-1.73-.23-.07-.11-.12-.25-.13-.38-.06-.77,1.18-.9,2.24-.97,2.35-.15,3.74.04,5.44.16.9.06,1.9.1,2.89.14.99-.04,1.98-.08,2.89-.14,1.7-.12,3.09-.3,5.44-.16,1.05.07,2.3.2,2.24.97-.01.13-.06.27-.13.38-.3.48-1.08.32-1.73.23-.67-.1-1.21-.13-1.78-.16-.75-.04-1.56-.09-2.36-.13-1.54-.07-3.06-.1-4.57-.13Z"></path><path class="cls-10" d="M25.77,196.77c-1.51.03-3.03.06-4.57.13-.8.04-1.6.09-2.35.13-.57.03-1.11.07-1.78.16-.65.09-1.42.25-1.73-.23-.07-.11-.12-.25-.13-.38-.06-.77,1.18-.9,2.24-.97,2.35-.15,3.74.04,5.44.16.9.06,1.9.1,2.89.14.99-.04,1.98-.08,2.89-.14,1.7-.12,3.09-.3,5.44-.16,1.05.07,2.3.2,2.24.97-.01.13-.06.27-.13.38-.3.48-1.08.33-1.73.23-.67-.1-1.21-.13-1.78-.16-.75-.04-1.56-.09-2.36-.13-1.54-.07-3.06-.1-4.57-.13Z"></path><path class="cls-10" d="M25.77,192.08c-1.51.03-3.03.06-4.57.13-.8.04-1.6.09-2.35.13-.57.03-1.11.07-1.78.16-.65.09-1.42.25-1.73-.23-.07-.11-.12-.25-.13-.38-.06-.77,1.18-.9,2.24-.97,2.35-.15,3.74.04,5.44.16.9.06,1.9.1,2.89.14.99-.04,1.98-.08,2.89-.14,1.7-.12,3.09-.3,5.44-.16,1.05.07,2.3.2,2.24.97-.01.13-.06.27-.13.38-.3.48-1.08.33-1.73.23-.67-.1-1.21-.13-1.78-.16-.75-.04-1.56-.09-2.36-.13-1.54-.07-3.06-.1-4.57-.13Z"></path></g><polyline class="cls-10" points="24.94 227.98 24.94 166.32 96.95 166.32"></polyline><g><path class="cls-10" d="M580.22,263.6c-1.51.03-3.03.06-4.57.13-.8.04-1.6.09-2.35.13-.57.03-1.11.07-1.78.16-.65.09-1.42.25-1.73-.23-.07-.11-.12-.25-.13-.38-.06-.77,1.18-.9,2.24-.97,2.35-.15,3.74.04,5.44.16.9.06,1.9.1,2.89.14.99-.04,1.98-.08,2.89-.14,1.7-.12,3.09-.3,5.44-.16,1.05.07,2.3.2,2.24.97-.01.13-.06.27-.12.38-.31.48-1.08.33-1.73.23-.67-.1-1.21-.13-1.78-.16-.75-.04-1.56-.09-2.35-.13-1.55-.07-3.06-.1-4.57-.13Z"></path><path class="cls-10" d="M580.22,258.91c-1.51.03-3.03.06-4.57.13-.8.04-1.6.09-2.35.13-.57.03-1.11.07-1.78.16-.65.09-1.42.25-1.73-.23-.07-.11-.12-.25-.13-.38-.06-.77,1.18-.9,2.24-.97,2.35-.15,3.74.04,5.44.16.9.06,1.9.1,2.89.14.99-.04,1.98-.08,2.89-.14,1.7-.12,3.09-.3,5.44-.16,1.05.07,2.3.2,2.24.97-.01.13-.06.27-.12.38-.31.48-1.08.32-1.73.23-.67-.1-1.21-.13-1.78-.16-.75-.04-1.56-.09-2.35-.13-1.55-.07-3.06-.1-4.57-.13Z"></path><path class="cls-10" d="M580.22,254.22c-1.51.03-3.03.06-4.57.13-.8.04-1.6.09-2.35.13-.57.03-1.11.07-1.78.16-.65.09-1.42.25-1.73-.23-.07-.11-.12-.25-.13-.38-.06-.77,1.18-.9,2.24-.97,2.35-.15,3.74.04,5.44.16.9.06,1.9.1,2.89.14.99-.04,1.98-.08,2.89-.14,1.7-.12,3.09-.3,5.44-.16,1.05.07,2.3.2,2.24.97-.01.13-.06.27-.12.38-.31.48-1.08.33-1.73.23-.67-.1-1.21-.13-1.78-.16-.75-.04-1.56-.09-2.35-.13-1.55-.07-3.06-.1-4.57-.13Z"></path></g><line class="cls-10" x1="580.22" y1="219.85" x2="580.22" y2="297.28"></line><line class="cls-10" x1="9.17" y1="398.92" x2="167.45" y2="398.92"></line><polyline class="cls-10" points="167.45 453.16 167.45 504.26 206.91 504.44 246.27 504.26 285.73 503.71 325.18 502.78 364.54 501.49 404 499.82 443.36 497.79 482.72 495.39 521.99 492.62 561.36 489.38 600.63 485.87"></polyline><polyline class="cls-10" points=".38 493.4 .38 499.13 2.24 499.25 4.46 499.36 43.18 501.12 81.89 502.5 120.61 503.52 159.32 504.17"></polyline><line class="cls-10" x1="604.8" y1="485.47" x2="604.8" y2="491.28"></line><line class="cls-10" x1="149.15" y1="510.03" x2="149.24" y2="504"></line><rect class="cls-5" x="9.17" y="404.65" width="150.2" height="2.31"></rect><polygon class="cls-5" points="604.8 491.28 566.07 494.83 525.69 498.07 485.31 501.03 444.93 503.52 404.46 505.65 364.08 507.31 323.61 508.6 283.14 509.53 242.67 510.08 202.2 510.27 161.63 509.99 161.63 453.16 159.32 453.16 159.32 512.21 196.84 512.48 234.35 512.48 271.87 512.02 309.29 511.37 346.8 510.27 384.32 508.88 421.74 507.03 459.16 505 496.58 502.5 534.01 499.73 571.33 496.68 604.8 493.62 604.8 491.28"></polygon><polyline class="cls-5" points="159.32 510.2 149.15 510.03 149.15 512.04 159.32 512.21"></polyline><polyline class="cls-5" points="167.45 504.26 167.45 502.6 161.63 508.33 161.63 509.99 161.73 509.99 163.3 509.99 169.03 504.26 167.45 504.26"></polyline><rect class="cls-5" x="197.3" y="504.4" width="2.31" height="5.83"></rect><polygon class="cls-5" points="268.82 503.94 268.91 509.72 266.6 509.75 266.51 503.97 268.82 503.94"></polygon><rect class="cls-5" x="335.8" y="502.4" width="2.31" height="5.78" transform="translate(-15.83 10.92) rotate(-1.81)"></rect><polygon class="cls-5" points="372.58 501.15 372.76 506.95 370.45 507.03 370.27 501.25 372.58 501.15"></polygon><polygon class="cls-5" points="407.14 499.66 407.42 505.49 405.11 505.61 404.83 499.77 407.14 499.66"></polygon><polygon class="cls-5" points="476.16 495.79 476.53 501.58 474.22 501.71 473.85 495.94 476.16 495.79"></polygon><polyline class="cls-5" points="545.19 490.77 545.65 496.5 543.34 496.68 542.88 490.95 545.19 490.77"></polyline><rect class="cls-5" x="159.32" y="404.65" width="8.13" height="4.62"></rect><rect class="cls-5" x="159.32" y="450.85" width="8.13" height="2.31"></rect><rect class="cls-5" x="39.2" y="398.92" width="2.31" height="5.73"></rect><rect class="cls-5" x="108.5" y="398.92" width="2.31" height="5.73"></rect><rect class="cls-5" x="158.21" y="398.92" width="2.31" height="5.73"></rect><rect class="cls-5" x="9.17" y="398.92" width="2.31" height="5.73"></rect><polygon class="cls-13" points=".38 493.4 9.17 493.91 9.17 398.92 40.4 398.92 40.4 393.1 21.92 393.1 21.92 233.71 50.75 233.71 50.75 227.98 10.38 227.98 10.38 151.75 96.95 151.75 96.95 227.98 92.33 227.98 92.33 233.71 102.78 233.71 102.78 208.3 167.46 208.3 167.46 212.92 173.18 212.92 173.18 202.57 152.39 202.57 152.39 199.06 146.66 199.06 146.66 202.57 102.78 202.57 102.78 154.06 146.66 154.06 146.66 157.48 152.39 157.48 152.39 145.93 116.64 145.93 116.64 141.31 110.81 141.31 110.81 145.93 18.41 145.93 18.41 60.46 32.27 60.46 32.27 21.19 108.5 21.19 108.5 60.46 110.81 60.46 110.81 99.73 116.64 99.73 116.64 95.11 152.44 95.11 152.44 81.9 146.66 81.9 146.66 89.38 118.95 89.38 118.95 21.19 146.66 21.19 146.66 40.32 152.39 40.32 152.39 32.74 173.83 32.74 173.83 22.74 155.9 22.74 155.9 11.95 .38 11.95 .38 493.4"></polygon><polygon class="cls-8" points=".38 493.4 9.17 493.91 9.17 398.92 40.4 398.92 40.4 393.1 21.92 393.1 21.92 233.71 50.75 233.71 50.75 227.98 10.38 227.98 10.38 151.75 96.95 151.75 96.95 227.98 92.33 227.98 92.33 233.71 102.78 233.71 102.78 208.3 167.46 208.3 167.46 212.92 173.18 212.92 173.18 202.57 152.39 202.57 152.39 199.06 146.66 199.06 146.66 202.57 102.78 202.57 102.78 154.06 146.66 154.06 146.66 157.48 152.39 157.48 152.39 145.93 116.64 145.93 116.64 141.31 110.81 141.31 110.81 145.93 18.41 145.93 18.41 60.46 32.27 60.46 32.27 21.19 108.5 21.19 108.5 60.46 110.81 60.46 110.81 99.73 116.64 99.73 116.64 95.11 152.44 95.11 152.44 81.9 146.66 81.9 146.66 89.38 118.95 89.38 118.95 21.19 146.66 21.19 146.66 40.32 152.39 40.32 152.39 32.74 173.83 32.74 173.83 22.74 155.9 22.74 155.9 11.95 .38 11.95 .38 493.4"></polygon><polygon class="cls-13" points="173.18 254.5 167.5 254.5 167.5 393.1 159.32 393.1 159.32 398.92 167.45 398.92 167.45 406.96 173.18 406.96 173.18 254.5"></polygon><polygon class="cls-8" points="173.18 254.5 167.5 254.5 167.5 393.1 159.32 393.1 159.32 398.92 167.45 398.92 167.45 406.96 173.18 406.96 173.18 254.5"></polygon><polygon class="cls-13" points="604.8 485.47 594.8 486.43 594.8 303.01 545.23 303.01 545.23 289.8 550.91 289.8 550.91 297.28 594.8 297.28 594.8 219.85 550.91 219.85 550.91 227.43 545.19 227.43 545.19 128.65 540.57 128.65 540.57 122.83 545.19 122.83 545.19 111.28 605.25 111.28 605.25 29.32 427.38 29.32 427.38 105.55 468.96 105.55 468.96 107.86 494.37 107.86 494.37 122.83 498.99 122.83 498.99 128.65 494.37 128.65 494.37 136.69 488.54 136.69 488.54 113.59 420.45 113.59 420.45 182.89 488.54 182.89 488.54 178.27 494.37 178.27 494.37 264.94 420.45 264.94 420.45 269.56 414.72 269.56 414.72 254.5 420.45 254.5 420.45 259.12 488.54 259.12 488.54 188.71 420.45 188.71 420.45 210.61 418.69 210.61 418.69 182.19 416.38 182.19 416.38 210.61 414.62 210.61 414.62 87.07 411.21 87.07 411.21 59.35 232.13 59.35 232.13 87.07 226.31 87.07 226.31 32.74 220.03 32.74 220.03 22.74 236.31 22.74 236.31 49.35 417.38 49.35 417.38 19.32 615.25 19.32 615.25 121.28 555.19 121.28 555.19 209.85 604.8 209.85 604.8 485.47"></polygon><polygon class="cls-8" points="604.8 485.47 594.8 486.43 594.8 303.01 545.23 303.01 545.23 289.8 550.91 289.8 550.91 297.28 594.8 297.28 594.8 219.85 550.91 219.85 550.91 227.43 545.19 227.43 545.19 128.65 540.57 128.65 540.57 122.83 545.19 122.83 545.19 111.28 605.25 111.28 605.25 29.32 427.38 29.32 427.38 105.55 468.96 105.55 468.96 107.86 494.37 107.86 494.37 122.83 498.99 122.83 498.99 128.65 494.37 128.65 494.37 136.69 488.54 136.69 488.54 113.59 420.45 113.59 420.45 182.89 488.54 182.89 488.54 178.27 494.37 178.27 494.37 264.94 420.45 264.94 420.45 269.56 414.72 269.56 414.72 254.5 420.45 254.5 420.45 259.12 488.54 259.12 488.54 188.71 420.45 188.71 420.45 210.61 418.69 210.61 418.69 182.19 416.38 182.19 416.38 210.61 414.62 210.61 414.62 87.07 411.21 87.07 411.21 59.35 232.13 59.35 232.13 87.07 226.31 87.07 226.31 32.74 220.03 32.74 220.03 22.74 236.31 22.74 236.31 49.35 417.38 49.35 417.38 19.32 615.25 19.32 615.25 121.28 555.19 121.28 555.19 209.85 604.8 209.85 604.8 485.47"></polygon><polygon class="cls-13" points="371.2 495.48 371.38 501.2 405.94 499.72 405.94 321.49 420.45 321.49 420.45 311.14 414.62 311.14 414.62 315.76 384.04 315.76 384.04 494.93 371.2 495.48"></polygon><polygon class="cls-8" points="371.2 495.48 371.38 501.2 405.94 499.72 405.94 321.49 420.45 321.49 420.45 311.14 414.62 311.14 414.62 315.76 384.04 315.76 384.04 494.93 371.2 495.48"></polygon><g><path class="cls-15" d="M197.07,10.59c-.02.08-.07.14-.14.14s-.13-.06-.14-.14c-.56-3.3-2.74-4.94-6.02-4.94h-3.84c-1.16,0-1.98-1.01-2.2-2.66-.05-.34.23-.61.47-.46.46.31,1.06.47,1.78.47h3.48c2.95,0,5.22,1.67,6.17,4.98.11.37.5.37.61,0,.96-3.31,3.22-4.98,6.18-4.98h3.48c.72,0,1.32-.16,1.78-.47.23-.16.51.12.47.46-.22,1.64-1.05,2.66-2.21,2.66h-3.84c-3.29,0-5.47,1.64-6.02,4.95h0Z"></path><path class="cls-9" d="M197.07,10.59c-.02.08-.07.14-.14.14s-.13-.06-.14-.14c-.56-3.3-2.74-4.94-6.02-4.94h-3.84c-1.16,0-1.98-1.01-2.2-2.66-.05-.34.23-.61.47-.46.46.31,1.06.47,1.78.47h3.48c2.95,0,5.22,1.67,6.17,4.98.11.37.5.37.61,0,.96-3.31,3.22-4.98,6.18-4.98h3.48c.72,0,1.32-.16,1.78-.47.23-.16.51.12.47.46-.22,1.64-1.05,2.66-2.21,2.66h-3.84c-3.29,0-5.47,1.64-6.02,4.95h0Z"></path></g><g><path class="cls-13" d="M451.05,396.76h2.52c1.9,0,2.97.89,2.97,2.53s-1.07,2.54-2.97,2.54h-1.72v3.99h-.8v-9.06ZM453.49,401.11c1.41,0,2.24-.61,2.24-1.81s-.81-1.81-2.24-1.81h-1.64v3.62h1.64Z"></path><path class="cls-13" d="M458.04,399.41h.78v1.09c.43-.78,1.31-1.18,2.02-1.18.33,0,.66.07.99.24l-.39.7c-.21-.1-.51-.17-.77-.17-.68,0-1.46.36-1.74,1.3-.08.27-.12.57-.12,1.27v3.15h-.78v-6.41Z"></path><path class="cls-13" d="M463.1,396.76h.94v1.39h-.94v-1.39ZM463.18,399.41h.77v6.41h-.77v-6.41Z"></path><path class="cls-13" d="M465.99,399.41h.78v1.1c.38-.84,1.11-1.19,1.88-1.19.91,0,1.57.4,1.89,1.25.4-.83,1.09-1.25,2-1.25,1.55,0,2.13,1.16,2.13,2.68v3.82h-.78v-3.64c0-1.33-.39-2.18-1.52-2.18-1.02,0-1.65.77-1.65,2.26v3.57h-.78v-3.76c0-1.4-.52-2.07-1.5-2.07-1.03,0-1.67.79-1.67,2.26v3.57h-.78v-6.41Z"></path><path class="cls-13" d="M480.82,404.62c-.43.82-1.25,1.29-2.25,1.29-1.44,0-2.31-.77-2.31-1.94,0-.69.29-1.16.72-1.44.46-.31,1.09-.42,1.77-.42h2.05v-.28c0-1.19-.62-1.83-1.82-1.83-.79,0-1.4.29-1.98,1.02l-.56-.48c.68-.84,1.53-1.21,2.59-1.21,1.63,0,2.54.89,2.54,2.51v3.99h-.71l-.04-1.2ZM478.64,405.27c1.18,0,2.17-.93,2.17-2.2v-.36h-1.95c-.51,0-1.03.08-1.37.32-.28.21-.44.51-.44.94,0,.79.6,1.3,1.6,1.3Z"></path><path class="cls-13" d="M483.53,399.41h.78v1.09c.43-.78,1.31-1.18,2.02-1.18.33,0,.66.07.99.24l-.39.7c-.21-.1-.51-.17-.77-.17-.68,0-1.46.36-1.74,1.3-.08.27-.12.57-.12,1.27v3.15h-.78v-6.41Z"></path><path class="cls-13" d="M490.58,405.62l-2.55-6.21h.86l2.1,5.42,2.11-5.42h.85l-3.69,9.05h-.84l1.17-2.84Z"></path><path class="cls-13" d="M498.84,396.76h2.72c1.68,0,2.68.84,2.68,2.25,0,.94-.46,1.68-1.24,2,1.1.25,1.7,1.07,1.7,2.31,0,1.61-1.02,2.5-2.88,2.5h-2.97v-9.06ZM501.81,400.76c.98,0,1.63-.64,1.63-1.64s-.69-1.61-1.88-1.61h-1.91v3.26h2.16ZM501.76,405.07c1.42,0,2.14-.6,2.14-1.79,0-1.13-.66-1.79-1.79-1.79h-2.46v3.58h2.11Z"></path><path class="cls-13" d="M506.17,402.66c0-1.84.99-3.34,2.81-3.34,1.96,0,2.76,1.53,2.76,2.94,0,.1-.01.4-.04.55h-4.76c.03,1.51.84,2.39,2.14,2.39.82,0,1.35-.23,1.91-.83l.55.49c-.73.75-1.43,1.05-2.46,1.05-1.89,0-2.91-1.41-2.91-3.25ZM510.98,402.23c0-.08,0-.16,0-.24,0-.92-.58-2.01-2-2.01-1.23,0-1.98.98-2.07,2.26h4.06Z"></path><path class="cls-13" d="M513.15,402.61c0-1.96,1.29-3.29,2.92-3.29,1.05,0,1.87.54,2.29,1.36v-3.92h.77v9.06h-.77v-1.26c-.44.84-1.25,1.35-2.29,1.35-1.72,0-2.92-1.42-2.92-3.3ZM516.19,405.19c1.3,0,2.23-1.08,2.23-2.58s-.93-2.58-2.23-2.58-2.26,1.09-2.26,2.58.95,2.58,2.26,2.58Z"></path><path class="cls-13" d="M521.16,399.41h.78v1.09c.43-.78,1.31-1.18,2.02-1.18.33,0,.66.07.99.24l-.39.7c-.21-.1-.51-.17-.77-.17-.68,0-1.46.36-1.74,1.3-.08.27-.12.57-.12,1.27v3.15h-.78v-6.41Z"></path><path class="cls-13" d="M525.54,402.61c0-1.92,1.25-3.29,3.05-3.29s3.04,1.37,3.04,3.29-1.27,3.3-3.04,3.3-3.05-1.37-3.05-3.3ZM528.59,405.22c1.37,0,2.26-1.04,2.26-2.61s-.9-2.61-2.26-2.61-2.28,1.05-2.28,2.61.9,2.61,2.28,2.61Z"></path><path class="cls-13" d="M533.08,402.61c0-1.92,1.25-3.29,3.05-3.29s3.04,1.37,3.04,3.29-1.27,3.3-3.04,3.3-3.05-1.37-3.05-3.3ZM536.12,405.22c1.37,0,2.26-1.04,2.26-2.61s-.9-2.61-2.26-2.61-2.28,1.05-2.28,2.61.9,2.61,2.28,2.61Z"></path><path class="cls-13" d="M540.92,399.41h.78v1.1c.38-.84,1.11-1.19,1.88-1.19.91,0,1.57.4,1.89,1.25.4-.83,1.09-1.25,2-1.25,1.55,0,2.13,1.16,2.13,2.68v3.82h-.78v-3.64c0-1.33-.39-2.18-1.52-2.18-1.02,0-1.65.77-1.65,2.26v3.57h-.78v-3.76c0-1.4-.52-2.07-1.5-2.07-1.03,0-1.67.79-1.67,2.26v3.57h-.78v-6.41Z"></path></g><g><path class="cls-13" d="M69.44,308.76h2.72c1.68,0,2.68.84,2.68,2.25,0,.94-.46,1.68-1.24,2,1.1.25,1.7,1.07,1.7,2.31,0,1.61-1.02,2.5-2.88,2.5h-2.97v-9.06ZM72.41,312.76c.98,0,1.63-.64,1.63-1.64s-.69-1.61-1.88-1.61h-1.91v3.26h2.16ZM72.36,317.07c1.42,0,2.14-.6,2.14-1.79,0-1.13-.66-1.79-1.79-1.79h-2.46v3.58h2.11Z"></path><path class="cls-13" d="M76.74,314.66c0-1.84.99-3.34,2.81-3.34,1.96,0,2.76,1.53,2.76,2.94,0,.1-.01.4-.04.55h-4.76c.03,1.51.84,2.39,2.14,2.39.82,0,1.35-.23,1.91-.83l.55.49c-.73.75-1.43,1.05-2.46,1.05-1.89,0-2.91-1.41-2.91-3.25ZM81.55,314.23c0-.08,0-.16,0-.24,0-.92-.58-2.01-2-2.01-1.23,0-1.98.98-2.07,2.26h4.06Z"></path><path class="cls-13" d="M83.71,314.61c0-1.96,1.29-3.29,2.92-3.29,1.05,0,1.87.54,2.29,1.36v-3.92h.77v9.06h-.77v-1.26c-.44.84-1.25,1.35-2.29,1.35-1.72,0-2.92-1.42-2.92-3.3ZM86.75,317.19c1.3,0,2.23-1.08,2.23-2.58s-.93-2.58-2.23-2.58-2.26,1.09-2.26,2.58.95,2.58,2.26,2.58Z"></path><path class="cls-13" d="M91.72,311.41h.78v1.09c.43-.78,1.31-1.18,2.02-1.18.33,0,.66.07.99.24l-.39.7c-.21-.1-.51-.17-.77-.17-.68,0-1.46.36-1.74,1.3-.08.27-.12.57-.12,1.27v3.15h-.78v-6.41Z"></path><path class="cls-13" d="M96.1,314.61c0-1.92,1.25-3.29,3.05-3.29s3.04,1.37,3.04,3.29-1.27,3.3-3.04,3.3-3.05-1.37-3.05-3.3ZM99.15,317.22c1.37,0,2.26-1.04,2.26-2.61s-.9-2.61-2.26-2.61-2.28,1.05-2.28,2.61.9,2.61,2.28,2.61Z"></path><path class="cls-13" d="M103.63,314.61c0-1.92,1.25-3.29,3.05-3.29s3.04,1.37,3.04,3.29-1.27,3.3-3.04,3.3-3.05-1.37-3.05-3.3ZM106.68,317.22c1.37,0,2.26-1.04,2.26-2.61s-.9-2.61-2.26-2.61-2.28,1.05-2.28,2.61.9,2.61,2.28,2.61Z"></path><path class="cls-13" d="M111.47,311.41h.78v1.1c.38-.84,1.11-1.19,1.88-1.19.91,0,1.57.4,1.89,1.25.4-.83,1.09-1.25,2-1.25,1.55,0,2.13,1.16,2.13,2.68v3.82h-.78v-3.64c0-1.33-.39-2.18-1.52-2.18-1.02,0-1.65.77-1.65,2.26v3.57h-.78v-3.76c0-1.4-.52-2.07-1.5-2.07-1.03,0-1.67.79-1.67,2.26v3.57h-.78v-6.41Z"></path></g><g><path class="cls-13" d="M63.12,446.75h2.72c1.68,0,2.68.84,2.68,2.25,0,.94-.46,1.68-1.24,2,1.1.25,1.7,1.07,1.7,2.31,0,1.61-1.02,2.5-2.88,2.5h-2.97v-9.06ZM66.09,450.75c.98,0,1.63-.64,1.63-1.64s-.69-1.61-1.88-1.61h-1.91v3.26h2.16ZM66.04,455.06c1.42,0,2.14-.6,2.14-1.79,0-1.13-.66-1.79-1.79-1.79h-2.46v3.58h2.11Z"></path><path class="cls-13" d="M74.94,454.61c-.43.82-1.25,1.29-2.25,1.29-1.44,0-2.31-.77-2.31-1.94,0-.69.29-1.16.72-1.44.46-.31,1.09-.42,1.77-.42h2.05v-.28c0-1.19-.62-1.83-1.82-1.83-.79,0-1.4.29-1.98,1.02l-.56-.48c.68-.84,1.53-1.21,2.59-1.21,1.63,0,2.54.89,2.54,2.51v3.99h-.71l-.04-1.2ZM72.76,455.26c1.18,0,2.17-.93,2.17-2.2v-.36h-1.95c-.51,0-1.03.08-1.37.32-.28.21-.44.51-.44.94,0,.79.6,1.3,1.6,1.3Z"></path><path class="cls-13" d="M77.53,454.48v-7.73h.77v7.59c0,.6.23.84.64.84.17,0,.38-.04.61-.12v.67c-.29.11-.6.17-.84.17-.72,0-1.18-.44-1.18-1.42Z"></path><path class="cls-13" d="M80.49,452.6c0-1.83,1.06-3.29,2.86-3.29,1.17,0,2.09.58,2.51,1.74l-.7.27c-.27-.82-.9-1.33-1.81-1.33-1.42,0-2.09,1.25-2.09,2.61s.68,2.62,2.09,2.62c.91,0,1.53-.51,1.81-1.33l.7.27c-.42,1.16-1.34,1.75-2.51,1.75-1.8,0-2.86-1.46-2.86-3.3Z"></path><path class="cls-13" d="M87.1,452.6c0-1.92,1.25-3.29,3.05-3.29s3.04,1.37,3.04,3.29-1.27,3.3-3.04,3.3-3.05-1.37-3.05-3.3ZM90.14,455.2c1.37,0,2.26-1.04,2.26-2.61s-.9-2.61-2.26-2.61-2.28,1.05-2.28,2.61.9,2.61,2.28,2.61Z"></path><path class="cls-13" d="M94.93,449.4h.78v1.05c.4-.76,1.12-1.14,2.01-1.14,1.38,0,2.2.81,2.2,2.51v3.99h-.78v-3.71c0-1.45-.55-2.11-1.61-2.11-1.16,0-1.83.79-1.83,2.55v3.27h-.78v-6.41Z"></path><path class="cls-13" d="M103.65,455.61l-2.55-6.21h.86l2.1,5.42,2.11-5.42h.85l-3.69,9.05h-.84l1.17-2.84Z"></path></g><g><path class="cls-13" d="M245.21,402.76h.81v8.33h4.18v.73h-4.99v-9.06Z"></path><path class="cls-13" d="M251.33,402.76h.94v1.39h-.94v-1.39ZM251.42,405.41h.77v6.41h-.77v-6.41Z"></path><path class="cls-13" d="M253.59,405.41h.86l2.1,5.42,2.11-5.42h.85l-2.61,6.41h-.68l-2.63-6.41Z"></path><path class="cls-13" d="M260.84,402.76h.94v1.39h-.94v-1.39ZM260.93,405.41h.77v6.41h-.77v-6.41Z"></path><path class="cls-13" d="M263.73,405.41h.78v1.05c.4-.76,1.12-1.14,2.01-1.14,1.38,0,2.2.81,2.2,2.51v3.99h-.78v-3.71c0-1.45-.55-2.11-1.61-2.11-1.16,0-1.83.79-1.83,2.55v3.27h-.78v-6.41Z"></path><path class="cls-13" d="M270.19,412.58s0-.1.03-.26l1.11-.88c-.57-.22-.96-.59-.96-1.26,0-.53.27-.9.72-1.2-.36-.37-.56-.87-.56-1.45,0-1.3,1.04-2.2,2.39-2.2.64,0,1.22.21,1.64.58l1.02-.86.4.49-1,.88c.19.33.3.71.3,1.14,0,1.28-.96,2.13-2.33,2.13-.53,0-.99-.12-1.37-.34-.31.17-.45.42-.45.71,0,.66.63.83,1.62.98,1.6.25,2.99.44,2.99,1.75,0,1.16-1.05,1.78-2.7,1.78-1.82,0-2.85-.7-2.85-2ZM273.05,413.97c1.09,0,1.92-.34,1.92-1.08,0-.86-1.16-.96-2.31-1.14-.31-.05-.6-.1-.89-.17l-.8.92c-.01.09-.01.11-.01.15,0,.9.79,1.33,2.09,1.33ZM272.92,409.04c.98,0,1.59-.65,1.59-1.53s-.64-1.56-1.58-1.56-1.62.65-1.62,1.55.63,1.55,1.61,1.55Z"></path><path class="cls-13" d="M280.67,402.76h2.52c1.99,0,2.97.93,2.97,2.5,0,1.25-.64,2.07-1.85,2.38l2.44,4.19h-.92l-2.34-4.07c-.21,0-.44,0-.65,0h-1.36v4.06h-.81v-9.06ZM283.12,407.04c1.38,0,2.24-.55,2.24-1.78s-.88-1.77-2.24-1.77h-1.64v3.56h1.64Z"></path><path class="cls-13" d="M287.68,408.61c0-1.92,1.25-3.29,3.05-3.29s3.04,1.37,3.04,3.29-1.27,3.3-3.04,3.3-3.05-1.37-3.05-3.3ZM290.73,411.22c1.37,0,2.26-1.04,2.26-2.61s-.9-2.61-2.26-2.61-2.28,1.05-2.28,2.61.9,2.61,2.28,2.61Z"></path><path class="cls-13" d="M295.21,408.61c0-1.92,1.25-3.29,3.05-3.29s3.04,1.37,3.04,3.29-1.27,3.3-3.04,3.3-3.05-1.37-3.05-3.3ZM298.26,411.22c1.37,0,2.26-1.04,2.26-2.61s-.9-2.61-2.26-2.61-2.28,1.05-2.28,2.61.9,2.61,2.28,2.61Z"></path><path class="cls-13" d="M303.05,405.41h.78v1.1c.38-.84,1.11-1.19,1.88-1.19.91,0,1.57.4,1.89,1.25.4-.83,1.09-1.25,2-1.25,1.55,0,2.13,1.16,2.13,2.68v3.82h-.78v-3.64c0-1.33-.39-2.18-1.52-2.18-1.02,0-1.65.77-1.65,2.26v3.57h-.78v-3.76c0-1.4-.52-2.07-1.5-2.07-1.03,0-1.67.79-1.67,2.26v3.57h-.78v-6.41Z"></path></g><g><path class="cls-13" d="M259.31,247.71h2.43c2.94,0,4.62,1.68,4.62,4.6s-1.64,4.46-4.63,4.46h-2.42v-9.06ZM261.66,256.03c2.5,0,3.89-1.16,3.89-3.74s-1.4-3.83-3.82-3.83h-1.61v7.57h1.54Z"></path><path class="cls-13" d="M267.97,247.71h.94v1.39h-.94v-1.39ZM268.06,250.36h.77v6.41h-.77v-6.41Z"></path><path class="cls-13" d="M270.86,250.36h.78v1.05c.4-.76,1.12-1.14,2.01-1.14,1.38,0,2.2.81,2.2,2.51v3.99h-.78v-3.71c0-1.45-.55-2.11-1.61-2.11-1.16,0-1.83.79-1.83,2.55v3.27h-.78v-6.41Z"></path><path class="cls-13" d="M277.74,247.71h.94v1.39h-.94v-1.39ZM277.82,250.36h.77v6.41h-.77v-6.41Z"></path><path class="cls-13" d="M280.63,250.36h.78v1.05c.4-.76,1.12-1.14,2.01-1.14,1.38,0,2.2.81,2.2,2.51v3.99h-.78v-3.71c0-1.45-.55-2.11-1.61-2.11-1.16,0-1.83.79-1.83,2.55v3.27h-.78v-6.41Z"></path><path class="cls-13" d="M287.09,257.53s0-.1.03-.26l1.11-.88c-.57-.22-.96-.59-.96-1.26,0-.53.27-.9.72-1.2-.36-.37-.56-.87-.56-1.45,0-1.3,1.04-2.2,2.38-2.2.64,0,1.22.21,1.64.59l1.02-.86.4.49-1,.88c.19.33.3.71.3,1.14,0,1.28-.96,2.13-2.33,2.13-.53,0-.99-.12-1.37-.34-.31.18-.45.42-.45.72,0,.66.63.83,1.62.98,1.6.25,2.99.44,2.99,1.75,0,1.16-1.05,1.78-2.7,1.78-1.82,0-2.85-.7-2.85-2ZM289.95,258.93c1.09,0,1.92-.34,1.92-1.08,0-.86-1.16-.96-2.31-1.14-.31-.05-.6-.1-.89-.17l-.8.92c-.01.09-.01.11-.01.15,0,.9.79,1.33,2.09,1.33ZM289.82,254c.98,0,1.59-.65,1.59-1.53s-.64-1.56-1.58-1.56-1.62.65-1.62,1.55.63,1.55,1.61,1.55Z"></path><path class="cls-13" d="M297.57,247.71h2.52c1.99,0,2.97.93,2.97,2.5,0,1.25-.64,2.07-1.85,2.38l2.44,4.19h-.92l-2.34-4.07c-.21,0-.44,0-.65,0h-1.36v4.06h-.81v-9.06ZM300.02,252c1.38,0,2.24-.55,2.24-1.78s-.88-1.77-2.24-1.77h-1.64v3.56h1.64Z"></path><path class="cls-13" d="M304.58,253.56c0-1.92,1.25-3.29,3.05-3.29s3.04,1.37,3.04,3.29-1.27,3.3-3.04,3.3-3.05-1.36-3.05-3.3ZM307.63,256.17c1.37,0,2.26-1.04,2.26-2.61s-.9-2.61-2.26-2.61-2.28,1.05-2.28,2.61.9,2.61,2.28,2.61Z"></path><path class="cls-13" d="M312.11,253.56c0-1.92,1.25-3.29,3.05-3.29s3.04,1.37,3.04,3.29-1.27,3.3-3.04,3.3-3.05-1.36-3.05-3.3ZM315.16,256.17c1.37,0,2.26-1.04,2.26-2.61s-.9-2.61-2.26-2.61-2.28,1.05-2.28,2.61.9,2.61,2.28,2.61Z"></path><path class="cls-13" d="M319.95,250.36h.78v1.1c.38-.85,1.11-1.19,1.88-1.19.91,0,1.57.4,1.89,1.25.4-.83,1.09-1.25,2-1.25,1.55,0,2.13,1.16,2.13,2.69v3.82h-.78v-3.64c0-1.33-.39-2.18-1.52-2.18-1.02,0-1.65.77-1.65,2.26v3.57h-.78v-3.76c0-1.4-.52-2.07-1.5-2.07-1.03,0-1.67.79-1.67,2.26v3.57h-.78v-6.41Z"></path></g><g><path class="cls-13" d="M273.64,108h.81v4.86l4.65-4.86h1.09l-3.45,3.54,3.48,5.52h-.95l-3.11-4.93-1.71,1.76v3.17h-.81v-9.06Z"></path><path class="cls-13" d="M281.36,108h.94v1.39h-.94v-1.39ZM281.45,110.65h.77v6.41h-.77v-6.41Z"></path><path class="cls-13" d="M285.02,115.58v-4.31h-1.42v-.62h1.42v-1.85l.79-.46v2.31h1.54v.62h-1.54v4.12c0,.71.22,1.11.81,1.11.19,0,.46-.04.73-.12v.62c-.32.1-.64.16-.92.16-.85,0-1.4-.49-1.4-1.57Z"></path><path class="cls-13" d="M288.37,113.85c0-1.83,1.06-3.29,2.86-3.29,1.17,0,2.09.58,2.51,1.74l-.7.27c-.27-.82-.9-1.33-1.81-1.33-1.42,0-2.09,1.25-2.09,2.61s.68,2.62,2.09,2.62c.91,0,1.53-.51,1.81-1.33l.7.27c-.42,1.16-1.34,1.75-2.51,1.75-1.8,0-2.86-1.46-2.86-3.3Z"></path><path class="cls-13" d="M295.37,108h.78v3.69c.4-.75,1.1-1.13,2.01-1.13,1.4,0,2.2.85,2.2,2.51v3.99h-.78v-3.71c0-1.43-.53-2.11-1.61-2.11-1.18,0-1.83.83-1.83,2.55v3.27h-.78v-9.06Z"></path><path class="cls-13" d="M302,113.9c0-1.84.99-3.34,2.81-3.34,1.96,0,2.76,1.53,2.76,2.94,0,.1-.01.4-.04.55h-4.76c.03,1.51.84,2.39,2.14,2.39.82,0,1.35-.23,1.91-.83l.55.49c-.73.75-1.43,1.05-2.46,1.05-1.89,0-2.91-1.41-2.91-3.25ZM306.82,113.47c0-.08,0-.16,0-.24,0-.92-.58-2.02-2-2.02-1.23,0-1.98.98-2.07,2.26h4.06Z"></path><path class="cls-13" d="M309.31,110.65h.78v1.05c.4-.76,1.12-1.14,2.01-1.14,1.38,0,2.2.81,2.2,2.51v3.99h-.78v-3.71c0-1.45-.55-2.11-1.61-2.11-1.16,0-1.83.79-1.83,2.55v3.27h-.78v-6.41Z"></path></g><g><path class="cls-13" d="M445.11,144.3h.65l1.71,6.06,1.76-5.7h.63l1.76,5.7,1.7-6.06h.65l-2.01,6.98h-.63l-1.79-5.71-1.79,5.71h-.64l-2.01-6.98Z"></path><path class="cls-13" d="M455.11,144.3h.62v6.98h-.62v-6.98Z"></path><path class="cls-13" d="M457.16,147.78c0-2.16,1.26-3.58,3.16-3.58,1.35,0,2.39.71,2.84,1.89l-.58.22c-.38-.96-1.17-1.52-2.26-1.52-1.55,0-2.54,1.17-2.54,2.99s.99,3,2.54,3c1.09,0,1.89-.56,2.26-1.52l.58.22c-.45,1.18-1.49,1.9-2.84,1.9-1.89,0-3.16-1.42-3.16-3.59Z"></path></g><g><path class="cls-13" d="M443.3,219.76h5.86v.73h-5.06v3.37h4.39v.73h-4.39v4.24h-.81v-9.06Z"></path><path class="cls-13" d="M450.48,227.49v-7.73h.77v7.59c0,.6.23.85.64.85.17,0,.38-.04.61-.12v.67c-.29.11-.6.17-.84.17-.72,0-1.18-.44-1.18-1.42Z"></path><path class="cls-13" d="M453.45,225.66c0-1.84.99-3.34,2.81-3.34,1.96,0,2.76,1.53,2.76,2.94,0,.1-.01.4-.04.55h-4.76c.03,1.51.84,2.39,2.14,2.39.82,0,1.35-.23,1.91-.83l.55.49c-.73.75-1.43,1.05-2.46,1.05-1.89,0-2.91-1.41-2.91-3.25ZM458.26,225.23c0-.08,0-.16,0-.24,0-.92-.58-2.02-2-2.02-1.23,0-1.98.98-2.07,2.26h4.06Z"></path><path class="cls-13" d="M462.42,225.6l-2.37-3.19h.96l1.92,2.65,1.94-2.65h.94l-2.38,3.19,2.39,3.22h-.96l-1.93-2.67-1.94,2.67h-.94l2.37-3.22Z"></path></g><path class="cls-13" d="M241.02,72.12c0-2.17,1.27-3.59,3.16-3.59s3.18,1.42,3.18,3.59-1.27,3.58-3.18,3.58-3.16-1.42-3.16-3.58ZM244.17,75.11c1.57,0,2.55-1.16,2.55-2.99s-.99-3-2.55-3-2.54,1.15-2.54,3,.99,2.99,2.54,2.99Z"></path><path class="cls-13" d="M251.05,67.62h.48l-3.55,9.08h-.48l3.55-9.08Z"></path><path class="cls-13" d="M252.75,68.62h.93l2.35,5.66,2.35-5.66h.92v6.98h-.62v-6.16l-2.35,5.59h-.61l-2.36-5.59v6.16h-.62v-6.98Z"></path><g><path class="cls-13" d="M382.37,68.62h1.94c1.53,0,2.29.72,2.29,1.92,0,.97-.5,1.6-1.43,1.83l1.88,3.22h-.71l-1.8-3.13c-.16,0-.34,0-.5,0h-1.05v3.13h-.62v-6.98ZM384.25,71.92c1.06,0,1.73-.43,1.73-1.37s-.68-1.37-1.73-1.37h-1.26v2.74h1.26Z"></path><path class="cls-13" d="M388.23,68.62h4.56v.56h-3.94v2.59h3.53v.56h-3.53v2.7h3.94v.56h-4.56v-6.98Z"></path><path class="cls-13" d="M394.08,68.62h4.51v.56h-3.89v2.59h3.38v.56h-3.38v3.26h-.62v-6.98Z"></path></g><path class="cls-13" d="M114.86,174.62h.65l1.71,6.06,1.76-5.7h.63l1.76,5.7,1.7-6.06h.65l-2.01,6.98h-.63l-1.79-5.71-1.79,5.71h-.64l-2.01-6.98Z"></path><path class="cls-13" d="M127.14,173.62h.48l-3.55,9.08h-.47l3.55-9.08Z"></path><path class="cls-13" d="M128.84,174.62h1.87c2.26,0,3.56,1.29,3.56,3.54s-1.27,3.43-3.57,3.43h-1.86v-6.98ZM130.65,181.03c1.92,0,2.99-.89,2.99-2.88s-1.08-2.95-2.94-2.95h-1.24v5.83h1.19Z"></path><g><path class="cls-13" d="M51.71,193.54h.65l1.71,6.06,1.76-5.7h.63l1.76,5.7,1.7-6.06h.65l-2.01,6.98h-.63l-1.79-5.71-1.79,5.71h-.64l-2.01-6.98Z"></path><path class="cls-13" d="M61.71,193.54h.62v6.98h-.62v-6.98Z"></path><path class="cls-13" d="M63.76,197.02c0-2.16,1.26-3.58,3.16-3.58,1.35,0,2.39.71,2.84,1.89l-.58.22c-.38-.96-1.17-1.52-2.26-1.52-1.55,0-2.54,1.17-2.54,2.99s.99,3,2.54,3c1.09,0,1.89-.56,2.26-1.52l.58.22c-.45,1.18-1.49,1.9-2.84,1.9-1.89,0-3.16-1.42-3.16-3.59Z"></path></g><g><path class="cls-13" d="M242.2,148.04h1.87c2.26,0,3.56,1.29,3.56,3.54s-1.27,3.43-3.57,3.43h-1.86v-6.98ZM244.01,154.44c1.92,0,2.99-.89,2.99-2.88s-1.08-2.95-2.94-2.95h-1.24v5.83h1.19Z"></path><path class="cls-13" d="M248.29,148.04h.65l1.71,6.06,1.76-5.7h.63l1.76,5.7,1.7-6.06h.65l-2.01,6.98h-.63l-1.79-5.71-1.79,5.71h-.64l-2.01-6.98Z"></path></g><g><path class="cls-13" d="M345.75,148.04h.65l1.71,6.06,1.76-5.7h.63l1.76,5.7,1.7-6.06h.65l-2.01,6.98h-.63l-1.79-5.71-1.79,5.71h-.64l-2.01-6.98Z"></path><path class="cls-13" d="M355.76,148.04h4.51v.56h-3.89v2.59h3.38v.56h-3.38v3.26h-.62v-6.98Z"></path></g><g><path class="cls-17" d="M15.47,531.52h3.61v.45h-3.11v2.07h2.7v.45h-2.7v2.61h-.5v-5.57Z"></path><path class="cls-17" d="M19.82,531.52h.58v.86h-.58v-.86ZM19.87,533.15h.47v3.94h-.47v-3.94Z"></path><path class="cls-17" d="M21.67,533.15h.48v.64c.25-.47.69-.7,1.24-.7.85,0,1.36.5,1.36,1.54v2.46h-.48v-2.28c0-.89-.34-1.3-.99-1.3-.71,0-1.13.48-1.13,1.57v2.01h-.48v-3.94Z"></path><path class="cls-17" d="M28.25,531.52h3.64v.45h-3.15v2.07h2.82v.45h-2.82v2.16h3.15v.45h-3.64v-5.57Z"></path><path class="cls-17" d="M34.05,535.11l-1.46-1.96h.59l1.18,1.63,1.2-1.63h.58l-1.46,1.96,1.47,1.98h-.59l-1.19-1.64-1.19,1.64h-.58l1.46-1.98Z"></path><path class="cls-17" d="M37.57,536.18v-2.65h-.88v-.38h.88v-1.14l.48-.28v1.42h.95v.38h-.95v2.54c0,.44.14.68.5.68.12,0,.28-.02.45-.08v.38c-.2.06-.4.1-.57.1-.52,0-.86-.3-.86-.97Z"></path><path class="cls-17" d="M39.72,535.15c0-1.13.61-2.05,1.73-2.05,1.21,0,1.7.94,1.7,1.81,0,.06,0,.24-.02.34h-2.93c.02.93.52,1.47,1.32,1.47.5,0,.83-.14,1.18-.51l.34.3c-.45.46-.88.65-1.52.65-1.16,0-1.79-.87-1.79-2ZM42.68,534.88s0-.1,0-.15c0-.57-.36-1.24-1.23-1.24-.76,0-1.22.6-1.27,1.39h2.49Z"></path><path class="cls-17" d="M44.29,533.15h.48v.64c.25-.47.69-.7,1.24-.7.85,0,1.36.5,1.36,1.54v2.46h-.48v-2.28c0-.89-.34-1.3-.99-1.3-.71,0-1.13.48-1.13,1.57v2.01h-.48v-3.94Z"></path><path class="cls-17" d="M48.25,536.25l.34-.28c.2.46.66.77,1.26.77.57,0,.95-.27.95-.72,0-.55-.53-.68-1.1-.82-.66-.16-1.23-.38-1.23-1.06,0-.62.53-1.05,1.29-1.05.6,0,1.1.26,1.37.76l-.37.21c-.21-.38-.57-.58-1.02-.58-.48,0-.84.24-.84.62,0,.4.36.54.93.68.67.16,1.44.34,1.44,1.2,0,.71-.56,1.17-1.42,1.17-.79,0-1.35-.4-1.6-.9Z"></path><path class="cls-17" d="M52.35,531.52h.58v.86h-.58v-.86ZM52.4,533.15h.47v3.94h-.47v-3.94Z"></path><path class="cls-17" d="M54.02,535.12c0-1.18.77-2.02,1.88-2.02s1.87.84,1.87,2.02-.78,2.03-1.87,2.03-1.88-.84-1.88-2.03ZM55.9,536.72c.84,0,1.39-.64,1.39-1.6s-.55-1.6-1.39-1.6-1.4.64-1.4,1.6.56,1.6,1.4,1.6Z"></path><path class="cls-17" d="M58.92,533.15h.48v.64c.25-.47.69-.7,1.24-.7.85,0,1.36.5,1.36,1.54v2.46h-.48v-2.28c0-.89-.34-1.3-.99-1.3-.71,0-1.13.48-1.13,1.57v2.01h-.48v-3.94Z"></path><path class="cls-17" d="M63.32,533.32h.58v.86h-.58v-.86ZM63.32,536.24h.58v.85h-.58v-.85Z"></path></g><g><path class="cls-17" d="M48.87,542.41h-1.47v-.39h1.03c.29,0,.44-.1.44-.41v-.49h.48v5.57h-.48v-4.28Z"></path><path class="cls-17" d="M51.39,545.11c0-.7.41-1.25,1.08-1.45-.46-.18-.76-.62-.76-1.19,0-.9.78-1.41,1.54-1.41.86,0,1.53.57,1.53,1.45,0,.55-.3.97-.77,1.15.67.21,1.07.76,1.07,1.45,0,1.09-.9,1.63-1.84,1.63s-1.85-.55-1.85-1.63ZM53.24,546.29c.72,0,1.36-.41,1.36-1.22,0-.73-.56-1.21-1.36-1.21s-1.38.48-1.38,1.21c0,.82.66,1.22,1.38,1.22ZM53.27,543.52c.61,0,1.05-.4,1.05-.98,0-.61-.42-1.03-1.06-1.03-.56,0-1.06.36-1.06.98s.44,1.02,1.07,1.02Z"></path><path class="cls-17" d="M56.06,543.89c0-1.33.3-2.84,1.72-2.84s1.75,1.39,1.75,2.85-.4,2.84-1.72,2.84c-1.44,0-1.75-1.51-1.75-2.85ZM57.82,546.28c.88,0,1.23-1,1.23-2.36s-.36-2.41-1.26-2.41c-.96,0-1.23,1.1-1.23,2.39s.28,2.37,1.26,2.37Z"></path><path class="cls-17" d="M60.38,545.04l.48-.02c0,.78.58,1.27,1.48,1.27s1.44-.47,1.44-1.2c0-.9-.86-1.14-1.78-1.14v-.38c.7,0,1.48-.21,1.48-1.03,0-.6-.48-1.01-1.16-1.01-.74,0-1.19.44-1.2,1.09l-.47-.02c0-.9.7-1.52,1.68-1.52s1.62.6,1.62,1.42c0,.74-.55,1.08-1.1,1.22.67.11,1.4.5,1.4,1.39,0,.98-.78,1.66-1.93,1.66s-1.94-.68-1.94-1.71Z"></path></g><g><path class="cls-17" d="M48.87,552.01h-1.47v-.39h1.03c.29,0,.44-.1.44-.41v-.49h.48v5.57h-.48v-4.28Z"></path><path class="cls-17" d="M54.67,551.16h-3.43v-.45h3.98v.4l-2.75,5.18h-.53l2.74-5.12Z"></path><path class="cls-17" d="M56.06,553.49c0-1.33.3-2.84,1.72-2.84s1.75,1.39,1.75,2.85-.4,2.84-1.72,2.84c-1.44,0-1.75-1.51-1.75-2.85ZM57.82,555.88c.88,0,1.23-1,1.23-2.36s-.36-2.41-1.26-2.41c-.96,0-1.23,1.1-1.23,2.39s.28,2.37,1.26,2.37Z"></path><path class="cls-17" d="M60.38,554.64l.48-.02c0,.78.58,1.27,1.48,1.27s1.44-.47,1.44-1.2c0-.9-.86-1.14-1.78-1.14v-.38c.7,0,1.48-.21,1.48-1.03,0-.6-.48-1.01-1.16-1.01-.74,0-1.19.44-1.2,1.09l-.47-.02c0-.9.7-1.52,1.68-1.52s1.62.6,1.62,1.42c0,.74-.55,1.08-1.1,1.22.67.11,1.4.5,1.4,1.39,0,.98-.78,1.66-1.93,1.66s-1.94-.68-1.94-1.71Z"></path></g><g><path class="cls-17" d="M48.87,561.61h-1.47v-.39h1.03c.29,0,.44-.1.44-.41v-.49h.48v5.57h-.48v-4.28Z"></path><path class="cls-17" d="M52.44,562.52c.23-.14.5-.22.76-.22,1.01,0,1.81.81,1.81,1.81s-.84,1.83-1.87,1.83-1.88-.79-1.88-1.82c0-.37.12-.7.29-1l1.67-2.81h.54l-1.34,2.21ZM53.14,565.49c.76,0,1.39-.6,1.39-1.38s-.62-1.38-1.39-1.38-1.39.59-1.39,1.38.62,1.38,1.39,1.38Z"></path><path class="cls-17" d="M56.06,563.09c0-1.33.3-2.84,1.72-2.84s1.75,1.39,1.75,2.85-.4,2.84-1.72,2.84c-1.44,0-1.75-1.51-1.75-2.85ZM57.82,565.48c.88,0,1.23-1,1.23-2.36s-.36-2.41-1.26-2.41c-.96,0-1.23,1.1-1.23,2.39s.28,2.37,1.26,2.37Z"></path><path class="cls-17" d="M60.38,564.24l.48-.02c0,.78.58,1.27,1.48,1.27s1.44-.47,1.44-1.2c0-.9-.86-1.14-1.78-1.14v-.38c.7,0,1.48-.21,1.48-1.03,0-.6-.48-1.01-1.16-1.01-.74,0-1.19.44-1.2,1.09l-.47-.02c0-.9.7-1.52,1.68-1.52s1.62.6,1.62,1.42c0,.74-.55,1.08-1.1,1.22.67.11,1.4.5,1.4,1.39,0,.98-.78,1.66-1.93,1.66s-1.94-.68-1.94-1.71Z"></path></g><g><path class="cls-17" d="M48.87,571.21h-1.47v-.39h1.03c.29,0,.44-.1.44-.41v-.49h.48v5.57h-.48v-4.28Z"></path><path class="cls-17" d="M51.36,573.96l.47-.08c.14.7.66,1.21,1.4,1.21.85,0,1.41-.68,1.41-1.48s-.52-1.38-1.34-1.38c-.51,0-.95.24-1.26.69l-.5-.15.5-2.86h2.84v.45h-2.45l-.34,1.96c.38-.39.82-.55,1.27-.55,1.04,0,1.78.82,1.78,1.83s-.81,1.94-1.91,1.94c-.94,0-1.7-.64-1.88-1.58Z"></path><path class="cls-17" d="M56.06,572.69c0-1.33.3-2.84,1.72-2.84s1.75,1.39,1.75,2.85-.4,2.84-1.72,2.84c-1.44,0-1.75-1.51-1.75-2.85ZM57.82,575.08c.88,0,1.23-1,1.23-2.36s-.36-2.41-1.26-2.41c-.96,0-1.23,1.1-1.23,2.39s.28,2.37,1.26,2.37Z"></path><path class="cls-17" d="M60.38,573.84l.48-.02c0,.78.58,1.27,1.48,1.27s1.44-.47,1.44-1.2c0-.9-.86-1.14-1.78-1.14v-.38c.7,0,1.48-.21,1.48-1.03,0-.6-.48-1.01-1.16-1.01-.74,0-1.19.44-1.2,1.09l-.47-.02c0-.9.7-1.52,1.68-1.52s1.62.6,1.62,1.42c0,.74-.55,1.08-1.1,1.22.67.11,1.4.5,1.4,1.39,0,.98-.78,1.65-1.93,1.65s-1.94-.68-1.94-1.71Z"></path></g><g><path class="cls-17" d="M48.87,580.81h-1.47v-.39h1.03c.29,0,.44-.1.44-.41v-.49h.48v5.57h-.48v-4.28Z"></path><path class="cls-17" d="M53.94,583.75h-2.77v-.4l2.79-3.84h.46v3.79h.91v.45h-.91v1.33h-.48v-1.33ZM53.94,583.31v-3.15l-2.25,3.15h2.25Z"></path><path class="cls-17" d="M56.06,582.29c0-1.33.3-2.84,1.72-2.84s1.75,1.39,1.75,2.85-.4,2.84-1.72,2.84c-1.44,0-1.75-1.51-1.75-2.85ZM57.82,584.68c.88,0,1.23-1,1.23-2.36s-.36-2.41-1.26-2.41c-.96,0-1.23,1.1-1.23,2.39s.28,2.37,1.26,2.37Z"></path><path class="cls-17" d="M60.38,583.44l.48-.02c0,.78.58,1.27,1.48,1.27s1.44-.47,1.44-1.2c0-.9-.86-1.14-1.78-1.14v-.38c.7,0,1.48-.21,1.48-1.03,0-.6-.48-1.01-1.16-1.01-.74,0-1.19.44-1.2,1.09l-.47-.02c0-.9.7-1.52,1.68-1.52s1.62.6,1.62,1.42c0,.74-.55,1.08-1.1,1.22.67.11,1.4.5,1.4,1.39,0,.98-.78,1.65-1.93,1.65s-1.94-.68-1.94-1.71Z"></path></g><polyline class="cls-1" points="72.61 543.3 95.84 543.3 95.84 519.82"></polyline><path class="cls-16" d="M95.84,515.79l-2.06,5.67s2.06-1.64,4.13,0l-2.06-5.67Z"></path><polyline class="cls-1" points="72.61 581.47 149.29 581.47 149.29 519.83"></polyline><path class="cls-16" d="M149.29,515.79l-2.06,5.67s2.06-1.64,4.13,0l-2.06-5.67Z"></path><polyline class="cls-1" points="72.61 571.93 131.29 571.93 131.29 519.83"></polyline><path class="cls-16" d="M131.29,515.79l-2.06,5.67s2.06-1.64,4.13,0l-2.06-5.67Z"></path><polyline class="cls-1" points="72.61 562.39 116.17 562.39 116.17 519.82"></polyline><path class="cls-16" d="M116.17,515.79l-2.06,5.67s2.06-1.64,4.13,0l-2.06-5.67Z"></path><polyline class="cls-1" points="72.61 552.84 104.46 552.84 104.46 519.82"></polyline><path class="cls-16" d="M104.46,515.79l-2.06,5.67s2.06-1.64,4.13,0l-2.06-5.67Z"></path></g></g></svg> 