<?xml version="1.0" encoding="UTF-8"?> <svg xmlns="http://www.w3.org/2000/svg" id="Layer_2" data-name="Layer 2" viewBox="0 0 772.55 762.18"><defs><style> .cls-1 { stroke-dasharray: 1.01 1.01; } .cls-1, .cls-2, .cls-3, .cls-4, .cls-5, .cls-6, .cls-7, .cls-8, .cls-9, .cls-10, .cls-11, .cls-12, .cls-13, .cls-14, .cls-15, .cls-16, .cls-17, .cls-18, .cls-19, .cls-20, .cls-21 { fill: none; } .cls-1, .cls-2, .cls-4, .cls-5, .cls-6, .cls-7, .cls-8, .cls-9, .cls-10, .cls-11, .cls-12, .cls-13, .cls-14, .cls-17, .cls-18, .cls-19, .cls-20, .cls-21 { stroke-linecap: round; stroke-linejoin: round; } .cls-1, .cls-2, .cls-4, .cls-6, .cls-7, .cls-8, .cls-11, .cls-12, .cls-14, .cls-17, .cls-20, .cls-21 { stroke: #55453d; stroke-width: .15px; } .cls-2 { stroke-dasharray: 1.01 1.01; } .cls-3 { stroke: #afa49f; } .cls-3, .cls-5, .cls-10, .cls-13, .cls-16, .cls-18 { stroke-width: .25px; } .cls-3, .cls-15, .cls-16 { stroke-miterlimit: 10; } .cls-4 { stroke-dasharray: .98 .98; } .cls-5 { stroke-dasharray: 1.54 1.54; } .cls-5, .cls-10, .cls-13 { stroke: #75655e; } .cls-22 { fill: #3a2a22; } .cls-7 { stroke-dasharray: 1.01 1.01; } .cls-8 { stroke-dasharray: 1.01 1.01; } .cls-23 { fill: #fff; } .cls-9, .cls-15 { stroke-width: .75px; } .cls-9, .cls-15, .cls-18, .cls-19 { stroke: #3a2a22; } .cls-11 { stroke-dasharray: .98 .98; } .cls-24 { fill: #bc8ebc; } .cls-12 { stroke-dasharray: 1.01 1.01; } .cls-13 { stroke-dasharray: 6.14 5.12; } .cls-14 { stroke-dasharray: 1.02 1.02; } .cls-16 { stroke: #bc8ebc; } .cls-17 { stroke-dasharray: 1.01 1.01; } .cls-25 { fill: #afa49f; } .cls-19 { stroke-width: .35px; } .cls-26 { fill: #75655e; } .cls-20 { stroke-dasharray: .99 .99; } .cls-21 { stroke-dasharray: .99 .99; } </style></defs><g id="Layer_1-2" data-name="Layer 1"><g><polygon class="cls-23" points="731.09 472.01 697.09 481.89 663 491.59 628.72 500.93 598.77 508.84 600.26 514.51 600.81 516.73 560.15 527.17 522.46 536.41 484.66 545.37 446.78 553.87 408.9 562.1 370.92 569.95 332.85 577.53 294.69 584.64 256.44 591.48 218.18 597.95 179.93 604.05 141.49 609.77 103.05 615.23 64.61 620.22 64.61 670.67 80.51 669.09 81.1 674.82 81.34 677.13 64.61 678.8 46.57 680.45 46.57 680.37 46.57 672.36 46.57 406.14 .37 406.14 .37 296.06 197.83 296.06 197.83 210.44 162.07 210.44 162.07 127.84 150.52 127.84 150.52 85.85 244.03 85.85 244.03 .37 670.98 .37 668.91 18.51 661.98 79.66 653.94 78.75 660.78 18.51 598.22 18.51 598.22 167.46 632.23 167.46 654.39 393.84 654.4 393.84 702.73 393.84 731.21 472.18 731.09 472.01"></polygon><line class="cls-6" x1="90.3" y1="668.08" x2="90.35" y2="668.58"></line><line class="cls-12" x1="90.46" y1="669.58" x2="91.03" y2="675.12"></line><line class="cls-6" x1="91.08" y1="675.62" x2="91.13" y2="676.12"></line><line class="cls-6" x1="98.15" y1="667.25" x2="98.21" y2="667.74"></line><line class="cls-12" x1="98.31" y1="668.75" x2="98.88" y2="674.29"></line><line class="cls-6" x1="98.93" y1="674.79" x2="98.99" y2="675.29"></line><line class="cls-6" x1="104.99" y1="674.64" x2="104.94" y2="674.14"></line><line class="cls-12" x1="104.84" y1="673.14" x2="104.26" y2="667.6"></line><line class="cls-6" x1="104.21" y1="667.1" x2="104.16" y2="666.6"></line><line class="cls-6" x1="80.51" y1="669.09" x2="81" y2="669.04"></line><polyline class="cls-20" points="81.98 668.94 90.3 668.08 98.16 667.25 104.16 666.6 106.96 666.33"></polyline><polyline class="cls-6" points="107.45 666.28 107.95 666.23 108 666.73"></polyline><line class="cls-12" x1="108.1" y1="667.73" x2="108.68" y2="673.27"></line><polyline class="cls-6" points="108.73 673.77 108.78 674.27 108.28 674.32"></polyline><polyline class="cls-20" points="107.3 674.41 104.99 674.64 98.99 675.29 91.13 676.12 82.33 677.03"></polyline><line class="cls-6" x1="81.84" y1="677.08" x2="81.34" y2="677.13"></line><line class="cls-6" x1="652.48" y1="494.46" x2="652.61" y2="494.94"></line><line class="cls-14" x1="652.88" y1="495.92" x2="654.33" y2="501.34"></line><polyline class="cls-6" points="654.46 501.83 654.59 502.31 654.1 502.44"></polyline><line class="cls-21" x1="653.14" y1="502.7" x2="601.77" y2="516.47"></line><line class="cls-6" x1="601.29" y1="516.6" x2="600.81" y2="516.73"></line><line class="cls-6" x1="644.36" y1="496.67" x2="644.49" y2="497.15"></line><line class="cls-2" x1="644.75" y1="498.13" x2="646.19" y2="503.52"></line><line class="cls-6" x1="646.33" y1="504.01" x2="646.46" y2="504.49"></line><line class="cls-6" x1="632.83" y1="499.81" x2="632.96" y2="500.29"></line><line class="cls-8" x1="633.22" y1="501.26" x2="634.66" y2="506.62"></line><line class="cls-6" x1="634.79" y1="507.1" x2="634.92" y2="507.59"></line><line class="cls-6" x1="617.48" y1="503.89" x2="617.61" y2="504.38"></line><line class="cls-7" x1="617.87" y1="505.35" x2="619.31" y2="510.73"></line><line class="cls-6" x1="619.44" y1="511.22" x2="619.57" y2="511.7"></line><line class="cls-6" x1="622.43" y1="150.64" x2="622.38" y2="150.14"></line><polyline class="cls-11" points="622.28 149.17 621.42 140.57 620.58 131.88 619.94 124.95 619.48 120.48"></polyline><polyline class="cls-6" points="619.43 120 619.38 119.5 619.88 119.45"></polyline><line class="cls-12" x1="620.89" y1="119.34" x2="626.42" y2="118.77"></line><polyline class="cls-6" points="626.92 118.72 627.42 118.67 627.47 119.17"></polyline><polyline class="cls-4" points="627.57 120.14 627.98 124.21 628.62 131.14 629.46 139.74 630.37 148.91"></polyline><line class="cls-6" x1="630.42" y1="149.4" x2="630.47" y2="149.9"></line><line class="cls-6" x1="629.45" y1="139.74" x2="628.96" y2="139.79"></line><line class="cls-12" x1="627.95" y1="139.89" x2="622.42" y2="140.46"></line><line class="cls-6" x1="621.91" y1="140.52" x2="621.42" y2="140.57"></line><line class="cls-6" x1="628.58" y1="130.7" x2="628.08" y2="130.75"></line><line class="cls-1" x1="627.08" y1="130.84" x2="621.54" y2="131.35"></line><line class="cls-6" x1="621.04" y1="131.39" x2="620.54" y2="131.44"></line><line class="cls-6" x1="627.98" y1="124.21" x2="627.48" y2="124.26"></line><line class="cls-1" x1="626.47" y1="124.35" x2="620.94" y2="124.86"></line><line class="cls-6" x1="620.44" y1="124.91" x2="619.94" y2="124.95"></line><line class="cls-6" x1="653.84" y1="79.67" x2="654.33" y2="79.73"></line><line class="cls-17" x1="655.34" y1="79.85" x2="660.88" y2="80.48"></line><line class="cls-6" x1="661.38" y1="80.54" x2="661.88" y2="80.6"></line><line class="cls-6" x1="653.87" y1="79.39" x2="654.36" y2="79.45"></line><line class="cls-17" x1="655.37" y1="79.57" x2="660.91" y2="80.2"></line><line class="cls-6" x1="661.41" y1="80.26" x2="661.91" y2="80.32"></line><line class="cls-6" x1="661.84" y1="80.88" x2="661.98" y2="79.66"></line><line class="cls-6" x1="653.8" y1="79.96" x2="654.3" y2="80.01"></line><line class="cls-17" x1="655.31" y1="80.13" x2="660.84" y2="80.77"></line><line class="cls-6" x1="661.35" y1="80.82" x2="661.84" y2="80.88"></line><line class="cls-6" x1="653.94" y1="78.75" x2="653.8" y2="79.96"></line><polygon class="cls-19" points="570.5 509.54 608.94 500.28 647.29 489.93 685.45 479.21 723.61 468.12 698.66 399.66 654.96 399.66 654.96 397.69 700.06 397.69 726.22 469.48 686.01 481.16 647.83 491.89 609.46 502.24 570.5 511.64 570.5 509.55 570.5 509.54"></polygon><g><path class="cls-6" d="M218.27,136.25c0,25.52-20.68,43.4-46.2,43.4"></path><path class="cls-6" d="M304.81,152.56c0-23.16,18.64-39.39,41.62-39.39"></path><path class="cls-6" d="M455.05,151.45c0-23.16-18.64-39.39-41.62-39.39"></path><path class="cls-6" d="M220.54,459.79c0-23.16,18.64-39.39,41.62-39.39"></path><path class="cls-6" d="M169.84,354.52c-23.13,0-39.35,18.64-39.35,41.62"></path><path class="cls-6" d="M577.36,441.28c23.16,0,39.39-18.64,39.39-41.62"></path></g><line class="cls-6" x1="162.07" y1="133.45" x2="162.07" y2="179.65"></line><line class="cls-6" x1="172.07" y1="136.25" x2="172.07" y2="179.65"></line><rect class="cls-19" x="172.07" y="133.45" width="46.2" height="2.8"></rect><rect class="cls-19" x="304.81" y="152.56" width="41.62" height="2.23"></rect><rect class="cls-19" x="214.76" y="220.59" width="41.58" height="2.23"></rect><rect class="cls-19" x="413.42" y="151.45" width="41.62" height="2.23"></rect><rect class="cls-19" x="220.54" y="459.79" width="41.62" height="2.23"></rect><rect class="cls-19" x="169.84" y="354.52" width="2.23" height="41.62"></rect><rect class="cls-19" x="318.71" y="467.75" width="41.58" height="2.23"></rect><rect class="cls-19" x="297.92" y="469.99" width="41.58" height="2.23"></rect><rect class="cls-19" x="187.04" y="396.15" width="41.62" height="2.23"></rect><rect class="cls-19" x="575.12" y="399.66" width="2.23" height="41.62"></rect><rect class="cls-19" x="423.86" y="54.27" width="2.23" height="41.58"></rect><rect class="cls-19" x="177.8" y="127.15" width="62.37" height="2.23"></rect><line class="cls-19" x1="208.99" y1="127.15" x2="208.99" y2="129.34"></line><polyline class="cls-10" points="376.35 374.59 376.35 375.34 375.6 375.34"></polyline><line class="cls-5" x1="374.07" y1="375.34" x2="350.26" y2="375.34"></line><polyline class="cls-10" points="349.49 375.34 348.74 375.34 348.74 374.59"></polyline><line class="cls-5" x1="348.74" y1="373.05" x2="348.74" y2="349.25"></line><polyline class="cls-10" points="348.74 348.48 348.74 347.73 349.49 347.73"></polyline><line class="cls-5" x1="351.03" y1="347.73" x2="374.84" y2="347.73"></line><polyline class="cls-10" points="375.6 347.73 376.35 347.73 376.35 348.48"></polyline><line class="cls-5" x1="376.35" y1="350.01" x2="376.35" y2="373.82"></line><polyline class="cls-10" points="376.35 270.61 376.35 271.36 375.6 271.36"></polyline><line class="cls-5" x1="374.07" y1="271.36" x2="350.26" y2="271.36"></line><polyline class="cls-10" points="349.49 271.36 348.74 271.36 348.74 270.61"></polyline><line class="cls-5" x1="348.74" y1="269.08" x2="348.74" y2="245.27"></line><polyline class="cls-10" points="348.74 244.5 348.74 243.75 349.49 243.75"></polyline><line class="cls-5" x1="351.03" y1="243.75" x2="374.84" y2="243.75"></line><polyline class="cls-10" points="375.6 243.75 376.35 243.75 376.35 244.5"></polyline><line class="cls-5" x1="376.35" y1="246.04" x2="376.35" y2="269.85"></line><line class="cls-10" x1="286.01" y1="262.55" x2="286.01" y2="265.55"></line><line class="cls-13" x1="286.01" y1="270.68" x2="286.01" y2="358.25"></line><line class="cls-10" x1="286.01" y1="360.81" x2="286.01" y2="363.81"></line><line class="cls-19" x1="297.93" y1="405.39" x2="297.92" y2="226.41"></line><line class="cls-19" x1="297.92" y1="262.55" x2="270.2" y2="262.55"></line><line class="cls-19" x1="297.93" y1="363.81" x2="270.2" y2="363.81"></line><line class="cls-19" x1="295.43" y1="262.55" x2="295.43" y2="226.41"></line><line class="cls-19" x1="295.43" y1="405.39" x2="295.43" y2="363.81"></line><rect class="cls-19" x="348.75" y="240.27" width="49.71" height="138.6"></rect><g><rect class="cls-19" x="368.91" y="328.29" width="9.78" height="1.74" rx=".59" ry=".59"></rect><path class="cls-19" d="M363.01,329.16c0-.49-.4-.9-.9-.9s-.9.4-.9.9.4.9.9.9.9-.4.9-.9Z"></path></g><polyline class="cls-19" points="377.37 328.29 377.37 325.86 375.82 325.86 375.82 328.29"></polyline><line class="cls-19" x1="375.82" y1="326.72" x2="377.37" y2="326.72"></line><polyline class="cls-19" points="373.51 328.29 373.51 316.23 351.75 316.23 351.75 342.08 373.51 342.08 373.51 330.03"></polyline><polyline class="cls-19" points="372.43 330.02 372.43 341 352.83 341 352.83 317.31 372.43 317.31 372.43 328.28"></polyline><polyline class="cls-19" points="176.69 339.25 92.96 339.25 92.96 314.11"></polyline><path class="cls-19" d="M116.9,322.19h-9.87c-.4,0-.72.32-.72.72v10.9c0,.4.32.72.72.72h20.82c.4,0,.72-.32.72-.72v-10.9c0-.4-.32-.72-.72-.72h-9.48"></path><rect class="cls-19" x="116.9" y="318.74" width="1.47" height="5.89"></rect><g><circle class="cls-19" cx="117.64" cy="328.36" r=".84"></circle><path class="cls-19" d="M151.66,322.19h-9.87c-.4,0-.72.32-.72.72v10.9c0,.4.32.72.72.72h20.82c.4,0,.72-.32.72-.72v-10.9c0-.4-.32-.72-.72-.72h-9.48"></path></g><rect class="cls-19" x="151.66" y="318.74" width="1.47" height="5.89"></rect><circle class="cls-19" cx="152.4" cy="328.36" r=".84"></circle><line class="cls-19" x1="51.95" y1="390.42" x2="51.96" y2="315.05"></line><line class="cls-19" x1="51.95" y1="390.42" x2="51.96" y2="314.23"></line><line class="cls-19" x1="50.67" y1="390.42" x2="50.68" y2="314.23"></line><line class="cls-19" x1="50.67" y1="385.73" x2="51.96" y2="385.73"></line><line class="cls-19" x1="50.67" y1="347.73" x2="51.96" y2="347.73"></line><line class="cls-19" x1="10.37" y1="327.62" x2="50.68" y2="327.62"></line><g><path class="cls-19" d="M33.23,378.5c0,.67-.54,1.21-1.21,1.21s-1.21-.54-1.21-1.21.54-1.21,1.21-1.21,1.21.54,1.21,1.21Z"></path><path class="cls-19" d="M37.2,378.5c0,2.86-2.32,5.18-5.18,5.18s-5.18-2.32-5.18-5.18,2.32-5.18,5.18-5.18,5.18,2.32,5.18,5.18Z"></path><rect class="cls-19" x="63.66" y="314.23" width="17.6" height="7.45" rx="1.08" ry="1.08"></rect><path class="cls-19" d="M76.92,325.83c.28,0,.54.11.73.32,1.88,2.09,3.09,5.3,3.09,8.9,0,6.31-3.71,11.42-8.28,11.42s-8.28-5.11-8.28-11.42c0-3.6,1.2-6.8,3.08-8.9.19-.21.46-.32.73-.32h8.92Z"></path></g><line class="cls-19" x1="80.74" y1="335.05" x2="80.74" y2="321.53"></line><line class="cls-19" x1="64.18" y1="335.05" x2="64.18" y2="321.53"></line><g><rect class="cls-19" x="254.03" y="65.01" width="7.45" height="17.6" rx="1.08" ry="1.08"></rect><path class="cls-19" d="M265.63,69.36c0-.28.11-.54.32-.73,2.09-1.88,5.3-3.09,8.9-3.09,6.31,0,11.42,3.71,11.42,8.28s-5.11,8.28-11.42,8.28c-3.6,0-6.8-1.2-8.9-3.08-.21-.19-.32-.46-.32-.73v-8.92Z"></path></g><line class="cls-19" x1="274.85" y1="65.54" x2="261.33" y2="65.54"></line><line class="cls-19" x1="274.85" y1="82.09" x2="261.33" y2="82.09"></line><line class="cls-19" x1="339.13" y1="37.3" x2="339.13" y2="34.09"></line><g><path class="cls-19" d="M339.13,33.22v-11.6c0-1.38-1.12-2.5-2.5-2.5h-61.83c-1.38,0-2.5,1.12-2.5,2.5v24.04c0,1.38,1.12,2.5,2.5,2.5h61.83c1.38,0,2.5-1.12,2.5-2.5v-8.37"></path><path class="cls-19" d="M343.16,34.09h-10.86c-.24,0-.43-.19-.43-.43s.19-.43.43-.43h10.81"></path><path class="cls-19" d="M333.38,33.22c-.17-.46-.61-.79-1.14-.79-.67,0-1.21.54-1.21,1.21s.54,1.21,1.21,1.21c.51,0,.95-.32,1.13-.77"></path><path class="cls-19" d="M337.41,33.22c-.22-2.66-2.45-4.76-5.17-4.76-2.86,0-5.18,2.32-5.18,5.18s2.32,5.18,5.18,5.18c2.72,0,4.94-2.09,5.17-4.74"></path></g><rect class="cls-19" x="343.16" y="31.11" width=".97" height="5.08"></rect><line class="cls-19" x1="344.12" y1="51.87" x2="268.76" y2="51.87"></line><line class="cls-19" x1="344.12" y1="51.87" x2="267.94" y2="51.87"></line><line class="cls-19" x1="344.12" y1="53.16" x2="267.94" y2="53.15"></line><line class="cls-19" x1="339.44" y1="53.16" x2="339.44" y2="51.87"></line><line class="cls-19" x1="301.44" y1="53.16" x2="301.44" y2="51.87"></line><polyline class="cls-19" points="254.03 94.72 279.05 94.72 279.05 159.4"></polyline><path class="cls-19" d="M262.1,127.56v9.87c0,.4.32.72.72.72h10.9c.4,0,.72-.32.72-.72v-20.82c0-.4-.32-.72-.72-.72h-10.9c-.4,0-.72.32-.72.72v9.48"></path><rect class="cls-19" x="258.65" y="126.09" width="5.89" height="1.47"></rect><circle class="cls-19" cx="268.27" cy="126.82" r=".84"></circle><rect class="cls-19" x="219.7" y="231.65" width="30.61" height="38.03"></rect><rect class="cls-19" x="272.37" y="293.94" width="24.28" height="36.98"></rect><rect class="cls-19" x="273.45" y="295.02" width="22.12" height="34.82"></rect><path class="cls-19" d="M294.81,312.43c0,.71-.57,1.28-1.28,1.28s-1.28-.57-1.28-1.28.57-1.28,1.28-1.28c.71,0,1.28.57,1.28,1.28Z"></path><line class="cls-19" x1="295.56" y1="329.84" x2="296.65" y2="330.92"></line><line class="cls-19" x1="295.56" y1="295.02" x2="296.64" y2="293.94"></line><line class="cls-19" x1="273.44" y1="295.02" x2="272.36" y2="293.95"></line><line class="cls-19" x1="273.45" y1="329.84" x2="272.37" y2="330.92"></line><polygon class="cls-19" points="293.53 311.38 292.48 312.43 293.53 313.48 294.58 312.43 293.53 311.38"></polygon><line class="cls-19" x1="292.48" y1="312.43" x2="294.58" y2="312.43"></line><g><path class="cls-18" d="M208.3,110.41c.03,1.51.06,3.03.13,4.57.04.8.09,1.6.13,2.35.03.57.07,1.11.16,1.78.09.65.25,1.42-.23,1.73-.11.07-.25.12-.38.13-.77.06-.9-1.18-.97-2.24-.15-2.35.04-3.74.16-5.44.06-.9.1-1.9.14-2.89-.04-.99-.08-1.98-.14-2.89-.12-1.7-.3-3.09-.16-5.44.07-1.05.2-2.3.97-2.24.13.01.27.06.38.13.48.3.32,1.08.23,1.73-.1.67-.13,1.21-.16,1.78-.04.75-.09,1.56-.13,2.36-.07,1.54-.1,3.06-.13,4.57Z"></path><path class="cls-18" d="M203.6,110.41c.03,1.51.06,3.03.13,4.57.04.8.09,1.6.13,2.35.03.57.07,1.11.16,1.78.09.65.25,1.42-.23,1.73-.11.07-.25.12-.38.13-.77.06-.9-1.18-.97-2.24-.15-2.35.04-3.74.16-5.44.06-.9.1-1.9.14-2.89-.04-.99-.08-1.98-.14-2.89-.12-1.7-.3-3.09-.16-5.44.07-1.05.2-2.3.97-2.24.13.01.27.06.38.13.48.3.33,1.08.23,1.73-.1.67-.13,1.21-.16,1.78-.04.75-.09,1.56-.13,2.36-.07,1.54-.1,3.06-.13,4.57Z"></path><path class="cls-18" d="M198.91,110.41c.03,1.51.06,3.03.13,4.57.04.8.09,1.6.13,2.35.03.57.07,1.11.16,1.78.09.65.25,1.42-.23,1.73-.11.07-.25.12-.38.13-.77.06-.9-1.18-.97-2.24-.15-2.35.04-3.74.16-5.44.06-.9.1-1.9.14-2.89-.04-.99-.08-1.98-.14-2.89-.12-1.7-.3-3.09-.16-5.44.07-1.05.2-2.3.97-2.24.13.01.27.06.38.13.48.3.33,1.08.23,1.73-.1.67-.13,1.21-.16,1.78-.04.75-.09,1.56-.13,2.36-.07,1.54-.1,3.06-.13,4.57Z"></path></g><line class="cls-18" x1="160.52" y1="110.41" x2="245.99" y2="110.41"></line><g><path class="cls-18" d="M400.2,28.45c.03,1.51.06,3.03.13,4.57.04.8.09,1.6.13,2.35.03.57.07,1.11.16,1.78.09.65.25,1.42-.23,1.73-.11.07-.25.12-.38.13-.77.06-.9-1.18-.97-2.24-.15-2.35.04-3.74.16-5.44.06-.9.1-1.9.14-2.89-.04-.99-.08-1.98-.14-2.89-.11-1.7-.3-3.09-.16-5.44.07-1.05.2-2.3.97-2.24.13.01.27.06.38.13.48.3.32,1.08.23,1.73-.1.67-.13,1.21-.16,1.78-.04.75-.09,1.56-.13,2.36-.07,1.54-.1,3.06-.13,4.57Z"></path><path class="cls-18" d="M395.51,28.45c.03,1.51.06,3.03.13,4.57.04.8.09,1.6.13,2.35.03.57.07,1.11.16,1.78.09.65.25,1.42-.23,1.73-.11.07-.25.12-.38.13-.77.06-.9-1.18-.97-2.24-.15-2.35.04-3.74.16-5.44.06-.9.1-1.9.14-2.89-.04-.99-.08-1.98-.14-2.89-.11-1.7-.3-3.09-.16-5.44.07-1.05.2-2.3.97-2.24.13.01.27.06.38.13.48.3.32,1.08.23,1.73-.1.67-.13,1.21-.16,1.78-.04.75-.09,1.56-.13,2.36-.07,1.54-.1,3.06-.13,4.57Z"></path><path class="cls-18" d="M390.81,28.45c.03,1.51.06,3.03.13,4.57.04.8.09,1.6.13,2.35.03.57.07,1.11.16,1.78.09.65.25,1.42-.23,1.73-.11.07-.25.12-.38.13-.77.06-.9-1.18-.97-2.24-.15-2.35.04-3.74.16-5.44.06-.9.1-1.9.14-2.89-.04-.99-.08-1.98-.14-2.89-.11-1.7-.3-3.09-.16-5.44.07-1.05.2-2.3.97-2.24.13.01.27.06.38.13.48.3.32,1.08.23,1.73-.1.67-.13,1.21-.16,1.78-.04.75-.09,1.56-.13,2.36-.07,1.54-.1,3.06-.13,4.57Z"></path><path class="cls-18" d="M366.82,59.41c1.51-.03,3.03-.06,4.57-.13.8-.04,1.6-.09,2.35-.13.57-.03,1.11-.07,1.78-.16.65-.09,1.42-.25,1.73.23.07.11.12.25.13.38.06.77-1.18.9-2.24.97-2.35.15-3.74-.04-5.44-.16-.9-.06-1.9-.1-2.89-.14-.99.04-1.98.08-2.89.14-1.7.12-3.09.3-5.44.16-1.05-.07-2.3-.2-2.24-.97.01-.13.06-.27.13-.38.3-.48,1.08-.32,1.73-.23.67.1,1.21.13,1.78.16.75.04,1.56.09,2.36.13,1.54.07,3.06.1,4.57.13Z"></path><path class="cls-18" d="M366.82,64.11c1.51-.03,3.03-.06,4.57-.13.8-.04,1.6-.09,2.35-.13.57-.03,1.11-.07,1.78-.16.65-.09,1.42-.25,1.73.23.07.11.12.25.13.38.06.77-1.18.9-2.24.97-2.35.15-3.74-.04-5.44-.16-.9-.06-1.9-.1-2.89-.14-.99.04-1.98.08-2.89.14-1.7.12-3.09.3-5.44.16-1.05-.07-2.3-.2-2.24-.97.01-.13.06-.27.13-.38.3-.48,1.08-.33,1.73-.23.67.1,1.21.13,1.78.16.75.04,1.56.09,2.36.13,1.54.07,3.06.1,4.57.13Z"></path><path class="cls-18" d="M366.82,68.8c1.51-.03,3.03-.06,4.57-.13.8-.04,1.6-.09,2.35-.13.57-.03,1.11-.07,1.78-.16.65-.09,1.42-.25,1.73.23.07.11.12.25.13.38.06.77-1.18.9-2.24.97-2.35.15-3.74-.04-5.44-.16-.9-.06-1.9-.1-2.89-.14-.99.04-1.98.08-2.89.14-1.7.12-3.09.3-5.44.16-1.05-.07-2.3-.2-2.24-.97.01-.13.06-.27.13-.38.3-.48,1.08-.33,1.73-.23.67.1,1.21.13,1.78.16.75.04,1.56.09,2.36.13,1.54.07,3.06.1,4.57.13Z"></path></g><polyline class="cls-18" points="366.82 100.47 366.82 28.45 423.86 28.45"></polyline><polyline class="cls-18" points="56.57 613.1 95.01 608.11 133.45 602.84 171.8 597.12 210.14 591.11 248.4 584.64 286.56 577.9 324.72 570.87 362.79 563.39 400.76 555.54 438.74 547.4 476.53 538.9 514.32 530.03 552.02 520.79"></polyline><line class="cls-18" x1="619.01" y1="391.53" x2="646.09" y2="391.53"></line><polyline class="cls-18" points="572.81 391.53 552.02 391.53 552.02 442.35"></polyline><line class="cls-18" x1="646.09" y1="391.53" x2="624.83" y2="175.59"></line><line class="cls-18" x1="624.83" y1="175.59" x2="590.18" y2="175.59"></line><line class="cls-18" x1="590.18" y1="175.59" x2="590.18" y2="10.38"></line><line class="cls-18" x1="668.68" y1=".38" x2="662.9" y2=".38"></line><polyline class="cls-18" points="560.15 518.85 594.43 509.98 628.72 500.93 663 491.59 697.09 481.89 731.09 472.01 702.73 393.84 654.4 393.84"></polyline><polyline class="cls-18" points="64.61 670.67 80.51 669.09 81.1 674.82"></polyline><polyline class="cls-18" points="628.16 150.11 622.43 150.64 624.1 167.46"></polyline><line class="cls-18" x1="654.22" y1="76.53" x2="660.81" y2="18.51"></line><line class="cls-18" x1="46.58" y1="678.11" x2="46.58" y2="672.36"></line><polygon class="cls-9" points="668.68 .38 666.88 16.2 595.91 16.2 595.91 169.77 630.1 169.77 652.46 397.35 619.01 397.35 619.01 399.66 654.96 399.66 632.23 167.46 598.22 167.46 598.22 18.51 668.91 18.51 670.98 .38 668.68 .38"></polygon><polygon class="cls-9" points="557.84 442.35 557.84 397.35 572.81 397.35 572.81 399.66 560.15 399.66 560.15 442.35 552.02 442.35 557.84 442.35"></polygon><polygon class="cls-9" points="46.58 678.11 62.3 676.67 62.3 618.18 100.74 613.19 139.18 607.83 177.62 602.1 215.87 596.01 254.13 589.54 292.38 582.79 330.54 575.59 368.61 568.1 406.59 560.25 444.47 552.02 482.35 543.52 520.15 534.56 557.85 525.32 557.85 511.65 560.16 511.65 560.16 527.17 522.46 536.41 484.66 545.37 446.78 553.87 408.9 562.1 370.92 569.95 332.85 577.53 294.69 584.64 256.44 591.48 218.18 597.95 179.93 604.05 141.49 609.77 103.05 615.23 64.61 620.22 64.61 678.8 46.58 680.45 46.58 678.11"></polygon><polygon class="cls-9" points="560.15 524.77 600.26 514.51 600.81 516.73 560.15 527.17 560.15 524.77"></polygon><polygon class="cls-9" points="81.06 674.82 64.61 676.39 64.61 678.8 81.34 677.13 81.06 674.82"></polygon><polygon class="cls-9" points="632.23 167.46 630.47 149.9 628.16 150.11 628.16 150.08 629.92 167.46 632.23 167.46"></polygon><polygon class="cls-9" points="659.68 79.4 666.6 18.51 668.91 18.51 661.98 79.66 659.68 79.4"></polygon><polyline class="cls-9" points="623.26 175.59 624.84 175.59 625.02 177.06 630.29 171.34 630.1 169.77 628.53 169.77 623.26 175.59"></polyline><polyline class="cls-9" points="650.71 397.35 652.46 397.35 652.28 395.59 645.9 389.86 646.09 391.53 644.33 391.53 650.71 397.35"></polyline><polyline class="cls-9" points="552.02 519.41 552.02 520.79 550.64 521.16 556.37 525.69 557.84 525.32 557.84 523.84 552.02 519.41"></polyline><rect class="cls-9" x="56.57" y="619.38" width="5.73" height="2.31"></rect><polyline class="cls-9" points="56.57 669.83 56.57 671.4 54.91 671.59 59.62 675.75 60.73 676.76 62.3 676.67 62.3 675.1 56.57 669.83"></polyline><polyline class="cls-9" points="132.44 602.94 133.27 608.67 130.96 609.03 130.13 603.31 132.44 602.94"></polyline><polyline class="cls-9" points="200.81 592.59 201.74 598.32 199.43 598.69 198.5 592.96 200.81 592.59"></polyline><polyline class="cls-9" points="269 581.04 270.02 586.77 267.8 587.14 266.79 581.5 269 581.04"></polyline><polyline class="cls-9" points="337.01 568.47 338.12 574.11 335.9 574.57 334.79 568.93 337.01 568.47"></polyline><polyline class="cls-9" points="371.01 561.73 372.12 567.36 369.9 567.82 368.7 562.19 371.01 561.73"></polyline><polyline class="cls-9" points="404.83 554.7 406.03 560.34 403.81 560.8 402.61 555.17 404.83 554.7"></polyline><polyline class="cls-9" points="472.47 539.83 473.76 545.46 471.45 546.02 470.16 540.38 472.47 539.83"></polyline><polyline class="cls-9" points="539.73 523.84 541.12 529.48 538.9 530.03 537.52 524.4 539.73 523.84"></polyline><polyline class="cls-9" points="64.71 612.08 65.45 617.81 63.14 618.09 62.49 612.36 64.71 612.08"></polyline><rect class="cls-9" x="552.02" y="511.65" width="5.82" height="2.31"></rect><rect class="cls-9" x="572.81" y="391.53" width="2.31" height="8.13"></rect><rect class="cls-9" x="616.7" y="391.53" width="2.31" height="8.13"></rect><rect class="cls-9" x="552.02" y="398.46" width="5.82" height="2.31"></rect><rect class="cls-9" x="552.02" y="440.04" width="5.82" height="2.31"></rect><rect class="cls-9" x="558.95" y="391.53" width="2.31" height="5.82"></rect><rect class="cls-9" x="590.18" y="158.22" width="5.73" height="2.31"></rect><rect class="cls-9" x="597.11" y="169.77" width="2.31" height="5.82"></rect><rect class="cls-9" x="590.18" y="88.92" width="5.73" height="2.31"></rect><polyline class="cls-9" points="625.2 178.91 630.93 178.36 631.21 180.67 625.39 181.22 625.2 178.91"></polyline><polyline class="cls-9" points="631.95 247.84 637.68 247.29 637.96 249.6 632.23 250.15 631.95 247.84"></polyline><polyline class="cls-9" points="638.69 316.87 644.52 316.31 644.7 318.62 638.97 319.18 638.69 316.87"></polyline><rect class="cls-9" x="590.18" y="17.31" width="5.73" height="2.31"></rect><rect class="cls-9" x="597.11" y="10.38" width="2.31" height="5.82"></rect><polyline class="cls-9" points="661.89 8.8 661.7 10.38 660.13 10.38 665.31 16.2 666.88 16.2 667.06 14.63 661.89 8.8"></polyline><polygon class="cls-9" points="598.77 508.84 600.26 514.51 598.04 515.08 596.54 509.43 598.77 508.84"></polygon><polygon class="cls-9" points="654.22 76.53 659.93 77.18 659.68 79.4 653.94 78.75 654.22 76.53"></polygon><polygon class="cls-22" points="162.07 133.45 172.07 133.45 172.07 129.39 177.8 129.39 177.8 123.56 172.07 123.56 172.07 117.84 160.52 117.84 160.52 95.84 245.99 95.84 245.99 123.56 240.17 123.56 240.17 129.39 248.3 129.39 248.3 165.14 352.25 165.14 352.25 154.8 346.43 154.8 346.43 159.42 254.03 159.42 254.03 53.16 267.89 53.16 267.89 13.89 344.12 13.89 344.12 53.16 346.43 53.16 346.43 113.22 352.25 113.22 352.25 106.29 407.69 106.29 407.69 112.11 413.42 112.11 413.42 106.29 429.59 106.29 429.59 95.84 423.86 95.84 423.86 100.46 352.25 100.46 352.25 13.89 423.86 13.89 423.86 54.26 429.59 54.26 429.59 13.89 590.18 13.89 590.18 10.37 661.7 10.37 662.9 .38 244.03 .38 244.03 85.84 150.52 85.84 150.52 127.84 162.07 127.84 162.07 133.45"></polygon><polygon class="cls-15" points="162.07 133.45 172.07 133.45 172.07 129.39 177.8 129.39 177.8 123.56 172.07 123.56 172.07 117.84 160.52 117.84 160.52 95.84 245.99 95.84 245.99 123.56 240.17 123.56 240.17 129.39 248.3 129.39 248.3 165.14 352.25 165.14 352.25 154.8 346.43 154.8 346.43 159.42 254.03 159.42 254.03 53.16 267.89 53.16 267.89 13.89 344.12 13.89 344.12 53.16 346.43 53.16 346.43 113.22 352.25 113.22 352.25 106.29 407.69 106.29 407.69 112.11 413.42 112.11 413.42 106.29 429.59 106.29 429.59 95.84 423.86 95.84 423.86 100.46 352.25 100.46 352.25 13.89 423.86 13.89 423.86 54.26 429.59 54.26 429.59 13.89 590.18 13.89 590.18 10.37 661.7 10.37 662.9 .38 244.03 .38 244.03 85.84 150.52 85.84 150.52 127.84 162.07 127.84 162.07 133.45"></polygon><polygon class="cls-22" points="590.18 159.42 590.18 175.59 598.22 175.59 598.22 181.96 454.45 181.96 454.45 165.15 407.69 165.15 407.69 153.69 413.42 153.69 413.42 159.42 590.18 159.42"></polygon><polygon class="cls-15" points="590.18 159.42 590.18 175.59 598.22 175.59 598.22 181.96 454.45 181.96 454.45 165.15 407.69 165.15 407.69 153.69 413.42 153.69 413.42 159.42 590.18 159.42"></polygon><polygon class="cls-22" points=".38 296.06 .38 406.15 46.58 406.15 46.58 672.36 56.58 671.41 56.58 613.1 59.99 612.64 59.99 401.97 130.49 401.97 130.49 396.15 51.96 396.15 51.96 390.42 10.38 390.42 10.38 314.19 176.7 314.19 176.7 396.15 172.08 396.15 172.08 401.97 187.04 401.97 187.04 396.15 182.42 396.15 182.42 306.06 262.17 306.06 262.17 396.15 228.62 396.15 228.62 401.97 262.17 401.97 262.17 420.45 267.89 420.45 267.89 414.63 297.92 414.63 297.92 405.39 270.2 405.39 270.2 226.41 297.92 226.41 297.92 220.59 256.34 220.59 256.34 226.41 262.17 226.41 262.17 274.92 207.83 274.92 207.83 226.41 214.76 226.41 214.76 220.59 207.83 220.59 207.83 200.44 172.08 200.44 172.08 179.65 162.08 179.65 162.08 210.44 197.83 210.44 197.83 296.06 .38 296.06"></polygon><polygon class="cls-15" points=".38 296.06 .38 406.15 46.58 406.15 46.58 672.36 56.58 671.41 56.58 613.1 59.99 612.64 59.99 401.97 130.49 401.97 130.49 396.15 51.96 396.15 51.96 390.42 10.38 390.42 10.38 314.19 176.7 314.19 176.7 396.15 172.08 396.15 172.08 401.97 187.04 401.97 187.04 396.15 182.42 396.15 182.42 306.06 262.17 306.06 262.17 396.15 228.62 396.15 228.62 401.97 262.17 401.97 262.17 420.45 267.89 420.45 267.89 414.63 297.92 414.63 297.92 405.39 270.2 405.39 270.2 226.41 297.92 226.41 297.92 220.59 256.34 220.59 256.34 226.41 262.17 226.41 262.17 274.92 207.83 274.92 207.83 226.41 214.76 226.41 214.76 220.59 207.83 220.59 207.83 200.44 172.08 200.44 172.08 179.65 162.08 179.65 162.08 210.44 197.83 210.44 197.83 296.06 .38 296.06"></polygon><polygon class="cls-22" points="538.63 524.12 552.02 520.79 552.02 511.65 570.5 511.65 570.5 442.35 552.02 442.35 552.02 441.24 546.29 441.24 546.29 516.36 537.24 518.58 538.63 524.12"></polygon><polygon class="cls-15" points="538.63 524.12 552.02 520.79 552.02 511.65 570.5 511.65 570.5 442.35 552.02 442.35 552.02 441.24 546.29 441.24 546.29 516.36 537.24 518.58 538.63 524.12"></polygon><polygon class="cls-22" points="267.89 581.31 233.8 587.14 199.7 592.77 198.78 587.04 228.07 582.24 228.07 467.75 262.16 467.75 262.16 462.03 267.89 462.03 267.89 467.75 297.92 467.75 297.92 473.58 249.97 473.58 249.97 578.54 266.78 575.49 267.89 581.31"></polygon><polygon class="cls-15" points="267.89 581.31 233.8 587.14 199.7 592.77 198.78 587.04 228.07 582.24 228.07 467.75 262.16 467.75 262.16 462.03 267.89 462.03 267.89 467.75 297.92 467.75 297.92 473.58 249.97 473.58 249.97 578.54 266.78 575.49 267.89 581.31"></polygon><polygon class="cls-22" points="402.52 549.34 403.72 554.98 369.81 561.91 368.7 556.27 384.59 553.04 384.59 473.58 381.08 473.58 381.08 467.76 390.32 467.76 390.32 551.84 402.52 549.34 403.72 554.98 402.52 549.34"></polygon><polygon class="cls-15" points="402.52 549.34 403.72 554.98 369.81 561.91 368.7 556.27 384.59 553.04 384.59 473.58 381.08 473.58 381.08 467.76 390.32 467.76 390.32 551.84 402.52 549.34 403.72 554.98 402.52 549.34"></polygon><g><path class="cls-24" d="M149.92,156.41c.08.02.14.07.14.14s-.06.13-.14.14c-3.3.56-4.94,2.74-4.94,6.02v3.84c0,1.16-1.01,1.98-2.66,2.2-.34.05-.61-.23-.46-.47.31-.46.47-1.06.47-1.78v-3.48c0-2.95,1.67-5.22,4.98-6.17.37-.11.37-.5,0-.61-3.31-.96-4.98-3.22-4.98-6.18v-3.48c0-.72-.16-1.32-.47-1.78-.16-.23.12-.51.46-.47,1.64.22,2.66,1.05,2.66,2.21v3.84c0,3.29,1.64,5.47,4.95,6.02h0Z"></path><path class="cls-16" d="M149.92,156.41c.08.02.14.07.14.14s-.06.13-.14.14c-3.3.56-4.94,2.74-4.94,6.02v3.84c0,1.16-1.01,1.98-2.66,2.2-.34.05-.61-.23-.46-.47.31-.46.47-1.06.47-1.78v-3.48c0-2.95,1.67-5.22,4.98-6.17.37-.11.37-.5,0-.61-3.31-.96-4.98-3.22-4.98-6.18v-3.48c0-.72-.16-1.32-.47-1.78-.16-.23.12-.51.46-.47,1.64.22,2.66,1.05,2.66,2.21v3.84c0,3.29,1.64,5.47,4.95,6.02h0Z"></path></g><g><path class="cls-22" d="M95.33,487.09h2.52c1.9,0,2.97.89,2.97,2.53s-1.07,2.54-2.97,2.54h-1.72v3.99h-.8v-9.06ZM97.77,491.44c1.41,0,2.24-.61,2.24-1.81s-.81-1.81-2.24-1.81h-1.64v3.62h1.64Z"></path><path class="cls-22" d="M102.34,489.75h.78v1.09c.43-.78,1.31-1.18,2.02-1.18.33,0,.66.07.99.24l-.39.7c-.21-.1-.51-.17-.77-.17-.68,0-1.46.36-1.74,1.3-.08.27-.12.57-.12,1.27v3.15h-.78v-6.41Z"></path><path class="cls-22" d="M107.39,487.09h.94v1.39h-.94v-1.39ZM107.48,489.75h.77v6.41h-.77v-6.41Z"></path><path class="cls-22" d="M110.28,489.75h.78v1.1c.38-.84,1.11-1.19,1.88-1.19.91,0,1.57.4,1.89,1.25.4-.83,1.09-1.25,2-1.25,1.55,0,2.13,1.16,2.13,2.68v3.82h-.78v-3.64c0-1.33-.39-2.18-1.52-2.18-1.02,0-1.65.77-1.65,2.26v3.57h-.78v-3.76c0-1.4-.52-2.07-1.5-2.07-1.03,0-1.67.79-1.67,2.26v3.57h-.78v-6.41Z"></path><path class="cls-22" d="M125.11,494.95c-.43.82-1.25,1.29-2.25,1.29-1.44,0-2.31-.77-2.31-1.94,0-.69.29-1.16.72-1.44.46-.31,1.09-.42,1.77-.42h2.05v-.28c0-1.19-.62-1.83-1.82-1.83-.79,0-1.4.29-1.98,1.02l-.56-.48c.68-.84,1.53-1.21,2.59-1.21,1.63,0,2.54.89,2.54,2.51v3.99h-.71l-.04-1.2ZM122.93,495.6c1.18,0,2.17-.93,2.17-2.2v-.36h-1.95c-.51,0-1.03.08-1.37.32-.28.21-.44.51-.44.94,0,.79.6,1.3,1.6,1.3Z"></path><path class="cls-22" d="M127.82,489.75h.78v1.09c.43-.78,1.31-1.18,2.02-1.18.33,0,.66.07.99.24l-.39.7c-.21-.1-.51-.17-.77-.17-.68,0-1.46.36-1.74,1.3-.08.27-.12.57-.12,1.27v3.15h-.78v-6.41Z"></path><path class="cls-22" d="M134.87,495.95l-2.55-6.21h.86l2.1,5.42,2.11-5.42h.85l-3.69,9.05h-.84l1.17-2.84Z"></path><path class="cls-22" d="M143.14,487.09h2.72c1.68,0,2.68.84,2.68,2.25,0,.94-.46,1.68-1.24,2,1.1.25,1.7,1.07,1.7,2.31,0,1.61-1.02,2.5-2.88,2.5h-2.97v-9.06ZM146.11,491.1c.98,0,1.63-.64,1.63-1.64s-.69-1.61-1.88-1.61h-1.91v3.26h2.16ZM146.05,495.41c1.42,0,2.14-.6,2.14-1.79,0-1.13-.66-1.79-1.79-1.79h-2.46v3.58h2.11Z"></path><path class="cls-22" d="M150.46,493c0-1.84.99-3.34,2.81-3.34,1.96,0,2.76,1.53,2.76,2.94,0,.1-.01.4-.04.55h-4.76c.03,1.51.84,2.39,2.14,2.39.82,0,1.35-.23,1.91-.83l.55.49c-.73.75-1.43,1.05-2.46,1.05-1.89,0-2.91-1.41-2.91-3.25ZM155.28,492.57c0-.08,0-.16,0-.24,0-.92-.58-2.01-2-2.01-1.23,0-1.98.98-2.07,2.26h4.06Z"></path><path class="cls-22" d="M157.44,492.94c0-1.96,1.29-3.29,2.92-3.29,1.05,0,1.87.54,2.29,1.36v-3.92h.77v9.06h-.77v-1.26c-.44.84-1.25,1.35-2.29,1.35-1.72,0-2.92-1.42-2.92-3.3ZM160.48,495.52c1.3,0,2.23-1.08,2.23-2.58s-.93-2.58-2.23-2.58-2.26,1.09-2.26,2.58.95,2.58,2.26,2.58Z"></path><path class="cls-22" d="M165.46,489.75h.78v1.09c.43-.78,1.31-1.18,2.02-1.18.33,0,.66.07.99.24l-.39.7c-.21-.1-.51-.17-.77-.17-.68,0-1.46.36-1.74,1.3-.08.27-.12.57-.12,1.27v3.15h-.78v-6.41Z"></path><path class="cls-22" d="M169.84,492.94c0-1.92,1.25-3.29,3.05-3.29s3.04,1.37,3.04,3.29-1.27,3.3-3.04,3.3-3.05-1.37-3.05-3.3ZM172.89,495.55c1.37,0,2.26-1.04,2.26-2.61s-.9-2.61-2.26-2.61-2.28,1.05-2.28,2.61.9,2.61,2.28,2.61Z"></path><path class="cls-22" d="M177.37,492.94c0-1.92,1.25-3.29,3.05-3.29s3.04,1.37,3.04,3.29-1.27,3.3-3.04,3.3-3.05-1.37-3.05-3.3ZM180.42,495.55c1.37,0,2.26-1.04,2.26-2.61s-.9-2.61-2.26-2.61-2.28,1.05-2.28,2.61.9,2.61,2.28,2.61Z"></path><path class="cls-22" d="M185.21,489.75h.78v1.1c.38-.84,1.11-1.19,1.88-1.19.91,0,1.57.4,1.89,1.25.4-.83,1.09-1.25,2-1.25,1.55,0,2.13,1.16,2.13,2.68v3.82h-.78v-3.64c0-1.33-.39-2.18-1.52-2.18-1.02,0-1.65.77-1.65,2.26v3.57h-.78v-3.76c0-1.4-.52-2.07-1.5-2.07-1.03,0-1.67.79-1.67,2.26v3.57h-.78v-6.41Z"></path></g><g><path class="cls-22" d="M484.22,81.59h2.72c1.68,0,2.68.84,2.68,2.25,0,.94-.46,1.68-1.24,2,1.1.25,1.7,1.07,1.7,2.31,0,1.61-1.02,2.5-2.88,2.5h-2.97v-9.06ZM487.19,85.6c.98,0,1.63-.64,1.63-1.64s-.69-1.61-1.88-1.61h-1.91v3.26h2.16ZM487.14,89.91c1.42,0,2.14-.6,2.14-1.79,0-1.13-.66-1.79-1.79-1.79h-2.46v3.58h2.11Z"></path><path class="cls-22" d="M491.52,87.5c0-1.84.99-3.34,2.81-3.34,1.96,0,2.76,1.53,2.76,2.94,0,.1-.01.4-.04.55h-4.76c.03,1.51.84,2.39,2.14,2.39.82,0,1.35-.23,1.91-.83l.55.49c-.73.75-1.43,1.05-2.46,1.05-1.89,0-2.91-1.41-2.91-3.25ZM496.34,87.07c0-.08,0-.16,0-.24,0-.92-.58-2.02-2-2.02-1.23,0-1.98.98-2.07,2.26h4.06Z"></path><path class="cls-22" d="M498.49,87.44c0-1.96,1.29-3.29,2.92-3.29,1.05,0,1.87.54,2.29,1.36v-3.92h.77v9.06h-.77v-1.26c-.44.85-1.25,1.35-2.29,1.35-1.72,0-2.92-1.42-2.92-3.3ZM501.53,90.03c1.3,0,2.23-1.08,2.23-2.58s-.93-2.58-2.23-2.58-2.26,1.09-2.26,2.58.95,2.58,2.26,2.58Z"></path><path class="cls-22" d="M506.5,84.25h.78v1.09c.43-.78,1.31-1.18,2.02-1.18.33,0,.66.07.99.24l-.39.7c-.21-.1-.51-.17-.77-.17-.68,0-1.46.36-1.74,1.3-.08.27-.12.57-.12,1.27v3.15h-.78v-6.41Z"></path><path class="cls-22" d="M510.88,87.44c0-1.92,1.25-3.29,3.05-3.29s3.04,1.36,3.04,3.29-1.27,3.3-3.04,3.3-3.05-1.36-3.05-3.3ZM513.93,90.05c1.37,0,2.26-1.04,2.26-2.61s-.9-2.61-2.26-2.61-2.28,1.05-2.28,2.61.9,2.61,2.28,2.61Z"></path><path class="cls-22" d="M518.42,87.44c0-1.92,1.25-3.29,3.05-3.29s3.04,1.36,3.04,3.29-1.27,3.3-3.04,3.3-3.05-1.36-3.05-3.3ZM521.46,90.05c1.37,0,2.26-1.04,2.26-2.61s-.9-2.61-2.26-2.61-2.28,1.05-2.28,2.61.9,2.61,2.28,2.61Z"></path><path class="cls-22" d="M526.25,84.25h.78v1.1c.38-.85,1.11-1.19,1.88-1.19.91,0,1.57.4,1.89,1.25.4-.83,1.09-1.25,2-1.25,1.55,0,2.13,1.16,2.13,2.68v3.82h-.78v-3.64c0-1.33-.39-2.18-1.52-2.18-1.02,0-1.65.77-1.65,2.26v3.57h-.78v-3.76c0-1.4-.52-2.07-1.5-2.07-1.03,0-1.67.79-1.67,2.26v3.57h-.78v-6.41Z"></path></g><g><path class="cls-22" d="M622.01,444.59h2.72c1.68,0,2.68.84,2.68,2.25,0,.94-.46,1.68-1.24,2,1.1.25,1.7,1.07,1.7,2.31,0,1.61-1.02,2.5-2.88,2.5h-2.97v-9.06ZM624.98,448.6c.98,0,1.63-.64,1.63-1.64s-.69-1.61-1.88-1.61h-1.91v3.26h2.16ZM624.93,452.91c1.42,0,2.14-.6,2.14-1.79,0-1.13-.66-1.79-1.79-1.79h-2.46v3.58h2.11Z"></path><path class="cls-22" d="M633.84,452.45c-.43.82-1.25,1.29-2.25,1.29-1.44,0-2.31-.77-2.31-1.94,0-.69.29-1.16.72-1.44.46-.31,1.09-.42,1.77-.42h2.05v-.28c0-1.19-.62-1.83-1.82-1.83-.79,0-1.4.29-1.98,1.02l-.56-.48c.68-.84,1.53-1.21,2.59-1.21,1.63,0,2.54.89,2.54,2.51v3.99h-.71l-.04-1.2ZM631.66,453.1c1.18,0,2.17-.93,2.17-2.2v-.36h-1.95c-.51,0-1.03.08-1.37.32-.28.21-.44.51-.44.94,0,.79.6,1.3,1.6,1.3Z"></path><path class="cls-22" d="M636.43,452.32v-7.73h.77v7.59c0,.6.23.84.64.84.17,0,.38-.04.61-.12v.67c-.29.11-.6.17-.84.17-.72,0-1.18-.44-1.18-1.42Z"></path><path class="cls-22" d="M639.39,450.44c0-1.83,1.06-3.29,2.86-3.29,1.17,0,2.09.58,2.51,1.74l-.7.27c-.27-.82-.9-1.33-1.81-1.33-1.42,0-2.09,1.25-2.09,2.61s.68,2.62,2.09,2.62c.91,0,1.53-.51,1.81-1.33l.7.27c-.42,1.16-1.34,1.75-2.51,1.75-1.8,0-2.86-1.46-2.86-3.3Z"></path><path class="cls-22" d="M645.99,450.44c0-1.92,1.25-3.29,3.05-3.29s3.04,1.37,3.04,3.29-1.27,3.3-3.04,3.3-3.05-1.37-3.05-3.3ZM649.04,453.05c1.37,0,2.26-1.04,2.26-2.61s-.9-2.61-2.26-2.61-2.28,1.05-2.28,2.61.9,2.61,2.28,2.61Z"></path><path class="cls-22" d="M653.83,447.25h.78v1.05c.4-.76,1.12-1.14,2.01-1.14,1.38,0,2.2.81,2.2,2.51v3.99h-.78v-3.71c0-1.45-.55-2.11-1.61-2.11-1.16,0-1.83.79-1.83,2.55v3.27h-.78v-6.41Z"></path><path class="cls-22" d="M662.55,453.45l-2.55-6.21h.86l2.1,5.42,2.11-5.42h.85l-3.69,9.05h-.84l1.17-2.84Z"></path></g><g><path class="cls-22" d="M487.83,281.89h.81v8.33h4.18v.73h-4.99v-9.06Z"></path><path class="cls-22" d="M493.95,281.89h.94v1.39h-.94v-1.39ZM494.04,284.54h.77v6.41h-.77v-6.41Z"></path><path class="cls-22" d="M496.21,284.54h.86l2.1,5.42,2.11-5.42h.85l-2.61,6.41h-.68l-2.63-6.41Z"></path><path class="cls-22" d="M503.46,281.89h.94v1.39h-.94v-1.39ZM503.55,284.54h.77v6.41h-.77v-6.41Z"></path><path class="cls-22" d="M506.35,284.54h.78v1.05c.4-.76,1.12-1.14,2.01-1.14,1.38,0,2.2.81,2.2,2.51v3.99h-.78v-3.71c0-1.45-.55-2.11-1.61-2.11-1.16,0-1.83.79-1.83,2.55v3.27h-.78v-6.41Z"></path><path class="cls-22" d="M512.81,291.71s0-.1.03-.26l1.11-.88c-.57-.22-.96-.59-.96-1.26,0-.53.27-.9.72-1.2-.36-.37-.56-.87-.56-1.45,0-1.3,1.04-2.2,2.38-2.2.64,0,1.22.21,1.64.59l1.02-.86.4.49-1,.88c.19.33.3.71.3,1.14,0,1.28-.96,2.13-2.33,2.13-.53,0-.99-.12-1.37-.34-.31.18-.45.42-.45.72,0,.66.63.83,1.62.98,1.6.25,2.99.44,2.99,1.75,0,1.16-1.05,1.78-2.7,1.78-1.82,0-2.85-.7-2.85-2ZM515.67,293.1c1.09,0,1.92-.34,1.92-1.08,0-.86-1.16-.96-2.31-1.14-.31-.05-.6-.1-.89-.17l-.8.92c-.01.09-.01.11-.01.15,0,.9.79,1.33,2.09,1.33ZM515.54,288.17c.98,0,1.59-.65,1.59-1.53s-.64-1.56-1.58-1.56-1.62.65-1.62,1.55.63,1.55,1.61,1.55Z"></path><path class="cls-22" d="M523.29,281.89h2.52c1.99,0,2.97.93,2.97,2.5,0,1.25-.64,2.07-1.85,2.38l2.44,4.19h-.92l-2.34-4.07c-.21,0-.44,0-.65,0h-1.36v4.06h-.81v-9.06ZM525.74,286.17c1.38,0,2.24-.55,2.24-1.78s-.88-1.77-2.24-1.77h-1.64v3.56h1.64Z"></path><path class="cls-22" d="M530.3,287.74c0-1.92,1.25-3.29,3.05-3.29s3.04,1.37,3.04,3.29-1.27,3.3-3.04,3.3-3.05-1.36-3.05-3.3ZM533.35,290.34c1.37,0,2.26-1.04,2.26-2.61s-.9-2.61-2.26-2.61-2.28,1.05-2.28,2.61.9,2.61,2.28,2.61Z"></path><path class="cls-22" d="M537.83,287.74c0-1.92,1.25-3.29,3.05-3.29s3.04,1.37,3.04,3.29-1.27,3.3-3.04,3.3-3.05-1.36-3.05-3.3ZM540.88,290.34c1.37,0,2.26-1.04,2.26-2.61s-.9-2.61-2.26-2.61-2.28,1.05-2.28,2.61.9,2.61,2.28,2.61Z"></path><path class="cls-22" d="M545.67,284.54h.78v1.1c.38-.85,1.11-1.19,1.88-1.19.91,0,1.57.4,1.89,1.25.4-.83,1.09-1.25,2-1.25,1.55,0,2.13,1.16,2.13,2.69v3.82h-.78v-3.64c0-1.33-.39-2.18-1.52-2.18-1.02,0-1.65.77-1.65,2.26v3.57h-.78v-3.76c0-1.4-.52-2.07-1.5-2.07-1.03,0-1.67.79-1.67,2.26v3.57h-.78v-6.41Z"></path></g><g><path class="cls-22" d="M433.68,444.59h2.43c2.94,0,4.62,1.68,4.62,4.6s-1.64,4.46-4.63,4.46h-2.42v-9.06ZM436.03,452.91c2.5,0,3.89-1.16,3.89-3.74s-1.4-3.83-3.82-3.83h-1.61v7.57h1.54Z"></path><path class="cls-22" d="M442.34,444.59h.94v1.39h-.94v-1.39ZM442.42,447.25h.77v6.41h-.77v-6.41Z"></path><path class="cls-22" d="M445.23,447.25h.78v1.05c.4-.76,1.12-1.14,2.01-1.14,1.38,0,2.2.81,2.2,2.51v3.99h-.78v-3.71c0-1.45-.55-2.11-1.61-2.11-1.16,0-1.83.79-1.83,2.55v3.27h-.78v-6.41Z"></path><path class="cls-22" d="M452.11,444.59h.94v1.39h-.94v-1.39ZM452.19,447.25h.77v6.41h-.77v-6.41Z"></path><path class="cls-22" d="M455,447.25h.78v1.05c.4-.76,1.12-1.14,2.01-1.14,1.38,0,2.2.81,2.2,2.51v3.99h-.78v-3.71c0-1.45-.55-2.11-1.61-2.11-1.16,0-1.83.79-1.83,2.55v3.27h-.78v-6.41Z"></path><path class="cls-22" d="M461.46,454.42s0-.1.03-.26l1.11-.88c-.57-.22-.96-.59-.96-1.26,0-.53.27-.9.72-1.2-.36-.37-.56-.87-.56-1.45,0-1.3,1.04-2.2,2.39-2.2.64,0,1.22.21,1.64.58l1.02-.86.4.49-1,.88c.19.33.3.71.3,1.14,0,1.28-.96,2.13-2.33,2.13-.53,0-.99-.12-1.37-.34-.31.17-.45.42-.45.71,0,.66.63.83,1.62.98,1.6.25,2.99.44,2.99,1.75,0,1.16-1.05,1.78-2.7,1.78-1.82,0-2.85-.7-2.85-2ZM464.31,455.81c1.09,0,1.92-.34,1.92-1.08,0-.86-1.16-.96-2.31-1.14-.31-.05-.6-.1-.89-.17l-.8.92c-.01.09-.01.11-.01.15,0,.9.79,1.33,2.09,1.33ZM464.18,450.88c.98,0,1.59-.65,1.59-1.53s-.64-1.56-1.58-1.56-1.62.65-1.62,1.55.63,1.55,1.61,1.55Z"></path><path class="cls-22" d="M471.94,444.59h2.52c1.99,0,2.97.93,2.97,2.5,0,1.25-.64,2.07-1.85,2.38l2.44,4.19h-.92l-2.34-4.07c-.21,0-.44,0-.65,0h-1.36v4.06h-.81v-9.06ZM474.38,448.88c1.38,0,2.24-.55,2.24-1.78s-.88-1.77-2.24-1.77h-1.64v3.56h1.64Z"></path><path class="cls-22" d="M478.95,450.44c0-1.92,1.25-3.29,3.05-3.29s3.04,1.37,3.04,3.29-1.27,3.3-3.04,3.3-3.05-1.37-3.05-3.3ZM481.99,453.05c1.37,0,2.26-1.04,2.26-2.61s-.9-2.61-2.26-2.61-2.28,1.05-2.28,2.61.9,2.61,2.28,2.61Z"></path><path class="cls-22" d="M486.48,450.44c0-1.92,1.25-3.29,3.05-3.29s3.04,1.37,3.04,3.29-1.27,3.3-3.04,3.3-3.05-1.37-3.05-3.3ZM489.53,453.05c1.37,0,2.26-1.04,2.26-2.61s-.9-2.61-2.26-2.61-2.28,1.05-2.28,2.61.9,2.61,2.28,2.61Z"></path><path class="cls-22" d="M494.32,447.25h.78v1.1c.38-.84,1.11-1.19,1.88-1.19.91,0,1.57.4,1.89,1.25.4-.83,1.09-1.25,2-1.25,1.55,0,2.13,1.16,2.13,2.68v3.82h-.78v-3.64c0-1.33-.39-2.18-1.52-2.18-1.02,0-1.65.77-1.65,2.26v3.57h-.78v-3.76c0-1.4-.52-2.07-1.5-2.07-1.03,0-1.67.79-1.67,2.26v3.57h-.78v-6.41Z"></path></g><g><path class="cls-22" d="M328.25,394.83h.81v4.86l4.65-4.86h1.09l-3.45,3.54,3.48,5.52h-.95l-3.11-4.93-1.71,1.75v3.17h-.81v-9.06Z"></path><path class="cls-22" d="M335.98,394.83h.94v1.39h-.94v-1.39ZM336.07,397.48h.77v6.41h-.77v-6.41Z"></path><path class="cls-22" d="M339.64,402.41v-4.31h-1.42v-.62h1.42v-1.85l.79-.46v2.31h1.54v.62h-1.54v4.12c0,.71.22,1.11.81,1.11.19,0,.46-.04.73-.12v.62c-.32.1-.64.16-.92.16-.85,0-1.4-.49-1.4-1.57Z"></path><path class="cls-22" d="M342.99,400.68c0-1.83,1.06-3.29,2.86-3.29,1.17,0,2.09.58,2.51,1.74l-.7.27c-.27-.82-.9-1.33-1.81-1.33-1.42,0-2.09,1.25-2.09,2.61s.68,2.62,2.09,2.62c.91,0,1.53-.51,1.81-1.33l.7.27c-.42,1.16-1.34,1.75-2.51,1.75-1.8,0-2.86-1.46-2.86-3.3Z"></path><path class="cls-22" d="M349.99,394.83h.78v3.69c.4-.75,1.1-1.13,2.01-1.13,1.4,0,2.2.85,2.2,2.51v3.99h-.78v-3.71c0-1.43-.53-2.11-1.61-2.11-1.18,0-1.83.83-1.83,2.55v3.27h-.78v-9.06Z"></path><path class="cls-22" d="M356.62,400.73c0-1.84.99-3.34,2.81-3.34,1.96,0,2.76,1.53,2.76,2.94,0,.1-.01.4-.04.55h-4.76c.03,1.51.84,2.39,2.14,2.39.82,0,1.35-.23,1.91-.83l.55.49c-.73.75-1.43,1.05-2.46,1.05-1.89,0-2.91-1.41-2.91-3.25ZM361.44,400.31c0-.08,0-.16,0-.24,0-.92-.58-2.01-2-2.01-1.23,0-1.98.98-2.07,2.26h4.06Z"></path><path class="cls-22" d="M363.93,397.48h.78v1.05c.4-.76,1.12-1.14,2.01-1.14,1.38,0,2.2.81,2.2,2.51v3.99h-.78v-3.71c0-1.45-.55-2.11-1.61-2.11-1.16,0-1.83.79-1.83,2.55v3.27h-.78v-6.41Z"></path></g><g><path class="cls-22" d="M212.89,347.77h.65l1.71,6.06,1.76-5.7h.63l1.76,5.7,1.7-6.06h.65l-2.01,6.98h-.63l-1.79-5.71-1.79,5.71h-.64l-2.01-6.98Z"></path><path class="cls-22" d="M222.89,347.77h.62v6.98h-.62v-6.98Z"></path><path class="cls-22" d="M224.94,351.25c0-2.16,1.26-3.58,3.16-3.58,1.35,0,2.39.71,2.84,1.89l-.58.22c-.38-.96-1.17-1.52-2.26-1.52-1.55,0-2.54,1.17-2.54,2.99s.99,3,2.54,3c1.09,0,1.89-.56,2.26-1.52l.58.21c-.45,1.18-1.49,1.9-2.84,1.9-1.89,0-3.16-1.42-3.16-3.59Z"></path></g><g><path class="cls-22" d="M306.08,513.58h5.86v.73h-5.06v3.37h4.39v.73h-4.39v4.24h-.81v-9.06Z"></path><path class="cls-22" d="M313.26,521.31v-7.73h.77v7.59c0,.6.23.84.64.84.17,0,.38-.04.61-.12v.67c-.29.11-.6.17-.84.17-.72,0-1.18-.44-1.18-1.42Z"></path><path class="cls-22" d="M316.23,519.48c0-1.84.99-3.34,2.81-3.34,1.96,0,2.76,1.53,2.76,2.94,0,.1-.01.4-.04.55h-4.76c.03,1.51.84,2.39,2.14,2.39.82,0,1.35-.23,1.91-.83l.55.49c-.73.75-1.43,1.05-2.46,1.05-1.89,0-2.91-1.41-2.91-3.25ZM321.04,519.06c0-.08,0-.16,0-.24,0-.92-.58-2.01-2-2.01-1.23,0-1.98.98-2.07,2.26h4.06Z"></path><path class="cls-22" d="M325.18,519.43l-2.37-3.19h.96l1.92,2.65,1.94-2.65h.94l-2.38,3.19,2.39,3.22h-.96l-1.93-2.67-1.94,2.67h-.94l2.37-3.22Z"></path></g><path class="cls-22" d="M273.7,244.63c0-2.17,1.27-3.59,3.16-3.59s3.18,1.42,3.18,3.59-1.27,3.58-3.18,3.58-3.16-1.42-3.16-3.58ZM276.86,247.61c1.57,0,2.55-1.16,2.55-2.99s-.99-3-2.55-3-2.54,1.15-2.54,3,.99,2.99,2.54,2.99Z"></path><path class="cls-22" d="M283.73,240.13h.48l-3.55,9.08h-.47l3.55-9.08Z"></path><path class="cls-22" d="M285.43,241.13h.93l2.35,5.66,2.35-5.66h.92v6.98h-.62v-6.16l-2.35,5.59h-.61l-2.36-5.59v6.16h-.62v-6.98Z"></path><g><path class="cls-22" d="M275.15,381.13h1.94c1.53,0,2.29.72,2.29,1.92,0,.97-.5,1.6-1.43,1.83l1.88,3.22h-.71l-1.8-3.13c-.16,0-.34,0-.5,0h-1.05v3.13h-.62v-6.98ZM277.03,384.43c1.06,0,1.73-.43,1.73-1.37s-.68-1.37-1.73-1.37h-1.26v2.74h1.26Z"></path><path class="cls-22" d="M281.01,381.13h4.56v.56h-3.94v2.59h3.53v.56h-3.53v2.7h3.94v.56h-4.56v-6.98Z"></path><path class="cls-22" d="M286.86,381.13h4.51v.56h-3.89v2.59h3.38v.56h-3.38v3.26h-.62v-6.98Z"></path></g><path class="cls-22" d="M225.39,247.46h.65l1.71,6.06,1.76-5.7h.63l1.76,5.7,1.7-6.06h.65l-2.01,6.98h-.63l-1.79-5.71-1.79,5.71h-.64l-2.01-6.98Z"></path><path class="cls-22" d="M237.67,246.46h.48l-3.55,9.08h-.47l3.55-9.08Z"></path><path class="cls-22" d="M239.38,247.46h1.87c2.26,0,3.56,1.29,3.56,3.54s-1.27,3.43-3.57,3.43h-1.86v-6.98ZM241.18,253.86c1.92,0,2.99-.89,2.99-2.88s-1.08-2.95-2.94-2.95h-1.24v5.83h1.19Z"></path><g><path class="cls-22" d="M355.1,358.13h1.87c2.26,0,3.56,1.29,3.56,3.54s-1.27,3.43-3.57,3.43h-1.86v-6.98ZM356.91,364.54c1.92,0,2.99-.89,2.99-2.88s-1.08-2.95-2.94-2.95h-1.24v5.83h1.19Z"></path><path class="cls-22" d="M361.19,358.13h.65l1.71,6.06,1.76-5.7h.63l1.76,5.7,1.7-6.06h.65l-2.01,6.98h-.63l-1.79-5.71-1.79,5.71h-.64l-2.01-6.98Z"></path></g><g><path class="cls-22" d="M355.03,253.9h.65l1.71,6.06,1.76-5.7h.63l1.76,5.7,1.7-6.06h.65l-2.01,6.98h-.63l-1.79-5.71-1.79,5.71h-.64l-2.01-6.98Z"></path><path class="cls-22" d="M365.04,253.9h4.51v.56h-3.89v2.59h3.38v.56h-3.38v3.26h-.62v-6.98Z"></path></g><g><path class="cls-22" d="M212.46,178.16h5.86v.73h-5.06v3.37h4.39v.73h-4.39v4.24h-.81v-9.06Z"></path><path class="cls-22" d="M219.05,184.01c0-1.92,1.25-3.29,3.05-3.29s3.04,1.36,3.04,3.29-1.27,3.3-3.04,3.3-3.05-1.36-3.05-3.3ZM222.1,186.62c1.37,0,2.26-1.04,2.26-2.61s-.9-2.61-2.26-2.61-2.28,1.05-2.28,2.61.9,2.61,2.28,2.61Z"></path><path class="cls-22" d="M228.62,187.02l-2.55-6.21h.86l2.1,5.42,2.11-5.42h.85l-3.69,9.05h-.84l1.17-2.84Z"></path><path class="cls-22" d="M232.94,184.06c0-1.84.99-3.34,2.81-3.34,1.96,0,2.76,1.53,2.76,2.94,0,.1-.01.4-.04.55h-4.76c.03,1.51.84,2.39,2.14,2.39.82,0,1.35-.23,1.91-.83l.55.49c-.73.75-1.43,1.05-2.46,1.05-1.89,0-2.91-1.41-2.91-3.25ZM237.76,183.63c0-.08,0-.16,0-.24,0-.92-.58-2.02-2-2.02-1.23,0-1.98.98-2.07,2.26h4.06Z"></path><path class="cls-22" d="M240.24,180.81h.78v1.09c.43-.78,1.31-1.18,2.02-1.18.33,0,.66.07.99.24l-.39.7c-.21-.1-.51-.17-.77-.17-.68,0-1.46.36-1.74,1.3-.08.27-.12.57-.12,1.27v3.15h-.78v-6.41Z"></path></g><g><path class="cls-22" d="M385.9,60.97h.65l1.71,6.06,1.76-5.7h.63l1.76,5.7,1.7-6.06h.65l-2.01,6.98h-.63l-1.79-5.71-1.79,5.71h-.64l-2.01-6.98Z"></path><path class="cls-22" d="M395.91,60.97h.62v6.98h-.62v-6.98Z"></path><path class="cls-22" d="M397.96,64.46c0-2.16,1.26-3.58,3.16-3.58,1.35,0,2.39.71,2.84,1.89l-.58.22c-.38-.96-1.17-1.52-2.26-1.52-1.55,0-2.54,1.17-2.54,2.99s.99,3,2.54,3c1.09,0,1.89-.56,2.26-1.52l.58.22c-.45,1.18-1.49,1.9-2.84,1.9-1.89,0-3.16-1.42-3.16-3.59Z"></path></g><g><path class="cls-26" d="M696.42,546.55h3.61v.45h-3.11v2.07h2.7v.45h-2.7v2.61h-.5v-5.57Z"></path><path class="cls-26" d="M700.76,546.55h.58v.86h-.58v-.86ZM700.82,548.18h.47v3.94h-.47v-3.94Z"></path><path class="cls-26" d="M702.62,548.18h.48v.64c.25-.47.69-.7,1.24-.7.85,0,1.36.5,1.36,1.54v2.46h-.48v-2.28c0-.89-.34-1.3-.99-1.3-.71,0-1.13.48-1.13,1.57v2.01h-.48v-3.94Z"></path><path class="cls-26" d="M709.19,546.55h3.64v.45h-3.15v2.07h2.82v.45h-2.82v2.16h3.15v.45h-3.64v-5.57Z"></path><path class="cls-26" d="M714.99,550.15l-1.46-1.96h.59l1.18,1.63,1.2-1.63h.58l-1.46,1.96,1.47,1.98h-.59l-1.19-1.64-1.19,1.64h-.58l1.46-1.98Z"></path><path class="cls-26" d="M718.51,551.21v-2.65h-.88v-.38h.88v-1.14l.48-.28v1.42h.95v.38h-.95v2.54c0,.44.14.68.5.68.12,0,.28-.02.45-.08v.38c-.2.06-.4.1-.57.1-.52,0-.86-.3-.86-.97Z"></path><path class="cls-26" d="M720.66,550.18c0-1.13.61-2.05,1.73-2.05,1.21,0,1.7.94,1.7,1.81,0,.06,0,.24-.02.34h-2.93c.02.93.52,1.47,1.32,1.47.5,0,.83-.14,1.17-.51l.34.3c-.45.46-.88.65-1.51.65-1.16,0-1.79-.87-1.79-2ZM723.63,549.92s0-.1,0-.15c0-.57-.36-1.24-1.23-1.24-.75,0-1.22.6-1.27,1.39h2.49Z"></path><path class="cls-26" d="M725.23,548.18h.48v.64c.25-.47.69-.7,1.24-.7.85,0,1.36.5,1.36,1.54v2.46h-.48v-2.28c0-.89-.34-1.3-.99-1.3-.71,0-1.13.48-1.13,1.57v2.01h-.48v-3.94Z"></path><path class="cls-26" d="M729.19,551.28l.34-.28c.2.46.66.77,1.26.77.57,0,.95-.27.95-.72,0-.55-.53-.68-1.1-.82-.66-.16-1.23-.38-1.23-1.06,0-.62.53-1.05,1.29-1.05.6,0,1.1.26,1.37.76l-.37.21c-.21-.38-.57-.58-1.01-.58-.48,0-.84.24-.84.62,0,.4.36.54.93.68.67.16,1.43.34,1.43,1.2,0,.71-.56,1.17-1.42,1.17-.79,0-1.35-.4-1.6-.9Z"></path><path class="cls-26" d="M733.29,546.55h.58v.86h-.58v-.86ZM733.34,548.18h.47v3.94h-.47v-3.94Z"></path><path class="cls-26" d="M734.96,550.15c0-1.18.77-2.02,1.88-2.02s1.87.84,1.87,2.02-.78,2.03-1.87,2.03-1.88-.84-1.88-2.03ZM736.84,551.75c.84,0,1.39-.64,1.39-1.6s-.55-1.6-1.39-1.6-1.4.64-1.4,1.6.56,1.6,1.4,1.6Z"></path><path class="cls-26" d="M739.86,548.18h.48v.64c.25-.47.69-.7,1.24-.7.85,0,1.36.5,1.36,1.54v2.46h-.48v-2.28c0-.89-.34-1.3-.99-1.3-.71,0-1.13.48-1.13,1.57v2.01h-.48v-3.94Z"></path><path class="cls-26" d="M744.26,548.36h.58v.86h-.58v-.86ZM744.26,551.27h.58v.85h-.58v-.85Z"></path></g><g><path class="cls-26" d="M698.16,557.44h-1.47v-.39h1.03c.29,0,.44-.1.44-.41v-.49h.48v5.57h-.48v-4.28Z"></path><path class="cls-26" d="M700.68,560.15c0-.7.41-1.25,1.08-1.45-.46-.18-.76-.62-.76-1.19,0-.9.78-1.41,1.54-1.41.86,0,1.53.57,1.53,1.45,0,.55-.3.97-.77,1.15.67.21,1.07.76,1.07,1.45,0,1.09-.9,1.63-1.84,1.63s-1.85-.55-1.85-1.63ZM702.53,561.33c.72,0,1.36-.41,1.36-1.22,0-.73-.56-1.21-1.36-1.21s-1.38.48-1.38,1.21c0,.82.66,1.22,1.38,1.22ZM702.55,558.56c.61,0,1.05-.4,1.05-.98,0-.61-.42-1.03-1.06-1.03-.56,0-1.06.36-1.06.98s.44,1.02,1.07,1.02Z"></path><path class="cls-26" d="M705.35,558.93c0-1.33.3-2.84,1.72-2.84s1.75,1.39,1.75,2.85-.4,2.84-1.72,2.84c-1.44,0-1.75-1.51-1.75-2.85ZM707.11,561.32c.88,0,1.23-1,1.23-2.36s-.36-2.41-1.26-2.41c-.96,0-1.23,1.1-1.23,2.39s.28,2.37,1.26,2.37Z"></path><path class="cls-26" d="M712.34,560.39h-2.77v-.4l2.79-3.84h.46v3.79h.91v.45h-.91v1.33h-.48v-1.33ZM712.34,559.94v-3.15l-2.25,3.15h2.25Z"></path></g><g><path class="cls-26" d="M698.16,567.04h-1.47v-.39h1.03c.29,0,.44-.1.44-.41v-.49h.48v5.57h-.48v-4.28Z"></path><path class="cls-26" d="M703.95,566.2h-3.43v-.45h3.98v.4l-2.75,5.18h-.53l2.74-5.12Z"></path><path class="cls-26" d="M705.35,568.53c0-1.33.3-2.84,1.72-2.84s1.75,1.39,1.75,2.85-.4,2.84-1.72,2.84c-1.44,0-1.75-1.51-1.75-2.85ZM707.11,570.92c.88,0,1.23-1,1.23-2.36s-.36-2.41-1.26-2.41c-.96,0-1.23,1.1-1.23,2.39s.28,2.37,1.26,2.37Z"></path><path class="cls-26" d="M712.34,569.99h-2.77v-.4l2.79-3.84h.46v3.79h.91v.45h-.91v1.33h-.48v-1.33ZM712.34,569.54v-3.15l-2.25,3.15h2.25Z"></path></g><g><path class="cls-26" d="M698.16,576.64h-1.47v-.39h1.03c.29,0,.44-.1.44-.41v-.49h.48v5.57h-.48v-4.28Z"></path><path class="cls-26" d="M701.72,577.56c.23-.14.5-.22.76-.22,1.01,0,1.81.81,1.81,1.81s-.84,1.83-1.87,1.83-1.88-.79-1.88-1.82c0-.37.12-.7.29-1l1.67-2.81h.54l-1.34,2.21ZM702.42,580.53c.76,0,1.39-.6,1.39-1.38s-.62-1.38-1.39-1.38-1.39.59-1.39,1.38.62,1.38,1.39,1.38Z"></path><path class="cls-26" d="M705.35,578.13c0-1.33.3-2.84,1.72-2.84s1.75,1.39,1.75,2.85-.4,2.84-1.72,2.84c-1.44,0-1.75-1.51-1.75-2.85ZM707.11,580.52c.88,0,1.23-1,1.23-2.36s-.36-2.41-1.26-2.41c-.96,0-1.23,1.1-1.23,2.39s.28,2.37,1.26,2.37Z"></path><path class="cls-26" d="M712.34,579.59h-2.77v-.4l2.79-3.84h.46v3.79h.91v.45h-.91v1.33h-.48v-1.33ZM712.34,579.14v-3.15l-2.25,3.15h2.25Z"></path></g><g><path class="cls-26" d="M698.16,586.24h-1.47v-.39h1.03c.29,0,.44-.1.44-.41v-.49h.48v5.57h-.48v-4.28Z"></path><path class="cls-26" d="M700.64,589l.47-.08c.14.7.66,1.21,1.4,1.21.85,0,1.41-.68,1.41-1.48s-.52-1.38-1.34-1.38c-.51,0-.95.24-1.26.69l-.5-.15.5-2.86h2.84v.45h-2.45l-.34,1.96c.38-.39.82-.55,1.27-.55,1.04,0,1.78.82,1.78,1.83s-.81,1.94-1.91,1.94c-.94,0-1.7-.64-1.88-1.58Z"></path><path class="cls-26" d="M705.35,587.73c0-1.33.3-2.84,1.72-2.84s1.75,1.39,1.75,2.85-.4,2.84-1.72,2.84c-1.44,0-1.75-1.51-1.75-2.85ZM707.11,590.12c.88,0,1.23-1,1.23-2.36s-.36-2.41-1.26-2.41c-.96,0-1.23,1.1-1.23,2.39s.28,2.37,1.26,2.37Z"></path><path class="cls-26" d="M712.34,589.19h-2.77v-.4l2.79-3.84h.46v3.79h.91v.45h-.91v1.33h-.48v-1.33ZM712.34,588.74v-3.15l-2.25,3.15h2.25Z"></path></g><g><path class="cls-26" d="M698.16,595.84h-1.47v-.39h1.03c.29,0,.44-.1.44-.41v-.49h.48v5.57h-.48v-4.28Z"></path><path class="cls-26" d="M703.23,598.79h-2.77v-.4l2.79-3.84h.46v3.79h.91v.45h-.91v1.33h-.48v-1.33ZM703.23,598.34v-3.15l-2.25,3.15h2.25Z"></path><path class="cls-26" d="M705.35,597.33c0-1.33.3-2.84,1.72-2.84s1.75,1.39,1.75,2.85-.4,2.84-1.72,2.84c-1.44,0-1.75-1.51-1.75-2.85ZM707.11,599.72c.88,0,1.23-1,1.23-2.36s-.36-2.41-1.26-2.41c-.96,0-1.23,1.1-1.23,2.39s.28,2.37,1.26,2.37Z"></path><path class="cls-26" d="M712.34,598.79h-2.77v-.4l2.79-3.84h.46v3.79h.91v.45h-.91v1.33h-.48v-1.33ZM712.34,598.34v-3.15l-2.25,3.15h2.25Z"></path></g><g><path class="cls-26" d="M724.13,136.55h3.61v.45h-3.11v2.07h2.7v.45h-2.7v2.61h-.5v-5.57Z"></path><path class="cls-26" d="M728.48,136.55h.58v.86h-.58v-.86ZM728.53,138.18h.47v3.94h-.47v-3.94Z"></path><path class="cls-26" d="M730.34,138.18h.48v.64c.25-.47.69-.7,1.24-.7.85,0,1.36.5,1.36,1.54v2.45h-.48v-2.28c0-.89-.34-1.3-.99-1.3-.71,0-1.13.48-1.13,1.57v2.01h-.48v-3.94Z"></path><path class="cls-26" d="M736.9,136.55h3.64v.45h-3.15v2.07h2.82v.45h-2.82v2.16h3.15v.45h-3.64v-5.57Z"></path><path class="cls-26" d="M742.7,140.15l-1.46-1.96h.59l1.18,1.63,1.2-1.63h.58l-1.46,1.96,1.47,1.98h-.59l-1.19-1.64-1.19,1.64h-.58l1.46-1.98Z"></path><path class="cls-26" d="M746.23,141.21v-2.65h-.88v-.38h.88v-1.14l.48-.28v1.42h.95v.38h-.95v2.53c0,.44.14.68.5.68.12,0,.28-.02.45-.08v.38c-.2.06-.4.1-.57.1-.52,0-.86-.3-.86-.97Z"></path><path class="cls-26" d="M748.38,140.18c0-1.13.61-2.06,1.73-2.06,1.21,0,1.7.94,1.7,1.81,0,.06,0,.24-.02.34h-2.93c.02.93.52,1.47,1.32,1.47.5,0,.83-.14,1.17-.51l.34.3c-.45.46-.88.65-1.51.65-1.16,0-1.79-.87-1.79-2ZM751.34,139.92s0-.1,0-.15c0-.57-.36-1.24-1.23-1.24-.75,0-1.22.6-1.27,1.39h2.49Z"></path><path class="cls-26" d="M752.95,138.18h.48v.64c.25-.47.69-.7,1.24-.7.85,0,1.36.5,1.36,1.54v2.45h-.48v-2.28c0-.89-.34-1.3-.99-1.3-.71,0-1.13.48-1.13,1.57v2.01h-.48v-3.94Z"></path><path class="cls-26" d="M756.9,141.28l.34-.28c.2.46.66.77,1.26.77.57,0,.95-.27.95-.72,0-.55-.53-.68-1.1-.82-.66-.16-1.23-.38-1.23-1.06,0-.62.53-1.05,1.29-1.05.6,0,1.1.26,1.37.76l-.37.21c-.21-.38-.57-.58-1.01-.58-.48,0-.84.24-.84.62,0,.4.36.54.93.68.67.16,1.43.34,1.43,1.2,0,.71-.56,1.17-1.42,1.17-.79,0-1.35-.4-1.6-.9Z"></path><path class="cls-26" d="M761.01,136.55h.58v.86h-.58v-.86ZM761.06,138.18h.47v3.94h-.47v-3.94Z"></path><path class="cls-26" d="M762.68,140.15c0-1.18.77-2.02,1.88-2.02s1.87.84,1.87,2.02-.78,2.03-1.87,2.03-1.88-.84-1.88-2.03ZM764.55,141.75c.84,0,1.39-.64,1.39-1.6s-.55-1.6-1.39-1.6-1.4.64-1.4,1.6.56,1.6,1.4,1.6Z"></path><path class="cls-26" d="M767.57,138.18h.48v.64c.25-.47.69-.7,1.24-.7.85,0,1.36.5,1.36,1.54v2.45h-.48v-2.28c0-.89-.34-1.3-.99-1.3-.71,0-1.13.48-1.13,1.57v2.01h-.48v-3.94Z"></path><path class="cls-26" d="M771.97,138.36h.58v.86h-.58v-.86ZM771.97,141.27h.58v.85h-.58v-.85Z"></path></g><g><path class="cls-26" d="M725.87,147.44h-1.47v-.39h1.03c.29,0,.44-.1.44-.41v-.49h.48v5.57h-.48v-4.28Z"></path><path class="cls-26" d="M728.39,150.15c0-.7.41-1.25,1.08-1.45-.46-.18-.76-.62-.76-1.19,0-.9.78-1.41,1.54-1.41.86,0,1.53.57,1.53,1.45,0,.55-.3.97-.77,1.15.67.21,1.07.76,1.07,1.45,0,1.09-.9,1.64-1.84,1.64s-1.85-.55-1.85-1.64ZM730.24,151.33c.72,0,1.36-.41,1.36-1.22,0-.73-.56-1.22-1.36-1.22s-1.38.48-1.38,1.22c0,.82.66,1.22,1.38,1.22ZM730.26,148.55c.61,0,1.05-.4,1.05-.98,0-.61-.42-1.03-1.06-1.03-.56,0-1.06.36-1.06.98s.44,1.02,1.07,1.02Z"></path><path class="cls-26" d="M733.07,148.93c0-1.33.3-2.84,1.72-2.84s1.75,1.39,1.75,2.85-.4,2.84-1.72,2.84c-1.44,0-1.75-1.51-1.75-2.85ZM734.82,151.32c.88,0,1.23-1,1.23-2.36s-.36-2.41-1.26-2.41c-.96,0-1.23,1.1-1.23,2.4s.28,2.37,1.26,2.37Z"></path><path class="cls-26" d="M740.05,150.39h-2.77v-.4l2.79-3.84h.46v3.79h.91v.45h-.91v1.34h-.48v-1.34ZM740.05,149.94v-3.15l-2.25,3.15h2.25Z"></path></g><g><path class="cls-26" d="M725.87,157.04h-1.47v-.39h1.03c.29,0,.44-.1.44-.41v-.49h.48v5.57h-.48v-4.28Z"></path><path class="cls-26" d="M731.66,156.2h-3.43v-.45h3.98v.4l-2.75,5.18h-.53l2.74-5.12Z"></path><path class="cls-26" d="M733.07,158.53c0-1.33.3-2.84,1.72-2.84s1.75,1.39,1.75,2.85-.4,2.84-1.72,2.84c-1.44,0-1.75-1.51-1.75-2.85ZM734.82,160.92c.88,0,1.23-1,1.23-2.36s-.36-2.41-1.26-2.41c-.96,0-1.23,1.1-1.23,2.39s.28,2.38,1.26,2.38Z"></path><path class="cls-26" d="M740.05,159.99h-2.77v-.4l2.79-3.84h.46v3.79h.91v.45h-.91v1.34h-.48v-1.34ZM740.05,159.54v-3.15l-2.25,3.15h2.25Z"></path></g><g><path class="cls-26" d="M725.87,166.64h-1.47v-.39h1.03c.29,0,.44-.1.44-.41v-.49h.48v5.57h-.48v-4.28Z"></path><path class="cls-26" d="M729.43,167.56c.23-.14.5-.22.76-.22,1.01,0,1.81.81,1.81,1.81s-.84,1.83-1.87,1.83-1.88-.8-1.88-1.82c0-.37.12-.7.29-1l1.67-2.81h.54l-1.34,2.21ZM730.14,170.53c.76,0,1.39-.6,1.39-1.38s-.62-1.38-1.39-1.38-1.39.59-1.39,1.38.62,1.38,1.39,1.38Z"></path><path class="cls-26" d="M733.07,168.13c0-1.33.3-2.84,1.72-2.84s1.75,1.39,1.75,2.85-.4,2.84-1.72,2.84c-1.44,0-1.75-1.51-1.75-2.85ZM734.82,170.52c.88,0,1.23-1,1.23-2.36s-.36-2.41-1.26-2.41c-.96,0-1.23,1.1-1.23,2.4s.28,2.37,1.26,2.37Z"></path><path class="cls-26" d="M740.05,169.59h-2.77v-.4l2.79-3.84h.46v3.79h.91v.45h-.91v1.34h-.48v-1.34ZM740.05,169.14v-3.15l-2.25,3.15h2.25Z"></path></g><g><path class="cls-26" d="M725.87,176.24h-1.47v-.39h1.03c.29,0,.44-.1.44-.41v-.49h.48v5.57h-.48v-4.28Z"></path><path class="cls-26" d="M728.35,179l.47-.08c.14.7.66,1.21,1.4,1.21.85,0,1.41-.68,1.41-1.48s-.52-1.38-1.34-1.38c-.51,0-.95.24-1.26.69l-.5-.15.5-2.86h2.84v.45h-2.45l-.34,1.96c.38-.39.82-.55,1.27-.55,1.04,0,1.78.82,1.78,1.83s-.81,1.94-1.91,1.94c-.94,0-1.7-.64-1.88-1.58Z"></path><path class="cls-26" d="M733.07,177.73c0-1.33.3-2.84,1.72-2.84s1.75,1.39,1.75,2.85-.4,2.84-1.72,2.84c-1.44,0-1.75-1.51-1.75-2.85ZM734.82,180.12c.88,0,1.23-1,1.23-2.36s-.36-2.41-1.26-2.41c-.96,0-1.23,1.1-1.23,2.39s.28,2.38,1.26,2.38Z"></path><path class="cls-26" d="M740.05,179.19h-2.77v-.4l2.79-3.84h.46v3.79h.91v.45h-.91v1.34h-.48v-1.34ZM740.05,178.74v-3.15l-2.25,3.15h2.25Z"></path></g><g><path class="cls-26" d="M725.87,185.84h-1.47v-.39h1.03c.29,0,.44-.1.44-.41v-.49h.48v5.57h-.48v-4.28Z"></path><path class="cls-26" d="M730.94,188.79h-2.77v-.4l2.79-3.84h.46v3.79h.91v.45h-.91v1.34h-.48v-1.34ZM730.94,188.34v-3.15l-2.25,3.15h2.25Z"></path><path class="cls-26" d="M733.07,187.33c0-1.33.3-2.84,1.72-2.84s1.75,1.39,1.75,2.85-.4,2.84-1.72,2.84c-1.44,0-1.75-1.51-1.75-2.85ZM734.82,189.72c.88,0,1.23-1,1.23-2.36s-.36-2.41-1.26-2.41c-.96,0-1.23,1.1-1.23,2.4s.28,2.37,1.26,2.37Z"></path><path class="cls-26" d="M740.05,188.79h-2.77v-.4l2.79-3.84h.46v3.79h.91v.45h-.91v1.34h-.48v-1.34ZM740.05,188.34v-3.15l-2.25,3.15h2.25Z"></path></g><g><path class="cls-26" d="M724.13,54.24h3.61v.45h-3.11v2.07h2.7v.45h-2.7v2.61h-.5v-5.57Z"></path><path class="cls-26" d="M728.48,54.24h.58v.86h-.58v-.86ZM728.53,55.87h.47v3.94h-.47v-3.94Z"></path><path class="cls-26" d="M730.34,55.87h.48v.64c.25-.47.69-.7,1.24-.7.85,0,1.36.5,1.36,1.54v2.45h-.48v-2.28c0-.89-.34-1.3-.99-1.3-.71,0-1.13.48-1.13,1.57v2.01h-.48v-3.94Z"></path><path class="cls-26" d="M736.9,54.24h3.64v.45h-3.15v2.07h2.82v.45h-2.82v2.16h3.15v.45h-3.64v-5.57Z"></path><path class="cls-26" d="M742.7,57.83l-1.46-1.96h.59l1.18,1.63,1.2-1.63h.58l-1.46,1.96,1.47,1.98h-.59l-1.19-1.64-1.19,1.64h-.58l1.46-1.98Z"></path><path class="cls-26" d="M746.23,58.9v-2.65h-.88v-.38h.88v-1.14l.48-.28v1.42h.95v.38h-.95v2.53c0,.44.14.68.5.68.12,0,.28-.02.45-.08v.38c-.2.06-.4.1-.57.1-.52,0-.86-.3-.86-.97Z"></path><path class="cls-26" d="M748.38,57.87c0-1.13.61-2.05,1.73-2.05,1.21,0,1.7.94,1.7,1.81,0,.06,0,.24-.02.34h-2.93c.02.93.52,1.47,1.32,1.47.5,0,.83-.14,1.17-.51l.34.3c-.45.46-.88.65-1.51.65-1.16,0-1.79-.87-1.79-2ZM751.34,57.6s0-.1,0-.15c0-.57-.36-1.24-1.23-1.24-.75,0-1.22.6-1.27,1.39h2.49Z"></path><path class="cls-26" d="M752.95,55.87h.48v.64c.25-.47.69-.7,1.24-.7.85,0,1.36.5,1.36,1.54v2.45h-.48v-2.28c0-.89-.34-1.3-.99-1.3-.71,0-1.13.48-1.13,1.57v2.01h-.48v-3.94Z"></path><path class="cls-26" d="M756.9,58.97l.34-.28c.2.46.66.77,1.26.77.57,0,.95-.27.95-.72,0-.55-.53-.68-1.1-.82-.66-.16-1.23-.38-1.23-1.06,0-.62.53-1.05,1.29-1.05.6,0,1.1.26,1.37.76l-.37.21c-.21-.38-.57-.58-1.01-.58-.48,0-.84.24-.84.62,0,.4.36.54.93.68.67.16,1.43.34,1.43,1.2,0,.71-.56,1.17-1.42,1.17-.79,0-1.35-.4-1.6-.9Z"></path><path class="cls-26" d="M761.01,54.24h.58v.86h-.58v-.86ZM761.06,55.87h.47v3.94h-.47v-3.94Z"></path><path class="cls-26" d="M762.68,57.84c0-1.18.77-2.02,1.88-2.02s1.87.84,1.87,2.02-.78,2.03-1.87,2.03-1.88-.84-1.88-2.03ZM764.55,59.44c.84,0,1.39-.64,1.39-1.6s-.55-1.6-1.39-1.6-1.4.64-1.4,1.6.56,1.6,1.4,1.6Z"></path><path class="cls-26" d="M767.57,55.87h.48v.64c.25-.47.69-.7,1.24-.7.85,0,1.36.5,1.36,1.54v2.45h-.48v-2.28c0-.89-.34-1.3-.99-1.3-.71,0-1.13.48-1.13,1.57v2.01h-.48v-3.94Z"></path><path class="cls-26" d="M771.97,56.05h.58v.86h-.58v-.86ZM771.97,58.96h.58v.85h-.58v-.85Z"></path></g><g><path class="cls-26" d="M725.87,65.13h-1.47v-.39h1.03c.29,0,.44-.1.44-.41v-.49h.48v5.57h-.48v-4.28Z"></path><path class="cls-26" d="M728.26,67.76l.48-.02c0,.78.58,1.27,1.48,1.27s1.44-.47,1.44-1.2c0-.9-.86-1.14-1.78-1.14v-.38c.7,0,1.48-.21,1.48-1.03,0-.6-.48-1.01-1.16-1.01-.74,0-1.19.44-1.2,1.09l-.47-.02c0-.9.7-1.52,1.68-1.52s1.62.6,1.62,1.42c0,.74-.55,1.08-1.1,1.22.67.11,1.4.5,1.4,1.39,0,.98-.78,1.66-1.93,1.66s-1.94-.68-1.94-1.71Z"></path><path class="cls-26" d="M733.07,66.61c0-1.33.3-2.84,1.72-2.84s1.75,1.39,1.75,2.85-.4,2.84-1.72,2.84c-1.44,0-1.75-1.51-1.75-2.85ZM734.82,69c.88,0,1.23-1,1.23-2.36s-.36-2.41-1.26-2.41c-.96,0-1.23,1.1-1.23,2.4s.28,2.37,1.26,2.37Z"></path><path class="cls-26" d="M740.05,68.08h-2.77v-.4l2.79-3.84h.46v3.79h.91v.45h-.91v1.34h-.48v-1.34ZM740.05,67.63v-3.15l-2.25,3.15h2.25Z"></path></g><g><path class="cls-26" d="M725.87,74.73h-1.47v-.39h1.03c.29,0,.44-.1.44-.41v-.49h.48v5.57h-.48v-4.28Z"></path><path class="cls-26" d="M730.94,77.68h-2.77v-.4l2.79-3.84h.46v3.79h.91v.45h-.91v1.34h-.48v-1.34ZM730.94,77.23v-3.15l-2.25,3.15h2.25Z"></path><path class="cls-26" d="M733.07,76.21c0-1.33.3-2.84,1.72-2.84s1.75,1.39,1.75,2.85-.4,2.84-1.72,2.84c-1.44,0-1.75-1.51-1.75-2.85ZM734.82,78.6c.88,0,1.23-1,1.23-2.36s-.36-2.41-1.26-2.41c-.96,0-1.23,1.1-1.23,2.4s.28,2.37,1.26,2.37Z"></path><path class="cls-26" d="M740.05,77.68h-2.77v-.4l2.79-3.84h.46v3.79h.91v.45h-.91v1.34h-.48v-1.34ZM740.05,77.23v-3.15l-2.25,3.15h2.25Z"></path></g><g><path class="cls-26" d="M725.87,84.33h-1.47v-.39h1.03c.29,0,.44-.1.44-.41v-.49h.48v5.57h-.48v-4.28Z"></path><path class="cls-26" d="M728.39,87.03c0-.7.41-1.25,1.08-1.45-.46-.18-.76-.62-.76-1.19,0-.9.78-1.41,1.54-1.41.86,0,1.53.57,1.53,1.45,0,.55-.3.97-.77,1.15.67.21,1.07.76,1.07,1.45,0,1.09-.9,1.64-1.84,1.64s-1.85-.55-1.85-1.64ZM730.24,88.22c.72,0,1.36-.41,1.36-1.22,0-.73-.56-1.22-1.36-1.22s-1.38.48-1.38,1.22c0,.82.66,1.22,1.38,1.22ZM730.26,85.44c.61,0,1.05-.4,1.05-.98,0-.61-.42-1.03-1.06-1.03-.56,0-1.06.36-1.06.98s.44,1.02,1.07,1.02Z"></path><path class="cls-26" d="M733.07,85.81c0-1.33.3-2.84,1.72-2.84s1.75,1.39,1.75,2.85-.4,2.84-1.72,2.84c-1.44,0-1.75-1.51-1.75-2.85ZM734.82,88.2c.88,0,1.23-1,1.23-2.36s-.36-2.41-1.26-2.41c-.96,0-1.23,1.1-1.23,2.39s.28,2.38,1.26,2.38Z"></path><path class="cls-26" d="M740.05,87.28h-2.77v-.4l2.79-3.84h.46v3.79h.91v.45h-.91v1.34h-.48v-1.34ZM740.05,86.83v-3.15l-2.25,3.15h2.25Z"></path></g><g><path class="cls-26" d="M725.87,93.93h-1.47v-.39h1.03c.29,0,.44-.1.44-.41v-.49h.48v5.57h-.48v-4.28Z"></path><path class="cls-26" d="M728.35,96.68l.47-.08c.14.7.66,1.21,1.4,1.21.85,0,1.41-.68,1.41-1.48s-.52-1.38-1.34-1.38c-.51,0-.95.24-1.26.69l-.5-.15.5-2.86h2.84v.45h-2.45l-.34,1.96c.38-.39.82-.55,1.27-.55,1.04,0,1.78.82,1.78,1.83s-.81,1.94-1.91,1.94c-.94,0-1.7-.64-1.88-1.58Z"></path><path class="cls-26" d="M733.07,95.41c0-1.33.3-2.84,1.72-2.84s1.75,1.39,1.75,2.85-.4,2.84-1.72,2.84c-1.44,0-1.75-1.51-1.75-2.85ZM734.82,97.8c.88,0,1.23-1,1.23-2.36s-.36-2.41-1.26-2.41c-.96,0-1.23,1.1-1.23,2.4s.28,2.37,1.26,2.37Z"></path><path class="cls-26" d="M740.05,96.88h-2.77v-.4l2.79-3.84h.46v3.79h.91v.45h-.91v1.34h-.48v-1.34ZM740.05,96.43v-3.15l-2.25,3.15h2.25Z"></path></g><g><path class="cls-26" d="M725.87,103.53h-1.47v-.39h1.03c.29,0,.44-.1.44-.41v-.49h.48v5.57h-.48v-4.28Z"></path><path class="cls-26" d="M729.43,104.45c.23-.14.5-.22.76-.22,1.01,0,1.81.81,1.81,1.81s-.84,1.83-1.87,1.83-1.88-.8-1.88-1.82c0-.37.12-.7.29-1l1.67-2.81h.54l-1.34,2.21ZM730.14,107.42c.76,0,1.39-.6,1.39-1.38s-.62-1.38-1.39-1.38-1.39.59-1.39,1.38.62,1.38,1.39,1.38Z"></path><path class="cls-26" d="M733.07,105.01c0-1.33.3-2.84,1.72-2.84s1.75,1.39,1.75,2.85-.4,2.84-1.72,2.84c-1.44,0-1.75-1.51-1.75-2.85ZM734.82,107.4c.88,0,1.23-1,1.23-2.36s-.36-2.41-1.26-2.41c-.96,0-1.23,1.1-1.23,2.39s.28,2.38,1.26,2.38Z"></path><path class="cls-26" d="M740.05,106.48h-2.77v-.4l2.79-3.84h.46v3.79h.91v.45h-.91v1.34h-.48v-1.34ZM740.05,106.03v-3.15l-2.25,3.15h2.25Z"></path><path class="cls-26" d="M742.75,106.69h.53l-1.06,2.38h-.34l.87-2.38Z"></path><path class="cls-26" d="M748.24,103.53h-1.47v-.39h1.03c.29,0,.44-.1.44-.41v-.49h.48v5.57h-.48v-4.28Z"></path><path class="cls-26" d="M754.04,102.69h-3.43v-.45h3.98v.4l-2.75,5.18h-.53l2.74-5.12Z"></path><path class="cls-26" d="M755.43,105.01c0-1.33.3-2.84,1.72-2.84s1.75,1.39,1.75,2.85-.4,2.84-1.72,2.84c-1.44,0-1.75-1.51-1.75-2.85ZM757.19,107.4c.88,0,1.23-1,1.23-2.36s-.36-2.41-1.26-2.41c-.96,0-1.23,1.1-1.23,2.39s.28,2.38,1.26,2.38Z"></path><path class="cls-26" d="M762.42,106.48h-2.77v-.4l2.79-3.84h.46v3.79h.91v.45h-.91v1.34h-.48v-1.34ZM762.42,106.03v-3.15l-2.25,3.15h2.25Z"></path></g><g><path class="cls-26" d="M149.42,708.55h3.61v.45h-3.11v2.07h2.7v.45h-2.7v2.61h-.5v-5.57Z"></path><path class="cls-26" d="M153.76,708.55h.58v.86h-.58v-.86ZM153.82,710.18h.47v3.94h-.47v-3.94Z"></path><path class="cls-26" d="M155.62,710.18h.48v.64c.25-.47.69-.7,1.24-.7.85,0,1.36.5,1.36,1.54v2.46h-.48v-2.28c0-.89-.34-1.3-.99-1.3-.71,0-1.13.48-1.13,1.57v2.01h-.48v-3.94Z"></path><path class="cls-26" d="M162.19,708.55h3.64v.45h-3.15v2.07h2.82v.45h-2.82v2.16h3.15v.45h-3.64v-5.57Z"></path><path class="cls-26" d="M168,712.15l-1.46-1.96h.59l1.18,1.63,1.2-1.63h.58l-1.46,1.96,1.47,1.98h-.59l-1.19-1.64-1.19,1.64h-.58l1.46-1.98Z"></path><path class="cls-26" d="M171.52,713.21v-2.65h-.88v-.38h.88v-1.14l.48-.28v1.42h.95v.38h-.95v2.54c0,.44.14.68.5.68.12,0,.28-.02.45-.08v.38c-.2.06-.4.1-.57.1-.52,0-.86-.3-.86-.97Z"></path><path class="cls-26" d="M173.67,712.18c0-1.13.61-2.05,1.73-2.05,1.21,0,1.7.94,1.7,1.81,0,.06,0,.24-.02.34h-2.93c.02.93.52,1.47,1.32,1.47.5,0,.83-.14,1.17-.51l.34.3c-.45.46-.88.65-1.51.65-1.16,0-1.79-.87-1.79-2ZM176.63,711.92s0-.1,0-.15c0-.57-.36-1.24-1.23-1.24-.75,0-1.22.6-1.27,1.39h2.49Z"></path><path class="cls-26" d="M178.24,710.18h.48v.64c.25-.47.69-.7,1.24-.7.85,0,1.36.5,1.36,1.54v2.46h-.48v-2.28c0-.89-.34-1.3-.99-1.3-.71,0-1.13.48-1.13,1.57v2.01h-.48v-3.94Z"></path><path class="cls-26" d="M182.19,713.28l.34-.28c.2.46.66.77,1.26.77.57,0,.95-.27.95-.72,0-.55-.53-.68-1.1-.82-.66-.16-1.23-.38-1.23-1.06,0-.62.53-1.05,1.29-1.05.6,0,1.1.26,1.37.76l-.37.21c-.21-.38-.57-.58-1.01-.58-.48,0-.84.24-.84.62,0,.4.36.54.93.68.67.16,1.43.34,1.43,1.2,0,.71-.56,1.17-1.42,1.17-.79,0-1.35-.4-1.6-.9Z"></path><path class="cls-26" d="M186.3,708.55h.58v.86h-.58v-.86ZM186.35,710.18h.47v3.94h-.47v-3.94Z"></path><path class="cls-26" d="M187.97,712.15c0-1.18.77-2.02,1.88-2.02s1.87.84,1.87,2.02-.78,2.03-1.87,2.03-1.88-.84-1.88-2.03ZM189.84,713.75c.84,0,1.39-.64,1.39-1.6s-.55-1.6-1.39-1.6-1.4.64-1.4,1.6.56,1.6,1.4,1.6Z"></path><path class="cls-26" d="M192.87,710.18h.48v.64c.25-.47.69-.7,1.24-.7.85,0,1.36.5,1.36,1.54v2.46h-.48v-2.28c0-.89-.34-1.3-.99-1.3-.71,0-1.13.48-1.13,1.57v2.01h-.48v-3.94Z"></path><path class="cls-26" d="M197.27,710.36h.58v.86h-.58v-.86ZM197.27,713.27h.58v.85h-.58v-.85Z"></path></g><g><path class="cls-26" d="M151.16,719.44h-1.47v-.39h1.03c.29,0,.44-.1.44-.41v-.49h.48v5.57h-.48v-4.28Z"></path><path class="cls-26" d="M153.68,722.15c0-.7.41-1.25,1.08-1.45-.46-.18-.76-.62-.76-1.19,0-.9.78-1.41,1.54-1.41.86,0,1.53.57,1.53,1.45,0,.55-.3.97-.77,1.15.67.21,1.07.76,1.07,1.45,0,1.09-.9,1.63-1.84,1.63s-1.85-.55-1.85-1.63ZM155.53,723.33c.72,0,1.36-.41,1.36-1.22,0-.73-.56-1.21-1.36-1.21s-1.38.48-1.38,1.21c0,.82.66,1.22,1.38,1.22ZM155.55,720.56c.61,0,1.05-.4,1.05-.98,0-.61-.42-1.03-1.06-1.03-.56,0-1.06.36-1.06.98s.44,1.02,1.07,1.02Z"></path><path class="cls-26" d="M158.35,720.93c0-1.33.3-2.84,1.72-2.84s1.75,1.39,1.75,2.85-.4,2.84-1.72,2.84c-1.44,0-1.75-1.51-1.75-2.85ZM160.11,723.32c.88,0,1.23-1,1.23-2.36s-.36-2.41-1.26-2.41c-.96,0-1.23,1.1-1.23,2.39s.28,2.37,1.26,2.37Z"></path><path class="cls-26" d="M165.35,722.39h-2.77v-.4l2.79-3.84h.46v3.79h.91v.45h-.91v1.33h-.48v-1.33ZM165.35,721.94v-3.15l-2.25,3.15h2.25Z"></path></g><g><path class="cls-26" d="M151.16,729.04h-1.47v-.39h1.03c.29,0,.44-.1.44-.41v-.49h.48v5.57h-.48v-4.28Z"></path><path class="cls-26" d="M156.96,728.2h-3.43v-.45h3.98v.4l-2.75,5.18h-.53l2.74-5.12Z"></path><path class="cls-26" d="M158.35,730.53c0-1.33.3-2.84,1.72-2.84s1.75,1.39,1.75,2.85-.4,2.84-1.72,2.84c-1.44,0-1.75-1.51-1.75-2.85ZM160.11,732.92c.88,0,1.23-1,1.23-2.36s-.36-2.41-1.26-2.41c-.96,0-1.23,1.1-1.23,2.39s.28,2.37,1.26,2.37Z"></path><path class="cls-26" d="M165.35,731.99h-2.77v-.4l2.79-3.84h.46v3.79h.91v.45h-.91v1.33h-.48v-1.33ZM165.35,731.54v-3.15l-2.25,3.15h2.25Z"></path></g><g><path class="cls-26" d="M151.16,738.64h-1.47v-.39h1.03c.29,0,.44-.1.44-.41v-.49h.48v5.57h-.48v-4.28Z"></path><path class="cls-26" d="M154.73,739.56c.23-.14.5-.22.76-.22,1.01,0,1.81.81,1.81,1.81s-.84,1.83-1.87,1.83-1.88-.79-1.88-1.82c0-.37.12-.7.29-1l1.67-2.81h.54l-1.34,2.21ZM155.43,742.53c.76,0,1.39-.6,1.39-1.38s-.62-1.38-1.39-1.38-1.39.59-1.39,1.38.62,1.38,1.39,1.38Z"></path><path class="cls-26" d="M158.35,740.13c0-1.33.3-2.84,1.72-2.84s1.75,1.39,1.75,2.85-.4,2.84-1.72,2.84c-1.44,0-1.75-1.51-1.75-2.85ZM160.11,742.52c.88,0,1.23-1,1.23-2.36s-.36-2.41-1.26-2.41c-.96,0-1.23,1.1-1.23,2.39s.28,2.37,1.26,2.37Z"></path><path class="cls-26" d="M165.35,741.59h-2.77v-.4l2.79-3.84h.46v3.79h.91v.45h-.91v1.33h-.48v-1.33ZM165.35,741.14v-3.15l-2.25,3.15h2.25Z"></path></g><g><path class="cls-26" d="M151.16,748.24h-1.47v-.39h1.03c.29,0,.44-.1.44-.41v-.49h.48v5.57h-.48v-4.28Z"></path><path class="cls-26" d="M153.65,751l.47-.08c.14.7.66,1.21,1.4,1.21.85,0,1.41-.68,1.41-1.48s-.52-1.38-1.34-1.38c-.51,0-.95.24-1.26.69l-.5-.15.5-2.86h2.84v.45h-2.45l-.34,1.96c.38-.39.82-.55,1.27-.55,1.04,0,1.78.82,1.78,1.83s-.81,1.94-1.91,1.94c-.94,0-1.7-.64-1.88-1.58Z"></path><path class="cls-26" d="M158.35,749.73c0-1.33.3-2.84,1.72-2.84s1.75,1.39,1.75,2.85-.4,2.84-1.72,2.84c-1.44,0-1.75-1.51-1.75-2.85ZM160.11,752.12c.88,0,1.23-1,1.23-2.36s-.36-2.41-1.26-2.41c-.96,0-1.23,1.1-1.23,2.39s.28,2.37,1.26,2.37Z"></path><path class="cls-26" d="M165.35,751.19h-2.77v-.4l2.79-3.84h.46v3.79h.91v.45h-.91v1.33h-.48v-1.33ZM165.35,750.74v-3.15l-2.25,3.15h2.25Z"></path></g><g><path class="cls-26" d="M151.16,757.84h-1.47v-.39h1.03c.29,0,.44-.1.44-.41v-.49h.48v5.57h-.48v-4.28Z"></path><path class="cls-26" d="M156.23,760.79h-2.77v-.4l2.79-3.84h.46v3.79h.91v.45h-.91v1.33h-.48v-1.33ZM156.23,760.34v-3.15l-2.25,3.15h2.25Z"></path><path class="cls-26" d="M158.35,759.33c0-1.33.3-2.84,1.72-2.84s1.75,1.39,1.75,2.85-.4,2.84-1.72,2.84c-1.44,0-1.75-1.51-1.75-2.85ZM160.11,761.72c.88,0,1.23-1,1.23-2.36s-.36-2.41-1.26-2.41c-.96,0-1.23,1.1-1.23,2.39s.28,2.37,1.26,2.37Z"></path><path class="cls-26" d="M165.35,760.79h-2.77v-.4l2.79-3.84h.46v3.79h.91v.45h-.91v1.33h-.48v-1.33ZM165.35,760.34v-3.15l-2.25,3.15h2.25Z"></path></g><polyline class="cls-3" points="687.74 559.32 669.77 559.32 658.46 514.04"></polyline><path class="cls-25" d="M657.48,510.13l3.38,5s-2.4-1.09-4.01,1l.63-6Z"></path><polyline class="cls-3" points="715.45 149.31 699.48 149.31 642.58 120.35"></polyline><path class="cls-25" d="M638.98,118.52l5.99.73s-2.39,1.1-1.87,3.68l-4.12-4.41Z"></path><polyline class="cls-3" points="715.45 67 695.48 67 670.38 77.68"></polyline><path class="cls-25" d="M666.66,79.26l4.41-4.12s-.7,2.54,1.62,3.8l-6.03.32Z"></path><polyline class="cls-3" points="140.74 721.32 123.48 721.32 112.67 685.99"></polyline><path class="cls-25" d="M111.48,682.13l3.64,4.82s-2.45-.96-3.95,1.21l.31-6.03Z"></path><polyline class="cls-3" points="687.74 568.99 664.1 568.99 650.49 516.03"></polyline><path class="cls-25" d="M649.48,512.13l3.41,4.98s-2.41-1.07-4,1.03l.59-6.01Z"></path><polyline class="cls-3" points="715.45 158.99 695.81 158.99 642.92 126.25"></polyline><path class="cls-25" d="M639.48,124.13l5.91,1.23s-2.48.89-2.17,3.51l-3.74-4.74Z"></path><polyline class="cls-3" points="715.45 76.68 696.81 76.68 670.97 80.1"></polyline><path class="cls-25" d="M666.97,80.63l5.35-2.79s-1.35,2.26.54,4.09l-5.89-1.3Z"></path><polyline class="cls-3" points="140.74 730.99 121.1 730.99 107.65 686.39"></polyline><path class="cls-25" d="M106.48,682.53l3.61,4.83s-2.45-.97-3.95,1.19l.34-6.03Z"></path><polyline class="cls-3" points="687.69 578.67 653.57 578.67 638.48 519.04"></polyline><path class="cls-25" d="M637.48,515.13l3.39,4.99s-2.4-1.08-4,1.01l.61-6.01Z"></path><polyline class="cls-3" points="715.41 168.67 685.48 168.67 643.58 133.71"></polyline><path class="cls-25" d="M640.48,131.13l5.68,2.05s-2.58.54-2.65,3.17l-3.03-5.22Z"></path><polyline class="cls-3" points="715.41 86.36 697.48 86.36 670.66 82.69"></polyline><path class="cls-25" d="M666.66,82.14l5.9-1.28s-1.9,1.82-.56,4.09l-5.34-2.82Z"></path><polyline class="cls-3" points="140.69 740.67 118.57 740.67 102.63 687"></polyline><path class="cls-25" d="M101.48,683.13l3.59,4.85s-2.44-.98-3.96,1.18l.36-6.03Z"></path><polyline class="cls-3" points="687.74 588.35 639.63 588.35 622.51 523.03"></polyline><path class="cls-25" d="M621.48,519.13l3.44,4.96s-2.41-1.06-3.99,1.05l.56-6.01Z"></path><polyline class="cls-3" points="715.45 178.35 682.35 178.35 643.95 142.87"></polyline><path class="cls-25" d="M640.98,140.13l5.57,2.33s-2.6.41-2.8,3.03l-2.77-5.37Z"></path><polyline class="cls-3" points="715.45 96.04 694.35 96.04 670.38 85.81"></polyline><path class="cls-25" d="M666.66,84.23l6.03.33s-2.31,1.26-1.62,3.8l-4.41-4.12Z"></path><polyline class="cls-3" points="140.74 750.35 111.63 750.35 93.61 688"></polyline><path class="cls-25" d="M92.48,684.13l3.56,4.88s-2.44-1-3.97,1.15l.41-6.02Z"></path><polyline class="cls-3" points="687.74 597.35 621.05 597.35 604.1 528.23"></polyline><path class="cls-25" d="M603.14,524.31l3.36,5.02s-2.39-1.1-4.01.98l.65-6Z"></path><polyline class="cls-3" points="715.45 187.35 674.77 187.35 644.14 152.35"></polyline><path class="cls-25" d="M641.48,149.31l5.29,2.91s-2.63.13-3.11,2.72l-2.18-5.63Z"></path><polyline class="cls-3" points="715.45 105.04 686.77 105.04 669.63 89.22"></polyline><path class="cls-25" d="M666.66,86.49l5.57,2.33s-2.6.41-2.8,3.03l-2.77-5.36Z"></path><polyline class="cls-3" points="140.74 759.35 104.05 759.35 83.61 689"></polyline><path class="cls-25" d="M82.48,685.13l3.57,4.87s-2.44-.99-3.96,1.15l.4-6.02Z"></path></g></g></svg> 