<?xml version="1.0" encoding="UTF-8"?> <svg xmlns="http://www.w3.org/2000/svg" xmlns:xlink="http://www.w3.org/1999/xlink" id="Layer_2" data-name="Layer 2" viewBox="0 0 794.69 592.01"><defs><style> .cls-1, .cls-2, .cls-3, .cls-4, .cls-5, .cls-6, .cls-7, .cls-8, .cls-9, .cls-10, .cls-11, .cls-12, .cls-13, .cls-14, .cls-15, .cls-16, .cls-17, .cls-18, .cls-19, .cls-20 { fill: none; } .cls-2 { stroke-dasharray: 1.01 1.01; } .cls-2, .cls-3, .cls-5, .cls-6, .cls-7, .cls-8, .cls-9, .cls-10, .cls-11, .cls-12, .cls-13, .cls-14, .cls-15, .cls-18, .cls-19, .cls-20 { stroke-linecap: round; stroke-linejoin: round; } .cls-2, .cls-3, .cls-6, .cls-7, .cls-8, .cls-9, .cls-11, .cls-13, .cls-15, .cls-18 { stroke-width: .15px; } .cls-2, .cls-3, .cls-6, .cls-7, .cls-8, .cls-9, .cls-13, .cls-15, .cls-18 { stroke: #55453d; } .cls-3 { stroke-dasharray: 1.01 1.01; } .cls-4 { stroke: #afa49f; } .cls-4, .cls-5, .cls-12, .cls-14, .cls-17, .cls-19 { stroke-width: .25px; } .cls-4, .cls-16, .cls-17 { stroke-miterlimit: 10; } .cls-5 { stroke-dasharray: 1.54 1.54; } .cls-5, .cls-11, .cls-12, .cls-14 { stroke: #75655e; } .cls-21 { fill: #3a2a22; } .cls-6 { stroke-dasharray: 1 1; } .cls-7 { stroke-dasharray: 1.01 1.01; } .cls-9 { stroke-dasharray: 1.01 1.01; } .cls-22 { clip-path: url(#clippath-1); } .cls-23 { fill: #fff; } .cls-10 { stroke-width: .5px; } .cls-10, .cls-16, .cls-19, .cls-20 { stroke: #3a2a22; } .cls-24 { opacity: .75; } .cls-25 { fill: #bc8ebc; } .cls-13 { stroke-dasharray: 1.01 1.01; } .cls-14 { stroke-dasharray: 6.32 5.26; } .cls-15 { stroke-dasharray: 1.02 1.02; } .cls-16 { stroke-width: .75px; } .cls-17 { stroke: #bc8ebc; } .cls-18 { stroke-dasharray: 1.01 1.01; } .cls-26 { fill: #afa49f; } .cls-20 { stroke-width: .35px; } .cls-27 { fill: #75655e; } .cls-28 { clip-path: url(#clippath); } </style><clipPath id="clippath"><rect class="cls-1" x="100.2" y="93.14" width="71.95" height="45.61"></rect></clipPath><clipPath id="clippath-1"><rect class="cls-1" x="100.2" y="93.14" width="71.95" height="45.61"></rect></clipPath></defs><g id="Layer_1-2" data-name="Layer 1"><g><polygon class="cls-23" points=".38 142.2 32 140.89 78.66 139.23 125.41 138.02 172.07 137.1 172.07 79.72 159.05 80 158.91 74.17 158.86 71.87 172.07 71.68 212.08 71.13 252.09 71.03 292.01 71.4 332.02 72.05 371.94 73.16 384.87 73.62 384.79 75.93 384.59 81.76 414.35 82.86 453.25 84.73 453.62 76.67 498.99 79.35 537.79 82.03 576.69 85.08 615.5 88.5 654.22 92.29 692.93 96.54 696.1 96.91 696.1 408.46 794.32 408.46 794.32 571.63 .37 571.63 .38 142.2"></polygon><line class="cls-8" x1="159.05" y1="80" x2="158.55" y2="80.01"></line><line class="cls-18" x1="157.53" y1="80.03" x2="135.75" y2="80.53"></line><polyline class="cls-8" points="135.24 80.54 134.74 80.55 134.73 80.05"></polyline><line class="cls-15" x1="134.71" y1="79.03" x2="134.58" y2="73.43"></line><polyline class="cls-8" points="134.57 72.92 134.56 72.42 135.06 72.41"></polyline><line class="cls-18" x1="136.07" y1="72.39" x2="157.86" y2="71.89"></line><line class="cls-8" x1="158.36" y1="71.88" x2="158.86" y2="71.87"></line><line class="cls-8" x1="136.11" y1="72.39" x2="136.12" y2="72.89"></line><line class="cls-15" x1="136.14" y1="73.9" x2="136.27" y2="79.51"></line><line class="cls-8" x1="136.28" y1="80.02" x2="136.29" y2="80.52"></line><line class="cls-8" x1="138.84" y1="72.32" x2="138.85" y2="72.82"></line><line class="cls-15" x1="138.88" y1="73.84" x2="139" y2="79.44"></line><line class="cls-8" x1="139.01" y1="79.95" x2="139.03" y2="80.45"></line><line class="cls-8" x1="146.76" y1="72.14" x2="146.77" y2="72.64"></line><line class="cls-15" x1="146.79" y1="73.66" x2="146.92" y2="79.27"></line><line class="cls-8" x1="146.93" y1="79.77" x2="146.94" y2="80.27"></line><line class="cls-8" x1="384.87" y1="73.62" x2="385.37" y2="73.64"></line><line class="cls-6" x1="386.37" y1="73.68" x2="413.72" y2="74.78"></line><polyline class="cls-8" points="414.22 74.8 414.72 74.82 414.7 75.32"></polyline><line class="cls-7" x1="414.66" y1="76.33" x2="414.43" y2="81.86"></line><line class="cls-8" x1="414.41" y1="82.36" x2="414.39" y2="82.86"></line><line class="cls-8" x1="412.37" y1="74.73" x2="412.35" y2="75.23"></line><line class="cls-7" x1="412.3" y1="76.23" x2="412.08" y2="81.77"></line><line class="cls-8" x1="412.06" y1="82.27" x2="412.04" y2="82.77"></line><line class="cls-8" x1="406.59" y1="74.5" x2="406.57" y2="75"></line><line class="cls-2" x1="406.53" y1="76.01" x2="406.31" y2="81.56"></line><line class="cls-8" x1="406.29" y1="82.06" x2="406.27" y2="82.56"></line><line class="cls-8" x1="399.1" y1="74.19" x2="399.08" y2="74.69"></line><line class="cls-3" x1="399.03" y1="75.71" x2="398.81" y2="81.28"></line><line class="cls-8" x1="398.79" y1="81.79" x2="398.77" y2="82.29"></line><line class="cls-8" x1="451.95" y1="76.58" x2="453.62" y2="76.67"></line><line class="cls-8" x1="451.95" y1="76.58" x2="451.93" y2="77.08"></line><line class="cls-13" x1="451.87" y1="78.09" x2="451.56" y2="83.64"></line><line class="cls-8" x1="451.53" y1="84.15" x2="451.51" y2="84.65"></line><line class="cls-8" x1="452.51" y1="76.61" x2="452.48" y2="77.11"></line><line class="cls-9" x1="452.42" y1="78.12" x2="452.11" y2="83.67"></line><line class="cls-8" x1="452.09" y1="84.17" x2="452.06" y2="84.67"></line><polyline class="cls-20" points="498.99 93.21 456.67 90.72 414.35 88.68 371.94 87.02"></polyline><polyline class="cls-20" points="498.99 95.21 456.67 92.72 414.35 90.68 371.94 89.02"></polyline><g><path class="cls-8" d="M775.23,515.34c-25.57,0-43.48,20.73-43.48,46.29"></path><path class="cls-8" d="M588.05,371.15c-23.13,0-39.35,18.62-39.35,41.58"></path><path class="cls-8" d="M642.21,325.98c0,23.13-18.62,39.35-41.58,39.35"></path><path class="cls-8" d="M604.22,521.3c-23.13,0-39.35-18.62-39.35-41.58"></path><path class="cls-8" d="M179.08,516.68c-23.13,0-39.35-18.62-39.35-41.58"></path><path class="cls-8" d="M144.36,419.74c0-23.13,18.62-39.35,41.58-39.35"></path><path class="cls-8" d="M376.48,133.22c23.13,0,39.35,18.62,39.35,41.58"></path></g><line class="cls-8" x1="731.74" y1="571.63" x2="778.03" y2="571.63"></line><line class="cls-8" x1="775.23" y1="561.63" x2="731.74" y2="561.63"></line><rect class="cls-20" x="775.23" y="515.34" width="2.81" height="46.29"></rect><rect class="cls-20" x="588.05" y="371.15" width="2.23" height="41.58"></rect><rect class="cls-20" x="600.63" y="323.75" width="41.58" height="2.23"></rect><rect class="cls-20" x="622.62" y="473.9" width="41.58" height="2.23"></rect><rect class="cls-20" x="604.22" y="479.72" width="2.23" height="41.58"></rect><rect class="cls-20" x="179.08" y="475.1" width="2.23" height="41.58"></rect><rect class="cls-20" x="124.77" y="383.81" width="2.23" height="41.58"></rect><rect class="cls-20" x="538.94" y="297.78" width="2.23" height="48.51"></rect><rect class="cls-20" x="541.17" y="346.29" width="2.23" height="48.51"></rect><rect class="cls-20" x="432.55" y="476.81" width="41.58" height="2.23"></rect><rect class="cls-20" x="453.34" y="474.58" width="41.58" height="2.23"></rect><rect class="cls-20" x="144.36" y="419.74" width="41.58" height="2.23"></rect><rect class="cls-20" x="374.25" y="133.22" width="2.23" height="41.58"></rect><rect class="cls-20" x="706.96" y="484.34" width="2.23" height="69.3"></rect><line class="cls-20" x1="706.96" y1="518.99" x2="709.2" y2="518.99"></line><polyline class="cls-12" points="242.72 449.81 241.97 449.81 241.97 450.56"></polyline><line class="cls-5" x1="241.97" y1="452.1" x2="241.97" y2="475.91"></line><polyline class="cls-12" points="241.97 476.68 241.97 477.43 242.72 477.43"></polyline><line class="cls-5" x1="244.26" y1="477.43" x2="268.07" y2="477.42"></line><polyline class="cls-12" points="268.83 477.42 269.58 477.42 269.58 476.67"></polyline><line class="cls-5" x1="269.58" y1="475.14" x2="269.58" y2="451.33"></line><polyline class="cls-12" points="269.58 450.56 269.58 449.81 268.83 449.81"></polyline><line class="cls-5" x1="267.3" y1="449.81" x2="243.49" y2="449.82"></line><polyline class="cls-12" points="346.21 449.81 345.46 449.81 345.46 450.56"></polyline><line class="cls-5" x1="345.46" y1="452.1" x2="345.46" y2="475.91"></line><polyline class="cls-12" points="345.46 476.67 345.46 477.42 346.21 477.42"></polyline><line class="cls-5" x1="347.74" y1="477.42" x2="371.55" y2="477.42"></line><polyline class="cls-12" points="372.32 477.42 373.07 477.42 373.07 476.67"></polyline><line class="cls-5" x1="373.07" y1="475.14" x2="373.07" y2="451.33"></line><polyline class="cls-12" points="373.07 450.56 373.07 449.81 372.32 449.81"></polyline><line class="cls-5" x1="370.78" y1="449.81" x2="346.97" y2="449.81"></line><line class="cls-12" x1="271.55" y1="540.15" x2="274.55" y2="540.15"></line><line class="cls-14" x1="279.82" y1="540.15" x2="369.82" y2="540.15"></line><line class="cls-12" x1="372.45" y1="540.15" x2="375.45" y2="540.15"></line><line class="cls-20" x1="417.03" y1="528.23" x2="195.18" y2="528.24"></line><line class="cls-20" x1="235.65" y1="528.24" x2="235.65" y2="555.95"></line><line class="cls-20" x1="271.4" y1="528.24" x2="271.41" y2="555.95"></line><line class="cls-20" x1="375.45" y1="528.23" x2="375.45" y2="555.95"></line><line class="cls-20" x1="271.4" y1="530.74" x2="195.18" y2="530.74"></line><line class="cls-20" x1="417.03" y1="530.74" x2="375.45" y2="530.74"></line><rect class="cls-20" x="237.95" y="427.8" width="138.6" height="49.62"></rect><g><rect class="cls-20" x="325.34" y="447.48" width="1.74" height="9.78" rx=".59" ry=".59"></rect><path class="cls-20" d="M326.21,463.16c.49,0,.9.4.9.9s-.4.9-.9.9-.9-.4-.9-.9.4-.9.9-.9Z"></path></g><polyline class="cls-20" points="327.08 448.8 329.5 448.8 329.5 450.35 327.08 450.35"></polyline><line class="cls-20" x1="328.64" y1="450.35" x2="328.64" y2="448.8"></line><polyline class="cls-20" points="327.08 452.66 339.13 452.66 339.14 474.42 313.29 474.42 313.29 452.66 325.34 452.66"></polyline><polyline class="cls-20" points="325.34 453.74 314.37 453.74 314.37 473.34 338.06 473.34 338.05 453.74 327.08 453.74"></polyline><polyline class="cls-20" points="185.93 528.57 102.2 528.58 102.2 553.72"></polyline><path class="cls-20" d="M126.14,545.63h-9.87c-.4,0-.72-.32-.72-.72v-10.9c0-.4.32-.72.72-.72h20.82c.4,0,.72.32.72.72v10.9c0,.4-.32.72-.72.72h-9.48"></path><rect class="cls-20" x="126.14" y="543.2" width="1.47" height="5.89"></rect><g><circle class="cls-20" cx="126.88" cy="539.46" r=".84"></circle><path class="cls-20" d="M160.9,545.63h-9.87c-.4,0-.72-.32-.72-.72v-10.9c0-.4.32-.72.72-.72h20.82c.4,0,.72.32.72.72v10.9c0,.4-.32.72-.72.72h-9.48"></path></g><rect class="cls-20" x="160.9" y="543.2" width="1.47" height="5.89"></rect><circle class="cls-20" cx="161.64" cy="539.46" r=".84"></circle><line class="cls-20" x1="61.19" y1="477.41" x2="61.2" y2="552.78"></line><line class="cls-20" x1="59.91" y1="477.41" x2="59.92" y2="553.6"></line><line class="cls-20" x1="59.91" y1="482.09" x2="61.2" y2="482.09"></line><line class="cls-20" x1="59.91" y1="520.09" x2="61.2" y2="520.09"></line><line class="cls-20" x1="19.61" y1="540.21" x2="59.92" y2="540.21"></line><g><path class="cls-20" d="M40.97,489.33c0,.67-.54,1.21-1.21,1.21s-1.21-.54-1.21-1.21.54-1.21,1.21-1.21,1.21.54,1.21,1.21Z"></path><path class="cls-20" d="M44.94,489.33c0,2.86-2.32,5.18-5.18,5.18s-5.18-2.32-5.18-5.18,2.32-5.18,5.18-5.18,5.18,2.32,5.18,5.18Z"></path><rect class="cls-20" x="72.9" y="546.14" width="17.6" height="7.45" rx="1.08" ry="1.08"></rect><path class="cls-20" d="M86.16,542c.28,0,.54-.11.73-.32,1.88-2.09,3.09-5.3,3.09-8.9,0-6.31-3.71-11.42-8.28-11.42s-8.28,5.11-8.28,11.42c0,3.6,1.2,6.8,3.08,8.9.19.21.46.32.73.32h8.92Z"></path></g><line class="cls-20" x1="89.98" y1="532.78" x2="89.98" y2="546.3"></line><line class="cls-20" x1="73.42" y1="532.78" x2="73.42" y2="546.3"></line><line class="cls-20" x1="671.86" y1="303.27" x2="671.86" y2="300.06"></line><g><path class="cls-20" d="M671.86,299.2v-11.6c0-1.38-1.12-2.5-2.5-2.5h-61.83c-1.38,0-2.5,1.12-2.5,2.5v24.04c0,1.38,1.12,2.5,2.5,2.5h61.83c1.38,0,2.5-1.12,2.5-2.5v-8.37"></path><path class="cls-20" d="M675.89,300.06h-10.86c-.24,0-.43-.19-.43-.43s.19-.43.43-.43h10.81"></path><path class="cls-20" d="M666.11,299.2c-.17-.46-.61-.79-1.14-.79-.67,0-1.21.54-1.21,1.21s.54,1.21,1.21,1.21c.51,0,.95-.32,1.13-.77"></path><path class="cls-20" d="M670.14,299.2c-.21-2.66-2.45-4.76-5.17-4.76-2.86,0-5.18,2.32-5.18,5.18s2.32,5.18,5.18,5.18c2.71,0,4.94-2.09,5.17-4.74"></path></g><rect class="cls-20" x="675.89" y="297.08" width=".97" height="5.08"></rect><line class="cls-20" x1="676.86" y1="317.85" x2="600.63" y2="317.84"></line><line class="cls-20" x1="676.86" y1="319.13" x2="600.67" y2="319.13"></line><line class="cls-20" x1="672.17" y1="319.13" x2="672.17" y2="317.85"></line><line class="cls-20" x1="634.17" y1="319.13" x2="634.17" y2="317.85"></line><g><rect class="cls-20" x="656.92" y="402.97" width="17.6" height="7.45" rx="1.08" ry="1.08"></rect><path class="cls-20" d="M670.18,398.82c.28,0,.54-.11.73-.32,1.88-2.09,3.08-5.3,3.08-8.9,0-6.31-3.7-11.42-8.28-11.42s-8.28,5.11-8.28,11.42c0,3.6,1.2,6.8,3.08,8.9.19.21.46.32.73.32h8.92Z"></path></g><line class="cls-20" x1="674" y1="389.6" x2="674" y2="403.12"></line><line class="cls-20" x1="657.45" y1="389.6" x2="657.45" y2="403.12"></line><polyline class="cls-20" points="645.05 410.42 645.05 385.4 600.63 385.4"></polyline><path class="cls-20" d="M627.04,402.36h-9.87c-.4,0-.72-.32-.72-.72v-10.9c0-.4.32-.72.72-.72h20.82c.4,0,.72.32.72.72v10.9c0,.4-.32.72-.72.72h-9.48"></path><rect class="cls-20" x="627.04" y="399.92" width="1.47" height="5.89"></rect><g><circle class="cls-20" cx="627.77" cy="396.19" r=".84"></circle><path class="cls-20" d="M541.25,548.5h15.44c.6,0,1.08.48,1.08,1.08v5.3c0,.6-.48,1.08-1.08,1.08h-15.44c-.6,0-1.08-.48-1.08-1.08v-5.29c0-.6.48-1.08,1.08-1.08Z"></path><path class="cls-20" d="M544.51,544.35c-.28,0-.54-.11-.73-.32-1.88-2.09-3.08-5.3-3.08-8.9,0-6.31,3.7-11.42,8.28-11.42s8.28,5.11,8.28,11.42c0,3.6-1.2,6.8-3.08,8.9-.19.21-.46.32-.73.32h-8.92Z"></path></g><line class="cls-20" x1="540.7" y1="535.13" x2="540.7" y2="548.65"></line><line class="cls-20" x1="557.25" y1="535.13" x2="557.25" y2="548.65"></line><polyline class="cls-20" points="569.65 555.95 569.65 530.93 611.07 530.93"></polyline><path class="cls-20" d="M590.9,547.89h9.87c.4,0,.72-.32.72-.72v-10.9c0-.4-.32-.72-.72-.72h-20.82c-.4,0-.72.32-.72.72v10.9c0,.4.32.72.72.72h9.48"></path><rect class="cls-20" x="589.43" y="545.45" width="1.47" height="5.89"></rect><circle class="cls-20" cx="590.17" cy="541.72" r=".84"></circle><rect class="cls-20" x="628.06" y="519.58" width="30.61" height="38.03"></rect><rect class="cls-20" x="304.81" y="529.52" width="36.98" height="24.28"></rect><rect class="cls-20" x="305.89" y="530.6" width="34.82" height="22.12"></rect><path class="cls-20" d="M323.3,531.35c.71,0,1.28.57,1.28,1.28s-.57,1.28-1.28,1.28-1.28-.57-1.28-1.28c0-.71.57-1.28,1.28-1.28Z"></path><line class="cls-20" x1="340.7" y1="530.6" x2="341.78" y2="529.51"></line><line class="cls-20" x1="305.89" y1="530.6" x2="304.81" y2="529.52"></line><line class="cls-20" x1="305.89" y1="552.72" x2="304.81" y2="553.8"></line><line class="cls-20" x1="340.71" y1="552.71" x2="341.79" y2="553.79"></line><polygon class="cls-20" points="322.24 532.63 323.3 533.68 324.35 532.63 323.3 531.58 322.24 532.63"></polygon><line class="cls-20" x1="323.3" y1="533.68" x2="323.3" y2="531.58"></line><g><path class="cls-19" d="M524.98,351.33c-1.51.03-3.03.06-4.57.13-.8.04-1.6.09-2.35.13-.57.03-1.11.07-1.78.16-.65.09-1.42.25-1.73-.23-.07-.11-.12-.25-.13-.38-.06-.77,1.18-.9,2.24-.97,2.35-.15,3.74.04,5.44.16.9.06,1.9.1,2.89.14.99-.04,1.98-.08,2.89-.14,1.7-.12,3.09-.3,5.44-.16,1.05.07,2.3.2,2.24.97-.01.13-.06.27-.12.38-.31.48-1.08.33-1.73.23-.67-.1-1.21-.13-1.78-.16-.75-.04-1.56-.09-2.35-.13-1.55-.07-3.06-.1-4.57-.13Z"></path><path class="cls-19" d="M524.98,346.64c-1.51.03-3.03.06-4.57.13-.8.04-1.6.09-2.35.13-.57.03-1.11.07-1.78.16-.65.09-1.42.25-1.73-.23-.07-.11-.12-.25-.13-.38-.06-.77,1.18-.9,2.24-.97,2.35-.15,3.74.04,5.44.16.9.06,1.9.1,2.89.14.99-.04,1.98-.08,2.89-.14,1.7-.12,3.09-.3,5.44-.16,1.05.07,2.3.2,2.24.97-.01.13-.06.27-.12.38-.31.48-1.08.32-1.73.23-.67-.1-1.21-.13-1.78-.16-.75-.04-1.56-.09-2.35-.13-1.55-.07-3.06-.1-4.57-.13Z"></path><path class="cls-19" d="M524.98,341.94c-1.51.03-3.03.06-4.57.13-.8.04-1.6.09-2.35.13-.57.03-1.11.07-1.78.16-.65.09-1.42.25-1.73-.23-.07-.11-.12-.25-.13-.38-.06-.77,1.18-.9,2.24-.97,2.35-.15,3.74.04,5.44.16.9.06,1.9.1,2.89.14.99-.04,1.98-.08,2.89-.14,1.7-.12,3.09-.3,5.44-.16,1.05.07,2.3.2,2.24.97-.01.13-.06.27-.12.38-.31.48-1.08.32-1.73.23-.67-.1-1.21-.13-1.78-.16-.75-.04-1.56-.09-2.35-.13-1.55-.07-3.06-.1-4.57-.13Z"></path></g><line class="cls-19" x1="524.98" y1="279.86" x2="524.98" y2="412.73"></line><g><path class="cls-19" d="M690.31,524.03c-1.51.03-3.03.06-4.57.13-.8.04-1.6.09-2.35.13-.57.03-1.11.07-1.78.16-.65.09-1.42.25-1.73-.23-.07-.11-.12-.25-.13-.38-.06-.77,1.18-.9,2.24-.97,2.35-.15,3.74.04,5.44.16.9.06,1.9.1,2.89.14.99-.04,1.98-.08,2.89-.14,1.7-.11,3.09-.3,5.44-.16,1.05.07,2.3.2,2.24.97-.01.13-.06.27-.13.38-.31.48-1.08.33-1.73.23-.67-.1-1.21-.13-1.78-.16-.75-.04-1.56-.09-2.35-.13-1.55-.07-3.06-.1-4.57-.13Z"></path><path class="cls-19" d="M690.31,519.33c-1.51.03-3.03.06-4.57.13-.8.04-1.6.09-2.35.13-.57.03-1.11.07-1.78.16-.65.09-1.42.25-1.73-.23-.07-.11-.12-.25-.13-.38-.06-.77,1.18-.9,2.24-.97,2.35-.15,3.74.04,5.44.16.9.06,1.9.1,2.89.14.99-.04,1.98-.08,2.89-.14,1.7-.11,3.09-.3,5.44-.16,1.05.07,2.3.2,2.24.97-.01.13-.06.27-.13.38-.31.48-1.08.33-1.73.23-.67-.1-1.21-.13-1.78-.16-.75-.04-1.56-.09-2.35-.13-1.55-.07-3.06-.1-4.57-.13Z"></path><path class="cls-19" d="M690.31,514.64c-1.51.03-3.03.06-4.57.13-.8.04-1.6.09-2.35.13-.57.03-1.11.07-1.78.16-.65.09-1.42.25-1.73-.23-.07-.11-.12-.25-.13-.38-.06-.77,1.18-.9,2.24-.97,2.35-.15,3.74.04,5.44.16.9.06,1.9.1,2.89.14.99-.04,1.98-.08,2.89-.14,1.7-.11,3.09-.3,5.44-.16,1.05.07,2.3.2,2.24.97-.01.13-.06.27-.13.38-.31.48-1.08.33-1.73.23-.67-.1-1.21-.13-1.78-.16-.75-.04-1.56-.09-2.35-.13-1.55-.07-3.06-.1-4.57-.13Z"></path></g><line class="cls-19" x1="690.31" y1="479.72" x2="690.31" y2="558.26"></line><polyline class="cls-19" points="696.1 104.97 658.84 100.97 620.95 97.18 582.98 93.76 545.09 90.62 507.02 87.94"></polyline><polyline class="cls-19" points="363.8 81.01 327.12 80.09 290.44 79.44 253.66 79.17 216.98 79.17 180.21 79.63"></polyline><line class="cls-19" x1="180.21" y1="79.63" x2="180.21" y2="145.14"></line><line class="cls-19" x1="507.12" y1="87.94" x2="507.12" y2="182.84"></line><line class="cls-19" x1="507.12" y1="182.84" x2="418.14" y2="182.84"></line><polyline class="cls-19" points="363.8 81.01 363.8 182.84 369.63 182.84"></polyline><polyline class="cls-19" points="498.99 87.39 456.67 84.89 414.35 82.86 371.94 81.29"></polyline><line class="cls-19" x1="696.1" y1="99.18" x2="696.1" y2="104.97"></line><polyline class="cls-19" points="171.89 145.27 133.45 145.88 86.79 147.08 40.04 148.65 32.37 148.97"></polyline><line class="cls-19" x1=".38" y1="144.51" x2=".38" y2="150.25"></line><polyline class="cls-19" points="172.07 79.72 159.05 80 158.91 74.18"></polyline><line class="cls-19" x1="384.79" y1="75.93" x2="384.59" y2="81.76"></line><g class="cls-24"><g class="cls-28"><g class="cls-22"><polyline class="cls-11" points="100.28 138.67 100.28 93.21 172.07 93.21"></polyline></g></g></g><polygon class="cls-10" points="696.1 96.91 692.93 96.54 654.22 92.29 615.5 88.5 576.69 85.08 537.79 82.03 498.99 79.35 498.99 174.8 418.14 174.8 418.14 177.11 501.3 177.11 501.3 81.75 539.92 84.52 578.45 87.57 616.98 90.99 655.51 94.78 694.04 98.94 696.1 99.18 696.1 96.91"></polygon><polygon class="cls-10" points="127.72 140.24 80.97 141.44 34.31 143.11 .37 144.52 .38 142.2 32 140.89 78.66 139.23 125.41 138.02 172.07 137.1 172.07 71.68 212.08 71.13 252.09 71.03 292.01 71.4 332.02 72.05 371.94 73.16 371.94 182.84 369.63 182.84 369.63 75.38 330.63 74.36 291.55 73.71 252.55 73.34 213.47 73.44 174.38 73.9 174.38 139.41 127.72 140.24"></polygon><polyline class="cls-10" points="172.07 73.99 158.91 74.18 158.86 71.87 172.07 71.68"></polyline><polygon class="cls-10" points="371.94 75.47 384.79 75.93 384.87 73.62 371.94 73.16 371.94 75.47"></polygon><polygon class="cls-10" points="453.53 78.98 498.99 81.66 498.99 79.35 453.62 76.67 453.53 78.98"></polygon><polyline class="cls-10" points="666.05 95.98 665.4 101.8 663.09 101.53 663.74 95.8 666.05 95.98"></polyline><polyline class="cls-10" points="631.58 92.47 631.03 98.29 628.72 98.02 629.27 92.29 631.58 92.47"></polyline><polyline class="cls-10" points="562.56 86.37 562.1 92.1 559.79 91.92 560.25 86.19 562.56 86.37"></polyline><polyline class="cls-10" points="356.41 75.01 356.23 80.83 353.92 80.74 354.1 74.92 356.41 75.01"></polyline><polyline class="cls-10" points="287.21 73.62 287.11 79.44 284.8 79.35 284.9 73.62 287.21 73.62"></polyline><polyline class="cls-10" points="217.91 73.44 217.91 79.17 215.6 79.26 215.6 73.44 217.91 73.44"></polyline><polyline class="cls-10" points="102.59 140.89 102.68 146.62 100.37 146.71 100.28 140.98 102.59 140.89"></polyline><rect class="cls-10" x="174.38" y="135.99" width="5.82" height="2.31"></rect><polyline class="cls-10" points="180.11 81.2 180.21 81.2 180.21 79.63 181.87 79.54 176.05 73.9 174.66 73.9 174.48 73.9 174.48 75.56 180.11 81.2"></polyline><polyline class="cls-10" points="507.12 87.94 508.78 88.04 502.96 81.94 501.3 81.75 501.3 83.51 507.12 89.61 507.12 87.94"></polyline><rect class="cls-10" x="501.3" y="154.01" width="5.82" height="2.31"></rect><rect class="cls-10" x="371.94" y="174.8" width="2.31" height="8.04"></rect><rect class="cls-10" x="415.83" y="174.8" width="2.31" height="8.04"></rect><rect class="cls-10" x="501.3" y="173.6" width="5.82" height="2.31"></rect><rect class="cls-10" x="497.88" y="177.11" width="2.31" height="5.73"></rect><rect class="cls-10" x="428.58" y="177.11" width="2.31" height="5.73"></rect><rect class="cls-10" x="363.8" y="173.6" width="5.82" height="2.31"></rect><rect class="cls-10" x="363.8" y="128.05" width="5.82" height="2.31"></rect><polyline class="cls-10" points="363.8 82.58 369.63 77.04 369.63 75.38 368.05 75.38 362.23 80.92 363.8 81.01 363.8 82.58"></polyline><polygon class="cls-10" points="33.29 143.08 33.47 148.91 31.2 149.01 30.98 143.17 33.29 143.08"></polygon><polyline class="cls-10" points="129.02 140.24 129.11 145.97 126.8 146.06 126.71 140.33 129.02 140.24"></polyline><polygon class="cls-10" points="171.8 139.46 171.89 145.27 169.58 145.31 169.49 139.5 171.8 139.46"></polygon><polygon class="cls-10" points="455.83 79.12 455.56 84.84 453.25 84.73 453.53 78.98 455.83 79.12"></polygon><polygon class="cls-21" points="778.03 561.63 778.03 571.63 794.32 571.63 794.32 408.46 696.1 408.46 696.1 104.92 665.68 101.62 665.03 109.66 686.1 109.66 686.1 274.13 594.9 274.13 594.9 323.75 600.63 323.75 600.63 279.86 676.86 279.86 676.86 319.13 686.1 319.13 686.1 410.42 600.67 410.42 600.67 365.33 594.9 365.33 594.9 412.73 590.28 412.73 590.28 418.46 784.32 418.46 784.32 561.63 778.03 561.63"></polygon><polygon class="cls-16" points="778.03 561.63 778.03 571.63 794.32 571.63 794.32 408.46 696.1 408.46 696.1 104.92 665.68 101.62 665.03 109.66 686.1 109.66 686.1 274.13 594.9 274.13 594.9 323.75 600.63 323.75 600.63 279.86 676.86 279.86 676.86 319.13 686.1 319.13 686.1 410.42 600.67 410.42 600.67 365.33 594.9 365.33 594.9 412.73 590.28 412.73 590.28 418.46 784.32 418.46 784.32 561.63 778.03 561.63"></polygon><polygon class="cls-21" points=".38 150.25 32.37 148.96 32.55 154.66 10.38 155.58 10.38 373.46 130.49 373.46 130.49 383.81 124.77 383.81 124.77 379.19 19.61 379.19 19.61 469.28 124.81 469.28 124.81 425.39 130.49 425.39 130.49 469.28 139.73 469.28 139.73 475.1 61.2 475.1 61.2 477.41 19.61 477.41 19.61 553.64 185.93 553.64 185.93 475.1 181.32 475.1 181.32 469.28 185.93 469.28 185.93 421.97 191.76 421.97 191.76 528.23 195.17 528.23 195.17 555.95 417.03 555.95 417.03 528.23 420.45 528.23 420.45 473.9 432.55 473.9 432.55 479.72 426.27 479.72 426.27 561.68 522.09 561.68 522.09 479.72 515.71 479.72 515.71 473.9 564.87 473.9 564.87 479.72 527.91 479.72 527.91 555.95 611.07 555.95 611.07 479.72 606.45 479.72 606.45 473.85 622.62 473.85 622.62 479.72 619.11 479.72 619.11 561.68 667.62 561.68 667.62 479.72 664.2 479.72 664.2 473.9 709.2 473.9 709.2 484.34 703.47 484.34 703.47 479.72 675.75 479.72 675.75 558.26 703.47 558.26 703.47 553.64 709.2 553.64 709.2 561.63 731.74 561.63 731.74 571.63 .38 571.68 .38 150.25"></polygon><polygon class="cls-16" points=".38 150.25 32.37 148.96 32.55 154.66 10.38 155.58 10.38 373.46 130.49 373.46 130.49 383.81 124.77 383.81 124.77 379.19 19.61 379.19 19.61 469.28 124.81 469.28 124.81 425.39 130.49 425.39 130.49 469.28 139.73 469.28 139.73 475.1 61.2 475.1 61.2 477.41 19.61 477.41 19.61 553.64 185.93 553.64 185.93 475.1 181.32 475.1 181.32 469.28 185.93 469.28 185.93 421.97 191.76 421.97 191.76 528.23 195.17 528.23 195.17 555.95 417.03 555.95 417.03 528.23 420.45 528.23 420.45 473.9 432.55 473.9 432.55 479.72 426.27 479.72 426.27 561.68 522.09 561.68 522.09 479.72 515.71 479.72 515.71 473.9 564.87 473.9 564.87 479.72 527.91 479.72 527.91 555.95 611.07 555.95 611.07 479.72 606.45 479.72 606.45 473.85 622.62 473.85 622.62 479.72 619.11 479.72 619.11 561.68 667.62 561.68 667.62 479.72 664.2 479.72 664.2 473.9 709.2 473.9 709.2 484.34 703.47 484.34 703.47 479.72 675.75 479.72 675.75 558.26 703.47 558.26 703.47 553.64 709.2 553.64 709.2 561.63 731.74 561.63 731.74 571.63 .38 571.68 .38 150.25"></polygon><polygon class="cls-21" points="548.7 418.46 504.81 418.46 504.81 188.66 498.99 188.66 498.99 182.84 507.12 182.84 507.12 155.12 527.26 155.12 527.26 274.13 544.08 274.13 544.08 297.78 538.26 297.78 538.26 279.86 510.54 279.86 510.54 412.73 538.26 412.73 538.26 394.8 544.08 394.8 544.08 412.73 548.7 412.73 548.7 418.46"></polygon><polygon class="cls-16" points="548.7 418.46 504.81 418.46 504.81 188.66 498.99 188.66 498.99 182.84 507.12 182.84 507.12 155.12 527.26 155.12 527.26 274.13 544.08 274.13 544.08 297.78 538.26 297.78 538.26 279.86 510.54 279.86 510.54 412.73 538.26 412.73 538.26 394.8 544.08 394.8 544.08 412.73 548.7 412.73 548.7 418.46"></polygon><polygon class="cls-21" points="191.76 137.1 180.21 137.1 180.21 145.14 171.52 145.14 171.52 256.76 185.93 256.76 185.93 380.3 191.76 380.3 191.76 137.1"></polygon><polygon class="cls-16" points="191.76 137.1 180.21 137.1 180.21 145.14 171.52 145.14 171.52 256.76 185.93 256.76 185.93 380.3 191.76 380.3 191.76 137.1"></polygon><g><path class="cls-25" d="M754.75,583.79c.02-.08.07-.14.14-.14s.13.06.14.14c.56,3.3,2.74,4.94,6.02,4.94h3.83c1.16,0,1.98,1.01,2.21,2.66.05.33-.23.61-.47.45-.46-.31-1.06-.47-1.78-.47h-3.48c-2.95,0-5.22-1.67-6.17-4.98-.11-.37-.5-.37-.61,0-.96,3.31-3.22,4.98-6.18,4.98h-3.48c-.72,0-1.31.16-1.78.47-.23.16-.51-.12-.47-.45.22-1.64,1.05-2.66,2.2-2.66h3.84c3.29,0,5.46-1.64,6.02-4.95h0Z"></path><path class="cls-17" d="M754.75,583.79c.02-.08.07-.14.14-.14s.13.06.14.14c.56,3.3,2.74,4.94,6.02,4.94h3.83c1.16,0,1.98,1.01,2.21,2.66.05.33-.23.61-.47.45-.46-.31-1.06-.47-1.78-.47h-3.48c-2.95,0-5.22-1.67-6.17-4.98-.11-.37-.5-.37-.61,0-.96,3.31-3.22,4.98-6.18,4.98h-3.48c-.72,0-1.31.16-1.78.47-.23.16-.51-.12-.47-.45.22-1.64,1.05-2.66,2.2-2.66h3.84c3.29,0,5.46-1.64,6.02-4.95h0Z"></path></g><g><path class="cls-27" d="M11.54,89.72h.5v5.12h2.57v.45h-3.07v-5.57Z"></path><path class="cls-27" d="M15.14,93.35c0-1.13.61-2.06,1.73-2.06,1.21,0,1.7.94,1.7,1.81,0,.06,0,.24-.02.34h-2.93c.02.93.52,1.47,1.32,1.47.5,0,.83-.14,1.18-.51l.34.3c-.45.46-.88.65-1.52.65-1.16,0-1.79-.87-1.79-2ZM18.1,93.09s0-.1,0-.15c0-.57-.36-1.24-1.23-1.24-.76,0-1.22.6-1.27,1.39h2.49Z"></path><path class="cls-27" d="M19.5,93.32c0-1.21.79-2.02,1.79-2.02.64,0,1.15.33,1.41.84v-2.41h.47v5.57h-.47v-.78c-.27.52-.77.83-1.41.83-1.06,0-1.79-.88-1.79-2.03ZM21.37,94.9c.8,0,1.37-.66,1.37-1.59s-.57-1.59-1.37-1.59-1.39.67-1.39,1.59.58,1.59,1.39,1.59Z"></path><path class="cls-27" d="M24.24,95.76s0-.06.02-.16l.68-.54c-.35-.14-.59-.36-.59-.78,0-.32.16-.55.44-.74-.22-.23-.34-.54-.34-.89,0-.8.64-1.36,1.47-1.36.4,0,.75.13,1.01.36l.63-.53.24.3-.62.54c.12.2.18.44.18.7,0,.79-.59,1.31-1.44,1.31-.32,0-.61-.08-.84-.21-.19.11-.28.26-.28.44,0,.41.39.51,1,.6.98.15,1.84.27,1.84,1.08,0,.72-.64,1.1-1.66,1.1-1.12,0-1.75-.43-1.75-1.23ZM26,96.62c.67,0,1.18-.21,1.18-.66,0-.53-.71-.59-1.42-.7-.19-.03-.37-.06-.55-.1l-.49.56c0,.06,0,.07,0,.09,0,.55.49.82,1.29.82ZM25.92,93.59c.6,0,.98-.4.98-.94s-.39-.96-.97-.96-1,.4-1,.95.39.95.99.95Z"></path><path class="cls-27" d="M28.4,93.35c0-1.13.61-2.06,1.73-2.06,1.21,0,1.7.94,1.7,1.81,0,.06,0,.24-.02.34h-2.93c.02.93.52,1.47,1.32,1.47.5,0,.83-.14,1.18-.51l.34.3c-.45.46-.88.65-1.52.65-1.16,0-1.79-.87-1.79-2ZM31.36,93.09s0-.1,0-.15c0-.57-.36-1.24-1.23-1.24-.76,0-1.22.6-1.27,1.39h2.49Z"></path><path class="cls-27" d="M37.74,94.55c-.26.5-.77.8-1.38.8-.88,0-1.42-.48-1.42-1.2,0-.42.18-.71.44-.89.28-.19.67-.26,1.09-.26h1.26v-.17c0-.73-.38-1.13-1.12-1.13-.48,0-.86.18-1.22.63l-.34-.3c.42-.52.94-.75,1.59-.75,1,0,1.56.55,1.56,1.54v2.45h-.44l-.02-.74ZM36.4,94.95c.72,0,1.33-.57,1.33-1.35v-.22h-1.2c-.32,0-.63.05-.84.2-.17.13-.27.31-.27.58,0,.49.37.8.98.8Z"></path><path class="cls-27" d="M39.88,94.38v-2.65h-.88v-.38h.88v-1.14l.48-.28v1.42h.95v.38h-.95v2.53c0,.44.14.68.5.68.12,0,.28-.02.45-.08v.38c-.2.06-.4.1-.57.1-.52,0-.86-.3-.86-.97Z"></path><path class="cls-27" d="M46.3,91.01h-1.47v-.39h1.03c.29,0,.44-.1.44-.41v-.49h.48v5.57h-.48v-4.28Z"></path><path class="cls-27" d="M51.36,93.96h-2.77v-.4l2.79-3.84h.46v3.79h.91v.45h-.91v1.34h-.48v-1.34ZM51.36,93.51v-3.15l-2.25,3.15h2.25Z"></path><path class="cls-27" d="M53.49,92.49c0-1.33.3-2.84,1.72-2.84s1.75,1.39,1.75,2.85-.4,2.84-1.72,2.84c-1.44,0-1.75-1.51-1.75-2.85ZM55.24,94.88c.88,0,1.23-1,1.23-2.36s-.36-2.41-1.26-2.41c-.96,0-1.23,1.1-1.23,2.4s.28,2.37,1.26,2.37Z"></path><path class="cls-27" d="M58.98,91.93c.23-.14.5-.22.76-.22,1.01,0,1.81.81,1.81,1.81s-.84,1.83-1.87,1.83-1.88-.8-1.88-1.82c0-.37.12-.7.29-1l1.67-2.81h.54l-1.34,2.21ZM59.68,94.9c.76,0,1.39-.6,1.39-1.38s-.62-1.38-1.39-1.38-1.39.59-1.39,1.38.62,1.38,1.39,1.38Z"></path><path class="cls-27" d="M64.71,92.51c0-1.74,1.01-2.87,2.52-2.87s2.54,1.14,2.54,2.87-1.02,2.86-2.54,2.86-2.52-1.14-2.52-2.86ZM67.24,94.9c1.25,0,2.04-.93,2.04-2.39s-.79-2.4-2.04-2.4-2.03.92-2.03,2.4.79,2.39,2.03,2.39Z"></path><path class="cls-27" d="M70.89,91.35h.48v.64c.25-.47.69-.7,1.24-.7.85,0,1.36.5,1.36,1.54v2.45h-.48v-2.28c0-.89-.34-1.3-.99-1.3-.71,0-1.13.48-1.13,1.57v2.01h-.48v-3.94Z"></path><path class="cls-27" d="M75.17,94.47v-4.75h.48v4.67c0,.37.14.52.39.52.1,0,.24-.02.38-.07v.41c-.18.07-.37.1-.52.1-.44,0-.72-.27-.72-.88Z"></path><path class="cls-27" d="M78.22,95.17l-1.57-3.82h.53l1.29,3.33,1.3-3.33h.52l-2.27,5.56h-.52l.72-1.75Z"></path></g><g><path class="cls-21" d="M463.65,516.04h5.86v.73h-5.06v3.37h4.39v.73h-4.39v4.24h-.81v-9.06Z"></path><path class="cls-21" d="M470.83,523.77v-7.73h.77v7.59c0,.6.23.84.64.84.17,0,.38-.04.61-.12v.67c-.29.11-.6.17-.84.17-.72,0-1.18-.44-1.18-1.42Z"></path><path class="cls-21" d="M473.8,521.94c0-1.84.99-3.34,2.81-3.34,1.96,0,2.76,1.53,2.76,2.94,0,.1-.01.4-.04.55h-4.76c.03,1.51.84,2.39,2.14,2.39.82,0,1.35-.23,1.91-.83l.55.49c-.73.75-1.43,1.05-2.46,1.05-1.89,0-2.91-1.41-2.91-3.25ZM478.61,521.52c0-.08,0-.16,0-.24,0-.92-.58-2.01-2-2.01-1.23,0-1.98.98-2.07,2.26h4.06Z"></path><path class="cls-21" d="M482.77,521.89l-2.37-3.19h.96l1.92,2.65,1.94-2.65h.94l-2.38,3.19,2.39,3.22h-.96l-1.93-2.67-1.94,2.67h-.94l2.37-3.22Z"></path></g><g><path class="cls-21" d="M413.97,128.03h2.72c1.68,0,2.68.84,2.68,2.25,0,.94-.46,1.68-1.24,2,1.1.25,1.7,1.07,1.7,2.31,0,1.61-1.02,2.5-2.88,2.5h-2.97v-9.06ZM416.94,132.03c.98,0,1.63-.64,1.63-1.64s-.69-1.61-1.88-1.61h-1.91v3.26h2.16ZM416.89,136.34c1.42,0,2.14-.6,2.14-1.79,0-1.13-.66-1.79-1.79-1.79h-2.46v3.58h2.11Z"></path><path class="cls-21" d="M425.8,135.89c-.43.82-1.25,1.29-2.25,1.29-1.44,0-2.31-.77-2.31-1.94,0-.69.29-1.16.72-1.44.46-.31,1.09-.42,1.77-.42h2.05v-.28c0-1.19-.62-1.83-1.82-1.83-.79,0-1.4.29-1.98,1.02l-.56-.48c.68-.85,1.53-1.22,2.59-1.22,1.63,0,2.54.89,2.54,2.51v3.99h-.71l-.04-1.2ZM423.63,136.54c1.18,0,2.17-.93,2.17-2.2v-.36h-1.95c-.51,0-1.03.08-1.37.33-.28.21-.44.51-.44.94,0,.79.6,1.3,1.6,1.3Z"></path><path class="cls-21" d="M428.39,135.76v-7.73h.77v7.59c0,.6.23.85.64.85.17,0,.38-.04.61-.12v.67c-.29.11-.6.17-.84.17-.72,0-1.18-.44-1.18-1.42Z"></path><path class="cls-21" d="M431.35,133.88c0-1.83,1.06-3.29,2.86-3.29,1.17,0,2.09.59,2.51,1.74l-.7.27c-.27-.82-.9-1.33-1.81-1.33-1.42,0-2.09,1.25-2.09,2.61s.68,2.62,2.09,2.62c.91,0,1.53-.51,1.81-1.33l.7.27c-.42,1.16-1.34,1.75-2.51,1.75-1.8,0-2.86-1.46-2.86-3.3Z"></path><path class="cls-21" d="M437.96,133.88c0-1.92,1.25-3.29,3.05-3.29s3.04,1.37,3.04,3.29-1.27,3.3-3.04,3.3-3.05-1.36-3.05-3.3ZM441.01,136.49c1.37,0,2.26-1.04,2.26-2.61s-.9-2.61-2.26-2.61-2.28,1.05-2.28,2.61.9,2.61,2.28,2.61Z"></path><path class="cls-21" d="M445.8,130.68h.78v1.05c.4-.76,1.12-1.14,2.01-1.14,1.38,0,2.2.81,2.2,2.51v3.99h-.78v-3.71c0-1.45-.55-2.11-1.61-2.11-1.16,0-1.83.79-1.83,2.55v3.27h-.78v-6.41Z"></path><path class="cls-21" d="M454.51,136.89l-2.55-6.21h.86l2.1,5.42,2.11-5.42h.85l-3.69,9.05h-.84l1.17-2.84Z"></path></g><g><path class="cls-21" d="M285.82,498.09h.81v4.86l4.65-4.86h1.09l-3.45,3.54,3.48,5.52h-.95l-3.11-4.93-1.71,1.75v3.17h-.81v-9.06Z"></path><path class="cls-21" d="M293.55,498.09h.94v1.39h-.94v-1.39ZM293.64,500.75h.77v6.41h-.77v-6.41Z"></path><path class="cls-21" d="M297.2,505.67v-4.31h-1.42v-.62h1.42v-1.85l.79-.46v2.31h1.54v.62h-1.54v4.12c0,.71.22,1.11.81,1.11.19,0,.46-.04.73-.12v.62c-.32.1-.64.16-.92.16-.85,0-1.4-.49-1.4-1.57Z"></path><path class="cls-21" d="M300.56,503.94c0-1.83,1.06-3.29,2.86-3.29,1.17,0,2.09.58,2.51,1.74l-.7.27c-.27-.82-.9-1.33-1.81-1.33-1.42,0-2.09,1.25-2.09,2.61s.68,2.62,2.09,2.62c.91,0,1.53-.51,1.81-1.33l.7.27c-.42,1.16-1.34,1.75-2.51,1.75-1.8,0-2.86-1.46-2.86-3.3Z"></path><path class="cls-21" d="M307.56,498.09h.78v3.69c.4-.75,1.1-1.13,2.01-1.13,1.4,0,2.2.85,2.2,2.51v3.99h-.78v-3.71c0-1.43-.53-2.11-1.61-2.11-1.18,0-1.83.83-1.83,2.55v3.27h-.78v-9.06Z"></path><path class="cls-21" d="M314.19,504c0-1.84.99-3.34,2.81-3.34,1.96,0,2.76,1.53,2.76,2.94,0,.1-.01.4-.04.55h-4.76c.03,1.51.84,2.39,2.14,2.39.82,0,1.35-.23,1.91-.83l.55.49c-.73.75-1.43,1.05-2.46,1.05-1.89,0-2.91-1.41-2.91-3.25ZM319,503.57c0-.08,0-.16,0-.24,0-.92-.58-2.01-2-2.01-1.23,0-1.98.98-2.07,2.26h4.06Z"></path><path class="cls-21" d="M321.49,500.75h.78v1.05c.4-.76,1.12-1.14,2.01-1.14,1.38,0,2.2.81,2.2,2.51v3.99h-.78v-3.71c0-1.45-.55-2.11-1.61-2.11-1.16,0-1.83.79-1.83,2.55v3.27h-.78v-6.41Z"></path></g><g><path class="cls-21" d="M728.66,441.54h5.86v.73h-5.06v3.37h4.39v.73h-4.39v4.24h-.81v-9.06Z"></path><path class="cls-21" d="M735.26,447.39c0-1.92,1.25-3.29,3.05-3.29s3.04,1.37,3.04,3.29-1.27,3.3-3.04,3.3-3.05-1.37-3.05-3.3ZM738.3,450c1.37,0,2.26-1.04,2.26-2.61s-.9-2.61-2.26-2.61-2.28,1.05-2.28,2.61.9,2.61,2.28,2.61Z"></path><path class="cls-21" d="M744.82,450.4l-2.55-6.21h.86l2.1,5.42,2.11-5.42h.85l-3.69,9.05h-.84l1.17-2.84Z"></path><path class="cls-21" d="M749.15,447.44c0-1.84.99-3.34,2.81-3.34,1.96,0,2.76,1.53,2.76,2.94,0,.1-.01.4-.04.55h-4.76c.03,1.51.84,2.39,2.14,2.39.82,0,1.35-.23,1.91-.83l.55.49c-.73.75-1.43,1.05-2.46,1.05-1.89,0-2.91-1.41-2.91-3.25ZM753.97,447.02c0-.08,0-.16,0-.24,0-.92-.58-2.01-2-2.01-1.23,0-1.98.98-2.07,2.26h4.06Z"></path><path class="cls-21" d="M756.45,444.19h.78v1.09c.43-.78,1.31-1.18,2.02-1.18.33,0,.66.07.99.24l-.39.7c-.21-.1-.51-.17-.77-.17-.68,0-1.46.36-1.74,1.3-.08.27-.12.57-.12,1.27v3.15h-.78v-6.41Z"></path></g><g><path class="cls-21" d="M62.87,420.07h.65l1.71,6.06,1.76-5.7h.63l1.76,5.7,1.7-6.06h.65l-2.01,6.98h-.63l-1.79-5.71-1.79,5.71h-.64l-2.01-6.98Z"></path><path class="cls-21" d="M72.88,420.07h.62v6.98h-.62v-6.98Z"></path><path class="cls-21" d="M74.92,423.55c0-2.16,1.26-3.58,3.16-3.58,1.35,0,2.39.71,2.84,1.89l-.58.22c-.38-.96-1.17-1.52-2.26-1.52-1.55,0-2.54,1.17-2.54,2.99s.99,3,2.54,3c1.09,0,1.89-.56,2.26-1.52l.58.21c-.45,1.18-1.49,1.9-2.84,1.9-1.89,0-3.16-1.42-3.16-3.59Z"></path></g><path class="cls-21" d="M633.84,534.71h.65l1.71,6.06,1.76-5.7h.63l1.76,5.7,1.7-6.06h.65l-2.01,6.98h-.63l-1.79-5.71-1.79,5.71h-.64l-2.01-6.98Z"></path><path class="cls-21" d="M646.12,533.83h.48l-3.55,9.08h-.47l3.55-9.08Z"></path><path class="cls-21" d="M647.82,534.71h1.87c2.26,0,3.56,1.29,3.56,3.54s-1.27,3.43-3.57,3.43h-1.86v-6.98ZM649.63,541.11c1.92,0,2.99-.89,2.99-2.88s-1.08-2.95-2.94-2.95h-1.24v5.83h1.19Z"></path><path class="cls-21" d="M244.23,543.17c0-2.17,1.27-3.59,3.16-3.59s3.18,1.42,3.18,3.59-1.27,3.58-3.18,3.58-3.16-1.42-3.16-3.58ZM247.39,546.15c1.57,0,2.55-1.16,2.55-2.99s-.99-3-2.55-3-2.54,1.15-2.54,3,.99,2.99,2.54,2.99Z"></path><path class="cls-21" d="M254.27,538.67h.48l-3.55,9.08h-.47l3.55-9.08Z"></path><path class="cls-21" d="M255.97,539.67h.93l2.35,5.66,2.35-5.66h.92v6.98h-.62v-6.16l-2.35,5.59h-.61l-2.36-5.59v6.16h-.62v-6.98Z"></path><path class="cls-21" d="M213.4,539.67h1.94c1.46,0,2.29.69,2.29,1.95s-.83,1.96-2.29,1.96h-1.33v3.07h-.62v-6.98ZM215.28,543.02c1.09,0,1.73-.47,1.73-1.4s-.62-1.39-1.73-1.39h-1.27v2.79h1.27Z"></path><g><path class="cls-21" d="M388.16,539.67h1.94c1.53,0,2.29.72,2.29,1.92,0,.97-.5,1.6-1.43,1.83l1.88,3.22h-.71l-1.8-3.13c-.16,0-.34,0-.5,0h-1.05v3.13h-.62v-6.98ZM390.04,542.97c1.06,0,1.73-.42,1.73-1.37s-.68-1.37-1.73-1.37h-1.26v2.74h1.26Z"></path><path class="cls-21" d="M394.01,539.67h4.56v.56h-3.94v2.59h3.53v.56h-3.53v2.7h3.94v.56h-4.56v-6.98Z"></path><path class="cls-21" d="M399.87,539.67h4.51v.56h-3.89v2.59h3.38v.56h-3.38v3.26h-.62v-6.98Z"></path></g><g><path class="cls-21" d="M352.13,460.11h1.87c2.26,0,3.56,1.29,3.56,3.54s-1.27,3.43-3.57,3.43h-1.86v-6.98ZM353.93,466.51c1.92,0,2.99-.89,2.99-2.88s-1.08-2.95-2.94-2.95h-1.24v5.83h1.19Z"></path><path class="cls-21" d="M358.22,460.11h.65l1.71,6.06,1.76-5.7h.63l1.76,5.7,1.7-6.06h.65l-2.01,6.98h-.63l-1.79-5.71-1.79,5.71h-.64l-2.01-6.98Z"></path></g><g><path class="cls-21" d="M248.52,460.11h.65l1.71,6.06,1.76-5.7h.63l1.76,5.7,1.7-6.06h.65l-2.01,6.98h-.63l-1.79-5.71-1.79,5.71h-.64l-2.01-6.98Z"></path><path class="cls-21" d="M258.53,460.11h4.51v.56h-3.89v2.59h3.38v.56h-3.38v3.26h-.62v-6.98Z"></path></g><g><path class="cls-21" d="M48.74,267.08h2.52c1.9,0,2.97.89,2.97,2.53s-1.07,2.54-2.97,2.54h-1.72v3.99h-.8v-9.06ZM51.18,271.43c1.41,0,2.24-.61,2.24-1.81s-.81-1.81-2.24-1.81h-1.64v3.62h1.64Z"></path><path class="cls-21" d="M55.74,269.73h.78v1.09c.43-.78,1.31-1.18,2.02-1.18.33,0,.66.07.99.24l-.39.7c-.21-.1-.51-.17-.77-.17-.68,0-1.46.36-1.74,1.3-.08.27-.12.57-.12,1.27v3.15h-.78v-6.41Z"></path><path class="cls-21" d="M60.8,267.08h.94v1.39h-.94v-1.39ZM60.89,269.73h.77v6.41h-.77v-6.41Z"></path><path class="cls-21" d="M63.69,269.73h.78v1.1c.38-.85,1.11-1.19,1.88-1.19.91,0,1.57.4,1.89,1.25.4-.83,1.09-1.25,2-1.25,1.55,0,2.13,1.16,2.13,2.68v3.82h-.78v-3.64c0-1.33-.39-2.18-1.52-2.18-1.02,0-1.65.77-1.65,2.26v3.57h-.78v-3.76c0-1.4-.52-2.07-1.5-2.07-1.03,0-1.67.79-1.67,2.26v3.57h-.78v-6.41Z"></path><path class="cls-21" d="M78.52,274.94c-.43.82-1.25,1.29-2.25,1.29-1.44,0-2.31-.77-2.31-1.94,0-.69.29-1.16.72-1.44.46-.31,1.09-.42,1.77-.42h2.05v-.28c0-1.19-.62-1.83-1.82-1.83-.79,0-1.4.29-1.98,1.02l-.56-.48c.68-.85,1.53-1.22,2.59-1.22,1.63,0,2.54.89,2.54,2.51v3.99h-.72l-.04-1.2ZM76.34,275.59c1.18,0,2.16-.93,2.16-2.2v-.36h-1.95c-.51,0-1.03.08-1.37.33-.28.21-.44.51-.44.94,0,.79.6,1.3,1.6,1.3Z"></path><path class="cls-21" d="M81.23,269.73h.78v1.09c.43-.78,1.31-1.18,2.02-1.18.33,0,.66.07.99.24l-.39.7c-.21-.1-.51-.17-.77-.17-.68,0-1.46.36-1.74,1.3-.08.27-.12.57-.12,1.27v3.15h-.78v-6.41Z"></path><path class="cls-21" d="M88.28,275.94l-2.55-6.21h.86l2.1,5.42,2.11-5.42h.85l-3.69,9.05h-.84l1.17-2.84Z"></path><path class="cls-21" d="M96.54,267.08h2.72c1.68,0,2.68.84,2.68,2.25,0,.94-.46,1.68-1.24,2,1.1.25,1.7,1.07,1.7,2.31,0,1.61-1.02,2.5-2.88,2.5h-2.97v-9.06ZM99.52,271.09c.98,0,1.63-.64,1.63-1.64s-.69-1.61-1.89-1.61h-1.91v3.26h2.16ZM99.46,275.4c1.42,0,2.14-.6,2.14-1.79,0-1.13-.66-1.79-1.79-1.79h-2.46v3.58h2.11Z"></path><path class="cls-21" d="M103.87,272.98c0-1.84.99-3.34,2.81-3.34,1.96,0,2.76,1.53,2.76,2.94,0,.1-.01.4-.04.55h-4.76c.03,1.51.84,2.39,2.15,2.39.82,0,1.35-.23,1.91-.83l.55.49c-.73.75-1.43,1.05-2.46,1.05-1.89,0-2.91-1.41-2.91-3.25ZM108.69,272.56c0-.08,0-.16,0-.24,0-.92-.58-2.02-2-2.02-1.23,0-1.98.98-2.07,2.26h4.06Z"></path><path class="cls-21" d="M110.85,272.93c0-1.96,1.29-3.29,2.92-3.29,1.05,0,1.87.54,2.29,1.36v-3.92h.77v9.06h-.77v-1.26c-.44.85-1.25,1.35-2.29,1.35-1.72,0-2.92-1.42-2.92-3.3ZM113.89,275.51c1.3,0,2.23-1.08,2.23-2.58s-.93-2.58-2.23-2.58-2.26,1.09-2.26,2.58.95,2.58,2.26,2.58Z"></path><path class="cls-21" d="M118.87,269.73h.78v1.09c.43-.78,1.31-1.18,2.02-1.18.33,0,.66.07.99.24l-.39.7c-.21-.1-.51-.17-.77-.17-.68,0-1.46.36-1.74,1.3-.08.27-.12.57-.12,1.27v3.15h-.78v-6.41Z"></path><path class="cls-21" d="M123.25,272.93c0-1.92,1.25-3.29,3.05-3.29s3.04,1.36,3.04,3.29-1.27,3.3-3.04,3.3-3.05-1.36-3.05-3.3ZM126.29,275.54c1.37,0,2.26-1.04,2.26-2.61s-.9-2.61-2.26-2.61-2.27,1.05-2.27,2.61.9,2.61,2.27,2.61Z"></path><path class="cls-21" d="M130.78,272.93c0-1.92,1.25-3.29,3.05-3.29s3.04,1.36,3.04,3.29-1.27,3.3-3.04,3.3-3.05-1.36-3.05-3.3ZM133.83,275.54c1.36,0,2.26-1.04,2.26-2.61s-.9-2.61-2.26-2.61-2.27,1.05-2.27,2.61.9,2.61,2.27,2.61Z"></path><path class="cls-21" d="M138.62,269.73h.78v1.1c.38-.85,1.11-1.19,1.88-1.19.91,0,1.57.4,1.89,1.25.4-.83,1.09-1.25,2-1.25,1.55,0,2.13,1.16,2.13,2.68v3.82h-.78v-3.64c0-1.33-.39-2.18-1.52-2.18-1.02,0-1.65.77-1.65,2.26v3.57h-.78v-3.76c0-1.4-.52-2.07-1.5-2.07-1.03,0-1.67.79-1.67,2.26v3.57h-.78v-6.41Z"></path></g><g><path class="cls-21" d="M245.23,267.08h.81v8.33h4.18v.73h-4.99v-9.06Z"></path><path class="cls-21" d="M251.35,267.08h.94v1.39h-.94v-1.39ZM251.43,269.73h.77v6.41h-.77v-6.41Z"></path><path class="cls-21" d="M253.6,269.73h.86l2.1,5.42,2.11-5.42h.85l-2.61,6.41h-.68l-2.63-6.41Z"></path><path class="cls-21" d="M260.86,267.08h.94v1.39h-.94v-1.39ZM260.94,269.73h.77v6.41h-.77v-6.41Z"></path><path class="cls-21" d="M263.75,269.73h.78v1.05c.4-.76,1.12-1.14,2.01-1.14,1.38,0,2.2.81,2.2,2.51v3.99h-.78v-3.71c0-1.45-.55-2.11-1.61-2.11-1.16,0-1.83.79-1.83,2.55v3.27h-.78v-6.41Z"></path><path class="cls-21" d="M270.2,276.9s0-.1.03-.26l1.11-.88c-.57-.22-.96-.59-.96-1.26,0-.53.27-.9.72-1.2-.36-.37-.56-.87-.56-1.45,0-1.3,1.04-2.2,2.38-2.2.64,0,1.22.21,1.64.58l1.02-.86.4.49-1,.88c.19.33.3.71.3,1.14,0,1.28-.96,2.13-2.33,2.13-.53,0-.99-.12-1.37-.34-.31.18-.45.42-.45.72,0,.66.63.83,1.62.98,1.6.25,2.99.44,2.99,1.75,0,1.16-1.05,1.78-2.7,1.78-1.82,0-2.85-.7-2.85-2ZM273.06,278.29c1.09,0,1.92-.34,1.92-1.08,0-.86-1.16-.96-2.31-1.14-.31-.05-.6-.1-.89-.17l-.8.92c-.01.09-.01.11-.01.15,0,.9.79,1.33,2.09,1.33ZM272.93,273.37c.98,0,1.59-.65,1.59-1.53s-.64-1.56-1.58-1.56-1.62.65-1.62,1.55.63,1.55,1.61,1.55Z"></path><path class="cls-21" d="M280.69,267.08h2.52c1.99,0,2.97.93,2.97,2.5,0,1.25-.64,2.07-1.85,2.38l2.44,4.19h-.92l-2.34-4.07c-.21,0-.44,0-.65,0h-1.36v4.06h-.81v-9.06ZM283.13,271.37c1.38,0,2.24-.55,2.24-1.78s-.88-1.77-2.24-1.77h-1.64v3.56h1.64Z"></path><path class="cls-21" d="M287.7,272.93c0-1.92,1.25-3.29,3.05-3.29s3.04,1.36,3.04,3.29-1.27,3.3-3.04,3.3-3.05-1.36-3.05-3.3ZM290.74,275.54c1.37,0,2.26-1.04,2.26-2.61s-.9-2.61-2.26-2.61-2.28,1.05-2.28,2.61.9,2.61,2.28,2.61Z"></path><path class="cls-21" d="M295.23,272.93c0-1.92,1.25-3.29,3.05-3.29s3.04,1.36,3.04,3.29-1.27,3.3-3.04,3.3-3.05-1.36-3.05-3.3ZM298.28,275.54c1.37,0,2.26-1.04,2.26-2.61s-.9-2.61-2.26-2.61-2.28,1.05-2.28,2.61.9,2.61,2.28,2.61Z"></path><path class="cls-21" d="M303.07,269.73h.78v1.1c.38-.85,1.11-1.19,1.88-1.19.91,0,1.57.4,1.89,1.25.4-.83,1.09-1.25,2-1.25,1.55,0,2.13,1.16,2.13,2.68v3.82h-.78v-3.64c0-1.33-.39-2.18-1.52-2.18-1.02,0-1.65.77-1.65,2.26v3.57h-.78v-3.76c0-1.4-.52-2.07-1.5-2.07-1.03,0-1.67.79-1.67,2.26v3.57h-.78v-6.41Z"></path></g><g><path class="cls-21" d="M397.63,267.08h2.43c2.94,0,4.62,1.68,4.62,4.6s-1.64,4.46-4.63,4.46h-2.42v-9.06ZM399.98,275.4c2.5,0,3.89-1.16,3.89-3.74s-1.4-3.83-3.82-3.83h-1.61v7.57h1.54Z"></path><path class="cls-21" d="M406.29,267.08h.94v1.39h-.94v-1.39ZM406.37,269.73h.77v6.41h-.77v-6.41Z"></path><path class="cls-21" d="M409.18,269.73h.78v1.05c.4-.76,1.12-1.14,2.01-1.14,1.38,0,2.2.81,2.2,2.51v3.99h-.78v-3.71c0-1.45-.55-2.11-1.61-2.11-1.16,0-1.83.79-1.83,2.55v3.27h-.78v-6.41Z"></path><path class="cls-21" d="M416.06,267.08h.94v1.39h-.94v-1.39ZM416.14,269.73h.77v6.41h-.77v-6.41Z"></path><path class="cls-21" d="M418.95,269.73h.78v1.05c.4-.76,1.12-1.14,2.01-1.14,1.38,0,2.2.81,2.2,2.51v3.99h-.78v-3.71c0-1.45-.55-2.11-1.61-2.11-1.16,0-1.83.79-1.83,2.55v3.27h-.78v-6.41Z"></path><path class="cls-21" d="M425.41,276.9s0-.1.03-.26l1.11-.88c-.57-.22-.96-.59-.96-1.26,0-.53.27-.9.72-1.2-.36-.37-.56-.87-.56-1.45,0-1.3,1.04-2.2,2.39-2.2.64,0,1.22.21,1.64.58l1.02-.86.4.49-1,.88c.19.33.3.71.3,1.14,0,1.28-.96,2.13-2.33,2.13-.53,0-.99-.12-1.37-.34-.31.18-.45.42-.45.72,0,.66.63.83,1.62.98,1.6.25,2.99.44,2.99,1.75,0,1.16-1.05,1.78-2.7,1.78-1.82,0-2.85-.7-2.85-2ZM428.27,278.29c1.09,0,1.92-.34,1.92-1.08,0-.86-1.16-.96-2.31-1.14-.31-.05-.6-.1-.89-.17l-.8.92c-.01.09-.01.11-.01.15,0,.9.79,1.33,2.09,1.33ZM428.14,273.37c.98,0,1.59-.65,1.59-1.53s-.64-1.56-1.58-1.56-1.62.65-1.62,1.55.63,1.55,1.61,1.55Z"></path><path class="cls-21" d="M435.89,267.08h2.52c1.99,0,2.97.93,2.97,2.5,0,1.25-.64,2.07-1.85,2.38l2.44,4.19h-.92l-2.34-4.07c-.21,0-.44,0-.65,0h-1.36v4.06h-.81v-9.06ZM438.33,271.37c1.38,0,2.24-.55,2.24-1.78s-.88-1.77-2.24-1.77h-1.64v3.56h1.64Z"></path><path class="cls-21" d="M442.9,272.93c0-1.92,1.25-3.29,3.05-3.29s3.04,1.36,3.04,3.29-1.27,3.3-3.04,3.3-3.05-1.36-3.05-3.3ZM445.95,275.54c1.37,0,2.26-1.04,2.26-2.61s-.9-2.61-2.26-2.61-2.28,1.05-2.28,2.61.9,2.61,2.28,2.61Z"></path><path class="cls-21" d="M450.43,272.93c0-1.92,1.25-3.29,3.05-3.29s3.04,1.36,3.04,3.29-1.27,3.3-3.04,3.3-3.05-1.36-3.05-3.3ZM453.48,275.54c1.37,0,2.26-1.04,2.26-2.61s-.9-2.61-2.26-2.61-2.28,1.05-2.28,2.61.9,2.61,2.28,2.61Z"></path><path class="cls-21" d="M458.27,269.73h.78v1.1c.38-.85,1.11-1.19,1.88-1.19.91,0,1.57.4,1.89,1.25.4-.83,1.09-1.25,2-1.25,1.55,0,2.13,1.16,2.13,2.68v3.82h-.78v-3.64c0-1.33-.39-2.18-1.52-2.18-1.02,0-1.65.77-1.65,2.26v3.57h-.78v-3.76c0-1.4-.52-2.07-1.5-2.07-1.03,0-1.67.79-1.67,2.26v3.57h-.78v-6.41Z"></path></g><g><path class="cls-21" d="M581.61,187.54h2.72c1.68,0,2.68.84,2.68,2.25,0,.94-.46,1.68-1.24,2,1.1.25,1.7,1.07,1.7,2.31,0,1.61-1.02,2.5-2.88,2.5h-2.97v-9.06ZM584.58,191.55c.98,0,1.63-.64,1.63-1.64s-.69-1.61-1.88-1.61h-1.91v3.26h2.16ZM584.53,195.86c1.42,0,2.14-.6,2.14-1.79,0-1.13-.66-1.79-1.79-1.79h-2.46v3.58h2.11Z"></path><path class="cls-21" d="M588.91,193.44c0-1.84.99-3.34,2.81-3.34,1.96,0,2.76,1.53,2.76,2.94,0,.1-.01.4-.04.55h-4.76c.03,1.51.84,2.39,2.14,2.39.82,0,1.35-.23,1.91-.83l.55.49c-.73.75-1.43,1.05-2.46,1.05-1.89,0-2.91-1.41-2.91-3.25ZM593.73,193.02c0-.08,0-.16,0-.24,0-.92-.58-2.02-2-2.02-1.23,0-1.98.98-2.07,2.26h4.06Z"></path><path class="cls-21" d="M595.88,193.39c0-1.96,1.29-3.29,2.92-3.29,1.05,0,1.87.54,2.29,1.36v-3.92h.77v9.06h-.77v-1.26c-.44.85-1.25,1.35-2.29,1.35-1.72,0-2.92-1.42-2.92-3.3ZM598.92,195.97c1.3,0,2.23-1.08,2.23-2.58s-.93-2.58-2.23-2.58-2.26,1.09-2.26,2.58.95,2.58,2.26,2.58Z"></path><path class="cls-21" d="M603.9,190.19h.78v1.09c.43-.78,1.31-1.18,2.02-1.18.33,0,.66.07.99.24l-.39.7c-.21-.1-.51-.17-.77-.17-.68,0-1.46.36-1.74,1.3-.08.27-.12.57-.12,1.27v3.15h-.78v-6.41Z"></path><path class="cls-21" d="M608.28,193.39c0-1.92,1.25-3.29,3.05-3.29s3.04,1.36,3.04,3.29-1.27,3.3-3.04,3.3-3.05-1.36-3.05-3.3ZM611.33,196c1.37,0,2.26-1.04,2.26-2.61s-.9-2.61-2.26-2.61-2.28,1.05-2.28,2.61.9,2.61,2.28,2.61Z"></path><path class="cls-21" d="M615.81,193.39c0-1.92,1.25-3.29,3.05-3.29s3.04,1.36,3.04,3.29-1.27,3.3-3.04,3.3-3.05-1.36-3.05-3.3ZM618.86,196c1.37,0,2.26-1.04,2.26-2.61s-.9-2.61-2.26-2.61-2.28,1.05-2.28,2.61.9,2.61,2.28,2.61Z"></path><path class="cls-21" d="M623.65,190.19h.78v1.1c.38-.85,1.11-1.19,1.88-1.19.91,0,1.57.4,1.89,1.25.4-.83,1.09-1.25,2-1.25,1.55,0,2.13,1.16,2.13,2.68v3.82h-.78v-3.64c0-1.33-.39-2.18-1.52-2.18-1.02,0-1.65.77-1.65,2.26v3.57h-.78v-3.76c0-1.4-.52-2.07-1.5-2.07-1.03,0-1.67.79-1.67,2.26v3.57h-.78v-6.41Z"></path></g><g><path class="cls-27" d="M299.65.6h3.61v.45h-3.11v2.07h2.7v.45h-2.7v2.61h-.5V.6Z"></path><path class="cls-27" d="M304,.6h.58v.86h-.58v-.86ZM304.05,2.23h.47v3.94h-.47v-3.94Z"></path><path class="cls-27" d="M305.86,2.23h.48v.64c.25-.47.69-.7,1.24-.7.85,0,1.36.5,1.36,1.54v2.45h-.48v-2.28c0-.89-.34-1.3-.99-1.3-.71,0-1.13.48-1.13,1.57v2.01h-.48v-3.94Z"></path><path class="cls-27" d="M312.43.6h3.64v.45h-3.15v2.07h2.82v.45h-2.82v2.16h3.15v.45h-3.64V.6Z"></path><path class="cls-27" d="M318.23,4.19l-1.46-1.96h.59l1.18,1.63,1.2-1.63h.58l-1.46,1.96,1.47,1.98h-.59l-1.19-1.64-1.19,1.64h-.58l1.46-1.98Z"></path><path class="cls-27" d="M321.76,5.26v-2.65h-.88v-.38h.88v-1.14l.48-.28v1.42h.95v.38h-.95v2.53c0,.44.14.68.5.68.12,0,.28-.02.45-.08v.38c-.2.06-.4.1-.57.1-.52,0-.86-.3-.86-.97Z"></path><path class="cls-27" d="M323.91,4.23c0-1.13.61-2.05,1.73-2.05,1.21,0,1.7.94,1.7,1.81,0,.06,0,.24-.02.34h-2.93c.02.93.52,1.47,1.32,1.47.5,0,.83-.14,1.17-.51l.34.3c-.45.46-.88.65-1.51.65-1.16,0-1.79-.87-1.79-2ZM326.87,3.97s0-.1,0-.15c0-.57-.36-1.24-1.23-1.24-.75,0-1.22.6-1.27,1.39h2.49Z"></path><path class="cls-27" d="M328.47,2.23h.48v.64c.25-.47.69-.7,1.24-.7.85,0,1.36.5,1.36,1.54v2.45h-.48v-2.28c0-.89-.34-1.3-.99-1.3-.71,0-1.13.48-1.13,1.57v2.01h-.48v-3.94Z"></path><path class="cls-27" d="M332.43,5.33l.34-.28c.2.46.66.77,1.26.77.57,0,.95-.27.95-.72,0-.55-.53-.68-1.1-.82-.66-.16-1.23-.38-1.23-1.06,0-.62.53-1.05,1.29-1.05.6,0,1.1.26,1.37.76l-.37.21c-.21-.38-.57-.58-1.01-.58-.48,0-.84.24-.84.62,0,.4.36.54.93.68.67.16,1.43.34,1.43,1.2,0,.71-.56,1.17-1.42,1.17-.79,0-1.35-.4-1.6-.9Z"></path><path class="cls-27" d="M336.53.6h.58v.86h-.58v-.86ZM336.59,2.23h.47v3.94h-.47v-3.94Z"></path><path class="cls-27" d="M338.2,4.2c0-1.18.77-2.02,1.88-2.02s1.87.84,1.87,2.02-.78,2.03-1.87,2.03-1.88-.84-1.88-2.03ZM340.08,5.8c.84,0,1.39-.64,1.39-1.6s-.55-1.6-1.39-1.6-1.4.64-1.4,1.6.56,1.6,1.4,1.6Z"></path><path class="cls-27" d="M343.1,2.23h.48v.64c.25-.47.69-.7,1.24-.7.85,0,1.36.5,1.36,1.54v2.45h-.48v-2.28c0-.89-.34-1.3-.99-1.3-.71,0-1.13.48-1.13,1.57v2.01h-.48v-3.94Z"></path><path class="cls-27" d="M347.5,2.41h.58v.86h-.58v-.86ZM347.5,5.32h.58v.85h-.58v-.85Z"></path></g><g><path class="cls-27" d="M333.05,11.49h-1.47v-.39h1.03c.29,0,.44-.1.44-.41v-.49h.48v5.57h-.48v-4.28Z"></path><path class="cls-27" d="M335.58,14.19c0-.7.41-1.25,1.08-1.45-.46-.18-.76-.62-.76-1.19,0-.9.78-1.41,1.54-1.41.86,0,1.53.57,1.53,1.45,0,.55-.3.97-.77,1.15.67.21,1.07.76,1.07,1.45,0,1.09-.9,1.64-1.84,1.64s-1.85-.55-1.85-1.64ZM337.43,15.38c.72,0,1.36-.41,1.36-1.22,0-.73-.56-1.22-1.36-1.22s-1.38.48-1.38,1.22c0,.82.66,1.22,1.38,1.22ZM337.45,12.6c.61,0,1.05-.4,1.05-.98,0-.61-.42-1.03-1.06-1.03-.56,0-1.06.36-1.06.98s.44,1.02,1.07,1.02Z"></path><path class="cls-27" d="M340.25,12.97c0-1.33.3-2.84,1.72-2.84s1.75,1.39,1.75,2.85-.4,2.84-1.72,2.84c-1.44,0-1.75-1.51-1.75-2.85ZM342,15.37c.88,0,1.23-1,1.23-2.36s-.36-2.41-1.26-2.41c-.96,0-1.23,1.1-1.23,2.4s.28,2.37,1.26,2.37Z"></path><path class="cls-27" d="M345.73,12.41c.23-.14.5-.22.76-.22,1.01,0,1.81.81,1.81,1.81s-.84,1.83-1.87,1.83-1.88-.8-1.88-1.82c0-.37.12-.7.29-1l1.67-2.81h.54l-1.34,2.21ZM346.44,15.38c.76,0,1.39-.6,1.39-1.38s-.62-1.38-1.39-1.38-1.39.59-1.39,1.38.62,1.38,1.39,1.38Z"></path></g><g><path class="cls-27" d="M333.05,21.09h-1.47v-.39h1.03c.29,0,.44-.1.44-.41v-.49h.48v5.57h-.48v-4.28Z"></path><path class="cls-27" d="M338.85,20.25h-3.43v-.45h3.98v.4l-2.75,5.18h-.53l2.74-5.12Z"></path><path class="cls-27" d="M340.25,22.57c0-1.33.3-2.84,1.72-2.84s1.75,1.39,1.75,2.85-.4,2.84-1.72,2.84c-1.44,0-1.75-1.51-1.75-2.85ZM342,24.96c.88,0,1.23-1,1.23-2.36s-.36-2.41-1.26-2.41c-.96,0-1.23,1.1-1.23,2.4s.28,2.37,1.26,2.37Z"></path><path class="cls-27" d="M345.73,22.01c.23-.14.5-.22.76-.22,1.01,0,1.81.81,1.81,1.81s-.84,1.83-1.87,1.83-1.88-.8-1.88-1.82c0-.37.12-.7.29-1l1.67-2.81h.54l-1.34,2.21ZM346.44,24.98c.76,0,1.39-.6,1.39-1.38s-.62-1.38-1.39-1.38-1.39.59-1.39,1.38.62,1.38,1.39,1.38Z"></path></g><g><path class="cls-27" d="M333.05,30.69h-1.47v-.39h1.03c.29,0,.44-.1.44-.41v-.49h.48v5.57h-.48v-4.28Z"></path><path class="cls-27" d="M336.62,31.61c.23-.14.5-.22.76-.22,1.01,0,1.81.81,1.81,1.81s-.84,1.83-1.87,1.83-1.88-.8-1.88-1.82c0-.37.12-.7.29-1l1.67-2.81h.54l-1.34,2.21ZM337.32,34.58c.76,0,1.39-.6,1.39-1.38s-.62-1.38-1.39-1.38-1.39.59-1.39,1.38.62,1.38,1.39,1.38Z"></path><path class="cls-27" d="M340.25,32.17c0-1.33.3-2.84,1.72-2.84s1.75,1.39,1.75,2.85-.4,2.84-1.72,2.84c-1.44,0-1.75-1.51-1.75-2.85ZM342,34.56c.88,0,1.23-1,1.23-2.36s-.36-2.41-1.26-2.41c-.96,0-1.23,1.1-1.23,2.39s.28,2.38,1.26,2.38Z"></path><path class="cls-27" d="M345.73,31.61c.23-.14.5-.22.76-.22,1.01,0,1.81.81,1.81,1.81s-.84,1.83-1.87,1.83-1.88-.8-1.88-1.82c0-.37.12-.7.29-1l1.67-2.81h.54l-1.34,2.21ZM346.44,34.58c.76,0,1.39-.6,1.39-1.38s-.62-1.38-1.39-1.38-1.39.59-1.39,1.38.62,1.38,1.39,1.38Z"></path></g><g><path class="cls-27" d="M333.05,40.29h-1.47v-.39h1.03c.29,0,.44-.1.44-.41v-.49h.48v5.57h-.48v-4.28Z"></path><path class="cls-27" d="M335.54,43.05l.47-.08c.14.7.66,1.21,1.4,1.21.85,0,1.41-.68,1.41-1.48s-.52-1.38-1.34-1.38c-.51,0-.95.24-1.26.69l-.5-.15.5-2.86h2.84v.45h-2.45l-.34,1.96c.38-.39.82-.55,1.27-.55,1.04,0,1.78.82,1.78,1.83s-.81,1.94-1.91,1.94c-.94,0-1.7-.64-1.88-1.58Z"></path><path class="cls-27" d="M340.25,41.77c0-1.33.3-2.84,1.72-2.84s1.75,1.39,1.75,2.85-.4,2.84-1.72,2.84c-1.44,0-1.75-1.51-1.75-2.85ZM342,44.17c.88,0,1.23-1,1.23-2.36s-.36-2.41-1.26-2.41c-.96,0-1.23,1.1-1.23,2.4s.28,2.37,1.26,2.37Z"></path><path class="cls-27" d="M345.73,41.21c.23-.14.5-.22.76-.22,1.01,0,1.81.81,1.81,1.81s-.84,1.83-1.87,1.83-1.88-.8-1.88-1.82c0-.37.12-.7.29-1l1.67-2.81h.54l-1.34,2.21ZM346.44,44.18c.76,0,1.39-.6,1.39-1.38s-.62-1.38-1.39-1.38-1.39.59-1.39,1.38.62,1.38,1.39,1.38Z"></path></g><g><path class="cls-27" d="M333.05,49.89h-1.47v-.39h1.03c.29,0,.44-.1.44-.41v-.49h.48v5.57h-.48v-4.28Z"></path><path class="cls-27" d="M338.13,52.84h-2.77v-.4l2.79-3.84h.46v3.79h.91v.45h-.91v1.34h-.48v-1.34ZM338.13,52.39v-3.15l-2.25,3.15h2.25Z"></path><path class="cls-27" d="M340.25,51.37c0-1.33.3-2.84,1.72-2.84s1.75,1.39,1.75,2.85-.4,2.84-1.72,2.84c-1.44,0-1.75-1.51-1.75-2.85ZM342,53.77c.88,0,1.23-1,1.23-2.36s-.36-2.41-1.26-2.41c-.96,0-1.23,1.1-1.23,2.39s.28,2.38,1.26,2.38Z"></path><path class="cls-27" d="M345.73,50.81c.23-.14.5-.22.76-.22,1.01,0,1.81.81,1.81,1.81s-.84,1.83-1.87,1.83-1.88-.8-1.88-1.82c0-.37.12-.7.29-1l1.67-2.81h.54l-1.34,2.21ZM346.44,53.78c.76,0,1.39-.6,1.39-1.38s-.62-1.38-1.39-1.38-1.39.59-1.39,1.38.62,1.38,1.39,1.38Z"></path></g><g><path class="cls-27" d="M499.07,19.8h3.61v.45h-3.11v2.07h2.7v.45h-2.7v2.61h-.5v-5.57Z"></path><path class="cls-27" d="M503.41,19.8h.58v.86h-.58v-.86ZM503.46,21.43h.47v3.94h-.47v-3.94Z"></path><path class="cls-27" d="M505.27,21.43h.48v.64c.25-.47.69-.7,1.24-.7.85,0,1.36.5,1.36,1.54v2.45h-.48v-2.28c0-.89-.34-1.3-.99-1.3-.71,0-1.13.48-1.13,1.57v2.01h-.48v-3.94Z"></path><path class="cls-27" d="M511.84,19.8h3.64v.45h-3.15v2.07h2.82v.45h-2.82v2.16h3.15v.45h-3.64v-5.57Z"></path><path class="cls-27" d="M517.64,23.39l-1.46-1.96h.59l1.18,1.63,1.2-1.63h.58l-1.46,1.96,1.47,1.98h-.59l-1.19-1.64-1.19,1.64h-.58l1.46-1.98Z"></path><path class="cls-27" d="M521.16,24.46v-2.65h-.88v-.38h.88v-1.14l.48-.28v1.42h.95v.38h-.95v2.53c0,.44.14.68.5.68.12,0,.28-.02.45-.08v.38c-.2.06-.4.1-.57.1-.52,0-.86-.3-.86-.97Z"></path><path class="cls-27" d="M523.31,23.43c0-1.13.61-2.06,1.73-2.06,1.21,0,1.7.94,1.7,1.81,0,.06,0,.24-.02.34h-2.93c.02.93.52,1.47,1.32,1.47.5,0,.83-.14,1.17-.51l.34.3c-.45.46-.88.65-1.51.65-1.16,0-1.79-.87-1.79-2ZM526.27,23.17s0-.1,0-.15c0-.57-.36-1.24-1.23-1.24-.75,0-1.22.6-1.27,1.39h2.49Z"></path><path class="cls-27" d="M527.88,21.43h.48v.64c.25-.47.69-.7,1.24-.7.85,0,1.36.5,1.36,1.54v2.45h-.48v-2.28c0-.89-.34-1.3-.99-1.3-.71,0-1.13.48-1.13,1.57v2.01h-.48v-3.94Z"></path><path class="cls-27" d="M531.84,24.53l.34-.28c.2.46.66.77,1.26.77.57,0,.95-.27.95-.72,0-.55-.53-.68-1.1-.82-.66-.16-1.23-.38-1.23-1.06,0-.62.53-1.05,1.29-1.05.6,0,1.1.26,1.37.76l-.37.21c-.21-.38-.57-.58-1.01-.58-.48,0-.84.24-.84.62,0,.4.36.54.93.68.67.16,1.43.34,1.43,1.2,0,.71-.56,1.17-1.42,1.17-.79,0-1.35-.4-1.6-.9Z"></path><path class="cls-27" d="M535.94,19.8h.58v.86h-.58v-.86ZM535.99,21.43h.47v3.94h-.47v-3.94Z"></path><path class="cls-27" d="M537.61,23.4c0-1.18.77-2.02,1.88-2.02s1.87.84,1.87,2.02-.78,2.03-1.87,2.03-1.88-.84-1.88-2.03ZM539.49,25c.84,0,1.39-.64,1.39-1.6s-.55-1.6-1.39-1.6-1.4.64-1.4,1.6.56,1.6,1.4,1.6Z"></path><path class="cls-27" d="M542.51,21.43h.48v.64c.25-.47.69-.7,1.24-.7.85,0,1.36.5,1.36,1.54v2.45h-.48v-2.28c0-.89-.34-1.3-.99-1.3-.71,0-1.13.48-1.13,1.57v2.01h-.48v-3.94Z"></path><path class="cls-27" d="M546.91,21.61h.58v.86h-.58v-.86ZM546.91,24.52h.58v.85h-.58v-.85Z"></path></g><g><path class="cls-27" d="M500.81,30.69h-1.47v-.39h1.03c.29,0,.44-.1.44-.41v-.49h.48v5.57h-.48v-4.28Z"></path><path class="cls-27" d="M504.37,31.61c.23-.14.5-.22.76-.22,1.01,0,1.81.81,1.81,1.81s-.84,1.83-1.87,1.83-1.88-.8-1.88-1.82c0-.37.12-.7.29-1l1.67-2.81h.54l-1.34,2.21ZM505.07,34.58c.76,0,1.39-.6,1.39-1.38s-.62-1.38-1.39-1.38-1.39.59-1.39,1.38.62,1.38,1.39,1.38Z"></path><path class="cls-27" d="M508,32.17c0-1.33.3-2.84,1.72-2.84s1.75,1.39,1.75,2.85-.4,2.84-1.72,2.84c-1.44,0-1.75-1.51-1.75-2.85ZM509.76,34.56c.88,0,1.23-1,1.23-2.36s-.36-2.41-1.26-2.41c-.96,0-1.23,1.1-1.23,2.39s.28,2.38,1.26,2.38Z"></path><path class="cls-27" d="M513.48,31.61c.23-.14.5-.22.76-.22,1.01,0,1.81.81,1.81,1.81s-.84,1.83-1.87,1.83-1.88-.8-1.88-1.82c0-.37.12-.7.29-1l1.67-2.81h.54l-1.34,2.21ZM514.18,34.58c.76,0,1.39-.6,1.39-1.38s-.62-1.38-1.39-1.38-1.39.59-1.39,1.38.62,1.38,1.39,1.38Z"></path><path class="cls-27" d="M517.69,33.85h.53l-1.06,2.38h-.34l.87-2.38Z"></path><path class="cls-27" d="M521.02,30.69h-1.47v-.39h1.03c.29,0,.44-.1.44-.41v-.49h.48v5.57h-.48v-4.28Z"></path><path class="cls-27" d="M526.81,29.85h-3.43v-.45h3.98v.4l-2.75,5.18h-.53l2.74-5.12Z"></path><path class="cls-27" d="M528.22,32.17c0-1.33.3-2.84,1.72-2.84s1.75,1.39,1.75,2.85-.4,2.84-1.72,2.84c-1.44,0-1.75-1.51-1.75-2.85ZM529.97,34.56c.88,0,1.23-1,1.23-2.36s-.36-2.41-1.26-2.41c-.96,0-1.23,1.1-1.23,2.39s.28,2.38,1.26,2.38Z"></path><path class="cls-27" d="M533.7,31.61c.23-.14.5-.22.76-.22,1.01,0,1.81.81,1.81,1.81s-.84,1.83-1.87,1.83-1.88-.8-1.88-1.82c0-.37.12-.7.29-1l1.67-2.81h.54l-1.34,2.21ZM534.4,34.58c.76,0,1.39-.6,1.39-1.38s-.62-1.38-1.39-1.38-1.39.59-1.39,1.38.62,1.38,1.39,1.38Z"></path></g><g><path class="cls-27" d="M500.81,40.29h-1.47v-.39h1.03c.29,0,.44-.1.44-.41v-.49h.48v5.57h-.48v-4.28Z"></path><path class="cls-27" d="M503.29,43.05l.47-.08c.14.7.66,1.21,1.4,1.21.85,0,1.41-.68,1.41-1.48s-.52-1.38-1.34-1.38c-.51,0-.95.24-1.26.69l-.5-.15.5-2.86h2.84v.45h-2.45l-.34,1.96c.38-.39.82-.55,1.27-.55,1.04,0,1.78.82,1.78,1.83s-.81,1.94-1.91,1.94c-.94,0-1.7-.64-1.88-1.58Z"></path><path class="cls-27" d="M508,41.77c0-1.33.3-2.84,1.72-2.84s1.75,1.39,1.75,2.85-.4,2.84-1.72,2.84c-1.44,0-1.75-1.51-1.75-2.85ZM509.76,44.17c.88,0,1.23-1,1.23-2.36s-.36-2.41-1.26-2.41c-.96,0-1.23,1.1-1.23,2.4s.28,2.37,1.26,2.37Z"></path><path class="cls-27" d="M513.48,41.21c.23-.14.5-.22.76-.22,1.01,0,1.81.81,1.81,1.81s-.84,1.83-1.87,1.83-1.88-.8-1.88-1.82c0-.37.12-.7.29-1l1.67-2.81h.54l-1.34,2.21ZM514.18,44.18c.76,0,1.39-.6,1.39-1.38s-.62-1.38-1.39-1.38-1.39.59-1.39,1.38.62,1.38,1.39,1.38Z"></path><path class="cls-27" d="M517.69,43.45h.53l-1.06,2.38h-.34l.87-2.38Z"></path><path class="cls-27" d="M521.02,40.29h-1.47v-.39h1.03c.29,0,.44-.1.44-.41v-.49h.48v5.57h-.48v-4.28Z"></path><path class="cls-27" d="M523.54,42.99c0-.7.41-1.25,1.08-1.45-.46-.18-.76-.62-.76-1.19,0-.9.78-1.41,1.54-1.41.86,0,1.53.57,1.53,1.45,0,.55-.3.97-.77,1.15.67.21,1.07.76,1.07,1.45,0,1.09-.9,1.64-1.84,1.64s-1.85-.55-1.85-1.64ZM525.39,44.18c.72,0,1.36-.41,1.36-1.22,0-.73-.56-1.22-1.36-1.22s-1.38.48-1.38,1.22c0,.82.66,1.22,1.38,1.22ZM525.41,41.4c.61,0,1.05-.4,1.05-.98,0-.61-.42-1.03-1.06-1.03-.56,0-1.06.36-1.06.98s.44,1.02,1.07,1.02Z"></path><path class="cls-27" d="M528.22,41.77c0-1.33.3-2.84,1.72-2.84s1.75,1.39,1.75,2.85-.4,2.84-1.72,2.84c-1.44,0-1.75-1.51-1.75-2.85ZM529.97,44.17c.88,0,1.23-1,1.23-2.36s-.36-2.41-1.26-2.41c-.96,0-1.23,1.1-1.23,2.4s.28,2.37,1.26,2.37Z"></path><path class="cls-27" d="M533.7,41.21c.23-.14.5-.22.76-.22,1.01,0,1.81.81,1.81,1.81s-.84,1.83-1.87,1.83-1.88-.8-1.88-1.82c0-.37.12-.7.29-1l1.67-2.81h.54l-1.34,2.21ZM534.4,44.18c.76,0,1.39-.6,1.39-1.38s-.62-1.38-1.39-1.38-1.39.59-1.39,1.38.62,1.38,1.39,1.38Z"></path></g><g><path class="cls-27" d="M500.81,49.89h-1.47v-.39h1.03c.29,0,.44-.1.44-.41v-.49h.48v5.57h-.48v-4.28Z"></path><path class="cls-27" d="M505.87,52.84h-2.77v-.4l2.79-3.84h.46v3.79h.91v.45h-.91v1.34h-.48v-1.34ZM505.87,52.39v-3.15l-2.25,3.15h2.25Z"></path><path class="cls-27" d="M508,51.37c0-1.33.3-2.84,1.72-2.84s1.75,1.39,1.75,2.85-.4,2.84-1.72,2.84c-1.44,0-1.75-1.51-1.75-2.85ZM509.76,53.77c.88,0,1.23-1,1.23-2.36s-.36-2.41-1.26-2.41c-.96,0-1.23,1.1-1.23,2.39s.28,2.38,1.26,2.38Z"></path><path class="cls-27" d="M513.48,50.81c.23-.14.5-.22.76-.22,1.01,0,1.81.81,1.81,1.81s-.84,1.83-1.87,1.83-1.88-.8-1.88-1.82c0-.37.12-.7.29-1l1.67-2.81h.54l-1.34,2.21ZM514.18,53.78c.76,0,1.39-.6,1.39-1.38s-.62-1.38-1.39-1.38-1.39.59-1.39,1.38.62,1.38,1.39,1.38Z"></path></g><g><path class="cls-27" d="M50.58,0h3.61v.45h-3.11v2.07h2.7v.45h-2.7v2.61h-.5V0Z"></path><path class="cls-27" d="M54.93,0h.58v.86h-.58v-.86ZM54.98,1.63h.47v3.94h-.47V1.63Z"></path><path class="cls-27" d="M56.79,1.63h.48v.64c.25-.47.69-.7,1.24-.7.85,0,1.36.5,1.36,1.54v2.45h-.48v-2.28c0-.89-.34-1.3-.99-1.3-.71,0-1.13.48-1.13,1.57v2.01h-.48V1.63Z"></path><path class="cls-27" d="M63.36,0h3.64v.45h-3.15v2.07h2.82v.45h-2.82v2.16h3.15v.45h-3.64V0Z"></path><path class="cls-27" d="M69.16,3.59l-1.46-1.96h.59l1.18,1.63,1.2-1.63h.58l-1.46,1.96,1.47,1.98h-.59l-1.19-1.64-1.19,1.64h-.58l1.46-1.98Z"></path><path class="cls-27" d="M72.69,4.66v-2.65h-.88v-.38h.88V.49l.48-.28v1.42h.95v.38h-.95v2.53c0,.44.14.68.5.68.12,0,.28-.02.45-.08v.38c-.2.06-.4.1-.57.1-.52,0-.86-.3-.86-.97Z"></path><path class="cls-27" d="M74.83,3.63c0-1.13.61-2.06,1.73-2.06,1.21,0,1.7.94,1.7,1.81,0,.06,0,.24-.02.34h-2.93c.02.93.52,1.47,1.32,1.47.5,0,.83-.14,1.18-.51l.34.3c-.45.46-.88.65-1.52.65-1.16,0-1.79-.87-1.79-2ZM77.8,3.37s0-.1,0-.15c0-.57-.36-1.24-1.23-1.24-.76,0-1.22.6-1.27,1.39h2.49Z"></path><path class="cls-27" d="M79.4,1.63h.48v.64c.25-.47.69-.7,1.24-.7.85,0,1.36.5,1.36,1.54v2.45h-.48v-2.28c0-.89-.34-1.3-.99-1.3-.71,0-1.13.48-1.13,1.57v2.01h-.48V1.63Z"></path><path class="cls-27" d="M83.36,4.73l.34-.28c.2.46.66.77,1.26.77.57,0,.95-.27.95-.72,0-.55-.53-.68-1.1-.82-.66-.16-1.23-.38-1.23-1.06,0-.62.53-1.05,1.3-1.05.6,0,1.1.26,1.37.76l-.37.21c-.21-.38-.57-.58-1.02-.58-.48,0-.84.24-.84.62,0,.4.36.54.93.68.67.16,1.44.34,1.44,1.2,0,.71-.56,1.17-1.42,1.17-.79,0-1.35-.4-1.6-.9Z"></path><path class="cls-27" d="M87.46,0h.58v.86h-.58v-.86ZM87.51,1.63h.47v3.94h-.47V1.63Z"></path><path class="cls-27" d="M89.13,3.6c0-1.18.77-2.02,1.88-2.02s1.87.84,1.87,2.02-.78,2.03-1.87,2.03-1.88-.84-1.88-2.03ZM91.01,5.2c.84,0,1.39-.64,1.39-1.6s-.55-1.6-1.39-1.6-1.4.64-1.4,1.6.56,1.6,1.4,1.6Z"></path><path class="cls-27" d="M94.03,1.63h.48v.64c.25-.47.69-.7,1.24-.7.85,0,1.36.5,1.36,1.54v2.45h-.48v-2.28c0-.89-.34-1.3-.99-1.3-.71,0-1.13.48-1.13,1.57v2.01h-.48V1.63Z"></path><path class="cls-27" d="M98.43,1.81h.58v.86h-.58v-.86ZM98.43,4.72h.58v.85h-.58v-.85Z"></path></g><g><path class="cls-27" d="M83.98,10.89h-1.47v-.39h1.03c.29,0,.44-.1.44-.41v-.49h.48v5.57h-.48v-4.28Z"></path><path class="cls-27" d="M89.06,13.84h-2.77v-.4l2.79-3.84h.46v3.79h.91v.45h-.91v1.34h-.48v-1.34ZM89.06,13.39v-3.15l-2.25,3.15h2.25Z"></path><path class="cls-27" d="M91.17,12.37c0-1.33.3-2.84,1.72-2.84s1.75,1.39,1.75,2.85-.4,2.84-1.72,2.84c-1.44,0-1.75-1.51-1.75-2.85ZM92.93,14.77c.88,0,1.23-1,1.23-2.36s-.36-2.41-1.26-2.41c-.96,0-1.23,1.1-1.23,2.39s.28,2.38,1.26,2.38Z"></path><path class="cls-27" d="M96.66,11.81c.23-.14.5-.22.76-.22,1.01,0,1.81.81,1.81,1.81s-.84,1.83-1.87,1.83-1.88-.8-1.88-1.82c0-.37.12-.7.29-1l1.67-2.81h.54l-1.34,2.21ZM97.37,14.78c.76,0,1.39-.6,1.39-1.38s-.62-1.38-1.39-1.38-1.39.59-1.39,1.38.62,1.38,1.39,1.38Z"></path></g><g><path class="cls-27" d="M83.98,20.49h-1.47v-.39h1.03c.29,0,.44-.1.44-.41v-.49h.48v5.57h-.48v-4.28Z"></path><path class="cls-27" d="M86.47,23.25l.47-.08c.14.7.66,1.21,1.4,1.21.85,0,1.41-.68,1.41-1.48s-.52-1.38-1.34-1.38c-.51,0-.95.24-1.26.69l-.5-.15.5-2.86h2.84v.45h-2.45l-.34,1.96c.38-.39.82-.55,1.27-.55,1.04,0,1.78.82,1.78,1.83s-.81,1.94-1.91,1.94c-.94,0-1.69-.64-1.88-1.58Z"></path><path class="cls-27" d="M91.17,21.97c0-1.33.3-2.84,1.72-2.84s1.75,1.39,1.75,2.85-.4,2.84-1.72,2.84c-1.44,0-1.75-1.51-1.75-2.85ZM92.93,24.37c.88,0,1.23-1,1.23-2.36s-.36-2.41-1.26-2.41c-.96,0-1.23,1.1-1.23,2.4s.28,2.37,1.26,2.37Z"></path><path class="cls-27" d="M96.66,21.41c.23-.14.5-.22.76-.22,1.01,0,1.81.81,1.81,1.81s-.84,1.83-1.87,1.83-1.88-.8-1.88-1.82c0-.37.12-.7.29-1l1.67-2.81h.54l-1.34,2.21ZM97.37,24.38c.76,0,1.39-.6,1.39-1.38s-.62-1.38-1.39-1.38-1.39.59-1.39,1.38.62,1.38,1.39,1.38Z"></path></g><g><path class="cls-27" d="M83.98,30.09h-1.47v-.39h1.03c.29,0,.44-.1.44-.41v-.49h.48v5.57h-.48v-4.28Z"></path><path class="cls-27" d="M87.55,31.01c.23-.14.5-.22.76-.22,1.01,0,1.81.81,1.81,1.81s-.84,1.83-1.87,1.83-1.88-.8-1.88-1.82c0-.37.12-.7.29-1l1.67-2.81h.54l-1.34,2.21ZM88.25,33.98c.76,0,1.39-.6,1.39-1.38s-.62-1.38-1.39-1.38-1.39.59-1.39,1.38.62,1.38,1.39,1.38Z"></path><path class="cls-27" d="M91.17,31.57c0-1.33.3-2.84,1.72-2.84s1.75,1.39,1.75,2.85-.4,2.84-1.72,2.84c-1.44,0-1.75-1.51-1.75-2.85ZM92.93,33.96c.88,0,1.23-1,1.23-2.36s-.36-2.41-1.26-2.41c-.96,0-1.23,1.1-1.23,2.4s.28,2.37,1.26,2.37Z"></path><path class="cls-27" d="M96.66,31.01c.23-.14.5-.22.76-.22,1.01,0,1.81.81,1.81,1.81s-.84,1.83-1.87,1.83-1.88-.8-1.88-1.82c0-.37.12-.7.29-1l1.67-2.81h.54l-1.34,2.21ZM97.37,33.98c.76,0,1.39-.6,1.39-1.38s-.62-1.38-1.39-1.38-1.39.59-1.39,1.38.62,1.38,1.39,1.38Z"></path></g><g><path class="cls-27" d="M83.98,39.69h-1.47v-.39h1.03c.29,0,.44-.1.44-.41v-.49h.48v5.57h-.48v-4.28Z"></path><path class="cls-27" d="M89.78,38.85h-3.43v-.45h3.98v.4l-2.75,5.18h-.53l2.74-5.12Z"></path><path class="cls-27" d="M91.17,41.17c0-1.33.3-2.84,1.72-2.84s1.75,1.39,1.75,2.85-.4,2.84-1.72,2.84c-1.44,0-1.75-1.51-1.75-2.85ZM92.93,43.56c.88,0,1.23-1,1.23-2.36s-.36-2.41-1.26-2.41c-.96,0-1.23,1.1-1.23,2.39s.28,2.38,1.26,2.38Z"></path><path class="cls-27" d="M96.66,40.61c.23-.14.5-.22.76-.22,1.01,0,1.81.81,1.81,1.81s-.84,1.83-1.87,1.83-1.88-.8-1.88-1.82c0-.37.12-.7.29-1l1.67-2.81h.54l-1.34,2.21ZM97.37,43.58c.76,0,1.39-.6,1.39-1.38s-.62-1.38-1.39-1.38-1.39.59-1.39,1.38.62,1.38,1.39,1.38Z"></path></g><g><path class="cls-27" d="M83.98,49.29h-1.47v-.39h1.03c.29,0,.44-.1.44-.41v-.49h.48v5.57h-.48v-4.28Z"></path><path class="cls-27" d="M86.51,51.99c0-.7.41-1.25,1.08-1.45-.46-.18-.76-.62-.76-1.19,0-.9.78-1.41,1.54-1.41.86,0,1.53.57,1.53,1.45,0,.55-.3.97-.77,1.15.67.21,1.07.76,1.07,1.45,0,1.09-.9,1.64-1.84,1.64s-1.85-.55-1.85-1.64ZM88.36,53.18c.72,0,1.36-.41,1.36-1.22,0-.73-.56-1.22-1.36-1.22s-1.38.48-1.38,1.22c0,.82.66,1.22,1.38,1.22ZM88.38,50.4c.61,0,1.05-.4,1.05-.98,0-.61-.42-1.03-1.06-1.03-.56,0-1.06.36-1.06.98s.44,1.02,1.07,1.02Z"></path><path class="cls-27" d="M91.17,50.77c0-1.33.3-2.84,1.72-2.84s1.75,1.39,1.75,2.85-.4,2.84-1.72,2.84c-1.44,0-1.75-1.51-1.75-2.85ZM92.93,53.17c.88,0,1.23-1,1.23-2.36s-.36-2.41-1.26-2.41c-.96,0-1.23,1.1-1.23,2.4s.28,2.37,1.26,2.37Z"></path><path class="cls-27" d="M96.66,50.21c.23-.14.5-.22.76-.22,1.01,0,1.81.81,1.81,1.81s-.84,1.83-1.87,1.83-1.88-.8-1.88-1.82c0-.37.12-.7.29-1l1.67-2.81h.54l-1.34,2.21ZM97.37,53.18c.76,0,1.39-.6,1.39-1.38s-.62-1.38-1.39-1.38-1.39.59-1.39,1.38.62,1.38,1.39,1.38Z"></path></g><polyline class="cls-4" points="356.79 51.77 381.94 51.77 383.34 59.6"></polyline><path class="cls-26" d="M384.05,63.57l-3.03-5.22s2.32,1.25,4.06-.73l-1.03,5.95Z"></path><polyline class="cls-4" points="490.38 51.77 462.05 51.77 458.36 62.63"></polyline><path class="cls-26" d="M457.05,66.45l3.78-4.7s-2.48.88-3.91-1.33l.12,6.03Z"></path><polyline class="cls-4" points="107.72 51.17 129.87 51.17 131.32 59.99"></polyline><path class="cls-26" d="M131.98,63.97l-2.96-5.26s2.3,1.28,4.07-.67l-1.11,5.93Z"></path><polyline class="cls-4" points="356.79 42.09 395.05 42.09 398.34 60.47"></polyline><path class="cls-26" d="M399.05,64.45l-3.03-5.22s2.32,1.25,4.06-.73l-1.03,5.95Z"></path><polyline class="cls-4" points="490.38 42.09 458.12 42.09 454.77 62.46"></polyline><path class="cls-26" d="M454.12,66.45l2.96-5.26s-2.3,1.28-4.07-.67l1.12,5.93Z"></path><polyline class="cls-4" points="107.72 41.49 130.98 41.49 134.27 59.87"></polyline><path class="cls-26" d="M134.98,63.85l-3.03-5.22s2.32,1.25,4.06-.73l-1.03,5.95Z"></path><polyline class="cls-4" points="356.79 32.41 401.05 32.41 406.31 60.48"></polyline><path class="cls-26" d="M407.05,64.45l-3.07-5.2s2.33,1.23,4.06-.76l-.98,5.96Z"></path><polyline class="cls-4" points="490.38 32.41 454.12 32.41 451.47 62.43"></polyline><path class="cls-26" d="M451.12,66.45l2.55-5.47s-2.2,1.45-4.11-.36l1.56,5.83Z"></path><polyline class="cls-4" points="107.72 31.81 131.98 31.81 137.24 59.88"></polyline><path class="cls-26" d="M137.98,63.85l-3.07-5.2s2.33,1.23,4.06-.76l-.98,5.96Z"></path><polyline class="cls-4" points="356.79 22.73 404.05 22.73 411.3 61.11"></polyline><path class="cls-26" d="M412.05,65.07l-3.08-5.19s2.33,1.22,4.06-.77l-.97,5.96Z"></path><polyline class="cls-4" points="107.72 22.13 138.98 22.13 146.22 59.51"></polyline><path class="cls-26" d="M146.98,63.47l-3.1-5.18s2.34,1.21,4.05-.78l-.95,5.96Z"></path><polyline class="cls-4" points="356.79 13.05 406.05 13.05 414.37 61.1"></polyline><path class="cls-26" d="M415.05,65.07l-3-5.24s2.31,1.26,4.07-.7l-1.07,5.94Z"></path><polyline class="cls-4" points="107.72 12.45 149.98 12.45 158.28 59.5"></polyline><path class="cls-26" d="M158.98,63.47l-3.02-5.23s2.32,1.25,4.07-.72l-1.05,5.95Z"></path><polyline class="cls-4" points="63.61 98.04 81.9 111.03 90.54 111.03"></polyline><path class="cls-26" d="M94.57,111.03l-5.67-2.06s1.64,2.06,0,4.13l5.67-2.06Z"></path></g></g></svg> 