<?xml version="1.0" encoding="UTF-8"?> <svg xmlns="http://www.w3.org/2000/svg" id="Layer_2" data-name="Layer 2" viewBox="0 0 1091.61 693.59"><defs><style> .cls-1 { stroke: #afa49f; } .cls-1, .cls-2, .cls-3, .cls-4, .cls-5, .cls-6, .cls-7, .cls-8, .cls-9, .cls-10, .cls-11, .cls-12, .cls-13, .cls-14, .cls-15, .cls-16, .cls-17, .cls-18 { fill: none; } .cls-1, .cls-2, .cls-4, .cls-5, .cls-10, .cls-12, .cls-15, .cls-16 { stroke-width: .25px; } .cls-1, .cls-14, .cls-15 { stroke-miterlimit: 10; } .cls-2 { stroke-dasharray: 1.54 1.54; } .cls-2, .cls-3, .cls-4, .cls-5, .cls-6, .cls-7, .cls-8, .cls-9, .cls-10, .cls-11, .cls-12, .cls-13, .cls-16, .cls-17, .cls-18 { stroke-linecap: round; stroke-linejoin: round; } .cls-2, .cls-4, .cls-5, .cls-10, .cls-12 { stroke: #75655e; } .cls-19 { fill: #3a2a22; } .cls-3 { stroke-dasharray: 1.03 1.03; } .cls-3, .cls-6, .cls-7, .cls-9, .cls-11, .cls-13 { stroke: #55453d; stroke-width: .15px; } .cls-4 { stroke-dasharray: 5.89 4.9; } .cls-5 { stroke-dasharray: 5.54 4.62; } .cls-6 { stroke-dasharray: 1.06 1.06; } .cls-20 { fill: #fff; } .cls-8, .cls-14 { stroke-width: .75px; } .cls-8, .cls-14, .cls-16, .cls-17, .cls-18 { stroke: #3a2a22; } .cls-9 { stroke-dasharray: 1.08 1.08; } .cls-21 { fill: #bc8ebc; } .cls-11 { stroke-dasharray: 1.13 1.13; } .cls-12 { stroke-dasharray: 5.45 4.54; } .cls-13 { stroke-dasharray: 1.02 1.02; } .cls-15 { stroke: #bc8ebc; } .cls-22 { fill: #afa49f; } .cls-17 { stroke-width: .35px; } .cls-18 { stroke-width: .35px; } .cls-23 { fill: #75655e; } </style></defs><g id="Layer_1-2" data-name="Layer 1"><g><polygon class="cls-20" points="663.26 646.67 569.77 646.67 569.77 689.33 245.62 689.35 245.62 693.22 128 693.22 102.16 323.64 102.13 323.64 44.2 323.64 .13 219.32 41.79 212.4 83.47 205.74 121.25 199.96 120.05 191.98 164.31 185.6 208.66 179.5 255.04 173.41 301.42 167.77 347.8 162.5 394.28 157.61 440.85 153.08 487.41 148.83 533.98 145.04 580.55 141.62 627.21 138.57 673.86 135.8 720.52 133.49 767.28 131.55 813.93 129.89 860.69 128.69 907.34 127.76 907.34 70.39 876.39 71.03 876.21 62.99 907.34 62.35 946.06 61.79 984.68 61.7 1023.3 61.98 1061.92 62.62 1091.23 63.4 1091.23 71.42 1091.23 562.31 663.26 562.31 663.26 646.67"></polygon><line class="cls-7" x1="876.39" y1="71.03" x2="875.89" y2="71.05"></line><line class="cls-6" x1="874.84" y1="71.08" x2="871.14" y2="71.19"></line><polyline class="cls-7" points="870.61 71.2 870.11 71.22 870.09 70.72"></polyline><line class="cls-13" x1="870.06" y1="69.7" x2="869.87" y2="64.09"></line><polyline class="cls-7" points="869.85 63.59 869.83 63.09 870.33 63.08"></polyline><line class="cls-9" x1="871.41" y1="63.06" x2="875.17" y2="63.01"></line><line class="cls-7" x1="875.71" y1="63" x2="876.21" y2="62.99"></line><line class="cls-7" x1="120.79" y1="200" x2="120.3" y2="200.09"></line><line class="cls-6" x1="119.26" y1="200.26" x2="115.61" y2="200.87"></line><polyline class="cls-7" points="115.09 200.96 114.59 201.04 114.51 200.54"></polyline><line class="cls-3" x1="114.34" y1="199.53" x2="113.41" y2="193.93"></line><polyline class="cls-7" points="113.33 193.42 113.24 192.93 113.74 192.85"></polyline><line class="cls-11" x1="114.86" y1="192.68" x2="118.79" y2="192.09"></line><line class="cls-7" x1="119.35" y1="192.01" x2="119.84" y2="191.93"></line><polygon class="cls-18" points="208.66 193.45 158.49 200.38 108.32 207.78 58.33 215.54 8.26 223.85 47.98 317.91 101.76 317.91 101.76 319.91 46.66 319.91 5.43 222.29 58.01 213.56 108.01 205.8 158.2 198.41 208.66 191.44 208.66 193.45"></polygon><g><path class="cls-7" d="M607.06,627.49c0-25.51,20.68-43.4,46.2-43.4"></path><path class="cls-7" d="M682.18,476.01c0,23.13-18.61,39.35-41.58,39.35"></path><path class="cls-7" d="M195.98,276.33c-23.13,0-39.34,18.62-39.34,41.58"></path></g><line class="cls-7" x1="653.26" y1="627.49" x2="653.26" y2="584.1"></line><line class="cls-7" x1="663.26" y1="630.3" x2="663.26" y2="584.1"></line><g><path class="cls-7" d="M334.58,572.55c-23.13,0-39.34-18.62-39.34-41.58"></path><path class="cls-7" d="M522.8,554.55c0,23.13-18.61,39.35-41.58,39.35"></path><path class="cls-7" d="M864.66,381.31c0,23.13-18.62,39.34-41.58,39.34"></path><path class="cls-7" d="M1003.32,506.08c0-23.13-18.62-40.34-41.58-40.34"></path><path class="cls-7" d="M707.59,357.25c0-23.13,18.62-39.34,41.58-39.34"></path><path class="cls-7" d="M811.05,322.53c-23.13,0-39.34,18.62-39.34,41.58"></path></g><rect class="cls-18" x="607.06" y="627.49" width="46.2" height="2.8"></rect><rect class="cls-18" x="334.58" y="530.97" width="2.23" height="41.58"></rect><rect class="cls-18" x="481.22" y="552.31" width="41.58" height="2.23"></rect><rect class="cls-18" x="823.08" y="379.08" width="41.58" height="2.23"></rect><rect class="cls-18" x="961.74" y="506.08" width="41.58" height="1.23"></rect><rect class="cls-18" x="707.59" y="357.25" width="41.58" height="2.23"></rect><rect class="cls-18" x="811.05" y="322.53" width="2.23" height="41.58"></rect><rect class="cls-18" x="729.49" y="433.48" width="41.58" height="2.23"></rect><rect class="cls-18" x="391.14" y="602.1" width="41.58" height="2.23"></rect><rect class="cls-18" x="914.92" y="473.23" width="2.23" height="41.58"></rect><rect class="cls-18" x="749.17" y="150.4" width="2.23" height="41.58"></rect><rect class="cls-18" x="640.6" y="473.78" width="41.58" height="2.23"></rect><rect class="cls-18" x="195.98" y="276.33" width="2.23" height="41.58"></rect><rect class="cls-18" x="644.02" y="429.89" width="69.3" height="2.23"></rect><line class="cls-18" x1="678.67" y1="429.89" x2="678.67" y2="432.12"></line><rect class="cls-18" x="834.35" y="367.6" width="69.3" height="2.23"></rect><line class="cls-18" x1="869" y1="367.6" x2="869" y2="369.84"></line><line class="cls-10" x1="418.97" y1="461.11" x2="418.97" y2="460.36"></line><line class="cls-2" x1="418.97" y1="458.83" x2="418.98" y2="435.02"></line><polyline class="cls-10" points="418.98 434.25 418.98 433.5 419.73 433.5"></polyline><line class="cls-2" x1="421.26" y1="433.5" x2="445.07" y2="433.51"></line><polyline class="cls-10" points="445.83 433.51 446.58 433.51 446.58 434.26"></polyline><line class="cls-2" x1="446.58" y1="435.79" x2="446.58" y2="459.6"></line><line class="cls-10" x1="446.58" y1="460.37" x2="446.58" y2="461.12"></line><line class="cls-10" x1="531.84" y1="463.34" x2="531.84" y2="466.34"></line><line class="cls-12" x1="531.84" y1="470.88" x2="531.82" y2="518.57"></line><polyline class="cls-10" points="531.82 520.84 531.82 523.84 531.82 523.84 528.82 523.84"></polyline><line class="cls-4" x1="523.92" y1="523.84" x2="418.49" y2="523.84"></line><line class="cls-10" x1="416.04" y1="523.84" x2="413.04" y2="523.84"></line><line class="cls-10" x1="796.47" y1="532.8" x2="793.47" y2="532.8"></line><line class="cls-5" x1="788.85" y1="532.8" x2="730.17" y2="532.81"></line><line class="cls-10" x1="727.86" y1="532.81" x2="724.86" y2="532.81"></line><rect class="cls-18" x="347.25" y="411.4" width="123.95" height="49.71"></rect><g><rect class="cls-18" x="399.58" y="431.17" width="1.74" height="9.78" rx=".59" ry=".59"></rect><path class="cls-18" d="M400.45,446.85c-.49,0-.9.4-.9.9s.4.9.9.9.9-.4.9-.9-.4-.9-.9-.9Z"></path></g><polyline class="cls-18" points="399.58 432.49 397.16 432.49 397.16 434.04 399.58 434.04"></polyline><line class="cls-18" x1="398.02" y1="434.04" x2="398.02" y2="432.49"></line><polyline class="cls-18" points="399.58 436.35 387.53 436.35 387.53 458.1 413.37 458.11 413.37 436.35 401.32 436.35"></polyline><polyline class="cls-18" points="401.32 437.43 412.29 437.43 412.29 457.03 388.61 457.02 388.61 437.43 399.58 437.43"></polyline><line class="cls-18" x1="347.26" y1="511.92" x2="519.9" y2="511.94"></line><line class="cls-18" x1="377.28" y1="511.92" x2="377.28" y2="539.64"></line><line class="cls-18" x1="413.04" y1="511.92" x2="413.03" y2="539.64"></line><line class="cls-18" x1="347.26" y1="514.43" x2="413.04" y2="514.43"></line><line class="cls-18" x1="519.9" y1="511.94" x2="519.94" y2="420.65"></line><line class="cls-18" x1="519.93" y1="463.34" x2="547.63" y2="463.34"></line><line class="cls-18" x1="522.43" y1="463.34" x2="522.43" y2="420.65"></line><polyline class="cls-18" points="1075.14 492.9 1050 492.9 1049.98 402.82 1075.41 402.82"></polyline><path class="cls-18" d="M1067.05,468.78v9.87c0,.4-.32.72-.72.72h-10.9c-.4,0-.72-.32-.72-.72v-20.82c0-.4.32-.72.71-.72h10.9c.4,0,.72.32.72.72v9.48"></path><rect class="cls-18" x="1064.61" y="467.31" width="5.89" height="1.47"></rect><g><circle class="cls-18" cx="1060.88" cy="468.05" r=".84"></circle><path class="cls-18" d="M1067.04,428.03v9.87c0,.4-.32.72-.72.72h-10.9c-.4,0-.72-.32-.72-.72v-20.82c0-.4.32-.72.71-.72h10.9c.4,0,.72.32.72.72v9.48"></path></g><rect class="cls-18" x="1064.61" y="426.55" width="5.89" height="1.47"></rect><g><circle class="cls-18" cx="1060.87" cy="427.29" r=".84"></circle><path class="cls-18" d="M1065.73,359.39c0,.67-.54,1.21-1.21,1.21s-1.21-.54-1.21-1.21.54-1.21,1.21-1.21,1.21.54,1.21,1.21Z"></path><path class="cls-18" d="M1069.71,359.39c0,2.86-2.32,5.18-5.18,5.18s-5.18-2.32-5.18-5.18,2.32-5.18,5.18-5.18,5.18,2.32,5.18,5.18Z"></path><path class="cls-18" d="M1065.64,523.89v15.44c0,.6.49,1.08,1.08,1.08h5.29c.6,0,1.08-.48,1.08-1.08v-15.44c0-.6-.49-1.08-1.08-1.08h-5.29c-.6,0-1.08.49-1.08,1.08Z"></path><path class="cls-18" d="M1061.5,527.15c0-.28-.11-.54-.32-.73-2.09-1.88-5.3-3.08-8.9-3.08-6.31,0-11.42,3.71-11.42,8.28,0,4.57,5.12,8.27,11.42,8.27,3.59,0,6.8-1.21,8.9-3.09.21-.19.32-.46.32-.73v-8.92Z"></path></g><line class="cls-18" x1="1052.28" y1="523.33" x2="1065.8" y2="523.33"></line><line class="cls-18" x1="1052.28" y1="539.88" x2="1065.8" y2="539.88"></line><g><rect class="cls-18" x="552.3" y="608.19" width="7.45" height="17.6" rx="1.08" ry="1.08"></rect><path class="cls-18" d="M548.16,621.45c0,.27-.11.54-.32.73-2.09,1.88-5.3,3.08-8.9,3.08-6.31,0-11.42-3.7-11.42-8.27,0-4.57,5.11-8.27,11.42-8.27,3.59,0,6.8,1.2,8.9,3.08.21.19.32.46.32.73v8.92Z"></path></g><line class="cls-18" x1="538.94" y1="625.27" x2="552.46" y2="625.27"></line><line class="cls-18" x1="538.94" y1="608.72" x2="552.46" y2="608.72"></line><polyline class="cls-18" points="559.76 596.2 534.74 596.2 534.74 547.69"></polyline><path class="cls-18" d="M551.69,571.4v-9.87c0-.4-.32-.72-.72-.72h-10.9c-.4,0-.72.32-.72.72v20.82c0,.4.32.72.72.72h10.9c.4,0,.72-.32.72-.72v-9.48"></path><rect class="cls-18" x="549.26" y="571.4" width="5.89" height="1.47"></rect><circle class="cls-18" cx="545.52" cy="572.14" r=".84"></circle><line class="cls-18" x1="741.86" y1="262.78" x2="741.86" y2="259.57"></line><g><path class="cls-18" d="M741.86,258.71v-11.6c0-1.38-1.12-2.5-2.5-2.5h-61.83c-1.38,0-2.5,1.12-2.5,2.49v24.04c0,1.38,1.12,2.5,2.5,2.5h61.83c1.38,0,2.5-1.12,2.5-2.5v-8.37"></path><path class="cls-18" d="M745.89,259.57h-10.86c-.24,0-.43-.19-.43-.43s.19-.43.43-.43h10.81"></path><path class="cls-18" d="M736.11,258.71c-.17-.46-.61-.79-1.14-.79-.67,0-1.21.54-1.21,1.21s.54,1.21,1.21,1.21c.51,0,.95-.32,1.13-.77"></path><path class="cls-18" d="M740.14,258.71c-.21-2.66-2.45-4.76-5.17-4.76-2.86,0-5.18,2.32-5.18,5.18,0,2.86,2.32,5.18,5.18,5.18,2.71,0,4.94-2.09,5.17-4.74"></path></g><rect class="cls-18" x="745.89" y="256.59" width=".97" height="5.08"></rect><line class="cls-18" x1="746.86" y1="277.36" x2="670.63" y2="277.35"></line><line class="cls-18" x1="746.86" y1="278.64" x2="670.67" y2="278.64"></line><line class="cls-18" x1="742.17" y1="278.64" x2="742.17" y2="277.36"></line><line class="cls-18" x1="704.17" y1="278.64" x2="704.17" y2="277.36"></line><g><path class="cls-18" d="M657.85,290.22h5.29c.6,0,1.08.48,1.08,1.08v15.44c0,.6-.48,1.08-1.08,1.08h-5.29c-.6,0-1.08-.48-1.08-1.08v-15.44c0-.6.48-1.08,1.08-1.08Z"></path><path class="cls-18" d="M668.37,294.56c0-.28.11-.54.32-.73,2.09-1.88,5.3-3.09,8.9-3.09,6.31,0,11.42,3.7,11.42,8.27,0,4.57-5.11,8.28-11.42,8.28-3.59,0-6.8-1.2-8.9-3.08-.21-.19-.32-.46-.32-.73v-8.92Z"></path></g><line class="cls-18" x1="677.59" y1="290.74" x2="664.07" y2="290.74"></line><line class="cls-18" x1="677.59" y1="307.29" x2="664.07" y2="307.29"></line><polyline class="cls-18" points="656.77 319.69 681.79 319.69 681.79 364.11"></polyline><path class="cls-18" d="M664.84,337.7v9.87c0,.4.32.72.72.72h10.9c.4,0,.72-.32.72-.72v-20.82c0-.4-.32-.72-.72-.72h-10.9c-.4,0-.72.32-.72.72v9.48"></path><rect class="cls-18" x="661.39" y="336.23" width="5.89" height="1.47"></rect><circle class="cls-18" cx="671.01" cy="336.96" r=".84"></circle><line class="cls-18" x1="483.53" y1="637.78" x2="558.89" y2="637.77"></line><line class="cls-18" x1="483.53" y1="637.78" x2="559.71" y2="637.77"></line><line class="cls-18" x1="483.53" y1="639.06" x2="559.71" y2="639.05"></line><line class="cls-18" x1="488.22" y1="639.06" x2="488.22" y2="637.78"></line><line class="cls-18" x1="526.21" y1="639.06" x2="526.21" y2="637.78"></line><line class="cls-18" x1="546.33" y1="679.35" x2="546.33" y2="639.05"></line><g><path class="cls-18" d="M496.62,659.21c0,.67-.54,1.21-1.21,1.21s-1.21-.54-1.21-1.21.54-1.21,1.21-1.21,1.21.54,1.21,1.21Z"></path><path class="cls-18" d="M500.59,659.21c0,2.86-2.32,5.18-5.18,5.18s-5.18-2.32-5.18-5.18,2.32-5.18,5.18-5.18,5.18,2.32,5.18,5.18Z"></path><path class="cls-18" d="M709.37,539.13v-15.44c0-.6.48-1.08,1.08-1.08h5.29c.6,0,1.08.48,1.08,1.08v15.44c0,.6-.48,1.08-1.08,1.08h-5.29c-.6,0-1.08-.48-1.08-1.08Z"></path><path class="cls-18" d="M705.23,535.87c0,.28-.11.54-.32.73-2.09,1.88-5.3,3.09-8.89,3.09-6.31,0-11.42-3.7-11.42-8.27,0-4.57,5.11-8.28,11.42-8.28,3.59,0,6.8,1.2,8.9,3.08.21.19.32.46.32.73v8.92Z"></path></g><line class="cls-18" x1="696.01" y1="539.69" x2="709.53" y2="539.69"></line><line class="cls-18" x1="696.01" y1="523.14" x2="709.53" y2="523.13"></line><polyline class="cls-18" points="716.82 510.73 691.81 510.74 691.8 469.16"></polyline><path class="cls-18" d="M708.76,489.4v-9.87c0-.4-.32-.72-.72-.72h-10.9c-.4,0-.72.32-.72.72v20.82c0,.4.32.72.72.72h10.9c.4,0,.72-.32.72-.72v-9.48"></path><rect class="cls-18" x="706.32" y="489.4" width="5.89" height="1.47"></rect><circle class="cls-18" cx="702.59" cy="490.14" r=".84"></circle><rect class="cls-18" x="729.06" y="502.14" width="30.6" height="38.03"></rect><rect class="cls-18" x="761.67" y="502.14" width="30.6" height="38.03"></rect><rect class="cls-17" x="966.02" y="380.99" width="38.21" height="1.58"></rect><rect class="cls-18" x="1042.39" y="380.99" width="33.02" height="1.58"></rect><polygon class="cls-18" points="961.74 507.32 961.73 509.63 960.45 509.63 960.45 507.32 961.74 507.32"></polygon><polyline class="cls-16" points="983.44 337.5 983.44 379.07 966.17 379.07"></polyline><g><path class="cls-18" d="M989.81,426.45c0,1.2-.97,2.17-2.17,2.17s-2.17-.97-2.17-2.17.97-2.17,2.17-2.17,2.17.97,2.17,2.17Z"></path><path class="cls-18" d="M987.64,391.82h0c-9.9,0-17.93,8.03-17.93,17.93v33.33c0,9.9,8.03,17.93,17.93,17.93s17.93-8.03,17.93-17.93v-33.33c0-9.9-8.03-17.93-17.93-17.93Z"></path><path class="cls-18" d="M987.64,458.5c-8.51,0-15.43-6.92-15.43-15.43v-33.33c0-8.51,6.92-15.43,15.43-15.43s15.43,6.92,15.43,15.43v33.33c0,8.51-6.92,15.43-15.43,15.43Z"></path></g><line class="cls-18" x1="1004.23" y1="381" x2="1042.39" y2="381"></line><line class="cls-18" x1="1004.23" y1="382.59" x2="1042.39" y2="382.59"></line><rect class="cls-22" x="966.76" y="509.64" width="29.12" height="1.58"></rect><rect class="cls-18" x="966.76" y="509.64" width="29.12" height="1.58"></rect><rect class="cls-22" x="1034.03" y="509.64" width="39.07" height="1.58"></rect><rect class="cls-18" x="1034.03" y="509.64" width="39.07" height="1.58"></rect><line class="cls-18" x1="995.87" y1="509.65" x2="1034.03" y2="509.65"></line><line class="cls-18" x1="995.87" y1="511.23" x2="1034.03" y2="511.23"></line><rect class="cls-18" x="445.37" y="513.11" width="42.4" height="24.28"></rect><rect class="cls-18" x="446.45" y="514.19" width="40.24" height="22.11"></rect><path class="cls-18" d="M466.53,514.94c.71,0,1.28.57,1.28,1.28s-.57,1.28-1.28,1.28-1.28-.57-1.28-1.28c0-.71.57-1.28,1.28-1.28Z"></path><line class="cls-18" x1="486.69" y1="514.18" x2="487.77" y2="513.1"></line><line class="cls-18" x1="446.45" y1="514.19" x2="445.37" y2="513.11"></line><line class="cls-18" x1="446.45" y1="536.31" x2="445.37" y2="537.39"></line><line class="cls-18" x1="486.69" y1="536.3" x2="487.77" y2="537.38"></line><polygon class="cls-18" points="465.47 516.22 466.53 517.27 467.58 516.22 466.53 515.16 465.47 516.22"></polygon><line class="cls-18" x1="466.53" y1="517.27" x2="466.53" y2="515.16"></line><g><path class="cls-16" d="M460.83,640.17c-1.51.03-3.03.06-4.57.13-.8.04-1.6.09-2.35.13-.57.03-1.11.07-1.78.16-.65.09-1.42.25-1.73-.23-.07-.11-.12-.25-.13-.38-.06-.77,1.18-.9,2.24-.97,2.35-.15,3.74.04,5.44.16.9.06,1.9.1,2.89.14.99-.04,1.98-.08,2.89-.14,1.7-.11,3.09-.3,5.44-.16,1.06.07,2.3.2,2.24.97-.01.13-.06.27-.12.38-.31.48-1.08.33-1.73.23-.67-.1-1.21-.13-1.78-.16-.75-.04-1.56-.09-2.35-.13-1.55-.07-3.06-.1-4.57-.13Z"></path><path class="cls-16" d="M460.83,635.48c-1.51.03-3.03.06-4.57.13-.8.04-1.6.09-2.35.13-.57.03-1.11.07-1.78.16-.65.09-1.42.25-1.73-.23-.07-.11-.12-.25-.13-.38-.06-.77,1.18-.9,2.24-.97,2.35-.15,3.74.04,5.44.16.9.06,1.9.1,2.89.14.99-.04,1.98-.08,2.89-.14,1.7-.11,3.09-.3,5.44-.16,1.06.07,2.3.2,2.24.97-.01.13-.06.27-.12.38-.31.48-1.08.33-1.73.23-.67-.1-1.21-.13-1.78-.16-.75-.04-1.56-.09-2.35-.13-1.55-.07-3.06-.1-4.57-.13Z"></path><path class="cls-16" d="M460.83,630.78c-1.51.03-3.03.06-4.57.13-.8.04-1.6.09-2.35.13-.57.03-1.11.07-1.78.16-.65.09-1.42.25-1.73-.23-.07-.11-.12-.25-.13-.38-.06-.77,1.18-.9,2.24-.97,2.35-.15,3.74.04,5.44.16.9.06,1.9.1,2.89.14.99-.04,1.98-.08,2.89-.14,1.7-.11,3.09-.3,5.44-.16,1.06.07,2.3.2,2.24.97-.01.13-.06.27-.12.38-.31.48-1.08.33-1.73.23-.67-.1-1.21-.13-1.78-.16-.75-.04-1.56-.09-2.35-.13-1.55-.07-3.06-.1-4.57-.13Z"></path><path class="cls-16" d="M406.57,664.92c-.03-1.51-.06-3.03-.13-4.57-.04-.8-.09-1.6-.13-2.36-.03-.57-.07-1.11-.16-1.78-.09-.65-.25-1.42.23-1.73.11-.07.25-.12.38-.13.77-.06.9,1.18.97,2.24.15,2.35-.04,3.74-.16,5.44-.06.9-.1,1.89-.14,2.89.04.99.08,1.98.14,2.89.11,1.7.3,3.09.16,5.44-.07,1.05-.2,2.3-.97,2.24-.13-.01-.27-.06-.38-.13-.48-.3-.32-1.08-.23-1.73.1-.67.13-1.21.16-1.78.04-.75.09-1.56.13-2.35.07-1.55.1-3.06.13-4.57Z"></path><path class="cls-16" d="M411.26,664.92c-.03-1.51-.06-3.03-.13-4.57-.04-.8-.09-1.6-.13-2.36-.03-.57-.07-1.11-.16-1.78-.09-.65-.25-1.42.23-1.73.11-.07.25-.12.38-.13.77-.06.9,1.18.97,2.24.15,2.35-.04,3.74-.16,5.44-.06.9-.1,1.89-.14,2.89.04.99.08,1.98.14,2.89.11,1.7.3,3.09.16,5.44-.07,1.05-.2,2.3-.97,2.24-.13-.01-.27-.06-.38-.13-.48-.3-.32-1.08-.23-1.73.1-.67.13-1.21.16-1.78.04-.75.09-1.56.13-2.35.07-1.55.1-3.06.13-4.57Z"></path><path class="cls-16" d="M415.96,664.92c-.03-1.51-.06-3.03-.13-4.57-.04-.8-.09-1.6-.13-2.36-.03-.57-.07-1.11-.16-1.78-.09-.65-.25-1.42.23-1.73.11-.07.25-.12.38-.13.77-.06.9,1.18.97,2.24.15,2.35-.04,3.74-.16,5.44-.06.9-.1,1.89-.14,2.89.04.99.08,1.98.14,2.89.11,1.7.3,3.09.16,5.44-.07,1.05-.2,2.3-.97,2.24-.13-.01-.27-.06-.38-.13-.48-.3-.32-1.08-.23-1.73.1-.67.13-1.21.16-1.78.05-.75.09-1.56.13-2.35.07-1.55.1-3.06.13-4.57Z"></path><path class="cls-16" d="M362.37,630.1c1.51-.03,3.03-.06,4.57-.13.8-.04,1.6-.09,2.35-.13.57-.03,1.11-.07,1.78-.16.65-.09,1.42-.25,1.73.23.07.11.12.25.13.38.06.77-1.18.9-2.24.97-2.35.15-3.74-.04-5.44-.16-.9-.06-1.9-.1-2.89-.14-.99.04-1.98.08-2.89.14-1.7.11-3.09.3-5.44.16-1.05-.07-2.3-.2-2.24-.97.01-.13.06-.27.12-.38.31-.48,1.08-.33,1.73-.23.67.1,1.21.13,1.78.16.75.04,1.56.09,2.35.13,1.55.07,3.06.1,4.57.13Z"></path><path class="cls-16" d="M362.37,634.79c1.51-.03,3.03-.06,4.57-.13.8-.04,1.6-.09,2.35-.13.57-.03,1.11-.07,1.78-.16.65-.09,1.42-.25,1.73.23.07.11.12.25.13.38.06.77-1.18.9-2.24.97-2.35.15-3.74-.04-5.44-.16-.9-.06-1.9-.1-2.89-.14-.99.04-1.98.08-2.89.14-1.7.11-3.09.3-5.44.16-1.05-.07-2.3-.2-2.24-.97.01-.13.06-.27.12-.38.31-.48,1.08-.33,1.73-.23.67.1,1.21.13,1.78.16.75.04,1.56.09,2.35.13,1.55.07,3.06.1,4.57.13Z"></path><path class="cls-16" d="M362.37,639.49c1.51-.03,3.03-.06,4.57-.13.8-.04,1.6-.09,2.35-.13.57-.03,1.11-.07,1.78-.16.65-.09,1.42-.25,1.73.23.07.11.12.25.13.38.06.77-1.18.9-2.24.97-2.35.15-3.74-.04-5.44-.16-.9-.06-1.9-.1-2.89-.14-.99.04-1.98.08-2.89.14-1.7.11-3.09.3-5.44.16-1.05-.07-2.3-.2-2.24-.97.01-.13.06-.27.12-.38.31-.48,1.08-.33,1.73-.23.67.1,1.21.13,1.78.16.75.04,1.56.09,2.35.13,1.55.07,3.06.1,4.57.13Z"></path></g><polyline class="cls-16" points="460.83 604.29 460.83 664.92 362.37 664.92 362.37 604.29"></polyline><g><path class="cls-16" d="M673.25,448.99c-.03-1.51-.06-3.03-.13-4.57-.04-.8-.09-1.6-.13-2.35-.03-.57-.07-1.11-.16-1.78-.09-.65-.25-1.42.23-1.73.11-.07.25-.12.38-.13.77-.06.9,1.18.97,2.24.15,2.35-.04,3.74-.16,5.44-.06.9-.1,1.9-.14,2.89.04.99.08,1.98.14,2.89.11,1.7.3,3.09.16,5.44-.07,1.05-.2,2.3-.97,2.24-.13-.01-.27-.06-.38-.13-.48-.3-.32-1.08-.23-1.73.1-.67.13-1.21.16-1.78.04-.75.09-1.56.13-2.36.07-1.54.1-3.06.13-4.57Z"></path><path class="cls-16" d="M677.94,448.99c-.03-1.51-.06-3.03-.13-4.57-.04-.8-.09-1.6-.13-2.35-.03-.57-.07-1.11-.16-1.78-.09-.65-.25-1.42.23-1.73.11-.07.25-.12.38-.13.77-.06.9,1.18.97,2.24.15,2.35-.04,3.74-.16,5.44-.06.9-.1,1.9-.14,2.89.04.99.08,1.98.14,2.89.11,1.7.3,3.09.16,5.44-.07,1.05-.2,2.3-.97,2.24-.13-.01-.27-.06-.38-.13-.48-.3-.32-1.08-.23-1.73.1-.67.13-1.21.16-1.78.04-.75.09-1.56.13-2.36.07-1.54.1-3.06.13-4.57Z"></path><path class="cls-16" d="M682.64,448.99c-.03-1.51-.06-3.03-.13-4.57-.04-.8-.09-1.6-.13-2.35-.03-.57-.07-1.11-.16-1.78-.09-.65-.25-1.42.23-1.73.11-.07.25-.12.38-.13.77-.06.9,1.18.97,2.24.15,2.35-.04,3.74-.16,5.44-.06.9-.1,1.9-.14,2.89.04.99.08,1.98.14,2.89.11,1.7.3,3.09.16,5.44-.07,1.05-.2,2.3-.97,2.24-.13-.01-.27-.06-.38-.13-.48-.3-.32-1.08-.23-1.73.1-.67.13-1.21.16-1.78.04-.75.09-1.56.13-2.36.07-1.54.1-3.06.13-4.57Z"></path></g><line class="cls-16" x1="716.83" y1="448.99" x2="640.6" y2="448.99"></line><g><path class="cls-16" d="M863.92,350.83c-.03-1.51-.06-3.03-.13-4.57-.04-.8-.09-1.6-.13-2.35-.03-.57-.07-1.11-.16-1.78-.09-.65-.25-1.42.23-1.73.11-.07.25-.12.38-.13.77-.06.9,1.18.97,2.24.15,2.35-.04,3.74-.16,5.44-.06.9-.1,1.9-.14,2.89.04.99.08,1.98.14,2.89.11,1.7.3,3.09.16,5.44-.07,1.05-.2,2.3-.97,2.24-.13-.01-.27-.06-.38-.13-.48-.3-.32-1.08-.23-1.73.1-.67.13-1.21.16-1.78.04-.75.09-1.56.13-2.36.07-1.54.1-3.06.13-4.57Z"></path><path class="cls-16" d="M868.61,350.83c-.03-1.51-.06-3.03-.13-4.57-.04-.8-.09-1.6-.13-2.35-.03-.57-.07-1.11-.16-1.78-.09-.65-.25-1.42.23-1.73.11-.07.25-.12.38-.13.77-.06.9,1.18.97,2.24.15,2.35-.04,3.74-.16,5.44-.06.9-.1,1.9-.14,2.89.04.99.08,1.98.14,2.89.11,1.7.3,3.09.16,5.44-.07,1.05-.2,2.3-.97,2.24-.13-.01-.27-.06-.38-.13-.48-.3-.32-1.08-.23-1.73.1-.67.13-1.21.16-1.78.04-.75.09-1.56.13-2.36.07-1.54.1-3.06.13-4.57Z"></path><path class="cls-16" d="M873.31,350.83c-.03-1.51-.06-3.03-.13-4.57-.04-.8-.09-1.6-.13-2.35-.03-.57-.07-1.11-.16-1.78-.09-.65-.25-1.42.23-1.73.11-.07.25-.12.38-.13.77-.06.9,1.18.97,2.24.15,2.35-.04,3.74-.16,5.44-.06.9-.1,1.9-.14,2.89.04.99.08,1.98.14,2.89.11,1.7.3,3.09.16,5.44-.07,1.05-.2,2.3-.97,2.24-.13-.01-.27-.06-.38-.13-.48-.3-.32-1.08-.23-1.73.1-.67.13-1.21.16-1.78.04-.75.09-1.56.13-2.36.07-1.54.1-3.06.13-4.57Z"></path></g><line class="cls-16" x1="914.92" y1="350.83" x2="823.08" y2="350.83"></line><g><path class="cls-16" d="M703.2,218.99c-.03-1.51-.06-3.03-.13-4.57-.04-.8-.09-1.6-.13-2.35-.03-.57-.07-1.11-.16-1.78-.09-.65-.25-1.42.23-1.73.11-.07.25-.12.38-.13.77-.06.9,1.18.97,2.24.15,2.35-.04,3.74-.16,5.44-.06.9-.1,1.9-.14,2.89.04.99.08,1.98.14,2.89.11,1.7.3,3.09.16,5.44-.07,1.05-.2,2.3-.97,2.24-.13-.01-.27-.06-.38-.13-.48-.3-.32-1.08-.23-1.73.1-.67.13-1.21.16-1.78.04-.75.09-1.56.13-2.36.07-1.54.1-3.06.13-4.57Z"></path><path class="cls-16" d="M707.89,218.99c-.03-1.51-.06-3.03-.13-4.57-.04-.8-.09-1.6-.13-2.35-.03-.57-.07-1.11-.16-1.78-.09-.65-.25-1.42.23-1.73.11-.07.25-.12.38-.13.77-.06.9,1.18.97,2.24.15,2.35-.04,3.74-.16,5.44-.06.9-.1,1.9-.14,2.89.04.99.08,1.98.14,2.89.11,1.7.3,3.09.16,5.44-.07,1.05-.2,2.3-.97,2.24-.13-.01-.27-.06-.38-.13-.48-.3-.32-1.08-.23-1.73.1-.67.13-1.21.16-1.78.04-.75.09-1.56.13-2.36.07-1.54.1-3.06.13-4.57Z"></path><path class="cls-16" d="M712.58,218.99c-.03-1.51-.06-3.03-.13-4.57-.04-.8-.09-1.6-.13-2.35-.03-.57-.07-1.11-.16-1.78-.09-.65-.25-1.42.23-1.73.11-.07.25-.12.38-.13.77-.06.9,1.18.97,2.24.15,2.35-.04,3.74-.16,5.44-.06.9-.1,1.9-.14,2.89.04.99.08,1.98.14,2.89.11,1.7.3,3.09.16,5.44-.07,1.05-.2,2.3-.97,2.24-.13-.01-.27-.06-.38-.13-.48-.3-.32-1.08-.23-1.73.1-.67.13-1.21.16-1.78.04-.75.09-1.56.13-2.36.07-1.54.1-3.06.13-4.57Z"></path><path class="cls-16" d="M669.03,179.49c1.51-.03,3.03-.06,4.57-.13.8-.04,1.6-.09,2.35-.13.57-.03,1.11-.07,1.78-.16.65-.09,1.42-.25,1.73.23.07.11.12.25.13.38.06.77-1.18.9-2.24.97-2.35.15-3.74-.04-5.44-.16-.9-.06-1.9-.1-2.89-.14-.99.04-1.98.08-2.89.14-1.7.12-3.09.3-5.44.16-1.06-.07-2.3-.2-2.24-.97.01-.13.06-.27.12-.38.31-.48,1.08-.32,1.73-.23.67.1,1.21.13,1.78.16.75.04,1.56.09,2.35.13,1.55.07,3.06.1,4.57.13Z"></path><path class="cls-16" d="M669.03,184.18c1.51-.03,3.03-.06,4.57-.13.8-.04,1.6-.09,2.35-.13.57-.03,1.11-.07,1.78-.16.65-.09,1.42-.25,1.73.23.07.11.12.25.13.38.06.77-1.18.9-2.24.97-2.35.15-3.74-.04-5.44-.16-.9-.06-1.9-.1-2.89-.14-.99.04-1.98.08-2.89.14-1.7.12-3.09.3-5.44.16-1.06-.07-2.3-.2-2.24-.97.01-.13.06-.27.12-.38.31-.48,1.08-.33,1.73-.23.67.1,1.21.13,1.78.16.75.04,1.56.09,2.35.13,1.55.07,3.06.1,4.57.13Z"></path><path class="cls-16" d="M669.03,188.87c1.51-.03,3.03-.06,4.57-.13.8-.04,1.6-.09,2.35-.13.57-.03,1.11-.07,1.78-.16.65-.09,1.42-.25,1.73.23.07.11.12.25.13.38.06.77-1.18.9-2.24.97-2.35.15-3.74-.04-5.44-.16-.9-.06-1.9-.1-2.89-.14-.99.04-1.98.08-2.89.14-1.7.12-3.09.3-5.44.16-1.06-.07-2.3-.2-2.24-.97.01-.13.06-.27.12-.38.31-.48,1.08-.33,1.73-.23.67.1,1.21.13,1.78.16.75.04,1.56.09,2.35.13,1.55.07,3.06.1,4.57.13Z"></path></g><polyline class="cls-16" points="669.03 150.06 669.03 218.99 749.17 218.99"></polyline><line class="cls-16" x1="154.33" y1="325.95" x2="110.44" y2="325.95"></line><line class="cls-16" x1="135.48" y1="685.18" x2="245.62" y2="685.18"></line><line class="cls-16" x1="110.44" y1="325.95" x2="135.48" y2="685.18"></line><line class="cls-16" x1="216.7" y1="186.53" x2="216.7" y2="228.93"></line><line class="cls-16" x1="206.57" y1="187.91" x2="208.66" y2="187.63"></line><polyline class="cls-16" points="208.66 187.63 166.9 193.36 125.13 199.37 83.46 205.74 41.79 212.39 .12 219.32 44.2 323.64 102.13 323.64"></polyline><line class="cls-16" x1="907.34" y1="70.39" x2="876.39" y2="71.03"></line><polyline class="cls-16" points="1081.23 71.24 1061.92 70.75 1025.33 70.11 988.74 69.83 952.06 69.83 915.48 70.29"></polyline><polyline class="cls-16" points="915.48 135.8 868.72 136.54 822.07 137.74 775.31 139.31 728.65 141.25 681.99 143.47 635.34 146.15 588.68 149.2 542.02 152.52 495.45 156.31 448.88 160.38 402.41 164.9 355.94 169.8 309.46 174.98 263.08 180.61 216.7 186.53"></polyline><line class="cls-16" x1="915.48" y1="70.29" x2="915.48" y2="135.8"></line><polygon class="cls-8" points="245.62 690.91 130.12 690.91 104.25 320.22 154.33 320.22 154.33 317.91 101.76 317.91 104.25 320.22 101.76 317.91 128 693.22 245.62 693.22 245.62 690.91"></polygon><line class="cls-8" x1="245.62" y1="690.91" x2="245.62" y2="689.35"></line><polygon class="cls-8" points="1091.23 63.4 1061.92 62.62 1023.3 61.98 984.68 61.7 946.06 61.79 907.34 62.35 907.34 127.76 860.69 128.69 813.93 129.89 767.28 131.55 720.52 133.49 673.87 135.8 627.21 138.57 580.55 141.62 533.98 145.04 487.41 148.83 440.85 153.08 394.28 157.61 347.81 162.5 301.42 167.77 255.04 173.4 208.66 179.5 208.66 228.93 210.97 228.93 210.97 181.44 257.35 175.44 303.73 169.89 350.12 164.63 396.59 159.73 443.16 155.11 489.72 150.95 536.29 147.17 582.86 143.75 629.52 140.7 676.18 138.02 722.83 135.71 769.59 133.77 816.24 132.1 863 130.9 909.75 130.07 909.65 130.07 909.65 64.56 947.72 64.1 985.79 64.01 1023.85 64.29 1061.92 64.93 1091.23 65.72 1091.23 63.4"></polygon><polygon class="cls-8" points="876.3 65.3 907.44 64.66 907.34 62.35 876.21 62.99 876.3 65.3"></polygon><polygon class="cls-8" points="120.33 194.29 164.49 187.91 208.66 181.81 208.66 179.5 164.31 185.6 120.05 191.98 120.33 194.29"></polygon><rect class="cls-8" x="198.22" y="317.91" width="2.31" height="8.04"></rect><rect class="cls-8" x="154.33" y="317.91" width="2.31" height="8.04"></rect><rect class="cls-8" x="236.38" y="685.18" width="2.31" height="5.73"></rect><polyline class="cls-8" points="104.25 320.22 104.35 321.88 110.54 327.7 110.44 325.95 112.11 325.95 105.92 320.22 104.25 320.22"></polyline><polyline class="cls-8" points="109.61 398.02 115.43 397.65 115.62 399.96 109.8 400.33 109.61 398.02"></polyline><polyline class="cls-8" points="114.51 467.13 120.24 466.76 120.42 469.07 114.69 469.44 114.51 467.13"></polyline><rect class="cls-8" x="169.39" y="685.18" width="2.31" height="5.73"></rect><polyline class="cls-8" points="116.91 501.68 122.64 501.31 122.83 503.62 117.1 503.99 116.91 501.68"></polyline><polyline class="cls-8" points="119.31 536.33 125.04 535.87 125.23 538.18 119.5 538.64 119.31 536.33"></polyline><polyline class="cls-8" points="124.12 605.44 129.94 604.98 130.12 607.29 124.3 607.75 124.12 605.44"></polyline><polyline class="cls-8" points="129.01 674.55 134.74 674.18 134.93 676.4 129.11 676.86 129.01 674.55"></polyline><polyline class="cls-8" points="135.48 685.18 135.39 683.61 130.03 689.34 130.12 690.91 131.69 690.91 137.15 685.18 135.48 685.18"></polyline><rect class="cls-8" x="210.97" y="226.62" width="5.73" height="2.31"></rect><polygon class="cls-8" points="285.26 172.11 285.91 177.82 283.69 178.08 282.96 172.39 285.26 172.11"></polygon><polyline class="cls-8" points="354.09 164.17 354.73 169.89 352.42 170.17 351.78 164.44 354.09 164.17"></polyline><polygon class="cls-8" points="423.02 157.1 423.58 162.86 421.26 163.08 420.7 157.33 423.02 157.1"></polygon><polygon class="cls-8" points="491.94 150.77 492.4 156.56 490.09 156.77 489.62 150.98 491.94 150.77"></polygon><polyline class="cls-8" points="561.05 145.32 561.51 151.05 559.2 151.23 558.74 145.5 561.05 145.32"></polyline><polyline class="cls-8" points="595.61 142.92 595.98 148.64 593.67 148.83 593.3 143.01 595.61 142.92"></polyline><polyline class="cls-8" points="630.16 140.7 630.53 146.43 628.22 146.61 627.85 140.79 630.16 140.7"></polyline><rect class="cls-8" x="697.19" y="136.94" width="2.31" height="5.74" transform="translate(-5.93 33.86) rotate(-2.77)"></rect><polygon class="cls-8" points="733.93 135.24 734.2 141.02 731.89 141.12 731.59 135.35 733.93 135.24"></polygon><polyline class="cls-8" points="210.97 181.44 210.97 183.01 216.7 188.1 216.7 186.53 218.27 186.34 212.45 181.26 210.97 181.44"></polyline><polygon class="cls-8" points="1091.23 65.72 1091.23 71.42 1088.92 71.37 1088.92 65.65 1091.23 65.72"></polygon><polyline class="cls-8" points="1022.47 64.29 1022.38 70.11 1020.07 70.02 1020.16 64.29 1022.47 64.29"></polyline><polyline class="cls-8" points="953.17 64.1 953.17 69.83 950.86 69.92 950.86 64.1 953.17 64.1"></polyline><polyline class="cls-8" points="768.57 133.77 768.75 139.59 766.54 139.59 766.26 133.86 768.57 133.77"></polyline><polyline class="cls-8" points="837.86 131.55 837.96 137.28 835.65 137.37 835.55 131.64 837.86 131.55"></polyline><polyline class="cls-8" points="907.07 130.16 907.16 135.89 904.85 135.89 904.76 130.16 907.07 130.16"></polyline><rect class="cls-8" x="909.65" y="126.65" width="5.82" height="2.31"></rect><polyline class="cls-8" points="915.38 71.86 915.48 71.86 915.48 70.29 917.14 70.2 911.32 64.56 909.93 64.56 909.75 64.56 909.75 66.23 915.38 71.86"></polyline><polyline class="cls-8" points="122.64 193.92 123.47 199.65 121.25 200.01 120.33 194.29 122.64 193.92"></polyline><polygon class="cls-8" points="164.49 187.91 165.42 193.58 163.11 193.92 162.22 188.24 164.49 187.91"></polygon><polyline class="cls-8" points="878.61 65.21 878.7 70.94 876.39 71.03 876.3 65.3 878.61 65.21"></polyline><polygon class="cls-19" points="216.7 227.83 216.7 228.93 200.53 228.93 200.53 325.95 199.42 325.95 199.42 331.77 222.52 331.77 222.52 227.83 216.7 227.83"></polygon><polygon class="cls-14" points="216.7 227.83 216.7 228.93 200.53 228.93 200.53 325.95 199.42 325.95 199.42 331.77 222.52 331.77 222.52 227.83 216.7 227.83"></polygon><polygon class="cls-19" points="130.49 530.97 130.96 536.61 125.13 537.07 122.73 502.51 128.55 502.05 129.11 510.74 290.61 510.74 290.61 525.24 295.23 525.24 295.23 530.97 130.49 530.97"></polygon><polygon class="cls-14" points="130.49 530.97 130.96 536.61 125.13 537.07 122.73 502.51 128.55 502.05 129.11 510.74 290.61 510.74 290.61 525.24 295.23 525.24 295.23 530.97 130.49 530.97"></polygon><polygon class="cls-19" points="1091.23 71.42 1081.23 71.22 1081.23 331.77 959.95 331.77 959.95 465.74 965.77 465.74 965.77 337.5 1075.41 337.5 1075.41 509.63 1073.1 509.63 1073.1 552.31 966.41 552.31 966.41 509.63 960.59 509.63 960.59 552.31 920.65 552.31 920.65 514.8 914.92 514.8 914.92 552.31 804.6 552.31 804.6 435.71 914.92 435.71 914.92 473.22 920.65 473.22 920.65 429.85 823.13 429.85 823.13 420.65 817.26 420.65 817.26 429.89 771.06 429.89 771.06 435.71 798.78 435.71 798.78 502.14 796.47 502.14 796.47 545.39 724.87 545.39 724.87 435.71 729.49 435.71 729.49 429.89 713.32 429.89 713.32 435.71 716.83 435.71 716.83 463.43 640.6 463.43 640.6 435.71 644.02 435.71 644.02 429.89 634.78 429.89 634.78 473.78 640.6 473.78 640.6 469.16 716.83 469.16 716.83 552.31 640.65 552.31 640.65 515.36 634.78 515.36 634.78 558.14 653.26 558.14 653.26 584.1 663.26 584.1 663.26 562.31 1091.23 562.31 1091.23 71.42"></polygon><polygon class="cls-14" points="1091.23 71.42 1081.23 71.22 1081.23 331.77 959.95 331.77 959.95 465.74 965.77 465.74 965.77 337.5 1075.41 337.5 1075.41 509.63 1073.1 509.63 1073.1 552.31 966.41 552.31 966.41 509.63 960.59 509.63 960.59 552.31 920.65 552.31 920.65 514.8 914.92 514.8 914.92 552.31 804.6 552.31 804.6 435.71 914.92 435.71 914.92 473.22 920.65 473.22 920.65 429.85 823.13 429.85 823.13 420.65 817.26 420.65 817.26 429.89 771.06 429.89 771.06 435.71 798.78 435.71 798.78 502.14 796.47 502.14 796.47 545.39 724.87 545.39 724.87 435.71 729.49 435.71 729.49 429.89 713.32 429.89 713.32 435.71 716.83 435.71 716.83 463.43 640.6 463.43 640.6 435.71 644.02 435.71 644.02 429.89 634.78 429.89 634.78 473.78 640.6 473.78 640.6 469.16 716.83 469.16 716.83 552.31 640.65 552.31 640.65 515.36 634.78 515.36 634.78 558.14 653.26 558.14 653.26 584.1 663.26 584.1 663.26 562.31 1091.23 562.31 1091.23 71.42"></polygon><g><polygon class="cls-19" points="475.4 547.69 475.4 552.31 481.22 552.31 481.22 547.69 559.76 547.69 559.76 679.36 483.53 679.36 483.53 637.78 481.22 637.78 481.22 593.89 475.4 593.89 475.4 598.51 432.72 598.51 432.72 604.33 475.4 604.33 475.4 679.36 347.25 679.36 347.25 604.29 391.14 604.29 391.14 598.51 341.43 598.51 341.43 679.36 135.11 679.36 135.48 685.18 135.48 685.18 245.62 685.18 245.62 689.35 569.76 689.33 569.76 646.67 663.26 646.67 663.26 630.3 653.26 630.3 653.26 636.67 572.42 636.67 572.42 411.41 519.94 411.41 519.94 420.65 547.65 420.65 547.65 539.66 347.25 539.66 347.25 511.94 341.43 511.94 341.43 525.24 336.81 525.24 336.81 530.97 341.43 530.97 341.43 547.69 475.4 547.69"></polygon><polygon class="cls-14" points="475.4 547.69 475.4 552.31 481.22 552.31 481.22 547.69 559.76 547.69 559.76 679.36 483.53 679.36 483.53 637.78 481.22 637.78 481.22 593.89 475.4 593.89 475.4 598.51 432.72 598.51 432.72 604.33 475.4 604.33 475.4 679.36 347.25 679.36 347.25 604.29 391.14 604.29 391.14 598.51 341.43 598.51 341.43 679.36 135.11 679.36 135.48 685.18 135.48 685.18 245.62 685.18 245.62 689.35 569.76 689.33 569.76 646.67 663.26 646.67 663.26 630.3 653.26 630.3 653.26 636.67 572.42 636.67 572.42 411.41 519.94 411.41 519.94 420.65 547.65 420.65 547.65 539.66 347.25 539.66 347.25 511.94 341.43 511.94 341.43 525.24 336.81 525.24 336.81 530.97 341.43 530.97 341.43 547.69 475.4 547.69"></polygon><polygon class="cls-19" points="926.47 127.76 915.48 127.76 915.48 135.8 904.48 135.89 904.48 330.57 817.26 330.57 817.26 364.11 813.29 364.11 813.29 369.84 817.26 369.84 817.26 379.08 823.08 379.08 823.08 369.84 834.35 369.84 834.35 364.11 823.08 364.11 823.08 336.39 914.92 336.39 914.92 364.11 903.65 364.11 903.65 369.84 920.65 369.84 920.65 280.95 926.47 280.95 926.47 127.76"></polygon><polygon class="cls-14" points="926.47 127.76 915.48 127.76 915.48 135.8 904.48 135.89 904.48 330.57 817.26 330.57 817.26 364.11 813.29 364.11 813.29 369.84 817.26 369.84 817.26 379.08 823.08 379.08 823.08 369.84 834.35 369.84 834.35 364.11 823.08 364.11 823.08 336.39 914.92 336.39 914.92 364.11 903.65 364.11 903.65 369.84 920.65 369.84 920.65 280.95 926.47 280.95 926.47 127.76"></polygon><rect class="cls-19" x="551.63" y="164.26" width="39.27" height="27.72"></rect><rect class="cls-14" x="551.63" y="164.26" width="39.27" height="27.72"></rect><polygon class="cls-19" points="629.42 146.52 675.43 143.84 721.54 141.53 767.64 139.59 767.83 145.32 754.89 145.87 754.89 150.4 749.17 150.4 749.17 146.15 654.46 150.77 654.46 233.55 749.17 233.55 749.17 191.98 754.89 191.98 754.89 317.91 749.17 317.91 749.17 278.64 746.86 278.64 746.86 239.37 670.63 239.37 670.63 278.64 656.77 278.64 656.77 364.11 749.17 364.11 749.17 359.49 754.89 359.49 754.89 364.11 771.71 364.11 771.71 369.84 648.64 369.84 648.64 151.14 629.79 152.25 629.42 146.52"></polygon><polygon class="cls-14" points="629.42 146.52 675.43 143.84 721.54 141.53 767.64 139.59 767.83 145.32 754.89 145.87 754.89 150.4 749.17 150.4 749.17 146.15 654.46 150.77 654.46 233.55 749.17 233.55 749.17 191.98 754.89 191.98 754.89 317.91 749.17 317.91 749.17 278.64 746.86 278.64 746.86 239.37 670.63 239.37 670.63 278.64 656.77 278.64 656.77 364.11 749.17 364.11 749.17 359.49 754.89 359.49 754.89 364.11 771.71 364.11 771.71 369.84 648.64 369.84 648.64 151.14 629.79 152.25 629.42 146.52"></polygon><path class="cls-21" d="M675.41,607.34c-.08-.02-.14-.07-.14-.14s.06-.13.14-.14c3.3-.56,4.94-2.74,4.94-6.02v-3.83c0-1.16,1.01-1.98,2.66-2.21.33-.05.61.23.45.47-.31.46-.46,1.06-.46,1.78v3.48c0,2.95-1.67,5.22-4.98,6.17-.37.11-.37.5,0,.61,3.31.96,4.98,3.22,4.98,6.18v3.48c0,.72.16,1.32.46,1.78.16.23-.12.51-.45.47-1.64-.22-2.66-1.05-2.66-2.2v-3.83c0-3.29-1.64-5.46-4.94-6.02h0Z"></path><path class="cls-15" d="M675.41,607.34c-.08-.02-.14-.07-.14-.14s.06-.13.14-.14c3.3-.56,4.94-2.74,4.94-6.02v-3.83c0-1.16,1.01-1.98,2.66-2.21.33-.05.61.23.45.47-.31.46-.46,1.06-.46,1.78v3.48c0,2.95-1.67,5.22-4.98,6.17-.37.11-.37.5,0,.61,3.31.96,4.98,3.22,4.98,6.18v3.48c0,.72.16,1.32.46,1.78.16.23-.12.51-.45.47-1.64-.22-2.66-1.05-2.66-2.2v-3.83c0-3.29-1.64-5.46-4.94-6.02h0Z"></path></g><g><path class="cls-19" d="M954.64,196.28h2.52c1.9,0,2.97.89,2.97,2.53s-1.07,2.54-2.97,2.54h-1.72v3.99h-.8v-9.06ZM957.08,200.63c1.41,0,2.24-.61,2.24-1.81s-.81-1.81-2.24-1.81h-1.64v3.62h1.64Z"></path><path class="cls-19" d="M961.63,198.93h.78v1.09c.43-.78,1.31-1.18,2.02-1.18.33,0,.66.07.99.24l-.39.7c-.21-.1-.51-.17-.77-.17-.68,0-1.46.36-1.74,1.3-.08.27-.12.57-.12,1.27v3.15h-.78v-6.41Z"></path><path class="cls-19" d="M966.69,196.28h.94v1.39h-.94v-1.39ZM966.78,198.93h.77v6.41h-.77v-6.41Z"></path><path class="cls-19" d="M969.58,198.93h.78v1.1c.38-.85,1.11-1.19,1.88-1.19.91,0,1.57.4,1.89,1.25.4-.83,1.09-1.25,2-1.25,1.55,0,2.13,1.16,2.13,2.68v3.82h-.78v-3.64c0-1.33-.39-2.18-1.52-2.18-1.02,0-1.65.77-1.65,2.26v3.57h-.78v-3.76c0-1.4-.52-2.07-1.5-2.07-1.03,0-1.67.79-1.67,2.26v3.57h-.78v-6.41Z"></path><path class="cls-19" d="M984.41,204.14c-.43.82-1.25,1.29-2.25,1.29-1.44,0-2.31-.77-2.31-1.94,0-.69.29-1.16.72-1.44.46-.31,1.09-.42,1.77-.42h2.05v-.28c0-1.19-.62-1.83-1.82-1.83-.79,0-1.4.29-1.98,1.02l-.56-.48c.68-.85,1.53-1.22,2.59-1.22,1.63,0,2.54.89,2.54,2.51v3.99h-.71l-.04-1.2ZM982.23,204.79c1.18,0,2.17-.93,2.17-2.2v-.36h-1.95c-.51,0-1.03.08-1.37.33-.28.21-.44.51-.44.94,0,.79.6,1.3,1.6,1.3Z"></path><path class="cls-19" d="M987.12,198.93h.78v1.09c.43-.78,1.31-1.18,2.02-1.18.33,0,.66.07.99.24l-.39.7c-.21-.1-.51-.17-.77-.17-.68,0-1.46.36-1.74,1.3-.08.27-.12.57-.12,1.27v3.15h-.78v-6.41Z"></path><path class="cls-19" d="M994.17,205.14l-2.55-6.21h.86l2.1,5.42,2.11-5.42h.85l-3.69,9.05h-.84l1.17-2.84Z"></path><path class="cls-19" d="M1002.43,196.28h2.72c1.68,0,2.68.84,2.68,2.25,0,.94-.46,1.68-1.24,2,1.1.25,1.7,1.07,1.7,2.31,0,1.61-1.02,2.5-2.88,2.5h-2.97v-9.06ZM1005.41,200.29c.98,0,1.63-.64,1.63-1.64s-.69-1.61-1.88-1.61h-1.91v3.26h2.16ZM1005.35,204.6c1.42,0,2.14-.6,2.14-1.79,0-1.13-.66-1.79-1.79-1.79h-2.46v3.58h2.11Z"></path><path class="cls-19" d="M1009.76,202.18c0-1.84.99-3.34,2.81-3.34,1.96,0,2.76,1.53,2.76,2.94,0,.1-.01.4-.04.55h-4.76c.03,1.51.84,2.39,2.14,2.39.82,0,1.35-.23,1.91-.83l.55.49c-.73.75-1.43,1.05-2.46,1.05-1.89,0-2.91-1.41-2.91-3.25ZM1014.58,201.76c0-.08,0-.16,0-.24,0-.92-.58-2.02-2-2.02-1.23,0-1.98.98-2.07,2.26h4.06Z"></path><path class="cls-19" d="M1016.74,202.13c0-1.96,1.29-3.29,2.92-3.29,1.05,0,1.87.54,2.29,1.36v-3.92h.77v9.06h-.77v-1.26c-.44.85-1.25,1.35-2.29,1.35-1.72,0-2.92-1.42-2.92-3.3ZM1019.78,204.71c1.3,0,2.23-1.08,2.23-2.58s-.93-2.58-2.23-2.58-2.26,1.09-2.26,2.58.95,2.58,2.26,2.58Z"></path><path class="cls-19" d="M1024.76,198.93h.78v1.09c.43-.78,1.31-1.18,2.02-1.18.33,0,.66.07.99.24l-.39.7c-.21-.1-.51-.17-.77-.17-.68,0-1.46.36-1.74,1.3-.08.27-.12.57-.12,1.27v3.15h-.78v-6.41Z"></path><path class="cls-19" d="M1029.14,202.13c0-1.92,1.25-3.29,3.05-3.29s3.04,1.36,3.04,3.29-1.27,3.3-3.04,3.3-3.05-1.36-3.05-3.3ZM1032.18,204.74c1.37,0,2.26-1.04,2.26-2.61s-.9-2.61-2.26-2.61-2.28,1.05-2.28,2.61.9,2.61,2.28,2.61Z"></path><path class="cls-19" d="M1036.67,202.13c0-1.92,1.25-3.29,3.05-3.29s3.04,1.36,3.04,3.29-1.27,3.3-3.04,3.3-3.05-1.36-3.05-3.3ZM1039.72,204.74c1.37,0,2.26-1.04,2.26-2.61s-.9-2.61-2.26-2.61-2.28,1.05-2.28,2.61.9,2.61,2.28,2.61Z"></path><path class="cls-19" d="M1044.51,198.93h.78v1.1c.38-.85,1.11-1.19,1.88-1.19.91,0,1.57.4,1.89,1.25.4-.83,1.09-1.25,2-1.25,1.55,0,2.13,1.16,2.13,2.68v3.82h-.78v-3.64c0-1.33-.39-2.18-1.52-2.18-1.02,0-1.65.77-1.65,2.26v3.57h-.78v-3.76c0-1.4-.52-2.07-1.5-2.07-1.03,0-1.67.79-1.67,2.26v3.57h-.78v-6.41Z"></path></g><g><path class="cls-19" d="M804.37,229.04h2.72c1.68,0,2.68.84,2.68,2.25,0,.94-.46,1.68-1.24,2,1.1.25,1.7,1.07,1.7,2.31,0,1.61-1.02,2.5-2.88,2.5h-2.97v-9.06ZM807.34,233.05c.98,0,1.63-.64,1.63-1.64s-.69-1.61-1.88-1.61h-1.91v3.26h2.16ZM807.29,237.36c1.42,0,2.14-.6,2.14-1.79,0-1.13-.66-1.79-1.79-1.79h-2.46v3.58h2.11Z"></path><path class="cls-19" d="M811.67,234.94c0-1.84.99-3.34,2.81-3.34,1.96,0,2.76,1.53,2.76,2.94,0,.1-.01.4-.04.55h-4.76c.03,1.51.84,2.39,2.14,2.39.82,0,1.35-.23,1.91-.83l.55.49c-.73.75-1.43,1.05-2.46,1.05-1.89,0-2.91-1.41-2.91-3.25ZM816.49,234.52c0-.08,0-.16,0-.24,0-.92-.58-2.02-2-2.02-1.23,0-1.98.98-2.07,2.26h4.06Z"></path><path class="cls-19" d="M818.64,234.89c0-1.96,1.29-3.29,2.92-3.29,1.05,0,1.87.54,2.29,1.36v-3.92h.77v9.06h-.77v-1.26c-.44.85-1.25,1.35-2.29,1.35-1.72,0-2.92-1.42-2.92-3.3ZM821.68,237.47c1.3,0,2.23-1.08,2.23-2.58s-.93-2.58-2.23-2.58-2.26,1.09-2.26,2.58.95,2.58,2.26,2.58Z"></path><path class="cls-19" d="M826.65,231.69h.78v1.09c.43-.78,1.31-1.18,2.02-1.18.33,0,.66.07.99.24l-.39.7c-.21-.1-.51-.17-.77-.17-.68,0-1.46.36-1.74,1.3-.08.27-.12.57-.12,1.27v3.15h-.78v-6.41Z"></path><path class="cls-19" d="M831.03,234.89c0-1.92,1.25-3.29,3.05-3.29s3.04,1.36,3.04,3.29-1.27,3.3-3.04,3.3-3.05-1.36-3.05-3.3ZM834.08,237.5c1.37,0,2.26-1.04,2.26-2.61s-.9-2.61-2.26-2.61-2.28,1.05-2.28,2.61.9,2.61,2.28,2.61Z"></path><path class="cls-19" d="M838.57,234.89c0-1.92,1.25-3.29,3.05-3.29s3.04,1.36,3.04,3.29-1.27,3.3-3.04,3.3-3.05-1.36-3.05-3.3ZM841.62,237.5c1.37,0,2.26-1.04,2.26-2.61s-.9-2.61-2.26-2.61-2.28,1.05-2.28,2.61.9,2.61,2.28,2.61Z"></path><path class="cls-19" d="M846.41,231.69h.78v1.1c.38-.85,1.11-1.19,1.88-1.19.91,0,1.57.4,1.89,1.25.4-.83,1.09-1.25,2-1.25,1.55,0,2.13,1.16,2.13,2.68v3.82h-.78v-3.64c0-1.33-.39-2.18-1.52-2.18-1.02,0-1.65.77-1.65,2.26v3.57h-.78v-3.76c0-1.4-.52-2.07-1.5-2.07-1.03,0-1.67.79-1.67,2.26v3.57h-.78v-6.41Z"></path></g><g><path class="cls-19" d="M212.59,600.83h2.72c1.68,0,2.68.84,2.68,2.25,0,.94-.46,1.68-1.24,2,1.1.25,1.7,1.07,1.7,2.31,0,1.61-1.02,2.5-2.88,2.5h-2.97v-9.06ZM215.56,604.84c.98,0,1.63-.64,1.63-1.64s-.69-1.61-1.89-1.61h-1.91v3.26h2.16ZM215.51,609.15c1.42,0,2.14-.6,2.14-1.79,0-1.13-.66-1.79-1.79-1.79h-2.46v3.58h2.11Z"></path><path class="cls-19" d="M219.89,606.73c0-1.84.99-3.34,2.81-3.34,1.96,0,2.76,1.53,2.76,2.94,0,.1-.01.4-.04.55h-4.76c.03,1.51.84,2.39,2.15,2.39.82,0,1.35-.23,1.91-.83l.55.49c-.73.75-1.43,1.05-2.46,1.05-1.89,0-2.91-1.41-2.91-3.25ZM224.71,606.31c0-.08,0-.16,0-.24,0-.92-.58-2.01-2-2.01-1.23,0-1.98.98-2.07,2.26h4.06Z"></path><path class="cls-19" d="M226.86,606.68c0-1.96,1.29-3.29,2.92-3.29,1.05,0,1.87.54,2.29,1.36v-3.92h.77v9.06h-.77v-1.26c-.44.84-1.25,1.35-2.29,1.35-1.72,0-2.92-1.42-2.92-3.3ZM229.9,609.26c1.3,0,2.23-1.08,2.23-2.58s-.93-2.58-2.23-2.58-2.26,1.09-2.26,2.58.95,2.58,2.26,2.58Z"></path><path class="cls-19" d="M234.87,603.48h.78v1.09c.43-.78,1.31-1.18,2.02-1.18.33,0,.66.07.99.24l-.39.7c-.21-.1-.51-.17-.77-.17-.68,0-1.46.36-1.74,1.3-.08.27-.12.57-.12,1.27v3.15h-.78v-6.41Z"></path><path class="cls-19" d="M239.25,606.68c0-1.92,1.25-3.29,3.05-3.29s3.04,1.37,3.04,3.29-1.27,3.3-3.04,3.3-3.05-1.37-3.05-3.3ZM242.3,609.29c1.37,0,2.26-1.04,2.26-2.61s-.9-2.61-2.26-2.61-2.27,1.05-2.27,2.61.9,2.61,2.27,2.61Z"></path><path class="cls-19" d="M246.79,606.68c0-1.92,1.25-3.29,3.05-3.29s3.04,1.37,3.04,3.29-1.27,3.3-3.04,3.3-3.05-1.37-3.05-3.3ZM249.84,609.29c1.37,0,2.26-1.04,2.26-2.61s-.9-2.61-2.26-2.61-2.27,1.05-2.27,2.61.9,2.61,2.27,2.61Z"></path><path class="cls-19" d="M254.63,603.48h.78v1.1c.38-.84,1.11-1.19,1.88-1.19.91,0,1.57.4,1.89,1.25.4-.83,1.09-1.25,2-1.25,1.55,0,2.13,1.16,2.13,2.68v3.82h-.78v-3.64c0-1.33-.39-2.18-1.52-2.18-1.02,0-1.65.77-1.65,2.26v3.57h-.78v-3.76c0-1.4-.52-2.07-1.5-2.07-1.03,0-1.67.79-1.67,2.26v3.57h-.78v-6.41Z"></path></g><g><path class="cls-19" d="M201.83,413.95h2.43c2.94,0,4.62,1.68,4.62,4.6s-1.65,4.46-4.63,4.46h-2.42v-9.06ZM204.18,422.27c2.5,0,3.89-1.16,3.89-3.74s-1.4-3.83-3.82-3.83h-1.61v7.57h1.54Z"></path><path class="cls-19" d="M210.49,413.95h.94v1.39h-.94v-1.39ZM210.57,416.6h.77v6.41h-.77v-6.41Z"></path><path class="cls-19" d="M213.38,416.6h.78v1.05c.4-.76,1.12-1.14,2.01-1.14,1.38,0,2.2.81,2.2,2.51v3.99h-.78v-3.71c0-1.45-.55-2.11-1.61-2.11-1.16,0-1.83.79-1.83,2.55v3.27h-.78v-6.41Z"></path><path class="cls-19" d="M220.26,413.95h.94v1.39h-.94v-1.39ZM220.34,416.6h.77v6.41h-.77v-6.41Z"></path><path class="cls-19" d="M223.15,416.6h.78v1.05c.4-.76,1.12-1.14,2.01-1.14,1.38,0,2.2.81,2.2,2.51v3.99h-.78v-3.71c0-1.45-.55-2.11-1.61-2.11-1.16,0-1.83.79-1.83,2.55v3.27h-.78v-6.41Z"></path><path class="cls-19" d="M229.61,423.77s0-.1.03-.26l1.11-.88c-.57-.22-.96-.59-.96-1.26,0-.53.27-.9.72-1.2-.36-.37-.56-.87-.56-1.45,0-1.3,1.04-2.2,2.39-2.2.64,0,1.22.21,1.64.58l1.02-.86.4.49-1,.88c.2.33.3.71.3,1.14,0,1.28-.96,2.13-2.33,2.13-.53,0-.99-.12-1.37-.34-.31.18-.45.42-.45.72,0,.66.63.83,1.62.98,1.6.25,2.99.44,2.99,1.75,0,1.16-1.05,1.78-2.7,1.78-1.82,0-2.85-.7-2.85-2ZM232.47,425.16c1.09,0,1.92-.34,1.92-1.08,0-.86-1.16-.96-2.31-1.14-.31-.05-.6-.1-.89-.17l-.8.92c-.01.09-.01.11-.01.15,0,.9.79,1.33,2.09,1.33ZM232.34,420.24c.98,0,1.59-.65,1.59-1.53s-.64-1.56-1.58-1.56-1.62.65-1.62,1.55.63,1.55,1.61,1.55Z"></path><path class="cls-19" d="M240.09,413.95h2.52c1.99,0,2.97.93,2.97,2.5,0,1.25-.64,2.07-1.85,2.38l2.44,4.19h-.92l-2.34-4.07c-.21,0-.44,0-.65,0h-1.37v4.06h-.81v-9.06ZM242.53,418.24c1.38,0,2.24-.55,2.24-1.78s-.88-1.77-2.24-1.77h-1.64v3.56h1.64Z"></path><path class="cls-19" d="M247.1,419.8c0-1.92,1.25-3.29,3.05-3.29s3.04,1.36,3.04,3.29-1.27,3.3-3.04,3.3-3.05-1.36-3.05-3.3ZM250.15,422.41c1.37,0,2.26-1.04,2.26-2.61s-.9-2.61-2.26-2.61-2.27,1.05-2.27,2.61.9,2.61,2.27,2.61Z"></path><path class="cls-19" d="M254.63,419.8c0-1.92,1.25-3.29,3.05-3.29s3.04,1.36,3.04,3.29-1.27,3.3-3.04,3.3-3.05-1.36-3.05-3.3ZM257.68,422.41c1.37,0,2.26-1.04,2.26-2.61s-.9-2.61-2.26-2.61-2.27,1.05-2.27,2.61.9,2.61,2.27,2.61Z"></path><path class="cls-19" d="M262.47,416.6h.78v1.1c.38-.85,1.11-1.19,1.88-1.19.91,0,1.57.4,1.89,1.25.4-.83,1.09-1.25,2-1.25,1.55,0,2.13,1.16,2.13,2.68v3.82h-.78v-3.64c0-1.33-.39-2.18-1.52-2.18-1.02,0-1.65.77-1.65,2.26v3.57h-.78v-3.76c0-1.4-.52-2.07-1.5-2.07-1.03,0-1.67.79-1.67,2.26v3.57h-.78v-6.41Z"></path></g><g><path class="cls-19" d="M402.34,297.53h.81v8.33h4.18v.73h-4.99v-9.06Z"></path><path class="cls-19" d="M408.46,297.53h.94v1.39h-.94v-1.39ZM408.55,300.18h.77v6.41h-.77v-6.41Z"></path><path class="cls-19" d="M410.72,300.18h.86l2.1,5.42,2.11-5.42h.85l-2.61,6.41h-.68l-2.63-6.41Z"></path><path class="cls-19" d="M417.97,297.53h.94v1.39h-.94v-1.39ZM418.06,300.18h.77v6.41h-.77v-6.41Z"></path><path class="cls-19" d="M420.86,300.18h.78v1.05c.4-.76,1.12-1.14,2.01-1.14,1.38,0,2.2.81,2.2,2.51v3.99h-.78v-3.71c0-1.45-.55-2.11-1.61-2.11-1.16,0-1.83.79-1.83,2.55v3.27h-.78v-6.41Z"></path><path class="cls-19" d="M427.32,307.35s0-.1.03-.26l1.11-.88c-.57-.22-.96-.59-.96-1.26,0-.53.27-.9.72-1.2-.36-.37-.56-.87-.56-1.45,0-1.3,1.04-2.2,2.39-2.2.64,0,1.22.21,1.64.58l1.02-.86.4.49-1,.88c.19.33.3.71.3,1.14,0,1.28-.96,2.13-2.33,2.13-.53,0-.99-.12-1.37-.34-.31.18-.45.42-.45.72,0,.66.63.83,1.62.98,1.6.25,2.99.44,2.99,1.75,0,1.16-1.05,1.78-2.7,1.78-1.82,0-2.85-.7-2.85-2ZM430.18,308.74c1.09,0,1.92-.34,1.92-1.08,0-.86-1.16-.96-2.31-1.14-.31-.05-.6-.1-.89-.17l-.8.92c-.01.09-.01.11-.01.15,0,.9.79,1.33,2.09,1.33ZM430.05,303.82c.98,0,1.59-.65,1.59-1.53s-.64-1.56-1.58-1.56-1.62.65-1.62,1.55.63,1.55,1.61,1.55Z"></path><path class="cls-19" d="M437.8,297.53h2.52c1.99,0,2.97.93,2.97,2.5,0,1.25-.64,2.07-1.85,2.38l2.44,4.19h-.92l-2.34-4.07c-.21,0-.44,0-.65,0h-1.36v4.06h-.81v-9.06ZM440.25,301.82c1.38,0,2.24-.55,2.24-1.78s-.88-1.77-2.24-1.77h-1.64v3.56h1.64Z"></path><path class="cls-19" d="M444.81,303.38c0-1.92,1.25-3.29,3.05-3.29s3.04,1.36,3.04,3.29-1.27,3.3-3.04,3.3-3.05-1.36-3.05-3.3ZM447.86,305.99c1.37,0,2.26-1.04,2.26-2.61s-.9-2.61-2.26-2.61-2.28,1.05-2.28,2.61.9,2.61,2.28,2.61Z"></path><path class="cls-19" d="M452.34,303.38c0-1.92,1.25-3.29,3.05-3.29s3.04,1.36,3.04,3.29-1.27,3.3-3.04,3.3-3.05-1.36-3.05-3.3ZM455.39,305.99c1.37,0,2.26-1.04,2.26-2.61s-.9-2.61-2.26-2.61-2.28,1.05-2.28,2.61.9,2.61,2.28,2.61Z"></path><path class="cls-19" d="M460.18,300.18h.78v1.1c.38-.85,1.11-1.19,1.88-1.19.91,0,1.57.4,1.89,1.25.4-.83,1.09-1.25,2-1.25,1.55,0,2.13,1.16,2.13,2.68v3.82h-.78v-3.64c0-1.33-.39-2.18-1.52-2.18-1.02,0-1.65.77-1.65,2.26v3.57h-.78v-3.76c0-1.4-.52-2.07-1.5-2.07-1.03,0-1.67.79-1.67,2.26v3.57h-.78v-6.41Z"></path></g><g><path class="cls-19" d="M95.14,253.76h2.72c1.68,0,2.68.84,2.68,2.25,0,.94-.46,1.68-1.24,2,1.1.25,1.7,1.07,1.7,2.31,0,1.61-1.02,2.5-2.88,2.5h-2.97v-9.06ZM98.11,257.77c.98,0,1.63-.64,1.63-1.64s-.69-1.61-1.89-1.61h-1.91v3.26h2.16ZM98.05,262.08c1.42,0,2.14-.6,2.14-1.79,0-1.13-.66-1.79-1.79-1.79h-2.46v3.58h2.11Z"></path><path class="cls-19" d="M106.95,261.62c-.43.82-1.25,1.29-2.25,1.29-1.44,0-2.31-.77-2.31-1.94,0-.69.29-1.16.72-1.44.46-.31,1.09-.42,1.77-.42h2.05v-.28c0-1.19-.62-1.83-1.82-1.83-.79,0-1.4.29-1.98,1.02l-.56-.48c.68-.85,1.53-1.22,2.59-1.22,1.63,0,2.54.89,2.54,2.51v3.99h-.72l-.04-1.2ZM104.78,262.27c1.18,0,2.16-.93,2.16-2.2v-.36h-1.95c-.51,0-1.03.08-1.37.33-.28.21-.44.51-.44.94,0,.79.6,1.3,1.6,1.3Z"></path><path class="cls-19" d="M109.54,261.49v-7.73h.77v7.59c0,.6.23.85.64.85.17,0,.38-.04.61-.12v.67c-.29.11-.6.17-.84.17-.72,0-1.18-.44-1.18-1.42Z"></path><path class="cls-19" d="M112.5,259.61c0-1.83,1.06-3.29,2.86-3.29,1.17,0,2.09.59,2.51,1.74l-.7.27c-.27-.82-.9-1.33-1.81-1.33-1.42,0-2.09,1.25-2.09,2.61s.68,2.62,2.09,2.62c.91,0,1.53-.51,1.81-1.33l.7.27c-.42,1.16-1.34,1.75-2.51,1.75-1.8,0-2.86-1.46-2.86-3.3Z"></path><path class="cls-19" d="M119.11,259.61c0-1.92,1.25-3.29,3.05-3.29s3.04,1.37,3.04,3.29-1.27,3.3-3.04,3.3-3.05-1.36-3.05-3.3ZM122.16,262.22c1.37,0,2.26-1.04,2.26-2.61s-.9-2.61-2.26-2.61-2.27,1.05-2.27,2.61.9,2.61,2.27,2.61Z"></path><path class="cls-19" d="M126.95,256.41h.78v1.05c.4-.76,1.12-1.14,2.01-1.14,1.38,0,2.2.81,2.2,2.51v3.99h-.78v-3.71c0-1.45-.55-2.11-1.61-2.11-1.16,0-1.83.79-1.83,2.55v3.27h-.78v-6.41Z"></path><path class="cls-19" d="M135.66,262.62l-2.55-6.21h.86l2.1,5.42,2.11-5.42h.85l-3.69,9.05h-.84l1.17-2.84Z"></path></g><g><path class="cls-19" d="M389.7,481.57h.81v4.86l4.65-4.86h1.09l-3.45,3.54,3.48,5.52h-.95l-3.11-4.93-1.71,1.75v3.17h-.81v-9.06Z"></path><path class="cls-19" d="M397.43,481.57h.94v1.39h-.94v-1.39ZM397.52,484.22h.77v6.41h-.77v-6.41Z"></path><path class="cls-19" d="M401.09,489.15v-4.31h-1.42v-.62h1.42v-1.85l.79-.46v2.31h1.54v.62h-1.54v4.12c0,.71.22,1.11.81,1.11.19,0,.46-.04.73-.12v.62c-.32.1-.64.16-.92.16-.85,0-1.4-.49-1.4-1.57Z"></path><path class="cls-19" d="M404.44,487.42c0-1.83,1.06-3.29,2.86-3.29,1.17,0,2.09.58,2.51,1.74l-.7.27c-.27-.82-.9-1.33-1.81-1.33-1.42,0-2.09,1.25-2.09,2.61s.68,2.62,2.09,2.62c.91,0,1.53-.51,1.81-1.33l.7.27c-.42,1.16-1.34,1.75-2.51,1.75-1.8,0-2.86-1.46-2.86-3.3Z"></path><path class="cls-19" d="M411.44,481.57h.78v3.69c.4-.75,1.1-1.13,2.01-1.13,1.4,0,2.2.85,2.2,2.51v3.99h-.78v-3.71c0-1.43-.53-2.11-1.61-2.11-1.18,0-1.83.83-1.83,2.55v3.27h-.78v-9.06Z"></path><path class="cls-19" d="M418.07,487.47c0-1.84.99-3.34,2.81-3.34,1.96,0,2.76,1.53,2.76,2.94,0,.1-.01.4-.04.55h-4.76c.03,1.51.84,2.39,2.14,2.39.82,0,1.35-.23,1.91-.83l.55.49c-.73.75-1.43,1.05-2.46,1.05-1.89,0-2.91-1.41-2.91-3.25ZM422.89,487.04c0-.08,0-.16,0-.24,0-.92-.58-2.01-2-2.01-1.23,0-1.98.98-2.07,2.26h4.06Z"></path><path class="cls-19" d="M425.38,484.22h.78v1.05c.4-.76,1.12-1.14,2.01-1.14,1.38,0,2.2.81,2.2,2.51v3.99h-.78v-3.71c0-1.45-.55-2.11-1.61-2.11-1.16,0-1.83.79-1.83,2.55v3.27h-.78v-6.41Z"></path></g><g><path class="cls-19" d="M597.68,567.82h5.86v.73h-5.06v3.37h4.39v.73h-4.39v4.24h-.81v-9.06Z"></path><path class="cls-19" d="M604.27,573.67c0-1.92,1.25-3.29,3.05-3.29s3.04,1.37,3.04,3.29-1.27,3.3-3.04,3.3-3.05-1.37-3.05-3.3ZM607.32,576.27c1.37,0,2.26-1.04,2.26-2.61s-.9-2.61-2.26-2.61-2.28,1.05-2.28,2.61.9,2.61,2.28,2.61Z"></path><path class="cls-19" d="M613.84,576.68l-2.55-6.21h.86l2.1,5.42,2.11-5.42h.85l-3.69,9.05h-.84l1.17-2.84Z"></path><path class="cls-19" d="M618.16,573.72c0-1.84.99-3.34,2.81-3.34,1.96,0,2.76,1.53,2.76,2.94,0,.1-.01.4-.04.55h-4.76c.03,1.51.84,2.39,2.14,2.39.82,0,1.35-.23,1.91-.83l.55.49c-.73.75-1.43,1.05-2.46,1.05-1.89,0-2.91-1.41-2.91-3.25ZM622.98,573.29c0-.08,0-.16,0-.24,0-.92-.58-2.01-2-2.01-1.23,0-1.98.98-2.07,2.26h4.06Z"></path><path class="cls-19" d="M625.46,570.47h.78v1.09c.43-.78,1.31-1.18,2.02-1.18.33,0,.66.07.99.24l-.39.7c-.21-.1-.51-.17-.77-.17-.68,0-1.46.36-1.74,1.3-.08.27-.12.57-.12,1.27v3.15h-.78v-6.41Z"></path></g><g><path class="cls-19" d="M851.02,490.54h.65l1.71,6.06,1.76-5.7h.63l1.76,5.7,1.7-6.06h.65l-2.01,6.98h-.63l-1.79-5.71-1.79,5.71h-.64l-2.01-6.98Z"></path><path class="cls-19" d="M861.02,490.54h.62v6.98h-.62v-6.98Z"></path><path class="cls-19" d="M863.07,494.02c0-2.16,1.26-3.58,3.16-3.58,1.35,0,2.39.71,2.84,1.89l-.58.22c-.38-.96-1.17-1.52-2.26-1.52-1.55,0-2.54,1.17-2.54,2.99s.99,3,2.54,3c1.09,0,1.89-.56,2.26-1.52l.58.21c-.45,1.18-1.49,1.9-2.84,1.9-1.89,0-3.16-1.42-3.16-3.59Z"></path></g><path class="cls-19" d="M739.95,517.84h.65l1.71,6.06,1.76-5.7h.63l1.76,5.7,1.7-6.06h.65l-2.01,6.98h-.63l-1.79-5.71-1.79,5.71h-.64l-2.01-6.98Z"></path><path class="cls-19" d="M774.35,517.84h1.87c2.26,0,3.56,1.29,3.56,3.54s-1.27,3.43-3.57,3.43h-1.86v-6.98ZM776.16,524.24c1.92,0,2.99-.89,2.99-2.88s-1.08-2.95-2.94-2.95h-1.24v5.83h1.19Z"></path><path class="cls-19" d="M385.74,526.97c0-2.17,1.27-3.59,3.16-3.59s3.18,1.42,3.18,3.59-1.27,3.58-3.18,3.58-3.16-1.42-3.16-3.58ZM388.9,529.96c1.57,0,2.55-1.16,2.55-2.99s-.99-3-2.55-3-2.54,1.15-2.54,3,.99,2.99,2.54,2.99Z"></path><path class="cls-19" d="M395.78,522.48h.48l-3.55,9.08h-.47l3.55-9.08Z"></path><path class="cls-19" d="M397.48,523.48h.93l2.35,5.66,2.35-5.66h.92v6.98h-.62v-6.16l-2.35,5.59h-.61l-2.36-5.59v6.16h-.62v-6.98Z"></path><g><path class="cls-19" d="M527.16,438.7h1.94c1.53,0,2.29.72,2.29,1.92,0,.97-.5,1.6-1.43,1.83l1.88,3.22h-.71l-1.8-3.13c-.16,0-.34,0-.5,0h-1.05v3.13h-.62v-6.98ZM529.04,442c1.06,0,1.73-.42,1.73-1.37s-.68-1.37-1.73-1.37h-1.26v2.74h1.26Z"></path><path class="cls-19" d="M533.01,438.7h4.56v.56h-3.94v2.59h3.53v.56h-3.53v2.7h3.94v.56h-4.56v-6.98Z"></path><path class="cls-19" d="M538.87,438.7h4.51v.56h-3.89v2.59h3.38v.56h-3.38v3.26h-.62v-6.98Z"></path></g><g><path class="cls-19" d="M355.03,523.48h.65l1.71,6.06,1.76-5.7h.63l1.76,5.7,1.7-6.06h.65l-2.01,6.98h-.63l-1.79-5.71-1.79,5.71h-.64l-2.01-6.98Z"></path><path class="cls-19" d="M365.03,523.48h4.51v.56h-3.89v2.59h3.38v.56h-3.38v3.26h-.62v-6.98Z"></path></g><g><path class="cls-19" d="M425.94,443.66h1.87c2.26,0,3.56,1.29,3.56,3.54s-1.27,3.43-3.57,3.43h-1.86v-6.98ZM427.75,450.06c1.92,0,2.99-.89,2.99-2.88s-1.08-2.95-2.94-2.95h-1.24v5.83h1.19Z"></path><path class="cls-19" d="M432.03,443.66h.65l1.71,6.06,1.76-5.7h.63l1.76,5.7,1.7-6.06h.65l-2.01,6.98h-.63l-1.79-5.71-1.79,5.71h-.64l-2.01-6.98Z"></path></g><g><path class="cls-19" d="M699.82,181.16h.65l1.71,6.06,1.76-5.7h.63l1.76,5.7,1.7-6.06h.65l-2.01,6.98h-.63l-1.79-5.71-1.79,5.71h-.64l-2.01-6.98Z"></path><path class="cls-19" d="M709.82,181.16h.62v6.98h-.62v-6.98Z"></path><path class="cls-19" d="M711.87,184.64c0-2.16,1.26-3.58,3.16-3.58,1.35,0,2.39.71,2.84,1.89l-.58.22c-.38-.96-1.17-1.52-2.26-1.52-1.55,0-2.54,1.17-2.54,2.99s.99,3,2.54,3c1.09,0,1.89-.56,2.26-1.52l.58.22c-.45,1.18-1.49,1.9-2.84,1.9-1.89,0-3.16-1.42-3.16-3.59Z"></path></g><g><path class="cls-19" d="M402.47,631.12h.65l1.71,6.06,1.76-5.7h.63l1.76,5.7,1.7-6.06h.65l-2.01,6.98h-.63l-1.79-5.71-1.79,5.71h-.64l-2.01-6.98Z"></path><path class="cls-19" d="M412.47,631.12h.62v6.98h-.62v-6.98Z"></path><path class="cls-19" d="M414.52,634.6c0-2.16,1.26-3.58,3.16-3.58,1.35,0,2.39.71,2.84,1.89l-.58.22c-.38-.96-1.17-1.52-2.26-1.52-1.55,0-2.54,1.17-2.54,2.99s.99,3,2.54,3c1.09,0,1.89-.56,2.26-1.52l.58.21c-.45,1.18-1.49,1.9-2.84,1.9-1.89,0-3.16-1.42-3.16-3.59Z"></path></g><g><path class="cls-23" d="M37.87,129.24h3.61v.45h-3.11v2.07h2.7v.45h-2.7v2.61h-.5v-5.57Z"></path><path class="cls-23" d="M42.21,129.24h.58v.86h-.58v-.86ZM42.26,130.87h.47v3.94h-.47v-3.94Z"></path><path class="cls-23" d="M44.07,130.87h.48v.64c.25-.47.69-.7,1.24-.7.85,0,1.36.5,1.36,1.54v2.45h-.48v-2.28c0-.89-.34-1.3-.99-1.3-.71,0-1.13.48-1.13,1.57v2.01h-.48v-3.94Z"></path><path class="cls-23" d="M50.64,129.24h3.64v.45h-3.15v2.07h2.82v.45h-2.82v2.16h3.15v.45h-3.64v-5.57Z"></path><path class="cls-23" d="M56.44,132.83l-1.46-1.96h.59l1.18,1.63,1.2-1.63h.58l-1.46,1.96,1.47,1.98h-.59l-1.19-1.64-1.19,1.64h-.58l1.46-1.98Z"></path><path class="cls-23" d="M59.97,133.9v-2.65h-.88v-.38h.88v-1.14l.48-.28v1.42h.95v.38h-.95v2.53c0,.44.14.68.5.68.12,0,.28-.02.45-.08v.38c-.2.06-.4.1-.57.1-.52,0-.86-.3-.86-.97Z"></path><path class="cls-23" d="M62.12,132.87c0-1.13.61-2.06,1.73-2.06,1.21,0,1.7.94,1.7,1.81,0,.06,0,.24-.02.34h-2.93c.02.93.52,1.47,1.32,1.47.5,0,.83-.14,1.18-.51l.34.3c-.45.46-.88.65-1.52.65-1.16,0-1.79-.87-1.79-2ZM65.08,132.6s0-.1,0-.15c0-.57-.36-1.24-1.23-1.24-.76,0-1.22.6-1.27,1.39h2.49Z"></path><path class="cls-23" d="M66.68,130.87h.48v.64c.25-.47.69-.7,1.24-.7.85,0,1.36.5,1.36,1.54v2.45h-.48v-2.28c0-.89-.34-1.3-.99-1.3-.71,0-1.13.48-1.13,1.57v2.01h-.48v-3.94Z"></path><path class="cls-23" d="M70.64,133.97l.34-.28c.2.46.66.77,1.26.77.57,0,.95-.27.95-.72,0-.55-.53-.68-1.1-.82-.66-.16-1.23-.38-1.23-1.06,0-.62.53-1.05,1.3-1.05.6,0,1.1.26,1.37.76l-.37.21c-.21-.38-.57-.58-1.02-.58-.48,0-.84.24-.84.62,0,.4.36.54.93.68.67.16,1.44.34,1.44,1.2,0,.71-.56,1.17-1.42,1.17-.79,0-1.35-.4-1.6-.9Z"></path><path class="cls-23" d="M74.74,129.24h.58v.86h-.58v-.86ZM74.8,130.87h.47v3.94h-.47v-3.94Z"></path><path class="cls-23" d="M76.42,132.83c0-1.18.77-2.02,1.88-2.02s1.87.84,1.87,2.02-.78,2.03-1.87,2.03-1.88-.84-1.88-2.03ZM78.29,134.44c.84,0,1.39-.64,1.39-1.6s-.55-1.6-1.39-1.6-1.4.64-1.4,1.6.56,1.6,1.4,1.6Z"></path><path class="cls-23" d="M81.31,130.87h.48v.64c.25-.47.69-.7,1.24-.7.85,0,1.36.5,1.36,1.54v2.45h-.48v-2.28c0-.89-.34-1.3-.99-1.3-.71,0-1.13.48-1.13,1.57v2.01h-.48v-3.94Z"></path><path class="cls-23" d="M85.71,131.04h.58v.86h-.58v-.86ZM85.71,133.96h.58v.85h-.58v-.85Z"></path></g><g><path class="cls-23" d="M71.26,140.13h-1.47v-.39h1.03c.29,0,.44-.1.44-.41v-.49h.48v5.57h-.48v-4.28Z"></path><path class="cls-23" d="M76.34,142.2c-.23.14-.5.22-.76.22-1.01,0-1.81-.81-1.81-1.81s.84-1.83,1.87-1.83,1.88.8,1.88,1.82c0,.37-.12.7-.29,1l-1.68,2.81h-.54l1.34-2.21ZM75.63,141.99c.76,0,1.39-.59,1.39-1.38s-.62-1.38-1.39-1.38-1.39.6-1.39,1.38.62,1.38,1.39,1.38Z"></path><path class="cls-23" d="M78.46,141.61c0-1.33.3-2.84,1.72-2.84s1.75,1.39,1.75,2.85-.4,2.84-1.72,2.84c-1.44,0-1.75-1.51-1.75-2.85ZM80.21,144c.88,0,1.23-1,1.23-2.36s-.36-2.41-1.26-2.41c-.96,0-1.23,1.1-1.23,2.39s.28,2.38,1.26,2.38Z"></path><path class="cls-23" d="M84.94,140.13h-1.47v-.39h1.03c.29,0,.44-.1.44-.41v-.49h.48v5.57h-.48v-4.28Z"></path></g><g><path class="cls-23" d="M72.21,150.05c0-.73-.43-1.2-1.19-1.2-.84,0-1.26.58-1.27,1.45l-.47-.03c0-1.07.62-1.88,1.75-1.88.99,0,1.64.65,1.64,1.65,0,1.49-1.5,2.65-2.81,3.53h3.04v.45h-3.64v-.44c1.02-.82,2.94-2.02,2.94-3.53Z"></path><path class="cls-23" d="M73.91,151.21c0-1.33.3-2.84,1.72-2.84s1.75,1.39,1.75,2.85-.4,2.84-1.72,2.84c-1.44,0-1.75-1.51-1.75-2.85ZM75.66,153.6c.88,0,1.23-1,1.23-2.36s-.36-2.41-1.26-2.41c-.96,0-1.23,1.1-1.23,2.4s.28,2.37,1.26,2.37Z"></path><path class="cls-23" d="M78.46,151.21c0-1.33.3-2.84,1.72-2.84s1.75,1.39,1.75,2.85-.4,2.84-1.72,2.84c-1.44,0-1.75-1.51-1.75-2.85ZM80.21,153.6c.88,0,1.23-1,1.23-2.36s-.36-2.41-1.26-2.41c-.96,0-1.23,1.1-1.23,2.4s.28,2.37,1.26,2.37Z"></path><path class="cls-23" d="M84.94,149.73h-1.47v-.39h1.03c.29,0,.44-.1.44-.41v-.49h.48v5.57h-.48v-4.28Z"></path></g><g><path class="cls-23" d="M904.42,0h3.61v.45h-3.11v2.07h2.7v.45h-2.7v2.61h-.5V0Z"></path><path class="cls-23" d="M908.76,0h.58v.86h-.58v-.86ZM908.82,1.63h.47v3.94h-.47V1.63Z"></path><path class="cls-23" d="M910.62,1.63h.48v.64c.25-.47.69-.7,1.24-.7.85,0,1.36.5,1.36,1.54v2.45h-.48v-2.28c0-.89-.34-1.3-.99-1.3-.71,0-1.13.48-1.13,1.57v2.01h-.48V1.63Z"></path><path class="cls-23" d="M917.19,0h3.64v.45h-3.15v2.07h2.82v.45h-2.82v2.16h3.15v.45h-3.64V0Z"></path><path class="cls-23" d="M922.99,3.59l-1.46-1.96h.59l1.18,1.63,1.2-1.63h.58l-1.46,1.96,1.47,1.98h-.59l-1.19-1.64-1.19,1.64h-.58l1.46-1.98Z"></path><path class="cls-23" d="M926.51,4.66v-2.65h-.88v-.38h.88V.49l.48-.28v1.42h.95v.38h-.95v2.53c0,.44.14.68.5.68.12,0,.28-.02.45-.08v.38c-.2.06-.4.1-.57.1-.52,0-.86-.3-.86-.97Z"></path><path class="cls-23" d="M928.66,3.63c0-1.13.61-2.06,1.73-2.06,1.21,0,1.7.94,1.7,1.81,0,.06,0,.24-.02.34h-2.93c.02.93.52,1.47,1.32,1.47.5,0,.83-.14,1.17-.51l.34.3c-.45.46-.88.65-1.51.65-1.16,0-1.79-.87-1.79-2ZM931.62,3.37s0-.1,0-.15c0-.57-.36-1.24-1.23-1.24-.75,0-1.22.6-1.27,1.39h2.49Z"></path><path class="cls-23" d="M933.23,1.63h.48v.64c.25-.47.69-.7,1.24-.7.85,0,1.36.5,1.36,1.54v2.45h-.48v-2.28c0-.89-.34-1.3-.99-1.3-.71,0-1.13.48-1.13,1.57v2.01h-.48V1.63Z"></path><path class="cls-23" d="M937.19,4.73l.34-.28c.2.46.66.77,1.26.77.57,0,.95-.27.95-.72,0-.55-.53-.68-1.1-.82-.66-.16-1.23-.38-1.23-1.06,0-.62.53-1.05,1.29-1.05.6,0,1.1.26,1.37.76l-.37.21c-.21-.38-.57-.58-1.01-.58-.48,0-.84.24-.84.62,0,.4.36.54.93.68.67.16,1.43.34,1.43,1.2,0,.71-.56,1.17-1.42,1.17-.79,0-1.35-.4-1.6-.9Z"></path><path class="cls-23" d="M941.29,0h.58v.86h-.58v-.86ZM941.34,1.63h.47v3.94h-.47V1.63Z"></path><path class="cls-23" d="M942.96,3.6c0-1.18.77-2.02,1.88-2.02s1.87.84,1.87,2.02-.78,2.03-1.87,2.03-1.88-.84-1.88-2.03ZM944.84,5.2c.84,0,1.39-.64,1.39-1.6s-.55-1.6-1.39-1.6-1.4.64-1.4,1.6.56,1.6,1.4,1.6Z"></path><path class="cls-23" d="M947.86,1.63h.48v.64c.25-.47.69-.7,1.24-.7.85,0,1.36.5,1.36,1.54v2.45h-.48v-2.28c0-.89-.34-1.3-.99-1.3-.71,0-1.13.48-1.13,1.57v2.01h-.48V1.63Z"></path><path class="cls-23" d="M952.26,1.81h.58v.86h-.58v-.86ZM952.26,4.72h.58v.85h-.58v-.85Z"></path></g><g><path class="cls-23" d="M906.16,10.89h-1.47v-.39h1.03c.29,0,.44-.1.44-.41v-.49h.48v5.57h-.48v-4.28Z"></path><path class="cls-23" d="M911.22,12.97c-.23.14-.5.22-.76.22-1.01,0-1.81-.81-1.81-1.81s.84-1.83,1.87-1.83,1.88.8,1.88,1.82c0,.37-.12.7-.29,1l-1.67,2.81h-.54l1.34-2.21ZM910.52,12.75c.76,0,1.39-.59,1.39-1.38s-.62-1.38-1.39-1.38-1.39.6-1.39,1.38.62,1.38,1.39,1.38Z"></path><path class="cls-23" d="M913.35,12.37c0-1.33.3-2.84,1.72-2.84s1.75,1.39,1.75,2.85-.4,2.84-1.72,2.84c-1.44,0-1.75-1.51-1.75-2.85ZM915.11,14.76c.88,0,1.23-1,1.23-2.36s-.36-2.41-1.26-2.41c-.96,0-1.23,1.1-1.23,2.4s.28,2.37,1.26,2.37Z"></path><path class="cls-23" d="M919.82,10.89h-1.47v-.39h1.03c.29,0,.44-.1.44-.41v-.49h.48v5.57h-.48v-4.28Z"></path></g><g><path class="cls-23" d="M907.11,20.81c0-.73-.43-1.2-1.19-1.2-.83,0-1.26.58-1.27,1.45l-.47-.03c0-1.07.62-1.88,1.76-1.88.99,0,1.64.65,1.64,1.65,0,1.49-1.5,2.65-2.81,3.53h3.04v.45h-3.64v-.44c1.02-.82,2.94-2.02,2.94-3.53Z"></path><path class="cls-23" d="M908.79,21.97c0-1.33.3-2.84,1.72-2.84s1.75,1.39,1.75,2.85-.4,2.84-1.72,2.84c-1.44,0-1.75-1.51-1.75-2.85ZM910.55,24.36c.88,0,1.23-1,1.23-2.36s-.36-2.41-1.26-2.41c-.96,0-1.23,1.1-1.23,2.39s.28,2.38,1.26,2.38Z"></path><path class="cls-23" d="M913.35,21.97c0-1.33.3-2.84,1.72-2.84s1.75,1.39,1.75,2.85-.4,2.84-1.72,2.84c-1.44,0-1.75-1.51-1.75-2.85ZM915.11,24.36c.88,0,1.23-1,1.23-2.36s-.36-2.41-1.26-2.41c-.96,0-1.23,1.1-1.23,2.39s.28,2.38,1.26,2.38Z"></path><path class="cls-23" d="M919.82,20.49h-1.47v-.39h1.03c.29,0,.44-.1.44-.41v-.49h.48v5.57h-.48v-4.28Z"></path></g><polyline class="cls-1" points="95 150.69 109.35 150.69 113.81 181.14"></polyline><path class="cls-22" d="M114.4,185.13l-2.86-5.31s2.28,1.32,4.08-.6l-1.22,5.91Z"></path><polyline class="cls-1" points="895.74 21.45 881.39 21.45 876.92 51.9"></polyline><path class="cls-22" d="M876.34,55.9l2.86-5.31s-2.28,1.32-4.08-.6l1.22,5.91Z"></path><polyline class="cls-1" points="95 141.01 114.35 141.01 119.86 180.01"></polyline><path class="cls-22" d="M120.42,184.01l-2.84-5.33s2.27,1.33,4.09-.58l-1.25,5.91Z"></path><polyline class="cls-1" points="895.74 11.77 876.39 11.77 870.88 51.37"></polyline><path class="cls-22" d="M870.32,55.37l2.83-5.33s-2.27,1.34-4.09-.57l1.26,5.9Z"></path></g></g></svg> 