<?xml version="1.0" encoding="UTF-8"?> <svg xmlns="http://www.w3.org/2000/svg" id="Layer_2" data-name="Layer 2" viewBox="0 0 804.61 807.66"><defs><style> .cls-1 { stroke: #afa49f; } .cls-1, .cls-2, .cls-3, .cls-4, .cls-5, .cls-6, .cls-7, .cls-8, .cls-9, .cls-10, .cls-11, .cls-12, .cls-13, .cls-14, .cls-15, .cls-16, .cls-17, .cls-18 { fill: none; } .cls-1, .cls-2, .cls-4, .cls-9, .cls-13, .cls-15, .cls-18 { stroke-width: .25px; } .cls-1, .cls-12, .cls-13 { stroke-miterlimit: 10; } .cls-2 { stroke-dasharray: 1.54 1.54; } .cls-2, .cls-3, .cls-4, .cls-5, .cls-6, .cls-7, .cls-8, .cls-9, .cls-10, .cls-11, .cls-14, .cls-15, .cls-16, .cls-17, .cls-18 { stroke-linecap: round; stroke-linejoin: round; } .cls-2, .cls-4, .cls-9, .cls-18 { stroke: #75655e; } .cls-19 { fill: #3a2a22; } .cls-20 { fill: #231f20; } .cls-3 { stroke-dasharray: 1.02 1.02; } .cls-3, .cls-5, .cls-6, .cls-7, .cls-10, .cls-11, .cls-14 { stroke: #55453d; stroke-width: .15px; } .cls-4 { stroke-dasharray: 6.12 5.1; } .cls-5 { stroke-dasharray: 1.02 1.02; } .cls-21 { fill: #fff; } .cls-7 { stroke-dasharray: 1.02 1.02; } .cls-8, .cls-12 { stroke-width: .75px; } .cls-8, .cls-12, .cls-15, .cls-16, .cls-17 { stroke: #3a2a22; } .cls-22 { fill: #bc8ebc; } .cls-10 { stroke-dasharray: .52 .52; } .cls-11 { stroke-dasharray: .93 .93; } .cls-13 { stroke: #bc8ebc; } .cls-23 { fill: #afa49f; } .cls-14 { stroke-dasharray: 1.02 1.02; } .cls-16 { stroke-width: .38px; } .cls-17 { stroke-width: .35px; } .cls-24 { fill: #75655e; } .cls-18 { stroke-dasharray: 1.44 1.44; } </style></defs><g id="Layer_1-2" data-name="Layer 1"><g><polygon class="cls-21" points="802.84 748.7 799.8 748.59 795.06 748.37 756.34 746.34 720.76 744.04 720.12 752.09 682.7 749.39 640.38 745.97 640.47 745.97 602.4 742.46 564.33 738.67 526.36 734.42 488.38 729.89 450.41 725 412.52 719.73 374.73 714.19 336.94 708.27 299.24 701.99 261.54 695.34 222.73 688.04 183.92 680.46 141.34 671.68 142.96 663.73 113.24 657.36 76.37 649.14 39.59 640.54 82.1 552.02 116.56 552.02 116.54 552.02 138.46 180.76 113.7 180.76 106.26 73.57 98.18 74.22 93.03 .38 541.81 .38 541.81 129.74 633.1 129.74 633.1 271.71 710.12 271.71 710.12 260.2 757.84 260.2 757.84 457.76 802.84 457.76 802.84 748.7"></polygon><g><path class="cls-6" d="M140.46,663.2s-.04.18-.1.49"></path><path class="cls-14" d="M140.15,664.68c-.33,1.61-.84,4.12-1.12,5.5"></path><path class="cls-6" d="M138.93,670.68c-.06.31-.1.49-.1.49l.49.1"></path></g><line class="cls-10" x1="139.83" y1="671.38" x2="140.6" y2="671.53"></line><line class="cls-6" x1="140.85" y1="671.58" x2="141.34" y2="671.68"></line><line class="cls-6" x1="141.34" y1="671.68" x2="141.44" y2="671.19"></line><line class="cls-5" x1="141.64" y1="670.2" x2="142.76" y2="664.72"></line><line class="cls-6" x1="142.86" y1="664.22" x2="142.96" y2="663.73"></line><line class="cls-6" x1="98.18" y1="74.22" x2="98.2" y2="74.72"></line><polyline class="cls-6" points="98.24 75.39 98.27 75.89 98.77 75.85"></polyline><line class="cls-7" x1="99.79" y1="75.78" x2="105.39" y2="75.4"></line><line class="cls-6" x1="105.9" y1="75.37" x2="106.4" y2="75.33"></line><line class="cls-6" x1="720.12" y1="752.09" x2="720.62" y2="752.13"></line><line class="cls-11" x1="721.55" y1="752.2" x2="722.94" y2="752.31"></line><polyline class="cls-6" points="723.41 752.35 723.91 752.39 723.95 751.89"></polyline><line class="cls-3" x1="724.03" y1="750.87" x2="724.47" y2="745.29"></line><line class="cls-6" x1="724.51" y1="744.79" x2="724.55" y2="744.29"></line><polygon class="cls-17" points="261.54 681.2 225.78 674.55 190.11 667.62 154.45 660.32 118.87 652.65 83.3 644.79 47.91 636.57 85.7 557.85 116.19 557.85 116.19 555.85 84.44 555.85 45.03 637.95 82.87 646.75 118.45 654.6 154.05 662.28 189.73 669.58 225.41 676.51 261.54 683.23 261.54 681.2"></polygon><polyline class="cls-17" points="640.38 732.02 679 735.25 717.72 738.03 756.34 740.52 792.84 742.52"></polyline><polyline class="cls-17" points="640.38 730.02 679 733.25 717.72 736.02 756.34 738.52 792.84 740.52"></polyline><polygon class="cls-17" points="145.48 180.76 145.48 174.94 119.15 174.94 108.15 18.41 110.16 18.46 121.02 172.94 147.48 172.94 147.48 180.76 145.48 180.76"></polygon><g><path class="cls-6" d="M219.96,575.04c0,23.13,18.61,39.35,41.58,39.35"></path><path class="cls-6" d="M619.51,448.07c23.13,0,39.35-18.61,39.35-41.58"></path><path class="cls-6" d="M644.92,697.55c23.13,0,39.35-18.61,39.35-41.58"></path><path class="cls-6" d="M433.6,406.49c23.13,0,39.35-18.61,39.35-41.58"></path><path class="cls-6" d="M359.68,167.46c23.13,0,39.35,18.61,39.35,41.58"></path><path class="cls-6" d="M162.21,160.05c0-23.13,18.61-39.35,41.58-39.35"></path><path class="cls-6" d="M485.61,202.19c0-23.13-18.61-39.35-41.58-39.35"></path><path class="cls-6" d="M564.19,490.8c0-23.13,18.62-39.35,41.58-39.35"></path><path class="cls-6" d="M507.6,503.44c0,23.13-18.62,39.35-41.58,39.34"></path><path class="cls-6" d="M701.59,329.71c-26.48,0-45.04-21.48-45.04-47.97"></path></g><line class="cls-6" x1="701.6" y1="281.75" x2="656.55" y2="281.74"></line><line class="cls-6" x1="704.58" y1="271.75" x2="656.55" y2="271.74"></line><rect class="cls-17" x="219.96" y="572.81" width="41.58" height="2.23"></rect><rect class="cls-17" x="617.28" y="406.49" width="2.23" height="41.58"></rect><rect class="cls-17" x="668.18" y="415.73" width="2.23" height="41.58"></rect><rect class="cls-17" x="642.69" y="655.97" width="2.23" height="41.58"></rect><rect class="cls-17" x="431.37" y="364.91" width="2.23" height="41.58"></rect><rect class="cls-17" x="357.45" y="167.46" width="2.23" height="41.58"></rect><rect class="cls-17" x="441.8" y="57.99" width="2.23" height="41.58"></rect><rect class="cls-17" x="162.21" y="160.05" width="41.58" height="2.23"></rect><rect class="cls-17" x="444.03" y="202.18" width="41.58" height="2.23"></rect><rect class="cls-17" x="564.19" y="490.8" width="41.58" height="2.23"></rect><rect class="cls-17" x="566.46" y="530.77" width="34.65" height="2.23"></rect><rect class="cls-17" x="531.8" y="533" width="34.65" height="2.23"></rect><rect class="cls-17" x="466.02" y="501.21" width="41.58" height="2.23"></rect><rect class="cls-17" x="701.59" y="281.75" width="2.91" height="47.96"></rect><rect class="cls-17" x="714.3" y="285.82" width="2.23" height="69.3"></rect><line class="cls-17" x1="714.3" y1="320.47" x2="716.53" y2="320.47"></line><rect class="cls-17" x="550.29" y="296.89" width="69.3" height="2.23"></rect><line class="cls-17" x1="584.94" y1="296.89" x2="584.94" y2="299.12"></line><line class="cls-9" x1="225.74" y1="276.02" x2="225.74" y2="276.77"></line><line class="cls-18" x1="225.74" y1="278.22" x2="225.74" y2="303.46"></line><polyline class="cls-9" points="225.74 304.18 225.74 304.93 226.49 304.93"></polyline><line class="cls-2" x1="228.02" y1="304.93" x2="251.83" y2="304.93"></line><polyline class="cls-9" points="252.6 304.93 253.35 304.93 253.35 304.18"></polyline><line class="cls-18" x1="253.35" y1="302.74" x2="253.35" y2="277.49"></line><line class="cls-9" x1="253.35" y1="276.77" x2="253.35" y2="276.02"></line><line class="cls-9" x1="310.86" y1="213.3" x2="307.86" y2="213.3"></line><line class="cls-4" x1="302.76" y1="213.3" x2="204.35" y2="213.3"></line><line class="cls-9" x1="201.8" y1="213.3" x2="198.8" y2="213.3"></line><line class="cls-17" x1="156.48" y1="225.21" x2="347.01" y2="225.21"></line><line class="cls-17" x1="310.86" y1="225.21" x2="310.86" y2="197.49"></line><line class="cls-17" x1="198.8" y1="225.21" x2="198.8" y2="197.49"></line><line class="cls-17" x1="310.86" y1="222.71" x2="347.01" y2="222.71"></line><line class="cls-17" x1="410.58" y1="214.76" x2="410.58" y2="293.3"></line><line class="cls-17" x1="410.58" y1="264.16" x2="438.3" y2="264.16"></line><line class="cls-17" x1="413.08" y1="214.76" x2="413.08" y2="293.3"></line><rect class="cls-17" x="201.48" y="276.02" width="138.6" height="49.58"></rect><g><path class="cls-17" d="M271.31,296.19h.56c.33,0,.59.27.59.59v9.89c0,.33-.26.59-.59.59h-.56c-.33,0-.59-.26-.59-.59v-9.89c0-.33.26-.59.59-.59Z"></path><path class="cls-17" d="M271.59,290.29c-.49,0-.9-.4-.9-.9s.4-.9.9-.9.9.4.9.9-.4.9-.9.9Z"></path></g><polyline class="cls-17" points="270.72 305.95 268.3 305.95 268.3 303.1 270.72 303.1"></polyline><line class="cls-17" x1="269.16" y1="303.1" x2="269.16" y2="305.95"></line><polyline class="cls-17" points="270.72 300.79 258.67 300.79 258.67 279.03 284.51 279.03 284.51 300.79 272.46 300.79"></polyline><polyline class="cls-17" points="272.46 299.71 283.43 299.71 283.43 280.11 259.75 280.11 259.75 299.71 270.72 299.71"></polyline><line class="cls-17" x1="198.8" y1="222.71" x2="156.48" y2="222.71"></line><g><rect class="cls-17" x="511.7" y="420.94" width="7.45" height="17.6" rx="1.08" ry="1.08"></rect><path class="cls-17" d="M507.55,434.2c0,.28-.11.54-.32.73-2.09,1.88-5.3,3.09-8.9,3.09-6.31,0-11.42-3.71-11.42-8.28s5.11-8.28,11.42-8.28c3.59,0,6.8,1.2,8.9,3.08.21.19.32.46.32.73v8.92Z"></path></g><line class="cls-17" x1="498.33" y1="438.01" x2="511.85" y2="438.01"></line><line class="cls-17" x1="498.33" y1="421.46" x2="511.85" y2="421.46"></line><polyline class="cls-17" points="519.15 408.06 494.13 408.06 494.13 364.91"></polyline><path class="cls-17" d="M511.09,391.95v-9.87c0-.4-.32-.72-.72-.72h-10.9c-.4,0-.72.32-.72.72v20.82c0,.4.32.72.72.72h10.9c.4,0,.72-.32.72-.72v-9.48"></path><rect class="cls-17" x="508.65" y="391.95" width="5.89" height="1.47"></rect><circle class="cls-17" cx="504.92" cy="392.68" r=".84"></circle><line class="cls-17" x1="434.05" y1="466.24" x2="434.05" y2="469.45"></line><g><path class="cls-17" d="M434.05,470.32v11.6c0,1.38,1.12,2.5,2.5,2.5h61.83c1.38,0,2.5-1.12,2.5-2.5v-24.04c0-1.38-1.12-2.5-2.5-2.5h-61.83c-1.38,0-2.5,1.12-2.5,2.5v8.37"></path><path class="cls-17" d="M430.03,469.45h10.86c.24,0,.43.19.43.43s-.19.43-.43.43h-10.81"></path><path class="cls-17" d="M439.81,470.32c.17.46.61.79,1.14.79.67,0,1.21-.54,1.21-1.21s-.54-1.21-1.21-1.21c-.51,0-.95.32-1.13.77"></path><path class="cls-17" d="M435.78,470.32c.21,2.66,2.45,4.76,5.17,4.76,2.86,0,5.18-2.32,5.18-5.18,0-2.86-2.32-5.18-5.18-5.18-2.71,0-4.94,2.09-5.16,4.74"></path></g><rect class="cls-17" x="429.06" y="467.35" width=".97" height="5.08"></rect><line class="cls-17" x1="429.06" y1="451.67" x2="505.29" y2="451.67"></line><line class="cls-17" x1="429.06" y1="450.38" x2="505.25" y2="450.38"></line><line class="cls-17" x1="433.74" y1="450.38" x2="433.74" y2="451.67"></line><line class="cls-17" x1="471.75" y1="450.38" x2="471.75" y2="451.66"></line><g><path class="cls-17" d="M528.27,417.96h5.29c.6,0,1.08.48,1.08,1.08v15.44c0,.6-.48,1.08-1.08,1.08h-5.29c-.6,0-1.08-.48-1.08-1.08v-15.44c0-.6.48-1.08,1.08-1.08Z"></path><path class="cls-17" d="M538.79,422.3c0-.28.11-.54.32-.73,2.09-1.88,5.3-3.09,8.9-3.09,6.31,0,11.42,3.71,11.42,8.28s-5.11,8.28-11.42,8.28c-3.59,0-6.8-1.2-8.9-3.08-.21-.19-.32-.46-.32-.73v-8.92Z"></path></g><line class="cls-17" x1="548.01" y1="418.48" x2="534.49" y2="418.48"></line><line class="cls-17" x1="548.01" y1="435.03" x2="534.49" y2="435.03"></line><polyline class="cls-17" points="527.19 448.43 552.21 448.43 552.21 496.58"></polyline><path class="cls-17" d="M535.25,473.82v9.87c0,.4.32.72.72.72h10.9c.4,0,.72-.32.72-.72v-20.82c0-.4-.32-.72-.72-.72h-10.9c-.4,0-.72.32-.72.72v9.48"></path><rect class="cls-17" x="531.8" y="472.35" width="5.89" height="1.47"></rect><circle class="cls-17" cx="541.42" cy="473.09" r=".84"></circle><line class="cls-17" x1="603.42" y1="406.49" x2="528.01" y2="406.51"></line><line class="cls-17" x1="603.42" y1="406.49" x2="527.19" y2="406.51"></line><line class="cls-17" x1="603.42" y1="405.21" x2="527.19" y2="405.23"></line><line class="cls-17" x1="598.74" y1="405.21" x2="598.74" y2="406.49"></line><line class="cls-17" x1="560.73" y1="405.22" x2="560.73" y2="406.5"></line><line class="cls-17" x1="540.57" y1="364.92" x2="540.58" y2="405.22"></line><g><path class="cls-17" d="M592.75,385.07c0,.67-.54,1.21-1.21,1.21s-1.21-.54-1.21-1.21.54-1.21,1.21-1.21,1.21.54,1.21,1.21Z"></path><path class="cls-17" d="M596.72,385.07c0,2.86-2.32,5.18-5.18,5.18s-5.18-2.32-5.18-5.18,2.32-5.18,5.18-5.18,5.18,2.32,5.18,5.18Z"></path></g><rect class="cls-17" x="553.38" y="253.61" width="30.61" height="38.03"></rect><rect class="cls-17" x="585.99" y="253.61" width="30.61" height="38.03"></rect><line class="cls-17" x1="531.81" y1="137.4" x2="444.04" y2="137.45"></line><path class="cls-17" d="M506.84,120.36h9.87c.4,0,.72.32.72.72v10.9c0,.4-.32.72-.71.72h-20.82c-.4.01-.72-.31-.72-.71v-10.9c0-.4.32-.72.71-.72h9.48"></path><rect class="cls-17" x="505.37" y="116.91" width="1.47" height="5.89"></rect><g><path class="cls-17" d="M505.27,126.53c0-.47.38-.84.84-.84.47,0,.84.38.84.84s-.38.84-.84.84c-.47,0-.84-.38-.84-.84Z"></path><path class="cls-17" d="M470.08,120.38h9.87c.4,0,.72.32.72.72v10.9c0,.4-.32.72-.71.72h-20.82c-.4.01-.72-.31-.72-.71v-10.9c0-.4.32-.72.71-.72h9.48"></path></g><rect class="cls-17" x="468.61" y="116.93" width="1.47" height="5.89"></rect><path class="cls-17" d="M468.51,126.55c0-.47.38-.84.84-.84.47,0,.84.38.84.84s-.38.84-.84.84c-.47,0-.84-.38-.84-.84Z"></path><rect class="cls-17" x="543.32" y="150.08" width="1.28" height="38.16"></rect><rect class="cls-17" x="543.32" y="193.97" width="1.28" height="38.16"></rect><g><path class="cls-17" d="M615.64,210.12v15.44c0,.6.49,1.08,1.08,1.08h5.29c.6,0,1.08-.48,1.08-1.08v-15.44c0-.6-.49-1.08-1.08-1.08h-5.29c-.6,0-1.08.49-1.08,1.08Z"></path><path class="cls-17" d="M611.5,213.38c0-.28-.11-.54-.32-.73-2.09-1.88-5.3-3.08-8.9-3.08-6.31,0-11.42,3.71-11.42,8.28,0,4.57,5.12,8.27,11.42,8.27,3.6,0,6.8-1.21,8.9-3.09.21-.19.32-.46.32-.73v-8.92Z"></path></g><line class="cls-17" x1="602.28" y1="209.57" x2="615.8" y2="209.56"></line><line class="cls-17" x1="602.28" y1="226.12" x2="615.8" y2="226.11"></line><line class="cls-15" x1="602.31" y1="139.74" x2="602.31" y2="188.25"></line><g><path class="cls-16" d="M492.5,270.77c-1.29,0-2.33-1.04-2.33-2.33s1.04-2.33,2.33-2.33,2.33,1.04,2.33,2.33-1.04,2.33-2.33,2.33Z"></path><path class="cls-16" d="M529.68,268.44h0c0-10.63-8.62-19.25-19.25-19.25h-35.79c-10.63,0-19.25,8.62-19.25,19.25,0,10.63,8.62,19.25,19.25,19.25h35.79c10.63,0,19.25-8.62,19.25-19.25Z"></path><path class="cls-16" d="M458.08,268.44c0-9.14,7.43-16.57,16.57-16.57h35.79c9.14,0,16.57,7.43,16.57,16.57s-7.43,16.57-16.57,16.57h-35.79c-9.14,0-16.57-7.43-16.57-16.57Z"></path></g><rect class="cls-17" x="233.41" y="199.76" width="42.4" height="24.28"></rect><rect class="cls-17" x="234.49" y="200.84" width="40.24" height="22.12"></rect><path class="cls-17" d="M254.65,222.21c-.71,0-1.28-.57-1.28-1.28s.57-1.28,1.28-1.28,1.28.57,1.28,1.28-.57,1.28-1.28,1.28Z"></path><line class="cls-17" x1="234.49" y1="222.96" x2="233.41" y2="224.04"></line><line class="cls-17" x1="274.73" y1="222.96" x2="275.81" y2="224.04"></line><line class="cls-17" x1="274.73" y1="200.84" x2="275.81" y2="199.76"></line><line class="cls-17" x1="234.49" y1="200.84" x2="233.41" y2="199.76"></line><polygon class="cls-17" points="255.7 220.93 254.65 219.87 253.59 220.93 254.65 221.98 255.7 220.93"></polygon><line class="cls-17" x1="254.65" y1="219.87" x2="254.65" y2="221.98"></line><g><path class="cls-17" d="M575.81,177.36c0,.67-.54,1.21-1.21,1.21s-1.21-.54-1.21-1.21.54-1.21,1.21-1.21,1.21.54,1.21,1.21Z"></path><path class="cls-17" d="M579.78,177.36c0,2.86-2.32,5.18-5.18,5.18s-5.18-2.32-5.18-5.18,2.32-5.18,5.18-5.18,5.18,2.32,5.18,5.18Z"></path><path class="cls-15" d="M733.27,310.08c1.51-.03,3.03-.06,4.57-.13.8-.04,1.6-.09,2.35-.13.57-.03,1.11-.07,1.78-.16.65-.09,1.42-.25,1.73.23.07.11.12.25.13.38.06.77-1.18.9-2.24.97-2.35.15-3.74-.04-5.44-.16-.9-.06-1.9-.1-2.89-.14-.99.04-1.98.08-2.89.14-1.7.12-3.09.3-5.44.16-1.05-.07-2.3-.2-2.24-.97.01-.13.06-.27.13-.38.31-.48,1.08-.32,1.73-.23.67.1,1.21.13,1.78.16.75.04,1.56.09,2.35.13,1.55.07,3.06.1,4.57.13Z"></path><path class="cls-15" d="M733.27,314.77c1.51-.03,3.03-.06,4.57-.13.8-.04,1.6-.09,2.35-.13.57-.03,1.11-.07,1.78-.16.65-.09,1.42-.25,1.73.23.07.11.12.25.13.38.06.77-1.18.9-2.24.97-2.35.15-3.74-.04-5.44-.16-.9-.06-1.9-.1-2.89-.14-.99.04-1.98.08-2.89.14-1.7.12-3.09.3-5.44.16-1.05-.07-2.3-.2-2.24-.97.01-.13.06-.27.13-.38.31-.48,1.08-.33,1.73-.23.67.1,1.21.13,1.78.16.75.04,1.56.09,2.35.13,1.55.07,3.06.1,4.57.13Z"></path><path class="cls-15" d="M733.27,319.46c1.51-.03,3.03-.06,4.57-.13.8-.04,1.6-.09,2.35-.13.57-.03,1.11-.07,1.78-.16.65-.09,1.42-.25,1.73.23.07.11.12.25.13.38.06.77-1.18.9-2.24.97-2.35.15-3.74-.04-5.44-.16-.9-.06-1.9-.1-2.89-.14-.99.04-1.98.08-2.89.14-1.7.12-3.09.3-5.44.16-1.05-.07-2.3-.2-2.24-.97.01-.13.06-.27.13-.38.31-.48,1.08-.33,1.73-.23.67.1,1.21.13,1.78.16.75.04,1.56.09,2.35.13,1.55.07,3.06.1,4.57.13Z"></path></g><line class="cls-15" x1="733.27" y1="359.19" x2="733.27" y2="270.2"></line><g><path class="cls-15" d="M727.45,415.67c1.51-.03,3.03-.06,4.57-.13.8-.04,1.6-.09,2.35-.13.57-.03,1.11-.07,1.78-.16.65-.09,1.42-.25,1.73.23.07.11.12.25.13.38.06.77-1.18.9-2.24.97-2.35.15-3.74-.04-5.44-.16-.9-.06-1.9-.1-2.89-.14-.99.04-1.98.08-2.89.14-1.7.12-3.09.3-5.44.16-1.05-.07-2.3-.2-2.24-.97.01-.13.06-.27.12-.38.31-.48,1.08-.33,1.73-.23.67.1,1.21.13,1.78.16.75.04,1.56.09,2.35.13,1.55.07,3.06.1,4.57.13Z"></path><path class="cls-15" d="M727.45,420.37c1.51-.03,3.03-.06,4.57-.13.8-.04,1.6-.09,2.35-.13.57-.03,1.11-.07,1.78-.16.65-.09,1.42-.25,1.73.23.07.11.12.25.13.38.06.77-1.18.9-2.24.97-2.35.15-3.74-.04-5.44-.16-.9-.06-1.9-.1-2.89-.14-.99.04-1.98.08-2.89.14-1.7.12-3.09.3-5.44.16-1.05-.07-2.3-.2-2.24-.97.01-.13.06-.27.12-.38.31-.48,1.08-.33,1.73-.23.67.1,1.21.13,1.78.16.75.04,1.56.09,2.35.13,1.55.07,3.06.1,4.57.13Z"></path><path class="cls-15" d="M727.45,425.06c1.51-.03,3.03-.06,4.57-.13.8-.04,1.6-.09,2.35-.13.57-.03,1.11-.07,1.78-.16.65-.09,1.42-.25,1.73.23.07.11.12.25.13.38.06.77-1.18.9-2.24.97-2.35.15-3.74-.04-5.44-.16-.9-.06-1.9-.1-2.89-.14-.99.04-1.98.08-2.89.14-1.7.12-3.09.3-5.44.16-1.05-.07-2.3-.2-2.24-.97.01-.13.06-.27.12-.38.31-.48,1.08-.32,1.73-.23.67.1,1.21.13,1.78.16.75.04,1.56.09,2.35.13,1.55.07,3.06.1,4.57.13Z"></path><path class="cls-15" d="M693.24,379.48c-.03-1.51-.06-3.03-.13-4.57-.04-.8-.09-1.6-.13-2.35-.03-.57-.07-1.11-.16-1.78-.09-.65-.25-1.42.23-1.73.11-.07.25-.12.38-.13.77-.06.9,1.18.97,2.24.15,2.35-.04,3.74-.16,5.44-.06.9-.1,1.9-.14,2.89.04.99.08,1.98.14,2.89.11,1.7.3,3.09.16,5.44-.07,1.05-.2,2.3-.97,2.24-.13-.01-.27-.06-.38-.13-.48-.3-.32-1.08-.23-1.73.1-.67.13-1.21.16-1.78.04-.75.09-1.56.13-2.36.07-1.54.1-3.06.13-4.57Z"></path><path class="cls-15" d="M697.93,379.48c-.03-1.51-.06-3.03-.13-4.57-.04-.8-.09-1.6-.13-2.35-.03-.57-.07-1.11-.16-1.78-.09-.65-.25-1.42.23-1.73.11-.07.25-.12.38-.13.77-.06.9,1.18.97,2.24.15,2.35-.04,3.74-.16,5.44-.06.9-.1,1.9-.14,2.89.04.99.08,1.98.14,2.89.11,1.7.3,3.09.16,5.44-.07,1.05-.2,2.3-.97,2.24-.13-.01-.27-.06-.38-.13-.48-.3-.32-1.08-.23-1.73.1-.67.13-1.21.16-1.78.04-.75.09-1.56.13-2.36.07-1.54.1-3.06.13-4.57Z"></path><path class="cls-15" d="M702.63,379.48c-.03-1.51-.06-3.03-.13-4.57-.04-.8-.09-1.6-.13-2.35-.03-.57-.07-1.11-.16-1.78-.09-.65-.25-1.42.23-1.73.11-.07.25-.12.38-.13.77-.06.9,1.18.97,2.24.15,2.35-.04,3.74-.16,5.44-.06.9-.1,1.9-.14,2.89.04.99.08,1.98.14,2.89.11,1.7.3,3.09.16,5.44-.07,1.05-.2,2.3-.97,2.24-.13-.01-.27-.06-.38-.13-.48-.3-.32-1.08-.23-1.73.1-.67.13-1.21.16-1.78.04-.75.09-1.56.13-2.36.07-1.54.1-3.06.13-4.57Z"></path></g><polyline class="cls-15" points="670.41 379.48 727.45 379.48 727.45 461.93"></polyline><g><path class="cls-15" d="M561.45,516.97c-.03-1.51-.06-3.03-.13-4.57-.04-.8-.09-1.6-.13-2.35-.03-.57-.07-1.11-.16-1.78-.09-.65-.25-1.42.23-1.73.11-.07.25-.12.38-.13.77-.06.9,1.18.97,2.24.15,2.35-.04,3.74-.16,5.44-.06.9-.1,1.9-.14,2.89.04.99.08,1.98.14,2.89.11,1.7.3,3.09.16,5.44-.07,1.05-.2,2.3-.97,2.24-.13-.01-.27-.06-.38-.13-.48-.3-.32-1.08-.23-1.73.1-.67.13-1.21.16-1.78.04-.75.09-1.56.13-2.36.07-1.54.1-3.06.13-4.57Z"></path><path class="cls-15" d="M566.14,516.97c-.03-1.51-.06-3.03-.13-4.57-.04-.8-.09-1.6-.13-2.35-.03-.57-.07-1.11-.16-1.78-.09-.65-.25-1.42.23-1.73.11-.07.25-.12.38-.13.77-.06.9,1.18.97,2.24.15,2.35-.04,3.74-.16,5.44-.06.9-.1,1.9-.14,2.89.04.99.08,1.98.14,2.89.11,1.7.3,3.09.16,5.44-.07,1.05-.2,2.3-.97,2.24-.13-.01-.27-.06-.38-.13-.48-.3-.32-1.08-.23-1.73.1-.67.13-1.21.16-1.78.04-.75.09-1.56.13-2.36.07-1.54.1-3.06.13-4.57Z"></path><path class="cls-15" d="M570.83,516.97c-.03-1.51-.06-3.03-.13-4.57-.04-.8-.09-1.6-.13-2.35-.03-.57-.07-1.11-.16-1.78-.09-.65-.25-1.42.23-1.73.11-.07.25-.12.38-.13.77-.06.9,1.18.97,2.24.15,2.35-.04,3.74-.16,5.44-.06.9-.1,1.9-.14,2.89.04.99.08,1.98.14,2.89.11,1.7.3,3.09.16,5.44-.07,1.05-.2,2.3-.97,2.24-.13-.01-.27-.06-.38-.13-.48-.3-.32-1.08-.23-1.73.1-.67.13-1.21.16-1.78.04-.75.09-1.56.13-2.36.07-1.54.1-3.06.13-4.57Z"></path></g><line class="cls-15" x1="605.78" y1="516.97" x2="527.19" y2="516.97"></line><polyline class="cls-15" points="640.38 737.84 679 741.07 717.72 743.85 756.34 746.34 795.06 748.37 799.8 748.59 802.84 748.7 802.84 743.07"></polyline><line class="cls-15" x1="686.58" y1="647.94" x2="792.84" y2="647.94"></line><polyline class="cls-15" points="269.67 688.59 309.77 695.52 349.87 702.08 390.07 708.27 430.35 714.09 470.64 719.55 511.02 724.54 551.4 729.16 591.87 733.31 632.34 737.1"></polyline><line class="cls-15" x1="146.04" y1="188.8" x2="124.79" y2="549.71"></line><line class="cls-15" x1="124.79" y1="549.71" x2="200.37" y2="549.71"></line><line class="cls-15" x1="269.67" y1="616.7" x2="269.67" y2="688.59"></line><line class="cls-15" x1="632.34" y1="737.1" x2="632.34" y2="647.94"></line><polyline class="cls-15" points="116.56 552.02 82.1 552.02 39.59 640.54 76.37 649.14 113.24 657.36 150.29 665.31 187.25 672.88 224.39 680.18 261.54 687.11"></polyline><line class="cls-15" x1="211.92" y1="10.38" x2="211.92" y2="120.7"></line><polyline class="cls-15" points="102.43 18.41 113.7 180.76 145.48 180.76"></polyline><line class="cls-15" x1="95.32" y1=".38" x2="101.08" y2=".38"></line><line class="cls-15" x1="626.52" y1="655.97" x2="626.52" y2="736.56"></line><polygon class="cls-8" points="638.07 647.94 638.07 743.48 600.46 739.97 562.95 736.18 525.43 732.02 487.92 727.49 450.41 722.69 412.98 717.51 375.65 711.97 338.32 706.15 301.09 699.96 263.85 693.4 263.85 616.7 261.54 616.7 261.54 695.34 299.24 701.99 336.94 708.27 374.73 714.19 412.52 719.73 450.41 725 488.38 729.89 526.36 734.42 564.33 738.67 602.4 742.46 640.47 745.97 640.38 745.97 640.38 647.94 638.07 647.94"></polygon><polygon class="cls-8" points="720.12 752.09 682.7 749.39 640.38 745.97 640.66 743.66 682.88 747.08 720.31 749.78 720.12 752.09"></polygon><rect class="cls-8" x="686.58" y="653.66" width="106.26" height="2.31"></rect><polygon class="cls-8" points="141.78 669.51 184.29 678.15 222.92 685.73 261.54 692.93 261.54 695.34 222.73 688.04 183.92 680.46 141.34 671.68 141.78 669.51"></polygon><polygon class="cls-8" points="95.32 .38 96.42 16.1 206.1 16.1 206.1 118.39 203.79 118.39 203.79 18.41 94.3 18.41 93.03 .38 95.32 .38"></polygon><polygon class="cls-8" points="203.79 164.59 203.79 180.76 138.46 180.76 116.19 557.85 200.37 557.85 200.37 555.54 118.69 555.54 140.59 183.07 206.1 183.07 206.1 164.59 203.79 164.59"></polygon><polygon class="cls-8" points="100.49 74.04 96.61 18.41 94.3 18.41 98.18 74.22 100.49 74.04"></polygon><polyline class="cls-8" points="225.97 686.37 227.07 680.64 229.38 681.11 228.28 686.74 225.97 686.37"></polyline><polyline class="cls-8" points="141.78 669.51 142.96 663.73 145.31 664.24 144.15 669.99 141.78 669.51"></polyline><polyline class="cls-8" points="297.67 699.31 298.68 693.67 300.99 694.04 299.98 699.77 297.67 699.31"></polyline><polyline class="cls-8" points="366.04 710.49 366.97 704.76 369.28 705.13 368.35 710.86 366.04 710.49"></polyline><polyline class="cls-8" points="434.6 720.56 435.44 714.83 437.75 715.11 436.91 720.84 434.6 720.56"></polyline><polyline class="cls-8" points="503.35 729.43 504 723.7 506.31 723.98 505.66 729.71 503.35 729.43"></polyline><polyline class="cls-8" points="572.19 737.1 572.74 731.37 575.05 731.65 574.5 737.38 572.19 737.1"></polyline><polyline class="cls-8" points="667.73 745.97 668.1 740.15 670.41 740.34 670.04 746.06 667.73 745.97"></polyline><polygon class="cls-8" points="717.93 749.61 718.39 743.89 720.76 744.04 720.31 749.78 717.93 749.61"></polygon><rect class="cls-8" x="640.38" y="647.94" width="2.31" height="8.04"></rect><rect class="cls-8" x="684.27" y="647.94" width="2.31" height="8.04"></rect><rect class="cls-8" x="261.54" y="570.5" width="8.13" height="2.31"></rect><rect class="cls-8" x="261.54" y="614.39" width="8.13" height="2.31"></rect><rect class="cls-8" x="263.85" y="648.67" width="5.82" height="2.31"></rect><polyline class="cls-8" points="271.15 688.78 269.67 688.59 269.67 687.02 263.85 691.92 263.85 693.4 265.42 693.67 271.15 688.78"></polyline><rect class="cls-8" x="632.34" y="654.87" width="5.73" height="2.31"></rect><rect class="cls-8" x="632.34" y="698.76" width="5.73" height="2.31"></rect><rect class="cls-8" x="691.2" y="647.93" width="2.31" height="5.73"></rect><rect class="cls-8" x="760.5" y="647.93" width="2.31" height="5.73"></rect><rect class="cls-8" x="790.53" y="647.93" width="2.31" height="5.73"></rect><polyline class="cls-8" points="632.34 735.44 632.34 737.1 630.58 737.01 636.41 743.29 638.07 743.48 638.07 741.72 632.34 735.44"></polyline><polyline class="cls-8" points="145.95 190.37 146.04 188.8 147.7 188.8 142.25 183.07 140.59 183.07 140.49 184.64 145.95 190.37"></polyline><rect class="cls-8" x="198.06" y="549.71" width="2.31" height="5.82"></rect><rect class="cls-8" x="154.17" y="549.71" width="2.31" height="5.82"></rect><polyline class="cls-8" points="137.91 228.72 143.73 228.99 143.54 231.3 137.82 231.03 137.91 228.72"></polyline><polyline class="cls-8" points="133.84 297.83 139.66 298.2 139.48 300.51 133.75 300.14 133.84 297.83"></polyline><polyline class="cls-8" points="129.78 367.04 135.51 367.41 135.41 369.72 129.69 369.35 129.78 367.04"></polyline><polyline class="cls-8" points="125.71 436.15 131.44 436.52 131.35 438.83 125.53 438.46 125.71 436.15"></polyline><polyline class="cls-8" points="121.65 505.36 127.37 505.73 127.28 508.04 121.46 507.67 121.65 505.36"></polyline><polyline class="cls-8" points="126.45 549.71 124.79 549.71 124.88 548.05 118.78 553.87 118.69 555.54 120.35 555.54 126.45 549.71"></polyline><rect class="cls-8" x="206.1" y="17.31" width="5.82" height="2.31"></rect><rect class="cls-8" x="202.68" y="10.38" width="2.31" height="5.73"></rect><rect class="cls-8" x="135.69" y="10.38" width="2.31" height="5.73"></rect><polyline class="cls-8" points="101.78 10.38 101.69 8.8 96.33 14.53 96.42 16.1 97.99 16.1 103.44 10.38 101.78 10.38"></polyline><rect class="cls-8" x="206.1" y="179.56" width="5.82" height="2.31"></rect><rect class="cls-8" x="202.68" y="183.07" width="2.31" height="5.73"></rect><rect class="cls-8" x="206.1" y="49.09" width="5.82" height="2.31"></rect><rect class="cls-8" x="203.79" y="162.28" width="8.13" height="2.31"></rect><rect class="cls-8" x="203.79" y="118.39" width="8.13" height="2.31"></rect><polyline class="cls-8" points="100.3 71.73 106.1 71.27 106.22 73.58 100.49 74.04 100.3 71.73"></polyline><polygon class="cls-19" points="211.92 188.8 146.04 188.8 143.64 230.19 149.46 230.19 149.74 225.21 156.48 225.21 156.48 197.49 347.01 197.49 347.01 225.21 352.83 225.21 352.83 214.76 357.45 214.76 357.45 209.04 352.83 209.04 352.83 172.63 217.65 172.63 217.65 163.44 211.92 163.44 211.92 188.8"></polygon><polygon class="cls-12" points="211.92 188.8 146.04 188.8 143.64 230.19 149.46 230.19 149.74 225.21 156.48 225.21 156.48 197.49 347.01 197.49 347.01 225.21 352.83 225.21 352.83 214.76 357.45 214.76 357.45 209.04 352.83 209.04 352.83 172.63 217.65 172.63 217.65 163.44 211.92 163.44 211.92 188.8"></polygon><polygon class="cls-19" points="802.84 743.07 792.84 742.52 792.84 647.94 784.8 647.94 784.8 467.76 664.68 467.76 664.68 457.31 670.41 457.31 670.41 461.93 742.02 461.93 742.02 364.91 670.41 364.91 670.41 415.73 664.68 415.73 664.68 406.49 658.86 406.49 658.86 400.77 664.68 400.77 664.68 359.19 714.3 359.19 714.3 355.12 720.12 355.12 720.12 359.19 747.84 359.19 747.84 270.2 720.12 270.2 720.12 285.82 714.3 285.82 714.3 281.75 704.51 281.75 704.51 271.75 710.12 271.75 710.12 260.2 757.84 260.2 757.84 457.76 802.84 457.76 802.84 743.07"></polygon><polygon class="cls-12" points="802.84 743.07 792.84 742.52 792.84 647.94 784.8 647.94 784.8 467.76 664.68 467.76 664.68 457.31 670.41 457.31 670.41 461.93 742.02 461.93 742.02 364.91 670.41 364.91 670.41 415.73 664.68 415.73 664.68 406.49 658.86 406.49 658.86 400.77 664.68 400.77 664.68 359.19 714.3 359.19 714.3 355.12 720.12 355.12 720.12 359.19 747.84 359.19 747.84 270.2 720.12 270.2 720.12 285.82 714.3 285.82 714.3 281.75 704.51 281.75 704.51 271.75 710.12 271.75 710.12 260.2 757.84 260.2 757.84 457.76 802.84 457.76 802.84 743.07"></polygon><polygon class="cls-19" points="611.55 530.13 632.39 530.13 632.34 642.11 640.38 642.11 640.38 647.94 632.34 647.94 632.34 737.1 626.52 736.56 626.52 535.85 601.11 535.85 601.11 530.13 605.78 530.13 605.78 502.41 527.19 502.41 527.19 530.13 531.81 530.13 531.81 535.85 521.46 535.85 521.46 495.48 466.02 495.48 466.02 501.2 460.2 501.2 460.2 495.48 420.93 495.48 420.93 359.19 431.37 359.19 431.37 364.91 426.75 364.91 426.75 450.38 429.06 450.38 429.06 489.65 505.29 489.65 505.29 450.38 519.15 450.38 519.15 364.91 472.95 364.91 472.95 359.19 611.55 359.19 611.55 400.77 617.28 400.77 617.28 406.49 611.55 406.49 611.55 451.45 605.73 451.45 605.73 406.49 603.42 406.49 603.42 364.91 527.19 364.91 527.19 496.58 605.73 496.58 605.73 491.96 611.55 491.96 611.55 530.13"></polygon><polygon class="cls-12" points="611.55 530.13 632.39 530.13 632.34 642.11 640.38 642.11 640.38 647.94 632.34 647.94 632.34 737.1 626.52 736.56 626.52 535.85 601.11 535.85 601.11 530.13 605.78 530.13 605.78 502.41 527.19 502.41 527.19 530.13 531.81 530.13 531.81 535.85 521.46 535.85 521.46 495.48 466.02 495.48 466.02 501.2 460.2 501.2 460.2 495.48 420.93 495.48 420.93 359.19 431.37 359.19 431.37 364.91 426.75 364.91 426.75 450.38 429.06 450.38 429.06 489.65 505.29 489.65 505.29 450.38 519.15 450.38 519.15 364.91 472.95 364.91 472.95 359.19 611.55 359.19 611.55 400.77 617.28 400.77 617.28 406.49 611.55 406.49 611.55 451.45 605.73 451.45 605.73 406.49 603.42 406.49 603.42 364.91 527.19 364.91 527.19 496.58 605.73 496.58 605.73 491.96 611.55 491.96 611.55 530.13"></polygon><polygon class="cls-19" points="261.54 570.5 269.67 570.5 269.67 571.71 275.4 571.71 275.4 543.99 199.17 543.99 199.17 549.71 200.37 549.71 200.37 563.57 261.54 563.57 261.54 570.5"></polygon><polygon class="cls-12" points="261.54 570.5 269.67 570.5 269.67 571.71 275.4 571.71 275.4 543.99 199.17 543.99 199.17 549.71 200.37 549.71 200.37 563.57 261.54 563.57 261.54 570.5"></polygon><polygon class="cls-19" points="480.43 564.78 480.43 714.92 505.84 718.07 505.2 723.8 505.84 718.07 505.2 723.8 470.83 719.55 436.54 714.93 437.38 709.29 460.2 712.34 460.2 542.78 466.07 542.78 466.07 564.78 480.43 564.78"></polygon><polygon class="cls-12" points="480.43 564.78 480.43 714.92 505.84 718.07 505.2 723.8 505.84 718.07 505.2 723.8 470.83 719.55 436.54 714.93 437.38 709.29 460.2 712.34 460.2 542.78 466.07 542.78 466.07 564.78 480.43 564.78"></polygon><polygon class="cls-19" points="656.55 281.71 656.55 271.71 633.1 271.71 633.1 129.73 541.81 129.73 541.81 .38 101.08 .38 101.78 10.38 211.92 10.38 211.92 18.41 217.65 18.41 217.65 13.79 438.3 13.79 438.3 57.99 444.03 57.99 444.03 13.79 531.81 13.79 531.81 104.19 444.03 104.19 444.03 99.57 438.3 99.57 438.3 162.84 444.03 162.84 444.03 113.02 531.81 113.02 531.81 139.73 541.05 139.73 541.05 150.08 546.87 150.08 546.87 139.73 623.1 139.73 623.1 188.24 541.05 188.24 541.05 193.97 623.1 193.97 623.1 242.48 546.87 242.48 546.87 232.14 541.05 232.14 541.05 293.3 444.03 293.3 444.03 204.42 438.3 204.42 438.3 209.04 399.12 209.04 399.12 214.76 438.3 214.76 438.3 293.3 410.58 293.3 410.58 299.12 550.29 299.12 550.29 293.3 546.87 293.3 546.87 248.3 623.1 248.3 623.1 293.3 619.59 293.3 619.59 299.12 631.14 299.12 631.14 281.71 656.55 281.71"></polygon><polygon class="cls-12" points="656.55 281.71 656.55 271.71 633.1 271.71 633.1 129.73 541.81 129.73 541.81 .38 101.08 .38 101.78 10.38 211.92 10.38 211.92 18.41 217.65 18.41 217.65 13.79 438.3 13.79 438.3 57.99 444.03 57.99 444.03 13.79 531.81 13.79 531.81 104.19 444.03 104.19 444.03 99.57 438.3 99.57 438.3 162.84 444.03 162.84 444.03 113.02 531.81 113.02 531.81 139.73 541.05 139.73 541.05 150.08 546.87 150.08 546.87 139.73 623.1 139.73 623.1 188.24 541.05 188.24 541.05 193.97 623.1 193.97 623.1 242.48 546.87 242.48 546.87 232.14 541.05 232.14 541.05 293.3 444.03 293.3 444.03 204.42 438.3 204.42 438.3 209.04 399.12 209.04 399.12 214.76 438.3 214.76 438.3 293.3 410.58 293.3 410.58 299.12 550.29 299.12 550.29 293.3 546.87 293.3 546.87 248.3 623.1 248.3 623.1 293.3 619.59 293.3 619.59 299.12 631.14 299.12 631.14 281.71 656.55 281.71"></polygon><g><path class="cls-22" d="M680.43,259.59c.02.08.07.14.14.14s.13-.06.14-.14c.56-3.3,2.74-4.94,6.02-4.94h3.84c1.16,0,1.98-1.01,2.2-2.66.05-.34-.23-.61-.47-.46-.47.31-1.06.47-1.78.47h-3.48c-2.95,0-5.22,1.67-6.18,4.98-.11.37-.5.37-.61,0-.96-3.31-3.22-4.98-6.18-4.98h-3.48c-.72,0-1.32-.16-1.78-.47-.23-.16-.51.12-.47.45.22,1.65,1.05,2.66,2.2,2.66h3.84c3.29,0,5.46,1.64,6.02,4.95h0Z"></path><path class="cls-13" d="M680.43,259.59c.02.08.07.14.14.14s.13-.06.14-.14c.56-3.3,2.74-4.94,6.02-4.94h3.84c1.16,0,1.98-1.01,2.2-2.66.05-.34-.23-.61-.47-.46-.47.31-1.06.47-1.78.47h-3.48c-2.95,0-5.22,1.67-6.18,4.98-.11.37-.5.37-.61,0-.96-3.31-3.22-4.98-6.18-4.98h-3.48c-.72,0-1.32-.16-1.78-.47-.23-.16-.51.12-.47.45.22,1.65,1.05,2.66,2.2,2.66h3.84c3.29,0,5.46,1.64,6.02,4.95h0Z"></path></g><g><path class="cls-19" d="M279.05,88.6h2.52c1.9,0,2.97.89,2.97,2.53s-1.07,2.54-2.97,2.54h-1.72v3.99h-.8v-9.06ZM281.49,92.95c1.41,0,2.24-.61,2.24-1.81s-.81-1.81-2.24-1.81h-1.64v3.62h1.64Z"></path><path class="cls-19" d="M286.06,91.25h.78v1.09c.43-.78,1.31-1.18,2.02-1.18.33,0,.66.07.99.24l-.39.7c-.21-.1-.51-.17-.77-.17-.68,0-1.46.36-1.74,1.3-.08.27-.12.57-.12,1.27v3.15h-.78v-6.41Z"></path><path class="cls-19" d="M291.11,88.6h.94v1.39h-.94v-1.39ZM291.2,91.25h.77v6.41h-.77v-6.41Z"></path><path class="cls-19" d="M294,91.25h.78v1.1c.38-.85,1.11-1.19,1.88-1.19.91,0,1.57.4,1.89,1.25.4-.83,1.09-1.25,2-1.25,1.55,0,2.13,1.16,2.13,2.68v3.82h-.78v-3.64c0-1.33-.39-2.18-1.52-2.18-1.02,0-1.65.77-1.65,2.26v3.57h-.78v-3.76c0-1.4-.52-2.07-1.5-2.07-1.03,0-1.67.79-1.67,2.26v3.57h-.78v-6.41Z"></path><path class="cls-19" d="M308.83,96.46c-.43.82-1.25,1.29-2.25,1.29-1.44,0-2.31-.77-2.31-1.94,0-.69.29-1.16.72-1.44.46-.31,1.09-.42,1.77-.42h2.05v-.28c0-1.19-.62-1.83-1.82-1.83-.79,0-1.4.29-1.98,1.02l-.56-.48c.68-.85,1.53-1.22,2.59-1.22,1.63,0,2.54.89,2.54,2.51v3.99h-.71l-.04-1.2ZM306.65,97.11c1.18,0,2.17-.93,2.17-2.2v-.36h-1.95c-.51,0-1.03.08-1.37.33-.28.21-.44.51-.44.94,0,.79.6,1.3,1.6,1.3Z"></path><path class="cls-19" d="M311.54,91.25h.78v1.09c.43-.78,1.31-1.18,2.02-1.18.33,0,.66.07.99.24l-.39.7c-.21-.1-.51-.17-.77-.17-.68,0-1.46.36-1.74,1.3-.08.27-.12.57-.12,1.27v3.15h-.78v-6.41Z"></path><path class="cls-19" d="M318.59,97.46l-2.55-6.21h.86l2.1,5.42,2.11-5.42h.85l-3.69,9.05h-.84l1.17-2.84Z"></path><path class="cls-19" d="M326.86,88.6h2.72c1.68,0,2.68.84,2.68,2.25,0,.94-.46,1.68-1.24,2,1.1.25,1.7,1.07,1.7,2.31,0,1.61-1.02,2.5-2.88,2.5h-2.97v-9.06ZM329.83,92.6c.98,0,1.63-.64,1.63-1.64s-.69-1.61-1.88-1.61h-1.91v3.26h2.16ZM329.77,96.91c1.42,0,2.14-.6,2.14-1.79,0-1.13-.66-1.79-1.79-1.79h-2.46v3.58h2.11Z"></path><path class="cls-19" d="M334.18,94.5c0-1.84.99-3.34,2.81-3.34,1.96,0,2.76,1.53,2.76,2.94,0,.1-.01.4-.04.55h-4.76c.03,1.51.84,2.39,2.14,2.39.82,0,1.35-.23,1.91-.83l.55.49c-.73.75-1.43,1.05-2.46,1.05-1.89,0-2.91-1.41-2.91-3.25ZM339,94.07c0-.08,0-.16,0-.24,0-.92-.58-2.02-2-2.02-1.23,0-1.98.98-2.07,2.26h4.06Z"></path><path class="cls-19" d="M341.16,94.45c0-1.96,1.29-3.29,2.92-3.29,1.05,0,1.87.54,2.29,1.36v-3.92h.77v9.06h-.77v-1.26c-.44.85-1.25,1.35-2.29,1.35-1.72,0-2.92-1.42-2.92-3.3ZM344.2,97.03c1.3,0,2.23-1.08,2.23-2.58s-.93-2.58-2.23-2.58-2.26,1.09-2.26,2.58.95,2.58,2.26,2.58Z"></path><path class="cls-19" d="M349.18,91.25h.78v1.09c.43-.78,1.31-1.18,2.02-1.18.33,0,.66.07.99.24l-.39.7c-.21-.1-.51-.17-.77-.17-.68,0-1.46.36-1.74,1.3-.08.27-.12.57-.12,1.27v3.15h-.78v-6.41Z"></path><path class="cls-19" d="M353.56,94.45c0-1.92,1.25-3.29,3.05-3.29s3.04,1.36,3.04,3.29-1.27,3.3-3.04,3.3-3.05-1.36-3.05-3.3ZM356.61,97.06c1.37,0,2.26-1.04,2.26-2.61s-.9-2.61-2.26-2.61-2.28,1.05-2.28,2.61.9,2.61,2.28,2.61Z"></path><path class="cls-19" d="M361.09,94.45c0-1.92,1.25-3.29,3.05-3.29s3.04,1.36,3.04,3.29-1.27,3.3-3.04,3.3-3.05-1.36-3.05-3.3ZM364.14,97.06c1.37,0,2.26-1.04,2.26-2.61s-.9-2.61-2.26-2.61-2.28,1.05-2.28,2.61.9,2.61,2.28,2.61Z"></path><path class="cls-19" d="M368.93,91.25h.78v1.1c.38-.85,1.11-1.19,1.88-1.19.91,0,1.57.4,1.89,1.25.4-.83,1.09-1.25,2-1.25,1.55,0,2.13,1.16,2.13,2.68v3.82h-.78v-3.64c0-1.33-.39-2.18-1.52-2.18-1.02,0-1.65.77-1.65,2.26v3.57h-.78v-3.76c0-1.4-.52-2.07-1.5-2.07-1.03,0-1.67.79-1.67,2.26v3.57h-.78v-6.41Z"></path></g><g><path class="cls-19" d="M683.38,550.84h2.72c1.68,0,2.68.84,2.68,2.25,0,.94-.46,1.68-1.24,2,1.1.25,1.7,1.07,1.7,2.31,0,1.61-1.02,2.5-2.88,2.5h-2.97v-9.06ZM686.35,554.84c.98,0,1.63-.64,1.63-1.64s-.69-1.61-1.88-1.61h-1.91v3.26h2.16ZM686.3,559.15c1.42,0,2.14-.6,2.14-1.79,0-1.13-.66-1.79-1.79-1.79h-2.46v3.58h2.11Z"></path><path class="cls-19" d="M690.68,556.74c0-1.84.99-3.34,2.81-3.34,1.96,0,2.76,1.53,2.76,2.94,0,.1-.01.4-.04.55h-4.76c.03,1.51.84,2.39,2.14,2.39.82,0,1.35-.23,1.91-.83l.55.49c-.73.75-1.43,1.05-2.46,1.05-1.89,0-2.91-1.41-2.91-3.25ZM695.5,556.31c0-.08,0-.16,0-.24,0-.92-.58-2.01-2-2.01-1.23,0-1.98.98-2.07,2.26h4.06Z"></path><path class="cls-19" d="M697.65,556.69c0-1.96,1.29-3.29,2.92-3.29,1.05,0,1.87.54,2.29,1.36v-3.92h.77v9.06h-.77v-1.26c-.44.84-1.25,1.35-2.29,1.35-1.72,0-2.92-1.42-2.92-3.3ZM700.69,559.27c1.3,0,2.23-1.08,2.23-2.58s-.93-2.58-2.23-2.58-2.26,1.09-2.26,2.58.95,2.58,2.26,2.58Z"></path><path class="cls-19" d="M705.66,553.49h.78v1.09c.43-.78,1.31-1.18,2.02-1.18.33,0,.66.07.99.24l-.39.7c-.21-.1-.51-.17-.77-.17-.68,0-1.46.36-1.74,1.3-.08.27-.12.57-.12,1.27v3.15h-.78v-6.41Z"></path><path class="cls-19" d="M710.04,556.69c0-1.92,1.25-3.29,3.05-3.29s3.04,1.37,3.04,3.29-1.27,3.3-3.04,3.3-3.05-1.37-3.05-3.3ZM713.09,559.3c1.37,0,2.26-1.04,2.26-2.61s-.9-2.61-2.26-2.61-2.28,1.05-2.28,2.61.9,2.61,2.28,2.61Z"></path><path class="cls-19" d="M717.58,556.69c0-1.92,1.25-3.29,3.05-3.29s3.04,1.37,3.04,3.29-1.27,3.3-3.04,3.3-3.05-1.37-3.05-3.3ZM720.62,559.3c1.37,0,2.26-1.04,2.26-2.61s-.9-2.61-2.26-2.61-2.28,1.05-2.28,2.61.9,2.61,2.28,2.61Z"></path><path class="cls-19" d="M725.41,553.49h.78v1.1c.38-.84,1.11-1.19,1.88-1.19.91,0,1.57.4,1.89,1.25.4-.83,1.09-1.25,2-1.25,1.55,0,2.13,1.16,2.13,2.68v3.82h-.78v-3.64c0-1.33-.39-2.18-1.52-2.18-1.02,0-1.65.77-1.65,2.26v3.57h-.78v-3.76c0-1.4-.52-2.07-1.5-2.07-1.03,0-1.67.79-1.67,2.26v3.57h-.78v-6.41Z"></path></g><g><path class="cls-19" d="M527.94,607.42h2.72c1.68,0,2.68.84,2.68,2.25,0,.94-.46,1.68-1.24,2,1.1.25,1.7,1.07,1.7,2.31,0,1.61-1.02,2.5-2.88,2.5h-2.97v-9.06ZM530.91,611.42c.98,0,1.63-.64,1.63-1.64s-.69-1.61-1.88-1.61h-1.91v3.26h2.16ZM530.86,615.73c1.42,0,2.14-.6,2.14-1.79,0-1.13-.66-1.79-1.79-1.79h-2.46v3.58h2.11Z"></path><path class="cls-19" d="M535.24,613.32c0-1.84.99-3.34,2.81-3.34,1.96,0,2.76,1.53,2.76,2.94,0,.1-.01.4-.04.55h-4.76c.03,1.51.84,2.39,2.14,2.39.82,0,1.35-.23,1.91-.83l.55.49c-.73.75-1.43,1.05-2.46,1.05-1.89,0-2.91-1.41-2.91-3.25ZM540.06,612.89c0-.08,0-.16,0-.24,0-.92-.58-2.01-2-2.01-1.23,0-1.98.98-2.07,2.26h4.06Z"></path><path class="cls-19" d="M542.21,613.27c0-1.96,1.29-3.29,2.92-3.29,1.05,0,1.87.54,2.29,1.36v-3.92h.77v9.06h-.77v-1.26c-.44.84-1.25,1.35-2.29,1.35-1.72,0-2.92-1.42-2.92-3.3ZM545.25,615.85c1.3,0,2.23-1.08,2.23-2.58s-.93-2.58-2.23-2.58-2.26,1.09-2.26,2.58.95,2.58,2.26,2.58Z"></path><path class="cls-19" d="M550.22,610.07h.78v1.09c.43-.78,1.31-1.18,2.02-1.18.33,0,.66.07.99.24l-.39.7c-.21-.1-.51-.17-.77-.17-.68,0-1.46.36-1.74,1.3-.08.27-.12.57-.12,1.27v3.15h-.78v-6.41Z"></path><path class="cls-19" d="M554.6,613.27c0-1.92,1.25-3.29,3.05-3.29s3.04,1.37,3.04,3.29-1.27,3.3-3.04,3.3-3.05-1.37-3.05-3.3ZM557.65,615.88c1.37,0,2.26-1.04,2.26-2.61s-.9-2.61-2.26-2.61-2.28,1.05-2.28,2.61.9,2.61,2.28,2.61Z"></path><path class="cls-19" d="M562.14,613.27c0-1.92,1.25-3.29,3.05-3.29s3.04,1.37,3.04,3.29-1.27,3.3-3.04,3.3-3.05-1.37-3.05-3.3ZM565.18,615.88c1.37,0,2.26-1.04,2.26-2.61s-.9-2.61-2.26-2.61-2.28,1.05-2.28,2.61.9,2.61,2.28,2.61Z"></path><path class="cls-19" d="M569.97,610.07h.78v1.1c.38-.84,1.11-1.19,1.88-1.19.91,0,1.57.4,1.89,1.25.4-.83,1.09-1.25,2-1.25,1.55,0,2.13,1.16,2.13,2.68v3.82h-.78v-3.64c0-1.33-.39-2.18-1.52-2.18-1.02,0-1.65.77-1.65,2.26v3.57h-.78v-3.76c0-1.4-.52-2.07-1.5-2.07-1.03,0-1.67.79-1.67,2.26v3.57h-.78v-6.41Z"></path></g><g><path class="cls-19" d="M330.37,607.42h2.43c2.94,0,4.62,1.68,4.62,4.6s-1.64,4.46-4.63,4.46h-2.42v-9.06ZM332.72,615.73c2.5,0,3.89-1.16,3.89-3.74s-1.4-3.83-3.82-3.83h-1.61v7.57h1.54Z"></path><path class="cls-19" d="M339.03,607.42h.94v1.39h-.94v-1.39ZM339.11,610.07h.77v6.41h-.77v-6.41Z"></path><path class="cls-19" d="M341.92,610.07h.78v1.05c.4-.76,1.12-1.14,2.01-1.14,1.38,0,2.2.81,2.2,2.51v3.99h-.78v-3.71c0-1.45-.55-2.11-1.61-2.11-1.16,0-1.83.79-1.83,2.55v3.27h-.78v-6.41Z"></path><path class="cls-19" d="M348.8,607.42h.94v1.39h-.94v-1.39ZM348.88,610.07h.77v6.41h-.77v-6.41Z"></path><path class="cls-19" d="M351.69,610.07h.78v1.05c.4-.76,1.12-1.14,2.01-1.14,1.38,0,2.2.81,2.2,2.51v3.99h-.78v-3.71c0-1.45-.55-2.11-1.61-2.11-1.16,0-1.83.79-1.83,2.55v3.27h-.78v-6.41Z"></path><path class="cls-19" d="M358.15,617.24s0-.1.03-.26l1.11-.88c-.57-.22-.96-.59-.96-1.26,0-.53.27-.9.72-1.2-.36-.37-.56-.87-.56-1.45,0-1.3,1.04-2.2,2.38-2.2.64,0,1.22.21,1.64.58l1.02-.86.4.49-1,.88c.19.33.3.71.3,1.14,0,1.28-.96,2.13-2.33,2.13-.53,0-.99-.12-1.37-.34-.31.17-.45.42-.45.71,0,.66.63.83,1.62.98,1.6.25,2.99.44,2.99,1.75,0,1.16-1.05,1.78-2.7,1.78-1.82,0-2.85-.7-2.85-2ZM361,618.63c1.09,0,1.92-.34,1.92-1.08,0-.86-1.16-.96-2.31-1.14-.31-.05-.6-.1-.89-.17l-.8.92c-.01.09-.01.11-.01.15,0,.9.79,1.33,2.09,1.33ZM360.88,613.71c.98,0,1.59-.65,1.59-1.53s-.64-1.56-1.58-1.56-1.62.65-1.62,1.55.63,1.55,1.61,1.55Z"></path><path class="cls-19" d="M368.63,607.42h2.52c1.99,0,2.97.93,2.97,2.5,0,1.25-.64,2.07-1.85,2.38l2.44,4.19h-.92l-2.34-4.07c-.21,0-.44,0-.65,0h-1.36v4.06h-.81v-9.06ZM371.07,611.7c1.38,0,2.24-.55,2.24-1.78s-.88-1.77-2.24-1.77h-1.64v3.56h1.64Z"></path><path class="cls-19" d="M375.64,613.27c0-1.92,1.25-3.29,3.05-3.29s3.04,1.37,3.04,3.29-1.27,3.3-3.04,3.3-3.05-1.37-3.05-3.3ZM378.68,615.88c1.37,0,2.26-1.04,2.26-2.61s-.9-2.61-2.26-2.61-2.28,1.05-2.28,2.61.9,2.61,2.28,2.61Z"></path><path class="cls-19" d="M383.17,613.27c0-1.92,1.25-3.29,3.05-3.29s3.04,1.37,3.04,3.29-1.27,3.3-3.04,3.3-3.05-1.37-3.05-3.3ZM386.22,615.88c1.37,0,2.26-1.04,2.26-2.61s-.9-2.61-2.26-2.61-2.28,1.05-2.28,2.61.9,2.61,2.28,2.61Z"></path><path class="cls-19" d="M391.01,610.07h.78v1.1c.38-.84,1.11-1.19,1.88-1.19.91,0,1.57.4,1.89,1.25.4-.83,1.09-1.25,2-1.25,1.55,0,2.13,1.16,2.13,2.68v3.82h-.78v-3.64c0-1.33-.39-2.18-1.52-2.18-1.02,0-1.65.77-1.65,2.26v3.57h-.78v-3.76c0-1.4-.52-2.07-1.5-2.07-1.03,0-1.67.79-1.67,2.26v3.57h-.78v-6.41Z"></path></g><g><path class="cls-19" d="M238.93,430.09h.81v8.33h4.18v.73h-4.99v-9.06Z"></path><path class="cls-19" d="M245.05,430.09h.94v1.39h-.94v-1.39ZM245.14,432.74h.77v6.41h-.77v-6.41Z"></path><path class="cls-19" d="M247.31,432.74h.86l2.1,5.42,2.11-5.42h.85l-2.61,6.41h-.68l-2.63-6.41Z"></path><path class="cls-19" d="M254.56,430.09h.94v1.39h-.94v-1.39ZM254.65,432.74h.77v6.41h-.77v-6.41Z"></path><path class="cls-19" d="M257.46,432.74h.78v1.05c.4-.76,1.12-1.14,2.01-1.14,1.38,0,2.2.81,2.2,2.51v3.99h-.78v-3.71c0-1.45-.55-2.11-1.61-2.11-1.16,0-1.83.79-1.83,2.55v3.27h-.78v-6.41Z"></path><path class="cls-19" d="M263.91,439.91s0-.1.03-.26l1.11-.88c-.57-.22-.96-.59-.96-1.26,0-.53.27-.9.72-1.2-.36-.37-.56-.87-.56-1.45,0-1.3,1.04-2.2,2.38-2.2.64,0,1.22.21,1.64.58l1.02-.86.4.49-1,.88c.19.33.3.71.3,1.14,0,1.28-.96,2.13-2.33,2.13-.53,0-.99-.12-1.37-.34-.31.17-.45.42-.45.71,0,.66.63.83,1.62.98,1.6.25,2.99.44,2.99,1.75,0,1.16-1.05,1.78-2.7,1.78-1.82,0-2.85-.7-2.85-2ZM266.77,441.3c1.09,0,1.92-.34,1.92-1.08,0-.86-1.16-.96-2.31-1.14-.31-.05-.6-.1-.89-.17l-.8.92c-.01.09-.01.11-.01.15,0,.9.79,1.33,2.09,1.33ZM266.64,436.37c.98,0,1.59-.65,1.59-1.53s-.64-1.56-1.58-1.56-1.62.65-1.62,1.55.63,1.55,1.61,1.55Z"></path><path class="cls-19" d="M274.39,430.09h2.52c1.99,0,2.97.93,2.97,2.5,0,1.25-.64,2.07-1.85,2.38l2.44,4.19h-.92l-2.34-4.07c-.21,0-.44,0-.65,0h-1.36v4.06h-.81v-9.06ZM276.84,434.37c1.38,0,2.24-.55,2.24-1.78s-.88-1.77-2.24-1.77h-1.64v3.56h1.64Z"></path><path class="cls-19" d="M281.4,435.94c0-1.92,1.25-3.29,3.05-3.29s3.04,1.37,3.04,3.29-1.27,3.3-3.04,3.3-3.05-1.37-3.05-3.3ZM284.45,438.54c1.37,0,2.26-1.04,2.26-2.61s-.9-2.61-2.26-2.61-2.28,1.05-2.28,2.61.9,2.61,2.28,2.61Z"></path><path class="cls-19" d="M288.94,435.94c0-1.92,1.25-3.29,3.05-3.29s3.04,1.37,3.04,3.29-1.27,3.3-3.04,3.3-3.05-1.37-3.05-3.3ZM291.98,438.54c1.37,0,2.26-1.04,2.26-2.61s-.9-2.61-2.26-2.61-2.28,1.05-2.28,2.61.9,2.61,2.28,2.61Z"></path><path class="cls-19" d="M296.77,432.74h.78v1.1c.38-.84,1.11-1.19,1.88-1.19.91,0,1.57.4,1.89,1.25.4-.83,1.09-1.25,2-1.25,1.55,0,2.13,1.16,2.13,2.68v3.82h-.78v-3.64c0-1.33-.39-2.18-1.52-2.18-1.02,0-1.65.77-1.65,2.26v3.57h-.78v-3.76c0-1.4-.52-2.07-1.5-2.07-1.03,0-1.67.79-1.67,2.26v3.57h-.78v-6.41Z"></path></g><g><path class="cls-19" d="M143.01,607.42h2.72c1.68,0,2.68.84,2.68,2.25,0,.94-.46,1.68-1.24,2,1.1.25,1.7,1.07,1.7,2.31,0,1.61-1.02,2.5-2.88,2.5h-2.97v-9.06ZM145.98,611.42c.98,0,1.63-.64,1.63-1.64s-.69-1.61-1.89-1.61h-1.91v3.26h2.16ZM145.93,615.73c1.42,0,2.14-.6,2.14-1.79,0-1.13-.66-1.79-1.79-1.79h-2.46v3.58h2.11Z"></path><path class="cls-19" d="M154.83,615.28c-.43.82-1.25,1.29-2.25,1.29-1.44,0-2.31-.77-2.31-1.94,0-.69.29-1.16.72-1.44.46-.31,1.09-.42,1.77-.42h2.05v-.28c0-1.19-.62-1.83-1.82-1.83-.79,0-1.4.29-1.98,1.02l-.56-.48c.68-.84,1.53-1.21,2.59-1.21,1.63,0,2.54.89,2.54,2.51v3.99h-.72l-.04-1.2ZM152.65,615.93c1.18,0,2.16-.93,2.16-2.2v-.36h-1.95c-.51,0-1.03.08-1.37.32-.28.21-.44.51-.44.94,0,.79.6,1.3,1.6,1.3Z"></path><path class="cls-19" d="M157.42,615.15v-7.73h.77v7.59c0,.6.23.84.64.84.17,0,.38-.04.61-.12v.67c-.29.11-.6.17-.84.17-.72,0-1.18-.44-1.18-1.42Z"></path><path class="cls-19" d="M160.38,613.27c0-1.83,1.06-3.29,2.86-3.29,1.17,0,2.09.58,2.51,1.74l-.7.27c-.27-.82-.9-1.33-1.81-1.33-1.42,0-2.09,1.25-2.09,2.61s.68,2.62,2.09,2.62c.91,0,1.53-.51,1.81-1.33l.7.27c-.42,1.16-1.34,1.75-2.51,1.75-1.8,0-2.86-1.46-2.86-3.3Z"></path><path class="cls-19" d="M166.98,613.27c0-1.92,1.25-3.29,3.05-3.29s3.04,1.37,3.04,3.29-1.27,3.3-3.04,3.3-3.05-1.37-3.05-3.3ZM170.03,615.88c1.37,0,2.26-1.04,2.26-2.61s-.9-2.61-2.26-2.61-2.28,1.05-2.28,2.61.9,2.61,2.28,2.61Z"></path><path class="cls-19" d="M174.82,610.07h.78v1.05c.4-.76,1.12-1.14,2.01-1.14,1.38,0,2.2.81,2.2,2.51v3.99h-.78v-3.71c0-1.45-.55-2.11-1.61-2.11-1.16,0-1.83.79-1.83,2.55v3.27h-.78v-6.41Z"></path><path class="cls-19" d="M183.54,616.28l-2.55-6.21h.86l2.1,5.42,2.11-5.42h.85l-3.69,9.05h-.84l1.17-2.84Z"></path></g><g><path class="cls-19" d="M137.34,88.6h2.72c1.68,0,2.68.84,2.68,2.25,0,.94-.46,1.68-1.24,2,1.1.25,1.7,1.07,1.7,2.31,0,1.61-1.02,2.5-2.88,2.5h-2.97v-9.06ZM140.31,92.6c.98,0,1.63-.64,1.63-1.64s-.69-1.61-1.89-1.61h-1.91v3.26h2.16ZM140.26,96.91c1.42,0,2.14-.6,2.14-1.79,0-1.13-.66-1.79-1.79-1.79h-2.46v3.58h2.11Z"></path><path class="cls-19" d="M149.16,96.46c-.43.82-1.25,1.29-2.25,1.29-1.44,0-2.31-.77-2.31-1.94,0-.69.29-1.16.72-1.44.46-.31,1.09-.42,1.77-.42h2.05v-.28c0-1.19-.62-1.83-1.82-1.83-.79,0-1.4.29-1.98,1.02l-.56-.48c.68-.85,1.53-1.22,2.59-1.22,1.63,0,2.54.89,2.54,2.51v3.99h-.72l-.04-1.2ZM146.98,97.11c1.18,0,2.16-.93,2.16-2.2v-.36h-1.95c-.51,0-1.03.08-1.37.33-.28.21-.44.51-.44.94,0,.79.6,1.3,1.6,1.3Z"></path><path class="cls-19" d="M151.75,96.33v-7.73h.77v7.59c0,.6.23.85.64.85.17,0,.38-.04.61-.12v.67c-.29.11-.6.17-.84.17-.72,0-1.18-.44-1.18-1.42Z"></path><path class="cls-19" d="M154.71,94.45c0-1.83,1.06-3.29,2.86-3.29,1.17,0,2.09.58,2.51,1.74l-.7.27c-.27-.82-.9-1.33-1.81-1.33-1.42,0-2.09,1.25-2.09,2.61s.68,2.62,2.09,2.62c.91,0,1.53-.51,1.81-1.33l.7.27c-.42,1.16-1.34,1.75-2.51,1.75-1.8,0-2.86-1.46-2.86-3.3Z"></path><path class="cls-19" d="M161.32,94.45c0-1.92,1.25-3.29,3.05-3.29s3.04,1.36,3.04,3.29-1.27,3.3-3.04,3.3-3.05-1.36-3.05-3.3ZM164.36,97.06c1.36,0,2.26-1.04,2.26-2.61s-.9-2.61-2.26-2.61-2.27,1.05-2.27,2.61.9,2.61,2.27,2.61Z"></path><path class="cls-19" d="M169.16,91.25h.78v1.05c.4-.76,1.12-1.14,2.01-1.14,1.38,0,2.2.81,2.2,2.51v3.99h-.78v-3.71c0-1.45-.55-2.11-1.61-2.11-1.16,0-1.83.79-1.83,2.55v3.27h-.78v-6.41Z"></path><path class="cls-19" d="M177.87,97.46l-2.55-6.21h.86l2.1,5.42,2.11-5.42h.85l-3.69,9.05h-.84l1.17-2.84Z"></path></g><g><path class="cls-19" d="M695.34,693.46h2.72c1.68,0,2.68.84,2.68,2.25,0,.94-.46,1.68-1.24,2,1.1.25,1.7,1.07,1.7,2.31,0,1.61-1.02,2.5-2.88,2.5h-2.97v-9.06ZM698.31,697.46c.98,0,1.63-.64,1.63-1.64s-.69-1.61-1.88-1.61h-1.91v3.26h2.16ZM698.26,701.77c1.42,0,2.14-.6,2.14-1.79,0-1.13-.66-1.79-1.79-1.79h-2.46v3.58h2.11Z"></path><path class="cls-19" d="M707.17,701.32c-.43.82-1.25,1.29-2.25,1.29-1.44,0-2.31-.77-2.31-1.94,0-.69.29-1.16.72-1.44.46-.31,1.09-.42,1.77-.42h2.05v-.28c0-1.19-.62-1.83-1.82-1.83-.79,0-1.4.29-1.98,1.02l-.56-.48c.68-.84,1.53-1.21,2.59-1.21,1.63,0,2.54.89,2.54,2.51v3.99h-.71l-.04-1.2ZM705,701.97c1.18,0,2.17-.93,2.17-2.2v-.36h-1.95c-.51,0-1.03.08-1.37.32-.28.21-.44.51-.44.94,0,.79.6,1.3,1.6,1.3Z"></path><path class="cls-19" d="M709.76,701.19v-7.73h.77v7.59c0,.6.23.84.64.84.17,0,.38-.04.61-.12v.67c-.29.11-.6.17-.84.17-.72,0-1.18-.44-1.18-1.42Z"></path><path class="cls-19" d="M712.72,699.31c0-1.83,1.06-3.29,2.86-3.29,1.17,0,2.09.58,2.51,1.74l-.7.27c-.27-.82-.9-1.33-1.81-1.33-1.42,0-2.09,1.25-2.09,2.61s.68,2.62,2.09,2.62c.91,0,1.53-.51,1.81-1.33l.7.27c-.42,1.16-1.34,1.75-2.51,1.75-1.8,0-2.86-1.46-2.86-3.3Z"></path><path class="cls-19" d="M719.33,699.31c0-1.92,1.25-3.29,3.05-3.29s3.04,1.37,3.04,3.29-1.27,3.3-3.04,3.3-3.05-1.37-3.05-3.3ZM722.38,701.92c1.37,0,2.26-1.04,2.26-2.61s-.9-2.61-2.26-2.61-2.28,1.05-2.28,2.61.9,2.61,2.28,2.61Z"></path><path class="cls-19" d="M727.17,696.11h.78v1.05c.4-.76,1.12-1.14,2.01-1.14,1.38,0,2.2.81,2.2,2.51v3.99h-.78v-3.71c0-1.45-.55-2.11-1.61-2.11-1.16,0-1.83.79-1.83,2.55v3.27h-.78v-6.41Z"></path><path class="cls-19" d="M735.88,702.32l-2.55-6.21h.86l2.1,5.42,2.11-5.42h.85l-3.69,9.05h-.84l1.17-2.84Z"></path></g><g><path class="cls-19" d="M251.86,246.12h.81v4.86l4.65-4.86h1.09l-3.45,3.54,3.48,5.52h-.95l-3.11-4.93-1.71,1.75v3.17h-.81v-9.06Z"></path><path class="cls-19" d="M259.59,246.12h.94v1.39h-.94v-1.39ZM259.67,248.77h.77v6.41h-.77v-6.41Z"></path><path class="cls-19" d="M263.24,253.7v-4.31h-1.42v-.62h1.42v-1.85l.79-.46v2.31h1.54v.62h-1.54v4.12c0,.71.22,1.11.81,1.11.19,0,.46-.04.73-.12v.62c-.32.1-.64.16-.92.16-.85,0-1.4-.49-1.4-1.57Z"></path><path class="cls-19" d="M266.59,251.97c0-1.83,1.06-3.29,2.86-3.29,1.17,0,2.09.59,2.51,1.74l-.7.27c-.27-.82-.9-1.33-1.81-1.33-1.42,0-2.09,1.25-2.09,2.61s.68,2.62,2.09,2.62c.91,0,1.53-.51,1.81-1.33l.7.27c-.42,1.16-1.34,1.75-2.51,1.75-1.8,0-2.86-1.46-2.86-3.3Z"></path><path class="cls-19" d="M273.59,246.12h.78v3.69c.4-.75,1.1-1.13,2.01-1.13,1.4,0,2.2.85,2.2,2.51v3.99h-.78v-3.71c0-1.43-.53-2.11-1.61-2.11-1.18,0-1.83.83-1.83,2.55v3.27h-.78v-9.06Z"></path><path class="cls-19" d="M280.22,252.02c0-1.84.99-3.34,2.81-3.34,1.96,0,2.76,1.53,2.76,2.94,0,.1-.01.4-.04.55h-4.76c.03,1.51.84,2.39,2.14,2.39.82,0,1.35-.23,1.91-.83l.55.49c-.73.75-1.43,1.05-2.46,1.05-1.89,0-2.91-1.41-2.91-3.25ZM285.04,251.59c0-.08,0-.16,0-.24,0-.92-.58-2.02-2-2.02-1.23,0-1.98.98-2.07,2.26h4.06Z"></path><path class="cls-19" d="M287.53,248.77h.78v1.05c.4-.76,1.12-1.14,2.01-1.14,1.38,0,2.2.81,2.2,2.51v3.99h-.78v-3.71c0-1.45-.55-2.11-1.61-2.11-1.16,0-1.83.79-1.83,2.55v3.27h-.78v-6.41Z"></path></g><g><path class="cls-19" d="M638.51,330.68h5.86v.73h-5.06v3.37h4.39v.73h-4.39v4.24h-.81v-9.06Z"></path><path class="cls-19" d="M645.1,336.53c0-1.92,1.25-3.29,3.05-3.29s3.04,1.36,3.04,3.29-1.27,3.3-3.04,3.3-3.05-1.36-3.05-3.3ZM648.15,339.14c1.37,0,2.26-1.04,2.26-2.61s-.9-2.61-2.26-2.61-2.28,1.05-2.28,2.61.9,2.61,2.28,2.61Z"></path><path class="cls-19" d="M654.67,339.54l-2.55-6.21h.86l2.1,5.42,2.11-5.42h.85l-3.69,9.05h-.84l1.17-2.84Z"></path><path class="cls-19" d="M658.99,336.59c0-1.84.99-3.34,2.81-3.34,1.96,0,2.76,1.53,2.76,2.94,0,.1-.01.4-.04.55h-4.76c.03,1.51.84,2.39,2.14,2.39.82,0,1.35-.23,1.91-.83l.55.49c-.73.75-1.43,1.05-2.46,1.05-1.89,0-2.91-1.41-2.91-3.25ZM663.81,336.16c0-.08,0-.16,0-.24,0-.92-.58-2.02-2-2.02-1.23,0-1.98.98-2.07,2.26h4.06Z"></path><path class="cls-19" d="M666.29,333.34h.78v1.09c.43-.78,1.31-1.18,2.02-1.18.33,0,.66.07.99.24l-.39.7c-.21-.1-.51-.17-.77-.17-.68,0-1.46.36-1.74,1.3-.08.27-.12.57-.12,1.27v3.15h-.78v-6.41Z"></path></g><g><path class="cls-19" d="M478.95,56.7h.65l1.71,6.06,1.76-5.7h.63l1.76,5.7,1.7-6.06h.65l-2.01,6.98h-.63l-1.79-5.71-1.79,5.71h-.64l-2.01-6.98Z"></path><path class="cls-19" d="M488.95,56.7h.62v6.98h-.62v-6.98Z"></path><path class="cls-19" d="M491,60.18c0-2.16,1.26-3.58,3.16-3.58,1.35,0,2.39.71,2.84,1.89l-.58.22c-.38-.96-1.17-1.52-2.26-1.52-1.55,0-2.54,1.17-2.54,2.99s.99,3,2.54,3c1.09,0,1.89-.56,2.26-1.52l.58.22c-.45,1.18-1.49,1.9-2.84,1.9-1.89,0-3.16-1.42-3.16-3.59Z"></path></g><path class="cls-19" d="M564.32,269.14h.65l1.71,6.06,1.76-5.7h.63l1.76,5.7,1.7-6.06h.65l-2.01,6.98h-.63l-1.79-5.71-1.79,5.71h-.64l-2.01-6.98Z"></path><path class="cls-19" d="M598.72,269.14h1.87c2.26,0,3.56,1.29,3.56,3.54s-1.27,3.43-3.57,3.43h-1.86v-6.98ZM600.53,275.54c1.92,0,2.99-.89,2.99-2.88s-1.08-2.95-2.94-2.95h-1.24v5.83h1.19Z"></path><path class="cls-19" d="M319.28,210.31c0-2.17,1.27-3.59,3.16-3.59s3.18,1.42,3.18,3.59-1.27,3.58-3.18,3.58-3.16-1.42-3.16-3.58ZM322.44,213.3c1.57,0,2.55-1.16,2.55-2.99s-.99-3-2.55-3-2.54,1.15-2.54,3,.99,2.99,2.54,2.99Z"></path><path class="cls-19" d="M329.31,205.82h.48l-3.55,9.08h-.47l3.55-9.08Z"></path><path class="cls-19" d="M331.01,206.82h.93l2.35,5.66,2.35-5.66h.92v6.98h-.62v-6.16l-2.35,5.59h-.61l-2.36-5.59v6.16h-.62v-6.98Z"></path><g><path class="cls-19" d="M418.22,275.2h.65l1.71,6.06,1.76-5.7h.63l1.76,5.7,1.7-6.06h.65l-2.01,6.98h-.63l-1.79-5.71-1.79,5.71h-.64l-2.01-6.98Z"></path><path class="cls-19" d="M428.23,275.2h4.51v.56h-3.89v2.59h3.38v.56h-3.38v3.26h-.62v-6.98Z"></path></g><path class="cls-19" d="M423.59,236.68h1.94c1.46,0,2.29.69,2.29,1.95s-.83,1.96-2.29,1.96h-1.33v3.07h-.62v-6.98ZM425.48,240.03c1.09,0,1.73-.47,1.73-1.4s-.62-1.39-1.73-1.39h-1.27v2.79h1.27Z"></path><g><path class="cls-19" d="M170.04,206.82h1.94c1.53,0,2.29.72,2.29,1.92,0,.97-.5,1.6-1.43,1.83l1.88,3.22h-.71l-1.8-3.13c-.16,0-.34,0-.5,0h-1.05v3.13h-.62v-6.98ZM171.92,210.12c1.06,0,1.73-.43,1.73-1.37s-.68-1.37-1.73-1.37h-1.26v2.74h1.26Z"></path><path class="cls-19" d="M175.89,206.82h4.56v.56h-3.94v2.59h3.53v.56h-3.53v2.7h3.94v.56h-4.56v-6.98Z"></path><path class="cls-19" d="M181.75,206.82h4.51v.56h-3.89v2.59h3.38v.56h-3.38v3.26h-.62v-6.98Z"></path></g><g><path class="cls-19" d="M232.5,286.95h1.87c2.26,0,3.56,1.29,3.56,3.54s-1.27,3.43-3.57,3.43h-1.86v-6.98ZM234.3,293.35c1.92,0,2.99-.89,2.99-2.88s-1.08-2.95-2.94-2.95h-1.24v5.83h1.19Z"></path><path class="cls-19" d="M238.59,286.95h.65l1.71,6.06,1.76-5.7h.63l1.76,5.7,1.7-6.06h.65l-2.01,6.98h-.63l-1.79-5.71-1.79,5.71h-.64l-2.01-6.98Z"></path></g><g><path class="cls-19" d="M689.91,417.01h.65l1.71,6.06,1.76-5.7h.63l1.76,5.7,1.7-6.06h.65l-2.01,6.98h-.63l-1.79-5.71-1.79,5.71h-.64l-2.01-6.98Z"></path><path class="cls-19" d="M699.91,417.01h.62v6.98h-.62v-6.98Z"></path><path class="cls-19" d="M701.96,420.5c0-2.16,1.26-3.58,3.16-3.58,1.35,0,2.39.71,2.84,1.89l-.58.22c-.38-.96-1.17-1.52-2.26-1.52-1.55,0-2.54,1.17-2.54,2.99s.99,3,2.54,3c1.09,0,1.89-.56,2.26-1.52l.58.21c-.45,1.18-1.49,1.9-2.84,1.9-1.89,0-3.16-1.42-3.16-3.59Z"></path></g><g><path class="cls-24" d="M0,73.9h3.61v.45H.5v2.07h2.7v.45H.5v2.61h-.5v-5.57Z"></path><path class="cls-24" d="M4.34,73.9h.58v.86h-.58v-.86ZM4.4,75.53h.47v3.94h-.47v-3.94Z"></path><path class="cls-24" d="M6.2,75.53h.48v.64c.25-.47.69-.7,1.24-.7.85,0,1.36.5,1.36,1.54v2.45h-.48v-2.28c0-.89-.34-1.3-.99-1.3-.71,0-1.13.48-1.13,1.57v2.01h-.48v-3.94Z"></path><path class="cls-24" d="M12.78,73.9h3.64v.45h-3.15v2.07h2.82v.45h-2.82v2.16h3.15v.45h-3.64v-5.57Z"></path><path class="cls-24" d="M18.58,77.49l-1.46-1.96h.59l1.18,1.63,1.2-1.63h.58l-1.46,1.96,1.47,1.98h-.59l-1.19-1.64-1.19,1.64h-.58l1.46-1.98Z"></path><path class="cls-24" d="M22.1,78.56v-2.65h-.88v-.38h.88v-1.14l.48-.28v1.42h.95v.38h-.95v2.53c0,.44.14.68.5.68.12,0,.28-.02.45-.08v.38c-.2.06-.4.1-.57.1-.52,0-.86-.3-.86-.97Z"></path><path class="cls-24" d="M24.25,77.53c0-1.13.61-2.05,1.73-2.05,1.21,0,1.7.94,1.7,1.81,0,.06,0,.24-.02.34h-2.93c.02.93.52,1.47,1.32,1.47.5,0,.83-.14,1.18-.51l.34.3c-.45.46-.88.65-1.52.65-1.16,0-1.79-.87-1.79-2ZM27.21,77.26s0-.1,0-.15c0-.57-.36-1.24-1.23-1.24-.76,0-1.22.6-1.27,1.39h2.49Z"></path><path class="cls-24" d="M28.82,75.53h.48v.64c.25-.47.69-.7,1.24-.7.85,0,1.36.5,1.36,1.54v2.45h-.48v-2.28c0-.89-.34-1.3-.99-1.3-.71,0-1.13.48-1.13,1.57v2.01h-.48v-3.94Z"></path><path class="cls-24" d="M32.78,78.63l.34-.28c.2.46.66.77,1.26.77.57,0,.95-.27.95-.72,0-.55-.53-.68-1.1-.82-.66-.16-1.23-.38-1.23-1.06,0-.62.53-1.05,1.3-1.05.6,0,1.1.26,1.37.76l-.37.21c-.21-.38-.57-.58-1.02-.58-.48,0-.84.24-.84.62,0,.4.36.54.93.68.67.16,1.44.34,1.44,1.2,0,.71-.56,1.17-1.42,1.17-.79,0-1.35-.4-1.6-.9Z"></path><path class="cls-24" d="M36.88,73.9h.58v.86h-.58v-.86ZM36.93,75.53h.47v3.94h-.47v-3.94Z"></path><path class="cls-24" d="M38.55,77.5c0-1.18.77-2.02,1.88-2.02s1.87.84,1.87,2.02-.78,2.03-1.87,2.03-1.88-.84-1.88-2.03ZM40.43,79.1c.84,0,1.39-.64,1.39-1.6s-.55-1.6-1.39-1.6-1.4.64-1.4,1.6.56,1.6,1.4,1.6Z"></path><path class="cls-24" d="M43.45,75.53h.48v.64c.25-.47.69-.7,1.24-.7.85,0,1.36.5,1.36,1.54v2.45h-.48v-2.28c0-.89-.34-1.3-.99-1.3-.71,0-1.13.48-1.13,1.57v2.01h-.48v-3.94Z"></path><path class="cls-24" d="M47.85,75.7h.58v.86h-.58v-.86ZM47.85,78.62h.58v.85h-.58v-.85Z"></path></g><g><path class="cls-24" d="M33.4,84.79h-1.47v-.39h1.03c.29,0,.44-.1.44-.41v-.49h.48v5.57h-.48v-4.28Z"></path><path class="cls-24" d="M38.47,86.86c-.23.14-.5.22-.76.22-1.01,0-1.81-.81-1.81-1.81s.84-1.83,1.87-1.83,1.88.8,1.88,1.82c0,.37-.12.7-.29,1l-1.68,2.81h-.54l1.34-2.21ZM37.77,86.65c.76,0,1.39-.59,1.39-1.38s-.62-1.38-1.39-1.38-1.39.6-1.39,1.38.62,1.38,1.39,1.38Z"></path><path class="cls-24" d="M40.59,86.27c0-1.33.3-2.84,1.72-2.84s1.75,1.39,1.75,2.85-.4,2.84-1.72,2.84c-1.44,0-1.75-1.51-1.75-2.85ZM42.35,88.66c.88,0,1.23-1,1.23-2.36s-.36-2.41-1.26-2.41c-.96,0-1.23,1.1-1.23,2.4s.28,2.37,1.26,2.37Z"></path><path class="cls-24" d="M48.02,85.11c0-.73-.43-1.2-1.19-1.2-.84,0-1.26.58-1.27,1.45l-.47-.03c0-1.07.62-1.88,1.75-1.88.99,0,1.64.65,1.64,1.65,0,1.49-1.5,2.65-2.81,3.53h3.04v.45h-3.64v-.44c1.02-.82,2.94-2.02,2.94-3.53Z"></path></g><g><path class="cls-24" d="M34.35,94.71c0-.73-.43-1.2-1.19-1.2-.84,0-1.26.58-1.27,1.45l-.47-.03c0-1.07.62-1.88,1.75-1.88.99,0,1.64.65,1.64,1.65,0,1.49-1.5,2.65-2.81,3.53h3.04v.45h-3.64v-.44c1.02-.82,2.94-2.02,2.94-3.53Z"></path><path class="cls-24" d="M36.04,95.87c0-1.33.3-2.84,1.72-2.84s1.75,1.39,1.75,2.85-.4,2.84-1.72,2.84c-1.44,0-1.75-1.51-1.75-2.85ZM37.79,98.26c.88,0,1.23-1,1.23-2.36s-.36-2.41-1.26-2.41c-.96,0-1.23,1.1-1.23,2.39s.28,2.38,1.26,2.38Z"></path><path class="cls-24" d="M40.59,95.87c0-1.33.3-2.84,1.72-2.84s1.75,1.39,1.75,2.85-.4,2.84-1.72,2.84c-1.44,0-1.75-1.51-1.75-2.85ZM42.35,98.26c.88,0,1.23-1,1.23-2.36s-.36-2.41-1.26-2.41c-.96,0-1.23,1.1-1.23,2.39s.28,2.38,1.26,2.38Z"></path><path class="cls-24" d="M48.02,94.71c0-.73-.43-1.2-1.19-1.2-.84,0-1.26.58-1.27,1.45l-.47-.03c0-1.07.62-1.88,1.75-1.88.99,0,1.64.65,1.64,1.65,0,1.49-1.5,2.65-2.81,3.53h3.04v.45h-3.64v-.44c1.02-.82,2.94-2.02,2.94-3.53Z"></path></g><g><path class="cls-24" d="M57.13,699.38h3.61v.45h-3.11v2.07h2.7v.45h-2.7v2.61h-.5v-5.57Z"></path><path class="cls-24" d="M61.47,699.38h.58v.86h-.58v-.86ZM61.52,701.01h.47v3.94h-.47v-3.94Z"></path><path class="cls-24" d="M63.33,701.01h.48v.64c.25-.47.69-.7,1.24-.7.85,0,1.36.5,1.36,1.54v2.46h-.48v-2.28c0-.89-.34-1.3-.99-1.3-.71,0-1.13.48-1.13,1.57v2.01h-.48v-3.94Z"></path><path class="cls-24" d="M69.9,699.38h3.64v.45h-3.15v2.07h2.82v.45h-2.82v2.16h3.15v.45h-3.64v-5.57Z"></path><path class="cls-24" d="M75.71,702.98l-1.46-1.96h.59l1.18,1.63,1.2-1.63h.58l-1.46,1.96,1.47,1.98h-.59l-1.19-1.64-1.19,1.64h-.58l1.46-1.98Z"></path><path class="cls-24" d="M79.23,704.04v-2.65h-.88v-.38h.88v-1.14l.48-.28v1.42h.95v.38h-.95v2.54c0,.44.14.68.5.68.12,0,.28-.02.45-.08v.38c-.2.06-.4.1-.57.1-.52,0-.86-.3-.86-.97Z"></path><path class="cls-24" d="M81.38,703.01c0-1.13.61-2.05,1.73-2.05,1.21,0,1.7.94,1.7,1.81,0,.06,0,.24-.02.34h-2.93c.02.93.52,1.47,1.32,1.47.5,0,.83-.14,1.18-.51l.34.3c-.45.46-.88.65-1.52.65-1.16,0-1.79-.87-1.79-2ZM84.34,702.75s0-.1,0-.15c0-.57-.36-1.24-1.23-1.24-.76,0-1.22.6-1.27,1.39h2.49Z"></path><path class="cls-24" d="M85.95,701.01h.48v.64c.25-.47.69-.7,1.24-.7.85,0,1.36.5,1.36,1.54v2.46h-.48v-2.28c0-.89-.34-1.3-.99-1.3-.71,0-1.13.48-1.13,1.57v2.01h-.48v-3.94Z"></path><path class="cls-24" d="M89.9,704.11l.34-.28c.2.46.66.77,1.26.77.57,0,.95-.27.95-.72,0-.55-.53-.68-1.1-.82-.66-.16-1.23-.38-1.23-1.06,0-.62.53-1.05,1.3-1.05.6,0,1.1.26,1.37.76l-.37.21c-.21-.38-.57-.58-1.02-.58-.48,0-.84.24-.84.62,0,.4.36.54.93.68.67.16,1.44.34,1.44,1.2,0,.71-.56,1.17-1.42,1.17-.79,0-1.35-.4-1.6-.9Z"></path><path class="cls-24" d="M94.01,699.38h.58v.86h-.58v-.86ZM94.06,701.01h.47v3.94h-.47v-3.94Z"></path><path class="cls-24" d="M95.68,702.98c0-1.18.77-2.02,1.88-2.02s1.87.84,1.87,2.02-.78,2.03-1.87,2.03-1.88-.84-1.88-2.03ZM97.55,704.58c.84,0,1.39-.64,1.39-1.6s-.55-1.6-1.39-1.6-1.4.64-1.4,1.6.56,1.6,1.4,1.6Z"></path><path class="cls-24" d="M100.57,701.01h.48v.64c.25-.47.69-.7,1.24-.7.85,0,1.36.5,1.36,1.54v2.46h-.48v-2.28c0-.89-.34-1.3-.99-1.3-.71,0-1.13.48-1.13,1.57v2.01h-.48v-3.94Z"></path><path class="cls-24" d="M104.97,701.19h.58v.86h-.58v-.86ZM104.97,704.1h.58v.85h-.58v-.85Z"></path></g><g><path class="cls-24" d="M90.52,710.27h-1.47v-.39h1.03c.29,0,.44-.1.44-.41v-.49h.48v5.57h-.48v-4.28Z"></path><path class="cls-24" d="M95.6,712.35c-.23.14-.5.22-.76.22-1.01,0-1.81-.81-1.81-1.81s.84-1.83,1.87-1.83,1.88.8,1.88,1.82c0,.37-.12.7-.29,1l-1.68,2.81h-.54l1.34-2.21ZM94.89,712.14c.76,0,1.39-.59,1.39-1.38s-.62-1.38-1.39-1.38-1.39.6-1.39,1.38.62,1.38,1.39,1.38Z"></path><path class="cls-24" d="M97.72,711.76c0-1.33.3-2.84,1.72-2.84s1.75,1.39,1.75,2.85-.4,2.84-1.72,2.84c-1.44,0-1.75-1.51-1.75-2.85ZM99.47,714.15c.88,0,1.23-1,1.23-2.36s-.36-2.41-1.26-2.41c-.96,0-1.23,1.1-1.23,2.39s.28,2.37,1.26,2.37Z"></path><path class="cls-24" d="M105.14,710.59c0-.73-.43-1.2-1.19-1.2-.84,0-1.26.58-1.27,1.45l-.47-.03c0-1.07.62-1.88,1.75-1.88.99,0,1.64.65,1.64,1.65,0,1.49-1.5,2.65-2.81,3.53h3.04v.45h-3.64v-.44c1.02-.82,2.94-2.02,2.94-3.53Z"></path></g><g><path class="cls-24" d="M91.47,720.19c0-.73-.43-1.2-1.19-1.2-.84,0-1.26.58-1.27,1.45l-.47-.03c0-1.07.62-1.88,1.75-1.88.99,0,1.64.65,1.64,1.65,0,1.49-1.5,2.65-2.81,3.53h3.04v.45h-3.64v-.44c1.02-.82,2.94-2.02,2.94-3.53Z"></path><path class="cls-24" d="M93.17,721.36c0-1.33.3-2.84,1.72-2.84s1.75,1.39,1.75,2.85-.4,2.84-1.72,2.84c-1.44,0-1.75-1.51-1.75-2.85ZM94.92,723.75c.88,0,1.23-1,1.23-2.36s-.36-2.41-1.26-2.41c-.96,0-1.23,1.1-1.23,2.39s.28,2.37,1.26,2.37Z"></path><path class="cls-24" d="M97.72,721.36c0-1.33.3-2.84,1.72-2.84s1.75,1.39,1.75,2.85-.4,2.84-1.72,2.84c-1.44,0-1.75-1.51-1.75-2.85ZM99.47,723.75c.88,0,1.23-1,1.23-2.36s-.36-2.41-1.26-2.41c-.96,0-1.23,1.1-1.23,2.39s.28,2.37,1.26,2.37Z"></path><path class="cls-24" d="M105.14,720.19c0-.73-.43-1.2-1.19-1.2-.84,0-1.26.58-1.27,1.45l-.47-.03c0-1.07.62-1.88,1.75-1.88.99,0,1.64.65,1.64,1.65,0,1.49-1.5,2.65-2.81,3.53h3.04v.45h-3.64v-.44c1.02-.82,2.94-2.02,2.94-3.53Z"></path></g><g><path class="cls-24" d="M756.19,780.51h3.61v.45h-3.11v2.07h2.7v.45h-2.7v2.61h-.5v-5.57Z"></path><path class="cls-24" d="M760.54,780.51h.58v.86h-.58v-.86ZM760.59,782.14h.47v3.94h-.47v-3.94Z"></path><path class="cls-24" d="M762.39,782.14h.48v.64c.25-.47.69-.7,1.24-.7.85,0,1.36.5,1.36,1.54v2.46h-.48v-2.28c0-.89-.34-1.3-.99-1.3-.71,0-1.13.48-1.13,1.57v2.01h-.48v-3.94Z"></path><path class="cls-24" d="M768.96,780.51h3.64v.45h-3.15v2.07h2.82v.45h-2.82v2.16h3.15v.45h-3.64v-5.57Z"></path><path class="cls-24" d="M774.76,784.1l-1.46-1.96h.59l1.18,1.63,1.2-1.63h.58l-1.46,1.96,1.47,1.98h-.59l-1.19-1.64-1.19,1.64h-.58l1.46-1.98Z"></path><path class="cls-24" d="M778.29,785.17v-2.65h-.88v-.38h.88v-1.14l.48-.28v1.42h.95v.38h-.95v2.54c0,.44.14.68.5.68.12,0,.28-.02.45-.08v.38c-.2.06-.4.1-.57.1-.52,0-.86-.3-.86-.97Z"></path><path class="cls-24" d="M780.43,784.14c0-1.13.61-2.05,1.73-2.05,1.21,0,1.7.94,1.7,1.81,0,.06,0,.24-.02.34h-2.93c.02.93.52,1.47,1.32,1.47.5,0,.83-.14,1.17-.51l.34.3c-.45.46-.88.65-1.51.65-1.16,0-1.79-.87-1.79-2ZM783.4,783.87s0-.1,0-.15c0-.57-.36-1.24-1.23-1.24-.75,0-1.22.6-1.27,1.39h2.49Z"></path><path class="cls-24" d="M785,782.14h.48v.64c.25-.47.69-.7,1.24-.7.85,0,1.36.5,1.36,1.54v2.46h-.48v-2.28c0-.89-.34-1.3-.99-1.3-.71,0-1.13.48-1.13,1.57v2.01h-.48v-3.94Z"></path><path class="cls-24" d="M788.96,785.24l.34-.28c.2.46.66.77,1.26.77.57,0,.95-.27.95-.72,0-.55-.53-.68-1.1-.82-.66-.16-1.23-.38-1.23-1.06,0-.62.53-1.05,1.29-1.05.6,0,1.1.26,1.37.76l-.37.21c-.21-.38-.57-.58-1.01-.58-.48,0-.84.24-.84.62,0,.4.36.54.93.68.67.16,1.43.34,1.43,1.2,0,.71-.56,1.17-1.42,1.17-.79,0-1.35-.4-1.6-.9Z"></path><path class="cls-24" d="M793.06,780.51h.58v.86h-.58v-.86ZM793.11,782.14h.47v3.94h-.47v-3.94Z"></path><path class="cls-24" d="M794.73,784.11c0-1.18.77-2.02,1.88-2.02s1.87.84,1.87,2.02-.78,2.03-1.87,2.03-1.88-.84-1.88-2.03ZM796.61,785.71c.84,0,1.39-.64,1.39-1.6s-.55-1.6-1.39-1.6-1.4.64-1.4,1.6.56,1.6,1.4,1.6Z"></path><path class="cls-24" d="M799.63,782.14h.48v.64c.25-.47.69-.7,1.24-.7.85,0,1.36.5,1.36,1.54v2.46h-.48v-2.28c0-.89-.34-1.3-.99-1.3-.71,0-1.13.48-1.13,1.57v2.01h-.48v-3.94Z"></path><path class="cls-24" d="M804.03,782.31h.58v.86h-.58v-.86ZM804.03,785.23h.58v.85h-.58v-.85Z"></path></g><g><path class="cls-24" d="M757.93,791.4h-1.47v-.39h1.03c.29,0,.44-.1.44-.41v-.49h.48v5.57h-.48v-4.28Z"></path><path class="cls-24" d="M762.99,793.47c-.23.14-.5.22-.76.22-1.01,0-1.81-.81-1.81-1.81s.84-1.83,1.87-1.83,1.88.8,1.88,1.82c0,.37-.12.7-.29,1l-1.67,2.81h-.54l1.34-2.21ZM762.29,793.26c.76,0,1.39-.59,1.39-1.38s-.62-1.38-1.39-1.38-1.39.6-1.39,1.38.62,1.38,1.39,1.38Z"></path><path class="cls-24" d="M765.12,792.88c0-1.33.3-2.84,1.72-2.84s1.75,1.39,1.75,2.85-.4,2.84-1.72,2.84c-1.44,0-1.75-1.51-1.75-2.85ZM766.88,795.27c.88,0,1.23-1,1.23-2.36s-.36-2.41-1.26-2.41c-.96,0-1.23,1.1-1.23,2.39s.28,2.37,1.26,2.37Z"></path><path class="cls-24" d="M772.54,791.72c0-.73-.43-1.2-1.19-1.2-.83,0-1.26.58-1.27,1.45l-.47-.03c0-1.07.62-1.88,1.76-1.88.99,0,1.64.65,1.64,1.65,0,1.49-1.5,2.65-2.81,3.53h3.04v.45h-3.64v-.44c1.02-.82,2.94-2.02,2.94-3.53Z"></path></g><g><path class="cls-24" d="M758.88,801.32c0-.73-.43-1.2-1.19-1.2-.83,0-1.26.58-1.27,1.45l-.47-.03c0-1.07.62-1.88,1.76-1.88.99,0,1.64.65,1.64,1.65,0,1.49-1.5,2.65-2.81,3.53h3.04v.45h-3.64v-.44c1.02-.82,2.94-2.02,2.94-3.53Z"></path><path class="cls-24" d="M760.56,802.48c0-1.33.3-2.84,1.72-2.84s1.75,1.39,1.75,2.85-.4,2.84-1.72,2.84c-1.44,0-1.75-1.51-1.75-2.85ZM762.32,804.87c.88,0,1.23-1,1.23-2.36s-.36-2.41-1.26-2.41c-.96,0-1.23,1.1-1.23,2.39s.28,2.37,1.26,2.37Z"></path><path class="cls-24" d="M765.12,802.48c0-1.33.3-2.84,1.72-2.84s1.75,1.39,1.75,2.85-.4,2.84-1.72,2.84c-1.44,0-1.75-1.51-1.75-2.85ZM766.88,804.87c.88,0,1.23-1,1.23-2.36s-.36-2.41-1.26-2.41c-.96,0-1.23,1.1-1.23,2.39s.28,2.37,1.26,2.37Z"></path><path class="cls-24" d="M772.54,801.32c0-.73-.43-1.2-1.19-1.2-.83,0-1.26.58-1.27,1.45l-.47-.03c0-1.07.62-1.88,1.76-1.88.99,0,1.64.65,1.64,1.65,0,1.49-1.5,2.65-2.81,3.53h3.04v.45h-3.64v-.44c1.02-.82,2.94-2.02,2.94-3.53Z"></path></g><polyline class="cls-1" points="57.14 95.35 76.48 95.35 89.6 82.49"></polyline><path class="cls-23" d="M92.48,79.67l-2.61,5.45s-.28-2.62-2.89-2.95l5.5-2.5Z"></path><polyline class="cls-1" points="113.26 711.99 127.61 711.99 135.63 681.45"></polyline><path class="cls-23" d="M136.66,677.54l-3.44,4.96s2.41-1.06,3.99,1.05l-.55-6.01Z"></path><polyline class="cls-1" points="748.51 793.12 734.16 793.12 726.14 762.57"></polyline><path class="cls-23" d="M725.11,758.67l3.44,4.96s-2.41-1.06-3.99,1.05l.56-6.01Z"></path><polyline class="cls-1" points="57.14 85.67 77.48 85.67 88.43 76.19"></polyline><path class="cls-23" d="M91.48,73.54l-2.94,5.27s-.12-2.63-2.7-3.12l5.64-2.15Z"></path><polyline class="cls-1" points="114.26 721.67 130.61 721.67 140.69 681.98"></polyline><path class="cls-23" d="M141.68,678.07l-3.4,4.99s2.4-1.08,4,1.02l-.6-6.01Z"></path><polyline class="cls-1" points="747.51 802.79 731.16 802.79 721.08 763.11"></polyline><path class="cls-23" d="M720.09,759.19l3.4,4.99s-2.4-1.08-4,1.02l.6-6.01Z"></path><g><path class="cls-20" d="M654.31,804.09h-4.16v3.42h-1.29v-8.01h5.72v1.22h-4.42v2.14h4.16v1.22Z"></path><path class="cls-20" d="M662.04,807.51h-5.73v-8.01h1.29v6.79h4.43v1.22Z"></path><path class="cls-20" d="M670.97,803.5c0,2.39-1.73,4.15-4.19,4.15s-4.19-1.76-4.19-4.15,1.73-4.15,4.19-4.15,4.19,1.76,4.19,4.15ZM663.93,803.5c0,1.73,1.2,2.91,2.84,2.91s2.84-1.18,2.84-2.91-1.2-2.91-2.84-2.91-2.84,1.18-2.84,2.91Z"></path><path class="cls-20" d="M680.66,803.5c0,2.39-1.73,4.15-4.19,4.15s-4.19-1.76-4.19-4.15,1.73-4.15,4.19-4.15,4.19,1.76,4.19,4.15ZM673.62,803.5c0,1.73,1.2,2.91,2.84,2.91s2.84-1.18,2.84-2.91-1.2-2.91-2.84-2.91-2.84,1.18-2.84,2.91Z"></path><path class="cls-20" d="M685.69,799.5c1.84,0,2.84.82,2.84,2.32,0,1.36-1.04,2.27-2.67,2.32l2.64,3.37h-1.6l-2.55-3.37h-.65v3.37h-1.29v-8.01h3.3ZM683.68,800.71v2.25h1.97c1.04,0,1.53-.38,1.53-1.15s-.52-1.1-1.53-1.1h-1.97Z"></path><path class="cls-20" d="M695.87,807.51h-1.24v-6.33l-2.04.88v-1.29l3.28-1.38v8.14Z"></path><path class="cls-20" d="M700.74,804.6c-.16.05-.35.08-.62.08-1.46,0-2.69-1.14-2.69-2.66s1.24-2.66,2.91-2.66,2.91,1.14,2.91,2.66c0,.7-.25,1.32-.72,2.02l-2.31,3.47h-1.52l2.04-2.91ZM701.96,802.02c0-.9-.7-1.51-1.63-1.51s-1.62.62-1.62,1.51.7,1.51,1.62,1.51,1.63-.62,1.63-1.51Z"></path><path class="cls-20" d="M707.62,805h-3.32v-1.09h3.32v1.09Z"></path><path class="cls-20" d="M708.44,800.7c.38-.52,1.11-1.34,2.56-1.34,1.66,0,2.66,1.07,2.66,2.58,0,1.01-.57,1.71-1.06,2.24l-2.01,2.15h3.29v1.18h-5.13v-.97l2.9-3.08c.45-.48.72-.96.72-1.53,0-.8-.53-1.38-1.39-1.38-.81,0-1.24.41-1.64.89l-.89-.73Z"></path><path class="cls-20" d="M721.81,803.5c0,2.59-1.52,4.14-3.38,4.14s-3.38-1.56-3.38-4.14,1.51-4.14,3.38-4.14,3.38,1.55,3.38,4.14ZM716.35,803.5c0,1.93.93,2.95,2.08,2.95s2.08-1.02,2.08-2.95-.93-2.95-2.08-2.95-2.08,1.02-2.08,2.95Z"></path></g></g></g></svg> 