<?xml version="1.0" encoding="UTF-8"?> <svg xmlns="http://www.w3.org/2000/svg" id="Layer_2" data-name="Layer 2" viewBox="0 0 665.33 561.59"><defs><style> .cls-1 { stroke: #afa49f; } .cls-1, .cls-2, .cls-3, .cls-4, .cls-5, .cls-6, .cls-7, .cls-8, .cls-9, .cls-10, .cls-11, .cls-12 { fill: none; } .cls-1, .cls-2, .cls-3, .cls-5, .cls-7, .cls-10, .cls-11 { stroke-width: .25px; } .cls-1, .cls-9, .cls-10 { stroke-miterlimit: 10; } .cls-2 { stroke-dasharray: 1.54 1.54; } .cls-2, .cls-3, .cls-4, .cls-5, .cls-6, .cls-7, .cls-8, .cls-11, .cls-12 { stroke-linecap: round; stroke-linejoin: round; } .cls-2, .cls-3, .cls-5, .cls-7 { stroke: #75655e; } .cls-13 { fill: #3a2a22; } .cls-3 { stroke-dasharray: 6.14 5.11; } .cls-4, .cls-8 { stroke: #55453d; stroke-width: .15px; } .cls-5 { stroke-dasharray: 5.87 4.89; } .cls-14 { fill: #fff; } .cls-6 { stroke-width: .5px; } .cls-6, .cls-9, .cls-11, .cls-12 { stroke: #3a2a22; } .cls-15 { fill: #bc8ebc; } .cls-8 { stroke-dasharray: 1 1; } .cls-9 { stroke-width: .75px; } .cls-10 { stroke: #bc8ebc; } .cls-16 { fill: #afa49f; } .cls-12 { stroke-width: .35px; } .cls-17 { fill: #75655e; } </style></defs><g id="Layer_1-2" data-name="Layer 1"><g><polygon class="cls-14" points="184.36 20.38 201.34 20.38 201.34 16.96 306.82 16.96 306.82 46.99 467.09 46.99 467.09 16.96 664.96 16.96 664.96 118.92 621.07 118.92 621.07 224.86 654.52 224.86 654.52 430.28 658.38 430.28 658.38 490.9 620.49 494.32 582.52 497.46 544.54 500.32 506.56 502.73 468.59 504.85 430.52 506.61 392.45 507.99 354.38 509.1 316.4 509.75 278.34 510.12 240.27 510.12 202.11 509.75 171.52 509.29 140.94 508.55 141.26 500.57 124.72 500.14 86.01 498.75 51.96 497.21 51.96 491.48 51.96 396.56 43.16 396.56 43.16 217.14 .38 217.14 .38 20.38 138.07 20.38 184.36 20.38"></polygon><line class="cls-4" x1="139.3" y1="500.53" x2="139.28" y2="501.03"></line><line class="cls-8" x1="139.24" y1="502.02" x2="139.02" y2="507.5"></line><polyline class="cls-4" points="139 508 138.98 508.5 139.48 508.51"></polyline><line class="cls-4" x1="140.44" y1="508.54" x2="140.94" y2="508.55"></line><polyline class="cls-12" points="58.88 491.79 86.01 493.02 124.72 494.41 163.44 495.33 202.15 495.98"></polyline><polyline class="cls-12" points="58.88 489.79 86.01 491.02 124.72 492.41 163.44 493.33 202.15 493.98"></polyline><g><path class="cls-4" d="M140.88,76.67c25.57,0,43.48-20.73,43.48-46.29"></path><path class="cls-4" d="M160.57,409.14c0,23.13,18.61,39.35,41.58,39.35"></path></g><line class="cls-4" x1="184.36" y1="20.38" x2="138.07" y2="20.38"></line><line class="cls-4" x1="140.88" y1="30.38" x2="184.36" y2="30.38"></line><g><path class="cls-4" d="M128.27,156.32c-23.13,0-39.35-18.61-39.35-41.58"></path><path class="cls-4" d="M170.97,240.51c0,23.13,18.61,39.35,41.58,39.35"></path><path class="cls-4" d="M533.64,241.71c0,23.13-18.61,39.35-41.58,39.35"></path><path class="cls-4" d="M603.57,101.99c-23.13,0-39.35,18.62-39.35,41.58"></path></g><rect class="cls-12" x="138.07" y="30.38" width="2.81" height="46.29"></rect><rect class="cls-12" x="160.57" y="406.91" width="41.58" height="2.23"></rect><rect class="cls-12" x="128.26" y="114.74" width="2.23" height="41.58"></rect><rect class="cls-12" x="170.97" y="238.28" width="41.58" height="2.23"></rect><rect class="cls-12" x="76.26" y="245.67" width="27.72" height="2.23"></rect><rect class="cls-12" x="103.98" y="243.44" width="27.72" height="2.23"></rect><rect class="cls-12" x="492.06" y="239.48" width="41.58" height="2.23"></rect><rect class="cls-12" x="603.57" y="101.99" width="2.23" height="41.58"></rect><rect class="cls-12" x="553.36" y="155.12" width="2.23" height="41.58"></rect><rect class="cls-12" x="72.82" y="35" width="2.23" height="69.3"></rect><line class="cls-12" x1="72.82" y1="69.65" x2="75.06" y2="69.65"></line><rect class="cls-12" x="214.86" y="58.18" width="55.44" height="2.23"></rect><line class="cls-12" x1="242.58" y1="58.18" x2="242.58" y2="60.41"></line><rect class="cls-12" x="213.18" y="138.95" width="2.23" height="41.58"></rect><rect class="cls-12" x="215.41" y="159.74" width="2.23" height="41.58"></rect><polyline class="cls-7" points="341.05 163.14 340.3 163.14 340.3 162.39"></polyline><line class="cls-2" x1="340.3" y1="160.85" x2="340.3" y2="137.04"></line><polyline class="cls-7" points="340.3 136.28 340.3 135.53 341.05 135.53"></polyline><line class="cls-2" x1="342.59" y1="135.53" x2="366.4" y2="135.53"></line><polyline class="cls-7" points="367.17 135.53 367.92 135.53 367.92 136.28"></polyline><line class="cls-2" x1="367.92" y1="137.81" x2="367.91" y2="161.62"></line><polyline class="cls-7" points="367.91 162.39 367.91 163.14 367.16 163.14"></polyline><line class="cls-2" x1="365.63" y1="163.14" x2="341.82" y2="163.14"></line><line class="cls-7" x1="453.15" y1="140.15" x2="453.15" y2="137.15"></line><line class="cls-3" x1="453.15" y1="132.04" x2="453.15" y2="78.36"></line><polyline class="cls-7" points="453.15 75.8 453.15 72.8 453.15 72.8 450.15 72.8"></polyline><line class="cls-5" x1="445.26" y1="72.8" x2="350.86" y2="72.8"></line><line class="cls-7" x1="348.42" y1="72.8" x2="345.42" y2="72.8"></line><line class="cls-12" x1="309.57" y1="84.71" x2="309.57" y2="57"></line><line class="cls-12" x1="345.42" y1="84.71" x2="345.42" y2="57"></line><line class="cls-12" x1="345.42" y1="82.21" x2="279.54" y2="82.21"></line><polyline class="cls-12" points="441.24 181.73 441.25 84.72 279.54 84.71"></polyline><line class="cls-12" x1="441.24" y1="140.15" x2="468.96" y2="140.15"></line><line class="cls-12" x1="443.74" y1="181.73" x2="443.74" y2="140.15"></line><rect class="cls-12" x="279.53" y="135.53" width="110.88" height="49.62"></rect><g><rect class="cls-12" x="320.19" y="155.69" width="1.74" height="9.78" rx=".59" ry=".59"></rect><path class="cls-12" d="M321.06,149.79c.49,0,.9-.4.9-.9s-.4-.9-.9-.9-.9.4-.9.9.4.9.9.9Z"></path></g><polyline class="cls-12" points="321.93 164.15 324.35 164.15 324.35 162.6 321.93 162.6"></polyline><line class="cls-12" x1="323.49" y1="162.6" x2="323.49" y2="164.15"></line><polyline class="cls-12" points="321.93 160.29 333.98 160.29 333.98 138.53 308.14 138.53 308.14 160.29 320.19 160.29"></polyline><polyline class="cls-12" points="320.19 159.21 309.22 159.21 309.22 139.61 332.9 139.61 332.9 159.21 321.93 159.21"></polyline><line class="cls-12" x1="33.78" y1="122.04" x2="30.58" y2="122.04"></line><g><path class="cls-12" d="M29.71,122.04h-11.6c-1.38,0-2.5,1.12-2.5,2.5v61.83c0,1.38,1.12,2.5,2.5,2.5h24.04c1.38,0,2.5-1.12,2.5-2.5v-61.83c0-1.38-1.12-2.5-2.5-2.5h-8.37"></path><path class="cls-12" d="M30.57,118.02v10.86c0,.24-.19.43-.43.43s-.43-.19-.43-.43v-10.81"></path><path class="cls-12" d="M29.71,127.8c-.46.17-.79.61-.79,1.14,0,.67.54,1.21,1.21,1.21s1.21-.54,1.21-1.21c0-.51-.32-.95-.77-1.13"></path><path class="cls-12" d="M29.71,123.76c-2.66.22-4.76,2.45-4.76,5.17,0,2.86,2.32,5.18,5.18,5.18,2.86,0,5.18-2.32,5.18-5.18,0-2.71-2.09-4.94-4.74-5.16"></path></g><rect class="cls-12" x="27.59" y="117.05" width="5.08" height=".97"></rect><line class="cls-12" x1="48.36" y1="117.05" x2="48.36" y2="193.28"></line><line class="cls-12" x1="49.64" y1="117.05" x2="49.64" y2="193.23"></line><line class="cls-12" x1="49.65" y1="121.73" x2="48.36" y2="121.73"></line><line class="cls-12" x1="49.65" y1="159.73" x2="48.37" y2="159.73"></line><g><rect class="cls-12" x="61.22" y="199.68" width="17.6" height="7.45" rx="1.08" ry="1.08"></rect><path class="cls-12" d="M65.56,195.54c-.28,0-.54-.11-.73-.32-1.88-2.09-3.09-5.3-3.09-8.9,0-6.31,3.71-11.42,8.28-11.42s8.28,5.11,8.28,11.42c0,3.6-1.2,6.8-3.08,8.9-.19.21-.46.32-.73.32h-8.92Z"></path></g><line class="cls-12" x1="61.74" y1="186.32" x2="61.74" y2="199.84"></line><line class="cls-12" x1="78.3" y1="186.32" x2="78.3" y2="199.84"></line><polyline class="cls-12" points="90.7 207.14 90.7 182.12 135.12 182.12"></polyline><path class="cls-12" d="M108.7,199.07h9.87c.4,0,.72-.32.72-.72v-10.9c0-.4-.32-.72-.72-.72h-20.82c-.4,0-.72.32-.72.72v10.9c0,.4.32.72.72.72h9.48"></path><rect class="cls-12" x="107.23" y="196.64" width="1.47" height="5.89"></rect><circle class="cls-12" cx="107.97" cy="192.9" r=".84"></circle><rect class="cls-12" x="27.76" y="38.04" width="38.03" height="30.61"></rect><rect class="cls-12" x="27.76" y="70.65" width="38.03" height="30.61"></rect><polyline class="cls-12" points="612.87 26.88 612.88 52.02 530.22 52.03 530.22 27"></polyline><path class="cls-12" d="M589.54,34.96h9.87c.4,0,.72.32.72.72v10.9c0,.4-.32.72-.72.72h-20.82c-.4,0-.72-.32-.72-.72v-10.9c0-.4.32-.72.72-.72h9.48"></path><rect class="cls-12" x="588.07" y="31.51" width="1.47" height="5.89"></rect><g><circle class="cls-12" cx="588.81" cy="41.14" r=".84"></circle><path class="cls-12" d="M554.79,34.96h9.87c.4,0,.72.32.72.72v10.9c0,.4-.32.72-.72.72h-20.82c-.4,0-.72-.32-.72-.72v-10.9c0-.4.32-.72.72-.72h9.48"></path></g><rect class="cls-12" x="553.32" y="31.51" width="1.47" height="5.89"></rect><circle class="cls-12" cx="554.05" cy="41.14" r=".84"></circle><line class="cls-12" x1="518.67" y1="103.19" x2="518.67" y2="26.96"></line><line class="cls-12" x1="517.39" y1="103.19" x2="517.39" y2="27"></line><line class="cls-12" x1="517.39" y1="98.51" x2="518.67" y2="98.51"></line><line class="cls-12" x1="517.39" y1="60.5" x2="518.67" y2="60.5"></line><line class="cls-12" x1="477.09" y1="40.39" x2="517.39" y2="40.39"></line><g><path class="cls-12" d="M498.44,91.3c0,.67-.54,1.21-1.21,1.21s-1.21-.54-1.21-1.21.54-1.21,1.21-1.21,1.21.54,1.21,1.21Z"></path><path class="cls-12" d="M502.41,91.3c0,2.86-2.32,5.18-5.18,5.18s-5.18-2.32-5.18-5.18,2.32-5.18,5.18-5.18,5.18,2.32,5.18,5.18Z"></path><path class="cls-12" d="M626.65,27h15.44c.6,0,1.08.48,1.08,1.08v5.29c0,.6-.48,1.08-1.08,1.08h-15.44c-.6,0-1.08-.48-1.08-1.08v-5.29c0-.6.48-1.08,1.08-1.08Z"></path><path class="cls-12" d="M629.92,38.6c-.28,0-.54.11-.73.32-1.88,2.09-3.08,5.3-3.08,8.9,0,6.31,3.7,11.42,8.28,11.42s8.28-5.11,8.28-11.42c0-3.6-1.2-6.8-3.08-8.9-.19-.21-.46-.32-.73-.32h-8.92Z"></path></g><line class="cls-12" x1="626.1" y1="47.82" x2="626.1" y2="34.3"></line><line class="cls-12" x1="642.65" y1="47.82" x2="642.65" y2="34.3"></line><rect class="cls-12" x="370.97" y="59.27" width="42.4" height="24.28"></rect><rect class="cls-12" x="372.05" y="60.34" width="40.24" height="22.12"></rect><path class="cls-12" d="M392.21,81.71c-.71,0-1.28-.57-1.28-1.28s.57-1.28,1.28-1.28,1.28.57,1.28,1.28c0,.71-.57,1.28-1.28,1.28Z"></path><line class="cls-12" x1="372.05" y1="82.46" x2="370.97" y2="83.55"></line><line class="cls-12" x1="412.3" y1="82.46" x2="413.38" y2="83.54"></line><line class="cls-12" x1="412.29" y1="60.34" x2="413.37" y2="59.26"></line><line class="cls-12" x1="372.05" y1="60.35" x2="370.97" y2="59.27"></line><polygon class="cls-12" points="393.27 80.43 392.21 79.37 391.16 80.43 392.21 81.48 393.27 80.43"></polygon><line class="cls-12" x1="392.21" y1="79.37" x2="392.21" y2="81.48"></line><g><path class="cls-11" d="M237.54,41.4c-.03-1.51-.06-3.03-.13-4.57-.04-.8-.09-1.6-.13-2.35-.03-.57-.07-1.11-.16-1.78-.09-.65-.25-1.42.23-1.73.11-.07.25-.12.38-.13.77-.06.9,1.18.97,2.24.15,2.35-.04,3.74-.16,5.44-.06.9-.1,1.9-.14,2.89.04.99.08,1.98.14,2.89.12,1.7.3,3.09.16,5.44-.07,1.05-.2,2.3-.97,2.24-.13-.01-.27-.06-.38-.13-.48-.3-.33-1.08-.23-1.73.1-.67.13-1.21.16-1.78.04-.75.09-1.56.13-2.36.07-1.54.1-3.06.13-4.57Z"></path><path class="cls-11" d="M242.23,41.4c-.03-1.51-.06-3.03-.13-4.57-.04-.8-.09-1.6-.13-2.35-.03-.57-.07-1.11-.16-1.78-.09-.65-.25-1.42.23-1.73.11-.07.25-.12.38-.13.77-.06.9,1.18.97,2.24.15,2.35-.04,3.74-.16,5.44-.06.9-.1,1.9-.14,2.89.04.99.08,1.98.14,2.89.12,1.7.3,3.09.16,5.44-.07,1.05-.2,2.3-.97,2.24-.13-.01-.27-.06-.38-.13-.48-.3-.32-1.08-.23-1.73.1-.67.13-1.21.16-1.78.04-.75.09-1.56.13-2.36.07-1.54.1-3.06.13-4.57Z"></path><path class="cls-11" d="M246.93,41.4c-.03-1.51-.06-3.03-.13-4.57-.04-.8-.09-1.6-.13-2.35-.03-.57-.07-1.11-.16-1.78-.09-.65-.25-1.42.23-1.73.11-.07.25-.12.38-.13.77-.06.9,1.18.97,2.24.15,2.35-.04,3.74-.16,5.44-.06.9-.1,1.9-.14,2.89.04.99.08,1.98.14,2.89.12,1.7.3,3.09.16,5.44-.07,1.05-.2,2.3-.97,2.24-.13-.01-.27-.06-.38-.13-.48-.3-.32-1.08-.23-1.73.1-.67.13-1.21.16-1.78.04-.75.09-1.56.13-2.36.07-1.54.1-3.06.13-4.57Z"></path></g><line class="cls-11" x1="296.81" y1="41.4" x2="211.34" y2="41.4"></line><g><path class="cls-11" d="M89.12,229.75c-.03-1.51-.06-3.03-.13-4.57-.04-.8-.09-1.6-.13-2.35-.03-.57-.07-1.11-.16-1.78-.09-.65-.25-1.42.23-1.73.11-.07.25-.12.38-.13.77-.06.9,1.18.97,2.24.15,2.35-.04,3.74-.16,5.44-.06.9-.1,1.9-.14,2.89.04.99.08,1.98.14,2.89.12,1.7.3,3.09.16,5.44-.07,1.05-.2,2.3-.97,2.24-.13-.01-.27-.06-.38-.13-.48-.3-.33-1.08-.23-1.73.1-.67.13-1.21.16-1.78.04-.75.09-1.56.13-2.36.07-1.54.1-3.06.13-4.57Z"></path><path class="cls-11" d="M93.82,229.75c-.03-1.51-.06-3.03-.13-4.57-.04-.8-.09-1.6-.13-2.35-.03-.57-.07-1.11-.16-1.78-.09-.65-.25-1.42.23-1.73.11-.07.25-.12.38-.13.77-.06.9,1.18.97,2.24.15,2.35-.04,3.74-.16,5.44-.06.9-.1,1.9-.14,2.89.04.99.08,1.98.14,2.89.12,1.7.3,3.09.16,5.44-.07,1.05-.2,2.3-.97,2.24-.13-.01-.27-.06-.38-.13-.48-.3-.33-1.08-.23-1.73.1-.67.13-1.21.16-1.78.04-.75.09-1.56.13-2.36.07-1.54.1-3.06.13-4.57Z"></path><path class="cls-11" d="M98.51,229.75c-.03-1.51-.06-3.03-.13-4.57-.04-.8-.09-1.6-.13-2.35-.03-.57-.07-1.11-.16-1.78-.09-.65-.25-1.42.23-1.73.11-.07.25-.12.38-.13.77-.06.9,1.18.97,2.24.15,2.35-.04,3.74-.16,5.44-.06.9-.1,1.9-.14,2.89.04.99.08,1.98.14,2.89.12,1.7.3,3.09.16,5.44-.07,1.05-.2,2.3-.97,2.24-.13-.01-.27-.06-.38-.13-.48-.3-.33-1.08-.23-1.73.1-.67.13-1.21.16-1.78.04-.75.09-1.56.13-2.36.07-1.54.1-3.06.13-4.57Z"></path></g><line class="cls-11" x1="135.11" y1="229.74" x2="53.2" y2="229.74"></line><line class="cls-11" x1="58.88" y1="396.56" x2="210.28" y2="396.56"></line><polyline class="cls-11" points="51.95 491.48 51.95 497.21 86.01 498.75 124.72 500.14 163.44 501.16 202.15 501.8"></polyline><polyline class="cls-11" points="210.24 501.8 250.34 502.08 290.35 501.99 330.45 501.43 370.46 500.6 410.47 499.31 450.48 497.64 490.49 495.61 530.49 493.12 570.5 490.34 610.42 487.11 650.34 483.51"></polyline><line class="cls-11" x1="210.24" y1="501.8" x2="210.24" y2="450.8"></line><rect class="cls-6" x="58.88" y="402.29" width="143.32" height="2.31"></rect><polygon class="cls-6" points="202.1 450.8 202.1 509.75 240.27 510.12 278.33 510.12 316.4 509.75 354.38 509.1 392.45 507.99 430.52 506.61 468.59 504.85 506.56 502.73 544.54 500.32 582.52 497.46 620.49 494.32 658.38 490.9 658.38 430.28 656.07 430.28 656.07 488.77 618.55 492.19 580.94 495.33 543.43 498.11 505.82 500.51 468.12 502.54 430.52 504.3 392.82 505.68 355.21 506.7 317.51 507.44 279.81 507.81 242.11 507.81 204.41 507.53 204.41 450.8 202.1 450.8"></polygon><polygon class="cls-6" points="141.03 506.24 171.61 506.98 202.1 507.44 202.1 509.75 171.52 509.29 140.94 508.55 141.03 506.24"></polygon><line class="cls-6" x1="656.07" y1="430.29" x2="654.52" y2="430.29"></line><rect class="cls-6" x="202.15" y="402.29" width="8.13" height="4.62"></rect><rect class="cls-6" x="202.15" y="448.49" width="8.13" height="2.31"></rect><rect class="cls-6" x="88.91" y="396.56" width="2.31" height="5.73"></rect><rect class="cls-6" x="158.21" y="396.56" width="2.31" height="5.73"></rect><rect class="cls-6" x="201.04" y="396.56" width="2.31" height="5.73"></rect><rect class="cls-6" x="58.88" y="396.56" width="2.31" height="5.73"></rect><polygon class="cls-6" points="143.57 500.63 143.34 506.29 141.03 506.24 141.26 500.57 143.57 500.63"></polygon><polyline class="cls-6" points="249.32 502.08 249.32 507.9 247.01 507.81 247.01 502.08 249.32 502.08"></polyline><polyline class="cls-6" points="318.53 501.62 318.62 507.44 316.31 507.44 316.22 501.71 318.53 501.62"></polyline><polyline class="cls-6" points="387.74 500.05 387.92 505.87 385.61 505.96 385.43 500.14 387.74 500.05"></polyline><polyline class="cls-6" points="456.85 497.37 457.13 503.1 454.82 503.19 454.54 497.46 456.85 497.37"></polyline><polyline class="cls-6" points="525.87 493.49 526.24 499.22 523.93 499.4 523.56 493.58 525.87 493.49"></polyline><polyline class="cls-6" points="594.9 488.4 595.36 494.13 593.05 494.32 592.59 488.59 594.9 488.4"></polyline><polyline class="cls-6" points="491.41 495.52 491.69 501.34 489.38 501.43 489.1 495.7 491.41 495.52"></polyline><polyline class="cls-6" points="650.34 481.94 650.34 483.51 648.67 483.69 653.39 487.85 654.5 488.87 656.07 488.77 656.07 487.2 650.34 481.94"></polyline><polyline class="cls-6" points="211.81 501.8 210.24 501.8 210.24 500.14 204.51 505.87 204.41 507.53 204.51 507.53 206.08 507.53 211.81 501.8"></polyline><polygon class="cls-13" points="43.16 396.56 43.16 217.14 .38 217.14 .38 20.38 138.07 20.38 138.07 30.38 75.05 30.38 75.05 35 69.33 35 69.33 30.38 24.23 30.38 24.23 108.92 69.33 108.92 69.33 104.3 75.05 104.3 75.05 108.92 88.91 108.92 88.91 114.74 49.65 114.74 49.65 117.05 10.38 117.05 10.38 193.28 49.65 193.28 49.65 207.14 135.11 207.14 135.11 114.74 130.49 114.74 130.49 108.92 140.94 108.92 140.94 127.4 218.28 127.4 218.28 138.95 212.55 138.95 212.55 133.22 140.94 133.22 140.94 227.93 212.55 227.93 212.55 222.11 218.28 222.11 218.28 238.28 212.55 238.28 212.55 233.66 140.94 233.66 140.94 248.44 131.7 248.44 131.7 242.9 135.11 242.9 135.11 215.18 53.21 215.18 53.21 242.9 76.26 242.9 76.26 248.44 69.88 248.44 69.88 390.74 90.12 390.74 90.12 396.56 58.89 396.56 58.89 491.79 51.96 491.48 51.96 396.56 43.16 396.56"></polygon><polygon class="cls-9" points="43.16 396.56 43.16 217.14 .38 217.14 .38 20.38 138.07 20.38 138.07 30.38 75.05 30.38 75.05 35 69.33 35 69.33 30.38 24.23 30.38 24.23 108.92 69.33 108.92 69.33 104.3 75.05 104.3 75.05 108.92 88.91 108.92 88.91 114.74 49.65 114.74 49.65 117.05 10.38 117.05 10.38 193.28 49.65 193.28 49.65 207.14 135.11 207.14 135.11 114.74 130.49 114.74 130.49 108.92 140.94 108.92 140.94 127.4 218.28 127.4 218.28 138.95 212.55 138.95 212.55 133.22 140.94 133.22 140.94 227.93 212.55 227.93 212.55 222.11 218.28 222.11 218.28 238.28 212.55 238.28 212.55 233.66 140.94 233.66 140.94 248.44 131.7 248.44 131.7 242.9 135.11 242.9 135.11 215.18 53.21 215.18 53.21 242.9 76.26 242.9 76.26 248.44 69.88 248.44 69.88 390.74 90.12 390.74 90.12 396.56 58.89 396.56 58.89 491.79 51.96 491.48 51.96 396.56 43.16 396.56"></polygon><polygon class="cls-13" points="218.27 279.86 212.55 279.86 212.55 390.74 202.15 390.74 202.15 396.56 210.28 396.56 210.28 404.6 218.27 404.6 218.27 279.86"></polygon><polygon class="cls-9" points="218.27 279.86 212.55 279.86 212.55 390.74 202.15 390.74 202.15 396.56 210.28 396.56 210.28 404.6 218.27 404.6 218.27 279.86"></polygon><polygon class="cls-13" points="184.36 30.38 184.36 20.38 201.34 20.38 201.34 16.96 306.82 16.96 306.82 46.99 467.09 46.99 467.09 16.96 664.96 16.96 664.96 118.92 621.07 118.92 621.07 224.86 654.52 224.86 654.52 430.28 650.34 430.28 650.34 483.51 644.52 484.06 644.52 234.86 611.07 234.86 611.07 149.39 605.8 149.39 605.8 143.57 611.07 143.57 611.07 108.92 654.96 108.92 654.96 26.96 477.09 26.96 477.09 103.19 518.67 103.19 518.67 105.5 559.05 105.5 559.05 143.52 564.22 143.52 564.22 149.39 559.05 149.39 559.05 155.12 553.36 155.12 553.36 111.23 474.78 111.23 474.78 229.04 553.32 229.04 553.32 196.7 559.05 196.7 559.05 234.86 492.06 234.86 492.06 239.48 486.33 239.48 486.33 234.86 468.96 234.86 468.96 190.97 441.24 190.97 441.24 181.73 468.96 181.73 468.96 56.99 279.54 56.99 279.54 84.71 273.72 84.71 273.72 60.41 270.3 60.41 270.3 54.68 273.72 54.68 273.72 51.17 296.82 51.17 296.82 26.96 211.35 26.96 211.35 54.68 214.86 54.68 214.86 60.41 205.62 60.41 205.62 30.38 184.36 30.38"></polygon><polygon class="cls-9" points="184.36 30.38 184.36 20.38 201.34 20.38 201.34 16.96 306.82 16.96 306.82 46.99 467.09 46.99 467.09 16.96 664.96 16.96 664.96 118.92 621.07 118.92 621.07 224.86 654.52 224.86 654.52 430.28 650.34 430.28 650.34 483.51 644.52 484.06 644.52 234.86 611.07 234.86 611.07 149.39 605.8 149.39 605.8 143.57 611.07 143.57 611.07 108.92 654.96 108.92 654.96 26.96 477.09 26.96 477.09 103.19 518.67 103.19 518.67 105.5 559.05 105.5 559.05 143.52 564.22 143.52 564.22 149.39 559.05 149.39 559.05 155.12 553.36 155.12 553.36 111.23 474.78 111.23 474.78 229.04 553.32 229.04 553.32 196.7 559.05 196.7 559.05 234.86 492.06 234.86 492.06 239.48 486.33 239.48 486.33 234.86 468.96 234.86 468.96 190.97 441.24 190.97 441.24 181.73 468.96 181.73 468.96 56.99 279.54 56.99 279.54 84.71 273.72 84.71 273.72 60.41 270.3 60.41 270.3 54.68 273.72 54.68 273.72 51.17 296.82 51.17 296.82 26.96 211.35 26.96 211.35 54.68 214.86 54.68 214.86 60.41 205.62 60.41 205.62 30.38 184.36 30.38"></polygon><polygon class="cls-13" points="492.06 495.52 455.65 497.37 455.37 491.64 486.33 490.07 486.33 415.59 472.47 415.59 472.47 312.84 486.33 312.84 486.33 281.06 492.06 281.06 492.06 495.52"></polygon><polygon class="cls-9" points="492.06 495.52 455.65 497.37 455.37 491.64 486.33 490.07 486.33 415.59 472.47 415.59 472.47 312.84 486.33 312.84 486.33 281.06 492.06 281.06 492.06 495.52"></polygon><g><path class="cls-15" d="M161.03,8.22c.02.08.07.14.14.14s.13-.06.14-.14c.56-3.3,2.74-4.94,6.02-4.94h3.84c1.16,0,1.98-1.01,2.2-2.66.05-.33-.23-.61-.47-.45-.46.31-1.06.47-1.78.47h-3.48c-2.95,0-5.22,1.67-6.17,4.98-.11.37-.5.37-.61,0-.96-3.31-3.22-4.98-6.18-4.98h-3.48c-.72,0-1.32-.16-1.78-.47-.23-.16-.51.12-.47.45.22,1.64,1.05,2.66,2.21,2.66h3.84c3.29,0,5.47,1.64,6.02,4.95h0Z"></path><path class="cls-10" d="M161.03,8.22c.02.08.07.14.14.14s.13-.06.14-.14c.56-3.3,2.74-4.94,6.02-4.94h3.84c1.16,0,1.98-1.01,2.2-2.66.05-.33-.23-.61-.47-.45-.46.31-1.06.47-1.78.47h-3.48c-2.95,0-5.22,1.67-6.17,4.98-.11.37-.5.37-.61,0-.96-3.31-3.22-4.98-6.18-4.98h-3.48c-.72,0-1.32-.16-1.78-.47-.23-.16-.51.12-.47.45.22,1.64,1.05,2.66,2.21,2.66h3.84c3.29,0,5.47,1.64,6.02,4.95h0Z"></path></g><g><path class="cls-13" d="M518.74,360.88h2.52c1.9,0,2.97.89,2.97,2.53s-1.07,2.54-2.97,2.54h-1.72v3.99h-.8v-9.06ZM521.18,365.23c1.41,0,2.24-.61,2.24-1.81s-.81-1.81-2.24-1.81h-1.64v3.62h1.64Z"></path><path class="cls-13" d="M525.73,363.54h.78v1.09c.43-.78,1.31-1.18,2.02-1.18.33,0,.66.07.99.24l-.39.7c-.21-.1-.51-.17-.77-.17-.68,0-1.46.36-1.74,1.3-.08.27-.12.57-.12,1.27v3.15h-.78v-6.41Z"></path><path class="cls-13" d="M530.79,360.88h.94v1.39h-.94v-1.39ZM530.87,363.54h.77v6.41h-.77v-6.41Z"></path><path class="cls-13" d="M533.68,363.54h.78v1.1c.38-.84,1.11-1.19,1.88-1.19.91,0,1.57.4,1.89,1.25.4-.83,1.09-1.25,2-1.25,1.55,0,2.13,1.16,2.13,2.68v3.82h-.78v-3.64c0-1.33-.39-2.18-1.52-2.18-1.02,0-1.65.77-1.65,2.26v3.57h-.78v-3.76c0-1.4-.52-2.07-1.5-2.07-1.03,0-1.67.79-1.67,2.26v3.57h-.78v-6.41Z"></path><path class="cls-13" d="M548.51,368.74c-.43.82-1.25,1.29-2.25,1.29-1.44,0-2.31-.77-2.31-1.94,0-.69.29-1.16.72-1.44.46-.31,1.09-.42,1.77-.42h2.05v-.28c0-1.19-.62-1.83-1.82-1.83-.79,0-1.4.29-1.98,1.02l-.56-.48c.68-.84,1.53-1.21,2.59-1.21,1.63,0,2.54.89,2.54,2.51v3.99h-.71l-.04-1.2ZM546.33,369.39c1.18,0,2.17-.93,2.17-2.2v-.36h-1.95c-.51,0-1.03.08-1.37.32-.28.21-.44.51-.44.94,0,.79.6,1.3,1.6,1.3Z"></path><path class="cls-13" d="M551.22,363.54h.78v1.09c.43-.78,1.31-1.18,2.02-1.18.33,0,.66.07.99.24l-.39.7c-.21-.1-.51-.17-.77-.17-.68,0-1.46.36-1.74,1.3-.08.27-.12.57-.12,1.27v3.15h-.78v-6.41Z"></path><path class="cls-13" d="M558.27,369.74l-2.55-6.21h.86l2.1,5.42,2.11-5.42h.85l-3.69,9.05h-.84l1.17-2.84Z"></path><path class="cls-13" d="M566.53,360.88h2.72c1.68,0,2.68.84,2.68,2.25,0,.94-.46,1.68-1.24,2,1.1.25,1.7,1.07,1.7,2.31,0,1.61-1.02,2.5-2.88,2.5h-2.97v-9.06ZM569.5,364.89c.98,0,1.63-.64,1.63-1.64s-.69-1.61-1.88-1.61h-1.91v3.26h2.16ZM569.45,369.2c1.42,0,2.14-.6,2.14-1.79,0-1.13-.66-1.79-1.79-1.79h-2.46v3.58h2.11Z"></path><path class="cls-13" d="M573.86,366.79c0-1.84.99-3.34,2.81-3.34,1.96,0,2.76,1.53,2.76,2.94,0,.1-.01.4-.04.55h-4.76c.03,1.51.84,2.39,2.14,2.39.82,0,1.35-.23,1.91-.83l.55.49c-.73.75-1.43,1.05-2.46,1.05-1.89,0-2.91-1.41-2.91-3.25ZM578.67,366.36c0-.08,0-.16,0-.24,0-.92-.58-2.01-2-2.01-1.23,0-1.98.98-2.07,2.26h4.06Z"></path><path class="cls-13" d="M580.84,366.74c0-1.96,1.29-3.29,2.92-3.29,1.05,0,1.87.54,2.29,1.36v-3.92h.77v9.06h-.77v-1.26c-.44.84-1.25,1.35-2.29,1.35-1.72,0-2.92-1.42-2.92-3.3ZM583.88,369.32c1.3,0,2.23-1.08,2.23-2.58s-.93-2.58-2.23-2.58-2.26,1.09-2.26,2.58.95,2.58,2.26,2.58Z"></path><path class="cls-13" d="M588.85,363.54h.78v1.09c.43-.78,1.31-1.18,2.02-1.18.33,0,.66.07.99.24l-.39.7c-.21-.1-.51-.17-.77-.17-.68,0-1.46.36-1.74,1.3-.08.27-.12.57-.12,1.27v3.15h-.78v-6.41Z"></path><path class="cls-13" d="M593.23,366.74c0-1.92,1.25-3.29,3.05-3.29s3.04,1.37,3.04,3.29-1.27,3.3-3.04,3.3-3.05-1.37-3.05-3.3ZM596.28,369.34c1.37,0,2.26-1.04,2.26-2.61s-.9-2.61-2.26-2.61-2.28,1.05-2.28,2.61.9,2.61,2.28,2.61Z"></path><path class="cls-13" d="M600.77,366.74c0-1.92,1.25-3.29,3.05-3.29s3.04,1.37,3.04,3.29-1.27,3.3-3.04,3.3-3.05-1.37-3.05-3.3ZM603.82,369.34c1.37,0,2.26-1.04,2.26-2.61s-.9-2.61-2.26-2.61-2.28,1.05-2.28,2.61.9,2.61,2.28,2.61Z"></path><path class="cls-13" d="M608.61,363.54h.78v1.1c.38-.84,1.11-1.19,1.88-1.19.91,0,1.57.4,1.89,1.25.4-.83,1.09-1.25,2-1.25,1.55,0,2.13,1.16,2.13,2.68v3.82h-.78v-3.64c0-1.33-.39-2.18-1.52-2.18-1.02,0-1.65.77-1.65,2.26v3.57h-.78v-3.76c0-1.4-.52-2.07-1.5-2.07-1.03,0-1.67.79-1.67,2.26v3.57h-.78v-6.41Z"></path></g><g><path class="cls-13" d="M115.76,315.39h2.72c1.68,0,2.68.84,2.68,2.25,0,.94-.46,1.68-1.24,2,1.1.25,1.7,1.07,1.7,2.31,0,1.61-1.02,2.5-2.88,2.5h-2.97v-9.06ZM118.73,319.4c.98,0,1.63-.64,1.63-1.64s-.69-1.61-1.88-1.61h-1.91v3.26h2.16ZM118.68,323.71c1.42,0,2.14-.6,2.14-1.79,0-1.13-.66-1.79-1.79-1.79h-2.46v3.58h2.11Z"></path><path class="cls-13" d="M123.06,321.3c0-1.84.99-3.34,2.81-3.34,1.96,0,2.76,1.53,2.76,2.94,0,.1-.01.4-.04.55h-4.76c.03,1.51.84,2.39,2.14,2.39.82,0,1.35-.23,1.91-.83l.55.49c-.73.75-1.43,1.05-2.46,1.05-1.89,0-2.91-1.41-2.91-3.25ZM127.88,320.87c0-.08,0-.16,0-.24,0-.92-.58-2.01-2-2.01-1.23,0-1.98.98-2.07,2.26h4.06Z"></path><path class="cls-13" d="M130.03,321.24c0-1.96,1.29-3.29,2.92-3.29,1.05,0,1.87.54,2.29,1.36v-3.92h.77v9.06h-.77v-1.26c-.44.84-1.25,1.35-2.29,1.35-1.72,0-2.92-1.42-2.92-3.3ZM133.07,323.82c1.3,0,2.23-1.08,2.23-2.58s-.93-2.58-2.23-2.58-2.26,1.09-2.26,2.58.95,2.58,2.26,2.58Z"></path><path class="cls-13" d="M138.05,318.05h.78v1.09c.43-.78,1.31-1.18,2.02-1.18.33,0,.66.07.99.24l-.39.7c-.21-.1-.51-.17-.77-.17-.68,0-1.46.36-1.74,1.3-.08.27-.12.57-.12,1.27v3.15h-.78v-6.41Z"></path><path class="cls-13" d="M142.43,321.24c0-1.92,1.25-3.29,3.05-3.29s3.04,1.37,3.04,3.29-1.27,3.3-3.04,3.3-3.05-1.37-3.05-3.3ZM145.48,323.85c1.37,0,2.26-1.04,2.26-2.61s-.9-2.61-2.26-2.61-2.28,1.05-2.28,2.61.9,2.61,2.28,2.61Z"></path><path class="cls-13" d="M149.96,321.24c0-1.92,1.25-3.29,3.05-3.29s3.04,1.37,3.04,3.29-1.27,3.3-3.04,3.3-3.05-1.37-3.05-3.3ZM153.01,323.85c1.37,0,2.26-1.04,2.26-2.61s-.9-2.61-2.26-2.61-2.28,1.05-2.28,2.61.9,2.61,2.28,2.61Z"></path><path class="cls-13" d="M157.8,318.05h.78v1.1c.38-.84,1.11-1.19,1.88-1.19.91,0,1.57.4,1.89,1.25.4-.83,1.09-1.25,2-1.25,1.55,0,2.13,1.16,2.13,2.68v3.82h-.78v-3.64c0-1.33-.39-2.18-1.52-2.18-1.02,0-1.65.77-1.65,2.26v3.57h-.78v-3.76c0-1.4-.52-2.07-1.5-2.07-1.03,0-1.67.79-1.67,2.26v3.57h-.78v-6.41Z"></path></g><g><path class="cls-13" d="M312.42,397.39h.81v8.33h4.18v.73h-4.99v-9.06Z"></path><path class="cls-13" d="M318.54,397.39h.94v1.39h-.94v-1.39ZM318.63,400.05h.77v6.41h-.77v-6.41Z"></path><path class="cls-13" d="M320.8,400.05h.86l2.1,5.42,2.11-5.42h.85l-2.61,6.41h-.68l-2.63-6.41Z"></path><path class="cls-13" d="M328.05,397.39h.94v1.39h-.94v-1.39ZM328.14,400.05h.77v6.41h-.77v-6.41Z"></path><path class="cls-13" d="M330.94,400.05h.78v1.05c.4-.76,1.12-1.14,2.01-1.14,1.38,0,2.2.81,2.2,2.51v3.99h-.78v-3.71c0-1.45-.55-2.11-1.61-2.11-1.16,0-1.83.79-1.83,2.55v3.27h-.78v-6.41Z"></path><path class="cls-13" d="M337.4,407.22s0-.1.03-.26l1.11-.88c-.57-.22-.96-.59-.96-1.26,0-.53.27-.9.72-1.2-.36-.37-.56-.87-.56-1.45,0-1.3,1.04-2.2,2.39-2.2.64,0,1.22.21,1.64.58l1.02-.86.4.49-1,.88c.19.33.3.71.3,1.14,0,1.28-.96,2.13-2.33,2.13-.53,0-.99-.12-1.37-.34-.31.17-.45.42-.45.71,0,.66.63.83,1.62.98,1.6.25,2.99.44,2.99,1.75,0,1.16-1.05,1.78-2.7,1.78-1.82,0-2.85-.7-2.85-2ZM340.26,408.61c1.09,0,1.92-.34,1.92-1.08,0-.86-1.16-.96-2.31-1.14-.31-.05-.6-.1-.89-.17l-.8.92c-.01.09-.01.11-.01.15,0,.9.79,1.33,2.09,1.33ZM340.13,403.68c.98,0,1.59-.65,1.59-1.53s-.64-1.56-1.58-1.56-1.62.65-1.62,1.55.63,1.55,1.61,1.55Z"></path><path class="cls-13" d="M347.88,397.39h2.52c1.99,0,2.97.93,2.97,2.5,0,1.25-.64,2.07-1.85,2.38l2.44,4.19h-.92l-2.34-4.07c-.21,0-.44,0-.65,0h-1.36v4.06h-.81v-9.06ZM350.33,401.68c1.38,0,2.24-.55,2.24-1.78s-.88-1.77-2.24-1.77h-1.64v3.56h1.64Z"></path><path class="cls-13" d="M354.89,403.24c0-1.92,1.25-3.29,3.05-3.29s3.04,1.37,3.04,3.29-1.27,3.3-3.04,3.3-3.05-1.37-3.05-3.3ZM357.94,405.85c1.37,0,2.26-1.04,2.26-2.61s-.9-2.61-2.26-2.61-2.28,1.05-2.28,2.61.9,2.61,2.28,2.61Z"></path><path class="cls-13" d="M362.42,403.24c0-1.92,1.25-3.29,3.05-3.29s3.04,1.37,3.04,3.29-1.27,3.3-3.04,3.3-3.05-1.37-3.05-3.3ZM365.47,405.85c1.37,0,2.26-1.04,2.26-2.61s-.9-2.61-2.26-2.61-2.28,1.05-2.28,2.61.9,2.61,2.28,2.61Z"></path><path class="cls-13" d="M370.26,400.05h.78v1.1c.38-.84,1.11-1.19,1.88-1.19.91,0,1.57.4,1.89,1.25.4-.83,1.09-1.25,2-1.25,1.55,0,2.13,1.16,2.13,2.68v3.82h-.78v-3.64c0-1.33-.39-2.18-1.52-2.18-1.02,0-1.65.77-1.65,2.26v3.57h-.78v-3.76c0-1.4-.52-2.07-1.5-2.07-1.03,0-1.67.79-1.67,2.26v3.57h-.78v-6.41Z"></path></g><g><path class="cls-13" d="M311.02,244.39h2.43c2.94,0,4.62,1.68,4.62,4.6s-1.64,4.46-4.63,4.46h-2.42v-9.06ZM313.37,252.71c2.5,0,3.89-1.16,3.89-3.74s-1.4-3.83-3.82-3.83h-1.61v7.57h1.54Z"></path><path class="cls-13" d="M319.68,244.39h.94v1.39h-.94v-1.39ZM319.76,247.05h.77v6.41h-.77v-6.41Z"></path><path class="cls-13" d="M322.57,247.05h.78v1.05c.4-.76,1.12-1.14,2.01-1.14,1.38,0,2.2.81,2.2,2.51v3.99h-.78v-3.71c0-1.45-.55-2.11-1.61-2.11-1.16,0-1.83.79-1.83,2.55v3.27h-.78v-6.41Z"></path><path class="cls-13" d="M329.45,244.39h.94v1.39h-.94v-1.39ZM329.53,247.05h.77v6.41h-.77v-6.41Z"></path><path class="cls-13" d="M332.34,247.05h.78v1.05c.4-.76,1.12-1.14,2.01-1.14,1.38,0,2.2.81,2.2,2.51v3.99h-.78v-3.71c0-1.45-.55-2.11-1.61-2.11-1.16,0-1.83.79-1.83,2.55v3.27h-.78v-6.41Z"></path><path class="cls-13" d="M338.8,254.22s0-.1.03-.26l1.11-.88c-.57-.22-.96-.59-.96-1.26,0-.53.27-.9.72-1.2-.36-.37-.56-.87-.56-1.45,0-1.3,1.04-2.2,2.38-2.2.64,0,1.22.21,1.64.58l1.02-.86.4.49-1,.88c.19.33.3.71.3,1.14,0,1.28-.96,2.13-2.33,2.13-.53,0-.99-.12-1.37-.34-.31.18-.45.42-.45.72,0,.66.63.83,1.62.98,1.6.25,2.99.44,2.99,1.75,0,1.16-1.05,1.78-2.7,1.78-1.82,0-2.85-.7-2.85-2ZM341.65,255.61c1.09,0,1.92-.34,1.92-1.08,0-.86-1.16-.96-2.31-1.14-.31-.05-.6-.1-.89-.17l-.8.92c-.01.09-.01.11-.01.15,0,.9.79,1.33,2.09,1.33ZM341.53,250.68c.98,0,1.59-.65,1.59-1.53s-.64-1.56-1.58-1.56-1.62.65-1.62,1.55.63,1.55,1.61,1.55Z"></path><path class="cls-13" d="M349.28,244.39h2.52c1.99,0,2.97.93,2.97,2.5,0,1.25-.64,2.07-1.85,2.38l2.44,4.19h-.92l-2.34-4.07c-.21,0-.44,0-.65,0h-1.36v4.06h-.81v-9.06ZM351.72,248.68c1.38,0,2.24-.55,2.24-1.78s-.88-1.77-2.24-1.77h-1.64v3.56h1.64Z"></path><path class="cls-13" d="M356.29,250.24c0-1.92,1.25-3.29,3.05-3.29s3.04,1.36,3.04,3.29-1.27,3.3-3.04,3.3-3.05-1.36-3.05-3.3ZM359.33,252.85c1.37,0,2.26-1.04,2.26-2.61s-.9-2.61-2.26-2.61-2.28,1.05-2.28,2.61.9,2.61,2.28,2.61Z"></path><path class="cls-13" d="M363.82,250.24c0-1.92,1.25-3.29,3.05-3.29s3.04,1.36,3.04,3.29-1.27,3.3-3.04,3.3-3.05-1.36-3.05-3.3ZM366.87,252.85c1.37,0,2.26-1.04,2.26-2.61s-.9-2.61-2.26-2.61-2.28,1.05-2.28,2.61.9,2.61,2.28,2.61Z"></path><path class="cls-13" d="M371.66,247.05h.78v1.1c.38-.85,1.11-1.19,1.88-1.19.91,0,1.57.4,1.89,1.25.4-.83,1.09-1.25,2-1.25,1.55,0,2.13,1.16,2.13,2.68v3.82h-.78v-3.64c0-1.33-.39-2.18-1.52-2.18-1.02,0-1.65.77-1.65,2.26v3.57h-.78v-3.76c0-1.4-.52-2.07-1.5-2.07-1.03,0-1.67.79-1.67,2.26v3.57h-.78v-6.41Z"></path></g><g><path class="cls-13" d="M109.45,445.18h2.72c1.68,0,2.68.84,2.68,2.25,0,.94-.46,1.68-1.24,2,1.1.25,1.7,1.07,1.7,2.31,0,1.61-1.02,2.5-2.88,2.5h-2.97v-9.06ZM112.42,449.19c.98,0,1.63-.64,1.63-1.64s-.69-1.61-1.88-1.61h-1.91v3.26h2.16ZM112.37,453.5c1.42,0,2.14-.6,2.14-1.79,0-1.13-.66-1.79-1.79-1.79h-2.46v3.58h2.11Z"></path><path class="cls-13" d="M121.27,453.04c-.43.82-1.25,1.29-2.25,1.29-1.44,0-2.31-.77-2.31-1.94,0-.69.29-1.16.72-1.44.46-.31,1.09-.42,1.77-.42h2.05v-.28c0-1.19-.62-1.83-1.82-1.83-.79,0-1.4.29-1.98,1.02l-.56-.48c.68-.84,1.53-1.21,2.59-1.21,1.63,0,2.54.89,2.54,2.51v3.99h-.71l-.04-1.2ZM119.09,453.69c1.18,0,2.17-.93,2.17-2.2v-.36h-1.95c-.51,0-1.03.08-1.37.32-.28.21-.44.51-.44.94,0,.79.6,1.3,1.6,1.3Z"></path><path class="cls-13" d="M123.85,452.91v-7.73h.77v7.59c0,.6.23.84.64.84.17,0,.38-.04.61-.12v.67c-.29.11-.6.17-.84.17-.72,0-1.18-.44-1.18-1.42Z"></path><path class="cls-13" d="M126.82,451.03c0-1.83,1.06-3.29,2.86-3.29,1.17,0,2.09.58,2.51,1.74l-.7.27c-.27-.82-.9-1.33-1.81-1.33-1.42,0-2.09,1.25-2.09,2.61s.68,2.62,2.09,2.62c.91,0,1.53-.51,1.81-1.33l.7.27c-.42,1.16-1.34,1.75-2.51,1.75-1.8,0-2.86-1.46-2.86-3.3Z"></path><path class="cls-13" d="M133.42,451.03c0-1.92,1.25-3.29,3.05-3.29s3.04,1.37,3.04,3.29-1.27,3.3-3.04,3.3-3.05-1.37-3.05-3.3ZM136.47,453.64c1.37,0,2.26-1.04,2.26-2.61s-.9-2.61-2.26-2.61-2.28,1.05-2.28,2.61.9,2.61,2.28,2.61Z"></path><path class="cls-13" d="M141.26,447.84h.78v1.05c.4-.76,1.12-1.14,2.01-1.14,1.38,0,2.2.81,2.2,2.51v3.99h-.78v-3.71c0-1.45-.55-2.11-1.61-2.11-1.16,0-1.83.79-1.83,2.55v3.27h-.78v-6.41Z"></path><path class="cls-13" d="M149.98,454.04l-2.55-6.21h.86l2.1,5.42,2.11-5.42h.85l-3.69,9.05h-.84l1.17-2.84Z"></path></g><g><path class="cls-13" d="M314.3,105.82h.81v4.86l4.65-4.86h1.09l-3.45,3.54,3.48,5.52h-.95l-3.11-4.93-1.71,1.75v3.17h-.81v-9.06Z"></path><path class="cls-13" d="M322.03,105.82h.94v1.39h-.94v-1.39ZM322.11,108.47h.77v6.41h-.77v-6.41Z"></path><path class="cls-13" d="M325.68,113.4v-4.31h-1.42v-.62h1.42v-1.85l.79-.46v2.31h1.54v.62h-1.54v4.12c0,.71.22,1.11.81,1.11.19,0,.46-.04.73-.12v.62c-.32.1-.64.16-.92.16-.85,0-1.4-.49-1.4-1.57Z"></path><path class="cls-13" d="M329.03,111.67c0-1.83,1.06-3.29,2.86-3.29,1.17,0,2.09.59,2.51,1.74l-.7.27c-.27-.82-.9-1.33-1.81-1.33-1.42,0-2.09,1.25-2.09,2.61s.68,2.62,2.09,2.62c.91,0,1.53-.51,1.81-1.33l.7.27c-.42,1.16-1.34,1.75-2.51,1.75-1.8,0-2.86-1.46-2.86-3.3Z"></path><path class="cls-13" d="M336.03,105.82h.78v3.69c.4-.75,1.1-1.13,2.01-1.13,1.4,0,2.2.85,2.2,2.51v3.99h-.78v-3.71c0-1.43-.53-2.11-1.61-2.11-1.18,0-1.83.83-1.83,2.55v3.27h-.78v-9.06Z"></path><path class="cls-13" d="M342.66,111.72c0-1.84.99-3.34,2.81-3.34,1.96,0,2.76,1.53,2.76,2.94,0,.1-.01.4-.04.55h-4.76c.03,1.51.84,2.39,2.14,2.39.82,0,1.35-.23,1.91-.83l.55.49c-.73.75-1.43,1.05-2.46,1.05-1.89,0-2.91-1.41-2.91-3.25ZM347.48,111.29c0-.08,0-.16,0-.24,0-.92-.58-2.02-2-2.02-1.23,0-1.98.98-2.07,2.26h4.06Z"></path><path class="cls-13" d="M349.97,108.47h.78v1.05c.4-.76,1.12-1.14,2.01-1.14,1.38,0,2.2.81,2.2,2.51v3.99h-.78v-3.71c0-1.45-.55-2.11-1.61-2.11-1.16,0-1.83.79-1.83,2.55v3.27h-.78v-6.41Z"></path></g><g><path class="cls-13" d="M161.28,88.83h5.86v.73h-5.06v3.37h4.39v.73h-4.39v4.24h-.81v-9.06Z"></path><path class="cls-13" d="M167.87,94.68c0-1.92,1.25-3.29,3.05-3.29s3.04,1.37,3.04,3.29-1.27,3.3-3.04,3.3-3.05-1.36-3.05-3.3ZM170.92,97.29c1.37,0,2.26-1.04,2.26-2.61s-.9-2.61-2.26-2.61-2.28,1.05-2.28,2.61.9,2.61,2.28,2.61Z"></path><path class="cls-13" d="M177.44,97.69l-2.55-6.21h.86l2.1,5.42,2.11-5.42h.85l-3.69,9.05h-.84l1.17-2.84Z"></path><path class="cls-13" d="M181.77,94.73c0-1.84.99-3.34,2.81-3.34,1.96,0,2.76,1.53,2.76,2.94,0,.1-.01.4-.04.55h-4.76c.03,1.51.84,2.39,2.14,2.39.82,0,1.35-.23,1.91-.83l.55.49c-.73.75-1.43,1.05-2.46,1.05-1.89,0-2.91-1.41-2.91-3.25ZM186.58,94.3c0-.08,0-.16,0-.24,0-.92-.58-2.02-2-2.02-1.23,0-1.98.98-2.07,2.26h4.06Z"></path><path class="cls-13" d="M189.06,91.48h.78v1.09c.43-.78,1.31-1.18,2.02-1.18.33,0,.66.07.99.24l-.39.7c-.21-.1-.51-.17-.77-.17-.68,0-1.46.36-1.74,1.3-.08.27-.12.57-.12,1.27v3.15h-.78v-6.41Z"></path></g><g><path class="cls-13" d="M165.77,175.99h5.86v.73h-5.06v3.37h4.39v.73h-4.39v4.24h-.81v-9.06Z"></path><path class="cls-13" d="M172.94,183.72v-7.73h.77v7.59c0,.6.23.85.64.85.17,0,.38-.04.61-.12v.67c-.29.11-.6.17-.84.17-.72,0-1.18-.44-1.18-1.42Z"></path><path class="cls-13" d="M175.91,181.89c0-1.84.99-3.34,2.81-3.34,1.96,0,2.76,1.53,2.76,2.94,0,.1-.01.4-.04.55h-4.76c.03,1.51.84,2.39,2.14,2.39.82,0,1.35-.23,1.91-.83l.55.49c-.73.75-1.43,1.05-2.46,1.05-1.89,0-2.91-1.41-2.91-3.25ZM180.73,181.46c0-.08,0-.16,0-.24,0-.92-.58-2.02-2-2.02-1.23,0-1.98.98-2.07,2.26h4.06Z"></path><path class="cls-13" d="M184.87,181.83l-2.37-3.19h.96l1.92,2.65,1.94-2.65h.94l-2.38,3.19,2.39,3.22h-.96l-1.93-2.67-1.94,2.67h-.94l2.37-3.22Z"></path></g><g><path class="cls-13" d="M504.93,166.64h.65l1.71,6.06,1.76-5.7h.63l1.76,5.7,1.7-6.06h.65l-2.01,6.98h-.63l-1.79-5.71-1.79,5.71h-.64l-2.01-6.98Z"></path><path class="cls-13" d="M514.94,166.64h.62v6.98h-.62v-6.98Z"></path><path class="cls-13" d="M516.99,170.13c0-2.16,1.26-3.58,3.16-3.58,1.35,0,2.39.71,2.84,1.89l-.58.22c-.38-.96-1.17-1.52-2.26-1.52-1.55,0-2.54,1.17-2.54,2.99s.99,3,2.54,3c1.09,0,1.89-.56,2.26-1.52l.58.22c-.45,1.18-1.49,1.9-2.84,1.9-1.89,0-3.16-1.42-3.16-3.59Z"></path></g><path class="cls-13" d="M42.6,50.05h.65l1.71,6.06,1.76-5.7h.63l1.76,5.7,1.7-6.06h.65l-2.01,6.98h-.63l-1.79-5.71-1.79,5.71h-.64l-2.01-6.98Z"></path><path class="cls-13" d="M44.46,82.58h1.87c2.26,0,3.56,1.29,3.56,3.54s-1.27,3.43-3.57,3.43h-1.86v-6.98ZM46.26,88.98c1.92,0,2.99-.89,2.99-2.88s-1.08-2.95-2.94-2.95h-1.24v5.83h1.19Z"></path><path class="cls-13" d="M318.24,69.89c0-2.17,1.27-3.59,3.16-3.59s3.18,1.42,3.18,3.59-1.27,3.58-3.18,3.58-3.16-1.42-3.16-3.58ZM321.4,72.87c1.57,0,2.55-1.16,2.55-2.99s-.99-3-2.55-3-2.54,1.15-2.54,3,.99,2.99,2.54,2.99Z"></path><path class="cls-13" d="M328.27,65.39h.48l-3.55,9.08h-.47l3.55-9.08Z"></path><path class="cls-13" d="M329.98,66.39h.93l2.35,5.66,2.35-5.66h.92v6.98h-.62v-6.16l-2.35,5.59h-.61l-2.36-5.59v6.16h-.62v-6.98Z"></path><g><path class="cls-13" d="M448.7,157.35h1.94c1.53,0,2.29.72,2.29,1.92,0,.97-.5,1.6-1.43,1.83l1.88,3.22h-.71l-1.8-3.13c-.16,0-.34,0-.5,0h-1.05v3.13h-.62v-6.98ZM450.58,160.65c1.06,0,1.73-.43,1.73-1.37s-.68-1.37-1.73-1.37h-1.26v2.74h1.26Z"></path><path class="cls-13" d="M454.55,157.35h4.56v.56h-3.94v2.59h3.53v.56h-3.53v2.7h3.94v.56h-4.56v-6.98Z"></path><path class="cls-13" d="M460.41,157.35h4.51v.56h-3.89v2.59h3.38v.56h-3.38v3.26h-.62v-6.98Z"></path></g><g><path class="cls-13" d="M287.52,66.39h.65l1.71,6.06,1.76-5.7h.63l1.76,5.7,1.7-6.06h.65l-2.01,6.98h-.63l-1.79-5.71-1.79,5.71h-.64l-2.01-6.98Z"></path><path class="cls-13" d="M297.52,66.39h4.51v.56h-3.89v2.59h3.38v.56h-3.38v3.26h-.62v-6.98Z"></path></g><g><path class="cls-13" d="M346.85,146.66h1.87c2.26,0,3.56,1.29,3.56,3.54s-1.27,3.43-3.57,3.43h-1.86v-6.98ZM348.66,153.06c1.92,0,2.99-.89,2.99-2.88s-1.08-2.95-2.94-2.95h-1.24v5.83h1.19Z"></path><path class="cls-13" d="M352.94,146.66h.65l1.71,6.06,1.76-5.7h.63l1.76,5.7,1.7-6.06h.65l-2.01,6.98h-.63l-1.79-5.71-1.79,5.71h-.64l-2.01-6.98Z"></path></g><g><path class="cls-17" d="M57.56,536.76h3.61v.45h-3.11v2.07h2.7v.45h-2.7v2.61h-.5v-5.57Z"></path><path class="cls-17" d="M61.9,536.76h.58v.86h-.58v-.86ZM61.95,538.39h.47v3.94h-.47v-3.94Z"></path><path class="cls-17" d="M63.76,538.39h.48v.64c.25-.47.69-.7,1.24-.7.85,0,1.36.5,1.36,1.54v2.46h-.48v-2.28c0-.89-.34-1.3-.99-1.3-.71,0-1.13.48-1.13,1.57v2.01h-.48v-3.94Z"></path><path class="cls-17" d="M70.33,536.76h3.64v.45h-3.15v2.07h2.82v.45h-2.82v2.16h3.15v.45h-3.64v-5.57Z"></path><path class="cls-17" d="M76.14,540.36l-1.46-1.96h.59l1.18,1.63,1.2-1.63h.58l-1.46,1.96,1.47,1.98h-.59l-1.19-1.64-1.19,1.64h-.58l1.46-1.98Z"></path><path class="cls-17" d="M79.66,541.42v-2.65h-.88v-.38h.88v-1.14l.48-.28v1.42h.95v.38h-.95v2.54c0,.44.14.68.5.68.12,0,.28-.02.45-.08v.38c-.2.06-.4.1-.57.1-.52,0-.86-.3-.86-.97Z"></path><path class="cls-17" d="M81.81,540.39c0-1.13.61-2.05,1.73-2.05,1.21,0,1.7.94,1.7,1.81,0,.06,0,.24-.02.34h-2.93c.02.93.52,1.47,1.32,1.47.5,0,.83-.14,1.18-.51l.34.3c-.45.46-.88.65-1.52.65-1.16,0-1.79-.87-1.79-2ZM84.77,540.13s0-.1,0-.15c0-.57-.36-1.24-1.23-1.24-.76,0-1.22.6-1.27,1.39h2.49Z"></path><path class="cls-17" d="M86.38,538.39h.48v.64c.25-.47.69-.7,1.24-.7.85,0,1.36.5,1.36,1.54v2.46h-.48v-2.28c0-.89-.34-1.3-.99-1.3-.71,0-1.13.48-1.13,1.57v2.01h-.48v-3.94Z"></path><path class="cls-17" d="M90.33,541.49l.34-.28c.2.46.66.77,1.26.77.57,0,.95-.27.95-.72,0-.55-.53-.68-1.1-.82-.66-.16-1.23-.38-1.23-1.06,0-.62.53-1.05,1.29-1.05.6,0,1.1.26,1.37.76l-.37.21c-.21-.38-.57-.58-1.01-.58-.48,0-.84.24-.84.62,0,.4.36.54.93.68.67.16,1.43.34,1.43,1.2,0,.71-.56,1.17-1.42,1.17-.79,0-1.35-.4-1.6-.9Z"></path><path class="cls-17" d="M94.44,536.76h.58v.86h-.58v-.86ZM94.49,538.39h.47v3.94h-.47v-3.94Z"></path><path class="cls-17" d="M96.11,540.36c0-1.18.77-2.02,1.88-2.02s1.87.84,1.87,2.02-.78,2.03-1.87,2.03-1.88-.84-1.88-2.03ZM97.98,541.96c.84,0,1.39-.64,1.39-1.6s-.55-1.6-1.39-1.6-1.4.64-1.4,1.6.56,1.6,1.4,1.6Z"></path><path class="cls-17" d="M101.01,538.39h.48v.64c.25-.47.69-.7,1.24-.7.85,0,1.36.5,1.36,1.54v2.46h-.48v-2.28c0-.89-.34-1.3-.99-1.3-.71,0-1.13.48-1.13,1.57v2.01h-.48v-3.94Z"></path><path class="cls-17" d="M105.41,538.57h.58v.86h-.58v-.86ZM105.41,541.48h.58v.85h-.58v-.85Z"></path></g><g><path class="cls-17" d="M91.9,547.97c0-.73-.43-1.2-1.19-1.2-.83,0-1.26.58-1.27,1.45l-.47-.03c0-1.07.62-1.88,1.76-1.88.99,0,1.64.65,1.64,1.65,0,1.49-1.5,2.65-2.81,3.53h3.04v.45h-3.64v-.44c1.02-.82,2.94-2.02,2.94-3.53Z"></path><path class="cls-17" d="M93.6,549.14c0-1.33.3-2.84,1.72-2.84s1.75,1.39,1.75,2.85-.4,2.84-1.72,2.84c-1.44,0-1.75-1.51-1.75-2.85ZM95.35,551.53c.88,0,1.23-1,1.23-2.36s-.36-2.41-1.26-2.41c-.96,0-1.23,1.1-1.23,2.39s.28,2.37,1.26,2.37Z"></path><path class="cls-17" d="M98.15,549.14c0-1.33.3-2.84,1.72-2.84s1.75,1.39,1.75,2.85-.4,2.84-1.72,2.84c-1.44,0-1.75-1.51-1.75-2.85ZM99.9,551.53c.88,0,1.23-1,1.23-2.36s-.36-2.41-1.26-2.41c-.96,0-1.23,1.1-1.23,2.39s.28,2.37,1.26,2.37Z"></path><path class="cls-17" d="M102.47,550.28l.48-.02c0,.78.58,1.27,1.48,1.27s1.44-.47,1.44-1.2c0-.9-.86-1.14-1.78-1.14v-.38c.7,0,1.48-.21,1.48-1.03,0-.6-.48-1.01-1.16-1.01-.74,0-1.19.44-1.2,1.09l-.47-.02c0-.9.7-1.52,1.68-1.52s1.62.6,1.62,1.42c0,.74-.55,1.08-1.1,1.22.67.11,1.4.5,1.4,1.39,0,.98-.78,1.66-1.93,1.66s-1.94-.68-1.94-1.71Z"></path></g><g><path class="cls-17" d="M90.96,557.25h-1.47v-.39h1.03c.29,0,.44-.1.44-.41v-.49h.48v5.57h-.48v-4.28Z"></path><path class="cls-17" d="M96.03,559.33c-.23.14-.5.22-.76.22-1.01,0-1.81-.81-1.81-1.81s.84-1.83,1.87-1.83,1.88.8,1.88,1.82c0,.37-.12.7-.29,1l-1.67,2.81h-.54l1.34-2.21ZM95.32,559.12c.76,0,1.39-.59,1.39-1.38s-.62-1.38-1.39-1.38-1.39.6-1.39,1.38.62,1.38,1.39,1.38Z"></path><path class="cls-17" d="M98.15,558.74c0-1.33.3-2.84,1.72-2.84s1.75,1.39,1.75,2.85-.4,2.84-1.72,2.84c-1.44,0-1.75-1.51-1.75-2.85ZM99.9,561.13c.88,0,1.23-1,1.23-2.36s-.36-2.41-1.26-2.41c-.96,0-1.23,1.1-1.23,2.39s.28,2.37,1.26,2.37Z"></path><path class="cls-17" d="M102.47,559.88l.48-.02c0,.78.58,1.27,1.48,1.27s1.44-.47,1.44-1.2c0-.9-.86-1.14-1.78-1.14v-.38c.7,0,1.48-.21,1.48-1.03,0-.6-.48-1.01-1.16-1.01-.74,0-1.19.44-1.2,1.09l-.47-.02c0-.9.7-1.52,1.68-1.52s1.62.6,1.62,1.42c0,.74-.55,1.08-1.1,1.22.67.11,1.4.5,1.4,1.39,0,.98-.78,1.65-1.93,1.65s-1.94-.68-1.94-1.71Z"></path></g><polyline class="cls-1" points="113.69 549.37 128.04 549.37 136.07 518.83"></polyline><path class="cls-16" d="M137.09,514.93l-3.44,4.96s2.41-1.06,3.99,1.05l-.55-6.01Z"></path><polyline class="cls-1" points="114.69 559.05 131.04 559.05 141.12 519.36"></polyline><path class="cls-16" d="M142.11,515.45l-3.4,4.99s2.4-1.08,4,1.02l-.6-6.01Z"></path></g></g></svg> 