<?xml version="1.0" encoding="UTF-8"?> <svg xmlns="http://www.w3.org/2000/svg" id="Layer_2" data-name="Layer 2" viewBox="0 0 744.17 834.61"><defs><style> .cls-1 { stroke: #afa49f; } .cls-1, .cls-2, .cls-3, .cls-4, .cls-5, .cls-6, .cls-7, .cls-8, .cls-9, .cls-10, .cls-11, .cls-12, .cls-13, .cls-14 { fill: none; } .cls-1, .cls-2, .cls-3, .cls-7, .cls-11, .cls-13 { stroke-width: .25px; } .cls-1, .cls-10, .cls-11 { stroke-miterlimit: 10; } .cls-2 { stroke-dasharray: 1.54 1.54; } .cls-2, .cls-3, .cls-4, .cls-5, .cls-6, .cls-7, .cls-8, .cls-9, .cls-12, .cls-13, .cls-14 { stroke-linecap: round; stroke-linejoin: round; } .cls-2, .cls-3, .cls-7 { stroke: #75655e; } .cls-15 { fill: #3a2a22; } .cls-3 { stroke-dasharray: 5.96 4.97; } .cls-4, .cls-5, .cls-8, .cls-9, .cls-12 { stroke: #55453d; stroke-width: .15px; } .cls-16 { fill: #fff; } .cls-5 { stroke-dasharray: 1.02 1.02; } .cls-6, .cls-10 { stroke-width: .75px; } .cls-6, .cls-10, .cls-13, .cls-14 { stroke: #3a2a22; } .cls-17 { fill: #bc8ebc; } .cls-8 { stroke-dasharray: .61 .61; } .cls-9 { stroke-dasharray: 1.01 1.01; } .cls-11 { stroke: #bc8ebc; } .cls-12 { stroke-dasharray: 1.01 1.01; } .cls-18 { fill: #afa49f; } .cls-14 { stroke-width: .35px; } .cls-19 { fill: #75655e; } </style></defs><g id="Layer_1-2" data-name="Layer 1"><g><polygon class="cls-16" points="145.91 286.47 145.91 317.26 182.42 317.26 182.42 409.8 .38 409.8 .38 512.96 30.41 512.96 30.41 779.17 30.41 787.26 48.44 785.61 92.33 781.25 92.09 778.93 91.5 773.21 48.44 777.48 48.44 727.03 86.88 722.04 125.32 716.59 163.76 710.86 202.01 704.76 240.27 698.29 278.52 691.46 316.68 684.34 354.75 676.76 392.73 668.91 430.61 660.69 468.49 652.19 506.29 643.22 543.98 633.98 641.22 608.36 639.18 600.49 646.83 598.41 680.92 588.71 714.93 578.82 686.56 500.65 638.23 500.65 638.22 500.65 616.06 274.27 610.78 221.51 608.47 221.72 602.74 222.25 607.93 274.27 582.05 274.27 582.05 125.32 644.64 125.32 638.13 182.63 645.89 185.75 652.74 125.32 654.81 107.19 646.73 107.19 387.67 107.19 387.67 77.16 289.44 77.16 289.44 .38 134.36 .38 134.36 114.53 217.86 114.53 217.86 192.66 134.36 192.66 134.35 234.65 145.91 234.65 145.91 240.27 145.91 286.47"></polygon><line class="cls-4" x1="91.5" y1="773.21" x2="92" y2="773.16"></line><polyline class="cls-4" points="93.09 773.04 93.58 772.99 93.64 773.49"></polyline><line class="cls-9" x1="93.74" y1="774.49" x2="94.31" y2="780.03"></line><polyline class="cls-4" points="94.36 780.53 94.42 781.03 93.92 781.08"></polyline><line class="cls-4" x1="92.83" y1="781.19" x2="92.33" y2="781.25"></line><line class="cls-4" x1="602.74" y1="222.25" x2="602.69" y2="221.75"></line><polyline class="cls-4" points="602.62 221.09 602.57 220.59 603.06 220.54"></polyline><line class="cls-9" x1="604.07" y1="220.44" x2="609.61" y2="219.87"></line><polyline class="cls-4" points="610.11 219.81 610.6 219.76 610.65 220.26"></polyline><line class="cls-4" x1="610.73" y1="221.01" x2="610.78" y2="221.51"></line><line class="cls-4" x1="645.75" y1="186.97" x2="645.89" y2="185.75"></line><line class="cls-4" x1="637.72" y1="186.05" x2="638.21" y2="186.11"></line><line class="cls-12" x1="639.22" y1="186.22" x2="644.76" y2="186.86"></line><line class="cls-4" x1="645.26" y1="186.92" x2="645.76" y2="186.97"></line><line class="cls-4" x1="637.85" y1="184.84" x2="637.72" y2="186.05"></line><line class="cls-4" x1="641.22" y1="608.36" x2="641.7" y2="608.24"></line><line class="cls-8" x1="642.29" y1="608.08" x2="643.18" y2="607.84"></line><polyline class="cls-4" points="643.47 607.76 643.96 607.64 643.83 607.15"></polyline><line class="cls-5" x1="643.58" y1="606.16" x2="642.17" y2="600.72"></line><line class="cls-4" x1="642.04" y1="600.23" x2="641.92" y2="599.75"></line><polygon class="cls-14" points="543.98 618.85 592.77 607.09 631.12 596.75 669.28 586.03 707.44 574.94 682.49 506.47 638.79 506.47 638.79 504.5 683.89 504.5 710.05 576.29 669.84 587.98 631.66 598.7 593.29 609.06 543.98 620.95 543.98 618.85"></polygon><g><path class="cls-4" d="M202.1,243.07c0,25.52-20.68,43.4-46.2,43.4"></path><path class="cls-4" d="M205.48,428.92c0,23.16,18.64,39.39,41.63,39.39"></path><path class="cls-4" d="M135.07,497.31c0-23.16,18.64-39.39,41.63-39.39"></path><path class="cls-4" d="M419.17,224.61c23.16,0,39.39,18.64,39.39,41.63"></path><path class="cls-4" d="M237.82,167.53c0-23.16,18.64-39.39,41.63-39.39"></path><path class="cls-4" d="M303.87,224.61c-23.16,0-39.39,18.64-39.39,41.63"></path><path class="cls-4" d="M561.19,548.1c23.16,0,39.39-18.64,39.39-41.62"></path></g><line class="cls-4" x1="145.9" y1="240.27" x2="145.9" y2="286.47"></line><line class="cls-4" x1="155.9" y1="243.07" x2="155.9" y2="286.47"></line><rect class="cls-14" x="155.91" y="240.27" width="46.2" height="2.8"></rect><rect class="cls-14" x="205.48" y="426.68" width="41.63" height="2.23"></rect><rect class="cls-14" x="196.33" y="414.07" width="41.53" height="2.23"></rect><rect class="cls-14" x="135.07" y="497.31" width="41.63" height="2.23"></rect><rect class="cls-14" x="416.94" y="224.61" width="2.23" height="41.63"></rect><rect class="cls-14" x="319.91" y="269.1" width="41.58" height="2.23"></rect><rect class="cls-14" x="340.7" y="266.86" width="41.58" height="2.23"></rect><rect class="cls-14" x="237.82" y="167.53" width="41.63" height="2.23"></rect><rect class="cls-14" x="303.87" y="224.61" width="2.23" height="41.63"></rect><rect class="cls-14" x="558.95" y="506.47" width="2.23" height="41.62"></rect><rect class="cls-14" x="160.53" y="233.97" width="62.37" height="2.23"></rect><line class="cls-14" x1="191.71" y1="233.97" x2="191.71" y2="236.16"></line><rect class="cls-14" x="293.3" y="327.4" width="69.3" height="2.23"></rect><line class="cls-14" x1="327.95" y1="327.4" x2="327.95" y2="329.59"></line><rect class="cls-14" x="296.82" y="118.47" width="69.3" height="2.23"></rect><line class="cls-14" x1="331.46" y1="118.47" x2="331.46" y2="120.66"></line><polyline class="cls-7" points="345.22 587.98 345.22 588.73 344.47 588.73"></polyline><line class="cls-2" x1="342.93" y1="588.73" x2="319.12" y2="588.73"></line><polyline class="cls-7" points="318.36 588.73 317.61 588.73 317.61 587.98"></polyline><line class="cls-2" x1="317.61" y1="586.45" x2="317.61" y2="562.64"></line><polyline class="cls-7" points="317.61 561.87 317.61 561.12 318.36 561.12"></polyline><line class="cls-2" x1="319.89" y1="561.12" x2="343.7" y2="561.12"></line><polyline class="cls-7" points="344.47 561.12 345.22 561.12 345.22 561.87"></polyline><line class="cls-2" x1="345.22" y1="563.41" x2="345.22" y2="587.21"></line><line class="cls-7" x1="254.88" y1="517.21" x2="254.88" y2="520.21"></line><line class="cls-3" x1="254.88" y1="525.18" x2="254.88" y2="621.11"></line><line class="cls-7" x1="254.88" y1="623.59" x2="254.88" y2="626.59"></line><line class="cls-14" x1="266.79" y1="668.17" x2="266.78" y2="481.06"></line><line class="cls-14" x1="266.79" y1="517.21" x2="239.06" y2="517.21"></line><line class="cls-14" x1="266.79" y1="626.59" x2="239.06" y2="626.59"></line><line class="cls-14" x1="264.29" y1="517.21" x2="264.29" y2="481.06"></line><line class="cls-14" x1="287.57" y1="419.8" x2="366.11" y2="419.8"></line><line class="cls-14" x1="287.57" y1="417.3" x2="366.11" y2="417.3"></line><line class="cls-14" x1="336.09" y1="419.8" x2="336.08" y2="392.08"></line><line class="cls-14" x1="264.29" y1="668.17" x2="264.29" y2="626.59"></line><rect class="cls-14" x="317.61" y="481.06" width="49.71" height="131.67"></rect><g><rect class="cls-14" x="337.77" y="541.68" width="9.78" height="1.74" rx=".59" ry=".59"></rect><path class="cls-14" d="M331.87,542.55c0-.49-.4-.9-.9-.9s-.9.4-.9.9.4.9.9.9.9-.4.9-.9Z"></path></g><polyline class="cls-14" points="346.23 541.68 346.23 539.25 344.68 539.25 344.68 541.68"></polyline><line class="cls-14" x1="344.68" y1="540.12" x2="346.23" y2="540.12"></line><polyline class="cls-14" points="342.37 541.68 342.37 529.62 320.61 529.62 320.61 555.47 342.37 555.47 342.37 543.42"></polyline><polyline class="cls-14" points="341.29 543.42 341.29 554.39 321.69 554.39 321.69 530.7 341.29 530.7 341.29 541.68"></polyline><polyline class="cls-14" points="176.69 446.07 92.96 446.06 92.96 420.92"></polyline><path class="cls-14" d="M116.9,429.01h-9.87c-.4,0-.72.32-.72.72v10.9c0,.4.32.72.72.72h20.82c.4,0,.72-.32.72-.72v-10.9c0-.4-.32-.72-.72-.72h-9.48"></path><rect class="cls-14" x="116.9" y="425.56" width="1.47" height="5.89"></rect><g><circle class="cls-14" cx="117.64" cy="435.18" r=".84"></circle><path class="cls-14" d="M151.66,429.01h-9.87c-.4,0-.72.32-.72.72v10.9c0,.4.32.72.72.72h20.82c.4,0,.72-.32.72-.72v-10.9c0-.4-.32-.72-.72-.72h-9.48"></path></g><rect class="cls-14" x="151.66" y="425.56" width="1.47" height="5.89"></rect><circle class="cls-14" cx="152.4" cy="435.18" r=".84"></circle><line class="cls-14" x1="51.95" y1="497.23" x2="51.96" y2="421.86"></line><line class="cls-14" x1="51.95" y1="497.23" x2="51.96" y2="421.05"></line><line class="cls-14" x1="50.67" y1="497.23" x2="50.68" y2="421.04"></line><line class="cls-14" x1="50.67" y1="492.55" x2="51.96" y2="492.55"></line><line class="cls-14" x1="50.67" y1="454.55" x2="51.96" y2="454.55"></line><line class="cls-14" x1="10.37" y1="434.43" x2="50.68" y2="434.43"></line><g><path class="cls-14" d="M33.24,485.31c0,.67-.54,1.21-1.21,1.21s-1.21-.54-1.21-1.21.54-1.21,1.21-1.21,1.21.54,1.21,1.21Z"></path><path class="cls-14" d="M37.21,485.31c0,2.86-2.32,5.18-5.18,5.18s-5.18-2.32-5.18-5.18,2.32-5.18,5.18-5.18,5.18,2.32,5.18,5.18Z"></path><rect class="cls-14" x="63.66" y="421.05" width="17.6" height="7.45" rx="1.08" ry="1.08"></rect><path class="cls-14" d="M76.92,432.65c.28,0,.54.11.73.32,1.88,2.09,3.09,5.3,3.09,8.9,0,6.31-3.71,11.42-8.28,11.42s-8.28-5.11-8.28-11.42c0-3.6,1.2-6.8,3.08-8.9.19-.21.46-.32.73-.32h8.92Z"></path></g><line class="cls-14" x1="80.74" y1="441.86" x2="80.74" y2="428.34"></line><line class="cls-14" x1="64.18" y1="441.86" x2="64.18" y2="428.34"></line><line class="cls-14" x1="167.77" y1="94.6" x2="164.56" y2="94.6"></line><g><path class="cls-14" d="M163.7,94.6h-11.6c-1.38,0-2.5-1.12-2.5-2.5V30.27c0-1.38,1.12-2.5,2.5-2.5h24.04c1.38,0,2.5,1.12,2.5,2.5v61.83c0,1.38-1.12,2.5-2.5,2.5h-8.37"></path><path class="cls-14" d="M164.56,98.62v-10.86c0-.24-.19-.43-.43-.43s-.43.19-.43.43v10.81"></path><path class="cls-14" d="M163.7,88.84c-.46-.17-.79-.61-.79-1.14,0-.67.54-1.21,1.21-1.21s1.21.54,1.21,1.21c0,.51-.32.95-.77,1.13"></path><path class="cls-14" d="M163.7,92.88c-2.66-.21-4.76-2.45-4.76-5.17,0-2.86,2.32-5.18,5.18-5.18s5.18,2.32,5.18,5.18c0,2.71-2.09,4.94-4.74,5.17"></path></g><rect class="cls-14" x="161.58" y="98.62" width="5.08" height=".97"></rect><line class="cls-14" x1="182.35" y1="99.59" x2="182.34" y2="24.22"></line><line class="cls-14" x1="182.35" y1="99.59" x2="182.34" y2="23.4"></line><line class="cls-14" x1="183.63" y1="99.59" x2="183.62" y2="23.4"></line><line class="cls-14" x1="183.63" y1="94.91" x2="182.35" y2="94.91"></line><line class="cls-14" x1="183.63" y1="56.9" x2="182.35" y2="56.9"></line><g><path class="cls-14" d="M196.57,10.38h15.44c.6,0,1.08.48,1.08,1.08v5.3c0,.6-.48,1.08-1.08,1.08h-15.44c-.6,0-1.08-.48-1.08-1.08v-5.29c0-.6.48-1.08,1.08-1.08Z"></path><path class="cls-14" d="M199.83,21.98c-.28,0-.54.11-.73.32-1.88,2.09-3.09,5.3-3.09,8.9,0,6.31,3.71,11.42,8.28,11.42s8.28-5.11,8.28-11.42c0-3.59-1.2-6.8-3.08-8.9-.19-.21-.46-.32-.73-.32h-8.92Z"></path></g><line class="cls-14" x1="196.01" y1="31.19" x2="196.01" y2="17.67"></line><line class="cls-14" x1="212.57" y1="31.19" x2="212.57" y2="17.67"></line><polyline class="cls-14" points="225.19 10.38 225.19 35.39 279.44 35.39"></polyline><path class="cls-14" d="M242.43,18.44h9.87c.4,0,.72.32.72.72v10.9c0,.4-.32.72-.72.72h-20.82c-.4,0-.72-.32-.72-.72v-10.9c0-.4.32-.72.72-.72h9.48"></path><rect class="cls-14" x="240.96" y="14.99" width="1.47" height="5.89"></rect><circle class="cls-14" cx="241.7" cy="24.61" r=".84"></circle><rect class="cls-14" x="296.39" y="343.02" width="30.61" height="38.03"></rect><rect class="cls-14" x="329" y="343.02" width="30.61" height="38.03"></rect><g><rect class="cls-14" x="234.45" y="194.95" width="7.45" height="17.6" rx="1.08" ry="1.08"></rect><path class="cls-14" d="M246.04,199.29c0-.28.11-.54.32-.73,2.09-1.88,5.3-3.09,8.9-3.09,6.31,0,11.42,3.71,11.42,8.28s-5.11,8.28-11.42,8.28c-3.6,0-6.8-1.2-8.9-3.08-.21-.19-.32-.46-.32-.73v-8.92Z"></path></g><line class="cls-14" x1="255.26" y1="195.47" x2="241.74" y2="195.47"></line><line class="cls-14" x1="255.26" y1="212.02" x2="241.74" y2="212.02"></line><polyline class="cls-14" points="234.44 224.65 259.46 224.65 259.46 266.23"></polyline><path class="cls-14" d="M242.51,245.98v9.87c0,.4.32.72.72.72h10.9c.4,0,.72-.32.72-.72v-20.82c0-.4-.32-.72-.72-.72h-10.9c-.4,0-.72.32-.72.72v9.48"></path><rect class="cls-14" x="239.06" y="244.51" width="5.89" height="1.47"></rect><circle class="cls-14" cx="248.68" cy="245.25" r=".84"></circle><rect class="cls-14" x="241.34" y="550.5" width="24.28" height="42.4"></rect><rect class="cls-14" x="242.42" y="551.58" width="22.12" height="40.24"></rect><path class="cls-14" d="M263.79,571.66c0,.71-.57,1.28-1.28,1.28s-1.28-.57-1.28-1.28.57-1.28,1.28-1.28c.71,0,1.28.57,1.28,1.28Z"></path><line class="cls-14" x1="264.54" y1="591.82" x2="265.62" y2="592.9"></line><line class="cls-14" x1="264.53" y1="551.58" x2="265.61" y2="550.5"></line><line class="cls-14" x1="242.42" y1="551.59" x2="241.34" y2="550.51"></line><line class="cls-14" x1="242.43" y1="591.83" x2="241.35" y2="592.91"></line><polygon class="cls-14" points="262.51 570.61 261.45 571.66 262.51 572.72 263.56 571.66 262.51 570.61"></polygon><line class="cls-14" x1="261.45" y1="571.67" x2="263.56" y2="571.67"></line><g><path class="cls-13" d="M196.15,217.23c.03,1.51.06,3.03.13,4.57.04.8.09,1.6.13,2.35.03.57.07,1.11.16,1.78.09.65.25,1.42-.23,1.73-.11.07-.25.12-.38.13-.77.06-.9-1.18-.97-2.24-.15-2.35.04-3.74.16-5.44.06-.9.1-1.9.14-2.89-.04-.99-.08-1.98-.14-2.89-.12-1.7-.3-3.09-.16-5.44.07-1.05.2-2.3.97-2.24.13.01.27.06.38.13.48.3.32,1.08.23,1.73-.1.67-.13,1.21-.16,1.78-.04.75-.09,1.56-.13,2.36-.07,1.54-.1,3.06-.13,4.57Z"></path><path class="cls-13" d="M191.45,217.23c.03,1.51.06,3.03.13,4.57.04.8.09,1.6.13,2.35.03.57.07,1.11.16,1.78.09.65.25,1.42-.23,1.73-.11.07-.25.12-.38.13-.77.06-.9-1.18-.97-2.24-.15-2.35.04-3.74.16-5.44.06-.9.1-1.9.14-2.89-.04-.99-.08-1.98-.14-2.89-.12-1.7-.3-3.09-.16-5.44.07-1.05.2-2.3.97-2.24.13.01.27.06.38.13.48.3.33,1.08.23,1.73-.1.67-.13,1.21-.16,1.78-.04.75-.09,1.56-.13,2.36-.07,1.54-.1,3.06-.13,4.57Z"></path><path class="cls-13" d="M186.76,217.23c.03,1.51.06,3.03.13,4.57.04.8.09,1.6.13,2.35.03.57.07,1.11.16,1.78.09.65.25,1.42-.23,1.73-.11.07-.25.12-.38.13-.77.06-.9-1.18-.97-2.24-.15-2.35.04-3.74.16-5.44.06-.9.1-1.9.14-2.89-.04-.99-.08-1.98-.14-2.89-.12-1.7-.3-3.09-.16-5.44.07-1.05.2-2.3.97-2.24.13.01.27.06.38.13.48.3.33,1.08.23,1.73-.1.67-.13,1.21-.16,1.78-.04.75-.09,1.56-.13,2.36-.07,1.54-.1,3.06-.13,4.57Z"></path></g><line class="cls-13" x1="155.9" y1="217.23" x2="226.31" y2="217.23"></line><g><path class="cls-13" d="M336.22,101.73c.03,1.51.06,3.03.13,4.57.04.8.09,1.6.13,2.35.03.57.07,1.11.16,1.78.09.65.25,1.42-.23,1.73-.11.07-.25.12-.38.13-.77.06-.9-1.18-.97-2.24-.15-2.35.04-3.74.16-5.44.06-.9.1-1.9.14-2.89-.04-.99-.08-1.98-.14-2.89-.12-1.7-.3-3.09-.16-5.44.07-1.05.2-2.3.97-2.24.13.01.27.06.38.13.48.31.33,1.08.23,1.73-.1.67-.13,1.21-.16,1.78-.04.75-.09,1.56-.13,2.35-.07,1.55-.1,3.06-.13,4.57Z"></path><path class="cls-13" d="M331.53,101.73c.03,1.51.06,3.03.13,4.57.04.8.09,1.6.13,2.35.03.57.07,1.11.16,1.78.09.65.25,1.42-.23,1.73-.11.07-.25.12-.38.13-.77.06-.9-1.18-.97-2.24-.15-2.35.04-3.74.16-5.44.06-.9.1-1.9.14-2.89-.04-.99-.08-1.98-.14-2.89-.12-1.7-.3-3.09-.16-5.44.07-1.05.2-2.3.97-2.24.13.01.27.06.38.13.48.31.33,1.08.23,1.73-.1.67-.13,1.21-.16,1.78-.04.75-.09,1.56-.13,2.35-.07,1.55-.1,3.06-.13,4.57Z"></path><path class="cls-13" d="M326.83,101.73c.03,1.51.06,3.03.13,4.57.04.8.09,1.6.13,2.35.03.57.07,1.11.16,1.78.09.65.25,1.42-.23,1.73-.11.07-.25.12-.38.13-.77.06-.9-1.18-.97-2.24-.15-2.35.04-3.74.16-5.44.06-.9.1-1.9.14-2.89-.04-.99-.08-1.98-.14-2.89-.12-1.7-.3-3.09-.16-5.44.07-1.05.2-2.3.97-2.24.13.01.27.06.38.13.48.31.32,1.08.23,1.73-.1.67-.13,1.21-.16,1.78-.04.75-.09,1.56-.13,2.35-.07,1.55-.1,3.06-.13,4.57Z"></path></g><line class="cls-13" x1="285.26" y1="101.73" x2="377.66" y2="101.73"></line><polyline class="cls-13" points="40.4 719.92 78.84 714.93 117.28 709.66 155.63 703.93 193.97 697.92 232.23 691.46 270.39 684.71 308.55 677.69 346.62 670.2 384.59 662.35 422.57 654.22 460.36 645.72 498.16 636.85 535.85 627.61"></polyline><line class="cls-13" x1="602.84" y1="498.34" x2="629.92" y2="498.34"></line><polyline class="cls-13" points="556.64 498.34 535.85 498.34 535.85 545.65"></polyline><line class="cls-13" x1="629.92" y1="498.34" x2="608.66" y2="282.4"></line><line class="cls-13" x1="608.66" y1="282.4" x2="574.01" y2="282.4"></line><line class="cls-13" x1="574.01" y1="282.4" x2="574.01" y2="117.19"></line><line class="cls-13" x1="652.51" y1="107.19" x2="646.73" y2="107.19"></line><polyline class="cls-13" points="543.98 625.67 578.27 616.8 612.55 607.74 646.83 598.41 680.92 588.71 714.93 578.82 686.56 500.65 638.23 500.65"></polyline><polyline class="cls-13" points="48.44 777.48 91.5 773.21 92.09 778.93"></polyline><polyline class="cls-13" points="608.47 221.72 602.74 222.25 607.93 274.27"></polyline><line class="cls-13" x1="638.13" y1="182.63" x2="644.64" y2="125.32"></line><line class="cls-13" x1="30.41" y1="784.93" x2="30.41" y2="779.17"></line><polygon class="cls-6" points="652.51 107.19 650.71 123.01 579.74 123.01 579.74 276.58 613.93 276.58 636.29 504.16 602.84 504.16 602.84 506.47 638.79 506.47 616.06 274.27 582.05 274.27 582.05 125.32 652.74 125.32 654.81 107.19 652.51 107.19"></polygon><polygon class="cls-6" points="541.67 545.65 541.67 504.16 556.64 504.16 556.64 506.47 543.98 506.47 543.98 545.65 535.85 545.65 541.67 545.65"></polygon><polygon class="cls-6" points="30.41 784.93 46.13 783.49 46.13 725 84.57 720.01 123.01 714.65 161.45 708.92 199.7 702.82 237.96 696.35 276.21 689.61 314.37 682.4 352.44 674.92 390.42 667.06 428.3 658.84 466.18 650.34 503.98 641.38 541.68 632.14 541.68 615.04 543.99 615.04 543.99 633.98 506.29 643.22 468.49 652.19 430.61 660.69 392.73 668.91 354.75 676.76 316.68 684.34 278.52 691.46 240.27 698.29 202.01 704.76 163.76 710.86 125.32 716.59 86.88 722.04 48.44 727.03 48.44 785.61 30.41 787.26 30.41 784.93"></polygon><polygon class="cls-6" points="543.98 631.58 640.66 606.15 641.22 608.36 543.98 633.98 543.98 631.58"></polygon><polygon class="cls-6" points="92.06 778.94 48.44 783.21 48.44 785.61 92.33 781.25 92.06 778.94"></polygon><polygon class="cls-6" points="616.06 274.27 610.78 221.51 608.47 221.72 608.47 221.69 613.75 274.27 616.06 274.27"></polygon><polygon class="cls-6" points="643.59 185.49 650.43 125.32 652.74 125.32 645.89 185.75 643.59 185.49"></polygon><polyline class="cls-6" points="607.09 282.4 608.67 282.4 608.85 283.88 614.12 278.15 613.93 276.58 612.36 276.58 607.09 282.4"></polyline><polyline class="cls-6" points="634.54 504.16 636.29 504.16 636.11 502.41 629.73 496.68 629.92 498.34 628.16 498.34 634.54 504.16"></polyline><polyline class="cls-6" points="535.85 626.22 535.85 627.61 534.47 627.98 540.2 632.5 541.67 632.14 541.67 630.66 535.85 626.22"></polyline><rect class="cls-6" x="40.41" y="726.2" width="5.73" height="2.31"></rect><polyline class="cls-6" points="40.4 776.65 40.4 778.22 38.74 778.4 43.45 782.56 44.56 783.58 46.13 783.49 46.13 781.92 40.4 776.65"></polyline><polyline class="cls-6" points="116.27 709.75 117.1 715.48 114.79 715.85 113.96 710.12 116.27 709.75"></polyline><polyline class="cls-6" points="184.64 699.4 185.57 705.13 183.26 705.5 182.33 699.77 184.64 699.4"></polyline><polyline class="cls-6" points="252.83 687.85 253.85 693.58 251.63 693.95 250.61 688.31 252.83 687.85"></polyline><polyline class="cls-6" points="320.84 675.29 321.95 680.92 319.73 681.38 318.62 675.75 320.84 675.29"></polyline><polyline class="cls-6" points="388.66 661.52 389.86 667.15 387.64 667.62 386.44 661.98 388.66 661.52"></polyline><polyline class="cls-6" points="456.3 646.64 457.59 652.28 455.28 652.83 453.99 647.2 456.3 646.64"></polyline><polyline class="cls-6" points="523.56 630.66 524.95 636.29 522.73 636.85 521.35 631.21 523.56 630.66"></polyline><polyline class="cls-6" points="48.54 718.9 49.28 724.63 46.97 724.9 46.32 719.18 48.54 718.9"></polyline><rect class="cls-6" x="535.85" y="615.04" width="5.82" height="2.31"></rect><rect class="cls-6" x="556.64" y="498.34" width="2.31" height="8.13"></rect><rect class="cls-6" x="600.53" y="498.34" width="2.31" height="8.13"></rect><rect class="cls-6" x="535.85" y="505.27" width="5.82" height="2.31"></rect><rect class="cls-6" x="535.85" y="543.34" width="5.82" height="2.31"></rect><rect class="cls-6" x="542.78" y="498.34" width="2.31" height="5.82"></rect><rect class="cls-6" x="574.01" y="265.03" width="5.73" height="2.31"></rect><rect class="cls-6" x="580.94" y="276.58" width="2.31" height="5.82"></rect><rect class="cls-6" x="574.01" y="195.73" width="5.73" height="2.31"></rect><polyline class="cls-6" points="609.03 285.73 614.76 285.17 615.04 287.48 609.22 288.04 609.03 285.73"></polyline><polyline class="cls-6" points="615.78 354.66 621.51 354.1 621.79 356.41 616.06 356.97 615.78 354.66"></polyline><polyline class="cls-6" points="622.52 423.68 628.35 423.13 628.53 425.44 622.8 425.99 622.52 423.68"></polyline><rect class="cls-6" x="574.01" y="124.12" width="5.73" height="2.31"></rect><rect class="cls-6" x="580.95" y="117.19" width="2.31" height="5.82"></rect><polyline class="cls-6" points="645.72 115.62 645.53 117.19 643.96 117.19 649.14 123.01 650.71 123.01 650.89 121.44 645.72 115.62"></polyline><polygon class="cls-6" points="639.17 600.47 640.66 606.15 638.45 606.71 636.95 601.1 639.17 600.47"></polygon><polygon class="cls-6" points="638.13 182.63 643.84 183.27 643.59 185.49 637.85 184.84 638.13 182.63"></polygon><polyline class="cls-6" points="602.74 222.28 608.47 221.72 608.66 224.03 602.93 224.59 602.74 222.28"></polyline><polygon class="cls-15" points="134.35 234.65 145.91 234.65 145.9 240.27 155.9 240.27 155.9 236.2 160.52 236.2 160.52 230.38 155.9 230.38 155.9 202.66 226.31 202.66 226.31 230.38 222.89 230.38 222.89 236.2 228.62 236.2 228.62 271.96 264.47 271.96 264.47 266.23 234.44 266.23 234.44 183.07 310.67 183.07 310.67 266.23 306.05 266.23 306.05 271.96 319.91 271.96 319.91 266.23 316.4 266.23 316.4 183.07 406.49 183.07 406.49 266.23 403.07 266.23 403.07 271.96 416.93 271.96 416.93 266.23 412.31 266.23 412.31 177.25 285.26 177.25 285.26 169.77 279.44 169.77 279.44 177.25 227.86 177.25 227.86 104.53 183.62 104.53 183.62 99.63 144.35 99.63 144.35 23.4 183.62 23.4 183.62 10.38 279.44 10.38 279.44 128.09 285.26 128.09 285.26 120.7 296.81 120.7 296.81 114.88 285.26 114.88 285.26 87.16 377.66 87.16 377.66 114.88 366.11 114.88 366.11 120.7 574.01 120.7 574.01 117.19 645.53 117.19 646.73 107.19 387.67 107.19 387.67 77.16 289.44 77.16 289.44 .38 134.35 .38 134.35 114.53 217.86 114.53 217.86 192.66 134.35 192.66 134.35 234.65"></polygon><polygon class="cls-10" points="134.35 234.65 145.91 234.65 145.9 240.27 155.9 240.27 155.9 236.2 160.52 236.2 160.52 230.38 155.9 230.38 155.9 202.66 226.31 202.66 226.31 230.38 222.89 230.38 222.89 236.2 228.62 236.2 228.62 271.96 264.47 271.96 264.47 266.23 234.44 266.23 234.44 183.07 310.67 183.07 310.67 266.23 306.05 266.23 306.05 271.96 319.91 271.96 319.91 266.23 316.4 266.23 316.4 183.07 406.49 183.07 406.49 266.23 403.07 266.23 403.07 271.96 416.93 271.96 416.93 266.23 412.31 266.23 412.31 177.25 285.26 177.25 285.26 169.77 279.44 169.77 279.44 177.25 227.86 177.25 227.86 104.53 183.62 104.53 183.62 99.63 144.35 99.63 144.35 23.4 183.62 23.4 183.62 10.38 279.44 10.38 279.44 128.09 285.26 128.09 285.26 120.7 296.81 120.7 296.81 114.88 285.26 114.88 285.26 87.16 377.66 87.16 377.66 114.88 366.11 114.88 366.11 120.7 574.01 120.7 574.01 117.19 645.53 117.19 646.73 107.19 387.67 107.19 387.67 77.16 289.44 77.16 289.44 .38 134.35 .38 134.35 114.53 217.86 114.53 217.86 192.66 134.35 192.66 134.35 234.65"></polygon><polygon class="cls-15" points="574.01 266.23 574.01 282.4 582.05 282.4 582.05 288.78 469.42 288.78 469.42 271.96 458.51 271.96 458.51 266.23 574.01 266.23"></polygon><polygon class="cls-10" points="574.01 266.23 574.01 282.4 582.05 282.4 582.05 288.78 469.42 288.78 469.42 271.96 458.51 271.96 458.51 266.23 574.01 266.23"></polygon><polygon class="cls-15" points="522.46 630.93 535.85 627.61 535.85 615.04 549.71 615.04 549.71 545.65 535.85 545.65 535.85 544.54 530.12 544.54 530.12 623.17 521.07 625.39 522.46 630.93"></polygon><polygon class="cls-10" points="522.46 630.93 535.85 627.61 535.85 615.04 549.71 615.04 549.71 545.65 535.85 545.65 535.85 544.54 530.12 544.54 530.12 623.17 521.07 625.39 522.46 630.93"></polygon><polygon class="cls-15" points="183.35 699.59 193.97 697.92 232.23 691.46 270.39 684.71 285.53 681.92 284.71 676.3 266.78 679.72 266.78 668.17 239.06 668.17 239.06 481.06 266.78 481.06 266.78 475.24 252.92 475.24 252.92 468.31 247.1 468.31 247.1 475.24 230.93 475.24 230.93 579.19 214.21 579.19 214.21 688.68 182.61 693.86 183.53 699.59 183.35 699.59"></polygon><polygon class="cls-10" points="183.35 699.59 193.97 697.92 232.23 691.46 270.39 684.71 285.53 681.92 284.71 676.3 266.78 679.72 266.78 668.17 239.06 668.17 239.06 481.06 266.78 481.06 266.78 475.24 252.92 475.24 252.92 468.31 247.1 468.31 247.1 475.24 230.93 475.24 230.93 579.19 214.21 579.19 214.21 688.68 182.61 693.86 183.53 699.59 183.35 699.59"></polygon><polygon class="cls-15" points="145.91 317.26 145.91 286.47 155.91 286.47 155.91 307.26 191.66 307.26 191.66 327.4 293.3 327.4 293.3 333.22 289.89 333.22 289.89 386.35 366.11 386.35 366.11 333.22 362.6 333.22 362.6 327.4 371.84 327.4 371.84 419.8 366.11 419.8 366.11 392.08 287.58 392.08 287.58 419.8 252.93 419.8 252.93 426.68 247.1 426.68 247.1 419.8 237.86 419.8 237.86 414.07 281.75 414.07 281.75 333.22 191.66 333.22 191.66 414.07 196.33 414.07 196.33 419.8 182.42 419.8 182.42 457.96 176.7 457.96 176.7 421 10.38 421 10.38 497.23 51.96 497.23 51.96 504.16 176.7 504.16 176.7 499.54 182.42 499.54 182.42 509.89 59.99 509.89 43.82 509.89 43.82 719.45 40.41 719.91 40.41 778.22 30.41 779.17 30.41 512.96 .38 512.96 .38 409.8 182.42 409.8 182.42 317.26 145.91 317.26"></polygon><polygon class="cls-10" points="145.91 317.26 145.91 286.47 155.91 286.47 155.91 307.26 191.66 307.26 191.66 327.4 293.3 327.4 293.3 333.22 289.89 333.22 289.89 386.35 366.11 386.35 366.11 333.22 362.6 333.22 362.6 327.4 371.84 327.4 371.84 419.8 366.11 419.8 366.11 392.08 287.58 392.08 287.58 419.8 252.93 419.8 252.93 426.68 247.1 426.68 247.1 419.8 237.86 419.8 237.86 414.07 281.75 414.07 281.75 333.22 191.66 333.22 191.66 414.07 196.33 414.07 196.33 419.8 182.42 419.8 182.42 457.96 176.7 457.96 176.7 421 10.38 421 10.38 497.23 51.96 497.23 51.96 504.16 176.7 504.16 176.7 499.54 182.42 499.54 182.42 509.89 59.99 509.89 43.82 509.89 43.82 719.45 40.41 719.91 40.41 778.22 30.41 779.17 30.41 512.96 .38 512.96 .38 409.8 182.42 409.8 182.42 317.26 145.91 317.26"></polygon><g><path class="cls-17" d="M133.75,263.22c.08.02.14.07.14.14s-.06.13-.14.14c-3.3.56-4.94,2.74-4.94,6.02v3.84c0,1.16-1.01,1.98-2.66,2.2-.34.05-.61-.23-.46-.47.31-.46.47-1.06.47-1.78v-3.48c0-2.95,1.67-5.22,4.98-6.17.37-.11.37-.5,0-.61-3.31-.96-4.98-3.22-4.98-6.18v-3.48c0-.72-.16-1.32-.47-1.78-.16-.23.12-.51.46-.47,1.64.22,2.66,1.05,2.66,2.21v3.84c0,3.29,1.64,5.47,4.95,6.02h0Z"></path><path class="cls-11" d="M133.75,263.22c.08.02.14.07.14.14s-.06.13-.14.14c-3.3.56-4.94,2.74-4.94,6.02v3.84c0,1.16-1.01,1.98-2.66,2.2-.34.05-.61-.23-.46-.47.31-.46.47-1.06.47-1.78v-3.48c0-2.95,1.67-5.22,4.98-6.17.37-.11.37-.5,0-.61-3.31-.96-4.98-3.22-4.98-6.18v-3.48c0-.72-.16-1.32-.47-1.78-.16-.23.12-.51.46-.47,1.64.22,2.66,1.05,2.66,2.21v3.84c0,3.29,1.64,5.47,4.95,6.02h0Z"></path></g><g><path class="cls-15" d="M79.66,595.41h2.52c1.9,0,2.97.89,2.97,2.53s-1.07,2.54-2.97,2.54h-1.72v3.99h-.8v-9.06ZM82.1,599.76c1.41,0,2.24-.61,2.24-1.81s-.81-1.81-2.24-1.81h-1.64v3.62h1.64Z"></path><path class="cls-15" d="M86.67,598.06h.78v1.09c.43-.78,1.31-1.18,2.02-1.18.33,0,.66.07.99.24l-.39.7c-.21-.1-.51-.17-.77-.17-.68,0-1.46.36-1.74,1.3-.08.27-.12.57-.12,1.27v3.15h-.78v-6.41Z"></path><path class="cls-15" d="M91.72,595.41h.94v1.39h-.94v-1.39ZM91.81,598.06h.77v6.41h-.77v-6.41Z"></path><path class="cls-15" d="M94.61,598.06h.78v1.1c.38-.84,1.11-1.19,1.88-1.19.91,0,1.57.4,1.89,1.25.4-.83,1.09-1.25,2-1.25,1.55,0,2.13,1.16,2.13,2.68v3.82h-.78v-3.64c0-1.33-.39-2.18-1.52-2.18-1.02,0-1.65.77-1.65,2.26v3.57h-.78v-3.76c0-1.4-.52-2.07-1.5-2.07-1.03,0-1.67.79-1.67,2.26v3.57h-.78v-6.41Z"></path><path class="cls-15" d="M109.44,603.27c-.43.82-1.25,1.29-2.25,1.29-1.44,0-2.31-.77-2.31-1.94,0-.69.29-1.16.72-1.44.46-.31,1.09-.42,1.77-.42h2.05v-.28c0-1.19-.62-1.83-1.82-1.83-.79,0-1.4.29-1.98,1.02l-.56-.48c.68-.84,1.53-1.21,2.59-1.21,1.63,0,2.54.89,2.54,2.51v3.99h-.71l-.04-1.2ZM107.26,603.92c1.18,0,2.17-.93,2.17-2.2v-.36h-1.95c-.51,0-1.03.08-1.37.32-.28.21-.44.51-.44.94,0,.79.6,1.3,1.6,1.3Z"></path><path class="cls-15" d="M112.15,598.06h.78v1.09c.43-.78,1.31-1.18,2.02-1.18.33,0,.66.07.99.24l-.39.7c-.21-.1-.51-.17-.77-.17-.68,0-1.46.36-1.74,1.3-.08.27-.12.57-.12,1.27v3.15h-.78v-6.41Z"></path><path class="cls-15" d="M119.2,604.27l-2.55-6.21h.86l2.1,5.42,2.11-5.42h.85l-3.69,9.05h-.84l1.17-2.84Z"></path><path class="cls-15" d="M127.46,595.41h2.72c1.68,0,2.68.84,2.68,2.25,0,.94-.46,1.68-1.24,2,1.1.25,1.7,1.07,1.7,2.31,0,1.61-1.02,2.5-2.88,2.5h-2.97v-9.06ZM130.44,599.41c.98,0,1.63-.64,1.63-1.64s-.69-1.61-1.88-1.61h-1.91v3.26h2.16ZM130.38,603.72c1.42,0,2.14-.6,2.14-1.79,0-1.13-.66-1.79-1.79-1.79h-2.46v3.58h2.11Z"></path><path class="cls-15" d="M134.79,601.31c0-1.84.99-3.34,2.81-3.34,1.96,0,2.76,1.53,2.76,2.94,0,.1-.01.4-.04.55h-4.76c.03,1.51.84,2.39,2.14,2.39.82,0,1.35-.23,1.91-.83l.55.49c-.73.75-1.43,1.05-2.46,1.05-1.89,0-2.91-1.41-2.91-3.25ZM139.61,600.88c0-.08,0-.16,0-.24,0-.92-.58-2.01-2-2.01-1.23,0-1.98.98-2.07,2.26h4.06Z"></path><path class="cls-15" d="M141.77,601.26c0-1.96,1.29-3.29,2.92-3.29,1.05,0,1.87.54,2.29,1.36v-3.92h.77v9.06h-.77v-1.26c-.44.84-1.25,1.35-2.29,1.35-1.72,0-2.92-1.42-2.92-3.3ZM144.81,603.84c1.3,0,2.23-1.08,2.23-2.58s-.93-2.58-2.23-2.58-2.26,1.09-2.26,2.58.95,2.58,2.26,2.58Z"></path><path class="cls-15" d="M149.79,598.06h.78v1.09c.43-.78,1.31-1.18,2.02-1.18.33,0,.66.07.99.24l-.39.7c-.21-.1-.51-.17-.77-.17-.68,0-1.46.36-1.74,1.3-.08.27-.12.57-.12,1.27v3.15h-.78v-6.41Z"></path><path class="cls-15" d="M154.17,601.26c0-1.92,1.25-3.29,3.05-3.29s3.04,1.37,3.04,3.29-1.27,3.3-3.04,3.3-3.05-1.37-3.05-3.3ZM157.22,603.87c1.37,0,2.26-1.04,2.26-2.61s-.9-2.61-2.26-2.61-2.28,1.05-2.28,2.61.9,2.61,2.28,2.61Z"></path><path class="cls-15" d="M161.7,601.26c0-1.92,1.25-3.29,3.05-3.29s3.04,1.37,3.04,3.29-1.27,3.3-3.04,3.3-3.05-1.37-3.05-3.3ZM164.75,603.87c1.37,0,2.26-1.04,2.26-2.61s-.9-2.61-2.26-2.61-2.28,1.05-2.28,2.61.9,2.61,2.28,2.61Z"></path><path class="cls-15" d="M169.54,598.06h.78v1.1c.38-.84,1.11-1.19,1.88-1.19.91,0,1.57.4,1.89,1.25.4-.83,1.09-1.25,2-1.25,1.55,0,2.13,1.16,2.13,2.68v3.82h-.78v-3.64c0-1.33-.39-2.18-1.52-2.18-1.02,0-1.65.77-1.65,2.26v3.57h-.78v-3.76c0-1.4-.52-2.07-1.5-2.07-1.03,0-1.67.79-1.67,2.26v3.57h-.78v-6.41Z"></path></g><g><path class="cls-15" d="M467.55,188.91h2.72c1.68,0,2.68.84,2.68,2.25,0,.94-.46,1.68-1.24,2,1.1.25,1.7,1.07,1.7,2.31,0,1.61-1.02,2.5-2.88,2.5h-2.97v-9.06ZM470.52,192.91c.98,0,1.63-.64,1.63-1.64s-.69-1.61-1.88-1.61h-1.91v3.26h2.16ZM470.47,197.22c1.42,0,2.14-.6,2.14-1.79,0-1.13-.66-1.79-1.79-1.79h-2.46v3.58h2.11Z"></path><path class="cls-15" d="M474.85,194.81c0-1.84.99-3.34,2.81-3.34,1.96,0,2.76,1.53,2.76,2.94,0,.1-.01.4-.04.55h-4.76c.03,1.51.84,2.39,2.14,2.39.82,0,1.35-.23,1.91-.83l.55.49c-.73.75-1.43,1.05-2.46,1.05-1.89,0-2.91-1.41-2.91-3.25ZM479.67,194.38c0-.08,0-.16,0-.24,0-.92-.58-2.02-2-2.02-1.23,0-1.98.98-2.07,2.26h4.06Z"></path><path class="cls-15" d="M481.82,194.76c0-1.96,1.29-3.29,2.92-3.29,1.05,0,1.87.54,2.29,1.36v-3.92h.77v9.06h-.77v-1.26c-.44.85-1.25,1.35-2.29,1.35-1.72,0-2.92-1.42-2.92-3.3ZM484.86,197.34c1.3,0,2.23-1.08,2.23-2.58s-.93-2.58-2.23-2.58-2.26,1.09-2.26,2.58.95,2.58,2.26,2.58Z"></path><path class="cls-15" d="M489.83,191.56h.78v1.09c.43-.78,1.31-1.18,2.02-1.18.33,0,.66.07.99.24l-.39.7c-.21-.1-.51-.17-.77-.17-.68,0-1.46.36-1.74,1.3-.08.27-.12.57-.12,1.27v3.15h-.78v-6.41Z"></path><path class="cls-15" d="M494.21,194.76c0-1.92,1.25-3.29,3.05-3.29s3.04,1.36,3.04,3.29-1.27,3.3-3.04,3.3-3.05-1.36-3.05-3.3ZM497.26,197.37c1.37,0,2.26-1.04,2.26-2.61s-.9-2.61-2.26-2.61-2.28,1.05-2.28,2.61.9,2.61,2.28,2.61Z"></path><path class="cls-15" d="M501.75,194.76c0-1.92,1.25-3.29,3.05-3.29s3.04,1.36,3.04,3.29-1.27,3.3-3.04,3.3-3.05-1.36-3.05-3.3ZM504.79,197.37c1.37,0,2.26-1.04,2.26-2.61s-.9-2.61-2.26-2.61-2.28,1.05-2.28,2.61.9,2.61,2.28,2.61Z"></path><path class="cls-15" d="M509.58,191.56h.78v1.1c.38-.85,1.11-1.19,1.88-1.19.91,0,1.57.4,1.89,1.25.4-.83,1.09-1.25,2-1.25,1.55,0,2.13,1.16,2.13,2.68v3.82h-.78v-3.64c0-1.33-.39-2.18-1.52-2.18-1.02,0-1.65.77-1.65,2.26v3.57h-.78v-3.76c0-1.4-.52-2.07-1.5-2.07-1.03,0-1.67.79-1.67,2.26v3.57h-.78v-6.41Z"></path></g><g><path class="cls-15" d="M466.11,390.03h.81v8.33h4.18v.73h-4.99v-9.06Z"></path><path class="cls-15" d="M472.24,390.03h.94v1.39h-.94v-1.39ZM472.32,392.69h.77v6.41h-.77v-6.41Z"></path><path class="cls-15" d="M474.49,392.69h.86l2.1,5.42,2.11-5.42h.85l-2.61,6.41h-.68l-2.63-6.41Z"></path><path class="cls-15" d="M481.74,390.03h.94v1.39h-.94v-1.39ZM481.83,392.69h.77v6.41h-.77v-6.41Z"></path><path class="cls-15" d="M484.64,392.69h.78v1.05c.4-.76,1.12-1.14,2.01-1.14,1.38,0,2.2.81,2.2,2.51v3.99h-.78v-3.71c0-1.45-.55-2.11-1.61-2.11-1.16,0-1.83.79-1.83,2.55v3.27h-.78v-6.41Z"></path><path class="cls-15" d="M491.09,399.86s0-.1.03-.26l1.11-.88c-.57-.22-.96-.59-.96-1.26,0-.53.27-.9.72-1.2-.36-.37-.56-.87-.56-1.45,0-1.3,1.04-2.2,2.39-2.2.64,0,1.22.21,1.64.58l1.02-.86.4.49-1,.88c.19.33.3.71.3,1.14,0,1.28-.96,2.13-2.33,2.13-.53,0-.99-.12-1.37-.34-.31.18-.45.42-.45.72,0,.66.63.83,1.62.98,1.6.25,2.99.44,2.99,1.75,0,1.16-1.05,1.78-2.7,1.78-1.82,0-2.85-.7-2.85-2ZM493.95,401.25c1.09,0,1.92-.34,1.92-1.08,0-.86-1.16-.96-2.31-1.14-.31-.05-.6-.1-.89-.17l-.8.92c-.01.09-.01.11-.01.15,0,.9.79,1.33,2.09,1.33ZM493.82,396.32c.98,0,1.59-.65,1.59-1.53s-.64-1.56-1.58-1.56-1.62.65-1.62,1.55.63,1.55,1.61,1.55Z"></path><path class="cls-15" d="M501.58,390.03h2.52c1.99,0,2.97.93,2.97,2.5,0,1.25-.64,2.07-1.85,2.38l2.44,4.19h-.92l-2.34-4.07c-.21,0-.44,0-.65,0h-1.36v4.06h-.81v-9.06ZM504.02,394.32c1.38,0,2.24-.55,2.24-1.78s-.88-1.77-2.24-1.77h-1.64v3.56h1.64Z"></path><path class="cls-15" d="M508.58,395.88c0-1.92,1.25-3.29,3.05-3.29s3.04,1.36,3.04,3.29-1.27,3.3-3.04,3.3-3.05-1.36-3.05-3.3ZM511.63,398.49c1.37,0,2.26-1.04,2.26-2.61s-.9-2.61-2.26-2.61-2.28,1.05-2.28,2.61.9,2.61,2.28,2.61Z"></path><path class="cls-15" d="M516.12,395.88c0-1.92,1.25-3.29,3.05-3.29s3.04,1.36,3.04,3.29-1.27,3.3-3.04,3.3-3.05-1.36-3.05-3.3ZM519.17,398.49c1.37,0,2.26-1.04,2.26-2.61s-.9-2.61-2.26-2.61-2.28,1.05-2.28,2.61.9,2.61,2.28,2.61Z"></path><path class="cls-15" d="M523.96,392.69h.78v1.1c.38-.85,1.11-1.19,1.88-1.19.91,0,1.57.4,1.89,1.25.4-.83,1.09-1.25,2-1.25,1.55,0,2.13,1.16,2.13,2.68v3.82h-.78v-3.64c0-1.33-.39-2.18-1.52-2.18-1.02,0-1.65.77-1.65,2.26v3.57h-.78v-3.76c0-1.4-.52-2.07-1.5-2.07-1.03,0-1.67.79-1.67,2.26v3.57h-.78v-6.41Z"></path></g><g><path class="cls-15" d="M414.26,547.91h2.43c2.94,0,4.62,1.68,4.62,4.6s-1.64,4.46-4.63,4.46h-2.42v-9.06ZM416.61,556.22c2.5,0,3.89-1.16,3.89-3.74s-1.4-3.83-3.82-3.83h-1.61v7.57h1.54Z"></path><path class="cls-15" d="M422.92,547.91h.94v1.39h-.94v-1.39ZM423,550.56h.77v6.41h-.77v-6.41Z"></path><path class="cls-15" d="M425.81,550.56h.78v1.05c.4-.76,1.12-1.14,2.01-1.14,1.38,0,2.2.81,2.2,2.51v3.99h-.78v-3.71c0-1.45-.55-2.11-1.61-2.11-1.16,0-1.83.79-1.83,2.55v3.27h-.78v-6.41Z"></path><path class="cls-15" d="M432.69,547.91h.94v1.39h-.94v-1.39ZM432.77,550.56h.77v6.41h-.77v-6.41Z"></path><path class="cls-15" d="M435.58,550.56h.78v1.05c.4-.76,1.12-1.14,2.01-1.14,1.38,0,2.2.81,2.2,2.51v3.99h-.78v-3.71c0-1.45-.55-2.11-1.61-2.11-1.16,0-1.83.79-1.83,2.55v3.27h-.78v-6.41Z"></path><path class="cls-15" d="M442.04,557.73s0-.1.03-.26l1.11-.88c-.57-.22-.96-.59-.96-1.26,0-.53.27-.9.72-1.2-.36-.37-.56-.87-.56-1.45,0-1.3,1.04-2.2,2.39-2.2.64,0,1.22.21,1.64.58l1.02-.86.4.49-1,.88c.19.33.3.71.3,1.14,0,1.28-.96,2.13-2.33,2.13-.53,0-.99-.12-1.37-.34-.31.17-.45.42-.45.71,0,.66.63.83,1.62.98,1.6.25,2.99.44,2.99,1.75,0,1.16-1.05,1.78-2.7,1.78-1.82,0-2.85-.7-2.85-2ZM444.89,559.12c1.09,0,1.92-.34,1.92-1.08,0-.86-1.16-.96-2.31-1.14-.31-.05-.6-.1-.89-.17l-.8.92c-.01.09-.01.11-.01.15,0,.9.79,1.33,2.09,1.33ZM444.76,554.2c.98,0,1.59-.65,1.59-1.53s-.64-1.56-1.58-1.56-1.62.65-1.62,1.55.63,1.55,1.61,1.55Z"></path><path class="cls-15" d="M452.52,547.91h2.52c1.99,0,2.97.93,2.97,2.5,0,1.25-.64,2.07-1.85,2.38l2.44,4.19h-.92l-2.34-4.07c-.21,0-.44,0-.65,0h-1.36v4.06h-.81v-9.06ZM454.96,552.19c1.38,0,2.24-.55,2.24-1.78s-.88-1.77-2.24-1.77h-1.64v3.56h1.64Z"></path><path class="cls-15" d="M459.53,553.76c0-1.92,1.25-3.29,3.05-3.29s3.04,1.37,3.04,3.29-1.27,3.3-3.04,3.3-3.05-1.37-3.05-3.3ZM462.57,556.37c1.37,0,2.26-1.04,2.26-2.61s-.9-2.61-2.26-2.61-2.28,1.05-2.28,2.61.9,2.61,2.28,2.61Z"></path><path class="cls-15" d="M467.06,553.76c0-1.92,1.25-3.29,3.05-3.29s3.04,1.37,3.04,3.29-1.27,3.3-3.04,3.3-3.05-1.37-3.05-3.3ZM470.11,556.37c1.37,0,2.26-1.04,2.26-2.61s-.9-2.61-2.26-2.61-2.28,1.05-2.28,2.61.9,2.61,2.28,2.61Z"></path><path class="cls-15" d="M474.9,550.56h.78v1.1c.38-.84,1.11-1.19,1.88-1.19.91,0,1.57.4,1.89,1.25.4-.83,1.09-1.25,2-1.25,1.55,0,2.13,1.16,2.13,2.68v3.82h-.78v-3.64c0-1.33-.39-2.18-1.52-2.18-1.02,0-1.65.77-1.65,2.26v3.57h-.78v-3.76c0-1.4-.52-2.07-1.5-2.07-1.03,0-1.67.79-1.67,2.26v3.57h-.78v-6.41Z"></path></g><g><path class="cls-15" d="M604.23,547.91h2.72c1.68,0,2.68.84,2.68,2.25,0,.94-.46,1.68-1.24,2,1.1.25,1.7,1.07,1.7,2.31,0,1.61-1.02,2.5-2.88,2.5h-2.97v-9.06ZM607.21,551.91c.98,0,1.63-.64,1.63-1.64s-.69-1.61-1.88-1.61h-1.91v3.26h2.16ZM607.15,556.22c1.42,0,2.14-.6,2.14-1.79,0-1.13-.66-1.79-1.79-1.79h-2.46v3.58h2.11Z"></path><path class="cls-15" d="M616.06,555.77c-.43.82-1.25,1.29-2.25,1.29-1.44,0-2.31-.77-2.31-1.94,0-.69.29-1.16.72-1.44.46-.31,1.09-.42,1.77-.42h2.05v-.28c0-1.19-.62-1.83-1.82-1.83-.79,0-1.4.29-1.98,1.02l-.56-.48c.68-.84,1.53-1.21,2.59-1.21,1.63,0,2.54.89,2.54,2.51v3.99h-.71l-.04-1.2ZM613.89,556.42c1.18,0,2.17-.93,2.17-2.2v-.36h-1.95c-.51,0-1.03.08-1.37.32-.28.21-.44.51-.44.94,0,.79.6,1.3,1.6,1.3Z"></path><path class="cls-15" d="M618.65,555.64v-7.73h.77v7.59c0,.6.23.84.64.84.17,0,.38-.04.61-.12v.67c-.29.11-.6.17-.84.17-.72,0-1.18-.44-1.18-1.42Z"></path><path class="cls-15" d="M621.62,553.76c0-1.83,1.06-3.29,2.86-3.29,1.17,0,2.09.58,2.51,1.74l-.7.27c-.27-.82-.9-1.33-1.81-1.33-1.42,0-2.09,1.25-2.09,2.61s.68,2.62,2.09,2.62c.91,0,1.53-.51,1.81-1.33l.7.27c-.42,1.16-1.34,1.75-2.51,1.75-1.8,0-2.86-1.46-2.86-3.3Z"></path><path class="cls-15" d="M628.22,553.76c0-1.92,1.25-3.29,3.05-3.29s3.04,1.37,3.04,3.29-1.27,3.3-3.04,3.3-3.05-1.37-3.05-3.3ZM631.27,556.37c1.37,0,2.26-1.04,2.26-2.61s-.9-2.61-2.26-2.61-2.28,1.05-2.28,2.61.9,2.61,2.28,2.61Z"></path><path class="cls-15" d="M636.06,550.56h.78v1.05c.4-.76,1.12-1.14,2.01-1.14,1.38,0,2.2.81,2.2,2.51v3.99h-.78v-3.71c0-1.45-.55-2.11-1.61-2.11-1.16,0-1.83.79-1.83,2.55v3.27h-.78v-6.41Z"></path><path class="cls-15" d="M644.77,556.77l-2.55-6.21h.86l2.1,5.42,2.11-5.42h.85l-3.69,9.05h-.84l1.17-2.84Z"></path></g><g><path class="cls-15" d="M299.58,634.83h.81v4.86l4.65-4.86h1.09l-3.45,3.54,3.48,5.52h-.95l-3.11-4.93-1.71,1.75v3.17h-.81v-9.06Z"></path><path class="cls-15" d="M307.31,634.83h.94v1.39h-.94v-1.39ZM307.4,637.48h.77v6.41h-.77v-6.41Z"></path><path class="cls-15" d="M310.96,642.41v-4.31h-1.42v-.62h1.42v-1.85l.79-.46v2.31h1.54v.62h-1.54v4.12c0,.71.22,1.11.81,1.11.19,0,.46-.04.73-.12v.62c-.32.1-.64.16-.92.16-.85,0-1.4-.49-1.4-1.57Z"></path><path class="cls-15" d="M314.32,640.68c0-1.83,1.06-3.29,2.86-3.29,1.17,0,2.09.58,2.51,1.74l-.7.27c-.27-.82-.9-1.33-1.81-1.33-1.42,0-2.09,1.25-2.09,2.61s.68,2.62,2.09,2.62c.91,0,1.53-.51,1.81-1.33l.7.27c-.42,1.16-1.34,1.75-2.51,1.75-1.8,0-2.86-1.46-2.86-3.3Z"></path><path class="cls-15" d="M321.32,634.83h.78v3.69c.4-.75,1.1-1.13,2.01-1.13,1.4,0,2.2.85,2.2,2.51v3.99h-.78v-3.71c0-1.43-.53-2.11-1.61-2.11-1.18,0-1.83.83-1.83,2.55v3.27h-.78v-9.06Z"></path><path class="cls-15" d="M327.95,640.73c0-1.84.99-3.34,2.81-3.34,1.96,0,2.76,1.53,2.76,2.94,0,.1-.01.4-.04.55h-4.76c.03,1.51.84,2.39,2.14,2.39.82,0,1.35-.23,1.91-.83l.55.49c-.73.75-1.43,1.05-2.46,1.05-1.89,0-2.91-1.41-2.91-3.25ZM332.77,640.3c0-.08,0-.16,0-.24,0-.92-.58-2.01-2-2.01-1.23,0-1.98.98-2.07,2.26h4.06Z"></path><path class="cls-15" d="M335.25,637.48h.78v1.05c.4-.76,1.12-1.14,2.01-1.14,1.38,0,2.2.81,2.2,2.51v3.99h-.78v-3.71c0-1.45-.55-2.11-1.61-2.11-1.16,0-1.83.79-1.83,2.55v3.27h-.78v-6.41Z"></path></g><g><path class="cls-15" d="M350.41,220.41h5.86v.73h-5.06v3.37h4.39v.73h-4.39v4.24h-.81v-9.06Z"></path><path class="cls-15" d="M357.59,228.14v-7.73h.77v7.59c0,.6.23.85.64.85.17,0,.38-.04.61-.12v.67c-.29.11-.6.17-.84.17-.72,0-1.18-.44-1.18-1.42Z"></path><path class="cls-15" d="M360.56,226.31c0-1.84.99-3.34,2.81-3.34,1.96,0,2.76,1.53,2.76,2.94,0,.1-.01.4-.04.55h-4.76c.03,1.51.84,2.39,2.14,2.39.82,0,1.35-.23,1.91-.83l.55.49c-.73.75-1.43,1.05-2.46,1.05-1.89,0-2.91-1.41-2.91-3.25ZM365.37,225.88c0-.08,0-.16,0-.24,0-.92-.58-2.02-2-2.02-1.23,0-1.98.98-2.07,2.26h4.06Z"></path><path class="cls-15" d="M369.51,226.25l-2.37-3.19h.96l1.92,2.65,1.94-2.65h.94l-2.38,3.19,2.39,3.22h-.96l-1.93-2.67-1.94,2.67h-.94l2.37-3.22Z"></path></g><g><path class="cls-15" d="M190.29,286.94h5.86v.73h-5.06v3.37h4.39v.73h-4.39v4.24h-.81v-9.06Z"></path><path class="cls-15" d="M196.88,292.79c0-1.92,1.25-3.29,3.05-3.29s3.04,1.37,3.04,3.29-1.27,3.3-3.04,3.3-3.05-1.36-3.05-3.3ZM199.93,295.4c1.37,0,2.26-1.04,2.26-2.61s-.9-2.61-2.26-2.61-2.28,1.05-2.28,2.61.9,2.61,2.28,2.61Z"></path><path class="cls-15" d="M206.45,295.8l-2.55-6.21h.86l2.1,5.42,2.11-5.42h.85l-3.69,9.05h-.84l1.17-2.84Z"></path><path class="cls-15" d="M210.77,292.84c0-1.84.99-3.34,2.81-3.34,1.96,0,2.76,1.53,2.76,2.94,0,.1-.01.4-.04.55h-4.76c.03,1.51.84,2.39,2.14,2.39.82,0,1.35-.23,1.91-.83l.55.49c-.73.75-1.43,1.05-2.46,1.05-1.89,0-2.91-1.41-2.91-3.25ZM215.59,292.41c0-.08,0-.16,0-.24,0-.92-.58-2.02-2-2.02-1.23,0-1.98.98-2.07,2.26h4.06Z"></path><path class="cls-15" d="M218.07,289.59h.78v1.09c.43-.78,1.31-1.18,2.02-1.18.33,0,.66.07.99.24l-.39.7c-.21-.1-.51-.17-.77-.17-.68,0-1.46.36-1.74,1.3-.08.27-.12.57-.12,1.27v3.15h-.78v-6.41Z"></path></g><g><path class="cls-15" d="M227.72,370.45h.65l1.71,6.06,1.76-5.7h.63l1.76,5.7,1.7-6.06h.65l-2.01,6.98h-.63l-1.79-5.71-1.79,5.71h-.64l-2.01-6.98Z"></path><path class="cls-15" d="M237.72,370.45h.62v6.98h-.62v-6.98Z"></path><path class="cls-15" d="M239.77,373.93c0-2.16,1.26-3.58,3.16-3.58,1.35,0,2.39.71,2.84,1.89l-.58.22c-.38-.96-1.17-1.52-2.26-1.52-1.55,0-2.54,1.17-2.54,2.99s.99,3,2.54,3c1.09,0,1.89-.56,2.26-1.52l.58.22c-.45,1.18-1.49,1.9-2.84,1.9-1.89,0-3.16-1.42-3.16-3.59Z"></path></g><path class="cls-15" d="M307.39,358.57h.65l1.71,6.06,1.76-5.7h.63l1.76,5.7,1.7-6.06h.65l-2.01,6.98h-.63l-1.79-5.71-1.79,5.71h-.64l-2.01-6.98Z"></path><path class="cls-15" d="M341.74,358.57h1.87c2.26,0,3.56,1.29,3.56,3.54s-1.27,3.43-3.57,3.43h-1.86v-6.98ZM343.55,364.97c1.92,0,2.99-.89,2.99-2.88s-1.08-2.95-2.94-2.95h-1.24v5.83h1.19Z"></path><g><path class="cls-15" d="M243.98,643.95h1.94c1.53,0,2.29.72,2.29,1.92,0,.97-.5,1.6-1.43,1.83l1.88,3.22h-.71l-1.8-3.13c-.16,0-.34,0-.5,0h-1.05v3.13h-.62v-6.98ZM245.86,647.25c1.06,0,1.73-.43,1.73-1.37s-.68-1.37-1.73-1.37h-1.26v2.74h1.26Z"></path><path class="cls-15" d="M249.84,643.95h4.56v.56h-3.94v2.59h3.53v.56h-3.53v2.7h3.94v.56h-4.56v-6.98Z"></path><path class="cls-15" d="M255.69,643.95h4.51v.56h-3.89v2.59h3.38v.56h-3.38v3.26h-.62v-6.98Z"></path></g><g><path class="cls-15" d="M343.55,401.2h.65l1.71,6.06,1.76-5.7h.63l1.76,5.7,1.7-6.06h.65l-2.01,6.98h-.63l-1.79-5.71-1.79,5.71h-.64l-2.01-6.98Z"></path><path class="cls-15" d="M353.56,401.2h4.51v.56h-3.89v2.59h3.38v.56h-3.38v3.26h-.62v-6.98Z"></path></g><path class="cls-15" d="M310.42,401.2h1.94c1.46,0,2.29.69,2.29,1.95s-.83,1.96-2.29,1.96h-1.33v3.07h-.62v-6.98ZM312.31,404.55c1.09,0,1.73-.47,1.73-1.4s-.62-1.39-1.73-1.39h-1.27v2.79h1.27Z"></path><path class="cls-15" d="M242.53,498.94c0-2.17,1.27-3.59,3.16-3.59s3.18,1.42,3.18,3.59-1.27,3.58-3.18,3.58-3.16-1.42-3.16-3.58ZM245.69,501.93c1.57,0,2.55-1.16,2.55-2.99s-.99-3-2.55-3-2.54,1.15-2.54,3,.99,2.99,2.54,2.99Z"></path><path class="cls-15" d="M252.56,494.45h.48l-3.55,9.08h-.47l3.55-9.08Z"></path><path class="cls-15" d="M254.26,495.45h.93l2.35,5.66,2.35-5.66h.92v6.98h-.62v-6.16l-2.35,5.59h-.61l-2.36-5.59v6.16h-.62v-6.98Z"></path><g><path class="cls-15" d="M324.12,571.45h1.87c2.26,0,3.56,1.29,3.56,3.54s-1.27,3.43-3.57,3.43h-1.86v-6.98ZM325.93,577.85c1.92,0,2.99-.89,2.99-2.88s-1.08-2.95-2.94-2.95h-1.24v5.83h1.19Z"></path><path class="cls-15" d="M330.21,571.45h.65l1.71,6.06,1.76-5.7h.63l1.76,5.7,1.7-6.06h.65l-2.01,6.98h-.63l-1.79-5.71-1.79,5.71h-.64l-2.01-6.98Z"></path></g><g><path class="cls-19" d="M128.02,809.78h3.61v.45h-3.11v2.07h2.7v.45h-2.7v2.61h-.5v-5.57Z"></path><path class="cls-19" d="M132.37,809.78h.58v.86h-.58v-.86ZM132.42,811.41h.47v3.94h-.47v-3.94Z"></path><path class="cls-19" d="M134.22,811.41h.48v.64c.25-.47.69-.7,1.24-.7.85,0,1.36.5,1.36,1.54v2.46h-.48v-2.28c0-.89-.34-1.3-.99-1.3-.71,0-1.13.48-1.13,1.57v2.01h-.48v-3.94Z"></path><path class="cls-19" d="M140.8,809.78h3.64v.45h-3.15v2.07h2.82v.45h-2.82v2.16h3.15v.45h-3.64v-5.57Z"></path><path class="cls-19" d="M146.6,813.37l-1.46-1.96h.59l1.18,1.63,1.2-1.63h.58l-1.46,1.96,1.47,1.98h-.59l-1.19-1.64-1.19,1.64h-.58l1.46-1.98Z"></path><path class="cls-19" d="M150.12,814.44v-2.65h-.88v-.38h.88v-1.14l.48-.28v1.42h.95v.38h-.95v2.54c0,.44.14.68.5.68.12,0,.28-.02.45-.08v.38c-.2.06-.4.1-.57.1-.52,0-.86-.3-.86-.97Z"></path><path class="cls-19" d="M152.27,813.41c0-1.13.61-2.05,1.73-2.05,1.21,0,1.7.94,1.7,1.81,0,.06,0,.24-.02.34h-2.93c.02.93.52,1.47,1.32,1.47.5,0,.83-.14,1.17-.51l.34.3c-.45.46-.88.65-1.51.65-1.16,0-1.79-.87-1.79-2ZM155.23,813.14s0-.1,0-.15c0-.57-.36-1.24-1.23-1.24-.75,0-1.22.6-1.27,1.39h2.49Z"></path><path class="cls-19" d="M156.84,811.41h.48v.64c.25-.47.69-.7,1.24-.7.85,0,1.36.5,1.36,1.54v2.46h-.48v-2.28c0-.89-.34-1.3-.99-1.3-.71,0-1.13.48-1.13,1.57v2.01h-.48v-3.94Z"></path><path class="cls-19" d="M160.8,814.51l.34-.28c.2.46.66.77,1.26.77.57,0,.95-.27.95-.72,0-.55-.53-.68-1.1-.82-.66-.16-1.23-.38-1.23-1.06,0-.62.53-1.05,1.29-1.05.6,0,1.1.26,1.37.76l-.37.21c-.21-.38-.57-.58-1.01-.58-.48,0-.84.24-.84.62,0,.4.36.54.93.68.67.16,1.43.34,1.43,1.2,0,.71-.56,1.17-1.42,1.17-.79,0-1.35-.4-1.6-.9Z"></path><path class="cls-19" d="M164.9,809.78h.58v.86h-.58v-.86ZM164.95,811.41h.47v3.94h-.47v-3.94Z"></path><path class="cls-19" d="M166.57,813.38c0-1.18.77-2.02,1.88-2.02s1.87.84,1.87,2.02-.78,2.03-1.87,2.03-1.88-.84-1.88-2.03ZM168.45,814.98c.84,0,1.39-.64,1.39-1.6s-.55-1.6-1.39-1.6-1.4.64-1.4,1.6.56,1.6,1.4,1.6Z"></path><path class="cls-19" d="M171.47,811.41h.48v.64c.25-.47.69-.7,1.24-.7.85,0,1.36.5,1.36,1.54v2.46h-.48v-2.28c0-.89-.34-1.3-.99-1.3-.71,0-1.13.48-1.13,1.57v2.01h-.48v-3.94Z"></path><path class="cls-19" d="M175.87,811.58h.58v.86h-.58v-.86ZM175.87,814.5h.58v.85h-.58v-.85Z"></path></g><g><path class="cls-19" d="M130.71,820.99c0-.73-.43-1.2-1.19-1.2-.83,0-1.26.58-1.27,1.45l-.47-.03c0-1.07.62-1.88,1.76-1.88.99,0,1.64.65,1.64,1.65,0,1.49-1.5,2.65-2.81,3.53h3.04v.45h-3.64v-.44c1.02-.82,2.94-2.02,2.94-3.53Z"></path><path class="cls-19" d="M132.4,822.15c0-1.33.3-2.84,1.72-2.84s1.75,1.39,1.75,2.85-.4,2.84-1.72,2.84c-1.44,0-1.75-1.51-1.75-2.85ZM134.16,824.54c.88,0,1.23-1,1.23-2.36s-.36-2.41-1.26-2.41c-.96,0-1.23,1.1-1.23,2.39s.28,2.37,1.26,2.37Z"></path><path class="cls-19" d="M136.95,822.15c0-1.33.3-2.84,1.72-2.84s1.75,1.39,1.75,2.85-.4,2.84-1.72,2.84c-1.44,0-1.75-1.51-1.75-2.85ZM138.71,824.54c.88,0,1.23-1,1.23-2.36s-.36-2.41-1.26-2.41c-.96,0-1.23,1.1-1.23,2.39s.28,2.37,1.26,2.37Z"></path><path class="cls-19" d="M143.95,823.61h-2.77v-.4l2.79-3.84h.46v3.79h.91v.45h-.91v1.33h-.48v-1.33ZM143.95,823.17v-3.15l-2.25,3.15h2.25Z"></path></g><g><path class="cls-19" d="M129.76,830.27h-1.47v-.39h1.03c.29,0,.44-.1.44-.41v-.49h.48v5.57h-.48v-4.28Z"></path><path class="cls-19" d="M134.83,832.34c-.23.14-.5.22-.76.22-1.01,0-1.81-.81-1.81-1.81s.84-1.83,1.87-1.83,1.88.8,1.88,1.82c0,.37-.12.7-.29,1l-1.67,2.81h-.54l1.34-2.21ZM134.13,832.13c.76,0,1.39-.59,1.39-1.38s-.62-1.38-1.39-1.38-1.39.6-1.39,1.38.62,1.38,1.39,1.38Z"></path><path class="cls-19" d="M136.95,831.75c0-1.33.3-2.84,1.72-2.84s1.75,1.39,1.75,2.85-.4,2.84-1.72,2.84c-1.44,0-1.75-1.51-1.75-2.85ZM138.71,834.14c.88,0,1.23-1,1.23-2.36s-.36-2.41-1.26-2.41c-.96,0-1.23,1.1-1.23,2.39s.28,2.37,1.26,2.37Z"></path><path class="cls-19" d="M143.95,833.22h-2.77v-.4l2.79-3.84h.46v3.79h.91v.45h-.91v1.33h-.48v-1.33ZM143.95,832.77v-3.15l-2.25,3.15h2.25Z"></path></g><g><path class="cls-19" d="M682.02,637.89h3.61v.45h-3.11v2.07h2.7v.45h-2.7v2.61h-.5v-5.57Z"></path><path class="cls-19" d="M686.37,637.89h.58v.86h-.58v-.86ZM686.42,639.53h.47v3.94h-.47v-3.94Z"></path><path class="cls-19" d="M688.22,639.53h.48v.64c.25-.47.69-.7,1.24-.7.85,0,1.36.5,1.36,1.54v2.46h-.48v-2.28c0-.89-.34-1.3-.99-1.3-.71,0-1.13.48-1.13,1.57v2.01h-.48v-3.94Z"></path><path class="cls-19" d="M694.79,637.89h3.64v.45h-3.15v2.07h2.82v.45h-2.82v2.16h3.15v.45h-3.64v-5.57Z"></path><path class="cls-19" d="M700.59,641.49l-1.46-1.96h.59l1.18,1.63,1.2-1.63h.58l-1.46,1.96,1.47,1.98h-.59l-1.19-1.64-1.19,1.64h-.58l1.46-1.98Z"></path><path class="cls-19" d="M704.12,642.56v-2.65h-.88v-.38h.88v-1.14l.48-.28v1.42h.95v.38h-.95v2.54c0,.44.14.68.5.68.12,0,.28-.02.45-.08v.38c-.2.06-.4.1-.57.1-.52,0-.86-.3-.86-.97Z"></path><path class="cls-19" d="M706.26,641.52c0-1.13.61-2.05,1.73-2.05,1.21,0,1.7.94,1.7,1.81,0,.06,0,.24-.02.34h-2.93c.02.93.52,1.47,1.32,1.47.5,0,.83-.14,1.17-.51l.34.3c-.45.46-.88.65-1.51.65-1.16,0-1.79-.87-1.79-2ZM709.23,641.26s0-.1,0-.15c0-.57-.36-1.24-1.23-1.24-.75,0-1.22.6-1.27,1.39h2.49Z"></path><path class="cls-19" d="M710.83,639.53h.48v.64c.25-.47.69-.7,1.24-.7.85,0,1.36.5,1.36,1.54v2.46h-.48v-2.28c0-.89-.34-1.3-.99-1.3-.71,0-1.13.48-1.13,1.57v2.01h-.48v-3.94Z"></path><path class="cls-19" d="M714.79,642.62l.34-.28c.2.46.66.77,1.26.77.57,0,.95-.27.95-.72,0-.55-.53-.68-1.1-.82-.66-.16-1.23-.38-1.23-1.06,0-.62.53-1.05,1.29-1.05.6,0,1.1.26,1.37.76l-.37.21c-.21-.38-.57-.58-1.01-.58-.48,0-.84.24-.84.62,0,.4.36.54.93.68.67.16,1.43.34,1.43,1.2,0,.71-.56,1.17-1.42,1.17-.79,0-1.35-.4-1.6-.9Z"></path><path class="cls-19" d="M718.89,637.89h.58v.86h-.58v-.86ZM718.94,639.53h.47v3.94h-.47v-3.94Z"></path><path class="cls-19" d="M720.56,641.49c0-1.18.77-2.02,1.88-2.02s1.87.84,1.87,2.02-.78,2.03-1.87,2.03-1.88-.84-1.88-2.03ZM722.44,643.1c.84,0,1.39-.64,1.39-1.6s-.55-1.6-1.39-1.6-1.4.64-1.4,1.6.56,1.6,1.4,1.6Z"></path><path class="cls-19" d="M725.46,639.53h.48v.64c.25-.47.69-.7,1.24-.7.85,0,1.36.5,1.36,1.54v2.46h-.48v-2.28c0-.89-.34-1.3-.99-1.3-.71,0-1.13.48-1.13,1.57v2.01h-.48v-3.94Z"></path><path class="cls-19" d="M729.86,639.7h.58v.86h-.58v-.86ZM729.86,642.62h.58v.85h-.58v-.85Z"></path></g><g><path class="cls-19" d="M684.71,649.11c0-.73-.43-1.2-1.19-1.2-.83,0-1.26.58-1.27,1.45l-.47-.03c0-1.07.62-1.88,1.76-1.88.99,0,1.64.65,1.64,1.65,0,1.49-1.5,2.65-2.81,3.53h3.04v.45h-3.64v-.44c1.02-.82,2.94-2.02,2.94-3.53Z"></path><path class="cls-19" d="M686.39,650.27c0-1.33.3-2.84,1.72-2.84s1.75,1.39,1.75,2.85-.4,2.84-1.72,2.84c-1.44,0-1.75-1.51-1.75-2.85ZM688.15,652.66c.88,0,1.23-1,1.23-2.36s-.36-2.41-1.26-2.41c-.96,0-1.23,1.1-1.23,2.39s.28,2.37,1.26,2.37Z"></path><path class="cls-19" d="M690.95,650.27c0-1.33.3-2.84,1.72-2.84s1.75,1.39,1.75,2.85-.4,2.84-1.72,2.84c-1.44,0-1.75-1.51-1.75-2.85ZM692.71,652.66c.88,0,1.23-1,1.23-2.36s-.36-2.41-1.26-2.41c-.96,0-1.23,1.1-1.23,2.39s.28,2.37,1.26,2.37Z"></path><path class="cls-19" d="M697.94,651.73h-2.77v-.4l2.79-3.84h.46v3.79h.91v.45h-.91v1.33h-.48v-1.33ZM697.94,651.28v-3.15l-2.25,3.15h2.25Z"></path></g><g><path class="cls-19" d="M683.76,658.39h-1.47v-.39h1.03c.29,0,.44-.1.44-.41v-.49h.48v5.57h-.48v-4.28Z"></path><path class="cls-19" d="M688.82,660.46c-.23.14-.5.22-.76.22-1.01,0-1.81-.81-1.81-1.81s.84-1.83,1.87-1.83,1.88.8,1.88,1.82c0,.37-.12.7-.29,1l-1.67,2.81h-.54l1.34-2.21ZM688.12,660.25c.76,0,1.39-.59,1.39-1.38s-.62-1.38-1.39-1.38-1.39.6-1.39,1.38.62,1.38,1.39,1.38Z"></path><path class="cls-19" d="M690.95,659.87c0-1.33.3-2.84,1.72-2.84s1.75,1.39,1.75,2.85-.4,2.84-1.72,2.84c-1.44,0-1.75-1.51-1.75-2.85ZM692.71,662.26c.88,0,1.23-1,1.23-2.36s-.36-2.41-1.26-2.41c-.96,0-1.23,1.1-1.23,2.39s.28,2.37,1.26,2.37Z"></path><path class="cls-19" d="M697.94,661.33h-2.77v-.4l2.79-3.84h.46v3.79h.91v.45h-.91v1.33h-.48v-1.33ZM697.94,660.88v-3.15l-2.25,3.15h2.25Z"></path></g><g><path class="cls-19" d="M661.33,220.78h3.61v.45h-3.11v2.07h2.7v.45h-2.7v2.61h-.5v-5.57Z"></path><path class="cls-19" d="M665.68,220.78h.58v.86h-.58v-.86ZM665.73,222.41h.47v3.94h-.47v-3.94Z"></path><path class="cls-19" d="M667.54,222.41h.48v.64c.25-.47.69-.7,1.24-.7.85,0,1.36.5,1.36,1.54v2.45h-.48v-2.28c0-.89-.34-1.3-.99-1.3-.71,0-1.13.48-1.13,1.57v2.01h-.48v-3.94Z"></path><path class="cls-19" d="M674.1,220.78h3.64v.45h-3.15v2.07h2.82v.45h-2.82v2.16h3.15v.45h-3.64v-5.57Z"></path><path class="cls-19" d="M679.9,224.37l-1.46-1.96h.59l1.18,1.63,1.2-1.63h.58l-1.46,1.96,1.47,1.98h-.59l-1.19-1.64-1.19,1.64h-.58l1.46-1.98Z"></path><path class="cls-19" d="M683.43,225.44v-2.65h-.88v-.38h.88v-1.14l.48-.28v1.42h.95v.38h-.95v2.53c0,.44.14.68.5.68.12,0,.28-.02.45-.08v.38c-.2.06-.4.1-.57.1-.52,0-.86-.3-.86-.97Z"></path><path class="cls-19" d="M685.58,224.41c0-1.13.61-2.06,1.73-2.06,1.21,0,1.7.94,1.7,1.81,0,.06,0,.24-.02.34h-2.93c.02.93.52,1.47,1.32,1.47.5,0,.83-.14,1.17-.51l.34.3c-.45.46-.88.65-1.51.65-1.16,0-1.79-.87-1.79-2ZM688.54,224.14s0-.1,0-.15c0-.57-.36-1.24-1.23-1.24-.75,0-1.22.6-1.27,1.39h2.49Z"></path><path class="cls-19" d="M690.14,222.41h.48v.64c.25-.47.69-.7,1.24-.7.85,0,1.36.5,1.36,1.54v2.45h-.48v-2.28c0-.89-.34-1.3-.99-1.3-.71,0-1.13.48-1.13,1.57v2.01h-.48v-3.94Z"></path><path class="cls-19" d="M694.1,225.51l.34-.28c.2.46.66.77,1.26.77.57,0,.95-.27.95-.72,0-.55-.53-.68-1.1-.82-.66-.16-1.23-.38-1.23-1.06,0-.62.53-1.05,1.29-1.05.6,0,1.1.26,1.37.76l-.37.21c-.21-.38-.57-.58-1.01-.58-.48,0-.84.24-.84.62,0,.4.36.54.93.68.67.16,1.43.34,1.43,1.2,0,.71-.56,1.17-1.42,1.17-.79,0-1.35-.4-1.6-.9Z"></path><path class="cls-19" d="M698.21,220.78h.58v.86h-.58v-.86ZM698.26,222.41h.47v3.94h-.47v-3.94Z"></path><path class="cls-19" d="M699.88,224.38c0-1.18.77-2.02,1.88-2.02s1.87.84,1.87,2.02-.78,2.03-1.87,2.03-1.88-.84-1.88-2.03ZM701.75,225.98c.84,0,1.39-.64,1.39-1.6s-.55-1.6-1.39-1.6-1.4.64-1.4,1.6.56,1.6,1.4,1.6Z"></path><path class="cls-19" d="M704.77,222.41h.48v.64c.25-.47.69-.7,1.24-.7.85,0,1.36.5,1.36,1.54v2.45h-.48v-2.28c0-.89-.34-1.3-.99-1.3-.71,0-1.13.48-1.13,1.57v2.01h-.48v-3.94Z"></path><path class="cls-19" d="M709.17,222.58h.58v.86h-.58v-.86ZM709.17,225.5h.58v.85h-.58v-.85Z"></path></g><g><path class="cls-19" d="M664.02,231.99c0-.73-.43-1.2-1.19-1.2-.83,0-1.26.58-1.27,1.45l-.47-.03c0-1.07.62-1.88,1.76-1.88.99,0,1.64.65,1.64,1.65,0,1.49-1.5,2.65-2.81,3.53h3.04v.45h-3.64v-.44c1.02-.82,2.94-2.02,2.94-3.53Z"></path><path class="cls-19" d="M665.71,233.15c0-1.33.3-2.84,1.72-2.84s1.75,1.39,1.75,2.85-.4,2.84-1.72,2.84c-1.44,0-1.75-1.51-1.75-2.85ZM667.46,235.54c.88,0,1.23-1,1.23-2.36s-.36-2.41-1.26-2.41c-.96,0-1.23,1.1-1.23,2.4s.28,2.37,1.26,2.37Z"></path><path class="cls-19" d="M670.27,233.15c0-1.33.3-2.84,1.72-2.84s1.75,1.39,1.75,2.85-.4,2.84-1.72,2.84c-1.44,0-1.75-1.51-1.75-2.85ZM672.02,235.54c.88,0,1.23-1,1.23-2.36s-.36-2.41-1.26-2.41c-.96,0-1.23,1.1-1.23,2.4s.28,2.37,1.26,2.37Z"></path><path class="cls-19" d="M677.25,234.61h-2.77v-.4l2.79-3.84h.46v3.79h.91v.45h-.91v1.34h-.48v-1.34ZM677.25,234.17v-3.15l-2.25,3.15h2.25Z"></path></g><g><path class="cls-19" d="M663.07,241.27h-1.47v-.39h1.03c.29,0,.44-.1.44-.41v-.49h.48v5.57h-.48v-4.28Z"></path><path class="cls-19" d="M668.14,243.34c-.23.14-.5.22-.76.22-1.01,0-1.81-.81-1.81-1.81s.84-1.83,1.87-1.83,1.88.8,1.88,1.82c0,.37-.12.7-.29,1l-1.67,2.81h-.54l1.34-2.21ZM667.43,243.13c.76,0,1.39-.59,1.39-1.38s-.62-1.38-1.39-1.38-1.39.6-1.39,1.38.62,1.38,1.39,1.38Z"></path><path class="cls-19" d="M670.27,242.75c0-1.33.3-2.84,1.72-2.84s1.75,1.39,1.75,2.85-.4,2.84-1.72,2.84c-1.44,0-1.75-1.51-1.75-2.85ZM672.02,245.14c.88,0,1.23-1,1.23-2.36s-.36-2.41-1.26-2.41c-.96,0-1.23,1.1-1.23,2.39s.28,2.38,1.26,2.38Z"></path><path class="cls-19" d="M677.25,244.21h-2.77v-.4l2.79-3.84h.46v3.79h.91v.45h-.91v1.34h-.48v-1.34ZM677.25,243.77v-3.15l-2.25,3.15h2.25Z"></path></g><g><path class="cls-19" d="M695.75,151.37h3.61v.45h-3.11v2.07h2.7v.45h-2.7v2.61h-.5v-5.57Z"></path><path class="cls-19" d="M700.1,151.37h.58v.86h-.58v-.86ZM700.15,153h.47v3.94h-.47v-3.94Z"></path><path class="cls-19" d="M701.96,153h.48v.64c.25-.47.69-.7,1.24-.7.85,0,1.36.5,1.36,1.54v2.45h-.48v-2.28c0-.89-.34-1.3-.99-1.3-.71,0-1.13.48-1.13,1.57v2.01h-.48v-3.94Z"></path><path class="cls-19" d="M708.52,151.37h3.64v.45h-3.15v2.07h2.82v.45h-2.82v2.16h3.15v.45h-3.64v-5.57Z"></path><path class="cls-19" d="M714.32,154.96l-1.46-1.96h.59l1.18,1.63,1.2-1.63h.58l-1.46,1.96,1.47,1.98h-.59l-1.19-1.64-1.19,1.64h-.58l1.46-1.98Z"></path><path class="cls-19" d="M717.85,156.03v-2.65h-.88v-.38h.88v-1.14l.48-.28v1.42h.95v.38h-.95v2.53c0,.44.14.68.5.68.12,0,.28-.02.45-.08v.38c-.2.06-.4.1-.57.1-.52,0-.86-.3-.86-.97Z"></path><path class="cls-19" d="M720,155c0-1.13.61-2.06,1.73-2.06,1.21,0,1.7.94,1.7,1.81,0,.06,0,.24-.02.34h-2.93c.02.93.52,1.47,1.32,1.47.5,0,.83-.14,1.17-.51l.34.3c-.45.46-.88.65-1.51.65-1.16,0-1.79-.87-1.79-2ZM722.96,154.73s0-.1,0-.15c0-.57-.36-1.24-1.23-1.24-.75,0-1.22.6-1.27,1.39h2.49Z"></path><path class="cls-19" d="M724.56,153h.48v.64c.25-.47.69-.7,1.24-.7.85,0,1.36.5,1.36,1.54v2.45h-.48v-2.28c0-.89-.34-1.3-.99-1.3-.71,0-1.13.48-1.13,1.57v2.01h-.48v-3.94Z"></path><path class="cls-19" d="M728.52,156.1l.34-.28c.2.46.66.77,1.26.77.57,0,.95-.27.95-.72,0-.55-.53-.68-1.1-.82-.66-.16-1.23-.38-1.23-1.06,0-.62.53-1.05,1.29-1.05.6,0,1.1.26,1.37.76l-.37.21c-.21-.38-.57-.58-1.01-.58-.48,0-.84.24-.84.62,0,.4.36.54.93.68.67.16,1.43.34,1.43,1.2,0,.71-.56,1.17-1.42,1.17-.79,0-1.35-.4-1.6-.9Z"></path><path class="cls-19" d="M732.62,151.37h.58v.86h-.58v-.86ZM732.67,153h.47v3.94h-.47v-3.94Z"></path><path class="cls-19" d="M734.29,154.97c0-1.18.77-2.02,1.88-2.02s1.87.84,1.87,2.02-.78,2.03-1.87,2.03-1.88-.84-1.88-2.03ZM736.17,156.57c.84,0,1.39-.64,1.39-1.6s-.55-1.6-1.39-1.6-1.4.64-1.4,1.6.56,1.6,1.4,1.6Z"></path><path class="cls-19" d="M739.19,153h.48v.64c.25-.47.69-.7,1.24-.7.85,0,1.36.5,1.36,1.54v2.45h-.48v-2.28c0-.89-.34-1.3-.99-1.3-.71,0-1.13.48-1.13,1.57v2.01h-.48v-3.94Z"></path><path class="cls-19" d="M743.59,153.17h.58v.86h-.58v-.86ZM743.59,156.09h.58v.85h-.58v-.85Z"></path></g><g><path class="cls-19" d="M698.44,162.58c0-.73-.43-1.2-1.19-1.2-.83,0-1.26.58-1.27,1.45l-.47-.03c0-1.07.62-1.88,1.76-1.88.99,0,1.64.65,1.64,1.65,0,1.49-1.5,2.65-2.81,3.53h3.04v.45h-3.64v-.44c1.02-.82,2.94-2.02,2.94-3.53Z"></path><path class="cls-19" d="M700.12,163.74c0-1.33.3-2.84,1.72-2.84s1.75,1.39,1.75,2.85-.4,2.84-1.72,2.84c-1.44,0-1.75-1.51-1.75-2.85ZM701.88,166.13c.88,0,1.23-1,1.23-2.36s-.36-2.41-1.26-2.41c-.96,0-1.23,1.1-1.23,2.39s.28,2.38,1.26,2.38Z"></path><path class="cls-19" d="M704.68,163.74c0-1.33.3-2.84,1.72-2.84s1.75,1.39,1.75,2.85-.4,2.84-1.72,2.84c-1.44,0-1.75-1.51-1.75-2.85ZM706.44,166.13c.88,0,1.23-1,1.23-2.36s-.36-2.41-1.26-2.41c-.96,0-1.23,1.1-1.23,2.39s.28,2.38,1.26,2.38Z"></path><path class="cls-19" d="M711.67,165.2h-2.77v-.4l2.79-3.84h.46v3.79h.91v.45h-.91v1.34h-.48v-1.34ZM711.67,164.76v-3.15l-2.25,3.15h2.25Z"></path></g><g><path class="cls-19" d="M697.49,171.86h-1.47v-.39h1.03c.29,0,.44-.1.44-.41v-.49h.48v5.57h-.48v-4.28Z"></path><path class="cls-19" d="M702.55,173.93c-.23.14-.5.22-.76.22-1.01,0-1.81-.81-1.81-1.81s.84-1.83,1.87-1.83,1.88.8,1.88,1.82c0,.37-.12.7-.29,1l-1.67,2.81h-.54l1.34-2.21ZM701.85,173.72c.76,0,1.39-.59,1.39-1.38s-.62-1.38-1.39-1.38-1.39.6-1.39,1.38.62,1.38,1.39,1.38Z"></path><path class="cls-19" d="M704.68,173.34c0-1.33.3-2.84,1.72-2.84s1.75,1.39,1.75,2.85-.4,2.84-1.72,2.84c-1.44,0-1.75-1.51-1.75-2.85ZM706.44,175.73c.88,0,1.23-1,1.23-2.36s-.36-2.41-1.26-2.41c-.96,0-1.23,1.1-1.23,2.4s.28,2.37,1.26,2.37Z"></path><path class="cls-19" d="M711.67,174.8h-2.77v-.4l2.79-3.84h.46v3.79h.91v.45h-.91v1.34h-.48v-1.34ZM711.67,174.36v-3.15l-2.25,3.15h2.25Z"></path></g><polyline class="cls-1" points="120.34 822.39 105.99 822.39 97.97 791.84"></polyline><path class="cls-18" d="M96.94,787.94l3.44,4.96s-2.41-1.06-3.99,1.05l.55-6.01Z"></path><polyline class="cls-1" points="674.34 650.5 658.99 650.5 648.27 619.87"></polyline><path class="cls-18" d="M646.94,616.06l3.82,4.67s-2.49-.86-3.9,1.36l.07-6.04Z"></path><polyline class="cls-1" points="653.65 233.39 638.3 233.39 621.59 222.19"></polyline><path class="cls-18" d="M618.23,219.94l5.86,1.44s-2.51.8-2.3,3.43l-3.56-4.87Z"></path><polyline class="cls-1" points="688.07 173.33 672.72 173.33 656 184.53"></polyline><path class="cls-18" d="M652.65,186.78l5.86-1.44s-2.51-.8-2.3-3.43l-3.56,4.87Z"></path><polyline class="cls-1" points="119.34 832.07 102.99 832.07 92.91 792.38"></polyline><path class="cls-18" d="M91.92,788.46l3.4,4.99s-2.4-1.08-4,1.02l.6-6.01Z"></path><polyline class="cls-1" points="673.34 660.18 656.99 660.18 643.24 620.4"></polyline><path class="cls-18" d="M641.92,616.58l3.8,4.69s-2.49-.87-3.9,1.35l.1-6.04Z"></path><polyline class="cls-1" points="652.65 243.07 636.3 243.07 620.97 226.43"></polyline><path class="cls-18" d="M618.23,223.46l5.36,2.77s-2.63.2-3.04,2.8l-2.33-5.57Z"></path><polyline class="cls-1" points="687.07 163.66 670.72 163.66 655.39 180.29"></polyline><path class="cls-18" d="M652.65,183.26l5.36-2.77s-2.63-.2-3.04-2.8l-2.33,5.57Z"></path></g></g></svg> 