<?xml version="1.0" encoding="UTF-8"?> <svg xmlns="http://www.w3.org/2000/svg" id="Layer_2" data-name="Layer 2" viewBox="0 0 1060.84 718.86"><defs><style> .cls-1 { stroke: #afa49f; } .cls-1, .cls-2, .cls-3, .cls-4, .cls-5, .cls-6, .cls-7, .cls-8, .cls-9, .cls-10, .cls-11, .cls-12 { fill: none; } .cls-1, .cls-2, .cls-3, .cls-5, .cls-7, .cls-9, .cls-10, .cls-11 { stroke-width: .25px; } .cls-1, .cls-8, .cls-9 { stroke-miterlimit: 10; } .cls-2 { stroke-dasharray: 1.54 1.54; } .cls-2, .cls-3, .cls-4, .cls-5, .cls-6, .cls-7, .cls-10, .cls-11, .cls-12 { stroke-linecap: round; stroke-linejoin: round; } .cls-2, .cls-3, .cls-5, .cls-7, .cls-10 { stroke: #75655e; } .cls-13 { fill: #3a2a22; } .cls-3 { stroke-dasharray: 5.54 4.62; } .cls-4 { stroke: #55453d; stroke-width: .15px; } .cls-5 { stroke-dasharray: 5.97 4.98; } .cls-14 { fill: #fff; } .cls-6, .cls-8 { stroke-width: .75px; } .cls-6, .cls-8, .cls-11, .cls-12 { stroke: #3a2a22; } .cls-15 { fill: #bc8ebc; } .cls-9 { stroke: #bc8ebc; } .cls-16 { fill: #afa49f; } .cls-10 { stroke-dasharray: 5.73 4.78; } .cls-12 { stroke-width: .35px; } .cls-17 { fill: #75655e; } </style></defs><g id="Layer_1-2" data-name="Layer 1"><g><polygon class="cls-14" points="360.16 594.99 360.16 523.99 .37 523.99 .37 24.79 20.45 25.32 59.07 26.7 97.69 28.46 136.22 30.58 154.14 31.69 153.67 39.78 180.56 41.58 224.82 44.9 250.97 47.24 251.71 39.08 289.31 42.59 326.92 46.47 364.43 50.72 401.94 55.25 439.36 60.24 476.78 65.51 514.11 71.14 551.44 77.06 588.67 83.43 625.81 90.08 662.96 97.11 700.01 104.5 736.96 112.17 773.83 120.2 810.69 128.61 847.37 137.39 884.06 146.45 925.82 157.26 983.66 172.96 981.52 180.87 990.31 183.31 1025.6 193.47 1060.71 203.91 1016.27 324.58 1001.95 324.58 1001.95 324.58 957.05 718.49 957.05 718.46 884.06 718.46 884.06 714.6 681.23 714.6 681.23 681.06 572.67 681.06 572.67 594.99 360.16 594.99"></polygon><polygon class="cls-12" points="884.06 160.77 918.06 169.54 951.97 178.69 985.78 188.02 1019.51 197.72 1053.14 207.7 1053.14 207.79 1012.21 318.85 1002.6 318.85 1002.6 320.85 1013.6 320.85 1055.78 206.4 1020.06 195.8 986.31 186.09 952.49 176.76 918.56 167.61 884.06 158.7 884.06 160.77"></polygon><polyline class="cls-12" points="263.26 54.05 220.94 50.45 178.62 47.21 136.22 44.44"></polyline><polyline class="cls-12" points="263.26 56.05 220.94 52.45 178.62 49.21 136.22 46.44"></polyline><path class="cls-4" d="M379.32,538.82c26.19,0,44.55,21.23,44.55,47.42"></path><line class="cls-4" x1="379.32" y1="586.24" x2="423.86" y2="586.24"></line><line class="cls-4" x1="376.37" y1="594.99" x2="423.86" y2="594.99"></line><g><path class="cls-4" d="M226.95,344.18c0,23.13,18.62,39.35,41.58,39.35"></path><path class="cls-4" d="M229.81,320.04c0-23.13,18.62-39.35,41.58-39.34"></path><path class="cls-4" d="M395.57,474.8c0-23.13,18.62-39.35,41.58-39.35"></path><path class="cls-4" d="M325.7,285.31c-23.13,0-39.35,18.62-39.34,41.58"></path><path class="cls-4" d="M798.67,583.28c-23.13,0-39.35-18.62-39.34-41.58"></path><path class="cls-4" d="M641.52,586.87c0-23.13,18.62-39.34,41.58-39.34"></path><path class="cls-4" d="M925.72,253.05c0-23.18-18.65-39.43-41.67-39.44"></path><path class="cls-4" d="M177.89,108.73c0-23.18-18.65-39.43-41.67-39.44"></path><path class="cls-4" d="M88.31,467.76c0-23.13,18.62-40.34,41.58-40.34"></path></g><rect class="cls-12" x="376.44" y="538.82" width="2.88" height="47.42"></rect><rect class="cls-12" x="226.95" y="341.95" width="41.58" height="2.23"></rect><rect class="cls-12" x="229.81" y="320.04" width="41.58" height="2.23"></rect><rect class="cls-12" x="344.1" y="326.89" width="41.58" height="2.23"></rect><rect class="cls-12" x="174.45" y="435.45" width="2.23" height="41.58"></rect><rect class="cls-12" x="395.57" y="474.8" width="41.58" height="2.23"></rect><rect class="cls-12" x="499.51" y="544.39" width="2.23" height="39.27"></rect><rect class="cls-12" x="325.7" y="285.31" width="2.23" height="41.58"></rect><rect class="cls-12" x="274.89" y="150.14" width="2.23" height="41.58"></rect><rect class="cls-12" x="798.67" y="541.71" width="2.23" height="41.58"></rect><rect class="cls-12" x="641.52" y="586.87" width="41.58" height="2.23"></rect><rect class="cls-12" x="692.89" y="539.47" width="41.58" height="2.23"></rect><rect class="cls-12" x="746.67" y="631.24" width="2.23" height="41.58"></rect><rect class="cls-12" x="597.63" y="593.73" width="41.58" height="2.23"></rect><rect class="cls-12" x="884.06" y="253.05" width="41.67" height="2.24"></rect><rect class="cls-12" x="136.22" y="108.73" width="41.67" height="2.24"></rect><rect class="cls-12" x="88.31" y="467.76" width="41.58" height="1.23"></rect><polyline class="cls-7" points="637.8 396.29 638.55 396.29 638.55 397.04"></polyline><line class="cls-2" x1="638.55" y1="398.58" x2="638.55" y2="422.38"></line><polyline class="cls-7" points="638.55 423.15 638.55 423.9 637.8 423.9"></polyline><line class="cls-2" x1="636.26" y1="423.9" x2="612.45" y2="423.9"></line><polyline class="cls-7" points="611.69 423.9 610.94 423.9 610.94 423.15"></polyline><line class="cls-2" x1="610.94" y1="421.61" x2="610.94" y2="397.81"></line><polyline class="cls-7" points="610.94 397.04 610.94 396.29 611.69 396.29"></polyline><line class="cls-2" x1="613.22" y1="396.29" x2="637.03" y2="396.29"></line><line class="cls-7" x1="521.04" y1="444.32" x2="521.04" y2="447.32"></line><line class="cls-10" x1="521.04" y1="452.1" x2="521.04" y2="481.24"></line><polyline class="cls-7" points="521.04 483.63 521.04 486.63 521.04 486.63 524.04 486.63"></polyline><line class="cls-5" x1="529.01" y1="486.63" x2="668.82" y2="486.63"></line><line class="cls-7" x1="671.3" y1="486.63" x2="674.3" y2="486.63"></line><line class="cls-7" x1="438.42" y1="324.58" x2="438.42" y2="321.58"></line><line class="cls-3" x1="438.42" y1="316.96" x2="438.42" y2="258.28"></line><line class="cls-7" x1="438.42" y1="255.97" x2="438.42" y2="252.97"></line><line class="cls-12" x1="532.94" y1="474.71" x2="738.53" y2="474.72"></line><line class="cls-12" x1="674.31" y1="474.72" x2="674.3" y2="502.43"></line><line class="cls-12" x1="710.45" y1="474.71" x2="710.45" y2="502.43"></line><line class="cls-12" x1="674.31" y1="477.22" x2="738.53" y2="477.22"></line><line class="cls-12" x1="532.96" y1="402.01" x2="532.94" y2="474.72"></line><line class="cls-12" x1="532.95" y1="444.33" x2="505.24" y2="444.32"></line><line class="cls-12" x1="530.45" y1="402.01" x2="530.45" y2="444.33"></line><rect class="cls-12" x="586.08" y="374.33" width="138.59" height="49.57"></rect><g><path class="cls-12" d="M657.51,393.96h.56c.33,0,.59.26.59.59v8.59c0,.33-.27.59-.59.59h-.56c-.33,0-.59-.26-.59-.59v-8.59c0-.33.26-.59.59-.59Z"></path><path class="cls-12" d="M657.79,409.63c-.49,0-.9.4-.9.9s.4.9.9.9.9-.4.9-.9-.4-.9-.9-.9Z"></path></g><polyline class="cls-12" points="656.92 395.27 654.5 395.27 654.5 396.82 656.92 396.82"></polyline><line class="cls-12" x1="655.36" y1="396.82" x2="655.36" y2="395.27"></line><polyline class="cls-12" points="656.92 399.14 644.87 399.14 644.87 420.89 670.71 420.89 670.71 399.14 658.66 399.14"></polyline><polyline class="cls-12" points="658.66 400.22 669.63 400.22 669.63 419.81 645.95 419.81 645.95 400.22 656.92 400.22"></polyline><g><path class="cls-12" d="M362,410.6h5.29c.6,0,1.08.48,1.08,1.08v15.44c0,.6-.48,1.08-1.08,1.08h-5.29c-.6,0-1.08-.48-1.08-1.08v-15.44c0-.6.48-1.08,1.08-1.08Z"></path><path class="cls-12" d="M372.52,414.94c0-.28.11-.54.32-.73,2.09-1.88,5.3-3.09,8.9-3.09,6.31,0,11.42,3.71,11.42,8.28s-5.11,8.27-11.42,8.27c-3.59,0-6.8-1.2-8.9-3.08-.21-.19-.32-.46-.32-.73v-8.92Z"></path></g><line class="cls-12" x1="381.74" y1="411.12" x2="368.22" y2="411.12"></line><line class="cls-12" x1="381.74" y1="427.67" x2="368.22" y2="427.67"></line><polyline class="cls-12" points="360.92 440.07 385.93 440.07 385.93 481.65"></polyline><path class="cls-12" d="M368.98,461.41v9.87c0,.4.32.72.72.72h10.9c.4,0,.72-.32.72-.72v-20.82c0-.4-.32-.72-.72-.72h-10.9c-.4,0-.72.32-.72.72v9.48"></path><rect class="cls-12" x="365.53" y="459.94" width="5.89" height="1.47"></rect><circle class="cls-12" cx="375.15" cy="460.67" r=".84"></circle><rect class="cls-12" x="407.67" y="257.17" width="38.03" height="30.6"></rect><rect class="cls-12" x="407.67" y="289.78" width="38.03" height="30.6"></rect><line class="cls-12" x1="264.09" y1="225.57" x2="264.09" y2="222.36"></line><g><path class="cls-12" d="M264.09,221.49v-11.6c0-1.38-1.12-2.5-2.5-2.5h-61.83c-1.38,0-2.5,1.12-2.5,2.5v24.04c0,1.38,1.12,2.5,2.5,2.5h61.83c1.38,0,2.5-1.12,2.5-2.5v-8.37"></path><path class="cls-12" d="M268.11,222.36h-10.86c-.24,0-.43-.19-.43-.43s.19-.43.43-.43h10.81"></path><path class="cls-12" d="M258.33,221.49c-.17-.46-.61-.79-1.14-.79-.67,0-1.21.54-1.21,1.21s.54,1.21,1.21,1.21c.51,0,.95-.32,1.13-.77"></path><path class="cls-12" d="M262.36,221.49c-.21-2.66-2.45-4.76-5.17-4.76-2.86,0-5.18,2.32-5.18,5.18,0,2.86,2.32,5.18,5.18,5.18,2.71,0,4.94-2.09,5.16-4.74"></path></g><rect class="cls-12" x="268.11" y="219.38" width=".97" height="5.08"></rect><line class="cls-12" x1="269.08" y1="240.14" x2="192.85" y2="240.14"></line><line class="cls-12" x1="269.08" y1="241.43" x2="192.9" y2="241.43"></line><line class="cls-12" x1="264.4" y1="241.43" x2="264.4" y2="240.14"></line><line class="cls-12" x1="226.4" y1="241.43" x2="226.4" y2="240.15"></line><g><rect class="cls-12" x="178.99" y="252.92" width="7.45" height="17.6" rx="1.08" ry="1.08"></rect><path class="cls-12" d="M190.59,257.27c0-.28.11-.54.32-.73,2.09-1.88,5.3-3.09,8.89-3.09,6.31,0,11.42,3.71,11.42,8.28,0,4.57-5.11,8.27-11.42,8.27-3.59,0-6.8-1.2-8.89-3.08-.21-.19-.32-.46-.32-.73v-8.92Z"></path></g><line class="cls-12" x1="199.81" y1="253.45" x2="186.29" y2="253.45"></line><line class="cls-12" x1="199.81" y1="270" x2="186.29" y2="270"></line><polyline class="cls-12" points="179 282.4 204.01 282.4 204.01 326.89"></polyline><path class="cls-12" d="M187.06,299.76v9.87c0,.4.32.72.72.72h10.9c.4,0,.72-.32.72-.72v-20.82c0-.4-.32-.72-.72-.72h-10.9c-.4,0-.72.32-.72.72v9.48"></path><rect class="cls-12" x="183.61" y="298.29" width="5.89" height="1.47"></rect><circle class="cls-12" cx="193.23" cy="299.03" r=".84"></circle><polyline class="cls-12" points="599.32 509.94 599.32 535.08 683.1 535.08"></polyline><path class="cls-12" d="M623.29,518.02h-9.87c-.4,0-.72.32-.72.72v10.9c0,.4.32.72.72.72h20.82c.4,0,.72-.32.72-.72v-10.9c0-.4-.32-.72-.72-.72h-9.48"></path><rect class="cls-12" x="623.29" y="514.57" width="1.47" height="5.89"></rect><g><circle class="cls-12" cx="624.02" cy="524.19" r=".84"></circle><path class="cls-12" d="M658.04,518.02h-9.87c-.4,0-.72.32-.72.72v10.9c0,.4.32.72.72.72h20.82c.4,0,.72-.32.72-.72v-10.9c0-.4-.32-.72-.72-.72h-9.48"></path></g><rect class="cls-12" x="658.04" y="514.57" width="1.47" height="5.89"></rect><circle class="cls-12" cx="658.78" cy="524.19" r=".84"></circle><line class="cls-12" x1="582.67" y1="586.24" x2="582.67" y2="510.88"></line><line class="cls-12" x1="582.67" y1="586.24" x2="582.67" y2="510.06"></line><line class="cls-12" x1="581.38" y1="586.24" x2="581.39" y2="510.06"></line><line class="cls-12" x1="581.38" y1="581.56" x2="582.67" y2="581.56"></line><line class="cls-12" x1="581.38" y1="543.56" x2="582.67" y2="543.56"></line><line class="cls-12" x1="541.09" y1="523.45" x2="581.39" y2="523.45"></line><g><path class="cls-12" d="M562.45,574.36c0,.67-.54,1.21-1.21,1.21s-1.21-.54-1.21-1.21.54-1.21,1.21-1.21,1.21.54,1.21,1.21Z"></path><path class="cls-12" d="M566.42,574.36c0,2.86-2.32,5.18-5.18,5.18s-5.18-2.32-5.18-5.18,2.32-5.18,5.18-5.18,5.18,2.32,5.18,5.18Z"></path><path class="cls-12" d="M610.7,655.57h15.44c.6,0,1.08.48,1.08,1.08v5.3c0,.6-.48,1.08-1.08,1.08h-15.44c-.6,0-1.08-.48-1.08-1.08v-5.29c0-.6.48-1.08,1.08-1.08Z"></path><path class="cls-12" d="M613.96,651.42c-.28,0-.54-.11-.73-.32-1.88-2.09-3.08-5.3-3.08-8.9,0-6.31,3.71-11.42,8.28-11.42s8.28,5.11,8.28,11.42c0,3.6-1.2,6.8-3.08,8.9-.19.21-.46.32-.73.32h-8.92Z"></path></g><line class="cls-12" x1="610.15" y1="642.2" x2="610.15" y2="655.72"></line><line class="cls-12" x1="626.7" y1="642.21" x2="626.7" y2="655.72"></line><polyline class="cls-12" points="16.37 454.57 41.51 454.58 41.54 364.5 16.1 364.5"></polyline><path class="cls-12" d="M24.46,430.46v9.87c0,.4.32.72.72.72h10.9c.4,0,.72-.32.72-.72v-20.82c0-.4-.32-.72-.71-.72h-10.9c-.4,0-.72.32-.72.72v9.48"></path><rect class="cls-12" x="21.01" y="428.99" width="5.89" height="1.47"></rect><g><circle class="cls-12" cx="30.63" cy="429.73" r=".84"></circle><path class="cls-12" d="M24.47,389.7v9.87c0,.4.32.72.72.72h10.9c.4,0,.72-.32.72-.72v-20.82c0-.4-.32-.72-.71-.72h-10.9c-.4,0-.72.32-.72.72v9.48"></path></g><rect class="cls-12" x="21.02" y="388.23" width="5.89" height="1.47"></rect><g><circle class="cls-12" cx="30.64" cy="388.97" r=".84"></circle><path class="cls-12" d="M25.87,485.56v15.44c0,.6-.49,1.08-1.08,1.08h-5.29c-.6,0-1.08-.48-1.08-1.08v-15.44c0-.6.49-1.08,1.08-1.08h5.29c.6,0,1.08.49,1.08,1.08Z"></path><path class="cls-12" d="M30.01,488.82c0-.28.11-.54.32-.73,2.09-1.88,5.3-3.08,8.9-3.08,6.31,0,11.42,3.71,11.42,8.28,0,4.57-5.12,8.27-11.42,8.27-3.59,0-6.8-1.21-8.9-3.09-.21-.19-.32-.46-.32-.73v-8.92Z"></path></g><line class="cls-12" x1="39.23" y1="485.01" x2="25.71" y2="485.01"></line><line class="cls-12" x1="39.23" y1="501.56" x2="25.71" y2="501.56"></line><rect class="cls-12" x="128.01" y="344.26" width="1.28" height="83.16"></rect><polygon class="cls-12" points="129.9 468.99 129.9 471.3 131.18 471.3 131.18 468.99 129.9 468.99"></polygon><polyline class="cls-11" points="108.26 299.17 108.26 340.75 125.53 340.75"></polyline><g><path class="cls-12" d="M101.8,388.06c0-1.2.97-2.17,2.17-2.17s2.17.97,2.17,2.17-.97,2.17-2.17,2.17-2.17-.97-2.17-2.17Z"></path><path class="cls-12" d="M103.97,422.69h0c9.9,0,17.93-8.03,17.93-17.93v-33.33c0-9.9-8.03-17.93-17.93-17.93s-17.93,8.03-17.93,17.93v33.33c0,9.9,8.03,17.93,17.93,17.93Z"></path><path class="cls-12" d="M103.97,356c8.51,0,15.43,6.92,15.43,15.43v33.33c0,8.51-6.92,15.43-15.43,15.43s-15.43-6.92-15.43-15.43v-33.33c0-8.51,6.92-15.43,15.43-15.43Z"></path></g><rect class="cls-12" x="16.2" y="342.67" width="33.02" height="1.58"></rect><rect class="cls-12" x="87.47" y="342.67" width="38.07" height="1.58"></rect><line class="cls-12" x1="49.22" y1="342.68" x2="87.47" y2="342.68"></line><line class="cls-12" x1="49.22" y1="344.26" x2="87.47" y2="344.26"></line><rect class="cls-16" x="18.41" y="471.31" width="39.07" height="1.58"></rect><rect class="cls-12" x="18.41" y="471.31" width="39.07" height="1.58"></rect><rect class="cls-16" x="95.73" y="471.31" width="29.5" height="1.58"></rect><rect class="cls-12" x="95.73" y="471.31" width="29.5" height="1.58"></rect><line class="cls-12" x1="57.48" y1="471.32" x2="95.73" y2="471.32"></line><line class="cls-12" x1="57.48" y1="472.9" x2="95.73" y2="472.9"></line><rect class="cls-12" x="581.05" y="475.89" width="42.4" height="24.28"></rect><rect class="cls-12" x="582.13" y="476.97" width="40.24" height="22.11"></rect><path class="cls-12" d="M602.21,477.72c.71,0,1.28.57,1.28,1.28s-.57,1.28-1.28,1.28-1.28-.57-1.28-1.28c0-.71.57-1.28,1.28-1.28Z"></path><line class="cls-12" x1="622.37" y1="476.97" x2="623.45" y2="475.89"></line><line class="cls-12" x1="582.13" y1="476.97" x2="581.05" y2="475.89"></line><line class="cls-12" x1="582.13" y1="499.09" x2="581.05" y2="500.17"></line><line class="cls-12" x1="622.37" y1="499.08" x2="623.45" y2="500.16"></line><polygon class="cls-12" points="601.16 479 602.21 480.06 603.27 479 602.21 477.95 601.16 479"></polygon><line class="cls-12" x1="602.21" y1="480.06" x2="602.21" y2="477.95"></line><g><path class="cls-12" d="M28.2,321.07c0,.67-.54,1.21-1.21,1.21s-1.21-.54-1.21-1.21.54-1.21,1.21-1.21,1.21.54,1.21,1.21Z"></path><path class="cls-12" d="M32.17,321.07c0,2.86-2.32,5.18-5.18,5.18s-5.18-2.32-5.18-5.18,2.32-5.18,5.18-5.18,5.18,2.32,5.18,5.18Z"></path><path class="cls-11" d="M725.17,690.03c.03,1.51.06,3.03.13,4.57.04.8.09,1.6.13,2.36.03.57.07,1.11.16,1.78.09.65.25,1.42-.23,1.73-.11.07-.25.12-.38.13-.77.06-.9-1.18-.97-2.24-.15-2.35.04-3.74.16-5.44.06-.9.1-1.89.14-2.89-.04-.99-.08-1.98-.14-2.89-.11-1.7-.3-3.09-.16-5.44.07-1.05.2-2.3.97-2.24.13.01.27.06.38.13.48.3.32,1.08.23,1.73-.1.67-.13,1.21-.16,1.78-.04.75-.09,1.56-.13,2.35-.07,1.55-.1,3.06-.13,4.57Z"></path><path class="cls-11" d="M720.48,690.03c.03,1.51.06,3.03.13,4.57.04.8.09,1.6.13,2.36.03.57.07,1.11.16,1.78.09.65.25,1.42-.23,1.73-.11.07-.25.12-.38.13-.77.06-.9-1.18-.97-2.24-.15-2.35.04-3.74.16-5.44.06-.9.1-1.89.14-2.89-.04-.99-.08-1.98-.14-2.89-.11-1.7-.3-3.09-.16-5.44.07-1.05.2-2.3.97-2.24.13.01.27.06.38.13.48.3.32,1.08.23,1.73-.1.67-.13,1.21-.16,1.78-.04.75-.09,1.56-.13,2.35-.07,1.55-.1,3.06-.13,4.57Z"></path><path class="cls-11" d="M715.78,690.03c.03,1.51.06,3.03.13,4.57.04.8.09,1.6.13,2.36.03.57.07,1.11.16,1.78.09.65.25,1.42-.23,1.73-.11.07-.25.12-.38.13-.77.06-.9-1.18-.97-2.24-.15-2.35.04-3.74.16-5.44.06-.9.1-1.89.14-2.89-.04-.99-.08-1.98-.14-2.89-.11-1.7-.3-3.09-.16-5.44.07-1.05.2-2.3.97-2.24.13.01.27.06.38.13.48.3.32,1.08.23,1.73-.1.67-.13,1.21-.16,1.78-.04.75-.09,1.56-.13,2.35-.07,1.55-.1,3.06-.13,4.57Z"></path></g><line class="cls-11" x1="691.23" y1="690.03" x2="746.67" y2="690.03"></line><g><path class="cls-11" d="M718.76,522.83c.03,1.51.06,3.03.13,4.57.04.8.09,1.6.13,2.35.03.57.07,1.11.16,1.78.09.65.25,1.42-.23,1.73-.11.07-.25.12-.38.13-.77.06-.9-1.18-.97-2.24-.15-2.35.04-3.74.16-5.44.06-.9.1-1.9.14-2.89-.04-.99-.08-1.98-.14-2.89-.11-1.7-.3-3.09-.16-5.44.07-1.05.2-2.3.97-2.24.13.01.27.06.38.13.48.3.32,1.08.23,1.73-.1.67-.13,1.21-.16,1.78-.04.75-.09,1.56-.13,2.36-.07,1.54-.1,3.06-.13,4.57Z"></path><path class="cls-11" d="M714.07,522.83c.03,1.51.06,3.03.13,4.57.04.8.09,1.6.13,2.35.03.57.07,1.11.16,1.78.09.65.25,1.42-.23,1.73-.11.07-.25.12-.38.13-.77.06-.9-1.18-.97-2.24-.15-2.35.04-3.74.16-5.44.06-.9.1-1.9.14-2.89-.04-.99-.08-1.98-.14-2.89-.11-1.7-.3-3.09-.16-5.44.07-1.05.2-2.3.97-2.24.13.01.27.06.38.13.48.3.32,1.08.23,1.73-.1.67-.13,1.21-.16,1.78-.04.75-.09,1.56-.13,2.36-.07,1.54-.1,3.06-.13,4.57Z"></path><path class="cls-11" d="M709.37,522.83c.03,1.51.06,3.03.13,4.57.04.8.09,1.6.13,2.35.03.57.07,1.11.16,1.78.09.65.25,1.42-.23,1.73-.11.07-.25.12-.38.13-.77.06-.9-1.18-.97-2.24-.15-2.35.04-3.74.16-5.44.06-.9.1-1.9.14-2.89-.04-.99-.08-1.98-.14-2.89-.11-1.7-.3-3.09-.16-5.44.07-1.05.2-2.3.97-2.24.13.01.27.06.38.13.48.3.32,1.08.23,1.73-.1.67-.13,1.21-.16,1.78-.04.75-.09,1.56-.13,2.36-.07,1.54-.1,3.06-.13,4.57Z"></path></g><line class="cls-11" x1="688.92" y1="522.83" x2="738.53" y2="522.83"></line><g><path class="cls-11" d="M710.41,614.11c.03,1.51.06,3.03.13,4.57.04.8.09,1.6.13,2.36.03.57.07,1.11.16,1.78.09.65.25,1.42-.23,1.73-.11.07-.25.12-.38.13-.77.06-.9-1.18-.97-2.24-.15-2.35.04-3.74.16-5.44.06-.9.1-1.89.14-2.89-.04-.99-.08-1.98-.14-2.89-.11-1.7-.3-3.09-.16-5.44.07-1.05.2-2.3.97-2.24.13.01.27.06.38.13.48.3.32,1.08.23,1.73-.1.67-.13,1.21-.16,1.78-.04.75-.09,1.56-.13,2.35-.07,1.55-.1,3.06-.13,4.57Z"></path><path class="cls-11" d="M705.72,614.11c.03,1.51.06,3.03.13,4.57.04.8.09,1.6.13,2.36.03.57.07,1.11.16,1.78.09.65.25,1.42-.23,1.73-.11.07-.25.12-.38.13-.77.06-.9-1.18-.97-2.24-.15-2.35.04-3.74.16-5.44.06-.9.1-1.89.14-2.89-.04-.99-.08-1.98-.14-2.89-.11-1.7-.3-3.09-.16-5.44.07-1.05.2-2.3.97-2.24.13.01.27.06.38.13.48.3.32,1.08.23,1.73-.1.67-.13,1.21-.16,1.78-.04.75-.09,1.56-.13,2.35-.07,1.55-.1,3.06-.13,4.57Z"></path><path class="cls-11" d="M701.03,614.11c.03,1.51.06,3.03.13,4.57.04.8.09,1.6.13,2.36.03.57.07,1.11.16,1.78.09.65.25,1.42-.23,1.73-.11.07-.25.12-.38.13-.77.06-.9-1.18-.97-2.24-.15-2.35.04-3.74.16-5.44.06-.9.1-1.89.14-2.89-.04-.99-.08-1.98-.14-2.89-.11-1.7-.3-3.09-.16-5.44.07-1.05.2-2.3.97-2.24.13.01.27.06.38.13.48.3.32,1.08.23,1.73-.1.67-.13,1.21-.16,1.78-.04.75-.09,1.56-.13,2.35-.07,1.55-.1,3.06-.13,4.57Z"></path><path class="cls-11" d="M664.09,637.55c1.51-.03,3.03-.06,4.57-.13.8-.04,1.6-.09,2.35-.13.57-.03,1.11-.07,1.78-.16.65-.09,1.42-.25,1.73.23.07.11.12.25.13.38.06.77-1.18.9-2.24.97-2.35.15-3.74-.04-5.44-.16-.9-.06-1.9-.1-2.89-.14-.99.04-1.98.08-2.89.14-1.7.11-3.09.3-5.44.16-1.06-.07-2.3-.2-2.24-.97.01-.13.06-.27.13-.38.31-.48,1.08-.33,1.73-.23.67.1,1.21.13,1.78.16.75.04,1.56.09,2.35.13,1.55.07,3.06.1,4.57.13Z"></path><path class="cls-11" d="M664.09,642.24c1.51-.03,3.03-.06,4.57-.13.8-.04,1.6-.09,2.35-.13.57-.03,1.11-.07,1.78-.16.65-.09,1.42-.25,1.73.23.07.11.12.25.13.38.06.77-1.18.9-2.24.97-2.35.15-3.74-.04-5.44-.16-.9-.06-1.9-.1-2.89-.14-.99.04-1.98.08-2.89.14-1.7.11-3.09.3-5.44.16-1.06-.07-2.3-.2-2.24-.97.01-.13.06-.27.13-.38.31-.48,1.08-.33,1.73-.23.67.1,1.21.13,1.78.16.75.04,1.56.09,2.35.13,1.55.07,3.06.1,4.57.13Z"></path><path class="cls-11" d="M664.09,646.93c1.51-.03,3.03-.06,4.57-.13.8-.04,1.6-.09,2.35-.13.57-.03,1.11-.07,1.78-.16.65-.09,1.42-.25,1.73.23.07.11.12.25.13.38.06.77-1.18.9-2.24.97-2.35.15-3.74-.04-5.44-.16-.9-.06-1.9-.1-2.89-.14-.99.04-1.98.08-2.89.14-1.7.11-3.09.3-5.44.16-1.06-.07-2.3-.2-2.24-.97.01-.13.06-.27.13-.38.31-.48,1.08-.33,1.73-.23.67.1,1.21.13,1.78.16.75.04,1.56.09,2.35.13,1.55.07,3.06.1,4.57.13Z"></path></g><polyline class="cls-11" points="664.09 671.06 664.09 614.11 746.67 614.11"></polyline><g><path class="cls-11" d="M518.52,558.94c1.51-.03,3.03-.06,4.57-.13.8-.04,1.6-.09,2.35-.13.57-.03,1.11-.07,1.78-.16.65-.09,1.42-.25,1.73.23.07.11.12.25.13.38.06.77-1.18.9-2.24.97-2.35.15-3.74-.04-5.44-.16-.9-.06-1.9-.1-2.89-.14-.99.04-1.98.08-2.89.14-1.7.11-3.09.3-5.44.16-1.05-.07-2.3-.2-2.24-.97.01-.13.06-.27.12-.38.31-.48,1.08-.33,1.73-.23.67.1,1.21.13,1.78.16.75.04,1.56.09,2.35.13,1.55.07,3.06.1,4.57.13Z"></path><path class="cls-11" d="M518.52,563.63c1.51-.03,3.03-.06,4.57-.13.8-.04,1.6-.09,2.35-.13.57-.03,1.11-.07,1.78-.16.65-.09,1.42-.25,1.73.23.07.11.12.25.13.38.06.77-1.18.9-2.24.97-2.35.15-3.74-.04-5.44-.16-.9-.06-1.9-.1-2.89-.14-.99.04-1.98.08-2.89.14-1.7.11-3.09.3-5.44.16-1.05-.07-2.3-.2-2.24-.97.01-.13.06-.27.12-.38.31-.48,1.08-.33,1.73-.23.67.1,1.21.13,1.78.16.75.04,1.56.09,2.35.13,1.55.07,3.06.1,4.57.13Z"></path><path class="cls-11" d="M518.52,568.33c1.51-.03,3.03-.06,4.57-.13.8-.04,1.6-.09,2.35-.13.57-.03,1.11-.07,1.78-.16.65-.09,1.42-.25,1.73.23.07.11.12.25.13.38.06.77-1.18.9-2.24.97-2.35.15-3.74-.04-5.44-.16-.9-.06-1.9-.1-2.89-.14-.99.04-1.98.08-2.89.14-1.7.11-3.09.3-5.44.16-1.05-.07-2.3-.2-2.24-.97.01-.13.06-.27.12-.38.31-.48,1.08-.33,1.73-.23.67.1,1.21.13,1.78.16.75.04,1.56.09,2.35.13,1.55.07,3.06.1,4.57.13Z"></path></g><line class="cls-11" x1="518.52" y1="586.24" x2="518.52" y2="541.71"></line><g><path class="cls-11" d="M239.14,141.57c.03,1.51.06,3.03.13,4.57.04.8.09,1.6.13,2.35.03.57.07,1.11.16,1.78.09.65.25,1.42-.23,1.73-.11.07-.25.12-.38.13-.77.06-.9-1.18-.97-2.24-.15-2.35.04-3.74.16-5.44.06-.9.1-1.9.14-2.89-.04-.99-.08-1.98-.14-2.89-.12-1.7-.3-3.09-.16-5.44.07-1.05.2-2.3.97-2.24.13.01.27.06.38.13.48.3.32,1.08.23,1.73-.1.67-.13,1.21-.16,1.78-.04.75-.09,1.56-.13,2.36-.07,1.54-.1,3.06-.13,4.57Z"></path><path class="cls-11" d="M234.45,141.57c.03,1.51.06,3.03.13,4.57.04.8.09,1.6.13,2.35.03.57.07,1.11.16,1.78.09.65.25,1.42-.23,1.73-.11.07-.25.12-.38.13-.77.06-.9-1.18-.97-2.24-.15-2.35.04-3.74.16-5.44.06-.9.1-1.9.14-2.89-.04-.99-.08-1.98-.14-2.89-.12-1.7-.3-3.09-.16-5.44.07-1.05.2-2.3.97-2.24.13.01.27.06.38.13.48.3.33,1.08.23,1.73-.1.67-.13,1.21-.16,1.78-.04.75-.09,1.56-.13,2.36-.07,1.54-.1,3.06-.13,4.57Z"></path><path class="cls-11" d="M229.76,141.57c.03,1.51.06,3.03.13,4.57.04.8.09,1.6.13,2.35.03.57.07,1.11.16,1.78.09.65.25,1.42-.23,1.73-.11.07-.25.12-.38.13-.77.06-.9-1.18-.97-2.24-.15-2.35.04-3.74.16-5.44.06-.9.1-1.9.14-2.89-.04-.99-.08-1.98-.14-2.89-.12-1.7-.3-3.09-.16-5.44.07-1.05.2-2.3.97-2.24.13.01.27.06.38.13.48.3.32,1.08.23,1.73-.1.67-.13,1.21-.16,1.78-.04.75-.09,1.56-.13,2.36-.07,1.54-.1,3.06-.13,4.57Z"></path><path class="cls-11" d="M196.65,164.15c1.51-.03,3.03-.06,4.57-.13.8-.04,1.6-.09,2.35-.13.57-.03,1.11-.07,1.78-.16.65-.09,1.42-.25,1.73.23.07.11.12.25.13.38.06.77-1.18.9-2.24.97-2.35.15-3.74-.04-5.44-.16-.9-.06-1.9-.1-2.89-.14-.99.04-1.98.08-2.89.14-1.7.12-3.09.3-5.44.16-1.05-.07-2.3-.2-2.24-.97.01-.13.06-.27.13-.38.3-.48,1.08-.32,1.73-.23.67.1,1.21.13,1.78.16.75.04,1.56.09,2.36.13,1.54.07,3.06.1,4.57.13Z"></path><path class="cls-11" d="M196.65,168.84c1.51-.03,3.03-.06,4.57-.13.8-.04,1.6-.09,2.35-.13.57-.03,1.11-.07,1.78-.16.65-.09,1.42-.25,1.73.23.07.11.12.25.13.38.06.77-1.18.9-2.24.97-2.35.15-3.74-.04-5.44-.16-.9-.06-1.9-.1-2.89-.14-.99.04-1.98.08-2.89.14-1.7.12-3.09.3-5.44.16-1.05-.07-2.3-.2-2.24-.97.01-.13.06-.27.13-.38.3-.48,1.08-.33,1.73-.23.67.1,1.21.13,1.78.16.75.04,1.56.09,2.36.13,1.54.07,3.06.1,4.57.13Z"></path><path class="cls-11" d="M196.65,173.54c1.51-.03,3.03-.06,4.57-.13.8-.04,1.6-.09,2.35-.13.57-.03,1.11-.07,1.78-.16.65-.09,1.42-.25,1.73.23.07.11.12.25.13.38.06.77-1.18.9-2.24.97-2.35.15-3.74-.04-5.44-.16-.9-.06-1.9-.1-2.89-.14-.99.04-1.98.08-2.89.14-1.7.12-3.09.3-5.44.16-1.05-.07-2.3-.2-2.24-.97.01-.13.06-.27.13-.38.3-.48,1.08-.33,1.73-.23.67.1,1.21.13,1.78.16.75.04,1.56.09,2.36.13,1.54.07,3.06.1,4.57.13Z"></path></g><polyline class="cls-11" points="196.65 196.43 196.65 141.57 271.39 141.57"></polyline><line class="cls-11" x1="949.84" y1="710.33" x2="993.54" y2="326.89"></line><line class="cls-11" x1="993.54" y1="326.89" x2="889.88" y2="326.89"></line><line class="cls-11" x1="876.02" y1="211.4" x2="876.02" y2="152.82"></line><polyline class="cls-11" points="884.06 154.85 919.54 164 955.01 173.52 990.31 183.31 1025.6 193.47 1060.71 203.91 1016.27 324.58 1001.95 324.58 1002.6 318.85"></polyline><polyline class="cls-11" points="876.02 152.82 838.69 143.58 801.36 134.8 763.94 126.3 726.43 118.17 688.83 110.41 651.13 103.02 613.43 96 575.64 89.35 537.76 83.06 499.88 77.06 461.91 71.51 423.93 66.25 385.87 61.44 347.71 56.92 309.55 52.85 271.39 49.06"></polyline><line class="cls-11" x1="876.02" y1="211.4" x2="876.02" y2="152.82"></line><polyline class="cls-11" points="128.18 38.16 91.59 36.22 55 34.65 18.41 33.35 .38 32.9"></polyline><line class="cls-11" x1="128.18" y1="67.08" x2="128.18" y2="38.16"></line><polyline class="cls-11" points="271.39 49.06 224.82 44.9 180.57 41.58 136.31 38.62"></polyline><polyline class="cls-11" points="128.18 115.59 128.18 121.31 162.83 121.31"></polyline><line class="cls-11" x1=".38" y1="32.9" x2=".38" y2="27.1"></line><polygon class="cls-6" points="884.06 148.85 925.54 159.57 983.01 175.18 983.66 172.96 925.82 157.26 884.06 146.45 884.06 148.85"></polygon><polygon class="cls-6" points="884.06 716.15 955.01 716.15 1000.01 321.16 1000.01 321.19 889.88 321.19 889.88 318.88 1002.6 318.88 957.05 718.49 957.05 718.46 884.06 718.46 884.06 716.15"></polygon><polygon class="cls-6" points="251.52 41.39 288.94 44.9 326.46 48.78 363.87 52.94 401.2 57.56 438.53 62.46 475.76 67.63 513 73.27 550.14 79.18 587.28 85.46 624.33 92.12 661.29 99.14 698.25 106.44 735.12 114.11 771.89 122.15 808.57 130.55 845.25 139.24 881.74 148.29 881.74 211.4 884.05 211.4 884.05 146.45 847.37 137.39 810.69 128.61 773.83 120.2 736.96 112.17 700.01 104.5 662.96 97.11 625.81 90.08 588.67 83.43 551.44 77.06 514.11 71.14 476.78 65.51 439.36 60.24 401.94 55.25 364.43 50.72 326.92 46.47 289.31 42.59 251.71 39.08 251.52 41.39"></polygon><polygon class="cls-6" points="136.22 113.28 263.26 113.28 263.26 48.32 265.57 48.51 265.57 115.59 136.22 115.59 136.22 113.28"></polygon><polygon class="cls-6" points="154.05 34 136.22 32.89 136.22 30.58 154.14 31.69 154.05 34"></polygon><polygon class="cls-6" points=".38 27.1 19.89 27.63 57.87 28.92 95.93 30.67 133.91 32.71 133.91 67.08 136.22 67.08 136.22 30.58 97.69 28.46 59.07 26.7 20.45 25.32 .38 24.79 .38 27.1"></polygon><polyline class="cls-6" points="834.25 136.56 832.87 142.19 830.65 141.64 831.94 136 834.25 136.56"></polyline><polyline class="cls-6" points="983.01 175.18 981.53 180.82 979.31 180.17 980.79 174.63 983.01 175.18"></polyline><polyline class="cls-6" points="766.71 121.04 765.51 126.67 763.2 126.12 764.5 120.48 766.71 121.04"></polyline><polyline class="cls-6" points="698.99 106.62 697.79 112.26 695.57 111.8 696.68 106.16 698.99 106.62"></polyline><polyline class="cls-6" points="630.99 93.41 629.88 99.05 627.66 98.58 628.68 92.95 630.99 93.41"></polyline><polyline class="cls-6" points="562.71 81.31 561.78 87.04 559.47 86.57 560.49 80.94 562.71 81.31"></polyline><polyline class="cls-6" points="494.34 70.4 493.5 76.13 491.19 75.76 492.03 70.03 494.34 70.4"></polyline><polygon class="cls-6" points="425.68 60.77 424.93 66.39 422.65 66.09 423.46 60.48 425.68 60.77"></polygon><polyline class="cls-6" points="356.95 52.2 356.3 57.93 353.99 57.65 354.73 51.93 356.95 52.2"></polyline><rect class="cls-6" x="940.69" y="321.16" width="2.31" height="5.73"></rect><rect class="cls-6" x="889.88" y="321.16" width="2.31" height="5.73"></rect><polyline class="cls-6" points="955.2 663.48 960.93 664.13 960.65 666.44 954.92 665.79 955.2 663.48"></polyline><polyline class="cls-6" points="951.32 697.85 957.05 698.59 956.77 700.81 951.04 700.16 951.32 697.85"></polyline><polyline class="cls-6" points="966.93 560.19 972.66 560.83 972.48 563.14 966.75 562.5 966.93 560.19"></polyline><polyline class="cls-6" points="963.05 594.65 968.78 595.3 968.5 597.61 962.78 596.96 963.05 594.65"></polyline><polyline class="cls-6" points="974.79 491.35 980.52 492 980.33 494.31 974.51 493.66 974.79 491.35"></polyline><polyline class="cls-6" points="978.76 456.89 984.49 457.54 984.21 459.85 978.48 459.2 978.76 456.89"></polyline><polyline class="cls-6" points="986.61 388.06 992.34 388.7 992.06 391.01 986.34 390.37 986.61 388.06"></polyline><polyline class="cls-6" points="950.02 708.76 949.84 710.33 948.27 710.33 953.44 716.15 955.01 716.15 955.2 714.58 950.02 708.76"></polyline><polyline class="cls-6" points="994.19 327.91 999.83 322.92 1000.01 321.16 998.26 321.16 991.79 326.89 993.54 326.89 993.36 328.65 994.19 327.91"></polyline><rect class="cls-6" x="876.02" y="255.29" width="8.04" height="2.31"></rect><rect class="cls-6" x="876.02" y="211.4" width="8.04" height="2.31"></rect><polyline class="cls-6" points="874.54 152.45 876.02 152.82 876.02 154.21 881.75 149.77 881.75 148.29 880.36 147.92 874.54 152.45"></polyline><polyline class="cls-6" points="288.11 44.81 287.56 50.63 285.25 50.36 285.8 44.63 288.11 44.81"></polyline><polyline class="cls-6" points="253.83 41.67 253.28 47.4 250.97 47.21 251.52 41.39 253.83 41.67"></polyline><polyline class="cls-6" points="80.78 29.94 80.59 35.76 78.28 35.57 78.47 29.84 80.78 29.94"></polyline><polyline class="cls-6" points="11.58 27.35 11.39 33.17 9.08 33.08 9.27 27.26 11.58 27.35"></polyline><polyline class="cls-6" points="154.05 34 153.68 39.73 151.37 39.64 151.74 33.82 154.05 34"></polyline><polyline class="cls-6" points="460.06 65.42 459.23 71.14 456.92 70.77 457.75 65.14 460.06 65.42"></polyline><rect class="cls-6" x="169.85" y="115.58" width="2.31" height="5.73"></rect><rect class="cls-6" x="135.11" y="115.58" width="2.31" height="5.73"></rect><polyline class="cls-6" points="126.61 38.07 128.18 38.16 128.18 39.73 133.17 35.02 133.91 34.37 133.91 32.71 132.34 32.61 126.61 38.07"></polyline><rect class="cls-6" x="128.18" y="67.08" width="8.04" height="2.31"></rect><rect class="cls-6" x="128.18" y="110.97" width="8.04" height="4.62"></rect><rect class="cls-6" x="262.15" y="115.58" width="2.31" height="5.73"></rect><rect class="cls-6" x="265.57" y="79.92" width="5.82" height="2.31"></rect><polyline class="cls-6" points="970.86 525.8 976.59 526.44 976.4 528.75 970.67 528.11 970.86 525.8"></polyline><polygon class="cls-13" points="423.86 586.24 499.51 586.24 499.51 583.65 505.24 583.65 505.24 586.24 532.96 586.24 532.96 541.71 505.24 541.71 505.24 544.39 499.51 544.39 499.51 392.77 532.96 392.77 532.96 402.01 505.24 402.01 505.24 502.44 738.53 502.44 738.53 474.72 744.35 474.72 744.35 535.98 759.32 535.98 759.32 541.71 734.47 541.71 734.47 535.98 738.53 535.98 738.53 508.26 688.92 508.26 688.92 535.98 692.89 535.98 692.89 541.71 688.92 541.71 688.92 547.44 683.1 547.44 683.1 510.02 541.09 510.02 541.09 586.24 582.67 586.24 582.67 593.73 597.63 593.73 597.63 599.45 593.01 599.45 593.01 663.02 643.83 663.02 643.83 599.45 639.3 599.45 639.3 593.73 683.1 593.73 683.1 589.11 688.92 589.11 688.92 593.73 752.39 593.73 752.39 631.24 746.66 631.24 746.66 599.45 649.65 599.45 649.65 671.06 691.23 671.06 691.23 704.6 746.66 704.6 746.66 672.82 752.39 672.82 752.39 704.6 944.67 704.6 945.41 698.41 951.13 699.05 949.84 710.33 884.06 710.33 884.06 714.6 681.23 714.6 681.23 681.06 572.67 681.06 572.67 594.98 423.86 594.98 423.86 586.24"></polygon><polygon class="cls-8" points="423.86 586.24 499.51 586.24 499.51 583.65 505.24 583.65 505.24 586.24 532.96 586.24 532.96 541.71 505.24 541.71 505.24 544.39 499.51 544.39 499.51 392.77 532.96 392.77 532.96 402.01 505.24 402.01 505.24 502.44 738.53 502.44 738.53 474.72 744.35 474.72 744.35 535.98 759.32 535.98 759.32 541.71 734.47 541.71 734.47 535.98 738.53 535.98 738.53 508.26 688.92 508.26 688.92 535.98 692.89 535.98 692.89 541.71 688.92 541.71 688.92 547.44 683.1 547.44 683.1 510.02 541.09 510.02 541.09 586.24 582.67 586.24 582.67 593.73 597.63 593.73 597.63 599.45 593.01 599.45 593.01 663.02 643.83 663.02 643.83 599.45 639.3 599.45 639.3 593.73 683.1 593.73 683.1 589.11 688.92 589.11 688.92 593.73 752.39 593.73 752.39 631.24 746.66 631.24 746.66 599.45 649.65 599.45 649.65 671.06 691.23 671.06 691.23 704.6 746.66 704.6 746.66 672.82 752.39 672.82 752.39 704.6 944.67 704.6 945.41 698.41 951.13 699.05 949.84 710.33 884.06 710.33 884.06 714.6 681.23 714.6 681.23 681.06 572.67 681.06 572.67 594.98 423.86 594.98 423.86 586.24"></polygon><polygon class="cls-13" points="970.77 526.94 966.84 561.39 961.11 560.65 961.57 556.21 805.52 556.21 805.52 541.71 800.9 541.71 800.9 535.98 963.88 535.98 964.99 526.28 970.77 526.94"></polygon><polygon class="cls-8" points="970.77 526.94 966.84 561.39 961.11 560.65 961.57 556.21 805.52 556.21 805.52 541.71 800.9 541.71 800.9 535.98 963.88 535.98 964.99 526.28 970.77 526.94"></polygon><polygon class="cls-13" points="876.02 256.49 870.2 256.49 870.2 332.71 890.99 332.71 890.99 326.89 889.88 326.89 889.88 257.6 876.02 257.6 876.02 256.49"></polygon><polygon class="cls-8" points="876.02 256.49 870.2 256.49 870.2 332.71 890.99 332.71 890.99 326.89 889.88 326.89 889.88 257.6 876.02 257.6 876.02 256.49"></polygon><line class="cls-8" x1="884.06" y1="714.6" x2="884.06" y2="716.15"></line><polygon class="cls-13" points="10.37 33.08 10.37 293.44 131.61 293.44 131.61 427.42 125.88 427.42 125.88 299.17 16.1 299.17 16.1 471.3 18.41 471.3 18.41 513.99 125.23 513.99 125.23 471.3 130.97 471.3 130.97 513.99 170.86 513.99 170.86 477.03 176.68 477.03 176.68 513.99 352.83 513.99 352.83 398.5 176.68 398.5 176.68 435.45 170.86 435.45 170.86 392.77 268.57 392.77 268.57 383.53 274.25 383.53 274.25 392.77 442.87 392.77 442.87 435.36 437.14 435.36 437.14 398.5 360.92 398.5 360.92 481.65 437.14 481.65 437.14 477.03 442.87 477.03 442.87 487.47 370.16 487.47 370.16 586.24 376.44 586.24 376.44 594.99 360.16 594.99 360.16 523.99 .38 523.99 .38 32.9 10.37 33.08"></polygon><polygon class="cls-8" points="10.37 33.08 10.37 293.44 131.61 293.44 131.61 427.42 125.88 427.42 125.88 299.17 16.1 299.17 16.1 471.3 18.41 471.3 18.41 513.99 125.23 513.99 125.23 471.3 130.97 471.3 130.97 513.99 170.86 513.99 170.86 477.03 176.68 477.03 176.68 513.99 352.83 513.99 352.83 398.5 176.68 398.5 176.68 435.45 170.86 435.45 170.86 392.77 268.57 392.77 268.57 383.53 274.25 383.53 274.25 392.77 442.87 392.77 442.87 435.36 437.14 435.36 437.14 398.5 360.92 398.5 360.92 481.65 437.14 481.65 437.14 477.03 442.87 477.03 442.87 487.47 370.16 487.47 370.16 586.24 376.44 586.24 376.44 594.99 360.16 594.99 360.16 523.99 .38 523.99 .38 32.9 10.37 33.08"></polygon><polygon class="cls-13" points="286.36 50.45 285.8 56.27 277.12 55.34 277.12 150.14 271.39 150.14 271.39 127.13 182.41 127.13 182.41 196.43 271.39 196.43 271.39 191.81 277.12 191.81 277.12 280.69 271.43 280.69 271.43 241.43 269.08 241.43 269.08 202.16 192.85 202.16 192.85 241.43 178.99 241.43 178.99 326.89 271.39 326.89 271.39 322.27 277.12 322.27 277.12 326.89 286.36 326.89 286.36 332.71 274.25 332.71 274.25 341.95 268.52 341.95 268.52 332.71 170.86 332.71 170.86 242.63 162.83 242.63 162.83 121.31 271.39 121.31 271.39 49.06 286.36 50.45"></polygon><polygon class="cls-8" points="286.36 50.45 285.8 56.27 277.12 55.34 277.12 150.14 271.39 150.14 271.39 127.13 182.41 127.13 182.41 196.43 271.39 196.43 271.39 191.81 277.12 191.81 277.12 280.69 271.43 280.69 271.43 241.43 269.08 241.43 269.08 202.16 192.85 202.16 192.85 241.43 178.99 241.43 178.99 326.89 271.39 326.89 271.39 322.27 277.12 322.27 277.12 326.89 286.36 326.89 286.36 332.71 274.25 332.71 274.25 341.95 268.52 341.95 268.52 332.71 170.86 332.71 170.86 242.63 162.83 242.63 162.83 121.31 271.39 121.31 271.39 49.06 286.36 50.45"></polygon><polygon class="cls-13" points="456.73 71.14 456.73 332.71 385.68 332.71 385.68 326.89 405.91 326.89 405.91 324.58 451 324.58 451 252.98 340.68 252.98 340.68 326.89 344.1 326.89 344.1 332.71 327.93 332.71 327.93 326.89 332.55 326.89 332.55 247.25 437.14 247.25 437.14 73.92 423.1 71.98 423.93 66.25 456.91 70.82 456.73 71.14"></polygon><polygon class="cls-8" points="456.73 71.14 456.73 332.71 385.68 332.71 385.68 326.89 405.91 326.89 405.91 324.58 451 324.58 451 252.98 340.68 252.98 340.68 326.89 344.1 326.89 344.1 332.71 327.93 332.71 327.93 326.89 332.55 326.89 332.55 247.25 437.14 247.25 437.14 73.92 423.1 71.98 423.93 66.25 456.91 70.82 456.73 71.14"></polygon><g><path class="cls-15" d="M400.26,607.14c-.02-.08-.07-.14-.14-.14s-.13.06-.14.14c-.56,3.3-2.74,4.94-6.02,4.94h-3.83c-1.16,0-1.98,1.01-2.2,2.66-.05.33.23.61.47.45.46-.31,1.06-.46,1.78-.46h3.48c2.95,0,5.21-1.67,6.17-4.98.11-.37.5-.37.61,0,.96,3.31,3.22,4.98,6.18,4.98h3.48c.72,0,1.31.16,1.78.46.23.16.51-.12.47-.45-.22-1.64-1.05-2.66-2.2-2.66h-3.84c-3.29,0-5.46-1.64-6.02-4.95h0Z"></path><path class="cls-9" d="M400.26,607.14c-.02-.08-.07-.14-.14-.14s-.13.06-.14.14c-.56,3.3-2.74,4.94-6.02,4.94h-3.83c-1.16,0-1.98,1.01-2.2,2.66-.05.33.23.61.47.45.46-.31,1.06-.46,1.78-.46h3.48c2.95,0,5.21-1.67,6.17-4.98.11-.37.5-.37.61,0,.96,3.31,3.22,4.98,6.18,4.98h3.48c.72,0,1.31.16,1.78.46.23.16.51-.12.47-.45-.22-1.64-1.05-2.66-2.2-2.66h-3.84c-3.29,0-5.46-1.64-6.02-4.95h0Z"></path></g><g><path class="cls-13" d="M37.91,158.99h2.52c1.9,0,2.97.89,2.97,2.53s-1.07,2.54-2.97,2.54h-1.72v3.99h-.8v-9.06ZM40.36,163.33c1.41,0,2.24-.61,2.24-1.81s-.81-1.81-2.24-1.81h-1.64v3.62h1.64Z"></path><path class="cls-13" d="M44.92,161.64h.78v1.09c.43-.78,1.31-1.18,2.02-1.18.33,0,.66.07.99.24l-.39.7c-.21-.1-.51-.17-.77-.17-.68,0-1.46.36-1.74,1.3-.08.27-.12.57-.12,1.27v3.15h-.78v-6.41Z"></path><path class="cls-13" d="M49.98,158.99h.94v1.39h-.94v-1.39ZM50.06,161.64h.77v6.41h-.77v-6.41Z"></path><path class="cls-13" d="M52.87,161.64h.78v1.1c.38-.85,1.11-1.19,1.88-1.19.91,0,1.57.4,1.89,1.25.4-.83,1.09-1.25,2-1.25,1.55,0,2.13,1.16,2.13,2.68v3.82h-.78v-3.64c0-1.33-.39-2.18-1.52-2.18-1.02,0-1.65.77-1.65,2.26v3.57h-.78v-3.76c0-1.4-.52-2.07-1.5-2.07-1.03,0-1.67.79-1.67,2.26v3.57h-.78v-6.41Z"></path><path class="cls-13" d="M67.7,166.84c-.43.82-1.25,1.29-2.25,1.29-1.44,0-2.31-.77-2.31-1.94,0-.69.29-1.16.72-1.44.46-.31,1.09-.42,1.77-.42h2.05v-.28c0-1.19-.62-1.83-1.82-1.83-.79,0-1.4.29-1.98,1.02l-.56-.48c.68-.85,1.53-1.22,2.59-1.22,1.63,0,2.54.89,2.54,2.51v3.99h-.72l-.04-1.2ZM65.52,167.49c1.18,0,2.16-.93,2.16-2.2v-.36h-1.95c-.51,0-1.03.08-1.37.33-.28.21-.44.51-.44.94,0,.79.6,1.3,1.6,1.3Z"></path><path class="cls-13" d="M70.41,161.64h.78v1.09c.43-.78,1.31-1.18,2.02-1.18.33,0,.66.07.99.24l-.39.7c-.21-.1-.51-.17-.77-.17-.68,0-1.46.36-1.74,1.3-.08.27-.12.57-.12,1.27v3.15h-.78v-6.41Z"></path><path class="cls-13" d="M77.46,167.85l-2.55-6.21h.86l2.1,5.42,2.11-5.42h.85l-3.69,9.05h-.84l1.17-2.84Z"></path><path class="cls-13" d="M85.72,158.99h2.72c1.68,0,2.68.84,2.68,2.25,0,.94-.46,1.68-1.24,2,1.1.25,1.7,1.07,1.7,2.31,0,1.61-1.02,2.5-2.88,2.5h-2.97v-9.06ZM88.69,162.99c.98,0,1.63-.64,1.63-1.64s-.69-1.61-1.89-1.61h-1.91v3.26h2.16ZM88.64,167.3c1.42,0,2.14-.6,2.14-1.79,0-1.13-.66-1.79-1.79-1.79h-2.46v3.58h2.11Z"></path><path class="cls-13" d="M93.05,164.89c0-1.84.99-3.34,2.81-3.34,1.96,0,2.76,1.53,2.76,2.94,0,.1-.01.4-.04.55h-4.76c.03,1.51.84,2.39,2.15,2.39.82,0,1.35-.23,1.91-.83l.55.49c-.73.75-1.43,1.05-2.46,1.05-1.89,0-2.91-1.41-2.91-3.25ZM97.86,164.46c0-.08,0-.16,0-.24,0-.92-.58-2.02-2-2.02-1.23,0-1.98.98-2.07,2.26h4.06Z"></path><path class="cls-13" d="M100.03,164.84c0-1.96,1.29-3.29,2.92-3.29,1.05,0,1.87.54,2.29,1.36v-3.92h.77v9.06h-.77v-1.26c-.44.85-1.25,1.35-2.29,1.35-1.72,0-2.92-1.42-2.92-3.3ZM103.07,167.42c1.3,0,2.23-1.08,2.23-2.58s-.93-2.58-2.23-2.58-2.26,1.09-2.26,2.58.95,2.58,2.26,2.58Z"></path><path class="cls-13" d="M108.04,161.64h.78v1.09c.43-.78,1.31-1.18,2.02-1.18.33,0,.66.07.99.24l-.39.7c-.21-.1-.51-.17-.77-.17-.68,0-1.46.36-1.74,1.3-.08.27-.12.57-.12,1.27v3.15h-.78v-6.41Z"></path><path class="cls-13" d="M112.42,164.84c0-1.92,1.25-3.29,3.05-3.29s3.04,1.36,3.04,3.29-1.27,3.3-3.04,3.3-3.05-1.36-3.05-3.3ZM115.47,167.44c1.37,0,2.26-1.04,2.26-2.61s-.9-2.61-2.26-2.61-2.27,1.05-2.27,2.61.9,2.61,2.27,2.61Z"></path><path class="cls-13" d="M119.96,164.84c0-1.92,1.25-3.29,3.05-3.29s3.04,1.36,3.04,3.29-1.27,3.3-3.04,3.3-3.05-1.36-3.05-3.3ZM123,167.44c1.37,0,2.26-1.04,2.26-2.61s-.9-2.61-2.26-2.61-2.27,1.05-2.27,2.61.9,2.61,2.27,2.61Z"></path><path class="cls-13" d="M127.79,161.64h.78v1.1c.38-.85,1.11-1.19,1.88-1.19.91,0,1.57.4,1.89,1.25.4-.83,1.09-1.25,2-1.25,1.55,0,2.13,1.16,2.13,2.68v3.82h-.78v-3.64c0-1.33-.39-2.18-1.52-2.18-1.02,0-1.65.77-1.65,2.26v3.57h-.78v-3.76c0-1.4-.52-2.07-1.5-2.07-1.03,0-1.67.79-1.67,2.26v3.57h-.78v-6.41Z"></path></g><g><path class="cls-13" d="M331.78,158.99h2.72c1.68,0,2.68.84,2.68,2.25,0,.94-.46,1.68-1.24,2,1.1.25,1.7,1.07,1.7,2.31,0,1.61-1.02,2.5-2.88,2.5h-2.97v-9.06ZM334.76,162.99c.98,0,1.63-.64,1.63-1.64s-.69-1.61-1.88-1.61h-1.91v3.26h2.16ZM334.7,167.3c1.42,0,2.14-.6,2.14-1.79,0-1.13-.66-1.79-1.79-1.79h-2.46v3.58h2.11Z"></path><path class="cls-13" d="M339.08,164.89c0-1.84.99-3.34,2.81-3.34,1.96,0,2.76,1.53,2.76,2.94,0,.1-.01.4-.04.55h-4.76c.03,1.51.84,2.39,2.14,2.39.82,0,1.35-.23,1.91-.83l.55.49c-.73.75-1.43,1.05-2.46,1.05-1.89,0-2.91-1.41-2.91-3.25ZM343.9,164.46c0-.08,0-.16,0-.24,0-.92-.58-2.02-2-2.02-1.23,0-1.98.98-2.07,2.26h4.06Z"></path><path class="cls-13" d="M346.05,164.84c0-1.96,1.29-3.29,2.92-3.29,1.05,0,1.87.54,2.29,1.36v-3.92h.77v9.06h-.77v-1.26c-.44.85-1.25,1.35-2.29,1.35-1.72,0-2.92-1.42-2.92-3.3ZM349.09,167.42c1.3,0,2.23-1.08,2.23-2.58s-.93-2.58-2.23-2.58-2.26,1.09-2.26,2.58.95,2.58,2.26,2.58Z"></path><path class="cls-13" d="M354.07,161.64h.78v1.09c.43-.78,1.31-1.18,2.02-1.18.33,0,.66.07.99.24l-.39.7c-.21-.1-.51-.17-.77-.17-.68,0-1.46.36-1.74,1.3-.08.27-.12.57-.12,1.27v3.15h-.78v-6.41Z"></path><path class="cls-13" d="M358.45,164.84c0-1.92,1.25-3.29,3.05-3.29s3.04,1.36,3.04,3.29-1.27,3.3-3.04,3.3-3.05-1.36-3.05-3.3ZM361.5,167.44c1.37,0,2.26-1.04,2.26-2.61s-.9-2.61-2.26-2.61-2.28,1.05-2.28,2.61.9,2.61,2.28,2.61Z"></path><path class="cls-13" d="M365.98,164.84c0-1.92,1.25-3.29,3.05-3.29s3.04,1.36,3.04,3.29-1.27,3.3-3.04,3.3-3.05-1.36-3.05-3.3ZM369.03,167.44c1.37,0,2.26-1.04,2.26-2.61s-.9-2.61-2.26-2.61-2.28,1.05-2.28,2.61.9,2.61,2.28,2.61Z"></path><path class="cls-13" d="M373.82,161.64h.78v1.1c.38-.85,1.11-1.19,1.88-1.19.91,0,1.57.4,1.89,1.25.4-.83,1.09-1.25,2-1.25,1.55,0,2.13,1.16,2.13,2.68v3.82h-.78v-3.64c0-1.33-.39-2.18-1.52-2.18-1.02,0-1.65.77-1.65,2.26v3.57h-.78v-3.76c0-1.4-.52-2.07-1.5-2.07-1.03,0-1.67.79-1.67,2.26v3.57h-.78v-6.41Z"></path></g><g><path class="cls-13" d="M830.76,625.66h2.72c1.68,0,2.68.84,2.68,2.25,0,.94-.46,1.68-1.24,2,1.1.25,1.7,1.07,1.7,2.31,0,1.61-1.02,2.5-2.88,2.5h-2.97v-9.06ZM833.73,629.66c.98,0,1.63-.64,1.63-1.64s-.69-1.61-1.88-1.61h-1.91v3.26h2.16ZM833.68,633.97c1.42,0,2.14-.6,2.14-1.79,0-1.13-.66-1.79-1.79-1.79h-2.46v3.58h2.11Z"></path><path class="cls-13" d="M838.06,631.56c0-1.84.99-3.34,2.81-3.34,1.96,0,2.76,1.53,2.76,2.94,0,.1-.01.4-.04.55h-4.76c.03,1.51.84,2.39,2.14,2.39.82,0,1.35-.23,1.91-.83l.55.49c-.73.75-1.43,1.05-2.46,1.05-1.89,0-2.91-1.41-2.91-3.25ZM842.88,631.13c0-.08,0-.16,0-.24,0-.92-.58-2.01-2-2.01-1.23,0-1.98.98-2.07,2.26h4.06Z"></path><path class="cls-13" d="M845.03,631.51c0-1.96,1.29-3.29,2.92-3.29,1.05,0,1.87.54,2.29,1.36v-3.92h.77v9.06h-.77v-1.26c-.44.84-1.25,1.35-2.29,1.35-1.72,0-2.92-1.42-2.92-3.3ZM848.07,634.09c1.3,0,2.23-1.08,2.23-2.58s-.93-2.58-2.23-2.58-2.26,1.09-2.26,2.58.95,2.58,2.26,2.58Z"></path><path class="cls-13" d="M853.05,628.31h.78v1.09c.43-.78,1.31-1.18,2.02-1.18.33,0,.66.07.99.24l-.39.7c-.21-.1-.51-.17-.77-.17-.68,0-1.46.36-1.74,1.3-.08.27-.12.57-.12,1.27v3.15h-.78v-6.41Z"></path><path class="cls-13" d="M857.43,631.51c0-1.92,1.25-3.29,3.05-3.29s3.04,1.37,3.04,3.29-1.27,3.3-3.04,3.3-3.05-1.37-3.05-3.3ZM860.48,634.11c1.37,0,2.26-1.04,2.26-2.61s-.9-2.61-2.26-2.61-2.28,1.05-2.28,2.61.9,2.61,2.28,2.61Z"></path><path class="cls-13" d="M864.96,631.51c0-1.92,1.25-3.29,3.05-3.29s3.04,1.37,3.04,3.29-1.27,3.3-3.04,3.3-3.05-1.37-3.05-3.3ZM868.01,634.11c1.37,0,2.26-1.04,2.26-2.61s-.9-2.61-2.26-2.61-2.28,1.05-2.28,2.61.9,2.61,2.28,2.61Z"></path><path class="cls-13" d="M872.8,628.31h.78v1.1c.38-.84,1.11-1.19,1.88-1.19.91,0,1.57.4,1.89,1.25.4-.83,1.09-1.25,2-1.25,1.55,0,2.13,1.16,2.13,2.68v3.82h-.78v-3.64c0-1.33-.39-2.18-1.52-2.18-1.02,0-1.65.77-1.65,2.26v3.57h-.78v-3.76c0-1.4-.52-2.07-1.5-2.07-1.03,0-1.67.79-1.67,2.26v3.57h-.78v-6.41Z"></path></g><g><path class="cls-13" d="M831.36,429.12h2.43c2.94,0,4.62,1.68,4.62,4.6s-1.64,4.46-4.63,4.46h-2.42v-9.06ZM833.71,437.43c2.5,0,3.89-1.16,3.89-3.74s-1.4-3.83-3.82-3.83h-1.61v7.57h1.54Z"></path><path class="cls-13" d="M840.02,429.12h.94v1.39h-.94v-1.39ZM840.1,431.77h.77v6.41h-.77v-6.41Z"></path><path class="cls-13" d="M842.91,431.77h.78v1.05c.4-.76,1.12-1.14,2.01-1.14,1.38,0,2.2.81,2.2,2.51v3.99h-.78v-3.71c0-1.45-.55-2.11-1.61-2.11-1.16,0-1.83.79-1.83,2.55v3.27h-.78v-6.41Z"></path><path class="cls-13" d="M849.79,429.12h.94v1.39h-.94v-1.39ZM849.87,431.77h.77v6.41h-.77v-6.41Z"></path><path class="cls-13" d="M852.68,431.77h.78v1.05c.4-.76,1.12-1.14,2.01-1.14,1.38,0,2.2.81,2.2,2.51v3.99h-.78v-3.71c0-1.45-.55-2.11-1.61-2.11-1.16,0-1.83.79-1.83,2.55v3.27h-.78v-6.41Z"></path><path class="cls-13" d="M859.14,438.94s0-.1.03-.26l1.11-.88c-.57-.22-.96-.59-.96-1.26,0-.53.27-.9.72-1.2-.36-.37-.56-.87-.56-1.45,0-1.3,1.04-2.2,2.38-2.2.64,0,1.22.21,1.64.58l1.02-.86.4.49-1,.88c.19.33.3.71.3,1.14,0,1.28-.96,2.13-2.33,2.13-.53,0-.99-.12-1.37-.34-.31.17-.45.42-.45.71,0,.66.63.83,1.62.98,1.6.25,2.99.44,2.99,1.75,0,1.16-1.05,1.78-2.7,1.78-1.82,0-2.85-.7-2.85-2ZM861.99,440.33c1.09,0,1.92-.34,1.92-1.08,0-.86-1.16-.96-2.31-1.14-.31-.05-.6-.1-.89-.17l-.8.92c-.01.09-.01.11-.01.15,0,.9.79,1.33,2.09,1.33ZM861.86,435.4c.98,0,1.59-.65,1.59-1.53s-.64-1.56-1.58-1.56-1.62.65-1.62,1.55.63,1.55,1.61,1.55Z"></path><path class="cls-13" d="M869.62,429.12h2.52c1.99,0,2.97.93,2.97,2.5,0,1.25-.64,2.07-1.85,2.38l2.44,4.19h-.92l-2.34-4.07c-.21,0-.44,0-.65,0h-1.36v4.06h-.81v-9.06ZM872.06,433.4c1.38,0,2.24-.55,2.24-1.78s-.88-1.77-2.24-1.77h-1.64v3.56h1.64Z"></path><path class="cls-13" d="M876.63,434.97c0-1.92,1.25-3.29,3.05-3.29s3.04,1.37,3.04,3.29-1.27,3.3-3.04,3.3-3.05-1.37-3.05-3.3ZM879.67,437.57c1.37,0,2.26-1.04,2.26-2.61s-.9-2.61-2.26-2.61-2.28,1.05-2.28,2.61.9,2.61,2.28,2.61Z"></path><path class="cls-13" d="M884.16,434.97c0-1.92,1.25-3.29,3.05-3.29s3.04,1.37,3.04,3.29-1.27,3.3-3.04,3.3-3.05-1.37-3.05-3.3ZM887.21,437.57c1.37,0,2.26-1.04,2.26-2.61s-.9-2.61-2.26-2.61-2.28,1.05-2.28,2.61.9,2.61,2.28,2.61Z"></path><path class="cls-13" d="M892,431.77h.78v1.1c.38-.84,1.11-1.19,1.88-1.19.91,0,1.57.4,1.89,1.25.4-.83,1.09-1.25,2-1.25,1.55,0,2.13,1.16,2.13,2.68v3.82h-.78v-3.64c0-1.33-.39-2.18-1.52-2.18-1.02,0-1.65.77-1.65,2.26v3.57h-.78v-3.76c0-1.4-.52-2.07-1.5-2.07-1.03,0-1.67.79-1.67,2.26v3.57h-.78v-6.41Z"></path></g><g><path class="cls-13" d="M630.65,240.59h.81v8.33h4.18v.73h-4.99v-9.06Z"></path><path class="cls-13" d="M636.78,240.59h.94v1.39h-.94v-1.39ZM636.86,243.24h.77v6.41h-.77v-6.41Z"></path><path class="cls-13" d="M639.03,243.24h.86l2.1,5.42,2.11-5.42h.85l-2.61,6.41h-.68l-2.63-6.41Z"></path><path class="cls-13" d="M646.29,240.59h.94v1.39h-.94v-1.39ZM646.37,243.24h.77v6.41h-.77v-6.41Z"></path><path class="cls-13" d="M649.18,243.24h.78v1.05c.4-.76,1.12-1.14,2.01-1.14,1.38,0,2.2.81,2.2,2.51v3.99h-.78v-3.71c0-1.45-.55-2.11-1.61-2.11-1.16,0-1.83.79-1.83,2.55v3.27h-.78v-6.41Z"></path><path class="cls-13" d="M655.63,250.41s0-.1.03-.26l1.11-.88c-.57-.22-.96-.59-.96-1.26,0-.53.27-.9.72-1.2-.36-.37-.56-.87-.56-1.45,0-1.3,1.04-2.2,2.38-2.2.64,0,1.22.21,1.64.58l1.02-.86.4.49-1,.88c.19.33.3.71.3,1.14,0,1.28-.96,2.13-2.33,2.13-.53,0-.99-.12-1.37-.34-.31.18-.45.42-.45.72,0,.66.63.83,1.62.98,1.6.25,2.99.44,2.99,1.75,0,1.16-1.05,1.78-2.7,1.78-1.82,0-2.85-.7-2.85-2ZM658.49,251.8c1.09,0,1.92-.34,1.92-1.08,0-.86-1.16-.96-2.31-1.14-.31-.05-.6-.1-.89-.17l-.8.92c-.01.09-.01.11-.01.15,0,.9.79,1.33,2.09,1.33ZM658.36,246.87c.98,0,1.59-.65,1.59-1.53s-.64-1.56-1.58-1.56-1.62.65-1.62,1.55.63,1.55,1.61,1.55Z"></path><path class="cls-13" d="M666.12,240.59h2.52c1.99,0,2.97.93,2.97,2.5,0,1.25-.64,2.07-1.85,2.38l2.44,4.19h-.92l-2.34-4.07c-.21,0-.44,0-.65,0h-1.36v4.06h-.81v-9.06ZM668.56,244.87c1.38,0,2.24-.55,2.24-1.78s-.88-1.77-2.24-1.77h-1.64v3.56h1.64Z"></path><path class="cls-13" d="M673.12,246.44c0-1.92,1.25-3.29,3.05-3.29s3.04,1.36,3.04,3.29-1.27,3.3-3.04,3.3-3.05-1.36-3.05-3.3ZM676.17,249.04c1.37,0,2.26-1.04,2.26-2.61s-.9-2.61-2.26-2.61-2.28,1.05-2.28,2.61.9,2.61,2.28,2.61Z"></path><path class="cls-13" d="M680.66,246.44c0-1.92,1.25-3.29,3.05-3.29s3.04,1.36,3.04,3.29-1.27,3.3-3.04,3.3-3.05-1.36-3.05-3.3ZM683.71,249.04c1.37,0,2.26-1.04,2.26-2.61s-.9-2.61-2.26-2.61-2.28,1.05-2.28,2.61.9,2.61,2.28,2.61Z"></path><path class="cls-13" d="M688.5,243.24h.78v1.1c.38-.85,1.11-1.19,1.88-1.19.91,0,1.57.4,1.89,1.25.4-.83,1.09-1.25,2-1.25,1.55,0,2.13,1.16,2.13,2.68v3.82h-.78v-3.64c0-1.33-.39-2.18-1.52-2.18-1.02,0-1.65.77-1.65,2.26v3.57h-.78v-3.76c0-1.4-.52-2.07-1.5-2.07-1.03,0-1.67.79-1.67,2.26v3.57h-.78v-6.41Z"></path></g><g><path class="cls-13" d="M191.44,75.59h2.43c2.94,0,4.62,1.68,4.62,4.6s-1.64,4.46-4.63,4.46h-2.42v-9.06ZM193.79,83.9c2.5,0,3.89-1.16,3.89-3.74s-1.4-3.83-3.82-3.83h-1.61v7.57h1.54Z"></path><path class="cls-13" d="M199.94,81.49c0-1.84.99-3.34,2.81-3.34,1.96,0,2.76,1.53,2.76,2.94,0,.1-.01.4-.04.55h-4.76c.03,1.51.84,2.39,2.15,2.39.82,0,1.35-.23,1.91-.83l.55.49c-.73.75-1.43,1.05-2.46,1.05-1.89,0-2.91-1.41-2.91-3.25ZM204.76,81.06c0-.08,0-.16,0-.24,0-.92-.58-2.02-2-2.02-1.23,0-1.98.98-2.07,2.26h4.06Z"></path><path class="cls-13" d="M206.92,81.44c0-1.83,1.06-3.29,2.86-3.29,1.17,0,2.09.58,2.51,1.74l-.7.27c-.27-.82-.9-1.33-1.81-1.33-1.42,0-2.09,1.25-2.09,2.61s.68,2.62,2.09,2.62c.91,0,1.53-.51,1.81-1.33l.7.27c-.42,1.16-1.34,1.75-2.51,1.75-1.8,0-2.86-1.46-2.86-3.3Z"></path><path class="cls-13" d="M215.99,81.12l-1.3,1.37v2.16h-.78v-9.06h.78v5.9l3.15-3.24h1.01l-2.28,2.35,2.67,4.06h-.92l-2.31-3.53Z"></path></g><g><path class="cls-13" d="M947.89,240.59h2.72c1.68,0,2.68.84,2.68,2.25,0,.94-.46,1.68-1.24,2,1.1.25,1.7,1.07,1.7,2.31,0,1.61-1.02,2.5-2.88,2.5h-2.97v-9.06ZM950.86,244.59c.98,0,1.63-.64,1.63-1.64s-.69-1.61-1.88-1.61h-1.91v3.26h2.16ZM950.81,248.9c1.42,0,2.14-.6,2.14-1.79,0-1.13-.66-1.79-1.79-1.79h-2.46v3.58h2.11Z"></path><path class="cls-13" d="M959.72,248.44c-.43.82-1.25,1.29-2.25,1.29-1.44,0-2.31-.77-2.31-1.94,0-.69.29-1.16.72-1.44.46-.31,1.09-.42,1.77-.42h2.05v-.28c0-1.19-.62-1.83-1.82-1.83-.79,0-1.4.29-1.98,1.02l-.56-.48c.68-.85,1.53-1.22,2.59-1.22,1.63,0,2.54.89,2.54,2.51v3.99h-.71l-.04-1.2ZM957.54,249.09c1.18,0,2.17-.93,2.17-2.2v-.36h-1.95c-.51,0-1.03.08-1.37.33-.28.21-.44.51-.44.94,0,.79.6,1.3,1.6,1.3Z"></path><path class="cls-13" d="M962.31,248.31v-7.73h.77v7.59c0,.6.23.85.64.85.17,0,.38-.04.61-.12v.67c-.29.11-.6.17-.84.17-.72,0-1.18-.44-1.18-1.42Z"></path><path class="cls-13" d="M965.27,246.44c0-1.83,1.06-3.29,2.86-3.29,1.17,0,2.09.58,2.51,1.74l-.7.27c-.27-.82-.9-1.33-1.81-1.33-1.42,0-2.09,1.25-2.09,2.61s.68,2.62,2.09,2.62c.91,0,1.53-.51,1.81-1.33l.7.27c-.42,1.16-1.34,1.75-2.51,1.75-1.8,0-2.86-1.46-2.86-3.3Z"></path><path class="cls-13" d="M971.87,246.44c0-1.92,1.25-3.29,3.05-3.29s3.04,1.36,3.04,3.29-1.27,3.3-3.04,3.3-3.05-1.36-3.05-3.3ZM974.92,249.04c1.37,0,2.26-1.04,2.26-2.61s-.9-2.61-2.26-2.61-2.28,1.05-2.28,2.61.9,2.61,2.28,2.61Z"></path><path class="cls-13" d="M979.71,243.24h.78v1.05c.4-.76,1.12-1.14,2.01-1.14,1.38,0,2.2.81,2.2,2.51v3.99h-.78v-3.71c0-1.45-.55-2.11-1.61-2.11-1.16,0-1.83.79-1.83,2.55v3.27h-.78v-6.41Z"></path><path class="cls-13" d="M988.43,249.45l-2.55-6.21h.86l2.1,5.42,2.11-5.42h.85l-3.69,9.05h-.84l1.17-2.84Z"></path></g><g><path class="cls-13" d="M615.34,445h.81v4.86l4.65-4.86h1.09l-3.45,3.54,3.48,5.52h-.95l-3.11-4.93-1.71,1.75v3.17h-.81v-9.06Z"></path><path class="cls-13" d="M623.07,445h.94v1.39h-.94v-1.39ZM623.15,447.65h.77v6.41h-.77v-6.41Z"></path><path class="cls-13" d="M626.72,452.58v-4.31h-1.42v-.62h1.42v-1.85l.79-.46v2.31h1.54v.62h-1.54v4.12c0,.71.22,1.11.81,1.11.19,0,.46-.04.73-.12v.62c-.32.1-.64.16-.92.16-.85,0-1.4-.49-1.4-1.57Z"></path><path class="cls-13" d="M630.07,450.85c0-1.83,1.06-3.29,2.86-3.29,1.17,0,2.09.58,2.51,1.74l-.7.27c-.27-.82-.9-1.33-1.81-1.33-1.42,0-2.09,1.25-2.09,2.61s.68,2.62,2.09,2.62c.91,0,1.53-.51,1.81-1.33l.7.27c-.42,1.16-1.34,1.75-2.51,1.75-1.8,0-2.86-1.46-2.86-3.3Z"></path><path class="cls-13" d="M637.07,445h.78v3.69c.4-.75,1.1-1.13,2.01-1.13,1.4,0,2.2.85,2.2,2.51v3.99h-.78v-3.71c0-1.43-.53-2.11-1.61-2.11-1.18,0-1.83.83-1.83,2.55v3.27h-.78v-9.06Z"></path><path class="cls-13" d="M643.7,450.9c0-1.84.99-3.34,2.81-3.34,1.96,0,2.76,1.53,2.76,2.94,0,.1-.01.4-.04.55h-4.76c.03,1.51.84,2.39,2.14,2.39.82,0,1.35-.23,1.91-.83l.55.49c-.73.75-1.43,1.05-2.46,1.05-1.89,0-2.91-1.41-2.91-3.25ZM648.52,450.47c0-.08,0-.16,0-.24,0-.92-.58-2.01-2-2.01-1.23,0-1.98.98-2.07,2.26h4.06Z"></path><path class="cls-13" d="M651.01,447.65h.78v1.05c.4-.76,1.12-1.14,2.01-1.14,1.38,0,2.2.81,2.2,2.51v3.99h-.78v-3.71c0-1.45-.55-2.11-1.61-2.11-1.16,0-1.83.79-1.83,2.55v3.27h-.78v-6.41Z"></path></g><g><path class="cls-13" d="M419.58,517.59h5.86v.73h-5.06v3.37h4.39v.73h-4.39v4.24h-.81v-9.06Z"></path><path class="cls-13" d="M426.17,523.44c0-1.92,1.25-3.29,3.05-3.29s3.04,1.37,3.04,3.29-1.27,3.3-3.04,3.3-3.05-1.37-3.05-3.3ZM429.22,526.04c1.37,0,2.26-1.04,2.26-2.61s-.9-2.61-2.26-2.61-2.28,1.05-2.28,2.61.9,2.61,2.28,2.61Z"></path><path class="cls-13" d="M435.74,526.45l-2.55-6.21h.86l2.1,5.42,2.11-5.42h.85l-3.69,9.05h-.84l1.17-2.84Z"></path><path class="cls-13" d="M440.07,523.49c0-1.84.99-3.34,2.81-3.34,1.96,0,2.76,1.53,2.76,2.94,0,.1-.01.4-.04.55h-4.76c.03,1.51.84,2.39,2.14,2.39.82,0,1.35-.23,1.91-.83l.55.49c-.73.75-1.43,1.05-2.46,1.05-1.89,0-2.91-1.41-2.91-3.25ZM444.89,523.06c0-.08,0-.16,0-.24,0-.92-.58-2.01-2-2.01-1.23,0-1.98.98-2.07,2.26h4.06Z"></path><path class="cls-13" d="M447.36,520.24h.78v1.09c.43-.78,1.31-1.18,2.02-1.18.33,0,.66.07.99.24l-.39.7c-.21-.1-.51-.17-.77-.17-.68,0-1.46.36-1.74,1.3-.08.27-.12.57-.12,1.27v3.15h-.78v-6.41Z"></path></g><g><path class="cls-13" d="M255.97,453.13h.65l1.71,6.06,1.76-5.7h.63l1.76,5.7,1.7-6.06h.65l-2.01,6.98h-.63l-1.79-5.71-1.79,5.71h-.64l-2.01-6.98Z"></path><path class="cls-13" d="M265.98,453.13h.62v6.98h-.62v-6.98Z"></path><path class="cls-13" d="M268.03,456.61c0-2.16,1.26-3.58,3.16-3.58,1.35,0,2.39.71,2.84,1.89l-.58.22c-.38-.96-1.17-1.52-2.26-1.52-1.55,0-2.54,1.17-2.54,2.99s.99,3,2.54,3c1.09,0,1.89-.56,2.26-1.52l.58.21c-.45,1.18-1.49,1.9-2.84,1.9-1.89,0-3.16-1.42-3.16-3.59Z"></path></g><path class="cls-13" d="M422.15,269.12h.65l1.71,6.06,1.76-5.7h.63l1.76,5.7,1.7-6.06h.65l-2.01,6.98h-.63l-1.79-5.71-1.79,5.71h-.64l-2.01-6.98Z"></path><path class="cls-13" d="M424,301.82h1.87c2.26,0,3.56,1.29,3.56,3.54s-1.27,3.43-3.57,3.43h-1.86v-6.98ZM425.8,308.23c1.92,0,2.99-.89,2.99-2.88s-1.08-2.95-2.94-2.95h-1.24v5.83h1.19Z"></path><path class="cls-13" d="M682.78,489.57c0-2.17,1.27-3.59,3.16-3.59s3.18,1.42,3.18,3.59-1.27,3.58-3.18,3.58-3.16-1.42-3.16-3.58ZM685.94,492.56c1.57,0,2.55-1.16,2.55-2.99s-.99-3-2.55-3-2.54,1.15-2.54,3,.99,2.99,2.54,2.99Z"></path><path class="cls-13" d="M692.81,485.08h.48l-3.55,9.08h-.47l3.55-9.08Z"></path><path class="cls-13" d="M694.52,486.08h.93l2.35,5.66,2.35-5.66h.92v6.98h-.62v-6.16l-2.35,5.59h-.61l-2.36-5.59v6.16h-.62v-6.98Z"></path><g><path class="cls-13" d="M716.81,486.08h.65l1.71,6.06,1.76-5.7h.63l1.76,5.7,1.7-6.06h.65l-2.01,6.98h-.63l-1.79-5.71-1.79,5.71h-.64l-2.01-6.98Z"></path><path class="cls-13" d="M726.81,486.08h4.51v.56h-3.89v2.59h3.38v.56h-3.38v3.26h-.62v-6.98Z"></path></g><g><path class="cls-13" d="M696.05,648.74h.65l1.71,6.06,1.76-5.7h.63l1.76,5.7,1.7-6.06h.65l-2.01,6.98h-.63l-1.79-5.71-1.79,5.71h-.64l-2.01-6.98Z"></path><path class="cls-13" d="M706.06,648.74h.62v6.98h-.62v-6.98Z"></path><path class="cls-13" d="M708.11,652.22c0-2.16,1.26-3.58,3.16-3.58,1.35,0,2.39.71,2.84,1.89l-.58.22c-.38-.96-1.17-1.52-2.26-1.52-1.55,0-2.54,1.17-2.54,2.99s.99,3,2.54,3c1.09,0,1.89-.56,2.26-1.52l.58.21c-.45,1.18-1.49,1.9-2.84,1.9-1.89,0-3.16-1.42-3.16-3.59Z"></path></g><g><path class="cls-13" d="M509.84,419.69h1.94c1.53,0,2.29.72,2.29,1.92,0,.97-.5,1.6-1.43,1.83l1.88,3.22h-.71l-1.8-3.13c-.16,0-.34,0-.5,0h-1.05v3.13h-.62v-6.98ZM511.72,422.98c1.06,0,1.73-.42,1.73-1.37s-.68-1.37-1.73-1.37h-1.26v2.74h1.26Z"></path><path class="cls-13" d="M515.69,419.69h4.56v.56h-3.94v2.59h3.53v.56h-3.53v2.7h3.94v.56h-4.56v-6.98Z"></path><path class="cls-13" d="M521.55,419.69h4.51v.56h-3.89v2.59h3.38v.56h-3.38v3.26h-.62v-6.98Z"></path></g><g><path class="cls-13" d="M617.61,406.66h1.87c2.26,0,3.56,1.29,3.56,3.54s-1.27,3.43-3.57,3.43h-1.86v-6.98ZM619.42,413.06c1.92,0,2.99-.89,2.99-2.88s-1.08-2.95-2.94-2.95h-1.24v5.83h1.19Z"></path><path class="cls-13" d="M623.7,406.66h.65l1.71,6.06,1.76-5.7h.63l1.76,5.7,1.7-6.06h.65l-2.01,6.98h-.63l-1.79-5.71-1.79,5.71h-.64l-2.01-6.98Z"></path></g><g><path class="cls-13" d="M224.78,165.29h.65l1.71,6.06,1.76-5.7h.63l1.76,5.7,1.7-6.06h.65l-2.01,6.98h-.63l-1.79-5.71-1.79,5.71h-.64l-2.01-6.98Z"></path><path class="cls-13" d="M234.79,165.29h.62v6.98h-.62v-6.98Z"></path><path class="cls-13" d="M236.84,168.78c0-2.16,1.26-3.58,3.16-3.58,1.35,0,2.39.71,2.84,1.89l-.58.22c-.38-.96-1.17-1.52-2.26-1.52-1.55,0-2.54,1.17-2.54,2.99s.99,3,2.54,3c1.09,0,1.89-.56,2.26-1.52l.58.22c-.45,1.18-1.49,1.9-2.84,1.9-1.89,0-3.16-1.42-3.16-3.59Z"></path></g><polyline class="cls-1" points="241.88 2.23 230.73 2.23 198.71 57.66"></polyline><path class="cls-16" d="M196.69,61.16l4.62-3.88s-2.61.39-3.58-2.07l-1.05,5.95Z"></path><g><path class="cls-17" d="M248.32.06h1.67c1.03,0,1.65.52,1.65,1.38,0,.58-.28,1.03-.76,1.23.68.16,1.04.66,1.04,1.42,0,.99-.63,1.54-1.77,1.54h-1.83V.06ZM250.15,2.53c.6,0,1-.39,1-1.01s-.42-.99-1.16-.99h-1.17v2h1.33ZM250.12,5.18c.88,0,1.32-.37,1.32-1.1,0-.7-.41-1.1-1.1-1.1h-1.51v2.2h1.3Z"></path><path class="cls-17" d="M255.67,4.9c-.26.5-.77.8-1.38.8-.88,0-1.42-.48-1.42-1.2,0-.42.18-.71.44-.89.28-.19.67-.26,1.09-.26h1.26v-.17c0-.73-.38-1.13-1.12-1.13-.48,0-.86.18-1.22.63l-.34-.3c.42-.52.94-.75,1.59-.75,1,0,1.56.55,1.56,1.54v2.45h-.44l-.02-.74ZM254.33,5.3c.72,0,1.33-.57,1.33-1.35v-.22h-1.2c-.32,0-.63.05-.84.2-.17.13-.27.31-.27.58,0,.49.37.8.98.8Z"></path><path class="cls-17" d="M257.34,4.82V.06h.48v4.67c0,.37.14.52.39.52.1,0,.24-.02.38-.07v.41c-.18.07-.37.1-.52.1-.44,0-.72-.27-.72-.88Z"></path><path class="cls-17" d="M259.25,3.66c0-1.13.65-2.02,1.76-2.02.72,0,1.28.36,1.54,1.07l-.43.17c-.17-.5-.55-.82-1.11-.82-.87,0-1.29.77-1.29,1.61s.42,1.61,1.29,1.61c.56,0,.94-.31,1.11-.82l.43.16c-.26.71-.82,1.08-1.54,1.08-1.11,0-1.76-.9-1.76-2.03Z"></path><path class="cls-17" d="M263.38,3.66c0-1.18.77-2.02,1.88-2.02s1.87.84,1.87,2.02-.78,2.03-1.87,2.03-1.88-.84-1.88-2.03ZM265.26,5.27c.84,0,1.39-.64,1.39-1.6s-.55-1.6-1.39-1.6-1.4.64-1.4,1.6.56,1.6,1.4,1.6Z"></path><path class="cls-17" d="M268.28,1.69h.48v.64c.25-.47.69-.7,1.24-.7.85,0,1.36.5,1.36,1.54v2.45h-.48v-2.28c0-.89-.34-1.3-.99-1.3-.71,0-1.13.48-1.13,1.57v2.01h-.48V1.69Z"></path><path class="cls-17" d="M273.72,5.51l-1.57-3.82h.53l1.29,3.33,1.3-3.33h.52l-2.27,5.56h-.52l.72-1.75Z"></path><path class="cls-17" d="M278.71,3.66c0-1.18.77-2.02,1.88-2.02s1.87.84,1.87,2.02-.78,2.03-1.87,2.03-1.88-.84-1.88-2.03ZM280.58,5.27c.84,0,1.39-.64,1.39-1.6s-.55-1.6-1.39-1.6-1.4.64-1.4,1.6.56,1.6,1.4,1.6Z"></path><path class="cls-17" d="M283.6,1.69h.48v.64c.25-.47.69-.7,1.24-.7.85,0,1.36.5,1.36,1.54v2.45h-.48v-2.28c0-.89-.34-1.3-.99-1.3-.71,0-1.13.48-1.13,1.57v2.01h-.48V1.69Z"></path><path class="cls-17" d="M292.85,1.67c0-.73-.43-1.2-1.19-1.2-.83,0-1.26.58-1.27,1.45l-.47-.03c0-1.07.62-1.88,1.76-1.88.99,0,1.64.65,1.64,1.65,0,1.49-1.5,2.65-2.81,3.53h3.04v.45h-3.64v-.44c1.02-.82,2.94-2.02,2.94-3.53Z"></path><path class="cls-17" d="M294.54,2.84c0-1.33.3-2.84,1.72-2.84s1.75,1.39,1.75,2.85-.4,2.84-1.72,2.84c-1.44,0-1.75-1.51-1.75-2.85ZM296.3,5.23c.88,0,1.23-1,1.23-2.36s-.36-2.41-1.26-2.41c-.96,0-1.23,1.1-1.23,2.39s.28,2.38,1.26,2.38Z"></path><path class="cls-17" d="M299.1,2.84c0-1.33.3-2.84,1.72-2.84s1.75,1.39,1.75,2.85-.4,2.84-1.72,2.84c-1.44,0-1.75-1.51-1.75-2.85ZM300.85,5.23c.88,0,1.23-1,1.23-2.36s-.36-2.41-1.26-2.41c-.96,0-1.23,1.1-1.23,2.39s.28,2.38,1.26,2.38Z"></path><path class="cls-17" d="M303.5,4.11l.47-.08c.14.7.66,1.21,1.4,1.21.85,0,1.41-.68,1.41-1.48s-.52-1.38-1.34-1.38c-.51,0-.95.24-1.26.69l-.5-.15.5-2.86h2.84v.45h-2.45l-.34,1.96c.38-.39.82-.55,1.27-.55,1.04,0,1.78.82,1.78,1.83s-.81,1.94-1.91,1.94c-.94,0-1.7-.64-1.88-1.58Z"></path><path class="cls-17" d="M310.3,3.66c0-1.18.77-2.02,1.88-2.02s1.87.84,1.87,2.02-.78,2.03-1.87,2.03-1.88-.84-1.88-2.03ZM312.18,5.27c.84,0,1.39-.64,1.39-1.6s-.55-1.6-1.39-1.6-1.4.64-1.4,1.6.56,1.6,1.4,1.6Z"></path><path class="cls-17" d="M315.2,1.69h.48v.64c.25-.47.69-.7,1.24-.7.85,0,1.36.5,1.36,1.54v2.45h-.48v-2.28c0-.89-.34-1.3-.99-1.3-.71,0-1.13.48-1.13,1.57v2.01h-.48V1.69Z"></path><path class="cls-17" d="M319.48,4.82V.06h.48v4.67c0,.37.14.52.39.52.1,0,.24-.02.38-.07v.41c-.18.07-.37.1-.52.1-.44,0-.72-.27-.72-.88Z"></path><path class="cls-17" d="M322.54,5.51l-1.57-3.82h.53l1.29,3.33,1.3-3.33h.52l-2.27,5.56h-.52l.72-1.75Z"></path></g></g></g></svg> 