<?xml version="1.0" encoding="UTF-8"?> <svg xmlns="http://www.w3.org/2000/svg" id="Layer_2" data-name="Layer 2" viewBox="0 0 1216.12 708.94"><defs><style> .cls-1, .cls-2, .cls-3, .cls-4, .cls-5, .cls-6, .cls-7, .cls-8, .cls-9, .cls-10, .cls-11, .cls-12, .cls-13, .cls-14 { fill: none; } .cls-1, .cls-2, .cls-3, .cls-4, .cls-5, .cls-7, .cls-8, .cls-9, .cls-10, .cls-11, .cls-12, .cls-14 { stroke-linecap: round; stroke-linejoin: round; } .cls-1, .cls-3, .cls-4, .cls-12, .cls-14 { stroke: #3c5243; } .cls-1, .cls-4, .cls-12, .cls-14 { stroke-width: .15px; } .cls-2 { stroke-width: .75px; } .cls-2, .cls-7, .cls-8, .cls-13 { stroke: #173928; } .cls-3, .cls-5, .cls-6, .cls-8, .cls-9, .cls-10, .cls-13 { stroke-width: .25px; } .cls-4 { stroke-dasharray: 1.01 1.01; } .cls-15 { fill: #3c5243; } .cls-16 { fill: #173928; } .cls-5 { stroke-dasharray: 1.54 1.54; } .cls-5, .cls-9, .cls-10, .cls-11 { stroke: #616f63; } .cls-6 { stroke: #a3a9a2; } .cls-6, .cls-13 { stroke-miterlimit: 10; } .cls-17 { fill: #a3a9a2; } .cls-7 { stroke-width: .35px; } .cls-18 { fill: #fff; } .cls-9 { stroke-dasharray: 4.97 3.98; } .cls-11 { stroke-width: .2px; } .cls-12 { stroke-dasharray: .92 .92; } .cls-14 { stroke-dasharray: .91 .91; } .cls-19 { fill: #75655e; } </style></defs><g id="Layer_1-2" data-name="Layer 1"><g><polygon class="cls-18" points="1137.69 .38 1135.62 18.51 1135.62 18.6 1129.52 72.47 1127.21 72.19 1121.48 71.54 1127.49 18.6 1127.49 18.51 1064.94 18.51 1064.94 167.46 1090.81 167.46 1085.73 115.71 1091.45 115.16 1093.76 114.97 1098.94 167.46 1118.8 370.73 1121 392.73 1121.02 392.73 1168.98 392.73 1197.81 472.01 1159.92 483 1121.95 493.72 1111.58 496.53 1111.6 496.58 1113.08 502.13 1113.72 504.35 1076.58 514.33 1039.43 523.93 1002.1 533.27 964.77 542.23 927.35 550.82 889.84 559.05 852.23 566.99 814.53 574.57 813.31 574.8 814.53 574.57 776.83 581.78 739.04 588.71 701.16 595.27 663.27 601.46 625.3 607.28 587.23 612.82 549.16 617.91 511.09 622.71 472.93 627.24 434.68 631.3 396.51 635.09 358.26 638.51 354.01 638.85 319.91 641.56 319.36 633.41 316.77 633.61 279.54 636.29 242.3 638.51 204.97 640.45 185.93 641.3 186.21 649.41 147.68 650.89 109.24 652.09 70.71 652.83 32.18 653.29 18.41 653.33 18.41 653.39 18.41 653.33 .37 653.37 .37 204.86 160.08 204.86 160.08 226.76 349.74 226.76 349.74 196.72 537.82 196.72 537.82 296.05 664.55 296.05 664.55 207.48 629.83 207.48 629.83 127.08 617.9 127.08 617.9 77.81 702.61 77.81 702.61 .38 1137.69 .38"></polygon><polyline class="cls-11" points="531.33 620.21 531.33 670.66 576.05 666.04 576.88 674.08 531.33 678.8 531.33 678.7 491.59 682.4 451.77 685.73 411.95 688.59 372.03 691.09 332.2 693.21 292.29 694.97 252.37 696.35 212.36 697.28 172.44 697.83 132.53 698.11 92.52 697.92 52.6 697.37 12.69 696.35 .21 695.82"></polyline><line class="cls-1" x1="1093.76" y1="114.97" x2="1093.72" y2="114.47"></line><polyline class="cls-1" points="1093.63 113.44 1093.58 112.94 1093.08 112.98"></polyline><line class="cls-4" x1="1092.08" y1="113.08" x2="1086.54" y2="113.59"></line><polyline class="cls-1" points="1086.04 113.63 1085.54 113.68 1085.59 114.18"></polyline><line class="cls-1" x1="1085.68" y1="115.21" x2="1085.73" y2="115.71"></line><line class="cls-1" x1="1113.72" y1="504.35" x2="1114.21" y2="504.21"></line><line class="cls-12" x1="1115.09" y1="503.96" x2="1121.76" y2="502.11"></line><line class="cls-1" x1="1122.2" y1="501.98" x2="1122.69" y2="501.85"></line><line class="cls-1" x1="1111.6" y1="496.58" x2="1112.08" y2="496.45"></line><line class="cls-14" x1="1112.96" y1="496.2" x2="1119.55" y2="494.35"></line><polyline class="cls-1" points="1119.99 494.22 1120.47 494.09 1120.61 494.57"></polyline><line class="cls-4" x1="1120.88" y1="495.54" x2="1122.41" y2="500.88"></line><line class="cls-1" x1="1122.55" y1="501.37" x2="1122.69" y2="501.85"></line><line class="cls-1" x1="1113.72" y1="504.35" x2="1114.21" y2="504.21"></line><line class="cls-12" x1="1115.09" y1="503.96" x2="1121.76" y2="502.11"></line><line class="cls-1" x1="1122.2" y1="501.98" x2="1122.69" y2="501.85"></line><line class="cls-1" x1="1120.47" y1="494.09" x2="1120.61" y2="494.57"></line><line class="cls-4" x1="1120.88" y1="495.54" x2="1122.41" y2="500.88"></line><line class="cls-1" x1="1122.55" y1="501.37" x2="1122.69" y2="501.85"></line><line class="cls-3" x1="176.7" y1="463.11" x2="174.36" y2="465.44"></line><line class="cls-3" x1="174.33" y1="463.11" x2="172" y2="465.44"></line><line class="cls-3" x1="171.97" y1="463.11" x2="169.63" y2="465.44"></line><line class="cls-3" x1="169.61" y1="463.11" x2="167.27" y2="465.44"></line><line class="cls-3" x1="167.24" y1="463.11" x2="164.91" y2="465.44"></line><line class="cls-3" x1="164.88" y1="463.11" x2="162.55" y2="465.44"></line><line class="cls-3" x1="162.52" y1="463.11" x2="160.18" y2="465.44"></line><line class="cls-3" x1="160.15" y1="463.11" x2="157.82" y2="465.44"></line><line class="cls-3" x1="157.79" y1="463.11" x2="155.46" y2="465.44"></line><line class="cls-3" x1="155.43" y1="463.11" x2="153.09" y2="465.44"></line><line class="cls-3" x1="153.06" y1="463.11" x2="150.73" y2="465.44"></line><line class="cls-3" x1="150.7" y1="463.11" x2="148.37" y2="465.44"></line><line class="cls-3" x1="148.34" y1="463.11" x2="146.01" y2="465.44"></line><line class="cls-3" x1="145.97" y1="463.11" x2="143.64" y2="465.44"></line><line class="cls-3" x1="143.61" y1="463.11" x2="141.28" y2="465.44"></line><line class="cls-3" x1="141.25" y1="463.11" x2="138.92" y2="465.44"></line><line class="cls-3" x1="138.88" y1="463.11" x2="136.55" y2="465.44"></line><line class="cls-3" x1="136.52" y1="463.11" x2="134.19" y2="465.44"></line><line class="cls-3" x1="134.16" y1="463.11" x2="131.83" y2="465.44"></line><line class="cls-3" x1="131.8" y1="463.11" x2="129.47" y2="465.44"></line><line class="cls-3" x1="129.43" y1="463.11" x2="127.1" y2="465.44"></line><line class="cls-3" x1="127.07" y1="463.11" x2="124.74" y2="465.44"></line><line class="cls-3" x1="124.71" y1="463.11" x2="122.38" y2="465.44"></line><line class="cls-3" x1="122.34" y1="463.11" x2="120.01" y2="465.44"></line><line class="cls-3" x1="119.98" y1="463.11" x2="117.65" y2="465.44"></line><line class="cls-3" x1="117.62" y1="463.11" x2="115.29" y2="465.44"></line><line class="cls-3" x1="115.25" y1="463.11" x2="112.93" y2="465.44"></line><line class="cls-3" x1="112.89" y1="463.11" x2="110.56" y2="465.44"></line><line class="cls-3" x1="110.53" y1="463.11" x2="108.2" y2="465.44"></line><line class="cls-3" x1="108.16" y1="463.11" x2="105.84" y2="465.44"></line><line class="cls-3" x1="105.8" y1="463.11" x2="103.48" y2="465.44"></line><line class="cls-3" x1="103.44" y1="463.11" x2="101.11" y2="465.44"></line><line class="cls-3" x1="101.07" y1="463.11" x2="98.75" y2="465.44"></line><line class="cls-3" x1="98.71" y1="463.11" x2="96.39" y2="465.44"></line><line class="cls-3" x1="96.35" y1="463.11" x2="94.02" y2="465.44"></line><line class="cls-3" x1="93.98" y1="463.11" x2="91.66" y2="465.44"></line><line class="cls-3" x1="91.62" y1="463.11" x2="89.3" y2="465.44"></line><line class="cls-3" x1="89.26" y1="463.11" x2="86.94" y2="465.44"></line><line class="cls-3" x1="86.9" y1="463.11" x2="84.57" y2="465.44"></line><line class="cls-3" x1="84.53" y1="463.11" x2="82.21" y2="465.44"></line><line class="cls-3" x1="82.17" y1="463.11" x2="79.85" y2="465.44"></line><line class="cls-3" x1="79.81" y1="463.11" x2="77.48" y2="465.44"></line><line class="cls-3" x1="77.44" y1="463.11" x2="75.12" y2="465.44"></line><line class="cls-3" x1="75.08" y1="463.11" x2="72.76" y2="465.44"></line><line class="cls-3" x1="72.72" y1="463.11" x2="70.4" y2="465.44"></line><line class="cls-3" x1="70.35" y1="463.11" x2="68.03" y2="465.44"></line><line class="cls-3" x1="67.99" y1="463.11" x2="65.67" y2="465.44"></line><line class="cls-3" x1="65.63" y1="463.11" x2="63.31" y2="465.44"></line><line class="cls-3" x1="63.26" y1="463.11" x2="60.94" y2="465.44"></line><line class="cls-3" x1="60.9" y1="463.11" x2="58.58" y2="465.44"></line><line class="cls-3" x1="58.54" y1="463.11" x2="56.22" y2="465.44"></line><line class="cls-3" x1="56.17" y1="463.11" x2="53.86" y2="465.44"></line><line class="cls-3" x1="53.81" y1="463.11" x2="51.49" y2="465.44"></line><line class="cls-3" x1="51.45" y1="463.11" x2="49.13" y2="465.44"></line><line class="cls-3" x1="49.09" y1="463.11" x2="46.77" y2="465.44"></line><line class="cls-3" x1="46.72" y1="463.11" x2="44.41" y2="465.44"></line><line class="cls-3" x1="44.36" y1="463.11" x2="42.04" y2="465.44"></line><line class="cls-3" x1="42" y1="463.11" x2="39.68" y2="465.44"></line><line class="cls-3" x1="39.63" y1="463.11" x2="37.32" y2="465.44"></line><line class="cls-3" x1="37.27" y1="463.11" x2="34.95" y2="465.44"></line><line class="cls-3" x1="34.91" y1="463.11" x2="32.59" y2="465.44"></line><line class="cls-3" x1="32.54" y1="463.11" x2="30.23" y2="465.44"></line><line class="cls-3" x1="30.18" y1="463.11" x2="27.87" y2="465.44"></line><line class="cls-3" x1="27.82" y1="463.11" x2="25.5" y2="465.44"></line><line class="cls-3" x1="25.45" y1="463.11" x2="23.14" y2="465.44"></line><line class="cls-3" x1="23.09" y1="463.11" x2="20.78" y2="465.44"></line><line class="cls-3" x1="20.73" y1="463.11" x2="18.41" y2="465.44"></line><rect class="cls-2" x="18.41" y="463.14" width="158.28" height="2.31"></rect><path class="cls-7" d="M818.44,556.49l34.87-7.08,37.59-7.94,37.68-8.4,37.5-8.68,37.41-8.96,37.4-9.42,37.22-9.7,37.13-10.07,37.13-10.34,34.89-10.12-23.74-65.33h-41.93v-2h43.33l24.95,68.65-36.96,10.72-37.15,10.35-37.14,10.07-37.24,9.7-37.42,9.43-37.42,8.96-37.52,8.68-37.7,8.41-37.61,7.95s-25.94,5.26-34.84,7.07l-.43-1.95Z"></path><polyline class="cls-7" points="18.41 639.43 55.74 639.16 93.07 638.6 130.4 637.59 167.73 636.29 204.97 634.72 242.3 632.78 279.54 630.47 316.77 627.88 354.01 624.93"></polyline><polyline class="cls-7" points="18.41 637.43 55.74 637.16 93.07 636.6 130.4 635.58 167.73 634.29 204.97 632.72 242.3 630.78 279.54 628.47 316.77 625.88 354.01 622.93"></polyline><path class="cls-8" d="M936.87,388.85c-2.39,1.55-4.75,3.13-7.08,4.75"></path><polygon class="cls-16" points="929.91 392.3 930.16 392.35 929.87 393.55 931.09 393.75 931.05 393.99 929.57 393.76 929.91 392.3"></polygon><path class="cls-8" d="M851.23,479.14c-1.62,2.8-3.18,5.64-4.7,8.51"></path><polygon class="cls-16" points="846.04 486.43 846.28 486.37 846.58 487.57 847.75 487.18 847.83 487.42 846.4 487.89 846.04 486.43"></polygon><path class="cls-8" d="M889.35,428.22c-1.86,1.95-3.69,3.92-5.48,5.92"></path><polygon class="cls-16" points="883.68 432.84 883.93 432.84 883.94 434.07 885.16 433.98 885.18 434.23 883.69 434.34 883.68 432.84"></polygon><path class="cls-7" d="M818.44,556.49l34.87-7.08,37.59-7.94,37.68-8.4,37.5-8.68,37.41-8.96,37.4-9.42,37.22-9.7,37.13-10.07,37.13-10.34,34.89-10.12-23.74-65.33h-41.93v-2h43.33l24.95,68.65-36.96,10.72-37.15,10.35-37.14,10.07-37.24,9.7-37.42,9.43-37.42,8.96-37.52,8.68-37.7,8.41-37.61,7.95s-25.94,5.26-34.84,7.07l-.43-1.95Z"></path><polyline class="cls-7" points="18.41 639.43 55.74 639.16 93.07 638.6 130.4 637.59 167.73 636.29 204.97 634.72 242.3 632.78 279.54 630.47 316.77 627.88 354.01 624.93"></polyline><polyline class="cls-7" points="18.41 637.43 55.74 637.16 93.07 636.6 130.4 635.58 167.73 634.29 204.97 632.72 242.3 630.78 279.54 628.47 316.77 625.88 354.01 622.93"></polyline><g><path class="cls-1" d="M685.03,188.4c0-25.57-20.73-43.49-46.29-43.49"></path><path class="cls-1" d="M520.58,258.77c-22.95,0-39.04,18.6-39.04,41.56"></path><path class="cls-1" d="M470.83,467.24c22.95,0,39.04-18.61,39.04-41.56"></path><path class="cls-1" d="M400.23,374.21c0,22.95,18.61,39.04,41.56,39.04"></path><path class="cls-1" d="M1095.86,412.29c-22.95,0-39.04-18.61-39.04-41.56"></path><path class="cls-1" d="M218.06,507c-22.95,0-39.04-18.61-39.04-41.56"></path><path class="cls-1" d="M108.53,445.65c0-22.95,18.61-39.04,41.56-39.04"></path><path class="cls-1" d="M564.2,471.37c0-22.95-18.61-39.04-41.56-39.04"></path></g><line class="cls-1" x1="638.74" y1="188.4" x2="638.74" y2="144.91"></line><line class="cls-1" x1="629.83" y1="191.2" x2="629.83" y2="144.91"></line><rect class="cls-7" x="638.74" y="188.4" width="46.29" height="2.81"></rect><rect class="cls-7" x="520.58" y="258.77" width="2.52" height="41.56"></rect><rect class="cls-7" x="468.31" y="425.68" width="2.52" height="41.56"></rect><rect class="cls-7" x="400.23" y="371.69" width="41.56" height="2.52"></rect><rect class="cls-7" x="1095.86" y="370.73" width="2.52" height="41.56"></rect><rect class="cls-7" x="218.06" y="465.44" width="2.52" height="41.56"></rect><rect class="cls-7" x="108.53" y="445.65" width="41.56" height="2.52"></rect><rect class="cls-7" x="364.36" y="356.87" width="41.56" height="2.52"></rect><rect class="cls-7" x="520.17" y="557.29" width="2.52" height="41.56"></rect><rect class="cls-7" x="522.64" y="471.36" width="41.56" height="2.52"></rect><rect class="cls-7" x="679.17" y="303.53" width="41.56" height="2.52"></rect><rect class="cls-7" x="727.7" y="115.83" width="41.56" height="2.52"></rect><rect class="cls-7" x="617.9" y="91.22" width="1.7" height="21.1"></rect><rect class="cls-7" x="642.41" y="119.82" width="23.1" height="1.7"></rect><rect class="cls-7" x="684.9" y="197.48" width="69.3" height="2.52"></rect><line class="cls-7" x1="719.54" y1="200" x2="719.54" y2="197.48"></line><rect class="cls-7" x="363.25" y="419.86" width="69.3" height="2.52"></rect><line class="cls-7" x1="397.9" y1="422.38" x2="397.9" y2="419.86"></line><line class="cls-10" x1="708.19" y1="441.97" x2="708.94" y2="441.97"></line><line class="cls-5" x1="710.48" y1="441.97" x2="734.35" y2="441.97"></line><polyline class="cls-10" points="735.12 441.97 735.87 441.97 735.87 441.22"></polyline><line class="cls-5" x1="735.87" y1="439.68" x2="735.87" y2="415.81"></line><polyline class="cls-10" points="735.87 415.04 735.87 414.29 735.12 414.29"></polyline><line class="cls-5" x1="733.58" y1="414.29" x2="709.71" y2="414.29"></line><line class="cls-10" x1="708.94" y1="414.29" x2="708.19" y2="414.29"></line><line class="cls-10" x1="712.61" y1="26.47" x2="715.11" y2="26.47"></line><line class="cls-9" x1="719.09" y1="26.47" x2="779.74" y2="26.47"></line><line class="cls-10" x1="781.73" y1="26.47" x2="784.23" y2="26.47"></line><line class="cls-7" x1="657.18" y1="578.63" x2="657.17" y2="364.73"></line><line class="cls-7" x1="657.18" y1="401.32" x2="629.37" y2="401.33"></line><line class="cls-7" x1="657.18" y1="424.49" x2="629.37" y2="424.49"></line><line class="cls-7" x1="657.18" y1="525.53" x2="629.37" y2="525.53"></line><line class="cls-7" x1="654.64" y1="424.49" x2="654.64" y2="364.73"></line><line class="cls-7" x1="734.66" y1="306.05" x2="764.64" y2="306.05"></line><line class="cls-7" x1="734.66" y1="303.52" x2="764.64" y2="303.52"></line><line class="cls-7" x1="654.64" y1="578.63" x2="654.64" y2="525.53"></line><line class="cls-7" x1="654.64" y1="552.08" x2="657.18" y2="552.08"></line><g><path class="cls-7" d="M729.29,463.16h8.73c.33,0,.6.27.6.6v.57c0,.33-.27.6-.6.6h-8.73c-.33,0-.6-.27-.6-.6v-.57c0-.33.27-.6.6-.6Z"></path><path class="cls-7" d="M722.69,464.04c0,.5-.41.91-.91.91s-.91-.41-.91-.91.41-.91.91-.91.91.41.91.91Z"></path></g><polyline class="cls-7" points="737.28 464.92 737.28 467.39 735.71 467.39 735.71 464.92"></polyline><line class="cls-7" x1="735.71" y1="466.51" x2="737.28" y2="466.51"></line><polyline class="cls-7" points="733.36 464.92 733.36 482.18 711.25 482.18 711.25 445.9 733.36 445.9 733.36 463.16"></polyline><polyline class="cls-7" points="732.26 463.16 732.26 447 712.35 447 712.35 481.08 732.26 481.08 732.26 464.92"></polyline><line class="cls-7" x1="524.95" y1="478.5" x2="601.32" y2="478.5"></line><line class="cls-7" x1="524.95" y1="479.8" x2="601.32" y2="479.8"></line><line class="cls-7" x1="529.53" y1="479.81" x2="529.53" y2="478.51"></line><line class="cls-7" x1="567.63" y1="478.51" x2="567.63" y2="479.81"></line><polyline class="cls-7" points="615.04 436.92 589.39 436.92 589.39 364.73 615.04 364.73"></polyline><path class="cls-7" d="M606.23,400.57v-10.14c0-.41-.33-.74-.74-.74h-11.2c-.41,0-.74.33-.74.74v21.4c0,.41.33.74.74.74h11.2c.41,0,.74-.33.74-.74v-9.75"></path><rect class="cls-7" x="603.73" y="400.57" width="6.05" height="1.51"></rect><g><path class="cls-7" d="M599.89,402.19c.48,0,.87-.39.87-.87s-.39-.87-.87-.87-.87.39-.87.87.39.87.87.87Z"></path><path class="cls-7" d="M608.13,448.37h5.74c.65,0,1.17.52,1.17,1.17v16.74c0,.65-.52,1.17-1.17,1.17h-5.74c-.65,0-1.17-.52-1.17-1.17v-16.74c0-.65.52-1.17,1.17-1.17Z"></path><path class="cls-7" d="M602.46,462.74c0,.3-.12.59-.35.79-2.27,2.04-5.75,3.34-9.65,3.34-6.84,0-12.39-4.02-12.39-8.97s5.55-8.97,12.39-8.97c3.9,0,7.38,1.3,9.65,3.34.23.21.35.5.35.79v9.67Z"></path></g><line class="cls-7" x1="592.47" y1="466.88" x2="607.13" y2="466.88"></line><line class="cls-7" x1="592.47" y1="448.94" x2="607.13" y2="448.94"></line><g><rect class="cls-7" x="32.79" y="214.86" width="19.09" height="8.08" rx="1.17" ry="1.17"></rect><path class="cls-7" d="M47.16,227.43c.3,0,.59.12.79.35,2.04,2.27,3.34,5.75,3.34,9.65,0,6.84-4.02,12.39-8.97,12.39s-8.97-5.55-8.97-12.39c0-3.9,1.3-7.38,3.34-9.65.21-.23.5-.35.79-.35h9.67Z"></path></g><line class="cls-7" x1="51.3" y1="237.43" x2="51.3" y2="222.77"></line><line class="cls-7" x1="33.36" y1="237.43" x2="33.36" y2="222.77"></line><g><rect class="cls-7" x="439.73" y="258.1" width="6.73" height="15.91" rx=".98" ry=".98"></rect><path class="cls-7" d="M450.21,262.02c0-.25.1-.49.29-.66,1.89-1.7,4.79-2.79,8.04-2.79,5.7,0,10.32,3.35,10.32,7.48s-4.62,7.48-10.32,7.48c-3.25,0-6.15-1.09-8.04-2.79-.19-.17-.29-.41-.29-.66v-8.06Z"></path></g><line class="cls-7" x1="458.54" y1="258.57" x2="446.32" y2="258.57"></line><line class="cls-7" x1="458.54" y1="273.53" x2="446.32" y2="273.53"></line><line class="cls-7" x1="529.97" y1="494.89" x2="529.97" y2="498.11"></line><g><path class="cls-7" d="M529.97,498.98v11.67c0,1.39,1.12,2.51,2.51,2.51h62.2c1.39,0,2.51-1.12,2.51-2.51v-24.18c0-1.39-1.12-2.51-2.51-2.51h-62.2c-1.39,0-2.51,1.12-2.51,2.51v8.42"></path><path class="cls-7" d="M525.92,498.11h10.93c.24,0,.43.19.43.43s-.19.43-.43.43h-10.88"></path><path class="cls-7" d="M535.76,498.98c.17.46.62.79,1.14.79.67,0,1.22-.54,1.22-1.22s-.55-1.22-1.22-1.22c-.52,0-.96.32-1.13.77"></path><path class="cls-7" d="M531.7,498.98c.22,2.68,2.46,4.79,5.2,4.79,2.88,0,5.21-2.33,5.21-5.21s-2.33-5.21-5.21-5.21c-2.73,0-4.97,2.1-5.2,4.77"></path></g><rect class="cls-7" x="524.95" y="496" width=".97" height="5.11"></rect><polyline class="cls-7" points="123.54 289.89 123.54 397.12 150.37 397.12"></polyline><path class="cls-7" d="M141.56,366.07v10.14c0,.41-.33.74-.74.74h-11.2c-.41,0-.74-.33-.74-.74v-21.4c0-.41.33-.74.74-.74h11.2c.41,0,.74.33.74.74v9.75"></path><rect class="cls-7" x="139.06" y="364.55" width="6.05" height="1.51"></rect><g><path class="cls-7" d="M135.22,364.44c.48,0,.87.39.87.87s-.39.87-.87.87-.87-.39-.87-.87.39-.87.87-.87Z"></path><path class="cls-7" d="M141.56,322.06v10.14c0,.41-.33.74-.74.74h-11.2c-.41,0-.74-.33-.74-.74v-21.4c0-.41.33-.74.74-.74h11.2c.41,0,.74.33.74.74v9.75"></path></g><rect class="cls-7" x="139.06" y="320.54" width="6.05" height="1.51"></rect><g><path class="cls-7" d="M135.22,320.43c.48,0,.87.39.87.87s-.39.87-.87.87-.87-.39-.87-.87.39-.87.87-.87Z"></path><path class="cls-7" d="M56.07,409.97h0c10,0,18.1-8.11,18.1-18.1v-39.11c0-10-8.11-18.1-18.1-18.1s-18.1,8.11-18.1,18.1v39.11c0,10,8.11,18.1,18.1,18.1Z"></path><path class="cls-7" d="M56.07,336.78c8.81,0,15.98,7.17,15.98,15.98v39.1c0,8.81-7.17,15.98-15.98,15.98s-15.98-7.17-15.98-15.98v-39.1c0-8.81,7.17-15.98,15.98-15.98Z"></path><path class="cls-7" d="M53.8,372.32c0-1.25,1.01-2.27,2.27-2.27s2.26,1.01,2.26,2.27-1.01,2.27-2.26,2.27-2.27-1.01-2.27-2.27Z"></path></g><line class="cls-7" x1="83.09" y1="236.76" x2="150.08" y2="236.76"></line><rect class="cls-7" x="83.09" y="288.85" width="37.97" height="1.03"></rect><rect class="cls-7" x="39.39" y="288.85" width="37.97" height="1.03"></rect><line class="cls-7" x1="439.73" y1="232.38" x2="527.81" y2="232.38"></line><path class="cls-7" d="M499.21,214.55h10.14c.41,0,.74.33.74.74v11.2c0,.41-.33.74-.74.74h-21.4c-.41,0-.74-.33-.74-.74v-11.2c0-.41.33-.74.74-.74h9.75"></path><rect class="cls-7" x="497.7" y="211.01" width="1.51" height="6.05"></rect><path class="cls-7" d="M497.58,220.9c0-.48.39-.87.87-.87s.87.39.87.87-.39.87-.87.87-.87-.39-.87-.87Z"></path><rect class="cls-7" x="749.43" y="20.26" width="29.77" height="36.99"></rect><rect class="cls-7" x="717.63" y="20.26" width="29.77" height="36.99"></rect><line class="cls-7" x1="159.32" y1="465.45" x2="159.32" y2="634.66"></line><line class="cls-7" x1="146.66" y1="465.45" x2="146.66" y2="506.92"></line><line class="cls-7" x1="133.91" y1="465.45" x2="133.91" y2="506.92"></line><polyline class="cls-7" points="159.32 506.92 108.5 506.92 108.5 465.44"></polyline><rect class="cls-7" x="34.58" y="546.29" width="103.95" height="62.37"></rect><line class="cls-7" x1="712.61" y1="87.81" x2="712.61" y2="115.79"></line><rect class="cls-7" x="792.36" y="13.89" width="244.86" height="16.17"></rect><line class="cls-7" x1="972.54" y1="13.89" x2="972.54" y2="30.06"></line><line class="cls-7" x1="857.04" y1="13.89" x2="857.04" y2="30.06"></line><path class="cls-7" d="M733.39,365.62h0c-13.92,0-25.2,11.28-25.2,25.2v116.45c0,13.92,11.28,25.2,25.2,25.2s25.2-11.28,25.2-25.2v-116.45c0-13.92-11.28-25.2-25.2-25.2Z"></path><rect class="cls-7" x="631.6" y="453.81" width="24.28" height="42.4"></rect><rect class="cls-7" x="632.68" y="454.89" width="22.12" height="40.24"></rect><path class="cls-7" d="M654.04,474.97c0,.71-.57,1.28-1.28,1.28s-1.28-.57-1.28-1.28.57-1.28,1.28-1.28c.71,0,1.28.57,1.28,1.28Z"></path><line class="cls-7" x1="654.8" y1="495.13" x2="655.88" y2="496.21"></line><line class="cls-7" x1="654.79" y1="454.89" x2="655.87" y2="453.81"></line><line class="cls-7" x1="632.67" y1="454.89" x2="631.59" y2="453.81"></line><line class="cls-7" x1="632.68" y1="495.14" x2="631.6" y2="496.22"></line><polygon class="cls-7" points="652.76 473.92 651.71 474.97 652.76 476.03 653.82 474.97 652.76 473.92"></polygon><line class="cls-7" x1="651.71" y1="474.97" x2="653.82" y2="474.97"></line><g><path class="cls-7" d="M143.22,260.45c0-3.41-2.76-6.16-6.16-6.16s-6.16,2.76-6.16,6.16,2.76,6.16,6.16,6.16,6.16-2.76,6.16-6.16Z"></path><circle class="cls-7" cx="137.06" cy="260.45" r="1.44"></circle></g><line class="cls-7" x1="121.26" y1="465.48" x2="121.26" y2="506.96"></line><g><path class="cls-8" d="M714.57,217.05c-.03-1.45-.06-2.89-.12-4.37-.04-.76-.08-1.53-.12-2.25-.03-.55-.06-1.06-.16-1.7-.09-.62-.24-1.36.22-1.65.1-.07.24-.11.36-.12.73-.06.86,1.13.92,2.14.14,2.25-.04,3.57-.15,5.19-.06.86-.1,1.81-.14,2.76.04.95.08,1.89.14,2.76.11,1.62.29,2.95.15,5.19-.06,1.01-.19,2.2-.92,2.14-.12-.01-.26-.05-.36-.12-.46-.29-.31-1.03-.22-1.65.09-.64.12-1.16.16-1.7.04-.72.09-1.49.12-2.25.07-1.48.1-2.92.12-4.37Z"></path><path class="cls-8" d="M719.05,217.05c-.03-1.45-.06-2.89-.12-4.37-.04-.76-.08-1.53-.12-2.25-.03-.55-.06-1.06-.16-1.7-.09-.62-.24-1.36.22-1.65.1-.07.24-.11.36-.12.73-.06.86,1.13.92,2.14.14,2.25-.04,3.57-.15,5.19-.06.86-.1,1.81-.14,2.76.04.95.08,1.89.14,2.76.11,1.62.29,2.95.15,5.19-.06,1.01-.19,2.2-.92,2.14-.12-.01-.26-.05-.36-.12-.46-.29-.31-1.03-.22-1.65.09-.64.12-1.16.16-1.7.04-.72.09-1.49.12-2.25.07-1.48.1-2.92.12-4.37Z"></path><path class="cls-8" d="M723.54,217.05c-.03-1.45-.06-2.89-.12-4.37-.04-.76-.08-1.53-.12-2.25-.03-.55-.06-1.06-.16-1.7-.09-.62-.24-1.36.22-1.65.1-.07.24-.11.36-.12.73-.06.86,1.13.92,2.14.14,2.25-.04,3.57-.15,5.19-.06.86-.1,1.81-.14,2.76.04.95.08,1.89.14,2.76.11,1.62.29,2.95.15,5.19-.06,1.01-.19,2.2-.92,2.14-.12-.01-.26-.05-.36-.12-.46-.29-.31-1.03-.22-1.65.09-.64.12-1.16.16-1.7.04-.72.09-1.49.12-2.25.07-1.48.1-2.92.12-4.37Z"></path></g><line class="cls-8" x1="764.64" y1="217.05" x2="674.55" y2="217.05"></line><g><path class="cls-8" d="M402.88,439.43c-.03-1.45-.06-2.89-.12-4.37-.04-.76-.08-1.53-.12-2.25-.03-.55-.06-1.06-.16-1.7-.09-.62-.24-1.36.22-1.65.1-.07.24-.11.36-.12.73-.06.86,1.13.92,2.14.14,2.25-.04,3.57-.15,5.19-.06.86-.1,1.81-.14,2.76.04.95.08,1.89.14,2.76.11,1.62.29,2.95.15,5.19-.06,1.01-.19,2.2-.92,2.14-.12-.01-.26-.05-.36-.12-.46-.29-.31-1.03-.22-1.65.09-.64.12-1.16.16-1.7.04-.72.09-1.49.12-2.25.07-1.48.1-2.92.12-4.37Z"></path><path class="cls-8" d="M407.37,439.43c-.03-1.45-.06-2.89-.12-4.37-.04-.76-.08-1.53-.12-2.25-.03-.55-.06-1.06-.16-1.7-.09-.62-.24-1.36.22-1.65.1-.07.24-.11.36-.12.73-.06.86,1.13.92,2.14.14,2.25-.04,3.57-.15,5.19-.06.86-.1,1.81-.14,2.76.04.95.08,1.89.14,2.76.11,1.62.29,2.95.15,5.19-.06,1.01-.19,2.2-.92,2.14-.12-.01-.26-.05-.36-.12-.46-.29-.31-1.03-.22-1.65.09-.64.12-1.16.16-1.7.04-.72.09-1.49.12-2.25.07-1.48.1-2.92.12-4.37Z"></path><path class="cls-8" d="M411.85,439.43c-.03-1.45-.06-2.89-.12-4.37-.04-.76-.08-1.53-.12-2.25-.03-.55-.06-1.06-.16-1.7-.09-.62-.24-1.36.22-1.65.1-.07.24-.11.36-.12.73-.06.86,1.13.92,2.14.14,2.25-.04,3.57-.15,5.19-.06.86-.1,1.81-.14,2.76.04.95.08,1.89.14,2.76.11,1.62.29,2.95.15,5.19-.06,1.01-.19,2.2-.92,2.14-.12-.01-.26-.05-.36-.12-.46-.29-.31-1.03-.22-1.65.09-.64.12-1.16.16-1.7.04-.72.09-1.49.12-2.25.07-1.48.1-2.92.12-4.37Z"></path></g><line class="cls-8" x1="455.65" y1="439.43" x2="359.74" y2="439.43"></line><g><path class="cls-8" d="M552.11,537.48c-.03-1.45-.06-2.89-.12-4.37-.04-.76-.08-1.53-.12-2.25-.03-.55-.06-1.06-.16-1.7-.09-.62-.24-1.36.22-1.65.1-.07.24-.11.36-.12.73-.06.86,1.13.92,2.14.14,2.25-.04,3.57-.15,5.19-.06.86-.1,1.81-.14,2.76.04.95.08,1.89.14,2.76.11,1.62.29,2.95.15,5.19-.06,1.01-.19,2.2-.92,2.14-.12,0-.26-.05-.36-.12-.46-.29-.31-1.03-.22-1.65.09-.64.12-1.16.16-1.7.04-.72.09-1.49.12-2.25.07-1.48.1-2.92.12-4.37Z"></path><path class="cls-8" d="M556.59,537.48c-.03-1.45-.06-2.89-.12-4.37-.04-.76-.08-1.53-.12-2.25-.03-.55-.06-1.06-.16-1.7-.09-.62-.24-1.36.22-1.65.1-.07.24-.11.36-.12.73-.06.86,1.13.92,2.14.14,2.25-.04,3.57-.15,5.19-.06.86-.1,1.81-.14,2.76.04.95.08,1.89.14,2.76.11,1.62.29,2.95.15,5.19-.06,1.01-.19,2.2-.92,2.14-.12,0-.26-.05-.36-.12-.46-.29-.31-1.03-.22-1.65.09-.64.12-1.16.16-1.7.04-.72.09-1.49.12-2.25.07-1.48.1-2.92.12-4.37Z"></path><path class="cls-8" d="M561.08,537.48c-.03-1.45-.06-2.89-.12-4.37-.04-.76-.08-1.53-.12-2.25-.03-.55-.06-1.06-.16-1.7-.09-.62-.24-1.36.22-1.65.1-.07.24-.11.36-.12.73-.06.86,1.13.92,2.14.14,2.25-.04,3.57-.15,5.19-.06.86-.1,1.81-.14,2.76.04.95.08,1.89.14,2.76.11,1.62.29,2.95.15,5.19-.06,1.01-.19,2.2-.92,2.14-.12,0-.26-.05-.36-.12-.46-.29-.31-1.03-.22-1.65.09-.64.12-1.16.16-1.7.04-.72.09-1.49.12-2.25.07-1.48.1-2.92.12-4.37Z"></path><path class="cls-8" d="M591.15,562.85c1.45-.03,2.89-.05,4.37-.12.76-.04,1.53-.08,2.25-.12.55-.03,1.06-.06,1.7-.15.62-.09,1.36-.24,1.65.22.07.11.11.24.12.36.06.73-1.13.86-2.14.92-2.25.14-3.57-.04-5.19-.15-.86-.06-1.81-.1-2.76-.13-.95.04-1.89.08-2.76.13-1.62.11-2.95.29-5.19.15-1.01-.06-2.2-.19-2.14-.92.01-.12.05-.26.12-.36.29-.46,1.03-.31,1.65-.22.64.09,1.16.12,1.7.15.72.04,1.49.09,2.25.12,1.48.07,2.92.1,4.37.12Z"></path><path class="cls-8" d="M591.15,567.33c1.45-.03,2.89-.05,4.37-.12.76-.04,1.53-.08,2.25-.12.55-.03,1.06-.06,1.7-.15.62-.09,1.36-.24,1.65.22.07.11.11.24.12.36.06.73-1.13.86-2.14.92-2.25.14-3.57-.04-5.19-.15-.86-.06-1.81-.1-2.76-.13-.95.04-1.89.08-2.76.13-1.62.11-2.95.29-5.19.15-1.01-.06-2.2-.19-2.14-.92.01-.12.05-.26.12-.36.29-.46,1.03-.31,1.65-.22.64.09,1.16.12,1.7.15.72.04,1.49.09,2.25.12,1.48.07,2.92.1,4.37.12Z"></path><path class="cls-8" d="M591.15,571.82c1.45-.03,2.89-.05,4.37-.12.76-.04,1.53-.08,2.25-.12.55-.03,1.06-.06,1.7-.15.62-.09,1.36-.24,1.65.22.07.11.11.24.12.36.06.73-1.13.86-2.14.92-2.25.14-3.57-.04-5.19-.15-.86-.06-1.81-.1-2.76-.13-.95.04-1.89.08-2.76.13-1.62.11-2.95.29-5.19.15-1.01-.06-2.2-.19-2.14-.92.01-.12.05-.26.12-.36.29-.46,1.03-.31,1.65-.22.64.09,1.16.12,1.7.15.72.04,1.49.09,2.25.12,1.48.07,2.92.1,4.37.12Z"></path></g><polyline class="cls-8" points="591.15 598.69 591.15 537.48 522.69 537.48"></polyline><path class="cls-8" d="M956.37,371.73c-77.14,40.06-130.23,114.79-142.72,200.72"></path><line class="cls-8" x1="831.44" y1="507.76" x2="823.96" y2="504.62"></line><line class="cls-8" x1="862.76" y1="452.05" x2="856.2" y2="447.34"></line><line class="cls-8" x1="906.29" y1="405.29" x2="901.11" y2="399.1"></line><polyline class="cls-8" points="814.61 566.33 853.25 558.58 891.87 550.36 930.4 541.86 968.93 532.9 1007.28 523.66 1045.62 514.05 1083.79 504.07 1121.95 493.72 1159.92 483 1197.81 472.01 1168.98 392.73 1121.02 392.73"></polyline><line class="cls-8" x1="1113.08" y1="502.13" x2="1111.6" y2="496.58"></line><line class="cls-8" x1="1098.38" y1="362.7" x2="1109.93" y2="362.7"></line><line class="cls-8" x1="1031.39" y1="362.7" x2="1056.8" y2="362.7"></line><line class="cls-8" x1="1109.93" y1="362.7" x2="1091.55" y2="175.59"></line><line class="cls-8" x1="1091.55" y1="175.59" x2="1056.81" y2="175.59"></line><line class="cls-8" x1="1056.8" y1="175.59" x2="1056.8" y2="10.38"></line><polyline class="cls-8" points="1090.81 167.45 1085.73 115.71 1091.46 115.16"></polyline><polyline class="cls-8" points="1127.49 18.6 1121.49 71.54 1127.21 72.19"></polyline><line class="cls-8" x1="1113.54" y1="399.29" x2="1110.67" y2="370.73"></line><line class="cls-8" x1="1129.56" y1=".38" x2="1135.39" y2=".38"></line><polyline class="cls-8" points="18.41 645.26 55.74 644.98 93.07 644.33 130.4 643.41 167.73 642.11 204.97 640.45 242.3 638.51 279.54 636.29 316.77 633.61 354.01 630.75"></polyline><polyline class="cls-8" points="362.05 630.01 402.71 626.31 443.27 622.25 483.83 617.81 524.3 613.01 564.68 607.74 605.06 602.1 645.44 596.01 685.73 589.63 725.92 582.79 766.02 575.59 806.12 568.01"></polyline><line class="cls-8" x1="23.03" y1="457.41" x2="179" y2="457.41"></line><line class="cls-8" x1="301.43" y1="457.41" x2="354.01" y2="457.41"></line><line class="cls-8" x1=".37" y1="645.26" x2=".37" y2="651.04"></line><polyline class="cls-2" points="1127.21 72.19 1129.52 72.47 1135.62 18.6 1133.31 18.6 1127.21 72.19 1133.31 18.6"></polyline><polygon class="cls-2" points="1091.46 115.16 1096.63 167.45 1098.94 167.45 1093.77 114.97 1091.46 115.16"></polygon><polygon class="cls-2" points="1119.27 398.73 1116.5 370.74 1118.81 370.74 1121.58 398.46 1119.27 398.73"></polygon><rect class="cls-2" x="1030.29" y="368.42" width="24.21" height="2.31"></rect><path class="cls-2" d="M808.36,568.48c13.54-86.16,67.03-160.78,144.16-201.3l-.95-2.11c-77.29,40.55-131.18,115.16-145.24,201.55l2.04,1.86Z"></path><polygon class="cls-2" points="1137.69 .38 1135.62 18.51 1064.94 18.51 1064.94 167.46 1098.94 167.46 1118.8 370.73 1100.69 370.73 1100.69 368.42 1116.31 368.42 1096.81 169.77 1062.63 169.77 1062.63 16.2 1133.59 16.2 1135.39 .38 1137.69 .38"></polygon><polygon class="cls-2" points="354.01 636.48 319.73 639.25 319.91 641.56 354.02 638.85 354.01 636.48"></polygon><polygon class="cls-2" points="18.41 650.98 60.36 650.71 102.31 649.88 144.26 648.77 186.12 647.1 186.21 649.41 147.68 650.89 109.24 652.09 70.71 652.83 32.18 653.29 18.41 653.33 18.41 650.98"></polygon><polygon class="cls-2" points=".38 653.37 18.41 653.33 18.41 653.39 18.41 580.94 16.1 580.94 16.1 651.08 .38 651.04 .38 653.37"></polygon><polygon class="cls-2" points="222.89 465.45 354.01 465.45 354.01 501.3 356.32 501.3 356.32 463.14 222.89 463.14 222.89 465.45"></polygon><polygon class="cls-2" points="10.38 493.16 18.41 493.16 18.41 463.13 16.1 463.13 16.1 493.16 10.38 493.16"></polygon><polyline class="cls-2" points="813.31 574.8 814.53 574.57 852.23 566.99 889.84 559.05 927.35 550.82 964.77 542.23 1002.1 533.27 1039.43 523.93 1076.58 514.32 1113.72 504.34 1113.08 502.13 1075.93 512.11 1038.69 521.72 1001.36 531.05 964.04 540.01 926.52 548.6 888.91 556.92 851.31 564.87 813.61 572.44 811.21 572.91 773.6 580.11 735.9 586.95 698.2 593.42 660.41 599.52 622.52 605.34 584.64 610.79 546.66 615.96 508.69 620.68 470.62 625.11 432.55 629.18 394.48 632.97 356.32 636.29 356.32 602.93 354.01 602.93 354.01 638.79 354.02 638.85 358.26 638.51 396.51 635.09 434.68 631.3 472.93 627.24 511.09 622.71 549.16 617.9 587.23 612.82 625.3 607.28 663.27 601.46 701.16 595.27 739.04 588.71 776.83 581.78 814.53 574.57"></polyline><polyline class="cls-2" points="1133.77 14.63 1128.6 8.9 1128.42 10.38 1126.84 10.38 1132.02 16.2 1133.59 16.2 1133.77 14.63"></polyline><polyline class="cls-2" points="1089.98 175.59 1091.55 175.59 1091.73 177.16 1096.44 171.98 1097 171.34 1096.81 169.77 1095.24 169.77 1089.98 175.59"></polyline><polyline class="cls-2" points="871.54 554.7 872.74 560.34 870.53 560.8 869.32 555.17 871.54 554.7"></polyline><polyline class="cls-2" points="939.09 539.83 940.38 545.46 938.16 546.02 936.87 540.38 939.09 539.83"></polyline><polyline class="cls-2" points="1006.45 523.84 1007.83 529.48 1005.62 530.03 1004.23 524.4 1006.45 523.84"></polyline><polyline class="cls-2" points="1075.56 506.29 1077.04 511.83 1074.73 512.38 1073.25 506.84 1075.56 506.29"></polyline><polyline class="cls-2" points="1118.81 370.73 1116.31 368.42 1116.13 366.76 1109.75 360.94 1109.94 362.7 1108.18 362.7 1114.56 368.42 1116.31 368.42"></polyline><rect class="cls-2" x="1029.09" y="362.7" width="2.31" height="5.73"></rect><polyline class="cls-2" points="806.31 566.62 806.12 568.01 804.74 568.29 808.62 571.98 809.82 573.18 811.21 572.91 811.39 571.52 806.31 566.62"></polyline><polyline class="cls-2" points="953.59 364.08 956.27 369.16 954.24 370.27 951.56 365.19 953.59 364.08"></polyline><rect class="cls-2" x="1098.39" y="362.7" width="2.31" height="8.04"></rect><rect class="cls-2" x="1054.5" y="362.7" width="2.31" height="8.04"></rect><polyline class="cls-2" points="1105.41 316.87 1111.14 316.31 1111.41 318.62 1105.68 319.18 1105.41 316.87"></polyline><polyline class="cls-2" points="1098.66 247.84 1104.39 247.29 1104.67 249.6 1098.94 250.15 1098.66 247.84"></polyline><polyline class="cls-2" points="1091.92 178.91 1097.65 178.36 1097.92 180.67 1092.1 181.22 1091.92 178.91"></polyline><rect class="cls-2" x="1063.73" y="169.77" width="2.31" height="5.82"></rect><rect class="cls-2" x="1056.81" y="166.35" width="5.82" height="2.31"></rect><rect class="cls-2" x="1056.81" y="146.11" width="5.82" height="2.31"></rect><rect class="cls-2" x="1056.81" y="50.85" width="5.82" height="2.31"></rect><rect class="cls-2" x="1056.81" y="17.3" width="5.82" height="2.31"></rect><rect class="cls-2" x="1063.73" y="10.38" width="2.31" height="5.82"></rect><polyline class="cls-2" points="1113.26 396.98 1119.08 396.42 1119.27 398.73 1113.54 399.29 1113.26 396.98"></polyline><rect class="cls-2" x="1056.81" y="114.97" width="5.82" height="2.31"></rect><polyline class="cls-2" points="599.06 602.94 599.89 608.67 597.58 609.03 596.84 603.31 599.06 602.94"></polyline><polyline class="cls-2" points="667.52 592.59 668.45 598.32 666.14 598.69 665.21 592.96 667.52 592.59"></polyline><polyline class="cls-2" points="735.72 581.04 736.73 586.77 734.42 587.14 733.4 581.5 735.72 581.04"></polyline><polyline class="cls-2" points="530.49 612.18 531.23 617.91 528.92 618.18 528.18 612.45 530.49 612.18"></polyline><polyline class="cls-2" points="461.84 620.31 462.4 626.04 460.18 626.31 459.53 620.58 461.84 620.31"></polyline><polyline class="cls-2" points="393 627.24 393.47 633.06 391.25 633.24 390.69 627.51 393 627.24"></polyline><polyline class="cls-2" points="362.05 630.01 362.05 628.35 356.32 634.63 356.32 636.29 357.98 636.2 363.81 629.92 362.05 630.01"></polyline><polyline class="cls-2" points="321.58 633.34 322.04 639.06 319.73 639.25 319.36 633.43 321.58 633.34"></polyline><polyline class="cls-2" points="45.3 650.89 45.3 645.07 47.61 645.07 47.61 650.8 45.3 650.89"></polyline><polyline class="cls-2" points="114.6 649.6 114.42 643.87 116.73 643.78 116.91 649.6 114.6 649.6"></polyline><polyline class="cls-2" points="183.81 647.2 183.62 641.47 185.93 641.37 186.12 647.1 183.81 647.2"></polyline><polyline class="cls-2" points="10.38 643.59 10.38 645.26 8.71 645.26 14.53 651.08 16.1 651.08 16.1 649.41 16.1 649.32 10.38 643.59"></polyline><rect class="cls-2" x="20.72" y="457.41" width="2.31" height="5.73"></rect><rect class="cls-2" x="10.38" y="464.34" width="5.73" height="2.31"></rect><rect class="cls-2" x="86.6" y="457.41" width="2.31" height="5.73"></rect><rect class="cls-2" x="152.39" y="457.41" width="2.31" height="5.73"></rect><rect class="cls-2" x="299.13" y="457.41" width="2.31" height="5.73"></rect><rect class="cls-2" x="352.81" y="457.41" width="2.31" height="5.73"></rect><rect class="cls-2" x="356.32" y="464.34" width="5.73" height="2.31"></rect><rect class="cls-2" x="220.58" y="457.41" width="2.31" height="8.04"></rect><rect class="cls-2" x="176.7" y="457.41" width="2.31" height="8.04"></rect><polygon class="cls-15" points="638.74 144.91 638.74 121.56 642.31 121.56 642.31 115.83 627.15 115.83 627.15 112.32 617.91 112.32 617.91 125.07 629.83 125.07 629.83 144.91 638.74 144.91"></polygon><polygon class="cls-2" points="638.74 144.91 638.74 121.56 642.31 121.56 642.31 115.83 627.15 115.83 627.15 112.32 617.91 112.32 617.91 125.07 629.83 125.07 629.83 144.91 638.74 144.91"></polygon><polygon class="cls-15" points="1129.56 .38 1128.42 10.38 1056.81 10.38 1056.81 18.51 1051.08 18.51 1051.08 13.89 792.36 13.89 792.36 121.56 769.26 121.56 769.26 115.84 773.88 115.84 773.88 81.98 784.23 81.98 784.23 13.89 712.61 13.89 712.61 87.81 684.9 87.81 684.9 115.79 727.68 115.79 727.68 121.52 665.51 121.52 665.51 115.84 668.83 115.84 668.83 87.81 627.15 87.81 627.15 91.22 617.91 91.22 617.91 77.81 702.62 77.81 702.62 .38 1129.56 .38"></polygon><polygon class="cls-2" points="1129.56 .38 1128.42 10.38 1056.81 10.38 1056.81 18.51 1051.08 18.51 1051.08 13.89 792.36 13.89 792.36 121.56 769.26 121.56 769.26 115.84 773.88 115.84 773.88 81.98 784.23 81.98 784.23 13.89 712.61 13.89 712.61 87.81 684.9 87.81 684.9 115.79 727.68 115.79 727.68 121.52 665.51 121.52 665.51 115.84 668.83 115.84 668.83 87.81 627.15 87.81 627.15 91.22 617.91 91.22 617.91 77.81 702.62 77.81 702.62 .38 1129.56 .38"></polygon><polygon class="cls-15" points="1056.8 148.42 1056.8 175.59 1064.94 175.59 1064.94 182.52 1033.15 182.52 1033.15 148.42 1056.8 148.42"></polygon><polygon class="cls-2" points="1056.8 148.42 1056.8 175.59 1064.94 175.59 1064.94 182.52 1033.15 182.52 1033.15 148.42 1056.8 148.42"></polygon><polygon class="cls-15" points="1029.09 355.77 1029.09 368.43 1030.29 368.43 1030.29 383.49 956.37 383.49 956.37 369.26 950.82 359 957.2 355.77 1029.09 355.77"></polygon><polygon class="cls-2" points="1029.09 355.77 1029.09 368.43 1030.29 368.43 1030.29 383.49 956.37 383.49 956.37 369.26 950.82 359 957.2 355.77 1029.09 355.77"></polygon><polygon class="cls-15" points="354.01 457.41 354.01 419.82 363.25 419.82 363.25 425.68 359.74 425.68 359.74 454.4 455.65 454.4 455.65 425.68 432.55 425.68 432.55 419.86 441.84 419.86 441.84 413.27 447.52 413.27 447.52 419.86 468.31 419.86 468.31 425.68 461.38 425.68 461.38 460.13 367.87 460.13 367.87 623.73 391.25 621.6 391.8 627.42 362.05 630.01 362.05 602.92 356.35 602.93 356.35 602.94 343.57 602.94 343.57 501.3 356.32 501.3 362.05 501.3 362.05 457.41 354.01 457.41"></polygon><polygon class="cls-2" points="354.01 457.41 354.01 419.82 363.25 419.82 363.25 425.68 359.74 425.68 359.74 454.4 455.65 454.4 455.65 425.68 432.55 425.68 432.55 419.86 441.84 419.86 441.84 413.27 447.52 413.27 447.52 419.86 468.31 419.86 468.31 425.68 461.38 425.68 461.38 460.13 367.87 460.13 367.87 623.73 391.25 621.6 391.8 627.42 362.05 630.01 362.05 602.92 356.35 602.93 356.35 602.94 343.57 602.94 343.57 501.3 356.32 501.3 362.05 501.3 362.05 457.41 354.01 457.41"></polygon><rect class="cls-15" x="222.9" y="451.59" width="76.23" height="5.82"></rect><rect class="cls-2" x="222.9" y="451.59" width="76.23" height="5.82"></rect><rect class="cls-15" x="150.08" y="448.17" width="5.82" height="9.24"></rect><rect class="cls-2" x="150.08" y="448.17" width="5.82" height="9.24"></rect><polygon class="cls-15" points="666.31 592.7 645.44 596.01 605.06 602.1 564.68 607.74 524.3 613.01 516.82 613.9 516.82 613.93 516.82 598.87 522.64 598.87 522.64 607.37 605.25 596.19 605.25 523.5 522.69 523.5 522.69 557.29 516.82 557.29 516.82 473.88 522.64 473.88 522.64 478.5 524.95 478.5 524.95 517.77 601.18 517.77 601.18 478.5 615.04 478.5 615.04 364.73 522.69 364.73 522.69 432.3 516.82 432.3 516.82 426.24 509.89 426.24 509.89 419.86 516.82 419.86 516.82 359 657.17 359 657.17 364.73 629.45 364.73 629.45 578.64 657.17 578.64 657.17 584.46 665.03 584.46 666.32 592.77 666.31 592.7"></polygon><polygon class="cls-2" points="666.31 592.7 645.44 596.01 605.06 602.1 564.68 607.74 524.3 613.01 516.82 613.9 516.82 613.93 516.82 598.87 522.64 598.87 522.64 607.37 605.25 596.19 605.25 523.5 522.69 523.5 522.69 557.29 516.82 557.29 516.82 473.88 522.64 473.88 522.64 478.5 524.95 478.5 524.95 517.77 601.18 517.77 601.18 478.5 615.04 478.5 615.04 364.73 522.69 364.73 522.69 432.3 516.82 432.3 516.82 426.24 509.89 426.24 509.89 419.86 516.82 419.86 516.82 359 657.17 359 657.17 364.73 629.45 364.73 629.45 578.64 657.17 578.64 657.17 584.46 665.03 584.46 666.32 592.77 666.31 592.7"></polygon><g><polygon class="cls-15" points="720.75 300.33 728.93 300.33 728.93 278.39 728.93 272.66 734.66 272.66 764.64 272.66 764.64 239.07 674.55 239.07 674.55 300.33 679.17 300.33 679.17 306.06 523.1 306.06 523.1 300.33 527.82 300.33 527.82 206.73 439.73 206.73 439.73 300.33 481.52 300.33 481.52 306.06 461.38 306.06 461.38 365.01 447.52 365.01 447.52 371.69 441.79 371.69 441.79 365.01 406.03 365.01 406.03 356.88 455.65 356.88 455.65 306.06 432 306.06 432 206.73 359.74 206.73 359.74 356.88 364.36 356.88 364.36 365.01 354.01 365.01 354.01 236.76 155.91 236.76 155.91 406.59 150.08 406.59 150.08 289.89 121.07 289.89 121.07 284.16 150.08 284.16 150.08 214.86 83.09 214.86 83.09 289.89 77.37 289.89 77.37 214.86 21.93 214.86 21.93 284.16 39.39 284.16 39.39 289.89 21.93 289.89 21.93 457.41 10.38 457.41 10.38 493.17 25.34 493.17 25.34 580.95 10.38 580.95 10.38 645.26 .38 645.26 .38 204.86 160.08 204.86 160.08 226.76 349.74 226.76 349.74 196.73 537.82 196.73 537.82 296.06 664.55 296.06 664.55 207.49 629.83 207.49 629.83 191.2 638.7 191.2 638.7 197.49 684.9 197.49 684.9 203.31 674.55 203.31 674.55 231.03 764.64 231.03 764.64 203.31 754.2 203.31 754.2 197.49 770.37 197.49 770.37 306.06 764.64 306.06 764.64 278.39 734.66 278.39 734.66 306.06 720.75 306.06 720.75 300.33"></polygon><polygon class="cls-2" points="720.75 300.33 728.93 300.33 728.93 278.39 728.93 272.66 734.66 272.66 764.64 272.66 764.64 239.07 674.55 239.07 674.55 300.33 679.17 300.33 679.17 306.06 523.1 306.06 523.1 300.33 527.82 300.33 527.82 206.73 439.73 206.73 439.73 300.33 481.52 300.33 481.52 306.06 461.38 306.06 461.38 365.01 447.52 365.01 447.52 371.69 441.79 371.69 441.79 365.01 406.03 365.01 406.03 356.88 455.65 356.88 455.65 306.06 432 306.06 432 206.73 359.74 206.73 359.74 356.88 364.36 356.88 364.36 365.01 354.01 365.01 354.01 236.76 155.91 236.76 155.91 406.59 150.08 406.59 150.08 289.89 121.07 289.89 121.07 284.16 150.08 284.16 150.08 214.86 83.09 214.86 83.09 289.89 77.37 289.89 77.37 214.86 21.93 214.86 21.93 284.16 39.39 284.16 39.39 289.89 21.93 289.89 21.93 457.41 10.38 457.41 10.38 493.17 25.34 493.17 25.34 580.95 10.38 580.95 10.38 645.26 .38 645.26 .38 204.86 160.08 204.86 160.08 226.76 349.74 226.76 349.74 196.73 537.82 196.73 537.82 296.06 664.55 296.06 664.55 207.49 629.83 207.49 629.83 191.2 638.7 191.2 638.7 197.49 684.9 197.49 684.9 203.31 674.55 203.31 674.55 231.03 764.64 231.03 764.64 203.31 754.2 203.31 754.2 197.49 770.37 197.49 770.37 306.06 764.64 306.06 764.64 278.39 734.66 278.39 734.66 306.06 720.75 306.06 720.75 300.33"></polygon><path class="cls-16" d="M615.49,168.22c.1-.02.17-.09.17-.17s-.07-.15-.17-.17c-3.9-.66-5.83-3.23-5.83-7.11v-4.53c0-1.37-1.19-2.34-3.13-2.6-.4-.05-.72.27-.54.55.36.55.55,1.25.55,2.1v4.11c0,3.49,1.97,6.15,5.88,7.29.43.13.43.59,0,.72-3.9,1.13-5.88,3.8-5.88,7.29v4.11c0,.85-.19,1.55-.55,2.1-.18.28.14.6.54.55,1.94-.26,3.13-1.24,3.13-2.6v-4.53c0-3.88,1.94-6.45,5.83-7.11h0Z"></path><path class="cls-13" d="M615.49,168.22c.1-.02.17-.09.17-.17s-.07-.15-.17-.17c-3.9-.66-5.83-3.23-5.83-7.11v-4.53c0-1.37-1.19-2.34-3.13-2.6-.4-.05-.72.27-.54.55.36.55.55,1.25.55,2.1v4.11c0,3.49,1.97,6.15,5.88,7.29.43.13.43.59,0,.72-3.9,1.13-5.88,3.8-5.88,7.29v4.11c0,.85-.19,1.55-.55,2.1-.18.28.14.6.54.55,1.94-.26,3.13-1.24,3.13-2.6v-4.53c0-3.88,1.94-6.45,5.83-7.11h0Z"></path></g><g><path class="cls-16" d="M386.56,277.79h.65l1.71,6.06,1.76-5.7h.63l1.76,5.7,1.7-6.06h.65l-2.01,6.98h-.63l-1.79-5.71-1.79,5.71h-.64l-2.01-6.98Z"></path><path class="cls-16" d="M396.57,277.79h.62v6.98h-.62v-6.98Z"></path><path class="cls-16" d="M398.62,281.27c0-2.16,1.26-3.58,3.16-3.58,1.35,0,2.39.71,2.84,1.89l-.58.22c-.38-.96-1.17-1.52-2.26-1.52-1.55,0-2.54,1.17-2.54,2.99s.99,3,2.54,3c1.09,0,1.89-.56,2.26-1.52l.58.22c-.45,1.18-1.49,1.9-2.84,1.9-1.89,0-3.16-1.42-3.16-3.59Z"></path></g><path class="cls-16" d="M727.56,34.95h.65l1.71,6.06,1.76-5.7h.63l1.76,5.7,1.7-6.06h.65l-2.01,6.98h-.63l-1.79-5.71-1.79,5.71h-.64l-2.01-6.98Z"></path><path class="cls-16" d="M697.28,98.8h.62v6.42h3.22v.56h-3.84v-6.98Z"></path><path class="cls-16" d="M761.09,34.95h1.87c2.26,0,3.56,1.29,3.56,3.54s-1.27,3.43-3.57,3.43h-1.86v-6.98ZM762.9,41.35c1.92,0,2.99-.89,2.99-2.88s-1.08-2.95-2.94-2.95h-1.24v5.83h1.19Z"></path><g><path class="cls-16" d="M58.04,577.44c0-2.17,1.27-3.59,3.16-3.59s3.18,1.42,3.18,3.59-1.27,3.58-3.18,3.58-3.16-1.42-3.16-3.58ZM61.2,580.43c1.57,0,2.55-1.16,2.55-2.99s-.99-3-2.55-3-2.54,1.15-2.54,3,.99,2.99,2.54,2.99Z"></path><path class="cls-16" d="M65.62,579.05v-3.07h.59v2.86c0,1.11.43,1.62,1.25,1.62.89,0,1.41-.61,1.41-1.97v-2.51h.6v4.93h-.6v-.81c-.32.59-.88.88-1.56.88-1.05,0-1.69-.64-1.69-1.94Z"></path><path class="cls-16" d="M71.54,579.78v-3.32h-1.1v-.48h1.1v-1.43l.61-.36v1.78h1.19v.48h-1.19v3.17c0,.54.17.86.62.86.15,0,.35-.03.57-.09v.48c-.25.08-.5.12-.71.12-.66,0-1.08-.38-1.08-1.21Z"></path><path class="cls-16" d="M74.08,578.45c0-1.51.99-2.53,2.25-2.53.81,0,1.44.42,1.77,1.05v-3.02h.59v6.98h-.59v-.97c-.34.65-.97,1.04-1.77,1.04-1.32,0-2.25-1.1-2.25-2.54ZM76.42,580.44c1,0,1.72-.83,1.72-1.99s-.72-1.99-1.72-1.99-1.74.83-1.74,1.99.73,1.99,1.74,1.99Z"></path><path class="cls-16" d="M80.02,578.45c0-1.48.97-2.53,2.35-2.53s2.34,1.05,2.34,2.53-.98,2.54-2.34,2.54-2.35-1.05-2.35-2.54ZM82.37,580.45c1.05,0,1.74-.8,1.74-2.01s-.69-2.01-1.74-2.01-1.75.81-1.75,2.01.7,2.01,1.75,2.01Z"></path><path class="cls-16" d="M85.82,578.45c0-1.48.97-2.53,2.35-2.53s2.34,1.05,2.34,2.53-.98,2.54-2.34,2.54-2.35-1.05-2.35-2.54ZM88.16,580.45c1.05,0,1.74-.8,1.74-2.01s-.69-2.01-1.74-2.01-1.75.81-1.75,2.01.7,2.01,1.75,2.01Z"></path><path class="cls-16" d="M91.84,575.99h.6v.84c.33-.6,1.01-.91,1.56-.91.25,0,.51.05.77.19l-.3.54c-.17-.08-.39-.13-.59-.13-.53,0-1.12.28-1.34,1-.06.21-.09.44-.09.98v2.43h-.6v-4.93Z"></path><path class="cls-16" d="M98.05,579.07l.61-.15c.16.98.86,1.52,1.86,1.52.87,0,1.54-.58,1.54-1.39,0-.87-.77-1.18-1.71-1.55-1.08-.41-1.89-.87-1.89-1.91s.8-1.76,2-1.76c.85,0,1.51.39,1.91,1.13l-.49.31c-.33-.58-.81-.89-1.44-.89-.81,0-1.36.51-1.36,1.19,0,.77.66,1.06,1.61,1.42,1.14.43,1.99.9,1.99,2.02s-.92,1.98-2.18,1.98c-1.35,0-2.25-.76-2.45-1.94Z"></path><path class="cls-16" d="M108.53,578.46c0,1.51-.99,2.53-2.25,2.53-.81,0-1.44-.42-1.77-1.05v3.02h-.59v-6.98h.59v.97c.34-.65.97-1.04,1.77-1.04,1.32,0,2.25,1.1,2.25,2.54ZM106.19,580.44c1.01,0,1.74-.84,1.74-1.99s-.73-1.99-1.74-1.99-1.72.83-1.72,1.99.72,1.99,1.72,1.99Z"></path><path class="cls-16" d="M113.14,579.99c-.33.63-.97,1-1.73,1-1.11,0-1.78-.6-1.78-1.5,0-.53.22-.89.56-1.11.36-.24.84-.32,1.36-.32h1.58v-.22c0-.92-.48-1.41-1.4-1.41-.61,0-1.08.23-1.52.79l-.43-.37c.52-.65,1.18-.94,1.99-.94,1.26,0,1.95.69,1.95,1.93v3.07h-.55l-.03-.93ZM111.46,580.49c.91,0,1.67-.72,1.67-1.69v-.28h-1.5c-.4,0-.79.06-1.06.25-.22.16-.34.39-.34.72,0,.61.47,1,1.23,1Z"></path></g><g><path class="cls-16" d="M714.57,425.09h1.87c2.26,0,3.56,1.29,3.56,3.54s-1.27,3.43-3.57,3.43h-1.86v-6.98ZM716.37,431.49c1.92,0,2.99-.89,2.99-2.88s-1.08-2.95-2.94-2.95h-1.24v5.83h1.19Z"></path><path class="cls-16" d="M720.66,425.09h.65l1.71,6.06,1.76-5.7h.63l1.76,5.7,1.7-6.06h.65l-2.01,6.98h-.63l-1.79-5.71-1.79,5.71h-.64l-2.01-6.98Z"></path></g><path class="cls-16" d="M633.27,551.3c0-2.17,1.27-3.59,3.16-3.59s3.18,1.42,3.18,3.59-1.27,3.58-3.18,3.58-3.16-1.42-3.16-3.58ZM636.43,554.29c1.57,0,2.55-1.16,2.55-2.99s-.99-3-2.55-3-2.54,1.15-2.54,3,.99,2.99,2.54,2.99Z"></path><path class="cls-16" d="M643.3,546.81h.48l-3.55,9.08h-.47l3.55-9.08Z"></path><path class="cls-16" d="M645.01,547.81h.93l2.35,5.66,2.35-5.66h.92v6.98h-.62v-6.16l-2.35,5.59h-.61l-2.36-5.59v6.16h-.62v-6.98Z"></path><g><path class="cls-16" d="M742.75,287.29h.38l1.81,6.47,1.92-6.12h.38l1.93,6.12,1.8-6.47h.38l-1.97,6.98h-.4l-1.93-6.1-1.94,6.1h-.4l-1.97-6.98Z"></path><path class="cls-16" d="M752.64,287.29h4.44v.33h-4.08v2.95h3.55v.33h-3.55v3.36h-.36v-6.98Z"></path></g><g><path class="cls-16" d="M634.73,380.44h1.94c1.53,0,2.29.72,2.29,1.92,0,.97-.5,1.6-1.43,1.83l1.88,3.22h-.71l-1.8-3.13c-.16,0-.34,0-.5,0h-1.05v3.13h-.62v-6.98ZM636.61,383.74c1.06,0,1.73-.42,1.73-1.37s-.68-1.37-1.73-1.37h-1.26v2.74h1.26Z"></path><path class="cls-16" d="M640.58,380.44h4.56v.56h-3.94v2.59h3.53v.56h-3.53v2.7h3.94v.56h-4.56v-6.98Z"></path><path class="cls-16" d="M646.44,380.44h4.51v.56h-3.89v2.59h3.38v.56h-3.38v3.26h-.62v-6.98Z"></path></g><g><path class="cls-16" d="M637.63,409.89h4.51v.56h-3.89v2.59h3.38v.56h-3.38v3.26h-.62v-6.98Z"></path><path class="cls-16" d="M643.3,409.89h1.94c1.53,0,2.29.72,2.29,1.92,0,.97-.5,1.6-1.43,1.83l1.88,3.22h-.71l-1.8-3.13c-.16,0-.34,0-.5,0h-1.05v3.13h-.62v-6.98ZM645.19,413.19c1.06,0,1.73-.42,1.73-1.37s-.68-1.37-1.73-1.37h-1.26v2.74h1.26Z"></path></g><g><path class="cls-16" d="M548.04,562.55h.65l1.71,6.06,1.76-5.7h.63l1.76,5.7,1.7-6.06h.65l-2.01,6.98h-.63l-1.79-5.71-1.79,5.71h-.64l-2.01-6.98Z"></path><path class="cls-16" d="M558.05,562.55h.62v6.98h-.62v-6.98Z"></path><path class="cls-16" d="M560.1,566.03c0-2.16,1.26-3.58,3.16-3.58,1.35,0,2.39.71,2.84,1.89l-.58.22c-.38-.96-1.17-1.52-2.26-1.52-1.55,0-2.54,1.17-2.54,2.99s.99,3,2.54,3c1.09,0,1.89-.56,2.26-1.52l.58.21c-.45,1.18-1.49,1.9-2.84,1.9-1.89,0-3.16-1.42-3.16-3.59Z"></path></g><path class="cls-16" d="M699.26,266.09h1.94c1.46,0,2.29.69,2.29,1.95s-.83,1.96-2.29,1.96h-1.33v3.07h-.62v-6.98ZM701.14,269.44c1.09,0,1.73-.47,1.73-1.4s-.62-1.39-1.73-1.39h-1.27v2.79h1.27Z"></path><g><path class="cls-16" d="M641.71,102.07c0-2.16,1.26-3.58,3.16-3.58,1.35,0,2.39.71,2.84,1.89l-.58.22c-.38-.96-1.17-1.52-2.26-1.52-1.55,0-2.54,1.17-2.54,2.99s.99,3,2.54,3c1.09,0,1.89-.56,2.26-1.52l.58.22c-.45,1.18-1.49,1.9-2.84,1.9-1.89,0-3.16-1.42-3.16-3.59Z"></path><path class="cls-16" d="M648.7,102.07c0-2.16,1.26-3.58,3.16-3.58,1.35,0,2.39.71,2.84,1.89l-.58.22c-.38-.96-1.17-1.52-2.26-1.52-1.55,0-2.54,1.17-2.54,2.99s.99,3,2.54,3c1.09,0,1.89-.56,2.26-1.52l.58.22c-.45,1.18-1.49,1.9-2.84,1.9-1.89,0-3.16-1.42-3.16-3.59Z"></path></g><g><path class="cls-16" d="M205.01,339.67h2.52c1.9,0,2.97.89,2.97,2.53s-1.07,2.54-2.97,2.54h-1.72v3.99h-.8v-9.06ZM207.46,344.02c1.41,0,2.24-.61,2.24-1.81s-.81-1.81-2.24-1.81h-1.64v3.62h1.64Z"></path><path class="cls-16" d="M212.02,342.32h.78v1.09c.43-.78,1.31-1.18,2.02-1.18.33,0,.66.07.99.24l-.39.7c-.21-.1-.51-.17-.77-.17-.68,0-1.46.36-1.74,1.3-.08.27-.12.57-.12,1.27v3.15h-.78v-6.41Z"></path><path class="cls-16" d="M217.08,339.67h.94v1.39h-.94v-1.39ZM217.16,342.32h.77v6.41h-.77v-6.41Z"></path><path class="cls-16" d="M219.97,342.32h.78v1.1c.38-.85,1.11-1.19,1.88-1.19.91,0,1.57.4,1.89,1.25.4-.83,1.09-1.25,2-1.25,1.55,0,2.13,1.16,2.13,2.68v3.82h-.78v-3.64c0-1.33-.39-2.18-1.52-2.18-1.02,0-1.65.77-1.65,2.26v3.57h-.78v-3.76c0-1.4-.52-2.07-1.5-2.07-1.03,0-1.67.79-1.67,2.26v3.57h-.78v-6.41Z"></path><path class="cls-16" d="M234.8,347.53c-.43.82-1.25,1.29-2.25,1.29-1.44,0-2.31-.77-2.31-1.94,0-.69.29-1.16.72-1.44.46-.31,1.09-.42,1.77-.42h2.05v-.28c0-1.19-.62-1.83-1.82-1.83-.79,0-1.4.29-1.98,1.02l-.56-.48c.68-.85,1.53-1.22,2.59-1.22,1.63,0,2.54.89,2.54,2.51v3.99h-.72l-.04-1.2ZM232.62,348.18c1.18,0,2.16-.93,2.16-2.2v-.36h-1.95c-.51,0-1.03.08-1.37.33-.28.21-.44.51-.44.94,0,.79.6,1.3,1.6,1.3Z"></path><path class="cls-16" d="M237.51,342.32h.78v1.09c.43-.78,1.31-1.18,2.02-1.18.33,0,.66.07.99.24l-.39.7c-.21-.1-.51-.17-.77-.17-.68,0-1.46.36-1.74,1.3-.08.27-.12.57-.12,1.27v3.15h-.78v-6.41Z"></path><path class="cls-16" d="M244.56,348.53l-2.55-6.21h.86l2.1,5.42,2.11-5.42h.85l-3.69,9.05h-.84l1.17-2.84Z"></path><path class="cls-16" d="M252.82,339.67h2.72c1.68,0,2.68.84,2.68,2.25,0,.94-.46,1.68-1.24,2,1.1.25,1.7,1.07,1.7,2.31,0,1.61-1.02,2.5-2.88,2.5h-2.97v-9.06ZM255.79,343.67c.98,0,1.63-.64,1.63-1.64s-.69-1.61-1.89-1.61h-1.91v3.26h2.16ZM255.74,347.98c1.42,0,2.14-.6,2.14-1.79,0-1.13-.66-1.79-1.79-1.79h-2.46v3.58h2.11Z"></path><path class="cls-16" d="M260.15,345.57c0-1.84.99-3.34,2.81-3.34,1.96,0,2.76,1.53,2.76,2.94,0,.1-.01.4-.04.55h-4.76c.03,1.51.84,2.39,2.15,2.39.82,0,1.35-.23,1.91-.83l.55.49c-.73.75-1.43,1.05-2.46,1.05-1.89,0-2.91-1.41-2.91-3.25ZM264.96,345.14c0-.08,0-.16,0-.24,0-.92-.58-2.02-2-2.02-1.23,0-1.98.98-2.07,2.26h4.06Z"></path><path class="cls-16" d="M267.13,345.52c0-1.96,1.29-3.29,2.92-3.29,1.05,0,1.87.54,2.29,1.36v-3.92h.77v9.06h-.77v-1.26c-.44.84-1.25,1.35-2.29,1.35-1.72,0-2.92-1.42-2.92-3.3ZM270.17,348.1c1.3,0,2.23-1.08,2.23-2.58s-.93-2.58-2.23-2.58-2.26,1.09-2.26,2.58.95,2.58,2.26,2.58Z"></path><path class="cls-16" d="M275.14,342.32h.78v1.09c.43-.78,1.31-1.18,2.02-1.18.33,0,.66.07.99.24l-.39.7c-.21-.1-.51-.17-.77-.17-.68,0-1.46.36-1.74,1.3-.08.27-.12.57-.12,1.27v3.15h-.78v-6.41Z"></path><path class="cls-16" d="M279.52,345.52c0-1.92,1.25-3.29,3.05-3.29s3.04,1.36,3.04,3.29-1.27,3.3-3.04,3.3-3.05-1.37-3.05-3.3ZM282.57,348.13c1.37,0,2.26-1.04,2.26-2.61s-.9-2.61-2.26-2.61-2.27,1.05-2.27,2.61.9,2.61,2.27,2.61Z"></path><path class="cls-16" d="M287.06,345.52c0-1.92,1.25-3.29,3.05-3.29s3.04,1.36,3.04,3.29-1.27,3.3-3.04,3.3-3.05-1.37-3.05-3.3ZM290.1,348.13c1.37,0,2.26-1.04,2.26-2.61s-.9-2.61-2.26-2.61-2.27,1.05-2.27,2.61.9,2.61,2.27,2.61Z"></path><path class="cls-16" d="M294.89,342.32h.78v1.1c.38-.85,1.11-1.19,1.88-1.19.91,0,1.57.4,1.89,1.25.4-.83,1.09-1.25,2-1.25,1.55,0,2.13,1.16,2.13,2.68v3.82h-.78v-3.64c0-1.33-.39-2.18-1.52-2.18-1.02,0-1.65.77-1.65,2.26v3.57h-.78v-3.76c0-1.4-.52-2.07-1.5-2.07-1.03,0-1.67.79-1.67,2.26v3.57h-.78v-6.41Z"></path></g><g><path class="cls-16" d="M888.94,102.32h.81v8.33h4.18v.73h-4.99v-9.06Z"></path><path class="cls-16" d="M895.07,102.32h.94v1.39h-.94v-1.39ZM895.15,104.97h.77v6.41h-.77v-6.41Z"></path><path class="cls-16" d="M897.32,104.97h.86l2.1,5.42,2.11-5.42h.85l-2.61,6.41h-.68l-2.63-6.41Z"></path><path class="cls-16" d="M904.57,102.32h.94v1.39h-.94v-1.39ZM904.66,104.97h.77v6.41h-.77v-6.41Z"></path><path class="cls-16" d="M907.47,104.97h.78v1.05c.4-.76,1.12-1.14,2.01-1.14,1.38,0,2.2.81,2.2,2.51v3.99h-.78v-3.71c0-1.45-.55-2.11-1.61-2.11-1.16,0-1.83.79-1.83,2.55v3.27h-.78v-6.41Z"></path><path class="cls-16" d="M913.92,112.14s0-.1.03-.26l1.11-.88c-.57-.22-.96-.59-.96-1.26,0-.53.27-.9.72-1.2-.36-.37-.56-.87-.56-1.45,0-1.3,1.04-2.2,2.39-2.2.64,0,1.22.21,1.64.58l1.02-.86.4.49-1,.88c.19.33.3.71.3,1.14,0,1.28-.96,2.13-2.33,2.13-.53,0-.99-.12-1.37-.34-.31.18-.45.42-.45.72,0,.66.63.83,1.62.98,1.6.25,2.99.44,2.99,1.75,0,1.16-1.05,1.78-2.7,1.78-1.82,0-2.85-.7-2.85-2ZM916.78,113.53c1.09,0,1.92-.34,1.92-1.08,0-.86-1.16-.96-2.31-1.14-.31-.05-.6-.1-.89-.17l-.8.92c-.01.09-.01.11-.01.15,0,.9.79,1.33,2.09,1.33ZM916.65,108.6c.98,0,1.59-.65,1.59-1.53s-.64-1.56-1.58-1.56-1.62.65-1.62,1.55.63,1.55,1.61,1.55Z"></path><path class="cls-16" d="M924.41,102.32h2.52c1.99,0,2.97.93,2.97,2.5,0,1.25-.64,2.07-1.85,2.38l2.44,4.19h-.92l-2.34-4.07c-.21,0-.44,0-.65,0h-1.36v4.06h-.81v-9.06ZM926.85,106.6c1.38,0,2.24-.55,2.24-1.78s-.88-1.77-2.24-1.77h-1.64v3.56h1.64Z"></path><path class="cls-16" d="M931.41,108.17c0-1.92,1.25-3.29,3.05-3.29s3.04,1.36,3.04,3.29-1.27,3.3-3.04,3.3-3.05-1.36-3.05-3.3ZM934.46,110.78c1.37,0,2.26-1.04,2.26-2.61s-.9-2.61-2.26-2.61-2.28,1.05-2.28,2.61.9,2.61,2.28,2.61Z"></path><path class="cls-16" d="M938.95,108.17c0-1.92,1.25-3.29,3.05-3.29s3.04,1.36,3.04,3.29-1.27,3.3-3.04,3.3-3.05-1.36-3.05-3.3ZM941.99,110.78c1.37,0,2.26-1.04,2.26-2.61s-.9-2.61-2.26-2.61-2.28,1.05-2.28,2.61.9,2.61,2.28,2.61Z"></path><path class="cls-16" d="M946.78,104.97h.78v1.1c.38-.85,1.11-1.19,1.88-1.19.91,0,1.57.4,1.89,1.25.4-.83,1.09-1.25,2-1.25,1.55,0,2.13,1.16,2.13,2.68v3.82h-.78v-3.64c0-1.33-.39-2.18-1.52-2.18-1.02,0-1.65.77-1.65,2.26v3.57h-.78v-3.76c0-1.4-.52-2.07-1.5-2.07-1.03,0-1.67.79-1.67,2.26v3.57h-.78v-6.41Z"></path></g><g><path class="cls-16" d="M887.54,266.33h2.43c2.94,0,4.62,1.68,4.62,4.6s-1.64,4.46-4.63,4.46h-2.42v-9.06ZM889.89,274.64c2.5,0,3.89-1.16,3.89-3.74s-1.4-3.83-3.82-3.83h-1.61v7.57h1.54Z"></path><path class="cls-16" d="M896.2,266.33h.94v1.39h-.94v-1.39ZM896.29,268.98h.77v6.41h-.77v-6.41Z"></path><path class="cls-16" d="M899.1,268.98h.78v1.05c.4-.76,1.12-1.14,2.01-1.14,1.38,0,2.2.81,2.2,2.51v3.99h-.78v-3.71c0-1.45-.55-2.11-1.61-2.11-1.16,0-1.83.79-1.83,2.55v3.27h-.78v-6.41Z"></path><path class="cls-16" d="M905.97,266.33h.94v1.39h-.94v-1.39ZM906.06,268.98h.77v6.41h-.77v-6.41Z"></path><path class="cls-16" d="M908.86,268.98h.78v1.05c.4-.76,1.12-1.14,2.01-1.14,1.38,0,2.2.81,2.2,2.51v3.99h-.78v-3.71c0-1.45-.55-2.11-1.61-2.11-1.16,0-1.83.79-1.83,2.55v3.27h-.78v-6.41Z"></path><path class="cls-16" d="M915.32,276.15s0-.1.03-.26l1.11-.88c-.57-.22-.96-.59-.96-1.26,0-.53.27-.9.72-1.2-.36-.37-.56-.87-.56-1.45,0-1.3,1.04-2.2,2.38-2.2.64,0,1.22.21,1.64.59l1.02-.86.4.49-1,.88c.19.33.3.71.3,1.14,0,1.28-.96,2.13-2.33,2.13-.53,0-.99-.12-1.37-.34-.31.18-.45.42-.45.72,0,.66.63.83,1.62.98,1.6.25,2.99.44,2.99,1.75,0,1.16-1.05,1.78-2.7,1.78-1.82,0-2.85-.7-2.85-2ZM918.18,277.54c1.09,0,1.92-.34,1.92-1.08,0-.86-1.16-.96-2.31-1.14-.31-.05-.6-.1-.89-.17l-.8.92c-.01.09-.01.11-.01.15,0,.9.79,1.33,2.09,1.33ZM918.05,272.62c.98,0,1.59-.65,1.59-1.53s-.64-1.56-1.58-1.56-1.62.65-1.62,1.55.63,1.55,1.61,1.55Z"></path><path class="cls-16" d="M925.8,266.33h2.52c1.99,0,2.97.93,2.97,2.5,0,1.25-.64,2.07-1.85,2.38l2.44,4.19h-.92l-2.34-4.07c-.21,0-.44,0-.65,0h-1.36v4.06h-.81v-9.06ZM928.25,270.61c1.38,0,2.24-.55,2.24-1.78s-.88-1.77-2.24-1.77h-1.64v3.56h1.64Z"></path><path class="cls-16" d="M932.81,272.18c0-1.92,1.25-3.29,3.05-3.29s3.04,1.37,3.04,3.29-1.27,3.3-3.04,3.3-3.05-1.36-3.05-3.3ZM935.86,274.79c1.37,0,2.26-1.04,2.26-2.61s-.9-2.61-2.26-2.61-2.28,1.05-2.28,2.61.9,2.61,2.28,2.61Z"></path><path class="cls-16" d="M940.34,272.18c0-1.92,1.25-3.29,3.05-3.29s3.04,1.37,3.04,3.29-1.27,3.3-3.04,3.3-3.05-1.36-3.05-3.3ZM943.39,274.79c1.37,0,2.26-1.04,2.26-2.61s-.9-2.61-2.26-2.61-2.28,1.05-2.28,2.61.9,2.61,2.28,2.61Z"></path><path class="cls-16" d="M948.18,268.98h.78v1.1c.38-.85,1.11-1.19,1.88-1.19.91,0,1.57.4,1.89,1.25.4-.83,1.09-1.25,2-1.25,1.55,0,2.13,1.16,2.13,2.69v3.82h-.78v-3.64c0-1.33-.39-2.18-1.52-2.18-1.02,0-1.65.77-1.65,2.26v3.57h-.78v-3.76c0-1.4-.52-2.07-1.5-2.07-1.03,0-1.67.79-1.67,2.26v3.57h-.78v-6.41Z"></path></g><g><path class="cls-16" d="M416.65,539.53h2.72c1.68,0,2.68.84,2.68,2.25,0,.94-.46,1.68-1.24,2,1.1.25,1.7,1.07,1.7,2.31,0,1.61-1.02,2.5-2.88,2.5h-2.97v-9.06ZM419.62,543.53c.98,0,1.63-.64,1.63-1.64s-.69-1.61-1.88-1.61h-1.91v3.26h2.16ZM419.57,547.84c1.42,0,2.14-.6,2.14-1.79,0-1.13-.66-1.79-1.79-1.79h-2.46v3.58h2.11Z"></path><path class="cls-16" d="M423.95,545.43c0-1.84.99-3.34,2.81-3.34,1.96,0,2.76,1.53,2.76,2.94,0,.1-.01.4-.04.55h-4.76c.03,1.51.84,2.39,2.14,2.39.82,0,1.35-.23,1.91-.83l.55.49c-.73.75-1.43,1.05-2.46,1.05-1.89,0-2.91-1.41-2.91-3.25ZM428.77,545c0-.08,0-.16,0-.24,0-.92-.58-2.01-2-2.01-1.23,0-1.98.98-2.07,2.26h4.06Z"></path><path class="cls-16" d="M430.92,545.38c0-1.96,1.29-3.29,2.92-3.29,1.05,0,1.87.54,2.29,1.36v-3.92h.77v9.06h-.77v-1.26c-.44.84-1.25,1.35-2.29,1.35-1.72,0-2.92-1.42-2.92-3.3ZM433.96,547.96c1.3,0,2.23-1.08,2.23-2.58s-.93-2.58-2.23-2.58-2.26,1.09-2.26,2.58.95,2.58,2.26,2.58Z"></path><path class="cls-16" d="M438.94,542.18h.78v1.09c.43-.78,1.31-1.18,2.02-1.18.33,0,.66.07.99.24l-.39.7c-.21-.1-.51-.17-.77-.17-.68,0-1.46.36-1.74,1.3-.08.27-.12.57-.12,1.27v3.15h-.78v-6.41Z"></path><path class="cls-16" d="M443.32,545.38c0-1.92,1.25-3.29,3.05-3.29s3.04,1.37,3.04,3.29-1.27,3.3-3.04,3.3-3.05-1.37-3.05-3.3ZM446.37,547.99c1.37,0,2.26-1.04,2.26-2.61s-.9-2.61-2.26-2.61-2.28,1.05-2.28,2.61.9,2.61,2.28,2.61Z"></path><path class="cls-16" d="M450.85,545.38c0-1.92,1.25-3.29,3.05-3.29s3.04,1.37,3.04,3.29-1.27,3.3-3.04,3.3-3.05-1.37-3.05-3.3ZM453.9,547.99c1.37,0,2.26-1.04,2.26-2.61s-.9-2.61-2.26-2.61-2.28,1.05-2.28,2.61.9,2.61,2.28,2.61Z"></path><path class="cls-16" d="M458.69,542.18h.78v1.1c.38-.84,1.11-1.19,1.88-1.19.91,0,1.57.4,1.89,1.25.4-.83,1.09-1.25,2-1.25,1.55,0,2.13,1.16,2.13,2.68v3.82h-.78v-3.64c0-1.33-.39-2.18-1.52-2.18-1.02,0-1.65.77-1.65,2.26v3.57h-.78v-3.76c0-1.4-.52-2.07-1.5-2.07-1.03,0-1.67.79-1.67,2.26v3.57h-.78v-6.41Z"></path></g><g><path class="cls-16" d="M236.35,539.53h2.43c2.94,0,4.62,1.68,4.62,4.6s-1.64,4.46-4.63,4.46h-2.42v-9.06ZM238.7,547.84c2.5,0,3.89-1.16,3.89-3.74s-1.4-3.83-3.82-3.83h-1.61v7.57h1.54Z"></path><path class="cls-16" d="M244.85,545.43c0-1.84.99-3.34,2.81-3.34,1.96,0,2.76,1.53,2.76,2.94,0,.1-.01.4-.04.55h-4.76c.03,1.51.84,2.39,2.15,2.39.82,0,1.35-.23,1.91-.83l.55.49c-.73.75-1.43,1.05-2.46,1.05-1.89,0-2.91-1.41-2.91-3.25ZM249.67,545c0-.08,0-.16,0-.24,0-.92-.58-2.01-2-2.01-1.23,0-1.98.98-2.07,2.26h4.06Z"></path><path class="cls-16" d="M251.83,545.38c0-1.83,1.06-3.29,2.86-3.29,1.17,0,2.09.58,2.51,1.74l-.7.27c-.27-.82-.9-1.33-1.81-1.33-1.42,0-2.09,1.25-2.09,2.61s.68,2.62,2.09,2.62c.91,0,1.53-.51,1.81-1.33l.7.27c-.42,1.16-1.34,1.75-2.51,1.75-1.8,0-2.86-1.46-2.86-3.3Z"></path><path class="cls-16" d="M260.9,545.06l-1.3,1.37v2.16h-.78v-9.06h.78v5.9l3.15-3.24h1.01l-2.28,2.35,2.67,4.06h-.92l-2.31-3.53Z"></path></g><g><path class="cls-16" d="M999.71,448.1h2.43c2.94,0,4.62,1.68,4.62,4.6s-1.64,4.46-4.63,4.46h-2.42v-9.06ZM1002.05,456.41c2.5,0,3.89-1.16,3.89-3.74s-1.4-3.83-3.82-3.83h-1.61v7.57h1.54Z"></path><path class="cls-16" d="M1008.21,454c0-1.84.99-3.34,2.81-3.34,1.96,0,2.76,1.53,2.76,2.94,0,.1-.01.4-.04.55h-4.76c.03,1.51.84,2.39,2.14,2.39.82,0,1.35-.23,1.91-.83l.55.49c-.73.75-1.43,1.05-2.46,1.05-1.89,0-2.91-1.41-2.91-3.25ZM1013.02,453.57c0-.08,0-.16,0-.24,0-.92-.58-2.01-2-2.01-1.23,0-1.98.98-2.07,2.26h4.06Z"></path><path class="cls-16" d="M1015.19,453.95c0-1.83,1.06-3.29,2.86-3.29,1.17,0,2.09.58,2.51,1.74l-.7.27c-.27-.82-.9-1.33-1.81-1.33-1.42,0-2.09,1.25-2.09,2.61s.68,2.62,2.09,2.62c.91,0,1.53-.51,1.81-1.33l.7.27c-.42,1.16-1.34,1.75-2.51,1.75-1.8,0-2.86-1.46-2.86-3.3Z"></path><path class="cls-16" d="M1024.26,453.63l-1.3,1.37v2.16h-.78v-9.06h.78v5.9l3.15-3.24h1.01l-2.28,2.35,2.67,4.06h-.92l-2.31-3.53Z"></path></g><g><path class="cls-16" d="M712.67,546.77h.81v4.86l4.65-4.86h1.09l-3.45,3.54,3.48,5.52h-.95l-3.11-4.93-1.71,1.75v3.17h-.81v-9.06Z"></path><path class="cls-16" d="M720.4,546.77h.94v1.39h-.94v-1.39ZM720.49,549.42h.77v6.41h-.77v-6.41Z"></path><path class="cls-16" d="M724.06,554.35v-4.31h-1.42v-.62h1.42v-1.85l.79-.46v2.31h1.54v.62h-1.54v4.12c0,.71.22,1.11.81,1.11.19,0,.46-.04.73-.12v.62c-.32.1-.64.16-.92.16-.85,0-1.4-.49-1.4-1.57Z"></path><path class="cls-16" d="M727.41,552.62c0-1.83,1.06-3.29,2.86-3.29,1.17,0,2.09.58,2.51,1.74l-.7.27c-.27-.82-.9-1.33-1.81-1.33-1.42,0-2.09,1.25-2.09,2.61s.68,2.62,2.09,2.62c.91,0,1.53-.51,1.81-1.33l.7.27c-.42,1.16-1.34,1.75-2.51,1.75-1.8,0-2.86-1.46-2.86-3.3Z"></path><path class="cls-16" d="M734.41,546.77h.78v3.69c.4-.75,1.1-1.13,2.01-1.13,1.4,0,2.2.85,2.2,2.51v3.99h-.78v-3.71c0-1.43-.53-2.11-1.61-2.11-1.18,0-1.83.83-1.83,2.55v3.27h-.78v-9.06Z"></path><path class="cls-16" d="M741.04,552.67c0-1.84.99-3.34,2.81-3.34,1.96,0,2.76,1.53,2.76,2.94,0,.1-.01.4-.04.55h-4.76c.03,1.51.84,2.39,2.14,2.39.82,0,1.35-.23,1.91-.83l.55.49c-.73.75-1.43,1.05-2.46,1.05-1.89,0-2.91-1.41-2.91-3.25ZM745.86,552.24c0-.08,0-.16,0-.24,0-.92-.58-2.01-2-2.01-1.23,0-1.98.98-2.07,2.26h4.06Z"></path><path class="cls-16" d="M748.35,549.42h.78v1.05c.4-.76,1.12-1.14,2.01-1.14,1.38,0,2.2.81,2.2,2.51v3.99h-.78v-3.71c0-1.45-.55-2.11-1.61-2.11-1.16,0-1.83.79-1.83,2.55v3.27h-.78v-6.41Z"></path></g><g><path class="cls-16" d="M712.13,155.07h5.86v.73h-5.06v3.37h4.39v.73h-4.39v4.24h-.81v-9.06Z"></path><path class="cls-16" d="M718.72,160.92c0-1.92,1.25-3.29,3.05-3.29s3.04,1.36,3.04,3.29-1.27,3.3-3.04,3.3-3.05-1.36-3.05-3.3ZM721.77,163.53c1.37,0,2.26-1.04,2.26-2.61s-.9-2.61-2.26-2.61-2.28,1.05-2.28,2.61.9,2.61,2.28,2.61Z"></path><path class="cls-16" d="M728.29,163.93l-2.55-6.21h.86l2.1,5.42,2.11-5.42h.85l-3.69,9.05h-.84l1.17-2.84Z"></path><path class="cls-16" d="M732.62,160.97c0-1.84.99-3.34,2.81-3.34,1.96,0,2.76,1.53,2.76,2.94,0,.1-.01.4-.04.55h-4.76c.03,1.51.84,2.39,2.14,2.39.82,0,1.35-.23,1.91-.83l.55.49c-.73.75-1.43,1.05-2.46,1.05-1.89,0-2.91-1.41-2.91-3.25ZM737.43,160.54c0-.08,0-.16,0-.24,0-.92-.58-2.02-2-2.02-1.23,0-1.98.98-2.07,2.26h4.06Z"></path><path class="cls-16" d="M739.91,157.72h.78v1.09c.43-.78,1.31-1.18,2.02-1.18.33,0,.66.07.99.24l-.39.7c-.21-.1-.51-.17-.77-.17-.68,0-1.46.36-1.74,1.3-.08.27-.12.57-.12,1.27v3.15h-.78v-6.41Z"></path></g><g><path class="cls-19" d="M817.94,49.06h3.61v.45h-3.11v2.07h2.7v.45h-2.7v2.61h-.5v-5.57Z"></path><path class="cls-19" d="M822.29,49.06h.58v.86h-.58v-.86ZM822.34,50.69h.47v3.94h-.47v-3.94Z"></path><path class="cls-19" d="M824.14,50.69h.48v.67c.26-.48.8-.73,1.24-.73.2,0,.4.04.61.15l-.24.43c-.13-.06-.31-.1-.47-.1-.42,0-.9.22-1.07.8-.05.17-.07.35-.07.78v1.94h-.48v-3.94Z"></path><path class="cls-19" d="M826.93,52.69c0-1.13.61-2.05,1.73-2.05,1.21,0,1.7.94,1.7,1.81,0,.06,0,.24-.02.34h-2.93c.02.93.52,1.47,1.32,1.47.5,0,.83-.14,1.17-.51l.34.3c-.45.46-.88.65-1.51.65-1.16,0-1.79-.87-1.79-2ZM829.89,52.43s0-.1,0-.15c0-.57-.36-1.24-1.23-1.24-.75,0-1.22.6-1.27,1.39h2.49Z"></path><path class="cls-19" d="M835.18,52.67c0,1.21-.79,2.02-1.79,2.02-.64,0-1.15-.33-1.41-.84v2.41h-.47v-5.57h.47v.78c.27-.52.77-.83,1.41-.83,1.06,0,1.79.88,1.79,2.03ZM833.31,54.25c.81,0,1.39-.67,1.39-1.59s-.58-1.59-1.39-1.59-1.37.66-1.37,1.59.57,1.59,1.37,1.59Z"></path><path class="cls-19" d="M836.31,53.82v-4.75h.48v4.67c0,.37.14.52.39.52.1,0,.24-.02.38-.07v.41c-.18.07-.37.1-.52.1-.44,0-.72-.27-.72-.88Z"></path><path class="cls-19" d="M841.13,53.9c-.26.5-.77.8-1.38.8-.88,0-1.42-.48-1.42-1.2,0-.42.18-.71.44-.89.28-.19.67-.26,1.09-.26h1.26v-.17c0-.73-.38-1.13-1.12-1.13-.48,0-.86.18-1.22.63l-.34-.3c.42-.52.94-.75,1.59-.75,1,0,1.56.55,1.56,1.54v2.45h-.44l-.02-.74ZM839.79,54.29c.72,0,1.33-.57,1.33-1.35v-.22h-1.2c-.32,0-.63.05-.84.2-.17.13-.27.31-.27.58,0,.49.37.8.98.8Z"></path><path class="cls-19" d="M842.67,52.66c0-1.13.65-2.02,1.76-2.02.72,0,1.28.36,1.54,1.07l-.43.17c-.17-.5-.55-.82-1.11-.82-.87,0-1.29.77-1.29,1.61s.42,1.61,1.29,1.61c.56,0,.94-.31,1.11-.82l.43.16c-.26.71-.82,1.08-1.54,1.08-1.11,0-1.76-.9-1.76-2.03Z"></path><path class="cls-19" d="M846.81,52.69c0-1.13.61-2.05,1.73-2.05,1.21,0,1.7.94,1.7,1.81,0,.06,0,.24-.02.34h-2.93c.02.93.52,1.47,1.32,1.47.5,0,.83-.14,1.17-.51l.34.3c-.45.46-.88.65-1.51.65-1.16,0-1.79-.87-1.79-2ZM849.78,52.43s0-.1,0-.15c0-.57-.36-1.24-1.23-1.24-.75,0-1.22.6-1.27,1.39h2.49Z"></path></g><polyline class="cls-6" points="854.37 51.72 862.51 51.72 868.5 40.93"></polyline><path class="cls-17" d="M870.46,37.4l-4.56,3.96s2.6-.43,3.61,2l.94-5.96Z"></path><g><path class="cls-19" d="M537.34,701.67h.5v5.13h2.57v.45h-3.07v-5.57Z"></path><path class="cls-19" d="M540.94,705.3c0-1.13.61-2.05,1.73-2.05,1.21,0,1.7.94,1.7,1.81,0,.06,0,.24-.02.34h-2.93c.02.93.52,1.47,1.32,1.47.5,0,.83-.14,1.17-.51l.34.3c-.45.46-.88.65-1.51.65-1.16,0-1.79-.87-1.79-2ZM543.9,705.04s0-.1,0-.15c0-.57-.36-1.24-1.23-1.24-.75,0-1.22.6-1.27,1.39h2.49Z"></path><path class="cls-19" d="M545.3,705.27c0-1.21.79-2.02,1.8-2.02.64,0,1.15.33,1.41.84v-2.41h.47v5.57h-.47v-.78c-.27.52-.77.83-1.41.83-1.06,0-1.8-.88-1.8-2.03ZM547.17,706.86c.8,0,1.37-.66,1.37-1.59s-.57-1.59-1.37-1.59-1.39.67-1.39,1.59.58,1.59,1.39,1.59Z"></path><path class="cls-19" d="M550.05,707.71s0-.06.02-.16l.68-.54c-.35-.14-.59-.36-.59-.78,0-.32.16-.55.44-.74-.22-.23-.34-.54-.34-.89,0-.8.64-1.36,1.47-1.36.4,0,.75.13,1.01.36l.63-.53.24.3-.62.54c.12.2.18.44.18.7,0,.79-.59,1.31-1.44,1.31-.32,0-.61-.08-.84-.21-.19.11-.28.26-.28.44,0,.41.39.51,1,.6.98.15,1.84.27,1.84,1.08,0,.72-.64,1.1-1.66,1.1-1.12,0-1.75-.43-1.75-1.23ZM551.81,708.57c.67,0,1.18-.21,1.18-.66,0-.53-.71-.59-1.42-.7-.19-.03-.37-.06-.55-.1l-.49.56c0,.06,0,.07,0,.09,0,.55.49.82,1.29.82ZM551.73,705.54c.6,0,.98-.4.98-.94s-.39-.96-.97-.96-1,.4-1,.95.39.95.99.95Z"></path><path class="cls-19" d="M554.2,705.3c0-1.13.61-2.05,1.73-2.05,1.21,0,1.7.94,1.7,1.81,0,.06,0,.24-.02.34h-2.93c.02.93.52,1.47,1.32,1.47.5,0,.83-.14,1.17-.51l.34.3c-.45.46-.88.65-1.51.65-1.16,0-1.79-.87-1.79-2ZM557.16,705.04s0-.1,0-.15c0-.57-.36-1.24-1.23-1.24-.75,0-1.22.6-1.27,1.39h2.49Z"></path><path class="cls-19" d="M563.54,706.5c-.26.5-.77.79-1.38.79-.88,0-1.42-.48-1.42-1.2,0-.42.18-.71.44-.89.28-.19.67-.26,1.09-.26h1.26v-.17c0-.73-.38-1.13-1.12-1.13-.48,0-.86.18-1.22.63l-.34-.3c.42-.52.94-.75,1.59-.75,1,0,1.56.55,1.56,1.54v2.46h-.44l-.02-.74ZM562.2,706.9c.72,0,1.33-.57,1.33-1.35v-.22h-1.2c-.32,0-.63.05-.84.2-.17.13-.27.31-.27.58,0,.49.37.8.98.8Z"></path><path class="cls-19" d="M565.7,706.33v-2.65h-.88v-.38h.88v-1.14l.48-.28v1.42h.95v.38h-.95v2.54c0,.44.14.68.5.68.12,0,.28-.02.45-.08v.38c-.2.06-.4.1-.57.1-.52,0-.86-.3-.86-.97Z"></path><path class="cls-19" d="M573.05,703.28c0-.73-.43-1.2-1.19-1.2-.83,0-1.26.58-1.27,1.45l-.47-.03c0-1.07.62-1.88,1.76-1.88.99,0,1.64.65,1.64,1.65,0,1.49-1.5,2.65-2.81,3.53h3.04v.45h-3.64v-.44c1.02-.82,2.94-2.02,2.94-3.53Z"></path><path class="cls-19" d="M576.66,702.96h-1.47v-.39h1.03c.29,0,.44-.1.44-.41v-.49h.48v5.57h-.48v-4.28Z"></path><path class="cls-19" d="M579.29,704.44c0-1.33.3-2.84,1.72-2.84s1.75,1.39,1.75,2.85-.4,2.84-1.72,2.84c-1.44,0-1.75-1.51-1.75-2.85ZM581.05,706.84c.88,0,1.23-1,1.23-2.36s-.36-2.41-1.26-2.41c-.96,0-1.23,1.1-1.23,2.39s.28,2.37,1.26,2.37Z"></path><path class="cls-19" d="M586.72,703.28c0-.73-.43-1.2-1.19-1.2-.83,0-1.26.58-1.27,1.45l-.47-.03c0-1.07.62-1.88,1.76-1.88.99,0,1.64.65,1.64,1.65,0,1.49-1.5,2.65-2.81,3.53h3.04v.45h-3.64v-.44c1.02-.82,2.94-2.02,2.94-3.53Z"></path><path class="cls-19" d="M590.49,705.27c0-1.18.77-2.02,1.88-2.02s1.87.84,1.87,2.02-.78,2.03-1.87,2.03-1.88-.84-1.88-2.03ZM592.37,706.87c.84,0,1.39-.64,1.39-1.6s-.55-1.6-1.39-1.6-1.4.64-1.4,1.6.56,1.6,1.4,1.6Z"></path><path class="cls-19" d="M595.4,703.3h.48v.64c.25-.47.69-.7,1.24-.7.85,0,1.36.5,1.36,1.54v2.46h-.48v-2.28c0-.89-.34-1.3-.99-1.3-.71,0-1.13.48-1.13,1.57v2.01h-.48v-3.94Z"></path><path class="cls-19" d="M599.67,706.42v-4.75h.48v4.67c0,.37.14.52.39.52.1,0,.24-.02.38-.07v.41c-.18.07-.37.1-.52.1-.44,0-.72-.27-.72-.88Z"></path><path class="cls-19" d="M602.73,707.12l-1.57-3.82h.53l1.29,3.33,1.3-3.33h.52l-2.27,5.56h-.52l.72-1.75Z"></path></g><polyline class="cls-6" points="531.66 704.8 513.51 704.8 509.67 691.36"></polyline><path class="cls-17" d="M508.57,687.48l3.54,4.89s-2.43-1.01-3.97,1.13l.43-6.02Z"></path><g><path class="cls-19" d="M48.17,482.8h1.55c1.17,0,1.83.55,1.83,1.56s-.66,1.56-1.83,1.56h-1.06v2.46h-.49v-5.57ZM49.68,485.48c.87,0,1.38-.38,1.38-1.12s-.5-1.11-1.38-1.11h-1.01v2.23h1.01Z"></path><path class="cls-19" d="M52.56,484.44h.48v.67c.26-.48.8-.73,1.24-.73.2,0,.4.04.61.15l-.24.43c-.13-.06-.31-.1-.47-.1-.42,0-.9.22-1.07.8-.05.17-.07.35-.07.78v1.94h-.48v-3.94Z"></path><path class="cls-19" d="M55.74,482.8h.58v.86h-.58v-.86ZM55.79,484.44h.47v3.94h-.47v-3.94Z"></path><path class="cls-19" d="M57.21,484.44h.53l1.29,3.33,1.3-3.33h.52l-1.61,3.94h-.42l-1.62-3.94Z"></path><path class="cls-19" d="M64.37,487.64c-.26.5-.77.79-1.38.79-.88,0-1.42-.48-1.42-1.2,0-.42.18-.71.44-.89.28-.19.67-.26,1.09-.26h1.26v-.17c0-.73-.38-1.13-1.12-1.13-.48,0-.86.18-1.22.63l-.34-.3c.42-.52.94-.75,1.59-.75,1,0,1.56.55,1.56,1.54v2.46h-.44l-.02-.74ZM63.03,488.04c.72,0,1.33-.57,1.33-1.35v-.22h-1.2c-.32,0-.63.05-.84.2-.17.13-.27.31-.27.58,0,.49.37.8.98.8Z"></path><path class="cls-19" d="M65.9,486.4c0-1.13.65-2.02,1.76-2.02.72,0,1.28.36,1.54,1.07l-.43.17c-.17-.5-.55-.82-1.11-.82-.87,0-1.29.77-1.29,1.61s.42,1.61,1.29,1.61c.56,0,.94-.31,1.11-.82l.43.16c-.26.71-.82,1.08-1.54,1.08-1.11,0-1.76-.9-1.76-2.03Z"></path><path class="cls-19" d="M71.4,488.25l-1.57-3.82h.53l1.29,3.33,1.3-3.33h.52l-2.27,5.56h-.52l.72-1.75Z"></path><path class="cls-19" d="M76.41,485.59c0-1.72,1-2.86,2.52-2.86,1.08,0,1.91.57,2.27,1.51l-.46.18c-.3-.77-.94-1.21-1.81-1.21-1.24,0-2.03.93-2.03,2.39s.79,2.39,2.03,2.39c.83,0,1.82-.4,1.82-1.89v-.13h-1.43v-.45h1.87v2.86h-.44l-.05-.96c-.33.74-1.06,1.03-1.8,1.03-1.49,0-2.49-1.14-2.49-2.87Z"></path><path class="cls-19" d="M82.39,487.56v-4.75h.48v4.67c0,.37.14.52.39.52.1,0,.24-.02.38-.07v.41c-.18.07-.37.1-.52.1-.44,0-.72-.27-.72-.88Z"></path><path class="cls-19" d="M87.2,487.64c-.26.5-.77.79-1.38.79-.88,0-1.42-.48-1.42-1.2,0-.42.18-.71.44-.89.28-.19.67-.26,1.09-.26h1.26v-.17c0-.73-.38-1.13-1.12-1.13-.48,0-.86.18-1.22.63l-.34-.3c.42-.52.94-.75,1.59-.75,1,0,1.56.55,1.56,1.54v2.46h-.44l-.02-.74ZM85.86,488.04c.72,0,1.33-.57,1.33-1.35v-.22h-1.2c-.32,0-.63.05-.84.2-.17.13-.27.31-.27.58,0,.49.37.8.98.8Z"></path><path class="cls-19" d="M88.54,487.53l.34-.28c.2.46.66.77,1.26.77.57,0,.95-.27.95-.72,0-.55-.53-.68-1.1-.82-.66-.16-1.23-.38-1.23-1.06,0-.62.53-1.05,1.3-1.05.6,0,1.1.26,1.37.76l-.37.21c-.21-.38-.57-.58-1.02-.58-.48,0-.84.24-.84.62,0,.4.36.54.93.68.67.16,1.44.34,1.44,1.2,0,.71-.56,1.17-1.42,1.17-.79,0-1.35-.4-1.6-.9Z"></path><path class="cls-19" d="M92.35,487.53l.34-.28c.2.46.66.77,1.26.77.57,0,.95-.27.95-.72,0-.55-.53-.68-1.1-.82-.66-.16-1.23-.38-1.23-1.06,0-.62.53-1.05,1.3-1.05.6,0,1.1.26,1.37.76l-.37.21c-.21-.38-.57-.58-1.02-.58-.48,0-.84.24-.84.62,0,.4.36.54.93.68.67.16,1.44.34,1.44,1.2,0,.71-.56,1.17-1.42,1.17-.79,0-1.35-.4-1.6-.9Z"></path></g><polyline class="cls-6" points="43.01 485.72 34.86 485.72 32.73 475.35"></polyline><path class="cls-17" d="M31.92,471.4l3.16,5.14s-2.35-1.19-4.04.83l.88-5.97Z"></path><g><path class="cls-19" d="M1167.71,524.71h3.61v.45h-3.11v2.07h2.7v.45h-2.7v2.61h-.5v-5.57Z"></path><path class="cls-19" d="M1172.05,524.71h.58v.86h-.58v-.86ZM1172.1,526.34h.47v3.94h-.47v-3.94Z"></path><path class="cls-19" d="M1173.91,526.34h.48v.64c.25-.47.69-.7,1.24-.7.85,0,1.36.5,1.36,1.54v2.46h-.48v-2.28c0-.89-.34-1.3-.99-1.3-.71,0-1.13.48-1.13,1.57v2.01h-.48v-3.94Z"></path><path class="cls-19" d="M1180.47,524.71h3.64v.45h-3.15v2.07h2.82v.45h-2.82v2.16h3.15v.45h-3.64v-5.57Z"></path><path class="cls-19" d="M1186.28,528.3l-1.46-1.96h.59l1.18,1.63,1.2-1.63h.58l-1.46,1.96,1.47,1.98h-.59l-1.19-1.64-1.19,1.64h-.58l1.46-1.98Z"></path><path class="cls-19" d="M1189.8,529.37v-2.65h-.88v-.38h.88v-1.14l.48-.28v1.42h.95v.38h-.95v2.54c0,.44.14.68.5.68.12,0,.28-.02.45-.08v.38c-.2.06-.4.1-.57.1-.52,0-.86-.3-.86-.97Z"></path><path class="cls-19" d="M1191.95,528.34c0-1.13.61-2.05,1.73-2.05,1.21,0,1.7.94,1.7,1.81,0,.06,0,.24-.02.34h-2.93c.02.93.52,1.47,1.32,1.47.5,0,.83-.14,1.17-.51l.34.3c-.45.46-.88.65-1.51.65-1.16,0-1.79-.87-1.79-2ZM1194.91,528.07s0-.1,0-.15c0-.57-.36-1.24-1.23-1.24-.75,0-1.22.6-1.27,1.39h2.49Z"></path><path class="cls-19" d="M1196.52,526.34h.48v.64c.25-.47.69-.7,1.24-.7.85,0,1.36.5,1.36,1.54v2.46h-.48v-2.28c0-.89-.34-1.3-.99-1.3-.71,0-1.13.48-1.13,1.57v2.01h-.48v-3.94Z"></path><path class="cls-19" d="M1200.47,529.44l.34-.28c.2.46.66.77,1.26.77.57,0,.95-.27.95-.72,0-.55-.53-.68-1.1-.82-.66-.16-1.23-.38-1.23-1.06,0-.62.53-1.05,1.29-1.05.6,0,1.1.26,1.37.76l-.37.21c-.21-.38-.57-.58-1.01-.58-.48,0-.84.24-.84.62,0,.4.36.54.93.68.67.16,1.43.34,1.43,1.2,0,.71-.56,1.17-1.42,1.17-.79,0-1.35-.4-1.6-.9Z"></path><path class="cls-19" d="M1204.58,524.71h.58v.86h-.58v-.86ZM1204.63,526.34h.47v3.94h-.47v-3.94Z"></path><path class="cls-19" d="M1206.25,528.31c0-1.18.77-2.02,1.88-2.02s1.87.84,1.87,2.02-.78,2.03-1.87,2.03-1.88-.84-1.88-2.03ZM1208.12,529.91c.84,0,1.39-.64,1.39-1.6s-.55-1.6-1.39-1.6-1.4.64-1.4,1.6.56,1.6,1.4,1.6Z"></path><path class="cls-19" d="M1211.15,526.34h.48v.64c.25-.47.69-.7,1.24-.7.85,0,1.36.5,1.36,1.54v2.46h-.48v-2.28c0-.89-.34-1.3-.99-1.3-.71,0-1.13.48-1.13,1.57v2.01h-.48v-3.94Z"></path><path class="cls-19" d="M1215.55,526.51h.58v.86h-.58v-.86ZM1215.55,529.43h.58v.85h-.58v-.85Z"></path></g><g><path class="cls-19" d="M1170.39,535.92c0-.73-.43-1.2-1.19-1.2-.83,0-1.26.58-1.27,1.45l-.47-.03c0-1.07.62-1.88,1.76-1.88.99,0,1.64.65,1.64,1.65,0,1.49-1.5,2.65-2.81,3.53h3.04v.45h-3.64v-.44c1.02-.82,2.94-2.02,2.94-3.53Z"></path><path class="cls-19" d="M1174,535.6h-1.47v-.39h1.03c.29,0,.44-.1.44-.41v-.49h.48v5.57h-.48v-4.28Z"></path><path class="cls-19" d="M1176.64,537.08c0-1.33.3-2.84,1.72-2.84s1.75,1.39,1.75,2.85-.4,2.84-1.72,2.84c-1.44,0-1.75-1.51-1.75-2.85ZM1178.39,539.47c.88,0,1.23-1,1.23-2.36s-.36-2.41-1.26-2.41c-.96,0-1.23,1.1-1.23,2.39s.28,2.37,1.26,2.37Z"></path><path class="cls-19" d="M1184.06,535.92c0-.73-.43-1.2-1.19-1.2-.83,0-1.26.58-1.27,1.45l-.47-.03c0-1.07.62-1.88,1.76-1.88.99,0,1.64.65,1.64,1.65,0,1.49-1.5,2.65-2.81,3.53h3.04v.45h-3.64v-.44c1.02-.82,2.94-2.02,2.94-3.53Z"></path></g><g><path class="cls-19" d="M1170.39,545.52c0-.73-.43-1.2-1.19-1.2-.83,0-1.26.58-1.27,1.45l-.47-.03c0-1.07.62-1.88,1.76-1.88.99,0,1.64.65,1.64,1.65,0,1.49-1.5,2.65-2.81,3.53h3.04v.45h-3.64v-.44c1.02-.82,2.94-2.02,2.94-3.53Z"></path><path class="cls-19" d="M1174.95,545.52c0-.73-.43-1.2-1.19-1.2-.83,0-1.26.58-1.27,1.45l-.47-.03c0-1.07.62-1.88,1.76-1.88.99,0,1.64.65,1.64,1.65,0,1.49-1.5,2.65-2.81,3.53h3.04v.45h-3.64v-.44c1.02-.82,2.94-2.02,2.94-3.53Z"></path><path class="cls-19" d="M1176.64,546.68c0-1.33.3-2.84,1.72-2.84s1.75,1.39,1.75,2.85-.4,2.84-1.72,2.84c-1.44,0-1.75-1.51-1.75-2.85ZM1178.39,549.07c.88,0,1.23-1,1.23-2.36s-.36-2.41-1.26-2.41c-.96,0-1.23,1.1-1.23,2.39s.28,2.37,1.26,2.37Z"></path><path class="cls-19" d="M1184.06,545.52c0-.73-.43-1.2-1.19-1.2-.83,0-1.26.58-1.27,1.45l-.47-.03c0-1.07.62-1.88,1.76-1.88.99,0,1.64.65,1.64,1.65,0,1.49-1.5,2.65-2.81,3.53h3.04v.45h-3.64v-.44c1.02-.82,2.94-2.02,2.94-3.53Z"></path></g><g><path class="cls-19" d="M1135.75,111.91h3.61v.45h-3.11v2.07h2.7v.45h-2.7v2.61h-.5v-5.57Z"></path><path class="cls-19" d="M1140.09,111.91h.58v.86h-.58v-.86ZM1140.14,113.54h.47v3.94h-.47v-3.94Z"></path><path class="cls-19" d="M1141.95,113.54h.48v.64c.25-.47.69-.7,1.24-.7.85,0,1.36.5,1.36,1.54v2.45h-.48v-2.28c0-.89-.34-1.3-.99-1.3-.71,0-1.13.48-1.13,1.57v2.01h-.48v-3.94Z"></path><path class="cls-19" d="M1148.52,111.91h3.64v.45h-3.15v2.07h2.82v.45h-2.82v2.16h3.15v.45h-3.64v-5.57Z"></path><path class="cls-19" d="M1154.32,115.5l-1.46-1.96h.59l1.18,1.63,1.2-1.63h.58l-1.46,1.96,1.47,1.98h-.59l-1.19-1.64-1.19,1.64h-.58l1.46-1.98Z"></path><path class="cls-19" d="M1157.84,116.57v-2.65h-.88v-.38h.88v-1.14l.48-.28v1.42h.95v.38h-.95v2.53c0,.44.14.68.5.68.12,0,.28-.02.45-.08v.38c-.2.06-.4.1-.57.1-.52,0-.86-.3-.86-.97Z"></path><path class="cls-19" d="M1159.99,115.54c0-1.13.61-2.06,1.73-2.06,1.21,0,1.7.94,1.7,1.81,0,.06,0,.24-.02.34h-2.93c.02.93.52,1.47,1.32,1.47.5,0,.83-.14,1.17-.51l.34.3c-.45.46-.88.65-1.51.65-1.16,0-1.79-.87-1.79-2ZM1162.95,115.27s0-.1,0-.15c0-.57-.36-1.24-1.23-1.24-.75,0-1.22.6-1.27,1.39h2.49Z"></path><path class="cls-19" d="M1164.56,113.54h.48v.64c.25-.47.69-.7,1.24-.7.85,0,1.36.5,1.36,1.54v2.45h-.48v-2.28c0-.89-.34-1.3-.99-1.3-.71,0-1.13.48-1.13,1.57v2.01h-.48v-3.94Z"></path><path class="cls-19" d="M1168.52,116.64l.34-.28c.2.46.66.77,1.26.77.57,0,.95-.27.95-.72,0-.55-.53-.68-1.1-.82-.66-.16-1.23-.38-1.23-1.06,0-.62.53-1.05,1.29-1.05.6,0,1.1.26,1.37.76l-.37.21c-.21-.38-.57-.58-1.01-.58-.48,0-.84.24-.84.62,0,.4.36.54.93.68.67.16,1.43.34,1.43,1.2,0,.71-.56,1.17-1.42,1.17-.79,0-1.35-.4-1.6-.9Z"></path><path class="cls-19" d="M1172.62,111.91h.58v.86h-.58v-.86ZM1172.67,113.54h.47v3.94h-.47v-3.94Z"></path><path class="cls-19" d="M1174.29,115.5c0-1.18.77-2.02,1.88-2.02s1.87.84,1.87,2.02-.78,2.03-1.87,2.03-1.88-.84-1.88-2.03ZM1176.17,117.11c.84,0,1.39-.64,1.39-1.6s-.55-1.6-1.39-1.6-1.4.64-1.4,1.6.56,1.6,1.4,1.6Z"></path><path class="cls-19" d="M1179.19,113.54h.48v.64c.25-.47.69-.7,1.24-.7.85,0,1.36.5,1.36,1.54v2.45h-.48v-2.28c0-.89-.34-1.3-.99-1.3-.71,0-1.13.48-1.13,1.57v2.01h-.48v-3.94Z"></path><path class="cls-19" d="M1183.59,113.71h.58v.86h-.58v-.86ZM1183.59,116.63h.58v.85h-.58v-.85Z"></path></g><g><path class="cls-19" d="M1138.43,123.12c0-.73-.43-1.2-1.19-1.2-.83,0-1.26.58-1.27,1.45l-.47-.03c0-1.07.62-1.88,1.76-1.88.99,0,1.64.65,1.64,1.65,0,1.49-1.5,2.65-2.81,3.53h3.04v.45h-3.64v-.44c1.02-.82,2.94-2.02,2.94-3.53Z"></path><path class="cls-19" d="M1142.04,122.8h-1.47v-.39h1.03c.29,0,.44-.1.44-.41v-.49h.48v5.57h-.48v-4.28Z"></path><path class="cls-19" d="M1144.68,124.28c0-1.33.3-2.84,1.72-2.84s1.75,1.39,1.75,2.85-.4,2.84-1.72,2.84c-1.44,0-1.75-1.51-1.75-2.85ZM1146.44,126.67c.88,0,1.23-1,1.23-2.36s-.36-2.41-1.26-2.41c-.96,0-1.23,1.1-1.23,2.39s.28,2.38,1.26,2.38Z"></path><path class="cls-19" d="M1152.1,123.12c0-.73-.43-1.2-1.19-1.2-.83,0-1.26.58-1.27,1.45l-.47-.03c0-1.07.62-1.88,1.76-1.88.99,0,1.64.65,1.64,1.65,0,1.49-1.5,2.65-2.81,3.53h3.04v.45h-3.64v-.44c1.02-.82,2.94-2.02,2.94-3.53Z"></path></g><g><path class="cls-19" d="M1138.43,132.72c0-.73-.43-1.2-1.19-1.2-.83,0-1.26.58-1.27,1.45l-.47-.03c0-1.07.62-1.88,1.76-1.88.99,0,1.64.65,1.64,1.65,0,1.49-1.5,2.65-2.81,3.53h3.04v.45h-3.64v-.44c1.02-.82,2.94-2.02,2.94-3.53Z"></path><path class="cls-19" d="M1142.99,132.72c0-.73-.43-1.2-1.19-1.2-.83,0-1.26.58-1.27,1.45l-.47-.03c0-1.07.62-1.88,1.76-1.88.99,0,1.64.65,1.64,1.65,0,1.49-1.5,2.65-2.81,3.53h3.04v.45h-3.64v-.44c1.02-.82,2.94-2.02,2.94-3.53Z"></path><path class="cls-19" d="M1144.68,133.88c0-1.33.3-2.84,1.72-2.84s1.75,1.39,1.75,2.85-.4,2.84-1.72,2.84c-1.44,0-1.75-1.51-1.75-2.85ZM1146.44,136.27c.88,0,1.23-1,1.23-2.36s-.36-2.41-1.26-2.41c-.96,0-1.23,1.1-1.23,2.4s.28,2.37,1.26,2.37Z"></path><path class="cls-19" d="M1152.1,132.72c0-.73-.43-1.2-1.19-1.2-.83,0-1.26.58-1.27,1.45l-.47-.03c0-1.07.62-1.88,1.76-1.88.99,0,1.64.65,1.64,1.65,0,1.49-1.5,2.65-2.81,3.53h3.04v.45h-3.64v-.44c1.02-.82,2.94-2.02,2.94-3.53Z"></path></g><polyline class="cls-6" points="1159.02 537.44 1130.88 537.44 1125.16 516.38"></polyline><path class="cls-17" d="M1124.1,512.48l3.48,4.93s-2.42-1.04-3.98,1.08l.51-6.02Z"></path><polyline class="cls-6" points="1127.06 124.64 1116.83 124.77 1107.42 118.03"></polyline><path class="cls-17" d="M1104.14,115.68l5.81,1.62s-2.53.73-2.4,3.36l-3.41-4.98Z"></path><polyline class="cls-6" points="1159.02 547.12 1124.16 547.12 1116.21 519.36"></polyline><path class="cls-17" d="M1115.1,515.48l3.55,4.89s-2.43-1.01-3.97,1.14l.42-6.02Z"></path><polyline class="cls-6" points="1127.06 134.32 1116.83 134.32 1106.93 123.99"></polyline><path class="cls-17" d="M1104.14,121.08l5.42,2.67s-2.62.25-2.98,2.86l-2.44-5.52Z"></path></g></g></svg> 