<?xml version="1.0" encoding="UTF-8"?> <svg xmlns="http://www.w3.org/2000/svg" id="Layer_2" data-name="Layer 2" viewBox="0 0 1223.26 603.4"><defs><style> .cls-1, .cls-2, .cls-3, .cls-4, .cls-5, .cls-6, .cls-7, .cls-8, .cls-9, .cls-10, .cls-11, .cls-12, .cls-13 { fill: none; } .cls-1, .cls-2, .cls-3, .cls-4, .cls-6, .cls-7, .cls-8, .cls-9, .cls-10, .cls-11, .cls-13 { stroke-linecap: round; stroke-linejoin: round; } .cls-1, .cls-3, .cls-4, .cls-11 { stroke: #3c5243; } .cls-1, .cls-4, .cls-11 { stroke-width: .15px; } .cls-2 { stroke-width: .75px; } .cls-2, .cls-6, .cls-7, .cls-12 { stroke: #173928; } .cls-3, .cls-5, .cls-7, .cls-8, .cls-10, .cls-12, .cls-13 { stroke-width: .25px; } .cls-4 { stroke-dasharray: 1.15 1.15; } .cls-14 { fill: #3c5243; } .cls-15 { fill: #173928; } .cls-5 { stroke: #a3a9a2; } .cls-5, .cls-12 { stroke-miterlimit: 10; } .cls-16 { fill: #a3a9a2; } .cls-6 { stroke-width: .35px; } .cls-17 { fill: #fff; } .cls-8, .cls-9, .cls-10, .cls-13 { stroke: #616f63; } .cls-9 { stroke-width: .2px; } .cls-10 { stroke-dasharray: 1.46 1.46; } .cls-11 { stroke-dasharray: .92 .92; } .cls-18 { fill: #75655e; } .cls-13 { stroke-dasharray: 5.2 4.16; } </style></defs><g id="Layer_1-2" data-name="Layer 1"><g><g><path class="cls-17" d="M1101.66,137.52C748.07,71.45,341.33,63.23,310.22,64.26l-.08,7.32c-27.98-.36-53.31-.39-68.28-.35h0s0-7.29,0-7.29h0c-1.04,0-69.41-1.61-241.48,5.45v265.75h22.67v104.31h595.98v102.66h72.07v45.19h79.63v15.72h363.85l38.31-335.53h11.36l37.33-100.92c-38.64-8.43-67.5-13.66-121.06-22.35l1.15-6.71Z"></path><path class="cls-9" d="M166.22,64.3V8.01c97.61-2.09,192.64.81,283.12,7.07,0,0,44.24,3.29,58.17,4.52,297.31,26.25,538.62,85.16,649.61,116.21l-1.91,6.47c43.83,12.23,67.95,20.18,67.95,20.18l-1.58,4.11"></path></g><line class="cls-1" x1="1109.59" y1="145.7" x2="1109.68" y2="145.21"></line><line class="cls-4" x1="1109.9" y1="144.07" x2="1110.65" y2="140.11"></line><polyline class="cls-1" points="1110.76 139.54 1110.85 139.05 1110.36 138.97"></polyline><line class="cls-11" x1="1109.45" y1="138.82" x2="1102.61" y2="137.68"></line><line class="cls-1" x1="1102.16" y1="137.61" x2="1101.66" y2="137.52"></line><line class="cls-3" x1="255.93" y1="215.27" x2="257.93" y2="217.27"></line><line class="cls-3" x1="258.2" y1="215.27" x2="260.2" y2="217.27"></line><line class="cls-3" x1="260.46" y1="215.27" x2="262.46" y2="217.27"></line><line class="cls-3" x1="262.72" y1="215.27" x2="264.72" y2="217.27"></line><line class="cls-3" x1="264.98" y1="215.27" x2="266.98" y2="217.27"></line><line class="cls-3" x1="267.25" y1="215.27" x2="269.25" y2="217.27"></line><line class="cls-3" x1="269.51" y1="215.27" x2="271.51" y2="217.27"></line><line class="cls-3" x1="271.77" y1="215.27" x2="273.77" y2="217.27"></line><line class="cls-3" x1="274.03" y1="215.27" x2="276.03" y2="217.27"></line><line class="cls-3" x1="276.29" y1="215.27" x2="278.3" y2="217.27"></line><line class="cls-3" x1="278.56" y1="215.27" x2="280.56" y2="217.27"></line><line class="cls-3" x1="280.82" y1="215.27" x2="282.82" y2="217.27"></line><line class="cls-3" x1="283.08" y1="215.27" x2="285.08" y2="217.27"></line><line class="cls-3" x1="285.34" y1="215.27" x2="287.35" y2="217.27"></line><line class="cls-3" x1="287.61" y1="215.27" x2="289.61" y2="217.27"></line><line class="cls-3" x1="289.87" y1="215.27" x2="291.87" y2="217.27"></line><line class="cls-3" x1="292.13" y1="215.27" x2="294.13" y2="217.27"></line><line class="cls-3" x1="294.39" y1="215.27" x2="296.39" y2="217.27"></line><line class="cls-3" x1="296.66" y1="215.27" x2="298.66" y2="217.27"></line><line class="cls-3" x1="298.92" y1="215.27" x2="300.92" y2="217.27"></line><line class="cls-3" x1="301.18" y1="215.27" x2="303.18" y2="217.27"></line><line class="cls-3" x1="303.44" y1="215.27" x2="305.44" y2="217.27"></line><line class="cls-3" x1="305.71" y1="215.27" x2="307.71" y2="217.27"></line><line class="cls-3" x1="307.97" y1="215.27" x2="309.97" y2="217.27"></line><line class="cls-3" x1="310.23" y1="215.27" x2="312.23" y2="217.27"></line><line class="cls-3" x1="312.49" y1="215.27" x2="314.49" y2="217.27"></line><line class="cls-3" x1="314.76" y1="215.27" x2="316.76" y2="217.27"></line><line class="cls-3" x1="317.02" y1="215.27" x2="319.02" y2="217.27"></line><line class="cls-3" x1="319.28" y1="215.27" x2="321.28" y2="217.27"></line><line class="cls-3" x1="321.54" y1="215.27" x2="323.54" y2="217.27"></line><line class="cls-3" x1="323.8" y1="215.27" x2="325.81" y2="217.27"></line><line class="cls-3" x1="326.07" y1="215.27" x2="328.07" y2="217.27"></line><line class="cls-3" x1="328.33" y1="215.27" x2="330.33" y2="217.27"></line><line class="cls-3" x1="330.59" y1="215.27" x2="332.59" y2="217.27"></line><line class="cls-3" x1="332.85" y1="215.27" x2="334.86" y2="217.27"></line><line class="cls-3" x1="335.12" y1="215.27" x2="337.12" y2="217.27"></line><line class="cls-3" x1="337.38" y1="215.27" x2="339.38" y2="217.27"></line><line class="cls-3" x1="339.64" y1="215.27" x2="341.64" y2="217.27"></line><line class="cls-3" x1="341.9" y1="215.27" x2="343.9" y2="217.27"></line><line class="cls-3" x1="344.17" y1="215.27" x2="346.17" y2="217.27"></line><line class="cls-3" x1="346.43" y1="215.27" x2="348.43" y2="217.27"></line><line class="cls-3" x1="348.69" y1="215.27" x2="350.69" y2="217.27"></line><line class="cls-3" x1="350.95" y1="215.27" x2="352.95" y2="217.27"></line><line class="cls-3" x1="353.22" y1="215.27" x2="355.22" y2="217.27"></line><line class="cls-3" x1="355.48" y1="215.27" x2="357.48" y2="217.27"></line><line class="cls-3" x1="357.74" y1="215.27" x2="359.74" y2="217.27"></line><line class="cls-3" x1="360" y1="215.27" x2="362" y2="217.27"></line><line class="cls-3" x1="362.27" y1="215.27" x2="364.27" y2="217.27"></line><line class="cls-3" x1="364.53" y1="215.27" x2="366.53" y2="217.27"></line><line class="cls-3" x1="366.79" y1="215.27" x2="368.79" y2="217.27"></line><line class="cls-3" x1="369.05" y1="215.27" x2="371.05" y2="217.27"></line><line class="cls-3" x1="371.31" y1="215.27" x2="373.32" y2="217.27"></line><line class="cls-3" x1="373.58" y1="215.27" x2="375.58" y2="217.27"></line><line class="cls-3" x1="375.84" y1="215.27" x2="377.84" y2="217.27"></line><line class="cls-3" x1="378.1" y1="215.27" x2="380.1" y2="217.27"></line><line class="cls-3" x1="380.36" y1="215.27" x2="382.37" y2="217.27"></line><line class="cls-3" x1="382.63" y1="215.27" x2="384.63" y2="217.27"></line><line class="cls-3" x1="384.89" y1="215.27" x2="386.89" y2="217.27"></line><line class="cls-3" x1="387.15" y1="215.27" x2="389.15" y2="217.27"></line><line class="cls-3" x1="389.41" y1="215.27" x2="391.41" y2="217.27"></line><line class="cls-3" x1="391.68" y1="215.27" x2="393.68" y2="217.27"></line><line class="cls-3" x1="393.94" y1="215.27" x2="395.94" y2="217.27"></line><line class="cls-3" x1="396.2" y1="215.27" x2="398.2" y2="217.27"></line><line class="cls-3" x1="398.46" y1="215.27" x2="400.46" y2="217.27"></line><line class="cls-3" x1="400.73" y1="215.27" x2="402.73" y2="217.27"></line><line class="cls-3" x1="402.99" y1="215.27" x2="404.99" y2="217.27"></line><line class="cls-3" x1="405.25" y1="215.27" x2="407.25" y2="217.27"></line><line class="cls-3" x1="407.51" y1="215.27" x2="409.51" y2="217.27"></line><line class="cls-3" x1="409.78" y1="215.27" x2="411.78" y2="217.27"></line><line class="cls-3" x1="412.04" y1="215.27" x2="414.04" y2="217.27"></line><line class="cls-3" x1="414.3" y1="215.27" x2="416.3" y2="217.27"></line><line class="cls-3" x1="416.56" y1="215.27" x2="418.56" y2="217.27"></line><line class="cls-3" x1="418.82" y1="215.27" x2="420.83" y2="217.27"></line><line class="cls-3" x1="421.09" y1="215.27" x2="423.09" y2="217.27"></line><line class="cls-3" x1="423.35" y1="215.27" x2="425.35" y2="217.27"></line><line class="cls-3" x1="425.61" y1="215.27" x2="427.61" y2="217.27"></line><line class="cls-3" x1="427.87" y1="215.27" x2="429.88" y2="217.27"></line><line class="cls-3" x1="430.14" y1="215.27" x2="432.14" y2="217.27"></line><rect class="cls-2" x="255.93" y="215.27" width="176.21" height="2"></rect><path class="cls-7" d="M1007.37,294.73c2.21,2.55,4.47,5.07,6.79,7.53"></path><polygon class="cls-15" points="1012.2 302.37 1012.23 301.99 1014.07 302.15 1014.1 300.3 1014.47 300.31 1014.44 302.56 1012.2 302.37"></polygon><path class="cls-7" d="M975.11,246.7c1.44,2.83,2.94,5.62,4.48,8.38"></path><polygon class="cls-15" points="977.66 254.7 977.78 254.35 979.53 254.94 980 253.16 980.36 253.25 979.79 255.43 977.66 254.7"></polygon><path class="cls-7" d="M955.36,194.91c.87,3.27,1.81,6.58,2.85,9.95"></path><polygon class="cls-15" points="956.4 204.08 956.59 203.76 958.17 204.72 959.01 203.07 959.34 203.24 958.32 205.25 956.4 204.08"></polygon><path class="cls-7" d="M946.49,139.65c.17,2.95.4,6.12.71,9.47"></path><polygon class="cls-15" points="945.59 148 945.84 147.72 947.2 148.97 948.35 147.53 948.65 147.76 947.24 149.52 945.59 148"></polygon><polygon class="cls-6" points="1166.49 262.75 1180.77 262.75 1214.93 170.37 1099.46 149.18 1099.7 147.76 1216.88 169.27 1181.77 264.19 1166.32 264.19 1166.49 262.75"></polygon><rect class="cls-6" x="343.67" y="95.88" width="88.99" height="53.58"></rect><line class="cls-6" x1="327.37" y1="76.91" x2="327.37" y2="214.78"></line><polyline class="cls-6" points="327.54 179.07 349.66 179.07 371.47 179.07 371.47 215.27"></polyline><line class="cls-6" x1="349.42" y1="215.27" x2="349.42" y2="179.07"></line><line class="cls-6" x1="338.63" y1="214.78" x2="338.63" y2="179.07"></line><line class="cls-6" x1="360.69" y1="214.78" x2="360.69" y2="179.07"></line><g><path class="cls-1" d="M157.07,314.16c-19.45,0-33.08,15.77-33.08,35.22"></path><path class="cls-1" d="M262.38,211.53c0-19.45-15.77-33.08-35.22-33.08"></path><path class="cls-1" d="M461.39,337.9c-19.45,0-33.08,15.77-33.08,35.22"></path><path class="cls-1" d="M640.25,495.33c21.67,0,36.85,17.57,36.85,39.23"></path><path class="cls-1" d="M1013.6,454.1c19.45,0,33.08-15.77,33.08-35.22"></path><path class="cls-1" d="M1106.5,402.55c0-19.45-15.77-33.08-35.22-33.08"></path><path class="cls-1" d="M202.33,298.73c0-19.45-15.77-33.08-35.22-33.08"></path><path class="cls-1" d="M849.68,461.55c0,19.45,15.77,33.08,35.22,33.08"></path><path class="cls-1" d="M479.69,186.7c19.45,0,33.08,15.77,33.08,35.22"></path><path class="cls-1" d="M476.81,337.9c19.45,0,33.08,15.77,33.08,35.22"></path><path class="cls-1" d="M741.84,549.52c19.45,0,33.08-15.77,33.08-35.22"></path></g><line class="cls-1" x1="640.25" y1="534.56" x2="677.1" y2="534.56"></line><line class="cls-1" x1="637.87" y1="542.11" x2="677.11" y2="542.11"></line><rect class="cls-6" x="157.07" y="314.16" width="2.14" height="35.22"></rect><rect class="cls-6" x="227.17" y="211.53" width="35.22" height="2.14"></rect><rect class="cls-6" x="461.39" y="337.9" width="2.14" height="35.22"></rect><rect class="cls-6" x="637.87" y="495.33" width="2.38" height="39.23"></rect><rect class="cls-6" x="1011.47" y="418.88" width="2.14" height="35.22"></rect><rect class="cls-6" x="1071.29" y="402.55" width="35.22" height="2.13"></rect><polygon class="cls-6" points="783.96 462.38 783.96 504.49 782.06 504.49 782.06 476.88 782.06 462.38 783.96 462.38"></polygon><rect class="cls-6" x="482.5" y="272.25" width="59.69" height="1.9"></rect><rect class="cls-6" x="691.09" y="548.92" width="1.44" height="18.91"></rect><line class="cls-6" x1="783.96" y1="483.43" x2="782.06" y2="483.43"></line><rect class="cls-6" x="167.12" y="298.73" width="35.22" height="2.14"></rect><rect class="cls-6" x="849.68" y="459.41" width="35.22" height="2.14"></rect><rect class="cls-6" x="895.85" y="502.7" width="35.22" height="2.14"></rect><rect class="cls-6" x="477.55" y="186.7" width="2.14" height="35.22"></rect><rect class="cls-6" x="474.68" y="337.9" width="2.14" height="35.22"></rect><rect class="cls-6" x="110.06" y="300.12" width="2.14" height="35.22"></rect><rect class="cls-6" x="739.71" y="514.31" width="2.14" height="35.22"></rect><line class="cls-6" x1="512.35" y1="272.25" x2="512.35" y2="274.15"></line><rect class="cls-6" x="700.76" y="534.56" width="20.33" height="1.44"></rect><line class="cls-8" x1="863.63" y1="380.54" x2="863.63" y2="379.79"></line><line class="cls-10" x1="863.63" y1="378.33" x2="863.63" y2="358.57"></line><polyline class="cls-8" points="863.63 357.84 863.63 357.09 862.88 357.09"></polyline><line class="cls-10" x1="861.42" y1="357.09" x2="841.66" y2="357.09"></line><polyline class="cls-8" points="840.93 357.09 840.18 357.09 840.18 357.84"></polyline><line class="cls-10" x1="840.18" y1="359.3" x2="840.18" y2="379.06"></line><line class="cls-8" x1="840.18" y1="379.79" x2="840.18" y2="380.54"></line><line class="cls-8" x1="542.19" y1="307.85" x2="542.19" y2="310.35"></line><line class="cls-13" x1="542.19" y1="314.51" x2="542.19" y2="368.54"></line><line class="cls-8" x1="542.19" y1="370.62" x2="542.19" y2="373.12"></line><polyline class="cls-6" points="553.54 155.21 531.04 155.21 531.04 221.91 553.78 221.91"></polyline><rect class="cls-6" x="517.91" y="313.29" width="32.68" height="26.3"></rect><rect class="cls-6" x="517.91" y="341.38" width="32.68" height="26.3"></rect><line class="cls-6" x1="1000.68" y1="423.77" x2="787.79" y2="423.78"></line><line class="cls-6" x1="843.62" y1="423.78" x2="843.62" y2="447.34"></line><line class="cls-6" x1="812.57" y1="423.78" x2="812.57" y2="447.34"></line><line class="cls-6" x1="861.6" y1="423.77" x2="861.6" y2="447.4"></line><line class="cls-6" x1="951.23" y1="423.78" x2="951.23" y2="447.34"></line><line class="cls-6" x1="861.6" y1="425.92" x2="787.79" y2="425.93"></line><line class="cls-6" x1="1000.68" y1="425.92" x2="951.23" y2="425.92"></line><line class="cls-6" x1="975.96" y1="425.92" x2="975.96" y2="423.77"></line><line class="cls-6" x1="810.83" y1="558.01" x2="736.39" y2="558.01"></line><line class="cls-6" x1="187.37" y1="319.66" x2="187.37" y2="373.12"></line><line class="cls-6" x1="882.74" y1="555.26" x2="818.02" y2="555.26"></line><line class="cls-6" x1="882.74" y1="556.36" x2="818.02" y2="556.36"></line><line class="cls-6" x1="878.86" y1="556.36" x2="878.86" y2="555.26"></line><line class="cls-6" x1="846.57" y1="555.26" x2="846.57" y2="556.36"></line><line class="cls-6" x1="829.52" y1="556.36" x2="829.52" y2="591.01"></line><path class="cls-6" d="M937.82,380.54h-117.55c-11.79,0-21.35-9.56-21.35-21.35s9.56-21.35,21.35-21.35h117.55c11.79,0,21.35,9.56,21.35,21.35s-9.56,21.35-21.35,21.35Z"></path><rect class="cls-6" x="560.99" y="127.35" width="12.68" height="209.43"></rect><line class="cls-6" x1="573.67" y1="281.44" x2="560.99" y2="281.44"></line><line class="cls-6" x1="560.99" y1="182.69" x2="573.67" y2="182.69"></line><polyline class="cls-6" points="167.12 249.27 254.98 249.26 254.98 226.53"></polyline><path class="cls-6" d="M230.03,233.99h8.59c.35,0,.63.28.63.63v9.49c0,.35-.28.63-.63.63h-18.13c-.35,0-.63-.28-.63-.63v-9.49c0-.35.28-.63.63-.63h8.26"></path><rect class="cls-6" x="228.75" y="230.98" width="1.28" height="5.13"></rect><g><circle class="cls-6" cx="229.39" cy="239.36" r=".73"></circle><path class="cls-6" d="M192.43,233.99h8.59c.35,0,.63.28.63.63v9.49c0,.35-.28.63-.63.63h-18.13c-.35,0-.63-.28-.63-.63v-9.49c0-.35.28-.63.63-.63h8.26"></path></g><rect class="cls-6" x="191.15" y="230.98" width="1.28" height="5.13"></rect><g><circle class="cls-6" cx="191.79" cy="239.36" r=".73"></circle><path class="cls-6" d="M287.2,238.07h0c-8.47,0-15.34,6.87-15.34,15.34v33.14c0,8.47,6.87,15.34,15.34,15.34s15.34-6.87,15.34-15.34v-33.14c0-8.47-6.87-15.34-15.34-15.34Z"></path><path class="cls-6" d="M287.2,300.1c-7.47,0-13.54-6.08-13.54-13.54v-33.14c0-7.47,6.08-13.54,13.54-13.54s13.54,6.08,13.54,13.54v33.14c0,7.47-6.08,13.54-13.54,13.54Z"></path><circle class="cls-6" cx="287.21" cy="269.99" r="1.92"></circle></g><rect class="cls-6" x="201.64" y="314.68" width="32.72" height=".88"></rect><rect class="cls-6" x="239.75" y="314.68" width="32.18" height=".88"></rect><g><path class="cls-6" d="M298.54,347.48h5.29c.6,0,1.08.48,1.08,1.08v15.44c0,.6-.48,1.08-1.08,1.08h-5.29c-.6,0-1.08-.48-1.08-1.08v-15.44c0-.6.48-1.08,1.08-1.08Z"></path><path class="cls-6" d="M293.31,351.82c0-.28-.11-.54-.32-.73-2.09-1.88-5.3-3.09-8.9-3.09-6.31,0-11.42,3.71-11.42,8.28s5.11,8.28,11.42,8.28c3.6,0,6.8-1.2,8.9-3.08.21-.19.32-.46.32-.73v-8.92Z"></path></g><line class="cls-6" x1="284.09" y1="348" x2="297.61" y2="348"></line><line class="cls-6" x1="284.09" y1="364.55" x2="297.61" y2="364.55"></line><line class="cls-6" x1="541.95" y1="118.9" x2="476.47" y2="118.9"></line><line class="cls-6" x1="480.73" y1="105.38" x2="480.73" y2="102.64"></line><g><path class="cls-6" d="M480.73,101.9v-9.89c0-1.18.95-2.13,2.13-2.13h52.71c1.18,0,2.13.95,2.13,2.13v20.49c0,1.18-.95,2.13-2.13,2.13h-52.71c-1.18,0-2.13-.95-2.13-2.13v-7.14"></path><path class="cls-6" d="M477.3,102.64h9.26c.2,0,.37-.16.37-.37s-.16-.37-.37-.37h-9.22"></path><path class="cls-6" d="M485.63,101.9c.15-.39.52-.67.97-.67.57,0,1.03.46,1.03,1.03s-.46,1.03-1.03,1.03c-.44,0-.81-.27-.96-.66"></path><path class="cls-6" d="M482.2,101.9c.18-2.27,2.08-4.06,4.4-4.06,2.44,0,4.42,1.98,4.42,4.42s-1.98,4.42-4.42,4.42c-2.31,0-4.21-1.78-4.4-4.04"></path></g><rect class="cls-6" x="476.47" y="100.1" width=".82" height="4.33"></rect><g><path class="cls-6" d="M547.41,128.25h5.29c.6,0,1.08.48,1.08,1.08v15.44c0,.6-.48,1.08-1.08,1.08h-5.29c-.6,0-1.08-.48-1.08-1.08v-15.44c0-.6.48-1.08,1.08-1.08Z"></path><path class="cls-6" d="M542.18,132.6c0-.28-.11-.54-.32-.73-2.09-1.88-5.3-3.09-8.9-3.09-6.31,0-11.42,3.71-11.42,8.28s5.11,8.28,11.42,8.28c3.59,0,6.8-1.2,8.9-3.08.21-.19.32-.46.32-.73v-8.92Z"></path></g><line class="cls-6" x1="532.96" y1="128.78" x2="546.48" y2="128.78"></line><line class="cls-6" x1="532.96" y1="145.33" x2="546.48" y2="145.33"></line><polyline class="cls-6" points="818.02 519.69 839.76 519.69 839.76 454.45 818.02 454.45"></polyline><path class="cls-6" d="M825.48,471.83v-8.59c0-.35.28-.63.63-.63h9.49c.35,0,.63.28.63.63v18.13c0,.35-.28.63-.63.63h-9.49c-.35,0-.63-.28-.63-.63v-8.26"></path><rect class="cls-6" x="822.47" y="471.83" width="5.13" height="1.28"></rect><g><circle class="cls-6" cx="830.85" cy="472.47" r=".73"></circle><path class="cls-6" d="M825.48,501.42v-8.59c0-.35.28-.63.63-.63h9.49c.35,0,.63.28.63.63v18.13c0,.35-.28.63-.63.63h-9.49c-.35,0-.63-.28-.63-.63v-8.26"></path></g><rect class="cls-6" x="822.47" y="501.42" width="5.13" height="1.28"></rect><g><path class="cls-6" d="M830.85,502.8c-.41,0-.73-.33-.73-.73s.33-.74.73-.74.73.33.73.74-.33.73-.73.73Z"></path><path class="cls-6" d="M819.1,528.67h5.29c.6,0,1.08.48,1.08,1.08v15.44c0,.6-.48,1.08-1.08,1.08h-5.29c-.6,0-1.08-.48-1.08-1.08v-15.44c0-.6.48-1.08,1.08-1.08Z"></path><path class="cls-6" d="M829.62,541.93c0,.27.11.54.32.73,2.09,1.88,5.3,3.08,8.9,3.08,6.31,0,11.42-3.7,11.42-8.28s-5.11-8.27-11.42-8.27c-3.59,0-6.8,1.2-8.9,3.08-.21.19-.32.46-.32.73v8.92Z"></path></g><line class="cls-6" x1="838.84" y1="545.75" x2="825.32" y2="545.75"></line><line class="cls-6" x1="838.84" y1="529.2" x2="825.32" y2="529.2"></line><g><path class="cls-6" d="M805.14,524.06h4.72c.53,0,.96.43.96.96v13.78c0,.53-.43.96-.96.96h-4.72c-.53,0-.96-.43-.96-.96v-13.78c0-.53.43-.96.96-.96Z"></path><path class="cls-6" d="M800.48,527.94c0-.24-.1-.48-.29-.65-1.87-1.68-4.73-2.75-7.94-2.75-5.63,0-10.19,3.31-10.19,7.38s4.56,7.38,10.19,7.38c3.21,0,6.07-1.07,7.94-2.75.19-.17.29-.41.29-.65v-7.96Z"></path></g><line class="cls-6" x1="792.25" y1="524.53" x2="804.32" y2="524.53"></line><line class="cls-6" x1="792.25" y1="539.3" x2="804.32" y2="539.3"></line><path class="cls-6" d="M545.55,180.59v8.59c0,.35-.28.63-.63.63h-9.49c-.35,0-.63-.28-.63-.63v-18.14c0-.35.28-.63.63-.63h9.49c.35,0,.63.28.63.63v8.26"></path><rect class="cls-6" x="543.43" y="179.31" width="5.13" height="1.28"></rect><g><circle class="cls-6" cx="540.18" cy="179.95" r=".73"></circle><path class="cls-6" d="M760.55,572.75h-8.59c-.35,0-.63-.28-.63-.63v-9.49c0-.35.28-.63.63-.63h18.14c.35,0,.63.28.63.63v9.49c0,.35-.28.63-.63.63h-8.26"></path></g><rect class="cls-6" x="760.55" y="570.63" width="1.28" height="5.13"></rect><g><circle class="cls-6" cx="761.19" cy="567.38" r=".73"></circle><rect class="cls-6" x="881.59" y="354.76" width="1.5" height="8.42" rx=".51" ry=".51"></rect><path class="cls-6" d="M882.34,368.26c.43,0,.77.35.77.77s-.34.77-.77.77-.77-.35-.77-.77.34-.77.77-.77Z"></path></g><polyline class="cls-6" points="883.09 355.89 885.17 355.89 885.17 357.23 883.09 357.23"></polyline><line class="cls-6" x1="884.43" y1="357.23" x2="884.43" y2="355.89"></line><polyline class="cls-6" points="883.09 359.22 898.47 359.22 898.47 377.95 866.21 377.95 866.21 359.22 881.59 359.22"></polyline><polyline class="cls-6" points="881.59 360.15 867.14 360.15 867.14 377.02 897.54 377.02 897.54 360.15 883.09 360.15"></polyline><rect class="cls-6" x="887.93" y="425.4" width="36.97" height="20.31"></rect><rect class="cls-6" x="889.01" y="426.48" width="34.82" height="18.15"></rect><path class="cls-6" d="M906.41,427.23c.71,0,1.28.57,1.28,1.28s-.57,1.28-1.28,1.28-1.28-.57-1.28-1.28c0-.71.57-1.28,1.28-1.28Z"></path><line class="cls-6" x1="923.82" y1="426.48" x2="924.9" y2="425.4"></line><line class="cls-6" x1="889" y1="426.49" x2="887.92" y2="425.41"></line><line class="cls-6" x1="889.01" y1="444.63" x2="887.93" y2="445.71"></line><line class="cls-6" x1="923.82" y1="444.63" x2="924.9" y2="445.71"></line><polygon class="cls-6" points="905.36 428.52 906.41 429.57 907.47 428.52 906.41 427.46 905.36 428.52"></polygon><line class="cls-6" x1="906.41" y1="429.57" x2="906.41" y2="427.46"></line><g><circle class="cls-6" cx="870.63" cy="574.39" r="4.19"></circle><circle class="cls-6" cx="870.63" cy="574.39" r=".98"></circle><path class="cls-6" d="M216.05,361.23c0-2.86-2.32-5.18-5.18-5.18s-5.18,2.32-5.18,5.18,2.32,5.18,5.18,5.18,5.18-2.32,5.18-5.18Z"></path><path class="cls-6" d="M212.08,361.23c0,.67-.54,1.21-1.21,1.21s-1.21-.54-1.21-1.21.54-1.21,1.21-1.21,1.21.54,1.21,1.21Z"></path><path class="cls-7" d="M798.91,484.94c-1.22.02-2.45.05-3.7.11-.65.03-1.3.07-1.91.11-.46.03-.9.05-1.44.13-.53.08-1.15.2-1.4-.19-.06-.09-.09-.2-.1-.31-.05-.62.96-.73,1.81-.78,1.9-.12,3.03.03,4.4.13.73.05,1.53.08,2.34.11.8-.03,1.6-.07,2.34-.11,1.38-.09,2.5-.25,4.4-.13.85.05,1.86.16,1.81.78,0,.1-.05.22-.1.31-.25.39-.87.26-1.4.19-.54-.08-.98-.1-1.44-.13-.61-.04-1.26-.08-1.91-.11-1.25-.06-2.47-.08-3.7-.11Z"></path><path class="cls-7" d="M798.91,481.14c-1.22.02-2.45.05-3.7.1-.65.03-1.3.07-1.91.11-.46.03-.9.05-1.44.13-.53.08-1.15.2-1.4-.19-.06-.09-.09-.2-.1-.31-.05-.62.96-.73,1.81-.78,1.9-.12,3.03.03,4.4.13.73.05,1.53.08,2.34.11.8-.03,1.6-.07,2.34-.11,1.38-.09,2.5-.25,4.4-.13.85.05,1.86.16,1.81.78,0,.1-.05.22-.1.31-.25.39-.87.26-1.4.19-.54-.08-.98-.1-1.44-.13-.61-.04-1.26-.08-1.91-.11-1.25-.06-2.47-.08-3.7-.1Z"></path><path class="cls-7" d="M798.91,477.34c-1.22.02-2.45.05-3.7.1-.65.03-1.3.07-1.91.11-.46.03-.9.05-1.44.13-.53.08-1.15.2-1.4-.19-.06-.09-.09-.2-.1-.31-.05-.62.96-.73,1.81-.78,1.9-.12,3.03.03,4.4.13.73.05,1.53.08,2.34.11.8-.03,1.6-.07,2.34-.11,1.38-.09,2.5-.25,4.4-.13.85.05,1.86.16,1.81.78,0,.1-.05.22-.1.31-.25.39-.87.26-1.4.19-.54-.08-.98-.1-1.44-.13-.61-.04-1.26-.08-1.91-.11-1.25-.06-2.47-.08-3.7-.1Z"></path><path class="cls-7" d="M508.27,289.08c-.02-1.22-.05-2.45-.1-3.7-.03-.64-.07-1.3-.11-1.91-.03-.46-.05-.9-.13-1.44-.07-.53-.2-1.15.19-1.4.09-.06.2-.09.31-.1.62-.05.73.96.78,1.81.12,1.9-.03,3.02-.13,4.4-.05.73-.08,1.53-.11,2.34.03.8.06,1.6.11,2.34.09,1.38.25,2.5.13,4.4-.05.85-.16,1.86-.78,1.81-.1,0-.22-.04-.31-.1-.39-.25-.26-.87-.19-1.4.08-.54.1-.98.13-1.44.04-.61.08-1.26.11-1.91.06-1.25.08-2.48.1-3.7Z"></path><path class="cls-7" d="M512.07,289.08c-.02-1.22-.05-2.45-.1-3.7-.03-.64-.07-1.3-.11-1.91-.03-.46-.05-.9-.13-1.44-.07-.53-.2-1.15.19-1.4.09-.06.2-.09.31-.1.62-.05.73.96.78,1.81.12,1.9-.03,3.02-.13,4.4-.05.73-.08,1.53-.11,2.34.03.8.06,1.6.11,2.34.09,1.38.25,2.5.13,4.4-.05.85-.16,1.86-.78,1.81-.1,0-.22-.04-.31-.1-.39-.25-.26-.87-.19-1.4.08-.54.1-.98.13-1.44.04-.61.08-1.26.11-1.91.06-1.25.08-2.48.1-3.7Z"></path><path class="cls-7" d="M515.87,289.08c-.02-1.22-.05-2.45-.1-3.7-.03-.64-.07-1.3-.11-1.91-.03-.46-.05-.9-.13-1.44-.07-.53-.2-1.15.19-1.4.09-.06.2-.09.31-.1.62-.05.73.96.78,1.81.12,1.9-.03,3.02-.13,4.4-.05.73-.08,1.53-.11,2.34.03.8.06,1.6.11,2.34.09,1.38.25,2.5.13,4.4-.05.85-.16,1.86-.78,1.81-.1,0-.22-.04-.31-.1-.39-.25-.26-.87-.19-1.4.08-.54.1-.98.13-1.44.04-.61.08-1.26.11-1.91.06-1.25.08-2.48.1-3.7Z"></path></g><line class="cls-7" x1="943.39" y1="579.2" x2="943.39" y2="504.84"></line><g><path class="cls-7" d="M943.39,537.94c1.22-.02,2.45-.05,3.7-.11.65-.03,1.3-.07,1.91-.11.46-.03.9-.05,1.44-.13.53-.08,1.15-.2,1.4.19.06.09.09.2.1.31.05.62-.96.73-1.81.78-1.9.12-3.03-.03-4.4-.13-.73-.05-1.53-.08-2.34-.11-.8.03-1.6.07-2.34.11-1.38.09-2.5.25-4.4.13-.85-.05-1.86-.16-1.81-.78,0-.1.05-.22.1-.31.25-.39.87-.26,1.4-.19.54.08.98.1,1.44.13.61.04,1.26.08,1.91.11,1.25.06,2.47.08,3.7.11Z"></path><path class="cls-7" d="M943.39,541.74c1.22-.02,2.45-.05,3.7-.11.65-.03,1.3-.07,1.91-.11.46-.03.9-.05,1.44-.13.53-.08,1.15-.2,1.4.19.06.09.09.2.1.31.05.62-.96.73-1.81.78-1.9.12-3.03-.03-4.4-.13-.73-.05-1.53-.08-2.34-.11-.8.03-1.6.07-2.34.11-1.38.09-2.5.25-4.4.13-.85-.05-1.86-.16-1.81-.78,0-.1.05-.22.1-.31.25-.39.87-.26,1.4-.19.54.08.98.1,1.44.13.61.04,1.26.08,1.91.11,1.25.06,2.47.08,3.7.11Z"></path><path class="cls-7" d="M943.39,545.54c1.22-.02,2.45-.05,3.7-.11.65-.03,1.3-.07,1.91-.11.46-.03.9-.05,1.44-.13.53-.08,1.15-.2,1.4.19.06.09.09.2.1.31.05.62-.96.73-1.81.78-1.9.12-3.03-.03-4.4-.13-.73-.05-1.53-.08-2.34-.11-.8.03-1.6.07-2.34.11-1.38.09-2.5.25-4.4.13-.85-.05-1.86-.16-1.81-.78,0-.1.05-.22.1-.31.25-.39.87-.26,1.4-.19.54.08.98.1,1.44.13.61.04,1.26.08,1.91.11,1.25.06,2.47.08,3.7.11Z"></path></g><line class="cls-7" x1="891.85" y1="579.2" x2="943.39" y2="579.2"></line><g><path class="cls-7" d="M921.7,579.19c.02,1.23.05,2.45.1,3.7.03.64.07,1.3.11,1.91.03.46.05.9.13,1.44.07.53.2,1.15-.19,1.4-.09.06-.2.09-.31.1-.62.05-.73-.96-.78-1.81-.12-1.9.03-3.02.13-4.4.05-.73.08-1.53.11-2.34-.03-.8-.06-1.61-.11-2.34-.09-1.38-.25-2.5-.13-4.4.05-.85.16-1.86.78-1.81.1,0,.22.04.31.1.39.25.26.87.19,1.4-.08.54-.1.98-.13,1.44-.04.61-.08,1.26-.11,1.91-.06,1.25-.08,2.48-.1,3.7Z"></path><path class="cls-7" d="M917.9,579.19c.02,1.23.05,2.45.1,3.7.03.64.07,1.3.11,1.91.03.46.05.9.13,1.44.07.53.2,1.15-.19,1.4-.09.06-.2.09-.31.1-.62.05-.73-.96-.78-1.81-.12-1.9.03-3.02.13-4.4.05-.73.08-1.53.11-2.34-.03-.8-.06-1.61-.11-2.34-.09-1.38-.25-2.5-.13-4.4.05-.85.16-1.86.78-1.81.1,0,.22.04.31.1.39.25.26.87.19,1.4-.08.54-.1.98-.13,1.44-.04.61-.08,1.26-.11,1.91-.06,1.25-.08,2.48-.1,3.7Z"></path><path class="cls-7" d="M914.1,579.19c.02,1.23.05,2.45.1,3.7.03.64.07,1.3.11,1.91.03.46.05.9.13,1.44.07.53.2,1.15-.19,1.4-.09.06-.2.09-.31.1-.62.05-.73-.96-.78-1.81-.12-1.9.03-3.02.13-4.4.05-.73.08-1.53.11-2.34-.03-.8-.06-1.61-.11-2.34-.09-1.38-.25-2.5-.13-4.4.05-.85.16-1.86.78-1.81.1,0,.22.04.31.1.39.25.26.87.19,1.4-.08.54-.1.98-.13,1.44-.04.61-.08,1.26-.11,1.91-.06,1.25-.08,2.48-.1,3.7Z"></path></g><line class="cls-7" x1="554.74" y1="289.33" x2="471.56" y2="289.33"></line><line class="cls-7" x1="798.91" y1="454.49" x2="798.91" y2="510.25"></line><g><path class="cls-7" d="M215.17,70s-31.66.42-71.16,1.26c-41.99.89-92.89,2.23-126.05,3.53"></path><path class="cls-7" d="M462.11,75.87c-5.36-.25-10.07-.46-13.81-.62-29.56-1.26-61.45-2.3-118.3-3.36-52.3-.97-101.78-.61-102.24-.61"></path><path class="cls-7" d="M462.12,80.93c-5.36-.25-10.08-.46-13.81-.62-29.56-1.26-61.45-2.3-118.3-3.36-52.3-.97-101.78-.61-102.24-.61"></path><path class="cls-7" d="M934.05,117.48c-130.95-17.95-257.3-28.85-353.27-35.33"></path></g><line class="cls-7" x1="1150.01" y1="407.12" x2="1165.58" y2="270.7"></line><line class="cls-7" x1="1129.67" y1="585.25" x2="1146.27" y2="439.85"></line><line class="cls-7" x1="1063.76" y1="367.57" x2="1063.76" y2="357.28"></line><path class="cls-7" d="M941.2,119.32s192.02,27.97,280.38,47.25l-37.33,100.92h-11.36"></path><line class="cls-7" x1="938.61" y1="175.98" x2="945.68" y2="174.55"></line><line class="cls-7" x1="955.11" y1="232.39" x2="961.53" y2="229.53"></line><line class="cls-7" x1="983.54" y1="284.1" x2="989.46" y2="280"></line><line class="cls-7" x1="1024.08" y1="328.68" x2="1028.82" y2="323.28"></line><line class="cls-7" x1="433.09" y1="221.73" x2="255.93" y2="221.73"></line><line class="cls-7" x1="241.85" y1="66.32" x2="241.85" y2="71.22"></line><line class="cls-7" x1="1100.52" y1="144.23" x2="1101.27" y2="139.65"></line><g><path class="cls-7" d="M941.48,113.88c-.7,8.86-10.38,158.89,129.81,239.46"></path><path class="cls-2" d="M.38,71.7c115.7-4.75,186.62-5.55,219.09-5.55,11.5,0,18.6.1,21.87.16.3,0,.47,0,.52,0v-2.38s0,0,0,0c-1.04,0-69.4-1.61-241.48,5.46v2.3Z"></path></g><line class="cls-2" x1="225.19" y1="176.13" x2="225.19" y2="167.03"></line><line class="cls-2" x1="227.17" y1="176.13" x2="227.17" y2="167.03"></line><line class="cls-2" x1="225.86" y1="66.16" x2="225.86" y2="79.14"></line><line class="cls-2" x1="227.76" y1="66.17" x2="227.76" y2="79.14"></line><line class="cls-2" x1="462.12" y1="70.79" x2="462.12" y2="96.8"></line><line class="cls-2" x1="464.12" y1="70.89" x2="464.12" y2="96.8"></line><path class="cls-2" d="M1101.66,137.52C748.07,71.45,341.33,63.23,310.22,64.26v2.15c13.81-.54,117.59,1.11,262.16,10.64,136.65,9.01,339.32,27.18,528.88,62.6l.4-2.12Z"></path><line class="cls-2" x1=".38" y1="71.7" x2=".38" y2="75.4"></line><polyline class="cls-2" points="1067.17 603.02 1134.58 603.02 1172.89 267.5 1170.78 267.5 1154.84 407.12"></polyline><polyline class="cls-2" points="1067.17 600.98 1132.7 600.98 1154.62 409.02"></polyline><polyline class="cls-2" points="1156.94 407.12 1071.29 407.12 1071.29 404.69 1064.03 404.69 1064.03 413.79"></polyline><line class="cls-2" x1="1064.03" y1="409.02" x2="1154.62" y2="409.02"></line><line class="cls-2" x1="1069.39" y1="355.56" x2="1069.39" y2="367.57"></line><line class="cls-2" x1="1071.29" y1="367.57" x2="1071.29" y2="353.34"></line><polyline class="cls-2" points="432.14 217.27 464.02 217.27 464.02 165.06 462.01 165.06 462.01 215.27 432.14 215.27"></polyline><polygon class="cls-2" points="255.93 215.27 227.17 215.27 227.17 213.66 220.33 213.66 220.33 217.27 255.93 217.27 255.93 215.27"></polygon><g><path class="cls-2" d="M1063.76,357.28c-32.1-19.12-58.85-43.41-79.56-72.26-17.23-24.01-30.32-51.18-38.9-80.76-11.8-40.68-11.78-74.28-11.26-86.54v-.25"></path><path class="cls-2" d="M1065.67,355.07c-31.95-18.96-58.56-43.07-79.12-71.72-17.04-23.74-29.99-50.61-38.48-79.88-11.51-39.68-11.67-73.08-11.18-85.6l.05-1.12"></path></g><rect class="cls-2" x="220.33" y="176.23" width="6.83" height="2.21"></rect><rect class="cls-2" x="227.17" y="217.27" width="1.9" height="4.46"></rect><rect class="cls-2" x="254.03" y="217.27" width="1.9" height="4.46"></rect><rect class="cls-2" x="313.36" y="217.27" width="1.9" height="4.46"></rect><rect class="cls-2" x="372.81" y="217.27" width="1.9" height="4.46"></rect><rect class="cls-2" x="432.14" y="217.27" width="1.9" height="4.46"></rect><polygon class="cls-2" points="18.84 70.96 18.98 74.75 17.08 74.82 16.94 71.03 18.84 70.96"></polygon><polygon class="cls-2" points="48.44 69.85 48.57 73.72 46.68 73.78 46.54 69.92 48.44 69.85"></polygon><polygon class="cls-2" points="107.72 67.97 107.86 72.08 105.96 72.13 105.82 68.02 107.72 67.97"></polygon><polygon class="cls-2" points="167.1 66.64 167.25 70.79 165.35 70.83 165.19 66.67 167.1 66.64"></polygon><rect class="cls-2" x="519.08" y="75.52" width="4.97" height="1.77" transform="translate(416.65 592.99) rotate(-86.85)"></rect><polygon class="cls-2" points="579.88 82.1 580.13 77.56 581.89 77.68 581.64 82.19 579.88 82.1"></polygon><polygon class="cls-2" points="639.15 86.38 639.4 81.85 641.16 81.99 640.91 86.52 639.15 86.38"></polygon><polygon class="cls-2" points="697.87 91.23 698.29 86.71 700.17 86.88 699.8 91.4 697.87 91.23"></polygon><polygon class="cls-2" points="757.03 96.75 757.46 92.22 759.37 92.41 758.97 96.94 757.03 96.75"></polygon><polygon class="cls-2" points="815.92 102.91 816.47 98.38 818.39 98.6 817.88 103.13 815.92 102.91"></polygon><polygon class="cls-2" points="874.69 109.77 875.35 105.25 877.38 105.5 876.78 110.02 874.69 109.77"></polygon><polygon class="cls-2" points="402.51 73.59 402.69 68.31 404.44 68.37 404.34 73.65 402.51 73.59"></polygon><polygon class="cls-2" points="342.75 72.14 342.83 66.61 344.72 66.65 344.67 72.18 342.75 72.14"></polygon><polygon class="cls-2" points="310.14 71.58 310.22 66.41 312.11 66.36 312.06 71.61 310.14 71.58"></polygon><polygon class="cls-2" points="932.54 117.27 937.12 113.28 938.76 113.51 938.76 115.16 933.98 119.32 934.05 117.48 932.54 117.27"></polygon><polygon class="cls-2" points="1154.42 410.73 1149.06 415.38 1149.24 413.79 1147.59 413.79 1153.09 409.03 1154.62 409.02 1154.42 410.73"></polygon><rect class="cls-2" x="1129.2" y="409.01" width="1.9" height="4.78"></rect><rect class="cls-2" x="1063.76" y="367.57" width="7.52" height="1.9"></rect><rect class="cls-2" x="1070.04" y="409.01" width="1.9" height="4.78"></rect><rect class="cls-2" x="1147.69" y="436.65" width="2.16" height="4.8" transform="translate(582.3 1530.64) rotate(-83.49)"></rect><rect class="cls-2" x="1140.95" y="495.79" width="2.16" height="4.8" transform="translate(517.56 1576.37) rotate(-83.49)"></rect><rect class="cls-2" x="1134.22" y="554.8" width="2.16" height="4.8" transform="translate(452.97 1621.99) rotate(-83.49)"></rect><rect class="cls-2" x="1130.86" y="584.19" width="2.16" height="4.8" transform="translate(420.78 1644.73) rotate(-83.49)"></rect><rect class="cls-2" x="1072.71" y="595.96" width="1.9" height="5.02"></rect><polygon class="cls-2" points="1132.88 599.42 1128.61 594.51 1128.44 595.96 1127.01 595.96 1131.37 600.98 1132.7 600.98 1132.88 599.42"></polygon><polygon class="cls-2" points="1063.76 358.5 1063.76 357.28 1062.68 356.63 1067.92 353.89 1069.39 354.37 1069.39 355.56 1063.76 358.5"></polygon><line class="cls-2" x1="1069.39" y1="354.37" x2="1071.28" y2="353.34"></line><rect class="cls-2" x="1154.41" y="377.84" width="2.16" height="4.8" transform="translate(646.69 1485.17) rotate(-83.49)"></rect><rect class="cls-2" x="1161.13" y="319" width="2.16" height="4.8" transform="translate(711.1 1439.68) rotate(-83.49)"></rect><rect class="cls-2" x="1167" y="267.5" width="2.16" height="4.8" transform="translate(767.48 1399.85) rotate(-83.49)"></rect><polygon class="cls-2" points="1071.75 134.29 1069.88 133.96 1069.05 139.05 1070.92 139.36 1071.75 134.29"></polygon><polygon class="cls-2" points="1013.55 124.56 1011.67 124.26 1010.76 129.83 1012.64 130.12 1013.55 124.56"></polygon><polygon class="cls-2" points="977.82 119.09 975.92 118.81 975.11 124.38 977.01 124.66 977.82 119.09"></polygon><polygon class="cls-14" points="162.24 265.65 167.12 265.65 167.12 226.53 254.98 226.53 254.98 221.73 220.33 221.73 220.33 214.9 215.17 214.9 215.17 221.73 162.2 221.73 162.2 226.53 162.24 226.53 162.24 265.65"></polygon><polygon class="cls-2" points="162.24 265.65 167.12 265.65 167.12 226.53 254.98 226.53 254.98 221.73 220.33 221.73 220.33 214.9 215.17 214.9 215.17 221.73 162.2 221.73 162.2 226.53 162.24 226.53 162.24 265.65"></polygon><polygon class="cls-14" points="220.33 167.03 238.84 167.03 238.84 79.14 220.33 79.14 220.33 70 215.17 70 215.17 177.15 220.33 177.15 220.33 167.03"></polygon><polygon class="cls-2" points="220.33 167.03 238.84 167.03 238.84 79.14 220.33 79.14 220.33 70 215.17 70 215.17 177.15 220.33 177.15 220.33 167.03"></polygon><polygon class="cls-14" points="1141.11 438.06 1142.15 428.13 1059.13 428.13 1059.13 418.88 1046.68 418.88 1046.68 413.79 1149.24 413.79 1146.41 438.61 1141.11 438.06"></polygon><polygon class="cls-2" points="1141.11 438.06 1142.15 428.13 1059.13 428.13 1059.13 418.88 1046.68 418.88 1046.68 413.79 1149.24 413.79 1146.41 438.61 1141.11 438.06"></polygon><polygon class="cls-14" points="428.21 373.12 316.7 373.12 316.7 314.68 316.7 221.73 316.52 221.73 311.84 221.73 311.84 314.68 304.91 314.68 271.93 314.68 271.93 319.9 304.91 319.9 304.91 373.12 239.75 373.12 239.75 314.68 234.36 314.68 234.36 373.12 169.36 373.12 169.36 319.72 201.64 319.72 201.64 314.68 167.12 314.68 167.12 300.87 162.24 300.87 162.24 349.38 159.21 349.38 159.21 354.69 162.24 354.69 162.24 373.12 162.24 378.2 167.12 378.2 428.21 378.2 428.29 378.2 428.29 373.12 428.21 373.12"></polygon><polygon class="cls-2" points="428.21 373.12 316.7 373.12 316.7 314.68 316.7 221.73 316.52 221.73 311.84 221.73 311.84 314.68 304.91 314.68 271.93 314.68 271.93 319.9 304.91 319.9 304.91 373.12 239.75 373.12 239.75 314.68 234.36 314.68 234.36 373.12 169.36 373.12 169.36 319.72 201.64 319.72 201.64 314.68 167.12 314.68 167.12 300.87 162.24 300.87 162.24 349.38 159.21 349.38 159.21 354.69 162.24 354.69 162.24 373.12 162.24 378.2 167.12 378.2 428.21 378.2 428.29 378.2 428.29 373.12 428.21 373.12"></polygon><polygon class="cls-14" points="691.09 548.92 698.99 548.92 698.99 539.41 700.76 539.41 700.76 534.56 677.1 534.56 677.1 542.11 691.09 542.11 691.09 548.92"></polygon><polygon class="cls-2" points="691.09 548.92 698.99 548.92 698.99 539.41 700.76 539.41 700.76 534.56 677.1 534.56 677.1 542.11 691.09 542.11 691.09 548.92"></polygon><polygon class="cls-14" points="770.72 603.02 1067.17 603.02 1067.17 595.96 1128.44 595.96 1129.02 591.01 1129.56 586.3 1124.79 585.76 1124.19 591.01 960.48 591.01 960.48 504.84 960.48 499.56 955.19 499.56 931.06 499.56 931.06 504.84 955.19 504.84 955.19 591.01 891.85 591.01 891.85 504.84 895.85 504.84 895.85 499.56 889.88 499.56 889.88 494.65 884.9 494.65 884.9 499.56 884.9 499.8 884.9 504.84 884.9 555.26 882.74 555.26 882.74 591.01 818.02 591.01 818.02 454.45 884.9 454.45 884.9 459.41 889.88 459.41 889.88 454.45 1005.69 454.45 1005.77 454.45 1005.77 418.88 1011.47 418.88 1011.47 413.79 1000.71 413.79 1000.71 413.82 1000.68 413.82 1000.68 447.4 787.79 447.4 787.79 423.78 768.87 423.78 768.87 457.58 782.06 457.58 782.06 462.08 782.06 462.38 787.15 462.38 787.15 462.08 787.15 454.45 810.83 454.45 810.83 510.19 787.15 510.19 787.15 504.49 782.06 504.49 782.06 510.19 774.92 510.19 774.92 514.31 810.83 514.31 810.83 570.15 810.83 579.75 736.39 579.75 736.39 514.29 739.71 514.29 739.71 510.26 731.12 510.26 731.12 534.56 721.09 534.56 721.09 539.42 723.11 539.42 723.11 574.28 698.99 574.28 698.99 567.83 691.09 567.83 691.09 568.19 691.09 570.16 691.09 571.58 691.09 576.28 691.09 587.3 770.72 587.3 770.72 603.02"></polygon><polygon class="cls-2" points="770.72 603.02 1067.17 603.02 1067.17 595.96 1128.44 595.96 1129.02 591.01 1129.56 586.3 1124.79 585.76 1124.19 591.01 960.48 591.01 960.48 504.84 960.48 499.56 955.19 499.56 931.06 499.56 931.06 504.84 955.19 504.84 955.19 591.01 891.85 591.01 891.85 504.84 895.85 504.84 895.85 499.56 889.88 499.56 889.88 494.65 884.9 494.65 884.9 499.56 884.9 499.8 884.9 504.84 884.9 555.26 882.74 555.26 882.74 591.01 818.02 591.01 818.02 454.45 884.9 454.45 884.9 459.41 889.88 459.41 889.88 454.45 1005.69 454.45 1005.77 454.45 1005.77 418.88 1011.47 418.88 1011.47 413.79 1000.71 413.79 1000.71 413.82 1000.68 413.82 1000.68 447.4 787.79 447.4 787.79 423.78 768.87 423.78 768.87 457.58 782.06 457.58 782.06 462.08 782.06 462.38 787.15 462.38 787.15 462.08 787.15 454.45 810.83 454.45 810.83 510.19 787.15 510.19 787.15 504.49 782.06 504.49 782.06 510.19 774.92 510.19 774.92 514.31 810.83 514.31 810.83 570.15 810.83 579.75 736.39 579.75 736.39 514.29 739.71 514.29 739.71 510.26 731.12 510.26 731.12 534.56 721.09 534.56 721.09 539.42 723.11 539.42 723.11 574.28 698.99 574.28 698.99 567.83 691.09 567.83 691.09 568.19 691.09 570.16 691.09 571.58 691.09 576.28 691.09 587.3 770.72 587.3 770.72 603.02"></polygon><polygon class="cls-14" points="580.5 87.29 560.99 86.21 560.99 373.12 560.99 378.2 554.98 378.2 554.77 378.2 509.89 378.2 509.89 373.12 554.77 373.12 554.77 307.85 471.62 307.85 471.62 373.12 474.68 373.12 474.68 378.2 463.53 378.2 463.53 373.12 466.77 373.12 466.77 272.25 482.5 272.25 482.5 277.29 471.62 277.29 471.62 300.9 554.77 300.9 554.77 300.84 554.98 300.84 554.98 277.29 554.77 277.29 542.19 277.29 542.19 272.25 554.98 272.25 554.98 226.77 512.77 226.77 512.77 221.91 553.78 221.91 553.78 118.9 541.95 118.9 541.95 85.34 476.47 85.34 476.47 118.9 474.43 118.9 474.43 221.91 477.55 221.91 477.55 226.77 433.09 226.77 433.09 221.73 469.36 221.73 469.36 165.06 451.81 165.06 451.81 96.8 468.53 96.8 468.53 75.97 580.79 82.14 580.5 87.29"></polygon><polygon class="cls-2" points="580.5 87.29 560.99 86.21 560.99 373.12 560.99 378.2 554.98 378.2 554.77 378.2 509.89 378.2 509.89 373.12 554.77 373.12 554.77 307.85 471.62 307.85 471.62 373.12 474.68 373.12 474.68 378.2 463.53 378.2 463.53 373.12 466.77 373.12 466.77 272.25 482.5 272.25 482.5 277.29 471.62 277.29 471.62 300.9 554.77 300.9 554.77 300.84 554.98 300.84 554.98 277.29 554.77 277.29 542.19 277.29 542.19 272.25 554.98 272.25 554.98 226.77 512.77 226.77 512.77 221.91 553.78 221.91 553.78 118.9 541.95 118.9 541.95 85.34 476.47 85.34 476.47 118.9 474.43 118.9 474.43 221.91 477.55 221.91 477.55 226.77 433.09 226.77 433.09 221.73 469.36 221.73 469.36 165.06 451.81 165.06 451.81 96.8 468.53 96.8 468.53 75.97 580.79 82.14 580.5 87.29"></polygon><polygon class="cls-14" points=".38 75.54 17.96 74.79 17.96 80.88 12.24 80.88 12.24 260.33 114.79 260.33 114.79 300.12 110.06 300.12 110.06 265.36 12.24 265.36 12.24 323.28 34.91 323.28 34.91 427.59 110.06 427.59 110.06 335.34 114.79 335.34 114.79 349.38 123.97 349.38 123.97 354.69 114.79 354.69 114.79 427.59 369.53 427.59 721.41 427.59 721.41 439.45 630.89 439.45 630.89 534.56 637.87 534.56 637.87 542.11 631.89 542.11 629.6 542.11 619.02 542.11 619.02 439.45 23.04 439.45 23.04 335.15 .38 335.15 .38 75.54"></polygon><polygon class="cls-2" points=".38 75.54 17.96 74.79 17.96 80.88 12.24 80.88 12.24 260.33 114.79 260.33 114.79 300.12 110.06 300.12 110.06 265.36 12.24 265.36 12.24 323.28 34.91 323.28 34.91 427.59 110.06 427.59 110.06 335.34 114.79 335.34 114.79 349.38 123.97 349.38 123.97 354.69 114.79 354.69 114.79 427.59 369.53 427.59 721.41 427.59 721.41 439.45 630.89 439.45 630.89 534.56 637.87 534.56 637.87 542.11 631.89 542.11 629.6 542.11 619.02 542.11 619.02 439.45 23.04 439.45 23.04 335.15 .38 335.15 .38 75.54"></polygon><rect class="cls-14" x="680.47" y="103.13" width="34.81" height="24.68"></rect><rect class="cls-2" x="680.47" y="103.13" width="34.81" height="24.68"></rect><g><path class="cls-14" d="M1071.92,139.52l-3.14,21.67-62.64-9.17,3.47-22.37c18.8,2.91,40.15,6.27,62.31,9.87"></path><path class="cls-2" d="M1071.92,139.52l-3.14,21.67-62.64-9.17,3.47-22.37c18.8,2.91,40.15,6.27,62.31,9.87Z"></path><path class="cls-15" d="M657.35,554.27c.02-.08.07-.14.14-.14s.13.06.14.14c.56,3.3,2.74,4.94,6.02,4.94h3.83c1.16,0,1.98,1.01,2.21,2.66.05.33-.23.61-.47.45-.46-.31-1.06-.47-1.78-.47h-3.48c-2.95,0-5.22-1.67-6.17-4.98-.11-.37-.5-.37-.61,0-.96,3.31-3.22,4.98-6.18,4.98h-3.48c-.72,0-1.31.16-1.78.47-.23.16-.51-.12-.47-.45.22-1.64,1.05-2.66,2.2-2.66h3.84c3.29,0,5.46-1.64,6.02-4.95h0Z"></path><path class="cls-12" d="M657.35,554.27c.02-.08.07-.14.14-.14s.13.06.14.14c.56,3.3,2.74,4.94,6.02,4.94h3.83c1.16,0,1.98,1.01,2.21,2.66.05.33-.23.61-.47.45-.46-.31-1.06-.47-1.78-.47h-3.48c-2.95,0-5.22-1.67-6.17-4.98-.11-.37-.5-.37-.61,0-.96,3.31-3.22,4.98-6.18,4.98h-3.48c-.72,0-1.31.16-1.78.47-.23.16-.51-.12-.47-.45.22-1.64,1.05-2.66,2.2-2.66h3.84c3.29,0,5.46-1.64,6.02-4.95h0Z"></path></g><g><path class="cls-15" d="M63.1,343.47h.65l1.71,6.06,1.76-5.7h.63l1.76,5.7,1.7-6.06h.65l-2.01,6.98h-.63l-1.79-5.71-1.79,5.71h-.64l-2.01-6.98Z"></path><path class="cls-15" d="M73.11,343.47h.62v6.98h-.62v-6.98Z"></path><path class="cls-15" d="M75.16,346.96c0-2.16,1.26-3.58,3.16-3.58,1.35,0,2.39.71,2.84,1.89l-.58.22c-.38-.96-1.17-1.52-2.26-1.52-1.55,0-2.54,1.17-2.54,2.99s.99,3,2.54,3c1.09,0,1.89-.56,2.26-1.52l.58.21c-.45,1.18-1.49,1.9-2.84,1.9-1.89,0-3.16-1.42-3.16-3.59Z"></path></g><g><path class="cls-15" d="M908.58,538.29h.65l1.71,6.06,1.76-5.7h.63l1.76,5.7,1.7-6.06h.65l-2.01,6.98h-.63l-1.79-5.71-1.79,5.71h-.64l-2.01-6.98Z"></path><path class="cls-15" d="M918.58,538.29h.62v6.98h-.62v-6.98Z"></path><path class="cls-15" d="M920.63,541.77c0-2.16,1.26-3.58,3.16-3.58,1.35,0,2.39.71,2.84,1.89l-.58.22c-.38-.96-1.17-1.52-2.26-1.52-1.55,0-2.54,1.17-2.54,2.99s.99,3,2.54,3c1.09,0,1.89-.56,2.26-1.52l.58.21c-.45,1.18-1.49,1.9-2.84,1.9-1.89,0-3.16-1.42-3.16-3.59Z"></path></g><path class="cls-15" d="M529.84,323.19h.65l1.71,6.06,1.76-5.7h.63l1.76,5.7,1.7-6.06h.65l-2.01,6.98h-.63l-1.79-5.71-1.79,5.71h-.64l-2.01-6.98Z"></path><path class="cls-15" d="M531.7,350.86h1.87c2.26,0,3.56,1.29,3.56,3.54s-1.27,3.43-3.57,3.43h-1.86v-6.98ZM533.5,357.26c1.92,0,2.99-.89,2.99-2.88s-1.08-2.95-2.94-2.95h-1.24v5.83h1.19Z"></path><g><path class="cls-15" d="M360.86,122.67c0-2.17,1.27-3.59,3.16-3.59s3.18,1.42,3.18,3.59-1.27,3.58-3.18,3.58-3.16-1.42-3.16-3.58ZM364.01,125.65c1.57,0,2.55-1.16,2.55-2.99s-.99-3-2.55-3-2.54,1.15-2.54,3,.99,2.99,2.54,2.99Z"></path><path class="cls-15" d="M368.44,124.28v-3.07h.59v2.86c0,1.11.43,1.62,1.25,1.62.89,0,1.41-.61,1.41-1.97v-2.51h.6v4.94h-.6v-.81c-.32.59-.88.88-1.56.88-1.05,0-1.69-.64-1.69-1.94Z"></path><path class="cls-15" d="M374.36,125.01v-3.32h-1.1v-.48h1.1v-1.43l.61-.35v1.78h1.19v.48h-1.19v3.17c0,.55.17.86.62.86.15,0,.35-.03.57-.1v.48c-.25.08-.5.12-.71.12-.66,0-1.08-.38-1.08-1.21Z"></path><path class="cls-15" d="M376.9,123.68c0-1.51.99-2.53,2.25-2.53.81,0,1.44.42,1.77,1.05v-3.02h.59v6.98h-.59v-.97c-.34.65-.97,1.04-1.77,1.04-1.32,0-2.25-1.1-2.25-2.54ZM379.24,125.66c1,0,1.72-.83,1.72-1.99s-.72-1.99-1.72-1.99-1.74.84-1.74,1.99.73,1.99,1.74,1.99Z"></path><path class="cls-15" d="M382.84,123.68c0-1.48.97-2.53,2.35-2.53s2.34,1.05,2.34,2.53-.98,2.54-2.34,2.54-2.35-1.05-2.35-2.54ZM385.18,125.68c1.05,0,1.74-.8,1.74-2.01s-.69-2.01-1.74-2.01-1.75.81-1.75,2.01.7,2.01,1.75,2.01Z"></path><path class="cls-15" d="M388.63,123.68c0-1.48.97-2.53,2.35-2.53s2.34,1.05,2.34,2.53-.98,2.54-2.34,2.54-2.35-1.05-2.35-2.54ZM390.98,125.68c1.05,0,1.74-.8,1.74-2.01s-.69-2.01-1.74-2.01-1.75.81-1.75,2.01.7,2.01,1.75,2.01Z"></path><path class="cls-15" d="M394.65,121.21h.6v.84c.33-.6,1.01-.91,1.56-.91.26,0,.51.06.77.19l-.3.54c-.17-.08-.39-.13-.59-.13-.53,0-1.12.28-1.34,1-.06.21-.09.44-.09.98v2.43h-.6v-4.94Z"></path><path class="cls-15" d="M400.87,124.3l.61-.15c.16.98.86,1.52,1.86,1.52.87,0,1.54-.58,1.54-1.39,0-.87-.77-1.18-1.71-1.55-1.08-.41-1.89-.87-1.89-1.91s.8-1.76,2-1.76c.85,0,1.51.39,1.91,1.13l-.49.31c-.33-.58-.81-.89-1.44-.89-.81,0-1.36.51-1.36,1.19,0,.77.66,1.06,1.61,1.42,1.14.43,1.99.9,1.99,2.02s-.92,1.98-2.18,1.98c-1.35,0-2.25-.76-2.45-1.94Z"></path><path class="cls-15" d="M411.36,123.69c0,1.51-.99,2.53-2.25,2.53-.81,0-1.44-.42-1.77-1.05v3.02h-.59v-6.98h.59v.97c.34-.65.97-1.04,1.77-1.04,1.32,0,2.25,1.1,2.25,2.54ZM409.01,125.67c1.01,0,1.74-.84,1.74-1.99s-.73-1.99-1.74-1.99-1.72.83-1.72,1.99.72,1.99,1.72,1.99Z"></path><path class="cls-15" d="M415.96,125.22c-.33.63-.97,1-1.73,1-1.11,0-1.78-.6-1.78-1.5,0-.53.22-.89.56-1.11.35-.24.84-.32,1.36-.32h1.58v-.21c0-.92-.48-1.41-1.4-1.41-.61,0-1.08.23-1.52.79l-.43-.37c.52-.65,1.18-.94,1.99-.94,1.26,0,1.95.69,1.95,1.93v3.07h-.55l-.03-.93ZM414.29,125.72c.91,0,1.67-.72,1.67-1.69v-.28h-1.5c-.4,0-.79.06-1.06.25-.21.16-.34.39-.34.72,0,.61.46,1,1.23,1Z"></path></g><g><path class="cls-15" d="M844.93,366.14h1.87c2.26,0,3.56,1.29,3.56,3.54s-1.27,3.43-3.57,3.43h-1.86v-6.98ZM846.74,372.55c1.92,0,2.99-.89,2.99-2.88s-1.08-2.95-2.94-2.95h-1.24v5.83h1.19Z"></path><path class="cls-15" d="M851.02,366.14h.65l1.71,6.06,1.76-5.7h.63l1.76,5.7,1.7-6.06h.65l-2.01,6.98h-.63l-1.79-5.71-1.79,5.71h-.64l-2.01-6.98Z"></path></g><g><path class="cls-15" d="M820.86,433.13h1.94c1.53,0,2.29.72,2.29,1.92,0,.97-.5,1.6-1.43,1.83l1.88,3.22h-.71l-1.8-3.13c-.16,0-.34,0-.5,0h-1.05v3.13h-.62v-6.98ZM822.74,436.43c1.06,0,1.73-.43,1.73-1.37s-.68-1.37-1.73-1.37h-1.26v2.74h1.26Z"></path><path class="cls-15" d="M826.71,433.13h4.56v.56h-3.94v2.59h3.53v.56h-3.53v2.7h3.94v.56h-4.56v-6.98Z"></path><path class="cls-15" d="M832.57,433.13h4.51v.56h-3.89v2.59h3.38v.56h-3.38v3.26h-.62v-6.98Z"></path></g><g><path class="cls-15" d="M847.7,433.13h4.51v.56h-3.89v2.59h3.38v.56h-3.38v3.26h-.62v-6.98Z"></path><path class="cls-15" d="M853.37,433.13h1.94c1.53,0,2.29.72,2.29,1.92,0,.97-.5,1.6-1.43,1.83l1.88,3.22h-.71l-1.8-3.13c-.16,0-.34,0-.5,0h-1.05v3.13h-.62v-6.98ZM855.25,436.43c1.06,0,1.73-.43,1.73-1.37s-.68-1.37-1.73-1.37h-1.26v2.74h1.26Z"></path></g><g><path class="cls-15" d="M793.89,433.13h.65l1.71,6.06,1.76-5.7h.63l1.76,5.7,1.7-6.06h.65l-2.01,6.98h-.63l-1.79-5.71-1.79,5.71h-.64l-2.01-6.98Z"></path><path class="cls-15" d="M803.89,433.13h4.51v.56h-3.89v2.59h3.38v.56h-3.38v3.26h-.62v-6.98Z"></path></g><path class="cls-15" d="M965.37,436.63c0-2.17,1.27-3.59,3.16-3.59s3.18,1.42,3.18,3.59-1.27,3.58-3.18,3.58-3.16-1.42-3.16-3.58ZM968.53,439.62c1.57,0,2.55-1.16,2.55-2.99s-.99-3-2.55-3-2.54,1.15-2.54,3,.99,2.99,2.54,2.99Z"></path><path class="cls-15" d="M975.4,432.13h.48l-3.55,9.08h-.47l3.55-9.08Z"></path><path class="cls-15" d="M977.11,433.13h.93l2.35,5.66,2.35-5.66h.92v6.98h-.62v-6.16l-2.35,5.59h-.61l-2.36-5.59v6.16h-.62v-6.98Z"></path><g><path class="cls-15" d="M65.27,150.21h2.52c1.9,0,2.97.89,2.97,2.53s-1.07,2.54-2.97,2.54h-1.72v3.99h-.8v-9.06ZM67.72,154.56c1.41,0,2.24-.61,2.24-1.81s-.81-1.81-2.24-1.81h-1.64v3.62h1.64Z"></path><path class="cls-15" d="M72.28,152.87h.78v1.09c.43-.78,1.31-1.18,2.02-1.18.33,0,.66.07.99.24l-.39.7c-.21-.1-.51-.17-.77-.17-.68,0-1.46.36-1.74,1.3-.08.27-.12.57-.12,1.27v3.15h-.78v-6.41Z"></path><path class="cls-15" d="M77.34,150.21h.94v1.39h-.94v-1.39ZM77.42,152.87h.77v6.41h-.77v-6.41Z"></path><path class="cls-15" d="M80.23,152.87h.78v1.1c.38-.85,1.11-1.19,1.88-1.19.91,0,1.57.4,1.89,1.25.4-.83,1.09-1.25,2-1.25,1.55,0,2.13,1.16,2.13,2.68v3.82h-.78v-3.64c0-1.33-.39-2.18-1.52-2.18-1.02,0-1.65.77-1.65,2.26v3.57h-.78v-3.76c0-1.4-.52-2.07-1.5-2.07-1.03,0-1.67.79-1.67,2.26v3.57h-.78v-6.41Z"></path><path class="cls-15" d="M95.05,158.07c-.43.82-1.25,1.29-2.25,1.29-1.44,0-2.31-.77-2.31-1.94,0-.69.29-1.16.72-1.44.46-.31,1.09-.42,1.77-.42h2.05v-.28c0-1.19-.62-1.83-1.82-1.83-.79,0-1.4.29-1.98,1.02l-.56-.48c.68-.85,1.53-1.22,2.59-1.22,1.63,0,2.54.89,2.54,2.51v3.99h-.72l-.04-1.2ZM92.88,158.72c1.18,0,2.16-.93,2.16-2.2v-.36h-1.95c-.51,0-1.03.08-1.37.33-.28.21-.44.51-.44.94,0,.79.6,1.3,1.6,1.3Z"></path><path class="cls-15" d="M97.76,152.87h.78v1.09c.43-.78,1.31-1.18,2.02-1.18.33,0,.66.07.99.24l-.39.7c-.21-.1-.51-.17-.77-.17-.68,0-1.46.36-1.74,1.3-.08.27-.12.57-.12,1.27v3.15h-.78v-6.41Z"></path><path class="cls-15" d="M104.82,159.07l-2.55-6.21h.86l2.1,5.42,2.11-5.42h.85l-3.69,9.05h-.84l1.17-2.84Z"></path><path class="cls-15" d="M113.08,150.21h2.72c1.68,0,2.68.84,2.68,2.25,0,.94-.46,1.68-1.24,2,1.1.25,1.7,1.07,1.7,2.31,0,1.61-1.02,2.5-2.88,2.5h-2.97v-9.06ZM116.05,154.22c.98,0,1.63-.64,1.63-1.64s-.69-1.61-1.89-1.61h-1.91v3.26h2.16ZM116,158.53c1.42,0,2.14-.6,2.14-1.79,0-1.13-.66-1.79-1.79-1.79h-2.46v3.58h2.11Z"></path><path class="cls-15" d="M120.4,156.12c0-1.84.99-3.34,2.81-3.34,1.96,0,2.76,1.53,2.76,2.94,0,.1-.01.4-.04.55h-4.76c.03,1.51.84,2.39,2.15,2.39.82,0,1.35-.23,1.91-.83l.55.49c-.73.75-1.43,1.05-2.46,1.05-1.89,0-2.91-1.41-2.91-3.25ZM125.22,155.69c0-.08,0-.16,0-.24,0-.92-.58-2.02-2-2.02-1.23,0-1.98.98-2.07,2.26h4.06Z"></path><path class="cls-15" d="M127.38,156.06c0-1.96,1.29-3.29,2.92-3.29,1.05,0,1.87.54,2.29,1.36v-3.92h.77v9.06h-.77v-1.26c-.44.85-1.25,1.35-2.29,1.35-1.72,0-2.92-1.42-2.92-3.3ZM130.43,158.65c1.3,0,2.23-1.08,2.23-2.58s-.93-2.58-2.23-2.58-2.26,1.09-2.26,2.58.95,2.58,2.26,2.58Z"></path><path class="cls-15" d="M135.4,152.87h.78v1.09c.43-.78,1.31-1.18,2.02-1.18.33,0,.66.07.99.24l-.39.7c-.21-.1-.51-.17-.77-.17-.68,0-1.46.36-1.74,1.3-.08.27-.12.57-.12,1.27v3.15h-.78v-6.41Z"></path><path class="cls-15" d="M139.78,156.06c0-1.92,1.25-3.29,3.05-3.29s3.04,1.36,3.04,3.29-1.27,3.3-3.04,3.3-3.05-1.36-3.05-3.3ZM142.83,158.67c1.37,0,2.26-1.04,2.26-2.61s-.9-2.61-2.26-2.61-2.27,1.05-2.27,2.61.9,2.61,2.27,2.61Z"></path><path class="cls-15" d="M147.31,156.06c0-1.92,1.25-3.29,3.05-3.29s3.04,1.36,3.04,3.29-1.27,3.3-3.04,3.3-3.05-1.36-3.05-3.3ZM150.36,158.67c1.37,0,2.26-1.04,2.26-2.61s-.9-2.61-2.26-2.61-2.27,1.05-2.27,2.61.9,2.61,2.27,2.61Z"></path><path class="cls-15" d="M155.15,152.87h.78v1.1c.38-.85,1.11-1.19,1.88-1.19.91,0,1.57.4,1.89,1.25.4-.83,1.09-1.25,2-1.25,1.55,0,2.13,1.16,2.13,2.68v3.82h-.78v-3.64c0-1.33-.39-2.18-1.52-2.18-1.02,0-1.65.77-1.65,2.26v3.57h-.78v-3.76c0-1.4-.52-2.07-1.5-2.07-1.03,0-1.67.79-1.67,2.26v3.57h-.78v-6.41Z"></path></g><g><path class="cls-15" d="M706.96,232.6h.81v8.33h4.18v.73h-4.99v-9.06Z"></path><path class="cls-15" d="M713.09,232.6h.94v1.39h-.94v-1.39ZM713.17,235.25h.77v6.41h-.77v-6.41Z"></path><path class="cls-15" d="M715.34,235.25h.86l2.1,5.42,2.11-5.42h.85l-2.61,6.41h-.68l-2.63-6.41Z"></path><path class="cls-15" d="M722.59,232.6h.94v1.39h-.94v-1.39ZM722.68,235.25h.77v6.41h-.77v-6.41Z"></path><path class="cls-15" d="M725.49,235.25h.78v1.05c.4-.76,1.12-1.14,2.01-1.14,1.38,0,2.2.81,2.2,2.51v3.99h-.78v-3.71c0-1.45-.55-2.11-1.61-2.11-1.16,0-1.83.79-1.83,2.55v3.27h-.78v-6.41Z"></path><path class="cls-15" d="M731.94,242.42s0-.1.03-.26l1.11-.88c-.57-.22-.96-.59-.96-1.26,0-.53.27-.9.72-1.2-.36-.37-.56-.87-.56-1.45,0-1.3,1.04-2.2,2.39-2.2.64,0,1.22.21,1.64.59l1.02-.86.4.49-1,.88c.19.33.3.71.3,1.14,0,1.28-.96,2.13-2.33,2.13-.53,0-.99-.12-1.37-.34-.31.18-.45.42-.45.72,0,.66.63.83,1.62.98,1.6.25,2.99.44,2.99,1.75,0,1.16-1.05,1.78-2.7,1.78-1.82,0-2.85-.7-2.85-2ZM734.8,243.81c1.09,0,1.92-.34,1.92-1.08,0-.86-1.16-.96-2.31-1.14-.31-.05-.6-.1-.89-.17l-.8.92c-.01.09-.01.11-.01.15,0,.9.79,1.33,2.09,1.33ZM734.67,238.89c.98,0,1.59-.65,1.59-1.53s-.64-1.56-1.58-1.56-1.62.65-1.62,1.55.63,1.55,1.61,1.55Z"></path><path class="cls-15" d="M742.02,239.58c0-1.38,1.09-2.1,2.23-2.72-.55-.7-1.08-1.38-1.08-2.28,0-1.23.99-2.06,2.29-2.06s2.1.76,2.1,1.83c0,1.31-1.07,2.03-2.19,2.67l2.21,2.6c.44-.64.73-1.5.88-2.52l.69.1c-.16,1.23-.55,2.24-1.1,2.98l1.21,1.42-.55.48-1.14-1.35c-.73.7-1.68,1.05-2.78,1.05-1.63,0-2.77-.81-2.77-2.2ZM744.79,241.1c.94,0,1.72-.32,2.33-.92l-2.39-2.81c-1,.55-1.91,1.11-1.91,2.17,0,.96.76,1.56,1.97,1.56ZM744.87,236.53c1.07-.58,1.97-1.16,1.97-2.18,0-.65-.42-1.21-1.37-1.21s-1.55.61-1.55,1.46c0,.71.46,1.31.95,1.93Z"></path><path class="cls-15" d="M754.42,232.6h2.43c2.94,0,4.62,1.68,4.62,4.6s-1.64,4.46-4.63,4.46h-2.42v-9.06ZM756.77,240.91c2.5,0,3.89-1.16,3.89-3.74s-1.4-3.83-3.82-3.83h-1.61v7.57h1.54Z"></path><path class="cls-15" d="M763.08,232.6h.94v1.39h-.94v-1.39ZM763.17,235.25h.77v6.41h-.77v-6.41Z"></path><path class="cls-15" d="M765.98,235.25h.78v1.05c.4-.76,1.12-1.14,2.01-1.14,1.38,0,2.2.81,2.2,2.51v3.99h-.78v-3.71c0-1.45-.55-2.11-1.61-2.11-1.16,0-1.83.79-1.83,2.55v3.27h-.78v-6.41Z"></path><path class="cls-15" d="M772.85,232.6h.94v1.39h-.94v-1.39ZM772.94,235.25h.77v6.41h-.77v-6.41Z"></path><path class="cls-15" d="M775.74,235.25h.78v1.05c.4-.76,1.12-1.14,2.01-1.14,1.38,0,2.2.81,2.2,2.51v3.99h-.78v-3.71c0-1.45-.55-2.11-1.61-2.11-1.16,0-1.83.79-1.83,2.55v3.27h-.78v-6.41Z"></path><path class="cls-15" d="M782.2,242.42s0-.1.03-.26l1.11-.88c-.57-.22-.96-.59-.96-1.26,0-.53.27-.9.72-1.2-.36-.37-.56-.87-.56-1.45,0-1.3,1.04-2.2,2.38-2.2.64,0,1.22.21,1.64.59l1.02-.86.4.49-1,.88c.19.33.3.71.3,1.14,0,1.28-.96,2.13-2.33,2.13-.53,0-.99-.12-1.37-.34-.31.18-.45.42-.45.72,0,.66.63.83,1.62.98,1.6.25,2.99.44,2.99,1.75,0,1.16-1.05,1.78-2.7,1.78-1.82,0-2.85-.7-2.85-2ZM785.06,243.81c1.09,0,1.92-.34,1.92-1.08,0-.86-1.16-.96-2.31-1.14-.31-.05-.6-.1-.89-.17l-.8.92c-.01.09-.01.11-.01.15,0,.9.79,1.33,2.09,1.33ZM784.93,238.89c.98,0,1.59-.65,1.59-1.53s-.64-1.56-1.58-1.56-1.62.65-1.62,1.55.63,1.55,1.61,1.55Z"></path><path class="cls-15" d="M792.68,232.6h2.52c1.99,0,2.97.93,2.97,2.5,0,1.25-.64,2.07-1.85,2.38l2.44,4.19h-.92l-2.34-4.07c-.21,0-.44,0-.65,0h-1.36v4.06h-.81v-9.06ZM795.13,236.88c1.38,0,2.24-.55,2.24-1.78s-.88-1.77-2.24-1.77h-1.64v3.56h1.64Z"></path><path class="cls-15" d="M799.69,238.45c0-1.92,1.25-3.29,3.05-3.29s3.04,1.37,3.04,3.29-1.27,3.3-3.04,3.3-3.05-1.36-3.05-3.3ZM802.74,241.06c1.37,0,2.26-1.04,2.26-2.61s-.9-2.61-2.26-2.61-2.28,1.05-2.28,2.61.9,2.61,2.28,2.61Z"></path><path class="cls-15" d="M807.22,238.45c0-1.92,1.25-3.29,3.05-3.29s3.04,1.37,3.04,3.29-1.27,3.3-3.04,3.3-3.05-1.36-3.05-3.3ZM810.27,241.06c1.37,0,2.26-1.04,2.26-2.61s-.9-2.61-2.26-2.61-2.28,1.05-2.28,2.61.9,2.61,2.28,2.61Z"></path><path class="cls-15" d="M815.06,235.25h.78v1.1c.38-.85,1.11-1.19,1.88-1.19.91,0,1.57.4,1.89,1.25.4-.83,1.09-1.25,2-1.25,1.55,0,2.13,1.16,2.13,2.69v3.82h-.78v-3.64c0-1.33-.39-2.18-1.52-2.18-1.02,0-1.65.77-1.65,2.26v3.57h-.78v-3.76c0-1.4-.52-2.07-1.5-2.07-1.03,0-1.67.79-1.67,2.26v3.57h-.78v-6.41Z"></path></g><g><path class="cls-15" d="M1023.37,517.77h2.72c1.68,0,2.68.84,2.68,2.25,0,.94-.46,1.68-1.24,2,1.1.25,1.7,1.07,1.7,2.31,0,1.61-1.02,2.5-2.88,2.5h-2.97v-9.06ZM1026.34,521.78c.98,0,1.63-.64,1.63-1.64s-.69-1.61-1.88-1.61h-1.91v3.26h2.16ZM1026.29,526.09c1.42,0,2.14-.6,2.14-1.79,0-1.13-.66-1.79-1.79-1.79h-2.46v3.58h2.11Z"></path><path class="cls-15" d="M1030.67,523.68c0-1.84.99-3.34,2.81-3.34,1.96,0,2.76,1.53,2.76,2.94,0,.1-.01.4-.04.55h-4.76c.03,1.51.84,2.39,2.14,2.39.82,0,1.35-.23,1.91-.83l.55.49c-.73.75-1.43,1.05-2.46,1.05-1.89,0-2.91-1.41-2.91-3.25ZM1035.48,523.25c0-.08,0-.16,0-.24,0-.92-.58-2.01-2-2.01-1.23,0-1.98.98-2.07,2.26h4.06Z"></path><path class="cls-15" d="M1037.64,523.62c0-1.96,1.29-3.29,2.92-3.29,1.05,0,1.87.54,2.29,1.36v-3.92h.77v9.06h-.77v-1.26c-.44.84-1.25,1.35-2.29,1.35-1.72,0-2.92-1.42-2.92-3.3ZM1040.68,526.2c1.3,0,2.23-1.08,2.23-2.58s-.93-2.58-2.23-2.58-2.26,1.09-2.26,2.58.95,2.58,2.26,2.58Z"></path><path class="cls-15" d="M1045.65,520.43h.78v1.09c.43-.78,1.31-1.18,2.02-1.18.33,0,.66.07.99.24l-.39.7c-.21-.1-.51-.17-.77-.17-.68,0-1.46.36-1.74,1.3-.08.27-.12.57-.12,1.27v3.15h-.78v-6.41Z"></path><path class="cls-15" d="M1050.03,523.62c0-1.92,1.25-3.29,3.05-3.29s3.04,1.37,3.04,3.29-1.27,3.3-3.04,3.3-3.05-1.37-3.05-3.3ZM1053.08,526.23c1.37,0,2.26-1.04,2.26-2.61s-.9-2.61-2.26-2.61-2.28,1.05-2.28,2.61.9,2.61,2.28,2.61Z"></path><path class="cls-15" d="M1057.56,523.62c0-1.92,1.25-3.29,3.05-3.29s3.04,1.37,3.04,3.29-1.27,3.3-3.04,3.3-3.05-1.37-3.05-3.3ZM1060.61,526.23c1.37,0,2.26-1.04,2.26-2.61s-.9-2.61-2.26-2.61-2.28,1.05-2.28,2.61.9,2.61,2.28,2.61Z"></path><path class="cls-15" d="M1065.4,520.43h.78v1.1c.38-.84,1.11-1.19,1.88-1.19.91,0,1.57.4,1.89,1.25.4-.83,1.09-1.25,2-1.25,1.55,0,2.13,1.16,2.13,2.68v3.82h-.78v-3.64c0-1.33-.39-2.18-1.52-2.18-1.02,0-1.65.77-1.65,2.26v3.57h-.78v-3.76c0-1.4-.52-2.07-1.5-2.07-1.03,0-1.67.79-1.67,2.26v3.57h-.78v-6.41Z"></path></g><g><path class="cls-15" d="M1059.15,233.2h2.43c2.94,0,4.62,1.68,4.62,4.6s-1.64,4.46-4.63,4.46h-2.42v-9.06ZM1061.5,241.52c2.5,0,3.89-1.16,3.89-3.74s-1.4-3.83-3.82-3.83h-1.61v7.57h1.54Z"></path><path class="cls-15" d="M1067.66,239.11c0-1.84.99-3.34,2.81-3.34,1.96,0,2.76,1.53,2.76,2.94,0,.1-.01.4-.04.55h-4.76c.03,1.51.84,2.39,2.14,2.39.82,0,1.35-.23,1.91-.83l.55.49c-.73.75-1.43,1.05-2.46,1.05-1.89,0-2.91-1.41-2.91-3.25ZM1072.47,238.68c0-.08,0-.16,0-.24,0-.92-.58-2.02-2-2.02-1.23,0-1.98.98-2.07,2.26h4.06Z"></path><path class="cls-15" d="M1074.64,239.06c0-1.83,1.06-3.29,2.86-3.29,1.17,0,2.09.58,2.51,1.74l-.7.27c-.27-.82-.9-1.33-1.81-1.33-1.42,0-2.09,1.25-2.09,2.61s.68,2.62,2.09,2.62c.91,0,1.53-.51,1.81-1.33l.7.27c-.42,1.16-1.34,1.75-2.51,1.75-1.8,0-2.86-1.46-2.86-3.3Z"></path><path class="cls-15" d="M1083.71,238.74l-1.3,1.37v2.16h-.78v-9.06h.78v5.9l3.15-3.24h1.01l-2.28,2.35,2.67,4.06h-.92l-2.31-3.53Z"></path></g><g><path class="cls-15" d="M853.14,398.04h.81v4.86l4.65-4.86h1.09l-3.45,3.54,3.48,5.52h-.95l-3.11-4.93-1.71,1.75v3.17h-.81v-9.06Z"></path><path class="cls-15" d="M860.87,398.04h.94v1.39h-.94v-1.39ZM860.95,400.7h.77v6.41h-.77v-6.41Z"></path><path class="cls-15" d="M864.52,405.62v-4.31h-1.42v-.62h1.42v-1.85l.79-.46v2.31h1.54v.62h-1.54v4.12c0,.71.22,1.11.81,1.11.19,0,.46-.04.73-.12v.62c-.32.1-.64.16-.92.16-.85,0-1.4-.49-1.4-1.57Z"></path><path class="cls-15" d="M867.87,403.9c0-1.83,1.06-3.29,2.86-3.29,1.17,0,2.09.58,2.51,1.74l-.7.27c-.27-.82-.9-1.33-1.81-1.33-1.42,0-2.09,1.25-2.09,2.61s.68,2.62,2.09,2.62c.91,0,1.53-.51,1.81-1.33l.7.27c-.42,1.16-1.34,1.75-2.51,1.75-1.8,0-2.86-1.46-2.86-3.3Z"></path><path class="cls-15" d="M874.87,398.04h.78v3.69c.4-.75,1.1-1.13,2.01-1.13,1.4,0,2.2.85,2.2,2.51v3.99h-.78v-3.71c0-1.43-.53-2.11-1.61-2.11-1.18,0-1.83.83-1.83,2.55v3.27h-.78v-9.06Z"></path><path class="cls-15" d="M881.5,403.95c0-1.84.99-3.34,2.81-3.34,1.96,0,2.76,1.53,2.76,2.94,0,.1-.01.4-.04.55h-4.76c.03,1.51.84,2.39,2.14,2.39.82,0,1.35-.23,1.91-.83l.55.49c-.73.75-1.43,1.05-2.46,1.05-1.89,0-2.91-1.41-2.91-3.25ZM886.32,403.52c0-.08,0-.16,0-.24,0-.92-.58-2.01-2-2.01-1.23,0-1.98.98-2.07,2.26h4.06Z"></path><path class="cls-15" d="M888.81,400.7h.78v1.05c.4-.76,1.12-1.14,2.01-1.14,1.38,0,2.2.81,2.2,2.51v3.99h-.78v-3.71c0-1.45-.55-2.11-1.61-2.11-1.16,0-1.83.79-1.83,2.55v3.27h-.78v-6.41Z"></path></g><g><path class="cls-15" d="M692.2,470.15h5.86v.73h-5.06v3.37h4.39v.73h-4.39v4.24h-.81v-9.06Z"></path><path class="cls-15" d="M698.79,476c0-1.92,1.25-3.29,3.05-3.29s3.04,1.37,3.04,3.29-1.27,3.3-3.04,3.3-3.05-1.37-3.05-3.3ZM701.84,478.61c1.37,0,2.26-1.04,2.26-2.61s-.9-2.61-2.26-2.61-2.28,1.05-2.28,2.61.9,2.61,2.28,2.61Z"></path><path class="cls-15" d="M708.36,479.01l-2.55-6.21h.86l2.1,5.42,2.11-5.42h.85l-3.69,9.05h-.84l1.17-2.84Z"></path><path class="cls-15" d="M712.69,476.06c0-1.84.99-3.34,2.81-3.34,1.96,0,2.76,1.53,2.76,2.94,0,.1-.01.4-.04.55h-4.76c.03,1.51.84,2.39,2.14,2.39.82,0,1.35-.23,1.91-.83l.55.49c-.73.75-1.43,1.05-2.46,1.05-1.89,0-2.91-1.41-2.91-3.25ZM717.5,475.63c0-.08,0-.16,0-.24,0-.92-.58-2.01-2-2.01-1.23,0-1.98.98-2.07,2.26h4.06Z"></path><path class="cls-15" d="M719.98,472.81h.78v1.09c.43-.78,1.31-1.18,2.02-1.18.33,0,.66.07.99.24l-.39.7c-.21-.1-.51-.17-.77-.17-.68,0-1.46.36-1.74,1.3-.08.27-.12.57-.12,1.27v3.15h-.78v-6.41Z"></path></g><g><path class="cls-15" d="M365.58,295.06h2.72c1.68,0,2.68.84,2.68,2.25,0,.94-.46,1.68-1.24,2,1.1.25,1.7,1.07,1.7,2.31,0,1.61-1.02,2.5-2.88,2.5h-2.97v-9.06ZM368.55,299.06c.98,0,1.63-.64,1.63-1.64s-.69-1.61-1.88-1.61h-1.91v3.26h2.16ZM368.5,303.37c1.42,0,2.14-.6,2.14-1.79,0-1.13-.66-1.79-1.79-1.79h-2.46v3.58h2.11Z"></path><path class="cls-15" d="M372.88,300.96c0-1.84.99-3.34,2.81-3.34,1.96,0,2.76,1.53,2.76,2.94,0,.1-.01.4-.04.55h-4.76c.03,1.51.84,2.39,2.14,2.39.82,0,1.35-.23,1.91-.83l.55.49c-.73.75-1.43,1.05-2.46,1.05-1.89,0-2.91-1.41-2.91-3.25ZM377.69,300.53c0-.08,0-.16,0-.24,0-.92-.58-2.02-2-2.02-1.23,0-1.98.98-2.07,2.26h4.06Z"></path><path class="cls-15" d="M379.84,300.91c0-1.96,1.29-3.29,2.92-3.29,1.05,0,1.87.54,2.29,1.36v-3.92h.77v9.06h-.77v-1.26c-.44.85-1.25,1.35-2.29,1.35-1.72,0-2.92-1.42-2.92-3.3ZM382.89,303.49c1.3,0,2.23-1.08,2.23-2.58s-.93-2.58-2.23-2.58-2.26,1.09-2.26,2.58.95,2.58,2.26,2.58Z"></path><path class="cls-15" d="M387.86,297.71h.78v1.09c.43-.78,1.31-1.18,2.02-1.18.33,0,.66.07.99.24l-.39.7c-.21-.1-.51-.17-.77-.17-.68,0-1.46.36-1.74,1.3-.08.27-.12.57-.12,1.27v3.15h-.78v-6.41Z"></path><path class="cls-15" d="M392.24,300.91c0-1.92,1.25-3.29,3.05-3.29s3.04,1.36,3.04,3.29-1.27,3.3-3.04,3.3-3.05-1.36-3.05-3.3ZM395.29,303.52c1.37,0,2.26-1.04,2.26-2.61s-.9-2.61-2.26-2.61-2.28,1.05-2.28,2.61.9,2.61,2.28,2.61Z"></path><path class="cls-15" d="M399.77,300.91c0-1.92,1.25-3.29,3.05-3.29s3.04,1.36,3.04,3.29-1.27,3.3-3.04,3.3-3.05-1.36-3.05-3.3ZM402.82,303.52c1.37,0,2.26-1.04,2.26-2.61s-.9-2.61-2.26-2.61-2.28,1.05-2.28,2.61.9,2.61,2.28,2.61Z"></path><path class="cls-15" d="M407.61,297.71h.78v1.1c.38-.85,1.11-1.19,1.88-1.19.91,0,1.57.4,1.89,1.25.4-.83,1.09-1.25,2-1.25,1.55,0,2.13,1.16,2.13,2.68v3.82h-.78v-3.64c0-1.33-.39-2.18-1.52-2.18-1.02,0-1.65.77-1.65,2.26v3.57h-.78v-3.76c0-1.4-.52-2.07-1.5-2.07-1.03,0-1.67.79-1.67,2.26v3.57h-.78v-6.41Z"></path></g><g><path class="cls-15" d="M269.82,143.12h2.43c2.94,0,4.62,1.68,4.62,4.6s-1.64,4.46-4.63,4.46h-2.42v-9.06ZM272.17,151.43c2.5,0,3.89-1.16,3.89-3.74s-1.4-3.83-3.82-3.83h-1.61v7.57h1.54Z"></path><path class="cls-15" d="M278.33,149.02c0-1.84.99-3.34,2.81-3.34,1.96,0,2.76,1.53,2.76,2.94,0,.1-.01.4-.04.55h-4.76c.03,1.51.84,2.39,2.15,2.39.82,0,1.35-.23,1.91-.83l.55.49c-.73.75-1.43,1.05-2.46,1.05-1.89,0-2.91-1.41-2.91-3.25ZM283.14,148.59c0-.08,0-.16,0-.24,0-.92-.58-2.02-2-2.02-1.23,0-1.98.98-2.07,2.26h4.06Z"></path><path class="cls-15" d="M285.31,148.97c0-1.83,1.06-3.29,2.86-3.29,1.17,0,2.09.58,2.51,1.74l-.7.27c-.27-.82-.9-1.33-1.81-1.33-1.42,0-2.09,1.25-2.09,2.61s.68,2.62,2.09,2.62c.91,0,1.53-.51,1.81-1.33l.7.27c-.42,1.16-1.34,1.75-2.51,1.75-1.8,0-2.86-1.46-2.86-3.3Z"></path><path class="cls-15" d="M294.37,148.65l-1.3,1.37v2.16h-.78v-9.06h.78v5.9l3.15-3.24h1.01l-2.28,2.35,2.67,4.06h-.92l-2.31-3.53Z"></path></g><g><path class="cls-15" d="M704.18,556.26c0-2.16,1.26-3.58,3.16-3.58,1.35,0,2.39.71,2.84,1.89l-.58.22c-.38-.96-1.17-1.52-2.26-1.52-1.55,0-2.54,1.17-2.54,2.99s.99,3,2.54,3c1.09,0,1.89-.56,2.26-1.52l.58.21c-.45,1.18-1.49,1.9-2.84,1.9-1.89,0-3.16-1.42-3.16-3.59Z"></path><path class="cls-15" d="M711.17,556.26c0-2.16,1.26-3.58,3.16-3.58,1.35,0,2.39.71,2.84,1.89l-.58.22c-.38-.96-1.17-1.52-2.26-1.52-1.55,0-2.54,1.17-2.54,2.99s.99,3,2.54,3c1.09,0,1.89-.56,2.26-1.52l.58.21c-.45,1.18-1.49,1.9-2.84,1.9-1.89,0-3.16-1.42-3.16-3.59Z"></path></g><g><path class="cls-18" d="M580.99.06h.5v5.12h2.57v.45h-3.07V.06Z"></path><path class="cls-18" d="M584.59,3.69c0-1.13.61-2.05,1.73-2.05,1.21,0,1.7.94,1.7,1.81,0,.06,0,.24-.02.34h-2.93c.02.93.52,1.47,1.32,1.47.5,0,.83-.14,1.17-.51l.34.3c-.45.46-.88.65-1.51.65-1.16,0-1.79-.87-1.79-2ZM587.55,3.43s0-.1,0-.15c0-.57-.36-1.24-1.23-1.24-.75,0-1.22.6-1.27,1.39h2.49Z"></path><path class="cls-18" d="M588.95,3.66c0-1.21.79-2.02,1.8-2.02.64,0,1.15.33,1.41.84V.06h.47v5.57h-.47v-.78c-.27.52-.77.83-1.41.83-1.06,0-1.8-.88-1.8-2.03ZM590.82,5.25c.8,0,1.37-.66,1.37-1.59s-.57-1.59-1.37-1.59-1.39.67-1.39,1.59.58,1.59,1.39,1.59Z"></path><path class="cls-18" d="M593.7,6.1s0-.06.02-.16l.68-.54c-.35-.14-.59-.36-.59-.78,0-.32.16-.55.44-.74-.22-.23-.34-.54-.34-.89,0-.8.64-1.35,1.47-1.35.4,0,.75.13,1.01.36l.63-.53.24.3-.62.54c.12.2.18.44.18.7,0,.79-.59,1.31-1.44,1.31-.32,0-.61-.08-.84-.21-.19.11-.28.26-.28.44,0,.41.39.51,1,.6.98.15,1.84.27,1.84,1.08,0,.72-.64,1.1-1.66,1.1-1.12,0-1.75-.43-1.75-1.23ZM595.46,6.96c.67,0,1.18-.21,1.18-.66,0-.53-.71-.59-1.42-.7-.19-.03-.37-.06-.55-.1l-.49.56c0,.06,0,.07,0,.09,0,.55.49.82,1.29.82ZM595.38,3.93c.6,0,.98-.4.98-.94s-.39-.96-.97-.96-1,.4-1,.95.39.95.99.95Z"></path><path class="cls-18" d="M597.85,3.69c0-1.13.61-2.05,1.73-2.05,1.21,0,1.7.94,1.7,1.81,0,.06,0,.24-.02.34h-2.93c.02.93.52,1.47,1.32,1.47.5,0,.83-.14,1.17-.51l.34.3c-.45.46-.88.65-1.51.65-1.16,0-1.79-.87-1.79-2ZM600.81,3.43s0-.1,0-.15c0-.57-.36-1.24-1.23-1.24-.75,0-1.22.6-1.27,1.39h2.49Z"></path><path class="cls-18" d="M607.19,4.9c-.26.5-.77.8-1.38.8-.88,0-1.42-.48-1.42-1.2,0-.42.18-.71.44-.89.28-.19.67-.26,1.09-.26h1.26v-.17c0-.73-.38-1.13-1.12-1.13-.48,0-.86.18-1.22.63l-.34-.3c.42-.52.94-.75,1.59-.75,1,0,1.56.55,1.56,1.54v2.45h-.44l-.02-.74ZM605.85,5.3c.72,0,1.33-.57,1.33-1.35v-.22h-1.2c-.32,0-.63.05-.84.2-.17.13-.27.31-.27.58,0,.49.37.8.98.8Z"></path><path class="cls-18" d="M609.34,4.73v-2.65h-.88v-.38h.88V.56l.48-.28v1.42h.95v.38h-.95v2.53c0,.44.14.68.5.68.12,0,.28-.02.45-.08v.38c-.2.06-.4.1-.57.1-.52,0-.86-.3-.86-.97Z"></path><path class="cls-18" d="M616.69,1.67c0-.73-.43-1.2-1.19-1.2-.83,0-1.26.58-1.27,1.45l-.47-.03c0-1.07.62-1.88,1.76-1.88.99,0,1.64.65,1.64,1.65,0,1.49-1.5,2.65-2.81,3.53h3.04v.45h-3.64v-.44c1.02-.82,2.94-2.02,2.94-3.53Z"></path><path class="cls-18" d="M620.31,1.35h-1.47v-.39h1.03c.29,0,.44-.1.44-.41V.06h.48v5.57h-.48V1.35Z"></path><path class="cls-18" d="M622.94,2.84c0-1.33.3-2.84,1.72-2.84s1.75,1.39,1.75,2.85-.4,2.84-1.72,2.84c-1.44,0-1.75-1.51-1.75-2.85ZM624.7,5.23c.88,0,1.23-1,1.23-2.36s-.36-2.41-1.26-2.41c-.96,0-1.23,1.1-1.23,2.39s.28,2.38,1.26,2.38Z"></path><path class="cls-18" d="M627.26,3.99l.48-.02c0,.78.58,1.27,1.48,1.27s1.44-.47,1.44-1.2c0-.9-.86-1.14-1.78-1.14v-.38c.7,0,1.48-.21,1.48-1.03,0-.6-.48-1.01-1.16-1.01-.74,0-1.19.44-1.2,1.09l-.47-.02c0-.9.7-1.52,1.68-1.52s1.62.6,1.62,1.42c0,.74-.55,1.08-1.1,1.22.67.11,1.4.5,1.4,1.39,0,.98-.78,1.66-1.93,1.66s-1.94-.68-1.94-1.71Z"></path><path class="cls-18" d="M634.14,3.66c0-1.18.77-2.02,1.88-2.02s1.87.84,1.87,2.02-.78,2.03-1.87,2.03-1.88-.84-1.88-2.03ZM636.02,5.27c.84,0,1.39-.64,1.39-1.6s-.55-1.6-1.39-1.6-1.4.64-1.4,1.6.56,1.6,1.4,1.6Z"></path><path class="cls-18" d="M639.04,1.69h.48v.64c.25-.47.69-.7,1.24-.7.85,0,1.36.5,1.36,1.54v2.45h-.48v-2.28c0-.89-.34-1.3-.99-1.3-.71,0-1.13.48-1.13,1.57v2.01h-.48V1.69Z"></path><path class="cls-18" d="M643.32,4.82V.06h.48v4.67c0,.37.14.52.39.52.1,0,.24-.02.38-.07v.41c-.18.07-.37.1-.52.1-.44,0-.72-.27-.72-.88Z"></path><path class="cls-18" d="M646.38,5.51l-1.57-3.82h.53l1.29,3.33,1.3-3.33h.52l-2.27,5.56h-.52l.72-1.75Z"></path></g><g><path class="cls-18" d="M396.55,195.23h1.55c1.17,0,1.83.55,1.83,1.56s-.66,1.56-1.83,1.56h-1.06v2.45h-.49v-5.57ZM398.05,197.91c.87,0,1.38-.38,1.38-1.12s-.5-1.11-1.38-1.11h-1.01v2.23h1.01Z"></path><path class="cls-18" d="M400.94,196.86h.48v.67c.26-.48.8-.73,1.24-.73.2,0,.4.04.61.15l-.24.43c-.13-.06-.31-.1-.47-.1-.42,0-.9.22-1.07.8-.05.17-.07.35-.07.78v1.94h-.48v-3.94Z"></path><path class="cls-18" d="M404.12,195.23h.58v.86h-.58v-.86ZM404.17,196.86h.47v3.94h-.47v-3.94Z"></path><path class="cls-18" d="M405.59,196.86h.53l1.29,3.33,1.3-3.33h.52l-1.61,3.94h-.42l-1.61-3.94Z"></path><path class="cls-18" d="M412.74,200.06c-.26.5-.77.8-1.38.8-.88,0-1.42-.48-1.42-1.2,0-.42.18-.71.44-.89.28-.19.67-.26,1.09-.26h1.26v-.17c0-.73-.38-1.13-1.12-1.13-.48,0-.86.18-1.22.63l-.34-.3c.42-.52.94-.75,1.59-.75,1,0,1.56.55,1.56,1.54v2.45h-.44l-.02-.74ZM411.4,200.46c.72,0,1.33-.57,1.33-1.35v-.22h-1.2c-.32,0-.63.05-.84.2-.17.13-.27.31-.27.58,0,.49.37.8.98.8Z"></path><path class="cls-18" d="M414.27,198.83c0-1.13.65-2.02,1.76-2.02.72,0,1.28.36,1.54,1.07l-.43.17c-.17-.5-.55-.82-1.11-.82-.87,0-1.29.77-1.29,1.61s.42,1.61,1.29,1.61c.56,0,.94-.31,1.11-.82l.43.16c-.26.71-.82,1.08-1.54,1.08-1.11,0-1.76-.9-1.76-2.03Z"></path><path class="cls-18" d="M419.77,200.68l-1.57-3.82h.53l1.29,3.33,1.3-3.33h.52l-2.27,5.56h-.52l.72-1.75Z"></path></g><g><path class="cls-18" d="M396.32,207.61c0-1.72,1-2.86,2.52-2.86,1.08,0,1.91.57,2.27,1.51l-.46.18c-.3-.77-.94-1.22-1.81-1.22-1.24,0-2.03.93-2.03,2.39s.79,2.39,2.03,2.39c.83,0,1.82-.4,1.82-1.89v-.13h-1.43v-.45h1.87v2.86h-.44l-.05-.96c-.33.74-1.06,1.03-1.8,1.03-1.49,0-2.49-1.14-2.49-2.87Z"></path><path class="cls-18" d="M402.3,209.58v-4.75h.48v4.67c0,.37.14.52.39.52.1,0,.24-.02.38-.07v.41c-.18.07-.37.1-.52.1-.44,0-.72-.27-.72-.88Z"></path><path class="cls-18" d="M407.12,209.66c-.26.5-.77.8-1.38.8-.88,0-1.42-.48-1.42-1.2,0-.42.18-.71.44-.89.28-.19.67-.26,1.09-.26h1.26v-.17c0-.73-.38-1.13-1.12-1.13-.48,0-.86.18-1.22.63l-.34-.3c.42-.52.94-.75,1.59-.75,1,0,1.56.55,1.56,1.54v2.45h-.44l-.02-.74ZM405.78,210.06c.72,0,1.33-.57,1.33-1.35v-.22h-1.2c-.32,0-.63.05-.84.2-.17.13-.27.31-.27.58,0,.49.37.8.98.8Z"></path><path class="cls-18" d="M408.46,209.56l.34-.28c.2.46.66.77,1.26.77.57,0,.95-.27.95-.72,0-.55-.53-.68-1.1-.82-.66-.16-1.23-.38-1.23-1.06,0-.62.53-1.05,1.29-1.05.6,0,1.1.26,1.37.76l-.37.21c-.21-.38-.57-.58-1.01-.58-.48,0-.84.24-.84.62,0,.4.36.54.93.68.67.16,1.43.34,1.43,1.2,0,.71-.56,1.17-1.42,1.17-.79,0-1.35-.4-1.6-.9Z"></path><path class="cls-18" d="M412.27,209.56l.34-.28c.2.46.66.77,1.26.77.57,0,.95-.27.95-.72,0-.55-.53-.68-1.1-.82-.66-.16-1.23-.38-1.23-1.06,0-.62.53-1.05,1.29-1.05.6,0,1.1.26,1.37.76l-.37.21c-.21-.38-.57-.58-1.01-.58-.48,0-.84.24-.84.62,0,.4.36.54.93.68.67.16,1.43.34,1.43,1.2,0,.71-.56,1.17-1.42,1.17-.79,0-1.35-.4-1.6-.9Z"></path></g><g><path class="cls-18" d="M288.22,195.23h1.55c1.17,0,1.83.55,1.83,1.56s-.66,1.56-1.83,1.56h-1.06v2.45h-.49v-5.57ZM289.72,197.91c.87,0,1.38-.38,1.38-1.12s-.5-1.11-1.38-1.11h-1.01v2.23h1.01Z"></path><path class="cls-18" d="M292.6,196.86h.48v.67c.26-.48.8-.73,1.24-.73.2,0,.4.04.61.15l-.24.43c-.13-.06-.31-.1-.47-.1-.42,0-.9.22-1.07.8-.05.17-.07.35-.07.78v1.94h-.48v-3.94Z"></path><path class="cls-18" d="M295.79,195.23h.58v.86h-.58v-.86ZM295.84,196.86h.47v3.94h-.47v-3.94Z"></path><path class="cls-18" d="M297.26,196.86h.53l1.29,3.33,1.3-3.33h.52l-1.61,3.94h-.42l-1.62-3.94Z"></path><path class="cls-18" d="M304.41,200.06c-.26.5-.77.8-1.38.8-.88,0-1.42-.48-1.42-1.2,0-.42.18-.71.44-.89.28-.19.67-.26,1.09-.26h1.26v-.17c0-.73-.38-1.13-1.12-1.13-.48,0-.86.18-1.22.63l-.34-.3c.42-.52.94-.75,1.59-.75,1,0,1.56.55,1.56,1.54v2.45h-.44l-.02-.74ZM303.07,200.46c.72,0,1.33-.57,1.33-1.35v-.22h-1.2c-.32,0-.63.05-.84.2-.17.13-.27.31-.27.58,0,.49.37.8.98.8Z"></path><path class="cls-18" d="M305.94,198.83c0-1.13.65-2.02,1.76-2.02.72,0,1.28.36,1.54,1.07l-.43.17c-.17-.5-.55-.82-1.11-.82-.87,0-1.29.77-1.29,1.61s.42,1.61,1.29,1.61c.56,0,.94-.31,1.11-.82l.43.16c-.26.71-.82,1.08-1.54,1.08-1.11,0-1.76-.9-1.76-2.03Z"></path><path class="cls-18" d="M311.44,200.68l-1.57-3.82h.53l1.29,3.33,1.3-3.33h.52l-2.27,5.56h-.52l.72-1.75Z"></path></g><g><path class="cls-18" d="M287.99,207.61c0-1.72,1-2.86,2.52-2.86,1.08,0,1.91.57,2.27,1.51l-.46.18c-.3-.77-.94-1.22-1.81-1.22-1.24,0-2.03.93-2.03,2.39s.79,2.39,2.03,2.39c.83,0,1.82-.4,1.82-1.89v-.13h-1.43v-.45h1.87v2.86h-.44l-.05-.96c-.33.74-1.06,1.03-1.8,1.03-1.49,0-2.49-1.14-2.49-2.87Z"></path><path class="cls-18" d="M293.97,209.58v-4.75h.48v4.67c0,.37.14.52.39.52.1,0,.24-.02.38-.07v.41c-.18.07-.37.1-.52.1-.44,0-.72-.27-.72-.88Z"></path><path class="cls-18" d="M298.79,209.66c-.26.5-.77.8-1.38.8-.88,0-1.42-.48-1.42-1.2,0-.42.18-.71.44-.89.28-.19.67-.26,1.09-.26h1.26v-.17c0-.73-.38-1.13-1.12-1.13-.48,0-.86.18-1.22.63l-.34-.3c.42-.52.94-.75,1.59-.75,1,0,1.56.55,1.56,1.54v2.45h-.44l-.02-.74ZM297.45,210.06c.72,0,1.33-.57,1.33-1.35v-.22h-1.2c-.32,0-.63.05-.84.2-.17.13-.27.31-.27.58,0,.49.37.8.98.8Z"></path><path class="cls-18" d="M300.13,209.56l.34-.28c.2.46.66.77,1.26.77.57,0,.95-.27.95-.72,0-.55-.53-.68-1.1-.82-.66-.16-1.23-.38-1.23-1.06,0-.62.53-1.05,1.3-1.05.6,0,1.1.26,1.37.76l-.37.21c-.21-.38-.57-.58-1.02-.58-.48,0-.84.24-.84.62,0,.4.36.54.93.68.67.16,1.44.34,1.44,1.2,0,.71-.56,1.17-1.42,1.17-.79,0-1.35-.4-1.6-.9Z"></path><path class="cls-18" d="M303.94,209.56l.34-.28c.2.46.66.77,1.26.77.57,0,.95-.27.95-.72,0-.55-.53-.68-1.1-.82-.66-.16-1.23-.38-1.23-1.06,0-.62.53-1.05,1.3-1.05.6,0,1.1.26,1.37.76l-.37.21c-.21-.38-.57-.58-1.02-.58-.48,0-.84.24-.84.62,0,.4.36.54.93.68.67.16,1.44.34,1.44,1.2,0,.71-.56,1.17-1.42,1.17-.79,0-1.35-.4-1.6-.9Z"></path></g><g><path class="cls-18" d="M593.46,235.15h3.61v.45h-3.11v2.07h2.7v.45h-2.7v2.61h-.5v-5.57Z"></path><path class="cls-18" d="M597.81,235.15h.58v.86h-.58v-.86ZM597.86,236.78h.47v3.94h-.47v-3.94Z"></path><path class="cls-18" d="M599.66,236.78h.48v.67c.26-.48.8-.73,1.24-.73.2,0,.4.04.61.15l-.24.43c-.13-.06-.31-.1-.47-.1-.42,0-.9.22-1.07.8-.05.17-.07.35-.07.78v1.94h-.48v-3.94Z"></path><path class="cls-18" d="M602.45,238.78c0-1.13.61-2.06,1.73-2.06,1.21,0,1.7.94,1.7,1.81,0,.06,0,.24-.02.34h-2.93c.02.93.52,1.47,1.32,1.47.5,0,.83-.14,1.17-.51l.34.3c-.45.46-.88.65-1.51.65-1.16,0-1.79-.87-1.79-2ZM605.41,238.51s0-.1,0-.15c0-.57-.36-1.24-1.23-1.24-.75,0-1.22.6-1.27,1.39h2.49Z"></path><path class="cls-18" d="M610.7,238.75c0,1.21-.79,2.02-1.79,2.02-.64,0-1.15-.33-1.41-.84v2.41h-.47v-5.57h.47v.78c.27-.52.77-.83,1.41-.83,1.06,0,1.79.88,1.79,2.03ZM608.83,240.34c.81,0,1.39-.67,1.39-1.59s-.58-1.59-1.39-1.59-1.37.66-1.37,1.59.57,1.59,1.37,1.59Z"></path><path class="cls-18" d="M611.83,239.9v-4.75h.48v4.67c0,.37.14.52.39.52.1,0,.24-.02.38-.07v.41c-.18.07-.37.1-.52.1-.44,0-.72-.27-.72-.88Z"></path><path class="cls-18" d="M616.65,239.98c-.26.5-.77.8-1.38.8-.88,0-1.42-.48-1.42-1.2,0-.42.18-.71.44-.89.28-.19.67-.26,1.09-.26h1.26v-.17c0-.73-.38-1.13-1.12-1.13-.48,0-.86.18-1.22.63l-.34-.3c.42-.52.94-.75,1.59-.75,1,0,1.56.55,1.56,1.54v2.45h-.44l-.02-.74ZM615.31,240.38c.72,0,1.33-.57,1.33-1.35v-.22h-1.2c-.32,0-.63.05-.84.2-.17.13-.27.31-.27.58,0,.49.37.8.98.8Z"></path><path class="cls-18" d="M618.19,238.75c0-1.13.65-2.02,1.76-2.02.72,0,1.28.36,1.54,1.07l-.43.17c-.17-.5-.55-.82-1.11-.82-.87,0-1.29.77-1.29,1.61s.42,1.61,1.29,1.61c.56,0,.94-.31,1.11-.82l.43.16c-.26.71-.82,1.08-1.54,1.08-1.11,0-1.76-.9-1.76-2.03Z"></path><path class="cls-18" d="M622.34,238.78c0-1.13.61-2.06,1.73-2.06,1.21,0,1.7.94,1.7,1.81,0,.06,0,.24-.02.34h-2.93c.02.93.52,1.47,1.32,1.47.5,0,.83-.14,1.17-.51l.34.3c-.45.46-.88.65-1.51.65-1.16,0-1.79-.87-1.79-2ZM625.3,238.51s0-.1,0-.15c0-.57-.36-1.24-1.23-1.24-.75,0-1.22.6-1.27,1.39h2.49Z"></path></g><polyline class="cls-5" points="575.3 3 557.16 3 553.32 16.44"></polyline><path class="cls-16" d="M552.22,20.32l3.54-4.89s-2.43,1.01-3.97-1.13l.43,6.02Z"></path><polyline class="cls-5" points="391.38 198.4 383.24 198.4 379.61 208.9"></polyline><path class="cls-16" d="M378.3,212.72l3.8-4.69s-2.48.87-3.9-1.35l.1,6.04Z"></path><polyline class="cls-5" points="283.05 198.4 274.91 198.4 271.28 208.9"></polyline><path class="cls-16" d="M269.96,212.72l3.8-4.69s-2.49.87-3.9-1.35l.1,6.04Z"></path><polyline class="cls-5" points="588.3 238.32 579.15 238.32 572.71 246.47"></polyline><path class="cls-16" d="M570.21,249.64l5.14-3.17s-2.63,0-3.24-2.56l-1.9,5.73Z"></path><g><path class="cls-18" d="M1140.51,93.03h3.61v.45h-3.11v2.07h2.7v.45h-2.7v2.61h-.5v-5.57Z"></path><path class="cls-18" d="M1144.85,93.03h.58v.86h-.58v-.86ZM1144.9,94.66h.47v3.94h-.47v-3.94Z"></path><path class="cls-18" d="M1146.71,94.66h.48v.64c.25-.47.69-.7,1.24-.7.85,0,1.36.5,1.36,1.54v2.45h-.48v-2.28c0-.89-.34-1.3-.99-1.3-.71,0-1.13.48-1.13,1.57v2.01h-.48v-3.94Z"></path><path class="cls-18" d="M1153.27,93.03h3.64v.45h-3.15v2.07h2.82v.45h-2.82v2.16h3.15v.45h-3.64v-5.57Z"></path><path class="cls-18" d="M1159.08,96.62l-1.46-1.96h.59l1.18,1.63,1.2-1.63h.58l-1.46,1.96,1.47,1.98h-.59l-1.19-1.64-1.19,1.64h-.58l1.46-1.98Z"></path><path class="cls-18" d="M1162.6,97.69v-2.65h-.88v-.38h.88v-1.14l.48-.28v1.42h.95v.38h-.95v2.53c0,.44.14.68.5.68.12,0,.28-.02.45-.08v.38c-.2.06-.4.1-.57.1-.52,0-.86-.3-.86-.97Z"></path><path class="cls-18" d="M1164.75,96.66c0-1.13.61-2.05,1.73-2.05,1.21,0,1.7.94,1.7,1.81,0,.06,0,.24-.02.34h-2.93c.02.93.52,1.47,1.32,1.47.5,0,.83-.14,1.17-.51l.34.3c-.45.46-.88.65-1.51.65-1.16,0-1.79-.87-1.79-2ZM1167.71,96.4s0-.1,0-.15c0-.57-.36-1.24-1.23-1.24-.75,0-1.22.6-1.27,1.39h2.49Z"></path><path class="cls-18" d="M1169.32,94.66h.48v.64c.25-.47.69-.7,1.24-.7.85,0,1.36.5,1.36,1.54v2.45h-.48v-2.28c0-.89-.34-1.3-.99-1.3-.71,0-1.13.48-1.13,1.57v2.01h-.48v-3.94Z"></path><path class="cls-18" d="M1173.27,97.76l.34-.28c.2.46.66.77,1.26.77.57,0,.95-.27.95-.72,0-.55-.53-.68-1.1-.82-.66-.16-1.23-.38-1.23-1.06,0-.62.53-1.05,1.29-1.05.6,0,1.1.26,1.37.76l-.37.21c-.21-.38-.57-.58-1.01-.58-.48,0-.84.24-.84.62,0,.4.36.54.93.68.67.16,1.43.34,1.43,1.2,0,.71-.56,1.17-1.42,1.17-.79,0-1.35-.4-1.6-.9Z"></path><path class="cls-18" d="M1177.38,93.03h.58v.86h-.58v-.86ZM1177.43,94.66h.47v3.94h-.47v-3.94Z"></path><path class="cls-18" d="M1179.05,96.63c0-1.18.77-2.02,1.88-2.02s1.87.84,1.87,2.02-.78,2.03-1.87,2.03-1.88-.84-1.88-2.03ZM1180.93,98.23c.84,0,1.39-.64,1.39-1.6s-.55-1.6-1.39-1.6-1.4.64-1.4,1.6.56,1.6,1.4,1.6Z"></path><path class="cls-18" d="M1183.95,94.66h.48v.64c.25-.47.69-.7,1.24-.7.85,0,1.36.5,1.36,1.54v2.45h-.48v-2.28c0-.89-.34-1.3-.99-1.3-.71,0-1.13.48-1.13,1.57v2.01h-.48v-3.94Z"></path><path class="cls-18" d="M1188.35,94.84h.58v.86h-.58v-.86ZM1188.35,97.75h.58v.85h-.58v-.85Z"></path></g><g><path class="cls-18" d="M1143.19,104.24c0-.73-.43-1.2-1.19-1.2-.83,0-1.26.58-1.27,1.45l-.47-.03c0-1.07.62-1.88,1.76-1.88.99,0,1.64.65,1.64,1.65,0,1.49-1.5,2.65-2.81,3.53h3.04v.45h-3.64v-.44c1.02-.82,2.94-2.02,2.94-3.53Z"></path><path class="cls-18" d="M1146.8,103.92h-1.47v-.39h1.03c.29,0,.44-.1.44-.41v-.49h.48v5.57h-.48v-4.28Z"></path><path class="cls-18" d="M1149.44,105.41c0-1.33.3-2.84,1.72-2.84s1.75,1.39,1.75,2.85-.4,2.84-1.72,2.84c-1.44,0-1.75-1.51-1.75-2.85ZM1151.19,107.8c.88,0,1.23-1,1.23-2.36s-.36-2.41-1.26-2.41c-.96,0-1.23,1.1-1.23,2.4s.28,2.37,1.26,2.37Z"></path><path class="cls-18" d="M1153.75,106.55l.48-.02c0,.78.58,1.27,1.48,1.27s1.44-.47,1.44-1.2c0-.9-.86-1.14-1.78-1.14v-.38c.7,0,1.48-.21,1.48-1.03,0-.6-.48-1.01-1.16-1.01-.74,0-1.19.44-1.2,1.09l-.47-.02c0-.9.7-1.52,1.68-1.52s1.62.6,1.62,1.42c0,.74-.55,1.08-1.1,1.22.67.11,1.4.5,1.4,1.39,0,.98-.78,1.66-1.93,1.66s-1.94-.68-1.94-1.71Z"></path></g><g><path class="cls-18" d="M1143.19,113.84c0-.73-.43-1.2-1.19-1.2-.83,0-1.26.58-1.27,1.45l-.47-.03c0-1.07.62-1.88,1.76-1.88.99,0,1.64.65,1.64,1.65,0,1.49-1.5,2.65-2.81,3.53h3.04v.45h-3.64v-.44c1.02-.82,2.94-2.02,2.94-3.53Z"></path><path class="cls-18" d="M1147.75,113.84c0-.73-.43-1.2-1.19-1.2-.83,0-1.26.58-1.27,1.45l-.47-.03c0-1.07.62-1.88,1.76-1.88.99,0,1.64.65,1.64,1.65,0,1.49-1.5,2.65-2.81,3.53h3.04v.45h-3.64v-.44c1.02-.82,2.94-2.02,2.94-3.53Z"></path><path class="cls-18" d="M1149.44,115.01c0-1.33.3-2.84,1.72-2.84s1.75,1.39,1.75,2.85-.4,2.84-1.72,2.84c-1.44,0-1.75-1.51-1.75-2.85ZM1151.19,117.4c.88,0,1.23-1,1.23-2.36s-.36-2.41-1.26-2.41c-.96,0-1.23,1.1-1.23,2.39s.28,2.38,1.26,2.38Z"></path><path class="cls-18" d="M1153.75,116.15l.48-.02c0,.78.58,1.27,1.48,1.27s1.44-.47,1.44-1.2c0-.9-.86-1.14-1.78-1.14v-.38c.7,0,1.48-.21,1.48-1.03,0-.6-.48-1.01-1.16-1.01-.74,0-1.19.44-1.2,1.09l-.47-.02c0-.9.7-1.52,1.68-1.52s1.62.6,1.62,1.42c0,.74-.55,1.08-1.1,1.22.67.11,1.4.5,1.4,1.39,0,.98-.78,1.66-1.93,1.66s-1.94-.68-1.94-1.71Z"></path></g><polyline class="cls-5" points="1133.5 115.4 1115.36 115.4 1111.52 128.84"></polyline><path class="cls-16" d="M1110.42,132.72l3.54-4.89s-2.43,1.01-3.97-1.13l.43,6.02Z"></path><polyline class="cls-5" points="1133.5 105.72 1109.64 105.72 1103.21 127.08"></polyline><path class="cls-16" d="M1102.05,130.95l3.61-4.84s-2.45.97-3.95-1.19l.34,6.03Z"></path></g></g></svg> 