<?xml version="1.0" encoding="UTF-8"?> <svg xmlns="http://www.w3.org/2000/svg" id="Layer_2" data-name="Layer 2" viewBox="0 0 522.46 601.49"><defs><style> .cls-1 { stroke: #afa49f; } .cls-1, .cls-2, .cls-3, .cls-4, .cls-5, .cls-6, .cls-7, .cls-8, .cls-9, .cls-10, .cls-11, .cls-12, .cls-13 { fill: none; } .cls-1, .cls-2, .cls-3, .cls-4, .cls-7, .cls-8, .cls-10, .cls-11, .cls-13 { stroke-width: .25px; } .cls-1, .cls-9, .cls-10 { stroke-miterlimit: 10; } .cls-2 { stroke-dasharray: 1.54 1.54; } .cls-2, .cls-3, .cls-4, .cls-5, .cls-6, .cls-7, .cls-8, .cls-11, .cls-12, .cls-13 { stroke-linecap: round; stroke-linejoin: round; } .cls-2, .cls-3, .cls-4, .cls-7, .cls-8, .cls-13 { stroke: #75655e; } .cls-3 { stroke-dasharray: 5.93 4.94; } .cls-14 { fill: #3a2a22; } .cls-4 { stroke-dasharray: 5.79 4.83; } .cls-5 { stroke: #55453d; stroke-width: .15px; } .cls-15 { fill: #fff; } .cls-6, .cls-9 { stroke-width: .75px; } .cls-6, .cls-9, .cls-11, .cls-12 { stroke: #3a2a22; } .cls-7 { stroke-dasharray: 6.11 5.09; } .cls-16 { fill: #bc8ebc; } .cls-10 { stroke: #bc8ebc; } .cls-17 { fill: #afa49f; } .cls-12 { stroke-width: .35px; } .cls-18 { fill: #75655e; } .cls-13 { stroke-dasharray: 5.71 4.76; } </style></defs><g id="Layer_1-2" data-name="Layer 1"><g><polygon class="cls-15" points="522.09 103.17 522.09 185.35 518.23 185.35 518.23 581.12 58.13 581.12 58.13 526.79 .37 526.79 .37 118.73 .38 118.73 5.85 118.22 5.85 118.17 5.85 44.07 228.16 44.07 228.16 103.57 228.16 103.61 254.68 102.65 292.84 101.63 331.1 100.89 369.26 100.62 407.51 100.62 445.76 100.99 483.93 101.73 522.09 102.74 522.09 103.17"></polygon><line class="cls-8" x1=".38" y1="82.31" x2="3.35" y2="81.93"></line><polyline class="cls-13" points="8.07 81.34 9.08 81.21 36.91 77.96"></polyline><polyline class="cls-8" points="39.27 77.68 42.25 77.33 42.6 80.31"></polyline><polyline class="cls-8" points="42.83 82.39 43.18 85.37 46.16 85.05"></polyline><polyline class="cls-7" points="51.22 84.5 76.53 81.77 104.37 79.07"></polyline><polyline class="cls-8" points="106.9 78.82 109.89 78.53 109.65 75.54"></polyline><polyline class="cls-8" points="109.48 73.48 109.24 70.49 112.23 70.24"></polyline><polyline class="cls-3" points="117.16 69.81 143.43 67.54 177.71 64.86 211.99 62.55 246.36 60.51 280.65 58.94 315.02 57.65 349.39 56.63 383.76 56.08 418.14 55.8 452.51 55.8 486.88 56.26 516.62 56.9"></polyline><polyline class="cls-8" points="519.09 56.96 521.25 57 522.09 57.03"></polyline><polygon class="cls-12" points="17.4 55.62 17.4 115.03 15.09 115.03 15.09 53.31 218.92 53.31 218.92 101.54 216.61 101.54 216.61 55.62 17.4 55.62"></polygon><g><path class="cls-5" d="M110.85,524.83c25.57,0,43.48,20.73,43.48,46.29"></path><path class="cls-5" d="M54.27,470.66c0-23.13,18.62-39.35,41.58-39.35"></path><path class="cls-5" d="M112.02,325.13c0-23.13,18.62-39.35,41.58-39.35"></path><path class="cls-5" d="M210.36,62.67c-23.12.9-38.62,20.51-37.73,43.46"></path><path class="cls-5" d="M390.42,329.75c0-23.13-18.62-39.35-41.58-39.35"></path><path class="cls-5" d="M451.58,465.89c0,23.13-18.62,39.35-41.58,39.35"></path><path class="cls-5" d="M355.69,414.04c23.13,0,39.35-18.62,39.35-41.58"></path></g><line class="cls-5" x1="154.33" y1="581.12" x2="108.04" y2="581.12"></line><line class="cls-5" x1="110.85" y1="571.12" x2="154.33" y2="571.12"></line><rect class="cls-12" x="108.04" y="524.83" width="2.81" height="46.29"></rect><rect class="cls-12" x="106.84" y="377.18" width="41.58" height="2.21"></rect><rect class="cls-12" x="410.75" y="295.12" width="2.21" height="41.58"></rect><rect class="cls-12" x="54.27" y="470.66" width="41.58" height="2.23"></rect><rect class="cls-12" x="112.02" y="325.13" width="41.58" height="2.23"></rect><rect class="cls-12" x="211.17" y="62.61" width="2.23" height="41.58" transform="translate(-3.09 8.33) rotate(-2.23)"></rect><rect class="cls-12" x="348.84" y="329.75" width="41.58" height="2.23"></rect><rect class="cls-12" x="410" y="463.66" width="41.58" height="2.23"></rect><rect class="cls-12" x="359.18" y="514.48" width="41.58" height="2.23"></rect><rect class="cls-12" x="353.46" y="372.46" width="2.23" height="41.58"></rect><rect class="cls-12" x="99.45" y="524.36" width="2.21" height="41.58"></rect><rect class="cls-12" x="57.76" y="331.99" width="34.67" height="2.21"></rect><rect class="cls-12" x="23.14" y="334.2" width="34.67" height="2.21"></rect><polyline class="cls-8" points="294.36 446.39 295.11 446.39 295.11 447.14"></polyline><line class="cls-2" x1="295.11" y1="448.68" x2="295.1" y2="472.49"></line><polyline class="cls-8" points="295.1 473.25 295.1 474 294.35 474"></polyline><line class="cls-2" x1="292.82" y1="474" x2="269.01" y2="474"></line><polyline class="cls-8" points="268.24 474 267.49 474 267.49 473.25"></polyline><line class="cls-2" x1="267.49" y1="471.72" x2="267.5" y2="447.91"></line><polyline class="cls-8" points="267.5 447.14 267.5 446.39 268.25 446.39"></polyline><line class="cls-2" x1="269.78" y1="446.39" x2="293.59" y2="446.39"></line><polyline class="cls-8" points="211.66 446.39 212.41 446.39 212.41 447.14"></polyline><line class="cls-2" x1="212.41" y1="448.68" x2="212.41" y2="472.48"></line><polyline class="cls-8" points="212.41 473.25 212.41 474 211.66 474"></polyline><line class="cls-2" x1="210.13" y1="474" x2="186.32" y2="474"></line><polyline class="cls-8" points="185.55 474 184.8 474 184.8 473.25"></polyline><line class="cls-2" x1="184.8" y1="471.72" x2="184.8" y2="447.91"></line><polyline class="cls-8" points="184.8 447.14 184.8 446.39 185.55 446.39"></polyline><line class="cls-2" x1="187.09" y1="446.39" x2="210.9" y2="446.39"></line><line class="cls-8" x1="217.46" y1="536.83" x2="220.46" y2="536.83"></line><line class="cls-4" x1="225.29" y1="536.83" x2="297.22" y2="536.82"></line><line class="cls-8" x1="299.64" y1="536.82" x2="302.64" y2="536.82"></line><line class="cls-12" x1="344.22" y1="524.91" x2="181.32" y2="524.92"></line><line class="cls-12" x1="217.46" y1="524.92" x2="217.46" y2="552.34"></line><line class="cls-12" x1="302.64" y1="524.91" x2="302.64" y2="552.33"></line><line class="cls-12" x1="217.46" y1="527.41" x2="181.31" y2="527.42"></line><line class="cls-12" x1="344.22" y1="527.41" x2="302.64" y2="527.42"></line><rect class="cls-12" x="181.31" y="424.38" width="117.81" height="49.62"></rect><g><rect class="cls-12" x="230.79" y="444.06" width="1.74" height="9.78" rx=".59" ry=".59"></rect><path class="cls-12" d="M231.66,459.74c-.49,0-.9.4-.9.9s.4.9.9.9.9-.4.9-.9-.4-.9-.9-.9Z"></path></g><polyline class="cls-12" points="230.79 445.38 228.36 445.38 228.36 446.93 230.79 446.93"></polyline><line class="cls-12" x1="229.23" y1="446.93" x2="229.23" y2="445.38"></line><polyline class="cls-12" points="230.79 449.24 218.73 449.24 218.73 471 244.58 471 244.58 449.24 232.53 449.24"></polyline><polyline class="cls-12" points="232.53 450.32 243.5 450.32 243.5 469.92 219.81 469.92 219.81 450.32 230.79 450.32"></polyline><rect class="cls-12" x="364.72" y="523.23" width="30.61" height="38.03"></rect><polyline class="cls-12" points="348.84 425.93 425.64 425.94 425.64 451.08"></polyline><path class="cls-12" d="M404.9,442.99h9.87c.4,0,.72-.32.72-.72v-10.9c0-.4-.32-.72-.72-.72h-20.82c-.4,0-.72.32-.72.72v10.9c0,.4.32.72.72.72h9.48"></path><rect class="cls-12" x="403.43" y="440.56" width="1.47" height="5.89"></rect><g><circle class="cls-12" cx="404.16" cy="436.82" r=".84"></circle><path class="cls-12" d="M370.14,442.99h9.87c.4,0,.72-.32.72-.72v-10.9c0-.4-.32-.72-.72-.72h-20.82c-.4,0-.72.32-.72.72v10.9c0,.4.32.72.72.72h9.48"></path></g><rect class="cls-12" x="368.67" y="440.56" width="1.47" height="5.89"></rect><circle class="cls-12" cx="369.41" cy="436.82" r=".84"></circle><line class="cls-12" x1="466.65" y1="374.77" x2="466.64" y2="450.13"></line><line class="cls-12" x1="467.93" y1="374.77" x2="467.92" y2="450.95"></line><line class="cls-12" x1="467.93" y1="379.45" x2="466.65" y2="379.45"></line><line class="cls-12" x1="467.93" y1="417.45" x2="466.65" y2="417.45"></line><g><path class="cls-12" d="M493.26,386.66c0-2.86-2.32-5.18-5.18-5.18s-5.18,2.32-5.18,5.18,2.32,5.18,5.18,5.18,5.18-2.32,5.18-5.18Z"></path><path class="cls-12" d="M489.29,386.66c0,.67-.54,1.21-1.21,1.21s-1.21-.54-1.21-1.21.54-1.21,1.21-1.21,1.21.54,1.21,1.21Z"></path></g><line class="cls-12" x1="508.23" y1="437.57" x2="467.92" y2="437.57"></line><g><path class="cls-12" d="M438.42,443.5h15.44c.6,0,1.08.48,1.08,1.08v5.3c0,.6-.48,1.08-1.08,1.08h-15.44c-.6,0-1.08-.48-1.08-1.08v-5.29c0-.6.48-1.08,1.08-1.08Z"></path><path class="cls-12" d="M441.68,439.35c-.28,0-.54-.11-.73-.32-1.88-2.09-3.08-5.3-3.08-8.9,0-6.31,3.7-11.42,8.28-11.42s8.28,5.11,8.28,11.42c0,3.6-1.2,6.8-3.08,8.9-.19.21-.46.32-.73.32h-8.92Z"></path></g><line class="cls-12" x1="437.86" y1="430.13" x2="437.86" y2="443.65"></line><line class="cls-12" x1="454.42" y1="430.13" x2="454.42" y2="443.65"></line><line class="cls-12" x1="24.61" y1="493.38" x2="24.61" y2="496.59"></line><g><path class="cls-12" d="M24.61,497.45v11.6c0,1.38,1.12,2.5,2.5,2.5h61.83c1.38,0,2.5-1.12,2.5-2.5v-24.04c0-1.38-1.12-2.5-2.5-2.5H27.1c-1.38,0-2.5,1.12-2.5,2.5v8.37"></path><path class="cls-12" d="M20.58,496.59h10.86c.24,0,.43.19.43.43s-.19.43-.43.43h-10.81"></path><path class="cls-12" d="M30.36,497.45c.17.46.61.79,1.14.79.67,0,1.21-.54,1.21-1.21s-.54-1.21-1.21-1.21c-.51,0-.95.32-1.13.77"></path><path class="cls-12" d="M26.33,497.45c.22,2.67,2.45,4.76,5.17,4.76,2.86,0,5.18-2.32,5.18-5.18s-2.32-5.18-5.18-5.18c-2.72,0-4.94,2.09-5.17,4.74"></path></g><rect class="cls-12" x="19.62" y="494.49" width=".97" height="5.08"></rect><line class="cls-12" x1="19.61" y1="478.8" x2="95.84" y2="478.8"></line><line class="cls-12" x1="19.61" y1="477.52" x2="95.8" y2="477.52"></line><line class="cls-12" x1="24.3" y1="477.52" x2="24.3" y2="478.8"></line><line class="cls-12" x1="62.3" y1="477.51" x2="62.3" y2="478.8"></line><g><rect class="cls-12" x="21.95" y="375.88" width="17.6" height="7.45" rx="1.08" ry="1.08"></rect><path class="cls-12" d="M26.29,387.48c-.28,0-.54.11-.73.32-1.88,2.09-3.09,5.3-3.09,8.9,0,6.31,3.71,11.42,8.28,11.42s8.28-5.11,8.28-11.42c0-3.6-1.2-6.8-3.08-8.9-.19-.21-.46-.32-.73-.32h-8.92Z"></path></g><line class="cls-12" x1="22.47" y1="396.69" x2="22.47" y2="383.17"></line><line class="cls-12" x1="39.02" y1="396.69" x2="39.02" y2="383.17"></line><polyline class="cls-12" points="51.43 375.88 51.43 400.89 95.85 400.89"></polyline><path class="cls-12" d="M69.43,383.94h9.87c.4,0,.72.32.72.72v10.9c0,.4-.32.72-.72.72h-20.82c-.4,0-.72-.32-.72-.72v-10.9c0-.4.32-.72.72-.72h9.48"></path><rect class="cls-12" x="67.96" y="380.49" width="1.47" height="5.89"></rect><circle class="cls-12" cx="68.7" cy="390.11" r=".84"></circle><rect class="cls-12" x="240.89" y="525.96" width="36.97" height="24.28"></rect><rect class="cls-12" x="241.97" y="527.04" width="34.82" height="22.12"></rect><path class="cls-12" d="M259.38,527.79c.71,0,1.28.57,1.28,1.28s-.57,1.28-1.28,1.28-1.28-.57-1.28-1.28c0-.71.57-1.28,1.28-1.28Z"></path><line class="cls-12" x1="276.78" y1="527.04" x2="277.86" y2="525.96"></line><line class="cls-12" x1="241.97" y1="527.05" x2="240.89" y2="525.97"></line><line class="cls-12" x1="241.97" y1="549.16" x2="240.89" y2="550.24"></line><line class="cls-12" x1="276.79" y1="549.15" x2="277.87" y2="550.23"></line><polygon class="cls-12" points="258.32 529.07 259.38 530.13 260.43 529.07 259.38 528.02 258.32 529.07"></polygon><line class="cls-12" x1="259.38" y1="530.13" x2="259.38" y2="528.02"></line><g><path class="cls-11" d="M132.67,360.41c.03,1.51.06,3.03.13,4.57.04.8.09,1.6.13,2.35.03.57.07,1.11.16,1.78.09.65.25,1.42-.23,1.73-.11.07-.25.12-.38.13-.77.06-.9-1.18-.97-2.24-.15-2.35.04-3.74.16-5.44.06-.9.1-1.9.14-2.89-.04-.99-.08-1.98-.14-2.89-.12-1.7-.3-3.09-.16-5.44.07-1.05.2-2.3.97-2.24.13.01.27.06.38.13.48.3.32,1.08.23,1.73-.1.67-.13,1.21-.16,1.78-.04.75-.09,1.56-.13,2.36-.07,1.54-.1,3.06-.13,4.57Z"></path><path class="cls-11" d="M127.97,360.41c.03,1.51.06,3.03.13,4.57.04.8.09,1.6.13,2.35.03.57.07,1.11.16,1.78.09.65.25,1.42-.23,1.73-.11.07-.25.12-.38.13-.77.06-.9-1.18-.97-2.24-.15-2.35.04-3.74.16-5.44.06-.9.1-1.9.14-2.89-.04-.99-.08-1.98-.14-2.89-.12-1.7-.3-3.09-.16-5.44.07-1.05.2-2.3.97-2.24.13.01.27.06.38.13.48.3.33,1.08.23,1.73-.1.67-.13,1.21-.16,1.78-.04.75-.09,1.56-.13,2.36-.07,1.54-.1,3.06-.13,4.57Z"></path><path class="cls-11" d="M123.28,360.41c.03,1.51.06,3.03.13,4.57.04.8.09,1.6.13,2.35.03.57.07,1.11.16,1.78.09.65.25,1.42-.23,1.73-.11.07-.25.12-.38.13-.77.06-.9-1.18-.97-2.24-.15-2.35.04-3.74.16-5.44.06-.9.1-1.9.14-2.89-.04-.99-.08-1.98-.14-2.89-.12-1.7-.3-3.09-.16-5.44.07-1.05.2-2.3.97-2.24.13.01.27.06.38.13.48.3.33,1.08.23,1.73-.1.67-.13,1.21-.16,1.78-.04.75-.09,1.56-.13,2.36-.07,1.54-.1,3.06-.13,4.57Z"></path></g><line class="cls-11" x1="101.67" y1="360.41" x2="153.6" y2="360.41"></line><g><path class="cls-11" d="M82.69,540.2c1.51-.03,3.03-.06,4.57-.13.8-.04,1.6-.09,2.35-.13.57-.03,1.11-.07,1.78-.16.65-.09,1.42-.25,1.73.23.07.11.12.25.13.38.06.77-1.18.9-2.24.97-2.35.15-3.74-.04-5.44-.16-.9-.06-1.9-.1-2.89-.14-.99.04-1.98.08-2.89.14-1.7.11-3.09.3-5.44.16-1.05-.07-2.3-.2-2.24-.97.01-.13.06-.27.13-.38.3-.48,1.08-.33,1.73-.23.67.1,1.21.13,1.78.16.75.04,1.56.09,2.36.13,1.54.07,3.06.1,4.57.13Z"></path><path class="cls-11" d="M82.69,544.89c1.51-.03,3.03-.06,4.57-.13.8-.04,1.6-.09,2.35-.13.57-.03,1.11-.07,1.78-.16.65-.09,1.42-.25,1.73.23.07.11.12.25.13.38.06.77-1.18.9-2.24.97-2.35.15-3.74-.04-5.44-.16-.9-.06-1.9-.1-2.89-.14-.99.04-1.98.08-2.89.14-1.7.11-3.09.3-5.44.16-1.05-.07-2.3-.2-2.24-.97.01-.13.06-.27.13-.38.3-.48,1.08-.33,1.73-.23.67.1,1.21.13,1.78.16.75.04,1.56.09,2.36.13,1.54.07,3.06.1,4.57.13Z"></path><path class="cls-11" d="M82.69,549.58c1.51-.03,3.03-.06,4.57-.13.8-.04,1.6-.09,2.35-.13.57-.03,1.11-.07,1.78-.16.65-.09,1.42-.25,1.73.23.07.11.12.25.13.38.06.77-1.18.9-2.24.97-2.35.15-3.74-.04-5.44-.16-.9-.06-1.9-.1-2.89-.14-.99.04-1.98.08-2.89.14-1.7.11-3.09.3-5.44.16-1.05-.07-2.3-.2-2.24-.97.01-.13.06-.27.13-.38.3-.48,1.08-.33,1.73-.23.67.1,1.21.13,1.78.16.75.04,1.56.09,2.36.13,1.54.07,3.06.1,4.57.13Z"></path></g><line class="cls-11" x1="82.69" y1="567.61" x2="82.69" y2="522.87"></line><g><path class="cls-11" d="M58.15,353.27c.03,1.51.06,3.03.13,4.57.04.8.09,1.6.13,2.35.03.57.07,1.11.16,1.78.09.65.25,1.42-.23,1.73-.11.07-.25.12-.38.13-.77.06-.9-1.18-.97-2.24-.15-2.35.04-3.74.16-5.44.06-.9.1-1.9.14-2.89-.04-.99-.08-1.98-.14-2.89-.12-1.7-.3-3.09-.16-5.44.07-1.05.2-2.3.97-2.24.13.01.27.06.38.13.48.3.32,1.08.23,1.73-.1.67-.13,1.21-.16,1.78-.04.75-.09,1.56-.13,2.36-.07,1.54-.1,3.06-.13,4.57Z"></path><path class="cls-11" d="M53.45,353.27c.03,1.51.06,3.03.13,4.57.04.8.09,1.6.13,2.35.03.57.07,1.11.16,1.78.09.65.25,1.42-.23,1.73-.11.07-.25.12-.38.13-.77.06-.9-1.18-.97-2.24-.15-2.35.04-3.74.16-5.44.06-.9.1-1.9.14-2.89-.04-.99-.08-1.98-.14-2.89-.12-1.7-.3-3.09-.16-5.44.07-1.05.2-2.3.97-2.24.13.01.27.06.38.13.48.3.33,1.08.23,1.73-.1.67-.13,1.21-.16,1.78-.04.75-.09,1.56-.13,2.36-.07,1.54-.1,3.06-.13,4.57Z"></path><path class="cls-11" d="M48.76,353.27c.03,1.51.06,3.03.13,4.57.04.8.09,1.6.13,2.35.03.57.07,1.11.16,1.78.09.65.25,1.42-.23,1.73-.11.07-.25.12-.38.13-.77.06-.9-1.18-.97-2.24-.15-2.35.04-3.74.16-5.44.06-.9.1-1.9.14-2.89-.04-.99-.08-1.98-.14-2.89-.12-1.7-.3-3.09-.16-5.44.07-1.05.2-2.3.97-2.24.13.01.27.06.38.13.48.3.33,1.08.23,1.73-.1.67-.13,1.21-.16,1.78-.04.75-.09,1.56-.13,2.36-.07,1.54-.1,3.06-.13,4.57Z"></path></g><line class="cls-11" x1="10.38" y1="353.27" x2="95.85" y2="353.27"></line><line class="cls-11" x1="145.56" y1="173.8" x2="15" y2="173.8"></line><polygon class="cls-11" points="159.42 120.67 159.42 164.56 153.69 164.56 153.69 115.22 170.69 114.29 170.96 120.12 159.42 120.67"></polygon><polygon class="cls-11" points="217.07 117.9 216.89 112.17 258.47 110.6 300.05 109.58 341.72 108.84 383.39 108.66 424.97 108.84 466.65 109.39 508.23 110.41 508.23 116.23 466.65 115.22 425.07 114.57 383.49 114.38 341.91 114.66 300.23 115.31 258.65 116.42 217.07 117.9"></polygon><line class="cls-11" x1=".38" y1="121.02" x2=".38" y2="126.81"></line><polyline class="cls-11" points="228.16 103.57 228.16 44.07 5.85 44.07 5.85 118.17"></polyline><polygon class="cls-6" points="522.09 185.35 522.09 102.74 483.93 101.73 445.76 100.99 407.51 100.62 369.26 100.62 331.1 100.89 292.84 101.63 254.68 102.65 216.52 104.04 216.62 106.35 254.5 104.96 292.38 103.94 330.26 103.2 368.15 102.93 406.12 102.93 444.01 103.3 481.89 103.94 519.78 105.05 519.78 185.35 522.09 185.35"></polygon><polygon class="cls-6" points=".38 118.73 15.09 117.34 15.09 165.67 145.56 165.67 145.56 107.64 170.32 106.25 170.43 108.56 147.87 109.76 147.87 167.98 12.78 167.98 12.78 119.84 .38 121.02 .38 118.73"></polygon><line class="cls-6" x1="519.78" y1="185.35" x2="518.23" y2="185.35"></line><rect class="cls-6" x="79.67" y="167.98" width="2.31" height="5.82"></rect><rect class="cls-6" x="144.35" y="167.98" width="2.31" height="5.82"></rect><rect class="cls-6" x="13.89" y="167.98" width="2.31" height="5.82"></rect><rect class="cls-6" x="6.96" y="164.56" width="5.82" height="2.31"></rect><rect class="cls-6" x="6.96" y="130.55" width="5.82" height="2.31"></rect><rect class="cls-6" x="513.95" y="137.3" width="5.82" height="2.31"></rect><polyline class="cls-6" points="519.78 106.62 519.78 105.05 518.21 104.96 512.52 110.55 513.96 110.6 513.96 112.35 519.78 106.62"></polyline><polyline class="cls-6" points="153.69 116.79 153.69 115.22 155.26 115.12 149.53 109.67 147.96 109.76 147.87 109.76 147.87 111.43 153.69 116.79"></polyline><polyline class="cls-6" points="12.78 119.84 11.02 120.02 5.29 126.4 6.96 126.21 6.96 127.97 12.78 121.59 12.78 119.84"></polyline><polygon class="cls-6" points="265.12 104.68 265.31 110.43 263 110.49 262.81 104.74 265.12 104.68"></polygon><polygon class="cls-6" points="334.42 103.17 334.52 108.97 332.2 109.01 332.11 103.19 334.42 103.17"></polygon><polygon class="cls-6" points="403.72 102.93 403.63 108.74 401.32 108.74 401.41 102.93 403.72 102.93"></polygon><polygon class="cls-6" points="473.02 103.79 472.84 109.55 470.53 109.49 470.71 103.76 473.02 103.79"></polygon><polyline class="cls-6" points="214.58 112.26 216.89 112.17 216.52 104.03 214.21 104.13 214.58 112.26"></polyline><rect class="cls-6" x="147.87" y="164.56" width="5.82" height="2.31"></rect><polyline class="cls-6" points="170.69 114.29 173 114.2 172.63 106.12 170.32 106.25 170.69 114.29"></polyline><polygon class="cls-14" points="518.23 185.35 518.23 581.12 154.33 581.12 154.33 571.12 175.59 571.12 175.59 524.92 181.31 524.92 181.31 552.33 344.22 552.33 344.22 524.92 347.63 524.92 347.63 514.48 359.18 514.48 359.18 520.3 355.77 520.3 355.77 564.19 404.28 564.19 404.28 520.3 400.76 520.3 400.76 514.48 404.28 514.48 404.28 505.24 410.05 505.24 410.05 571.12 508.23 571.12 508.23 459.04 410 459.04 410 463.66 404.28 463.66 404.28 459.04 343.01 459.04 343.01 331.99 348.84 331.99 348.84 366.64 353.46 366.64 353.46 372.46 348.84 372.46 348.84 451 508.23 451 508.23 374.77 466.65 374.77 466.65 372.46 395.04 372.46 395.04 366.64 407.14 366.64 407.14 336.7 412.96 336.7 412.96 366.64 508.23 366.64 508.23 290.5 412.96 290.5 412.96 295.12 407.14 295.12 407.14 284.68 508.23 284.68 508.23 110.41 513.95 110.6 513.95 185.35 518.23 185.35"></polygon><polygon class="cls-9" points="518.23 185.35 518.23 581.12 154.33 581.12 154.33 571.12 175.59 571.12 175.59 524.92 181.31 524.92 181.31 552.33 344.22 552.33 344.22 524.92 347.63 524.92 347.63 514.48 359.18 514.48 359.18 520.3 355.77 520.3 355.77 564.19 404.28 564.19 404.28 520.3 400.76 520.3 400.76 514.48 404.28 514.48 404.28 505.24 410.05 505.24 410.05 571.12 508.23 571.12 508.23 459.04 410 459.04 410 463.66 404.28 463.66 404.28 459.04 343.01 459.04 343.01 331.99 348.84 331.99 348.84 366.64 353.46 366.64 353.46 372.46 348.84 372.46 348.84 451 508.23 451 508.23 374.77 466.65 374.77 466.65 372.46 395.04 372.46 395.04 366.64 407.14 366.64 407.14 336.7 412.96 336.7 412.96 366.64 508.23 366.64 508.23 290.5 412.96 290.5 412.96 295.12 407.14 295.12 407.14 284.68 508.23 284.68 508.23 110.41 513.95 110.6 513.95 185.35 518.23 185.35"></polygon><polygon class="cls-14" points="58.12 581.12 108.04 581.12 108.04 571.12 101.67 571.12 101.67 565.94 95.85 565.94 95.85 567.61 68.12 567.61 68.12 522.61 95.85 522.61 95.85 524.36 101.67 524.36 101.67 472.9 95.85 472.9 95.85 516.79 19.61 516.79 19.61 477.52 10.38 477.52 10.38 375.88 95.85 375.88 95.85 431.32 101.67 431.32 101.67 379.39 106.84 379.39 106.84 373.57 101.67 373.57 101.67 345.85 153.6 345.85 153.6 373.57 148.42 373.57 148.42 379.34 159.42 379.34 159.42 327.37 153.6 327.37 153.6 331.99 92.43 331.99 92.43 337.81 95.85 337.81 95.85 367.84 10.38 367.84 10.38 337.81 23.13 337.81 23.13 331.99 10.38 331.99 10.38 179.53 14.99 179.53 14.99 173.8 6.96 173.8 6.96 126.21 .38 127 .38 526.79 58.12 526.79 58.12 581.12"></polygon><polygon class="cls-9" points="58.12 581.12 108.04 581.12 108.04 571.12 101.67 571.12 101.67 565.94 95.85 565.94 95.85 567.61 68.12 567.61 68.12 522.61 95.85 522.61 95.85 524.36 101.67 524.36 101.67 472.9 95.85 472.9 95.85 516.79 19.61 516.79 19.61 477.52 10.38 477.52 10.38 375.88 95.85 375.88 95.85 431.32 101.67 431.32 101.67 379.39 106.84 379.39 106.84 373.57 101.67 373.57 101.67 345.85 153.6 345.85 153.6 373.57 148.42 373.57 148.42 379.34 159.42 379.34 159.42 327.37 153.6 327.37 153.6 331.99 92.43 331.99 92.43 337.81 95.85 337.81 95.85 367.84 10.38 367.84 10.38 337.81 23.13 337.81 23.13 331.99 10.38 331.99 10.38 179.53 14.99 179.53 14.99 173.8 6.96 173.8 6.96 126.21 .38 127 .38 526.79 58.12 526.79 58.12 581.12"></polygon><polygon class="cls-14" points="159.42 164.56 153.69 164.56 153.69 173.8 145.56 173.8 145.56 179.53 153.6 179.53 153.6 285.79 159.42 285.79 159.42 164.56"></polygon><polygon class="cls-9" points="159.42 164.56 153.69 164.56 153.69 173.8 145.56 173.8 145.56 179.53 153.6 179.53 153.6 285.79 159.42 285.79 159.42 164.56"></polygon><polygon class="cls-14" points="334.42 108.97 334.42 163.86 328.12 163.86 328.12 266.75 343.01 266.75 343.01 290.41 348.88 290.41 348.88 266.75 356.32 266.75 356.32 163.86 340.15 163.86 340.15 108.87 334.42 108.97"></polygon><polygon class="cls-9" points="334.42 108.97 334.42 163.86 328.12 163.86 328.12 266.75 343.01 266.75 343.01 290.41 348.88 290.41 348.88 266.75 356.32 266.75 356.32 163.86 340.15 163.86 340.15 108.87 334.42 108.97"></polygon><g><path class="cls-16" d="M131.05,593.27c.02-.08.07-.14.14-.14s.13.06.14.14c.56,3.3,2.74,4.94,6.02,4.94h3.84c1.16,0,1.98,1.01,2.2,2.66.05.33-.23.61-.47.45-.46-.31-1.06-.47-1.78-.47h-3.48c-2.95,0-5.22-1.67-6.17-4.98-.11-.37-.5-.37-.61,0-.96,3.31-3.22,4.98-6.18,4.98h-3.48c-.72,0-1.32.16-1.78.47-.23.16-.51-.12-.47-.45.22-1.64,1.05-2.66,2.21-2.66h3.84c3.29,0,5.47-1.64,6.02-4.95h0Z"></path><path class="cls-10" d="M131.05,593.27c.02-.08.07-.14.14-.14s.13.06.14.14c.56,3.3,2.74,4.94,6.02,4.94h3.84c1.16,0,1.98,1.01,2.2,2.66.05.33-.23.61-.47.45-.46-.31-1.06-.47-1.78-.47h-3.48c-2.95,0-5.22-1.67-6.17-4.98-.11-.37-.5-.37-.61,0-.96,3.31-3.22,4.98-6.18,4.98h-3.48c-.72,0-1.32.16-1.78.47-.23.16-.51-.12-.47-.45.22-1.64,1.05-2.66,2.21-2.66h3.84c3.29,0,5.47-1.64,6.02-4.95h0Z"></path></g><g><path class="cls-14" d="M383.07,195.97h2.52c1.9,0,2.97.89,2.97,2.53s-1.07,2.54-2.97,2.54h-1.72v3.99h-.8v-9.06ZM385.51,200.32c1.41,0,2.24-.61,2.24-1.81s-.81-1.81-2.24-1.81h-1.64v3.62h1.64Z"></path><path class="cls-14" d="M390.06,198.63h.78v1.09c.43-.78,1.31-1.18,2.02-1.18.33,0,.66.07.99.24l-.39.7c-.21-.1-.51-.17-.77-.17-.68,0-1.46.36-1.74,1.3-.08.27-.12.57-.12,1.27v3.15h-.78v-6.41Z"></path><path class="cls-14" d="M395.12,195.97h.94v1.39h-.94v-1.39ZM395.2,198.63h.77v6.41h-.77v-6.41Z"></path><path class="cls-14" d="M398.01,198.63h.78v1.1c.38-.85,1.11-1.19,1.88-1.19.91,0,1.57.4,1.89,1.25.4-.83,1.09-1.25,2-1.25,1.55,0,2.13,1.16,2.13,2.69v3.82h-.78v-3.64c0-1.33-.39-2.18-1.52-2.18-1.02,0-1.65.77-1.65,2.26v3.57h-.78v-3.76c0-1.4-.52-2.07-1.5-2.07-1.03,0-1.67.79-1.67,2.26v3.57h-.78v-6.41Z"></path><path class="cls-14" d="M412.84,203.83c-.43.82-1.25,1.29-2.25,1.29-1.44,0-2.31-.77-2.31-1.94,0-.69.29-1.16.72-1.44.46-.31,1.09-.42,1.77-.42h2.05v-.28c0-1.19-.62-1.83-1.82-1.83-.79,0-1.4.29-1.98,1.02l-.56-.48c.68-.85,1.53-1.22,2.59-1.22,1.63,0,2.54.89,2.54,2.51v3.99h-.71l-.04-1.2ZM410.66,204.48c1.18,0,2.17-.93,2.17-2.2v-.36h-1.95c-.51,0-1.03.08-1.37.33-.28.21-.44.51-.44.94,0,.79.6,1.3,1.6,1.3Z"></path><path class="cls-14" d="M415.55,198.63h.78v1.09c.43-.78,1.31-1.18,2.02-1.18.33,0,.66.07.99.24l-.39.7c-.21-.1-.51-.17-.77-.17-.68,0-1.46.36-1.74,1.3-.08.27-.12.57-.12,1.27v3.15h-.78v-6.41Z"></path><path class="cls-14" d="M422.6,204.83l-2.55-6.21h.86l2.1,5.42,2.11-5.42h.85l-3.69,9.05h-.84l1.17-2.84Z"></path><path class="cls-14" d="M430.86,195.97h2.72c1.68,0,2.68.84,2.68,2.25,0,.94-.46,1.68-1.24,2,1.1.25,1.7,1.07,1.7,2.31,0,1.61-1.02,2.5-2.88,2.5h-2.97v-9.06ZM433.83,199.98c.98,0,1.63-.64,1.63-1.64s-.69-1.61-1.88-1.61h-1.91v3.26h2.16ZM433.78,204.29c1.42,0,2.14-.6,2.14-1.79,0-1.13-.66-1.79-1.79-1.79h-2.46v3.58h2.11Z"></path><path class="cls-14" d="M438.19,201.88c0-1.84.99-3.34,2.81-3.34,1.96,0,2.76,1.53,2.76,2.94,0,.1-.01.4-.04.55h-4.76c.03,1.51.84,2.39,2.14,2.39.82,0,1.35-.23,1.91-.83l.55.49c-.73.75-1.43,1.05-2.46,1.05-1.89,0-2.91-1.41-2.91-3.25ZM443,201.45c0-.08,0-.16,0-.24,0-.92-.58-2.02-2-2.02-1.23,0-1.98.98-2.07,2.26h4.06Z"></path><path class="cls-14" d="M445.15,201.82c0-1.96,1.29-3.29,2.92-3.29,1.05,0,1.87.54,2.29,1.36v-3.92h.77v9.06h-.77v-1.26c-.44.85-1.25,1.35-2.29,1.35-1.72,0-2.92-1.42-2.92-3.3ZM448.2,204.41c1.3,0,2.23-1.08,2.23-2.58s-.93-2.58-2.23-2.58-2.26,1.09-2.26,2.58.95,2.58,2.26,2.58Z"></path><path class="cls-14" d="M453.17,198.63h.78v1.09c.43-.78,1.31-1.18,2.02-1.18.33,0,.66.07.99.24l-.39.7c-.21-.1-.51-.17-.77-.17-.68,0-1.46.36-1.74,1.3-.08.27-.12.57-.12,1.27v3.15h-.78v-6.41Z"></path><path class="cls-14" d="M457.55,201.82c0-1.92,1.25-3.29,3.05-3.29s3.04,1.37,3.04,3.29-1.27,3.3-3.04,3.3-3.05-1.36-3.05-3.3ZM460.6,204.43c1.37,0,2.26-1.04,2.26-2.61s-.9-2.61-2.26-2.61-2.28,1.05-2.28,2.61.9,2.61,2.28,2.61Z"></path><path class="cls-14" d="M465.08,201.82c0-1.92,1.25-3.29,3.05-3.29s3.04,1.37,3.04,3.29-1.27,3.3-3.04,3.3-3.05-1.36-3.05-3.3ZM468.13,204.43c1.37,0,2.26-1.04,2.26-2.61s-.9-2.61-2.26-2.61-2.28,1.05-2.28,2.61.9,2.61,2.28,2.61Z"></path><path class="cls-14" d="M472.92,198.63h.78v1.1c.38-.85,1.11-1.19,1.88-1.19.91,0,1.57.4,1.89,1.25.4-.83,1.09-1.25,2-1.25,1.55,0,2.13,1.16,2.13,2.69v3.82h-.78v-3.64c0-1.33-.39-2.18-1.52-2.18-1.02,0-1.65.77-1.65,2.26v3.57h-.78v-3.76c0-1.4-.52-2.07-1.5-2.07-1.03,0-1.67.79-1.67,2.26v3.57h-.78v-6.41Z"></path></g><g><path class="cls-14" d="M56.48,251.59h2.72c1.68,0,2.68.84,2.68,2.25,0,.94-.46,1.68-1.24,2,1.1.25,1.7,1.07,1.7,2.31,0,1.61-1.02,2.5-2.88,2.5h-2.97v-9.06ZM59.45,255.6c.98,0,1.63-.64,1.63-1.64s-.69-1.61-1.88-1.61h-1.91v3.26h2.16ZM59.4,259.91c1.42,0,2.14-.6,2.14-1.79,0-1.13-.66-1.79-1.79-1.79h-2.46v3.58h2.11Z"></path><path class="cls-14" d="M63.78,257.5c0-1.84.99-3.34,2.81-3.34,1.96,0,2.76,1.53,2.76,2.94,0,.1-.01.4-.04.55h-4.76c.03,1.51.84,2.39,2.14,2.39.82,0,1.35-.23,1.91-.83l.55.49c-.73.75-1.43,1.05-2.46,1.05-1.89,0-2.91-1.41-2.91-3.25ZM68.59,257.07c0-.08,0-.16,0-.24,0-.92-.58-2.02-2-2.02-1.23,0-1.98.98-2.07,2.26h4.06Z"></path><path class="cls-14" d="M70.74,257.44c0-1.96,1.29-3.29,2.92-3.29,1.05,0,1.87.54,2.29,1.36v-3.92h.77v9.06h-.77v-1.26c-.44.85-1.25,1.35-2.29,1.35-1.72,0-2.92-1.42-2.92-3.3ZM73.79,260.02c1.3,0,2.23-1.08,2.23-2.58s-.93-2.58-2.23-2.58-2.26,1.09-2.26,2.58.95,2.58,2.26,2.58Z"></path><path class="cls-14" d="M78.76,254.25h.78v1.09c.43-.78,1.31-1.18,2.02-1.18.33,0,.66.07.99.24l-.39.7c-.21-.1-.51-.17-.77-.17-.68,0-1.46.36-1.74,1.3-.08.27-.12.57-.12,1.27v3.15h-.78v-6.41Z"></path><path class="cls-14" d="M83.14,257.44c0-1.92,1.25-3.29,3.05-3.29s3.04,1.36,3.04,3.29-1.27,3.3-3.04,3.3-3.05-1.36-3.05-3.3ZM86.19,260.05c1.37,0,2.26-1.04,2.26-2.61s-.9-2.61-2.26-2.61-2.28,1.05-2.28,2.61.9,2.61,2.28,2.61Z"></path><path class="cls-14" d="M90.67,257.44c0-1.92,1.25-3.29,3.05-3.29s3.04,1.36,3.04,3.29-1.27,3.3-3.04,3.3-3.05-1.36-3.05-3.3ZM93.72,260.05c1.37,0,2.26-1.04,2.26-2.61s-.9-2.61-2.26-2.61-2.28,1.05-2.28,2.61.9,2.61,2.28,2.61Z"></path><path class="cls-14" d="M98.51,254.25h.78v1.1c.38-.85,1.11-1.19,1.88-1.19.91,0,1.57.4,1.89,1.25.4-.83,1.09-1.25,2-1.25,1.55,0,2.13,1.16,2.13,2.68v3.82h-.78v-3.64c0-1.33-.39-2.18-1.52-2.18-1.02,0-1.65.77-1.65,2.26v3.57h-.78v-3.76c0-1.4-.52-2.07-1.5-2.07-1.03,0-1.67.79-1.67,2.26v3.57h-.78v-6.41Z"></path></g><g><path class="cls-14" d="M216.59,350.05h2.43c2.94,0,4.62,1.68,4.62,4.6s-1.64,4.46-4.63,4.46h-2.42v-9.06ZM218.94,358.37c2.5,0,3.89-1.16,3.89-3.74s-1.4-3.83-3.82-3.83h-1.61v7.57h1.54Z"></path><path class="cls-14" d="M225.25,350.05h.94v1.39h-.94v-1.39ZM225.33,352.71h.77v6.41h-.77v-6.41Z"></path><path class="cls-14" d="M228.14,352.71h.78v1.05c.4-.76,1.12-1.14,2.01-1.14,1.38,0,2.2.81,2.2,2.51v3.99h-.78v-3.71c0-1.45-.55-2.11-1.61-2.11-1.16,0-1.83.79-1.83,2.55v3.27h-.78v-6.41Z"></path><path class="cls-14" d="M235.02,350.05h.94v1.39h-.94v-1.39ZM235.1,352.71h.77v6.41h-.77v-6.41Z"></path><path class="cls-14" d="M237.91,352.71h.78v1.05c.4-.76,1.12-1.14,2.01-1.14,1.38,0,2.2.81,2.2,2.51v3.99h-.78v-3.71c0-1.45-.55-2.11-1.61-2.11-1.16,0-1.83.79-1.83,2.55v3.27h-.78v-6.41Z"></path><path class="cls-14" d="M244.36,359.88s0-.1.03-.26l1.11-.88c-.57-.22-.96-.59-.96-1.26,0-.53.27-.9.72-1.2-.36-.37-.56-.87-.56-1.45,0-1.3,1.04-2.2,2.39-2.2.64,0,1.22.21,1.64.58l1.02-.86.4.49-1,.88c.19.33.3.71.3,1.14,0,1.28-.96,2.13-2.33,2.13-.53,0-.99-.12-1.37-.34-.31.17-.45.42-.45.71,0,.66.63.83,1.62.98,1.6.25,2.99.44,2.99,1.75,0,1.16-1.05,1.78-2.7,1.78-1.82,0-2.85-.7-2.85-2ZM247.22,361.27c1.09,0,1.92-.34,1.92-1.08,0-.86-1.16-.96-2.31-1.14-.31-.05-.6-.1-.89-.17l-.8.92c-.01.09-.01.11-.01.15,0,.9.79,1.33,2.09,1.33ZM247.09,356.34c.98,0,1.59-.65,1.59-1.53s-.64-1.56-1.58-1.56-1.62.65-1.62,1.55.63,1.55,1.61,1.55Z"></path><path class="cls-14" d="M254.85,350.05h2.52c1.99,0,2.97.93,2.97,2.5,0,1.25-.64,2.07-1.85,2.38l2.44,4.19h-.92l-2.34-4.07c-.21,0-.44,0-.65,0h-1.36v4.06h-.81v-9.06ZM257.29,354.34c1.38,0,2.24-.55,2.24-1.78s-.88-1.77-2.24-1.77h-1.64v3.56h1.64Z"></path><path class="cls-14" d="M261.85,355.9c0-1.92,1.25-3.29,3.05-3.29s3.04,1.37,3.04,3.29-1.27,3.3-3.04,3.3-3.05-1.37-3.05-3.3ZM264.9,358.51c1.37,0,2.26-1.04,2.26-2.61s-.9-2.61-2.26-2.61-2.28,1.05-2.28,2.61.9,2.61,2.28,2.61Z"></path><path class="cls-14" d="M269.39,355.9c0-1.92,1.25-3.29,3.05-3.29s3.04,1.37,3.04,3.29-1.27,3.3-3.04,3.3-3.05-1.37-3.05-3.3ZM272.44,358.51c1.37,0,2.26-1.04,2.26-2.61s-.9-2.61-2.26-2.61-2.28,1.05-2.28,2.61.9,2.61,2.28,2.61Z"></path><path class="cls-14" d="M277.23,352.71h.78v1.1c.38-.84,1.11-1.19,1.88-1.19.91,0,1.57.4,1.89,1.25.4-.83,1.09-1.25,2-1.25,1.55,0,2.13,1.16,2.13,2.68v3.82h-.78v-3.64c0-1.33-.39-2.18-1.52-2.18-1.02,0-1.65.77-1.65,2.26v3.57h-.78v-3.76c0-1.4-.52-2.07-1.5-2.07-1.03,0-1.67.79-1.67,2.26v3.57h-.78v-6.41Z"></path></g><g><path class="cls-14" d="M217.99,199.21h.81v8.33h4.18v.73h-4.99v-9.06Z"></path><path class="cls-14" d="M224.11,199.21h.94v1.39h-.94v-1.39ZM224.2,201.87h.77v6.41h-.77v-6.41Z"></path><path class="cls-14" d="M226.37,201.87h.86l2.1,5.42,2.11-5.42h.85l-2.61,6.41h-.68l-2.63-6.41Z"></path><path class="cls-14" d="M233.62,199.21h.94v1.39h-.94v-1.39ZM233.7,201.87h.77v6.41h-.77v-6.41Z"></path><path class="cls-14" d="M236.51,201.87h.78v1.05c.4-.76,1.12-1.14,2.01-1.14,1.38,0,2.2.81,2.2,2.51v3.99h-.78v-3.71c0-1.45-.55-2.11-1.61-2.11-1.16,0-1.83.79-1.83,2.55v3.27h-.78v-6.41Z"></path><path class="cls-14" d="M242.97,209.04s0-.1.03-.26l1.11-.88c-.57-.22-.96-.59-.96-1.26,0-.53.27-.9.72-1.2-.36-.37-.56-.87-.56-1.45,0-1.3,1.04-2.2,2.38-2.2.64,0,1.22.21,1.64.58l1.02-.86.4.49-1,.88c.19.33.3.71.3,1.14,0,1.28-.96,2.13-2.33,2.13-.53,0-.99-.12-1.37-.34-.31.18-.45.42-.45.72,0,.66.63.83,1.62.98,1.6.25,2.99.44,2.99,1.75,0,1.16-1.05,1.78-2.7,1.78-1.82,0-2.85-.7-2.85-2ZM245.83,210.43c1.09,0,1.92-.34,1.92-1.08,0-.86-1.16-.96-2.31-1.14-.31-.05-.6-.1-.89-.17l-.8.92c-.01.09-.01.11-.01.15,0,.9.79,1.33,2.09,1.33ZM245.7,205.5c.98,0,1.59-.65,1.59-1.53s-.64-1.56-1.58-1.56-1.62.65-1.62,1.55.63,1.55,1.61,1.55Z"></path><path class="cls-14" d="M253.45,199.21h2.52c1.99,0,2.97.93,2.97,2.5,0,1.25-.64,2.07-1.85,2.38l2.44,4.19h-.92l-2.34-4.07c-.21,0-.44,0-.65,0h-1.36v4.06h-.81v-9.06ZM255.89,203.5c1.38,0,2.24-.55,2.24-1.78s-.88-1.77-2.24-1.77h-1.64v3.56h1.64Z"></path><path class="cls-14" d="M260.46,205.06c0-1.92,1.25-3.29,3.05-3.29s3.04,1.36,3.04,3.29-1.27,3.3-3.04,3.3-3.05-1.36-3.05-3.3ZM263.51,207.67c1.37,0,2.26-1.04,2.26-2.61s-.9-2.61-2.26-2.61-2.28,1.05-2.28,2.61.9,2.61,2.28,2.61Z"></path><path class="cls-14" d="M267.99,205.06c0-1.92,1.25-3.29,3.05-3.29s3.04,1.36,3.04,3.29-1.27,3.3-3.04,3.3-3.05-1.36-3.05-3.3ZM271.04,207.67c1.37,0,2.26-1.04,2.26-2.61s-.9-2.61-2.26-2.61-2.28,1.05-2.28,2.61.9,2.61,2.28,2.61Z"></path><path class="cls-14" d="M275.83,201.87h.78v1.1c.38-.85,1.11-1.19,1.88-1.19.91,0,1.57.4,1.89,1.25.4-.83,1.09-1.25,2-1.25,1.55,0,2.13,1.16,2.13,2.68v3.82h-.78v-3.64c0-1.33-.39-2.18-1.52-2.18-1.02,0-1.65.77-1.65,2.26v3.57h-.78v-3.76c0-1.4-.52-2.07-1.5-2.07-1.03,0-1.67.79-1.67,2.26v3.57h-.78v-6.41Z"></path></g><g><path class="cls-14" d="M68.03,104.89h2.43c2.94,0,4.62,1.68,4.62,4.6s-1.64,4.46-4.63,4.46h-2.42v-9.06ZM70.38,113.21c2.5,0,3.89-1.16,3.89-3.74s-1.4-3.83-3.82-3.83h-1.61v7.57h1.54Z"></path><path class="cls-14" d="M76.53,110.8c0-1.84.99-3.34,2.81-3.34,1.96,0,2.76,1.53,2.76,2.94,0,.1-.01.4-.04.55h-4.76c.03,1.51.84,2.39,2.14,2.39.82,0,1.35-.23,1.91-.83l.55.49c-.73.75-1.43,1.05-2.46,1.05-1.89,0-2.91-1.41-2.91-3.25ZM81.35,110.37c0-.08,0-.16,0-.24,0-.92-.58-2.02-2-2.02-1.23,0-1.98.98-2.07,2.26h4.06Z"></path><path class="cls-14" d="M83.51,110.74c0-1.83,1.06-3.29,2.86-3.29,1.17,0,2.09.59,2.51,1.74l-.7.27c-.27-.82-.9-1.33-1.81-1.33-1.42,0-2.09,1.25-2.09,2.61s.68,2.62,2.09,2.62c.91,0,1.53-.51,1.81-1.33l.7.27c-.42,1.16-1.34,1.75-2.51,1.75-1.8,0-2.86-1.46-2.86-3.3Z"></path><path class="cls-14" d="M92.58,110.43l-1.3,1.37v2.16h-.78v-9.06h.78v5.9l3.15-3.24h1.01l-2.28,2.35,2.67,4.06h-.92l-2.31-3.53Z"></path></g><g><path class="cls-14" d="M243.93,494.79h.81v4.86l4.65-4.86h1.09l-3.45,3.54,3.48,5.52h-.95l-3.11-4.93-1.71,1.75v3.17h-.81v-9.06Z"></path><path class="cls-14" d="M251.66,494.79h.94v1.39h-.94v-1.39ZM251.74,497.44h.77v6.41h-.77v-6.41Z"></path><path class="cls-14" d="M255.31,502.37v-4.31h-1.42v-.62h1.42v-1.85l.79-.46v2.31h1.54v.62h-1.54v4.12c0,.71.22,1.11.81,1.11.19,0,.46-.04.73-.12v.62c-.32.1-.64.16-.92.16-.85,0-1.4-.49-1.4-1.57Z"></path><path class="cls-14" d="M258.66,500.64c0-1.83,1.06-3.29,2.86-3.29,1.17,0,2.09.58,2.51,1.74l-.7.27c-.27-.82-.9-1.33-1.81-1.33-1.42,0-2.09,1.25-2.09,2.61s.68,2.62,2.09,2.62c.91,0,1.53-.51,1.81-1.33l.7.27c-.42,1.16-1.34,1.75-2.51,1.75-1.8,0-2.86-1.46-2.86-3.3Z"></path><path class="cls-14" d="M265.66,494.79h.78v3.69c.4-.75,1.1-1.13,2.01-1.13,1.4,0,2.2.85,2.2,2.51v3.99h-.78v-3.71c0-1.43-.53-2.11-1.61-2.11-1.18,0-1.83.83-1.83,2.55v3.27h-.78v-9.06Z"></path><path class="cls-14" d="M272.29,500.69c0-1.84.99-3.34,2.81-3.34,1.96,0,2.76,1.53,2.76,2.94,0,.1-.01.4-.04.55h-4.76c.03,1.51.84,2.39,2.14,2.39.82,0,1.35-.23,1.91-.83l.55.49c-.73.75-1.43,1.05-2.46,1.05-1.89,0-2.91-1.41-2.91-3.25ZM277.11,500.26c0-.08,0-.16,0-.24,0-.92-.58-2.01-2-2.01-1.23,0-1.98.98-2.07,2.26h4.06Z"></path><path class="cls-14" d="M279.6,497.44h.78v1.05c.4-.76,1.12-1.14,2.01-1.14,1.38,0,2.2.81,2.2,2.51v3.99h-.78v-3.71c0-1.45-.55-2.11-1.61-2.11-1.16,0-1.83.79-1.83,2.55v3.27h-.78v-6.41Z"></path></g><g><path class="cls-14" d="M447.94,514.93h5.86v.73h-5.06v3.37h4.39v.73h-4.39v4.24h-.81v-9.06Z"></path><path class="cls-14" d="M455.11,522.66v-7.73h.77v7.59c0,.6.23.84.64.84.17,0,.38-.04.61-.12v.67c-.29.11-.6.17-.84.17-.72,0-1.18-.44-1.18-1.42Z"></path><path class="cls-14" d="M458.08,520.83c0-1.84.99-3.34,2.81-3.34,1.96,0,2.76,1.53,2.76,2.94,0,.1-.01.4-.04.55h-4.76c.03,1.51.84,2.39,2.14,2.39.82,0,1.35-.23,1.91-.83l.55.49c-.73.75-1.43,1.05-2.46,1.05-1.89,0-2.91-1.41-2.91-3.25ZM462.9,520.4c0-.08,0-.16,0-.24,0-.92-.58-2.01-2-2.01-1.23,0-1.98.98-2.07,2.26h4.06Z"></path><path class="cls-14" d="M467.05,520.77l-2.37-3.19h.96l1.92,2.65,1.94-2.65h.94l-2.38,3.19,2.39,3.22h-.96l-1.93-2.67-1.94,2.67h-.94l2.37-3.22Z"></path></g><g><path class="cls-14" d="M451.54,324.81h.65l1.71,6.06,1.76-5.7h.63l1.76,5.7,1.7-6.06h.65l-2.01,6.98h-.63l-1.79-5.71-1.79,5.71h-.64l-2.01-6.98Z"></path><path class="cls-14" d="M461.55,324.81h.62v6.98h-.62v-6.98Z"></path><path class="cls-14" d="M463.6,328.3c0-2.16,1.26-3.58,3.16-3.58,1.35,0,2.39.71,2.84,1.89l-.58.22c-.38-.96-1.17-1.52-2.26-1.52-1.55,0-2.54,1.17-2.54,2.99s.99,3,2.54,3c1.09,0,1.89-.56,2.26-1.52l.58.21c-.45,1.18-1.49,1.9-2.84,1.9-1.89,0-3.16-1.42-3.16-3.59Z"></path></g><path class="cls-14" d="M370.36,538.69h.65l1.71,6.06,1.76-5.7h.63l1.76,5.7,1.7-6.06h.65l-2.01,6.98h-.63l-1.79-5.71-1.79,5.71h-.64l-2.01-6.98Z"></path><path class="cls-14" d="M382.64,537.81h.48l-3.55,9.08h-.47l3.55-9.08Z"></path><path class="cls-14" d="M384.34,538.69h1.87c2.26,0,3.56,1.29,3.56,3.54s-1.27,3.43-3.57,3.43h-1.86v-6.98ZM386.15,545.09c1.92,0,2.99-.89,2.99-2.88s-1.08-2.95-2.94-2.95h-1.24v5.83h1.19Z"></path><path class="cls-14" d="M189.86,539.67c0-2.17,1.27-3.59,3.16-3.59s3.18,1.42,3.18,3.59-1.27,3.58-3.18,3.58-3.16-1.42-3.16-3.58ZM193.02,542.66c1.57,0,2.55-1.16,2.55-2.99s-.99-3-2.55-3-2.54,1.15-2.54,3,.99,2.99,2.54,2.99Z"></path><path class="cls-14" d="M199.9,535.17h.48l-3.55,9.08h-.48l3.55-9.08Z"></path><path class="cls-14" d="M201.6,536.17h.93l2.35,5.66,2.35-5.66h.92v6.98h-.62v-6.16l-2.35,5.59h-.61l-2.36-5.59v6.16h-.62v-6.98Z"></path><g><path class="cls-14" d="M314.95,536.17h1.94c1.53,0,2.29.72,2.29,1.92,0,.97-.5,1.6-1.43,1.83l1.88,3.22h-.71l-1.8-3.13c-.16,0-.34,0-.5,0h-1.05v3.13h-.62v-6.98ZM316.83,539.47c1.06,0,1.73-.43,1.73-1.37s-.68-1.37-1.73-1.37h-1.26v2.74h1.26Z"></path><path class="cls-14" d="M320.81,536.17h4.56v.56h-3.94v2.59h3.53v.56h-3.53v2.7h3.94v.56h-4.56v-6.98Z"></path><path class="cls-14" d="M326.66,536.17h4.51v.56h-3.89v2.59h3.38v.56h-3.38v3.26h-.62v-6.98Z"></path></g><g><path class="cls-14" d="M274.15,456.56h.65l1.71,6.06,1.76-5.7h.63l1.76,5.7,1.7-6.06h.65l-2.01,6.98h-.63l-1.79-5.71-1.79,5.71h-.64l-2.01-6.98Z"></path><path class="cls-14" d="M284.16,456.56h4.51v.56h-3.89v2.59h3.38v.56h-3.38v3.26h-.62v-6.98Z"></path></g><g><path class="cls-14" d="M191.06,456.56h1.87c2.26,0,3.56,1.29,3.56,3.54s-1.27,3.43-3.57,3.43h-1.86v-6.98ZM192.87,462.96c1.92,0,2.99-.89,2.99-2.88s-1.08-2.95-2.94-2.95h-1.24v5.83h1.19Z"></path><path class="cls-14" d="M197.15,456.56h.65l1.71,6.06,1.76-5.7h.63l1.76,5.7,1.7-6.06h.65l-2.01,6.98h-.63l-1.79-5.71-1.79,5.71h-.64l-2.01-6.98Z"></path></g><g><path class="cls-18" d="M431.53,31.93h1.67c1.03,0,1.65.52,1.65,1.38,0,.58-.28,1.03-.76,1.23.68.16,1.04.66,1.04,1.42,0,.99-.63,1.54-1.77,1.54h-1.83v-5.57ZM433.36,34.39c.6,0,1-.39,1-1.01s-.42-.99-1.16-.99h-1.17v2h1.33ZM433.33,37.04c.88,0,1.32-.37,1.32-1.1,0-.7-.41-1.1-1.1-1.1h-1.51v2.2h1.3Z"></path><path class="cls-18" d="M436.21,36.01v-2.45h.47v2.28c0,.89.34,1.3,1,1.3.71,0,1.13-.48,1.13-1.57v-2.01h.48v3.94h-.48v-.65c-.25.47-.7.7-1.25.7-.84,0-1.35-.51-1.35-1.55Z"></path><path class="cls-18" d="M440.56,31.93h.58v.86h-.58v-.86ZM440.61,33.56h.47v3.94h-.47v-3.94Z"></path><path class="cls-18" d="M442.42,36.69v-4.75h.48v4.67c0,.37.14.52.39.52.1,0,.24-.02.38-.07v.41c-.18.07-.37.1-.52.1-.44,0-.72-.27-.72-.88Z"></path><path class="cls-18" d="M444.28,35.53c0-1.21.79-2.02,1.8-2.02.64,0,1.15.33,1.41.84v-2.41h.47v5.57h-.47v-.78c-.27.52-.77.83-1.41.83-1.06,0-1.8-.88-1.8-2.03ZM446.16,37.12c.8,0,1.37-.66,1.37-1.59s-.57-1.59-1.37-1.59-1.39.67-1.39,1.59.58,1.59,1.39,1.59Z"></path><path class="cls-18" d="M449.24,31.93h.58v.86h-.58v-.86ZM449.3,33.56h.47v3.94h-.47v-3.94Z"></path><path class="cls-18" d="M451.11,33.56h.48v.64c.25-.47.69-.7,1.24-.7.85,0,1.36.5,1.36,1.54v2.45h-.48v-2.28c0-.89-.34-1.3-.99-1.3-.71,0-1.13.48-1.13,1.57v2.01h-.48v-3.94Z"></path><path class="cls-18" d="M455.15,37.97s0-.06.02-.16l.68-.54c-.35-.14-.59-.36-.59-.78,0-.32.16-.55.44-.74-.22-.23-.34-.54-.34-.89,0-.8.64-1.36,1.47-1.36.4,0,.75.13,1.01.36l.63-.53.24.3-.62.54c.12.2.18.44.18.7,0,.79-.59,1.31-1.44,1.31-.32,0-.61-.08-.84-.21-.19.11-.28.26-.28.44,0,.41.39.51,1,.6.98.15,1.84.27,1.84,1.08,0,.72-.64,1.1-1.66,1.1-1.12,0-1.75-.43-1.75-1.23ZM456.91,38.83c.67,0,1.18-.21,1.18-.66,0-.53-.71-.59-1.42-.7-.19-.03-.37-.06-.55-.1l-.49.56c0,.06,0,.07,0,.09,0,.55.49.82,1.29.82ZM456.83,35.8c.6,0,.98-.4.98-.94s-.39-.96-.97-.96-1,.4-1,.95.39.95.99.95Z"></path><path class="cls-18" d="M463.31,31.93h.42l2.05,5.57h-.54l-.51-1.45h-2.42l-.51,1.45h-.55l2.05-5.57ZM464.58,35.61l-1.05-2.99-1.06,2.99h2.11Z"></path><path class="cls-18" d="M467.11,36.73v.78h-.47v-5.57h.47v2.41c.26-.5.77-.84,1.41-.84,1,0,1.79.82,1.79,2.02s-.74,2.03-1.79,2.03c-.64,0-1.14-.31-1.41-.83ZM468.44,37.12c.81,0,1.39-.67,1.39-1.59s-.58-1.59-1.39-1.59-1.37.66-1.37,1.59.57,1.59,1.37,1.59Z"></path><path class="cls-18" d="M471.25,35.53c0-1.18.77-2.02,1.88-2.02s1.87.84,1.87,2.02-.78,2.03-1.87,2.03-1.88-.84-1.88-2.03ZM473.13,37.13c.84,0,1.39-.64,1.39-1.6s-.55-1.6-1.39-1.6-1.4.64-1.4,1.6.56,1.6,1.4,1.6Z"></path><path class="cls-18" d="M475.65,33.56h.53l1.29,3.33,1.3-3.33h.52l-1.61,3.94h-.42l-1.61-3.94Z"></path><path class="cls-18" d="M479.97,35.56c0-1.13.61-2.06,1.73-2.06,1.21,0,1.7.94,1.7,1.81,0,.06,0,.24-.02.34h-2.93c.02.93.52,1.47,1.32,1.47.5,0,.83-.14,1.17-.51l.34.3c-.45.46-.88.65-1.51.65-1.16,0-1.79-.87-1.79-2ZM482.94,35.3s0-.1,0-.15c0-.57-.36-1.24-1.23-1.24-.75,0-1.22.6-1.27,1.39h2.49Z"></path></g><polyline class="cls-1" points="425.09 35.1 408.94 35.1 404.31 48.6"></polyline><path class="cls-17" d="M403,52.42l3.79-4.7s-2.48.88-3.91-1.34l.11,6.03Z"></path><g><path class="cls-18" d="M233.09.06h.5v5.12h2.57v.45h-3.07V.06Z"></path><path class="cls-18" d="M239.62,4.89c-.26.5-.77.8-1.38.8-.88,0-1.42-.48-1.42-1.2,0-.42.18-.71.44-.89.28-.19.67-.26,1.09-.26h1.26v-.17c0-.73-.38-1.13-1.12-1.13-.48,0-.86.18-1.22.63l-.34-.3c.42-.52.94-.75,1.59-.75,1,0,1.56.55,1.56,1.54v2.45h-.44l-.02-.74ZM238.28,5.29c.72,0,1.33-.57,1.33-1.35v-.22h-1.2c-.32,0-.63.05-.84.2-.17.13-.27.31-.27.58,0,.49.37.8.98.8Z"></path><path class="cls-18" d="M241.37,1.69h.48v.64c.25-.47.69-.7,1.24-.7.85,0,1.36.5,1.36,1.54v2.45h-.48v-2.28c0-.89-.34-1.3-.99-1.3-.71,0-1.13.48-1.13,1.57v2.01h-.48V1.69Z"></path><path class="cls-18" d="M245.51,3.65c0-1.21.79-2.02,1.79-2.02.64,0,1.15.33,1.41.84V.06h.47v5.57h-.47v-.78c-.27.52-.77.83-1.41.83-1.05,0-1.79-.88-1.79-2.03ZM247.38,5.24c.8,0,1.37-.66,1.37-1.59s-.57-1.59-1.37-1.59-1.39.67-1.39,1.59.58,1.59,1.39,1.59Z"></path><path class="cls-18" d="M250.1,4.79l.34-.28c.2.46.66.77,1.26.77.57,0,.95-.27.95-.72,0-.55-.53-.68-1.1-.82-.66-.16-1.23-.38-1.23-1.06,0-.62.53-1.05,1.29-1.05.6,0,1.1.26,1.37.76l-.37.21c-.21-.38-.57-.58-1.01-.58-.48,0-.84.24-.84.62,0,.4.36.54.93.68.67.16,1.43.34,1.43,1.2,0,.71-.56,1.17-1.42,1.17-.79,0-1.35-.4-1.6-.9Z"></path><path class="cls-18" d="M254.04,3.65c0-1.13.65-2.02,1.76-2.02.72,0,1.28.36,1.54,1.07l-.43.17c-.17-.5-.55-.82-1.11-.82-.87,0-1.29.77-1.29,1.61s.42,1.61,1.29,1.61c.56,0,.94-.31,1.11-.82l.43.16c-.26.71-.82,1.08-1.54,1.08-1.11,0-1.76-.9-1.76-2.03Z"></path><path class="cls-18" d="M261.01,4.89c-.26.5-.77.8-1.38.8-.88,0-1.42-.48-1.42-1.2,0-.42.18-.71.44-.89.28-.19.67-.26,1.09-.26h1.26v-.17c0-.73-.38-1.13-1.12-1.13-.48,0-.86.18-1.22.63l-.34-.3c.42-.52.94-.75,1.59-.75,1,0,1.56.55,1.56,1.54v2.45h-.44l-.02-.74ZM259.67,5.29c.72,0,1.33-.57,1.33-1.35v-.22h-1.2c-.32,0-.63.05-.84.2-.17.13-.27.31-.27.58,0,.49.37.8.98.8Z"></path><path class="cls-18" d="M266.45,3.66c0,1.21-.79,2.02-1.79,2.02-.64,0-1.15-.33-1.41-.84v2.41h-.47V1.69h.47v.78c.27-.52.77-.83,1.41-.83,1.06,0,1.79.88,1.79,2.03ZM264.58,5.25c.81,0,1.39-.67,1.39-1.59s-.58-1.59-1.39-1.59-1.37.66-1.37,1.59.57,1.59,1.37,1.59Z"></path><path class="cls-18" d="M267.42,3.69c0-1.13.61-2.06,1.73-2.06,1.21,0,1.7.94,1.7,1.81,0,.06,0,.24-.02.34h-2.93c.02.93.52,1.47,1.32,1.47.5,0,.83-.14,1.17-.51l.34.3c-.45.46-.88.65-1.51.65-1.16,0-1.79-.87-1.79-2ZM270.38,3.42s0-.1,0-.15c0-.57-.36-1.24-1.23-1.24-.75,0-1.22.6-1.27,1.39h2.49Z"></path><path class="cls-18" d="M271.79,3.65c0-1.21.79-2.02,1.79-2.02.64,0,1.15.33,1.41.84V.06h.47v5.57h-.47v-.78c-.27.52-.77.83-1.41.83-1.05,0-1.79-.88-1.79-2.03ZM273.66,5.24c.8,0,1.37-.66,1.37-1.59s-.57-1.59-1.37-1.59-1.39.67-1.39,1.59.58,1.59,1.39,1.59Z"></path><path class="cls-18" d="M279.02.06h1.55c1.22,0,1.83.57,1.83,1.54,0,.77-.4,1.27-1.14,1.46l1.5,2.57h-.57l-1.44-2.5c-.13,0-.27,0-.4,0h-.84v2.5h-.5V.06ZM280.53,2.69c.85,0,1.38-.34,1.38-1.1s-.54-1.09-1.38-1.09h-1.01v2.19h1.01Z"></path><path class="cls-18" d="M283.42,3.65c0-1.18.77-2.02,1.88-2.02s1.87.84,1.87,2.02-.78,2.03-1.87,2.03-1.88-.84-1.88-2.03ZM285.29,5.26c.84,0,1.39-.64,1.39-1.6s-.55-1.6-1.39-1.6-1.4.64-1.4,1.6.56,1.6,1.4,1.6Z"></path><path class="cls-18" d="M288.12,3.65c0-1.18.77-2.02,1.88-2.02s1.87.84,1.87,2.02-.78,2.03-1.87,2.03-1.88-.84-1.88-2.03ZM290,5.26c.84,0,1.39-.64,1.39-1.6s-.55-1.6-1.39-1.6-1.4.64-1.4,1.6.56,1.6,1.4,1.6Z"></path><path class="cls-18" d="M293.35,2.07h-.88v-.38h.88v-.57c0-.82.43-1.12,1.03-1.12.26,0,.47.05.66.15l-.16.36c-.14-.07-.28-.11-.45-.11-.4,0-.6.25-.6.71v.57h.97v.38h-.97v3.56h-.48v-3.56Z"></path></g></g></g></svg> 