<?xml version="1.0" encoding="UTF-8"?> <svg xmlns="http://www.w3.org/2000/svg" id="Layer_2" data-name="Layer 2" viewBox="0 0 693.84 651.13"><defs><style> .cls-1 { stroke-dasharray: 6.07 5.06; } .cls-1, .cls-2, .cls-3, .cls-4, .cls-5, .cls-6, .cls-7, .cls-8, .cls-9, .cls-10, .cls-11, .cls-12, .cls-13, .cls-14 { fill: none; } .cls-1, .cls-2, .cls-3, .cls-4, .cls-5, .cls-6, .cls-9, .cls-10, .cls-12, .cls-13 { stroke-width: .25px; } .cls-1, .cls-3, .cls-4, .cls-5, .cls-6, .cls-7, .cls-8, .cls-9, .cls-10, .cls-13, .cls-14 { stroke-linecap: round; stroke-linejoin: round; } .cls-1, .cls-3, .cls-4, .cls-5, .cls-6, .cls-9, .cls-10 { stroke: #75655e; } .cls-2 { stroke: #afa49f; } .cls-2, .cls-11, .cls-12 { stroke-miterlimit: 10; } .cls-3 { stroke-dasharray: 1.54 1.54; } .cls-4 { stroke-dasharray: 5.94 4.95; } .cls-15 { fill: #3a2a22; } .cls-5 { stroke-dasharray: 5.65 4.7; } .cls-6 { stroke-dasharray: 5.99 4.99; } .cls-7 { stroke: #55453d; stroke-width: .15px; } .cls-16 { fill: #fff; } .cls-8, .cls-11 { stroke-width: .75px; } .cls-8, .cls-11, .cls-13, .cls-14 { stroke: #3a2a22; } .cls-17 { fill: #bc8ebc; } .cls-10 { stroke-dasharray: 5.85 4.87; } .cls-12 { stroke: #bc8ebc; } .cls-18 { fill: #afa49f; } .cls-14 { stroke-width: .35px; } .cls-19 { fill: #75655e; } </style></defs><g id="Layer_1-2" data-name="Layer 1"><g><line class="cls-13" x1="37.92" y1="241.88" x2=".12" y2="152.35"></line><polygon class="cls-16" points="593.82 457.06 651.57 457.06 651.57 505.57 673.56 505.57 673.56 604.11 585.78 604.11 585.78 646.89 223.55 646.89 223.55 650.75 140.94 650.75 114.7 275.33 128.56 275.33 128.56 241.88 37.92 241.88 .13 152.35 31.91 142.83 63.88 133.59 95.85 124.63 127.91 116.04 160.16 107.63 192.41 99.68 224.66 91.92 224.66 107.07 224.67 107.14 256.54 101.34 294.33 94.97 332.03 88.87 369.91 83.14 407.7 77.69 445.68 72.7 483.66 67.99 521.63 63.64 559.7 59.67 597.77 56.07 597.77 106.7 593.85 106.7 593.82 457.06"></polygon><line class="cls-9" x1="597.77" y1="19.24" x2="594.79" y2="19.59"></line><polyline class="cls-6" points="589.83 20.18 558.68 24.1 525.6 28.62 492.62 33.43 459.72 38.6 426.83 44.06 393.93 49.88 361.13 55.98 328.42 62.35 295.71 69.1 263.1 76.12 230.57 83.42 203.49 89.82"></polyline><polyline class="cls-9" points="201.06 90.4 198.14 91.09 198.86 94"></polyline><line class="cls-9" x1="199.08" y1="94.92" x2="199.8" y2="97.83"></line><line class="cls-9" x1="124.75" y1="650.75" x2="124.54" y2="647.76"></line><line class="cls-4" x1="124.2" y1="642.82" x2="99.28" y2="286.62"></line><polyline class="cls-9" points="99.11 284.15 98.9 281.15 95.9 281.15"></polyline><line class="cls-1" x1="90.84" y1="281.15" x2="59.99" y2="281.15"></line><polyline class="cls-9" points="57.46 281.15 54.46 281.15 53.29 278.39"></polyline><line class="cls-10" x1="51.4" y1="273.9" x2="39.84" y2="246.51"></line><line class="cls-9" x1="38.9" y1="244.27" x2="37.73" y2="241.5"></line><polygon class="cls-14" points="45.77 239.85 11.03 157.52 45.22 147.36 79.5 137.56 113.87 128.14 148.34 118.99 182.89 110.31 217.45 101.9 218.01 104.21 183.82 112.43 149.72 121.03 115.72 129.99 81.72 139.32 47.9 148.93 14.17 159 47.9 238.93 45.77 239.85"></polygon><g><path class="cls-7" d="M278.67,532.39c-23.13,0-39.35-18.62-39.35-41.58"></path><path class="cls-7" d="M459.08,282.34c0-23.13-18.62-39.35-41.58-39.35"></path><path class="cls-7" d="M206.26,233.75c-23.13,0-39.35,18.61-39.35,41.58"></path><path class="cls-7" d="M616.13,586.62c0-26.19,21.23-44.55,47.43-44.55"></path></g><line class="cls-7" x1="663.56" y1="586.62" x2="663.56" y2="542.07"></line><line class="cls-7" x1="673.56" y1="589.56" x2="673.56" y2="542.07"></line><g><path class="cls-7" d="M482.27,569.53c-22.93,0-39-18.45-39-41.21"></path><path class="cls-7" d="M431.28,372.35c23.13,0,39.35-18.61,39.35-41.58"></path></g><rect class="cls-14" x="278.67" y="490.81" width="2.23" height="41.58"></rect><rect class="cls-14" x="289.11" y="560.66" width="2.23" height="41.58"></rect><rect class="cls-14" x="417.5" y="282.34" width="41.58" height="2.23"></rect><rect class="cls-14" x="206.26" y="233.75" width="2.23" height="41.58"></rect><rect class="cls-14" x="616.13" y="586.62" width="47.43" height="2.88"></rect><rect class="cls-14" x="429.05" y="330.77" width="2.23" height="41.58"></rect><rect class="cls-14" x="539.93" y="522.5" width="41.58" height="2.21"></rect><rect class="cls-14" x="519.14" y="524.71" width="41.58" height="2.21"></rect><rect class="cls-14" x="482.27" y="528.32" width="2.21" height="41.21"></rect><rect class="cls-14" x="488.55" y="464.85" width="41.58" height="2.21"></rect><rect class="cls-14" x="427.94" y="464.85" width="41.58" height="2.21"></rect><rect class="cls-14" x="478.57" y="253.34" width="2.5" height="38.16"></rect><line class="cls-9" x1="337.85" y1="404.69" x2="337.1" y2="404.69"></line><line class="cls-3" x1="335.57" y1="404.69" x2="311.76" y2="404.69"></line><polyline class="cls-9" points="310.99 404.69 310.24 404.69 310.24 405.44"></polyline><line class="cls-3" x1="310.24" y1="406.98" x2="310.24" y2="430.79"></line><polyline class="cls-9" points="310.24 431.55 310.24 432.3 310.99 432.3"></polyline><line class="cls-3" x1="312.53" y1="432.3" x2="336.34" y2="432.3"></line><line class="cls-9" x1="337.1" y1="432.3" x2="337.85" y2="432.3"></line><line class="cls-9" x1="337.85" y1="321.6" x2="337.1" y2="321.6"></line><line class="cls-3" x1="335.56" y1="321.6" x2="311.76" y2="321.6"></line><polyline class="cls-9" points="310.99 321.6 310.24 321.6 310.24 322.35"></polyline><line class="cls-3" x1="310.24" y1="323.89" x2="310.24" y2="347.7"></line><polyline class="cls-9" points="310.24 348.46 310.24 349.21 310.99 349.21"></polyline><line class="cls-3" x1="312.53" y1="349.21" x2="336.33" y2="349.21"></line><line class="cls-9" x1="337.1" y1="349.21" x2="337.85" y2="349.21"></line><line class="cls-9" x1="400.59" y1="415.13" x2="400.59" y2="412.13"></line><line class="cls-5" x1="400.59" y1="407.43" x2="400.58" y2="337.33"></line><line class="cls-9" x1="400.58" y1="334.97" x2="400.58" y2="331.97"></line><rect class="cls-14" x="288.14" y="318.12" width="49.71" height="117.81"></rect><g><rect class="cls-14" x="307.91" y="385.3" width="9.78" height="1.74" rx=".59" ry=".59"></rect><path class="cls-14" d="M323.59,386.17c0-.49.4-.9.9-.9s.9.4.9.9-.4.9-.9.9-.9-.4-.9-.9Z"></path></g><polyline class="cls-14" points="309.22 385.3 309.22 382.87 310.77 382.87 310.77 385.3"></polyline><line class="cls-14" x1="310.77" y1="383.74" x2="309.22" y2="383.74"></line><polyline class="cls-14" points="313.09 385.3 313.09 373.24 334.84 373.24 334.84 399.09 313.09 399.09 313.09 387.04"></polyline><polyline class="cls-14" points="314.17 387.04 314.17 398.01 333.77 398.01 333.76 374.32 314.17 374.32 314.17 385.3"></polyline><line class="cls-14" x1="388.67" y1="295.01" x2="388.68" y2="457.82"></line><line class="cls-14" x1="388.68" y1="415.13" x2="416.1" y2="415.13"></line><line class="cls-14" x1="388.67" y1="331.97" x2="416.09" y2="331.97"></line><line class="cls-14" x1="391.17" y1="415.13" x2="391.18" y2="457.82"></line><line class="cls-14" x1="391.17" y1="295.01" x2="391.18" y2="331.97"></line><g><path class="cls-14" d="M416.59,613.27h15.44c.6,0,1.08.48,1.08,1.08v5.29c0,.6-.48,1.08-1.08,1.08h-15.44c-.6,0-1.08-.48-1.08-1.08v-5.29c0-.6.48-1.08,1.08-1.08Z"></path><path class="cls-14" d="M419.85,609.12c-.28,0-.54-.11-.73-.32-1.88-2.09-3.08-5.3-3.08-8.9,0-6.31,3.7-11.42,8.28-11.42s8.28,5.11,8.28,11.42c0,3.6-1.2,6.8-3.08,8.9-.19.21-.46.32-.73.32h-8.92Z"></path></g><line class="cls-14" x1="416.04" y1="599.91" x2="416.04" y2="613.43"></line><line class="cls-14" x1="432.59" y1="599.91" x2="432.59" y2="613.43"></line><polyline class="cls-14" points="444.99 620.72 444.99 595.71 489.11 595.71"></polyline><path class="cls-14" d="M463,612.66h9.87c.4,0,.72-.32.72-.72v-10.9c0-.4-.32-.72-.72-.72h-20.82c-.4,0-.72.32-.72.72v10.9c0,.4.32.72.72.72h9.48"></path><rect class="cls-14" x="461.53" y="610.22" width="1.47" height="5.89"></rect><circle class="cls-14" cx="462.26" cy="606.49" r=".84"></circle><rect class="cls-14" x="433.38" y="420.37" width="30.61" height="38.03"></rect><polyline class="cls-14" points="423.9 384.25 501.23 384.25 501.23 409.39"></polyline><path class="cls-14" d="M480.49,401.31h9.87c.4,0,.72-.32.72-.72v-10.9c0-.4-.32-.72-.72-.72h-20.82c-.4,0-.72.32-.72.72v10.9c0,.4.32.72.72.72h9.48"></path><rect class="cls-14" x="479.02" y="398.87" width="1.47" height="5.89"></rect><g><circle class="cls-14" cx="479.75" cy="395.14" r=".84"></circle><path class="cls-14" d="M445.73,401.31h9.87c.4,0,.72-.32.72-.72v-10.9c0-.4-.32-.72-.72-.72h-20.82c-.4,0-.72.32-.72.72v10.9c0,.4.32.72.72.72h9.48"></path></g><rect class="cls-14" x="444.26" y="398.87" width="1.47" height="5.89"></rect><circle class="cls-14" cx="445" cy="395.14" r=".84"></circle><line class="cls-14" x1="542.24" y1="333.08" x2="542.23" y2="408.45"></line><line class="cls-14" x1="542.24" y1="333.08" x2="542.23" y2="409.27"></line><line class="cls-14" x1="543.52" y1="333.08" x2="543.51" y2="409.27"></line><line class="cls-14" x1="543.52" y1="337.77" x2="542.24" y2="337.77"></line><line class="cls-14" x1="543.52" y1="375.77" x2="542.24" y2="375.77"></line><g><path class="cls-14" d="M568.85,344.97c0-2.86-2.32-5.18-5.18-5.18s-5.18,2.32-5.18,5.18,2.32,5.18,5.18,5.18,5.18-2.32,5.18-5.18Z"></path><path class="cls-14" d="M564.88,344.97c0,.67-.54,1.21-1.21,1.21s-1.21-.54-1.21-1.21.54-1.21,1.21-1.21,1.21.54,1.21,1.21Z"></path></g><line class="cls-14" x1="583.82" y1="395.88" x2="543.51" y2="395.88"></line><g><rect class="cls-14" x="512.93" y="401.81" width="17.6" height="7.45" rx="1.08" ry="1.08"></rect><path class="cls-14" d="M517.27,397.67c-.28,0-.54-.11-.73-.32-1.88-2.09-3.08-5.3-3.08-8.9,0-6.31,3.7-11.42,8.28-11.42s8.28,5.11,8.28,11.42c0,3.6-1.2,6.8-3.08,8.9-.19.21-.46.32-.73.32h-8.92Z"></path></g><line class="cls-14" x1="513.46" y1="388.45" x2="513.46" y2="401.97"></line><line class="cls-14" x1="530.01" y1="388.45" x2="530.01" y2="401.97"></line><line class="cls-14" x1="358.64" y1="522.5" x2="291.34" y2="522.5"></line><line class="cls-14" x1="387.78" y1="535.63" x2="384.57" y2="535.63"></line><g><path class="cls-14" d="M383.7,535.63h-11.6c-1.38,0-2.5,1.12-2.5,2.5v61.83c0,1.38,1.12,2.5,2.5,2.5h24.04c1.38,0,2.5-1.12,2.5-2.5v-61.83c0-1.38-1.12-2.5-2.5-2.5h-8.37"></path><path class="cls-14" d="M384.57,531.6v10.86c0,.24-.19.43-.43.43s-.43-.19-.43-.43v-10.81"></path><path class="cls-14" d="M383.7,541.38c-.46.17-.79.61-.79,1.14,0,.67.54,1.21,1.21,1.21s1.21-.54,1.21-1.21c0-.51-.32-.95-.77-1.13"></path><path class="cls-14" d="M383.7,537.35c-2.67.21-4.76,2.45-4.76,5.17,0,2.86,2.32,5.18,5.18,5.18s5.18-2.32,5.18-5.18c0-2.71-2.09-4.94-4.74-5.16"></path></g><rect class="cls-14" x="381.59" y="530.63" width="5.08" height=".97"></rect><line class="cls-14" x1="402.35" y1="530.63" x2="402.35" y2="606.86"></line><line class="cls-14" x1="403.64" y1="530.63" x2="403.63" y2="606.82"></line><line class="cls-14" x1="403.64" y1="535.32" x2="402.35" y2="535.32"></line><line class="cls-14" x1="403.64" y1="573.32" x2="402.36" y2="573.32"></line><rect class="cls-14" x="389.88" y="354.89" width="24.28" height="36.98"></rect><rect class="cls-14" x="390.96" y="355.97" width="22.12" height="34.82"></rect><path class="cls-14" d="M391.72,373.38c0-.71.57-1.28,1.28-1.28s1.28.57,1.28,1.28-.57,1.28-1.28,1.28c-.71,0-1.28-.57-1.28-1.28Z"></path><line class="cls-14" x1="390.96" y1="355.97" x2="389.88" y2="354.89"></line><line class="cls-14" x1="390.97" y1="390.79" x2="389.89" y2="391.87"></line><line class="cls-14" x1="413.08" y1="390.78" x2="414.16" y2="391.86"></line><line class="cls-14" x1="413.08" y1="355.97" x2="414.16" y2="354.89"></line><polygon class="cls-14" points="393 374.43 394.05 373.38 393 372.32 391.94 373.38 393 374.43"></polygon><line class="cls-14" x1="394.05" y1="373.38" x2="391.94" y2="373.38"></line><g><path class="cls-13" d="M514.38,448.22c.03,1.51.06,3.03.13,4.57.04.8.09,1.6.13,2.35.03.57.07,1.11.16,1.78.09.65.25,1.42-.23,1.73-.11.07-.25.12-.38.13-.77.06-.9-1.18-.97-2.24-.15-2.35.04-3.74.16-5.44.06-.9.1-1.9.14-2.89-.04-.99-.08-1.98-.14-2.89-.11-1.7-.3-3.09-.16-5.44.07-1.05.2-2.3.97-2.24.13.01.27.06.38.13.48.3.32,1.08.23,1.73-.1.67-.13,1.21-.16,1.78-.05.75-.09,1.56-.13,2.36-.07,1.54-.1,3.06-.13,4.57Z"></path><path class="cls-13" d="M509.68,448.22c.03,1.51.06,3.03.13,4.57.04.8.09,1.6.13,2.35.03.57.07,1.11.16,1.78.09.65.25,1.42-.23,1.73-.11.07-.25.12-.38.13-.77.06-.9-1.18-.97-2.24-.15-2.35.04-3.74.16-5.44.06-.9.1-1.9.14-2.89-.04-.99-.08-1.98-.14-2.89-.11-1.7-.3-3.09-.16-5.44.07-1.05.2-2.3.97-2.24.13.01.27.06.38.13.48.3.32,1.08.23,1.73-.1.67-.13,1.21-.16,1.78-.04.75-.09,1.56-.13,2.36-.07,1.54-.1,3.06-.13,4.57Z"></path><path class="cls-13" d="M504.99,448.22c.03,1.51.06,3.03.13,4.57.04.8.09,1.6.13,2.35.03.57.07,1.11.16,1.78.09.65.25,1.42-.23,1.73-.11.07-.25.12-.38.13-.77.06-.9-1.18-.97-2.24-.15-2.35.04-3.74.16-5.44.06-.9.1-1.9.14-2.89-.04-.99-.08-1.98-.14-2.89-.11-1.7-.3-3.09-.16-5.44.07-1.05.2-2.3.97-2.24.13.01.27.06.38.13.48.3.32,1.08.23,1.73-.1.67-.13,1.21-.16,1.78-.04.75-.09,1.56-.13,2.36-.07,1.54-.1,3.06-.13,4.57Z"></path></g><line class="cls-13" x1="481.07" y1="448.22" x2="537.62" y2="448.22"></line><g><path class="cls-13" d="M344.07,584.08c1.51-.03,3.03-.06,4.57-.13.8-.04,1.6-.09,2.35-.13.57-.03,1.11-.07,1.78-.16.65-.09,1.42-.25,1.73.23.07.11.12.25.13.38.06.77-1.18.9-2.24.97-2.35.15-3.74-.04-5.44-.16-.9-.06-1.9-.1-2.89-.14-.99.04-1.98.08-2.89.14-1.7.11-3.09.3-5.44.16-1.05-.07-2.3-.2-2.24-.97.01-.13.06-.27.13-.38.31-.48,1.08-.33,1.73-.23.67.1,1.21.13,1.78.16.75.04,1.56.09,2.35.13,1.55.07,3.06.1,4.57.13Z"></path><path class="cls-13" d="M344.07,588.77c1.51-.03,3.03-.06,4.57-.13.8-.04,1.6-.09,2.35-.13.57-.03,1.11-.07,1.78-.16.65-.09,1.42-.25,1.73.23.07.11.12.25.13.38.06.77-1.18.9-2.24.97-2.35.15-3.74-.04-5.44-.16-.9-.06-1.9-.1-2.89-.14-.99.04-1.98.08-2.89.14-1.7.11-3.09.3-5.44.16-1.05-.07-2.3-.2-2.24-.97.01-.13.06-.27.13-.38.31-.48,1.08-.33,1.73-.23.67.1,1.21.13,1.78.16.75.04,1.56.09,2.35.13,1.55.07,3.06.1,4.57.13Z"></path><path class="cls-13" d="M344.07,593.47c1.51-.03,3.03-.06,4.57-.13.8-.04,1.6-.09,2.35-.13.57-.03,1.11-.07,1.78-.16.65-.09,1.42-.25,1.73.23.07.11.12.25.13.38.06.77-1.18.9-2.24.97-2.35.15-3.74-.04-5.44-.16-.9-.06-1.9-.1-2.89-.14-.99.04-1.98.08-2.89.14-1.7.11-3.09.3-5.44.16-1.05-.07-2.3-.2-2.24-.97.01-.13.06-.27.13-.38.31-.48,1.08-.33,1.73-.23.67.1,1.21.13,1.78.16.75.04,1.56.09,2.35.13,1.55.07,3.06.1,4.57.13Z"></path><path class="cls-13" d="M322.74,622.32c.03,1.51.06,3.03.13,4.57.04.8.09,1.6.13,2.36.03.57.07,1.11.16,1.78.09.65.25,1.42-.23,1.73-.11.07-.25.12-.38.13-.77.06-.9-1.18-.97-2.24-.15-2.35.04-3.74.16-5.44.06-.9.1-1.89.14-2.89-.04-.99-.08-1.98-.14-2.89-.12-1.7-.3-3.09-.16-5.44.07-1.05.2-2.3.97-2.24.13,0,.27.06.38.13.48.31.33,1.08.23,1.73-.1.67-.13,1.21-.16,1.78-.04.75-.09,1.56-.13,2.35-.07,1.55-.1,3.06-.13,4.57Z"></path><path class="cls-13" d="M318.05,622.32c.03,1.51.06,3.03.13,4.57.04.8.09,1.6.13,2.36.03.57.07,1.11.16,1.78.09.65.25,1.42-.23,1.73-.11.07-.25.12-.38.13-.77.06-.9-1.18-.97-2.24-.15-2.35.04-3.74.16-5.44.06-.9.1-1.89.14-2.89-.04-.99-.08-1.98-.14-2.89-.12-1.7-.3-3.09-.16-5.44.07-1.05.2-2.3.97-2.24.13,0,.27.06.38.13.48.31.32,1.08.23,1.73-.1.67-.13,1.21-.16,1.78-.04.75-.09,1.56-.13,2.35-.07,1.55-.1,3.06-.13,4.57Z"></path><path class="cls-13" d="M313.35,622.32c.03,1.51.06,3.03.13,4.57.04.8.09,1.6.13,2.36.03.57.07,1.11.16,1.78.09.65.25,1.42-.23,1.73-.11.07-.25.12-.38.13-.77.06-.9-1.18-.97-2.24-.15-2.35.04-3.74.16-5.44.06-.9.1-1.89.14-2.89-.04-.99-.08-1.98-.14-2.89-.12-1.7-.3-3.09-.16-5.44.07-1.05.2-2.3.97-2.24.13,0,.27.06.38.13.48.31.33,1.08.23,1.73-.1.67-.13,1.21-.16,1.78-.04.75-.09,1.56-.13,2.35-.07,1.55-.1,3.06-.13,4.57Z"></path></g><polyline class="cls-13" points="291.34 622.32 344.07 622.32 344.07 556.04"></polyline><polyline class="cls-13" points="148.52 642.62 123.39 283.46 164.6 283.46"></polyline><line class="cls-13" x1="232.79" y1="186.44" x2="232.79" y2="119.73"></line><polyline class="cls-13" points="570.6 72.52 536.42 76.03 502.14 79.82 467.95 83.88 433.85 88.22"></polyline><polyline class="cls-13" points="399.57 92.84 357.81 98.94 316.04 105.41 274.37 112.34 232.79 119.73"></polyline><polyline class="cls-13" points="224.66 107.07 224.66 91.92 192.41 99.68 160.16 107.63 127.91 116.04 95.85 124.63 63.88 133.59 31.91 142.83 .13 152.35 37.92 241.88 128.56 241.88 128.56 275.33"></polyline><line class="cls-13" x1="226.97" y1="186.44" x2="226.97" y2="114.93"></line><polyline class="cls-13" points="589.64 64.94 549.17 68.91 508.7 73.25 468.32 77.97 427.94 83.14 387.65 88.69 347.36 94.6 307.17 100.97 267.07 107.72 226.97 114.93"></polyline><polygon class="cls-8" points="223.55 650.75 140.94 650.75 114.7 275.33 164.6 275.33 164.6 277.64 117.2 277.64 143.07 648.44 223.55 648.44 223.55 650.75"></polygon><line class="cls-8" x1="117.2" y1="277.64" x2="114.7" y2="275.33"></line><line class="cls-8" x1="223.55" y1="648.44" x2="223.55" y2="646.89"></line><polygon class="cls-8" points="597.77 106.7 597.77 56.07 559.7 59.67 521.63 63.64 483.65 67.99 445.68 72.7 407.7 77.69 369.91 83.14 332.03 88.87 294.33 94.97 256.54 101.34 218.93 108.18 218.93 186.44 221.24 186.44 221.24 110.03 258.38 103.38 295.71 97 332.95 90.99 370.37 85.36 407.79 80 445.22 75.1 482.73 70.39 520.24 66.14 557.85 62.17 595.46 58.56 595.46 106.7 597.77 106.7"></polygon><rect class="cls-8" x="179.66" y="642.62" width="2.31" height="5.82"></rect><polyline class="cls-8" points="142.98 562.79 137.15 563.16 136.97 560.85 142.79 560.48 142.98 562.79"></polyline><polyline class="cls-8" points="147.78 631.9 141.96 632.27 141.77 629.96 147.6 629.59 147.78 631.9"></polyline><polygon class="cls-8" points="138.1 493.67 132.35 494.04 132.16 491.73 137.94 491.37 138.1 493.67"></polygon><polygon class="cls-8" points="135.68 459.12 129.88 459.49 129.72 457.18 135.52 456.8 135.68 459.12"></polygon><polyline class="cls-8" points="133.27 424.37 127.54 424.84 127.36 422.53 133.09 422.16 133.27 424.37"></polyline><polyline class="cls-8" points="128.47 355.35 122.65 355.81 122.55 353.5 128.28 353.04 128.47 355.35"></polyline><polyline class="cls-8" points="142.98 646.87 143.07 648.44 144.73 648.44 150.09 642.62 148.52 642.62 148.43 641.05 142.98 646.87"></polyline><polyline class="cls-8" points="117.2 277.64 117.29 279.4 123.48 285.13 123.39 283.46 125.05 283.46 118.86 277.64 117.2 277.64"></polyline><rect class="cls-8" x="208.49" y="275.33" width="2.31" height="8.13"></rect><rect class="cls-8" x="164.6" y="275.33" width="2.31" height="8.13"></rect><polyline class="cls-8" points="226.97 116.41 226.97 114.93 228.54 114.65 222.72 109.85 221.24 110.03 221.24 110.12 221.24 111.6 226.97 116.41"></polyline><rect class="cls-8" x="221.24" y="184.13" width="5.73" height="2.31"></rect><polyline class="cls-8" points="296.36 96.91 297.28 102.64 295.07 103.01 294.14 97.28 296.36 96.91"></polyline><polyline class="cls-8" points="364.83 86.19 365.66 91.92 363.44 92.2 362.52 86.56 364.83 86.19"></polyline><polyline class="cls-8" points="399.11 81.2 399.94 86.93 397.63 87.3 396.89 81.57 399.11 81.2"></polyline><polyline class="cls-8" points="433.48 76.58 434.22 82.31 431.91 82.59 431.17 76.86 433.48 76.58"></polyline><polyline class="cls-8" points="502.23 68.17 502.87 73.9 500.66 74.18 500.01 68.45 502.23 68.17"></polyline><polyline class="cls-8" points="571.16 60.87 571.71 66.6 569.4 66.88 568.85 61.06 571.16 60.87"></polyline><polyline class="cls-8" points="595.46 58.56 593.7 58.75 587.97 65.12 589.64 64.94 589.64 66.69 595.46 60.32 595.46 58.56"></polyline><rect class="cls-8" x="221.24" y="146.71" width="5.73" height="2.31"></rect><rect class="cls-8" x="589.64" y="69.28" width="5.82" height="2.31"></rect><line class="cls-8" x1="595.46" y1="106.7" x2="593.82" y2="106.7"></line><polygon class="cls-15" points="570.6 66.73 570.6 242.99 475.25 242.99 475.25 253.34 481.07 253.34 481.07 248.72 583.82 248.72 583.82 325.04 481.07 325.04 481.07 291.5 475.25 291.5 475.25 325.04 470.63 325.04 470.63 330.77 542.24 330.77 542.24 333.08 583.82 333.08 583.82 409.31 424.43 409.31 424.43 330.77 429.05 330.77 429.05 325.04 424.43 325.04 424.43 289.19 417.5 289.19 417.5 284.57 411.77 284.57 411.77 289.19 388.67 289.19 388.67 295.01 416.09 295.01 416.09 457.82 388.67 457.82 388.67 467.06 427.94 467.06 427.94 461.33 424.43 461.33 424.43 417.44 472.94 417.44 472.94 461.33 469.52 461.33 469.52 467.06 488.55 467.06 488.55 461.33 481.07 461.33 481.07 433.61 537.62 433.61 537.62 461.33 530.13 461.33 530.13 467.06 641.57 467.06 641.57 515.57 663.56 515.57 663.56 542.07 673.56 542.07 673.56 505.57 651.57 505.57 651.57 457.06 593.82 457.06 593.82 106.7 589.64 106.7 589.64 64.94 570.6 66.73"></polygon><polygon class="cls-11" points="570.6 66.73 570.6 242.99 475.25 242.99 475.25 253.34 481.07 253.34 481.07 248.72 583.82 248.72 583.82 325.04 481.07 325.04 481.07 291.5 475.25 291.5 475.25 325.04 470.63 325.04 470.63 330.77 542.24 330.77 542.24 333.08 583.82 333.08 583.82 409.31 424.43 409.31 424.43 330.77 429.05 330.77 429.05 325.04 424.43 325.04 424.43 289.19 417.5 289.19 417.5 284.57 411.77 284.57 411.77 289.19 388.67 289.19 388.67 295.01 416.09 295.01 416.09 457.82 388.67 457.82 388.67 467.06 427.94 467.06 427.94 461.33 424.43 461.33 424.43 417.44 472.94 417.44 472.94 461.33 469.52 461.33 469.52 467.06 488.55 467.06 488.55 461.33 481.07 461.33 481.07 433.61 537.62 433.61 537.62 461.33 530.13 461.33 530.13 467.06 641.57 467.06 641.57 515.57 663.56 515.57 663.56 542.07 673.56 542.07 673.56 505.57 651.57 505.57 651.57 457.06 593.82 457.06 593.82 106.7 589.64 106.7 589.64 64.94 570.6 66.73"></polygon><polygon class="cls-15" points="223.55 646.89 585.78 646.89 585.78 604.11 673.56 604.11 673.56 589.49 663.56 589.49 663.56 594.11 590.75 594.11 590.75 522.5 581.51 522.5 581.51 528.32 585.02 528.32 585.02 594.11 575.78 594.11 575.78 628.76 494.93 628.76 494.93 528.32 498.35 528.32 498.35 522.5 484.49 522.5 484.49 528.32 489.11 528.32 489.11 620.72 403.64 620.72 403.64 606.86 364.37 606.86 364.37 530.63 403.64 530.63 403.64 528.32 443.28 528.32 443.28 522.5 358.64 522.5 358.64 550.22 291.34 550.22 291.34 484.99 280.9 484.99 280.9 490.81 285.52 490.81 285.52 560.66 291.34 560.66 291.34 556.04 358.64 556.04 358.64 636.89 291.34 636.89 291.34 602.24 285.52 602.24 285.52 636.89 153.88 636.89 153.39 630.3 147.69 630.76 148.52 642.62 223.55 642.62 223.55 646.89"></polygon><polygon class="cls-11" points="223.55 646.89 585.78 646.89 585.78 604.11 673.56 604.11 673.56 589.49 663.56 589.49 663.56 594.11 590.75 594.11 590.75 522.5 581.51 522.5 581.51 528.32 585.02 528.32 585.02 594.11 575.78 594.11 575.78 628.76 494.93 628.76 494.93 528.32 498.35 528.32 498.35 522.5 484.49 522.5 484.49 528.32 489.11 528.32 489.11 620.72 403.64 620.72 403.64 606.86 364.37 606.86 364.37 530.63 403.64 530.63 403.64 528.32 443.28 528.32 443.28 522.5 358.64 522.5 358.64 550.22 291.34 550.22 291.34 484.99 280.9 484.99 280.9 490.81 285.52 490.81 285.52 560.66 291.34 560.66 291.34 556.04 358.64 556.04 358.64 636.89 291.34 636.89 291.34 602.24 285.52 602.24 285.52 636.89 153.88 636.89 153.39 630.3 147.69 630.76 148.52 642.62 223.55 642.62 223.55 646.89"></polygon><rect class="cls-15" x="210.8" y="186.44" width="27.12" height="102.75"></rect><rect class="cls-11" x="210.8" y="186.44" width="27.12" height="102.75"></rect><polygon class="cls-15" points="135.59 457.91 137.99 492.47 143.81 492.1 143.71 490.81 239.32 490.81 239.32 484.99 234.7 484.99 234.7 468.82 142.14 468.82 141.4 457.55 135.59 457.91"></polygon><polygon class="cls-11" points="135.59 457.91 137.99 492.47 143.81 492.1 143.71 490.81 239.32 490.81 239.32 484.99 234.7 484.99 234.7 468.82 142.14 468.82 141.4 457.55 135.59 457.91"></polygon><polygon class="cls-15" points="411.77 91.17 399.57 92.84 398.83 87.11 433.11 82.49 433.85 88.22 417.5 90.34 417.5 242.99 411.77 242.99 411.77 91.17"></polygon><polygon class="cls-11" points="411.77 91.17 399.57 92.84 398.83 87.11 433.11 82.49 433.85 88.22 417.5 90.34 417.5 242.99 411.77 242.99 411.77 91.17"></polygon><g><path class="cls-17" d="M685.62,566.08c-.08-.02-.14-.07-.14-.14s.06-.13.14-.14c3.3-.56,4.94-2.74,4.94-6.02v-3.83c0-1.16,1.01-1.98,2.66-2.2.33-.05.61.23.45.47-.31.46-.47,1.06-.47,1.78v3.48c0,2.95-1.67,5.22-4.98,6.17-.37.11-.37.5,0,.61,3.31.96,4.98,3.22,4.98,6.18v3.48c0,.72.16,1.32.47,1.78.16.23-.12.51-.45.47-1.64-.22-2.66-1.05-2.66-2.2v-3.84c0-3.29-1.64-5.46-4.94-6.02h0Z"></path><path class="cls-12" d="M685.62,566.08c-.08-.02-.14-.07-.14-.14s.06-.13.14-.14c3.3-.56,4.94-2.74,4.94-6.02v-3.83c0-1.16,1.01-1.98,2.66-2.2.33-.05.61.23.45.47-.31.46-.47,1.06-.47,1.78v3.48c0,2.95-1.67,5.22-4.98,6.17-.37.11-.37.5,0,.61,3.31.96,4.98,3.22,4.98,6.18v3.48c0,.72.16,1.32.47,1.78.16.23-.12.51-.45.47-1.64-.22-2.66-1.05-2.66-2.2v-3.84c0-3.29-1.64-5.46-4.94-6.02h0Z"></path></g><g><path class="cls-15" d="M444.72,161.84h2.52c1.9,0,2.97.89,2.97,2.53s-1.07,2.54-2.97,2.54h-1.72v3.99h-.8v-9.06ZM447.16,166.19c1.41,0,2.24-.61,2.24-1.81s-.81-1.81-2.24-1.81h-1.64v3.62h1.64Z"></path><path class="cls-15" d="M451.71,164.49h.78v1.09c.43-.78,1.31-1.18,2.02-1.18.33,0,.66.07.99.24l-.39.7c-.21-.1-.51-.17-.77-.17-.68,0-1.46.36-1.74,1.3-.08.27-.12.57-.12,1.27v3.15h-.78v-6.41Z"></path><path class="cls-15" d="M456.77,161.84h.94v1.39h-.94v-1.39ZM456.86,164.49h.77v6.41h-.77v-6.41Z"></path><path class="cls-15" d="M459.66,164.49h.78v1.1c.38-.85,1.11-1.19,1.88-1.19.91,0,1.57.4,1.89,1.25.4-.83,1.09-1.25,2-1.25,1.55,0,2.13,1.16,2.13,2.69v3.82h-.78v-3.64c0-1.33-.39-2.18-1.52-2.18-1.02,0-1.65.77-1.65,2.26v3.57h-.78v-3.76c0-1.4-.52-2.07-1.5-2.07-1.03,0-1.67.79-1.67,2.26v3.57h-.78v-6.41Z"></path><path class="cls-15" d="M474.49,169.7c-.43.82-1.25,1.29-2.25,1.29-1.44,0-2.31-.77-2.31-1.94,0-.69.29-1.16.72-1.44.46-.31,1.09-.42,1.77-.42h2.05v-.28c0-1.19-.62-1.83-1.82-1.83-.79,0-1.4.29-1.98,1.02l-.56-.48c.68-.85,1.53-1.22,2.59-1.22,1.63,0,2.54.89,2.54,2.51v3.99h-.71l-.04-1.2ZM472.31,170.35c1.18,0,2.17-.93,2.17-2.2v-.36h-1.95c-.51,0-1.03.08-1.37.33-.28.21-.44.51-.44.94,0,.79.6,1.3,1.6,1.3Z"></path><path class="cls-15" d="M477.2,164.49h.78v1.09c.43-.78,1.31-1.18,2.02-1.18.33,0,.66.07.99.24l-.39.7c-.21-.1-.51-.17-.77-.17-.68,0-1.46.36-1.74,1.3-.08.27-.12.57-.12,1.27v3.15h-.78v-6.41Z"></path><path class="cls-15" d="M484.25,170.7l-2.55-6.21h.86l2.1,5.42,2.11-5.42h.85l-3.69,9.05h-.84l1.17-2.84Z"></path><path class="cls-15" d="M492.51,161.84h2.72c1.68,0,2.68.84,2.68,2.25,0,.94-.46,1.68-1.24,2,1.1.25,1.7,1.07,1.7,2.31,0,1.61-1.02,2.5-2.88,2.5h-2.97v-9.06ZM495.48,165.85c.98,0,1.63-.64,1.63-1.64s-.69-1.61-1.88-1.61h-1.91v3.26h2.16ZM495.43,170.16c1.42,0,2.14-.6,2.14-1.79,0-1.13-.66-1.79-1.79-1.79h-2.46v3.58h2.11Z"></path><path class="cls-15" d="M499.84,167.74c0-1.84.99-3.34,2.81-3.34,1.96,0,2.76,1.53,2.76,2.94,0,.1-.01.4-.04.55h-4.76c.03,1.51.84,2.39,2.14,2.39.82,0,1.35-.23,1.91-.83l.55.49c-.73.75-1.43,1.05-2.46,1.05-1.89,0-2.91-1.41-2.91-3.25ZM504.66,167.31c0-.08,0-.16,0-.24,0-.92-.58-2.02-2-2.02-1.23,0-1.98.98-2.07,2.26h4.06Z"></path><path class="cls-15" d="M506.82,167.69c0-1.96,1.29-3.29,2.92-3.29,1.05,0,1.87.54,2.29,1.36v-3.92h.77v9.06h-.77v-1.26c-.44.85-1.25,1.35-2.29,1.35-1.72,0-2.92-1.42-2.92-3.3ZM509.86,170.27c1.3,0,2.23-1.08,2.23-2.58s-.93-2.58-2.23-2.58-2.26,1.09-2.26,2.58.95,2.58,2.26,2.58Z"></path><path class="cls-15" d="M514.83,164.49h.78v1.09c.43-.78,1.31-1.18,2.02-1.18.33,0,.66.07.99.24l-.39.7c-.21-.1-.51-.17-.77-.17-.68,0-1.46.36-1.74,1.3-.08.27-.12.57-.12,1.27v3.15h-.78v-6.41Z"></path><path class="cls-15" d="M519.21,167.69c0-1.92,1.25-3.29,3.05-3.29s3.04,1.37,3.04,3.29-1.27,3.3-3.04,3.3-3.05-1.36-3.05-3.3ZM522.26,170.3c1.37,0,2.26-1.04,2.26-2.61s-.9-2.61-2.26-2.61-2.28,1.05-2.28,2.61.9,2.61,2.28,2.61Z"></path><path class="cls-15" d="M526.75,167.69c0-1.92,1.25-3.29,3.05-3.29s3.04,1.37,3.04,3.29-1.27,3.3-3.04,3.3-3.05-1.36-3.05-3.3ZM529.8,170.3c1.37,0,2.26-1.04,2.26-2.61s-.9-2.61-2.26-2.61-2.28,1.05-2.28,2.61.9,2.61,2.28,2.61Z"></path><path class="cls-15" d="M534.59,164.49h.78v1.1c.38-.85,1.11-1.19,1.88-1.19.91,0,1.57.4,1.89,1.25.4-.83,1.09-1.25,2-1.25,1.55,0,2.13,1.16,2.13,2.69v3.82h-.78v-3.64c0-1.33-.39-2.18-1.52-2.18-1.02,0-1.65.77-1.65,2.26v3.57h-.78v-3.76c0-1.4-.52-2.07-1.5-2.07-1.03,0-1.67.79-1.67,2.26v3.57h-.78v-6.41Z"></path></g><g><path class="cls-15" d="M188.89,562.58h2.72c1.68,0,2.68.84,2.68,2.25,0,.94-.46,1.68-1.24,2,1.1.25,1.7,1.07,1.7,2.31,0,1.61-1.02,2.5-2.88,2.5h-2.97v-9.06ZM191.86,566.59c.98,0,1.63-.64,1.63-1.64s-.69-1.61-1.88-1.61h-1.91v3.26h2.16ZM191.81,570.9c1.42,0,2.14-.6,2.14-1.79,0-1.13-.66-1.79-1.79-1.79h-2.46v3.58h2.11Z"></path><path class="cls-15" d="M196.19,568.48c0-1.84.99-3.34,2.81-3.34,1.96,0,2.76,1.53,2.76,2.94,0,.1-.01.4-.04.55h-4.76c.03,1.51.84,2.39,2.14,2.39.82,0,1.35-.23,1.91-.83l.55.49c-.73.75-1.43,1.05-2.46,1.05-1.89,0-2.91-1.41-2.91-3.25ZM201.01,568.06c0-.08,0-.16,0-.24,0-.92-.58-2.01-2-2.01-1.23,0-1.98.98-2.07,2.26h4.06Z"></path><path class="cls-15" d="M203.16,568.43c0-1.96,1.29-3.29,2.92-3.29,1.05,0,1.87.54,2.29,1.36v-3.92h.77v9.06h-.77v-1.26c-.44.84-1.25,1.35-2.29,1.35-1.72,0-2.92-1.42-2.92-3.3ZM206.2,571.01c1.3,0,2.23-1.08,2.23-2.58s-.93-2.58-2.23-2.58-2.26,1.09-2.26,2.58.95,2.58,2.26,2.58Z"></path><path class="cls-15" d="M211.17,565.23h.78v1.09c.43-.78,1.31-1.18,2.02-1.18.33,0,.66.07.99.24l-.39.7c-.21-.1-.51-.17-.77-.17-.68,0-1.46.36-1.74,1.3-.08.27-.12.57-.12,1.27v3.15h-.78v-6.41Z"></path><path class="cls-15" d="M215.55,568.43c0-1.92,1.25-3.29,3.05-3.29s3.04,1.37,3.04,3.29-1.27,3.3-3.04,3.3-3.05-1.37-3.05-3.3ZM218.6,571.04c1.37,0,2.26-1.04,2.26-2.61s-.9-2.61-2.26-2.61-2.28,1.05-2.28,2.61.9,2.61,2.28,2.61Z"></path><path class="cls-15" d="M223.09,568.43c0-1.92,1.25-3.29,3.05-3.29s3.04,1.37,3.04,3.29-1.27,3.3-3.04,3.3-3.05-1.37-3.05-3.3ZM226.14,571.04c1.37,0,2.26-1.04,2.26-2.61s-.9-2.61-2.26-2.61-2.28,1.05-2.28,2.61.9,2.61,2.28,2.61Z"></path><path class="cls-15" d="M230.93,565.23h.78v1.1c.38-.84,1.11-1.19,1.88-1.19.91,0,1.57.4,1.89,1.25.4-.83,1.09-1.25,2-1.25,1.55,0,2.13,1.16,2.13,2.68v3.82h-.78v-3.64c0-1.33-.39-2.18-1.52-2.18-1.02,0-1.65.77-1.65,2.26v3.57h-.78v-3.76c0-1.4-.52-2.07-1.5-2.07-1.03,0-1.67.79-1.67,2.26v3.57h-.78v-6.41Z"></path></g><g><path class="cls-15" d="M174.2,372.75h2.43c2.94,0,4.62,1.68,4.62,4.6s-1.64,4.46-4.63,4.46h-2.42v-9.06ZM176.55,381.07c2.5,0,3.89-1.16,3.89-3.74s-1.4-3.83-3.82-3.83h-1.61v7.57h1.54Z"></path><path class="cls-15" d="M182.86,372.75h.94v1.39h-.94v-1.39ZM182.94,375.4h.77v6.41h-.77v-6.41Z"></path><path class="cls-15" d="M185.75,375.4h.78v1.05c.4-.76,1.12-1.14,2.01-1.14,1.38,0,2.2.81,2.2,2.51v3.99h-.78v-3.71c0-1.45-.55-2.11-1.61-2.11-1.16,0-1.83.79-1.83,2.55v3.27h-.78v-6.41Z"></path><path class="cls-15" d="M192.63,372.75h.94v1.39h-.94v-1.39ZM192.71,375.4h.77v6.41h-.77v-6.41Z"></path><path class="cls-15" d="M195.52,375.4h.78v1.05c.4-.76,1.12-1.14,2.01-1.14,1.38,0,2.2.81,2.2,2.51v3.99h-.78v-3.71c0-1.45-.55-2.11-1.61-2.11-1.16,0-1.83.79-1.83,2.55v3.27h-.78v-6.41Z"></path><path class="cls-15" d="M201.98,382.57s0-.1.03-.26l1.11-.88c-.57-.22-.96-.59-.96-1.26,0-.53.27-.9.72-1.2-.36-.37-.56-.87-.56-1.45,0-1.3,1.04-2.2,2.38-2.2.64,0,1.22.21,1.64.58l1.02-.86.4.49-1,.88c.19.33.3.71.3,1.14,0,1.28-.96,2.13-2.33,2.13-.53,0-.99-.12-1.37-.34-.31.17-.45.42-.45.71,0,.66.63.83,1.62.98,1.6.25,2.99.44,2.99,1.75,0,1.16-1.05,1.78-2.7,1.78-1.82,0-2.85-.7-2.85-2ZM204.84,383.97c1.09,0,1.92-.34,1.92-1.08,0-.86-1.16-.96-2.31-1.14-.31-.05-.6-.1-.89-.17l-.8.92c-.01.09-.01.11-.01.15,0,.9.79,1.33,2.09,1.33ZM204.71,379.04c.98,0,1.59-.65,1.59-1.53s-.64-1.56-1.58-1.56-1.62.65-1.62,1.55.63,1.55,1.61,1.55Z"></path><path class="cls-15" d="M212.46,372.75h2.52c1.99,0,2.97.93,2.97,2.5,0,1.25-.64,2.07-1.85,2.38l2.44,4.19h-.92l-2.34-4.07c-.21,0-.44,0-.65,0h-1.36v4.06h-.81v-9.06ZM214.9,377.04c1.38,0,2.24-.55,2.24-1.78s-.88-1.77-2.24-1.77h-1.64v3.56h1.64Z"></path><path class="cls-15" d="M219.47,378.6c0-1.92,1.25-3.29,3.05-3.29s3.04,1.37,3.04,3.29-1.27,3.3-3.04,3.3-3.05-1.37-3.05-3.3ZM222.52,381.21c1.37,0,2.26-1.04,2.26-2.61s-.9-2.61-2.26-2.61-2.28,1.05-2.28,2.61.9,2.61,2.28,2.61Z"></path><path class="cls-15" d="M227,378.6c0-1.92,1.25-3.29,3.05-3.29s3.04,1.37,3.04,3.29-1.27,3.3-3.04,3.3-3.05-1.37-3.05-3.3ZM230.05,381.21c1.37,0,2.26-1.04,2.26-2.61s-.9-2.61-2.26-2.61-2.28,1.05-2.28,2.61.9,2.61,2.28,2.61Z"></path><path class="cls-15" d="M234.84,375.4h.78v1.1c.38-.84,1.11-1.19,1.88-1.19.91,0,1.57.4,1.89,1.25.4-.83,1.09-1.25,2-1.25,1.55,0,2.13,1.16,2.13,2.68v3.82h-.78v-3.64c0-1.33-.39-2.18-1.52-2.18-1.02,0-1.65.77-1.65,2.26v3.57h-.78v-3.76c0-1.4-.52-2.07-1.5-2.07-1.03,0-1.67.79-1.67,2.26v3.57h-.78v-6.41Z"></path></g><g><path class="cls-15" d="M289.36,186.92h.81v8.33h4.18v.73h-4.99v-9.06Z"></path><path class="cls-15" d="M295.48,186.92h.94v1.39h-.94v-1.39ZM295.57,189.57h.77v6.41h-.77v-6.41Z"></path><path class="cls-15" d="M297.74,189.57h.86l2.1,5.42,2.11-5.42h.85l-2.61,6.41h-.68l-2.63-6.41Z"></path><path class="cls-15" d="M304.99,186.92h.94v1.39h-.94v-1.39ZM305.08,189.57h.77v6.41h-.77v-6.41Z"></path><path class="cls-15" d="M307.88,189.57h.78v1.05c.4-.76,1.12-1.14,2.01-1.14,1.38,0,2.2.81,2.2,2.51v3.99h-.78v-3.71c0-1.45-.55-2.11-1.61-2.11-1.16,0-1.83.79-1.83,2.55v3.27h-.78v-6.41Z"></path><path class="cls-15" d="M314.34,196.74s0-.1.03-.26l1.11-.88c-.57-.22-.96-.59-.96-1.26,0-.53.27-.9.72-1.2-.36-.37-.56-.87-.56-1.45,0-1.3,1.04-2.2,2.38-2.2.64,0,1.22.21,1.64.59l1.02-.86.4.49-1,.88c.19.33.3.71.3,1.14,0,1.28-.96,2.13-2.33,2.13-.53,0-.99-.12-1.37-.34-.31.18-.45.42-.45.72,0,.66.63.83,1.62.98,1.6.25,2.99.44,2.99,1.75,0,1.16-1.05,1.78-2.7,1.78-1.82,0-2.85-.7-2.85-2ZM317.2,198.13c1.09,0,1.92-.34,1.92-1.08,0-.86-1.16-.96-2.31-1.14-.31-.05-.6-.1-.89-.17l-.8.92c-.01.09-.01.11-.01.15,0,.9.79,1.33,2.09,1.33ZM317.07,193.21c.98,0,1.59-.65,1.59-1.53s-.64-1.56-1.58-1.56-1.62.65-1.62,1.55.63,1.55,1.61,1.55Z"></path><path class="cls-15" d="M324.82,186.92h2.52c1.99,0,2.97.93,2.97,2.5,0,1.25-.64,2.07-1.85,2.38l2.44,4.19h-.92l-2.34-4.07c-.21,0-.44,0-.65,0h-1.36v4.06h-.81v-9.06ZM327.27,191.21c1.38,0,2.24-.55,2.24-1.78s-.88-1.77-2.24-1.77h-1.64v3.56h1.64Z"></path><path class="cls-15" d="M331.83,192.77c0-1.92,1.25-3.29,3.05-3.29s3.04,1.37,3.04,3.29-1.27,3.3-3.04,3.3-3.05-1.36-3.05-3.3ZM334.88,195.38c1.37,0,2.26-1.04,2.26-2.61s-.9-2.61-2.26-2.61-2.28,1.05-2.28,2.61.9,2.61,2.28,2.61Z"></path><path class="cls-15" d="M339.36,192.77c0-1.92,1.25-3.29,3.05-3.29s3.04,1.37,3.04,3.29-1.27,3.3-3.04,3.3-3.05-1.36-3.05-3.3ZM342.41,195.38c1.37,0,2.26-1.04,2.26-2.61s-.9-2.61-2.26-2.61-2.28,1.05-2.28,2.61.9,2.61,2.28,2.61Z"></path><path class="cls-15" d="M347.2,189.57h.78v1.1c.38-.85,1.11-1.19,1.88-1.19.91,0,1.57.4,1.89,1.25.4-.83,1.09-1.25,2-1.25,1.55,0,2.13,1.16,2.13,2.69v3.82h-.78v-3.64c0-1.33-.39-2.18-1.52-2.18-1.02,0-1.65.77-1.65,2.26v3.57h-.78v-3.76c0-1.4-.52-2.07-1.5-2.07-1.03,0-1.67.79-1.67,2.26v3.57h-.78v-6.41Z"></path></g><g><path class="cls-15" d="M99.7,180.96h2.72c1.68,0,2.68.84,2.68,2.25,0,.94-.46,1.68-1.24,2,1.1.25,1.7,1.07,1.7,2.31,0,1.61-1.02,2.5-2.88,2.5h-2.97v-9.06ZM102.67,184.97c.98,0,1.63-.64,1.63-1.64s-.69-1.61-1.88-1.61h-1.91v3.26h2.16ZM102.62,189.28c1.42,0,2.14-.6,2.14-1.79,0-1.13-.66-1.79-1.79-1.79h-2.46v3.58h2.11Z"></path><path class="cls-15" d="M111.51,188.82c-.43.82-1.25,1.29-2.25,1.29-1.44,0-2.31-.77-2.31-1.94,0-.69.29-1.16.72-1.44.46-.31,1.09-.42,1.77-.42h2.05v-.28c0-1.19-.62-1.83-1.82-1.83-.79,0-1.4.29-1.98,1.02l-.56-.48c.68-.85,1.53-1.22,2.59-1.22,1.63,0,2.54.89,2.54,2.51v3.99h-.71l-.04-1.2ZM109.34,189.47c1.18,0,2.17-.93,2.17-2.2v-.36h-1.95c-.51,0-1.03.08-1.37.33-.28.21-.44.51-.44.94,0,.79.6,1.3,1.6,1.3Z"></path><path class="cls-15" d="M114.1,188.69v-7.73h.77v7.59c0,.6.23.85.64.85.17,0,.38-.04.61-.12v.67c-.29.11-.6.17-.84.17-.72,0-1.18-.44-1.18-1.42Z"></path><path class="cls-15" d="M117.06,186.81c0-1.83,1.06-3.29,2.86-3.29,1.17,0,2.09.59,2.51,1.74l-.7.27c-.27-.82-.9-1.33-1.81-1.33-1.42,0-2.09,1.25-2.09,2.61s.68,2.62,2.09,2.62c.91,0,1.53-.51,1.81-1.33l.7.27c-.42,1.16-1.34,1.75-2.51,1.75-1.8,0-2.86-1.46-2.86-3.3Z"></path><path class="cls-15" d="M123.67,186.81c0-1.92,1.25-3.29,3.05-3.29s3.04,1.37,3.04,3.29-1.27,3.3-3.04,3.3-3.05-1.36-3.05-3.3ZM126.72,189.42c1.37,0,2.26-1.04,2.26-2.61s-.9-2.61-2.26-2.61-2.28,1.05-2.28,2.61.9,2.61,2.28,2.61Z"></path><path class="cls-15" d="M131.51,183.61h.78v1.05c.4-.76,1.12-1.14,2.01-1.14,1.38,0,2.2.81,2.2,2.51v3.99h-.78v-3.71c0-1.45-.55-2.11-1.61-2.11-1.16,0-1.83.79-1.83,2.55v3.27h-.78v-6.41Z"></path><path class="cls-15" d="M140.22,189.82l-2.55-6.21h.86l2.1,5.42,2.11-5.42h.85l-3.69,9.05h-.84l1.17-2.84Z"></path></g><g><path class="cls-15" d="M317.73,452.6h.81v4.86l4.65-4.86h1.09l-3.45,3.54,3.48,5.52h-.95l-3.11-4.93-1.71,1.75v3.17h-.81v-9.06Z"></path><path class="cls-15" d="M325.46,452.6h.94v1.39h-.94v-1.39ZM325.54,455.25h.77v6.41h-.77v-6.41Z"></path><path class="cls-15" d="M329.11,460.18v-4.31h-1.42v-.62h1.42v-1.85l.79-.46v2.31h1.54v.62h-1.54v4.12c0,.71.22,1.11.81,1.11.19,0,.46-.04.73-.12v.62c-.32.1-.64.16-.92.16-.85,0-1.4-.49-1.4-1.57Z"></path><path class="cls-15" d="M332.46,458.45c0-1.83,1.06-3.29,2.86-3.29,1.17,0,2.09.58,2.51,1.74l-.7.27c-.27-.82-.9-1.33-1.81-1.33-1.42,0-2.09,1.25-2.09,2.61s.68,2.62,2.09,2.62c.91,0,1.53-.51,1.81-1.33l.7.27c-.42,1.16-1.34,1.75-2.51,1.75-1.8,0-2.86-1.46-2.86-3.3Z"></path><path class="cls-15" d="M339.46,452.6h.78v3.69c.4-.75,1.1-1.13,2.01-1.13,1.4,0,2.2.85,2.2,2.51v3.99h-.78v-3.71c0-1.43-.53-2.11-1.61-2.11-1.18,0-1.83.83-1.83,2.55v3.27h-.78v-9.06Z"></path><path class="cls-15" d="M346.09,458.5c0-1.84.99-3.34,2.81-3.34,1.96,0,2.76,1.53,2.76,2.94,0,.1-.01.4-.04.55h-4.76c.03,1.51.84,2.39,2.14,2.39.82,0,1.35-.23,1.91-.83l.55.49c-.73.75-1.43,1.05-2.46,1.05-1.89,0-2.91-1.41-2.91-3.25ZM350.91,458.08c0-.08,0-.16,0-.24,0-.92-.58-2.01-2-2.01-1.23,0-1.98.98-2.07,2.26h4.06Z"></path><path class="cls-15" d="M353.4,455.25h.78v1.05c.4-.76,1.12-1.14,2.01-1.14,1.38,0,2.2.81,2.2,2.51v3.99h-.78v-3.71c0-1.45-.55-2.11-1.61-2.11-1.16,0-1.83.79-1.83,2.55v3.27h-.78v-6.41Z"></path></g><g><path class="cls-15" d="M528.92,562.85h5.86v.73h-5.06v3.37h4.39v.73h-4.39v4.24h-.81v-9.06Z"></path><path class="cls-15" d="M536.1,570.58v-7.73h.77v7.59c0,.6.23.84.64.84.17,0,.38-.04.61-.12v.67c-.29.11-.6.17-.84.17-.72,0-1.18-.44-1.18-1.42Z"></path><path class="cls-15" d="M539.07,568.76c0-1.84.99-3.34,2.81-3.34,1.96,0,2.76,1.53,2.76,2.94,0,.1-.01.4-.04.55h-4.76c.03,1.51.84,2.39,2.14,2.39.82,0,1.35-.23,1.91-.83l.55.49c-.73.75-1.43,1.05-2.46,1.05-1.89,0-2.91-1.41-2.91-3.25ZM543.89,568.33c0-.08,0-.16,0-.24,0-.92-.58-2.01-2-2.01-1.23,0-1.98.98-2.07,2.26h4.06Z"></path><path class="cls-15" d="M548.04,568.7l-2.37-3.19h.96l1.92,2.65,1.94-2.65h.94l-2.38,3.19,2.39,3.22h-.96l-1.93-2.67-1.94,2.67h-.94l2.37-3.22Z"></path></g><g><path class="cls-15" d="M612.05,524.85h5.86v.73h-5.06v3.37h4.39v.73h-4.39v4.24h-.81v-9.06Z"></path><path class="cls-15" d="M618.64,530.71c0-1.92,1.25-3.29,3.05-3.29s3.04,1.37,3.04,3.29-1.27,3.3-3.04,3.3-3.05-1.37-3.05-3.3ZM621.69,533.31c1.37,0,2.26-1.04,2.26-2.61s-.9-2.61-2.26-2.61-2.28,1.05-2.28,2.61.9,2.61,2.28,2.61Z"></path><path class="cls-15" d="M628.21,533.72l-2.55-6.21h.86l2.1,5.42,2.11-5.42h.85l-3.69,9.05h-.84l1.17-2.84Z"></path><path class="cls-15" d="M632.54,530.76c0-1.84.99-3.34,2.81-3.34,1.96,0,2.76,1.53,2.76,2.94,0,.1-.01.4-.04.55h-4.76c.03,1.51.84,2.39,2.14,2.39.82,0,1.35-.23,1.91-.83l.55.49c-.73.75-1.43,1.05-2.46,1.05-1.89,0-2.91-1.41-2.91-3.25ZM637.35,530.33c0-.08,0-.16,0-.24,0-.92-.58-2.01-2-2.01-1.23,0-1.98.98-2.07,2.26h4.06Z"></path><path class="cls-15" d="M639.83,527.51h.78v1.09c.43-.78,1.31-1.18,2.02-1.18.33,0,.66.07.99.24l-.39.7c-.21-.1-.51-.17-.77-.17-.68,0-1.46.36-1.74,1.3-.08.27-.12.57-.12,1.27v3.15h-.78v-6.41Z"></path></g><g><path class="cls-15" d="M522.98,283.16h.65l1.71,6.06,1.76-5.7h.63l1.76,5.7,1.7-6.06h.65l-2.01,6.98h-.63l-1.79-5.71-1.79,5.71h-.64l-2.01-6.98Z"></path><path class="cls-15" d="M532.98,283.16h.62v6.98h-.62v-6.98Z"></path><path class="cls-15" d="M535.03,286.65c0-2.16,1.26-3.58,3.16-3.58,1.35,0,2.39.71,2.84,1.89l-.58.22c-.38-.96-1.17-1.52-2.26-1.52-1.55,0-2.54,1.17-2.54,2.99s.99,3,2.54,3c1.09,0,1.89-.56,2.26-1.52l.58.22c-.45,1.18-1.49,1.9-2.84,1.9-1.89,0-3.16-1.42-3.16-3.59Z"></path></g><path class="cls-15" d="M438.66,436.04h.65l1.71,6.06,1.76-5.7h.63l1.76,5.7,1.7-6.06h.65l-2.01,6.98h-.63l-1.79-5.71-1.79,5.71h-.64l-2.01-6.98Z"></path><path class="cls-15" d="M450.94,435.16h.48l-3.55,9.08h-.47l3.55-9.08Z"></path><path class="cls-15" d="M452.64,436.04h1.87c2.26,0,3.56,1.29,3.56,3.54s-1.27,3.43-3.57,3.43h-1.86v-6.98ZM454.45,442.44c1.92,0,2.99-.89,2.99-2.88s-1.08-2.95-2.94-2.95h-1.24v5.83h1.19Z"></path><path class="cls-15" d="M393.7,313.67c0-2.17,1.27-3.59,3.16-3.59s3.18,1.42,3.18,3.59-1.27,3.58-3.18,3.58-3.16-1.42-3.16-3.58ZM396.86,316.66c1.57,0,2.55-1.16,2.55-2.99s-.99-3-2.55-3-2.54,1.15-2.54,3,.99,2.99,2.54,2.99Z"></path><path class="cls-15" d="M403.73,309.17h.48l-3.55,9.08h-.47l3.55-9.08Z"></path><path class="cls-15" d="M405.44,310.17h.93l2.35,5.66,2.35-5.66h.92v6.98h-.62v-6.16l-2.35,5.59h-.61l-2.36-5.59v6.16h-.62v-6.98Z"></path><g><path class="cls-15" d="M395.16,432.9h1.94c1.53,0,2.29.72,2.29,1.92,0,.97-.5,1.6-1.43,1.83l1.88,3.22h-.71l-1.8-3.13c-.16,0-.34,0-.5,0h-1.05v3.13h-.62v-6.98ZM397.04,436.2c1.06,0,1.73-.42,1.73-1.37s-.68-1.37-1.73-1.37h-1.26v2.74h1.26Z"></path><path class="cls-15" d="M401.01,432.9h4.56v.56h-3.94v2.59h3.53v.56h-3.53v2.7h3.94v.56h-4.56v-6.98Z"></path><path class="cls-15" d="M406.87,432.9h4.51v.56h-3.89v2.59h3.38v.56h-3.38v3.26h-.62v-6.98Z"></path></g><g><path class="cls-15" d="M306.11,585.76h.65l1.71,6.06,1.76-5.7h.63l1.76,5.7,1.7-6.06h.65l-2.01,6.98h-.63l-1.79-5.71-1.79,5.71h-.64l-2.01-6.98Z"></path><path class="cls-15" d="M316.12,585.76h.62v6.98h-.62v-6.98Z"></path><path class="cls-15" d="M318.16,589.24c0-2.16,1.26-3.58,3.16-3.58,1.35,0,2.39.71,2.84,1.89l-.58.22c-.38-.96-1.17-1.52-2.26-1.52-1.55,0-2.54,1.17-2.54,2.99s.99,3,2.54,3c1.09,0,1.89-.56,2.26-1.52l.58.21c-.45,1.18-1.49,1.9-2.84,1.9-1.89,0-3.16-1.42-3.16-3.59Z"></path></g><g><path class="cls-15" d="M316.46,331.95h.65l1.71,6.06,1.76-5.7h.63l1.76,5.7,1.7-6.06h.65l-2.01,6.98h-.63l-1.79-5.71-1.79,5.71h-.64l-2.01-6.98Z"></path><path class="cls-15" d="M326.47,331.95h4.51v.56h-3.89v2.59h3.38v.56h-3.38v3.26h-.62v-6.98Z"></path></g><g><path class="cls-15" d="M316.53,415.11h1.87c2.26,0,3.56,1.29,3.56,3.54s-1.27,3.43-3.57,3.43h-1.86v-6.98ZM318.34,421.51c1.92,0,2.99-.89,2.99-2.88s-1.08-2.95-2.94-2.95h-1.24v5.83h1.19Z"></path><path class="cls-15" d="M322.62,415.11h.65l1.71,6.06,1.76-5.7h.63l1.76,5.7,1.7-6.06h.65l-2.01,6.98h-.63l-1.79-5.71-1.79,5.71h-.64l-2.01-6.98Z"></path></g><path class="cls-15" d="M322.89,532.83h1.94c1.46,0,2.29.69,2.29,1.95s-.83,1.96-2.29,1.96h-1.33v3.07h-.62v-6.98ZM324.78,536.17c1.09,0,1.73-.47,1.73-1.4s-.62-1.39-1.73-1.39h-1.27v2.79h1.27Z"></path><polyline class="cls-2" points="463.43 3.17 443.28 3.17 435.89 32.69"></polyline><path class="cls-18" d="M434.91,36.61l3.38-5s-2.4,1.09-4.01-1l.62,6Z"></path><polyline class="cls-2" points="85.1 562.27 101.25 562.27 110.5 547.26"></polyline><path class="cls-18" d="M112.62,543.83l-4.73,3.74s2.62-.31,3.51,2.17l1.22-5.91Z"></path><g><path class="cls-19" d="M469.87,0h1.67c1.03,0,1.65.52,1.65,1.38,0,.58-.28,1.03-.76,1.23.68.16,1.04.66,1.04,1.42,0,.99-.63,1.54-1.77,1.54h-1.83V0ZM471.7,2.46c.6,0,1-.39,1-1.01s-.42-.99-1.16-.99h-1.17v2h1.33ZM471.67,5.11c.88,0,1.32-.37,1.32-1.1,0-.7-.41-1.1-1.1-1.1h-1.51v2.2h1.3Z"></path><path class="cls-19" d="M474.55,4.08V1.63h.47v2.28c0,.89.34,1.3,1,1.3.71,0,1.13-.48,1.13-1.57V1.63h.48v3.94h-.48v-.65c-.25.47-.7.7-1.25.7-.84,0-1.35-.51-1.35-1.55Z"></path><path class="cls-19" d="M478.9,0h.58v.86h-.58v-.86ZM478.95,1.63h.47v3.94h-.47V1.63Z"></path><path class="cls-19" d="M480.76,4.75V0h.48v4.67c0,.37.14.52.39.52.1,0,.24-.02.38-.07v.41c-.18.07-.37.1-.52.1-.44,0-.72-.27-.72-.88Z"></path><path class="cls-19" d="M482.63,3.6c0-1.21.79-2.02,1.79-2.02.64,0,1.15.33,1.41.84V0h.47v5.57h-.47v-.78c-.27.52-.77.83-1.41.83-1.05,0-1.79-.88-1.79-2.03ZM484.5,5.19c.8,0,1.37-.66,1.37-1.59s-.57-1.59-1.37-1.59-1.39.67-1.39,1.59.58,1.59,1.39,1.59Z"></path><path class="cls-19" d="M487.59,0h.58v.86h-.58v-.86ZM487.64,1.63h.47v3.94h-.47V1.63Z"></path><path class="cls-19" d="M489.45,1.63h.48v.64c.25-.47.69-.7,1.24-.7.85,0,1.36.5,1.36,1.54v2.45h-.48v-2.28c0-.89-.34-1.3-.99-1.3-.71,0-1.13.48-1.13,1.57v2.01h-.48V1.63Z"></path><path class="cls-19" d="M493.49,6.04s0-.06.02-.16l.68-.54c-.35-.14-.59-.36-.59-.78,0-.32.16-.55.44-.74-.22-.23-.34-.54-.34-.89,0-.8.64-1.36,1.47-1.36.4,0,.75.13,1.01.36l.63-.53.24.3-.62.54c.12.2.18.44.18.7,0,.79-.59,1.31-1.44,1.31-.32,0-.61-.08-.84-.21-.19.11-.28.26-.28.44,0,.41.39.51,1,.6.98.15,1.84.27,1.84,1.08,0,.72-.64,1.1-1.66,1.1-1.12,0-1.75-.43-1.75-1.23ZM495.25,6.9c.67,0,1.18-.21,1.18-.66,0-.53-.71-.59-1.42-.7-.19-.03-.37-.06-.55-.1l-.49.56c0,.06,0,.07,0,.09,0,.55.49.82,1.29.82ZM495.17,3.87c.6,0,.98-.4.98-.94s-.39-.96-.97-.96-1,.4-1,.95.39.95.99.95Z"></path><path class="cls-19" d="M501.65,0h.42l2.05,5.57h-.54l-.51-1.45h-2.42l-.51,1.45h-.55l2.05-5.57ZM502.92,3.68l-1.05-2.99-1.06,2.99h2.11Z"></path><path class="cls-19" d="M505.45,4.8v.78h-.47V0h.47v2.41c.26-.5.77-.84,1.41-.84,1,0,1.79.82,1.79,2.02s-.74,2.03-1.79,2.03c-.64,0-1.14-.31-1.41-.83ZM506.78,5.19c.81,0,1.39-.67,1.39-1.59s-.58-1.59-1.39-1.59-1.37.66-1.37,1.59.57,1.59,1.37,1.59Z"></path><path class="cls-19" d="M509.59,3.6c0-1.18.77-2.02,1.88-2.02s1.87.84,1.87,2.02-.78,2.03-1.87,2.03-1.88-.84-1.88-2.03ZM511.47,5.2c.84,0,1.39-.64,1.39-1.6s-.55-1.6-1.39-1.6-1.4.64-1.4,1.6.56,1.6,1.4,1.6Z"></path><path class="cls-19" d="M513.99,1.63h.53l1.29,3.33,1.3-3.33h.52l-1.61,3.94h-.42l-1.61-3.94Z"></path><path class="cls-19" d="M518.31,3.63c0-1.13.61-2.06,1.73-2.06,1.21,0,1.7.94,1.7,1.81,0,.06,0,.24-.02.34h-2.93c.02.93.52,1.47,1.32,1.47.5,0,.83-.14,1.17-.51l.34.3c-.45.46-.88.65-1.51.65-1.16,0-1.79-.87-1.79-2ZM521.28,3.37s0-.1,0-.15c0-.57-.36-1.24-1.23-1.24-.75,0-1.22.6-1.27,1.39h2.49Z"></path></g><g><path class="cls-19" d="M27.01,559.29h1.67c1.03,0,1.65.52,1.65,1.38,0,.58-.28,1.03-.76,1.23.68.16,1.04.66,1.04,1.42,0,.99-.63,1.54-1.77,1.54h-1.83v-5.57ZM28.83,561.75c.6,0,1-.39,1-1.01s-.42-.99-1.16-.99h-1.18v2h1.33ZM28.8,564.4c.88,0,1.32-.37,1.32-1.1,0-.7-.41-1.1-1.1-1.1h-1.51v2.2h1.3Z"></path><path class="cls-19" d="M31.67,563.37v-2.45h.47v2.28c0,.89.34,1.29,1,1.29.71,0,1.13-.48,1.13-1.57v-2.01h.48v3.94h-.48v-.65c-.25.47-.7.7-1.25.7-.84,0-1.35-.51-1.35-1.55Z"></path><path class="cls-19" d="M36.02,559.29h.58v.86h-.58v-.86ZM36.07,560.92h.47v3.94h-.47v-3.94Z"></path><path class="cls-19" d="M37.89,564.04v-4.75h.48v4.67c0,.37.14.52.39.52.1,0,.24-.02.38-.07v.41c-.18.07-.37.1-.52.1-.44,0-.72-.27-.72-.88Z"></path><path class="cls-19" d="M39.75,562.89c0-1.21.79-2.02,1.79-2.02.64,0,1.15.33,1.41.84v-2.41h.47v5.57h-.47v-.78c-.27.52-.77.83-1.41.83-1.06,0-1.79-.88-1.79-2.03ZM41.62,564.48c.8,0,1.37-.66,1.37-1.59s-.57-1.59-1.37-1.59-1.39.67-1.39,1.59.58,1.59,1.39,1.59Z"></path><path class="cls-19" d="M44.71,559.29h.58v.86h-.58v-.86ZM44.76,560.92h.47v3.94h-.47v-3.94Z"></path><path class="cls-19" d="M46.57,560.92h.48v.64c.25-.47.69-.7,1.24-.7.85,0,1.36.5,1.36,1.54v2.46h-.48v-2.28c0-.89-.34-1.3-.99-1.3-.71,0-1.13.48-1.13,1.57v2.01h-.48v-3.94Z"></path><path class="cls-19" d="M50.61,565.33s0-.06.02-.16l.68-.54c-.35-.14-.59-.36-.59-.78,0-.32.16-.55.44-.74-.22-.23-.34-.54-.34-.89,0-.8.64-1.36,1.47-1.36.4,0,.75.13,1.01.36l.63-.53.24.3-.62.54c.12.2.18.44.18.7,0,.79-.59,1.31-1.44,1.31-.32,0-.61-.08-.84-.21-.19.11-.28.26-.28.44,0,.41.39.51,1,.6.98.15,1.84.27,1.84,1.08,0,.72-.64,1.1-1.66,1.1-1.12,0-1.75-.43-1.75-1.23ZM52.37,566.19c.67,0,1.18-.21,1.18-.66,0-.53-.71-.59-1.42-.7-.19-.03-.37-.06-.55-.1l-.49.56c0,.06,0,.07,0,.09,0,.55.49.82,1.29.82ZM52.29,563.16c.6,0,.98-.4.98-.94s-.39-.96-.97-.96-1,.4-1,.95.39.95.99.95Z"></path><path class="cls-19" d="M58.79,559.29h.42l2.06,5.57h-.54l-.51-1.45h-2.42l-.51,1.45h-.55l2.06-5.57ZM60.05,562.97l-1.05-2.99-1.06,2.99h2.11Z"></path><path class="cls-19" d="M62.58,564.09v.78h-.47v-5.57h.47v2.41c.26-.5.77-.84,1.41-.84,1,0,1.79.82,1.79,2.02s-.74,2.03-1.79,2.03c-.64,0-1.14-.31-1.41-.83ZM63.91,564.48c.81,0,1.39-.67,1.39-1.59s-.58-1.59-1.39-1.59-1.37.66-1.37,1.59.57,1.59,1.37,1.59Z"></path><path class="cls-19" d="M66.73,562.89c0-1.18.77-2.02,1.88-2.02s1.87.84,1.87,2.02-.78,2.03-1.87,2.03-1.88-.84-1.88-2.03ZM68.61,564.49c.84,0,1.39-.64,1.39-1.6s-.55-1.6-1.39-1.6-1.4.64-1.4,1.6.56,1.6,1.4,1.6Z"></path><path class="cls-19" d="M71.13,560.92h.53l1.29,3.33,1.3-3.33h.52l-1.61,3.94h-.42l-1.62-3.94Z"></path><path class="cls-19" d="M75.45,562.92c0-1.13.61-2.05,1.73-2.05,1.21,0,1.7.94,1.7,1.81,0,.06,0,.24-.02.34h-2.93c.02.93.52,1.47,1.32,1.47.5,0,.83-.14,1.18-.51l.34.3c-.45.46-.88.65-1.52.65-1.16,0-1.79-.87-1.79-2ZM78.42,562.66s0-.1,0-.15c0-.57-.36-1.24-1.23-1.24-.76,0-1.22.6-1.27,1.39h2.49Z"></path></g><g><path class="cls-19" d="M238.96,16.97h.5v5.12h2.57v.45h-3.07v-5.57Z"></path><path class="cls-19" d="M245.49,21.81c-.26.5-.77.8-1.38.8-.88,0-1.42-.48-1.42-1.2,0-.42.18-.71.44-.89.28-.19.67-.26,1.09-.26h1.26v-.17c0-.73-.38-1.13-1.12-1.13-.48,0-.86.18-1.22.63l-.34-.3c.42-.52.94-.75,1.59-.75,1,0,1.56.55,1.56,1.54v2.45h-.44l-.02-.74ZM244.15,22.21c.72,0,1.33-.57,1.33-1.35v-.22h-1.2c-.32,0-.63.05-.84.2-.17.13-.27.31-.27.58,0,.49.37.8.98.8Z"></path><path class="cls-19" d="M247.24,18.6h.48v.64c.25-.47.69-.7,1.24-.7.85,0,1.36.5,1.36,1.54v2.45h-.48v-2.28c0-.89-.34-1.3-.99-1.3-.71,0-1.13.48-1.13,1.57v2.01h-.48v-3.94Z"></path><path class="cls-19" d="M251.38,20.57c0-1.21.79-2.02,1.8-2.02.64,0,1.15.33,1.41.84v-2.41h.47v5.57h-.47v-.78c-.27.52-.77.83-1.41.83-1.06,0-1.8-.88-1.8-2.03ZM253.25,22.16c.8,0,1.37-.66,1.37-1.59s-.57-1.59-1.37-1.59-1.39.67-1.39,1.59.58,1.59,1.39,1.59Z"></path><path class="cls-19" d="M255.97,21.7l.34-.28c.2.46.66.77,1.26.77.57,0,.95-.27.95-.72,0-.55-.53-.68-1.1-.82-.66-.16-1.23-.38-1.23-1.06,0-.62.53-1.05,1.29-1.05.6,0,1.1.26,1.37.76l-.37.21c-.21-.38-.57-.58-1.01-.58-.48,0-.84.24-.84.62,0,.4.36.54.93.68.67.16,1.43.34,1.43,1.2,0,.71-.56,1.17-1.42,1.17-.79,0-1.35-.4-1.6-.9Z"></path><path class="cls-19" d="M259.91,20.57c0-1.13.65-2.02,1.76-2.02.72,0,1.28.36,1.54,1.07l-.43.17c-.17-.5-.55-.82-1.11-.82-.87,0-1.29.77-1.29,1.61s.42,1.61,1.29,1.61c.56,0,.94-.31,1.11-.82l.43.16c-.26.71-.82,1.08-1.54,1.08-1.11,0-1.76-.9-1.76-2.03Z"></path><path class="cls-19" d="M266.88,21.81c-.26.5-.77.8-1.38.8-.88,0-1.42-.48-1.42-1.2,0-.42.18-.71.44-.89.28-.19.67-.26,1.09-.26h1.26v-.17c0-.73-.38-1.13-1.12-1.13-.48,0-.86.18-1.22.63l-.34-.3c.42-.52.94-.75,1.59-.75,1,0,1.56.55,1.56,1.54v2.45h-.44l-.02-.74ZM265.54,22.21c.72,0,1.33-.57,1.33-1.35v-.22h-1.2c-.32,0-.63.05-.84.2-.17.13-.27.31-.27.58,0,.49.37.8.98.8Z"></path><path class="cls-19" d="M272.31,20.58c0,1.21-.79,2.02-1.79,2.02-.64,0-1.15-.33-1.41-.84v2.41h-.47v-5.57h.47v.78c.27-.52.77-.83,1.41-.83,1.06,0,1.79.88,1.79,2.03ZM270.44,22.17c.81,0,1.39-.67,1.39-1.59s-.58-1.59-1.39-1.59-1.37.66-1.37,1.59.57,1.59,1.37,1.59Z"></path><path class="cls-19" d="M273.28,20.6c0-1.13.61-2.05,1.73-2.05,1.21,0,1.7.94,1.7,1.81,0,.06,0,.24-.02.34h-2.93c.02.93.52,1.47,1.32,1.47.5,0,.83-.14,1.17-.51l.34.3c-.45.46-.88.65-1.51.65-1.16,0-1.79-.87-1.79-2ZM276.24,20.34s0-.1,0-.15c0-.57-.36-1.24-1.23-1.24-.75,0-1.22.6-1.27,1.39h2.49Z"></path><path class="cls-19" d="M277.64,20.57c0-1.21.79-2.02,1.8-2.02.64,0,1.15.33,1.41.84v-2.41h.47v5.57h-.47v-.78c-.27.52-.77.83-1.41.83-1.06,0-1.8-.88-1.8-2.03ZM279.51,22.16c.8,0,1.37-.66,1.37-1.59s-.57-1.59-1.37-1.59-1.39.67-1.39,1.59.58,1.59,1.39,1.59Z"></path><path class="cls-19" d="M284.87,16.97h1.55c1.22,0,1.83.57,1.83,1.54,0,.77-.4,1.27-1.14,1.46l1.5,2.57h-.57l-1.44-2.5c-.13,0-.27,0-.4,0h-.84v2.5h-.5v-5.57ZM286.37,19.61c.85,0,1.38-.34,1.38-1.1s-.54-1.09-1.38-1.09h-1.01v2.19h1.01Z"></path><path class="cls-19" d="M289.26,20.57c0-1.18.77-2.02,1.88-2.02s1.87.84,1.87,2.02-.78,2.03-1.87,2.03-1.88-.84-1.88-2.03ZM291.14,22.17c.84,0,1.39-.64,1.39-1.6s-.55-1.6-1.39-1.6-1.4.64-1.4,1.6.56,1.6,1.4,1.6Z"></path><path class="cls-19" d="M293.97,20.57c0-1.18.77-2.02,1.88-2.02s1.87.84,1.87,2.02-.78,2.03-1.87,2.03-1.88-.84-1.88-2.03ZM295.85,22.17c.84,0,1.39-.64,1.39-1.6s-.55-1.6-1.39-1.6-1.4.64-1.4,1.6.56,1.6,1.4,1.6Z"></path><path class="cls-19" d="M299.19,18.98h-.88v-.38h.88v-.57c0-.82.43-1.12,1.03-1.12.26,0,.47.05.66.15l-.16.36c-.14-.07-.28-.11-.45-.11-.4,0-.6.25-.6.71v.57h.97v.38h-.97v3.56h-.48v-3.56Z"></path></g><g><path class="cls-19" d="M9.64,442.49h.5v5.12h2.57v.45h-3.07v-5.57Z"></path><path class="cls-19" d="M16.17,447.33c-.26.5-.77.79-1.38.79-.88,0-1.42-.48-1.42-1.2,0-.42.18-.71.44-.89.28-.19.67-.26,1.09-.26h1.26v-.17c0-.73-.38-1.13-1.12-1.13-.48,0-.86.18-1.22.63l-.34-.3c.42-.52.94-.75,1.59-.75,1,0,1.56.55,1.56,1.54v2.46h-.44l-.02-.74ZM14.83,447.73c.72,0,1.33-.57,1.33-1.35v-.22h-1.2c-.32,0-.63.05-.84.2-.17.13-.27.31-.27.58,0,.49.37.8.98.8Z"></path><path class="cls-19" d="M17.92,444.12h.48v.64c.25-.47.69-.7,1.24-.7.85,0,1.36.5,1.36,1.54v2.46h-.48v-2.28c0-.89-.34-1.3-.99-1.3-.71,0-1.13.48-1.13,1.57v2.01h-.48v-3.94Z"></path><path class="cls-19" d="M22.06,446.09c0-1.21.79-2.02,1.79-2.02.64,0,1.15.33,1.41.84v-2.41h.47v5.57h-.47v-.78c-.27.52-.77.83-1.41.83-1.06,0-1.79-.88-1.79-2.03ZM23.93,447.68c.8,0,1.37-.66,1.37-1.59s-.57-1.59-1.37-1.59-1.39.67-1.39,1.59.58,1.59,1.39,1.59Z"></path><path class="cls-19" d="M26.65,447.22l.34-.28c.2.46.66.77,1.26.77.57,0,.95-.27.95-.72,0-.55-.53-.68-1.1-.82-.66-.16-1.23-.38-1.23-1.06,0-.62.53-1.05,1.3-1.05.6,0,1.1.26,1.37.76l-.37.21c-.21-.38-.57-.58-1.02-.58-.48,0-.84.24-.84.62,0,.4.36.54.93.68.67.16,1.44.34,1.44,1.2,0,.71-.56,1.17-1.42,1.17-.79,0-1.35-.4-1.6-.9Z"></path><path class="cls-19" d="M30.59,446.09c0-1.13.65-2.02,1.76-2.02.72,0,1.28.36,1.54,1.07l-.43.17c-.17-.5-.55-.82-1.11-.82-.87,0-1.29.77-1.29,1.61s.42,1.61,1.29,1.61c.56,0,.94-.31,1.11-.82l.43.16c-.26.71-.82,1.08-1.54,1.08-1.11,0-1.76-.9-1.76-2.03Z"></path><path class="cls-19" d="M37.56,447.33c-.26.5-.77.79-1.38.79-.88,0-1.42-.48-1.42-1.2,0-.42.18-.71.44-.89.28-.19.67-.26,1.09-.26h1.26v-.17c0-.73-.38-1.13-1.12-1.13-.48,0-.86.18-1.22.63l-.34-.3c.42-.52.94-.75,1.59-.75,1,0,1.56.55,1.56,1.54v2.46h-.44l-.02-.74ZM36.22,447.73c.72,0,1.33-.57,1.33-1.35v-.22h-1.2c-.32,0-.63.05-.84.2-.17.13-.27.31-.27.58,0,.49.37.8.98.8Z"></path><path class="cls-19" d="M42.99,446.1c0,1.21-.79,2.02-1.79,2.02-.64,0-1.15-.33-1.41-.83v2.41h-.47v-5.57h.47v.78c.27-.52.77-.83,1.41-.83,1.06,0,1.79.88,1.79,2.03ZM41.12,447.69c.81,0,1.39-.67,1.39-1.59s-.58-1.59-1.39-1.59-1.37.66-1.37,1.59.57,1.59,1.37,1.59Z"></path><path class="cls-19" d="M43.96,446.12c0-1.13.61-2.05,1.73-2.05,1.21,0,1.7.94,1.7,1.81,0,.06,0,.24-.02.34h-2.93c.02.93.52,1.47,1.32,1.47.5,0,.83-.14,1.18-.51l.34.3c-.45.46-.88.65-1.52.65-1.16,0-1.79-.87-1.79-2ZM46.92,445.86s0-.1,0-.15c0-.57-.36-1.24-1.23-1.24-.76,0-1.22.6-1.27,1.39h2.49Z"></path><path class="cls-19" d="M48.32,446.09c0-1.21.79-2.02,1.79-2.02.64,0,1.15.33,1.41.84v-2.41h.47v5.57h-.47v-.78c-.27.52-.77.83-1.41.83-1.06,0-1.79-.88-1.79-2.03ZM50.19,447.68c.8,0,1.37-.66,1.37-1.59s-.57-1.59-1.37-1.59-1.39.67-1.39,1.59.58,1.59,1.39,1.59Z"></path><path class="cls-19" d="M55.55,442.49h1.55c1.22,0,1.83.57,1.83,1.54,0,.77-.4,1.28-1.14,1.46l1.5,2.57h-.57l-1.44-2.5c-.13,0-.27,0-.4,0h-.84v2.5h-.5v-5.57ZM57.05,445.13c.85,0,1.38-.34,1.38-1.1s-.54-1.09-1.38-1.09h-1.01v2.19h1.01Z"></path><path class="cls-19" d="M59.94,446.09c0-1.18.77-2.02,1.88-2.02s1.87.84,1.87,2.02-.78,2.03-1.87,2.03-1.88-.84-1.88-2.03ZM61.82,447.69c.84,0,1.39-.64,1.39-1.6s-.55-1.6-1.39-1.6-1.4.64-1.4,1.6.56,1.6,1.4,1.6Z"></path><path class="cls-19" d="M64.65,446.09c0-1.18.77-2.02,1.88-2.02s1.87.84,1.87,2.02-.78,2.03-1.87,2.03-1.88-.84-1.88-2.03ZM66.53,447.69c.84,0,1.39-.64,1.39-1.6s-.55-1.6-1.39-1.6-1.4.64-1.4,1.6.56,1.6,1.4,1.6Z"></path><path class="cls-19" d="M69.87,444.5h-.88v-.38h.88v-.57c0-.82.43-1.12,1.03-1.12.26,0,.47.05.66.15l-.16.36c-.14-.07-.28-.11-.45-.11-.4,0-.6.25-.6.71v.57h.97v.38h-.97v3.56h-.48v-3.56Z"></path></g></g></g></svg> 