<?xml version="1.0" encoding="UTF-8"?> <svg xmlns="http://www.w3.org/2000/svg" id="Layer_2" data-name="Layer 2" viewBox="0 0 613.97 778.59"><defs><style> .cls-1 { stroke-dasharray: 6.68 5.56; } .cls-1, .cls-2, .cls-3, .cls-4, .cls-5, .cls-6, .cls-7, .cls-8, .cls-9, .cls-10, .cls-11, .cls-12, .cls-13, .cls-14, .cls-15, .cls-16, .cls-17, .cls-18, .cls-19 { fill: none; } .cls-1, .cls-2, .cls-3, .cls-4, .cls-5, .cls-6, .cls-7, .cls-9, .cls-10, .cls-12, .cls-13, .cls-15, .cls-16, .cls-18, .cls-19 { stroke-width: .25px; } .cls-1, .cls-2, .cls-4, .cls-5, .cls-6, .cls-7, .cls-8, .cls-9, .cls-10, .cls-11, .cls-12, .cls-13, .cls-16, .cls-17, .cls-18, .cls-19 { stroke-linecap: round; stroke-linejoin: round; } .cls-1, .cls-2, .cls-4, .cls-5, .cls-6, .cls-7, .cls-9, .cls-10, .cls-12, .cls-13, .cls-18, .cls-19 { stroke: #75655e; } .cls-2 { stroke-dasharray: 5.08 4.23; } .cls-3 { stroke: #afa49f; } .cls-3, .cls-14, .cls-15 { stroke-miterlimit: 10; } .cls-4 { stroke-dasharray: 6.33 5.27; } .cls-5 { stroke-dasharray: 1.54 1.54; } .cls-6 { stroke-dasharray: 6.02 5.02; } .cls-20 { fill: #3a2a22; } .cls-7 { stroke-dasharray: 6.08 5.07; } .cls-8 { stroke: #55453d; stroke-width: .15px; } .cls-9 { stroke-dasharray: 5.77 4.81; } .cls-21 { fill: #fff; } .cls-10 { stroke-dasharray: 5.97 4.97; } .cls-11, .cls-14 { stroke-width: .75px; } .cls-11, .cls-14, .cls-16, .cls-17 { stroke: #3a2a22; } .cls-22 { fill: #bc8ebc; } .cls-13 { stroke-dasharray: 6 5; } .cls-15 { stroke: #bc8ebc; } .cls-23 { fill: #afa49f; } .cls-17 { stroke-width: .35px; } .cls-24 { fill: #75655e; } .cls-18 { stroke-dasharray: 1.44 1.44; } .cls-19 { stroke-dasharray: 5.84 4.87; } </style></defs><g id="Layer_1-2" data-name="Layer 1"><g><path class="cls-21" d="M440.19,746.4l-25.05-3.22-37.98-5.27-37.88-5.64-37.88-5.91-37.88-6.38-31.91-5.63-.06.36v14.69c-35.46-5.06-196.63-40.29-196.63-40.29v-177.87h80.66V226.57h-51.84l-12.29-176.11h9.22l-1.11-15.82h438.39v140.91h95.91v195.56h-153.66v375.3h0Z"></path><line class="cls-12" x1="43.37" y1="34.64" x2="43.58" y2="37.63"></line><line class="cls-1" x1="43.97" y1="43.18" x2="46.34" y2="77.03"></line><polyline class="cls-12" points="46.53 79.81 46.74 82.8 49.73 82.59"></polyline><polyline class="cls-12" points="51.88 82.45 54.87 82.24 55.08 85.24"></polyline><line class="cls-9" x1="55.42" y1="90.03" x2="64.1" y2="214.25"></line><polyline class="cls-12" points="64.27 216.65 64.48 219.64 67.48 219.64"></polyline><line class="cls-2" x1="71.71" y1="219.64" x2="97.53" y2="219.64"></line><polyline class="cls-12" points="99.64 219.64 102.64 219.64 102.47 222.64"></polyline><line class="cls-10" x1="102.17" y1="227.6" x2="81.07" y2="585.52"></line><polyline class="cls-12" points="80.92 588 80.74 591 77.74 591"></polyline><line class="cls-4" x1="72.47" y1="591" x2="51.91" y2="591"></line><polyline class="cls-12" points="49.28 591 46.28 591 44.98 593.7"></polyline><line class="cls-6" x1="42.8" y1="598.22" x2="5.61" y2="675.57"></line><polyline class="cls-12" points="4.52 677.83 3.22 680.53 6.14 681.22"></polyline><polyline class="cls-19" points="10.88 682.32 40.83 689.31 78.43 697.72 116.13 705.85 153.92 713.52 186.48 719.87"></polyline><polyline class="cls-12" points="188.86 720.34 191.81 720.91 191.25 723.86"></polyline><polyline class="cls-12" points="191.07 724.8 190.51 727.75 193.46 728.29"></polyline><polyline class="cls-13" points="198.38 729.2 227.57 734.59 264.62 741.06 301.76 747.25 339 753.16 376.24 758.61 413.48 763.79 434.75 766.58"></polyline><line class="cls-12" x1="437.23" y1="766.9" x2="440.2" y2="767.29"></line><polygon class="cls-17" points="63.65 59.24 74.55 215.02 116.04 215.02 116.04 217.33 72.43 217.33 61.34 59.42 63.65 59.24"></polygon><g><path class="cls-17" d="M114.04,521.26H44.91v159.81c29.54,6.42,134.23,29.04,176.63,36.57l.35-1.97c-41.53-7.38-142.42-29.14-174.98-36.21v-156.2h67.12v-2Z"></path><path class="cls-8" d="M266.11,167.71c23.13,0,39.35,18.61,39.35,41.58"></path><path class="cls-8" d="M246.52,630.27c23.13,0,39.35-18.61,39.35-41.58"></path><path class="cls-8" d="M74.46,541.21c0,23.13,18.61,39.35,41.58,39.35"></path><path class="cls-8" d="M101.07,198.93c0-23.13,18.61-39.35,41.58-39.35"></path><path class="cls-8" d="M450.99,202.44c0-23.13-18.61-39.35-41.58-39.35"></path><path class="cls-8" d="M419.93,262.98c-23.13,0-39.35,18.61-39.35,41.58"></path><path class="cls-8" d="M535.91,245.65c0,26.48,21.47,45.05,47.95,45.05"></path></g><line class="cls-8" x1="583.86" y1="245.65" x2="583.86" y2="290.7"></line><line class="cls-8" x1="593.86" y1="242.67" x2="593.86" y2="290.7"></line><rect class="cls-17" x="263.88" y="167.71" width="2.23" height="41.58"></rect><rect class="cls-17" x="244.29" y="588.69" width="2.23" height="41.58"></rect><rect class="cls-17" x="74.46" y="538.98" width="41.58" height="2.23"></rect><rect class="cls-17" x="101.07" y="198.93" width="41.58" height="2.23"></rect><rect class="cls-17" x="409.41" y="202.44" width="41.58" height="2.23"></rect><rect class="cls-17" x="419.93" y="262.98" width="2.23" height="41.58"></rect><rect class="cls-17" x="337.8" y="146.35" width="41.58" height="2.23"></rect><rect class="cls-17" x="535.91" y="242.74" width="47.95" height="2.91"></rect><rect class="cls-17" x="511.05" y="233.03" width="69.3" height="2.23"></rect><line class="cls-17" x1="545.7" y1="233.03" x2="545.7" y2="235.26"></line><rect class="cls-17" x="373.65" y="586.46" width="34.65" height="2.23"></rect><rect class="cls-17" x="339" y="584.22" width="34.65" height="2.23"></rect><rect class="cls-17" x="505.4" y="239.88" width="2.23" height="62.37"></rect><line class="cls-17" x1="507.63" y1="271.06" x2="505.4" y2="271.06"></line><line class="cls-12" x1="351.66" y1="416.55" x2="350.91" y2="416.55"></line><line class="cls-18" x1="349.47" y1="416.55" x2="324.22" y2="416.55"></line><polyline class="cls-12" points="323.5 416.55 322.75 416.55 322.75 415.8"></polyline><line class="cls-5" x1="322.75" y1="414.26" x2="322.75" y2="390.46"></line><polyline class="cls-12" points="322.75 389.69 322.75 388.94 323.5 388.94"></polyline><line class="cls-18" x1="324.94" y1="388.94" x2="350.19" y2="388.94"></line><line class="cls-12" x1="350.91" y1="388.94" x2="351.66" y2="388.94"></line><line class="cls-12" x1="351.66" y1="499.24" x2="350.91" y2="499.24"></line><line class="cls-18" x1="349.47" y1="499.24" x2="324.22" y2="499.24"></line><polyline class="cls-12" points="323.5 499.24 322.75 499.24 322.75 498.49"></polyline><line class="cls-5" x1="322.75" y1="496.96" x2="322.75" y2="473.15"></line><polyline class="cls-12" points="322.75 472.38 322.75 471.63 323.5 471.63"></polyline><line class="cls-18" x1="324.94" y1="471.63" x2="350.19" y2="471.63"></line><line class="cls-12" x1="350.91" y1="471.63" x2="351.66" y2="471.63"></line><line class="cls-12" x1="414.39" y1="403.08" x2="414.39" y2="406.08"></line><line class="cls-7" x1="414.39" y1="411.14" x2="414.39" y2="497.78"></line><line class="cls-12" x1="414.39" y1="500.31" x2="414.39" y2="503.31"></line><line class="cls-17" x1="402.48" y1="545.63" x2="402.48" y2="366.93"></line><line class="cls-17" x1="402.48" y1="403.08" x2="429.9" y2="403.08"></line><line class="cls-17" x1="402.48" y1="503.31" x2="429.9" y2="503.31"></line><line class="cls-17" x1="404.98" y1="403.08" x2="404.98" y2="366.93"></line><rect class="cls-17" x="302.08" y="385.41" width="49.57" height="117.81"></rect><g><rect class="cls-17" x="320.42" y="451.52" width="11.07" height="1.74" rx=".59" ry=".59"></rect><circle class="cls-17" cx="338.29" cy="452.39" r=".9"></circle></g><polyline class="cls-17" points="321.74 453.26 321.74 455.68 324.58 455.68 324.58 453.26"></polyline><line class="cls-17" x1="324.58" y1="454.82" x2="321.74" y2="454.82"></line><polyline class="cls-17" points="326.9 453.26 326.9 465.31 348.65 465.31 348.65 439.46 326.9 439.46 326.9 451.52"></polyline><polyline class="cls-17" points="327.98 451.52 327.98 440.54 347.57 440.54 347.57 464.23 327.98 464.23 327.98 453.26"></polyline><rect class="cls-17" x="546.7" y="188.48" width="30.61" height="38.03"></rect><rect class="cls-17" x="514.09" y="188.48" width="30.61" height="38.03"></rect><line class="cls-17" x1="404.98" y1="503.31" x2="404.98" y2="545.63"></line><polyline class="cls-17" points="325.14 260.09 350.16 260.09 350.16 304.51"></polyline><g><path class="cls-17" d="M326.22,229.61h5.29c.6,0,1.08.48,1.08,1.08v15.44c0,.6-.48,1.08-1.08,1.08h-5.29c-.6,0-1.08-.48-1.08-1.08v-15.44c0-.6.48-1.08,1.08-1.08Z"></path><path class="cls-17" d="M336.74,233.96c0-.28.11-.54.32-.73,2.09-1.88,5.3-3.09,8.9-3.09,6.31,0,11.42,3.71,11.42,8.28s-5.11,8.28-11.42,8.28c-3.59,0-6.8-1.2-8.9-3.08-.21-.19-.32-.46-.32-.73v-8.92Z"></path></g><line class="cls-17" x1="345.96" y1="230.14" x2="332.44" y2="230.14"></line><line class="cls-17" x1="345.96" y1="246.69" x2="332.44" y2="246.69"></line><path class="cls-17" d="M333.21,278.1v9.87c0,.4.32.72.72.72h10.9c.4,0,.72-.32.72-.72v-20.82c0-.4-.32-.72-.72-.72h-10.9c-.4,0-.72.32-.72.72v9.48"></path><rect class="cls-17" x="329.76" y="276.63" width="5.89" height="1.47"></rect><circle class="cls-17" cx="339.38" cy="277.36" r=".84"></circle><polyline class="cls-17" points="462.54 204.03 462.55 126.7 487.95 126.7"></polyline><path class="cls-17" d="M479.6,147.44v-9.87c0-.4-.32-.72-.72-.72h-10.9c-.4,0-.72.32-.72.72v20.82c0,.4.32.72.72.72h10.9c.4,0,.72-.32.72-.72v-9.48"></path><rect class="cls-17" x="477.17" y="147.44" width="5.89" height="1.47"></rect><g><circle class="cls-17" cx="473.43" cy="148.18" r=".84"></circle><path class="cls-17" d="M479.6,182.2v-9.87c0-.4-.32-.72-.72-.72h-10.9c-.4,0-.72.32-.72.72v20.82c0,.4.32.72.72.72h10.9c.4,0,.72-.32.72-.72v-9.48"></path></g><rect class="cls-17" x="477.17" y="182.2" width="5.89" height="1.47"></rect><circle class="cls-17" cx="473.43" cy="182.93" r=".84"></circle><line class="cls-17" x1="411.72" y1="86.22" x2="487.13" y2="86.23"></line><line class="cls-17" x1="411.72" y1="86.22" x2="487.95" y2="86.23"></line><line class="cls-17" x1="411.72" y1="84.94" x2="487.95" y2="84.95"></line><line class="cls-17" x1="416.4" y1="84.94" x2="416.4" y2="86.22"></line><line class="cls-17" x1="454.41" y1="84.94" x2="454.41" y2="86.22"></line><g><path class="cls-17" d="M428.78,64.79c0-2.86-2.32-5.18-5.18-5.18s-5.18,2.32-5.18,5.18,2.32,5.18,5.18,5.18,5.18-2.32,5.18-5.18Z"></path><path class="cls-17" d="M424.81,64.79c0,.67-.54,1.21-1.21,1.21s-1.21-.54-1.21-1.21.54-1.21,1.21-1.21,1.21.54,1.21,1.21Z"></path></g><line class="cls-17" x1="474.57" y1="44.64" x2="474.56" y2="84.94"></line><g><path class="cls-17" d="M481.58,97.93h5.29c.6,0,1.08.48,1.08,1.08v15.44c0,.6-.48,1.08-1.08,1.08h-5.29c-.6,0-1.08-.48-1.08-1.08v-15.44c0-.6.48-1.08,1.08-1.08Z"></path><path class="cls-17" d="M476.35,111.19c0,.28-.11.54-.32.73-2.09,1.88-5.3,3.09-8.9,3.08-6.31,0-11.42-3.7-11.42-8.28s5.11-8.27,11.42-8.27c3.6,0,6.8,1.2,8.9,3.08.21.19.32.46.32.73v8.92Z"></path></g><line class="cls-17" x1="467.13" y1="115" x2="480.65" y2="115"></line><line class="cls-17" x1="467.13" y1="98.45" x2="480.65" y2="98.45"></line><path class="cls-17" d="M435.04,233.32h24.04c1.38,0,2.5,1.12,2.5,2.5v61.83c0,1.38-1.12,2.5-2.5,2.5h-24.04c-1.38,0-2.5-1.12-2.5-2.5v-61.83c0-1.38,1.12-2.5,2.5-2.5Z"></path><line class="cls-17" x1="428.06" y1="228.33" x2="428.07" y2="304.56"></line><line class="cls-17" x1="426.78" y1="228.33" x2="426.78" y2="304.51"></line><line class="cls-17" x1="426.78" y1="233.01" x2="428.06" y2="233.01"></line><line class="cls-17" x1="426.78" y1="271.01" x2="428.06" y2="271.01"></line><g><path class="cls-17" d="M446.62,229.33v10.86c0,.24.19.43.43.43s.43-.19.43-.43v-10.81"></path><path class="cls-17" d="M447.48,239.11c.46.17.79.61.79,1.14,0,.67-.54,1.21-1.21,1.21s-1.21-.54-1.21-1.21c0-.51.32-.95.77-1.13"></path><path class="cls-17" d="M447.48,235.08c2.66.22,4.76,2.45,4.76,5.17,0,2.86-2.32,5.18-5.18,5.18-2.86,0-5.18-2.32-5.18-5.18,0-2.71,2.09-4.94,4.74-5.16"></path></g><rect class="cls-17" x="444.52" y="228.37" width="5.08" height=".97"></rect><rect class="cls-17" x="403.76" y="441.96" width="24.28" height="36.98"></rect><rect class="cls-17" x="404.84" y="443.04" width="22.12" height="34.82"></rect><path class="cls-17" d="M405.59,460.44c0-.71.57-1.28,1.28-1.28s1.28.57,1.28,1.28-.57,1.28-1.28,1.28c-.71,0-1.28-.57-1.28-1.28Z"></path><line class="cls-17" x1="404.84" y1="443.04" x2="403.76" y2="441.96"></line><line class="cls-17" x1="404.84" y1="477.85" x2="403.76" y2="478.93"></line><line class="cls-17" x1="426.96" y1="477.85" x2="428.04" y2="478.93"></line><line class="cls-17" x1="426.96" y1="443.03" x2="428.04" y2="441.95"></line><polygon class="cls-17" points="406.87 461.5 407.93 460.44 406.87 459.39 405.82 460.44 406.87 461.5"></polygon><line class="cls-17" x1="407.93" y1="460.44" x2="405.82" y2="460.44"></line><g><path class="cls-16" d="M488.66,254.75c1.51-.03,3.03-.06,4.57-.13.8-.04,1.6-.09,2.35-.13.57-.03,1.11-.07,1.78-.16.65-.09,1.42-.25,1.73.23.07.11.12.25.13.38.06.77-1.18.9-2.24.97-2.35.15-3.74-.04-5.44-.16-.9-.06-1.9-.1-2.89-.14-.99.04-1.98.08-2.89.14-1.7.12-3.09.3-5.44.16-1.05-.07-2.3-.2-2.24-.97.01-.13.06-.27.13-.38.31-.48,1.08-.33,1.73-.23.67.1,1.21.13,1.78.16.75.04,1.56.09,2.35.13,1.55.07,3.06.1,4.57.13Z"></path><path class="cls-16" d="M488.66,259.45c1.51-.03,3.03-.06,4.57-.13.8-.04,1.6-.09,2.35-.13.57-.03,1.11-.07,1.78-.16.65-.09,1.42-.25,1.73.23.07.11.12.25.13.38.06.77-1.18.9-2.24.97-2.35.15-3.74-.04-5.44-.16-.9-.06-1.9-.1-2.89-.14-.99.04-1.98.08-2.89.14-1.7.12-3.09.3-5.44.16-1.05-.07-2.3-.2-2.24-.97.01-.13.06-.27.13-.38.31-.48,1.08-.33,1.73-.23.67.1,1.21.13,1.78.16.75.04,1.56.09,2.35.13,1.55.07,3.06.1,4.57.13Z"></path><path class="cls-16" d="M488.66,264.14c1.51-.03,3.03-.06,4.57-.13.8-.04,1.6-.09,2.35-.13.57-.03,1.11-.07,1.78-.16.65-.09,1.42-.25,1.73.23.07.11.12.25.13.38.06.77-1.18.9-2.24.97-2.35.15-3.74-.04-5.44-.16-.9-.06-1.9-.1-2.89-.14-.99.04-1.98.08-2.89.14-1.7.12-3.09.3-5.44.16-1.05-.07-2.3-.2-2.24-.97.01-.13.06-.27.13-.38.31-.48,1.08-.32,1.73-.23.67.1,1.21.13,1.78.16.75.04,1.56.09,2.35.13,1.55.07,3.06.1,4.57.13Z"></path></g><line class="cls-16" x1="488.66" y1="304.56" x2="488.66" y2="215.02"></line><g><path class="cls-16" d="M397.27,570.19c.03,1.51.06,3.03.13,4.57.04.8.09,1.6.13,2.36.03.57.07,1.11.16,1.78.09.65.25,1.42-.23,1.73-.11.07-.25.12-.38.13-.77.06-.9-1.18-.97-2.24-.15-2.35.04-3.74.16-5.44.06-.9.1-1.89.14-2.89-.04-.99-.08-1.98-.14-2.89-.11-1.7-.3-3.09-.16-5.44.07-1.05.2-2.3.97-2.24.13,0,.27.06.38.13.48.31.32,1.08.23,1.73-.1.67-.13,1.21-.16,1.78-.04.75-.09,1.56-.13,2.35-.07,1.55-.1,3.06-.13,4.57Z"></path><path class="cls-16" d="M392.58,570.19c.03,1.51.06,3.03.13,4.57.04.8.09,1.6.13,2.36.03.57.07,1.11.16,1.78.09.65.25,1.42-.23,1.73-.11.07-.25.12-.38.13-.77.06-.9-1.18-.97-2.24-.15-2.35.04-3.74.16-5.44.06-.9.1-1.89.14-2.89-.04-.99-.08-1.98-.14-2.89-.11-1.7-.3-3.09-.16-5.44.07-1.05.2-2.3.97-2.24.13,0,.27.06.38.13.48.31.32,1.08.23,1.73-.1.67-.13,1.21-.16,1.78-.05.75-.09,1.56-.13,2.35-.07,1.55-.1,3.06-.13,4.57Z"></path><path class="cls-16" d="M387.88,570.19c.03,1.51.06,3.03.13,4.57.04.8.09,1.6.13,2.36.03.57.07,1.11.16,1.78.09.65.25,1.42-.23,1.73-.11.07-.25.12-.38.13-.77.06-.9-1.18-.97-2.24-.15-2.35.04-3.74.16-5.44.06-.9.1-1.89.14-2.89-.04-.99-.08-1.98-.14-2.89-.11-1.7-.3-3.09-.16-5.44.07-1.05.2-2.3.97-2.24.13,0,.27.06.38.13.48.31.32,1.08.23,1.73-.1.67-.13,1.21-.16,1.78-.04.75-.09,1.56-.13,2.35-.07,1.55-.1,3.06-.13,4.57Z"></path></g><line class="cls-16" x1="320.54" y1="570.19" x2="430.2" y2="570.19"></line><g><path class="cls-16" d="M360.53,570.19c.03,1.51.06,3.03.13,4.57.04.8.09,1.6.13,2.36.03.57.07,1.11.16,1.78.09.65.25,1.42-.23,1.73-.11.07-.25.12-.38.13-.77.06-.9-1.18-.97-2.24-.15-2.35.04-3.74.16-5.44.06-.9.1-1.89.14-2.89-.04-.99-.08-1.98-.14-2.89-.11-1.7-.3-3.09-.16-5.44.07-1.05.2-2.3.97-2.24.13,0,.27.06.38.13.48.31.32,1.08.23,1.73-.1.67-.13,1.21-.16,1.78-.04.75-.09,1.56-.13,2.35-.07,1.55-.1,3.06-.13,4.57Z"></path><path class="cls-16" d="M355.83,570.19c.03,1.51.06,3.03.13,4.57.04.8.09,1.6.13,2.36.03.57.07,1.11.16,1.78.09.65.25,1.42-.23,1.73-.11.07-.25.12-.38.13-.77.06-.9-1.18-.97-2.24-.15-2.35.04-3.74.16-5.44.06-.9.1-1.89.14-2.89-.04-.99-.08-1.98-.14-2.89-.11-1.7-.3-3.09-.16-5.44.07-1.05.2-2.3.97-2.24.13,0,.27.06.38.13.48.31.32,1.08.23,1.73-.1.67-.13,1.21-.16,1.78-.04.75-.09,1.56-.13,2.35-.07,1.55-.1,3.06-.13,4.57Z"></path><path class="cls-16" d="M351.14,570.19c.03,1.51.06,3.03.13,4.57.04.8.09,1.6.13,2.36.03.57.07,1.11.16,1.78.09.65.25,1.42-.23,1.73-.11.07-.25.12-.38.13-.77.06-.9-1.18-.97-2.24-.15-2.35.04-3.74.16-5.44.06-.9.1-1.89.14-2.89-.04-.99-.08-1.98-.14-2.89-.11-1.7-.3-3.09-.16-5.44.07-1.05.2-2.3.97-2.24.13,0,.27.06.38.13.48.31.32,1.08.23,1.73-.1.67-.13,1.21-.16,1.78-.04.75-.09,1.56-.13,2.35-.07,1.55-.1,3.06-.13,4.57Z"></path></g><line class="cls-16" x1="150.69" y1="157.27" x2="150.69" y2="49.26"></line><line class="cls-16" x1="61.96" y1="34.64" x2="67.63" y2="34.64"></line><polyline class="cls-16" points="115.58 226.57 63.74 226.57 51.45 50.46 60.67 50.46"></polyline><polyline class="cls-16" points="400.4 732.95 393.98 732.09 353.88 726.36 313.78 720.17 273.77 713.61 233.85 706.59 233.85 604.86"></polyline><line class="cls-16" x1="440.2" y1="744.04" x2="440.2" y2="738.23"></line><polyline class="cls-16" points="124.08 536.67 124.08 227.77 145.79 227.77"></polyline><polyline class="cls-16" points="124.17 536.67 129.9 536.67 129.9 233.5 142.65 233.5"></polyline><polyline class="cls-16" points="124.09 582.87 124.09 588.69 162.24 588.69"></polyline><line class="cls-16" x1="164.55" y1="582.96" x2="124.09" y2="582.96"></line><polyline class="cls-16" points="401.56 727.29 239.58 701.51 239.58 619.73"></polyline><path class="cls-16" d="M116.04,511.26H34.91v177.87s161.16,35.23,196.63,40.29v-14.69"></path><polyline class="cls-11" points="116.04 582.87 116.04 596.82 164.55 596.82 164.55 594.51 118.36 594.51 118.35 582.96"></polyline><polygon class="cls-11" points="118.35 536.67 118.35 221.95 144.96 221.95 144.96 203.47 142.65 203.47 142.65 219.64 116.04 219.64 116.04 536.67 118.35 536.67"></polygon><polygon class="cls-11" points="63.38 55.08 61.96 34.64 59.56 34.64 61.16 57.39 142.65 57.39 142.65 157.27 144.96 157.27 144.96 55.08 63.38 55.08"></polygon><polygon class="cls-11" points="440.2 744.04 415.42 740.87 377.81 735.7 340.3 730.15 302.87 724.24 265.45 718.05 228.12 711.49 228.12 604.86 225.81 604.86 225.81 713.34 263.51 719.99 301.39 726.36 339.28 732.28 377.16 737.91 415.14 743.18 440.19 746.4 440.2 744.04"></polygon><rect class="cls-11" x="144.96" y="87.97" width="5.73" height="2.31"></rect><rect class="cls-11" x="142.65" y="157.27" width="8.04" height="2.31"></rect><rect class="cls-11" x="141.45" y="49.26" width="2.31" height="5.82"></rect><rect class="cls-11" x="99.87" y="49.26" width="2.31" height="5.82"></rect><rect class="cls-11" x="144.96" y="56.19" width="5.73" height="2.31"></rect><polyline class="cls-11" points="63.29 53.51 63.38 55.08 65.05 55.08 70.4 49.26 68.83 49.26 68.74 47.69 63.29 53.51"></polyline><rect class="cls-11" x="142.65" y="201.16" width="8.04" height="2.31"></rect><rect class="cls-11" x="144.96" y="218.53" width="5.73" height="2.31"></rect><rect class="cls-11" x="140.34" y="221.95" width="2.31" height="5.82"></rect><rect class="cls-11" x="116.04" y="536.67" width="8.04" height="2.31"></rect><rect class="cls-11" x="118.35" y="476.33" width="5.73" height="2.31"></rect><rect class="cls-11" x="118.35" y="268.43" width="5.73" height="2.31"></rect><rect class="cls-11" x="118.35" y="337.73" width="5.73" height="2.31"></rect><rect class="cls-11" x="118.35" y="407.03" width="5.73" height="2.31"></rect><rect class="cls-11" x="228.12" y="618.72" width="5.73" height="2.31"></rect><polyline class="cls-11" points="401.93 733.2 401.09 738.93 398.88 738.56 399.62 732.92 401.93 733.2"></polyline><polyline class="cls-11" points="333.46 723.22 332.53 728.95 330.32 728.58 331.15 722.85 333.46 723.22"></polyline><polyline class="cls-11" points="265.17 712.13 264.16 717.77 261.94 717.4 262.86 711.67 265.17 712.13"></polyline><rect class="cls-11" x="228.12" y="604.86" width="5.73" height="2.31"></rect><rect class="cls-11" x="228.12" y="666.77" width="5.73" height="2.31"></rect><polyline class="cls-11" points="228.12 709.92 228.12 711.49 229.6 711.67 235.33 706.87 233.85 706.59 233.85 705.11 228.12 709.92"></polyline><polyline class="cls-11" points="118.35 221.95 118.35 223.62 124.08 229.34 124.08 227.77 125.74 227.77 120.01 221.95 118.35 221.95"></polyline><polyline class="cls-11" points="118.36 594.51 118.36 592.85 124.09 587.03 124.09 588.69 125.75 588.69 120.02 594.51 118.36 594.51"></polyline><polyline class="cls-11" points="164.55 588.69 162.24 588.69 162.24 594.51 164.55 594.51 164.55 588.78"></polyline><rect class="cls-11" x="116.04" y="580.56" width="8.05" height="2.31"></rect><polygon class="cls-20" points="259.81 233.5 259.81 215.02 263.88 215.02 263.88 209.29 259.81 209.29 156.51 209.29 156.51 202.36 150.69 202.36 150.69 227.77 142.65 227.77 142.65 233.5 150.69 233.5 259.81 233.5"></polygon><polygon class="cls-14" points="259.81 233.5 259.81 215.02 263.88 215.02 263.88 209.29 259.81 209.29 156.51 209.29 156.51 202.36 150.69 202.36 150.69 227.77 142.65 227.77 142.65 233.5 150.69 233.5 259.81 233.5"></polygon><polygon class="cls-20" points="583.86 242.74 583.86 235.26 580.35 235.26 580.35 229.44 583.86 229.44 583.86 185.55 507.63 185.55 507.63 229.44 511.05 229.44 511.05 235.26 507.63 235.26 507.63 239.88 501.81 239.88 501.81 215.02 474.09 215.02 474.09 304.56 501.81 304.56 501.81 302.25 507.63 302.25 507.63 310.29 422.16 310.29 422.16 304.56 466.05 304.56 466.05 228.33 426.78 228.33 426.78 215.02 325.14 215.02 325.14 304.51 380.58 304.51 380.58 310.29 317.01 310.29 317.01 215.02 305.46 215.02 305.46 209.29 403.68 209.29 403.68 204.67 409.41 204.67 409.41 209.29 462.54 209.29 462.54 204.03 487.95 204.03 487.95 44.64 411.72 44.64 411.72 86.22 409.41 86.22 409.41 163.09 403.68 163.09 403.68 148.59 379.38 148.59 379.38 142.86 403.68 142.86 403.68 44.64 333.18 44.64 333.18 142.86 337.8 142.86 337.8 148.59 327.45 148.59 327.45 52.77 156.51 52.77 156.51 57.39 150.69 57.39 150.69 49.26 68.83 49.26 67.63 34.64 497.95 34.64 497.95 175.55 593.86 175.55 593.86 242.74 583.86 242.74"></polygon><polygon class="cls-14" points="583.86 242.74 583.86 235.26 580.35 235.26 580.35 229.44 583.86 229.44 583.86 185.55 507.63 185.55 507.63 229.44 511.05 229.44 511.05 235.26 507.63 235.26 507.63 239.88 501.81 239.88 501.81 215.02 474.09 215.02 474.09 304.56 501.81 304.56 501.81 302.25 507.63 302.25 507.63 310.29 422.16 310.29 422.16 304.56 466.05 304.56 466.05 228.33 426.78 228.33 426.78 215.02 325.14 215.02 325.14 304.51 380.58 304.51 380.58 310.29 317.01 310.29 317.01 215.02 305.46 215.02 305.46 209.29 403.68 209.29 403.68 204.67 409.41 204.67 409.41 209.29 462.54 209.29 462.54 204.03 487.95 204.03 487.95 44.64 411.72 44.64 411.72 86.22 409.41 86.22 409.41 163.09 403.68 163.09 403.68 148.59 379.38 148.59 379.38 142.86 403.68 142.86 403.68 44.64 333.18 44.64 333.18 142.86 337.8 142.86 337.8 148.59 327.45 148.59 327.45 52.77 156.51 52.77 156.51 57.39 150.69 57.39 150.69 49.26 68.83 49.26 67.63 34.64 497.95 34.64 497.95 175.55 593.86 175.55 593.86 242.74 583.86 242.74"></polygon><polygon class="cls-20" points="593.86 290.7 583.91 290.7 583.91 316.11 576.93 316.11 576.93 361.11 402.48 361.11 402.48 366.93 429.9 366.93 429.9 545.63 402.48 545.63 402.48 549.42 314.26 549.42 314.26 582.96 285.87 582.96 285.87 588.69 339 588.69 339 582.96 319.99 582.96 319.99 555.24 430.2 555.24 430.2 582.96 408.3 582.96 408.3 588.69 425.03 588.69 425.03 730.43 401.56 727.29 400.72 733.02 440.2 738.23 440.2 371.11 593.91 371.11 593.87 290.7 593.86 290.7"></polygon><polygon class="cls-14" points="593.86 290.7 583.91 290.7 583.91 316.11 576.93 316.11 576.93 361.11 402.48 361.11 402.48 366.93 429.9 366.93 429.9 545.63 402.48 545.63 402.48 549.42 314.26 549.42 314.26 582.96 285.87 582.96 285.87 588.69 339 588.69 339 582.96 319.99 582.96 319.99 555.24 430.2 555.24 430.2 582.96 408.3 582.96 408.3 588.69 425.03 588.69 425.03 730.43 401.56 727.29 400.72 733.02 440.2 738.23 440.2 371.11 593.91 371.11 593.87 290.7 593.86 290.7"></polygon><polygon class="cls-20" points="164.55 582.96 244.29 582.96 244.29 588.69 239.67 588.69 239.67 619.73 233.85 619.73 233.85 604.86 164.55 604.86 164.55 582.96"></polygon><polygon class="cls-14" points="164.55 582.96 244.29 582.96 244.29 588.69 239.67 588.69 239.67 619.73 233.85 619.73 233.85 604.86 164.55 604.86 164.55 582.96"></polygon><g><path class="cls-22" d="M605.74,266.83c-.08-.02-.14-.07-.14-.14s.06-.13.14-.14c3.3-.56,4.94-2.74,4.94-6.02v-3.84c0-1.16,1.01-1.98,2.66-2.2.33-.05.61.23.45.47-.31.46-.47,1.06-.47,1.78v3.48c0,2.95-1.67,5.22-4.98,6.17-.37.11-.37.5,0,.61,3.31.96,4.98,3.22,4.98,6.18v3.48c0,.72.16,1.32.47,1.78.16.23-.12.51-.45.47-1.64-.22-2.66-1.05-2.66-2.21v-3.84c0-3.29-1.64-5.47-4.94-6.02h0Z"></path><path class="cls-15" d="M605.74,266.83c-.08-.02-.14-.07-.14-.14s.06-.13.14-.14c3.3-.56,4.94-2.74,4.94-6.02v-3.84c0-1.16,1.01-1.98,2.66-2.2.33-.05.61.23.45.47-.31.46-.47,1.06-.47,1.78v3.48c0,2.95-1.67,5.22-4.98,6.17-.37.11-.37.5,0,.61,3.31.96,4.98,3.22,4.98,6.18v3.48c0,.72.16,1.32.47,1.78.16.23-.12.51-.45.47-1.64-.22-2.66-1.05-2.66-2.21v-3.84c0-3.29-1.64-5.47-4.94-6.02h0Z"></path></g><g><path class="cls-20" d="M189.48,126.13h2.52c1.9,0,2.97.89,2.97,2.53s-1.07,2.54-2.97,2.54h-1.72v3.99h-.8v-9.06ZM191.93,130.48c1.41,0,2.24-.61,2.24-1.81s-.81-1.81-2.24-1.81h-1.64v3.62h1.64Z"></path><path class="cls-20" d="M196.49,128.79h.78v1.09c.43-.78,1.31-1.18,2.02-1.18.33,0,.66.07.99.24l-.39.7c-.21-.1-.51-.17-.77-.17-.68,0-1.46.36-1.74,1.3-.08.27-.12.57-.12,1.27v3.15h-.78v-6.41Z"></path><path class="cls-20" d="M201.55,126.13h.94v1.39h-.94v-1.39ZM201.63,128.79h.77v6.41h-.77v-6.41Z"></path><path class="cls-20" d="M204.44,128.79h.78v1.1c.38-.85,1.11-1.19,1.88-1.19.91,0,1.57.4,1.89,1.25.4-.83,1.09-1.25,2-1.25,1.55,0,2.13,1.16,2.13,2.69v3.82h-.78v-3.64c0-1.33-.39-2.18-1.52-2.18-1.02,0-1.65.77-1.65,2.26v3.57h-.78v-3.76c0-1.4-.52-2.07-1.5-2.07-1.03,0-1.67.79-1.67,2.26v3.57h-.78v-6.41Z"></path><path class="cls-20" d="M219.26,133.99c-.43.82-1.25,1.29-2.25,1.29-1.44,0-2.31-.77-2.31-1.94,0-.69.29-1.16.72-1.44.46-.31,1.09-.42,1.77-.42h2.05v-.28c0-1.19-.62-1.83-1.82-1.83-.79,0-1.4.29-1.98,1.02l-.56-.48c.68-.85,1.53-1.22,2.59-1.22,1.63,0,2.54.89,2.54,2.51v3.99h-.71l-.04-1.2ZM217.09,134.64c1.18,0,2.17-.93,2.17-2.2v-.36h-1.95c-.51,0-1.03.08-1.37.33-.28.21-.44.51-.44.94,0,.79.6,1.3,1.6,1.3Z"></path><path class="cls-20" d="M221.97,128.79h.78v1.09c.43-.78,1.31-1.18,2.02-1.18.33,0,.66.07.99.24l-.39.7c-.21-.1-.51-.17-.77-.17-.68,0-1.46.36-1.74,1.3-.08.27-.12.57-.12,1.27v3.15h-.78v-6.41Z"></path><path class="cls-20" d="M229.03,134.99l-2.55-6.21h.86l2.1,5.42,2.11-5.42h.85l-3.69,9.05h-.84l1.17-2.84Z"></path><path class="cls-20" d="M237.29,126.13h2.72c1.68,0,2.68.84,2.68,2.25,0,.94-.46,1.68-1.24,2,1.1.25,1.7,1.07,1.7,2.31,0,1.61-1.02,2.5-2.88,2.5h-2.97v-9.06ZM240.26,130.14c.98,0,1.63-.64,1.63-1.64s-.69-1.61-1.88-1.61h-1.91v3.26h2.16ZM240.21,134.45c1.42,0,2.14-.6,2.14-1.79,0-1.13-.66-1.79-1.79-1.79h-2.46v3.58h2.11Z"></path><path class="cls-20" d="M244.61,132.04c0-1.84.99-3.34,2.81-3.34,1.96,0,2.76,1.53,2.76,2.94,0,.1-.01.4-.04.55h-4.76c.03,1.51.84,2.39,2.14,2.39.82,0,1.35-.23,1.91-.83l.55.49c-.73.75-1.43,1.05-2.46,1.05-1.89,0-2.91-1.41-2.91-3.25ZM249.43,131.61c0-.08,0-.16,0-.24,0-.92-.58-2.02-2-2.02-1.23,0-1.98.98-2.07,2.26h4.06Z"></path><path class="cls-20" d="M251.59,131.99c0-1.96,1.29-3.29,2.92-3.29,1.05,0,1.87.54,2.29,1.36v-3.92h.77v9.06h-.77v-1.26c-.44.85-1.25,1.35-2.29,1.35-1.72,0-2.92-1.42-2.92-3.3ZM254.64,134.57c1.3,0,2.23-1.08,2.23-2.58s-.93-2.58-2.23-2.58-2.26,1.09-2.26,2.58.95,2.58,2.26,2.58Z"></path><path class="cls-20" d="M259.61,128.79h.78v1.09c.43-.78,1.31-1.18,2.02-1.18.33,0,.66.07.99.24l-.39.7c-.21-.1-.51-.17-.77-.17-.68,0-1.46.36-1.74,1.3-.08.27-.12.57-.12,1.27v3.15h-.78v-6.41Z"></path><path class="cls-20" d="M263.99,131.99c0-1.92,1.25-3.29,3.05-3.29s3.04,1.37,3.04,3.29-1.27,3.3-3.04,3.3-3.05-1.36-3.05-3.3ZM267.04,134.59c1.37,0,2.26-1.04,2.26-2.61s-.9-2.61-2.26-2.61-2.28,1.05-2.28,2.61.9,2.61,2.28,2.61Z"></path><path class="cls-20" d="M271.52,131.99c0-1.92,1.25-3.29,3.05-3.29s3.04,1.37,3.04,3.29-1.27,3.3-3.04,3.3-3.05-1.36-3.05-3.3ZM274.57,134.59c1.37,0,2.26-1.04,2.26-2.61s-.9-2.61-2.26-2.61-2.28,1.05-2.28,2.61.9,2.61,2.28,2.61Z"></path><path class="cls-20" d="M279.36,128.79h.78v1.1c.38-.85,1.11-1.19,1.88-1.19.91,0,1.57.4,1.89,1.25.4-.83,1.09-1.25,2-1.25,1.55,0,2.13,1.16,2.13,2.69v3.82h-.78v-3.64c0-1.33-.39-2.18-1.52-2.18-1.02,0-1.65.77-1.65,2.26v3.57h-.78v-3.76c0-1.4-.52-2.07-1.5-2.07-1.03,0-1.67.79-1.67,2.26v3.57h-.78v-6.41Z"></path></g><g><path class="cls-20" d="M306.79,646.61h2.72c1.68,0,2.68.84,2.68,2.25,0,.94-.46,1.68-1.24,2,1.1.25,1.7,1.07,1.7,2.31,0,1.61-1.02,2.5-2.88,2.5h-2.97v-9.06ZM309.76,650.62c.98,0,1.63-.64,1.63-1.64s-.69-1.61-1.88-1.61h-1.91v3.26h2.16ZM309.71,654.93c1.42,0,2.14-.6,2.14-1.79,0-1.13-.66-1.79-1.79-1.79h-2.46v3.58h2.11Z"></path><path class="cls-20" d="M314.09,652.52c0-1.84.99-3.34,2.81-3.34,1.96,0,2.76,1.53,2.76,2.94,0,.1-.01.4-.04.55h-4.76c.03,1.51.84,2.39,2.14,2.39.82,0,1.35-.23,1.91-.83l.55.49c-.73.75-1.43,1.05-2.46,1.05-1.89,0-2.91-1.41-2.91-3.25ZM318.91,652.09c0-.08,0-.16,0-.24,0-.92-.58-2.01-2-2.01-1.23,0-1.98.98-2.07,2.26h4.06Z"></path><path class="cls-20" d="M321.06,652.47c0-1.96,1.29-3.29,2.92-3.29,1.05,0,1.87.54,2.29,1.36v-3.92h.77v9.06h-.77v-1.26c-.44.84-1.25,1.35-2.29,1.35-1.72,0-2.92-1.42-2.92-3.3ZM324.1,655.05c1.3,0,2.23-1.08,2.23-2.58s-.93-2.58-2.23-2.58-2.26,1.09-2.26,2.58.95,2.58,2.26,2.58Z"></path><path class="cls-20" d="M329.07,649.27h.78v1.09c.43-.78,1.31-1.18,2.02-1.18.33,0,.66.07.99.24l-.39.7c-.21-.1-.51-.17-.77-.17-.68,0-1.46.36-1.74,1.3-.08.27-.12.57-.12,1.27v3.15h-.78v-6.41Z"></path><path class="cls-20" d="M333.45,652.47c0-1.92,1.25-3.29,3.05-3.29s3.04,1.37,3.04,3.29-1.27,3.3-3.04,3.3-3.05-1.37-3.05-3.3ZM336.5,655.07c1.37,0,2.26-1.04,2.26-2.61s-.9-2.61-2.26-2.61-2.28,1.05-2.28,2.61.9,2.61,2.28,2.61Z"></path><path class="cls-20" d="M340.99,652.47c0-1.92,1.25-3.29,3.05-3.29s3.04,1.37,3.04,3.29-1.27,3.3-3.04,3.3-3.05-1.37-3.05-3.3ZM344.04,655.07c1.37,0,2.26-1.04,2.26-2.61s-.9-2.61-2.26-2.61-2.28,1.05-2.28,2.61.9,2.61,2.28,2.61Z"></path><path class="cls-20" d="M348.83,649.27h.78v1.1c.38-.84,1.11-1.19,1.88-1.19.91,0,1.57.4,1.89,1.25.4-.83,1.09-1.25,2-1.25,1.55,0,2.13,1.16,2.13,2.68v3.82h-.78v-3.64c0-1.33-.39-2.18-1.52-2.18-1.02,0-1.65.77-1.65,2.26v3.57h-.78v-3.76c0-1.4-.52-2.07-1.5-2.07-1.03,0-1.67.79-1.67,2.26v3.57h-.78v-6.41Z"></path></g><g><path class="cls-20" d="M182.66,439.32h2.43c2.94,0,4.62,1.68,4.62,4.6s-1.64,4.46-4.63,4.46h-2.42v-9.06ZM185.01,447.64c2.5,0,3.89-1.16,3.89-3.74s-1.4-3.83-3.82-3.83h-1.61v7.57h1.54Z"></path><path class="cls-20" d="M191.32,439.32h.94v1.39h-.94v-1.39ZM191.4,441.98h.77v6.41h-.77v-6.41Z"></path><path class="cls-20" d="M194.21,441.98h.78v1.05c.4-.76,1.12-1.14,2.01-1.14,1.38,0,2.2.81,2.2,2.51v3.99h-.78v-3.71c0-1.45-.55-2.11-1.61-2.11-1.16,0-1.83.79-1.83,2.55v3.27h-.78v-6.41Z"></path><path class="cls-20" d="M201.09,439.32h.94v1.39h-.94v-1.39ZM201.17,441.98h.77v6.41h-.77v-6.41Z"></path><path class="cls-20" d="M203.98,441.98h.78v1.05c.4-.76,1.12-1.14,2.01-1.14,1.38,0,2.2.81,2.2,2.51v3.99h-.78v-3.71c0-1.45-.55-2.11-1.61-2.11-1.16,0-1.83.79-1.83,2.55v3.27h-.78v-6.41Z"></path><path class="cls-20" d="M210.44,449.15s0-.1.03-.26l1.11-.88c-.57-.22-.96-.59-.96-1.26,0-.53.27-.9.72-1.2-.36-.37-.56-.87-.56-1.45,0-1.3,1.04-2.2,2.38-2.2.64,0,1.22.21,1.64.58l1.02-.86.4.49-1,.88c.19.33.3.71.3,1.14,0,1.28-.96,2.13-2.33,2.13-.53,0-.99-.12-1.37-.34-.31.17-.45.42-.45.71,0,.66.63.83,1.62.98,1.6.25,2.99.44,2.99,1.75,0,1.16-1.05,1.78-2.7,1.78-1.82,0-2.85-.7-2.85-2ZM213.3,450.54c1.09,0,1.92-.34,1.92-1.08,0-.86-1.16-.96-2.31-1.14-.31-.05-.6-.1-.89-.17l-.8.92c-.01.09-.01.11-.01.15,0,.9.79,1.33,2.09,1.33ZM213.17,445.61c.98,0,1.59-.65,1.59-1.53s-.64-1.56-1.58-1.56-1.62.65-1.62,1.55.63,1.55,1.61,1.55Z"></path><path class="cls-20" d="M220.92,439.32h2.52c1.99,0,2.97.93,2.97,2.5,0,1.25-.64,2.07-1.85,2.38l2.44,4.19h-.92l-2.34-4.07c-.21,0-.44,0-.65,0h-1.36v4.06h-.81v-9.06ZM223.36,443.61c1.38,0,2.24-.55,2.24-1.78s-.88-1.77-2.24-1.77h-1.64v3.56h1.64Z"></path><path class="cls-20" d="M227.93,445.18c0-1.92,1.25-3.29,3.05-3.29s3.04,1.37,3.04,3.29-1.27,3.3-3.04,3.3-3.05-1.37-3.05-3.3ZM230.98,447.78c1.37,0,2.26-1.04,2.26-2.61s-.9-2.61-2.26-2.61-2.28,1.05-2.28,2.61.9,2.61,2.28,2.61Z"></path><path class="cls-20" d="M235.46,445.18c0-1.92,1.25-3.29,3.05-3.29s3.04,1.37,3.04,3.29-1.27,3.3-3.04,3.3-3.05-1.37-3.05-3.3ZM238.51,447.78c1.37,0,2.26-1.04,2.26-2.61s-.9-2.61-2.26-2.61-2.28,1.05-2.28,2.61.9,2.61,2.28,2.61Z"></path><path class="cls-20" d="M243.3,441.98h.78v1.1c.38-.84,1.11-1.19,1.88-1.19.91,0,1.57.4,1.89,1.25.4-.83,1.09-1.25,2-1.25,1.55,0,2.13,1.16,2.13,2.68v3.82h-.78v-3.64c0-1.33-.39-2.18-1.52-2.18-1.02,0-1.65.77-1.65,2.26v3.57h-.78v-3.76c0-1.4-.52-2.07-1.5-2.07-1.03,0-1.67.79-1.67,2.26v3.57h-.78v-6.41Z"></path></g><g><path class="cls-20" d="M184.06,304.44h.81v8.33h4.18v.73h-4.99v-9.06Z"></path><path class="cls-20" d="M190.18,304.44h.94v1.39h-.94v-1.39ZM190.27,307.09h.77v6.41h-.77v-6.41Z"></path><path class="cls-20" d="M192.44,307.09h.86l2.1,5.42,2.11-5.42h.85l-2.61,6.41h-.68l-2.63-6.41Z"></path><path class="cls-20" d="M199.69,304.44h.94v1.39h-.94v-1.39ZM199.78,307.09h.77v6.41h-.77v-6.41Z"></path><path class="cls-20" d="M202.58,307.09h.78v1.05c.4-.76,1.12-1.14,2.01-1.14,1.38,0,2.2.81,2.2,2.51v3.99h-.78v-3.71c0-1.45-.55-2.11-1.61-2.11-1.16,0-1.83.79-1.83,2.55v3.27h-.78v-6.41Z"></path><path class="cls-20" d="M209.04,314.26s0-.1.03-.26l1.11-.88c-.57-.22-.96-.59-.96-1.26,0-.53.27-.9.72-1.2-.36-.37-.56-.87-.56-1.45,0-1.3,1.04-2.2,2.39-2.2.64,0,1.22.21,1.64.58l1.02-.86.4.49-1,.88c.19.33.3.71.3,1.14,0,1.28-.96,2.13-2.33,2.13-.53,0-.99-.12-1.37-.34-.31.18-.45.42-.45.72,0,.66.63.83,1.62.98,1.6.25,2.99.44,2.99,1.75,0,1.16-1.05,1.78-2.7,1.78-1.82,0-2.85-.7-2.85-2ZM211.9,315.65c1.09,0,1.92-.34,1.92-1.08,0-.86-1.16-.96-2.31-1.14-.31-.05-.6-.1-.89-.17l-.8.92c-.01.09-.01.11-.01.15,0,.9.79,1.33,2.09,1.33ZM211.77,310.72c.98,0,1.59-.65,1.59-1.53s-.64-1.56-1.58-1.56-1.62.65-1.62,1.55.63,1.55,1.61,1.55Z"></path><path class="cls-20" d="M219.52,304.44h2.52c1.99,0,2.97.93,2.97,2.5,0,1.25-.64,2.07-1.85,2.38l2.44,4.19h-.92l-2.34-4.07c-.21,0-.44,0-.65,0h-1.36v4.06h-.81v-9.06ZM221.97,308.72c1.38,0,2.24-.55,2.24-1.78s-.88-1.77-2.24-1.77h-1.64v3.56h1.64Z"></path><path class="cls-20" d="M226.53,310.29c0-1.92,1.25-3.29,3.05-3.29s3.04,1.36,3.04,3.29-1.27,3.3-3.04,3.3-3.05-1.36-3.05-3.3ZM229.58,312.89c1.37,0,2.26-1.04,2.26-2.61s-.9-2.61-2.26-2.61-2.28,1.05-2.28,2.61.9,2.61,2.28,2.61Z"></path><path class="cls-20" d="M234.06,310.29c0-1.92,1.25-3.29,3.05-3.29s3.04,1.36,3.04,3.29-1.27,3.3-3.04,3.3-3.05-1.36-3.05-3.3ZM237.11,312.89c1.37,0,2.26-1.04,2.26-2.61s-.9-2.61-2.26-2.61-2.28,1.05-2.28,2.61.9,2.61,2.28,2.61Z"></path><path class="cls-20" d="M241.9,307.09h.78v1.1c.38-.85,1.11-1.19,1.88-1.19.91,0,1.57.4,1.89,1.25.4-.83,1.09-1.25,2-1.25,1.55,0,2.13,1.16,2.13,2.68v3.82h-.78v-3.64c0-1.33-.39-2.18-1.52-2.18-1.02,0-1.65.77-1.65,2.26v3.57h-.78v-3.76c0-1.4-.52-2.07-1.5-2.07-1.03,0-1.67.79-1.67,2.26v3.57h-.78v-6.41Z"></path></g><g><path class="cls-20" d="M93.26,109.49h2.43c2.94,0,4.62,1.68,4.62,4.6s-1.64,4.46-4.63,4.46h-2.42v-9.06ZM95.6,117.81c2.5,0,3.89-1.16,3.89-3.74s-1.4-3.83-3.82-3.83h-1.61v7.57h1.54Z"></path><path class="cls-20" d="M101.76,115.4c0-1.84.99-3.34,2.81-3.34,1.96,0,2.76,1.53,2.76,2.94,0,.1-.01.4-.04.55h-4.76c.03,1.51.84,2.39,2.14,2.39.82,0,1.35-.23,1.91-.83l.55.49c-.73.75-1.43,1.05-2.46,1.05-1.89,0-2.91-1.41-2.91-3.25ZM106.57,114.97c0-.08,0-.16,0-.24,0-.92-.58-2.02-2-2.02-1.23,0-1.98.98-2.07,2.26h4.06Z"></path><path class="cls-20" d="M108.74,115.35c0-1.83,1.06-3.29,2.86-3.29,1.17,0,2.09.58,2.51,1.74l-.7.27c-.27-.82-.9-1.33-1.81-1.33-1.42,0-2.09,1.25-2.09,2.61s.68,2.62,2.09,2.62c.91,0,1.53-.51,1.81-1.33l.7.27c-.42,1.16-1.34,1.75-2.51,1.75-1.8,0-2.86-1.46-2.86-3.3Z"></path><path class="cls-20" d="M117.81,115.03l-1.3,1.37v2.16h-.78v-9.06h.78v5.9l3.15-3.24h1.01l-2.28,2.35,2.67,4.06h-.92l-2.31-3.53Z"></path></g><g><path class="cls-20" d="M123.05,646.61h2.43c2.94,0,4.62,1.68,4.62,4.6s-1.64,4.46-4.63,4.46h-2.42v-9.06ZM125.39,654.93c2.5,0,3.89-1.16,3.89-3.74s-1.4-3.83-3.82-3.83h-1.61v7.57h1.54Z"></path><path class="cls-20" d="M131.55,652.52c0-1.84.99-3.34,2.81-3.34,1.96,0,2.76,1.53,2.76,2.94,0,.1-.01.4-.04.55h-4.76c.03,1.51.84,2.39,2.14,2.39.82,0,1.35-.23,1.91-.83l.55.49c-.73.75-1.43,1.05-2.46,1.05-1.89,0-2.91-1.41-2.91-3.25ZM136.36,652.09c0-.08,0-.16,0-.24,0-.92-.58-2.01-2-2.01-1.23,0-1.98.98-2.07,2.26h4.06Z"></path><path class="cls-20" d="M138.53,652.47c0-1.83,1.06-3.29,2.86-3.29,1.17,0,2.09.58,2.51,1.74l-.7.27c-.27-.82-.9-1.33-1.81-1.33-1.42,0-2.09,1.25-2.09,2.61s.68,2.62,2.09,2.62c.91,0,1.53-.51,1.81-1.33l.7.27c-.42,1.16-1.34,1.75-2.51,1.75-1.8,0-2.86-1.46-2.86-3.3Z"></path><path class="cls-20" d="M147.6,652.15l-1.3,1.37v2.16h-.78v-9.06h.78v5.9l3.15-3.24h1.01l-2.28,2.35,2.67,4.06h-.92l-2.31-3.53Z"></path></g><g><path class="cls-20" d="M332.05,521.4h.81v4.86l4.65-4.86h1.09l-3.45,3.54,3.48,5.52h-.95l-3.11-4.93-1.71,1.75v3.17h-.81v-9.06Z"></path><path class="cls-20" d="M339.78,521.4h.94v1.39h-.94v-1.39ZM339.86,524.06h.77v6.41h-.77v-6.41Z"></path><path class="cls-20" d="M343.43,528.98v-4.31h-1.42v-.62h1.42v-1.85l.79-.46v2.31h1.54v.62h-1.54v4.12c0,.71.22,1.11.81,1.11.19,0,.46-.04.73-.12v.62c-.32.1-.64.16-.92.16-.85,0-1.4-.49-1.4-1.57Z"></path><path class="cls-20" d="M346.78,527.26c0-1.83,1.06-3.29,2.86-3.29,1.17,0,2.09.58,2.51,1.74l-.7.27c-.27-.82-.9-1.33-1.81-1.33-1.42,0-2.09,1.25-2.09,2.61s.68,2.62,2.09,2.62c.91,0,1.53-.51,1.81-1.33l.7.27c-.42,1.16-1.34,1.75-2.51,1.75-1.8,0-2.86-1.46-2.86-3.3Z"></path><path class="cls-20" d="M353.78,521.4h.78v3.69c.4-.75,1.1-1.13,2.01-1.13,1.4,0,2.2.85,2.2,2.51v3.99h-.78v-3.71c0-1.43-.53-2.11-1.61-2.11-1.18,0-1.83.83-1.83,2.55v3.27h-.78v-9.06Z"></path><path class="cls-20" d="M360.41,527.31c0-1.84.99-3.34,2.81-3.34,1.96,0,2.76,1.53,2.76,2.94,0,.1-.01.4-.04.55h-4.76c.03,1.51.84,2.39,2.14,2.39.82,0,1.35-.23,1.91-.83l.55.49c-.73.75-1.43,1.05-2.46,1.05-1.89,0-2.91-1.41-2.91-3.25ZM365.23,526.88c0-.08,0-.16,0-.24,0-.92-.58-2.01-2-2.01-1.23,0-1.98.98-2.07,2.26h4.06Z"></path><path class="cls-20" d="M367.72,524.06h.78v1.05c.4-.76,1.12-1.14,2.01-1.14,1.38,0,2.2.81,2.2,2.51v3.99h-.78v-3.71c0-1.45-.55-2.11-1.61-2.11-1.16,0-1.83.79-1.83,2.55v3.27h-.78v-6.41Z"></path></g><g><path class="cls-20" d="M526.85,299.92h5.86v.73h-5.06v3.37h4.39v.73h-4.39v4.24h-.81v-9.06Z"></path><path class="cls-20" d="M533.45,305.77c0-1.92,1.25-3.29,3.05-3.29s3.04,1.36,3.04,3.29-1.27,3.3-3.04,3.3-3.05-1.36-3.05-3.3ZM536.49,308.38c1.37,0,2.26-1.04,2.26-2.61s-.9-2.61-2.26-2.61-2.28,1.05-2.28,2.61.9,2.61,2.28,2.61Z"></path><path class="cls-20" d="M543.01,308.78l-2.55-6.21h.86l2.1,5.42,2.11-5.42h.85l-3.69,9.05h-.84l1.17-2.84Z"></path><path class="cls-20" d="M547.34,305.82c0-1.84.99-3.34,2.81-3.34,1.96,0,2.76,1.53,2.76,2.94,0,.1-.01.4-.04.55h-4.76c.03,1.51.84,2.39,2.14,2.39.82,0,1.35-.23,1.91-.83l.55.49c-.73.75-1.43,1.05-2.46,1.05-1.89,0-2.91-1.41-2.91-3.25ZM552.16,305.39c0-.08,0-.16,0-.24,0-.92-.58-2.02-2-2.02-1.23,0-1.98.98-2.07,2.26h4.06Z"></path><path class="cls-20" d="M554.64,302.57h.78v1.09c.43-.78,1.31-1.18,2.02-1.18.33,0,.66.07.99.24l-.39.7c-.21-.1-.51-.17-.77-.17-.68,0-1.46.36-1.74,1.3-.08.27-.12.57-.12,1.27v3.15h-.78v-6.41Z"></path></g><g><path class="cls-20" d="M359.31,90.37h.65l1.71,6.06,1.76-5.7h.63l1.76,5.7,1.7-6.06h.65l-2.01,6.98h-.63l-1.79-5.71-1.79,5.71h-.64l-2.01-6.98Z"></path><path class="cls-20" d="M369.31,90.37h.62v6.98h-.62v-6.98Z"></path><path class="cls-20" d="M371.36,93.86c0-2.16,1.26-3.58,3.16-3.58,1.35,0,2.39.71,2.84,1.89l-.58.22c-.38-.96-1.17-1.52-2.26-1.52-1.55,0-2.54,1.17-2.54,2.99s.99,3,2.54,3c1.09,0,1.89-.56,2.26-1.52l.58.22c-.45,1.18-1.49,1.9-2.84,1.9-1.89,0-3.16-1.42-3.16-3.59Z"></path></g><path class="cls-20" d="M524.97,204.1h.65l1.71,6.06,1.76-5.7h.63l1.76,5.7,1.7-6.06h.65l-2.01,6.98h-.63l-1.79-5.71-1.79,5.71h-.64l-2.01-6.98Z"></path><path class="cls-20" d="M559.08,204.1h1.87c2.26,0,3.56,1.29,3.56,3.54s-1.27,3.43-3.57,3.43h-1.86v-6.98ZM560.88,210.5c1.92,0,2.99-.89,2.99-2.88s-1.08-2.95-2.94-2.95h-1.24v5.83h1.19Z"></path><path class="cls-20" d="M407.88,385.64c0-2.17,1.27-3.59,3.16-3.59s3.18,1.42,3.18,3.59-1.27,3.58-3.18,3.58-3.16-1.42-3.16-3.58ZM411.04,388.63c1.57,0,2.55-1.16,2.55-2.99s-.99-3-2.55-3-2.54,1.15-2.54,3,.99,2.99,2.54,2.99Z"></path><path class="cls-20" d="M417.91,381.15h.48l-3.55,9.08h-.47l3.55-9.08Z"></path><path class="cls-20" d="M419.61,382.15h.93l2.35,5.66,2.35-5.66h.92v6.98h-.62v-6.16l-2.35,5.59h-.61l-2.36-5.59v6.16h-.62v-6.98Z"></path><g><path class="cls-20" d="M409.33,520.71h1.94c1.53,0,2.29.72,2.29,1.92,0,.97-.5,1.6-1.43,1.83l1.88,3.22h-.71l-1.8-3.13c-.16,0-.34,0-.5,0h-1.05v3.13h-.62v-6.98ZM411.22,524.01c1.06,0,1.73-.42,1.73-1.37s-.68-1.37-1.73-1.37h-1.26v2.74h1.26Z"></path><path class="cls-20" d="M415.19,520.71h4.56v.56h-3.94v2.59h3.53v.56h-3.53v2.7h3.94v.56h-4.56v-6.98Z"></path><path class="cls-20" d="M421.04,520.71h4.51v.56h-3.89v2.59h3.38v.56h-3.38v3.26h-.62v-6.98Z"></path></g><g><path class="cls-20" d="M329.67,399.31h.65l1.71,6.06,1.76-5.7h.63l1.76,5.7,1.7-6.06h.65l-2.01,6.98h-.63l-1.79-5.71-1.79,5.71h-.64l-2.01-6.98Z"></path><path class="cls-20" d="M339.68,399.31h4.51v.56h-3.89v2.59h3.38v.56h-3.38v3.26h-.62v-6.98Z"></path></g><g><path class="cls-20" d="M329.74,482.26h1.87c2.26,0,3.56,1.29,3.56,3.54s-1.27,3.43-3.57,3.43h-1.86v-6.98ZM331.55,488.66c1.92,0,2.99-.89,2.99-2.88s-1.08-2.95-2.94-2.95h-1.24v5.83h1.19Z"></path><path class="cls-20" d="M335.83,482.26h.65l1.71,6.06,1.76-5.7h.63l1.76,5.7,1.7-6.06h.65l-2.01,6.98h-.63l-1.79-5.71-1.79,5.71h-.64l-2.01-6.98Z"></path></g><g><path class="cls-24" d="M0,347.38h.5v5.12h2.57v.45H0v-5.57Z"></path><path class="cls-24" d="M6.53,352.21c-.26.5-.77.8-1.38.8-.88,0-1.42-.48-1.42-1.2,0-.42.18-.71.44-.89.28-.19.67-.26,1.09-.26h1.26v-.17c0-.73-.38-1.13-1.12-1.13-.48,0-.86.18-1.22.63l-.34-.3c.42-.52.94-.75,1.59-.75,1,0,1.56.55,1.56,1.54v2.45h-.44l-.02-.74ZM5.19,352.61c.72,0,1.33-.57,1.33-1.35v-.22h-1.2c-.32,0-.63.05-.84.2-.17.13-.27.31-.27.58,0,.49.37.8.98.8Z"></path><path class="cls-24" d="M8.28,349.01h.48v.64c.25-.47.69-.7,1.24-.7.85,0,1.36.5,1.36,1.54v2.45h-.48v-2.28c0-.89-.34-1.3-.99-1.3-.71,0-1.13.48-1.13,1.57v2.01h-.48v-3.94Z"></path><path class="cls-24" d="M12.42,350.97c0-1.21.79-2.02,1.79-2.02.64,0,1.15.33,1.41.84v-2.41h.47v5.57h-.47v-.78c-.27.52-.77.83-1.41.83-1.06,0-1.79-.88-1.79-2.03ZM14.29,352.56c.8,0,1.37-.66,1.37-1.59s-.57-1.59-1.37-1.59-1.39.67-1.39,1.59.58,1.59,1.39,1.59Z"></path><path class="cls-24" d="M17.02,352.11l.34-.28c.2.46.66.77,1.26.77.57,0,.95-.27.95-.72,0-.55-.53-.68-1.1-.82-.66-.16-1.23-.38-1.23-1.06,0-.62.53-1.05,1.3-1.05.6,0,1.1.26,1.37.76l-.37.21c-.21-.38-.57-.58-1.02-.58-.48,0-.84.24-.84.62,0,.4.36.54.93.68.67.16,1.44.34,1.44,1.2,0,.71-.56,1.17-1.42,1.17-.79,0-1.35-.4-1.6-.9Z"></path><path class="cls-24" d="M20.96,350.97c0-1.13.65-2.02,1.76-2.02.72,0,1.28.36,1.54,1.07l-.43.17c-.17-.5-.55-.82-1.11-.82-.87,0-1.29.77-1.29,1.61s.42,1.61,1.29,1.61c.56,0,.94-.31,1.11-.82l.43.16c-.26.71-.82,1.08-1.54,1.08-1.11,0-1.76-.9-1.76-2.03Z"></path><path class="cls-24" d="M27.92,352.21c-.26.5-.77.8-1.38.8-.88,0-1.42-.48-1.42-1.2,0-.42.18-.71.44-.89.28-.19.67-.26,1.09-.26h1.26v-.17c0-.73-.38-1.13-1.12-1.13-.48,0-.86.18-1.22.63l-.34-.3c.42-.52.94-.75,1.59-.75,1,0,1.56.55,1.56,1.54v2.45h-.44l-.02-.74ZM26.58,352.61c.72,0,1.33-.57,1.33-1.35v-.22h-1.2c-.32,0-.63.05-.84.2-.17.13-.27.31-.27.58,0,.49.37.8.98.8Z"></path><path class="cls-24" d="M33.35,350.98c0,1.21-.79,2.02-1.79,2.02-.64,0-1.15-.33-1.41-.84v2.41h-.47v-5.57h.47v.78c.27-.52.77-.83,1.41-.83,1.06,0,1.79.88,1.79,2.03ZM31.48,352.57c.81,0,1.39-.67,1.39-1.59s-.58-1.59-1.39-1.59-1.37.66-1.37,1.59.57,1.59,1.37,1.59Z"></path><path class="cls-24" d="M34.32,351.01c0-1.13.61-2.06,1.73-2.06,1.21,0,1.7.94,1.7,1.81,0,.06,0,.24-.02.34h-2.93c.02.93.52,1.47,1.32,1.47.5,0,.83-.14,1.18-.51l.34.3c-.45.46-.88.65-1.52.65-1.16,0-1.79-.87-1.79-2ZM37.29,350.74s0-.1,0-.15c0-.57-.36-1.24-1.23-1.24-.76,0-1.22.6-1.27,1.39h2.49Z"></path><path class="cls-24" d="M38.68,350.97c0-1.21.79-2.02,1.8-2.02.64,0,1.15.33,1.41.84v-2.41h.47v5.57h-.47v-.78c-.27.52-.77.83-1.41.83-1.06,0-1.8-.88-1.8-2.03ZM40.55,352.56c.8,0,1.37-.66,1.37-1.59s-.57-1.59-1.37-1.59-1.39.67-1.39,1.59.58,1.59,1.39,1.59Z"></path><path class="cls-24" d="M45.91,347.38h1.55c1.22,0,1.83.57,1.83,1.54,0,.77-.4,1.27-1.14,1.46l1.5,2.57h-.57l-1.44-2.5c-.13,0-.27,0-.4,0h-.84v2.5h-.5v-5.57ZM47.41,350.01c.85,0,1.38-.34,1.38-1.1s-.54-1.09-1.38-1.09h-1.01v2.19h1.01Z"></path><path class="cls-24" d="M50.3,350.97c0-1.18.77-2.02,1.88-2.02s1.87.84,1.87,2.02-.78,2.03-1.87,2.03-1.88-.84-1.88-2.03ZM52.18,352.58c.84,0,1.39-.64,1.39-1.6s-.55-1.6-1.39-1.6-1.4.64-1.4,1.6.56,1.6,1.4,1.6Z"></path><path class="cls-24" d="M55.01,350.97c0-1.18.77-2.02,1.88-2.02s1.87.84,1.87,2.02-.78,2.03-1.87,2.03-1.88-.84-1.88-2.03ZM56.89,352.58c.84,0,1.39-.64,1.39-1.6s-.55-1.6-1.39-1.6-1.4.64-1.4,1.6.56,1.6,1.4,1.6Z"></path><path class="cls-24" d="M60.24,349.39h-.88v-.38h.88v-.57c0-.82.43-1.12,1.03-1.12.26,0,.47.05.66.15l-.16.36c-.14-.07-.28-.11-.45-.11-.4,0-.6.25-.6.71v.57h.97v.38h-.97v3.56h-.48v-3.56Z"></path></g><g><path class="cls-24" d="M202.8,771.38h.5v5.12h2.57v.45h-3.07v-5.57Z"></path><path class="cls-24" d="M209.33,776.22c-.26.5-.77.79-1.38.79-.88,0-1.42-.48-1.42-1.2,0-.42.18-.71.44-.89.28-.19.67-.26,1.09-.26h1.26v-.17c0-.73-.38-1.13-1.12-1.13-.48,0-.86.18-1.22.63l-.34-.3c.42-.52.94-.75,1.59-.75,1,0,1.56.55,1.56,1.54v2.46h-.44l-.02-.74ZM207.99,776.62c.72,0,1.33-.57,1.33-1.35v-.22h-1.2c-.32,0-.63.05-.84.2-.17.13-.27.31-.27.58,0,.49.37.8.98.8Z"></path><path class="cls-24" d="M211.08,773.02h.48v.64c.25-.47.69-.7,1.24-.7.85,0,1.36.5,1.36,1.54v2.46h-.48v-2.28c0-.89-.34-1.3-.99-1.3-.71,0-1.13.48-1.13,1.57v2.01h-.48v-3.94Z"></path><path class="cls-24" d="M215.22,774.98c0-1.21.79-2.02,1.79-2.02.64,0,1.15.33,1.41.84v-2.41h.47v5.57h-.47v-.78c-.27.52-.77.83-1.41.83-1.05,0-1.79-.88-1.79-2.03ZM217.09,776.57c.8,0,1.37-.66,1.37-1.59s-.57-1.59-1.37-1.59-1.39.67-1.39,1.59.58,1.59,1.39,1.59Z"></path><path class="cls-24" d="M219.81,776.11l.34-.28c.2.46.66.77,1.26.77.57,0,.95-.27.95-.72,0-.55-.53-.68-1.1-.82-.66-.16-1.23-.38-1.23-1.06,0-.62.53-1.05,1.29-1.05.6,0,1.1.26,1.37.76l-.37.21c-.21-.38-.57-.58-1.01-.58-.48,0-.84.24-.84.62,0,.4.36.54.93.68.67.16,1.43.34,1.43,1.2,0,.71-.56,1.17-1.42,1.17-.79,0-1.35-.4-1.6-.9Z"></path><path class="cls-24" d="M223.76,774.98c0-1.13.65-2.02,1.76-2.02.72,0,1.28.36,1.54,1.07l-.43.17c-.17-.5-.55-.82-1.11-.82-.87,0-1.29.77-1.29,1.61s.42,1.61,1.29,1.61c.56,0,.94-.31,1.11-.82l.43.16c-.26.71-.82,1.08-1.54,1.08-1.11,0-1.76-.9-1.76-2.03Z"></path><path class="cls-24" d="M230.72,776.22c-.26.5-.77.79-1.38.79-.88,0-1.42-.48-1.42-1.2,0-.42.18-.71.44-.89.28-.19.67-.26,1.09-.26h1.26v-.17c0-.73-.38-1.13-1.12-1.13-.48,0-.86.18-1.22.63l-.34-.3c.42-.52.94-.75,1.59-.75,1,0,1.56.55,1.56,1.54v2.46h-.44l-.02-.74ZM229.38,776.62c.72,0,1.33-.57,1.33-1.35v-.22h-1.2c-.32,0-.63.05-.84.2-.17.13-.27.31-.27.58,0,.49.37.8.98.8Z"></path><path class="cls-24" d="M236.15,774.99c0,1.21-.79,2.02-1.79,2.02-.64,0-1.15-.33-1.41-.83v2.41h-.47v-5.57h.47v.78c.27-.52.77-.83,1.41-.83,1.06,0,1.79.88,1.79,2.03ZM234.28,776.58c.81,0,1.39-.67,1.39-1.59s-.58-1.59-1.39-1.59-1.37.66-1.37,1.59.57,1.59,1.37,1.59Z"></path><path class="cls-24" d="M237.12,775.01c0-1.13.61-2.05,1.73-2.05,1.21,0,1.7.94,1.7,1.81,0,.06,0,.24-.02.34h-2.93c.02.93.52,1.47,1.32,1.47.5,0,.83-.14,1.17-.51l.34.3c-.45.46-.88.65-1.51.65-1.16,0-1.79-.87-1.79-2ZM240.09,774.75s0-.1,0-.15c0-.57-.36-1.24-1.23-1.24-.75,0-1.22.6-1.27,1.39h2.49Z"></path><path class="cls-24" d="M241.49,774.98c0-1.21.79-2.02,1.79-2.02.64,0,1.15.33,1.41.84v-2.41h.47v5.57h-.47v-.78c-.27.52-.77.83-1.41.83-1.05,0-1.79-.88-1.79-2.03ZM243.36,776.57c.8,0,1.37-.66,1.37-1.59s-.57-1.59-1.37-1.59-1.39.67-1.39,1.59.58,1.59,1.39,1.59Z"></path><path class="cls-24" d="M248.72,771.38h1.55c1.22,0,1.83.57,1.83,1.54,0,.77-.4,1.28-1.14,1.46l1.5,2.57h-.57l-1.44-2.5c-.13,0-.27,0-.4,0h-.84v2.5h-.5v-5.57ZM250.22,774.02c.85,0,1.38-.34,1.38-1.1s-.54-1.09-1.38-1.09h-1.01v2.19h1.01Z"></path><path class="cls-24" d="M253.11,774.98c0-1.18.77-2.02,1.88-2.02s1.87.84,1.87,2.02-.78,2.03-1.87,2.03-1.88-.84-1.88-2.03ZM254.99,776.59c.84,0,1.39-.64,1.39-1.6s-.55-1.6-1.39-1.6-1.4.64-1.4,1.6.56,1.6,1.4,1.6Z"></path><path class="cls-24" d="M257.82,774.98c0-1.18.77-2.02,1.88-2.02s1.87.84,1.87,2.02-.78,2.03-1.87,2.03-1.88-.84-1.88-2.03ZM259.69,776.59c.84,0,1.39-.64,1.39-1.6s-.55-1.6-1.39-1.6-1.4.64-1.4,1.6.56,1.6,1.4,1.6Z"></path><path class="cls-24" d="M263.04,773.4h-.88v-.38h.88v-.57c0-.82.43-1.12,1.03-1.12.26,0,.47.05.66.15l-.16.36c-.14-.07-.28-.11-.45-.11-.4,0-.6.25-.6.71v.57h.97v.38h-.97v3.56h-.48v-3.56Z"></path></g><polyline class="cls-3" points="58.85 462.3 72 462.3 81.52 452.72"></polyline><path class="cls-23" d="M84.37,449.86l-5.46,2.57s2.62.3,2.93,2.91l2.54-5.48Z"></path><g><path class="cls-24" d="M.76,459.32h1.67c1.03,0,1.65.52,1.65,1.38,0,.58-.28,1.03-.76,1.23.68.16,1.04.66,1.04,1.42,0,.99-.63,1.54-1.77,1.54H.76v-5.57ZM2.58,461.78c.6,0,1-.39,1-1.01s-.42-.99-1.16-.99h-1.18v2h1.33ZM2.55,464.43c.88,0,1.32-.37,1.32-1.1,0-.7-.41-1.1-1.1-1.1h-1.51v2.2h1.3Z"></path><path class="cls-24" d="M5.42,463.4v-2.45h.47v2.28c0,.89.34,1.29,1,1.29.71,0,1.13-.48,1.13-1.57v-2.01h.48v3.94h-.48v-.65c-.25.47-.7.7-1.25.7-.84,0-1.35-.51-1.35-1.55Z"></path><path class="cls-24" d="M9.77,459.32h.58v.86h-.58v-.86ZM9.82,460.95h.47v3.94h-.47v-3.94Z"></path><path class="cls-24" d="M11.64,464.07v-4.75h.48v4.67c0,.37.14.52.39.52.1,0,.24-.02.38-.07v.41c-.18.07-.37.1-.52.1-.44,0-.72-.27-.72-.88Z"></path><path class="cls-24" d="M13.5,462.92c0-1.21.79-2.02,1.79-2.02.64,0,1.15.33,1.41.84v-2.41h.47v5.57h-.47v-.78c-.27.52-.77.83-1.41.83-1.06,0-1.79-.88-1.79-2.03ZM15.37,464.51c.8,0,1.37-.66,1.37-1.59s-.57-1.59-1.37-1.59-1.39.67-1.39,1.59.58,1.59,1.39,1.59Z"></path><path class="cls-24" d="M18.46,459.32h.58v.86h-.58v-.86ZM18.51,460.95h.47v3.94h-.47v-3.94Z"></path><path class="cls-24" d="M20.32,460.95h.48v.64c.25-.47.69-.7,1.24-.7.85,0,1.36.5,1.36,1.54v2.46h-.48v-2.28c0-.89-.34-1.3-.99-1.3-.71,0-1.13.48-1.13,1.57v2.01h-.48v-3.94Z"></path><path class="cls-24" d="M24.36,465.36s0-.06.02-.16l.68-.54c-.35-.14-.59-.36-.59-.78,0-.32.16-.55.44-.74-.22-.23-.34-.54-.34-.89,0-.8.64-1.36,1.47-1.36.4,0,.75.13,1.01.36l.63-.53.24.3-.62.54c.12.2.18.44.18.7,0,.79-.59,1.31-1.44,1.31-.32,0-.61-.08-.84-.21-.19.11-.28.26-.28.44,0,.41.39.51,1,.6.98.15,1.84.27,1.84,1.08,0,.72-.64,1.1-1.66,1.1-1.12,0-1.75-.43-1.75-1.23ZM26.12,466.22c.67,0,1.18-.21,1.18-.66,0-.53-.71-.59-1.42-.7-.19-.03-.37-.06-.55-.1l-.49.56c0,.06,0,.07,0,.09,0,.55.49.82,1.29.82ZM26.04,463.19c.6,0,.98-.4.98-.94s-.39-.96-.97-.96-1,.4-1,.95.39.95.99.95Z"></path><path class="cls-24" d="M32.53,459.32h.42l2.06,5.57h-.54l-.51-1.45h-2.42l-.51,1.45h-.55l2.06-5.57ZM33.8,463l-1.05-2.99-1.06,2.99h2.11Z"></path><path class="cls-24" d="M36.33,464.12v.78h-.47v-5.57h.47v2.41c.26-.5.77-.84,1.41-.84,1,0,1.8.82,1.8,2.02s-.74,2.03-1.8,2.03c-.64,0-1.14-.31-1.41-.83ZM37.66,464.51c.81,0,1.39-.67,1.39-1.59s-.58-1.59-1.39-1.59-1.37.66-1.37,1.59.57,1.59,1.37,1.59Z"></path><path class="cls-24" d="M40.48,462.92c0-1.18.77-2.02,1.88-2.02s1.87.84,1.87,2.02-.78,2.03-1.87,2.03-1.88-.84-1.88-2.03ZM42.36,464.52c.84,0,1.39-.64,1.39-1.6s-.55-1.6-1.39-1.6-1.4.64-1.4,1.6.56,1.6,1.4,1.6Z"></path><path class="cls-24" d="M44.88,460.95h.53l1.29,3.33,1.3-3.33h.52l-1.61,3.94h-.42l-1.61-3.94Z"></path><path class="cls-24" d="M49.2,462.95c0-1.13.61-2.05,1.73-2.05,1.21,0,1.7.94,1.7,1.81,0,.06,0,.24-.02.34h-2.93c.02.93.52,1.47,1.32,1.47.5,0,.83-.14,1.17-.51l.34.3c-.45.46-.88.65-1.51.65-1.16,0-1.79-.87-1.79-2ZM52.17,462.69s0-.1,0-.15c0-.57-.36-1.24-1.23-1.24-.75,0-1.22.6-1.27,1.39h2.49Z"></path></g><g><path class="cls-20" d="M318.63,2.79l.86-1.09-1.34-.39.12-.36,1.3.5-.06-1.39h.37l-.05,1.39,1.3-.5.11.36-1.33.39.87,1.09-.29.22-.78-1.16-.78,1.16-.29-.22Z"></path><path class="cls-20" d="M322.48.07h1.94c1.53,0,2.29.72,2.29,1.92,0,.97-.5,1.6-1.43,1.83l1.88,3.22h-.71l-1.8-3.13c-.16,0-.34,0-.5,0h-1.05v3.13h-.62V.07ZM324.36,3.37c1.06,0,1.73-.43,1.73-1.37s-.68-1.37-1.73-1.37h-1.26v2.74h1.26Z"></path><path class="cls-20" d="M327.89,4.61c0-1.42.77-2.57,2.16-2.57,1.51,0,2.13,1.18,2.13,2.27,0,.08,0,.31-.03.43h-3.66c.03,1.16.65,1.84,1.65,1.84.63,0,1.04-.18,1.47-.64l.42.38c-.56.58-1.1.81-1.9.81-1.46,0-2.24-1.09-2.24-2.5ZM331.6,4.28c0-.06,0-.12,0-.19,0-.71-.45-1.55-1.54-1.55-.95,0-1.53.76-1.59,1.74h3.12Z"></path><path class="cls-20" d="M333.02,5.99l.42-.35c.25.57.82.97,1.58.97.72,0,1.19-.34,1.19-.9,0-.69-.66-.85-1.38-1.03-.82-.21-1.54-.47-1.54-1.33,0-.78.66-1.31,1.62-1.31.75,0,1.37.33,1.71.95l-.46.27c-.27-.48-.71-.73-1.27-.73-.6,0-1.05.3-1.05.77,0,.51.45.68,1.16.85.84.2,1.8.42,1.8,1.5,0,.89-.7,1.47-1.78,1.47-.99,0-1.69-.5-2-1.13Z"></path><path class="cls-20" d="M338.06.07h.72v1.07h-.72V.07ZM338.12,2.11h.59v4.94h-.59V2.11Z"></path><path class="cls-20" d="M340.05,4.57c0-1.51.99-2.53,2.25-2.53.81,0,1.44.42,1.77,1.05V.07h.59v6.98h-.59v-.97c-.34.65-.97,1.04-1.77,1.04-1.32,0-2.25-1.1-2.25-2.54ZM342.39,6.56c1,0,1.72-.83,1.72-1.99s-.72-1.99-1.72-1.99-1.74.84-1.74,1.99.73,1.99,1.74,1.99Z"></path><path class="cls-20" d="M346.01,4.61c0-1.42.77-2.57,2.16-2.57,1.51,0,2.13,1.18,2.13,2.27,0,.08,0,.31-.03.43h-3.66c.03,1.16.65,1.84,1.65,1.84.63,0,1.04-.18,1.47-.64l.42.38c-.56.58-1.1.81-1.9.81-1.46,0-2.24-1.09-2.24-2.5ZM349.72,4.28c0-.06,0-.12,0-.19,0-.71-.45-1.55-1.54-1.55-.95,0-1.53.76-1.59,1.74h3.12Z"></path><path class="cls-20" d="M351.63,2.11h.6v.81c.31-.59.87-.88,1.55-.88,1.06,0,1.7.63,1.7,1.93v3.07h-.6v-2.86c0-1.12-.42-1.63-1.24-1.63-.89,0-1.41.61-1.41,1.97v2.52h-.6V2.11Z"></path><path class="cls-20" d="M356.74,4.57c0-1.41.82-2.53,2.2-2.53.9,0,1.61.45,1.93,1.34l-.54.21c-.21-.63-.69-1.03-1.39-1.03-1.09,0-1.61.96-1.61,2.01s.52,2.02,1.61,2.02c.7,0,1.18-.39,1.39-1.03l.54.21c-.33.89-1.03,1.35-1.93,1.35-1.39,0-2.2-1.12-2.2-2.54Z"></path><path class="cls-20" d="M361.84,4.61c0-1.42.77-2.57,2.16-2.57,1.51,0,2.13,1.18,2.13,2.27,0,.08,0,.31-.03.43h-3.66c.03,1.16.65,1.84,1.65,1.84.63,0,1.04-.18,1.47-.64l.42.38c-.56.58-1.1.81-1.9.81-1.46,0-2.24-1.09-2.24-2.5ZM365.55,4.28c0-.06,0-.12,0-.19,0-.71-.45-1.55-1.54-1.55-.95,0-1.53.76-1.59,1.74h3.12Z"></path><path class="cls-20" d="M370.65,2.59h-1.1v-.48h1.11v-.72c0-1.02.54-1.4,1.29-1.4.33,0,.59.06.82.19l-.2.46c-.17-.09-.36-.14-.56-.14-.5,0-.75.31-.75.89v.72h1.21v.48h-1.21v4.46h-.6V2.59Z"></path><path class="cls-20" d="M372.96,4.61c0-1.42.77-2.57,2.16-2.57,1.51,0,2.13,1.18,2.13,2.27,0,.08,0,.31-.03.43h-3.66c.03,1.16.65,1.84,1.65,1.84.63,0,1.04-.18,1.47-.64l.42.38c-.56.58-1.1.81-1.9.81-1.46,0-2.24-1.09-2.24-2.5ZM376.67,4.28c0-.06,0-.12,0-.19,0-.71-.45-1.55-1.54-1.55-.95,0-1.53.76-1.59,1.74h3.12Z"></path><path class="cls-20" d="M381.76,6.12c-.33.63-.97,1-1.73,1-1.11,0-1.78-.6-1.78-1.5,0-.53.22-.89.56-1.11.35-.24.84-.32,1.36-.32h1.58v-.21c0-.92-.48-1.41-1.4-1.41-.61,0-1.08.23-1.52.79l-.43-.37c.52-.65,1.18-.94,1.99-.94,1.26,0,1.95.69,1.95,1.93v3.07h-.55l-.03-.93ZM380.08,6.62c.91,0,1.67-.72,1.67-1.69v-.28h-1.5c-.4,0-.79.06-1.06.25-.21.16-.34.39-.34.72,0,.61.46,1,1.23,1Z"></path><path class="cls-20" d="M384.35,5.91v-3.32h-1.1v-.48h1.1V.69l.61-.35v1.78h1.19v.48h-1.19v3.17c0,.55.17.86.62.86.15,0,.35-.03.57-.1v.48c-.25.08-.5.12-.71.12-.66,0-1.08-.38-1.08-1.21Z"></path><path class="cls-20" d="M387.19,5.18v-3.07h.59v2.86c0,1.11.43,1.62,1.25,1.62.89,0,1.41-.61,1.41-1.97v-2.51h.6v4.94h-.6v-.81c-.32.59-.88.88-1.56.88-1.05,0-1.69-.64-1.69-1.94Z"></path><path class="cls-20" d="M392.59,2.11h.6v.84c.33-.6,1.01-.91,1.56-.91.26,0,.51.06.77.19l-.3.54c-.17-.08-.39-.13-.59-.13-.53,0-1.12.28-1.34,1-.06.21-.09.44-.09.98v2.43h-.6V2.11Z"></path><path class="cls-20" d="M395.98,4.61c0-1.42.77-2.57,2.16-2.57,1.51,0,2.13,1.18,2.13,2.27,0,.08,0,.31-.03.43h-3.66c.03,1.16.65,1.84,1.65,1.84.63,0,1.04-.18,1.47-.64l.42.38c-.56.58-1.1.81-1.9.81-1.46,0-2.24-1.09-2.24-2.5ZM399.69,4.28c0-.06,0-.12,0-.19,0-.71-.45-1.55-1.54-1.55-.95,0-1.53.76-1.59,1.74h3.12Z"></path><path class="cls-20" d="M401.11,5.99l.42-.35c.25.57.82.97,1.58.97.72,0,1.19-.34,1.19-.9,0-.69-.66-.85-1.38-1.03-.82-.21-1.54-.47-1.54-1.33,0-.78.66-1.31,1.62-1.31.75,0,1.37.33,1.71.95l-.46.27c-.27-.48-.71-.73-1.27-.73-.6,0-1.05.3-1.05.77,0,.51.45.68,1.16.85.84.2,1.8.42,1.8,1.5,0,.89-.7,1.47-1.78,1.47-.99,0-1.69-.5-2-1.13Z"></path><path class="cls-20" d="M412.09,6.12c-.33.63-.97,1-1.73,1-1.11,0-1.78-.6-1.78-1.5,0-.53.22-.89.56-1.11.36-.24.84-.32,1.36-.32h1.58v-.21c0-.92-.48-1.41-1.4-1.41-.61,0-1.08.23-1.52.79l-.43-.37c.52-.65,1.18-.94,1.99-.94,1.26,0,1.95.69,1.95,1.93v3.07h-.55l-.03-.93ZM410.41,6.62c.91,0,1.67-.72,1.67-1.69v-.28h-1.5c-.4,0-.79.06-1.06.25-.21.16-.34.39-.34.72,0,.61.46,1,1.23,1Z"></path><path class="cls-20" d="M414.18,2.11h.6v.81c.31-.59.87-.88,1.55-.88,1.06,0,1.7.63,1.7,1.93v3.07h-.6v-2.86c0-1.12-.42-1.63-1.24-1.63-.89,0-1.41.61-1.41,1.97v2.52h-.6V2.11Z"></path><path class="cls-20" d="M425.41,6.12c-.33.63-.97,1-1.73,1-1.11,0-1.78-.6-1.78-1.5,0-.53.22-.89.56-1.11.36-.24.84-.32,1.36-.32h1.58v-.21c0-.92-.48-1.41-1.4-1.41-.61,0-1.08.23-1.52.79l-.43-.37c.52-.65,1.18-.94,1.99-.94,1.26,0,1.95.69,1.95,1.93v3.07h-.55l-.03-.93ZM423.73,6.62c.91,0,1.67-.72,1.67-1.69v-.28h-1.5c-.4,0-.79.06-1.06.25-.21.16-.34.39-.34.72,0,.61.46,1,1.23,1Z"></path><path class="cls-20" d="M427.25,4.57c0-1.41.82-2.53,2.2-2.53.9,0,1.61.45,1.93,1.34l-.54.21c-.21-.63-.69-1.03-1.39-1.03-1.09,0-1.61.96-1.61,2.01s.52,2.02,1.61,2.02c.7,0,1.18-.39,1.39-1.03l.54.21c-.33.89-1.03,1.35-1.93,1.35-1.39,0-2.2-1.12-2.2-2.54Z"></path><path class="cls-20" d="M432.34,4.57c0-1.41.82-2.53,2.2-2.53.9,0,1.61.45,1.93,1.34l-.54.21c-.21-.63-.69-1.03-1.39-1.03-1.09,0-1.61.96-1.61,2.01s.52,2.02,1.61,2.02c.7,0,1.18-.39,1.39-1.03l.54.21c-.33.89-1.03,1.35-1.93,1.35-1.39,0-2.2-1.12-2.2-2.54Z"></path><path class="cls-20" d="M437.44,4.61c0-1.42.77-2.57,2.16-2.57,1.51,0,2.13,1.18,2.13,2.27,0,.08,0,.31-.03.43h-3.66c.03,1.16.65,1.84,1.65,1.84.63,0,1.04-.18,1.47-.64l.42.38c-.56.58-1.1.81-1.9.81-1.46,0-2.24-1.09-2.24-2.5ZM441.15,4.28c0-.06,0-.12,0-.19,0-.71-.45-1.55-1.54-1.55-.95,0-1.53.76-1.59,1.74h3.12Z"></path><path class="cls-20" d="M442.57,5.99l.42-.35c.25.57.82.97,1.58.97.72,0,1.19-.34,1.19-.9,0-.69-.66-.85-1.38-1.03-.82-.21-1.54-.47-1.54-1.33,0-.78.66-1.31,1.62-1.31.75,0,1.37.33,1.71.95l-.46.27c-.27-.48-.71-.73-1.27-.73-.6,0-1.05.3-1.05.77,0,.51.45.68,1.16.85.84.2,1.8.42,1.8,1.5,0,.89-.7,1.47-1.78,1.47-.99,0-1.69-.5-2-1.13Z"></path><path class="cls-20" d="M447.23,5.99l.42-.35c.25.57.82.97,1.58.97.72,0,1.19-.34,1.19-.9,0-.69-.66-.85-1.38-1.03-.82-.21-1.54-.47-1.54-1.33,0-.78.66-1.31,1.62-1.31.75,0,1.37.33,1.71.95l-.46.27c-.27-.48-.71-.73-1.27-.73-.6,0-1.05.3-1.05.77,0,.51.45.68,1.16.85.84.2,1.8.42,1.8,1.5,0,.89-.7,1.47-1.78,1.47-.99,0-1.69-.5-2-1.13Z"></path><path class="cls-20" d="M452.27.07h.72v1.07h-.72V.07ZM452.34,2.11h.59v4.94h-.59V2.11Z"></path><path class="cls-20" d="M455.09,6.08v.97h-.59V.07h.59v3.02c.33-.63.96-1.05,1.77-1.05,1.26,0,2.25,1.02,2.25,2.53s-.93,2.54-2.25,2.54c-.8,0-1.43-.39-1.77-1.04ZM456.76,6.56c1.01,0,1.74-.84,1.74-1.99s-.73-1.99-1.74-1.99-1.72.83-1.72,1.99.72,1.99,1.72,1.99Z"></path><path class="cls-20" d="M460.34,6.02V.07h.6v5.84c0,.46.18.65.49.65.13,0,.3-.03.47-.09v.52c-.22.08-.47.13-.65.13-.56,0-.91-.33-.91-1.1Z"></path><path class="cls-20" d="M462.63,4.61c0-1.42.77-2.57,2.16-2.57,1.51,0,2.13,1.18,2.13,2.27,0,.08,0,.31-.03.43h-3.66c.03,1.16.65,1.84,1.65,1.84.63,0,1.04-.18,1.47-.64l.42.38c-.56.58-1.1.81-1.9.81-1.46,0-2.24-1.09-2.24-2.5ZM466.34,4.28c0-.06,0-.12,0-.19,0-.71-.45-1.55-1.54-1.55-.95,0-1.53.76-1.59,1.74h3.12Z"></path><path class="cls-20" d="M470.84,6.02V.07h.6v5.84c0,.46.18.65.49.65.13,0,.3-.03.47-.09v.52c-.22.08-.47.13-.65.13-.56,0-.91-.33-.91-1.1Z"></path><path class="cls-20" d="M476.77,6.12c-.33.63-.97,1-1.73,1-1.11,0-1.78-.6-1.78-1.5,0-.53.22-.89.56-1.11.36-.24.84-.32,1.36-.32h1.58v-.21c0-.92-.48-1.41-1.4-1.41-.61,0-1.08.23-1.52.79l-.43-.37c.52-.65,1.18-.94,1.99-.94,1.26,0,1.95.69,1.95,1.93v3.07h-.55l-.03-.93ZM475.09,6.62c.91,0,1.67-.72,1.67-1.69v-.28h-1.5c-.4,0-.79.06-1.06.25-.21.16-.34.39-.34.72,0,.61.46,1,1.23,1Z"></path><path class="cls-20" d="M480.2,6.89l-1.96-4.78h.66l1.62,4.17,1.62-4.17h.66l-2.84,6.97h-.65l.9-2.19Z"></path><path class="cls-20" d="M483.52,4.57c0-1.48.97-2.53,2.35-2.53s2.34,1.05,2.34,2.53-.98,2.54-2.34,2.54-2.35-1.05-2.35-2.54ZM485.87,6.58c1.05,0,1.74-.8,1.74-2.01s-.69-2.01-1.74-2.01-1.75.81-1.75,2.01.7,2.01,1.75,2.01Z"></path><path class="cls-20" d="M489.45,5.18v-3.07h.59v2.86c0,1.11.43,1.62,1.25,1.62.89,0,1.41-.61,1.41-1.97v-2.51h.6v4.94h-.6v-.81c-.32.59-.88.88-1.56.88-1.05,0-1.69-.64-1.69-1.94Z"></path><path class="cls-20" d="M495.37,5.91v-3.32h-1.1v-.48h1.1V.69l.61-.35v1.78h1.19v.48h-1.19v3.17c0,.55.17.86.62.86.15,0,.35-.03.57-.1v.48c-.25.08-.5.12-.71.12-.66,0-1.08-.38-1.08-1.21Z"></path></g></g></g></svg> 