<?xml version="1.0" encoding="UTF-8"?> <svg xmlns="http://www.w3.org/2000/svg" id="Layer_2" data-name="Layer 2" viewBox="0 0 358.32 528.59"><defs><style> .cls-1 { stroke-dasharray: 5.37 5.37; } .cls-1, .cls-2, .cls-3, .cls-4, .cls-5, .cls-6, .cls-7, .cls-8, .cls-9, .cls-10, .cls-11, .cls-12, .cls-13, .cls-14, .cls-15, .cls-16 { fill: none; } .cls-1, .cls-2, .cls-3, .cls-4, .cls-5, .cls-7, .cls-8, .cls-9, .cls-11, .cls-12, .cls-14, .cls-15 { stroke-width: .25px; } .cls-1, .cls-2, .cls-4, .cls-5, .cls-6, .cls-7, .cls-8, .cls-9, .cls-10, .cls-11, .cls-12, .cls-15, .cls-16 { stroke-linecap: round; stroke-linejoin: round; } .cls-1, .cls-2, .cls-4, .cls-5, .cls-7, .cls-8, .cls-9, .cls-11, .cls-12 { stroke: #75655e; } .cls-2 { stroke-dasharray: 5.9 4.92; } .cls-3 { stroke: #afa49f; } .cls-3, .cls-13, .cls-14 { stroke-miterlimit: 10; } .cls-4 { stroke-dasharray: 5.93 4.94; } .cls-17 { fill: #3a2a22; } .cls-5 { stroke-dasharray: 2.83 2.83; } .cls-6 { stroke: #55453d; stroke-width: .15px; } .cls-18 { fill: #fff; } .cls-7 { stroke-dasharray: 1.42 1.42; } .cls-8 { stroke-dasharray: 3.6 3.6; } .cls-9 { stroke-dasharray: 5.08 5.08; } .cls-10, .cls-13 { stroke-width: .75px; } .cls-10, .cls-13, .cls-15, .cls-16 { stroke: #3a2a22; } .cls-19 { fill: #bc8ebc; } .cls-12 { stroke-dasharray: 4.89 4.89; } .cls-14 { stroke: #bc8ebc; } .cls-20 { fill: #afa49f; } .cls-16 { stroke-width: .35px; } .cls-21 { fill: #75655e; } </style></defs><g id="Layer_1-2" data-name="Layer 1"><g><polygon class="cls-18" points="199.79 484.53 241.47 487.57 283.23 490.25 324.9 492.56 357.94 493.95 357.94 1.9 240.61 1.9 240.61 20.38 139.07 20.38 139.07 71.2 .37 71.2 .37 448.79 16.01 450.8 54.08 455.33 92.15 459.49 130.31 463.37 168.47 466.88 206.72 470.02 199.79 469.46 199.79 484.53"></polygon><line class="cls-11" x1=".38" y1="469.66" x2="3.35" y2="470.05"></line><polyline class="cls-4" points="8.25 470.69 13.7 471.4 51.12 475.84 88.55 480 125.97 483.79 163.48 487.3 201 490.44 233.05 492.81"></polyline><polyline class="cls-11" points="235.52 492.99 238.51 493.21 238.75 490.22"></polyline><polyline class="cls-11" points="238.83 489.27 239.06 486.28 242.06 486.48"></polyline><polyline class="cls-2" points="246.96 486.81 275.19 488.68 311.23 490.72 347.45 492.38 352.49 492.59"></polyline><line class="cls-11" x1="354.95" y1="492.69" x2="357.94" y2="492.81"></line><polygon class="cls-16" points="211.34 473.81 256.81 477.04 302.17 479.81 347.63 482.03 347.54 484.34 312.89 482.68 278.24 480.74 243.68 478.52 209.03 476.03 209.03 470.02 211.34 470.02 211.34 473.81"></polygon><g><path class="cls-6" d="M248.3,402.21c0,23.13-18.61,39.35-41.58,39.35"></path><path class="cls-6" d="M226.47,76.58c-25.52,0-43.4-20.68-43.4-46.2"></path><path class="cls-6" d="M240.17,224.34c0,23.13-18.62,39.35-41.58,39.35"></path><path class="cls-6" d="M289.88,58.02c0,23.13-18.61,39.35-41.58,39.35"></path></g><line class="cls-6" x1="183.07" y1="20.38" x2="229.27" y2="20.38"></line><line class="cls-6" x1="226.47" y1="30.38" x2="183.07" y2="30.38"></line><rect class="cls-16" x="206.72" y="399.98" width="41.58" height="2.23"></rect><rect class="cls-16" x="226.47" y="30.38" width="2.8" height="46.2"></rect><rect class="cls-16" x="192.87" y="164.36" width="2.69" height="41.58"></rect><rect class="cls-16" x="203.21" y="119.27" width="34.65" height="2.69"></rect><rect class="cls-16" x="253.2" y="211.48" width="41.58" height="2.23"></rect><rect class="cls-16" x="198.59" y="222.11" width="41.58" height="2.23"></rect><rect class="cls-16" x="248.31" y="55.79" width="41.58" height="2.23"></rect><polyline class="cls-11" points="12.43 145.21 12.43 145.96 13.18 145.96"></polyline><line class="cls-7" x1="14.6" y1="145.96" x2="36.63" y2="145.96"></line><polyline class="cls-11" points="37.34 145.96 38.09 145.96 38.09 145.21"></polyline><line class="cls-7" x1="38.09" y1="143.79" x2="38.09" y2="121.76"></line><polyline class="cls-11" points="38.09 121.05 38.09 120.3 37.34 120.3"></polyline><line class="cls-7" x1="35.92" y1="120.3" x2="13.89" y2="120.3"></line><polyline class="cls-11" points="13.18 120.3 12.43 120.3 12.43 121.05"></polyline><line class="cls-7" x1="12.43" y1="122.47" x2="12.43" y2="144.5"></line><polyline class="cls-11" points="12.43 211.17 12.43 211.92 13.18 211.92"></polyline><line class="cls-7" x1="14.6" y1="211.92" x2="36.63" y2="211.92"></line><polyline class="cls-11" points="37.34 211.92 38.09 211.92 38.09 211.17"></polyline><line class="cls-7" x1="38.09" y1="209.75" x2="38.09" y2="187.72"></line><polyline class="cls-11" points="38.09 187.01 38.09 186.26 37.34 186.26"></polyline><line class="cls-7" x1="35.92" y1="186.26" x2="13.89" y2="186.26"></line><polyline class="cls-11" points="13.18 186.26 12.43 186.26 12.43 187.01"></polyline><line class="cls-7" x1="12.43" y1="188.43" x2="12.43" y2="210.46"></line><line class="cls-11" x1="107.01" y1="97.01" x2="104.51" y2="97.01"></line><polyline class="cls-11" points="98.53 97.01 96.03 97.01 96.03 94.51"></polyline><line class="cls-8" x1="96.03" y1="90.91" x2="96.03" y2="85.5"></line><line class="cls-11" x1="96.03" y1="83.7" x2="96.03" y2="81.2"></line><line class="cls-11" x1="26.19" y1="214.49" x2="26.19" y2="211.99"></line><line class="cls-12" x1="26.19" y1="207.1" x2="26.19" y2="101.96"></line><polyline class="cls-11" points="26.19 99.51 26.19 97.01 28.69 97.01"></polyline><line class="cls-5" x1="31.51" y1="97.01" x2="35.76" y2="97.01"></line><polyline class="cls-11" points="37.17 97.01 39.67 97.01 39.67 94.51"></polyline><line class="cls-8" x1="39.67" y1="90.91" x2="39.67" y2="85.5"></line><line class="cls-11" x1="39.67" y1="83.7" x2="39.67" y2="81.2"></line><line class="cls-11" x1="88.12" y1="81.2" x2="88.12" y2="83.7"></line><line class="cls-1" x1="88.12" y1="89.07" x2="88.12" y2="97.12"></line><polyline class="cls-11" points="88.12 99.8 88.12 102.3 85.62 102.3"></polyline><line class="cls-9" x1="80.54" y1="102.3" x2="52.62" y2="102.3"></line><polyline class="cls-11" points="50.08 102.3 47.58 102.3 47.58 99.8"></polyline><line class="cls-1" x1="47.58" y1="94.44" x2="47.58" y2="86.38"></line><line class="cls-11" x1="47.58" y1="83.7" x2="47.58" y2="81.2"></line><line class="cls-16" x1="38.09" y1="108.92" x2="143.15" y2="108.92"></line><line class="cls-16" x1="107.01" y1="108.92" x2="107" y2="81.2"></line><line class="cls-16" x1="107.01" y1="106.42" x2="143.15" y2="106.42"></line><g><rect class="cls-16" x="12.1" y="165.87" width="7.83" height="1.59" rx=".54" ry=".54"></rect><circle class="cls-16" cx="26.14" cy="166.67" r=".82"></circle></g><polyline class="cls-16" points="13.3 165.87 13.3 163.66 14.72 163.66 14.72 165.87"></polyline><line class="cls-16" x1="14.72" y1="164.45" x2="13.3" y2="164.45"></line><polyline class="cls-16" points="15.72 165.87 15.72 154.86 35.61 154.86 35.61 178.48 15.72 178.48 15.72 167.46"></polyline><polyline class="cls-16" points="16.71 167.46 16.71 177.5 34.62 177.5 34.62 155.84 16.71 155.84 16.71 165.87"></polyline><line class="cls-16" x1="38.1" y1="108.92" x2="38.09" y2="275.24"></line><line class="cls-16" x1="38.1" y1="233.09" x2="10.37" y2="233.09"></line><line class="cls-16" x1="38.1" y1="214.49" x2="10.37" y2="214.49"></line><line class="cls-16" x1="35.6" y1="233.09" x2="35.6" y2="275.24"></line><line class="cls-16" x1="35.6" y1="214.49" x2="35.6" y2="233.09"></line><rect class="cls-16" x="201.52" y="169.8" width="38.03" height="30.61"></rect><line class="cls-16" x1="255.61" y1="35.31" x2="255.61" y2="32.1"></line><g><path class="cls-16" d="M255.61,31.24v-11.6c0-1.38,1.12-2.5,2.5-2.5h61.83c1.38.01,2.5,1.13,2.5,2.51v24.04c0,1.38-1.12,2.5-2.5,2.5h-61.83c-1.38-.01-2.5-1.13-2.5-2.51v-8.37"></path><path class="cls-16" d="M251.58,32.1h10.86c.24,0,.43-.19.43-.43s-.19-.43-.43-.43h-10.81"></path><path class="cls-16" d="M261.36,31.24c.17-.46.61-.79,1.14-.79.67,0,1.21.54,1.21,1.21s-.54,1.21-1.21,1.21c-.51,0-.95-.32-1.13-.77"></path><path class="cls-16" d="M257.33,31.24c.22-2.66,2.45-4.76,5.17-4.76,2.86,0,5.18,2.32,5.18,5.18,0,2.86-2.32,5.18-5.18,5.18-2.71,0-4.94-2.09-5.16-4.74"></path></g><rect class="cls-16" x="250.62" y="29.12" width=".97" height="5.08"></rect><line class="cls-16" x1="250.61" y1="49.89" x2="326.84" y2="49.9"></line><line class="cls-16" x1="250.61" y1="51.17" x2="326.8" y2="51.18"></line><line class="cls-16" x1="255.3" y1="51.17" x2="255.3" y2="49.89"></line><line class="cls-16" x1="293.3" y1="51.18" x2="293.3" y2="49.89"></line><g><path class="cls-16" d="M334.32,62.81h5.29c.6,0,1.08.48,1.08,1.08v15.44c0,.6-.48,1.08-1.08,1.08h-5.29c-.6,0-1.08-.48-1.08-1.08v-15.44c0-.6.48-1.08,1.08-1.08Z"></path><path class="cls-16" d="M329.1,67.15c0-.28-.11-.54-.32-.73-2.09-1.88-5.3-3.09-8.9-3.09-6.31,0-11.42,3.71-11.42,8.28s5.11,8.28,11.42,8.28c3.6,0,6.8-1.2,8.9-3.08.21-.19.32-.46.32-.73v-8.92Z"></path></g><line class="cls-16" x1="319.88" y1="63.34" x2="333.4" y2="63.34"></line><line class="cls-16" x1="319.88" y1="79.89" x2="333.4" y2="79.89"></line><polyline class="cls-16" points="340.7 92.29 315.68 92.29 315.68 136.71"></polyline><path class="cls-16" d="M332.63,110.29v9.87c0,.4-.32.72-.72.72h-10.9c-.4,0-.72-.32-.72-.72v-20.82c0-.4.32-.72.72-.72h10.9c.4,0,.72.32.72.72v9.48"></path><rect class="cls-16" x="330.2" y="108.82" width="5.89" height="1.47"></rect><circle class="cls-16" cx="326.46" cy="109.56" r=".84"></circle><rect class="cls-16" x="49.76" y="83.36" width="36.98" height="24.28"></rect><rect class="cls-16" x="50.84" y="84.44" width="34.82" height="22.12"></rect><path class="cls-16" d="M68.25,105.81c-.71,0-1.28-.57-1.28-1.28s.57-1.28,1.28-1.28,1.28.57,1.28,1.28-.57,1.28-1.28,1.28Z"></path><line class="cls-16" x1="50.85" y1="106.56" x2="49.77" y2="107.64"></line><line class="cls-16" x1="85.66" y1="106.56" x2="86.74" y2="107.64"></line><line class="cls-16" x1="85.66" y1="84.44" x2="86.74" y2="83.36"></line><line class="cls-16" x1="50.84" y1="84.44" x2="49.76" y2="83.36"></line><polygon class="cls-16" points="69.31 104.53 68.25 103.47 67.2 104.53 68.25 105.58 69.31 104.53"></polygon><line class="cls-16" x1="68.25" y1="103.47" x2="68.25" y2="105.58"></line><g><path class="cls-15" d="M225.58,138.32c.03,1.51.06,3.03.13,4.57.04.8.09,1.6.13,2.35.03.57.07,1.11.16,1.78.09.65.25,1.42-.23,1.73-.11.07-.25.12-.38.13-.77.06-.9-1.18-.97-2.24-.15-2.35.04-3.74.16-5.44.06-.9.1-1.9.14-2.89-.04-.99-.08-1.98-.14-2.89-.11-1.7-.3-3.09-.16-5.44.07-1.05.2-2.3.97-2.24.13.01.27.06.38.13.48.3.32,1.08.23,1.73-.1.67-.13,1.21-.16,1.78-.04.75-.09,1.56-.13,2.36-.07,1.54-.1,3.06-.13,4.57Z"></path><path class="cls-15" d="M220.88,138.32c.03,1.51.06,3.03.13,4.57.04.8.09,1.6.13,2.35.03.57.07,1.11.16,1.78.09.65.25,1.42-.23,1.73-.11.07-.25.12-.38.13-.77.06-.9-1.18-.97-2.24-.15-2.35.04-3.74.16-5.44.06-.9.1-1.9.14-2.89-.04-.99-.08-1.98-.14-2.89-.11-1.7-.3-3.09-.16-5.44.07-1.05.2-2.3.97-2.24.13.01.27.06.38.13.48.3.32,1.08.23,1.73-.1.67-.13,1.21-.16,1.78-.04.75-.09,1.56-.13,2.36-.07,1.54-.1,3.06-.13,4.57Z"></path><path class="cls-15" d="M216.19,138.32c.03,1.51.06,3.03.13,4.57.04.8.09,1.6.13,2.35.03.57.07,1.11.16,1.78.09.65.25,1.42-.23,1.73-.11.07-.25.12-.38.13-.77.06-.9-1.18-.97-2.24-.15-2.35.04-3.74.16-5.44.06-.9.1-1.9.14-2.89-.04-.99-.08-1.98-.14-2.89-.11-1.7-.3-3.09-.16-5.44.07-1.05.2-2.3.97-2.24.13.01.27.06.38.13.48.3.32,1.08.23,1.73-.1.67-.13,1.21-.16,1.78-.04.75-.09,1.56-.13,2.36-.07,1.54-.1,3.06-.13,4.57Z"></path></g><line class="cls-15" x1="198.59" y1="138.32" x2="242.48" y2="138.32"></line><polyline class="cls-15" points="32.92 438.88 37.89 439.4 78.21 444.02 118.44 448.27 158.76 452.05 192.79 454.93 192.79 443.87 198.59 443.87"></polyline><polyline class="cls-15" points="198.59 443.87 198.59 461.24 158.21 457.82 117.84 454.03 77.55 449.78 37.26 445.16 32.18 444.61"></polyline><line class="cls-15" x1="323.38" y1="389.63" x2="206.72" y2="389.63"></line><line class="cls-15" x1=".38" y1="446.42" x2=".38" y2="440.7"></line><line class="cls-15" x1="206.72" y1="383.81" x2="323.33" y2="383.81"></line><polyline class="cls-15" points="357.94 487.07 357.94 493.95 324.9 492.56 283.23 490.25 241.47 487.57 199.79 484.53 199.79 469.46 206.72 470.02"></polyline><rect class="cls-10" x="206.72" y="395.36" width="143.22" height="2.31"></rect><polygon class="cls-10" points=".38 446.42 15.83 448.4 53.43 452.93 91.13 457.08 128.83 460.87 166.62 464.38 204.41 467.52 204.41 443.87 206.73 443.87 206.73 470.02 168.47 466.88 130.31 463.37 92.15 459.49 54.08 455.33 16.01 450.8 .38 448.79 .38 446.42"></polygon><polyline class="cls-10" points="170.97 458.93 170.5 464.66 168.19 464.48 168.66 458.75 170.97 458.93"></polyline><polyline class="cls-10" points="102.13 452.46 101.48 458.19 99.17 457.92 99.82 452.19 102.13 452.46"></polyline><polygon class="cls-10" points="33.38 444.74 32.64 450.42 30.35 450.15 31.07 444.47 33.38 444.74"></polygon><rect class="cls-10" x="322.22" y="389.63" width="2.31" height="5.73"></rect><rect class="cls-10" x="252.92" y="389.63" width="2.31" height="5.73"></rect><rect class="cls-10" x="205.52" y="389.63" width="2.31" height="5.73"></rect><rect class="cls-10" x="198.59" y="395.36" width="8.13" height="4.62"></rect><polyline class="cls-10" points="198.59 459.49 198.59 461.24 196.93 461.15 198.04 462.26 202.75 467.34 204.41 467.52 204.41 465.77 198.59 459.49"></polyline><rect class="cls-10" x="347.63" y="389.63" width="2.31" height="5.73"></rect><rect class="cls-10" x="198.59" y="441.56" width="8.13" height="2.31"></rect><polygon class="cls-17" points="183.07 30.38 149.07 30.38 149.07 108.92 143.15 108.92 143.15 81.2 10.37 81.2 10.37 275.24 38.09 275.24 38.09 284.48 10.37 284.48 10.37 436.11 32.92 438.88 32.18 444.61 .38 440.7 .38 71.2 139.07 71.2 139.07 20.38 183.07 20.38 183.07 30.38"></polygon><polygon class="cls-13" points="183.07 30.38 149.07 30.38 149.07 108.92 143.15 108.92 143.15 81.2 10.37 81.2 10.37 275.24 38.09 275.24 38.09 284.48 10.37 284.48 10.37 436.11 32.92 438.88 32.18 444.61 .38 440.7 .38 71.2 139.07 71.2 139.07 20.38 183.07 20.38 183.07 30.38"></polygon><polygon class="cls-17" points="248.3 142.37 248.3 211.69 252.92 211.69 252.92 217.51 198.59 217.51 198.59 222.11 192.86 222.11 192.86 205.94 198.59 205.94 198.59 209.36 242.48 209.36 242.48 160.85 198.59 160.85 198.59 164.36 192.86 164.36 192.86 119.27 203.21 119.27 203.21 125.09 198.59 125.09 198.59 152.81 242.48 152.81 242.48 125.09 237.86 125.09 237.86 119.27 242.48 119.27 242.48 97.37 248.35 97.37 248.3 136.64 340.7 136.64 340.7 51.17 326.84 51.17 326.84 11.9 250.61 11.9 250.61 51.17 248.3 51.17 248.3 55.79 242.48 55.79 242.48 30.38 229.27 30.38 229.27 20.38 240.61 20.38 240.61 1.9 357.94 1.9 357.94 487.07 349.94 486.74 349.94 389.63 323.33 389.63 323.33 383.81 340.15 383.81 340.15 217.51 294.87 217.51 294.87 211.69 348.74 211.69 348.74 142.37 248.3 142.37"></polygon><polygon class="cls-13" points="248.3 142.37 248.3 211.69 252.92 211.69 252.92 217.51 198.59 217.51 198.59 222.11 192.86 222.11 192.86 205.94 198.59 205.94 198.59 209.36 242.48 209.36 242.48 160.85 198.59 160.85 198.59 164.36 192.86 164.36 192.86 119.27 203.21 119.27 203.21 125.09 198.59 125.09 198.59 152.81 242.48 152.81 242.48 125.09 237.86 125.09 237.86 119.27 242.48 119.27 242.48 97.37 248.35 97.37 248.3 136.64 340.7 136.64 340.7 51.17 326.84 51.17 326.84 11.9 250.61 11.9 250.61 51.17 248.3 51.17 248.3 55.79 242.48 55.79 242.48 30.38 229.27 30.38 229.27 20.38 240.61 20.38 240.61 1.9 357.94 1.9 357.94 487.07 349.94 486.74 349.94 389.63 323.33 389.63 323.33 383.81 340.15 383.81 340.15 217.51 294.87 217.51 294.87 211.69 348.74 211.69 348.74 142.37 248.3 142.37"></polygon><polygon class="cls-17" points="198.64 263.69 192.86 263.69 192.86 397.67 198.59 397.67 198.59 389.63 206.72 389.63 206.72 383.81 198.59 383.81 198.64 263.69"></polygon><polygon class="cls-13" points="198.64 263.69 192.86 263.69 192.86 397.67 198.59 397.67 198.59 389.63 206.72 389.63 206.72 383.81 198.59 383.81 198.64 263.69"></polygon><g><path class="cls-19" d="M206.31,8.23c-.02.08-.07.14-.14.14s-.13-.06-.14-.14c-.56-3.3-2.74-4.94-6.02-4.94h-3.84c-1.16,0-1.98-1.01-2.2-2.66-.05-.33.23-.61.47-.45.46.31,1.06.47,1.78.47h3.48c2.95,0,5.21,1.68,6.17,4.98.11.37.5.37.61,0,.96-3.31,3.22-4.98,6.18-4.98h3.48c.72,0,1.32-.16,1.78-.47.23-.16.51.12.47.46-.22,1.64-1.05,2.66-2.2,2.66h-3.84c-3.29,0-5.47,1.64-6.02,4.94h0Z"></path><path class="cls-14" d="M206.31,8.23c-.02.08-.07.14-.14.14s-.13-.06-.14-.14c-.56-3.3-2.74-4.94-6.02-4.94h-3.84c-1.16,0-1.98-1.01-2.2-2.66-.05-.33.23-.61.47-.45.46.31,1.06.47,1.78.47h3.48c2.95,0,5.21,1.68,6.17,4.98.11.37.5.37.61,0,.96-3.31,3.22-4.98,6.18-4.98h3.48c.72,0,1.32-.16,1.78-.47.23-.16.51.12.47.46-.22,1.64-1.05,2.66-2.2,2.66h-3.84c-3.29,0-5.47,1.64-6.02,4.94h0Z"></path></g><g><path class="cls-17" d="M220.2,296.28h2.52c1.9,0,2.97.89,2.97,2.53s-1.07,2.54-2.97,2.54h-1.72v3.99h-.8v-9.06ZM222.64,300.62c1.41,0,2.24-.61,2.24-1.81s-.81-1.81-2.24-1.81h-1.64v3.62h1.64Z"></path><path class="cls-17" d="M227.19,298.93h.78v1.09c.43-.78,1.31-1.18,2.02-1.18.33,0,.66.07.99.24l-.39.7c-.21-.1-.51-.17-.77-.17-.68,0-1.46.36-1.74,1.3-.08.27-.12.57-.12,1.27v3.15h-.78v-6.41Z"></path><path class="cls-17" d="M232.25,296.28h.94v1.39h-.94v-1.39ZM232.33,298.93h.77v6.41h-.77v-6.41Z"></path><path class="cls-17" d="M235.14,298.93h.78v1.1c.38-.84,1.11-1.19,1.88-1.19.91,0,1.57.4,1.89,1.25.4-.83,1.09-1.25,2-1.25,1.55,0,2.13,1.16,2.13,2.68v3.82h-.78v-3.64c0-1.33-.39-2.18-1.52-2.18-1.02,0-1.65.77-1.65,2.26v3.57h-.78v-3.76c0-1.4-.52-2.07-1.5-2.07-1.03,0-1.67.79-1.67,2.26v3.57h-.78v-6.41Z"></path><path class="cls-17" d="M249.97,304.14c-.43.82-1.25,1.29-2.25,1.29-1.44,0-2.31-.77-2.31-1.94,0-.69.29-1.16.72-1.44.46-.31,1.09-.42,1.77-.42h2.05v-.28c0-1.19-.62-1.83-1.82-1.83-.79,0-1.4.29-1.98,1.02l-.56-.48c.68-.84,1.53-1.21,2.59-1.21,1.63,0,2.54.89,2.54,2.51v3.99h-.71l-.04-1.2ZM247.79,304.78c1.18,0,2.17-.93,2.17-2.2v-.36h-1.95c-.51,0-1.03.08-1.37.32-.28.21-.44.51-.44.94,0,.79.6,1.3,1.6,1.3Z"></path><path class="cls-17" d="M252.68,298.93h.78v1.09c.43-.78,1.31-1.18,2.02-1.18.33,0,.66.07.99.24l-.39.7c-.21-.1-.51-.17-.77-.17-.68,0-1.46.36-1.74,1.3-.08.27-.12.57-.12,1.27v3.15h-.78v-6.41Z"></path><path class="cls-17" d="M259.73,305.14l-2.55-6.21h.86l2.1,5.42,2.11-5.42h.85l-3.69,9.05h-.84l1.17-2.84Z"></path><path class="cls-17" d="M267.99,296.28h2.72c1.68,0,2.68.84,2.68,2.25,0,.94-.46,1.68-1.24,2,1.1.25,1.7,1.07,1.7,2.31,0,1.61-1.02,2.5-2.88,2.5h-2.97v-9.06ZM270.96,300.28c.98,0,1.63-.64,1.63-1.64s-.69-1.61-1.88-1.61h-1.91v3.26h2.16ZM270.91,304.59c1.42,0,2.14-.6,2.14-1.79,0-1.13-.66-1.79-1.79-1.79h-2.46v3.58h2.11Z"></path><path class="cls-17" d="M275.32,302.18c0-1.84.99-3.34,2.81-3.34,1.96,0,2.76,1.53,2.76,2.94,0,.1-.01.4-.04.55h-4.76c.03,1.51.84,2.39,2.14,2.39.82,0,1.35-.23,1.91-.83l.55.49c-.73.75-1.43,1.05-2.46,1.05-1.89,0-2.91-1.41-2.91-3.25ZM280.13,301.75c0-.08,0-.16,0-.24,0-.92-.58-2.01-2-2.01-1.23,0-1.98.98-2.07,2.26h4.06Z"></path><path class="cls-17" d="M282.28,302.13c0-1.96,1.29-3.29,2.92-3.29,1.05,0,1.87.54,2.29,1.36v-3.92h.77v9.06h-.77v-1.26c-.44.84-1.25,1.35-2.29,1.35-1.72,0-2.92-1.42-2.92-3.3ZM285.32,304.71c1.3,0,2.23-1.08,2.23-2.58s-.93-2.58-2.23-2.58-2.26,1.09-2.26,2.58.95,2.58,2.26,2.58Z"></path><path class="cls-17" d="M290.3,298.93h.78v1.09c.43-.78,1.31-1.18,2.02-1.18.33,0,.66.07.99.24l-.39.7c-.21-.1-.51-.17-.77-.17-.68,0-1.46.36-1.74,1.3-.08.27-.12.57-.12,1.27v3.15h-.78v-6.41Z"></path><path class="cls-17" d="M294.68,302.13c0-1.92,1.25-3.29,3.05-3.29s3.04,1.37,3.04,3.29-1.27,3.3-3.04,3.3-3.05-1.37-3.05-3.3ZM297.73,304.73c1.37,0,2.26-1.04,2.26-2.61s-.9-2.61-2.26-2.61-2.28,1.05-2.28,2.61.9,2.61,2.28,2.61Z"></path><path class="cls-17" d="M302.21,302.13c0-1.92,1.25-3.29,3.05-3.29s3.04,1.37,3.04,3.29-1.27,3.3-3.04,3.3-3.05-1.37-3.05-3.3ZM305.26,304.73c1.37,0,2.26-1.04,2.26-2.61s-.9-2.61-2.26-2.61-2.28,1.05-2.28,2.61.9,2.61,2.28,2.61Z"></path><path class="cls-17" d="M310.05,298.93h.78v1.1c.38-.84,1.11-1.19,1.88-1.19.91,0,1.57.4,1.89,1.25.4-.83,1.09-1.25,2-1.25,1.55,0,2.13,1.16,2.13,2.68v3.82h-.78v-3.64c0-1.33-.39-2.18-1.52-2.18-1.02,0-1.65.77-1.65,2.26v3.57h-.78v-3.76c0-1.4-.52-2.07-1.5-2.07-1.03,0-1.67.79-1.67,2.26v3.57h-.78v-6.41Z"></path></g><g><path class="cls-17" d="M80.45,210.77h2.43c2.94,0,4.62,1.68,4.62,4.6s-1.64,4.46-4.63,4.46h-2.42v-9.06ZM82.8,219.08c2.5,0,3.89-1.16,3.89-3.74s-1.4-3.83-3.82-3.83h-1.61v7.57h1.54Z"></path><path class="cls-17" d="M89.11,210.77h.94v1.39h-.94v-1.39ZM89.2,213.42h.77v6.41h-.77v-6.41Z"></path><path class="cls-17" d="M92,213.42h.78v1.05c.4-.76,1.12-1.14,2.01-1.14,1.38,0,2.2.81,2.2,2.51v3.99h-.78v-3.71c0-1.45-.55-2.11-1.61-2.11-1.16,0-1.83.79-1.83,2.55v3.27h-.78v-6.41Z"></path><path class="cls-17" d="M98.88,210.77h.94v1.39h-.94v-1.39ZM98.97,213.42h.77v6.41h-.77v-6.41Z"></path><path class="cls-17" d="M101.77,213.42h.78v1.05c.4-.76,1.12-1.14,2.01-1.14,1.38,0,2.2.81,2.2,2.51v3.99h-.78v-3.71c0-1.45-.55-2.11-1.61-2.11-1.16,0-1.83.79-1.83,2.55v3.27h-.78v-6.41Z"></path><path class="cls-17" d="M108.23,220.59s0-.1.03-.26l1.11-.88c-.57-.22-.96-.59-.96-1.26,0-.53.27-.9.72-1.2-.36-.37-.56-.87-.56-1.45,0-1.3,1.04-2.2,2.39-2.2.64,0,1.22.21,1.64.59l1.02-.86.4.49-1,.88c.19.33.3.71.3,1.14,0,1.28-.96,2.13-2.33,2.13-.53,0-.99-.12-1.37-.34-.31.18-.45.42-.45.72,0,.66.63.83,1.62.98,1.6.25,2.99.44,2.99,1.75,0,1.16-1.05,1.78-2.7,1.78-1.82,0-2.85-.7-2.85-2ZM111.09,221.98c1.09,0,1.92-.34,1.92-1.08,0-.86-1.16-.96-2.31-1.14-.31-.05-.6-.1-.89-.17l-.8.92c-.01.09-.01.11-.01.15,0,.9.79,1.33,2.09,1.33ZM110.96,217.05c.98,0,1.59-.65,1.59-1.53s-.64-1.56-1.58-1.56-1.62.65-1.62,1.55.63,1.55,1.61,1.55Z"></path><path class="cls-17" d="M118.71,210.77h2.52c1.99,0,2.97.93,2.97,2.5,0,1.25-.64,2.07-1.85,2.38l2.44,4.19h-.92l-2.34-4.07c-.21,0-.44,0-.65,0h-1.36v4.06h-.81v-9.06ZM121.16,215.05c1.38,0,2.24-.55,2.24-1.78s-.88-1.77-2.24-1.77h-1.64v3.56h1.64Z"></path><path class="cls-17" d="M125.72,216.62c0-1.92,1.25-3.29,3.05-3.29s3.04,1.37,3.04,3.29-1.27,3.3-3.04,3.3-3.05-1.36-3.05-3.3ZM128.77,219.22c1.37,0,2.26-1.04,2.26-2.61s-.9-2.61-2.26-2.61-2.28,1.05-2.28,2.61.9,2.61,2.28,2.61Z"></path><path class="cls-17" d="M133.25,216.62c0-1.92,1.25-3.29,3.05-3.29s3.04,1.37,3.04,3.29-1.27,3.3-3.04,3.3-3.05-1.36-3.05-3.3ZM136.3,219.22c1.37,0,2.26-1.04,2.26-2.61s-.9-2.61-2.26-2.61-2.28,1.05-2.28,2.61.9,2.61,2.28,2.61Z"></path><path class="cls-17" d="M141.09,213.42h.78v1.1c.38-.85,1.11-1.19,1.88-1.19.91,0,1.57.4,1.89,1.25.4-.83,1.09-1.25,2-1.25,1.55,0,2.13,1.16,2.13,2.69v3.82h-.78v-3.64c0-1.33-.39-2.18-1.52-2.18-1.02,0-1.65.77-1.65,2.26v3.57h-.78v-3.76c0-1.4-.52-2.07-1.5-2.07-1.03,0-1.67.79-1.67,2.26v3.57h-.78v-6.41Z"></path></g><g><path class="cls-17" d="M68.62,361.21h.81v8.33h4.18v.73h-4.99v-9.06Z"></path><path class="cls-17" d="M74.74,361.21h.94v1.39h-.94v-1.39ZM74.82,363.86h.77v6.41h-.77v-6.41Z"></path><path class="cls-17" d="M76.99,363.86h.86l2.1,5.42,2.11-5.42h.85l-2.61,6.41h-.68l-2.63-6.41Z"></path><path class="cls-17" d="M84.25,361.21h.94v1.39h-.94v-1.39ZM84.33,363.86h.77v6.41h-.77v-6.41Z"></path><path class="cls-17" d="M87.14,363.86h.78v1.05c.4-.76,1.12-1.14,2.01-1.14,1.38,0,2.2.81,2.2,2.51v3.99h-.78v-3.71c0-1.45-.55-2.11-1.61-2.11-1.16,0-1.83.79-1.83,2.55v3.27h-.78v-6.41Z"></path><path class="cls-17" d="M93.6,371.03s0-.1.03-.26l1.11-.88c-.57-.22-.96-.59-.96-1.26,0-.53.27-.9.72-1.2-.36-.37-.56-.87-.56-1.45,0-1.3,1.04-2.2,2.39-2.2.64,0,1.22.21,1.64.58l1.02-.86.4.49-1,.88c.19.33.3.71.3,1.14,0,1.28-.96,2.13-2.33,2.13-.53,0-.99-.12-1.37-.34-.31.17-.45.42-.45.71,0,.66.63.83,1.62.98,1.6.25,2.99.44,2.99,1.75,0,1.16-1.05,1.78-2.7,1.78-1.82,0-2.85-.7-2.85-2ZM96.45,372.42c1.09,0,1.92-.34,1.92-1.08,0-.86-1.16-.96-2.31-1.14-.31-.05-.6-.1-.89-.17l-.8.92c-.01.09-.01.11-.01.15,0,.9.79,1.33,2.09,1.33ZM96.32,367.5c.98,0,1.59-.65,1.59-1.53s-.64-1.56-1.58-1.56-1.62.65-1.62,1.55.63,1.55,1.61,1.55Z"></path><path class="cls-17" d="M104.08,361.21h2.52c1.99,0,2.97.93,2.97,2.5,0,1.25-.64,2.07-1.85,2.38l2.44,4.19h-.92l-2.34-4.07c-.21,0-.44,0-.65,0h-1.36v4.06h-.81v-9.06ZM106.52,365.5c1.38,0,2.24-.55,2.24-1.78s-.88-1.77-2.24-1.77h-1.64v3.56h1.64Z"></path><path class="cls-17" d="M111.09,367.06c0-1.92,1.25-3.29,3.05-3.29s3.04,1.37,3.04,3.29-1.27,3.3-3.04,3.3-3.05-1.37-3.05-3.3ZM114.13,369.67c1.37,0,2.26-1.04,2.26-2.61s-.9-2.61-2.26-2.61-2.28,1.05-2.28,2.61.9,2.61,2.28,2.61Z"></path><path class="cls-17" d="M118.62,367.06c0-1.92,1.25-3.29,3.05-3.29s3.04,1.37,3.04,3.29-1.27,3.3-3.04,3.3-3.05-1.37-3.05-3.3ZM121.67,369.67c1.37,0,2.26-1.04,2.26-2.61s-.9-2.61-2.26-2.61-2.28,1.05-2.28,2.61.9,2.61,2.28,2.61Z"></path><path class="cls-17" d="M126.46,363.86h.78v1.1c.38-.84,1.11-1.19,1.88-1.19.91,0,1.57.4,1.89,1.25.4-.83,1.09-1.25,2-1.25,1.55,0,2.13,1.16,2.13,2.68v3.82h-.78v-3.64c0-1.33-.39-2.18-1.52-2.18-1.02,0-1.65.77-1.65,2.26v3.57h-.78v-3.76c0-1.4-.52-2.07-1.5-2.07-1.03,0-1.67.79-1.67,2.26v3.57h-.78v-6.41Z"></path></g><g><path class="cls-17" d="M264.1,434.29h2.43c2.94,0,4.62,1.68,4.62,4.6s-1.64,4.46-4.63,4.46h-2.42v-9.06ZM266.45,442.61c2.5,0,3.89-1.16,3.89-3.74s-1.4-3.83-3.82-3.83h-1.61v7.57h1.54Z"></path><path class="cls-17" d="M272.6,440.19c0-1.84.99-3.34,2.81-3.34,1.96,0,2.76,1.53,2.76,2.94,0,.1-.01.4-.04.55h-4.76c.03,1.51.84,2.39,2.14,2.39.82,0,1.35-.23,1.91-.83l.55.49c-.73.75-1.43,1.05-2.46,1.05-1.89,0-2.91-1.41-2.91-3.25ZM277.42,439.77c0-.08,0-.16,0-.24,0-.92-.58-2.01-2-2.01-1.23,0-1.98.98-2.07,2.26h4.06Z"></path><path class="cls-17" d="M279.58,440.14c0-1.83,1.06-3.29,2.86-3.29,1.17,0,2.09.58,2.51,1.74l-.7.27c-.27-.82-.9-1.33-1.81-1.33-1.42,0-2.09,1.25-2.09,2.61s.68,2.62,2.09,2.62c.91,0,1.53-.51,1.81-1.33l.7.27c-.42,1.16-1.34,1.75-2.51,1.75-1.8,0-2.86-1.46-2.86-3.3Z"></path><path class="cls-17" d="M288.65,439.82l-1.3,1.37v2.16h-.78v-9.06h.78v5.9l3.15-3.24h1.01l-2.28,2.35,2.67,4.06h-.92l-2.31-3.53Z"></path></g><g><path class="cls-17" d="M68.35,128.51h.81v4.86l4.65-4.86h1.09l-3.45,3.54,3.48,5.52h-.95l-3.11-4.93-1.71,1.75v3.17h-.81v-9.06Z"></path><path class="cls-17" d="M76.08,128.51h.94v1.39h-.94v-1.39ZM76.16,131.16h.77v6.41h-.77v-6.41Z"></path><path class="cls-17" d="M79.73,136.09v-4.31h-1.42v-.62h1.42v-1.85l.79-.46v2.31h1.54v.62h-1.54v4.12c0,.71.22,1.11.81,1.11.19,0,.46-.04.73-.12v.62c-.32.1-.64.16-.92.16-.85,0-1.4-.49-1.4-1.57Z"></path><path class="cls-17" d="M83.08,134.36c0-1.83,1.06-3.29,2.86-3.29,1.17,0,2.09.59,2.51,1.74l-.7.27c-.27-.82-.9-1.33-1.81-1.33-1.42,0-2.09,1.25-2.09,2.61s.68,2.62,2.09,2.62c.91,0,1.53-.51,1.81-1.33l.7.27c-.42,1.16-1.34,1.75-2.51,1.75-1.8,0-2.86-1.46-2.86-3.3Z"></path><path class="cls-17" d="M90.08,128.51h.78v3.69c.4-.75,1.1-1.13,2.01-1.13,1.4,0,2.2.85,2.2,2.51v3.99h-.78v-3.71c0-1.43-.53-2.11-1.61-2.11-1.18,0-1.83.83-1.83,2.55v3.27h-.78v-9.06Z"></path><path class="cls-17" d="M96.72,134.41c0-1.84.99-3.34,2.81-3.34,1.96,0,2.76,1.53,2.76,2.94,0,.1-.01.4-.04.55h-4.76c.03,1.51.84,2.39,2.14,2.39.82,0,1.35-.23,1.91-.83l.55.49c-.73.75-1.43,1.05-2.46,1.05-1.89,0-2.91-1.41-2.91-3.25ZM101.53,133.98c0-.08,0-.16,0-.24,0-.92-.58-2.02-2-2.02-1.23,0-1.98.98-2.07,2.26h4.06Z"></path><path class="cls-17" d="M104.02,131.16h.78v1.05c.4-.76,1.12-1.14,2.01-1.14,1.38,0,2.2.81,2.2,2.51v3.99h-.78v-3.71c0-1.45-.55-2.11-1.61-2.11-1.16,0-1.83.79-1.83,2.55v3.27h-.78v-6.41Z"></path></g><g><path class="cls-17" d="M180.04,93.08h5.86v.73h-5.06v3.37h4.39v.73h-4.39v4.24h-.81v-9.06Z"></path><path class="cls-17" d="M186.63,98.93c0-1.92,1.25-3.29,3.05-3.29s3.04,1.36,3.04,3.29-1.27,3.3-3.04,3.3-3.05-1.36-3.05-3.3ZM189.68,101.54c1.37,0,2.26-1.04,2.26-2.61s-.9-2.61-2.26-2.61-2.28,1.05-2.28,2.61.9,2.61,2.28,2.61Z"></path><path class="cls-17" d="M196.2,101.94l-2.55-6.21h.86l2.1,5.42,2.11-5.42h.85l-3.69,9.05h-.84l1.17-2.84Z"></path><path class="cls-17" d="M200.53,98.99c0-1.84.99-3.34,2.81-3.34,1.96,0,2.76,1.53,2.76,2.94,0,.1-.01.4-.04.55h-4.76c.03,1.51.84,2.39,2.14,2.39.82,0,1.35-.23,1.91-.83l.55.49c-.73.75-1.43,1.05-2.46,1.05-1.89,0-2.91-1.41-2.91-3.25ZM205.34,98.56c0-.08,0-.16,0-.24,0-.92-.58-2.02-2-2.02-1.23,0-1.98.98-2.07,2.26h4.06Z"></path><path class="cls-17" d="M207.82,95.74h.78v1.09c.43-.78,1.31-1.18,2.02-1.18.33,0,.66.07.99.24l-.39.7c-.21-.1-.51-.17-.77-.17-.68,0-1.46.36-1.74,1.3-.08.27-.12.57-.12,1.27v3.15h-.78v-6.41Z"></path></g><path class="cls-17" d="M115.7,94.08c0-2.17,1.27-3.59,3.16-3.59s3.18,1.42,3.18,3.59-1.27,3.58-3.18,3.58-3.16-1.42-3.16-3.58ZM118.86,97.07c1.57,0,2.55-1.16,2.55-2.99s-.99-3-2.55-3-2.54,1.15-2.54,3,.99,2.99,2.54,2.99Z"></path><path class="cls-17" d="M125.74,89.59h.48l-3.55,9.08h-.48l3.55-9.08Z"></path><path class="cls-17" d="M127.44,90.59h.93l2.35,5.66,2.35-5.66h.92v6.98h-.62v-6.16l-2.35,5.59h-.61l-2.36-5.59v6.16h-.62v-6.98Z"></path><g><path class="cls-17" d="M15.49,250.47h1.94c1.53,0,2.29.72,2.29,1.92,0,.97-.5,1.6-1.43,1.83l1.88,3.22h-.71l-1.8-3.13c-.16,0-.34,0-.5,0h-1.05v3.13h-.62v-6.98ZM17.37,253.77c1.06,0,1.73-.43,1.73-1.37s-.68-1.37-1.73-1.37h-1.26v2.74h1.26Z"></path><path class="cls-17" d="M21.35,250.47h4.56v.56h-3.94v2.59h3.53v.56h-3.53v2.7h3.94v.56h-4.56v-6.98Z"></path><path class="cls-17" d="M27.2,250.47h4.51v.56h-3.89v2.59h3.38v.56h-3.38v3.26h-.62v-6.98Z"></path></g><path class="cls-17" d="M21.43,220.59h1.94c1.46,0,2.29.69,2.29,1.95s-.83,1.96-2.29,1.96h-1.33v3.07h-.62v-6.98ZM23.32,223.94c1.09,0,1.73-.47,1.73-1.4s-.62-1.39-1.73-1.39h-1.27v2.79h1.27Z"></path><g><path class="cls-17" d="M18,195.93h.65l1.71,6.06,1.76-5.7h.63l1.76,5.7,1.7-6.06h.65l-2.01,6.98h-.63l-1.79-5.71-1.79,5.71h-.64l-2.01-6.98Z"></path><path class="cls-17" d="M28.01,195.93h4.51v.56h-3.89v2.59h3.38v.56h-3.38v3.26h-.62v-6.98Z"></path></g><g><path class="cls-17" d="M18.07,129.55h1.87c2.26,0,3.56,1.29,3.56,3.54s-1.27,3.43-3.57,3.43h-1.86v-6.98ZM19.88,135.95c1.92,0,2.99-.89,2.99-2.88s-1.08-2.95-2.94-2.95h-1.24v5.83h1.19Z"></path><path class="cls-17" d="M24.16,129.55h.65l1.71,6.06,1.76-5.7h.63l1.76,5.7,1.7-6.06h.65l-2.01,6.98h-.63l-1.79-5.71-1.79,5.71h-.64l-2.01-6.98Z"></path></g><path class="cls-17" d="M210.66,181.75h.65l1.71,6.06,1.76-5.7h.63l1.76,5.7,1.7-6.06h.65l-2.01,6.98h-.63l-1.79-5.71-1.79,5.71h-.64l-2.01-6.98Z"></path><path class="cls-17" d="M222.94,180.87h.48l-3.55,9.08h-.47l3.55-9.08Z"></path><path class="cls-17" d="M224.64,181.75h1.87c2.26,0,3.56,1.29,3.56,3.54s-1.27,3.43-3.57,3.43h-1.86v-6.98ZM226.45,188.15c1.92,0,2.99-.89,2.99-2.88s-1.08-2.95-2.94-2.95h-1.24v5.83h1.19Z"></path><g><path class="cls-17" d="M289.56,173.61h.65l1.71,6.06,1.76-5.7h.63l1.76,5.7,1.7-6.06h.65l-2.01,6.98h-.63l-1.79-5.71-1.79,5.71h-.64l-2.01-6.98Z"></path><path class="cls-17" d="M299.57,173.61h.62v6.98h-.62v-6.98Z"></path><path class="cls-17" d="M301.62,177.09c0-2.16,1.26-3.58,3.16-3.58,1.35,0,2.39.71,2.84,1.89l-.58.22c-.38-.96-1.17-1.52-2.26-1.52-1.55,0-2.54,1.17-2.54,2.99s.99,3,2.54,3c1.09,0,1.89-.56,2.26-1.52l.58.22c-.45,1.18-1.49,1.9-2.84,1.9-1.89,0-3.16-1.42-3.16-3.59Z"></path></g><g><path class="cls-21" d="M5.79,496.63h1.67c1.03,0,1.65.52,1.65,1.38,0,.58-.28,1.03-.76,1.23.68.16,1.04.66,1.04,1.42,0,.99-.63,1.54-1.77,1.54h-1.83v-5.57ZM7.62,499.09c.6,0,1-.39,1-1.01s-.42-.99-1.16-.99h-1.17v2h1.33ZM7.59,501.74c.88,0,1.32-.37,1.32-1.1,0-.7-.41-1.1-1.1-1.1h-1.51v2.2h1.3Z"></path><path class="cls-21" d="M10.46,500.71v-2.45h.47v2.28c0,.89.34,1.29,1,1.29.71,0,1.13-.48,1.13-1.57v-2.01h.48v3.94h-.48v-.65c-.25.47-.7.7-1.25.7-.84,0-1.35-.51-1.35-1.55Z"></path><path class="cls-21" d="M14.81,496.63h.58v.86h-.58v-.86ZM14.86,498.26h.47v3.94h-.47v-3.94Z"></path><path class="cls-21" d="M16.67,501.38v-4.75h.48v4.67c0,.37.14.52.39.52.1,0,.24-.02.38-.07v.41c-.18.07-.37.1-.52.1-.44,0-.72-.27-.72-.88Z"></path><path class="cls-21" d="M18.53,500.23c0-1.21.79-2.02,1.79-2.02.64,0,1.15.33,1.41.84v-2.41h.47v5.57h-.47v-.78c-.27.52-.77.83-1.41.83-1.05,0-1.79-.88-1.79-2.03ZM20.41,501.81c.8,0,1.37-.66,1.37-1.59s-.57-1.59-1.37-1.59-1.39.67-1.39,1.59.58,1.59,1.39,1.59Z"></path><path class="cls-21" d="M23.5,496.63h.58v.86h-.58v-.86ZM23.55,498.26h.47v3.94h-.47v-3.94Z"></path><path class="cls-21" d="M25.36,498.26h.48v.64c.25-.47.69-.7,1.24-.7.85,0,1.36.5,1.36,1.54v2.46h-.48v-2.28c0-.89-.34-1.3-.99-1.3-.71,0-1.13.48-1.13,1.57v2.01h-.48v-3.94Z"></path><path class="cls-21" d="M29.4,502.67s0-.06.02-.16l.68-.54c-.35-.14-.59-.36-.59-.78,0-.32.16-.55.44-.74-.22-.23-.34-.54-.34-.89,0-.8.64-1.36,1.47-1.36.4,0,.75.13,1.01.36l.63-.53.24.3-.62.54c.12.2.18.44.18.7,0,.79-.59,1.31-1.44,1.31-.32,0-.61-.08-.84-.21-.19.11-.28.26-.28.44,0,.41.39.51,1,.6.98.15,1.84.27,1.84,1.08,0,.72-.64,1.1-1.66,1.1-1.12,0-1.75-.43-1.75-1.23ZM31.16,503.52c.67,0,1.18-.21,1.18-.66,0-.53-.71-.59-1.42-.7-.19-.03-.37-.06-.55-.1l-.49.56c0,.06,0,.07,0,.09,0,.55.49.82,1.29.82ZM31.08,500.49c.6,0,.98-.4.98-.94s-.39-.96-.97-.96-1,.4-1,.95.39.95.99.95Z"></path><path class="cls-21" d="M37.57,496.63h.42l2.05,5.57h-.54l-.51-1.45h-2.42l-.51,1.45h-.55l2.05-5.57ZM38.84,500.31l-1.05-2.99-1.06,2.99h2.11Z"></path><path class="cls-21" d="M41.36,501.42v.78h-.47v-5.57h.47v2.41c.26-.5.77-.84,1.41-.84,1,0,1.79.82,1.79,2.02s-.74,2.03-1.79,2.03c-.64,0-1.14-.31-1.41-.83ZM42.7,501.81c.81,0,1.39-.67,1.39-1.59s-.58-1.59-1.39-1.59-1.37.66-1.37,1.59.57,1.59,1.37,1.59Z"></path><path class="cls-21" d="M45.52,500.23c0-1.18.77-2.02,1.88-2.02s1.87.84,1.87,2.02-.78,2.03-1.87,2.03-1.88-.84-1.88-2.03ZM47.39,501.83c.84,0,1.39-.64,1.39-1.6s-.55-1.6-1.39-1.6-1.4.64-1.4,1.6.56,1.6,1.4,1.6Z"></path><path class="cls-21" d="M49.92,498.26h.53l1.29,3.33,1.3-3.33h.52l-1.61,3.94h-.42l-1.61-3.94Z"></path><path class="cls-21" d="M54.24,500.26c0-1.13.61-2.05,1.73-2.05,1.21,0,1.7.94,1.7,1.81,0,.06,0,.24-.02.34h-2.93c.02.93.52,1.47,1.32,1.47.5,0,.83-.14,1.17-.51l.34.3c-.45.46-.88.65-1.51.65-1.16,0-1.79-.87-1.79-2ZM57.2,499.99s0-.1,0-.15c0-.57-.36-1.24-1.23-1.24-.75,0-1.22.6-1.27,1.39h2.49Z"></path></g><polyline class="cls-3" points="63.88 499.54 77.03 499.54 83.48 487.65"></polyline><path class="cls-20" d="M85.4,484.1l-4.52,4s2.59-.45,3.63,1.97l.89-5.97Z"></path><g><path class="cls-21" d="M148.72,521.38h.5v5.13h2.57v.45h-3.07v-5.57Z"></path><path class="cls-21" d="M155.25,526.22c-.26.5-.77.79-1.38.79-.88,0-1.42-.48-1.42-1.2,0-.42.18-.71.44-.89.28-.19.67-.26,1.09-.26h1.26v-.17c0-.73-.38-1.13-1.12-1.13-.48,0-.86.18-1.22.63l-.34-.3c.42-.52.94-.75,1.59-.75,1,0,1.56.55,1.56,1.54v2.46h-.44l-.02-.74ZM153.91,526.61c.72,0,1.33-.57,1.33-1.35v-.22h-1.2c-.32,0-.63.05-.84.2-.17.13-.27.31-.27.58,0,.49.37.8.98.8Z"></path><path class="cls-21" d="M157,523.01h.48v.64c.25-.47.69-.7,1.24-.7.85,0,1.36.5,1.36,1.54v2.46h-.48v-2.28c0-.89-.34-1.3-.99-1.3-.71,0-1.13.48-1.13,1.57v2.01h-.48v-3.94Z"></path><path class="cls-21" d="M161.14,524.98c0-1.21.79-2.02,1.79-2.02.64,0,1.15.33,1.41.84v-2.41h.47v5.57h-.47v-.78c-.27.52-.77.83-1.41.83-1.05,0-1.79-.88-1.79-2.03ZM163.01,526.57c.8,0,1.37-.66,1.37-1.59s-.57-1.59-1.37-1.59-1.39.67-1.39,1.59.58,1.59,1.39,1.59Z"></path><path class="cls-21" d="M165.74,526.11l.34-.28c.2.46.66.77,1.26.77.57,0,.95-.27.95-.72,0-.55-.53-.68-1.1-.82-.66-.16-1.23-.38-1.23-1.06,0-.62.53-1.05,1.29-1.05.6,0,1.1.26,1.37.76l-.37.21c-.21-.38-.57-.58-1.01-.58-.48,0-.84.24-.84.62,0,.4.36.54.93.68.67.16,1.43.34,1.43,1.2,0,.71-.56,1.17-1.42,1.17-.79,0-1.35-.4-1.6-.9Z"></path><path class="cls-21" d="M169.68,524.98c0-1.13.65-2.02,1.76-2.02.72,0,1.28.36,1.54,1.07l-.43.17c-.17-.5-.55-.82-1.11-.82-.87,0-1.29.77-1.29,1.61s.42,1.61,1.29,1.61c.56,0,.94-.31,1.11-.82l.43.16c-.26.71-.82,1.08-1.54,1.08-1.11,0-1.76-.9-1.76-2.03Z"></path><path class="cls-21" d="M176.64,526.22c-.26.5-.77.79-1.38.79-.88,0-1.42-.48-1.42-1.2,0-.42.18-.71.44-.89.28-.19.67-.26,1.09-.26h1.26v-.17c0-.73-.38-1.13-1.12-1.13-.48,0-.86.18-1.22.63l-.34-.3c.42-.52.94-.75,1.59-.75,1,0,1.56.55,1.56,1.54v2.46h-.44l-.02-.74ZM175.3,526.61c.72,0,1.33-.57,1.33-1.35v-.22h-1.2c-.32,0-.63.05-.84.2-.17.13-.27.31-.27.58,0,.49.37.8.98.8Z"></path><path class="cls-21" d="M182.07,524.99c0,1.21-.79,2.02-1.79,2.02-.64,0-1.15-.33-1.41-.83v2.41h-.47v-5.57h.47v.78c.27-.52.77-.83,1.41-.83,1.06,0,1.79.88,1.79,2.03ZM180.2,526.57c.81,0,1.39-.67,1.39-1.59s-.58-1.59-1.39-1.59-1.37.66-1.37,1.59.57,1.59,1.37,1.59Z"></path><path class="cls-21" d="M183.04,525.01c0-1.13.61-2.05,1.73-2.05,1.21,0,1.7.94,1.7,1.81,0,.06,0,.24-.02.34h-2.93c.02.93.52,1.47,1.32,1.47.5,0,.83-.14,1.17-.51l.34.3c-.45.46-.88.65-1.51.65-1.16,0-1.79-.87-1.79-2ZM186.01,524.75s0-.1,0-.15c0-.57-.36-1.24-1.23-1.24-.75,0-1.22.6-1.27,1.39h2.49Z"></path><path class="cls-21" d="M187.41,524.98c0-1.21.79-2.02,1.79-2.02.64,0,1.15.33,1.41.84v-2.41h.47v5.57h-.47v-.78c-.27.52-.77.83-1.41.83-1.05,0-1.79-.88-1.79-2.03ZM189.28,526.57c.8,0,1.37-.66,1.37-1.59s-.57-1.59-1.37-1.59-1.39.67-1.39,1.59.58,1.59,1.39,1.59Z"></path><path class="cls-21" d="M194.63,521.38h1.55c1.22,0,1.83.57,1.83,1.54,0,.77-.4,1.28-1.14,1.46l1.5,2.57h-.57l-1.44-2.5c-.13,0-.27,0-.4,0h-.84v2.5h-.5v-5.57ZM196.14,524.02c.85,0,1.38-.34,1.38-1.1s-.54-1.09-1.38-1.09h-1.01v2.19h1.01Z"></path><path class="cls-21" d="M199.02,524.98c0-1.18.77-2.02,1.88-2.02s1.87.84,1.87,2.02-.78,2.03-1.87,2.03-1.88-.84-1.88-2.03ZM200.9,526.58c.84,0,1.39-.64,1.39-1.6s-.55-1.6-1.39-1.6-1.4.64-1.4,1.6.56,1.6,1.4,1.6Z"></path><path class="cls-21" d="M203.73,524.98c0-1.18.77-2.02,1.88-2.02s1.87.84,1.87,2.02-.78,2.03-1.87,2.03-1.88-.84-1.88-2.03ZM205.61,526.58c.84,0,1.39-.64,1.39-1.6s-.55-1.6-1.39-1.6-1.4.64-1.4,1.6.56,1.6,1.4,1.6Z"></path><path class="cls-21" d="M208.96,523.39h-.88v-.38h.88v-.57c0-.82.43-1.12,1.03-1.12.26,0,.47.05.66.15l-.16.36c-.14-.07-.28-.11-.45-.11-.4,0-.6.25-.6.71v.57h.97v.38h-.97v3.56h-.48v-3.56Z"></path></g></g></g></svg> 