<?xml version="1.0" encoding="UTF-8"?> <svg xmlns="http://www.w3.org/2000/svg" id="Layer_2" data-name="Layer 2" viewBox="0 0 479.45 568.88"><defs><style> .cls-1 { stroke-dasharray: 5.96 4.97; } .cls-1, .cls-2, .cls-3, .cls-4, .cls-5, .cls-6, .cls-7, .cls-8, .cls-9, .cls-10, .cls-11, .cls-12, .cls-13, .cls-14, .cls-15, .cls-16, .cls-17, .cls-18, .cls-19 { fill: none; } .cls-1, .cls-2, .cls-3, .cls-4, .cls-5, .cls-6, .cls-7, .cls-9, .cls-10, .cls-11, .cls-12, .cls-14, .cls-15, .cls-17, .cls-18 { stroke-width: .25px; } .cls-1, .cls-2, .cls-4, .cls-5, .cls-6, .cls-7, .cls-8, .cls-9, .cls-10, .cls-11, .cls-12, .cls-13, .cls-14, .cls-15, .cls-18, .cls-19 { stroke-linecap: round; stroke-linejoin: round; } .cls-1, .cls-2, .cls-4, .cls-5, .cls-6, .cls-7, .cls-9, .cls-10, .cls-11, .cls-12, .cls-14, .cls-15 { stroke: #75655e; } .cls-2 { stroke-dasharray: 5.9 4.92; } .cls-3 { stroke: #afa49f; } .cls-3, .cls-16, .cls-17 { stroke-miterlimit: 10; } .cls-4 { stroke-dasharray: 1.91 1.91; } .cls-20 { fill: #3a2a22; } .cls-5 { stroke-dasharray: 5.13 5.13; } .cls-6 { stroke-dasharray: 5.16 5.16; } .cls-7 { stroke-dasharray: 4.8 4.8; } .cls-8 { stroke: #55453d; stroke-width: .15px; } .cls-9 { stroke-dasharray: 6.79 5.66; } .cls-21 { fill: #fff; } .cls-10 { stroke-dasharray: 1.42 1.42; } .cls-11 { stroke-dasharray: 3.6 3.6; } .cls-12 { stroke-dasharray: 5.26 5.26; } .cls-13, .cls-16 { stroke-width: .75px; } .cls-13, .cls-16, .cls-18, .cls-19 { stroke: #3a2a22; } .cls-22 { fill: #bc8ebc; } .cls-15 { stroke-dasharray: 5.4 4.5; } .cls-17 { stroke: #bc8ebc; } .cls-23 { fill: #afa49f; } .cls-19 { stroke-width: .35px; } .cls-24 { fill: #75655e; } </style></defs><g id="Layer_1-2" data-name="Layer 1"><g><polygon class="cls-21" points="1.64 499.34 21.39 500.32 62.14 501.62 102.98 502.54 143.73 503.1 143.73 511.32 178.47 511.6 213.21 511.41 247.86 510.95 282.61 510.12 317.35 508.92 352 507.44 362.83 506.83 362.83 46.9 236.89 46.9 236.89 8.83 189.17 8.83 189.17 20.38 119.52 20.38 119.52 8.83 1.64 8.83 1.64 499.34"></polygon><line class="cls-14" x1="143.73" y1="503.1" x2="143.73" y2="506.1"></line><line class="cls-9" x1="143.73" y1="511.76" x2="143.73" y2="521.38"></line><polyline class="cls-14" points="143.73 524.21 143.73 527.21 140.73 527.17"></polyline><polyline class="cls-15" points="136.23 527.11 123.59 526.94 108.78 526.66"></polyline><polyline class="cls-14" points="106.54 526.62 103.54 526.57 103.43 529.56"></polyline><polyline class="cls-14" points="103.36 531.61 103.26 534.6 106.26 534.66"></polyline><polyline class="cls-2" points="111.17 534.75 137.82 535.25 172.28 535.53 206.84 535.44 241.3 534.97 275.86 534.23 310.33 533.13 344.79 531.65 357.38 531.01"></polyline><line class="cls-14" x1="359.83" y1="530.88" x2="362.83" y2="530.73"></line><line class="cls-14" x1="143.73" y1="502.17" x2="140.73" y2="502.11"></line><polyline class="cls-1" points="135.76 502.01 101.61 501.32 59.4 500.4 17.28 499.1 7.12 498.68"></polyline><line class="cls-14" x1="4.63" y1="498.58" x2="1.64" y2="498.45"></line><polygon class="cls-19" points="140.87 492.65 140.87 494.96 97.62 494.32 54.47 493.3 11.32 491.73 11.41 489.42 54.56 490.99 97.71 492.01 140.87 492.65"></polygon><g><path class="cls-8" d="M128.7,76.67c25.57,0,43.49-20.73,43.49-46.29"></path><path class="cls-8" d="M68.7,64.95c0,23.13,18.62,39.35,41.58,39.35"></path><path class="cls-8" d="M118.32,245.13c0,23.13,18.62,39.35,41.58,39.35"></path><path class="cls-8" d="M102.15,409.14c0,23.13,18.62,39.35,41.58,39.35"></path></g><line class="cls-8" x1="125.9" y1="20.38" x2="172.19" y2="20.38"></line><line class="cls-8" x1="128.7" y1="30.38" x2="172.19" y2="30.38"></line><rect class="cls-19" x="125.9" y="30.38" width="2.81" height="46.29"></rect><rect class="cls-19" x="68.7" y="62.72" width="41.58" height="2.23"></rect><rect class="cls-19" x="118.32" y="242.9" width="41.58" height="2.23"></rect><rect class="cls-19" x="64.08" y="234.21" width="41.58" height="2.31"></rect><rect class="cls-19" x="102.15" y="406.91" width="41.58" height="2.23"></rect><rect class="cls-19" x="163.03" y="159.74" width="2.69" height="69.3"></rect><line class="cls-19" x1="165.72" y1="194.39" x2="163.03" y2="194.39"></line><rect class="cls-19" x="193.44" y="35" width="2.69" height="41.58"></rect><line class="cls-14" x1="342.77" y1="134.15" x2="342.77" y2="134.9"></line><line class="cls-10" x1="342.77" y1="136.33" x2="342.77" y2="158.36"></line><polyline class="cls-14" points="342.77 159.07 342.77 159.82 342.02 159.82"></polyline><line class="cls-10" x1="340.6" y1="159.82" x2="318.57" y2="159.82"></line><polyline class="cls-14" points="317.85 159.82 317.1 159.82 317.1 159.07"></polyline><line class="cls-10" x1="317.1" y1="157.65" x2="317.1" y2="135.61"></line><polyline class="cls-14" points="317.1 134.9 317.1 134.15 317.85 134.15"></polyline><line class="cls-4" x1="319.77" y1="134.15" x2="322.63" y2="134.15"></line><line class="cls-14" x1="323.59" y1="134.15" x2="324.34" y2="134.15"></line><polyline class="cls-14" points="342.77 225.03 342.77 225.78 342.02 225.78"></polyline><line class="cls-10" x1="340.6" y1="225.78" x2="318.57" y2="225.78"></line><polyline class="cls-14" points="317.85 225.78 317.1 225.78 317.1 225.03"></polyline><line class="cls-10" x1="317.1" y1="223.61" x2="317.1" y2="201.58"></line><polyline class="cls-14" points="317.1 200.87 317.1 200.12 317.85 200.12"></polyline><line class="cls-10" x1="319.28" y1="200.12" x2="341.31" y2="200.12"></line><polyline class="cls-14" points="342.02 200.12 342.77 200.12 342.77 200.87"></polyline><line class="cls-10" x1="342.77" y1="202.29" x2="342.77" y2="224.32"></line><line class="cls-14" x1="271.17" y1="72.71" x2="273.67" y2="72.71"></line><line class="cls-7" x1="278.47" y1="72.71" x2="324.11" y2="72.71"></line><polyline class="cls-14" points="326.51 72.71 329.01 72.71 329.01 75.21"></polyline><polyline class="cls-14" points="329.01 77.61 329.01 80.11 331.51 80.11"></polyline><line class="cls-11" x1="335.12" y1="80.11" x2="340.52" y2="80.11"></line><line class="cls-14" x1="342.32" y1="80.11" x2="344.82" y2="80.11"></line><line class="cls-14" x1="329.01" y1="228.34" x2="329.01" y2="225.84"></line><line class="cls-5" x1="329.01" y1="220.72" x2="329.01" y2="151.47"></line><polyline class="cls-14" points="329.01 148.91 329.01 146.41 331.51 146.41"></polyline><line class="cls-11" x1="335.12" y1="146.41" x2="340.52" y2="146.41"></line><line class="cls-14" x1="342.32" y1="146.41" x2="344.82" y2="146.41"></line><line class="cls-14" x1="344.82" y1="134.15" x2="342.32" y2="134.15"></line><line class="cls-6" x1="337.16" y1="134.15" x2="329.42" y2="134.15"></line><polyline class="cls-14" points="326.84 134.15 324.34 134.15 324.34 131.65"></polyline><line class="cls-12" x1="324.34" y1="126.4" x2="324.34" y2="97.49"></line><polyline class="cls-14" points="324.34 94.87 324.34 92.37 326.84 92.37"></polyline><line class="cls-6" x1="332" y1="92.37" x2="339.74" y2="92.37"></line><line class="cls-14" x1="342.32" y1="92.37" x2="344.82" y2="92.37"></line><g><rect class="cls-19" x="21.74" y="147.66" width="17.6" height="7.45" rx="1.08" ry="1.08"></rect><path class="cls-19" d="M26.08,143.52c-.28,0-.54-.11-.73-.32-1.88-2.09-3.09-5.3-3.09-8.9,0-6.31,3.71-11.42,8.28-11.42s8.28,5.11,8.28,11.42c0,3.6-1.2,6.8-3.08,8.9-.19.21-.46.32-.73.32h-8.92Z"></path></g><line class="cls-19" x1="22.26" y1="134.3" x2="22.26" y2="147.82"></line><line class="cls-19" x1="38.82" y1="134.3" x2="38.82" y2="147.82"></line><polyline class="cls-19" points="51.33 155.12 51.33 130.1 110.28 130.1"></polyline><path class="cls-19" d="M81.35,147.05h9.87c.4,0,.72-.32.72-.72v-10.9c0-.4-.32-.72-.72-.72h-20.82c-.4,0-.72.32-.72.72v10.9c0,.4.32.72.72.72h9.48"></path><rect class="cls-19" x="79.88" y="144.62" width="1.47" height="5.89"></rect><circle class="cls-19" cx="80.61" cy="140.88" r=".84"></circle><line class="cls-19" x1="317.1" y1="84.62" x2="235.02" y2="84.62"></line><line class="cls-19" x1="271.17" y1="84.62" x2="271.17" y2="56.9"></line><line class="cls-19" x1="271.17" y1="82.12" x2="235.02" y2="82.12"></line><g><rect class="cls-19" x="335.27" y="179.73" width="7.83" height="1.59" rx=".54" ry=".54"></rect><path class="cls-19" d="M329.88,180.53c0-.45-.37-.82-.82-.82s-.82.37-.82.82.37.82.82.82.82-.37.82-.82Z"></path></g><polyline class="cls-19" points="341.9 179.73 341.9 177.52 340.48 177.52 340.48 179.73"></polyline><line class="cls-19" x1="340.48" y1="178.3" x2="341.9" y2="178.3"></line><polyline class="cls-19" points="339.48 179.73 339.48 168.71 319.59 168.71 319.59 192.34 339.48 192.34 339.48 181.32"></polyline><polyline class="cls-19" points="338.49 181.32 338.49 191.35 320.57 191.35 320.57 169.7 338.49 169.7 338.49 179.73"></polyline><line class="cls-19" x1="317.1" y1="84.62" x2="317.1" y2="289.1"></line><line class="cls-19" x1="317.1" y1="246.95" x2="344.82" y2="246.94"></line><line class="cls-19" x1="317.1" y1="228.35" x2="344.82" y2="228.34"></line><line class="cls-19" x1="319.6" y1="246.95" x2="319.6" y2="289.1"></line><line class="cls-19" x1="319.6" y1="228.34" x2="319.6" y2="246.95"></line><rect class="cls-19" x="118.94" y="162.78" width="38.03" height="30.61"></rect><rect class="cls-19" x="118.94" y="195.39" width="38.03" height="30.61"></rect><line class="cls-19" x1="26.94" y1="42.24" x2="26.94" y2="39.03"></line><g><path class="cls-19" d="M26.94,38.17v-11.6c0-1.38,1.12-2.5,2.5-2.5h61.83c1.38.01,2.5,1.13,2.5,2.51v24.04c0,1.38-1.12,2.5-2.5,2.5H29.44c-1.38-.01-2.5-1.13-2.5-2.51v-8.37"></path><path class="cls-19" d="M22.92,39.03h10.86c.24,0,.43-.19.43-.43s-.19-.43-.43-.43h-10.81"></path><path class="cls-19" d="M32.69,38.17c.17-.46.61-.79,1.14-.79.67,0,1.21.54,1.21,1.21s-.54,1.21-1.21,1.21c-.51,0-.95-.32-1.13-.77"></path><path class="cls-19" d="M28.66,38.17c.22-2.66,2.45-4.76,5.17-4.76,2.86,0,5.18,2.32,5.18,5.18,0,2.86-2.32,5.18-5.18,5.18-2.71,0-4.94-2.09-5.16-4.74"></path></g><rect class="cls-19" x="21.95" y="36.05" width=".97" height="5.08"></rect><line class="cls-19" x1="21.95" y1="56.82" x2="98.17" y2="56.82"></line><line class="cls-19" x1="21.95" y1="58.1" x2="98.13" y2="58.11"></line><line class="cls-19" x1="26.63" y1="58.1" x2="26.63" y2="56.82"></line><line class="cls-19" x1="64.63" y1="58.1" x2="64.63" y2="56.82"></line><rect class="cls-19" x="318.1" y="94.77" width="24.28" height="36.98"></rect><rect class="cls-19" x="319.19" y="95.85" width="22.12" height="34.82"></rect><circle class="cls-19" cx="321.22" cy="113.26" r="1.28"></circle><line class="cls-19" x1="319.18" y1="95.85" x2="318.1" y2="94.77"></line><line class="cls-19" x1="319.19" y1="130.67" x2="318.11" y2="131.75"></line><line class="cls-19" x1="341.3" y1="130.67" x2="342.38" y2="131.75"></line><line class="cls-19" x1="341.3" y1="95.85" x2="342.38" y2="94.77"></line><polygon class="cls-19" points="321.22 114.31 322.27 113.26 321.22 112.21 320.16 113.26 321.22 114.31"></polygon><line class="cls-19" x1="322.27" y1="113.26" x2="320.16" y2="113.26"></line><g><path class="cls-18" d="M212.45,53.89c-1.51.03-3.03.06-4.57.13-.8.04-1.6.09-2.35.13-.57.03-1.11.07-1.78.16-.65.09-1.42.25-1.73-.23-.07-.11-.12-.25-.13-.38-.06-.77,1.18-.9,2.24-.97,2.35-.15,3.74.04,5.44.16.9.06,1.9.1,2.89.14.99-.04,1.98-.08,2.89-.14,1.7-.12,3.09-.3,5.44-.16,1.05.07,2.3.2,2.24.97-.01.13-.06.27-.12.38-.31.48-1.08.32-1.73.23-.67-.1-1.21-.13-1.78-.16-.75-.04-1.56-.09-2.35-.13-1.55-.07-3.06-.1-4.57-.13Z"></path><path class="cls-18" d="M212.45,49.2c-1.51.03-3.03.06-4.57.13-.8.04-1.6.09-2.35.13-.57.03-1.11.07-1.78.16-.65.09-1.42.25-1.73-.23-.07-.11-.12-.25-.13-.38-.06-.77,1.18-.9,2.24-.97,2.35-.15,3.74.04,5.44.16.9.06,1.9.1,2.89.14.99-.04,1.98-.08,2.89-.14,1.7-.12,3.09-.3,5.44-.16,1.05.07,2.3.2,2.24.97-.01.13-.06.27-.12.38-.31.48-1.08.32-1.73.23-.67-.1-1.21-.13-1.78-.16-.75-.04-1.56-.09-2.35-.13-1.55-.07-3.06-.1-4.57-.13Z"></path><path class="cls-18" d="M212.45,44.51c-1.51.03-3.03.06-4.57.13-.8.04-1.6.09-2.35.13-.57.03-1.11.07-1.78.16-.65.09-1.42.25-1.73-.23-.07-.11-.12-.25-.13-.38-.06-.77,1.18-.9,2.24-.97,2.35-.15,3.74.04,5.44.16.9.06,1.9.1,2.89.14.99-.04,1.98-.08,2.89-.14,1.7-.12,3.09-.3,5.44-.16,1.05.07,2.3.2,2.24.97-.01.13-.06.27-.12.38-.31.48-1.08.33-1.73.23-.67-.1-1.21-.13-1.78-.16-.75-.04-1.56-.09-2.35-.13-1.55-.07-3.06-.1-4.57-.13Z"></path></g><line class="cls-18" x1="212.45" y1="18.83" x2="212.45" y2="78.89"></line><line class="cls-18" x1="15.57" y1="396.56" x2="143.73" y2="396.56"></line><polyline class="cls-18" points="151.86 450.8 157.66 450.8 157.66 497.59 188.28 497.67 224.63 497.39 260.99 496.83 297.23 495.82 346.09 493.86"></polyline><polyline class="cls-18" points="151.86 450.8 151.86 503.37 188.27 503.47 224.67 503.19 261.08 502.63 297.39 501.62 333.8 500.14 342.39 499.77 346.36 499.58"></polyline><line class="cls-18" x1="362.83" y1="504.54" x2="362.83" y2="498.81"></line><polyline class="cls-18" points="143.73 503.1 107.51 502.63 71.38 501.8 35.25 500.79 1.64 499.41 1.64 493.49"></polyline><rect class="cls-13" x="8.64" y="402.29" width="135.09" height="2.31"></rect><polygon class="cls-13" points="362.83 506.83 352 507.44 317.35 508.92 282.61 510.12 247.86 510.95 213.21 511.41 178.47 511.6 143.73 511.32 143.73 450.8 146.04 450.8 146.04 509.1 180.41 509.29 214.69 509.1 249.07 508.64 283.35 507.81 317.72 506.61 352 505.13 362.83 504.55 362.83 506.83"></polygon><polyline class="cls-13" points="151.86 503.37 151.86 501.71 146.04 507.44 146.04 509.1 147.7 509.1 153.52 503.37 151.86 503.37"></polyline><rect class="cls-13" x="142.62" y="396.56" width="2.31" height="5.73"></rect><rect class="cls-13" x="143.73" y="402.29" width="8.13" height="4.62"></rect><rect class="cls-13" x="143.73" y="448.49" width="8.13" height="2.31"></rect><rect class="cls-13" x="83.67" y="396.56" width="2.31" height="5.73"></rect><rect class="cls-13" x="14.37" y="396.56" width="2.31" height="5.73"></rect><rect class="cls-13" x="8.64" y="396.56" width="2.31" height="5.73"></rect><polygon class="cls-13" points="347.57 499.53 347.84 505.31 345.53 505.41 345.25 499.64 347.57 499.53"></polygon><polygon class="cls-13" points="313 500.98 313.19 506.77 310.88 506.85 310.69 501.08 313 500.98"></polygon><rect class="cls-13" x="241.63" y="502.91" width="2.31" height="5.81" transform="translate(-7.98 3.91) rotate(-.91)"></rect><rect class="cls-13" x="172.37" y="503.47" width="2.31" height="5.78"></rect><polygon class="cls-20" points="125.9 30.38 125.9 20.38 119.52 20.38 119.52 8.83 1.64 8.83 1.64 493.49 8.64 493.95 8.64 396.56 15.57 396.56 15.57 238.28 64.08 238.28 64.08 236.52 24.81 236.52 24.81 234.21 64.08 234.21 64.08 232.46 9.75 232.46 9.75 163.16 110.28 163.16 110.28 232.46 105.66 232.46 105.66 238.28 159.9 238.28 159.9 242.9 165.72 242.9 165.72 229.04 159.9 229.04 159.9 232.46 116.01 232.46 116.01 156.23 159.9 156.23 159.9 159.74 165.72 159.74 165.72 148.19 116.01 148.19 116.01 104.3 110.28 104.3 110.28 155.12 9.75 155.12 9.75 58.1 21.95 58.1 21.95 18.83 98.18 18.83 98.18 58.1 110.28 58.1 110.28 62.72 116.01 62.72 116.01 30.38 125.9 30.38"></polygon><polygon class="cls-16" points="125.9 30.38 125.9 20.38 119.52 20.38 119.52 8.83 1.64 8.83 1.64 493.49 8.64 493.95 8.64 396.56 15.57 396.56 15.57 238.28 64.08 238.28 64.08 236.52 24.81 236.52 24.81 234.21 64.08 234.21 64.08 232.46 9.75 232.46 9.75 163.16 110.28 163.16 110.28 232.46 105.66 232.46 105.66 238.28 159.9 238.28 159.9 242.9 165.72 242.9 165.72 229.04 159.9 229.04 159.9 232.46 116.01 232.46 116.01 156.23 159.9 156.23 159.9 159.74 165.72 159.74 165.72 148.19 116.01 148.19 116.01 104.3 110.28 104.3 110.28 155.12 9.75 155.12 9.75 58.1 21.95 58.1 21.95 18.83 98.18 18.83 98.18 58.1 110.28 58.1 110.28 62.72 116.01 62.72 116.01 30.38 125.9 30.38"></polygon><polygon class="cls-20" points="172.19 30.33 193.44 30.33 193.44 35 199.17 35 199.17 18.83 226.89 18.83 226.89 78.89 199.17 78.89 199.17 76.58 193.49 76.58 193.49 84.62 235.02 84.62 235.02 56.9 344.82 56.9 344.82 289.1 317.1 289.1 317.1 298.34 352.83 298.34 352.83 493.49 346.09 493.86 346.36 499.58 362.83 498.81 362.83 46.9 236.89 46.9 236.89 8.83 189.17 8.83 189.17 20.33 172.19 20.33 172.19 30.33"></polygon><polygon class="cls-16" points="172.19 30.33 193.44 30.33 193.44 35 199.17 35 199.17 18.83 226.89 18.83 226.89 78.89 199.17 78.89 199.17 76.58 193.49 76.58 193.49 84.62 235.02 84.62 235.02 56.9 344.82 56.9 344.82 289.1 317.1 289.1 317.1 298.34 352.83 298.34 352.83 493.49 346.09 493.86 346.36 499.58 362.83 498.81 362.83 46.9 236.89 46.9 236.89 8.83 189.17 8.83 189.17 20.33 172.19 20.33 172.19 30.33"></polygon><polygon class="cls-20" points="159.9 284.48 159.9 390.74 143.73 390.74 143.73 396.56 151.86 396.56 151.86 404.6 157.59 404.6 157.59 396.56 165.72 396.56 165.72 284.48 159.9 284.48"></polygon><polygon class="cls-16" points="159.9 284.48 159.9 390.74 143.73 390.74 143.73 396.56 151.86 396.56 151.86 404.6 157.59 404.6 157.59 396.56 165.72 396.56 165.72 284.48 159.9 284.48"></polygon><g><path class="cls-22" d="M149.18,8.22c-.02.08-.07.14-.14.14s-.13-.06-.14-.14c-.56-3.3-2.74-4.94-6.02-4.94h-3.84c-1.16,0-1.98-1.01-2.2-2.66-.05-.34.23-.61.47-.46.46.31,1.06.47,1.78.47h3.48c2.95,0,5.22,1.67,6.17,4.98.11.37.5.37.61,0,.96-3.31,3.22-4.98,6.18-4.98h3.48c.72,0,1.32-.16,1.78-.47.23-.16.51.12.47.46-.22,1.64-1.05,2.66-2.21,2.66h-3.84c-3.29,0-5.47,1.64-6.02,4.95h0Z"></path><path class="cls-17" d="M149.18,8.22c-.02.08-.07.14-.14.14s-.13-.06-.14-.14c-.56-3.3-2.74-4.94-6.02-4.94h-3.84c-1.16,0-1.98-1.01-2.2-2.66-.05-.34.23-.61.47-.46.46.31,1.06.47,1.78.47h3.48c2.95,0,5.22,1.67,6.17,4.98.11.37.5.37.61,0,.96-3.31,3.22-4.98,6.18-4.98h3.48c.72,0,1.32-.16,1.78-.47.23-.16.51.12.47.46-.22,1.64-1.05,2.66-2.21,2.66h-3.84c-3.29,0-5.47,1.64-6.02,4.95h0Z"></path></g><g><path class="cls-20" d="M38.41,313.3h2.52c1.9,0,2.97.89,2.97,2.53s-1.07,2.54-2.97,2.54h-1.72v3.99h-.8v-9.06ZM40.85,317.65c1.41,0,2.24-.61,2.24-1.81s-.81-1.81-2.24-1.81h-1.64v3.62h1.64Z"></path><path class="cls-20" d="M45.42,315.95h.78v1.09c.43-.78,1.31-1.18,2.02-1.18.33,0,.66.07.99.24l-.39.7c-.21-.1-.51-.17-.77-.17-.68,0-1.46.36-1.74,1.3-.08.27-.12.57-.12,1.27v3.15h-.78v-6.41Z"></path><path class="cls-20" d="M50.47,313.3h.94v1.39h-.94v-1.39ZM50.56,315.95h.77v6.41h-.77v-6.41Z"></path><path class="cls-20" d="M53.36,315.95h.78v1.1c.38-.84,1.11-1.19,1.88-1.19.91,0,1.57.4,1.89,1.25.4-.83,1.09-1.25,2-1.25,1.55,0,2.13,1.16,2.13,2.68v3.82h-.78v-3.64c0-1.33-.39-2.18-1.52-2.18-1.02,0-1.65.77-1.65,2.26v3.57h-.78v-3.76c0-1.4-.52-2.07-1.5-2.07-1.03,0-1.67.79-1.67,2.26v3.57h-.78v-6.41Z"></path><path class="cls-20" d="M68.19,321.16c-.43.82-1.25,1.29-2.25,1.29-1.44,0-2.31-.77-2.31-1.94,0-.69.29-1.16.72-1.44.46-.31,1.09-.42,1.77-.42h2.05v-.28c0-1.19-.62-1.83-1.82-1.83-.79,0-1.4.29-1.98,1.02l-.56-.48c.68-.84,1.53-1.21,2.59-1.21,1.63,0,2.54.89,2.54,2.51v3.99h-.71l-.04-1.2ZM66.01,321.81c1.18,0,2.17-.93,2.17-2.2v-.36h-1.95c-.51,0-1.03.08-1.37.32-.28.21-.44.51-.44.94,0,.79.6,1.3,1.6,1.3Z"></path><path class="cls-20" d="M70.9,315.95h.78v1.09c.43-.78,1.31-1.18,2.02-1.18.33,0,.66.07.99.24l-.39.7c-.21-.1-.51-.17-.77-.17-.68,0-1.46.36-1.74,1.3-.08.27-.12.57-.12,1.27v3.15h-.78v-6.41Z"></path><path class="cls-20" d="M77.95,322.16l-2.55-6.21h.86l2.1,5.42,2.11-5.42h.85l-3.69,9.05h-.84l1.17-2.84Z"></path><path class="cls-20" d="M86.21,313.3h2.72c1.68,0,2.68.84,2.68,2.25,0,.94-.46,1.68-1.24,2,1.1.25,1.7,1.07,1.7,2.31,0,1.61-1.02,2.5-2.88,2.5h-2.97v-9.06ZM89.19,317.3c.98,0,1.63-.64,1.63-1.64s-.69-1.61-1.88-1.61h-1.91v3.26h2.16ZM89.13,321.62c1.42,0,2.14-.6,2.14-1.79,0-1.13-.66-1.79-1.79-1.79h-2.46v3.58h2.11Z"></path><path class="cls-20" d="M93.54,319.2c0-1.84.99-3.34,2.81-3.34,1.96,0,2.76,1.53,2.76,2.94,0,.1-.01.4-.04.55h-4.76c.03,1.51.84,2.39,2.14,2.39.82,0,1.35-.23,1.91-.83l.55.49c-.73.75-1.43,1.05-2.46,1.05-1.89,0-2.91-1.41-2.91-3.25ZM98.36,318.77c0-.08,0-.16,0-.24,0-.92-.58-2.01-2-2.01-1.23,0-1.98.98-2.07,2.26h4.06Z"></path><path class="cls-20" d="M100.52,319.15c0-1.96,1.29-3.29,2.92-3.29,1.05,0,1.87.54,2.29,1.36v-3.92h.77v9.06h-.77v-1.26c-.44.84-1.25,1.35-2.29,1.35-1.72,0-2.92-1.42-2.92-3.3ZM103.56,321.73c1.3,0,2.23-1.08,2.23-2.58s-.93-2.58-2.23-2.58-2.26,1.09-2.26,2.58.95,2.58,2.26,2.58Z"></path><path class="cls-20" d="M108.54,315.95h.78v1.09c.43-.78,1.31-1.18,2.02-1.18.33,0,.66.07.99.24l-.39.7c-.21-.1-.51-.17-.77-.17-.68,0-1.46.36-1.74,1.3-.08.27-.12.57-.12,1.27v3.15h-.78v-6.41Z"></path><path class="cls-20" d="M112.92,319.15c0-1.92,1.25-3.29,3.05-3.29s3.04,1.37,3.04,3.29-1.27,3.3-3.04,3.3-3.05-1.37-3.05-3.3ZM115.97,321.76c1.37,0,2.26-1.04,2.26-2.61s-.9-2.61-2.26-2.61-2.28,1.05-2.28,2.61.9,2.61,2.28,2.61Z"></path><path class="cls-20" d="M120.45,319.15c0-1.92,1.25-3.29,3.05-3.29s3.04,1.37,3.04,3.29-1.27,3.3-3.04,3.3-3.05-1.37-3.05-3.3ZM123.5,321.76c1.37,0,2.26-1.04,2.26-2.61s-.9-2.61-2.26-2.61-2.28,1.05-2.28,2.61.9,2.61,2.28,2.61Z"></path><path class="cls-20" d="M128.29,315.95h.78v1.1c.38-.84,1.11-1.19,1.88-1.19.91,0,1.57.4,1.89,1.25.4-.83,1.09-1.25,2-1.25,1.55,0,2.13,1.16,2.13,2.68v3.82h-.78v-3.64c0-1.33-.39-2.18-1.52-2.18-1.02,0-1.65.77-1.65,2.26v3.57h-.78v-3.76c0-1.4-.52-2.07-1.5-2.07-1.03,0-1.67.79-1.67,2.26v3.57h-.78v-6.41Z"></path></g><g><path class="cls-20" d="M206.98,214.48h2.43c2.94,0,4.62,1.68,4.62,4.6s-1.64,4.46-4.63,4.46h-2.42v-9.06ZM209.33,222.8c2.5,0,3.89-1.16,3.89-3.74s-1.4-3.83-3.82-3.83h-1.61v7.57h1.54Z"></path><path class="cls-20" d="M215.64,214.48h.94v1.39h-.94v-1.39ZM215.72,217.13h.77v6.41h-.77v-6.41Z"></path><path class="cls-20" d="M218.53,217.13h.78v1.05c.4-.76,1.12-1.14,2.01-1.14,1.38,0,2.2.81,2.2,2.51v3.99h-.78v-3.71c0-1.45-.55-2.11-1.61-2.11-1.16,0-1.83.79-1.83,2.55v3.27h-.78v-6.41Z"></path><path class="cls-20" d="M225.41,214.48h.94v1.39h-.94v-1.39ZM225.49,217.13h.77v6.41h-.77v-6.41Z"></path><path class="cls-20" d="M228.3,217.13h.78v1.05c.4-.76,1.12-1.14,2.01-1.14,1.38,0,2.2.81,2.2,2.51v3.99h-.78v-3.71c0-1.45-.55-2.11-1.61-2.11-1.16,0-1.83.79-1.83,2.55v3.27h-.78v-6.41Z"></path><path class="cls-20" d="M234.75,224.3s0-.1.03-.26l1.11-.88c-.57-.22-.96-.59-.96-1.26,0-.53.27-.9.72-1.2-.36-.37-.56-.87-.56-1.45,0-1.3,1.04-2.2,2.39-2.2.64,0,1.22.21,1.64.59l1.02-.86.4.49-1,.88c.19.33.3.71.3,1.14,0,1.28-.96,2.13-2.33,2.13-.53,0-.99-.12-1.37-.34-.31.18-.45.42-.45.72,0,.66.63.83,1.62.98,1.6.25,2.99.44,2.99,1.75,0,1.16-1.05,1.78-2.7,1.78-1.82,0-2.85-.7-2.85-2ZM237.61,225.69c1.09,0,1.92-.34,1.92-1.08,0-.86-1.16-.96-2.31-1.14-.31-.05-.6-.1-.89-.17l-.8.92c-.01.09-.01.11-.01.15,0,.9.79,1.33,2.09,1.33ZM237.48,220.77c.98,0,1.59-.65,1.59-1.53s-.64-1.56-1.58-1.56-1.62.65-1.62,1.55.63,1.55,1.61,1.55Z"></path><path class="cls-20" d="M245.24,214.48h2.52c1.99,0,2.97.93,2.97,2.5,0,1.25-.64,2.07-1.85,2.38l2.44,4.19h-.92l-2.34-4.07c-.21,0-.44,0-.65,0h-1.36v4.06h-.81v-9.06ZM247.68,218.76c1.38,0,2.24-.55,2.24-1.78s-.88-1.77-2.24-1.77h-1.64v3.56h1.64Z"></path><path class="cls-20" d="M252.24,220.33c0-1.92,1.25-3.29,3.05-3.29s3.04,1.37,3.04,3.29-1.27,3.3-3.04,3.3-3.05-1.36-3.05-3.3ZM255.29,222.94c1.37,0,2.26-1.04,2.26-2.61s-.9-2.61-2.26-2.61-2.28,1.05-2.28,2.61.9,2.61,2.28,2.61Z"></path><path class="cls-20" d="M259.78,220.33c0-1.92,1.25-3.29,3.05-3.29s3.04,1.37,3.04,3.29-1.27,3.3-3.04,3.3-3.05-1.36-3.05-3.3ZM262.83,222.94c1.37,0,2.26-1.04,2.26-2.61s-.9-2.61-2.26-2.61-2.28,1.05-2.28,2.61.9,2.61,2.28,2.61Z"></path><path class="cls-20" d="M267.62,217.13h.78v1.1c.38-.85,1.11-1.19,1.88-1.19.91,0,1.57.4,1.89,1.25.4-.83,1.09-1.25,2-1.25,1.55,0,2.13,1.16,2.13,2.69v3.82h-.78v-3.64c0-1.33-.39-2.18-1.52-2.18-1.02,0-1.65.77-1.65,2.26v3.57h-.78v-3.76c0-1.4-.52-2.07-1.5-2.07-1.03,0-1.67.79-1.67,2.26v3.57h-.78v-6.41Z"></path></g><g><path class="cls-20" d="M225.85,391.06h.81v8.33h4.18v.73h-4.99v-9.06Z"></path><path class="cls-20" d="M231.97,391.06h.94v1.39h-.94v-1.39ZM232.06,393.71h.77v6.41h-.77v-6.41Z"></path><path class="cls-20" d="M234.23,393.71h.86l2.1,5.42,2.11-5.42h.85l-2.61,6.41h-.68l-2.63-6.41Z"></path><path class="cls-20" d="M241.48,391.06h.94v1.39h-.94v-1.39ZM241.56,393.71h.77v6.41h-.77v-6.41Z"></path><path class="cls-20" d="M244.37,393.71h.78v1.05c.4-.76,1.12-1.14,2.01-1.14,1.38,0,2.2.81,2.2,2.51v3.99h-.78v-3.71c0-1.45-.55-2.11-1.61-2.11-1.16,0-1.83.79-1.83,2.55v3.27h-.78v-6.41Z"></path><path class="cls-20" d="M250.83,400.88s0-.1.03-.26l1.11-.88c-.57-.22-.96-.59-.96-1.26,0-.53.27-.9.72-1.2-.36-.37-.56-.87-.56-1.45,0-1.3,1.04-2.2,2.38-2.2.64,0,1.22.21,1.64.58l1.02-.86.4.49-1,.88c.19.33.3.71.3,1.14,0,1.28-.96,2.13-2.33,2.13-.53,0-.99-.12-1.37-.34-.31.17-.45.42-.45.71,0,.66.63.83,1.62.98,1.6.25,2.99.44,2.99,1.75,0,1.16-1.05,1.78-2.7,1.78-1.82,0-2.85-.7-2.85-2ZM253.69,402.27c1.09,0,1.92-.34,1.92-1.08,0-.86-1.16-.96-2.31-1.14-.31-.05-.6-.1-.89-.17l-.8.92c-.01.09-.01.11-.01.15,0,.9.79,1.33,2.09,1.33ZM253.56,397.35c.98,0,1.59-.65,1.59-1.53s-.64-1.56-1.58-1.56-1.62.65-1.62,1.55.63,1.55,1.61,1.55Z"></path><path class="cls-20" d="M261.31,391.06h2.52c1.99,0,2.97.93,2.97,2.5,0,1.25-.64,2.07-1.85,2.38l2.44,4.19h-.92l-2.34-4.07c-.21,0-.44,0-.65,0h-1.36v4.06h-.81v-9.06ZM263.76,395.34c1.38,0,2.24-.55,2.24-1.78s-.88-1.77-2.24-1.77h-1.64v3.56h1.64Z"></path><path class="cls-20" d="M268.32,396.91c0-1.92,1.25-3.29,3.05-3.29s3.04,1.37,3.04,3.29-1.27,3.3-3.04,3.3-3.05-1.37-3.05-3.3ZM271.37,399.52c1.37,0,2.26-1.04,2.26-2.61s-.9-2.61-2.26-2.61-2.28,1.05-2.28,2.61.9,2.61,2.28,2.61Z"></path><path class="cls-20" d="M275.85,396.91c0-1.92,1.25-3.29,3.05-3.29s3.04,1.37,3.04,3.29-1.27,3.3-3.04,3.3-3.05-1.37-3.05-3.3ZM278.9,399.52c1.37,0,2.26-1.04,2.26-2.61s-.9-2.61-2.26-2.61-2.28,1.05-2.28,2.61.9,2.61,2.28,2.61Z"></path><path class="cls-20" d="M283.69,393.71h.78v1.1c.38-.84,1.11-1.19,1.88-1.19.91,0,1.57.4,1.89,1.25.4-.83,1.09-1.25,2-1.25,1.55,0,2.13,1.16,2.13,2.68v3.82h-.78v-3.64c0-1.33-.39-2.18-1.52-2.18-1.02,0-1.65.77-1.65,2.26v3.57h-.78v-3.76c0-1.4-.52-2.07-1.5-2.07-1.03,0-1.67.79-1.67,2.26v3.57h-.78v-6.41Z"></path></g><g><path class="cls-20" d="M62.64,444.16h2.43c2.94,0,4.62,1.68,4.62,4.6s-1.64,4.46-4.63,4.46h-2.42v-9.06ZM64.99,452.48c2.5,0,3.89-1.16,3.89-3.74s-1.4-3.83-3.82-3.83h-1.61v7.57h1.54Z"></path><path class="cls-20" d="M71.15,450.06c0-1.84.99-3.34,2.81-3.34,1.96,0,2.76,1.53,2.76,2.94,0,.1-.01.4-.04.55h-4.76c.03,1.51.84,2.39,2.14,2.39.82,0,1.35-.23,1.91-.83l.55.49c-.73.75-1.43,1.05-2.46,1.05-1.89,0-2.91-1.41-2.91-3.25ZM75.96,449.64c0-.08,0-.16,0-.24,0-.92-.58-2.01-2-2.01-1.23,0-1.98.98-2.07,2.26h4.06Z"></path><path class="cls-20" d="M78.13,450.01c0-1.83,1.06-3.29,2.86-3.29,1.17,0,2.09.58,2.51,1.74l-.7.27c-.27-.82-.9-1.33-1.81-1.33-1.42,0-2.09,1.25-2.09,2.61s.68,2.62,2.09,2.62c.91,0,1.53-.51,1.81-1.33l.7.27c-.42,1.16-1.34,1.75-2.51,1.75-1.8,0-2.86-1.46-2.86-3.3Z"></path><path class="cls-20" d="M87.19,449.69l-1.3,1.37v2.16h-.78v-9.06h.78v5.9l3.15-3.24h1.01l-2.28,2.35,2.67,4.06h-.92l-2.31-3.53Z"></path></g><g><path class="cls-20" d="M253.31,108.44h.81v4.86l4.65-4.86h1.09l-3.45,3.54,3.48,5.52h-.95l-3.11-4.93-1.71,1.76v3.17h-.81v-9.06Z"></path><path class="cls-20" d="M261.04,108.44h.94v1.39h-.94v-1.39ZM261.13,111.09h.77v6.41h-.77v-6.41Z"></path><path class="cls-20" d="M264.69,116.02v-4.31h-1.42v-.62h1.42v-1.85l.79-.46v2.31h1.54v.62h-1.54v4.12c0,.71.22,1.11.81,1.11.19,0,.46-.04.73-.12v.62c-.32.1-.64.16-.92.16-.85,0-1.4-.49-1.4-1.57Z"></path><path class="cls-20" d="M268.05,114.29c0-1.83,1.06-3.29,2.86-3.29,1.17,0,2.09.58,2.51,1.74l-.7.27c-.27-.82-.9-1.33-1.81-1.33-1.42,0-2.09,1.25-2.09,2.61s.68,2.62,2.09,2.62c.91,0,1.53-.51,1.81-1.33l.7.27c-.42,1.16-1.34,1.75-2.51,1.75-1.8,0-2.86-1.46-2.86-3.3Z"></path><path class="cls-20" d="M275.05,108.44h.78v3.69c.4-.75,1.1-1.13,2.01-1.13,1.4,0,2.2.85,2.2,2.51v3.99h-.78v-3.71c0-1.43-.53-2.11-1.61-2.11-1.18,0-1.83.83-1.83,2.55v3.27h-.78v-9.06Z"></path><path class="cls-20" d="M281.68,114.34c0-1.84.99-3.34,2.81-3.34,1.96,0,2.76,1.53,2.76,2.94,0,.1-.01.4-.04.55h-4.76c.03,1.51.84,2.39,2.14,2.39.82,0,1.35-.23,1.91-.83l.55.49c-.73.75-1.43,1.05-2.46,1.05-1.89,0-2.91-1.41-2.91-3.25ZM286.5,113.91c0-.08,0-.16,0-.24,0-.92-.58-2.02-2-2.02-1.23,0-1.98.98-2.07,2.26h4.06Z"></path><path class="cls-20" d="M288.98,111.09h.78v1.05c.4-.76,1.12-1.14,2.01-1.14,1.38,0,2.2.81,2.2,2.51v3.99h-.78v-3.71c0-1.45-.55-2.11-1.61-2.11-1.16,0-1.83.79-1.83,2.55v3.27h-.78v-6.41Z"></path></g><path class="cls-20" d="M243.88,69.66c0-2.17,1.27-3.59,3.16-3.59s3.18,1.42,3.18,3.59-1.27,3.58-3.18,3.58-3.16-1.42-3.16-3.58ZM247.03,72.65c1.57,0,2.55-1.16,2.55-2.99s-.99-3-2.55-3-2.54,1.15-2.54,3,.99,2.99,2.54,2.99Z"></path><path class="cls-20" d="M253.91,65.17h.48l-3.55,9.08h-.47l3.55-9.08Z"></path><path class="cls-20" d="M255.61,66.17h.93l2.35,5.66,2.35-5.66h.92v6.98h-.62v-6.16l-2.35,5.59h-.61l-2.36-5.59v6.16h-.62v-6.98Z"></path><g><path class="cls-20" d="M324.46,263.87h1.94c1.53,0,2.29.72,2.29,1.92,0,.97-.5,1.6-1.43,1.83l1.88,3.22h-.71l-1.8-3.13c-.16,0-.34,0-.5,0h-1.05v3.13h-.62v-6.98ZM326.35,267.17c1.06,0,1.73-.43,1.73-1.37s-.68-1.37-1.73-1.37h-1.26v2.74h1.26Z"></path><path class="cls-20" d="M330.32,263.87h4.56v.56h-3.94v2.59h3.53v.56h-3.53v2.7h3.94v.56h-4.56v-6.98Z"></path><path class="cls-20" d="M336.17,263.87h4.51v.56h-3.89v2.59h3.38v.56h-3.38v3.26h-.62v-6.98Z"></path></g><path class="cls-20" d="M330.41,233.99h1.94c1.46,0,2.29.69,2.29,1.95s-.83,1.96-2.29,1.96h-1.33v3.07h-.62v-6.98ZM332.29,237.33c1.09,0,1.73-.47,1.73-1.4s-.62-1.39-1.73-1.39h-1.27v2.79h1.27Z"></path><g><path class="cls-20" d="M322.71,209.33h.65l1.71,6.06,1.76-5.7h.63l1.76,5.7,1.7-6.06h.65l-2.01,6.98h-.63l-1.79-5.71-1.79,5.71h-.64l-2.01-6.98Z"></path><path class="cls-20" d="M332.71,209.33h4.51v.56h-3.89v2.59h3.38v.56h-3.38v3.26h-.62v-6.98Z"></path></g><g><path class="cls-20" d="M322.78,143.21h1.87c2.26,0,3.56,1.29,3.56,3.54s-1.27,3.43-3.57,3.43h-1.86v-6.98ZM324.59,149.61c1.92,0,2.99-.89,2.99-2.88s-1.08-2.95-2.94-2.95h-1.24v5.83h1.19Z"></path><path class="cls-20" d="M328.87,143.21h.65l1.71,6.06,1.76-5.7h.63l1.76,5.7,1.7-6.06h.65l-2.01,6.98h-.63l-1.79-5.71-1.79,5.71h-.64l-2.01-6.98Z"></path></g><path class="cls-20" d="M133.29,174.48h.65l1.71,6.06,1.76-5.7h.63l1.76,5.7,1.7-6.06h.65l-2.01,6.98h-.63l-1.79-5.71-1.79,5.71h-.64l-2.01-6.98Z"></path><path class="cls-20" d="M135.14,206.52h1.87c2.26,0,3.56,1.29,3.56,3.54s-1.27,3.43-3.57,3.43h-1.86v-6.98ZM136.95,212.92c1.92,0,2.99-.89,2.99-2.88s-1.08-2.95-2.94-2.95h-1.24v5.83h1.19Z"></path><g><path class="cls-20" d="M50.84,193.95h.65l1.71,6.06,1.76-5.7h.63l1.76,5.7,1.7-6.06h.65l-2.01,6.98h-.63l-1.79-5.71-1.79,5.71h-.64l-2.01-6.98Z"></path><path class="cls-20" d="M60.85,193.95h.62v6.98h-.62v-6.98Z"></path><path class="cls-20" d="M62.9,197.44c0-2.16,1.26-3.58,3.16-3.58,1.35,0,2.39.71,2.84,1.89l-.58.22c-.38-.96-1.17-1.52-2.26-1.52-1.55,0-2.54,1.17-2.54,2.99s.99,3,2.54,3c1.09,0,1.89-.56,2.26-1.52l.58.22c-.45,1.18-1.49,1.9-2.84,1.9-1.89,0-3.16-1.42-3.16-3.59Z"></path></g><g><path class="cls-20" d="M138.96,108.44h5.86v.73h-5.06v3.37h4.39v.73h-4.39v4.24h-.81v-9.06Z"></path><path class="cls-20" d="M145.55,114.29c0-1.92,1.25-3.29,3.05-3.29s3.04,1.36,3.04,3.29-1.27,3.3-3.04,3.3-3.05-1.36-3.05-3.3ZM148.6,116.9c1.37,0,2.26-1.04,2.26-2.61s-.9-2.61-2.26-2.61-2.28,1.05-2.28,2.61.9,2.61,2.28,2.61Z"></path><path class="cls-20" d="M155.11,117.3l-2.55-6.21h.86l2.1,5.42,2.11-5.42h.85l-3.69,9.05h-.84l1.17-2.84Z"></path><path class="cls-20" d="M159.44,114.34c0-1.84.99-3.34,2.81-3.34,1.96,0,2.76,1.53,2.76,2.94,0,.1-.01.4-.04.55h-4.76c.03,1.51.84,2.39,2.14,2.39.82,0,1.35-.23,1.91-.83l.55.49c-.73.75-1.43,1.05-2.46,1.05-1.89,0-2.91-1.41-2.91-3.25ZM164.26,113.91c0-.08,0-.16,0-.24,0-.92-.58-2.02-2-2.02-1.23,0-1.98.98-2.07,2.26h4.06Z"></path><path class="cls-20" d="M166.74,111.09h.78v1.09c.43-.78,1.31-1.18,2.02-1.18.33,0,.66.07.99.24l-.39.7c-.21-.1-.51-.17-.77-.17-.68,0-1.46.36-1.74,1.3-.08.27-.12.57-.12,1.27v3.15h-.78v-6.41Z"></path></g><g><path class="cls-24" d="M22.7,550.6h1.67c1.03,0,1.65.52,1.65,1.38,0,.58-.28,1.03-.76,1.23.68.16,1.04.66,1.04,1.42,0,.99-.63,1.54-1.77,1.54h-1.83v-5.57ZM24.53,553.06c.6,0,1-.39,1-1.01s-.42-.99-1.16-.99h-1.17v2h1.33ZM24.5,555.71c.88,0,1.32-.37,1.32-1.1,0-.7-.41-1.1-1.1-1.1h-1.51v2.2h1.3Z"></path><path class="cls-24" d="M27.37,554.68v-2.45h.47v2.28c0,.89.34,1.29,1,1.29.71,0,1.13-.48,1.13-1.57v-2.01h.48v3.94h-.48v-.65c-.25.47-.7.7-1.25.7-.84,0-1.35-.51-1.35-1.55Z"></path><path class="cls-24" d="M31.72,550.6h.58v.86h-.58v-.86ZM31.77,552.23h.47v3.94h-.47v-3.94Z"></path><path class="cls-24" d="M33.58,555.35v-4.75h.48v4.67c0,.37.14.52.39.52.1,0,.24-.02.38-.07v.41c-.18.07-.37.1-.52.1-.44,0-.72-.27-.72-.88Z"></path><path class="cls-24" d="M35.45,554.19c0-1.21.79-2.02,1.8-2.02.64,0,1.15.33,1.41.84v-2.41h.47v5.57h-.47v-.78c-.27.52-.77.83-1.41.83-1.06,0-1.8-.88-1.8-2.03ZM37.32,555.78c.8,0,1.37-.66,1.37-1.59s-.57-1.59-1.37-1.59-1.39.67-1.39,1.59.58,1.59,1.39,1.59Z"></path><path class="cls-24" d="M40.41,550.6h.58v.86h-.58v-.86ZM40.46,552.23h.47v3.94h-.47v-3.94Z"></path><path class="cls-24" d="M42.27,552.23h.48v.64c.25-.47.69-.7,1.24-.7.85,0,1.36.5,1.36,1.54v2.46h-.48v-2.28c0-.89-.34-1.3-.99-1.3-.71,0-1.13.48-1.13,1.57v2.01h-.48v-3.94Z"></path><path class="cls-24" d="M46.31,556.64s0-.06.02-.16l.68-.54c-.35-.14-.59-.36-.59-.78,0-.32.16-.55.44-.74-.22-.23-.34-.54-.34-.89,0-.8.64-1.36,1.47-1.36.4,0,.75.13,1.01.36l.63-.53.24.3-.62.54c.12.2.18.44.18.7,0,.79-.59,1.31-1.44,1.31-.32,0-.61-.08-.84-.21-.19.11-.28.26-.28.44,0,.41.39.51,1,.6.98.15,1.84.27,1.84,1.08,0,.72-.64,1.1-1.66,1.1-1.12,0-1.75-.43-1.75-1.23ZM48.07,557.49c.67,0,1.18-.21,1.18-.66,0-.53-.71-.59-1.42-.7-.19-.03-.37-.06-.55-.1l-.49.56c0,.06,0,.07,0,.09,0,.55.49.82,1.29.82ZM47.99,554.46c.6,0,.98-.4.98-.94s-.39-.96-.97-.96-1,.4-1,.95.39.95.99.95Z"></path><path class="cls-24" d="M54.48,550.6h.42l2.05,5.57h-.54l-.51-1.45h-2.42l-.51,1.45h-.55l2.05-5.57ZM55.75,554.27l-1.05-2.99-1.06,2.99h2.11Z"></path><path class="cls-24" d="M58.27,555.39v.78h-.47v-5.57h.47v2.41c.26-.5.77-.84,1.41-.84,1,0,1.79.82,1.79,2.02s-.74,2.03-1.79,2.03c-.64,0-1.14-.31-1.41-.83ZM59.61,555.78c.81,0,1.39-.67,1.39-1.59s-.58-1.59-1.39-1.59-1.37.66-1.37,1.59.57,1.59,1.37,1.59Z"></path><path class="cls-24" d="M62.43,554.19c0-1.18.77-2.02,1.88-2.02s1.87.84,1.87,2.02-.78,2.03-1.87,2.03-1.88-.84-1.88-2.03ZM64.31,555.8c.84,0,1.39-.64,1.39-1.6s-.55-1.6-1.39-1.6-1.4.64-1.4,1.6.56,1.6,1.4,1.6Z"></path><path class="cls-24" d="M66.83,552.23h.53l1.29,3.33,1.3-3.33h.52l-1.61,3.94h-.42l-1.61-3.94Z"></path><path class="cls-24" d="M71.15,554.23c0-1.13.61-2.05,1.73-2.05,1.21,0,1.7.94,1.7,1.81,0,.06,0,.24-.02.34h-2.93c.02.93.52,1.47,1.32,1.47.5,0,.83-.14,1.17-.51l.34.3c-.45.46-.88.65-1.51.65-1.16,0-1.79-.87-1.79-2ZM74.11,553.96s0-.1,0-.15c0-.57-.36-1.24-1.23-1.24-.75,0-1.22.6-1.27,1.39h2.49Z"></path></g><polyline class="cls-3" points="80.8 553.51 93.94 553.51 100.39 541.62"></polyline><path class="cls-23" d="M102.31,538.07l-4.52,4s2.59-.45,3.63,1.97l.89-5.97Z"></path><g><path class="cls-24" d="M159.21,561.68h.5v5.12h2.57v.45h-3.07v-5.57Z"></path><path class="cls-24" d="M165.74,566.51c-.26.5-.77.79-1.38.79-.88,0-1.42-.48-1.42-1.2,0-.42.18-.71.44-.89.28-.19.67-.26,1.09-.26h1.26v-.17c0-.73-.38-1.13-1.12-1.13-.48,0-.86.18-1.22.63l-.34-.3c.42-.52.94-.75,1.59-.75,1,0,1.56.55,1.56,1.54v2.46h-.44l-.02-.74ZM164.4,566.91c.72,0,1.33-.57,1.33-1.35v-.22h-1.2c-.32,0-.63.05-.84.2-.17.13-.27.31-.27.58,0,.49.37.8.98.8Z"></path><path class="cls-24" d="M167.49,563.31h.48v.64c.25-.47.69-.7,1.24-.7.85,0,1.36.5,1.36,1.54v2.46h-.48v-2.28c0-.89-.34-1.3-.99-1.3-.71,0-1.13.48-1.13,1.57v2.01h-.48v-3.94Z"></path><path class="cls-24" d="M171.63,565.28c0-1.21.79-2.02,1.79-2.02.64,0,1.15.33,1.41.84v-2.41h.47v5.57h-.47v-.78c-.27.52-.77.83-1.41.83-1.05,0-1.79-.88-1.79-2.03ZM173.5,566.86c.8,0,1.37-.66,1.37-1.59s-.57-1.59-1.37-1.59-1.39.67-1.39,1.59.58,1.59,1.39,1.59Z"></path><path class="cls-24" d="M176.23,566.41l.34-.28c.2.46.66.77,1.26.77.57,0,.95-.27.95-.72,0-.55-.53-.68-1.1-.82-.66-.16-1.23-.38-1.23-1.06,0-.62.53-1.05,1.29-1.05.6,0,1.1.26,1.37.76l-.37.21c-.21-.38-.57-.58-1.01-.58-.48,0-.84.24-.84.62,0,.4.36.54.93.68.67.16,1.43.34,1.43,1.2,0,.71-.56,1.17-1.42,1.17-.79,0-1.35-.4-1.6-.9Z"></path><path class="cls-24" d="M180.17,565.28c0-1.13.65-2.02,1.76-2.02.72,0,1.28.36,1.54,1.07l-.43.17c-.17-.5-.55-.82-1.11-.82-.87,0-1.29.77-1.29,1.61s.42,1.61,1.29,1.61c.56,0,.94-.31,1.11-.82l.43.16c-.26.71-.82,1.08-1.54,1.08-1.11,0-1.76-.9-1.76-2.03Z"></path><path class="cls-24" d="M187.13,566.51c-.26.5-.77.79-1.38.79-.88,0-1.42-.48-1.42-1.2,0-.42.18-.71.44-.89.28-.19.67-.26,1.09-.26h1.26v-.17c0-.73-.38-1.13-1.12-1.13-.48,0-.86.18-1.22.63l-.34-.3c.42-.52.94-.75,1.59-.75,1,0,1.56.55,1.56,1.54v2.46h-.44l-.02-.74ZM185.79,566.91c.72,0,1.33-.57,1.33-1.35v-.22h-1.2c-.32,0-.63.05-.84.2-.17.13-.27.31-.27.58,0,.49.37.8.98.8Z"></path><path class="cls-24" d="M192.57,565.28c0,1.21-.79,2.02-1.79,2.02-.64,0-1.15-.33-1.41-.83v2.41h-.47v-5.57h.47v.78c.27-.52.77-.83,1.41-.83,1.06,0,1.79.88,1.79,2.03ZM190.7,566.87c.81,0,1.39-.67,1.39-1.59s-.58-1.59-1.39-1.59-1.37.66-1.37,1.59.57,1.59,1.37,1.59Z"></path><path class="cls-24" d="M193.54,565.31c0-1.13.61-2.05,1.73-2.05,1.21,0,1.7.94,1.7,1.81,0,.06,0,.24-.02.34h-2.93c.02.93.52,1.47,1.32,1.47.5,0,.83-.14,1.17-.51l.34.3c-.45.46-.88.65-1.51.65-1.16,0-1.79-.87-1.79-2ZM196.51,565.04s0-.1,0-.15c0-.57-.36-1.24-1.23-1.24-.75,0-1.22.6-1.27,1.39h2.49Z"></path><path class="cls-24" d="M197.91,565.28c0-1.21.79-2.02,1.79-2.02.64,0,1.15.33,1.41.84v-2.41h.47v5.57h-.47v-.78c-.27.52-.77.83-1.41.83-1.05,0-1.79-.88-1.79-2.03ZM199.78,566.86c.8,0,1.37-.66,1.37-1.59s-.57-1.59-1.37-1.59-1.39.67-1.39,1.59.58,1.59,1.39,1.59Z"></path><path class="cls-24" d="M205.15,561.68h1.55c1.22,0,1.83.57,1.83,1.54,0,.77-.4,1.28-1.14,1.46l1.5,2.57h-.57l-1.44-2.5c-.13,0-.27,0-.4,0h-.84v2.5h-.5v-5.57ZM206.65,564.31c.85,0,1.38-.34,1.38-1.1s-.54-1.09-1.38-1.09h-1.01v2.19h1.01Z"></path><path class="cls-24" d="M209.54,565.28c0-1.18.77-2.02,1.88-2.02s1.87.84,1.87,2.02-.78,2.03-1.87,2.03-1.88-.84-1.88-2.03ZM211.41,566.88c.84,0,1.39-.64,1.39-1.6s-.55-1.6-1.39-1.6-1.4.64-1.4,1.6.56,1.6,1.4,1.6Z"></path><path class="cls-24" d="M214.25,565.28c0-1.18.77-2.02,1.88-2.02s1.87.84,1.87,2.02-.78,2.03-1.87,2.03-1.88-.84-1.88-2.03ZM216.12,566.88c.84,0,1.39-.64,1.39-1.6s-.55-1.6-1.39-1.6-1.4.64-1.4,1.6.56,1.6,1.4,1.6Z"></path><path class="cls-24" d="M219.47,563.69h-.88v-.38h.88v-.57c0-.82.43-1.12,1.03-1.12.26,0,.47.05.66.15l-.16.36c-.14-.07-.28-.11-.45-.11-.4,0-.6.25-.6.71v.57h.97v.38h-.97v3.56h-.48v-3.56Z"></path></g><g><path class="cls-20" d="M391.19,48.86l.86-1.09-1.34-.39.12-.36,1.3.5-.06-1.39h.37l-.05,1.39,1.3-.5.11.36-1.33.39.87,1.09-.29.22-.78-1.16-.78,1.16-.29-.22Z"></path><path class="cls-20" d="M395.04,46.15h1.94c1.53,0,2.29.72,2.29,1.92,0,.97-.5,1.6-1.43,1.83l1.88,3.22h-.71l-1.8-3.13c-.16,0-.34,0-.5,0h-1.05v3.13h-.62v-6.98ZM396.93,49.44c1.06,0,1.73-.43,1.73-1.37s-.68-1.37-1.73-1.37h-1.26v2.74h1.26Z"></path><path class="cls-20" d="M400.45,50.69c0-1.42.77-2.57,2.16-2.57,1.51,0,2.13,1.18,2.13,2.27,0,.08,0,.31-.03.43h-3.66c.03,1.16.65,1.84,1.65,1.84.63,0,1.04-.18,1.47-.64l.42.38c-.56.58-1.1.81-1.9.81-1.46,0-2.24-1.09-2.24-2.5ZM404.16,50.36c0-.06,0-.12,0-.19,0-.71-.45-1.55-1.54-1.55-.95,0-1.53.76-1.59,1.74h3.12Z"></path><path class="cls-20" d="M405.58,52.07l.42-.35c.25.57.82.97,1.58.97.72,0,1.19-.34,1.19-.9,0-.69-.66-.85-1.38-1.03-.82-.21-1.54-.47-1.54-1.33,0-.78.66-1.31,1.62-1.31.75,0,1.37.33,1.71.95l-.46.27c-.27-.48-.71-.73-1.27-.73-.6,0-1.05.3-1.05.77,0,.51.45.68,1.16.85.84.2,1.8.42,1.8,1.5,0,.89-.7,1.47-1.78,1.47-.99,0-1.69-.5-2-1.13Z"></path><path class="cls-20" d="M410.62,46.15h.72v1.07h-.72v-1.07ZM410.69,48.19h.59v4.93h-.59v-4.93Z"></path><path class="cls-20" d="M412.62,50.65c0-1.51.99-2.53,2.25-2.53.81,0,1.44.42,1.77,1.05v-3.02h.59v6.98h-.59v-.97c-.34.65-.97,1.04-1.77,1.04-1.32,0-2.25-1.1-2.25-2.54ZM414.96,52.64c1,0,1.72-.83,1.72-1.99s-.72-1.99-1.72-1.99-1.74.84-1.74,1.99.73,1.99,1.74,1.99Z"></path><path class="cls-20" d="M418.58,50.69c0-1.42.77-2.57,2.16-2.57,1.51,0,2.13,1.18,2.13,2.27,0,.08,0,.31-.03.43h-3.66c.03,1.16.65,1.84,1.65,1.84.63,0,1.04-.18,1.47-.64l.42.38c-.56.58-1.1.81-1.9.81-1.46,0-2.24-1.09-2.24-2.5ZM422.29,50.36c0-.06,0-.12,0-.19,0-.71-.45-1.55-1.54-1.55-.95,0-1.53.76-1.59,1.74h3.12Z"></path><path class="cls-20" d="M424.2,48.19h.6v.81c.31-.59.87-.88,1.55-.88,1.06,0,1.7.63,1.7,1.93v3.07h-.6v-2.86c0-1.12-.42-1.63-1.24-1.63-.89,0-1.41.61-1.41,1.97v2.52h-.6v-4.93Z"></path><path class="cls-20" d="M429.3,50.65c0-1.41.82-2.53,2.2-2.53.9,0,1.61.45,1.93,1.34l-.54.21c-.21-.63-.69-1.03-1.39-1.03-1.09,0-1.61.96-1.61,2.01s.52,2.02,1.61,2.02c.7,0,1.18-.39,1.39-1.03l.54.21c-.33.89-1.03,1.35-1.93,1.35-1.39,0-2.2-1.12-2.2-2.54Z"></path><path class="cls-20" d="M434.4,50.69c0-1.42.77-2.57,2.16-2.57,1.51,0,2.13,1.18,2.13,2.27,0,.08,0,.31-.03.43h-3.66c.03,1.16.65,1.84,1.65,1.84.63,0,1.04-.18,1.47-.64l.42.38c-.56.58-1.1.81-1.9.81-1.46,0-2.24-1.09-2.24-2.5ZM438.11,50.36c0-.06,0-.12,0-.19,0-.71-.45-1.55-1.54-1.55-.95,0-1.53.76-1.59,1.74h3.12Z"></path><path class="cls-20" d="M443.21,48.66h-1.1v-.48h1.11v-.72c0-1.02.54-1.4,1.29-1.4.33,0,.59.06.82.19l-.2.46c-.17-.09-.36-.14-.56-.14-.5,0-.75.31-.75.89v.72h1.21v.48h-1.21v4.46h-.6v-4.46Z"></path><path class="cls-20" d="M445.52,50.69c0-1.42.77-2.57,2.16-2.57,1.51,0,2.13,1.18,2.13,2.27,0,.08,0,.31-.03.43h-3.66c.03,1.16.65,1.84,1.65,1.84.63,0,1.04-.18,1.47-.64l.42.38c-.56.58-1.1.81-1.9.81-1.46,0-2.24-1.09-2.24-2.5ZM449.23,50.36c0-.06,0-.12,0-.19,0-.71-.45-1.55-1.54-1.55-.95,0-1.53.76-1.59,1.74h3.12Z"></path><path class="cls-20" d="M454.33,52.2c-.33.63-.97,1-1.73,1-1.11,0-1.78-.6-1.78-1.5,0-.53.22-.89.56-1.11.35-.23.84-.32,1.36-.32h1.58v-.22c0-.92-.48-1.41-1.4-1.41-.61,0-1.08.23-1.52.79l-.43-.37c.52-.65,1.18-.94,1.99-.94,1.26,0,1.95.69,1.95,1.93v3.07h-.55l-.03-.93ZM452.65,52.7c.91,0,1.67-.72,1.67-1.69v-.28h-1.5c-.4,0-.79.06-1.06.25-.21.16-.34.39-.34.72,0,.61.46,1,1.23,1Z"></path><path class="cls-20" d="M456.91,51.98v-3.32h-1.1v-.48h1.1v-1.43l.61-.36v1.78h1.19v.48h-1.19v3.17c0,.55.17.86.62.86.15,0,.35-.03.57-.09v.48c-.25.08-.5.12-.71.12-.66,0-1.08-.38-1.08-1.21Z"></path><path class="cls-20" d="M459.75,51.26v-3.07h.59v2.86c0,1.11.43,1.62,1.25,1.62.89,0,1.41-.61,1.41-1.97v-2.51h.6v4.93h-.6v-.81c-.32.59-.88.88-1.56.88-1.05,0-1.69-.64-1.69-1.94Z"></path><path class="cls-20" d="M465.16,48.19h.6v.84c.33-.6,1.01-.91,1.56-.91.26,0,.51.06.77.19l-.3.54c-.17-.08-.39-.13-.59-.13-.53,0-1.12.28-1.34,1-.06.21-.09.44-.09.98v2.43h-.6v-4.93Z"></path><path class="cls-20" d="M468.55,50.69c0-1.42.77-2.57,2.16-2.57,1.51,0,2.13,1.18,2.13,2.27,0,.08,0,.31-.03.43h-3.66c.03,1.16.65,1.84,1.65,1.84.63,0,1.04-.18,1.47-.64l.42.38c-.56.58-1.1.81-1.9.81-1.46,0-2.24-1.09-2.24-2.5ZM472.26,50.36c0-.06,0-.12,0-.19,0-.71-.45-1.55-1.54-1.55-.95,0-1.53.76-1.59,1.74h3.12Z"></path><path class="cls-20" d="M473.68,52.07l.42-.35c.25.57.82.97,1.58.97.72,0,1.19-.34,1.19-.9,0-.69-.66-.85-1.38-1.03-.82-.21-1.54-.47-1.54-1.33,0-.78.66-1.31,1.62-1.31.75,0,1.37.33,1.71.95l-.46.27c-.27-.48-.71-.73-1.27-.73-.6,0-1.05.3-1.05.77,0,.51.45.68,1.16.85.84.2,1.8.42,1.8,1.5,0,.89-.7,1.47-1.78,1.47-.99,0-1.69-.5-2-1.13Z"></path></g><g><path class="cls-20" d="M394.38,65.2c-.33.63-.97,1-1.73,1-1.11,0-1.78-.6-1.78-1.5,0-.53.22-.89.56-1.11.36-.23.84-.32,1.36-.32h1.58v-.22c0-.92-.48-1.41-1.4-1.41-.61,0-1.08.23-1.52.79l-.43-.37c.52-.65,1.18-.94,1.99-.94,1.26,0,1.95.69,1.95,1.93v3.07h-.55l-.03-.93ZM392.71,65.7c.91,0,1.67-.72,1.67-1.69v-.28h-1.5c-.4,0-.79.06-1.06.25-.21.16-.34.39-.34.72,0,.61.46,1,1.23,1Z"></path><path class="cls-20" d="M396.48,61.19h.6v.81c.31-.59.87-.88,1.55-.88,1.06,0,1.7.63,1.7,1.93v3.07h-.6v-2.86c0-1.12-.42-1.63-1.24-1.63-.89,0-1.41.61-1.41,1.97v2.52h-.6v-4.93Z"></path><path class="cls-20" d="M407.7,65.2c-.33.63-.97,1-1.73,1-1.11,0-1.78-.6-1.78-1.5,0-.53.22-.89.56-1.11.36-.23.84-.32,1.36-.32h1.58v-.22c0-.92-.48-1.41-1.4-1.41-.61,0-1.08.23-1.52.79l-.43-.37c.52-.65,1.18-.94,1.99-.94,1.26,0,1.95.69,1.95,1.93v3.07h-.55l-.03-.93ZM406.03,65.7c.91,0,1.67-.72,1.67-1.69v-.28h-1.5c-.4,0-.79.06-1.06.25-.21.16-.34.39-.34.72,0,.61.46,1,1.23,1Z"></path><path class="cls-20" d="M409.53,63.65c0-1.41.82-2.53,2.2-2.53.9,0,1.61.45,1.93,1.34l-.54.21c-.21-.63-.69-1.03-1.39-1.03-1.09,0-1.61.96-1.61,2.01s.52,2.02,1.61,2.02c.7,0,1.18-.39,1.39-1.03l.54.21c-.33.89-1.03,1.35-1.93,1.35-1.39,0-2.2-1.12-2.2-2.54Z"></path><path class="cls-20" d="M414.63,63.65c0-1.41.82-2.53,2.2-2.53.9,0,1.61.45,1.93,1.34l-.54.21c-.21-.63-.69-1.03-1.39-1.03-1.09,0-1.61.96-1.61,2.01s.52,2.02,1.61,2.02c.7,0,1.18-.39,1.39-1.03l.54.21c-.33.89-1.03,1.35-1.93,1.35-1.39,0-2.2-1.12-2.2-2.54Z"></path><path class="cls-20" d="M419.73,63.69c0-1.42.77-2.57,2.16-2.57,1.51,0,2.13,1.18,2.13,2.27,0,.08,0,.31-.03.43h-3.66c.03,1.16.65,1.84,1.65,1.84.63,0,1.04-.18,1.47-.64l.42.38c-.56.58-1.1.81-1.9.81-1.46,0-2.24-1.09-2.24-2.5ZM423.44,63.36c0-.06,0-.12,0-.19,0-.71-.45-1.55-1.54-1.55-.95,0-1.53.76-1.59,1.74h3.12Z"></path><path class="cls-20" d="M424.85,65.07l.42-.35c.25.57.82.97,1.58.97.72,0,1.19-.34,1.19-.9,0-.69-.66-.85-1.38-1.03-.82-.21-1.54-.47-1.54-1.33,0-.78.66-1.31,1.62-1.31.75,0,1.37.33,1.71.95l-.46.27c-.26-.48-.71-.73-1.27-.73-.6,0-1.05.3-1.05.77,0,.51.45.68,1.16.85.84.2,1.8.42,1.8,1.5,0,.89-.7,1.47-1.78,1.47-.99,0-1.69-.5-2-1.13Z"></path><path class="cls-20" d="M429.51,65.07l.42-.35c.25.57.82.97,1.58.97.72,0,1.19-.34,1.19-.9,0-.69-.66-.85-1.38-1.03-.82-.21-1.54-.47-1.54-1.33,0-.78.66-1.31,1.62-1.31.75,0,1.37.33,1.71.95l-.46.27c-.27-.48-.71-.73-1.27-.73-.6,0-1.05.3-1.05.77,0,.51.45.68,1.16.85.84.2,1.8.42,1.8,1.5,0,.89-.7,1.47-1.78,1.47-.99,0-1.69-.5-2-1.13Z"></path><path class="cls-20" d="M434.55,59.15h.72v1.07h-.72v-1.07ZM434.62,61.19h.59v4.93h-.59v-4.93Z"></path><path class="cls-20" d="M437.37,65.15v.97h-.59v-6.98h.59v3.02c.33-.63.96-1.05,1.77-1.05,1.26,0,2.25,1.02,2.25,2.53s-.93,2.54-2.25,2.54c-.8,0-1.43-.39-1.77-1.04ZM439.05,65.64c1.01,0,1.74-.84,1.74-1.99s-.73-1.99-1.74-1.99-1.72.83-1.72,1.99.72,1.99,1.72,1.99Z"></path><path class="cls-20" d="M442.63,65.1v-5.95h.6v5.84c0,.46.18.65.49.65.13,0,.3-.03.47-.09v.52c-.22.08-.47.13-.65.13-.56,0-.91-.34-.91-1.1Z"></path><path class="cls-20" d="M444.92,63.69c0-1.42.77-2.57,2.16-2.57,1.51,0,2.13,1.18,2.13,2.27,0,.08,0,.31-.03.43h-3.66c.03,1.16.65,1.84,1.65,1.84.63,0,1.04-.18,1.47-.64l.42.38c-.56.58-1.1.81-1.9.81-1.46,0-2.24-1.09-2.24-2.5ZM448.63,63.36c0-.06,0-.12,0-.19,0-.71-.45-1.55-1.54-1.55-.95,0-1.53.76-1.59,1.74h3.12Z"></path><path class="cls-20" d="M453.13,65.1v-5.95h.6v5.84c0,.46.18.65.49.65.13,0,.3-.03.47-.09v.52c-.22.08-.47.13-.65.13-.56,0-.91-.34-.91-1.1Z"></path><path class="cls-20" d="M459.06,65.2c-.33.63-.97,1-1.73,1-1.11,0-1.78-.6-1.78-1.5,0-.53.22-.89.56-1.11.35-.23.84-.32,1.36-.32h1.58v-.22c0-.92-.48-1.41-1.4-1.41-.61,0-1.08.23-1.52.79l-.43-.37c.52-.65,1.18-.94,1.99-.94,1.26,0,1.95.69,1.95,1.93v3.07h-.55l-.03-.93ZM457.39,65.7c.91,0,1.67-.72,1.67-1.69v-.28h-1.5c-.4,0-.79.06-1.06.25-.21.16-.34.39-.34.72,0,.61.46,1,1.23,1Z"></path><path class="cls-20" d="M462.49,65.97l-1.96-4.78h.66l1.62,4.17,1.62-4.17h.66l-2.84,6.97h-.65l.9-2.19Z"></path><path class="cls-20" d="M465.81,63.65c0-1.48.97-2.53,2.35-2.53s2.34,1.05,2.34,2.53-.98,2.54-2.34,2.54-2.35-1.05-2.35-2.54ZM468.16,65.66c1.05,0,1.74-.8,1.74-2.01s-.69-2.01-1.74-2.01-1.75.81-1.75,2.01.7,2.01,1.75,2.01Z"></path><path class="cls-20" d="M471.73,64.26v-3.07h.59v2.86c0,1.11.43,1.62,1.25,1.62.89,0,1.41-.61,1.41-1.97v-2.51h.6v4.93h-.6v-.81c-.32.59-.88.88-1.56.88-1.05,0-1.69-.64-1.69-1.94Z"></path><path class="cls-20" d="M477.65,64.98v-3.32h-1.1v-.48h1.1v-1.43l.61-.36v1.78h1.19v.48h-1.19v3.17c0,.55.17.86.62.86.15,0,.35-.03.57-.09v.48c-.25.08-.5.12-.71.12-.66,0-1.08-.38-1.08-1.21Z"></path></g></g></g></svg> 