<?xml version="1.0" encoding="UTF-8"?> <svg xmlns="http://www.w3.org/2000/svg" id="Layer_2" data-name="Layer 2" viewBox="0 0 386.87 566.09"><defs><style> .cls-1 { stroke: #afa49f; } .cls-1, .cls-2, .cls-3, .cls-4, .cls-5, .cls-6, .cls-7, .cls-8, .cls-9, .cls-10, .cls-11, .cls-12, .cls-13, .cls-14, .cls-15, .cls-16, .cls-17 { fill: none; } .cls-1, .cls-2, .cls-3, .cls-5, .cls-6, .cls-7, .cls-8, .cls-10, .cls-11, .cls-12, .cls-14, .cls-15, .cls-17 { stroke-width: .25px; } .cls-1, .cls-13, .cls-14 { stroke-miterlimit: 10; } .cls-2 { stroke-dasharray: 5.14 5.14; } .cls-2, .cls-3, .cls-4, .cls-5, .cls-6, .cls-7, .cls-8, .cls-9, .cls-10, .cls-11, .cls-12, .cls-15, .cls-16, .cls-17 { stroke-linecap: round; stroke-linejoin: round; } .cls-2, .cls-3, .cls-5, .cls-6, .cls-7, .cls-8, .cls-10, .cls-11, .cls-12, .cls-17 { stroke: #75655e; } .cls-18 { fill: #3a2a22; } .cls-3 { stroke-dasharray: 5.26 4.38; } .cls-4 { stroke: #55453d; stroke-width: .15px; } .cls-5 { stroke-dasharray: 6.17 5.14; } .cls-19 { fill: #fff; } .cls-6 { stroke-dasharray: 1.42 1.42; } .cls-7 { stroke-dasharray: 3.6 3.6; } .cls-8 { stroke-dasharray: 6.09 5.08; } .cls-9, .cls-13 { stroke-width: .75px; } .cls-9, .cls-13, .cls-15, .cls-16 { stroke: #3a2a22; } .cls-20 { fill: #bc8ebc; } .cls-11 { stroke-dasharray: 5.44 5.44; } .cls-12 { stroke-dasharray: 5.26 5.26; } .cls-14 { stroke: #bc8ebc; } .cls-21 { fill: #afa49f; } .cls-16 { stroke-width: .35px; } .cls-22 { fill: #75655e; } .cls-17 { stroke-dasharray: 5.24 5.24; } </style></defs><g id="Layer_1-2" data-name="Layer 1"><g><polygon class="cls-19" points="376.4 469.16 365.39 470.93 365.39 488.59 333.14 493.39 300.8 498.01 268.46 502.26 236.03 506.24 203.59 509.84 203.59 491.82 175.96 494.7 141.41 497.94 106.85 500.89 72.2 503.39 37.55 505.61 2.9 507.55 2.97 46.9 91.95 46.9 91.95 20.38 235.49 20.38 235.49 108.16 376.4 108.16 376.4 469.37 376.4 469.16"></polygon><line class="cls-10" x1="2.9" y1="531.29" x2="5.9" y2="531.13"></line><polyline class="cls-8" points="10.97 530.87 30.25 529.89 64.72 527.77 99.09 525.27 133.55 522.5 167.83 519.27 202.21 515.85 230.98 512.59"></polyline><polyline class="cls-10" points="233.51 512.3 236.49 511.97 236.14 508.99"></polyline><polyline class="cls-10" points="235.91 506.91 235.56 503.93 238.54 503.57"></polyline><polyline class="cls-5" points="243.65 502.95 269.2 499.86 302.83 495.43 330.86 491.41"></polyline><polyline class="cls-10" points="333.4 491.05 336.37 490.62 336.82 493.59"></polyline><polyline class="cls-10" points="337.12 495.6 337.57 498.57 340.54 498.12"></polyline><line class="cls-3" x1="344.87" y1="497.46" x2="371.28" y2="493.46"></line><line class="cls-10" x1="373.44" y1="493.12" x2="376.4" y2="492.64"></line><polygon class="cls-16" points="356.05 480.64 320.29 485.91 284.53 490.81 248.68 495.43 212.83 499.59 212.83 491.82 215.14 491.82 215.14 497 249.88 492.93 284.53 488.5 319.18 483.79 353.74 478.7 353.74 472.14 356.05 472.14 356.05 480.64"></polygon><g><path class="cls-4" d="M216.31,76.67c-25.57,0-43.49-20.73-43.49-46.29"></path><path class="cls-4" d="M243.97,235.89c0,23.13-18.62,39.35-41.58,39.35"></path><path class="cls-4" d="M279.82,125.01c0,23.13-18.62,39.35-41.58,39.35"></path><path class="cls-4" d="M252.1,417.27c0,23.13-18.62,39.35-41.58,39.35"></path></g><line class="cls-4" x1="172.92" y1="20.38" x2="219.12" y2="20.38"></line><line class="cls-4" x1="172.82" y1="30.38" x2="216.31" y2="30.38"></line><rect class="cls-16" x="216.31" y="30.38" width="2.81" height="46.29"></rect><rect class="cls-16" x="202.39" y="233.66" width="41.58" height="2.23"></rect><rect class="cls-16" x="238.24" y="122.78" width="41.58" height="2.23"></rect><rect class="cls-16" x="210.52" y="415.04" width="41.58" height="2.23"></rect><rect class="cls-16" x="305.23" y="249.83" width="34.65" height="2.69"></rect><rect class="cls-16" x="270.58" y="252.53" width="34.65" height="2.69"></rect><rect class="cls-16" x="196.66" y="178.22" width="2.69" height="41.58"></rect><rect class="cls-16" x="148.88" y="33.8" width="2.69" height="41.58"></rect><polyline class="cls-10" points="15.03 159.07 15.03 159.82 15.78 159.82"></polyline><line class="cls-6" x1="17.2" y1="159.82" x2="39.23" y2="159.82"></line><polyline class="cls-10" points="39.94 159.82 40.69 159.82 40.69 159.07"></polyline><line class="cls-6" x1="40.69" y1="157.65" x2="40.69" y2="135.62"></line><polyline class="cls-10" points="40.69 134.9 40.69 134.15 39.94 134.15"></polyline><line class="cls-6" x1="38.52" y1="134.15" x2="16.49" y2="134.15"></line><polyline class="cls-10" points="15.78 134.15 15.03 134.15 15.03 134.9"></polyline><line class="cls-6" x1="15.03" y1="136.33" x2="15.03" y2="158.36"></line><polyline class="cls-10" points="15.03 225.03 15.03 225.78 15.78 225.78"></polyline><line class="cls-6" x1="17.2" y1="225.78" x2="39.23" y2="225.78"></line><polyline class="cls-10" points="39.94 225.78 40.69 225.78 40.69 225.03"></polyline><line class="cls-6" x1="40.69" y1="223.61" x2="40.69" y2="201.58"></line><polyline class="cls-10" points="40.69 200.87 40.69 200.12 39.94 200.12"></polyline><line class="cls-6" x1="38.52" y1="200.12" x2="16.49" y2="200.12"></line><polyline class="cls-10" points="15.78 200.12 15.03 200.12 15.03 200.87"></polyline><line class="cls-6" x1="15.03" y1="202.29" x2="15.03" y2="224.32"></line><line class="cls-10" x1="59.98" y1="72.71" x2="57.48" y2="72.71"></line><line class="cls-17" x1="52.24" y1="72.71" x2="33.9" y2="72.71"></line><polyline class="cls-10" points="31.28 72.71 28.78 72.71 28.78 75.21"></polyline><polyline class="cls-10" points="28.78 77.69 28.78 80.19 26.28 80.19"></polyline><line class="cls-7" x1="22.68" y1="80.19" x2="17.27" y2="80.19"></line><line class="cls-10" x1="15.47" y1="80.19" x2="12.97" y2="80.19"></line><line class="cls-10" x1="28.78" y1="228.35" x2="28.78" y2="225.85"></line><line class="cls-2" x1="28.78" y1="220.71" x2="28.78" y2="151.4"></line><polyline class="cls-10" points="28.78 148.83 28.78 146.33 26.28 146.33"></polyline><line class="cls-7" x1="22.68" y1="146.33" x2="17.27" y2="146.33"></line><line class="cls-10" x1="15.47" y1="146.33" x2="12.97" y2="146.33"></line><line class="cls-10" x1="12.97" y1="92.36" x2="15.47" y2="92.36"></line><line class="cls-11" x1="20.91" y1="92.36" x2="29.06" y2="92.36"></line><polyline class="cls-10" points="31.78 92.36 34.28 92.36 34.28 94.86"></polyline><line class="cls-12" x1="34.28" y1="100.12" x2="34.28" y2="129.03"></line><polyline class="cls-10" points="34.28 131.65 34.28 134.15 31.78 134.15"></polyline><line class="cls-11" x1="26.34" y1="134.15" x2="18.19" y2="134.15"></line><line class="cls-10" x1="15.47" y1="134.15" x2="12.97" y2="134.15"></line><line class="cls-16" x1="40.69" y1="84.62" x2="96.13" y2="84.62"></line><line class="cls-16" x1="59.98" y1="84.62" x2="59.98" y2="56.9"></line><line class="cls-16" x1="59.98" y1="82.12" x2="96.13" y2="82.12"></line><g><rect class="cls-16" x="14.69" y="179.73" width="7.83" height="1.59" rx=".54" ry=".54"></rect><circle class="cls-16" cx="28.74" cy="180.53" r=".82"></circle></g><polyline class="cls-16" points="15.9 179.73 15.9 177.52 17.31 177.52 17.31 179.73"></polyline><line class="cls-16" x1="17.31" y1="178.31" x2="15.9" y2="178.31"></line><polyline class="cls-16" points="18.32 179.73 18.32 168.71 38.21 168.71 38.21 192.34 18.32 192.34 18.32 181.32"></polyline><polyline class="cls-16" points="19.31 181.32 19.31 191.36 37.22 191.36 37.22 169.7 19.31 169.7 19.31 179.73"></polyline><line class="cls-16" x1="40.7" y1="84.62" x2="40.69" y2="289.1"></line><line class="cls-16" x1="40.69" y1="246.95" x2="12.97" y2="246.95"></line><line class="cls-16" x1="40.69" y1="228.35" x2="12.97" y2="228.35"></line><line class="cls-16" x1="38.19" y1="246.95" x2="38.19" y2="289.1"></line><line class="cls-16" x1="38.19" y1="228.35" x2="38.19" y2="246.95"></line><rect class="cls-16" x="104.88" y="39.33" width="38.03" height="30.61"></rect><line class="cls-16" x1="339.57" y1="128.88" x2="342.78" y2="128.88"></line><g><path class="cls-16" d="M343.64,128.88h11.6c1.38,0,2.5,1.12,2.5,2.5v61.83c-.01,1.38-1.13,2.5-2.51,2.5h-24.04c-1.38,0-2.5-1.12-2.5-2.5v-61.83c.01-1.38,1.13-2.5,2.51-2.5h8.37"></path><path class="cls-16" d="M342.78,124.86v10.86c0,.24.19.43.43.43s.43-.19.43-.43v-10.81"></path><path class="cls-16" d="M343.64,134.64c.46.17.79.61.79,1.14,0,.67-.54,1.21-1.21,1.21s-1.21-.54-1.21-1.21c0-.51.32-.95.77-1.13"></path><path class="cls-16" d="M343.64,130.6c2.67.22,4.76,2.45,4.76,5.17,0,2.86-2.32,5.18-5.18,5.18-2.86,0-5.18-2.32-5.18-5.18,0-2.71,2.09-4.94,4.74-5.16"></path></g><rect class="cls-16" x="340.68" y="123.89" width="5.08" height=".97"></rect><line class="cls-16" x1="324.99" y1="123.89" x2="324.99" y2="200.11"></line><line class="cls-16" x1="323.71" y1="123.89" x2="323.7" y2="200.07"></line><line class="cls-16" x1="323.71" y1="128.57" x2="324.99" y2="128.57"></line><line class="cls-16" x1="323.71" y1="166.57" x2="324.99" y2="166.57"></line><g><path class="cls-16" d="M310.99,206.51h-15.44c-.6,0-1.08.48-1.08,1.08v5.29c0,.6.48,1.08,1.08,1.08h15.44c.6,0,1.08-.48,1.08-1.08v-5.29c0-.6-.48-1.08-1.08-1.08Z"></path><path class="cls-16" d="M307.73,202.37c.28,0,.54-.11.73-.32,1.88-2.09,3.08-5.3,3.08-8.9,0-6.31-3.71-11.42-8.28-11.42s-8.28,5.11-8.28,11.42c0,3.59,1.2,6.8,3.08,8.9.19.21.46.32.73.32h8.92Z"></path></g><line class="cls-16" x1="311.55" y1="193.15" x2="311.55" y2="206.67"></line><line class="cls-16" x1="295" y1="193.15" x2="295" y2="206.67"></line><polyline class="cls-16" points="282.59 213.97 282.59 188.95 238.17 188.95"></polyline><path class="cls-16" d="M264.59,205.9h-9.87c-.4,0-.72-.32-.72-.72v-10.9c0-.4.32-.72.72-.72h20.82c.4,0,.72.32.72.72v10.9c0,.4-.32.72-.72.72h-9.48"></path><rect class="cls-16" x="264.59" y="203.47" width="1.47" height="5.89"></rect><circle class="cls-16" cx="265.32" cy="199.73" r=".84"></circle><rect class="cls-16" x="15.32" y="94.77" width="24.28" height="36.98"></rect><rect class="cls-16" x="16.4" y="95.85" width="22.12" height="34.82"></rect><path class="cls-16" d="M37.77,113.26c0,.71-.57,1.28-1.28,1.28s-1.28-.57-1.28-1.28.57-1.28,1.28-1.28c.71,0,1.28.57,1.28,1.28Z"></path><line class="cls-16" x1="38.52" y1="130.67" x2="39.6" y2="131.75"></line><line class="cls-16" x1="38.52" y1="95.85" x2="39.6" y2="94.77"></line><line class="cls-16" x1="16.4" y1="95.86" x2="15.32" y2="94.78"></line><line class="cls-16" x1="16.41" y1="130.67" x2="15.33" y2="131.75"></line><polygon class="cls-16" points="36.49 112.21 35.43 113.26 36.49 114.32 37.54 113.26 36.49 112.21"></polygon><line class="cls-16" x1="35.43" y1="113.26" x2="37.54" y2="113.26"></line><g><path class="cls-15" d="M215.54,204c-1.51.03-3.03.06-4.57.13-.8.04-1.6.09-2.35.13-.57.03-1.11.07-1.78.16-.65.09-1.42.25-1.73-.23-.07-.11-.12-.25-.13-.38-.06-.77,1.18-.9,2.24-.97,2.35-.15,3.74.04,5.44.16.9.06,1.9.1,2.89.14.99-.04,1.98-.08,2.89-.14,1.7-.12,3.09-.3,5.44-.16,1.05.07,2.3.2,2.24.97-.01.13-.06.27-.12.38-.31.48-1.08.33-1.73.23-.67-.1-1.21-.13-1.78-.16-.75-.04-1.56-.09-2.35-.13-1.55-.07-3.06-.1-4.57-.13Z"></path><path class="cls-15" d="M215.54,199.3c-1.51.03-3.03.06-4.57.13-.8.04-1.6.09-2.35.13-.57.03-1.11.07-1.78.16-.65.09-1.42.25-1.73-.23-.07-.11-.12-.25-.13-.38-.06-.77,1.18-.9,2.24-.97,2.35-.15,3.74.04,5.44.16.9.06,1.9.1,2.89.14.99-.04,1.98-.08,2.89-.14,1.7-.12,3.09-.3,5.44-.16,1.05.07,2.3.2,2.24.97-.01.13-.06.27-.12.38-.31.48-1.08.32-1.73.23-.67-.1-1.21-.13-1.78-.16-.75-.04-1.56-.09-2.35-.13-1.55-.07-3.06-.1-4.57-.13Z"></path><path class="cls-15" d="M215.54,194.61c-1.51.03-3.03.06-4.57.13-.8.04-1.6.09-2.35.13-.57.03-1.11.07-1.78.16-.65.09-1.42.25-1.73-.23-.07-.11-.12-.25-.13-.38-.06-.77,1.18-.9,2.24-.97,2.35-.15,3.74.04,5.44.16.9.06,1.9.1,2.89.14.99-.04,1.98-.08,2.89-.14,1.7-.12,3.09-.3,5.44-.16,1.05.07,2.3.2,2.24.97-.01.13-.06.27-.12.38-.31.48-1.08.32-1.73.23-.67-.1-1.21-.13-1.78-.16-.75-.04-1.56-.09-2.35-.13-1.55-.07-3.06-.1-4.57-.13Z"></path></g><line class="cls-15" x1="215.54" y1="174.71" x2="215.54" y2="223.22"></line><line class="cls-15" x1="210.61" y1="404.6" x2="347.92" y2="404.6"></line><polyline class="cls-15" points="202.39 458.93 202.39 483.79 166.17 487.48 129.95 490.81 93.64 493.76 57.32 496.35 32.09 497.83"></polyline><line class="cls-15" x1="376.4" y1="466.86" x2="376.4" y2="461"></line><line class="cls-15" x1="2.9" y1="505.22" x2="2.9" y2="499.44"></line><polyline class="cls-15" points="203.59 491.82 203.59 509.84 236.02 506.24 268.46 502.26 300.8 498.01 333.14 493.39 365.38 488.59 365.38 470.93"></polyline><polyline class="cls-15" points="31.64 492.01 64.62 489.98 97.7 487.57 130.69 484.89 163.68 481.94 196.66 478.61 196.66 458.93 202.39 458.93"></polyline><polygon class="cls-9" points="376.4 469.16 358.36 472.05 358.36 412.73 210.52 412.73 210.52 410.42 360.67 410.42 360.67 469.37 376.4 466.86 376.4 469.16"></polygon><polygon class="cls-9" points="2.9 505.22 37.18 503.37 71.46 501.16 105.65 498.66 139.84 495.8 174.02 492.56 208.21 488.96 208.21 458.93 210.52 458.93 210.52 491.08 175.96 494.69 141.41 497.92 106.85 500.88 72.2 503.37 37.55 505.59 2.9 507.53 2.9 505.22"></polygon><rect class="cls-9" x="349.12" y="404.6" width="2.31" height="5.82"></rect><rect class="cls-9" x="360.67" y="411.53" width="5.73" height="2.31"></rect><polygon class="cls-9" points="170.97 486.99 171.53 492.8 169.23 493.02 168.67 487.23 170.97 486.99"></polygon><polygon class="cls-9" points="102.05 493.08 102.51 498.89 100.2 499.06 99.74 493.27 102.05 493.08"></polygon><polygon class="cls-9" points="33.12 497.77 33.49 503.57 31.18 503.7 30.9 497.9 33.12 497.77"></polygon><rect class="cls-9" x="202.39" y="410.42" width="8.13" height="4.62"></rect><rect class="cls-9" x="202.39" y="456.62" width="8.13" height="2.31"></rect><rect class="cls-9" x="294.79" y="404.6" width="2.31" height="5.82"></rect><rect class="cls-9" x="225.49" y="404.6" width="2.31" height="5.82"></rect><rect class="cls-9" x="209.32" y="404.6" width="2.31" height="5.82"></rect><polyline class="cls-9" points="366.4 460.78 360.67 467.52 360.67 469.37 362.43 469.09 368.16 462.35 366.4 462.63 366.4 460.78"></polyline><polyline class="cls-9" points="202.39 483.78 200.82 483.97 206.64 489.14 208.21 488.96 208.21 487.48 202.39 482.31 202.39 483.78"></polyline><polygon class="cls-18" points="376.4 461 366.4 462.63 366.4 404.6 347.92 404.6 347.92 255.65 339.88 255.65 339.88 249.83 362.98 249.83 362.98 222.11 263.65 222.11 263.65 249.83 270.58 249.83 270.58 255.65 257.83 255.65 257.83 229.04 202.39 229.04 202.39 233.66 196.66 233.66 196.66 219.8 202.39 219.8 202.39 223.22 230.11 223.22 230.11 174.71 202.39 174.71 202.39 178.22 196.66 178.22 196.66 168.98 232.42 168.98 232.42 164.36 238.24 164.36 238.24 213.98 323.71 213.98 323.71 200.12 362.98 200.12 362.98 123.89 323.71 123.89 323.71 118.16 238.24 118.16 238.24 122.78 232.42 122.78 232.42 118.16 225.49 118.16 225.49 30.38 219.12 30.38 219.12 20.38 235.49 20.38 235.49 108.16 376.4 108.16 376.4 461"></polygon><polygon class="cls-13" points="376.4 461 366.4 462.63 366.4 404.6 347.92 404.6 347.92 255.65 339.88 255.65 339.88 249.83 362.98 249.83 362.98 222.11 263.65 222.11 263.65 249.83 270.58 249.83 270.58 255.65 257.83 255.65 257.83 229.04 202.39 229.04 202.39 233.66 196.66 233.66 196.66 219.8 202.39 219.8 202.39 223.22 230.11 223.22 230.11 174.71 202.39 174.71 202.39 178.22 196.66 178.22 196.66 168.98 232.42 168.98 232.42 164.36 238.24 164.36 238.24 213.98 323.71 213.98 323.71 200.12 362.98 200.12 362.98 123.89 323.71 123.89 323.71 118.16 238.24 118.16 238.24 122.78 232.42 122.78 232.42 118.16 225.49 118.16 225.49 30.38 219.12 30.38 219.12 20.38 235.49 20.38 235.49 108.16 376.4 108.16 376.4 461"></polygon><polygon class="cls-18" points="202.44 275.24 202.44 398.87 210.61 398.87 210.61 404.6 202.39 404.6 202.39 413.84 196.66 413.84 196.66 275.24 202.44 275.24"></polygon><polygon class="cls-13" points="202.44 275.24 202.44 398.87 210.61 398.87 210.61 404.6 202.39 404.6 202.39 413.84 196.66 413.84 196.66 275.24 202.44 275.24"></polygon><polygon class="cls-18" points="2.97 499.44 31.95 497.84 31.64 492.01 26.28 492.33 26.28 298.34 40.69 298.34 40.69 289.1 12.97 289.1 12.97 56.9 96.13 56.9 96.13 84.62 151.62 84.62 151.62 75.38 145.84 75.38 145.84 78.89 101.95 78.89 101.95 30.38 145.84 30.38 145.84 33.8 151.57 33.8 151.57 30.38 172.92 30.38 172.92 20.38 91.95 20.38 91.95 46.9 2.97 46.9 2.97 499.44"></polygon><polygon class="cls-13" points="2.97 499.44 31.95 497.84 31.64 492.01 26.28 492.33 26.28 298.34 40.69 298.34 40.69 289.1 12.97 289.1 12.97 56.9 96.13 56.9 96.13 84.62 151.62 84.62 151.62 75.38 145.84 75.38 145.84 78.89 101.95 78.89 101.95 30.38 145.84 30.38 145.84 33.8 151.57 33.8 151.57 30.38 172.92 30.38 172.92 20.38 91.95 20.38 91.95 46.9 2.97 46.9 2.97 499.44"></polygon><g><path class="cls-20" d="M196.16,8.22c-.02.08-.07.14-.14.14s-.13-.06-.14-.14c-.56-3.3-2.74-4.94-6.02-4.94h-3.83c-1.16,0-1.98-1.01-2.21-2.66-.05-.34.23-.61.47-.46.46.31,1.06.47,1.78.47h3.48c2.95,0,5.22,1.67,6.17,4.98.11.37.5.37.61,0,.96-3.31,3.22-4.98,6.18-4.98h3.48c.72,0,1.31-.16,1.78-.47.23-.16.51.12.47.46-.22,1.64-1.05,2.66-2.2,2.66h-3.84c-3.29,0-5.46,1.64-6.02,4.95h0Z"></path><path class="cls-14" d="M196.16,8.22c-.02.08-.07.14-.14.14s-.13-.06-.14-.14c-.56-3.3-2.74-4.94-6.02-4.94h-3.83c-1.16,0-1.98-1.01-2.21-2.66-.05-.34.23-.61.47-.46.46.31,1.06.47,1.78.47h3.48c2.95,0,5.22,1.67,6.17,4.98.11.37.5.37.61,0,.96-3.31,3.22-4.98,6.18-4.98h3.48c.72,0,1.31-.16,1.78-.47.23-.16.51.12.47.46-.22,1.64-1.05,2.66-2.2,2.66h-3.84c-3.29,0-5.46,1.64-6.02,4.95h0Z"></path></g><g><path class="cls-18" d="M225.6,325.9h2.52c1.9,0,2.97.89,2.97,2.53s-1.07,2.54-2.97,2.54h-1.72v3.99h-.8v-9.06ZM228.04,330.25c1.41,0,2.24-.61,2.24-1.81s-.81-1.81-2.24-1.81h-1.64v3.62h1.64Z"></path><path class="cls-18" d="M232.59,328.55h.78v1.09c.43-.78,1.31-1.18,2.02-1.18.33,0,.66.07.99.24l-.39.7c-.21-.1-.51-.17-.77-.17-.68,0-1.46.36-1.74,1.3-.08.27-.12.57-.12,1.27v3.15h-.78v-6.41Z"></path><path class="cls-18" d="M237.65,325.9h.94v1.39h-.94v-1.39ZM237.74,328.55h.77v6.41h-.77v-6.41Z"></path><path class="cls-18" d="M240.54,328.55h.78v1.1c.38-.84,1.11-1.19,1.88-1.19.91,0,1.57.4,1.89,1.25.4-.83,1.09-1.25,2-1.25,1.55,0,2.13,1.16,2.13,2.68v3.82h-.78v-3.64c0-1.33-.39-2.18-1.52-2.18-1.02,0-1.65.77-1.65,2.26v3.57h-.78v-3.76c0-1.4-.52-2.07-1.5-2.07-1.03,0-1.67.79-1.67,2.26v3.57h-.78v-6.41Z"></path><path class="cls-18" d="M255.37,333.76c-.43.82-1.25,1.29-2.25,1.29-1.44,0-2.31-.77-2.31-1.94,0-.69.29-1.16.72-1.44.46-.31,1.09-.42,1.77-.42h2.05v-.28c0-1.19-.62-1.83-1.82-1.83-.79,0-1.4.29-1.98,1.02l-.56-.48c.68-.84,1.53-1.21,2.59-1.21,1.63,0,2.54.89,2.54,2.51v3.99h-.71l-.04-1.2ZM253.19,334.41c1.18,0,2.17-.93,2.17-2.2v-.36h-1.95c-.51,0-1.03.08-1.37.32-.28.21-.44.51-.44.94,0,.79.6,1.3,1.6,1.3Z"></path><path class="cls-18" d="M258.08,328.55h.78v1.09c.43-.78,1.31-1.18,2.02-1.18.33,0,.66.07.99.24l-.39.7c-.21-.1-.51-.17-.77-.17-.68,0-1.46.36-1.74,1.3-.08.27-.12.57-.12,1.27v3.15h-.78v-6.41Z"></path><path class="cls-18" d="M265.13,334.76l-2.55-6.21h.86l2.1,5.42,2.11-5.42h.85l-3.69,9.05h-.84l1.17-2.84Z"></path><path class="cls-18" d="M273.39,325.9h2.72c1.68,0,2.68.84,2.68,2.25,0,.94-.46,1.68-1.24,2,1.1.25,1.7,1.07,1.7,2.31,0,1.61-1.02,2.5-2.88,2.5h-2.97v-9.06ZM276.36,329.9c.98,0,1.63-.64,1.63-1.64s-.69-1.61-1.88-1.61h-1.91v3.26h2.16ZM276.31,334.21c1.42,0,2.14-.6,2.14-1.79,0-1.13-.66-1.79-1.79-1.79h-2.46v3.58h2.11Z"></path><path class="cls-18" d="M280.72,331.8c0-1.84.99-3.34,2.81-3.34,1.96,0,2.76,1.53,2.76,2.94,0,.1-.01.4-.04.55h-4.76c.03,1.51.84,2.39,2.14,2.39.82,0,1.35-.23,1.91-.83l.55.49c-.73.75-1.43,1.05-2.46,1.05-1.89,0-2.91-1.41-2.91-3.25ZM285.54,331.37c0-.08,0-.16,0-.24,0-.92-.58-2.01-2-2.01-1.23,0-1.98.98-2.07,2.26h4.06Z"></path><path class="cls-18" d="M287.69,331.75c0-1.96,1.29-3.29,2.92-3.29,1.05,0,1.87.54,2.29,1.36v-3.92h.77v9.06h-.77v-1.26c-.44.84-1.25,1.35-2.29,1.35-1.72,0-2.92-1.42-2.92-3.3ZM290.73,334.33c1.3,0,2.23-1.08,2.23-2.58s-.93-2.58-2.23-2.58-2.26,1.09-2.26,2.58.95,2.58,2.26,2.58Z"></path><path class="cls-18" d="M295.7,328.55h.78v1.09c.43-.78,1.31-1.18,2.02-1.18.33,0,.66.07.99.24l-.39.7c-.21-.1-.51-.17-.77-.17-.68,0-1.46.36-1.74,1.3-.08.27-.12.57-.12,1.27v3.15h-.78v-6.41Z"></path><path class="cls-18" d="M300.08,331.75c0-1.92,1.25-3.29,3.05-3.29s3.04,1.37,3.04,3.29-1.27,3.3-3.04,3.3-3.05-1.37-3.05-3.3ZM303.13,334.36c1.37,0,2.26-1.04,2.26-2.61s-.9-2.61-2.26-2.61-2.28,1.05-2.28,2.61.9,2.61,2.28,2.61Z"></path><path class="cls-18" d="M307.62,331.75c0-1.92,1.25-3.29,3.05-3.29s3.04,1.37,3.04,3.29-1.27,3.3-3.04,3.3-3.05-1.37-3.05-3.3ZM310.66,334.36c1.37,0,2.26-1.04,2.26-2.61s-.9-2.61-2.26-2.61-2.28,1.05-2.28,2.61.9,2.61,2.28,2.61Z"></path><path class="cls-18" d="M315.45,328.55h.78v1.1c.38-.84,1.11-1.19,1.88-1.19.91,0,1.57.4,1.89,1.25.4-.83,1.09-1.25,2-1.25,1.55,0,2.13,1.16,2.13,2.68v3.82h-.78v-3.64c0-1.33-.39-2.18-1.52-2.18-1.02,0-1.65.77-1.65,2.26v3.57h-.78v-3.76c0-1.4-.52-2.07-1.5-2.07-1.03,0-1.67.79-1.67,2.26v3.57h-.78v-6.41Z"></path></g><g><path class="cls-18" d="M84.46,224.24h2.43c2.94,0,4.62,1.68,4.62,4.6s-1.64,4.46-4.63,4.46h-2.42v-9.06ZM86.8,232.56c2.5,0,3.89-1.16,3.89-3.74s-1.4-3.83-3.82-3.83h-1.61v7.57h1.54Z"></path><path class="cls-18" d="M93.11,224.24h.94v1.39h-.94v-1.39ZM93.2,226.89h.77v6.41h-.77v-6.41Z"></path><path class="cls-18" d="M96.01,226.89h.78v1.05c.4-.76,1.12-1.14,2.01-1.14,1.38,0,2.2.81,2.2,2.51v3.99h-.78v-3.71c0-1.45-.55-2.11-1.61-2.11-1.16,0-1.83.79-1.83,2.55v3.27h-.78v-6.41Z"></path><path class="cls-18" d="M102.88,224.24h.94v1.39h-.94v-1.39ZM102.97,226.89h.77v6.41h-.77v-6.41Z"></path><path class="cls-18" d="M105.78,226.89h.78v1.05c.4-.76,1.12-1.14,2.01-1.14,1.38,0,2.2.81,2.2,2.51v3.99h-.78v-3.71c0-1.45-.55-2.11-1.61-2.11-1.16,0-1.83.79-1.83,2.55v3.27h-.78v-6.41Z"></path><path class="cls-18" d="M112.23,234.06s0-.1.03-.26l1.11-.88c-.57-.22-.96-.59-.96-1.26,0-.53.27-.9.72-1.2-.36-.37-.56-.87-.56-1.45,0-1.3,1.04-2.2,2.39-2.2.64,0,1.22.21,1.64.58l1.02-.86.4.49-1,.88c.19.33.3.71.3,1.14,0,1.28-.96,2.13-2.33,2.13-.53,0-.99-.12-1.37-.34-.31.18-.45.42-.45.72,0,.66.63.83,1.62.98,1.6.25,2.99.44,2.99,1.75,0,1.16-1.05,1.78-2.7,1.78-1.82,0-2.85-.7-2.85-2ZM115.09,235.45c1.09,0,1.92-.34,1.92-1.08,0-.86-1.16-.96-2.31-1.14-.31-.05-.6-.1-.89-.17l-.8.92c-.01.09-.01.11-.01.15,0,.9.79,1.33,2.09,1.33ZM114.96,230.53c.98,0,1.59-.65,1.59-1.53s-.64-1.56-1.58-1.56-1.62.65-1.62,1.55.63,1.55,1.61,1.55Z"></path><path class="cls-18" d="M122.72,224.24h2.52c1.99,0,2.97.93,2.97,2.5,0,1.25-.64,2.07-1.85,2.38l2.44,4.19h-.92l-2.34-4.07c-.21,0-.44,0-.65,0h-1.36v4.06h-.81v-9.06ZM125.16,228.53c1.38,0,2.24-.55,2.24-1.78s-.88-1.77-2.24-1.77h-1.64v3.56h1.64Z"></path><path class="cls-18" d="M129.72,230.09c0-1.92,1.25-3.29,3.05-3.29s3.04,1.36,3.04,3.29-1.27,3.3-3.04,3.3-3.05-1.36-3.05-3.3ZM132.77,232.7c1.37,0,2.26-1.04,2.26-2.61s-.9-2.61-2.26-2.61-2.28,1.05-2.28,2.61.9,2.61,2.28,2.61Z"></path><path class="cls-18" d="M137.26,230.09c0-1.92,1.25-3.29,3.05-3.29s3.04,1.36,3.04,3.29-1.27,3.3-3.04,3.3-3.05-1.36-3.05-3.3ZM140.3,232.7c1.37,0,2.26-1.04,2.26-2.61s-.9-2.61-2.26-2.61-2.28,1.05-2.28,2.61.9,2.61,2.28,2.61Z"></path><path class="cls-18" d="M145.09,226.89h.78v1.1c.38-.85,1.11-1.19,1.88-1.19.91,0,1.57.4,1.89,1.25.4-.83,1.09-1.25,2-1.25,1.55,0,2.13,1.16,2.13,2.68v3.82h-.78v-3.64c0-1.33-.39-2.18-1.52-2.18-1.02,0-1.65.77-1.65,2.26v3.57h-.78v-3.76c0-1.4-.52-2.07-1.5-2.07-1.03,0-1.67.79-1.67,2.26v3.57h-.78v-6.41Z"></path></g><g><path class="cls-18" d="M78.44,384.01h.81v8.33h4.18v.73h-4.99v-9.06Z"></path><path class="cls-18" d="M84.57,384.01h.94v1.39h-.94v-1.39ZM84.65,386.67h.77v6.41h-.77v-6.41Z"></path><path class="cls-18" d="M86.82,386.67h.86l2.1,5.42,2.11-5.42h.85l-2.61,6.41h-.68l-2.63-6.41Z"></path><path class="cls-18" d="M94.08,384.01h.94v1.39h-.94v-1.39ZM94.16,386.67h.77v6.41h-.77v-6.41Z"></path><path class="cls-18" d="M96.97,386.67h.78v1.05c.4-.76,1.12-1.14,2.01-1.14,1.38,0,2.2.81,2.2,2.51v3.99h-.78v-3.71c0-1.45-.55-2.11-1.61-2.11-1.16,0-1.83.79-1.83,2.55v3.27h-.78v-6.41Z"></path><path class="cls-18" d="M103.42,393.84s0-.1.03-.26l1.11-.88c-.57-.22-.96-.59-.96-1.26,0-.53.27-.9.72-1.2-.36-.37-.56-.87-.56-1.45,0-1.3,1.04-2.2,2.38-2.2.64,0,1.22.21,1.64.58l1.02-.86.4.49-1,.88c.19.33.3.71.3,1.14,0,1.28-.96,2.13-2.33,2.13-.53,0-.99-.12-1.37-.34-.31.17-.45.42-.45.71,0,.66.63.83,1.62.98,1.6.25,2.99.44,2.99,1.75,0,1.16-1.05,1.78-2.7,1.78-1.82,0-2.85-.7-2.85-2ZM106.28,395.23c1.09,0,1.92-.34,1.92-1.08,0-.86-1.16-.96-2.31-1.14-.31-.05-.6-.1-.89-.17l-.8.92c-.01.09-.01.11-.01.15,0,.9.79,1.33,2.09,1.33ZM106.15,390.3c.98,0,1.59-.65,1.59-1.53s-.64-1.56-1.58-1.56-1.62.65-1.62,1.55.63,1.55,1.61,1.55Z"></path><path class="cls-18" d="M113.91,384.01h2.52c1.99,0,2.97.93,2.97,2.5,0,1.25-.64,2.07-1.85,2.38l2.44,4.19h-.92l-2.34-4.07c-.21,0-.44,0-.65,0h-1.36v4.06h-.81v-9.06ZM116.35,388.3c1.38,0,2.24-.55,2.24-1.78s-.88-1.77-2.24-1.77h-1.64v3.56h1.64Z"></path><path class="cls-18" d="M120.91,389.86c0-1.92,1.25-3.29,3.05-3.29s3.04,1.37,3.04,3.29-1.27,3.3-3.04,3.3-3.05-1.37-3.05-3.3ZM123.96,392.47c1.37,0,2.26-1.04,2.26-2.61s-.9-2.61-2.26-2.61-2.28,1.05-2.28,2.61.9,2.61,2.28,2.61Z"></path><path class="cls-18" d="M128.45,389.86c0-1.92,1.25-3.29,3.05-3.29s3.04,1.37,3.04,3.29-1.27,3.3-3.04,3.3-3.05-1.37-3.05-3.3ZM131.5,392.47c1.37,0,2.26-1.04,2.26-2.61s-.9-2.61-2.26-2.61-2.28,1.05-2.28,2.61.9,2.61,2.28,2.61Z"></path><path class="cls-18" d="M136.29,386.67h.78v1.1c.38-.84,1.11-1.19,1.88-1.19.91,0,1.57.4,1.89,1.25.4-.83,1.09-1.25,2-1.25,1.55,0,2.13,1.16,2.13,2.68v3.82h-.78v-3.64c0-1.33-.39-2.18-1.52-2.18-1.02,0-1.65.77-1.65,2.26v3.57h-.78v-3.76c0-1.4-.52-2.07-1.5-2.07-1.03,0-1.67.79-1.67,2.26v3.57h-.78v-6.41Z"></path></g><g><path class="cls-18" d="M270.46,446.59h2.43c2.94,0,4.62,1.68,4.62,4.6s-1.64,4.46-4.63,4.46h-2.42v-9.06ZM272.81,454.9c2.5,0,3.89-1.16,3.89-3.74s-1.4-3.83-3.82-3.83h-1.61v7.57h1.54Z"></path><path class="cls-18" d="M278.96,452.49c0-1.84.99-3.34,2.81-3.34,1.96,0,2.76,1.53,2.76,2.94,0,.1-.01.4-.04.55h-4.76c.03,1.51.84,2.39,2.14,2.39.82,0,1.35-.23,1.91-.83l.55.49c-.73.75-1.43,1.05-2.46,1.05-1.89,0-2.91-1.41-2.91-3.25ZM283.78,452.06c0-.08,0-.16,0-.24,0-.92-.58-2.01-2-2.01-1.23,0-1.98.98-2.07,2.26h4.06Z"></path><path class="cls-18" d="M285.94,452.44c0-1.83,1.06-3.29,2.86-3.29,1.17,0,2.09.58,2.51,1.74l-.7.27c-.27-.82-.9-1.33-1.81-1.33-1.42,0-2.09,1.25-2.09,2.61s.68,2.62,2.09,2.62c.91,0,1.53-.51,1.81-1.33l.7.27c-.42,1.16-1.34,1.75-2.51,1.75-1.8,0-2.86-1.46-2.86-3.3Z"></path><path class="cls-18" d="M295.01,452.12l-1.3,1.37v2.16h-.78v-9.06h.78v5.9l3.15-3.24h1.01l-2.28,2.35,2.67,4.06h-.92l-2.31-3.53Z"></path></g><g><path class="cls-18" d="M71.59,108.75h.81v4.86l4.65-4.86h1.09l-3.45,3.54,3.48,5.52h-.95l-3.11-4.93-1.71,1.75v3.17h-.81v-9.06Z"></path><path class="cls-18" d="M79.32,108.75h.94v1.39h-.94v-1.39ZM79.41,111.4h.77v6.41h-.77v-6.41Z"></path><path class="cls-18" d="M82.97,116.33v-4.31h-1.42v-.62h1.42v-1.85l.79-.46v2.31h1.54v.62h-1.54v4.12c0,.71.22,1.11.81,1.11.19,0,.46-.04.73-.12v.62c-.32.1-.64.16-.92.16-.85,0-1.4-.49-1.4-1.57Z"></path><path class="cls-18" d="M86.33,114.6c0-1.83,1.06-3.29,2.86-3.29,1.17,0,2.09.59,2.51,1.74l-.7.27c-.27-.82-.9-1.33-1.81-1.33-1.42,0-2.09,1.25-2.09,2.61s.68,2.62,2.09,2.62c.91,0,1.53-.51,1.81-1.33l.7.27c-.42,1.16-1.34,1.75-2.51,1.75-1.8,0-2.86-1.46-2.86-3.3Z"></path><path class="cls-18" d="M93.33,108.75h.78v3.69c.4-.75,1.1-1.13,2.01-1.13,1.4,0,2.2.85,2.2,2.51v3.99h-.78v-3.71c0-1.43-.53-2.11-1.61-2.11-1.18,0-1.83.83-1.83,2.55v3.27h-.78v-9.06Z"></path><path class="cls-18" d="M99.96,114.65c0-1.84.99-3.34,2.81-3.34,1.96,0,2.76,1.53,2.76,2.94,0,.1-.01.4-.04.55h-4.76c.03,1.51.84,2.39,2.14,2.39.82,0,1.35-.23,1.91-.83l.55.49c-.73.75-1.43,1.05-2.46,1.05-1.89,0-2.91-1.41-2.91-3.25ZM104.78,114.22c0-.08,0-.16,0-.24,0-.92-.58-2.02-2-2.02-1.23,0-1.98.98-2.07,2.26h4.06Z"></path><path class="cls-18" d="M107.26,111.4h.78v1.05c.4-.76,1.12-1.14,2.01-1.14,1.38,0,2.2.81,2.2,2.51v3.99h-.78v-3.71c0-1.45-.55-2.11-1.61-2.11-1.16,0-1.83.79-1.83,2.55v3.27h-.78v-6.41Z"></path></g><path class="cls-18" d="M68.55,69.88c0-2.17,1.27-3.59,3.16-3.59s3.18,1.42,3.18,3.59-1.27,3.58-3.18,3.58-3.16-1.42-3.16-3.58ZM71.71,72.87c1.57,0,2.55-1.16,2.55-2.99s-.99-3-2.55-3-2.54,1.15-2.54,3,.99,2.99,2.54,2.99Z"></path><path class="cls-18" d="M78.58,65.39h.48l-3.55,9.08h-.48l3.55-9.08Z"></path><path class="cls-18" d="M80.28,66.39h.93l2.35,5.66,2.35-5.66h.92v6.98h-.62v-6.16l-2.35,5.59h-.61l-2.36-5.59v6.16h-.62v-6.98Z"></path><g><path class="cls-18" d="M18.27,264.34h1.94c1.53,0,2.29.72,2.29,1.92,0,.97-.5,1.6-1.43,1.83l1.88,3.22h-.71l-1.8-3.13c-.16,0-.34,0-.5,0h-1.05v3.13h-.62v-6.98ZM20.15,267.64c1.06,0,1.73-.43,1.73-1.37s-.68-1.37-1.73-1.37h-1.26v2.74h1.26Z"></path><path class="cls-18" d="M24.13,264.34h4.56v.56h-3.94v2.59h3.53v.56h-3.53v2.7h3.94v.56h-4.56v-6.98Z"></path><path class="cls-18" d="M29.98,264.34h4.51v.56h-3.89v2.59h3.38v.56h-3.38v3.26h-.62v-6.98Z"></path></g><path class="cls-18" d="M24.21,234.46h1.94c1.46,0,2.29.69,2.29,1.95s-.83,1.96-2.29,1.96h-1.33v3.07h-.62v-6.98ZM26.1,237.81c1.09,0,1.73-.47,1.73-1.4s-.62-1.39-1.73-1.39h-1.27v2.79h1.27Z"></path><g><path class="cls-18" d="M20.67,209.8h.65l1.71,6.06,1.76-5.7h.63l1.76,5.7,1.7-6.06h.65l-2.01,6.98h-.63l-1.79-5.71-1.79,5.71h-.64l-2.01-6.98Z"></path><path class="cls-18" d="M30.67,209.8h4.51v.56h-3.89v2.59h3.38v.56h-3.38v3.26h-.62v-6.98Z"></path></g><g><path class="cls-18" d="M20.74,143.85h1.87c2.26,0,3.56,1.29,3.56,3.54s-1.27,3.43-3.57,3.43h-1.86v-6.98ZM22.55,150.25c1.92,0,2.99-.89,2.99-2.88s-1.08-2.95-2.94-2.95h-1.24v5.83h1.19Z"></path><path class="cls-18" d="M26.83,143.85h.65l1.71,6.06,1.76-5.7h.63l1.76,5.7,1.7-6.06h.65l-2.01,6.98h-.63l-1.79-5.71-1.79,5.71h-.64l-2.01-6.98Z"></path></g><path class="cls-18" d="M114.14,51.33h.65l1.71,6.06,1.76-5.7h.63l1.76,5.7,1.7-6.06h.65l-2.01,6.98h-.63l-1.79-5.71-1.79,5.71h-.64l-2.01-6.98Z"></path><path class="cls-18" d="M126.42,50.46h.48l-3.55,9.08h-.47l3.55-9.08Z"></path><path class="cls-18" d="M128.12,51.33h1.87c2.26,0,3.56,1.29,3.56,3.54s-1.27,3.43-3.57,3.43h-1.86v-6.98ZM129.93,57.73c1.92,0,2.99-.89,2.99-2.88s-1.08-2.95-2.94-2.95h-1.24v5.83h1.19Z"></path><g><path class="cls-22" d="M17.74,546.5h1.67c1.03,0,1.65.52,1.65,1.38,0,.58-.28,1.03-.76,1.23.68.16,1.04.66,1.04,1.42,0,.99-.63,1.54-1.77,1.54h-1.83v-5.57ZM19.56,548.96c.6,0,1-.39,1-1.01s-.42-.99-1.16-.99h-1.17v2h1.33ZM19.53,551.61c.88,0,1.32-.37,1.32-1.1,0-.7-.41-1.1-1.1-1.1h-1.51v2.2h1.3Z"></path><path class="cls-22" d="M22.4,550.58v-2.45h.47v2.28c0,.89.34,1.29,1,1.29.71,0,1.13-.48,1.13-1.57v-2.01h.48v3.94h-.48v-.65c-.25.47-.7.7-1.25.7-.84,0-1.35-.51-1.35-1.55Z"></path><path class="cls-22" d="M26.75,546.5h.58v.86h-.58v-.86ZM26.8,548.13h.47v3.94h-.47v-3.94Z"></path><path class="cls-22" d="M28.62,551.25v-4.75h.48v4.67c0,.37.14.52.39.52.1,0,.24-.02.38-.07v.41c-.18.07-.37.1-.52.1-.44,0-.72-.27-.72-.88Z"></path><path class="cls-22" d="M30.48,550.1c0-1.21.79-2.02,1.8-2.02.64,0,1.15.33,1.41.84v-2.41h.47v5.57h-.47v-.78c-.27.52-.77.83-1.41.83-1.06,0-1.8-.88-1.8-2.03ZM32.35,551.68c.8,0,1.37-.66,1.37-1.59s-.57-1.59-1.37-1.59-1.39.67-1.39,1.59.58,1.59,1.39,1.59Z"></path><path class="cls-22" d="M35.44,546.5h.58v.86h-.58v-.86ZM35.49,548.13h.47v3.94h-.47v-3.94Z"></path><path class="cls-22" d="M37.3,548.13h.48v.64c.25-.47.69-.7,1.24-.7.85,0,1.36.5,1.36,1.54v2.46h-.48v-2.28c0-.89-.34-1.3-.99-1.3-.71,0-1.13.48-1.13,1.57v2.01h-.48v-3.94Z"></path><path class="cls-22" d="M41.34,552.54s0-.06.02-.16l.68-.54c-.35-.14-.59-.36-.59-.78,0-.32.16-.55.44-.74-.22-.23-.34-.54-.34-.89,0-.8.64-1.36,1.47-1.36.4,0,.75.13,1.01.36l.63-.53.24.3-.62.54c.12.2.18.44.18.7,0,.79-.59,1.31-1.44,1.31-.32,0-.61-.08-.84-.21-.19.11-.28.26-.28.44,0,.41.39.51,1,.6.98.15,1.84.27,1.84,1.08,0,.72-.64,1.1-1.66,1.1-1.12,0-1.75-.43-1.75-1.23ZM43.1,553.39c.67,0,1.18-.21,1.18-.66,0-.53-.71-.59-1.42-.7-.19-.03-.37-.06-.55-.1l-.49.56c0,.06,0,.07,0,.09,0,.55.49.82,1.29.82ZM43.02,550.36c.6,0,.98-.4.98-.94s-.39-.96-.97-.96-1,.4-1,.95.39.95.99.95Z"></path><path class="cls-22" d="M49.51,546.5h.42l2.05,5.57h-.54l-.51-1.45h-2.42l-.51,1.45h-.55l2.05-5.57ZM50.78,550.18l-1.05-2.99-1.06,2.99h2.11Z"></path><path class="cls-22" d="M53.31,551.29v.78h-.47v-5.57h.47v2.41c.26-.5.77-.84,1.41-.84,1,0,1.79.82,1.79,2.02s-.74,2.03-1.79,2.03c-.64,0-1.14-.31-1.41-.83ZM54.64,551.68c.81,0,1.39-.67,1.39-1.59s-.58-1.59-1.39-1.59-1.37.66-1.37,1.59.57,1.59,1.37,1.59Z"></path><path class="cls-22" d="M57.46,550.1c0-1.18.77-2.02,1.88-2.02s1.87.84,1.87,2.02-.78,2.03-1.87,2.03-1.88-.84-1.88-2.03ZM59.34,551.7c.84,0,1.39-.64,1.39-1.6s-.55-1.6-1.39-1.6-1.4.64-1.4,1.6.56,1.6,1.4,1.6Z"></path><path class="cls-22" d="M61.86,548.13h.53l1.29,3.33,1.3-3.33h.52l-1.61,3.94h-.42l-1.61-3.94Z"></path><path class="cls-22" d="M66.18,550.13c0-1.13.61-2.05,1.73-2.05,1.21,0,1.7.94,1.7,1.81,0,.06,0,.24-.02.34h-2.93c.02.93.52,1.47,1.32,1.47.5,0,.83-.14,1.17-.51l.34.3c-.45.46-.88.65-1.51.65-1.16,0-1.79-.87-1.79-2ZM69.14,549.86s0-.1,0-.15c0-.57-.36-1.24-1.23-1.24-.75,0-1.22.6-1.27,1.39h2.49Z"></path></g><polyline class="cls-1" points="75.83 549.41 88.98 549.41 91.62 534.94"></polyline><path class="cls-21" d="M92.35,530.97l-3.05,5.21s2.32-1.24,4.06.74l-1.01-5.95Z"></path><g><path class="cls-22" d="M170.12,558.88h.5v5.12h2.57v.45h-3.07v-5.57Z"></path><path class="cls-22" d="M176.65,563.72c-.26.5-.77.79-1.38.79-.88,0-1.42-.48-1.42-1.2,0-.42.18-.71.44-.89.28-.19.67-.26,1.09-.26h1.26v-.17c0-.73-.38-1.13-1.12-1.13-.48,0-.86.18-1.22.63l-.34-.3c.42-.52.94-.75,1.59-.75,1,0,1.56.55,1.56,1.54v2.46h-.44l-.02-.74ZM175.31,564.12c.72,0,1.33-.57,1.33-1.35v-.22h-1.2c-.32,0-.63.05-.84.2-.17.13-.27.31-.27.58,0,.49.37.8.98.8Z"></path><path class="cls-22" d="M178.4,560.52h.48v.64c.25-.47.69-.7,1.24-.7.85,0,1.36.5,1.36,1.54v2.46h-.48v-2.28c0-.89-.34-1.3-.99-1.3-.71,0-1.13.48-1.13,1.57v2.01h-.48v-3.94Z"></path><path class="cls-22" d="M182.54,562.48c0-1.21.79-2.02,1.8-2.02.64,0,1.15.33,1.41.84v-2.41h.47v5.57h-.47v-.78c-.27.52-.77.83-1.41.83-1.06,0-1.8-.88-1.8-2.03ZM184.41,564.07c.8,0,1.37-.66,1.37-1.59s-.57-1.59-1.37-1.59-1.39.67-1.39,1.59.58,1.59,1.39,1.59Z"></path><path class="cls-22" d="M187.14,563.61l.34-.28c.2.46.66.77,1.26.77.57,0,.95-.27.95-.72,0-.55-.53-.68-1.1-.82-.66-.16-1.23-.38-1.23-1.06,0-.62.53-1.05,1.29-1.05.6,0,1.1.26,1.37.76l-.37.21c-.21-.38-.57-.58-1.01-.58-.48,0-.84.24-.84.62,0,.4.36.54.93.68.67.16,1.43.34,1.43,1.2,0,.71-.56,1.17-1.42,1.17-.79,0-1.35-.4-1.6-.9Z"></path><path class="cls-22" d="M191.08,562.48c0-1.13.65-2.02,1.76-2.02.72,0,1.28.36,1.54,1.07l-.43.17c-.17-.5-.55-.82-1.11-.82-.87,0-1.29.77-1.29,1.61s.42,1.61,1.29,1.61c.56,0,.94-.31,1.11-.82l.43.16c-.26.71-.82,1.08-1.54,1.08-1.11,0-1.76-.9-1.76-2.03Z"></path><path class="cls-22" d="M198.04,563.72c-.26.5-.77.79-1.38.79-.88,0-1.42-.48-1.42-1.2,0-.42.18-.71.44-.89.28-.19.67-.26,1.09-.26h1.26v-.17c0-.73-.38-1.13-1.12-1.13-.48,0-.86.18-1.22.63l-.34-.3c.42-.52.94-.75,1.59-.75,1,0,1.56.55,1.56,1.54v2.46h-.44l-.02-.74ZM196.7,564.12c.72,0,1.33-.57,1.33-1.35v-.22h-1.2c-.32,0-.63.05-.84.2-.17.13-.27.31-.27.58,0,.49.37.8.98.8Z"></path><path class="cls-22" d="M203.48,562.49c0,1.21-.79,2.02-1.79,2.02-.64,0-1.15-.33-1.41-.83v2.41h-.47v-5.57h.47v.78c.27-.52.77-.83,1.41-.83,1.06,0,1.79.88,1.79,2.03ZM201.61,564.08c.81,0,1.39-.67,1.39-1.59s-.58-1.59-1.39-1.59-1.37.66-1.37,1.59.57,1.59,1.37,1.59Z"></path><path class="cls-22" d="M204.46,562.51c0-1.13.61-2.05,1.73-2.05,1.21,0,1.7.94,1.7,1.81,0,.06,0,.24-.02.34h-2.93c.02.93.52,1.47,1.32,1.47.5,0,.83-.14,1.17-.51l.34.3c-.45.46-.88.65-1.51.65-1.16,0-1.79-.87-1.79-2ZM207.42,562.25s0-.1,0-.15c0-.57-.36-1.24-1.23-1.24-.75,0-1.22.6-1.27,1.39h2.49Z"></path><path class="cls-22" d="M208.82,562.48c0-1.21.79-2.02,1.8-2.02.64,0,1.15.33,1.41.84v-2.41h.47v5.57h-.47v-.78c-.27.52-.77.83-1.41.83-1.06,0-1.8-.88-1.8-2.03ZM210.69,564.07c.8,0,1.37-.66,1.37-1.59s-.57-1.59-1.37-1.59-1.39.67-1.39,1.59.58,1.59,1.39,1.59Z"></path><path class="cls-22" d="M216.06,558.88h1.55c1.22,0,1.83.57,1.83,1.54,0,.77-.4,1.28-1.14,1.46l1.5,2.57h-.57l-1.44-2.5c-.13,0-.27,0-.4,0h-.84v2.5h-.5v-5.57ZM217.56,561.52c.85,0,1.38-.34,1.38-1.1s-.54-1.09-1.38-1.09h-1.01v2.19h1.01Z"></path><path class="cls-22" d="M220.45,562.48c0-1.18.77-2.02,1.88-2.02s1.87.84,1.87,2.02-.78,2.03-1.87,2.03-1.88-.84-1.88-2.03ZM222.33,564.08c.84,0,1.39-.64,1.39-1.6s-.55-1.6-1.39-1.6-1.4.64-1.4,1.6.56,1.6,1.4,1.6Z"></path><path class="cls-22" d="M225.16,562.48c0-1.18.77-2.02,1.88-2.02s1.87.84,1.87,2.02-.78,2.03-1.87,2.03-1.88-.84-1.88-2.03ZM227.03,564.08c.84,0,1.39-.64,1.39-1.6s-.55-1.6-1.39-1.6-1.4.64-1.4,1.6.56,1.6,1.4,1.6Z"></path><path class="cls-22" d="M230.38,560.89h-.88v-.38h.88v-.57c0-.82.43-1.12,1.03-1.12.26,0,.47.05.66.15l-.16.36c-.14-.07-.28-.11-.45-.11-.4,0-.6.25-.6.71v.57h.97v.38h-.97v3.56h-.48v-3.56Z"></path></g></g></g></svg> 