<?xml version="1.0" encoding="UTF-8"?> <svg xmlns="http://www.w3.org/2000/svg" id="Layer_2" data-name="Layer 2" viewBox="0 0 564.57 529.76"><defs><style> .cls-1 { stroke-dasharray: 6.62 5.52; } .cls-1, .cls-2, .cls-3, .cls-4, .cls-5, .cls-6, .cls-7, .cls-8, .cls-9, .cls-10, .cls-11, .cls-12, .cls-13, .cls-14, .cls-15 { fill: none; } .cls-1, .cls-2, .cls-3, .cls-4, .cls-5, .cls-6, .cls-7, .cls-10, .cls-11, .cls-13, .cls-14 { stroke-width: .25px; } .cls-1, .cls-3, .cls-4, .cls-5, .cls-6, .cls-7, .cls-8, .cls-9, .cls-10, .cls-11, .cls-14, .cls-15 { stroke-linecap: round; stroke-linejoin: round; } .cls-1, .cls-3, .cls-4, .cls-5, .cls-6, .cls-7, .cls-10, .cls-11 { stroke: #75655e; } .cls-2 { stroke: #afa49f; } .cls-2, .cls-12, .cls-13 { stroke-miterlimit: 10; } .cls-3 { stroke-dasharray: 1.54 1.54; } .cls-16 { fill: #3a2a22; } .cls-4 { stroke-dasharray: 5.79 4.83; } .cls-5 { stroke-dasharray: 6.05 5.04; } .cls-6 { stroke-dasharray: 6.08 5.07; } .cls-7 { stroke-dasharray: 6.11 5.09; } .cls-8 { stroke: #55453d; stroke-width: .15px; } .cls-17 { fill: #fff; } .cls-9, .cls-12 { stroke-width: .75px; } .cls-9, .cls-12, .cls-14, .cls-15 { stroke: #3a2a22; } .cls-18 { fill: #bc8ebc; } .cls-11 { stroke-dasharray: 6.14 5.11; } .cls-13 { stroke: #bc8ebc; } .cls-19 { fill: #afa49f; } .cls-15 { stroke-width: .35px; } .cls-20 { fill: #75655e; } </style></defs><g id="Layer_1-2" data-name="Layer 1"><g><polygon class="cls-17" points="445.65 15.44 445.65 234.45 509.87 234.45 564.2 383.58 530.38 394.67 496.38 405.29 462.37 415.64 428.19 425.62 393.91 435.23 359.53 444.56 359.53 428.95 359.53 428.94 330.24 436.34 293.93 445.12 257.52 453.62 221.03 461.56 184.44 469.23 147.75 476.53 110.98 483.37 74.2 489.93 37.34 496.03 .38 501.76 .38 441.24 4.24 441.24 4.24 38.54 108.55 38.54 108.55 50.09 177.49 50.09 177.49 .37 564.2 .37 564.2 15.44 445.65 15.44"></polygon><line class="cls-10" x1="460.01" y1="15.44" x2="460.35" y2="18.42"></line><line class="cls-5" x1="460.93" y1="23.42" x2="484.84" y2="230.16"></line><polyline class="cls-10" points="485.13 232.67 485.48 235.65 488.48 235.65"></polyline><line class="cls-1" x1="493.99" y1="235.65" x2="503.37" y2="235.65"></line><polyline class="cls-10" points="506.13 235.65 509.13 235.65 510.16 238.47"></polyline><line class="cls-7" x1="511.9" y1="243.25" x2="560.82" y2="377.72"></line><polyline class="cls-10" points="561.7 380.11 562.72 382.93 559.87 383.86"></polyline><polyline class="cls-11" points="555 385.43 534.17 392.17 505.62 401.23 476.97 410.01 448.24 418.6 419.5 426.91 395.93 433.46"></polyline><polyline class="cls-10" points="393.47 434.15 390.58 434.95 391.42 437.83"></polyline><polyline class="cls-10" points="391.68 438.73 392.52 441.61 389.62 442.38"></polyline><polyline class="cls-6" points="384.73 443.7 358.52 450.75 324.42 459.53 290.33 468.03 256.05 476.07 221.77 483.83 187.39 491.22 152.93 498.34 118.37 504.99 83.72 511.37 49.07 517.37 14.33 523.01 5.85 524.3"></polyline><line class="cls-10" x1="3.34" y1="524.68" x2=".38" y2="525.13"></line><polygon class="cls-15" points="549.23 376.37 501.83 246 445.74 246 445.74 243.69 503.4 243.69 552.28 377.85 516.24 389.4 480.02 400.67 443.71 411.48 407.3 421.92 370.81 432 370.25 429.69 406.29 419.8 442.14 409.54 477.99 398.92 513.66 387.83 549.23 376.37"></polygon><g><path class="cls-8" d="M116.92,106.29c25.52,0,43.4-20.68,43.4-46.2"></path><path class="cls-8" d="M56.88,122.53c0-23.16,18.64-39.39,41.62-39.39"></path><path class="cls-8" d="M132.12,187.09c-23.16,0-39.39,18.64-39.39,41.62"></path><path class="cls-8" d="M127.38,315.22c0,23.16,18.64,39.39,41.62,39.39"></path><path class="cls-8" d="M383.76,283c23.16,0,39.39-18.64,39.39-41.63"></path></g><line class="cls-8" x1="114.12" y1="50.09" x2="160.32" y2="50.09"></line><line class="cls-8" x1="116.92" y1="60.09" x2="160.32" y2="60.09"></line><rect class="cls-15" x="114.12" y="60.09" width="2.8" height="46.2"></rect><rect class="cls-15" x="56.88" y="122.53" width="41.62" height="2.23"></rect><rect class="cls-15" x="132.12" y="187.09" width="2.23" height="41.62"></rect><rect class="cls-15" x="85.92" y="241.38" width="2.23" height="41.67"></rect><rect class="cls-15" x="127.38" y="312.98" width="41.62" height="2.23"></rect><rect class="cls-15" x="381.53" y="241.38" width="2.23" height="41.63"></rect><rect class="cls-15" x="190.9" y="57.85" width="41.58" height="2.23"></rect><rect class="cls-15" x="253.27" y="57.85" width="41.58" height="2.23"></rect><polyline class="cls-10" points="253.17 140.6 253.17 139.85 252.42 139.85"></polyline><line class="cls-3" x1="250.88" y1="139.85" x2="227.07" y2="139.85"></line><polyline class="cls-10" points="226.3 139.85 225.55 139.85 225.55 140.6"></polyline><line class="cls-3" x1="225.55" y1="142.13" x2="225.55" y2="165.94"></line><polyline class="cls-10" points="225.55 166.71 225.55 167.46 226.3 167.46"></polyline><line class="cls-3" x1="227.84" y1="167.46" x2="251.65" y2="167.46"></line><polyline class="cls-10" points="252.42 167.46 253.17 167.46 253.17 166.71"></polyline><line class="cls-3" x1="253.17" y1="165.17" x2="253.17" y2="141.36"></line><polyline class="cls-10" points="253.17 223.29 253.17 222.54 252.42 222.54"></polyline><line class="cls-3" x1="250.88" y1="222.54" x2="227.07" y2="222.54"></line><polyline class="cls-10" points="226.3 222.54 225.55 222.54 225.55 223.29"></polyline><line class="cls-3" x1="225.55" y1="224.82" x2="225.55" y2="248.63"></line><polyline class="cls-10" points="225.55 249.4 225.55 250.15 226.3 250.15"></polyline><line class="cls-3" x1="227.84" y1="250.15" x2="251.65" y2="250.15"></line><polyline class="cls-10" points="252.42 250.15 253.17 250.15 253.17 249.4"></polyline><line class="cls-3" x1="253.17" y1="247.86" x2="253.17" y2="224.06"></line><line class="cls-10" x1="162.82" y1="172.46" x2="162.82" y2="175.46"></line><line class="cls-4" x1="162.82" y1="180.29" x2="162.82" y2="252.22"></line><line class="cls-10" x1="162.82" y1="254.64" x2="162.82" y2="257.64"></line><line class="cls-15" x1="174.74" y1="299.22" x2="174.73" y2="136.32"></line><line class="cls-15" x1="174.73" y1="172.46" x2="147.01" y2="172.46"></line><line class="cls-15" x1="174.74" y1="257.64" x2="147.01" y2="257.64"></line><line class="cls-15" x1="172.24" y1="172.46" x2="172.24" y2="136.32"></line><line class="cls-15" x1="172.24" y1="299.22" x2="172.24" y2="257.64"></line><rect class="cls-15" x="225.56" y="136.32" width="49.71" height="117.32"></rect><g><rect class="cls-15" x="245.72" y="185.16" width="9.78" height="1.74" rx=".59" ry=".59"></rect><circle class="cls-15" cx="238.92" cy="186.03" r=".9"></circle></g><polyline class="cls-15" points="254.18 186.9 254.18 189.32 252.63 189.32 252.63 186.9"></polyline><line class="cls-15" x1="252.63" y1="188.46" x2="254.18" y2="188.46"></line><polyline class="cls-15" points="250.32 186.9 250.32 198.95 228.56 198.95 228.56 173.1 250.32 173.1 250.32 185.16"></polyline><polyline class="cls-15" points="249.24 185.16 249.24 174.18 229.64 174.18 229.64 197.87 249.24 197.87 249.24 186.9"></polyline><g><rect class="cls-15" x="22.27" y="59.81" width="7.45" height="17.6" rx="1.08" ry="1.08"></rect><path class="cls-15" d="M33.87,64.15c0-.28.11-.54.32-.73,2.09-1.88,5.3-3.09,8.9-3.09,6.31,0,11.42,3.71,11.42,8.28s-5.11,8.28-11.42,8.28c-3.6,0-6.8-1.2-8.9-3.08-.21-.19-.32-.46-.32-.73v-8.92Z"></path></g><line class="cls-15" x1="43.09" y1="60.33" x2="29.57" y2="60.33"></line><line class="cls-15" x1="43.09" y1="76.88" x2="29.57" y2="76.88"></line><polyline class="cls-15" points="22.27 89.54 47.29 89.54 47.29 128.18"></polyline><path class="cls-15" d="M30.34,109.74v9.87c0,.4.32.72.72.72h10.9c.4,0,.72-.32.72-.72v-20.82c0-.4-.32-.72-.72-.72h-10.9c-.4,0-.72.32-.72.72v9.48"></path><rect class="cls-15" x="26.89" y="108.27" width="5.89" height="1.47"></rect><g><circle class="cls-15" cx="36.51" cy="109.01" r=".84"></circle><rect class="cls-15" x="65.37" y="136.27" width="17.6" height="7.45" rx="1.08" ry="1.08"></rect><path class="cls-15" d="M69.71,147.87c-.28,0-.54.11-.73.32-1.88,2.09-3.09,5.3-3.09,8.9,0,6.31,3.71,11.42,8.28,11.42s8.28-5.11,8.28-11.42c0-3.6-1.2-6.8-3.08-8.9-.19-.21-.46-.32-.73-.32h-8.92Z"></path></g><line class="cls-15" x1="65.89" y1="157.09" x2="65.89" y2="143.57"></line><line class="cls-15" x1="82.45" y1="157.09" x2="82.45" y2="143.57"></line><line class="cls-15" x1="37.65" y1="221.37" x2="34.44" y2="221.37"></line><g><path class="cls-15" d="M33.58,221.37h-11.6c-1.38,0-2.5-1.12-2.5-2.5v-61.83c0-1.38,1.12-2.5,2.5-2.5h24.04c1.38,0,2.5,1.12,2.5,2.5v61.83c0,1.38-1.12,2.5-2.5,2.5h-8.37"></path><path class="cls-15" d="M34.44,225.4v-10.86c0-.24-.19-.43-.43-.43s-.43.19-.43.43v10.81"></path><path class="cls-15" d="M33.58,215.62c-.46-.17-.79-.61-.79-1.14,0-.67.54-1.21,1.21-1.21s1.21.54,1.21,1.21c0,.51-.32.95-.77,1.13"></path><path class="cls-15" d="M33.58,219.65c-2.66-.22-4.76-2.45-4.76-5.17,0-2.86,2.32-5.18,5.18-5.18s5.18,2.32,5.18,5.18c0,2.72-2.09,4.94-4.74,5.17"></path></g><rect class="cls-15" x="31.46" y="225.4" width="5.08" height=".97"></rect><line class="cls-15" x1="52.23" y1="226.36" x2="52.22" y2="151"></line><line class="cls-15" x1="52.23" y1="226.36" x2="52.22" y2="150.18"></line><line class="cls-15" x1="53.51" y1="226.36" x2="53.5" y2="150.18"></line><line class="cls-15" x1="53.51" y1="221.68" x2="52.23" y2="221.68"></line><line class="cls-15" x1="53.51" y1="183.68" x2="52.23" y2="183.68"></line><polyline class="cls-15" points="95.07 136.27 95.07 161.29 138.98 161.29"></polyline><path class="cls-15" d="M117.57,144.34h9.87c.4,0,.72.32.72.72v10.9c0,.4-.32.72-.72.72h-20.82c-.4,0-.72-.32-.72-.72v-10.9c0-.4.32-.72.72-.72h9.48"></path><rect class="cls-15" x="116.1" y="140.89" width="1.47" height="5.89"></rect><circle class="cls-15" cx="116.83" cy="150.51" r=".84"></circle><rect class="cls-15" x="196.44" y="13.3" width="30.61" height="38.03"></rect><rect class="cls-15" x="149.22" y="195.7" width="24.28" height="36.98"></rect><rect class="cls-15" x="150.3" y="196.78" width="22.12" height="34.82"></rect><path class="cls-15" d="M171.67,214.19c0,.71-.57,1.28-1.28,1.28s-1.28-.57-1.28-1.28.57-1.28,1.28-1.28c.71,0,1.28.57,1.28,1.28Z"></path><line class="cls-15" x1="172.42" y1="231.6" x2="173.5" y2="232.68"></line><line class="cls-15" x1="172.42" y1="196.78" x2="173.5" y2="195.7"></line><line class="cls-15" x1="150.3" y1="196.78" x2="149.22" y2="195.7"></line><line class="cls-15" x1="150.3" y1="231.6" x2="149.22" y2="232.68"></line><polygon class="cls-15" points="170.39 213.14 169.33 214.19 170.39 215.24 171.44 214.19 170.39 213.14"></polygon><line class="cls-15" x1="169.33" y1="214.19" x2="171.44" y2="214.19"></line><g><path class="cls-14" d="M277.39,37.57c.03,1.51.06,3.03.13,4.57.04.8.09,1.6.13,2.35.03.57.07,1.11.16,1.78.09.65.25,1.42-.23,1.73-.11.07-.25.12-.38.13-.77.06-.9-1.18-.97-2.24-.15-2.35.04-3.74.16-5.44.06-.9.1-1.9.14-2.89-.04-.99-.08-1.98-.14-2.89-.11-1.7-.3-3.09-.16-5.44.07-1.05.2-2.3.97-2.24.13.01.27.06.38.13.48.3.32,1.08.23,1.73-.1.67-.13,1.21-.16,1.78-.04.75-.09,1.56-.13,2.36-.07,1.54-.1,3.06-.13,4.57Z"></path><path class="cls-14" d="M272.7,37.57c.03,1.51.06,3.03.13,4.57.04.8.09,1.6.13,2.35.03.57.07,1.11.16,1.78.09.65.25,1.42-.23,1.73-.11.07-.25.12-.38.13-.77.06-.9-1.18-.97-2.24-.15-2.35.04-3.74.16-5.44.06-.9.1-1.9.14-2.89-.04-.99-.08-1.98-.14-2.89-.11-1.7-.3-3.09-.16-5.44.07-1.05.2-2.3.97-2.24.13.01.27.06.38.13.48.3.32,1.08.23,1.73-.1.67-.13,1.21-.16,1.78-.04.75-.09,1.56-.13,2.36-.07,1.54-.1,3.06-.13,4.57Z"></path><path class="cls-14" d="M268,37.57c.03,1.51.06,3.03.13,4.57.04.8.09,1.6.13,2.35.03.57.07,1.11.16,1.78.09.65.25,1.42-.23,1.73-.11.07-.25.12-.38.13-.77.06-.9-1.18-.97-2.24-.15-2.35.04-3.74.16-5.44.06-.9.1-1.9.14-2.89-.04-.99-.08-1.98-.14-2.89-.11-1.7-.3-3.09-.16-5.44.07-1.05.2-2.3.97-2.24.13.01.27.06.38.13.48.3.32,1.08.23,1.73-.1.67-.13,1.21-.16,1.78-.04.75-.09,1.56-.13,2.36-.07,1.54-.1,3.06-.13,4.57Z"></path></g><line class="cls-14" x1="244.03" y1="37.57" x2="300.67" y2="37.57"></line><polyline class="cls-14" points="16.82 485.22 50.92 479.77 84.92 473.95 118.92 467.85 152.84 461.38"></polyline><polyline class="cls-14" points="8.41 492.43 43.71 486.79 78.91 480.88 114.12 474.59 149.23 468.03 184.34 461.01 219.27 453.71 254.2 446.04 289.03 438 323.77 429.69 358.42 420.91"></polyline><line class="cls-14" x1="358.42" y1="371.66" x2="358.42" y2="420.91"></line><polyline class="cls-14" points="352.6 370.46 352.6 416.47 319.62 424.7 286.44 432.64 253.27 440.31 220.01 447.61 186.65 454.63"></polyline><polygon class="cls-14" points="437.52 33.48 431.79 33.48 431.79 227.52 425.41 227.52 425.41 233.34 437.52 233.34 437.52 33.48"></polygon><polygon class="cls-14" points="379.21 233.34 379.21 227.52 352.6 227.52 352.6 283.05 358.42 283.05 358.42 233.34 379.21 233.34"></polygon><polyline class="cls-14" points="359.53 428.95 359.53 444.56 393.91 435.23 428.19 425.62 462.37 415.64 496.38 405.29 530.38 394.67 564.2 383.58 509.87 234.45 445.65 234.45"></polyline><line class="cls-14" x1="467.41" y1="7.3" x2="564.2" y2="7.3"></line><polyline class="cls-14" points="465.1 .38 564.2 .38 564.2 13.12"></polyline><polygon class="cls-9" points="564.2 13.12 443.34 13.13 443.34 239.06 425.41 239.06 425.41 241.37 445.65 241.37 445.65 15.44 564.2 15.43 564.2 13.12"></polygon><polygon class="cls-9" points="379.21 241.38 366.46 241.38 366.46 284.16 364.15 284.16 364.15 239.07 379.21 239.07 379.21 241.38"></polygon><polygon class="cls-9" points="2.68 441.24 2.68 499.08 39.18 493.44 75.59 487.34 111.9 480.88 148.22 474.13 184.34 466.92 220.47 459.35 256.6 451.4 292.54 443.08 328.39 434.49 364.15 425.44 364.15 353.46 366.46 353.46 366.46 427.19 330.24 436.34 293.93 445.12 257.52 453.62 221.03 461.56 184.44 469.23 147.75 476.53 110.98 483.37 74.2 489.93 37.34 496.03 .38 501.76 .38 441.24 2.68 441.24"></polygon><line class="cls-9" x1="2.68" y1="441.24" x2="4.23" y2="441.24"></line><polyline class="cls-9" points="364.15 425.44 364.15 423.96 358.42 419.52 358.42 420.91 357.04 421.28 362.77 425.81 364.15 425.44"></polyline><rect class="cls-9" x="379.22" y="233.34" width="2.31" height="8.04"></rect><rect class="cls-9" x="423.11" y="233.34" width="2.31" height="8.04"></rect><polyline class="cls-9" points="290.33 437.73 291.62 443.36 289.4 443.82 288.02 438.28 290.33 437.73"></polyline><polyline class="cls-9" points="222.78 452.97 224.08 458.61 221.77 459.07 220.56 453.43 222.78 452.97"></polyline><polyline class="cls-9" points="188.96 460.09 190.16 465.72 187.85 466.18 186.75 460.55 188.96 460.09"></polyline><polyline class="cls-9" points="155.05 466.83 156.16 472.56 153.94 473.02 152.83 467.29 155.05 466.83"></polyline><polyline class="cls-9" points="87.05 479.49 88.06 485.13 85.75 485.59 84.83 479.86 87.05 479.49"></polyline><rect class="cls-9" x="358.42" y="281.85" width="5.73" height="2.31"></rect><rect class="cls-9" x="358.42" y="240.27" width="5.73" height="2.31"></rect><rect class="cls-9" x="365.35" y="233.34" width="2.31" height="5.73"></rect><rect class="cls-9" x="358.42" y="353.46" width="5.73" height="2.31"></rect><rect class="cls-9" x="358.42" y="369.35" width="5.73" height="2.31"></rect><polyline class="cls-9" points="8.41 490.58 2.68 497.32 2.68 499.08 4.44 498.8 10.17 492.06 8.41 492.33 8.41 490.58"></polyline><rect class="cls-9" x="437.52" y="32.37" width="5.82" height="2.31"></rect><rect class="cls-9" x="437.52" y="13.89" width="5.82" height="2.31"></rect><rect class="cls-9" x="437.52" y="101.67" width="5.82" height="2.31"></rect><rect class="cls-9" x="525.21" y="7.3" width="2.31" height="5.82"></rect><rect class="cls-9" x="465.1" y="7.3" width="2.31" height="5.82"></rect><rect class="cls-9" x="437.52" y="170.97" width="5.82" height="2.31"></rect><polyline class="cls-9" points="443.34 239.07 443.34 237.49 437.52 231.67 437.52 233.34 435.86 233.34 441.68 239.07 443.34 239.07"></polyline><polygon class="cls-16" points="358.42 283.05 352.6 283.05 352.6 370.46 358.42 370.46 358.42 353.46 376.9 353.46 376.9 284.16 358.42 284.16 358.42 283.05"></polygon><polygon class="cls-12" points="358.42 283.05 352.6 283.05 352.6 370.46 358.42 370.46 358.42 353.46 376.9 353.46 376.9 284.16 358.42 284.16 358.42 283.05"></polygon><polygon class="cls-16" points="177.49 .38 177.49 50.09 160.32 50.09 160.32 60.09 190.9 60.09 190.9 54.27 187.49 54.27 187.49 10.38 236 10.38 236 54.27 232.48 54.27 232.48 60.04 253.27 60.04 253.27 54.27 244.03 54.27 244.03 23.13 300.68 23.13 300.68 54.27 294.85 54.27 294.85 60.09 306.4 60.09 306.4 23.68 431.79 23.68 431.79 33.47 437.52 33.47 437.52 7.3 465.1 7.3 465.1 .38 177.49 .38"></polygon><polygon class="cls-12" points="177.49 .38 177.49 50.09 160.32 50.09 160.32 60.09 190.9 60.09 190.9 54.27 187.49 54.27 187.49 10.38 236 10.38 236 54.27 232.48 54.27 232.48 60.04 253.27 60.04 253.27 54.27 244.03 54.27 244.03 23.13 300.68 23.13 300.68 54.27 294.85 54.27 294.85 60.09 306.4 60.09 306.4 23.68 431.79 23.68 431.79 33.47 437.52 33.47 437.52 7.3 465.1 7.3 465.1 .38 177.49 .38"></polygon><polygon class="cls-16" points="4.24 441.24 4.24 38.54 108.55 38.54 108.55 50.09 114.12 50.09 114.12 60.09 104.33 60.09 104.33 83.19 98.55 83.19 98.55 48.54 22.27 48.54 22.27 128.19 98.5 128.19 98.5 124.77 104.33 124.77 104.33 130.5 174.73 130.5 174.73 136.32 147.01 136.32 147.01 299.22 174.73 299.22 174.73 312.99 169.01 312.99 169.01 308.46 138.98 308.46 138.98 234.45 134.36 234.45 134.36 228.72 138.98 228.72 138.98 136.32 53.51 136.32 53.51 150.18 14.24 150.18 14.24 226.41 53.51 226.41 53.51 228.72 92.78 228.72 92.78 234.45 88.16 234.45 88.16 241.38 82.33 241.38 82.33 236.76 14.24 236.76 14.24 306.15 82.33 306.15 82.33 283.05 88.16 283.05 88.16 311.88 14.24 311.88 14.24 485.68 16.82 485.22 17.65 490.95 8.41 492.43 8.41 441.24 4.24 441.24"></polygon><polygon class="cls-12" points="4.24 441.24 4.24 38.54 108.55 38.54 108.55 50.09 114.12 50.09 114.12 60.09 104.33 60.09 104.33 83.19 98.55 83.19 98.55 48.54 22.27 48.54 22.27 128.19 98.5 128.19 98.5 124.77 104.33 124.77 104.33 130.5 174.73 130.5 174.73 136.32 147.01 136.32 147.01 299.22 174.73 299.22 174.73 312.99 169.01 312.99 169.01 308.46 138.98 308.46 138.98 234.45 134.36 234.45 134.36 228.72 138.98 228.72 138.98 136.32 53.51 136.32 53.51 150.18 14.24 150.18 14.24 226.41 53.51 226.41 53.51 228.72 92.78 228.72 92.78 234.45 88.16 234.45 88.16 241.38 82.33 241.38 82.33 236.76 14.24 236.76 14.24 306.15 82.33 306.15 82.33 283.05 88.16 283.05 88.16 311.88 14.24 311.88 14.24 485.68 16.82 485.22 17.65 490.95 8.41 492.43 8.41 441.24 4.24 441.24"></polygon><polygon class="cls-16" points="186.65 454.63 187.85 460.27 153.94 467.11 152.84 461.38 169.01 458.24 169.05 458.24 169.05 354.57 174.73 354.57 174.73 457.04 186.65 454.63"></polygon><polygon class="cls-12" points="186.65 454.63 187.85 460.27 153.94 467.11 152.84 461.38 169.01 458.24 169.05 458.24 169.05 354.57 174.73 354.57 174.73 457.04 186.65 454.63"></polygon><g><path class="cls-18" d="M137.36,37.93c-.02.08-.07.14-.14.14s-.13-.06-.14-.14c-.56-3.3-2.74-4.94-6.02-4.94h-3.84c-1.16,0-1.98-1.01-2.2-2.66-.04-.33.23-.61.47-.45.47.31,1.06.47,1.78.47h3.48c2.95,0,5.22,1.68,6.17,4.98.11.37.5.37.61,0,.96-3.31,3.22-4.98,6.18-4.98h3.48c.72,0,1.32-.16,1.78-.47.23-.16.51.12.47.46-.22,1.64-1.05,2.66-2.21,2.66h-3.84c-3.29,0-5.46,1.64-6.02,4.94h0Z"></path><path class="cls-13" d="M137.36,37.93c-.02.08-.07.14-.14.14s-.13-.06-.14-.14c-.56-3.3-2.74-4.94-6.02-4.94h-3.84c-1.16,0-1.98-1.01-2.2-2.66-.04-.33.23-.61.47-.45.47.31,1.06.47,1.78.47h3.48c2.95,0,5.22,1.68,6.17,4.98.11.37.5.37.61,0,.96-3.31,3.22-4.98,6.18-4.98h3.48c.72,0,1.32-.16,1.78-.47.23-.16.51.12.47.46-.22,1.64-1.05,2.66-2.21,2.66h-3.84c-3.29,0-5.46,1.64-6.02,4.94h0Z"></path></g><g><path class="cls-16" d="M230.42,347.99h.81v8.33h4.18v.73h-4.99v-9.06Z"></path><path class="cls-16" d="M236.55,347.99h.94v1.39h-.94v-1.39ZM236.63,350.65h.77v6.41h-.77v-6.41Z"></path><path class="cls-16" d="M238.8,350.65h.86l2.1,5.42,2.11-5.42h.85l-2.61,6.41h-.68l-2.63-6.41Z"></path><path class="cls-16" d="M246.06,347.99h.94v1.39h-.94v-1.39ZM246.14,350.65h.77v6.41h-.77v-6.41Z"></path><path class="cls-16" d="M248.95,350.65h.78v1.05c.4-.76,1.12-1.14,2.01-1.14,1.38,0,2.2.81,2.2,2.51v3.99h-.78v-3.71c0-1.45-.55-2.11-1.61-2.11-1.16,0-1.83.79-1.83,2.55v3.27h-.78v-6.41Z"></path><path class="cls-16" d="M255.4,357.82s0-.1.03-.26l1.11-.88c-.57-.22-.96-.59-.96-1.26,0-.53.27-.9.72-1.2-.36-.37-.56-.87-.56-1.45,0-1.3,1.04-2.2,2.39-2.2.64,0,1.22.21,1.64.58l1.02-.86.4.49-1,.88c.19.33.3.71.3,1.14,0,1.28-.96,2.13-2.33,2.13-.53,0-.99-.12-1.37-.34-.31.17-.45.42-.45.71,0,.66.63.83,1.62.98,1.6.25,2.99.44,2.99,1.75,0,1.16-1.05,1.78-2.7,1.78-1.82,0-2.85-.7-2.85-2ZM258.26,359.21c1.09,0,1.92-.34,1.92-1.08,0-.86-1.16-.96-2.31-1.14-.31-.05-.6-.1-.89-.17l-.8.92c-.01.09-.01.11-.01.15,0,.9.79,1.33,2.09,1.33ZM258.13,354.28c.98,0,1.59-.65,1.59-1.53s-.64-1.56-1.58-1.56-1.62.65-1.62,1.55.63,1.55,1.61,1.55Z"></path><path class="cls-16" d="M265.89,347.99h2.52c1.99,0,2.97.93,2.97,2.5,0,1.25-.64,2.07-1.85,2.38l2.44,4.19h-.92l-2.34-4.07c-.21,0-.44,0-.65,0h-1.36v4.06h-.81v-9.06ZM268.33,352.28c1.38,0,2.24-.55,2.24-1.78s-.88-1.77-2.24-1.77h-1.64v3.56h1.64Z"></path><path class="cls-16" d="M272.89,353.84c0-1.92,1.25-3.29,3.05-3.29s3.04,1.37,3.04,3.29-1.27,3.3-3.04,3.3-3.05-1.37-3.05-3.3ZM275.94,356.45c1.37,0,2.26-1.04,2.26-2.61s-.9-2.61-2.26-2.61-2.28,1.05-2.28,2.61.9,2.61,2.28,2.61Z"></path><path class="cls-16" d="M280.43,353.84c0-1.92,1.25-3.29,3.05-3.29s3.04,1.37,3.04,3.29-1.27,3.3-3.04,3.3-3.05-1.37-3.05-3.3ZM283.48,356.45c1.37,0,2.26-1.04,2.26-2.61s-.9-2.61-2.26-2.61-2.28,1.05-2.28,2.61.9,2.61,2.28,2.61Z"></path><path class="cls-16" d="M288.27,350.65h.78v1.1c.38-.84,1.11-1.19,1.88-1.19.91,0,1.57.4,1.89,1.25.4-.83,1.09-1.25,2-1.25,1.55,0,2.13,1.16,2.13,2.68v3.82h-.78v-3.64c0-1.33-.39-2.18-1.52-2.18-1.02,0-1.65.77-1.65,2.26v3.57h-.78v-3.76c0-1.4-.52-2.07-1.5-2.07-1.03,0-1.67.79-1.67,2.26v3.57h-.78v-6.41Z"></path></g><g><path class="cls-16" d="M42.93,386.84h2.52c1.9,0,2.97.89,2.97,2.53s-1.07,2.54-2.97,2.54h-1.72v3.99h-.8v-9.06ZM45.37,391.19c1.41,0,2.24-.61,2.24-1.81s-.81-1.81-2.24-1.81h-1.64v3.62h1.64Z"></path><path class="cls-16" d="M49.94,389.49h.78v1.09c.43-.78,1.31-1.18,2.02-1.18.33,0,.66.07.99.24l-.39.7c-.21-.1-.51-.17-.77-.17-.68,0-1.46.36-1.74,1.3-.08.27-.12.57-.12,1.27v3.15h-.78v-6.41Z"></path><path class="cls-16" d="M54.99,386.84h.94v1.39h-.94v-1.39ZM55.08,389.49h.77v6.41h-.77v-6.41Z"></path><path class="cls-16" d="M57.88,389.49h.78v1.1c.38-.84,1.11-1.19,1.88-1.19.91,0,1.57.4,1.89,1.25.4-.83,1.09-1.25,2-1.25,1.55,0,2.13,1.16,2.13,2.68v3.82h-.78v-3.64c0-1.33-.39-2.18-1.52-2.18-1.02,0-1.65.77-1.65,2.26v3.57h-.78v-3.76c0-1.4-.52-2.07-1.5-2.07-1.03,0-1.67.79-1.67,2.26v3.57h-.78v-6.41Z"></path><path class="cls-16" d="M72.71,394.7c-.43.82-1.25,1.29-2.25,1.29-1.44,0-2.31-.77-2.31-1.94,0-.69.29-1.16.72-1.44.46-.31,1.09-.42,1.77-.42h2.05v-.28c0-1.19-.62-1.83-1.82-1.83-.79,0-1.4.29-1.98,1.02l-.56-.48c.68-.84,1.53-1.21,2.59-1.21,1.63,0,2.54.89,2.54,2.51v3.99h-.71l-.04-1.2ZM70.53,395.35c1.18,0,2.17-.93,2.17-2.2v-.36h-1.95c-.51,0-1.03.08-1.37.32-.28.21-.44.51-.44.94,0,.79.6,1.3,1.6,1.3Z"></path><path class="cls-16" d="M75.42,389.49h.78v1.09c.43-.78,1.31-1.18,2.02-1.18.33,0,.66.07.99.24l-.39.7c-.21-.1-.51-.17-.77-.17-.68,0-1.46.36-1.74,1.3-.08.27-.12.57-.12,1.27v3.15h-.78v-6.41Z"></path><path class="cls-16" d="M82.47,395.7l-2.55-6.21h.86l2.1,5.42,2.11-5.42h.85l-3.69,9.05h-.84l1.17-2.84Z"></path><path class="cls-16" d="M90.74,386.84h2.72c1.68,0,2.68.84,2.68,2.25,0,.94-.46,1.68-1.24,2,1.1.25,1.7,1.07,1.7,2.31,0,1.61-1.02,2.5-2.88,2.5h-2.97v-9.06ZM93.71,390.84c.98,0,1.63-.64,1.63-1.64s-.69-1.61-1.88-1.61h-1.91v3.26h2.16ZM93.65,395.15c1.42,0,2.14-.6,2.14-1.79,0-1.13-.66-1.79-1.79-1.79h-2.46v3.58h2.11Z"></path><path class="cls-16" d="M98.06,392.74c0-1.84.99-3.34,2.81-3.34,1.96,0,2.76,1.53,2.76,2.94,0,.1-.01.4-.04.55h-4.76c.03,1.51.84,2.39,2.14,2.39.82,0,1.35-.23,1.91-.83l.55.49c-.73.75-1.43,1.05-2.46,1.05-1.89,0-2.91-1.41-2.91-3.25ZM102.88,392.31c0-.08,0-.16,0-.24,0-.92-.58-2.01-2-2.01-1.23,0-1.98.98-2.07,2.26h4.06Z"></path><path class="cls-16" d="M105.04,392.69c0-1.96,1.29-3.29,2.92-3.29,1.05,0,1.87.54,2.29,1.36v-3.92h.77v9.06h-.77v-1.26c-.44.84-1.25,1.35-2.29,1.35-1.72,0-2.92-1.42-2.92-3.3ZM108.08,395.27c1.3,0,2.23-1.08,2.23-2.58s-.93-2.58-2.23-2.58-2.26,1.09-2.26,2.58.95,2.58,2.26,2.58Z"></path><path class="cls-16" d="M113.06,389.49h.78v1.09c.43-.78,1.31-1.18,2.02-1.18.33,0,.66.07.99.24l-.39.7c-.21-.1-.51-.17-.77-.17-.68,0-1.46.36-1.74,1.3-.08.27-.12.57-.12,1.27v3.15h-.78v-6.41Z"></path><path class="cls-16" d="M117.44,392.69c0-1.92,1.25-3.29,3.05-3.29s3.04,1.37,3.04,3.29-1.27,3.3-3.04,3.3-3.05-1.37-3.05-3.3ZM120.49,395.3c1.37,0,2.26-1.04,2.26-2.61s-.9-2.61-2.26-2.61-2.28,1.05-2.28,2.61.9,2.61,2.28,2.61Z"></path><path class="cls-16" d="M124.97,392.69c0-1.92,1.25-3.29,3.05-3.29s3.04,1.37,3.04,3.29-1.27,3.3-3.04,3.3-3.05-1.37-3.05-3.3ZM128.02,395.3c1.37,0,2.26-1.04,2.26-2.61s-.9-2.61-2.26-2.61-2.28,1.05-2.28,2.61.9,2.61,2.28,2.61Z"></path><path class="cls-16" d="M132.81,389.49h.78v1.1c.38-.84,1.11-1.19,1.88-1.19.91,0,1.57.4,1.89,1.25.4-.83,1.09-1.25,2-1.25,1.55,0,2.13,1.16,2.13,2.68v3.82h-.78v-3.64c0-1.33-.39-2.18-1.52-2.18-1.02,0-1.65.77-1.65,2.26v3.57h-.78v-3.76c0-1.4-.52-2.07-1.5-2.07-1.03,0-1.67.79-1.67,2.26v3.57h-.78v-6.41Z"></path></g><g><path class="cls-16" d="M319.41,120.8h2.43c2.94,0,4.62,1.68,4.62,4.6s-1.64,4.46-4.63,4.46h-2.42v-9.06ZM321.76,129.11c2.5,0,3.89-1.16,3.89-3.74s-1.4-3.83-3.82-3.83h-1.61v7.57h1.54Z"></path><path class="cls-16" d="M328.07,120.8h.94v1.39h-.94v-1.39ZM328.15,123.45h.77v6.41h-.77v-6.41Z"></path><path class="cls-16" d="M330.96,123.45h.78v1.05c.4-.76,1.12-1.14,2.01-1.14,1.38,0,2.2.81,2.2,2.51v3.99h-.78v-3.71c0-1.45-.55-2.11-1.61-2.11-1.16,0-1.83.79-1.83,2.55v3.27h-.78v-6.41Z"></path><path class="cls-16" d="M337.84,120.8h.94v1.39h-.94v-1.39ZM337.92,123.45h.77v6.41h-.77v-6.41Z"></path><path class="cls-16" d="M340.73,123.45h.78v1.05c.4-.76,1.12-1.14,2.01-1.14,1.38,0,2.2.81,2.2,2.51v3.99h-.78v-3.71c0-1.45-.55-2.11-1.61-2.11-1.16,0-1.83.79-1.83,2.55v3.27h-.78v-6.41Z"></path><path class="cls-16" d="M347.19,130.62s0-.1.03-.26l1.11-.88c-.57-.22-.96-.59-.96-1.26,0-.53.27-.9.72-1.2-.36-.37-.56-.87-.56-1.45,0-1.3,1.04-2.2,2.38-2.2.64,0,1.22.21,1.64.58l1.02-.86.4.49-1,.88c.19.33.3.71.3,1.14,0,1.28-.96,2.13-2.33,2.13-.53,0-.99-.12-1.37-.34-.31.18-.45.42-.45.72,0,.66.63.83,1.62.98,1.6.25,2.99.44,2.99,1.75,0,1.16-1.05,1.78-2.7,1.78-1.82,0-2.85-.7-2.85-2ZM350.04,132.01c1.09,0,1.92-.34,1.92-1.08,0-.86-1.16-.96-2.31-1.14-.31-.05-.6-.1-.89-.17l-.8.92c-.01.09-.01.11-.01.15,0,.9.79,1.33,2.09,1.33ZM349.92,127.09c.98,0,1.59-.65,1.59-1.53s-.64-1.56-1.58-1.56-1.62.65-1.62,1.55.63,1.55,1.61,1.55Z"></path><path class="cls-16" d="M357.67,120.8h2.52c1.99,0,2.97.93,2.97,2.5,0,1.25-.64,2.07-1.85,2.38l2.44,4.19h-.92l-2.34-4.07c-.21,0-.44,0-.65,0h-1.36v4.06h-.81v-9.06ZM360.11,125.08c1.38,0,2.24-.55,2.24-1.78s-.88-1.77-2.24-1.77h-1.64v3.56h1.64Z"></path><path class="cls-16" d="M364.68,126.65c0-1.92,1.25-3.29,3.05-3.29s3.04,1.36,3.04,3.29-1.27,3.3-3.04,3.3-3.05-1.36-3.05-3.3ZM367.72,129.26c1.37,0,2.26-1.04,2.26-2.61s-.9-2.61-2.26-2.61-2.28,1.05-2.28,2.61.9,2.61,2.28,2.61Z"></path><path class="cls-16" d="M372.21,126.65c0-1.92,1.25-3.29,3.05-3.29s3.04,1.36,3.04,3.29-1.27,3.3-3.04,3.3-3.05-1.36-3.05-3.3ZM375.26,129.26c1.37,0,2.26-1.04,2.26-2.61s-.9-2.61-2.26-2.61-2.28,1.05-2.28,2.61.9,2.61,2.28,2.61Z"></path><path class="cls-16" d="M380.05,123.45h.78v1.1c.38-.85,1.11-1.19,1.88-1.19.91,0,1.57.4,1.89,1.25.4-.83,1.09-1.25,2-1.25,1.55,0,2.13,1.16,2.13,2.68v3.82h-.78v-3.64c0-1.33-.39-2.18-1.52-2.18-1.02,0-1.65.77-1.65,2.26v3.57h-.78v-3.76c0-1.4-.52-2.07-1.5-2.07-1.03,0-1.67.79-1.67,2.26v3.57h-.78v-6.41Z"></path></g><g><path class="cls-16" d="M437.74,323.71h2.43c2.94,0,4.62,1.68,4.62,4.6s-1.64,4.46-4.63,4.46h-2.42v-9.06ZM440.08,332.02c2.5,0,3.89-1.16,3.89-3.74s-1.4-3.83-3.82-3.83h-1.61v7.57h1.54Z"></path><path class="cls-16" d="M446.24,329.61c0-1.84.99-3.34,2.81-3.34,1.96,0,2.76,1.53,2.76,2.94,0,.1-.01.4-.04.55h-4.76c.03,1.51.84,2.39,2.14,2.39.82,0,1.35-.23,1.91-.83l.55.49c-.73.75-1.43,1.05-2.46,1.05-1.89,0-2.91-1.41-2.91-3.25ZM451.06,329.18c0-.08,0-.16,0-.24,0-.92-.58-2.01-2-2.01-1.23,0-1.98.98-2.07,2.26h4.06Z"></path><path class="cls-16" d="M453.22,329.56c0-1.83,1.06-3.29,2.86-3.29,1.17,0,2.09.58,2.51,1.74l-.7.27c-.27-.82-.9-1.33-1.81-1.33-1.42,0-2.09,1.25-2.09,2.61s.68,2.62,2.09,2.62c.91,0,1.53-.51,1.81-1.33l.7.27c-.42,1.16-1.34,1.75-2.51,1.75-1.8,0-2.86-1.46-2.86-3.3Z"></path><path class="cls-16" d="M462.29,329.24l-1.3,1.37v2.16h-.78v-9.06h.78v5.9l3.15-3.24h1.01l-2.28,2.35,2.67,4.06h-.92l-2.31-3.53Z"></path></g><g><path class="cls-16" d="M205.23,271.71h.81v4.86l4.65-4.86h1.09l-3.45,3.54,3.48,5.52h-.95l-3.11-4.93-1.71,1.75v3.17h-.81v-9.06Z"></path><path class="cls-16" d="M212.96,271.71h.94v1.39h-.94v-1.39ZM213.04,274.36h.77v6.41h-.77v-6.41Z"></path><path class="cls-16" d="M216.61,279.29v-4.31h-1.42v-.62h1.42v-1.85l.79-.46v2.31h1.54v.62h-1.54v4.12c0,.71.22,1.11.81,1.11.19,0,.46-.04.73-.12v.62c-.32.1-.64.16-.92.16-.85,0-1.4-.49-1.4-1.57Z"></path><path class="cls-16" d="M219.96,277.56c0-1.83,1.06-3.29,2.86-3.29,1.17,0,2.09.58,2.51,1.74l-.7.27c-.27-.82-.9-1.33-1.81-1.33-1.42,0-2.09,1.25-2.09,2.61s.68,2.62,2.09,2.62c.91,0,1.53-.51,1.81-1.33l.7.27c-.42,1.16-1.34,1.75-2.51,1.75-1.8,0-2.86-1.46-2.86-3.3Z"></path><path class="cls-16" d="M226.96,271.71h.78v3.69c.4-.75,1.1-1.13,2.01-1.13,1.4,0,2.2.85,2.2,2.51v3.99h-.78v-3.71c0-1.43-.53-2.11-1.61-2.11-1.18,0-1.83.83-1.83,2.55v3.27h-.78v-9.06Z"></path><path class="cls-16" d="M233.59,277.61c0-1.84.99-3.34,2.81-3.34,1.96,0,2.76,1.53,2.76,2.94,0,.1-.01.4-.04.55h-4.76c.03,1.51.84,2.39,2.14,2.39.82,0,1.35-.23,1.91-.83l.55.49c-.73.75-1.43,1.05-2.46,1.05-1.89,0-2.91-1.41-2.91-3.25ZM238.41,277.18c0-.08,0-.16,0-.24,0-.92-.58-2.01-2-2.01-1.23,0-1.98.98-2.07,2.26h4.06Z"></path><path class="cls-16" d="M240.9,274.36h.78v1.05c.4-.76,1.12-1.14,2.01-1.14,1.38,0,2.2.81,2.2,2.51v3.99h-.78v-3.71c0-1.45-.55-2.11-1.61-2.11-1.16,0-1.83.79-1.83,2.55v3.27h-.78v-6.41Z"></path></g><path class="cls-16" d="M150.61,154.56c0-2.17,1.27-3.59,3.16-3.59s3.18,1.42,3.18,3.59-1.27,3.58-3.18,3.58-3.16-1.42-3.16-3.58ZM153.77,157.55c1.57,0,2.55-1.16,2.55-2.99s-.99-3-2.55-3-2.54,1.15-2.54,3,.99,2.99,2.54,2.99Z"></path><path class="cls-16" d="M160.65,150.07h.48l-3.55,9.08h-.48l3.55-9.08Z"></path><path class="cls-16" d="M162.35,151.07h.93l2.35,5.66,2.35-5.66h.92v6.98h-.62v-6.16l-2.35,5.59h-.61l-2.36-5.59v6.16h-.62v-6.98Z"></path><g><path class="cls-16" d="M152.07,274.84h1.94c1.53,0,2.29.72,2.29,1.92,0,.97-.5,1.6-1.43,1.83l1.88,3.22h-.71l-1.8-3.13c-.16,0-.34,0-.5,0h-1.05v3.13h-.62v-6.98ZM153.95,278.14c1.06,0,1.73-.42,1.73-1.37s-.68-1.37-1.73-1.37h-1.26v2.74h1.26Z"></path><path class="cls-16" d="M157.92,274.84h4.56v.56h-3.94v2.59h3.53v.56h-3.53v2.7h3.94v.56h-4.56v-6.98Z"></path><path class="cls-16" d="M163.78,274.84h4.51v.56h-3.89v2.59h3.38v.56h-3.38v3.26h-.62v-6.98Z"></path></g><g><path class="cls-16" d="M39.02,268.18h.65l1.71,6.06,1.76-5.7h.63l1.76,5.7,1.7-6.06h.65l-2.01,6.98h-.63l-1.79-5.71-1.79,5.71h-.64l-2.01-6.98Z"></path><path class="cls-16" d="M49.03,268.18h.62v6.98h-.62v-6.98Z"></path><path class="cls-16" d="M51.08,271.66c0-2.16,1.26-3.58,3.16-3.58,1.35,0,2.39.71,2.84,1.89l-.58.22c-.38-.96-1.17-1.52-2.26-1.52-1.55,0-2.54,1.17-2.54,2.99s.99,3,2.54,3c1.09,0,1.89-.56,2.26-1.52l.58.21c-.45,1.18-1.49,1.9-2.84,1.9-1.89,0-3.16-1.42-3.16-3.59Z"></path></g><g><path class="cls-16" d="M232.36,149.93h1.87c2.26,0,3.56,1.29,3.56,3.54s-1.27,3.43-3.57,3.43h-1.86v-6.98ZM234.17,156.33c1.92,0,2.99-.89,2.99-2.88s-1.08-2.95-2.94-2.95h-1.24v5.83h1.19Z"></path><path class="cls-16" d="M238.45,149.93h.65l1.71,6.06,1.76-5.7h.63l1.76,5.7,1.7-6.06h.65l-2.01,6.98h-.63l-1.79-5.71-1.79,5.71h-.64l-2.01-6.98Z"></path></g><g><path class="cls-16" d="M232.29,232.73h.65l1.71,6.06,1.76-5.7h.63l1.76,5.7,1.7-6.06h.65l-2.01,6.98h-.63l-1.79-5.71-1.79,5.71h-.64l-2.01-6.98Z"></path><path class="cls-16" d="M242.29,232.73h4.51v.56h-3.89v2.59h3.38v.56h-3.38v3.26h-.62v-6.98Z"></path></g><path class="cls-16" d="M202.13,28.96h.65l1.71,6.06,1.76-5.7h.63l1.76,5.7,1.7-6.06h.65l-2.01,6.98h-.63l-1.79-5.71-1.79,5.71h-.64l-2.01-6.98Z"></path><path class="cls-16" d="M214.4,28.08h.48l-3.55,9.08h-.48l3.55-9.08Z"></path><path class="cls-16" d="M216.11,28.96h1.87c2.26,0,3.56,1.29,3.56,3.54s-1.27,3.43-3.57,3.43h-1.86v-6.98ZM217.91,35.36c1.92,0,2.99-.89,2.99-2.88s-1.08-2.95-2.94-2.95h-1.24v5.83h1.19Z"></path><g><path class="cls-20" d="M124.74,522.49h1.67c1.03,0,1.65.52,1.65,1.38,0,.58-.28,1.03-.76,1.23.68.16,1.04.66,1.04,1.42,0,.99-.63,1.54-1.77,1.54h-1.83v-5.57ZM126.56,524.96c.6,0,1-.39,1-1.01s-.42-.99-1.16-.99h-1.17v2h1.33ZM126.53,527.61c.88,0,1.32-.37,1.32-1.1,0-.7-.41-1.1-1.1-1.1h-1.51v2.2h1.3Z"></path><path class="cls-20" d="M129.4,526.58v-2.45h.47v2.28c0,.89.34,1.29,1,1.29.71,0,1.13-.48,1.13-1.57v-2.01h.48v3.94h-.48v-.65c-.25.47-.7.7-1.25.7-.84,0-1.35-.51-1.35-1.55Z"></path><path class="cls-20" d="M133.75,522.49h.58v.86h-.58v-.86ZM133.8,524.13h.47v3.94h-.47v-3.94Z"></path><path class="cls-20" d="M135.62,527.25v-4.75h.48v4.67c0,.37.14.52.39.52.1,0,.24-.02.38-.07v.41c-.18.07-.37.1-.52.1-.44,0-.72-.27-.72-.88Z"></path><path class="cls-20" d="M137.48,526.09c0-1.21.79-2.02,1.8-2.02.64,0,1.15.33,1.41.84v-2.41h.47v5.57h-.47v-.78c-.27.52-.77.83-1.41.83-1.06,0-1.8-.88-1.8-2.03ZM139.35,527.68c.8,0,1.37-.66,1.37-1.59s-.57-1.59-1.37-1.59-1.39.67-1.39,1.59.58,1.59,1.39,1.59Z"></path><path class="cls-20" d="M142.44,522.49h.58v.86h-.58v-.86ZM142.49,524.13h.47v3.94h-.47v-3.94Z"></path><path class="cls-20" d="M144.3,524.13h.48v.64c.25-.47.69-.7,1.24-.7.85,0,1.36.5,1.36,1.54v2.46h-.48v-2.28c0-.89-.34-1.3-.99-1.3-.71,0-1.13.48-1.13,1.57v2.01h-.48v-3.94Z"></path><path class="cls-20" d="M148.34,528.54s0-.06.02-.16l.68-.54c-.35-.14-.59-.36-.59-.78,0-.32.16-.55.44-.74-.22-.23-.34-.54-.34-.89,0-.8.64-1.36,1.47-1.36.4,0,.75.13,1.01.36l.63-.53.24.3-.62.54c.12.2.18.44.18.7,0,.79-.59,1.31-1.44,1.31-.32,0-.61-.08-.84-.21-.19.11-.28.26-.28.44,0,.41.39.51,1,.6.98.15,1.84.27,1.84,1.08,0,.72-.64,1.1-1.66,1.1-1.12,0-1.75-.43-1.75-1.23ZM150.1,529.39c.67,0,1.18-.21,1.18-.66,0-.53-.71-.59-1.42-.7-.19-.03-.37-.06-.55-.1l-.49.56c0,.06,0,.07,0,.09,0,.55.49.82,1.29.82ZM150.02,526.36c.6,0,.98-.4.98-.94s-.39-.96-.97-.96-1,.4-1,.95.39.95.99.95Z"></path><path class="cls-20" d="M156.51,522.49h.42l2.05,5.57h-.54l-.51-1.45h-2.42l-.51,1.45h-.55l2.05-5.57ZM157.78,526.17l-1.05-2.99-1.06,2.99h2.11Z"></path><path class="cls-20" d="M160.31,527.29v.78h-.47v-5.57h.47v2.41c.26-.5.77-.84,1.41-.84,1,0,1.79.82,1.79,2.02s-.74,2.03-1.79,2.03c-.64,0-1.14-.31-1.41-.83ZM161.64,527.68c.81,0,1.39-.67,1.39-1.59s-.58-1.59-1.39-1.59-1.37.66-1.37,1.59.57,1.59,1.37,1.59Z"></path><path class="cls-20" d="M164.46,526.09c0-1.18.77-2.02,1.88-2.02s1.87.84,1.87,2.02-.78,2.03-1.87,2.03-1.88-.84-1.88-2.03ZM166.34,527.7c.84,0,1.39-.64,1.39-1.6s-.55-1.6-1.39-1.6-1.4.64-1.4,1.6.56,1.6,1.4,1.6Z"></path><path class="cls-20" d="M168.86,524.13h.53l1.29,3.33,1.3-3.33h.52l-1.61,3.94h-.42l-1.61-3.94Z"></path><path class="cls-20" d="M173.18,526.12c0-1.13.61-2.05,1.73-2.05,1.21,0,1.7.94,1.7,1.81,0,.06,0,.24-.02.34h-2.93c.02.93.52,1.47,1.32,1.47.5,0,.83-.14,1.17-.51l.34.3c-.45.46-.88.65-1.51.65-1.16,0-1.79-.87-1.79-2ZM176.14,525.86s0-.1,0-.15c0-.57-.36-1.24-1.23-1.24-.75,0-1.22.6-1.27,1.39h2.49Z"></path></g><polyline class="cls-2" points="118.29 525.41 108.14 525.41 102.71 515.51"></polyline><path class="cls-19" d="M100.77,511.97l4.54,3.98s-2.6-.44-3.62,1.98l-.92-5.97Z"></path><g><path class="cls-20" d="M271.98,505.14h.5v5.13h2.57v.45h-3.07v-5.57Z"></path><path class="cls-20" d="M278.51,509.98c-.26.5-.77.79-1.38.79-.88,0-1.42-.48-1.42-1.2,0-.42.18-.71.44-.89.28-.19.67-.26,1.09-.26h1.26v-.17c0-.73-.38-1.13-1.12-1.13-.48,0-.86.18-1.22.63l-.34-.3c.42-.52.94-.75,1.59-.75,1,0,1.56.55,1.56,1.54v2.46h-.44l-.02-.74ZM277.17,510.38c.72,0,1.33-.57,1.33-1.35v-.22h-1.2c-.32,0-.63.05-.84.2-.17.13-.27.31-.27.58,0,.49.37.8.98.8Z"></path><path class="cls-20" d="M280.26,506.78h.48v.64c.25-.47.69-.7,1.24-.7.85,0,1.36.5,1.36,1.54v2.46h-.48v-2.28c0-.89-.34-1.3-.99-1.3-.71,0-1.13.48-1.13,1.57v2.01h-.48v-3.94Z"></path><path class="cls-20" d="M284.4,508.74c0-1.21.79-2.02,1.79-2.02.64,0,1.15.33,1.41.84v-2.41h.47v5.57h-.47v-.78c-.27.52-.77.83-1.41.83-1.05,0-1.79-.88-1.79-2.03ZM286.27,510.33c.8,0,1.37-.66,1.37-1.59s-.57-1.59-1.37-1.59-1.39.67-1.39,1.59.58,1.59,1.39,1.59Z"></path><path class="cls-20" d="M289,509.87l.34-.28c.2.46.66.77,1.26.77.57,0,.95-.27.95-.72,0-.55-.53-.68-1.1-.82-.66-.16-1.23-.38-1.23-1.06,0-.62.53-1.05,1.29-1.05.6,0,1.1.26,1.37.76l-.37.21c-.21-.38-.57-.58-1.01-.58-.48,0-.84.24-.84.62,0,.4.36.54.93.68.67.16,1.43.34,1.43,1.2,0,.71-.56,1.17-1.42,1.17-.79,0-1.35-.4-1.6-.9Z"></path><path class="cls-20" d="M292.94,508.74c0-1.13.65-2.02,1.76-2.02.72,0,1.28.36,1.54,1.07l-.43.17c-.17-.5-.55-.82-1.11-.82-.87,0-1.29.77-1.29,1.61s.42,1.61,1.29,1.61c.56,0,.94-.31,1.11-.82l.43.16c-.26.71-.82,1.08-1.54,1.08-1.11,0-1.76-.9-1.76-2.03Z"></path><path class="cls-20" d="M299.9,509.98c-.26.5-.77.79-1.38.79-.88,0-1.42-.48-1.42-1.2,0-.42.18-.71.44-.89.28-.19.67-.26,1.09-.26h1.26v-.17c0-.73-.38-1.13-1.12-1.13-.48,0-.86.18-1.22.63l-.34-.3c.42-.52.94-.75,1.59-.75,1,0,1.56.55,1.56,1.54v2.46h-.44l-.02-.74ZM298.56,510.38c.72,0,1.33-.57,1.33-1.35v-.22h-1.2c-.32,0-.63.05-.84.2-.17.13-.27.31-.27.58,0,.49.37.8.98.8Z"></path><path class="cls-20" d="M305.34,508.75c0,1.21-.79,2.02-1.79,2.02-.64,0-1.15-.33-1.41-.83v2.41h-.47v-5.57h.47v.78c.27-.52.77-.83,1.41-.83,1.06,0,1.79.88,1.79,2.03ZM303.47,510.34c.81,0,1.39-.67,1.39-1.59s-.58-1.59-1.39-1.59-1.37.66-1.37,1.59.57,1.59,1.37,1.59Z"></path><path class="cls-20" d="M306.31,508.77c0-1.13.61-2.05,1.73-2.05,1.21,0,1.7.94,1.7,1.81,0,.06,0,.24-.02.34h-2.93c.02.93.52,1.47,1.32,1.47.5,0,.83-.14,1.17-.51l.34.3c-.45.46-.88.65-1.51.65-1.16,0-1.79-.87-1.79-2ZM309.27,508.51s0-.1,0-.15c0-.57-.36-1.24-1.23-1.24-.75,0-1.22.6-1.27,1.39h2.49Z"></path><path class="cls-20" d="M310.68,508.74c0-1.21.79-2.02,1.79-2.02.64,0,1.15.33,1.41.84v-2.41h.47v5.57h-.47v-.78c-.27.52-.77.83-1.41.83-1.05,0-1.79-.88-1.79-2.03ZM312.55,510.33c.8,0,1.37-.66,1.37-1.59s-.57-1.59-1.37-1.59-1.39.67-1.39,1.59.58,1.59,1.39,1.59Z"></path><path class="cls-20" d="M317.92,505.14h1.55c1.22,0,1.83.57,1.83,1.54,0,.77-.4,1.28-1.14,1.46l1.5,2.57h-.57l-1.44-2.5c-.13,0-.27,0-.4,0h-.84v2.5h-.5v-5.57ZM319.42,507.78c.85,0,1.38-.34,1.38-1.1s-.54-1.09-1.38-1.09h-1.01v2.19h1.01Z"></path><path class="cls-20" d="M322.31,508.74c0-1.18.77-2.02,1.88-2.02s1.87.84,1.87,2.02-.78,2.03-1.87,2.03-1.88-.84-1.88-2.03ZM324.18,510.35c.84,0,1.39-.64,1.39-1.6s-.55-1.6-1.39-1.6-1.4.64-1.4,1.6.56,1.6,1.4,1.6Z"></path><path class="cls-20" d="M327.01,508.74c0-1.18.77-2.02,1.88-2.02s1.87.84,1.87,2.02-.78,2.03-1.87,2.03-1.88-.84-1.88-2.03ZM328.89,510.35c.84,0,1.39-.64,1.39-1.6s-.55-1.6-1.39-1.6-1.4.64-1.4,1.6.56,1.6,1.4,1.6Z"></path><path class="cls-20" d="M332.24,507.16h-.88v-.38h.88v-.57c0-.82.43-1.12,1.03-1.12.26,0,.47.05.66.15l-.16.36c-.14-.07-.28-.11-.45-.11-.4,0-.6.25-.6.71v.57h.97v.38h-.97v3.56h-.48v-3.56Z"></path></g><g><path class="cls-20" d="M489.92,122.11h.5v5.12h2.57v.45h-3.07v-5.57Z"></path><path class="cls-20" d="M496.45,126.94c-.26.5-.77.8-1.38.8-.88,0-1.42-.48-1.42-1.2,0-.42.18-.71.44-.89.28-.19.67-.26,1.09-.26h1.26v-.17c0-.73-.38-1.13-1.12-1.13-.48,0-.86.18-1.22.63l-.34-.3c.42-.52.94-.75,1.59-.75,1,0,1.56.55,1.56,1.54v2.45h-.44l-.02-.74ZM495.11,127.34c.72,0,1.33-.57,1.33-1.35v-.22h-1.2c-.32,0-.63.05-.84.2-.17.13-.27.31-.27.58,0,.49.37.8.98.8Z"></path><path class="cls-20" d="M498.2,123.74h.48v.64c.25-.47.69-.7,1.24-.7.85,0,1.36.5,1.36,1.54v2.45h-.48v-2.28c0-.89-.34-1.3-.99-1.3-.71,0-1.13.48-1.13,1.57v2.01h-.48v-3.94Z"></path><path class="cls-20" d="M502.34,125.71c0-1.21.79-2.02,1.8-2.02.64,0,1.15.33,1.41.84v-2.41h.47v5.57h-.47v-.78c-.27.52-.77.83-1.41.83-1.06,0-1.8-.88-1.8-2.03ZM504.21,127.3c.8,0,1.37-.66,1.37-1.59s-.57-1.59-1.37-1.59-1.39.67-1.39,1.59.58,1.59,1.39,1.59Z"></path><path class="cls-20" d="M506.94,126.84l.34-.28c.2.46.66.77,1.26.77.57,0,.95-.27.95-.72,0-.55-.53-.68-1.1-.82-.66-.16-1.23-.38-1.23-1.06,0-.62.53-1.05,1.29-1.05.6,0,1.1.26,1.37.76l-.37.21c-.21-.38-.57-.58-1.01-.58-.48,0-.84.24-.84.62,0,.4.36.54.93.68.67.16,1.43.34,1.43,1.2,0,.71-.56,1.17-1.42,1.17-.79,0-1.35-.4-1.6-.9Z"></path><path class="cls-20" d="M510.88,125.71c0-1.13.65-2.02,1.76-2.02.72,0,1.28.36,1.54,1.07l-.43.17c-.17-.5-.55-.82-1.11-.82-.87,0-1.29.77-1.29,1.61s.42,1.61,1.29,1.61c.56,0,.94-.31,1.11-.82l.43.16c-.26.71-.82,1.08-1.54,1.08-1.11,0-1.76-.9-1.76-2.03Z"></path><path class="cls-20" d="M517.84,126.94c-.26.5-.77.8-1.38.8-.88,0-1.42-.48-1.42-1.2,0-.42.18-.71.44-.89.28-.19.67-.26,1.09-.26h1.26v-.17c0-.73-.38-1.13-1.12-1.13-.48,0-.86.18-1.22.63l-.34-.3c.42-.52.94-.75,1.59-.75,1,0,1.56.55,1.56,1.54v2.45h-.44l-.02-.74ZM516.5,127.34c.72,0,1.33-.57,1.33-1.35v-.22h-1.2c-.32,0-.63.05-.84.2-.17.13-.27.31-.27.58,0,.49.37.8.98.8Z"></path><path class="cls-20" d="M523.28,125.72c0,1.21-.79,2.02-1.79,2.02-.64,0-1.15-.33-1.41-.84v2.41h-.47v-5.57h.47v.78c.27-.52.77-.83,1.41-.83,1.06,0,1.79.88,1.79,2.03ZM521.41,127.3c.81,0,1.39-.67,1.39-1.59s-.58-1.59-1.39-1.59-1.37.66-1.37,1.59.57,1.59,1.37,1.59Z"></path><path class="cls-20" d="M524.25,125.74c0-1.13.61-2.06,1.73-2.06,1.21,0,1.7.94,1.7,1.81,0,.06,0,.24-.02.34h-2.93c.02.93.52,1.47,1.32,1.47.5,0,.83-.14,1.17-.51l.34.3c-.45.46-.88.65-1.51.65-1.16,0-1.79-.87-1.79-2ZM527.22,125.48s0-.1,0-.15c0-.57-.36-1.24-1.23-1.24-.75,0-1.22.6-1.27,1.39h2.49Z"></path><path class="cls-20" d="M528.62,125.71c0-1.21.79-2.02,1.8-2.02.64,0,1.15.33,1.41.84v-2.41h.47v5.57h-.47v-.78c-.27.52-.77.83-1.41.83-1.06,0-1.8-.88-1.8-2.03ZM530.49,127.3c.8,0,1.37-.66,1.37-1.59s-.57-1.59-1.37-1.59-1.39.67-1.39,1.59.58,1.59,1.39,1.59Z"></path><path class="cls-20" d="M535.86,122.11h1.55c1.22,0,1.83.57,1.83,1.54,0,.77-.4,1.27-1.14,1.46l1.5,2.57h-.57l-1.44-2.5c-.13,0-.27,0-.4,0h-.84v2.5h-.5v-5.57ZM537.36,124.75c.85,0,1.38-.34,1.38-1.1s-.54-1.09-1.38-1.09h-1.01v2.19h1.01Z"></path><path class="cls-20" d="M540.25,125.71c0-1.18.77-2.02,1.88-2.02s1.87.84,1.87,2.02-.78,2.03-1.87,2.03-1.88-.84-1.88-2.03ZM542.12,127.31c.84,0,1.39-.64,1.39-1.6s-.55-1.6-1.39-1.6-1.4.64-1.4,1.6.56,1.6,1.4,1.6Z"></path><path class="cls-20" d="M544.96,125.71c0-1.18.77-2.02,1.88-2.02s1.87.84,1.87,2.02-.78,2.03-1.87,2.03-1.88-.84-1.88-2.03ZM546.83,127.31c.84,0,1.39-.64,1.39-1.6s-.55-1.6-1.39-1.6-1.4.64-1.4,1.6.56,1.6,1.4,1.6Z"></path><path class="cls-20" d="M550.18,124.12h-.88v-.38h.88v-.57c0-.82.43-1.12,1.03-1.12.26,0,.47.05.66.15l-.16.36c-.14-.07-.28-.11-.45-.11-.4,0-.6.25-.6.71v.57h.97v.38h-.97v3.56h-.48v-3.56Z"></path></g></g></g></svg> 