<?xml version="1.0" encoding="UTF-8"?> <svg xmlns="http://www.w3.org/2000/svg" id="Layer_2" data-name="Layer 2" viewBox="0 0 631.24 649.24"><defs><style> .cls-1 { stroke: #afa49f; } .cls-1, .cls-2, .cls-3, .cls-4, .cls-5, .cls-6, .cls-7, .cls-8, .cls-9, .cls-10, .cls-11, .cls-12, .cls-13, .cls-14, .cls-15 { fill: none; } .cls-1, .cls-2, .cls-3, .cls-4, .cls-5, .cls-8, .cls-9, .cls-10, .cls-12, .cls-13, .cls-14 { stroke-width: .25px; } .cls-1, .cls-11, .cls-12 { stroke-miterlimit: 10; } .cls-2 { stroke-dasharray: 1.54 1.54; } .cls-2, .cls-3, .cls-4, .cls-5, .cls-6, .cls-7, .cls-8, .cls-9, .cls-10, .cls-13, .cls-14, .cls-15 { stroke-linecap: round; stroke-linejoin: round; } .cls-2, .cls-3, .cls-4, .cls-5, .cls-8, .cls-9, .cls-10, .cls-13 { stroke: #75655e; } .cls-3 { stroke-dasharray: 5.89 4.91; } .cls-16 { fill: #3a2a22; } .cls-4 { stroke-dasharray: 6.08 5.07; } .cls-5 { stroke-dasharray: 5.93 4.94; } .cls-6 { stroke: #55453d; stroke-width: .15px; } .cls-17 { fill: #fff; } .cls-7, .cls-11 { stroke-width: .75px; } .cls-7, .cls-11, .cls-14, .cls-15 { stroke: #3a2a22; } .cls-8 { stroke-dasharray: 6.1 5.08; } .cls-9 { stroke-dasharray: 6.03 5.02; } .cls-18 { fill: #bc8ebc; } .cls-12 { stroke: #bc8ebc; } .cls-19 { fill: #afa49f; } .cls-13 { stroke-dasharray: 3.33 2.77; } .cls-15 { stroke-width: .35px; } .cls-20 { fill: #75655e; } </style></defs><g id="Layer_1-2" data-name="Layer 1"><g><polyline class="cls-17" points="91.81 29.23 91.81 334.45 67.22 334.45 67.22 468.19 20.67 468.19 20.67 551.4 9.3 551.4 9.3 648.86 630.86 648.86 630.86 635 508.99 635 551.77 260.82 551.77 260.82 585.68 260.82 630.86 137 593.99 126.1 557.13 115.47 520.07 105.22 483.02 95.33 445.79 85.72 445.79 101.24 445.79 101.21 415.48 93.76 378.15 84.98 340.82 76.48 303.3 68.35 265.79 60.59 228.18 53.1 190.48 46.08 152.78 39.34 114.99 32.96 91.8 29.23"></polyline><line class="cls-10" x1="526.27" y1="648.86" x2="526.61" y2="645.88"></line><line class="cls-5" x1="527.17" y1="640.97" x2="570" y2="265.15"></line><polyline class="cls-10" points="570.28 262.69 570.62 259.71 573.62 259.71"></polyline><line class="cls-13" x1="576.39" y1="259.71" x2="581.11" y2="259.71"></line><polyline class="cls-10" points="582.49 259.71 585.49 259.71 586.52 256.89"></polyline><line class="cls-3" x1="588.2" y1="252.28" x2="628.07" y2="143.05"></line><polyline class="cls-10" points="628.91 140.75 629.94 137.93 629.85 137.93 627.06 137.09"></polyline><polyline class="cls-8" points="622.19 135.63 599.91 128.96 569.79 120.28 539.66 111.78 509.54 103.55 484.68 96.94"></polyline><polyline class="cls-10" points="482.23 96.29 479.33 95.52 480.04 92.6"></polyline><polyline class="cls-10" points="480.27 91.68 480.99 88.77 478.08 88.03"></polyline><polyline class="cls-9" points="473.22 86.79 444.31 79.44 407.53 70.38 370.57 61.7 333.61 53.29 296.56 45.34 259.51 37.67 222.27 30.37 185.03 23.35 147.7 16.79 110.37 10.51 97.24 8.43"></polyline><line class="cls-10" x1="94.76" y1="8.04" x2="91.8" y2="7.57"></line><line class="cls-15" x1="577.64" y1="249.27" x2="615.8" y2="144.58"></line><line class="cls-15" x1="579.21" y1="251.58" x2="618.85" y2="143.01"></line><polyline class="cls-15" points="615.8 144.58 575.61 132.75 535.32 121.39 494.94 110.39 454.47 99.86"></polyline><polyline class="cls-15" points="618.85 143.01 578.01 131 537.17 119.45 496.14 108.36 455.03 97.64 454.47 99.86"></polyline><polyline class="cls-15" points="577.64 249.27 553.15 249.27 553.15 251.58 579.21 251.58"></polyline><g><path class="cls-6" d="M395.92,484.24c0,22.93-18.45,39-41.21,39"></path><path class="cls-6" d="M211.64,276.72c0-22.93,18.45-39,41.21-39"></path><path class="cls-6" d="M469.9,213.19c22.93,0,39,18.45,39,41.21"></path><path class="cls-6" d="M76.84,541.74c0-26.19-21.23-44.55-47.43-44.55"></path></g><line class="cls-6" x1="29.41" y1="541.74" x2="29.41" y2="497.19"></line><line class="cls-6" x1="20.67" y1="544.68" x2="20.67" y2="497.19"></line><g><path class="cls-6" d="M221.81,579.37c-22.93,0-39-18.45-39-41.21"></path><path class="cls-6" d="M227.37,337.88c-22.93,0-39-18.45-39-41.21"></path></g><rect class="cls-15" x="34.61" y="557.6" width="41.69" height="2.21"></rect><polyline class="cls-15" points="55.45 557.6 55.45 555.39 97.13 555.39 97.13 557.6 76.29 557.6"></polyline><rect class="cls-15" x="109.93" y="475.09" width="39.52" height="2.21"></rect><rect class="cls-15" x="354.71" y="482.02" width="41.21" height="2.21"></rect><rect class="cls-15" x="211.65" y="276.72" width="41.21" height="2.21"></rect><rect class="cls-15" x="467.68" y="213.19" width="2.21" height="41.21"></rect><rect class="cls-15" x="349.71" y="570.59" width="2.21" height="41.21"></rect><rect class="cls-15" x="29.41" y="541.74" width="47.43" height="2.88"></rect><rect class="cls-15" x="161.68" y="474.61" width="69.64" height="2.69"></rect><rect class="cls-15" x="178.52" y="239.85" width="2.5" height="41.21"></rect><line class="cls-15" x1="196.49" y1="474.61" x2="196.49" y2="477.3"></line><rect class="cls-15" x="227.37" y="296.67" width="2.21" height="41.21"></rect><rect class="cls-15" x="221.81" y="538.16" width="2.21" height="41.21"></rect><polyline class="cls-10" points="349.22 300.91 349.22 300.16 348.47 300.16"></polyline><line class="cls-2" x1="346.94" y1="300.16" x2="323.13" y2="300.16"></line><polyline class="cls-10" points="322.36 300.16 321.61 300.16 321.61 300.91"></polyline><line class="cls-2" x1="321.61" y1="302.45" x2="321.61" y2="326.25"></line><polyline class="cls-10" points="321.61 327.02 321.61 327.77 322.36 327.77"></polyline><line class="cls-2" x1="323.9" y1="327.77" x2="347.71" y2="327.77"></line><polyline class="cls-10" points="348.47 327.77 349.22 327.77 349.22 327.02"></polyline><line class="cls-2" x1="349.22" y1="325.49" x2="349.22" y2="301.68"></line><polyline class="cls-10" points="349.22 383.6 349.22 382.85 348.47 382.85"></polyline><line class="cls-2" x1="346.94" y1="382.85" x2="323.13" y2="382.85"></line><polyline class="cls-10" points="322.36 382.85 321.61 382.85 321.61 383.6"></polyline><line class="cls-2" x1="321.61" y1="385.14" x2="321.61" y2="408.95"></line><polyline class="cls-10" points="321.61 409.71 321.61 410.46 322.36 410.46"></polyline><line class="cls-2" x1="323.9" y1="410.46" x2="347.71" y2="410.46"></line><polyline class="cls-10" points="348.47 410.46 349.22 410.46 349.22 409.71"></polyline><line class="cls-2" x1="349.22" y1="408.18" x2="349.22" y2="384.37"></line><line class="cls-10" x1="257.59" y1="325.64" x2="257.59" y2="328.64"></line><line class="cls-4" x1="257.59" y1="333.7" x2="257.59" y2="420.34"></line><line class="cls-10" x1="257.59" y1="422.87" x2="257.59" y2="425.87"></line><line class="cls-15" x1="116.25" y1="343.19" x2="116.25" y2="418.56"></line><line class="cls-15" x1="116.25" y1="343.19" x2="116.25" y2="419.38"></line><line class="cls-15" x1="114.96" y1="343.19" x2="114.97" y2="419.38"></line><line class="cls-15" x1="114.96" y1="347.87" x2="116.25" y2="347.87"></line><line class="cls-15" x1="114.96" y1="385.87" x2="116.25" y2="385.87"></line><line class="cls-15" x1="269.5" y1="468.19" x2="269.49" y2="289.49"></line><line class="cls-15" x1="269.5" y1="325.63" x2="242.07" y2="325.64"></line><line class="cls-15" x1="269.5" y1="425.87" x2="242.07" y2="425.87"></line><line class="cls-15" x1="267" y1="325.63" x2="267" y2="289.49"></line><line class="cls-15" x1="267" y1="468.19" x2="267" y2="425.87"></line><rect class="cls-15" x="321.61" y="296.63" width="48.28" height="117.32"></rect><rect class="cls-15" x="197.47" y="431.32" width="30.61" height="38.03"></rect><rect class="cls-15" x="164.91" y="431.32" width="30.61" height="38.03"></rect><g><rect class="cls-15" x="341.78" y="362.74" width="9.78" height="1.74" rx=".59" ry=".59"></rect><circle class="cls-15" cx="334.98" cy="363.61" r=".9"></circle></g><polyline class="cls-15" points="350.24 364.48 350.24 366.9 348.69 366.9 348.69 364.48"></polyline><line class="cls-15" x1="348.69" y1="366.04" x2="350.24" y2="366.04"></line><polyline class="cls-15" points="346.38 364.48 346.38 376.53 324.62 376.53 324.62 350.69 346.38 350.69 346.38 362.74"></polyline><polyline class="cls-15" points="345.29 362.74 345.29 351.77 325.7 351.77 325.7 375.45 345.29 375.45 345.29 364.48"></polyline><polyline class="cls-15" points="234.58 394.35 157.25 394.36 157.25 419.5"></polyline><path class="cls-15" d="M177.99,411.41h-9.87c-.4,0-.72-.32-.72-.72v-10.9c0-.4.32-.72.72-.72h20.82c.4,0,.72.32.72.72v10.9c0,.4-.32.72-.72.72h-9.48"></path><rect class="cls-15" x="177.99" y="408.98" width="1.47" height="5.89"></rect><g><circle class="cls-15" cx="178.73" cy="405.24" r=".84"></circle><path class="cls-15" d="M212.75,411.41h-9.87c-.4,0-.72-.32-.72-.72v-10.9c0-.4.32-.72.72-.72h20.82c.4,0,.72.32.72.72v10.9c0,.4-.32.72-.72.72h-9.48"></path></g><rect class="cls-15" x="212.75" y="408.98" width="1.47" height="5.89"></rect><circle class="cls-15" cx="213.48" cy="405.24" r=".84"></circle><line class="cls-15" x1="75.97" y1="405.99" x2="114.97" y2="405.99"></line><g><rect class="cls-15" x="127.95" y="411.92" width="17.6" height="7.45" rx="1.08" ry="1.08"></rect><path class="cls-15" d="M141.21,407.77c.28,0,.54-.11.73-.32,1.88-2.09,3.09-5.3,3.09-8.9,0-6.31-3.71-11.42-8.28-11.42s-8.28,5.11-8.28,11.42c0,3.6,1.2,6.8,3.08,8.9.19.21.46.32.73.32h8.92Z"></path></g><line class="cls-15" x1="145.03" y1="398.56" x2="145.03" y2="412.08"></line><line class="cls-15" x1="128.48" y1="398.56" x2="128.48" y2="412.08"></line><g><rect class="cls-15" x="131.63" y="610.07" width="7.45" height="17.6" rx="1.08" ry="1.08"></rect><path class="cls-15" d="M143.22,623.33c0,.27.11.54.32.73,2.09,1.88,5.3,3.08,8.9,3.08,6.31,0,11.42-3.7,11.42-8.28s-5.11-8.27-11.42-8.27c-3.6,0-6.8,1.2-8.9,3.08-.21.19-.32.46-.32.73v8.92Z"></path></g><line class="cls-15" x1="152.44" y1="627.14" x2="138.92" y2="627.14"></line><line class="cls-15" x1="152.44" y1="610.59" x2="138.92" y2="610.59"></line><polyline class="cls-15" points="131.63 598.08 156.64 598.08 156.64 538.16"></polyline><path class="cls-15" d="M139.69,567.57v-9.87c0-.4.32-.72.72-.72h10.9c.4,0,.72.32.72.72v20.82c0,.4-.32.72-.72.72h-10.9c-.4,0-.72-.32-.72-.72v-9.48"></path><rect class="cls-15" x="136.24" y="567.57" width="5.89" height="1.47"></rect><circle class="cls-15" cx="145.86" cy="568.31" r=".84"></circle><line class="cls-15" x1="273.72" y1="533.16" x2="349.71" y2="533.16"></line><line class="cls-15" x1="244.76" y1="623.14" x2="247.97" y2="623.14"></line><g><path class="cls-15" d="M248.83,623.14h11.6c1.38,0,2.5-1.12,2.5-2.5v-61.83c0-1.38-1.12-2.5-2.5-2.5h-24.04c-1.38,0-2.5,1.12-2.5,2.5v61.83c0,1.38,1.12,2.5,2.5,2.5h8.37"></path><path class="cls-15" d="M247.97,627.17v-10.86c0-.24.19-.43.43-.43s.43.19.43.43v10.81"></path><path class="cls-15" d="M248.83,617.39c.46-.17.79-.61.79-1.14,0-.67-.54-1.21-1.21-1.21s-1.21.54-1.21,1.21c0,.51.32.95.77,1.13"></path><path class="cls-15" d="M248.83,621.42c2.66-.21,4.76-2.45,4.76-5.17,0-2.86-2.32-5.18-5.18-5.18s-5.18,2.32-5.18,5.18c0,2.71,2.09,4.94,4.74,5.16"></path></g><rect class="cls-15" x="245.87" y="627.17" width="5.08" height=".97"></rect><line class="cls-15" x1="230.18" y1="628.13" x2="230.18" y2="551.9"></line><line class="cls-15" x1="228.9" y1="628.13" x2="228.9" y2="551.95"></line><line class="cls-15" x1="228.9" y1="623.45" x2="230.18" y2="623.45"></line><line class="cls-15" x1="228.89" y1="585.45" x2="230.18" y2="585.45"></line><rect class="cls-15" x="243.94" y="363.58" width="24.28" height="36.98"></rect><rect class="cls-15" x="245.02" y="364.65" width="22.12" height="34.82"></rect><path class="cls-15" d="M266.38,382.06c0,.71-.57,1.28-1.28,1.28s-1.28-.57-1.28-1.28.57-1.28,1.28-1.28c.71,0,1.28.57,1.28,1.28Z"></path><line class="cls-15" x1="267.14" y1="399.47" x2="268.22" y2="400.55"></line><line class="cls-15" x1="267.13" y1="364.65" x2="268.21" y2="363.57"></line><line class="cls-15" x1="245.01" y1="364.66" x2="243.93" y2="363.58"></line><line class="cls-15" x1="245.02" y1="399.47" x2="243.94" y2="400.55"></line><polygon class="cls-15" points="265.1 381.01 264.05 382.06 265.1 383.12 266.16 382.06 265.1 381.01"></polygon><line class="cls-15" x1="264.05" y1="382.06" x2="266.16" y2="382.06"></line><g><path class="cls-15" d="M96.68,355.08c0,.67-.54,1.21-1.21,1.21s-1.21-.54-1.21-1.21.54-1.21,1.21-1.21,1.21.54,1.21,1.21Z"></path><path class="cls-15" d="M100.65,355.08c0,2.86-2.32,5.18-5.18,5.18s-5.18-2.32-5.18-5.18,2.32-5.18,5.18-5.18,5.18,2.32,5.18,5.18Z"></path><path class="cls-14" d="M324.07,625.64c.03,1.51.06,3.03.13,4.57.04.8.09,1.6.13,2.36.03.57.07,1.11.16,1.78.09.65.25,1.42-.23,1.73-.11.07-.25.12-.38.13-.77.06-.9-1.18-.97-2.24-.15-2.35.04-3.74.16-5.44.06-.9.1-1.89.14-2.89-.04-.99-.08-1.98-.14-2.89-.11-1.7-.3-3.09-.16-5.44.07-1.05.2-2.3.97-2.24.13,0,.27.06.38.13.48.31.32,1.08.23,1.73-.1.67-.13,1.21-.16,1.78-.04.75-.09,1.56-.13,2.35-.07,1.55-.1,3.06-.13,4.57Z"></path><path class="cls-14" d="M319.37,625.64c.03,1.51.06,3.03.13,4.57.04.8.09,1.6.13,2.36.03.57.07,1.11.16,1.78.09.65.25,1.42-.23,1.73-.11.07-.25.12-.38.13-.77.06-.9-1.18-.97-2.24-.15-2.35.04-3.74.16-5.44.06-.9.1-1.89.14-2.89-.04-.99-.08-1.98-.14-2.89-.11-1.7-.3-3.09-.16-5.44.07-1.05.2-2.3.97-2.24.13,0,.27.06.38.13.48.31.32,1.08.23,1.73-.1.67-.13,1.21-.16,1.78-.04.75-.09,1.56-.13,2.35-.07,1.55-.1,3.06-.13,4.57Z"></path><path class="cls-14" d="M314.68,625.64c.03,1.51.06,3.03.13,4.57.04.8.09,1.6.13,2.36.03.57.07,1.11.16,1.78.09.65.25,1.42-.23,1.73-.11.07-.25.12-.38.13-.77.06-.9-1.18-.97-2.24-.15-2.35.04-3.74.16-5.44.06-.9.1-1.89.14-2.89-.04-.99-.08-1.98-.14-2.89-.11-1.7-.3-3.09-.16-5.44.07-1.05.2-2.3.97-2.24.13,0,.27.06.38.13.48.31.32,1.08.23,1.73-.1.67-.13,1.21-.16,1.78-.04.75-.09,1.56-.13,2.35-.07,1.55-.1,3.06-.13,4.57Z"></path><path class="cls-14" d="M288.51,600.84c-1.51.03-3.03.06-4.57.13-.8.04-1.6.09-2.35.13-.57.03-1.11.07-1.78.16-.65.09-1.42.25-1.73-.23-.07-.11-.12-.25-.13-.38-.06-.77,1.18-.9,2.24-.97,2.35-.15,3.74.04,5.44.16.9.06,1.9.1,2.89.14.99-.04,1.98-.08,2.89-.14,1.7-.11,3.09-.3,5.44-.16,1.05.07,2.3.2,2.24.97-.01.13-.06.27-.13.38-.31.48-1.08.33-1.73.23-.67-.1-1.21-.13-1.78-.16-.75-.04-1.56-.09-2.35-.13-1.55-.07-3.06-.1-4.57-.13Z"></path><path class="cls-14" d="M288.51,596.14c-1.51.03-3.03.06-4.57.13-.8.04-1.6.09-2.35.13-.57.03-1.11.07-1.78.16-.65.09-1.42.25-1.73-.23-.07-.11-.12-.25-.13-.38-.06-.77,1.18-.9,2.24-.97,2.35-.15,3.74.04,5.44.16.9.06,1.9.1,2.89.14.99-.04,1.98-.08,2.89-.14,1.7-.11,3.09-.3,5.44-.16,1.05.07,2.3.2,2.24.97-.01.13-.06.27-.13.38-.31.48-1.08.33-1.73.23-.67-.1-1.21-.13-1.78-.16-.75-.04-1.56-.09-2.35-.13-1.55-.07-3.06-.1-4.57-.13Z"></path><path class="cls-14" d="M288.51,591.45c-1.51.03-3.03.06-4.57.13-.8.04-1.6.09-2.35.13-.57.03-1.11.07-1.78.16-.65.09-1.42.25-1.73-.23-.07-.11-.12-.25-.13-.38-.06-.77,1.18-.9,2.24-.97,2.35-.15,3.74.04,5.44.16.9.06,1.9.1,2.89.14.99-.04,1.98-.08,2.89-.14,1.7-.11,3.09-.3,5.44-.16,1.05.07,2.3.2,2.24.97-.01.13-.06.27-.13.38-.31.48-1.08.33-1.73.23-.67-.1-1.21-.13-1.78-.16-.75-.04-1.56-.09-2.35-.13-1.55-.07-3.06-.1-4.57-.13Z"></path><path class="cls-14" d="M134.73,451.23c.03,1.51.06,3.03.13,4.57.04.8.09,1.6.13,2.35.03.57.07,1.11.16,1.78.09.65.25,1.42-.23,1.73-.11.07-.25.12-.38.13-.77.06-.9-1.18-.97-2.24-.15-2.35.04-3.74.16-5.44.06-.9.1-1.9.14-2.89-.04-.99-.08-1.98-.14-2.89-.12-1.7-.3-3.09-.16-5.44.07-1.05.2-2.3.97-2.24.13.01.27.06.38.13.48.3.33,1.08.23,1.73-.1.67-.13,1.21-.16,1.78-.04.75-.09,1.56-.13,2.36-.07,1.54-.1,3.06-.13,4.57Z"></path><path class="cls-14" d="M130.03,451.23c.03,1.51.06,3.03.13,4.57.04.8.09,1.6.13,2.35.03.57.07,1.11.16,1.78.09.65.25,1.42-.23,1.73-.11.07-.25.12-.38.13-.77.06-.9-1.18-.97-2.24-.15-2.35.04-3.74.16-5.44.06-.9.1-1.9.14-2.89-.04-.99-.08-1.98-.14-2.89-.12-1.7-.3-3.09-.16-5.44.07-1.05.2-2.3.97-2.24.13.01.27.06.38.13.48.3.33,1.08.23,1.73-.1.67-.13,1.21-.16,1.78-.04.75-.09,1.56-.13,2.36-.07,1.54-.1,3.06-.13,4.57Z"></path><path class="cls-14" d="M125.34,451.23c.03,1.51.06,3.03.13,4.57.04.8.09,1.6.13,2.35.03.57.07,1.11.16,1.78.09.65.25,1.42-.23,1.73-.11.07-.25.12-.38.13-.77.06-.9-1.18-.97-2.24-.15-2.35.04-3.74.16-5.44.06-.9.1-1.9.14-2.89-.04-.99-.08-1.98-.14-2.89-.12-1.7-.3-3.09-.16-5.44.07-1.05.2-2.3.97-2.24.13.01.27.06.38.13.48.3.32,1.08.23,1.73-.1.67-.13,1.21-.16,1.78-.04.75-.09,1.56-.13,2.36-.07,1.54-.1,3.06-.13,4.57Z"></path></g><polyline class="cls-14" points="288.51 566.15 288.51 625.45 349.55 625.45"></polyline><line class="cls-14" x1="107.17" y1="451.23" x2="152.55" y2="451.23"></line><polyline class="cls-14" points="514.99 460.49 536.96 268.3 511.11 268.3 511.11 261.9"></polyline><polyline class="cls-14" points="521.35 461.22 544.14 261.9 544.12 261.89 511.11 261.89 511.11 256.9"></polyline><line class="cls-14" x1="501" y1="639.19" x2="517.44" y2="495.43"></line><line class="cls-14" x1="499.28" y1="597.25" x2="511.01" y2="494.7"></line><polyline class="cls-14" points="252.85 72.14 218.94 65.49 185.03 59.11 150.94 53.1 116.93 47.28"></polyline><polyline class="cls-14" points="258.68 73.25 294.8 80.73 330.93 88.49 366.97 96.62 402.91 105.03 438.86 113.72 438.86 191.52"></polyline><polyline class="cls-14" points="444.58 192.72 444.58 109.28 407.81 100.23 370.94 91.54 333.98 83.23 296.93 75.28 259.88 67.61 222.64 60.31 185.4 53.29 148.17 46.73 117.84 41.64"></polyline><line class="cls-14" x1="91.8" y1="31.59" x2="91.8" y2="37.39"></line><polyline class="cls-14" points="551.77 260.82 585.68 260.82 630.86 137 594 126.1 557.13 115.47 520.08 105.22 483.02 95.33 445.79 85.72 445.79 101.24"></polyline><line class="cls-14" x1="508.52" y1="643.13" x2="630.86" y2="643.13"></line><polyline class="cls-14" points="508.52 648.86 630.86 648.86 630.86 637.31"></polyline><line class="cls-7" x1="511.11" y1="256.9" x2="511.11" y2="254.4"></line><polygon class="cls-7" points="91.8 31.59 113.79 35.09 151.4 41.46 189.1 48.11 226.61 55.14 264.13 62.53 301.55 70.29 338.88 78.42 376.12 86.83 413.26 95.61 450.4 104.76 450.4 192.72 444.58 192.72 452.72 192.72 452.72 102.91 415.48 93.76 378.15 84.98 340.82 76.48 303.3 68.35 265.79 60.59 228.18 53.1 190.48 46.08 152.79 39.34 114.99 32.96 91.8 29.23 91.8 31.59"></polygon><polygon class="cls-7" points="508.99 635 552.51 254.4 511.11 254.4 511.11 256.9 549.71 256.9 506.21 637.31 630.86 637.31 630.86 635 508.99 635"></polygon><rect class="cls-7" x="530.55" y="390.44" width="2.21" height="4.96" transform="translate(80.88 876.5) rotate(-83.48)"></rect><rect class="cls-7" x="538.39" y="321.81" width="2.21" height="4.96" transform="translate(156.02 823.47) rotate(-83.48)"></rect><rect class="cls-7" x="522.7" y="459.07" width="2.21" height="4.97" transform="translate(5.74 929.54) rotate(-83.48)"></rect><rect class="cls-7" x="518.78" y="493.37" width="2.21" height="4.97" transform="translate(-31.81 956.05) rotate(-83.48)"></rect><rect class="cls-7" x="514.87" y="527.55" width="2.21" height="4.96" transform="translate(-69.23 982.47) rotate(-83.48)"></rect><rect class="cls-7" x="507.05" y="596.02" width="2.21" height="4.96" transform="translate(-144.2 1035.38) rotate(-83.48)"></rect><rect class="cls-7" x="502.98" y="631.6" width="2.21" height="4.96" transform="translate(-183.15 1062.87) rotate(-83.48)"></rect><rect class="cls-7" x="508.89" y="254.4" width="2.21" height="7.5"></rect><rect class="cls-7" x="463.06" y="254.4" width="4.62" height="7.5"></rect><polyline class="cls-7" points="450.41 104.76 448.93 104.39 443.2 108.91 444.58 109.28 444.58 110.67 450.41 106.23 450.41 104.76"></polyline><polygon class="cls-7" points="119.89 36.1 118.95 41.82 116.64 41.44 117.67 35.73 119.89 36.1"></polygon><polyline class="cls-7" points="188.17 47.93 187.16 53.66 184.94 53.2 185.96 47.56 188.17 47.93"></polyline><polyline class="cls-7" points="256.27 60.96 255.07 66.69 252.85 66.22 253.96 60.5 256.27 60.96"></polyline><polyline class="cls-7" points="324.09 75.19 322.89 80.82 320.68 80.27 321.88 74.63 324.09 75.19"></polyline><polyline class="cls-7" points="391.64 90.43 390.34 96.07 388.13 95.52 389.42 89.97 391.64 90.43"></polyline><rect class="cls-7" x="444.58" y="190.41" width="5.82" height="2.31"></rect><rect class="cls-7" x="444.58" y="121.11" width="5.82" height="2.31"></rect><rect class="cls-7" x="514.77" y="637.31" width="2.31" height="5.82"></rect><rect class="cls-7" x="574.83" y="637.31" width="2.31" height="5.82"></rect><polygon class="cls-16" points="513.7 471.15 349.71 471.15 349.71 482.02 354.71 482.02 354.71 477.4 425 477.4 425 492.42 511.27 492.42 511.01 494.7 517.44 495.43 521.35 461.22 514.92 460.48 513.7 471.15"></polygon><polygon class="cls-11" points="513.7 471.15 349.71 471.15 349.71 482.02 354.71 482.02 354.71 477.4 425 477.4 425 492.42 511.27 492.42 511.01 494.7 517.44 495.43 521.35 461.22 514.92 460.48 513.7 471.15"></polygon><polygon class="cls-16" points="258.68 67.38 258.68 237.72 252.85 237.72 252.85 66.22 258.68 67.38"></polygon><polygon class="cls-11" points="258.68 67.38 258.68 237.72 252.85 237.72 252.85 66.22 258.68 67.38"></polygon><polygon class="cls-16" points="466.07 261.9 466.07 268.3 438.86 268.3 438.86 191.72 444.58 191.72 444.58 192.72 463.06 192.72 463.06 261.9 466.07 261.9"></polygon><polygon class="cls-11" points="466.07 261.9 466.07 268.3 438.86 268.3 438.86 191.72 444.58 191.72 444.58 192.72 463.06 192.72 463.06 261.9 466.07 261.9"></polygon><polygon class="cls-16" points="100.55 44.63 116.93 47.28 117.84 41.64 91.81 37.39 91.81 334.45 67.22 334.45 67.22 468.19 20.67 468.19 20.67 497.19 29.41 497.19 29.41 477.3 109.93 477.3 109.93 471.36 107.17 471.36 107.17 436.49 152.55 436.49 152.55 471.36 149.45 471.36 149.45 477.3 161.68 477.3 161.68 471.36 159.01 471.36 159.01 427.74 234.58 427.74 234.58 471.36 231.31 471.36 231.31 477.3 234.58 477.3 242.07 477.3 269.49 477.3 269.49 468.19 242.07 468.19 242.07 421.75 242.07 289.49 269.49 289.49 269.49 284.49 258.68 284.49 258.68 278.93 252.85 278.93 252.85 284.49 234.58 284.49 234.58 292.49 229.58 292.49 229.58 297.48 234.58 297.48 234.58 419.37 75.97 419.38 75.97 343.19 116.25 343.19 116.25 340.69 183.51 340.69 183.51 296.67 188.51 296.67 188.51 291.68 183.51 291.68 183.51 281.06 178.52 281.06 178.52 334.45 100.55 334.45 100.55 234.32 178.52 234.32 178.52 239.85 183.51 239.85 183.51 229.33 178.52 229.33 100.55 229.33 100.55 44.63"></polygon><polygon class="cls-11" points="100.55 44.63 116.93 47.28 117.84 41.64 91.81 37.39 91.81 334.45 67.22 334.45 67.22 468.19 20.67 468.19 20.67 497.19 29.41 497.19 29.41 477.3 109.93 477.3 109.93 471.36 107.17 471.36 107.17 436.49 152.55 436.49 152.55 471.36 149.45 471.36 149.45 477.3 161.68 477.3 161.68 471.36 159.01 471.36 159.01 427.74 234.58 427.74 234.58 471.36 231.31 471.36 231.31 477.3 234.58 477.3 242.07 477.3 269.49 477.3 269.49 468.19 242.07 468.19 242.07 421.75 242.07 289.49 269.49 289.49 269.49 284.49 258.68 284.49 258.68 278.93 252.85 278.93 252.85 284.49 234.58 284.49 234.58 292.49 229.58 292.49 229.58 297.48 234.58 297.48 234.58 419.37 75.97 419.38 75.97 343.19 116.25 343.19 116.25 340.69 183.51 340.69 183.51 296.67 188.51 296.67 188.51 291.68 183.51 291.68 183.51 281.06 178.52 281.06 178.52 334.45 100.55 334.45 100.55 234.32 178.52 234.32 178.52 239.85 183.51 239.85 183.51 229.33 178.52 229.33 100.55 229.33 100.55 44.63"></polygon><g><polygon class="cls-16" points="501 639.19 505.71 597.99 499.28 597.25 494.49 639.19 354.71 639.19 354.71 611.8 349.71 611.8 349.71 639.19 273.72 639.19 273.72 565.98 349.71 565.98 349.71 570.59 354.71 570.59 354.71 523.23 349.71 523.23 349.71 560.98 273.72 560.98 273.72 533.16 224.03 533.17 224.03 538.16 228.9 538.16 228.9 551.95 267.92 551.95 267.92 628.13 228.9 628.13 228.9 639.66 131.63 639.66 131.63 538.16 182.82 538.16 182.82 533.17 123.49 533.17 123.49 555.39 117.98 555.39 117.98 559.81 123.5 559.81 123.5 639.66 18.04 639.66 18.04 559.81 34.61 559.81 34.61 555.39 29.41 555.39 29.41 544.68 20.67 544.68 20.67 551.4 9.3 551.4 9.3 648.86 508.52 648.86 508.52 639.19 501 639.19"></polygon><polygon class="cls-11" points="501 639.19 505.71 597.99 499.28 597.25 494.49 639.19 354.71 639.19 354.71 611.8 349.71 611.8 349.71 639.19 273.72 639.19 273.72 565.98 349.71 565.98 349.71 570.59 354.71 570.59 354.71 523.23 349.71 523.23 349.71 560.98 273.72 560.98 273.72 533.16 224.03 533.17 224.03 538.16 228.9 538.16 228.9 551.95 267.92 551.95 267.92 628.13 228.9 628.13 228.9 639.66 131.63 639.66 131.63 538.16 182.82 538.16 182.82 533.17 123.49 533.17 123.49 555.39 117.98 555.39 117.98 559.81 123.5 559.81 123.5 639.66 18.04 639.66 18.04 559.81 34.61 559.81 34.61 555.39 29.41 555.39 29.41 544.68 20.67 544.68 20.67 551.4 9.3 551.4 9.3 648.86 508.52 648.86 508.52 639.19 501 639.19"></polygon><path class="cls-18" d="M8.22,520.79c.08.02.14.07.14.14s-.06.13-.14.14c-3.3.56-4.94,2.74-4.94,6.02v3.83c0,1.16-1.01,1.98-2.66,2.2-.34.05-.61-.23-.46-.47.31-.46.47-1.06.47-1.78v-3.48c0-2.95,1.67-5.22,4.98-6.17.37-.11.37-.5,0-.61-3.31-.96-4.98-3.22-4.98-6.18v-3.48c0-.72-.16-1.32-.47-1.78-.16-.23.12-.51.46-.47,1.64.22,2.66,1.05,2.66,2.2v3.84c0,3.29,1.64,5.46,4.95,6.02h0Z"></path><path class="cls-12" d="M8.22,520.79c.08.02.14.07.14.14s-.06.13-.14.14c-3.3.56-4.94,2.74-4.94,6.02v3.83c0,1.16-1.01,1.98-2.66,2.2-.34.05-.61-.23-.46-.47.31-.46.47-1.06.47-1.78v-3.48c0-2.95,1.67-5.22,4.98-6.17.37-.11.37-.5,0-.61-3.31-.96-4.98-3.22-4.98-6.18v-3.48c0-.72-.16-1.32-.47-1.78-.16-.23.12-.51.46-.47,1.64.22,2.66,1.05,2.66,2.2v3.84c0,3.29,1.64,5.46,4.95,6.02h0Z"></path></g><g><path class="cls-16" d="M127.43,138.24h2.52c1.9,0,2.97.89,2.97,2.53s-1.07,2.54-2.97,2.54h-1.72v3.99h-.8v-9.06ZM129.88,142.59c1.41,0,2.24-.61,2.24-1.81s-.81-1.81-2.24-1.81h-1.64v3.62h1.64Z"></path><path class="cls-16" d="M134.44,140.89h.78v1.09c.43-.78,1.31-1.18,2.02-1.18.33,0,.66.07.99.24l-.39.7c-.21-.1-.51-.17-.77-.17-.68,0-1.46.36-1.74,1.3-.08.27-.12.57-.12,1.27v3.15h-.78v-6.41Z"></path><path class="cls-16" d="M139.5,138.24h.94v1.39h-.94v-1.39ZM139.58,140.89h.77v6.41h-.77v-6.41Z"></path><path class="cls-16" d="M142.39,140.89h.78v1.1c.38-.85,1.11-1.19,1.88-1.19.91,0,1.57.4,1.89,1.25.4-.83,1.09-1.25,2-1.25,1.55,0,2.13,1.16,2.13,2.68v3.82h-.78v-3.64c0-1.33-.39-2.18-1.52-2.18-1.02,0-1.65.77-1.65,2.26v3.57h-.78v-3.76c0-1.4-.52-2.07-1.5-2.07-1.03,0-1.67.79-1.67,2.26v3.57h-.78v-6.41Z"></path><path class="cls-16" d="M157.22,146.1c-.43.82-1.25,1.29-2.25,1.29-1.44,0-2.31-.77-2.31-1.94,0-.69.29-1.16.72-1.44.46-.31,1.09-.42,1.77-.42h2.05v-.28c0-1.19-.62-1.83-1.82-1.83-.79,0-1.4.29-1.98,1.02l-.56-.48c.68-.85,1.53-1.22,2.59-1.22,1.63,0,2.54.89,2.54,2.51v3.99h-.71l-.04-1.2ZM155.04,146.75c1.18,0,2.17-.93,2.17-2.2v-.36h-1.95c-.51,0-1.03.08-1.37.33-.28.21-.44.51-.44.94,0,.79.6,1.3,1.6,1.3Z"></path><path class="cls-16" d="M159.93,140.89h.78v1.09c.43-.78,1.31-1.18,2.02-1.18.33,0,.66.07.99.24l-.39.7c-.21-.1-.51-.17-.77-.17-.68,0-1.46.36-1.74,1.3-.08.27-.12.57-.12,1.27v3.15h-.78v-6.41Z"></path><path class="cls-16" d="M166.98,147.1l-2.55-6.21h.86l2.1,5.42,2.11-5.42h.85l-3.69,9.05h-.84l1.17-2.84Z"></path><path class="cls-16" d="M175.24,138.24h2.72c1.68,0,2.68.84,2.68,2.25,0,.94-.46,1.68-1.24,2,1.1.25,1.7,1.07,1.7,2.31,0,1.61-1.02,2.5-2.88,2.5h-2.97v-9.06ZM178.21,142.24c.98,0,1.63-.64,1.63-1.64s-.69-1.61-1.88-1.61h-1.91v3.26h2.16ZM178.16,146.55c1.42,0,2.14-.6,2.14-1.79,0-1.13-.66-1.79-1.79-1.79h-2.46v3.58h2.11Z"></path><path class="cls-16" d="M182.57,144.14c0-1.84.99-3.34,2.81-3.34,1.96,0,2.76,1.53,2.76,2.94,0,.1-.01.4-.04.55h-4.76c.03,1.51.84,2.39,2.14,2.39.82,0,1.35-.23,1.91-.83l.55.49c-.73.75-1.43,1.05-2.46,1.05-1.89,0-2.91-1.41-2.91-3.25ZM187.38,143.71c0-.08,0-.16,0-.24,0-.92-.58-2.02-2-2.02-1.23,0-1.98.98-2.07,2.26h4.06Z"></path><path class="cls-16" d="M189.55,144.09c0-1.96,1.29-3.29,2.92-3.29,1.05,0,1.87.54,2.29,1.36v-3.92h.77v9.06h-.77v-1.26c-.44.85-1.25,1.35-2.29,1.35-1.72,0-2.92-1.42-2.92-3.3ZM192.59,146.67c1.3,0,2.23-1.08,2.23-2.58s-.93-2.58-2.23-2.58-2.26,1.09-2.26,2.58.95,2.58,2.26,2.58Z"></path><path class="cls-16" d="M197.56,140.89h.78v1.09c.43-.78,1.31-1.18,2.02-1.18.33,0,.66.07.99.24l-.39.7c-.21-.1-.51-.17-.77-.17-.68,0-1.46.36-1.74,1.3-.08.27-.12.57-.12,1.27v3.15h-.78v-6.41Z"></path><path class="cls-16" d="M201.94,144.09c0-1.92,1.25-3.29,3.05-3.29s3.04,1.36,3.04,3.29-1.27,3.3-3.04,3.3-3.05-1.36-3.05-3.3ZM204.99,146.69c1.37,0,2.26-1.04,2.26-2.61s-.9-2.61-2.26-2.61-2.28,1.05-2.28,2.61.9,2.61,2.28,2.61Z"></path><path class="cls-16" d="M209.48,144.09c0-1.92,1.25-3.29,3.05-3.29s3.04,1.36,3.04,3.29-1.27,3.3-3.04,3.3-3.05-1.36-3.05-3.3ZM212.53,146.69c1.37,0,2.26-1.04,2.26-2.61s-.9-2.61-2.26-2.61-2.28,1.05-2.28,2.61.9,2.61,2.28,2.61Z"></path><path class="cls-16" d="M217.32,140.89h.78v1.1c.38-.85,1.11-1.19,1.88-1.19.91,0,1.57.4,1.89,1.25.4-.83,1.09-1.25,2-1.25,1.55,0,2.13,1.16,2.13,2.68v3.82h-.78v-3.64c0-1.33-.39-2.18-1.52-2.18-1.02,0-1.65.77-1.65,2.26v3.57h-.78v-3.76c0-1.4-.52-2.07-1.5-2.07-1.03,0-1.67.79-1.67,2.26v3.57h-.78v-6.41Z"></path></g><g><path class="cls-16" d="M317.27,176.62h.81v8.33h4.18v.73h-4.99v-9.06Z"></path><path class="cls-16" d="M323.4,176.62h.94v1.39h-.94v-1.39ZM323.48,179.27h.77v6.41h-.77v-6.41Z"></path><path class="cls-16" d="M325.65,179.27h.86l2.1,5.42,2.11-5.42h.85l-2.61,6.41h-.68l-2.63-6.41Z"></path><path class="cls-16" d="M332.9,176.62h.94v1.39h-.94v-1.39ZM332.99,179.27h.77v6.41h-.77v-6.41Z"></path><path class="cls-16" d="M335.8,179.27h.78v1.05c.4-.76,1.12-1.14,2.01-1.14,1.38,0,2.2.81,2.2,2.51v3.99h-.78v-3.71c0-1.45-.55-2.11-1.61-2.11-1.16,0-1.83.79-1.83,2.55v3.27h-.78v-6.41Z"></path><path class="cls-16" d="M342.25,186.44s0-.1.03-.26l1.11-.88c-.57-.22-.96-.59-.96-1.26,0-.53.27-.9.72-1.2-.36-.37-.56-.87-.56-1.45,0-1.3,1.04-2.2,2.39-2.2.64,0,1.22.21,1.64.59l1.02-.86.4.49-1,.88c.19.33.3.71.3,1.14,0,1.28-.96,2.13-2.33,2.13-.53,0-.99-.12-1.37-.34-.31.18-.45.42-.45.72,0,.66.63.83,1.62.98,1.6.25,2.99.44,2.99,1.75,0,1.16-1.05,1.78-2.7,1.78-1.82,0-2.85-.7-2.85-2ZM345.11,187.83c1.09,0,1.92-.34,1.92-1.08,0-.86-1.16-.96-2.31-1.14-.31-.05-.6-.1-.89-.17l-.8.92c-.01.09-.01.11-.01.15,0,.9.79,1.33,2.09,1.33ZM344.98,182.9c.98,0,1.59-.65,1.59-1.53s-.64-1.56-1.58-1.56-1.62.65-1.62,1.55.63,1.55,1.61,1.55Z"></path><path class="cls-16" d="M352.74,176.62h2.52c1.99,0,2.97.93,2.97,2.5,0,1.25-.64,2.07-1.85,2.38l2.44,4.19h-.92l-2.34-4.07c-.21,0-.44,0-.65,0h-1.36v4.06h-.81v-9.06ZM355.18,180.9c1.38,0,2.24-.55,2.24-1.78s-.88-1.77-2.24-1.77h-1.64v3.56h1.64Z"></path><path class="cls-16" d="M359.74,182.47c0-1.92,1.25-3.29,3.05-3.29s3.04,1.37,3.04,3.29-1.27,3.3-3.04,3.3-3.05-1.36-3.05-3.3ZM362.79,185.08c1.37,0,2.26-1.04,2.26-2.61s-.9-2.61-2.26-2.61-2.28,1.05-2.28,2.61.9,2.61,2.28,2.61Z"></path><path class="cls-16" d="M367.28,182.47c0-1.92,1.25-3.29,3.05-3.29s3.04,1.37,3.04,3.29-1.27,3.3-3.04,3.3-3.05-1.36-3.05-3.3ZM370.33,185.08c1.37,0,2.26-1.04,2.26-2.61s-.9-2.61-2.26-2.61-2.28,1.05-2.28,2.61.9,2.61,2.28,2.61Z"></path><path class="cls-16" d="M375.12,179.27h.78v1.1c.38-.85,1.11-1.19,1.88-1.19.91,0,1.57.4,1.89,1.25.4-.83,1.09-1.25,2-1.25,1.55,0,2.13,1.16,2.13,2.69v3.82h-.78v-3.64c0-1.33-.39-2.18-1.52-2.18-1.02,0-1.65.77-1.65,2.26v3.57h-.78v-3.76c0-1.4-.52-2.07-1.5-2.07-1.03,0-1.67.79-1.67,2.26v3.57h-.78v-6.41Z"></path></g><g><path class="cls-16" d="M414.53,351.88h2.43c2.94,0,4.62,1.68,4.62,4.6s-1.64,4.46-4.63,4.46h-2.42v-9.06ZM416.88,360.19c2.5,0,3.89-1.16,3.89-3.74s-1.4-3.83-3.82-3.83h-1.61v7.57h1.54Z"></path><path class="cls-16" d="M423.19,351.88h.94v1.39h-.94v-1.39ZM423.27,354.53h.77v6.41h-.77v-6.41Z"></path><path class="cls-16" d="M426.08,354.53h.78v1.05c.4-.76,1.12-1.14,2.01-1.14,1.38,0,2.2.81,2.2,2.51v3.99h-.78v-3.71c0-1.45-.55-2.11-1.61-2.11-1.16,0-1.83.79-1.83,2.55v3.27h-.78v-6.41Z"></path><path class="cls-16" d="M432.96,351.88h.94v1.39h-.94v-1.39ZM433.04,354.53h.77v6.41h-.77v-6.41Z"></path><path class="cls-16" d="M435.85,354.53h.78v1.05c.4-.76,1.12-1.14,2.01-1.14,1.38,0,2.2.81,2.2,2.51v3.99h-.78v-3.71c0-1.45-.55-2.11-1.61-2.11-1.16,0-1.83.79-1.83,2.55v3.27h-.78v-6.41Z"></path><path class="cls-16" d="M442.3,361.7s0-.1.03-.26l1.11-.88c-.57-.22-.96-.59-.96-1.26,0-.53.27-.9.72-1.2-.36-.37-.56-.87-.56-1.45,0-1.3,1.04-2.2,2.38-2.2.64,0,1.22.21,1.64.58l1.02-.86.4.49-1,.88c.19.33.3.71.3,1.14,0,1.28-.96,2.13-2.33,2.13-.53,0-.99-.12-1.37-.34-.31.17-.45.42-.45.71,0,.66.63.83,1.62.98,1.6.25,2.99.44,2.99,1.75,0,1.16-1.05,1.78-2.7,1.78-1.82,0-2.85-.7-2.85-2ZM445.16,363.09c1.09,0,1.92-.34,1.92-1.08,0-.86-1.16-.96-2.31-1.14-.31-.05-.6-.1-.89-.17l-.8.92c-.01.09-.01.11-.01.15,0,.9.79,1.33,2.09,1.33ZM445.03,358.16c.98,0,1.59-.65,1.59-1.53s-.64-1.56-1.58-1.56-1.62.65-1.62,1.55.63,1.55,1.61,1.55Z"></path><path class="cls-16" d="M452.79,351.88h2.52c1.99,0,2.97.93,2.97,2.5,0,1.25-.64,2.07-1.85,2.38l2.44,4.19h-.92l-2.34-4.07c-.21,0-.44,0-.65,0h-1.36v4.06h-.81v-9.06ZM455.23,356.16c1.38,0,2.24-.55,2.24-1.78s-.88-1.77-2.24-1.77h-1.64v3.56h1.64Z"></path><path class="cls-16" d="M459.79,357.73c0-1.92,1.25-3.29,3.05-3.29s3.04,1.37,3.04,3.29-1.27,3.3-3.04,3.3-3.05-1.37-3.05-3.3ZM462.84,360.33c1.37,0,2.26-1.04,2.26-2.61s-.9-2.61-2.26-2.61-2.28,1.05-2.28,2.61.9,2.61,2.28,2.61Z"></path><path class="cls-16" d="M467.33,357.73c0-1.92,1.25-3.29,3.05-3.29s3.04,1.37,3.04,3.29-1.27,3.3-3.04,3.3-3.05-1.37-3.05-3.3ZM470.38,360.33c1.37,0,2.26-1.04,2.26-2.61s-.9-2.61-2.26-2.61-2.28,1.05-2.28,2.61.9,2.61,2.28,2.61Z"></path><path class="cls-16" d="M475.17,354.53h.78v1.1c.38-.84,1.11-1.19,1.88-1.19.91,0,1.57.4,1.89,1.25.4-.83,1.09-1.25,2-1.25,1.55,0,2.13,1.16,2.13,2.68v3.82h-.78v-3.64c0-1.33-.39-2.18-1.52-2.18-1.02,0-1.65.77-1.65,2.26v3.57h-.78v-3.76c0-1.4-.52-2.07-1.5-2.07-1.03,0-1.67.79-1.67,2.26v3.57h-.78v-6.41Z"></path></g><g><path class="cls-16" d="M402.55,559.77h2.72c1.68,0,2.68.84,2.68,2.25,0,.94-.46,1.68-1.24,2,1.1.25,1.7,1.07,1.7,2.31,0,1.61-1.02,2.5-2.88,2.5h-2.97v-9.06ZM405.53,563.78c.98,0,1.63-.64,1.63-1.64s-.69-1.61-1.88-1.61h-1.91v3.26h2.16ZM405.47,568.09c1.42,0,2.14-.6,2.14-1.79,0-1.13-.66-1.79-1.79-1.79h-2.46v3.58h2.11Z"></path><path class="cls-16" d="M409.85,565.68c0-1.84.99-3.34,2.81-3.34,1.96,0,2.76,1.53,2.76,2.94,0,.1-.01.4-.04.55h-4.76c.03,1.51.84,2.39,2.14,2.39.82,0,1.35-.23,1.91-.83l.55.49c-.73.75-1.43,1.05-2.46,1.05-1.89,0-2.91-1.41-2.91-3.25ZM414.67,565.25c0-.08,0-.16,0-.24,0-.92-.58-2.01-2-2.01-1.23,0-1.98.98-2.07,2.26h4.06Z"></path><path class="cls-16" d="M416.82,565.62c0-1.96,1.29-3.29,2.92-3.29,1.05,0,1.87.54,2.29,1.36v-3.92h.77v9.06h-.77v-1.26c-.44.84-1.25,1.35-2.29,1.35-1.72,0-2.92-1.42-2.92-3.3ZM419.86,568.2c1.3,0,2.23-1.08,2.23-2.58s-.93-2.58-2.23-2.58-2.26,1.09-2.26,2.58.95,2.58,2.26,2.58Z"></path><path class="cls-16" d="M424.84,562.43h.78v1.09c.43-.78,1.31-1.18,2.02-1.18.33,0,.66.07.99.24l-.39.7c-.21-.1-.51-.17-.77-.17-.68,0-1.46.36-1.74,1.3-.08.27-.12.57-.12,1.27v3.15h-.78v-6.41Z"></path><path class="cls-16" d="M429.22,565.62c0-1.92,1.25-3.29,3.05-3.29s3.04,1.37,3.04,3.29-1.27,3.3-3.04,3.3-3.05-1.37-3.05-3.3ZM432.27,568.23c1.37,0,2.26-1.04,2.26-2.61s-.9-2.61-2.26-2.61-2.28,1.05-2.28,2.61.9,2.61,2.28,2.61Z"></path><path class="cls-16" d="M436.75,565.62c0-1.92,1.25-3.29,3.05-3.29s3.04,1.37,3.04,3.29-1.27,3.3-3.04,3.3-3.05-1.37-3.05-3.3ZM439.8,568.23c1.37,0,2.26-1.04,2.26-2.61s-.9-2.61-2.26-2.61-2.28,1.05-2.28,2.61.9,2.61,2.28,2.61Z"></path><path class="cls-16" d="M444.59,562.43h.78v1.1c.38-.84,1.11-1.19,1.88-1.19.91,0,1.57.4,1.89,1.25.4-.83,1.09-1.25,2-1.25,1.55,0,2.13,1.16,2.13,2.68v3.82h-.78v-3.64c0-1.33-.39-2.18-1.52-2.18-1.02,0-1.65.77-1.65,2.26v3.57h-.78v-3.76c0-1.4-.52-2.07-1.5-2.07-1.03,0-1.67.79-1.67,2.26v3.57h-.78v-6.41Z"></path></g><g><path class="cls-16" d="M517.01,176.62h2.43c2.94,0,4.62,1.68,4.62,4.6s-1.64,4.46-4.63,4.46h-2.42v-9.06ZM519.35,184.93c2.5,0,3.89-1.16,3.89-3.74s-1.4-3.83-3.82-3.83h-1.61v7.57h1.54Z"></path><path class="cls-16" d="M525.51,182.52c0-1.84.99-3.34,2.81-3.34,1.96,0,2.76,1.53,2.76,2.94,0,.1-.01.4-.04.55h-4.76c.03,1.51.84,2.39,2.14,2.39.82,0,1.35-.23,1.91-.83l.55.49c-.73.75-1.43,1.05-2.46,1.05-1.89,0-2.91-1.41-2.91-3.25ZM530.33,182.09c0-.08,0-.16,0-.24,0-.92-.58-2.02-2-2.02-1.23,0-1.98.98-2.07,2.26h4.06Z"></path><path class="cls-16" d="M532.49,182.47c0-1.83,1.06-3.29,2.86-3.29,1.17,0,2.09.59,2.51,1.74l-.7.27c-.27-.82-.9-1.33-1.81-1.33-1.42,0-2.09,1.25-2.09,2.61s.68,2.62,2.09,2.62c.91,0,1.53-.51,1.81-1.33l.7.27c-.42,1.16-1.34,1.75-2.51,1.75-1.8,0-2.86-1.46-2.86-3.3Z"></path><path class="cls-16" d="M541.56,182.15l-1.3,1.37v2.16h-.78v-9.06h.78v5.9l3.15-3.24h1.01l-2.28,2.35,2.67,4.06h-.92l-2.31-3.53Z"></path></g><g><path class="cls-16" d="M298.46,437.87h.81v4.86l4.65-4.86h1.09l-3.45,3.54,3.48,5.52h-.95l-3.11-4.93-1.71,1.75v3.17h-.81v-9.06Z"></path><path class="cls-16" d="M306.19,437.87h.94v1.39h-.94v-1.39ZM306.28,440.52h.77v6.41h-.77v-6.41Z"></path><path class="cls-16" d="M309.84,445.45v-4.31h-1.42v-.62h1.42v-1.85l.79-.46v2.31h1.54v.62h-1.54v4.12c0,.71.22,1.11.81,1.11.19,0,.46-.04.73-.12v.62c-.32.1-.64.16-.92.16-.85,0-1.4-.49-1.4-1.57Z"></path><path class="cls-16" d="M313.2,443.72c0-1.83,1.06-3.29,2.86-3.29,1.17,0,2.09.58,2.51,1.74l-.7.27c-.27-.82-.9-1.33-1.81-1.33-1.42,0-2.09,1.25-2.09,2.61s.68,2.62,2.09,2.62c.91,0,1.53-.51,1.81-1.33l.7.27c-.42,1.16-1.34,1.75-2.51,1.75-1.8,0-2.86-1.46-2.86-3.3Z"></path><path class="cls-16" d="M320.2,437.87h.78v3.69c.4-.75,1.1-1.13,2.01-1.13,1.4,0,2.2.85,2.2,2.51v3.99h-.78v-3.71c0-1.43-.53-2.11-1.61-2.11-1.18,0-1.83.83-1.83,2.55v3.27h-.78v-9.06Z"></path><path class="cls-16" d="M326.83,443.77c0-1.84.99-3.34,2.81-3.34,1.96,0,2.76,1.53,2.76,2.94,0,.1-.01.4-.04.55h-4.76c.03,1.51.84,2.39,2.14,2.39.82,0,1.35-.23,1.91-.83l.55.49c-.73.75-1.43,1.05-2.46,1.05-1.89,0-2.91-1.41-2.91-3.25ZM331.65,443.34c0-.08,0-.16,0-.24,0-.92-.58-2.01-2-2.01-1.23,0-1.98.98-2.07,2.26h4.06Z"></path><path class="cls-16" d="M334.13,440.52h.78v1.05c.4-.76,1.12-1.14,2.01-1.14,1.38,0,2.2.81,2.2,2.51v3.99h-.78v-3.71c0-1.45-.55-2.11-1.61-2.11-1.16,0-1.83.79-1.83,2.55v3.27h-.78v-6.41Z"></path></g><g><path class="cls-16" d="M60.74,593.18h5.86v.73h-5.06v3.37h4.39v.73h-4.39v4.24h-.81v-9.06Z"></path><path class="cls-16" d="M67.92,600.91v-7.73h.77v7.59c0,.6.23.84.64.84.17,0,.38-.04.61-.12v.67c-.29.11-.6.17-.84.17-.72,0-1.18-.44-1.18-1.42Z"></path><path class="cls-16" d="M70.89,599.09c0-1.84.99-3.34,2.81-3.34,1.96,0,2.76,1.53,2.76,2.94,0,.1-.01.4-.04.55h-4.76c.03,1.51.84,2.39,2.14,2.39.82,0,1.35-.23,1.91-.83l.55.49c-.73.75-1.43,1.05-2.46,1.05-1.89,0-2.91-1.41-2.91-3.25ZM75.7,598.66c0-.08,0-.16,0-.24,0-.92-.58-2.01-2-2.01-1.23,0-1.98.98-2.07,2.26h4.06Z"></path><path class="cls-16" d="M79.84,599.03l-2.37-3.19h.96l1.92,2.65,1.94-2.65h.94l-2.38,3.19,2.39,3.22h-.96l-1.93-2.67-1.94,2.67h-.94l2.37-3.22Z"></path></g><g><path class="cls-16" d="M85.51,501.19h5.86v.73h-5.06v3.37h4.39v.73h-4.39v4.24h-.81v-9.06Z"></path><path class="cls-16" d="M92.1,507.04c0-1.92,1.25-3.29,3.05-3.29s3.04,1.37,3.04,3.29-1.27,3.3-3.04,3.3-3.05-1.37-3.05-3.3ZM95.15,509.65c1.37,0,2.26-1.04,2.26-2.61s-.9-2.61-2.26-2.61-2.28,1.05-2.28,2.61.9,2.61,2.28,2.61Z"></path><path class="cls-16" d="M101.67,510.05l-2.55-6.21h.86l2.1,5.42,2.11-5.42h.85l-3.69,9.05h-.84l1.17-2.84Z"></path><path class="cls-16" d="M106,507.09c0-1.84.99-3.34,2.81-3.34,1.96,0,2.76,1.53,2.76,2.94,0,.1-.01.4-.04.55h-4.76c.03,1.51.84,2.39,2.14,2.39.82,0,1.35-.23,1.91-.83l.55.49c-.73.75-1.43,1.05-2.46,1.05-1.89,0-2.91-1.41-2.91-3.25ZM110.81,506.66c0-.08,0-.16,0-.24,0-.92-.58-2.01-2-2.01-1.23,0-1.98.98-2.07,2.26h4.06Z"></path><path class="cls-16" d="M113.29,503.84h.78v1.09c.43-.78,1.31-1.18,2.02-1.18.33,0,.66.07.99.24l-.39.7c-.21-.1-.51-.17-.77-.17-.68,0-1.46.36-1.74,1.3-.08.27-.12.57-.12,1.27v3.15h-.78v-6.41Z"></path></g><g><path class="cls-16" d="M130.59,280.93h.65l1.71,6.06,1.76-5.7h.63l1.76,5.7,1.7-6.06h.65l-2.01,6.98h-.63l-1.79-5.71-1.79,5.71h-.64l-2.01-6.98Z"></path><path class="cls-16" d="M140.59,280.93h.62v6.98h-.62v-6.98Z"></path><path class="cls-16" d="M142.64,284.41c0-2.16,1.26-3.58,3.16-3.58,1.35,0,2.39.71,2.84,1.89l-.58.22c-.38-.96-1.17-1.52-2.26-1.52-1.55,0-2.54,1.17-2.54,2.99s.99,3,2.54,3c1.09,0,1.89-.56,2.26-1.52l.58.22c-.45,1.18-1.49,1.9-2.84,1.9-1.89,0-3.16-1.42-3.16-3.59Z"></path></g><g><path class="cls-16" d="M310.47,592.36h.65l1.71,6.06,1.76-5.7h.63l1.76,5.7,1.7-6.06h.65l-2.01,6.98h-.63l-1.79-5.71-1.79,5.71h-.64l-2.01-6.98Z"></path><path class="cls-16" d="M320.47,592.36h.62v6.98h-.62v-6.98Z"></path><path class="cls-16" d="M322.52,595.85c0-2.16,1.26-3.58,3.16-3.58,1.35,0,2.39.71,2.84,1.89l-.58.22c-.38-.96-1.17-1.52-2.26-1.52-1.55,0-2.54,1.17-2.54,2.99s.99,3,2.54,3c1.09,0,1.89-.56,2.26-1.52l.58.21c-.45,1.18-1.49,1.9-2.84,1.9-1.89,0-3.16-1.42-3.16-3.59Z"></path></g><path class="cls-16" d="M175.92,446.8h.65l1.71,6.06,1.76-5.7h.63l1.76,5.7,1.7-6.06h.65l-2.01,6.98h-.63l-1.79-5.71-1.79,5.71h-.64l-2.01-6.98Z"></path><path class="cls-16" d="M210.27,446.8h1.87c2.26,0,3.56,1.29,3.56,3.54s-1.27,3.43-3.57,3.43h-1.86v-6.98ZM212.07,453.2c1.92,0,2.99-.89,2.99-2.88s-1.08-2.95-2.94-2.95h-1.24v5.83h1.19Z"></path><path class="cls-16" d="M245.51,307.94c0-2.17,1.27-3.59,3.16-3.59s3.18,1.42,3.18,3.59-1.27,3.58-3.18,3.58-3.16-1.42-3.16-3.58ZM248.66,310.93c1.57,0,2.55-1.16,2.55-2.99s-.99-3-2.55-3-2.54,1.15-2.54,3,.99,2.99,2.54,2.99Z"></path><path class="cls-16" d="M255.54,303.45h.48l-3.55,9.08h-.48l3.55-9.08Z"></path><path class="cls-16" d="M257.24,304.45h.93l2.35,5.66,2.35-5.66h.92v6.98h-.62v-6.16l-2.35,5.59h-.61l-2.36-5.59v6.16h-.62v-6.98Z"></path><g><path class="cls-16" d="M248.22,443.64h1.94c1.53,0,2.29.72,2.29,1.92,0,.97-.5,1.6-1.43,1.83l1.88,3.22h-.71l-1.8-3.13c-.16,0-.34,0-.5,0h-1.05v3.13h-.62v-6.98ZM250.11,446.93c1.06,0,1.73-.43,1.73-1.37s-.68-1.37-1.73-1.37h-1.26v2.74h1.26Z"></path><path class="cls-16" d="M254.08,443.64h4.56v.56h-3.94v2.59h3.53v.56h-3.53v2.7h3.94v.56h-4.56v-6.98Z"></path><path class="cls-16" d="M259.93,443.64h4.51v.56h-3.89v2.59h3.38v.56h-3.38v3.26h-.62v-6.98Z"></path></g><g><path class="cls-16" d="M328.17,310.33h.65l1.71,6.06,1.76-5.7h.63l1.76,5.7,1.7-6.06h.65l-2.01,6.98h-.63l-1.79-5.71-1.79,5.71h-.64l-2.01-6.98Z"></path><path class="cls-16" d="M338.17,310.33h4.51v.56h-3.89v2.59h3.38v.56h-3.38v3.26h-.62v-6.98Z"></path></g><g><path class="cls-16" d="M328.24,393.1h1.87c2.26,0,3.56,1.29,3.56,3.54s-1.27,3.43-3.57,3.43h-1.86v-6.98ZM330.04,399.5c1.92,0,2.99-.89,2.99-2.88s-1.08-2.95-2.94-2.95h-1.24v5.83h1.19Z"></path><path class="cls-16" d="M334.32,393.1h.65l1.71,6.06,1.76-5.7h.63l1.76,5.7,1.7-6.06h.65l-2.01,6.98h-.63l-1.79-5.71-1.79,5.71h-.64l-2.01-6.98Z"></path></g><path class="cls-16" d="M309.88,542.59h1.94c1.46,0,2.29.69,2.29,1.95s-.83,1.96-2.29,1.96h-1.33v3.07h-.62v-6.98ZM311.76,545.93c1.09,0,1.73-.47,1.73-1.4s-.62-1.39-1.73-1.39h-1.27v2.79h1.27Z"></path><polyline class="cls-1" points="224.25 3.17 210.11 3.17 203.27 19.87"></polyline><path class="cls-19" d="M201.74,23.61l4.06-4.47s-2.53.73-3.82-1.57l-.24,6.03Z"></path><g><path class="cls-20" d="M230.7,0h1.67c1.03,0,1.65.52,1.65,1.38,0,.58-.28,1.03-.76,1.23.68.16,1.04.66,1.04,1.42,0,.99-.63,1.54-1.77,1.54h-1.83V0ZM232.53,2.46c.6,0,1-.39,1-1.01s-.42-.99-1.16-.99h-1.17v2h1.33ZM232.49,5.11c.88,0,1.32-.37,1.32-1.1,0-.7-.41-1.1-1.1-1.1h-1.51v2.2h1.3Z"></path><path class="cls-20" d="M235.36,4.08V1.63h.47v2.28c0,.89.34,1.3,1,1.3.71,0,1.13-.48,1.13-1.57V1.63h.48v3.94h-.48v-.65c-.25.47-.7.7-1.25.7-.84,0-1.35-.51-1.35-1.55Z"></path><path class="cls-20" d="M239.72,0h.58v.86h-.58v-.86ZM239.77,1.63h.47v3.94h-.47V1.63Z"></path><path class="cls-20" d="M241.58,4.75V0h.48v4.67c0,.37.14.52.39.52.1,0,.24-.02.38-.07v.41c-.18.07-.37.1-.52.1-.44,0-.72-.27-.72-.88Z"></path><path class="cls-20" d="M243.44,3.6c0-1.21.79-2.02,1.79-2.02.64,0,1.15.33,1.41.84V0h.47v5.57h-.47v-.78c-.27.52-.77.83-1.41.83-1.05,0-1.79-.88-1.79-2.03ZM245.31,5.19c.8,0,1.37-.66,1.37-1.59s-.57-1.59-1.37-1.59-1.39.67-1.39,1.59.58,1.59,1.39,1.59Z"></path><path class="cls-20" d="M248.4,0h.58v.86h-.58v-.86ZM248.45,1.63h.47v3.94h-.47V1.63Z"></path><path class="cls-20" d="M250.26,1.63h.48v.64c.25-.47.69-.7,1.24-.7.85,0,1.36.5,1.36,1.54v2.45h-.48v-2.28c0-.89-.34-1.3-.99-1.3-.71,0-1.13.48-1.13,1.57v2.01h-.48V1.63Z"></path><path class="cls-20" d="M254.31,6.04s0-.06.02-.16l.68-.54c-.35-.14-.59-.36-.59-.78,0-.32.16-.55.44-.74-.22-.23-.34-.54-.34-.89,0-.8.64-1.36,1.47-1.36.4,0,.75.13,1.01.36l.63-.53.24.3-.62.54c.12.2.18.44.18.7,0,.79-.59,1.31-1.44,1.31-.32,0-.61-.08-.84-.21-.19.11-.28.26-.28.44,0,.41.39.51,1,.6.98.15,1.84.27,1.84,1.08,0,.72-.64,1.1-1.66,1.1-1.12,0-1.75-.43-1.75-1.23ZM256.07,6.9c.67,0,1.18-.21,1.18-.66,0-.53-.71-.59-1.42-.7-.19-.03-.37-.06-.55-.1l-.49.56c0,.06,0,.07,0,.09,0,.55.49.82,1.29.82ZM255.99,3.87c.6,0,.98-.4.98-.94s-.39-.96-.97-.96-1,.4-1,.95.39.95.99.95Z"></path><path class="cls-20" d="M262.48,0h.42l2.05,5.57h-.54l-.51-1.45h-2.42l-.51,1.45h-.55l2.05-5.57ZM263.74,3.68l-1.05-2.99-1.06,2.99h2.11Z"></path><path class="cls-20" d="M266.27,4.8v.78h-.47V0h.47v2.41c.26-.5.77-.84,1.41-.84,1,0,1.79.82,1.79,2.02s-.74,2.03-1.79,2.03c-.64,0-1.14-.31-1.41-.83ZM267.6,5.19c.81,0,1.39-.67,1.39-1.59s-.58-1.59-1.39-1.59-1.37.66-1.37,1.59.57,1.59,1.37,1.59Z"></path><path class="cls-20" d="M270.43,3.6c0-1.18.77-2.02,1.88-2.02s1.87.84,1.87,2.02-.78,2.03-1.87,2.03-1.88-.84-1.88-2.03ZM272.3,5.2c.84,0,1.39-.64,1.39-1.6s-.55-1.6-1.39-1.6-1.4.64-1.4,1.6.56,1.6,1.4,1.6Z"></path><path class="cls-20" d="M274.83,1.63h.53l1.29,3.33,1.3-3.33h.52l-1.61,3.94h-.42l-1.61-3.94Z"></path><path class="cls-20" d="M279.15,3.63c0-1.13.61-2.06,1.73-2.06,1.21,0,1.7.94,1.7,1.81,0,.06,0,.24-.02.34h-2.93c.02.93.52,1.47,1.32,1.47.5,0,.83-.14,1.17-.51l.34.3c-.45.46-.88.65-1.51.65-1.16,0-1.79-.87-1.79-2ZM282.11,3.37s0-.1,0-.15c0-.57-.36-1.24-1.23-1.24-.75,0-1.22.6-1.27,1.39h2.49Z"></path></g><g><path class="cls-20" d="M358.76,16.61h.5v5.12h2.57v.45h-3.07v-5.57Z"></path><path class="cls-20" d="M365.29,21.44c-.26.5-.77.8-1.38.8-.88,0-1.42-.48-1.42-1.2,0-.42.18-.71.44-.89.28-.19.67-.26,1.09-.26h1.26v-.17c0-.73-.38-1.13-1.12-1.13-.48,0-.86.18-1.22.63l-.34-.3c.42-.52.94-.75,1.59-.75,1,0,1.56.55,1.56,1.54v2.45h-.44l-.02-.74ZM363.95,21.84c.72,0,1.33-.57,1.33-1.35v-.22h-1.2c-.32,0-.63.05-.84.2-.17.13-.27.31-.27.58,0,.49.37.8.98.8Z"></path><path class="cls-20" d="M367.04,18.24h.48v.64c.25-.47.69-.7,1.24-.7.85,0,1.36.5,1.36,1.54v2.45h-.48v-2.28c0-.89-.34-1.3-.99-1.3-.71,0-1.13.48-1.13,1.57v2.01h-.48v-3.94Z"></path><path class="cls-20" d="M371.18,20.21c0-1.21.79-2.02,1.8-2.02.64,0,1.15.33,1.41.84v-2.41h.47v5.57h-.47v-.78c-.27.52-.77.83-1.41.83-1.06,0-1.8-.88-1.8-2.03ZM373.05,21.8c.8,0,1.37-.66,1.37-1.59s-.57-1.59-1.37-1.59-1.39.67-1.39,1.59.58,1.59,1.39,1.59Z"></path><path class="cls-20" d="M375.78,21.34l.34-.28c.2.46.66.77,1.26.77.57,0,.95-.27.95-.72,0-.55-.53-.68-1.1-.82-.66-.16-1.23-.38-1.23-1.06,0-.62.53-1.05,1.29-1.05.6,0,1.1.26,1.37.76l-.37.21c-.21-.38-.57-.58-1.01-.58-.48,0-.84.24-.84.62,0,.4.36.54.93.68.67.16,1.43.34,1.43,1.2,0,.71-.56,1.17-1.42,1.17-.79,0-1.35-.4-1.6-.9Z"></path><path class="cls-20" d="M379.72,20.21c0-1.13.65-2.02,1.76-2.02.72,0,1.28.36,1.54,1.07l-.43.17c-.17-.5-.55-.82-1.11-.82-.87,0-1.29.77-1.29,1.61s.42,1.61,1.29,1.61c.56,0,.94-.31,1.11-.82l.43.16c-.26.71-.82,1.08-1.54,1.08-1.11,0-1.76-.9-1.76-2.03Z"></path><path class="cls-20" d="M386.68,21.44c-.26.5-.77.8-1.38.8-.88,0-1.42-.48-1.42-1.2,0-.42.18-.71.44-.89.28-.19.67-.26,1.09-.26h1.26v-.17c0-.73-.38-1.13-1.12-1.13-.48,0-.86.18-1.22.63l-.34-.3c.42-.52.94-.75,1.59-.75,1,0,1.56.55,1.56,1.54v2.45h-.44l-.02-.74ZM385.34,21.84c.72,0,1.33-.57,1.33-1.35v-.22h-1.2c-.32,0-.63.05-.84.2-.17.13-.27.31-.27.58,0,.49.37.8.98.8Z"></path><path class="cls-20" d="M392.12,20.22c0,1.21-.79,2.02-1.79,2.02-.64,0-1.15-.33-1.41-.84v2.41h-.47v-5.57h.47v.78c.27-.52.77-.83,1.41-.83,1.06,0,1.79.88,1.79,2.03ZM390.25,21.8c.81,0,1.39-.67,1.39-1.59s-.58-1.59-1.39-1.59-1.37.66-1.37,1.59.57,1.59,1.37,1.59Z"></path><path class="cls-20" d="M393.09,20.24c0-1.13.61-2.05,1.73-2.05,1.21,0,1.7.94,1.7,1.81,0,.06,0,.24-.02.34h-2.93c.02.93.52,1.47,1.32,1.47.5,0,.83-.14,1.17-.51l.34.3c-.45.46-.88.65-1.51.65-1.16,0-1.79-.87-1.79-2ZM396.06,19.98s0-.1,0-.15c0-.57-.36-1.24-1.23-1.24-.75,0-1.22.6-1.27,1.39h2.49Z"></path><path class="cls-20" d="M397.46,20.21c0-1.21.79-2.02,1.8-2.02.64,0,1.15.33,1.41.84v-2.41h.47v5.57h-.47v-.78c-.27.52-.77.83-1.41.83-1.06,0-1.8-.88-1.8-2.03ZM399.33,21.8c.8,0,1.37-.66,1.37-1.59s-.57-1.59-1.37-1.59-1.39.67-1.39,1.59.58,1.59,1.39,1.59Z"></path><path class="cls-20" d="M404.7,16.61h1.55c1.22,0,1.83.57,1.83,1.54,0,.77-.4,1.27-1.14,1.46l1.5,2.57h-.57l-1.44-2.5c-.13,0-.27,0-.4,0h-.84v2.5h-.5v-5.57ZM406.2,19.25c.85,0,1.38-.34,1.38-1.1s-.54-1.09-1.38-1.09h-1.01v2.19h1.01Z"></path><path class="cls-20" d="M409.09,20.21c0-1.18.77-2.02,1.88-2.02s1.87.84,1.87,2.02-.78,2.03-1.87,2.03-1.88-.84-1.88-2.03ZM410.97,21.81c.84,0,1.39-.64,1.39-1.6s-.55-1.6-1.39-1.6-1.4.64-1.4,1.6.56,1.6,1.4,1.6Z"></path><path class="cls-20" d="M413.8,20.21c0-1.18.77-2.02,1.88-2.02s1.87.84,1.87,2.02-.78,2.03-1.87,2.03-1.88-.84-1.88-2.03ZM415.67,21.81c.84,0,1.39-.64,1.39-1.6s-.55-1.6-1.39-1.6-1.4.64-1.4,1.6.56,1.6,1.4,1.6Z"></path><path class="cls-20" d="M419.02,18.62h-.88v-.38h.88v-.57c0-.82.43-1.12,1.03-1.12.26,0,.47.05.66.15l-.16.36c-.14-.07-.28-.11-.45-.11-.4,0-.6.25-.6.71v.57h.97v.38h-.97v3.56h-.48v-3.56Z"></path></g><g><path class="cls-20" d="M564.65,444.77h.5v5.12h2.57v.45h-3.07v-5.57Z"></path><path class="cls-20" d="M571.18,449.6c-.26.5-.77.79-1.38.79-.88,0-1.42-.48-1.42-1.2,0-.42.18-.71.44-.89.28-.19.67-.26,1.09-.26h1.26v-.17c0-.73-.38-1.13-1.12-1.13-.48,0-.86.18-1.22.63l-.34-.3c.42-.52.94-.75,1.59-.75,1,0,1.56.55,1.56,1.54v2.46h-.44l-.02-.74ZM569.84,450c.72,0,1.33-.57,1.33-1.35v-.22h-1.2c-.32,0-.63.05-.84.2-.17.13-.27.31-.27.58,0,.49.37.8.98.8Z"></path><path class="cls-20" d="M572.93,446.4h.48v.64c.25-.47.69-.7,1.24-.7.85,0,1.36.5,1.36,1.54v2.46h-.48v-2.28c0-.89-.34-1.3-.99-1.3-.71,0-1.13.48-1.13,1.57v2.01h-.48v-3.94Z"></path><path class="cls-20" d="M577.07,448.36c0-1.21.79-2.02,1.8-2.02.64,0,1.15.33,1.41.84v-2.41h.47v5.57h-.47v-.78c-.27.52-.77.83-1.41.83-1.06,0-1.8-.88-1.8-2.03ZM578.94,449.95c.8,0,1.37-.66,1.37-1.59s-.57-1.59-1.37-1.59-1.39.67-1.39,1.59.58,1.59,1.39,1.59Z"></path><path class="cls-20" d="M581.67,449.5l.34-.28c.2.46.66.77,1.26.77.57,0,.95-.27.95-.72,0-.55-.53-.68-1.1-.82-.66-.16-1.23-.38-1.23-1.06,0-.62.53-1.05,1.29-1.05.6,0,1.1.26,1.37.76l-.37.21c-.21-.38-.57-.58-1.01-.58-.48,0-.84.24-.84.62,0,.4.36.54.93.68.67.16,1.43.34,1.43,1.2,0,.71-.56,1.17-1.42,1.17-.79,0-1.35-.4-1.6-.9Z"></path><path class="cls-20" d="M585.61,448.36c0-1.13.65-2.02,1.76-2.02.72,0,1.28.36,1.54,1.07l-.43.17c-.17-.5-.55-.82-1.11-.82-.87,0-1.29.77-1.29,1.61s.42,1.61,1.29,1.61c.56,0,.94-.31,1.11-.82l.43.16c-.26.71-.82,1.08-1.54,1.08-1.11,0-1.76-.9-1.76-2.03Z"></path><path class="cls-20" d="M592.57,449.6c-.26.5-.77.79-1.38.79-.88,0-1.42-.48-1.42-1.2,0-.42.18-.71.44-.89.28-.19.67-.26,1.09-.26h1.26v-.17c0-.73-.38-1.13-1.12-1.13-.48,0-.86.18-1.22.63l-.34-.3c.42-.52.94-.75,1.59-.75,1,0,1.56.55,1.56,1.54v2.46h-.44l-.02-.74ZM591.23,450c.72,0,1.33-.57,1.33-1.35v-.22h-1.2c-.32,0-.63.05-.84.2-.17.13-.27.31-.27.58,0,.49.37.8.98.8Z"></path><path class="cls-20" d="M598.01,448.37c0,1.21-.79,2.02-1.79,2.02-.64,0-1.15-.33-1.41-.83v2.41h-.47v-5.57h.47v.78c.27-.52.77-.83,1.41-.83,1.06,0,1.79.88,1.79,2.03ZM596.14,449.96c.81,0,1.39-.67,1.39-1.59s-.58-1.59-1.39-1.59-1.37.66-1.37,1.59.57,1.59,1.37,1.59Z"></path><path class="cls-20" d="M598.98,448.4c0-1.13.61-2.05,1.73-2.05,1.21,0,1.7.94,1.7,1.81,0,.06,0,.24-.02.34h-2.93c.02.93.52,1.47,1.32,1.47.5,0,.83-.14,1.17-.51l.34.3c-.45.46-.88.65-1.51.65-1.16,0-1.79-.87-1.79-2ZM601.95,448.13s0-.1,0-.15c0-.57-.36-1.24-1.23-1.24-.75,0-1.22.6-1.27,1.39h2.49Z"></path><path class="cls-20" d="M603.35,448.36c0-1.21.79-2.02,1.8-2.02.64,0,1.15.33,1.41.84v-2.41h.47v5.57h-.47v-.78c-.27.52-.77.83-1.41.83-1.06,0-1.8-.88-1.8-2.03ZM605.22,449.95c.8,0,1.37-.66,1.37-1.59s-.57-1.59-1.37-1.59-1.39.67-1.39,1.59.58,1.59,1.39,1.59Z"></path><path class="cls-20" d="M610.59,444.77h1.55c1.22,0,1.83.57,1.83,1.54,0,.77-.4,1.28-1.14,1.46l1.5,2.57h-.57l-1.44-2.5c-.13,0-.27,0-.4,0h-.84v2.5h-.5v-5.57ZM612.09,447.4c.85,0,1.38-.34,1.38-1.1s-.54-1.09-1.38-1.09h-1.01v2.19h1.01Z"></path><path class="cls-20" d="M614.98,448.36c0-1.18.77-2.02,1.88-2.02s1.87.84,1.87,2.02-.78,2.03-1.87,2.03-1.88-.84-1.88-2.03ZM616.85,449.97c.84,0,1.39-.64,1.39-1.6s-.55-1.6-1.39-1.6-1.4.64-1.4,1.6.56,1.6,1.4,1.6Z"></path><path class="cls-20" d="M619.69,448.36c0-1.18.77-2.02,1.88-2.02s1.87.84,1.87,2.02-.78,2.03-1.87,2.03-1.88-.84-1.88-2.03ZM621.56,449.97c.84,0,1.39-.64,1.39-1.6s-.55-1.6-1.39-1.6-1.4.64-1.4,1.6.56,1.6,1.4,1.6Z"></path><path class="cls-20" d="M624.91,446.78h-.88v-.38h.88v-.57c0-.82.43-1.12,1.03-1.12.26,0,.47.05.66.15l-.16.36c-.14-.07-.28-.11-.45-.11-.4,0-.6.25-.6.71v.57h.97v.38h-.97v3.56h-.48v-3.56Z"></path></g></g></g></svg> 