<?xml version="1.0" encoding="UTF-8"?> <svg xmlns="http://www.w3.org/2000/svg" xmlns:xlink="http://www.w3.org/1999/xlink" id="Layer_2" data-name="Layer 2" viewBox="0 0 506.96 534.24"><defs><style> .cls-1, .cls-2, .cls-3, .cls-4, .cls-5, .cls-6, .cls-7, .cls-8, .cls-9, .cls-10, .cls-11, .cls-12, .cls-13, .cls-14, .cls-15, .cls-16 { fill: none; } .cls-2 { stroke: #55453d; stroke-width: .12px; } .cls-2, .cls-3, .cls-4, .cls-5, .cls-6, .cls-9, .cls-10, .cls-11, .cls-12, .cls-13, .cls-14, .cls-15 { stroke-linecap: round; stroke-linejoin: round; } .cls-3, .cls-6, .cls-8, .cls-9, .cls-10, .cls-11, .cls-12, .cls-13, .cls-14, .cls-15, .cls-16 { stroke-width: .19px; } .cls-3, .cls-9, .cls-10, .cls-11, .cls-12, .cls-13, .cls-14, .cls-15 { stroke: #75655e; } .cls-4, .cls-5, .cls-6, .cls-7 { stroke: #3a2a22; } .cls-4, .cls-7 { stroke-width: .58px; } .cls-5 { stroke-width: .27px; } .cls-17 { fill: #bc8ebc; } .cls-7, .cls-8, .cls-16 { stroke-miterlimit: 10; } .cls-18 { clip-path: url(#clippath-11); } .cls-19 { clip-path: url(#clippath-16); } .cls-20 { clip-path: url(#clippath-10); } .cls-21 { clip-path: url(#clippath-15); } .cls-22 { clip-path: url(#clippath-13); } .cls-23 { clip-path: url(#clippath-14); } .cls-24 { clip-path: url(#clippath-12); } .cls-25 { clip-path: url(#clippath-3); } .cls-26 { clip-path: url(#clippath-4); } .cls-27 { clip-path: url(#clippath-2); } .cls-28 { clip-path: url(#clippath-7); } .cls-29 { clip-path: url(#clippath-6); } .cls-30 { clip-path: url(#clippath-9); } .cls-31 { clip-path: url(#clippath-8); } .cls-32 { clip-path: url(#clippath-5); } .cls-8 { stroke: #bc8ebc; } .cls-9 { stroke-dasharray: 1.2 1.2; } .cls-33 { fill: #fff; } .cls-10 { stroke-dasharray: 4.7 3.92; } .cls-11 { stroke-dasharray: 4.74 3.95; } .cls-34 { fill: #afa49f; } .cls-12 { stroke-dasharray: 4.63 3.86; } .cls-13 { stroke-dasharray: 2.6 2.16; } .cls-14 { stroke-dasharray: 4.59 3.83; } .cls-35 { fill: #3a2a22; } .cls-36 { fill: #75655e; } .cls-15 { stroke-dasharray: 4.76 3.97; } .cls-16 { stroke: #afa49f; } </style><clipPath id="clippath"><rect class="cls-1" y="4.6" width="494.89" height="504.79"></rect></clipPath><clipPath id="clippath-2"><rect class="cls-1" y="4.6" width="494.89" height="504.79"></rect></clipPath><clipPath id="clippath-3"><rect class="cls-1" y="4.6" width="494.89" height="504.79"></rect></clipPath><clipPath id="clippath-4"><rect class="cls-1" y="4.6" width="494.89" height="504.79"></rect></clipPath><clipPath id="clippath-5"><rect class="cls-1" y="4.6" width="494.89" height="504.79"></rect></clipPath><clipPath id="clippath-6"><rect class="cls-1" y="4.6" width="494.89" height="504.79"></rect></clipPath><clipPath id="clippath-7"><rect class="cls-1" y="4.6" width="494.89" height="504.79"></rect></clipPath><clipPath id="clippath-8"><rect class="cls-1" y="4.6" width="494.89" height="504.79"></rect></clipPath><clipPath id="clippath-9"><rect class="cls-1" y="4.6" width="494.89" height="504.79"></rect></clipPath><clipPath id="clippath-10"><rect class="cls-1" y="4.6" width="494.89" height="504.79"></rect></clipPath><clipPath id="clippath-11"><rect class="cls-1" y="4.6" width="494.89" height="504.79"></rect></clipPath><clipPath id="clippath-12"><rect class="cls-1" y="4.6" width="494.89" height="504.79"></rect></clipPath><clipPath id="clippath-13"><rect class="cls-1" y="4.6" width="494.89" height="504.79"></rect></clipPath><clipPath id="clippath-14"><rect class="cls-1" y="4.6" width="494.89" height="504.79"></rect></clipPath><clipPath id="clippath-15"><rect class="cls-1" y="4.6" width="494.89" height="504.79"></rect></clipPath><clipPath id="clippath-16"><rect class="cls-1" y="4.6" width="494.89" height="504.79"></rect></clipPath></defs><g id="Layer_1-2" data-name="Layer 1"><g><polyline class="cls-33" points="73.35 22.37 73.35 260.44 54.18 260.44 54.18 364.76 17.86 364.76 17.86 429.66 9 429.66 9 505.68 493.82 505.68 493.82 494.87 398.76 494.87 432.13 203.01 432.12 203.01 458.57 203.01 493.82 106.43 465.06 97.93 436.3 89.64 407.4 81.64 378.5 73.93 349.46 66.43 349.46 78.54 349.46 78.51 325.82 72.7 296.7 65.85 267.58 59.22 238.32 52.88 209.06 46.83 179.73 40.99 150.32 35.51 120.92 30.25 91.44 25.28 73.35 22.37"></polyline><line class="cls-3" x1="412.24" y1="505.68" x2="412.5" y2="503.36"></line><line class="cls-12" x1="412.94" y1="499.52" x2="446.34" y2="206.38"></line><polyline class="cls-3" points="446.56 204.47 446.83 202.14 449.17 202.14"></polyline><line class="cls-13" x1="451.33" y1="202.14" x2="455.01" y2="202.14"></line><polyline class="cls-3" points="456.09 202.14 458.43 202.14 459.23 199.94"></polyline><line class="cls-14" x1="460.54" y1="196.35" x2="491.64" y2="111.15"></line><polyline class="cls-3" points="492.29 109.35 493.1 107.15 493.02 107.15 490.85 106.5"></polyline><polyline class="cls-15" points="487.05 105.36 469.67 100.16 446.18 93.39 422.68 86.76 399.19 80.34 379.8 75.18"></polyline><polyline class="cls-3" points="377.88 74.67 375.62 74.07 376.18 71.8"></polyline><polyline class="cls-3" points="376.36 71.08 376.92 68.81 374.65 68.23"></polyline><polyline class="cls-10" points="370.85 67.27 348.3 61.53 319.62 54.47 290.79 47.69 261.96 41.13 233.06 34.94 204.16 28.95 175.11 23.26 146.07 17.78 116.95 12.66 87.84 7.76 77.59 6.15"></polyline><line class="cls-3" x1="75.66" y1="5.84" x2="73.35" y2="5.48"></line><line class="cls-5" x1="452.3" y1="194" x2="482.07" y2="112.34"></line><line class="cls-5" x1="453.53" y1="195.8" x2="484.45" y2="111.12"></line><polyline class="cls-5" points="482.07 112.34 450.72 103.12 419.3 94.25 387.8 85.67 356.23 77.46"></polyline><polyline class="cls-5" points="484.45 111.12 452.59 101.75 420.74 92.74 388.74 84.09 356.66 75.73 356.23 77.46"></polyline><polyline class="cls-5" points="452.3 194 433.2 194 433.2 195.8 453.53 195.8"></polyline><g class="cls-27"><path class="cls-2" d="M310.56,377.27c0,17.88-14.39,30.42-32.14,30.42"></path><path class="cls-2" d="M166.83,215.41c0-17.88,14.39-30.42,32.14-30.42"></path><path class="cls-2" d="M368.26,165.85c17.88,0,30.42,14.39,30.42,32.14"></path><path class="cls-2" d="M61.68,422.12c0-20.43-16.56-34.75-36.99-34.75"></path></g><line class="cls-2" x1="24.68" y1="422.12" x2="24.68" y2="387.37"></line><line class="cls-2" x1="17.86" y1="424.42" x2="17.86" y2="387.37"></line><g class="cls-25"><path class="cls-2" d="M174.76,451.47c-17.88,0-30.42-14.39-30.42-32.14"></path><path class="cls-2" d="M179.09,263.11c-17.88,0-30.42-14.39-30.42-32.14"></path></g><rect class="cls-5" x="28.74" y="434.5" width="32.52" height="1.73"></rect><polyline class="cls-5" points="44.99 434.5 44.99 432.77 77.51 432.77 77.51 434.5 61.25 434.5"></polyline><rect class="cls-5" x="87.49" y="370.14" width="30.83" height="1.73"></rect><rect class="cls-5" x="278.42" y="375.55" width="32.14" height="1.73"></rect><rect class="cls-5" x="166.83" y="215.41" width="32.14" height="1.73"></rect><rect class="cls-5" x="366.54" y="165.85" width="1.73" height="32.14"></rect><rect class="cls-5" x="274.52" y="444.63" width="1.73" height="32.14"></rect><rect class="cls-5" x="24.68" y="422.12" width="36.99" height="2.24"></rect><rect class="cls-5" x="127.85" y="369.76" width="54.32" height="2.1"></rect><rect class="cls-5" x="140.99" y="186.65" width="1.95" height="32.14"></rect><line class="cls-5" x1="155.01" y1="369.76" x2="155.01" y2="371.86"></line><rect class="cls-5" x="179.09" y="230.97" width="1.73" height="32.14"></rect><rect class="cls-5" x="174.76" y="419.33" width="1.72" height="32.14"></rect><polyline class="cls-3" points="274.14 234.28 274.14 233.69 273.55 233.69"></polyline><line class="cls-9" x1="272.36" y1="233.69" x2="253.79" y2="233.69"></line><polyline class="cls-3" points="253.19 233.69 252.6 233.69 252.6 234.28"></polyline><line class="cls-9" x1="252.6" y1="235.48" x2="252.6" y2="254.05"></line><polyline class="cls-3" points="252.6 254.65 252.6 255.23 253.19 255.23"></polyline><line class="cls-9" x1="254.39" y1="255.23" x2="272.95" y2="255.23"></line><polyline class="cls-3" points="273.55 255.23 274.14 255.23 274.14 254.65"></polyline><line class="cls-9" x1="274.14" y1="253.45" x2="274.14" y2="234.88"></line><polyline class="cls-3" points="274.14 298.78 274.14 298.2 273.55 298.2"></polyline><line class="cls-9" x1="272.36" y1="298.2" x2="253.79" y2="298.2"></line><polyline class="cls-3" points="253.19 298.2 252.6 298.2 252.6 298.78"></polyline><line class="cls-9" x1="252.6" y1="299.98" x2="252.6" y2="318.55"></line><polyline class="cls-3" points="252.6 319.15 252.6 319.73 253.19 319.73"></polyline><line class="cls-9" x1="254.39" y1="319.73" x2="272.95" y2="319.73"></line><polyline class="cls-3" points="273.55 319.73 274.14 319.73 274.14 319.15"></polyline><line class="cls-9" x1="274.14" y1="317.95" x2="274.14" y2="299.38"></line><line class="cls-3" x1="202.66" y1="253.56" x2="202.66" y2="255.9"></line><line class="cls-11" x1="202.66" y1="259.86" x2="202.66" y2="327.43"></line><line class="cls-3" x1="202.66" y1="329.41" x2="202.66" y2="331.75"></line><line class="cls-5" x1="92.42" y1="267.26" x2="92.42" y2="326.04"></line><line class="cls-5" x1="92.42" y1="267.26" x2="92.42" y2="326.68"></line><line class="cls-5" x1="91.42" y1="267.26" x2="91.42" y2="326.68"></line><line class="cls-5" x1="91.42" y1="270.91" x2="92.42" y2="270.91"></line><line class="cls-5" x1="91.42" y1="300.55" x2="92.42" y2="300.55"></line><line class="cls-5" x1="211.95" y1="364.76" x2="211.95" y2="225.37"></line><line class="cls-5" x1="211.95" y1="253.56" x2="190.56" y2="253.56"></line><line class="cls-5" x1="211.95" y1="331.75" x2="190.56" y2="331.75"></line><line class="cls-5" x1="210" y1="253.56" x2="210" y2="225.37"></line><line class="cls-5" x1="210" y1="364.76" x2="210" y2="331.75"></line><rect class="cls-5" x="252.6" y="230.94" width="37.66" height="91.51"></rect><rect class="cls-5" x="155.77" y="336" width="23.87" height="29.66"></rect><rect class="cls-5" x="130.37" y="336" width="23.87" height="29.66"></rect><g class="cls-26"><rect class="cls-5" x="268.33" y="282.51" width="7.62" height="1.36" rx=".46" ry=".46"></rect><path class="cls-5" d="M263.73,283.18c0,.39-.31.7-.7.7s-.7-.31-.7-.7.31-.7.7-.7.7.31.7.7Z"></path></g><polyline class="cls-5" points="274.93 283.86 274.93 285.75 273.72 285.75 273.72 283.86"></polyline><line class="cls-5" x1="273.72" y1="285.08" x2="274.93" y2="285.08"></line><polyline class="cls-5" points="271.92 283.86 271.92 293.26 254.95 293.26 254.95 273.1 271.92 273.1 271.92 282.51"></polyline><polyline class="cls-5" points="271.07 282.51 271.07 273.95 255.79 273.95 255.79 292.42 271.07 292.42 271.07 283.86"></polyline><polyline class="cls-5" points="184.72 307.16 124.4 307.17 124.4 326.78"></polyline><g class="cls-32"><path class="cls-5" d="M140.58,320.47h-7.7c-.31,0-.56-.25-.56-.56v-8.5c0-.31.25-.56.56-.56h16.24c.31,0,.56.25.56.56v8.5c0,.31-.25.56-.56.56h-7.4"></path></g><rect class="cls-5" x="140.58" y="318.57" width="1.15" height="4.59"></rect><g class="cls-29"><path class="cls-5" d="M141.81,315.66c0,.36-.29.66-.66.66s-.66-.29-.66-.66.3-.66.66-.66.66.29.66.66Z"></path><path class="cls-5" d="M167.69,320.47h-7.7c-.31,0-.56-.25-.56-.56v-8.5c0-.31.25-.56.56-.56h16.24c.31,0,.56.25.56.56v8.5c0,.31-.25.56-.56.56h-7.4"></path></g><rect class="cls-5" x="167.69" y="318.57" width="1.15" height="4.59"></rect><g class="cls-28"><path class="cls-5" d="M168.92,315.66c0,.36-.29.66-.66.66s-.66-.29-.66-.66.3-.66.66-.66.66.29.66.66Z"></path></g><line class="cls-5" x1="61" y1="316.24" x2="91.42" y2="316.24"></line><g class="cls-31"><rect class="cls-5" x="101.55" y="320.87" width="13.73" height="5.81" rx=".84" ry=".84"></rect><path class="cls-5" d="M111.89,317.63c.22,0,.42-.09.57-.25,1.47-1.63,2.41-4.13,2.41-6.94,0-4.92-2.89-8.91-6.46-8.91s-6.45,3.99-6.45,8.91c0,2.8.94,5.31,2.41,6.94.15.17.36.25.57.25h6.96Z"></path></g><line class="cls-5" x1="114.87" y1="310.44" x2="114.87" y2="320.99"></line><line class="cls-5" x1="101.96" y1="310.44" x2="101.96" y2="320.99"></line><g class="cls-30"><rect class="cls-5" x="104.41" y="475.42" width="5.81" height="13.73" rx=".84" ry=".84"></rect><path class="cls-5" d="M113.46,485.76c0,.21.09.42.25.57,1.63,1.47,4.14,2.41,6.94,2.41,4.92,0,8.91-2.89,8.91-6.46s-3.99-6.46-8.91-6.46c-2.8,0-5.31.94-6.94,2.41-.16.15-.25.36-.25.57v6.96Z"></path></g><line class="cls-5" x1="120.65" y1="488.74" x2="110.1" y2="488.74"></line><line class="cls-5" x1="120.65" y1="475.83" x2="110.1" y2="475.83"></line><polyline class="cls-5" points="104.41 466.07 123.93 466.07 123.93 419.33"></polyline><g class="cls-20"><path class="cls-5" d="M110.7,442.28v-7.7c0-.31.25-.56.56-.56h8.5c.31,0,.56.25.56.56v16.24c0,.31-.25.56-.56.56h-8.5c-.31,0-.56-.25-.56-.56v-7.4"></path></g><rect class="cls-5" x="108.01" y="442.28" width="4.59" height="1.15"></rect><g class="cls-18"><path class="cls-5" d="M115.51,443.51c-.36,0-.66-.29-.66-.66s.3-.66.66-.66.66.29.66.66-.29.66-.66.66Z"></path></g><line class="cls-5" x1="215.25" y1="415.44" x2="274.52" y2="415.44"></line><line class="cls-5" x1="192.65" y1="485.62" x2="195.16" y2="485.62"></line><g class="cls-24"><path class="cls-5" d="M195.83,485.62h9.05c1.07,0,1.95-.87,1.95-1.95v-48.23c0-1.07-.87-1.95-1.95-1.95h-18.75c-1.08,0-1.95.87-1.95,1.95v48.23c0,1.08.87,1.95,1.95,1.95h6.53"></path><path class="cls-5" d="M195.16,488.76v-8.48c0-.18.15-.34.34-.34s.34.15.34.34v8.43"></path><path class="cls-5" d="M195.83,481.13c.36-.13.61-.48.61-.88,0-.52-.42-.94-.94-.94s-.95.42-.95.94c0,.4.25.74.6.88"></path><path class="cls-5" d="M195.83,484.27c2.08-.17,3.71-1.91,3.71-4.03,0-2.23-1.81-4.04-4.04-4.04s-4.04,1.81-4.04,4.04c0,2.12,1.63,3.85,3.7,4.03"></path></g><rect class="cls-5" x="193.52" y="488.76" width="3.96" height=".75"></rect><line class="cls-5" x1="181.28" y1="489.51" x2="181.29" y2="430.05"></line><line class="cls-5" x1="180.28" y1="489.51" x2="180.29" y2="430.09"></line><line class="cls-5" x1="180.28" y1="485.86" x2="181.28" y2="485.86"></line><line class="cls-5" x1="180.28" y1="456.22" x2="181.28" y2="456.22"></line><rect class="cls-5" x="192.02" y="283.16" width="18.94" height="28.84"></rect><rect class="cls-5" x="192.86" y="284" width="17.25" height="27.16"></rect><g class="cls-22"><path class="cls-5" d="M209.52,297.58c0,.55-.45,1-1,1s-1-.45-1-1,.45-1,1-1c.55,0,1,.45,1,1Z"></path></g><line class="cls-5" x1="210.11" y1="311.15" x2="210.95" y2="312"></line><line class="cls-5" x1="210.11" y1="284" x2="210.95" y2="283.16"></line><line class="cls-5" x1="192.86" y1="284" x2="192.01" y2="283.16"></line><line class="cls-5" x1="192.86" y1="311.16" x2="192.02" y2="312"></line><g class="cls-23"><polygon class="cls-5" points="208.52 296.76 207.7 297.58 208.52 298.4 209.35 297.58 208.52 296.76"></polygon></g><line class="cls-5" x1="207.7" y1="297.58" x2="209.35" y2="297.58"></line><g class="cls-21"><path class="cls-5" d="M77.15,276.53c0,.52-.42.95-.95.95s-.94-.42-.94-.95.42-.95.94-.95.95.42.95.95Z"></path><path class="cls-5" d="M80.25,276.53c0,2.23-1.81,4.04-4.04,4.04s-4.04-1.81-4.04-4.04,1.81-4.04,4.04-4.04,4.04,1.81,4.04,4.04Z"></path><path class="cls-6" d="M254.52,487.57c.02,1.18.04,2.36.1,3.57.03.62.07,1.25.1,1.84.03.45.05.87.13,1.39.07.51.19,1.11-.18,1.35-.09.05-.2.09-.3.1-.6.05-.7-.92-.75-1.75-.11-1.83.03-2.91.12-4.24.05-.71.08-1.48.11-2.25-.03-.77-.06-1.55-.11-2.25-.09-1.33-.24-2.41-.12-4.24.05-.82.15-1.8.75-1.75.1,0,.21.04.3.1.37.24.25.84.18,1.35-.08.52-.1.95-.13,1.39-.03.59-.07,1.22-.1,1.84-.06,1.21-.08,2.39-.1,3.57Z"></path><path class="cls-6" d="M250.85,487.57c.02,1.18.04,2.36.1,3.57.03.62.07,1.25.1,1.84.03.45.05.87.13,1.39.07.51.19,1.11-.18,1.35-.09.05-.2.09-.3.1-.6.05-.7-.92-.75-1.75-.11-1.83.03-2.91.12-4.24.05-.71.08-1.48.11-2.25-.03-.77-.06-1.55-.11-2.25-.09-1.33-.24-2.41-.12-4.24.05-.82.15-1.8.75-1.75.1,0,.21.04.3.1.37.24.25.84.18,1.35-.08.52-.1.95-.13,1.39-.03.59-.07,1.22-.1,1.84-.06,1.21-.08,2.39-.1,3.57Z"></path><path class="cls-6" d="M247.19,487.57c.02,1.18.04,2.36.1,3.57.03.62.07,1.25.1,1.84.03.45.05.87.13,1.39.07.51.19,1.11-.18,1.35-.09.05-.2.09-.3.1-.6.05-.7-.92-.75-1.75-.11-1.83.03-2.91.12-4.24.05-.71.08-1.48.11-2.25-.03-.77-.06-1.55-.11-2.25-.09-1.33-.24-2.41-.12-4.24.05-.82.15-1.8.75-1.75.1,0,.21.04.3.1.37.24.25.84.18,1.35-.08.52-.1.95-.13,1.39-.03.59-.07,1.22-.1,1.84-.06,1.21-.08,2.39-.1,3.57Z"></path><path class="cls-6" d="M226.79,468.22c-1.18.02-2.36.04-3.57.1-.62.03-1.25.07-1.84.1-.45.03-.87.05-1.39.13-.51.07-1.11.19-1.35-.18-.05-.09-.09-.2-.1-.3-.05-.6.92-.7,1.75-.75,1.83-.11,2.92.03,4.24.12.7.05,1.48.08,2.25.11.77-.03,1.55-.06,2.25-.11,1.33-.09,2.41-.24,4.24-.12.82.05,1.8.15,1.75.75,0,.1-.04.21-.1.3-.24.37-.84.25-1.35.18-.52-.08-.95-.1-1.39-.13-.59-.04-1.22-.07-1.84-.1-1.21-.06-2.39-.08-3.57-.1Z"></path><path class="cls-6" d="M226.79,464.56c-1.18.02-2.36.04-3.57.1-.62.03-1.25.07-1.84.1-.45.03-.87.05-1.39.13-.51.07-1.11.19-1.35-.18-.05-.09-.09-.2-.1-.3-.05-.6.92-.7,1.75-.75,1.83-.11,2.92.03,4.24.12.7.05,1.48.08,2.25.11.77-.03,1.55-.06,2.25-.11,1.33-.09,2.41-.24,4.24-.12.82.05,1.8.15,1.75.75,0,.1-.04.21-.1.3-.24.37-.84.25-1.35.18-.52-.08-.95-.1-1.39-.13-.59-.04-1.22-.07-1.84-.1-1.21-.06-2.39-.08-3.57-.1Z"></path><path class="cls-6" d="M226.79,460.9c-1.18.02-2.36.04-3.57.1-.62.03-1.25.07-1.84.1-.45.03-.87.05-1.39.13-.51.07-1.11.19-1.35-.18-.05-.09-.09-.2-.1-.3-.05-.6.92-.7,1.75-.75,1.83-.11,2.92.03,4.24.12.7.05,1.48.08,2.25.11.77-.03,1.55-.06,2.25-.11,1.33-.09,2.41-.24,4.24-.12.82.05,1.8.15,1.75.75,0,.1-.04.21-.1.3-.24.37-.84.25-1.35.18-.52-.08-.95-.1-1.39-.13-.59-.04-1.22-.07-1.84-.1-1.21-.06-2.39-.08-3.57-.1Z"></path><path class="cls-6" d="M106.83,351.53c.02,1.18.04,2.36.1,3.57.03.62.07,1.25.1,1.84.03.45.05.87.13,1.39.07.51.19,1.11-.18,1.35-.09.05-.2.09-.3.1-.6.05-.7-.92-.75-1.75-.11-1.83.03-2.92.12-4.24.05-.7.08-1.48.11-2.25-.03-.77-.06-1.55-.11-2.25-.09-1.33-.24-2.41-.12-4.24.05-.82.15-1.8.75-1.75.1,0,.21.04.3.1.37.24.25.84.18,1.35-.08.52-.1.95-.13,1.39-.03.59-.07,1.22-.1,1.84-.06,1.21-.08,2.39-.1,3.57Z"></path><path class="cls-6" d="M103.17,351.53c.02,1.18.04,2.36.1,3.57.03.62.07,1.25.1,1.84.03.45.05.87.13,1.39.07.51.19,1.11-.18,1.35-.09.05-.2.09-.3.1-.6.05-.7-.92-.75-1.75-.11-1.83.03-2.92.12-4.24.05-.7.08-1.48.11-2.25-.03-.77-.06-1.55-.11-2.25-.09-1.33-.24-2.41-.12-4.24.05-.82.15-1.8.75-1.75.1,0,.21.04.3.1.37.24.25.84.18,1.35-.08.52-.1.95-.13,1.39-.03.59-.07,1.22-.1,1.84-.06,1.21-.08,2.39-.1,3.57Z"></path><path class="cls-6" d="M99.51,351.53c.02,1.18.04,2.36.1,3.57.03.62.07,1.25.1,1.84.03.45.05.87.13,1.39.07.51.19,1.11-.18,1.35-.09.05-.2.09-.3.1-.6.05-.7-.92-.75-1.75-.11-1.83.03-2.92.12-4.24.05-.7.08-1.48.11-2.25-.03-.77-.06-1.55-.11-2.25-.09-1.33-.24-2.41-.12-4.24.05-.82.15-1.8.75-1.75.1,0,.21.04.3.1.37.24.25.84.18,1.35-.08.52-.1.95-.13,1.39-.03.59-.07,1.22-.1,1.84-.06,1.21-.08,2.39-.1,3.57Z"></path></g><polyline class="cls-6" points="226.79 441.16 226.79 487.42 274.39 487.42"></polyline><line class="cls-6" x1="85.34" y1="351.53" x2="120.74" y2="351.53"></line><polyline class="cls-6" points="403.44 358.75 420.58 208.84 400.41 208.84 400.41 203.85"></polyline><polyline class="cls-6" points="408.4 359.32 426.17 203.85 426.16 203.85 400.41 203.85 400.41 199.95"></polyline><line class="cls-6" x1="392.53" y1="498.14" x2="405.35" y2="386"></line><line class="cls-6" x1="391.18" y1="465.42" x2="400.33" y2="385.43"></line><polyline class="cls-6" points="198.97 55.84 172.52 50.65 146.07 45.67 119.48 40.99 92.95 36.45"></polyline><polyline class="cls-6" points="203.51 56.7 231.69 62.54 259.87 68.59 287.98 74.94 316.02 81.49 344.05 88.27 344.05 148.95"></polyline><polyline class="cls-6" points="348.52 149.89 348.52 84.81 319.84 77.75 291.08 70.97 262.25 64.49 233.35 58.29 204.45 52.3 175.4 46.61 146.36 41.13 117.31 36.02 93.66 32.05"></polyline><line class="cls-6" x1="73.35" y1="24.21" x2="73.35" y2="28.74"></line><polyline class="cls-6" points="432.12 203.01 458.57 203.01 493.82 106.43 465.06 97.93 436.3 89.64 407.4 81.64 378.5 73.93 349.46 66.43 349.46 78.54"></polyline><line class="cls-6" x1="398.39" y1="501.21" x2="493.82" y2="501.21"></line><polyline class="cls-6" points="398.39 505.68 493.82 505.68 493.82 496.67"></polyline><line class="cls-4" x1="400.41" y1="199.95" x2="400.41" y2="198"></line><polygon class="cls-4" points="73.35 24.21 90.5 26.94 119.84 31.91 149.24 37.1 178.5 42.58 207.76 48.34 236.95 54.4 266.07 60.74 295.12 67.3 324.09 74.14 353.06 81.28 353.06 149.89 348.52 149.89 354.86 149.89 354.86 79.84 325.82 72.7 296.7 65.85 267.58 59.22 238.32 52.88 209.06 46.83 179.73 40.99 150.32 35.51 120.92 30.25 91.44 25.28 73.35 22.37 73.35 24.21"></polygon><polygon class="cls-4" points="398.76 494.87 432.7 198 400.41 198 400.41 199.95 430.52 199.95 396.59 496.67 493.82 496.67 493.82 494.87 398.76 494.87"></polygon><rect class="cls-4" x="415.57" y="304.11" width="1.73" height="3.87" transform="translate(65.06 685.02) rotate(-83.48)"></rect><rect class="cls-4" x="421.69" y="250.58" width="1.73" height="3.87" transform="translate(123.67 643.65) rotate(-83.48)"></rect><rect class="cls-4" x="409.45" y="357.64" width="1.73" height="3.87" transform="translate(6.45 726.39) rotate(-83.48)"></rect><rect class="cls-4" x="406.39" y="384.4" width="1.73" height="3.87" transform="translate(-22.84 747.06) rotate(-83.48)"></rect><rect class="cls-4" x="403.35" y="411.06" width="1.73" height="3.87" transform="translate(-52.03 767.67) rotate(-83.48)"></rect><rect class="cls-4" x="397.24" y="464.47" width="1.73" height="3.87" transform="translate(-110.51 808.94) rotate(-83.48)"></rect><rect class="cls-4" x="394.07" y="492.21" width="1.73" height="3.87" transform="translate(-140.89 830.39) rotate(-83.48)"></rect><rect class="cls-4" x="398.68" y="198" width="1.72" height="5.85"></rect><rect class="cls-4" x="362.93" y="198" width="3.6" height="5.85"></rect><polyline class="cls-4" points="353.06 81.28 351.91 80.99 347.44 84.52 348.52 84.81 348.52 85.89 353.06 82.43 353.06 81.28"></polyline><polygon class="cls-4" points="95.26 27.73 94.53 32.19 92.73 31.89 93.53 27.44 95.26 27.73"></polygon><polyline class="cls-4" points="148.52 36.95 147.73 41.42 146 41.06 146.79 36.66 148.52 36.95"></polyline><polyline class="cls-4" points="201.64 47.12 200.7 51.58 198.97 51.22 199.84 46.76 201.64 47.12"></polyline><polyline class="cls-4" points="254.54 58.21 253.6 62.61 251.87 62.18 252.81 57.78 254.54 58.21"></polyline><polyline class="cls-4" points="307.22 70.11 306.21 74.5 304.48 74.07 305.49 69.75 307.22 70.11"></polyline><rect class="cls-4" x="348.52" y="148.09" width="4.54" height="1.8"></rect><rect class="cls-4" x="348.52" y="94.03" width="4.54" height="1.8"></rect><rect class="cls-4" x="403.27" y="496.67" width="1.8" height="4.54"></rect><rect class="cls-4" x="450.11" y="496.67" width="1.8" height="4.54"></rect><polygon class="cls-35" points="402.43 367.07 274.52 367.07 274.52 375.55 278.42 375.55 278.42 371.94 333.24 371.94 333.24 383.66 400.53 383.66 400.33 385.43 405.35 386 408.4 359.32 403.38 358.74 402.43 367.07"></polygon><polygon class="cls-7" points="402.43 367.07 274.52 367.07 274.52 375.55 278.42 375.55 278.42 371.94 333.24 371.94 333.24 383.66 400.53 383.66 400.33 385.43 405.35 386 408.4 359.32 403.38 358.74 402.43 367.07"></polygon><polygon class="cls-35" points="203.51 52.12 203.51 184.99 198.97 184.99 198.97 51.22 203.51 52.12"></polygon><polygon class="cls-7" points="203.51 52.12 203.51 184.99 198.97 184.99 198.97 51.22 203.51 52.12"></polygon><polygon class="cls-35" points="365.28 203.85 365.28 208.84 344.05 208.84 344.05 149.11 348.52 149.11 348.52 149.89 362.93 149.89 362.93 203.85 365.28 203.85"></polygon><polygon class="cls-7" points="365.28 203.85 365.28 208.84 344.05 208.84 344.05 149.11 348.52 149.11 348.52 149.89 362.93 149.89 362.93 203.85 365.28 203.85"></polygon><polygon class="cls-35" points="80.17 34.38 92.95 36.45 93.66 32.05 73.35 28.74 73.35 260.44 54.18 260.44 54.18 364.76 17.86 364.76 17.86 387.37 24.69 387.37 24.69 371.86 87.49 371.86 87.49 367.23 85.34 367.23 85.34 340.03 120.74 340.03 120.74 367.23 118.32 367.23 118.32 371.86 127.85 371.86 127.85 367.23 125.77 367.23 125.77 333.21 184.72 333.2 184.72 367.23 182.17 367.23 182.17 371.86 184.72 371.86 190.56 371.86 211.95 371.86 211.95 364.76 190.56 364.76 190.56 328.54 190.56 225.37 211.95 225.37 211.95 221.47 203.51 221.47 203.51 217.13 198.97 217.13 198.97 221.47 184.72 221.47 184.72 227.71 180.82 227.71 180.82 231.6 184.71 231.6 184.72 326.68 61 326.68 61 267.26 92.42 267.25 92.42 265.31 144.89 265.3 144.89 230.97 148.78 230.97 148.78 227.08 144.89 227.08 144.89 218.8 140.99 218.8 140.99 260.44 80.17 260.44 80.17 182.34 140.99 182.34 140.99 186.65 144.89 186.65 144.89 178.44 140.99 178.44 80.17 178.44 80.17 34.38"></polygon><polygon class="cls-7" points="80.17 34.38 92.95 36.45 93.66 32.05 73.35 28.74 73.35 260.44 54.18 260.44 54.18 364.76 17.86 364.76 17.86 387.37 24.69 387.37 24.69 371.86 87.49 371.86 87.49 367.23 85.34 367.23 85.34 340.03 120.74 340.03 120.74 367.23 118.32 367.23 118.32 371.86 127.85 371.86 127.85 367.23 125.77 367.23 125.77 333.21 184.72 333.2 184.72 367.23 182.17 367.23 182.17 371.86 184.72 371.86 190.56 371.86 211.95 371.86 211.95 364.76 190.56 364.76 190.56 328.54 190.56 225.37 211.95 225.37 211.95 221.47 203.51 221.47 203.51 217.13 198.97 217.13 198.97 221.47 184.72 221.47 184.72 227.71 180.82 227.71 180.82 231.6 184.71 231.6 184.72 326.68 61 326.68 61 267.26 92.42 267.25 92.42 265.31 144.89 265.3 144.89 230.97 148.78 230.97 148.78 227.08 144.89 227.08 144.89 218.8 140.99 218.8 140.99 260.44 80.17 260.44 80.17 182.34 140.99 182.34 140.99 186.65 144.89 186.65 144.89 178.44 140.99 178.44 80.17 178.44 80.17 34.38"></polygon><g class="cls-19"><polygon class="cls-35" points="392.53 498.14 396.2 466 391.18 465.42 387.44 498.14 278.42 498.14 278.42 476.77 274.52 476.77 274.52 498.14 215.25 498.14 215.25 441.03 274.52 441.03 274.52 444.63 278.42 444.63 278.42 407.69 274.52 407.69 274.52 437.14 215.25 437.14 215.25 415.44 176.48 415.44 176.48 419.33 180.28 419.33 180.28 430.09 210.72 430.09 210.72 489.51 180.28 489.51 180.28 498.5 104.41 498.5 104.41 419.33 144.34 419.33 144.34 415.44 98.07 415.44 98.07 432.77 93.77 432.77 93.77 436.22 98.07 436.22 98.07 498.5 15.82 498.5 15.82 436.22 28.74 436.22 28.74 432.77 24.68 432.77 24.68 424.42 17.86 424.42 17.86 429.66 9 429.66 9 505.68 398.39 505.68 398.39 498.14 392.53 498.14"></polygon><polygon class="cls-7" points="392.53 498.14 396.2 466 391.18 465.42 387.44 498.14 278.42 498.14 278.42 476.77 274.52 476.77 274.52 498.14 215.25 498.14 215.25 441.03 274.52 441.03 274.52 444.63 278.42 444.63 278.42 407.69 274.52 407.69 274.52 437.14 215.25 437.14 215.25 415.44 176.48 415.44 176.48 419.33 180.28 419.33 180.28 430.09 210.72 430.09 210.72 489.51 180.28 489.51 180.28 498.5 104.41 498.5 104.41 419.33 144.34 419.33 144.34 415.44 98.07 415.44 98.07 432.77 93.77 432.77 93.77 436.22 98.07 436.22 98.07 498.5 15.82 498.5 15.82 436.22 28.74 436.22 28.74 432.77 24.68 432.77 24.68 424.42 17.86 424.42 17.86 429.66 9 429.66 9 505.68 398.39 505.68 398.39 498.14 392.53 498.14"></polygon><path class="cls-17" d="M8.16,405.79c.07.01.11.06.11.11s-.05.1-.11.11c-2.58.44-3.86,2.13-3.86,4.7v2.99c0,.9-.79,1.55-2.07,1.72-.26.04-.48-.18-.35-.36.24-.36.36-.83.36-1.39v-2.71c0-2.3,1.31-4.07,3.89-4.82.29-.08.29-.39,0-.47-2.58-.75-3.89-2.51-3.89-4.82v-2.71c0-.56-.12-1.03-.36-1.39-.12-.18.09-.4.35-.36,1.28.17,2.07.82,2.07,1.72v2.99c0,2.56,1.28,4.26,3.86,4.7h0Z"></path><path class="cls-8" d="M8.16,405.79c.07.01.11.06.11.11s-.05.1-.11.11c-2.58.44-3.86,2.13-3.86,4.7v2.99c0,.9-.79,1.55-2.07,1.72-.26.04-.48-.18-.35-.36.24-.36.36-.83.36-1.39v-2.71c0-2.3,1.31-4.07,3.89-4.82.29-.08.29-.39,0-.47-2.58-.75-3.89-2.51-3.89-4.82v-2.71c0-.56-.12-1.03-.36-1.39-.12-.18.09-.4.35-.36,1.28.17,2.07.82,2.07,1.72v2.99c0,2.56,1.28,4.26,3.86,4.7h0Z"></path></g><g><path class="cls-35" d="M101.89,108.2h1.94c1.46,0,2.29.69,2.29,1.95s-.83,1.96-2.29,1.96h-1.33v3.07h-.62v-6.98ZM103.77,111.55c1.09,0,1.73-.47,1.73-1.4s-.62-1.39-1.73-1.39h-1.27v2.79h1.27Z"></path><path class="cls-35" d="M107.28,110.24h.6v.84c.33-.6,1.01-.91,1.56-.91.26,0,.51.06.77.19l-.3.54c-.17-.08-.39-.13-.59-.13-.53,0-1.12.28-1.34,1-.06.21-.09.44-.09.98v2.43h-.6v-4.93Z"></path><path class="cls-35" d="M111.17,108.2h.72v1.07h-.72v-1.07ZM111.24,110.24h.59v4.93h-.59v-4.93Z"></path><path class="cls-35" d="M113.4,110.24h.6v.85c.29-.65.86-.92,1.45-.92.7,0,1.21.31,1.46.97.31-.64.84-.97,1.54-.97,1.2,0,1.64.9,1.64,2.07v2.94h-.6v-2.8c0-1.03-.3-1.68-1.17-1.68-.79,0-1.27.6-1.27,1.74v2.75h-.6v-2.89c0-1.08-.4-1.59-1.16-1.59-.8,0-1.29.61-1.29,1.74v2.75h-.6v-4.93Z"></path><path class="cls-35" d="M124.8,114.25c-.33.63-.97,1-1.73,1-1.11,0-1.78-.6-1.78-1.5,0-.53.22-.89.56-1.11.35-.23.84-.32,1.36-.32h1.58v-.22c0-.92-.48-1.41-1.4-1.41-.61,0-1.08.23-1.52.79l-.43-.37c.52-.65,1.18-.94,1.99-.94,1.26,0,1.95.69,1.95,1.93v3.07h-.55l-.03-.93ZM123.13,114.75c.91,0,1.67-.72,1.67-1.69v-.28h-1.5c-.4,0-.79.06-1.06.25-.21.16-.34.39-.34.72,0,.61.46,1,1.23,1Z"></path><path class="cls-35" d="M126.89,110.24h.6v.84c.33-.6,1.01-.91,1.56-.91.26,0,.51.06.77.19l-.3.54c-.17-.08-.39-.13-.59-.13-.53,0-1.12.28-1.34,1-.06.21-.09.44-.09.98v2.43h-.6v-4.93Z"></path><path class="cls-35" d="M132.31,115.02l-1.96-4.78h.66l1.62,4.17,1.62-4.17h.66l-2.84,6.97h-.65l.9-2.19Z"></path><path class="cls-35" d="M138.67,108.2h2.09c1.29,0,2.06.65,2.06,1.73,0,.73-.35,1.29-.96,1.54.85.19,1.31.82,1.31,1.78,0,1.24-.79,1.93-2.22,1.93h-2.29v-6.98ZM140.95,111.28c.76,0,1.26-.49,1.26-1.27s-.53-1.24-1.45-1.24h-1.47v2.51h1.67ZM140.91,114.6c1.1,0,1.65-.46,1.65-1.38,0-.87-.51-1.38-1.38-1.38h-1.89v2.76h1.63Z"></path><path class="cls-35" d="M144.3,112.75c0-1.42.77-2.57,2.16-2.57,1.51,0,2.13,1.18,2.13,2.27,0,.08,0,.31-.03.43h-3.66c.03,1.16.65,1.84,1.65,1.84.63,0,1.04-.18,1.47-.64l.42.38c-.56.58-1.1.81-1.9.81-1.46,0-2.24-1.09-2.24-2.5ZM148.01,112.42c0-.06,0-.12,0-.19,0-.71-.45-1.55-1.54-1.55-.95,0-1.53.76-1.59,1.74h3.12Z"></path><path class="cls-35" d="M149.67,112.71c0-1.51.99-2.53,2.25-2.53.81,0,1.44.42,1.77,1.05v-3.02h.59v6.98h-.59v-.97c-.34.65-.97,1.04-1.77,1.04-1.32,0-2.25-1.1-2.25-2.54ZM152.01,114.69c1,0,1.72-.83,1.72-1.99s-.72-1.99-1.72-1.99-1.74.84-1.74,1.99.73,1.99,1.74,1.99Z"></path><path class="cls-35" d="M155.84,110.24h.6v.84c.33-.6,1.01-.91,1.56-.91.26,0,.51.06.77.19l-.3.54c-.17-.08-.39-.13-.59-.13-.53,0-1.12.28-1.34,1-.06.21-.09.44-.09.98v2.43h-.6v-4.93Z"></path><path class="cls-35" d="M159.21,112.71c0-1.48.97-2.53,2.35-2.53s2.34,1.05,2.34,2.53-.98,2.54-2.34,2.54-2.35-1.05-2.35-2.54ZM161.55,114.71c1.05,0,1.74-.8,1.74-2.01s-.69-2.01-1.74-2.01-1.75.81-1.75,2.01.7,2.01,1.75,2.01Z"></path><path class="cls-35" d="M165,112.71c0-1.48.97-2.53,2.35-2.53s2.34,1.05,2.34,2.53-.98,2.54-2.34,2.54-2.35-1.05-2.35-2.54ZM167.35,114.71c1.05,0,1.74-.8,1.74-2.01s-.69-2.01-1.74-2.01-1.75.81-1.75,2.01.7,2.01,1.75,2.01Z"></path><path class="cls-35" d="M171.03,110.24h.6v.85c.29-.65.86-.92,1.45-.92.7,0,1.21.31,1.46.97.31-.64.84-.97,1.54-.97,1.2,0,1.64.9,1.64,2.07v2.94h-.6v-2.8c0-1.03-.3-1.68-1.17-1.68-.79,0-1.27.6-1.27,1.74v2.75h-.6v-2.89c0-1.08-.4-1.59-1.16-1.59-.8,0-1.29.61-1.29,1.74v2.75h-.6v-4.93Z"></path></g><g><path class="cls-35" d="M249.79,138.14h.62v6.42h3.22v.56h-3.84v-6.98Z"></path><path class="cls-35" d="M254.5,138.14h.72v1.07h-.72v-1.07ZM254.57,140.18h.59v4.94h-.59v-4.94Z"></path><path class="cls-35" d="M256.24,140.18h.66l1.62,4.17,1.62-4.17h.66l-2.01,4.94h-.52l-2.02-4.94Z"></path><path class="cls-35" d="M261.82,138.14h.72v1.07h-.72v-1.07ZM261.88,140.18h.59v4.94h-.59v-4.94Z"></path><path class="cls-35" d="M264.04,140.18h.6v.81c.31-.59.87-.88,1.55-.88,1.06,0,1.7.63,1.7,1.93v3.07h-.6v-2.86c0-1.12-.42-1.63-1.24-1.63-.89,0-1.41.61-1.41,1.97v2.52h-.6v-4.94Z"></path><path class="cls-35" d="M269.01,145.7s0-.08.02-.2l.86-.68c-.44-.17-.74-.46-.74-.97,0-.41.21-.69.56-.93-.28-.29-.43-.67-.43-1.12,0-1,.8-1.7,1.84-1.7.5,0,.94.17,1.26.45l.79-.67.31.38-.77.68c.15.25.23.55.23.88,0,.99-.74,1.64-1.8,1.64-.41,0-.77-.1-1.06-.26-.24.14-.35.33-.35.55,0,.51.49.64,1.25.76,1.23.19,2.3.34,2.3,1.35,0,.9-.81,1.37-2.08,1.37-1.4,0-2.19-.54-2.19-1.54ZM271.21,146.77c.84,0,1.48-.26,1.48-.83,0-.67-.89-.74-1.78-.88-.24-.04-.47-.08-.69-.13l-.62.71c0,.07,0,.08,0,.12,0,.69.61,1.02,1.61,1.02ZM271.11,142.98c.75,0,1.22-.5,1.22-1.18s-.49-1.2-1.22-1.2-1.25.5-1.25,1.19.49,1.19,1.24,1.19Z"></path><path class="cls-35" d="M277.07,138.14h1.94c1.53,0,2.29.72,2.29,1.92,0,.97-.5,1.6-1.43,1.83l1.88,3.22h-.71l-1.8-3.13c-.16,0-.34,0-.5,0h-1.05v3.13h-.62v-6.98ZM278.95,141.44c1.06,0,1.73-.43,1.73-1.37s-.68-1.37-1.73-1.37h-1.26v2.74h1.26Z"></path><path class="cls-35" d="M282.46,142.65c0-1.48.97-2.53,2.35-2.53s2.34,1.05,2.34,2.53-.98,2.54-2.34,2.54-2.35-1.05-2.35-2.54ZM284.81,144.65c1.05,0,1.74-.8,1.74-2.01s-.69-2.01-1.74-2.01-1.75.81-1.75,2.01.7,2.01,1.75,2.01Z"></path><path class="cls-35" d="M288.26,142.65c0-1.48.97-2.53,2.35-2.53s2.34,1.05,2.34,2.53-.98,2.54-2.34,2.54-2.35-1.05-2.35-2.54ZM290.6,144.65c1.05,0,1.74-.8,1.74-2.01s-.69-2.01-1.74-2.01-1.75.81-1.75,2.01.7,2.01,1.75,2.01Z"></path><path class="cls-35" d="M294.29,140.18h.6v.85c.29-.65.86-.92,1.45-.92.7,0,1.21.31,1.46.97.31-.64.84-.97,1.54-.97,1.2,0,1.64.9,1.64,2.07v2.94h-.6v-2.8c0-1.03-.3-1.68-1.17-1.68-.79,0-1.27.6-1.27,1.74v2.75h-.6v-2.89c0-1.08-.4-1.59-1.16-1.59-.8,0-1.29.61-1.29,1.74v2.75h-.6v-4.94Z"></path></g><g><path class="cls-35" d="M325.67,274.84h1.87c2.26,0,3.56,1.29,3.56,3.54s-1.27,3.43-3.57,3.43h-1.86v-6.98ZM327.48,281.24c1.92,0,2.99-.89,2.99-2.88s-1.08-2.95-2.94-2.95h-1.24v5.83h1.19Z"></path><path class="cls-35" d="M332.33,274.84h.72v1.07h-.72v-1.07ZM332.4,276.88h.59v4.93h-.59v-4.93Z"></path><path class="cls-35" d="M334.56,276.88h.6v.81c.31-.59.87-.88,1.55-.88,1.06,0,1.7.63,1.7,1.93v3.07h-.6v-2.86c0-1.12-.42-1.63-1.24-1.63-.89,0-1.41.61-1.41,1.97v2.52h-.6v-4.93Z"></path><path class="cls-35" d="M339.85,274.84h.72v1.07h-.72v-1.07ZM339.91,276.88h.59v4.93h-.59v-4.93Z"></path><path class="cls-35" d="M342.07,276.88h.6v.81c.31-.59.87-.88,1.55-.88,1.06,0,1.7.63,1.7,1.93v3.07h-.6v-2.86c0-1.12-.42-1.63-1.24-1.63-.89,0-1.41.61-1.41,1.97v2.52h-.6v-4.93Z"></path><path class="cls-35" d="M347.04,282.4s0-.08.02-.2l.86-.68c-.44-.17-.74-.46-.74-.97,0-.41.21-.69.56-.93-.28-.29-.43-.67-.43-1.12,0-1,.8-1.7,1.84-1.7.5,0,.94.17,1.26.45l.79-.67.31.38-.77.68c.15.25.23.55.23.88,0,.99-.74,1.64-1.8,1.64-.41,0-.77-.09-1.06-.26-.24.13-.35.33-.35.55,0,.51.49.64,1.25.76,1.23.19,2.3.34,2.3,1.35,0,.9-.81,1.37-2.08,1.37-1.4,0-2.19-.54-2.19-1.54ZM349.24,283.47c.84,0,1.48-.26,1.48-.83,0-.67-.89-.74-1.78-.88-.24-.04-.47-.08-.69-.13l-.62.71c0,.07,0,.08,0,.12,0,.69.61,1.02,1.61,1.02ZM349.14,279.68c.75,0,1.22-.5,1.22-1.18s-.49-1.2-1.22-1.2-1.25.5-1.25,1.19.49,1.19,1.24,1.19Z"></path><path class="cls-35" d="M355.1,274.84h1.94c1.53,0,2.29.72,2.29,1.92,0,.97-.5,1.6-1.43,1.83l1.88,3.22h-.71l-1.8-3.13c-.16,0-.34,0-.5,0h-1.05v3.13h-.62v-6.98ZM356.98,278.14c1.06,0,1.73-.43,1.73-1.37s-.68-1.37-1.73-1.37h-1.26v2.74h1.26Z"></path><path class="cls-35" d="M360.49,279.35c0-1.48.97-2.53,2.35-2.53s2.34,1.05,2.34,2.53-.98,2.54-2.34,2.54-2.35-1.05-2.35-2.54ZM362.84,281.35c1.05,0,1.74-.8,1.74-2.01s-.69-2.01-1.74-2.01-1.75.81-1.75,2.01.7,2.01,1.75,2.01Z"></path><path class="cls-35" d="M366.29,279.35c0-1.48.97-2.53,2.35-2.53s2.34,1.05,2.34,2.53-.98,2.54-2.34,2.54-2.35-1.05-2.35-2.54ZM368.63,281.35c1.05,0,1.74-.8,1.74-2.01s-.69-2.01-1.74-2.01-1.75.81-1.75,2.01.7,2.01,1.75,2.01Z"></path><path class="cls-35" d="M372.32,276.88h.6v.85c.29-.65.86-.92,1.45-.92.7,0,1.21.31,1.46.97.31-.64.84-.97,1.54-.97,1.2,0,1.64.9,1.64,2.07v2.94h-.6v-2.8c0-1.03-.3-1.68-1.17-1.68-.79,0-1.27.6-1.27,1.74v2.75h-.6v-2.89c0-1.08-.4-1.59-1.16-1.59-.8,0-1.29.61-1.29,1.74v2.75h-.6v-4.93Z"></path></g><g><path class="cls-35" d="M316.23,437h2.09c1.29,0,2.06.65,2.06,1.73,0,.73-.35,1.29-.96,1.54.85.2,1.31.82,1.31,1.78,0,1.24-.79,1.93-2.22,1.93h-2.29v-6.98ZM318.52,440.08c.75,0,1.26-.49,1.26-1.27s-.53-1.24-1.45-1.24h-1.47v2.51h1.67ZM318.48,443.4c1.1,0,1.65-.46,1.65-1.38,0-.87-.51-1.38-1.38-1.38h-1.89v2.76h1.63Z"></path><path class="cls-35" d="M321.86,441.55c0-1.42.77-2.57,2.16-2.57,1.51,0,2.13,1.18,2.13,2.27,0,.08,0,.3-.03.42h-3.66c.03,1.16.65,1.84,1.65,1.84.63,0,1.04-.18,1.47-.64l.42.38c-.56.58-1.1.81-1.9.81-1.46,0-2.24-1.09-2.24-2.5ZM325.57,441.22c0-.06,0-.12,0-.19,0-.71-.45-1.55-1.54-1.55-.95,0-1.53.76-1.59,1.74h3.12Z"></path><path class="cls-35" d="M327.22,441.51c0-1.51.99-2.53,2.25-2.53.81,0,1.44.42,1.77,1.05v-3.02h.59v6.98h-.59v-.97c-.34.65-.97,1.04-1.77,1.04-1.32,0-2.25-1.1-2.25-2.54ZM329.56,443.49c1,0,1.72-.83,1.72-1.99s-.72-1.99-1.72-1.99-1.74.83-1.74,1.99.73,1.99,1.74,1.99Z"></path><path class="cls-35" d="M333.38,439.04h.6v.84c.33-.6,1.01-.91,1.56-.91.26,0,.51.05.77.19l-.3.54c-.17-.08-.39-.13-.59-.13-.53,0-1.12.28-1.34,1-.06.21-.09.44-.09.98v2.43h-.6v-4.93Z"></path><path class="cls-35" d="M336.75,441.51c0-1.48.97-2.53,2.35-2.53s2.34,1.05,2.34,2.53-.98,2.54-2.34,2.54-2.35-1.05-2.35-2.54ZM339.1,443.51c1.05,0,1.74-.8,1.74-2.01s-.69-2.01-1.74-2.01-1.75.81-1.75,2.01.7,2.01,1.75,2.01Z"></path><path class="cls-35" d="M342.55,441.51c0-1.48.97-2.53,2.35-2.53s2.34,1.05,2.34,2.53-.98,2.54-2.34,2.54-2.35-1.05-2.35-2.54ZM344.89,443.51c1.05,0,1.74-.8,1.74-2.01s-.69-2.01-1.74-2.01-1.75.81-1.75,2.01.7,2.01,1.75,2.01Z"></path><path class="cls-35" d="M348.58,439.04h.6v.85c.29-.65.86-.92,1.45-.92.7,0,1.21.31,1.46.97.31-.64.84-.97,1.54-.97,1.2,0,1.64.9,1.64,2.07v2.94h-.6v-2.8c0-1.03-.3-1.68-1.17-1.68-.79,0-1.27.6-1.27,1.74v2.75h-.6v-2.89c0-1.08-.4-1.59-1.16-1.59-.8,0-1.29.61-1.29,1.74v2.75h-.6v-4.93Z"></path></g><g><path class="cls-35" d="M405.38,138.14h1.87c2.26,0,3.56,1.29,3.56,3.54s-1.27,3.43-3.57,3.43h-1.86v-6.98ZM407.19,144.54c1.92,0,2.99-.89,2.99-2.88s-1.08-2.95-2.94-2.95h-1.24v5.83h1.19Z"></path><path class="cls-35" d="M411.92,142.69c0-1.42.77-2.57,2.16-2.57,1.51,0,2.13,1.18,2.13,2.27,0,.08,0,.31-.03.43h-3.66c.03,1.16.65,1.84,1.65,1.84.63,0,1.04-.18,1.47-.64l.42.38c-.56.58-1.1.81-1.9.81-1.46,0-2.24-1.09-2.24-2.5ZM415.63,142.36c0-.06,0-.12,0-.19,0-.71-.45-1.55-1.54-1.55-.95,0-1.53.76-1.59,1.74h3.12Z"></path><path class="cls-35" d="M417.29,142.65c0-1.41.82-2.53,2.2-2.53.9,0,1.61.45,1.93,1.34l-.54.21c-.21-.63-.69-1.03-1.39-1.03-1.09,0-1.61.96-1.61,2.01s.52,2.02,1.61,2.02c.7,0,1.18-.39,1.39-1.03l.54.21c-.33.89-1.03,1.35-1.93,1.35-1.39,0-2.2-1.12-2.2-2.54Z"></path><path class="cls-35" d="M424.27,142.4l-1,1.06v1.66h-.6v-6.98h.6v4.54l2.42-2.5h.78l-1.76,1.81,2.05,3.13h-.71l-1.78-2.72Z"></path></g><g><path class="cls-35" d="M234.99,341.92h.62v3.74l3.58-3.74h.84l-2.66,2.73,2.68,4.25h-.73l-2.4-3.79-1.32,1.35v2.44h-.62v-6.98Z"></path><path class="cls-35" d="M240.94,341.92h.72v1.07h-.72v-1.07ZM241,343.96h.59v4.93h-.59v-4.93Z"></path><path class="cls-35" d="M243.75,347.76v-3.32h-1.1v-.48h1.1v-1.43l.61-.36v1.78h1.19v.48h-1.19v3.17c0,.54.17.86.62.86.14,0,.35-.03.57-.09v.48c-.25.08-.5.12-.71.12-.66,0-1.08-.38-1.08-1.21Z"></path><path class="cls-35" d="M246.33,346.43c0-1.41.82-2.53,2.2-2.53.9,0,1.61.45,1.93,1.34l-.54.21c-.21-.63-.69-1.03-1.39-1.03-1.09,0-1.61.96-1.61,2.01s.52,2.02,1.61,2.02c.7,0,1.18-.39,1.39-1.03l.54.21c-.33.89-1.03,1.35-1.93,1.35-1.39,0-2.2-1.12-2.2-2.54Z"></path><path class="cls-35" d="M251.71,341.92h.6v2.84c.3-.58.85-.87,1.55-.87,1.08,0,1.7.66,1.7,1.93v3.07h-.6v-2.86c0-1.1-.41-1.63-1.24-1.63-.91,0-1.41.64-1.41,1.97v2.52h-.6v-6.98Z"></path><path class="cls-35" d="M256.81,346.47c0-1.42.77-2.57,2.16-2.57,1.51,0,2.13,1.18,2.13,2.27,0,.08,0,.3-.03.42h-3.66c.03,1.16.65,1.84,1.65,1.84.63,0,1.04-.18,1.47-.64l.42.38c-.56.58-1.1.81-1.9.81-1.46,0-2.24-1.09-2.24-2.5ZM260.52,346.14c0-.06,0-.12,0-.19,0-.71-.45-1.55-1.54-1.55-.95,0-1.53.76-1.59,1.74h3.12Z"></path><path class="cls-35" d="M262.43,343.96h.6v.81c.31-.59.87-.88,1.55-.88,1.06,0,1.7.63,1.7,1.93v3.07h-.6v-2.86c0-1.12-.42-1.63-1.24-1.63-.89,0-1.41.61-1.41,1.97v2.52h-.6v-4.93Z"></path></g><g><path class="cls-35" d="M49.47,463.07h4.51v.56h-3.89v2.59h3.38v.56h-3.38v3.26h-.62v-6.98Z"></path><path class="cls-35" d="M54.99,469.02v-5.95h.6v5.84c0,.46.18.65.49.65.13,0,.29-.03.47-.09v.52c-.22.08-.47.13-.65.13-.56,0-.91-.34-.91-1.1Z"></path><path class="cls-35" d="M57.28,467.62c0-1.42.77-2.57,2.16-2.57,1.51,0,2.13,1.18,2.13,2.27,0,.08-.01.3-.03.42h-3.66c.03,1.16.65,1.84,1.65,1.84.63,0,1.04-.18,1.47-.64l.42.38c-.56.58-1.1.81-1.9.81-1.46,0-2.24-1.09-2.24-2.5ZM60.99,467.29c0-.06,0-.12,0-.19,0-.71-.45-1.55-1.54-1.55-.95,0-1.53.76-1.59,1.74h3.12Z"></path><path class="cls-35" d="M64.17,467.57l-1.82-2.46h.74l1.48,2.04,1.5-2.04h.72l-1.83,2.46,1.84,2.48h-.74l-1.49-2.06-1.49,2.06h-.73l1.82-2.48Z"></path></g><g><path class="cls-35" d="M68.84,391.32h4.51v.56h-3.89v2.59h3.38v.56h-3.38v3.26h-.62v-6.98Z"></path><path class="cls-35" d="M73.91,395.83c0-1.48.97-2.53,2.35-2.53s2.34,1.05,2.34,2.53-.98,2.54-2.34,2.54-2.35-1.05-2.35-2.54ZM76.26,397.83c1.05,0,1.74-.8,1.74-2.01s-.69-2.01-1.74-2.01-1.75.81-1.75,2.01.7,2.01,1.75,2.01Z"></path><path class="cls-35" d="M81.27,398.14l-1.96-4.78h.66l1.62,4.17,1.62-4.17h.66l-2.84,6.97h-.65l.9-2.19Z"></path><path class="cls-35" d="M84.6,395.87c0-1.42.77-2.57,2.16-2.57,1.51,0,2.13,1.18,2.13,2.27,0,.08,0,.3-.03.42h-3.66c.03,1.16.65,1.84,1.65,1.84.63,0,1.04-.18,1.47-.64l.42.38c-.56.58-1.1.81-1.9.81-1.46,0-2.24-1.09-2.24-2.5ZM88.31,395.54c0-.06,0-.12,0-.19,0-.71-.45-1.55-1.54-1.55-.95,0-1.53.76-1.59,1.74h3.12Z"></path><path class="cls-35" d="M90.21,393.36h.6v.84c.33-.6,1.01-.91,1.56-.91.26,0,.51.05.77.19l-.3.54c-.17-.08-.39-.13-.59-.13-.53,0-1.12.28-1.34,1-.06.21-.09.44-.09.98v2.43h-.6v-4.93Z"></path></g><g><path class="cls-35" d="M101.84,218.7h.65l1.71,6.06,1.76-5.7h.63l1.76,5.7,1.7-6.06h.65l-2.01,6.98h-.63l-1.79-5.71-1.79,5.71h-.64l-2.01-6.98Z"></path><path class="cls-35" d="M111.84,218.7h.62v6.98h-.62v-6.98Z"></path><path class="cls-35" d="M113.89,222.19c0-2.16,1.26-3.58,3.16-3.58,1.35,0,2.39.71,2.84,1.89l-.58.22c-.38-.96-1.17-1.52-2.26-1.52-1.55,0-2.54,1.17-2.54,2.99s.99,3,2.54,3c1.09,0,1.89-.56,2.26-1.52l.58.22c-.45,1.18-1.49,1.9-2.84,1.9-1.89,0-3.16-1.42-3.16-3.59Z"></path></g><g><path class="cls-35" d="M242,461.12h.65l1.71,6.06,1.76-5.7h.63l1.76,5.7,1.7-6.06h.65l-2.01,6.98h-.63l-1.79-5.71-1.79,5.71h-.64l-2.01-6.98Z"></path><path class="cls-35" d="M252,461.12h.62v6.98h-.62v-6.98Z"></path><path class="cls-35" d="M254.05,464.6c0-2.16,1.26-3.58,3.16-3.58,1.35,0,2.39.71,2.84,1.89l-.58.22c-.38-.96-1.17-1.52-2.26-1.52-1.55,0-2.54,1.17-2.54,2.99s.99,3,2.54,3c1.09,0,1.89-.56,2.26-1.52l.58.21c-.45,1.18-1.49,1.9-2.84,1.9-1.89,0-3.16-1.42-3.16-3.59Z"></path></g><path class="cls-35" d="M138.01,347.36h.65l1.71,6.06,1.76-5.7h.63l1.76,5.7,1.7-6.06h.65l-2.01,6.98h-.63l-1.79-5.71-1.79,5.71h-.64l-2.01-6.98Z"></path><path class="cls-35" d="M165.21,347.36h1.87c2.26,0,3.56,1.29,3.56,3.54s-1.27,3.43-3.57,3.43h-1.86v-6.98ZM167.02,353.76c1.92,0,2.99-.89,2.99-2.88s-1.08-2.95-2.94-2.95h-1.24v5.83h1.19Z"></path><g><path class="cls-35" d="M193.73,344.82h1.94c1.53,0,2.29.72,2.29,1.92,0,.97-.5,1.6-1.43,1.83l1.88,3.22h-.71l-1.8-3.13c-.16,0-.34,0-.5,0h-1.05v3.13h-.62v-6.98ZM195.61,348.12c1.06,0,1.73-.43,1.73-1.37s-.68-1.37-1.73-1.37h-1.26v2.74h1.26Z"></path><path class="cls-35" d="M199.59,344.82h4.56v.56h-3.94v2.59h3.53v.56h-3.53v2.7h3.94v.56h-4.56v-6.98Z"></path><path class="cls-35" d="M205.44,344.82h4.51v.56h-3.89v2.59h3.38v.56h-3.38v3.26h-.62v-6.98Z"></path></g><g><path class="cls-35" d="M256.36,240.99h.65l1.71,6.06,1.76-5.7h.63l1.76,5.7,1.7-6.06h.65l-2.01,6.98h-.63l-1.79-5.71-1.79,5.71h-.64l-2.01-6.98Z"></path><path class="cls-35" d="M266.36,240.99h4.51v.56h-3.89v2.59h3.38v.56h-3.38v3.26h-.62v-6.98Z"></path></g><g><path class="cls-35" d="M256.43,305.55h1.87c2.26,0,3.56,1.29,3.56,3.54s-1.27,3.43-3.57,3.43h-1.86v-6.98ZM258.24,311.95c1.92,0,2.99-.89,2.99-2.88s-1.08-2.95-2.94-2.95h-1.24v5.83h1.19Z"></path><path class="cls-35" d="M262.52,305.55h.65l1.71,6.06,1.76-5.7h.63l1.76,5.7,1.7-6.06h.65l-2.01,6.98h-.63l-1.79-5.71-1.79,5.71h-.64l-2.01-6.98Z"></path></g><path class="cls-35" d="M243.28,422.72h1.94c1.46,0,2.29.69,2.29,1.95s-.83,1.96-2.29,1.96h-1.33v3.07h-.62v-6.98ZM245.16,426.07c1.09,0,1.73-.47,1.73-1.4s-.62-1.39-1.73-1.39h-1.27v2.79h1.27Z"></path><path class="cls-35" d="M191.39,239.53c0-2.17,1.27-3.59,3.16-3.59s3.18,1.42,3.18,3.59-1.27,3.58-3.18,3.58-3.16-1.42-3.16-3.58ZM194.54,242.52c1.57,0,2.55-1.16,2.55-2.99s-.99-3-2.55-3-2.54,1.15-2.54,3,.99,2.99,2.54,2.99Z"></path><path class="cls-35" d="M201.42,235.26h.48l-3.55,9.08h-.48l3.55-9.08Z"></path><path class="cls-35" d="M203.12,236.04h.93l2.35,5.66,2.35-5.66h.92v6.98h-.62v-6.16l-2.35,5.59h-.61l-2.36-5.59v6.16h-.62v-6.98Z"></path><polyline class="cls-16" points="176.35 1.94 165.31 1.94 160.31 14.15"></polyline><path class="cls-34" d="M158.78,17.88l4.05-4.46s-2.53.73-3.82-1.56l-.24,6.02Z"></path><g><path class="cls-36" d="M181.52,0h1.67c1.03,0,1.65.52,1.65,1.38,0,.58-.28,1.03-.76,1.23.68.16,1.04.66,1.04,1.42,0,.99-.63,1.54-1.77,1.54h-1.83V0ZM183.35,2.46c.6,0,1-.39,1-1.01s-.42-.99-1.16-.99h-1.17v2h1.33ZM183.32,5.11c.88,0,1.32-.37,1.32-1.1,0-.7-.41-1.1-1.1-1.1h-1.51v2.2h1.3Z"></path><path class="cls-36" d="M186.19,4.08V1.63h.47v2.28c0,.89.34,1.3,1,1.3.71,0,1.13-.48,1.13-1.57V1.63h.48v3.94h-.48v-.65c-.25.47-.7.7-1.25.7-.84,0-1.35-.51-1.35-1.55Z"></path><path class="cls-36" d="M190.54,0h.58v.86h-.58v-.86ZM190.59,1.63h.47v3.94h-.47V1.63Z"></path><path class="cls-36" d="M192.4,4.75V0h.48v4.67c0,.37.14.52.39.52.1,0,.24-.02.38-.07v.41c-.18.07-.37.1-.52.1-.44,0-.72-.27-.72-.88Z"></path><path class="cls-36" d="M194.26,3.6c0-1.21.79-2.02,1.8-2.02.64,0,1.15.33,1.41.84V0h.47v5.57h-.47v-.78c-.27.52-.77.83-1.41.83-1.06,0-1.8-.88-1.8-2.03ZM196.14,5.19c.8,0,1.37-.66,1.37-1.59s-.57-1.59-1.37-1.59-1.39.67-1.39,1.59.58,1.59,1.39,1.59Z"></path><path class="cls-36" d="M199.22,0h.58v.86h-.58v-.86ZM199.28,1.63h.47v3.94h-.47V1.63Z"></path><path class="cls-36" d="M201.08,1.63h.48v.64c.25-.47.69-.7,1.24-.7.85,0,1.36.5,1.36,1.54v2.45h-.48v-2.28c0-.89-.34-1.3-.99-1.3-.71,0-1.13.48-1.13,1.57v2.01h-.48V1.63Z"></path><path class="cls-36" d="M205.13,6.04s0-.06.02-.16l.68-.54c-.35-.14-.59-.36-.59-.78,0-.32.16-.55.44-.74-.22-.23-.34-.54-.34-.89,0-.8.64-1.36,1.47-1.36.4,0,.75.13,1.01.36l.63-.53.24.3-.62.54c.12.2.18.44.18.7,0,.79-.59,1.31-1.44,1.31-.32,0-.61-.08-.84-.21-.19.11-.28.26-.28.44,0,.41.39.51,1,.6.98.15,1.84.27,1.84,1.08,0,.72-.64,1.1-1.66,1.1-1.12,0-1.75-.43-1.75-1.23ZM206.89,6.9c.67,0,1.18-.21,1.18-.66,0-.53-.71-.59-1.42-.7-.19-.03-.37-.06-.55-.1l-.49.56c0,.06,0,.07,0,.09,0,.55.49.82,1.29.82ZM206.81,3.87c.6,0,.98-.4.98-.94s-.39-.96-.97-.96-1,.4-1,.95.39.95.99.95Z"></path><path class="cls-36" d="M213.3,0h.42l2.05,5.57h-.54l-.51-1.45h-2.42l-.51,1.45h-.55l2.05-5.57ZM214.57,3.68l-1.05-2.99-1.06,2.99h2.11Z"></path><path class="cls-36" d="M217.09,4.8v.78h-.47V0h.47v2.41c.26-.5.77-.84,1.41-.84,1,0,1.79.82,1.79,2.02s-.74,2.03-1.79,2.03c-.64,0-1.14-.31-1.41-.83ZM218.43,5.19c.81,0,1.39-.67,1.39-1.59s-.58-1.59-1.39-1.59-1.37.66-1.37,1.59.57,1.59,1.37,1.59Z"></path><path class="cls-36" d="M221.25,3.6c0-1.18.77-2.02,1.88-2.02s1.87.84,1.87,2.02-.78,2.03-1.87,2.03-1.88-.84-1.88-2.03ZM223.12,5.2c.84,0,1.39-.64,1.39-1.6s-.55-1.6-1.39-1.6-1.4.64-1.4,1.6.56,1.6,1.4,1.6Z"></path><path class="cls-36" d="M225.65,1.63h.53l1.29,3.33,1.3-3.33h.52l-1.61,3.94h-.42l-1.61-3.94Z"></path><path class="cls-36" d="M229.97,3.63c0-1.13.61-2.06,1.73-2.06,1.21,0,1.7.94,1.7,1.81,0,.06,0,.24-.02.34h-2.93c.02.93.52,1.47,1.32,1.47.5,0,.83-.14,1.17-.51l.34.3c-.45.46-.88.65-1.51.65-1.16,0-1.79-.87-1.79-2ZM232.93,3.37s0-.1,0-.15c0-.57-.36-1.24-1.23-1.24-.75,0-1.22.6-1.27,1.39h2.49Z"></path></g><g><path class="cls-36" d="M274.52,11.81h.5v5.12h2.57v.45h-3.07v-5.57Z"></path><path class="cls-36" d="M281.05,16.64c-.26.5-.77.8-1.38.8-.88,0-1.42-.48-1.42-1.2,0-.42.18-.71.44-.89.28-.19.67-.26,1.09-.26h1.26v-.17c0-.73-.38-1.13-1.12-1.13-.48,0-.86.18-1.22.63l-.34-.3c.42-.52.94-.75,1.59-.75,1,0,1.56.55,1.56,1.54v2.45h-.44l-.02-.74ZM279.71,17.04c.72,0,1.33-.57,1.33-1.35v-.22h-1.2c-.32,0-.63.05-.84.2-.17.13-.27.31-.27.58,0,.49.37.8.98.8Z"></path><path class="cls-36" d="M282.8,13.44h.48v.64c.25-.47.69-.7,1.24-.7.85,0,1.36.5,1.36,1.54v2.45h-.48v-2.28c0-.89-.34-1.3-.99-1.3-.71,0-1.13.48-1.13,1.57v2.01h-.48v-3.94Z"></path><path class="cls-36" d="M286.94,15.41c0-1.21.79-2.02,1.79-2.02.64,0,1.15.33,1.41.84v-2.41h.47v5.57h-.47v-.78c-.27.52-.77.83-1.41.83-1.05,0-1.79-.88-1.79-2.03ZM288.81,16.99c.8,0,1.37-.66,1.37-1.59s-.57-1.59-1.37-1.59-1.39.67-1.39,1.59.58,1.59,1.39,1.59Z"></path><path class="cls-36" d="M291.54,16.54l.34-.28c.2.46.66.77,1.26.77.57,0,.95-.27.95-.72,0-.55-.53-.68-1.1-.82-.66-.16-1.23-.38-1.23-1.06,0-.62.53-1.05,1.29-1.05.6,0,1.1.26,1.37.76l-.37.21c-.21-.38-.57-.58-1.01-.58-.48,0-.84.24-.84.62,0,.4.36.54.93.68.67.16,1.43.34,1.43,1.2,0,.71-.56,1.17-1.42,1.17-.79,0-1.35-.4-1.6-.9Z"></path><path class="cls-36" d="M295.48,15.41c0-1.13.65-2.02,1.76-2.02.72,0,1.28.36,1.54,1.07l-.43.17c-.17-.5-.55-.82-1.11-.82-.87,0-1.29.77-1.29,1.61s.42,1.61,1.29,1.61c.56,0,.94-.31,1.11-.82l.43.16c-.26.71-.82,1.08-1.54,1.08-1.11,0-1.76-.9-1.76-2.03Z"></path><path class="cls-36" d="M302.44,16.64c-.26.5-.77.8-1.38.8-.88,0-1.42-.48-1.42-1.2,0-.42.18-.71.44-.89.28-.19.67-.26,1.09-.26h1.26v-.17c0-.73-.38-1.13-1.12-1.13-.48,0-.86.18-1.22.63l-.34-.3c.42-.52.94-.75,1.59-.75,1,0,1.56.55,1.56,1.54v2.45h-.44l-.02-.74ZM301.1,17.04c.72,0,1.33-.57,1.33-1.35v-.22h-1.2c-.32,0-.63.05-.84.2-.17.13-.27.31-.27.58,0,.49.37.8.98.8Z"></path><path class="cls-36" d="M307.87,15.41c0,1.21-.79,2.02-1.79,2.02-.64,0-1.15-.33-1.41-.84v2.41h-.47v-5.57h.47v.78c.27-.52.77-.83,1.41-.83,1.06,0,1.79.88,1.79,2.03ZM306,17c.81,0,1.39-.67,1.39-1.59s-.58-1.59-1.39-1.59-1.37.66-1.37,1.59.57,1.59,1.37,1.59Z"></path><path class="cls-36" d="M308.85,15.44c0-1.13.61-2.05,1.73-2.05,1.21,0,1.7.94,1.7,1.81,0,.06,0,.24-.02.34h-2.93c.02.93.52,1.47,1.32,1.47.5,0,.83-.14,1.17-.51l.34.3c-.45.46-.88.65-1.51.65-1.16,0-1.79-.87-1.79-2ZM311.81,15.17s0-.1,0-.15c0-.57-.36-1.24-1.23-1.24-.75,0-1.22.6-1.27,1.39h2.49Z"></path><path class="cls-36" d="M313.2,15.41c0-1.21.79-2.02,1.79-2.02.64,0,1.15.33,1.41.84v-2.41h.47v5.57h-.47v-.78c-.27.52-.77.83-1.41.83-1.05,0-1.79-.88-1.79-2.03ZM315.08,16.99c.8,0,1.37-.66,1.37-1.59s-.57-1.59-1.37-1.59-1.39.67-1.39,1.59.58,1.59,1.39,1.59Z"></path><path class="cls-36" d="M320.43,11.81h1.55c1.22,0,1.83.57,1.83,1.54,0,.77-.4,1.27-1.14,1.46l1.5,2.57h-.57l-1.44-2.5c-.13,0-.27,0-.4,0h-.84v2.5h-.5v-5.57ZM321.94,14.44c.85,0,1.38-.34,1.38-1.1s-.54-1.09-1.38-1.09h-1.01v2.19h1.01Z"></path><path class="cls-36" d="M324.82,15.41c0-1.18.77-2.02,1.88-2.02s1.87.84,1.87,2.02-.78,2.03-1.87,2.03-1.88-.84-1.88-2.03ZM326.7,17.01c.84,0,1.39-.64,1.39-1.6s-.55-1.6-1.39-1.6-1.4.64-1.4,1.6.56,1.6,1.4,1.6Z"></path><path class="cls-36" d="M329.53,15.41c0-1.18.77-2.02,1.88-2.02s1.87.84,1.87,2.02-.78,2.03-1.87,2.03-1.88-.84-1.88-2.03ZM331.41,17.01c.84,0,1.39-.64,1.39-1.6s-.55-1.6-1.39-1.6-1.4.64-1.4,1.6.56,1.6,1.4,1.6Z"></path><path class="cls-36" d="M334.76,13.82h-.88v-.38h.88v-.57c0-.82.43-1.12,1.03-1.12.26,0,.47.05.66.15l-.16.36c-.14-.07-.28-.11-.45-.11-.4,0-.6.25-.6.71v.57h.97v.38h-.97v3.56h-.48v-3.56Z"></path></g><g><path class="cls-36" d="M445.04,345.77h.5v5.12h2.57v.45h-3.07v-5.57Z"></path><path class="cls-36" d="M451.57,350.6c-.26.5-.77.79-1.38.79-.88,0-1.42-.48-1.42-1.2,0-.42.18-.71.44-.89.28-.19.67-.26,1.09-.26h1.26v-.17c0-.73-.38-1.13-1.12-1.13-.48,0-.86.18-1.22.63l-.34-.3c.42-.52.94-.75,1.59-.75,1,0,1.56.55,1.56,1.54v2.46h-.44l-.02-.74ZM450.23,351c.72,0,1.33-.57,1.33-1.35v-.22h-1.2c-.32,0-.63.05-.84.2-.17.13-.27.31-.27.58,0,.49.37.8.98.8Z"></path><path class="cls-36" d="M453.32,347.4h.48v.64c.25-.47.69-.7,1.24-.7.85,0,1.36.5,1.36,1.54v2.46h-.48v-2.28c0-.89-.34-1.3-.99-1.3-.71,0-1.13.48-1.13,1.57v2.01h-.48v-3.94Z"></path><path class="cls-36" d="M457.46,349.37c0-1.21.79-2.02,1.8-2.02.64,0,1.15.33,1.41.84v-2.41h.47v5.57h-.47v-.78c-.27.52-.77.83-1.41.83-1.06,0-1.8-.88-1.8-2.03ZM459.33,350.95c.8,0,1.37-.66,1.37-1.59s-.57-1.59-1.37-1.59-1.39.67-1.39,1.59.58,1.59,1.39,1.59Z"></path><path class="cls-36" d="M462.06,350.5l.34-.28c.2.46.66.77,1.26.77.57,0,.95-.27.95-.72,0-.55-.53-.68-1.1-.82-.66-.16-1.23-.38-1.23-1.06,0-.62.53-1.05,1.29-1.05.6,0,1.1.26,1.37.76l-.37.21c-.21-.38-.57-.58-1.01-.58-.48,0-.84.24-.84.62,0,.4.36.54.93.68.67.16,1.43.34,1.43,1.2,0,.71-.56,1.17-1.42,1.17-.79,0-1.35-.4-1.6-.9Z"></path><path class="cls-36" d="M466,349.37c0-1.13.65-2.02,1.76-2.02.72,0,1.28.36,1.54,1.07l-.43.17c-.17-.5-.55-.82-1.11-.82-.87,0-1.29.77-1.29,1.61s.42,1.61,1.29,1.61c.56,0,.94-.31,1.11-.82l.43.16c-.26.71-.82,1.08-1.54,1.08-1.11,0-1.76-.9-1.76-2.03Z"></path><path class="cls-36" d="M472.96,350.6c-.26.5-.77.79-1.38.79-.88,0-1.42-.48-1.42-1.2,0-.42.18-.71.44-.89.28-.19.67-.26,1.09-.26h1.26v-.17c0-.73-.38-1.13-1.12-1.13-.48,0-.86.18-1.22.63l-.34-.3c.42-.52.94-.75,1.59-.75,1,0,1.56.55,1.56,1.54v2.46h-.44l-.02-.74ZM471.62,351c.72,0,1.33-.57,1.33-1.35v-.22h-1.2c-.32,0-.63.05-.84.2-.17.13-.27.31-.27.58,0,.49.37.8.98.8Z"></path><path class="cls-36" d="M478.39,349.37c0,1.21-.79,2.02-1.79,2.02-.64,0-1.15-.33-1.41-.83v2.41h-.47v-5.57h.47v.78c.27-.52.77-.83,1.41-.83,1.06,0,1.79.88,1.79,2.03ZM476.52,350.96c.81,0,1.39-.67,1.39-1.59s-.58-1.59-1.39-1.59-1.37.66-1.37,1.59.57,1.59,1.37,1.59Z"></path><path class="cls-36" d="M479.37,349.4c0-1.13.61-2.05,1.73-2.05,1.21,0,1.7.94,1.7,1.81,0,.06,0,.24-.02.34h-2.93c.02.93.52,1.47,1.32,1.47.5,0,.83-.14,1.17-.51l.34.3c-.45.46-.88.65-1.51.65-1.16,0-1.79-.87-1.79-2ZM482.33,349.13s0-.1,0-.15c0-.57-.36-1.24-1.23-1.24-.75,0-1.22.6-1.27,1.39h2.49Z"></path><path class="cls-36" d="M483.73,349.37c0-1.21.79-2.02,1.8-2.02.64,0,1.15.33,1.41.84v-2.41h.47v5.57h-.47v-.78c-.27.52-.77.83-1.41.83-1.06,0-1.8-.88-1.8-2.03ZM485.6,350.95c.8,0,1.37-.66,1.37-1.59s-.57-1.59-1.37-1.59-1.39.67-1.39,1.59.58,1.59,1.39,1.59Z"></path><path class="cls-36" d="M490.95,345.77h1.55c1.22,0,1.83.57,1.83,1.54,0,.77-.4,1.28-1.14,1.46l1.5,2.57h-.57l-1.44-2.5c-.13,0-.27,0-.4,0h-.84v2.5h-.5v-5.57ZM492.46,348.4c.85,0,1.38-.34,1.38-1.1s-.54-1.09-1.38-1.09h-1.01v2.19h1.01Z"></path><path class="cls-36" d="M495.35,349.37c0-1.18.77-2.02,1.88-2.02s1.87.84,1.87,2.02-.78,2.03-1.87,2.03-1.88-.84-1.88-2.03ZM497.22,350.97c.84,0,1.39-.64,1.39-1.6s-.55-1.6-1.39-1.6-1.4.64-1.4,1.6.56,1.6,1.4,1.6Z"></path><path class="cls-36" d="M500.05,349.37c0-1.18.77-2.02,1.88-2.02s1.87.84,1.87,2.02-.78,2.03-1.87,2.03-1.88-.84-1.88-2.03ZM501.93,350.97c.84,0,1.39-.64,1.39-1.6s-.55-1.6-1.39-1.6-1.4.64-1.4,1.6.56,1.6,1.4,1.6Z"></path><path class="cls-36" d="M505.28,347.78h-.88v-.38h.88v-.57c0-.82.43-1.12,1.03-1.12.26,0,.47.05.66.15l-.16.36c-.14-.07-.28-.11-.45-.11-.4,0-.6.25-.6.71v.57h.97v.38h-.97v3.56h-.48v-3.56Z"></path></g><g><path class="cls-35" d="M9.77,529.21l.69-.87-1.07-.31.09-.28,1.04.4-.05-1.11h.3l-.04,1.11,1.04-.4.08.28-1.06.31.69.87-.24.18-.62-.92-.62.92-.23-.18Z"></path><path class="cls-35" d="M12.85,527.04h1.55c1.22,0,1.83.57,1.83,1.54,0,.77-.4,1.28-1.14,1.46l1.5,2.57h-.57l-1.44-2.5c-.13,0-.27,0-.4,0h-.84v2.5h-.5v-5.57ZM14.36,529.67c.85,0,1.38-.34,1.38-1.1s-.54-1.09-1.38-1.09h-1.01v2.19h1.01Z"></path><path class="cls-35" d="M17.18,530.67c0-1.13.61-2.05,1.73-2.05,1.21,0,1.7.94,1.7,1.81,0,.06,0,.24-.02.34h-2.93c.02.93.52,1.47,1.32,1.47.5,0,.83-.14,1.18-.51l.34.3c-.45.46-.88.65-1.52.65-1.16,0-1.79-.87-1.79-2ZM20.14,530.41s0-.1,0-.15c0-.57-.36-1.24-1.23-1.24-.76,0-1.22.6-1.27,1.39h2.49Z"></path><path class="cls-35" d="M21.28,531.77l.34-.28c.2.46.66.77,1.26.77.57,0,.95-.27.95-.72,0-.55-.53-.68-1.1-.82-.66-.16-1.23-.38-1.23-1.06,0-.62.53-1.05,1.3-1.05.6,0,1.1.26,1.37.76l-.37.21c-.21-.38-.57-.58-1.02-.58-.48,0-.84.24-.84.62,0,.4.36.54.93.68.67.16,1.44.34,1.44,1.2,0,.71-.56,1.17-1.42,1.17-.79,0-1.35-.4-1.6-.9Z"></path><path class="cls-35" d="M25.31,527.04h.58v.86h-.58v-.86ZM25.36,528.67h.47v3.94h-.47v-3.94Z"></path><path class="cls-35" d="M26.91,530.64c0-1.21.79-2.02,1.79-2.02.64,0,1.15.33,1.41.84v-2.41h.47v5.57h-.47v-.78c-.27.52-.77.83-1.41.83-1.06,0-1.79-.88-1.79-2.03ZM28.78,532.23c.8,0,1.37-.66,1.37-1.59s-.57-1.59-1.37-1.59-1.39.67-1.39,1.59.58,1.59,1.39,1.59Z"></path><path class="cls-35" d="M31.67,530.67c0-1.13.61-2.05,1.73-2.05,1.21,0,1.7.94,1.7,1.81,0,.06,0,.24-.02.34h-2.93c.02.93.52,1.47,1.32,1.47.5,0,.83-.14,1.18-.51l.34.3c-.45.46-.88.65-1.52.65-1.16,0-1.79-.87-1.79-2ZM34.64,530.41s0-.1,0-.15c0-.57-.36-1.24-1.23-1.24-.76,0-1.22.6-1.27,1.39h2.49Z"></path><path class="cls-35" d="M36.17,528.67h.48v.64c.25-.47.69-.7,1.24-.7.85,0,1.36.5,1.36,1.54v2.46h-.48v-2.28c0-.89-.34-1.3-.99-1.3-.71,0-1.13.48-1.13,1.57v2.01h-.48v-3.94Z"></path><path class="cls-35" d="M40.25,530.64c0-1.13.65-2.02,1.76-2.02.72,0,1.28.36,1.54,1.07l-.43.17c-.17-.5-.55-.82-1.11-.82-.87,0-1.29.77-1.29,1.61s.42,1.61,1.29,1.61c.56,0,.94-.31,1.11-.82l.43.16c-.26.71-.82,1.08-1.54,1.08-1.11,0-1.76-.9-1.76-2.03Z"></path><path class="cls-35" d="M44.33,530.67c0-1.13.61-2.05,1.73-2.05,1.21,0,1.7.94,1.7,1.81,0,.06,0,.24-.02.34h-2.93c.02.93.52,1.47,1.32,1.47.5,0,.83-.14,1.18-.51l.34.3c-.45.46-.88.65-1.52.65-1.16,0-1.79-.87-1.79-2ZM47.3,530.41s0-.1,0-.15c0-.57-.36-1.24-1.23-1.24-.76,0-1.22.6-1.27,1.39h2.49Z"></path><path class="cls-35" d="M51.38,529.05h-.88v-.38h.88v-.57c0-.82.43-1.12,1.03-1.12.26,0,.47.05.66.15l-.16.36c-.14-.07-.28-.11-.45-.11-.4,0-.6.25-.6.71v.57h.97v.38h-.97v3.56h-.48v-3.56Z"></path><path class="cls-35" d="M53.23,530.67c0-1.13.61-2.05,1.73-2.05,1.21,0,1.7.94,1.7,1.81,0,.06,0,.24-.02.34h-2.93c.02.93.52,1.47,1.32,1.47.5,0,.83-.14,1.18-.51l.34.3c-.45.46-.88.65-1.52.65-1.16,0-1.79-.87-1.79-2ZM56.19,530.41s0-.1,0-.15c0-.57-.36-1.24-1.23-1.24-.76,0-1.22.6-1.27,1.39h2.49Z"></path><path class="cls-35" d="M60.27,531.87c-.26.5-.77.79-1.38.79-.88,0-1.42-.48-1.42-1.2,0-.42.18-.71.44-.89.28-.19.67-.26,1.09-.26h1.26v-.17c0-.73-.38-1.13-1.12-1.13-.48,0-.86.18-1.22.63l-.34-.3c.42-.52.94-.75,1.59-.75,1,0,1.56.55,1.56,1.54v2.46h-.44l-.02-.74ZM58.93,532.27c.72,0,1.33-.57,1.33-1.35v-.22h-1.2c-.32,0-.63.05-.84.2-.17.13-.27.31-.27.58,0,.49.37.8.98.8Z"></path><path class="cls-35" d="M62.34,531.7v-2.65h-.88v-.38h.88v-1.14l.48-.28v1.42h.95v.38h-.95v2.54c0,.44.14.68.5.68.12,0,.28-.02.45-.08v.38c-.2.06-.4.1-.57.1-.52,0-.86-.3-.86-.97Z"></path><path class="cls-35" d="M64.61,531.12v-2.45h.47v2.28c0,.89.34,1.29,1,1.29.71,0,1.13-.48,1.13-1.57v-2.01h.48v3.94h-.48v-.65c-.25.47-.7.7-1.25.7-.84,0-1.35-.51-1.35-1.55Z"></path><path class="cls-35" d="M68.94,528.67h.48v.67c.26-.48.8-.73,1.24-.73.2,0,.4.04.61.15l-.24.43c-.13-.06-.31-.1-.47-.1-.42,0-.9.22-1.07.8-.05.17-.07.35-.07.78v1.94h-.48v-3.94Z"></path><path class="cls-35" d="M71.65,530.67c0-1.13.61-2.05,1.73-2.05,1.21,0,1.7.94,1.7,1.81,0,.06,0,.24-.02.34h-2.93c.02.93.52,1.47,1.32,1.47.5,0,.83-.14,1.17-.51l.34.3c-.45.46-.88.65-1.51.65-1.16,0-1.79-.87-1.79-2ZM74.61,530.41s0-.1,0-.15c0-.57-.36-1.24-1.23-1.24-.75,0-1.22.6-1.27,1.39h2.49Z"></path><path class="cls-35" d="M75.74,531.77l.34-.28c.2.46.66.77,1.26.77.57,0,.95-.27.95-.72,0-.55-.53-.68-1.1-.82-.66-.16-1.23-.38-1.23-1.06,0-.62.53-1.05,1.29-1.05.6,0,1.1.26,1.37.76l-.37.21c-.21-.38-.57-.58-1.01-.58-.48,0-.84.24-.84.62,0,.4.36.54.93.68.67.16,1.43.34,1.43,1.2,0,.71-.56,1.17-1.42,1.17-.79,0-1.35-.4-1.6-.9Z"></path><path class="cls-35" d="M84.52,531.87c-.26.5-.77.79-1.38.79-.88,0-1.42-.48-1.42-1.2,0-.42.18-.71.44-.89.28-.19.67-.26,1.09-.26h1.26v-.17c0-.73-.38-1.13-1.12-1.13-.48,0-.86.18-1.22.63l-.34-.3c.42-.52.94-.75,1.59-.75,1,0,1.56.55,1.56,1.54v2.46h-.44l-.02-.74ZM83.18,532.27c.72,0,1.33-.57,1.33-1.35v-.22h-1.2c-.32,0-.63.05-.84.2-.17.13-.27.31-.27.58,0,.49.37.8.98.8Z"></path><path class="cls-35" d="M86.2,528.67h.48v.64c.25-.47.69-.7,1.24-.7.85,0,1.36.5,1.36,1.54v2.46h-.48v-2.28c0-.89-.34-1.3-.99-1.3-.71,0-1.13.48-1.13,1.57v2.01h-.48v-3.94Z"></path><path class="cls-35" d="M95.18,531.87c-.26.5-.77.79-1.38.79-.88,0-1.42-.48-1.42-1.2,0-.42.18-.71.44-.89.28-.19.67-.26,1.09-.26h1.26v-.17c0-.73-.38-1.13-1.12-1.13-.48,0-.86.18-1.22.63l-.34-.3c.42-.52.94-.75,1.59-.75,1,0,1.56.55,1.56,1.54v2.46h-.44l-.02-.74ZM93.84,532.27c.72,0,1.33-.57,1.33-1.35v-.22h-1.2c-.32,0-.63.05-.84.2-.17.13-.27.31-.27.58,0,.49.37.8.98.8Z"></path><path class="cls-35" d="M96.66,530.64c0-1.13.65-2.02,1.76-2.02.72,0,1.28.36,1.54,1.07l-.43.17c-.17-.5-.55-.82-1.11-.82-.87,0-1.29.77-1.29,1.61s.42,1.61,1.29,1.61c.56,0,.94-.31,1.11-.82l.43.16c-.26.71-.82,1.08-1.54,1.08-1.11,0-1.76-.9-1.76-2.03Z"></path><path class="cls-35" d="M100.73,530.64c0-1.13.65-2.02,1.76-2.02.72,0,1.28.36,1.54,1.07l-.43.17c-.17-.5-.55-.82-1.11-.82-.87,0-1.29.77-1.29,1.61s.42,1.61,1.29,1.61c.56,0,.94-.31,1.11-.82l.43.16c-.26.71-.82,1.08-1.54,1.08-1.11,0-1.76-.9-1.76-2.03Z"></path><path class="cls-35" d="M104.81,530.67c0-1.13.61-2.05,1.73-2.05,1.21,0,1.7.94,1.7,1.81,0,.06,0,.24-.02.34h-2.93c.02.93.52,1.47,1.32,1.47.5,0,.83-.14,1.17-.51l.34.3c-.45.46-.88.65-1.51.65-1.16,0-1.79-.87-1.79-2ZM107.77,530.41s0-.1,0-.15c0-.57-.36-1.24-1.23-1.24-.75,0-1.22.6-1.27,1.39h2.49Z"></path><path class="cls-35" d="M108.91,531.77l.34-.28c.2.46.66.77,1.26.77.57,0,.95-.27.95-.72,0-.55-.53-.68-1.1-.82-.66-.16-1.23-.38-1.23-1.06,0-.62.53-1.05,1.29-1.05.6,0,1.1.26,1.37.76l-.37.21c-.21-.38-.57-.58-1.01-.58-.48,0-.84.24-.84.62,0,.4.36.54.93.68.67.16,1.43.34,1.43,1.2,0,.71-.56,1.17-1.42,1.17-.79,0-1.35-.4-1.6-.9Z"></path><path class="cls-35" d="M112.64,531.77l.34-.28c.2.46.66.77,1.26.77.57,0,.95-.27.95-.72,0-.55-.53-.68-1.1-.82-.66-.16-1.23-.38-1.23-1.06,0-.62.53-1.05,1.29-1.05.6,0,1.1.26,1.37.76l-.37.21c-.21-.38-.57-.58-1.01-.58-.48,0-.84.24-.84.62,0,.4.36.54.93.68.67.16,1.43.34,1.43,1.2,0,.71-.56,1.17-1.42,1.17-.79,0-1.35-.4-1.6-.9Z"></path><path class="cls-35" d="M116.67,527.04h.58v.86h-.58v-.86ZM116.72,528.67h.47v3.94h-.47v-3.94Z"></path><path class="cls-35" d="M118.93,531.84v.78h-.47v-5.57h.47v2.41c.26-.5.77-.84,1.41-.84,1,0,1.79.82,1.79,2.02s-.74,2.03-1.79,2.03c-.64,0-1.14-.31-1.41-.83ZM120.26,532.23c.81,0,1.39-.67,1.39-1.59s-.58-1.59-1.39-1.59-1.37.66-1.37,1.59.57,1.59,1.37,1.59Z"></path><path class="cls-35" d="M123.12,531.79v-4.75h.48v4.67c0,.37.14.52.39.52.1,0,.24-.02.38-.07v.41c-.18.07-.37.1-.52.1-.44,0-.72-.27-.72-.88Z"></path><path class="cls-35" d="M124.96,530.67c0-1.13.61-2.05,1.73-2.05,1.21,0,1.7.94,1.7,1.81,0,.06,0,.24-.02.34h-2.93c.02.93.52,1.47,1.32,1.47.5,0,.83-.14,1.17-.51l.34.3c-.45.46-.88.65-1.51.65-1.16,0-1.79-.87-1.79-2ZM127.92,530.41s0-.1,0-.15c0-.57-.36-1.24-1.23-1.24-.75,0-1.22.6-1.27,1.39h2.49Z"></path><path class="cls-35" d="M131.52,531.79v-4.75h.48v4.67c0,.37.14.52.39.52.1,0,.24-.02.38-.07v.41c-.18.07-.37.1-.52.1-.44,0-.72-.27-.72-.88Z"></path><path class="cls-35" d="M136.27,531.87c-.26.5-.77.79-1.38.79-.88,0-1.42-.48-1.42-1.2,0-.42.18-.71.44-.89.28-.19.67-.26,1.09-.26h1.26v-.17c0-.73-.38-1.13-1.12-1.13-.48,0-.86.18-1.22.63l-.34-.3c.42-.52.94-.75,1.59-.75,1,0,1.56.55,1.56,1.54v2.46h-.44l-.02-.74ZM134.93,532.27c.72,0,1.33-.57,1.33-1.35v-.22h-1.2c-.32,0-.63.05-.84.2-.17.13-.27.31-.27.58,0,.49.37.8.98.8Z"></path><path class="cls-35" d="M139.01,532.49l-1.57-3.82h.53l1.29,3.33,1.3-3.33h.52l-2.27,5.56h-.52l.72-1.75Z"></path><path class="cls-35" d="M141.67,530.64c0-1.18.77-2.02,1.88-2.02s1.87.84,1.87,2.02-.78,2.03-1.87,2.03-1.88-.84-1.88-2.03ZM143.55,532.24c.84,0,1.39-.64,1.39-1.6s-.55-1.6-1.39-1.6-1.4.64-1.4,1.6.56,1.6,1.4,1.6Z"></path><path class="cls-35" d="M146.42,531.12v-2.45h.47v2.28c0,.89.34,1.29,1,1.29.71,0,1.13-.48,1.13-1.57v-2.01h.48v3.94h-.48v-.65c-.25.47-.7.7-1.25.7-.84,0-1.35-.51-1.35-1.55Z"></path><path class="cls-35" d="M151.15,531.7v-2.65h-.88v-.38h.88v-1.14l.48-.28v1.42h.95v.38h-.95v2.54c0,.44.14.68.5.68.12,0,.28-.02.45-.08v.38c-.2.06-.4.1-.57.1-.52,0-.86-.3-.86-.97Z"></path></g></g></g></svg> 