<?xml version="1.0" encoding="UTF-8"?> <svg xmlns="http://www.w3.org/2000/svg" id="Layer_2" data-name="Layer 2" viewBox="0 0 536.53 557.17"><defs><style> .cls-1 { stroke: #afa49f; } .cls-1, .cls-2, .cls-3, .cls-4, .cls-5, .cls-6, .cls-7, .cls-8, .cls-9, .cls-10, .cls-11, .cls-12, .cls-13, .cls-14, .cls-15 { fill: none; } .cls-1, .cls-2, .cls-3, .cls-5, .cls-7, .cls-8, .cls-9, .cls-10, .cls-11, .cls-13, .cls-14 { stroke-width: .25px; } .cls-1, .cls-12, .cls-13 { stroke-miterlimit: 10; } .cls-2 { stroke-dasharray: 1.54 1.54; } .cls-2, .cls-3, .cls-4, .cls-5, .cls-6, .cls-7, .cls-8, .cls-9, .cls-10, .cls-11, .cls-14, .cls-15 { stroke-linecap: round; stroke-linejoin: round; } .cls-2, .cls-3, .cls-5, .cls-7, .cls-8, .cls-9, .cls-10, .cls-11 { stroke: #75655e; } .cls-16 { fill: #3a2a22; } .cls-3 { stroke-dasharray: 6.13 5.11; } .cls-4 { stroke: #55453d; stroke-width: .15px; } .cls-5 { stroke-dasharray: 5.97 4.98; } .cls-17 { fill: #fff; } .cls-6, .cls-12 { stroke-width: .75px; } .cls-6, .cls-12, .cls-14, .cls-15 { stroke: #3a2a22; } .cls-7 { stroke-dasharray: 7.18 5.98; } .cls-9 { stroke-dasharray: 6.16 5.14; } .cls-18 { fill: #bc8ebc; } .cls-10 { stroke-dasharray: 6.06 5.05; } .cls-11 { stroke-dasharray: 5.59 4.66; } .cls-13 { stroke: #bc8ebc; } .cls-19 { fill: #afa49f; } .cls-15 { stroke-width: .35px; } .cls-20 { fill: #75655e; } </style></defs><g id="Layer_1-2" data-name="Layer 1"><g><polygon class="cls-17" points="523.4 106.4 512.66 104.67 474.78 99.03 436.8 93.67 398.73 88.77 360.76 84.15 322.6 79.81 284.53 75.93 264.33 74.08 264.33 .12 9.51 .12 9.51 58.37 .38 58.18 .38 536.94 447.41 536.94 447.41 550.8 536.15 550.8 536.15 257.01 523.4 257.01 523.4 106.4"></polygon><line class="cls-8" x1=".38" y1="12.45" x2="3.37" y2="12.51"></line><polyline class="cls-11" points="8.04 12.61 17.68 12.82 46.72 13.76"></polyline><polyline class="cls-8" points="49.05 13.83 52.05 13.93 51.94 16.93"></polyline><polyline class="cls-8" points="51.87 18.97 51.77 21.97 48.77 21.88"></polyline><line class="cls-10" x1="43.72" y1="21.72" x2="24.03" y2="21.12"></line><polyline class="cls-8" points="21.51 21.04 18.51 20.95 18.51 23.95"></polyline><line class="cls-7" x1="18.51" y1="29.93" x2="18.51" y2="40.1"></line><polyline class="cls-8" points="18.51 43.09 18.51 46.09 21.5 46.19"></polyline><polyline class="cls-9" points="26.64 46.37 56.11 47.38 93.72 48.95 125.67 50.68"></polyline><polyline class="cls-8" points="128.24 50.82 131.24 50.98 131.41 47.99"></polyline><polyline class="cls-8" points="131.53 45.85 131.7 42.85 134.69 43.04"></polyline><polyline class="cls-5" points="139.66 43.36 169.58 45.25 207.37 47.93 245.16 50.98 282.86 54.49 320.56 58.19 358.26 62.35 395.87 66.88 433.48 71.68 470.99 76.85 508.5 82.4 517.97 83.9"></polyline><line class="cls-8" x1="520.43" y1="84.28" x2="523.4" y2="84.75"></line><polygon class="cls-15" points="20.82 56.8 18.51 56.8 18.51 9.13 255.33 9.13 255.33 70.94 253.02 70.94 253.02 11.44 20.82 11.44 20.82 56.8"></polygon><g><path class="cls-4" d="M434.37,480.74c-25.52,0-43.4,20.69-43.4,46.2"></path><path class="cls-4" d="M407.06,353.69c23.13,0,39.35,18.62,39.35,41.58"></path><path class="cls-4" d="M166.43,471.49c-23.13,0-39.35-18.62-39.35-41.58"></path><path class="cls-4" d="M131.7,380.28c0-23.13,18.61-39.35,41.58-39.35"></path><path class="cls-4" d="M245.28,30.56c-23.05-1.92-40.81,15.28-42.71,38.17"></path><path class="cls-4" d="M411.21,287.88c0-23.13-18.61-39.35-41.58-39.35"></path></g><line class="cls-4" x1="437.17" y1="536.93" x2="390.97" y2="536.93"></line><line class="cls-4" x1="390.97" y1="526.94" x2="434.37" y2="526.94"></line><rect class="cls-15" x="466.65" y="261.28" width="34.65" height="2.21"></rect><rect class="cls-15" x="432" y="263.5" width="34.65" height="2.21"></rect><rect class="cls-15" x="434.37" y="480.74" width="2.8" height="46.2"></rect><rect class="cls-15" x="404.83" y="353.69" width="2.23" height="41.58"></rect><rect class="cls-15" x="166.42" y="429.92" width="2.23" height="41.58"></rect><rect class="cls-15" x="131.7" y="380.28" width="41.58" height="2.23"></rect><rect class="cls-15" x="223.88" y="50.25" width="41.58" height="2.23" transform="translate(173.16 290.92) rotate(-85.24)"></rect><rect class="cls-15" x="369.63" y="287.88" width="41.58" height="2.23"></rect><rect class="cls-15" x="451.68" y="406.72" width="2.21" height="41.67"></rect><rect class="cls-15" x="451.68" y="463.27" width="2.21" height="60.06"></rect><line class="cls-15" x1="451.68" y1="493.3" x2="453.89" y2="493.3"></line><rect class="cls-15" x="112.11" y="340.93" width="2.21" height="41.58"></rect><polyline class="cls-8" points="226.56 402.31 225.81 402.31 225.81 403.06"></polyline><line class="cls-2" x1="225.81" y1="404.6" x2="225.81" y2="428.4"></line><polyline class="cls-8" points="225.81 429.17 225.81 429.92 226.56 429.92"></polyline><line class="cls-2" x1="228.09" y1="429.92" x2="251.9" y2="429.92"></line><polyline class="cls-8" points="252.67 429.92 253.42 429.92 253.42 429.17"></polyline><line class="cls-2" x1="253.42" y1="427.63" x2="253.42" y2="403.83"></line><polyline class="cls-8" points="253.42 403.06 253.42 402.31 252.67 402.31"></polyline><line class="cls-2" x1="251.13" y1="402.31" x2="227.32" y2="402.31"></line><polyline class="cls-8" points="309.25 402.31 308.5 402.31 308.5 403.06"></polyline><line class="cls-2" x1="308.5" y1="404.59" x2="308.5" y2="428.4"></line><polyline class="cls-8" points="308.5 429.17 308.5 429.92 309.25 429.92"></polyline><line class="cls-2" x1="310.79" y1="429.92" x2="334.59" y2="429.92"></line><polyline class="cls-8" points="335.36 429.92 336.11 429.92 336.11 429.17"></polyline><line class="cls-2" x1="336.11" y1="427.63" x2="336.11" y2="403.82"></line><polyline class="cls-8" points="336.11 403.06 336.11 402.31 335.36 402.31"></polyline><line class="cls-2" x1="333.82" y1="402.31" x2="310.02" y2="402.31"></line><line class="cls-8" x1="224.1" y1="492.64" x2="227.1" y2="492.64"></line><line class="cls-3" x1="232.2" y1="492.64" x2="319.52" y2="492.64"></line><line class="cls-8" x1="322.08" y1="492.64" x2="325.08" y2="492.64"></line><line class="cls-15" x1="361.22" y1="480.73" x2="182.52" y2="480.74"></line><line class="cls-15" x1="224.1" y1="480.73" x2="224.1" y2="508.16"></line><line class="cls-15" x1="325.08" y1="480.73" x2="325.08" y2="508.15"></line><line class="cls-15" x1="224.1" y1="483.23" x2="182.52" y2="483.23"></line><line class="cls-15" x1="361.22" y1="483.23" x2="325.07" y2="483.23"></line><rect class="cls-15" x="222.28" y="380.34" width="117.32" height="49.58"></rect><g><rect class="cls-15" x="288.38" y="399.98" width="1.74" height="9.78" rx=".59" ry=".59"></rect><path class="cls-15" d="M289.25,415.65c.49,0,.9.4.9.9s-.4.9-.9.9-.9-.4-.9-.9.4-.9.9-.9Z"></path></g><polyline class="cls-15" points="290.12 401.29 292.55 401.29 292.55 402.84 290.12 402.84"></polyline><line class="cls-15" x1="291.69" y1="402.84" x2="291.69" y2="401.29"></line><polyline class="cls-15" points="290.12 405.16 302.18 405.16 302.18 426.91 276.33 426.91 276.33 405.16 288.38 405.16"></polyline><polyline class="cls-15" points="288.38 406.24 277.41 406.24 277.41 425.83 301.1 425.83 301.1 406.24 290.12 406.24"></polyline><line class="cls-15" x1="502.74" y1="387.96" x2="505.95" y2="387.96"></line><g><path class="cls-15" d="M506.81,387.96h11.6c1.38,0,2.5-1.12,2.5-2.5v-61.83c0-1.38-1.12-2.5-2.5-2.5h-24.04c-1.38,0-2.5,1.12-2.5,2.5v61.83c0,1.38,1.12,2.5,2.5,2.5h8.37"></path><path class="cls-15" d="M505.95,391.99v-10.86c0-.24.19-.43.43-.43s.43.19.43.43v10.81"></path><path class="cls-15" d="M506.81,382.21c.46-.17.79-.61.79-1.14,0-.67-.54-1.21-1.21-1.21s-1.21.54-1.21,1.21c0,.51.32.95.77,1.13"></path><path class="cls-15" d="M506.81,386.24c2.67-.22,4.76-2.45,4.76-5.17,0-2.86-2.32-5.18-5.18-5.18-2.86,0-5.18,2.32-5.18,5.18,0,2.71,2.09,4.94,4.74,5.16"></path></g><rect class="cls-15" x="503.85" y="391.99" width="5.08" height=".97"></rect><line class="cls-15" x1="488.16" y1="392.96" x2="488.16" y2="316.73"></line><line class="cls-15" x1="486.88" y1="392.96" x2="486.88" y2="316.77"></line><line class="cls-15" x1="486.88" y1="388.27" x2="488.16" y2="388.27"></line><line class="cls-15" x1="486.88" y1="350.27" x2="488.16" y2="350.27"></line><g><rect class="cls-15" x="456.51" y="302.87" width="17.6" height="7.45" rx="1.08" ry="1.08"></rect><path class="cls-15" d="M469.77,314.47c.28,0,.54.11.73.32,1.88,2.09,3.08,5.3,3.08,8.9,0,6.31-3.71,11.42-8.28,11.42-4.57,0-8.27-5.11-8.27-11.42,0-3.6,1.2-6.8,3.08-8.9.19-.21.46-.32.73-.32h8.92Z"></path></g><line class="cls-15" x1="473.58" y1="323.69" x2="473.58" y2="310.17"></line><line class="cls-15" x1="457.03" y1="323.69" x2="457.03" y2="310.17"></line><polyline class="cls-15" points="444.63 302.87 444.63 327.89 400.21 327.88"></polyline><path class="cls-15" d="M426.63,310.93h-9.87c-.4,0-.72.32-.72.72v10.9c0,.4.32.72.72.72h20.82c.4,0,.72-.32.72-.72v-10.9c0-.4-.32-.72-.72-.72h-9.48"></path><rect class="cls-15" x="426.63" y="307.48" width="1.47" height="5.89"></rect><circle class="cls-15" cx="427.36" cy="317.1" r=".84"></circle><rect class="cls-15" x="460.34" y="412.26" width="38.03" height="30.61"></rect><polyline class="cls-15" points="173.28 483.39 96.47 483.39 96.47 508.53"></polyline><path class="cls-15" d="M117.21,500.45h-9.87c-.4,0-.72-.32-.72-.72v-10.9c0-.4.32-.72.72-.72h20.82c.4,0,.72.32.72.72v10.9c0,.4-.32.72-.72.72h-9.48"></path><rect class="cls-15" x="117.21" y="498.01" width="1.47" height="5.89"></rect><circle class="cls-15" cx="117.95" cy="494.28" r=".84"></circle><line class="cls-15" x1="55.47" y1="432.23" x2="55.47" y2="508.41"></line><line class="cls-15" x1="54.18" y1="432.23" x2="54.19" y2="508.41"></line><line class="cls-15" x1="54.18" y1="436.91" x2="55.47" y2="436.91"></line><line class="cls-15" x1="54.18" y1="474.91" x2="55.47" y2="474.91"></line><line class="cls-15" x1="13.89" y1="495.02" x2="54.19" y2="495.02"></line><g><path class="cls-15" d="M35.25,444.11c0,.67-.54,1.21-1.21,1.21s-1.21-.54-1.21-1.21.54-1.21,1.21-1.21,1.21.54,1.21,1.21Z"></path><path class="cls-15" d="M39.22,444.11c0,2.86-2.32,5.18-5.18,5.18s-5.18-2.32-5.18-5.18,2.32-5.18,5.18-5.18,5.18,2.32,5.18,5.18Z"></path><path class="cls-15" d="M68.25,500.96h15.44c.6,0,1.08.48,1.08,1.08v5.29c0,.6-.48,1.08-1.08,1.08h-15.44c-.6,0-1.08-.48-1.08-1.08v-5.29c0-.6.48-1.08,1.08-1.08Z"></path><path class="cls-15" d="M80.43,496.81c.28,0,.54-.11.73-.32,1.88-2.09,3.09-5.3,3.09-8.9,0-6.31-3.71-11.42-8.28-11.42s-8.28,5.11-8.28,11.42c0,3.6,1.2,6.8,3.08,8.9.19.21.46.32.73.32h8.92Z"></path></g><line class="cls-15" x1="84.25" y1="487.59" x2="84.25" y2="501.11"></line><line class="cls-15" x1="67.7" y1="487.59" x2="67.7" y2="501.11"></line><path class="cls-15" d="M151.97,500.45h-9.87c-.4,0-.72-.32-.72-.72v-10.9c0-.4.32-.72.72-.72h20.82c.4,0,.72.32.72.72v10.9c0,.4-.32.72-.72.72h-9.48"></path><rect class="cls-15" x="151.97" y="498.01" width="1.47" height="5.89"></rect><circle class="cls-14" cx="152.71" cy="494.28" r=".84"></circle><rect class="cls-15" x="256.59" y="482.01" width="36.98" height="24.28"></rect><rect class="cls-15" x="257.67" y="483.09" width="34.82" height="22.12"></rect><path class="cls-15" d="M275.08,483.84c.71,0,1.28.57,1.28,1.28s-.57,1.28-1.28,1.28-1.28-.57-1.28-1.28c0-.71.57-1.28,1.28-1.28Z"></path><line class="cls-15" x1="292.48" y1="483.09" x2="293.56" y2="482.01"></line><line class="cls-15" x1="257.67" y1="483.1" x2="256.59" y2="482.02"></line><line class="cls-15" x1="257.67" y1="505.21" x2="256.59" y2="506.29"></line><line class="cls-15" x1="292.49" y1="505.21" x2="293.57" y2="506.29"></line><polygon class="cls-15" points="274.02 485.13 275.08 486.18 276.13 485.13 275.08 484.07 274.02 485.13"></polygon><line class="cls-15" x1="275.08" y1="486.18" x2="275.08" y2="484.07"></line><g><path class="cls-14" d="M470.56,505.41c-1.51.03-3.03.06-4.57.13-.8.04-1.6.09-2.35.13-.57.03-1.11.07-1.78.16-.65.09-1.42.25-1.73-.23-.07-.11-.12-.25-.13-.38-.06-.77,1.18-.9,2.24-.97,2.35-.15,3.74.04,5.44.16.9.06,1.9.1,2.89.14.99-.04,1.98-.08,2.89-.14,1.7-.11,3.09-.3,5.44-.16,1.05.07,2.3.2,2.24.97-.01.13-.06.27-.12.38-.31.48-1.08.33-1.73.23-.67-.1-1.21-.13-1.78-.16-.75-.04-1.56-.09-2.35-.13-1.55-.07-3.06-.1-4.57-.13Z"></path><path class="cls-14" d="M470.56,500.71c-1.51.03-3.03.06-4.57.13-.8.04-1.6.09-2.35.13-.57.03-1.11.07-1.78.16-.65.09-1.42.25-1.73-.23-.07-.11-.12-.25-.13-.38-.06-.77,1.18-.9,2.24-.97,2.35-.15,3.74.04,5.44.16.9.06,1.9.1,2.89.14.99-.04,1.98-.08,2.89-.14,1.7-.11,3.09-.3,5.44-.16,1.05.07,2.3.2,2.24.97-.01.13-.06.27-.12.38-.31.48-1.08.33-1.73.23-.67-.1-1.21-.13-1.78-.16-.75-.04-1.56-.09-2.35-.13-1.55-.07-3.06-.1-4.57-.13Z"></path><path class="cls-14" d="M470.56,496.02c-1.51.03-3.03.06-4.57.13-.8.04-1.6.09-2.35.13-.57.03-1.11.07-1.78.16-.65.09-1.42.25-1.73-.23-.07-.11-.12-.25-.13-.38-.06-.77,1.18-.9,2.24-.97,2.35-.15,3.74.04,5.44.16.9.06,1.9.1,2.89.14.99-.04,1.98-.08,2.89-.14,1.7-.11,3.09-.3,5.44-.16,1.05.07,2.3.2,2.24.97-.01.13-.06.27-.12.38-.31.48-1.08.33-1.73.23-.67-.1-1.21-.13-1.78-.16-.75-.04-1.56-.09-2.35-.13-1.55-.07-3.06-.1-4.57-.13Z"></path></g><line class="cls-14" x1="470.56" y1="459.95" x2="470.56" y2="540.8"></line><g><path class="cls-14" d="M472.33,280.17c-.03-1.51-.06-3.03-.13-4.57-.04-.8-.09-1.6-.13-2.35-.03-.57-.07-1.11-.16-1.78-.09-.65-.25-1.42.23-1.73.11-.07.25-.12.38-.13.77-.06.9,1.18.97,2.24.15,2.35-.04,3.74-.16,5.44-.06.9-.1,1.9-.14,2.89.04.99.08,1.98.14,2.89.11,1.7.3,3.09.16,5.44-.07,1.05-.2,2.3-.97,2.24-.13-.01-.27-.06-.38-.13-.48-.3-.32-1.08-.23-1.73.1-.67.13-1.21.16-1.78.04-.75.09-1.56.13-2.36.07-1.54.1-3.06.13-4.57Z"></path><path class="cls-14" d="M477.02,280.17c-.03-1.51-.06-3.03-.13-4.57-.04-.8-.09-1.6-.13-2.35-.03-.57-.07-1.11-.16-1.78-.09-.65-.25-1.42.23-1.73.11-.07.25-.12.38-.13.77-.06.9,1.18.97,2.24.15,2.35-.04,3.74-.16,5.44-.06.9-.1,1.9-.14,2.89.04.99.08,1.98.14,2.89.11,1.7.3,3.09.16,5.44-.07,1.05-.2,2.3-.97,2.24-.13-.01-.27-.06-.38-.13-.48-.3-.32-1.08-.23-1.73.1-.67.13-1.21.16-1.78.04-.75.09-1.56.13-2.36.07-1.54.1-3.06.13-4.57Z"></path><path class="cls-14" d="M481.72,280.17c-.03-1.51-.06-3.03-.13-4.57-.04-.8-.09-1.6-.13-2.35-.03-.57-.07-1.11-.16-1.78-.09-.65-.25-1.42.23-1.73.11-.07.25-.12.38-.13.77-.06.9,1.18.97,2.24.15,2.35-.04,3.74-.16,5.44-.06.9-.1,1.9-.14,2.89.04.99.08,1.98.14,2.89.11,1.7.3,3.09.16,5.44-.07,1.05-.2,2.3-.97,2.24-.13-.01-.27-.06-.38-.13-.48-.3-.32-1.08-.23-1.73.1-.67.13-1.21.16-1.78.04-.75.09-1.56.13-2.36.07-1.54.1-3.06.13-4.57Z"></path></g><line class="cls-14" x1="526.15" y1="280.17" x2="428.58" y2="280.17"></line><line class="cls-14" x1="166.35" y1="148.1" x2="10.38" y2="148.1"></line><line class="cls-14" x1="166.35" y1="153.92" x2="17.31" y2="153.92"></line><line class="cls-14" x1=".38" y1="60.45" x2=".38" y2="66.41"></line><polyline class="cls-14" points="518.3 119.64 484.2 114.37 449.92 109.47 415.73 104.85 381.45 100.51"></polyline><polyline class="cls-14" points="518.3 119.64 519.22 113.91 485.03 108.73 450.75 103.74 416.47 99.12 382.1 94.78 347.82 90.81 313.82 87.02 279.72 83.6 245.63 80.46 245.16 86.19 279.17 89.33 313.17 92.75 347.17 96.54"></polyline><polygon class="cls-14" points="172.17 80.37 172.17 120.93 166.35 120.93 166.35 74.18 199.61 76.67 199.15 82.4 172.17 80.37"></polygon><line class="cls-14" x1="523.4" y1="108.77" x2="523.4" y2="114.6"></line><polyline class="cls-14" points="9.51 58.37 9.51 .12 264.33 .12 264.33 74.08"></polyline><polygon class="cls-6" points="523.4 106.4 512.66 104.67 474.78 99.03 436.8 93.67 398.73 88.77 360.76 84.15 322.6 79.81 284.53 75.93 246.37 72.43 246.15 74.74 284.16 78.24 322.13 82.12 360.11 86.37 398.09 90.99 435.97 95.89 473.76 101.25 511.55 106.89 523.4 108.77 523.4 106.4"></polygon><polygon class="cls-6" points="160.62 67.98 200.07 70.85 200.26 68.54 158.31 65.58 158.31 139.96 18.51 139.96 18.51 58.56 .38 58.18 .38 60.45 16.2 60.78 16.2 142.27 160.62 142.27 160.62 67.98"></polygon><rect class="cls-6" x="86.7" y="142.27" width="2.31" height="5.82"></rect><rect class="cls-6" x="17.31" y="142.27" width="2.31" height="5.82"></rect><rect class="cls-6" x="10.38" y="138.86" width="5.82" height="2.31"></rect><rect class="cls-6" x="10.38" y="93.16" width="5.82" height="2.31"></rect><polyline class="cls-6" points="16.2 60.78 14.63 60.78 8.8 66.41 10.38 66.41 10.38 68.08 16.2 62.44 16.2 60.78"></polyline><rect class="cls-6" x="157.11" y="142.27" width="2.31" height="5.82"></rect><rect class="cls-6" x="160.62" y="138.86" width="5.73" height="2.31"></rect><rect class="cls-6" x="160.62" y="119.77" width="5.73" height="2.31"></rect><polyline class="cls-6" points="166.35 75.84 166.35 74.18 168.05 74.3 162.22 68.1 160.62 67.98 160.62 69.74 166.35 75.84"></polyline><polyline class="cls-6" points="243.32 80.27 245.63 80.46 246.36 72.43 244.05 72.18 243.32 80.27"></polyline><polyline class="cls-6" points="199.61 76.67 201.92 76.86 202.57 68.72 200.26 68.54 199.61 76.67"></polyline><polyline class="cls-6" points="280.65 77.87 280.09 83.6 277.78 83.42 278.34 77.69 280.65 77.87"></polyline><polyline class="cls-6" points="349.58 85.17 348.93 90.9 346.62 90.62 347.27 84.89 349.58 85.17"></polyline><polyline class="cls-6" points="383.95 89.24 383.3 94.97 380.99 94.69 381.73 88.96 383.95 89.24"></polyline><polyline class="cls-6" points="418.32 93.58 417.58 99.31 415.27 99.03 416.1 93.3 418.32 93.58"></polyline><polyline class="cls-6" points="486.97 103.19 486.14 108.92 483.93 108.55 484.76 102.82 486.97 103.19"></polyline><polygon class="cls-6" points="521.25 108.42 520.33 114.09 518.11 113.74 518.94 108.06 521.25 108.42"></polygon><polygon class="cls-16" points="369.63 248.53 363.9 248.53 363.9 98.48 347.17 96.54 347.82 90.81 382.1 94.78 381.45 100.51 369.63 99.12 369.63 248.53"></polygon><polygon class="cls-12" points="369.63 248.53 363.9 248.53 363.9 98.48 347.17 96.54 347.82 90.81 382.1 94.78 381.45 100.51 369.63 99.12 369.63 248.53"></polygon><polygon class="cls-16" points="523.4 114.6 523.4 257.01 536.15 257.01 536.15 550.8 447.41 550.8 447.41 536.94 437.17 536.94 437.17 526.94 451.68 526.94 451.68 523.33 457.41 523.33 457.41 540.8 485.13 540.8 485.13 459.95 457.41 459.95 457.41 463.27 451.68 463.27 451.68 448.4 457.41 448.4 457.41 451.81 501.3 451.81 501.3 403.3 457.41 403.3 457.41 406.72 451.68 406.72 451.68 400.99 446.41 400.99 446.41 395.27 486.88 395.27 486.88 392.96 526.15 392.96 526.15 316.73 486.88 316.73 486.88 302.87 400.21 302.87 400.21 395.27 404.83 395.27 404.83 400.99 394.48 400.99 394.48 300.56 363.9 300.56 363.9 290.11 369.63 290.11 369.63 294.73 422.76 294.73 422.76 261.29 432 261.29 432 267.01 428.58 267.01 428.58 294.73 526.15 294.73 526.15 267.01 501.3 267.01 501.3 261.29 513.4 261.29 513.4 118.9 518.3 119.64 519.22 113.91 523.4 114.6"></polygon><polygon class="cls-12" points="523.4 114.6 523.4 257.01 536.15 257.01 536.15 550.8 447.41 550.8 447.41 536.94 437.17 536.94 437.17 526.94 451.68 526.94 451.68 523.33 457.41 523.33 457.41 540.8 485.13 540.8 485.13 459.95 457.41 459.95 457.41 463.27 451.68 463.27 451.68 448.4 457.41 448.4 457.41 451.81 501.3 451.81 501.3 403.3 457.41 403.3 457.41 406.72 451.68 406.72 451.68 400.99 446.41 400.99 446.41 395.27 486.88 395.27 486.88 392.96 526.15 392.96 526.15 316.73 486.88 316.73 486.88 302.87 400.21 302.87 400.21 395.27 404.83 395.27 404.83 400.99 394.48 400.99 394.48 300.56 363.9 300.56 363.9 290.11 369.63 290.11 369.63 294.73 422.76 294.73 422.76 261.29 432 261.29 432 267.01 428.58 267.01 428.58 294.73 526.15 294.73 526.15 267.01 501.3 267.01 501.3 261.29 513.4 261.29 513.4 118.9 518.3 119.64 519.22 113.91 523.4 114.6"></polygon><g><polygon class="cls-16" points="17.31 153.92 17.31 148.1 10.38 148.1 10.38 66.41 .38 66.41 .38 536.93 390.97 536.93 390.97 526.94 367.32 526.94 367.32 480.74 361.59 480.74 361.59 508.15 182.52 508.15 182.52 480.74 179.1 480.74 179.1 382.51 173.28 382.51 173.28 424.19 168.66 424.19 168.66 429.92 173.28 429.92 173.28 508.46 13.89 508.46 13.89 432.23 55.47 432.23 55.47 429.92 127.08 429.92 127.08 424.19 117.84 424.19 117.84 382.51 112.11 382.51 112.11 424.19 13.89 424.19 13.89 336.31 112.11 336.31 112.11 340.93 117.84 340.93 117.84 330.59 13.89 330.59 13.89 153.92 17.31 153.92"></polygon><polygon class="cls-12" points="17.31 153.92 17.31 148.1 10.38 148.1 10.38 66.41 .38 66.41 .38 536.93 390.97 536.93 390.97 526.94 367.32 526.94 367.32 480.74 361.59 480.74 361.59 508.15 182.52 508.15 182.52 480.74 179.1 480.74 179.1 382.51 173.28 382.51 173.28 424.19 168.66 424.19 168.66 429.92 173.28 429.92 173.28 508.46 13.89 508.46 13.89 432.23 55.47 432.23 55.47 429.92 127.08 429.92 127.08 424.19 117.84 424.19 117.84 382.51 112.11 382.51 112.11 424.19 13.89 424.19 13.89 336.31 112.11 336.31 112.11 340.93 117.84 340.93 117.84 330.59 13.89 330.59 13.89 153.92 17.31 153.92"></polygon><polygon class="cls-16" points="158.26 153.92 158.26 148.1 166.35 148.1 166.35 120.93 194.71 120.93 194.71 336.31 179.1 336.31 179.1 340.93 173.28 340.93 173.28 330.59 188.89 330.59 188.89 209.36 166.35 209.36 166.35 153.92 158.26 153.92"></polygon><polygon class="cls-12" points="158.26 153.92 158.26 148.1 166.35 148.1 166.35 120.93 194.71 120.93 194.71 336.31 179.1 336.31 179.1 340.93 173.28 340.93 173.28 330.59 188.89 330.59 188.89 209.36 166.35 209.36 166.35 153.92 158.26 153.92"></polygon><path class="cls-18" d="M413.93,548.94c.02-.08.07-.14.14-.14s.13.06.14.14c.56,3.3,2.74,4.94,6.02,4.94h3.83c1.16,0,1.98,1.01,2.21,2.66.05.33-.23.61-.47.45-.46-.31-1.06-.47-1.78-.47h-3.48c-2.95,0-5.21-1.67-6.17-4.98-.11-.37-.5-.37-.61,0-.96,3.31-3.22,4.98-6.18,4.98h-3.48c-.72,0-1.31.16-1.78.47-.23.16-.51-.12-.47-.45.22-1.64,1.05-2.66,2.2-2.66h3.84c3.29,0,5.46-1.64,6.02-4.95h0Z"></path><path class="cls-13" d="M413.93,548.94c.02-.08.07-.14.14-.14s.13.06.14.14c.56,3.3,2.74,4.94,6.02,4.94h3.83c1.16,0,1.98,1.01,2.21,2.66.05.33-.23.61-.47.45-.46-.31-1.06-.47-1.78-.47h-3.48c-2.95,0-5.21-1.67-6.17-4.98-.11-.37-.5-.37-.61,0-.96,3.31-3.22,4.98-6.18,4.98h-3.48c-.72,0-1.31.16-1.78.47-.23.16-.51-.12-.47-.45.22-1.64,1.05-2.66,2.2-2.66h3.84c3.29,0,5.46-1.64,6.02-4.95h0Z"></path></g><g><path class="cls-16" d="M49.01,237.76h2.52c1.9,0,2.97.89,2.97,2.53s-1.07,2.54-2.97,2.54h-1.72v3.99h-.8v-9.06ZM51.45,242.11c1.41,0,2.24-.61,2.24-1.81s-.81-1.81-2.24-1.81h-1.64v3.62h1.64Z"></path><path class="cls-16" d="M56.02,240.41h.78v1.09c.43-.78,1.31-1.18,2.02-1.18.33,0,.66.07.99.24l-.39.7c-.21-.1-.51-.17-.77-.17-.68,0-1.46.36-1.74,1.3-.08.27-.12.57-.12,1.27v3.15h-.78v-6.41Z"></path><path class="cls-16" d="M61.07,237.76h.94v1.39h-.94v-1.39ZM61.16,240.41h.77v6.41h-.77v-6.41Z"></path><path class="cls-16" d="M63.96,240.41h.78v1.1c.38-.85,1.11-1.19,1.88-1.19.91,0,1.57.4,1.89,1.25.4-.83,1.09-1.25,2-1.25,1.55,0,2.13,1.16,2.13,2.69v3.82h-.78v-3.64c0-1.33-.39-2.18-1.52-2.18-1.02,0-1.65.77-1.65,2.26v3.57h-.78v-3.76c0-1.4-.52-2.07-1.5-2.07-1.03,0-1.67.79-1.67,2.26v3.57h-.78v-6.41Z"></path><path class="cls-16" d="M78.79,245.62c-.43.82-1.25,1.29-2.25,1.29-1.44,0-2.31-.77-2.31-1.94,0-.69.29-1.16.72-1.44.46-.31,1.09-.42,1.77-.42h2.05v-.28c0-1.19-.62-1.83-1.82-1.83-.79,0-1.4.29-1.98,1.02l-.56-.48c.68-.85,1.53-1.22,2.59-1.22,1.63,0,2.54.89,2.54,2.51v3.99h-.71l-.04-1.2ZM76.61,246.27c1.18,0,2.17-.93,2.17-2.2v-.36h-1.95c-.51,0-1.03.08-1.37.33-.28.21-.44.51-.44.94,0,.79.6,1.3,1.6,1.3Z"></path><path class="cls-16" d="M81.5,240.41h.78v1.09c.43-.78,1.31-1.18,2.02-1.18.33,0,.66.07.99.24l-.39.7c-.21-.1-.51-.17-.77-.17-.68,0-1.46.36-1.74,1.3-.08.27-.12.57-.12,1.27v3.15h-.78v-6.41Z"></path><path class="cls-16" d="M88.55,246.62l-2.55-6.21h.86l2.1,5.42,2.11-5.42h.85l-3.69,9.05h-.84l1.17-2.84Z"></path><path class="cls-16" d="M96.81,237.76h2.72c1.68,0,2.68.84,2.68,2.25,0,.94-.46,1.68-1.24,2,1.1.25,1.7,1.07,1.7,2.31,0,1.61-1.02,2.5-2.88,2.5h-2.97v-9.06ZM99.79,241.76c.98,0,1.63-.64,1.63-1.64s-.69-1.61-1.88-1.61h-1.91v3.26h2.16ZM99.73,246.07c1.42,0,2.14-.6,2.14-1.79,0-1.13-.66-1.79-1.79-1.79h-2.46v3.58h2.11Z"></path><path class="cls-16" d="M104.14,243.66c0-1.84.99-3.34,2.81-3.34,1.96,0,2.76,1.53,2.76,2.94,0,.1-.01.4-.04.55h-4.76c.03,1.51.84,2.39,2.14,2.39.82,0,1.35-.23,1.91-.83l.55.49c-.73.75-1.43,1.05-2.46,1.05-1.89,0-2.91-1.41-2.91-3.25ZM108.96,243.23c0-.08,0-.16,0-.24,0-.92-.58-2.02-2-2.02-1.23,0-1.98.98-2.07,2.26h4.06Z"></path><path class="cls-16" d="M111.12,243.61c0-1.96,1.29-3.29,2.92-3.29,1.05,0,1.87.54,2.29,1.36v-3.92h.77v9.06h-.77v-1.26c-.44.85-1.25,1.35-2.29,1.35-1.72,0-2.92-1.42-2.92-3.3ZM114.16,246.19c1.3,0,2.23-1.08,2.23-2.58s-.93-2.58-2.23-2.58-2.26,1.09-2.26,2.58.95,2.58,2.26,2.58Z"></path><path class="cls-16" d="M119.14,240.41h.78v1.09c.43-.78,1.31-1.18,2.02-1.18.33,0,.66.07.99.24l-.39.7c-.21-.1-.51-.17-.77-.17-.68,0-1.46.36-1.74,1.3-.08.27-.12.57-.12,1.27v3.15h-.78v-6.41Z"></path><path class="cls-16" d="M123.52,243.61c0-1.92,1.25-3.29,3.05-3.29s3.04,1.37,3.04,3.29-1.27,3.3-3.04,3.3-3.05-1.36-3.05-3.3ZM126.57,246.22c1.37,0,2.26-1.04,2.26-2.61s-.9-2.61-2.26-2.61-2.28,1.05-2.28,2.61.9,2.61,2.28,2.61Z"></path><path class="cls-16" d="M131.05,243.61c0-1.92,1.25-3.29,3.05-3.29s3.04,1.37,3.04,3.29-1.27,3.3-3.04,3.3-3.05-1.36-3.05-3.3ZM134.1,246.22c1.37,0,2.26-1.04,2.26-2.61s-.9-2.61-2.26-2.61-2.28,1.05-2.28,2.61.9,2.61,2.28,2.61Z"></path><path class="cls-16" d="M138.89,240.41h.78v1.1c.38-.85,1.11-1.19,1.88-1.19.91,0,1.57.4,1.89,1.25.4-.83,1.09-1.25,2-1.25,1.55,0,2.13,1.16,2.13,2.69v3.82h-.78v-3.64c0-1.33-.39-2.18-1.52-2.18-1.02,0-1.65.77-1.65,2.26v3.57h-.78v-3.76c0-1.4-.52-2.07-1.5-2.07-1.03,0-1.67.79-1.67,2.26v3.57h-.78v-6.41Z"></path></g><g><path class="cls-16" d="M243.23,178.84h.81v8.33h4.18v.73h-4.99v-9.06Z"></path><path class="cls-16" d="M249.36,178.84h.94v1.39h-.94v-1.39ZM249.44,181.49h.77v6.41h-.77v-6.41Z"></path><path class="cls-16" d="M251.61,181.49h.86l2.1,5.42,2.11-5.42h.85l-2.61,6.41h-.68l-2.63-6.41Z"></path><path class="cls-16" d="M258.87,178.84h.94v1.39h-.94v-1.39ZM258.95,181.49h.77v6.41h-.77v-6.41Z"></path><path class="cls-16" d="M261.76,181.49h.78v1.05c.4-.76,1.12-1.14,2.01-1.14,1.38,0,2.2.81,2.2,2.51v3.99h-.78v-3.71c0-1.45-.55-2.11-1.61-2.11-1.16,0-1.83.79-1.83,2.55v3.27h-.78v-6.41Z"></path><path class="cls-16" d="M268.21,188.66s0-.1.03-.26l1.11-.88c-.57-.22-.96-.59-.96-1.26,0-.53.27-.9.72-1.2-.36-.37-.56-.87-.56-1.45,0-1.3,1.04-2.2,2.38-2.2.64,0,1.22.21,1.64.59l1.02-.86.4.49-1,.88c.19.33.3.71.3,1.14,0,1.28-.96,2.13-2.33,2.13-.53,0-.99-.12-1.37-.34-.31.18-.45.42-.45.72,0,.66.63.83,1.62.98,1.6.25,2.99.44,2.99,1.75,0,1.16-1.05,1.78-2.7,1.78-1.82,0-2.85-.7-2.85-2ZM271.07,190.05c1.09,0,1.92-.34,1.92-1.08,0-.86-1.16-.96-2.31-1.14-.31-.05-.6-.1-.89-.17l-.8.92c-.01.09-.01.11-.01.15,0,.9.79,1.33,2.09,1.33ZM270.94,185.13c.98,0,1.59-.65,1.59-1.53s-.64-1.56-1.58-1.56-1.62.65-1.62,1.55.63,1.55,1.61,1.55Z"></path><path class="cls-16" d="M278.7,178.84h2.52c1.99,0,2.97.93,2.97,2.5,0,1.25-.64,2.07-1.85,2.38l2.44,4.19h-.92l-2.34-4.07c-.21,0-.44,0-.65,0h-1.36v4.06h-.81v-9.06ZM281.14,183.12c1.38,0,2.24-.55,2.24-1.78s-.88-1.77-2.24-1.77h-1.64v3.56h1.64Z"></path><path class="cls-16" d="M285.7,184.69c0-1.92,1.25-3.29,3.05-3.29s3.04,1.37,3.04,3.29-1.27,3.3-3.04,3.3-3.05-1.36-3.05-3.3ZM288.75,187.3c1.37,0,2.26-1.04,2.26-2.61s-.9-2.61-2.26-2.61-2.28,1.05-2.28,2.61.9,2.61,2.28,2.61Z"></path><path class="cls-16" d="M293.24,184.69c0-1.92,1.25-3.29,3.05-3.29s3.04,1.37,3.04,3.29-1.27,3.3-3.04,3.3-3.05-1.36-3.05-3.3ZM296.29,187.3c1.37,0,2.26-1.04,2.26-2.61s-.9-2.61-2.26-2.61-2.28,1.05-2.28,2.61.9,2.61,2.28,2.61Z"></path><path class="cls-16" d="M301.08,181.49h.78v1.1c.38-.85,1.11-1.19,1.88-1.19.91,0,1.57.4,1.89,1.25.4-.83,1.09-1.25,2-1.25,1.55,0,2.13,1.16,2.13,2.69v3.82h-.78v-3.64c0-1.33-.39-2.18-1.52-2.18-1.02,0-1.65.77-1.65,2.26v3.57h-.78v-3.76c0-1.4-.52-2.07-1.5-2.07-1.03,0-1.67.79-1.67,2.26v3.57h-.78v-6.41Z"></path></g><g><path class="cls-16" d="M416.63,178.84h2.72c1.68,0,2.68.84,2.68,2.25,0,.94-.46,1.68-1.24,2,1.1.25,1.7,1.07,1.7,2.31,0,1.61-1.02,2.5-2.88,2.5h-2.97v-9.06ZM419.6,182.84c.98,0,1.63-.64,1.63-1.64s-.69-1.61-1.88-1.61h-1.91v3.26h2.16ZM419.55,187.15c1.42,0,2.14-.6,2.14-1.79,0-1.13-.66-1.79-1.79-1.79h-2.46v3.58h2.11Z"></path><path class="cls-16" d="M423.93,184.74c0-1.84.99-3.34,2.81-3.34,1.96,0,2.76,1.53,2.76,2.94,0,.1-.01.4-.04.55h-4.76c.03,1.51.84,2.39,2.14,2.39.82,0,1.35-.23,1.91-.83l.55.49c-.73.75-1.43,1.05-2.46,1.05-1.89,0-2.91-1.41-2.91-3.25ZM428.75,184.31c0-.08,0-.16,0-.24,0-.92-.58-2.02-2-2.02-1.23,0-1.98.98-2.07,2.26h4.06Z"></path><path class="cls-16" d="M430.9,184.69c0-1.96,1.29-3.29,2.92-3.29,1.05,0,1.87.54,2.29,1.36v-3.92h.77v9.06h-.77v-1.26c-.44.85-1.25,1.35-2.29,1.35-1.72,0-2.92-1.42-2.92-3.3ZM433.94,187.27c1.3,0,2.23-1.08,2.23-2.58s-.93-2.58-2.23-2.58-2.26,1.09-2.26,2.58.95,2.58,2.26,2.58Z"></path><path class="cls-16" d="M438.91,181.49h.78v1.09c.43-.78,1.31-1.18,2.02-1.18.33,0,.66.07.99.24l-.39.7c-.21-.1-.51-.17-.77-.17-.68,0-1.46.36-1.74,1.3-.08.27-.12.57-.12,1.27v3.15h-.78v-6.41Z"></path><path class="cls-16" d="M443.3,184.69c0-1.92,1.25-3.29,3.05-3.29s3.04,1.37,3.04,3.29-1.27,3.3-3.04,3.3-3.05-1.36-3.05-3.3ZM446.34,187.3c1.37,0,2.26-1.04,2.26-2.61s-.9-2.61-2.26-2.61-2.28,1.05-2.28,2.61.9,2.61,2.28,2.61Z"></path><path class="cls-16" d="M450.83,184.69c0-1.92,1.25-3.29,3.05-3.29s3.04,1.37,3.04,3.29-1.27,3.3-3.04,3.3-3.05-1.36-3.05-3.3ZM453.88,187.3c1.37,0,2.26-1.04,2.26-2.61s-.9-2.61-2.26-2.61-2.28,1.05-2.28,2.61.9,2.61,2.28,2.61Z"></path><path class="cls-16" d="M458.67,181.49h.78v1.1c.38-.85,1.11-1.19,1.88-1.19.91,0,1.57.4,1.89,1.25.4-.83,1.09-1.25,2-1.25,1.55,0,2.13,1.16,2.13,2.69v3.82h-.78v-3.64c0-1.33-.39-2.18-1.52-2.18-1.02,0-1.65.77-1.65,2.26v3.57h-.78v-3.76c0-1.4-.52-2.07-1.5-2.07-1.03,0-1.67.79-1.67,2.26v3.57h-.78v-6.41Z"></path></g><g><path class="cls-16" d="M241.83,317.99h2.43c2.94,0,4.62,1.68,4.62,4.6s-1.64,4.46-4.63,4.46h-2.42v-9.06ZM244.18,326.3c2.5,0,3.89-1.16,3.89-3.74s-1.4-3.83-3.82-3.83h-1.61v7.57h1.54Z"></path><path class="cls-16" d="M250.49,317.99h.94v1.39h-.94v-1.39ZM250.58,320.64h.77v6.41h-.77v-6.41Z"></path><path class="cls-16" d="M253.39,320.64h.78v1.05c.4-.76,1.12-1.14,2.01-1.14,1.38,0,2.2.81,2.2,2.51v3.99h-.78v-3.71c0-1.45-.55-2.11-1.61-2.11-1.16,0-1.83.79-1.83,2.55v3.27h-.78v-6.41Z"></path><path class="cls-16" d="M260.26,317.99h.94v1.39h-.94v-1.39ZM260.35,320.64h.77v6.41h-.77v-6.41Z"></path><path class="cls-16" d="M263.15,320.64h.78v1.05c.4-.76,1.12-1.14,2.01-1.14,1.38,0,2.2.81,2.2,2.51v3.99h-.78v-3.71c0-1.45-.55-2.11-1.61-2.11-1.16,0-1.83.79-1.83,2.55v3.27h-.78v-6.41Z"></path><path class="cls-16" d="M269.61,327.81s0-.1.03-.26l1.11-.88c-.57-.22-.96-.59-.96-1.26,0-.53.27-.9.72-1.2-.36-.37-.56-.87-.56-1.45,0-1.3,1.04-2.2,2.39-2.2.64,0,1.22.21,1.64.58l1.02-.86.4.49-1,.88c.19.33.3.71.3,1.14,0,1.28-.96,2.13-2.33,2.13-.53,0-.99-.12-1.37-.34-.31.17-.45.42-.45.71,0,.66.63.83,1.62.98,1.6.25,2.99.44,2.99,1.75,0,1.16-1.05,1.78-2.7,1.78-1.82,0-2.85-.7-2.85-2ZM272.47,329.2c1.09,0,1.92-.34,1.92-1.08,0-.86-1.16-.96-2.31-1.14-.31-.05-.6-.1-.89-.17l-.8.92c-.01.09-.01.11-.01.15,0,.9.79,1.33,2.09,1.33ZM272.34,324.27c.98,0,1.59-.65,1.59-1.53s-.64-1.56-1.58-1.56-1.62.65-1.62,1.55.63,1.55,1.61,1.55Z"></path><path class="cls-16" d="M280.09,317.99h2.52c1.99,0,2.97.93,2.97,2.5,0,1.25-.64,2.07-1.85,2.38l2.44,4.19h-.92l-2.34-4.07c-.21,0-.44,0-.65,0h-1.36v4.06h-.81v-9.06ZM282.54,322.27c1.38,0,2.24-.55,2.24-1.78s-.88-1.77-2.24-1.77h-1.64v3.56h1.64Z"></path><path class="cls-16" d="M287.1,323.84c0-1.92,1.25-3.29,3.05-3.29s3.04,1.37,3.04,3.29-1.27,3.3-3.04,3.3-3.05-1.37-3.05-3.3ZM290.15,326.45c1.37,0,2.26-1.04,2.26-2.61s-.9-2.61-2.26-2.61-2.28,1.05-2.28,2.61.9,2.61,2.28,2.61Z"></path><path class="cls-16" d="M294.63,323.84c0-1.92,1.25-3.29,3.05-3.29s3.04,1.37,3.04,3.29-1.27,3.3-3.04,3.3-3.05-1.37-3.05-3.3ZM297.68,326.45c1.37,0,2.26-1.04,2.26-2.61s-.9-2.61-2.26-2.61-2.28,1.05-2.28,2.61.9,2.61,2.28,2.61Z"></path><path class="cls-16" d="M302.47,320.64h.78v1.1c.38-.84,1.11-1.19,1.88-1.19.91,0,1.57.4,1.89,1.25.4-.83,1.09-1.25,2-1.25,1.55,0,2.13,1.16,2.13,2.68v3.82h-.78v-3.64c0-1.33-.39-2.18-1.52-2.18-1.02,0-1.65.77-1.65,2.26v3.57h-.78v-3.76c0-1.4-.52-2.07-1.5-2.07-1.03,0-1.67.79-1.67,2.26v3.57h-.78v-6.41Z"></path></g><g><path class="cls-16" d="M76.2,71.62h2.43c2.94,0,4.62,1.68,4.62,4.6s-1.64,4.46-4.63,4.46h-2.42v-9.06ZM78.55,79.93c2.5,0,3.89-1.16,3.89-3.74s-1.4-3.83-3.82-3.83h-1.61v7.57h1.54Z"></path><path class="cls-16" d="M84.7,77.52c0-1.84.99-3.34,2.81-3.34,1.96,0,2.76,1.53,2.76,2.94,0,.1-.01.4-.04.55h-4.76c.03,1.51.84,2.39,2.14,2.39.82,0,1.35-.23,1.91-.83l.55.49c-.73.75-1.43,1.05-2.46,1.05-1.89,0-2.91-1.41-2.91-3.25ZM89.52,77.09c0-.08,0-.16,0-.24,0-.92-.58-2.02-2-2.02-1.23,0-1.98.98-2.07,2.26h4.06Z"></path><path class="cls-16" d="M91.68,77.47c0-1.83,1.06-3.29,2.86-3.29,1.17,0,2.09.58,2.51,1.74l-.7.27c-.27-.82-.9-1.33-1.81-1.33-1.42,0-2.09,1.25-2.09,2.61s.68,2.62,2.09,2.62c.91,0,1.53-.51,1.81-1.33l.7.27c-.42,1.16-1.34,1.75-2.51,1.75-1.8,0-2.86-1.46-2.86-3.3Z"></path><path class="cls-16" d="M100.75,77.15l-1.3,1.37v2.16h-.78v-9.06h.78v5.9l3.15-3.24h1.01l-2.28,2.35,2.67,4.06h-.92l-2.31-3.53Z"></path></g><g><path class="cls-16" d="M260.66,450.68h.81v4.86l4.65-4.86h1.09l-3.45,3.54,3.48,5.52h-.95l-3.11-4.93-1.71,1.75v3.17h-.81v-9.06Z"></path><path class="cls-16" d="M268.39,450.68h.94v1.39h-.94v-1.39ZM268.47,453.34h.77v6.41h-.77v-6.41Z"></path><path class="cls-16" d="M272.04,458.26v-4.31h-1.42v-.62h1.42v-1.85l.79-.46v2.31h1.54v.62h-1.54v4.12c0,.71.22,1.11.81,1.11.19,0,.46-.04.73-.12v.62c-.32.1-.64.16-.92.16-.85,0-1.4-.49-1.4-1.57Z"></path><path class="cls-16" d="M275.39,456.53c0-1.83,1.06-3.29,2.86-3.29,1.17,0,2.09.58,2.51,1.74l-.7.27c-.27-.82-.9-1.33-1.81-1.33-1.42,0-2.09,1.25-2.09,2.61s.68,2.62,2.09,2.62c.91,0,1.53-.51,1.81-1.33l.7.27c-.42,1.16-1.34,1.75-2.51,1.75-1.8,0-2.86-1.46-2.86-3.3Z"></path><path class="cls-16" d="M282.39,450.68h.78v3.69c.4-.75,1.1-1.13,2.01-1.13,1.4,0,2.2.85,2.2,2.51v3.99h-.78v-3.71c0-1.43-.53-2.11-1.61-2.11-1.18,0-1.83.83-1.83,2.55v3.27h-.78v-9.06Z"></path><path class="cls-16" d="M289.02,456.59c0-1.84.99-3.34,2.81-3.34,1.96,0,2.76,1.53,2.76,2.94,0,.1-.01.4-.04.55h-4.76c.03,1.51.84,2.39,2.14,2.39.82,0,1.35-.23,1.91-.83l.55.49c-.73.75-1.43,1.05-2.46,1.05-1.89,0-2.91-1.41-2.91-3.25ZM293.84,456.16c0-.08,0-.16,0-.24,0-.92-.58-2.01-2-2.01-1.23,0-1.98.98-2.07,2.26h4.06Z"></path><path class="cls-16" d="M296.33,453.34h.78v1.05c.4-.76,1.12-1.14,2.01-1.14,1.38,0,2.2.81,2.2,2.51v3.99h-.78v-3.71c0-1.45-.55-2.11-1.61-2.11-1.16,0-1.83.79-1.83,2.55v3.27h-.78v-6.41Z"></path></g><g><path class="cls-16" d="M394.38,436.26h5.86v.73h-5.06v3.37h4.39v.73h-4.39v4.24h-.81v-9.06Z"></path><path class="cls-16" d="M400.97,442.11c0-1.92,1.25-3.29,3.05-3.29s3.04,1.37,3.04,3.29-1.27,3.3-3.04,3.3-3.05-1.37-3.05-3.3ZM404.02,444.72c1.37,0,2.26-1.04,2.26-2.61s-.9-2.61-2.26-2.61-2.28,1.05-2.28,2.61.9,2.61,2.28,2.61Z"></path><path class="cls-16" d="M410.54,445.12l-2.55-6.21h.86l2.1,5.42,2.11-5.42h.85l-3.69,9.05h-.84l1.17-2.84Z"></path><path class="cls-16" d="M414.87,442.16c0-1.84.99-3.34,2.81-3.34,1.96,0,2.76,1.53,2.76,2.94,0,.1-.01.4-.04.55h-4.76c.03,1.51.84,2.39,2.14,2.39.82,0,1.35-.23,1.91-.83l.55.49c-.73.75-1.43,1.05-2.46,1.05-1.89,0-2.91-1.41-2.91-3.25ZM419.68,441.73c0-.08,0-.16,0-.24,0-.92-.58-2.01-2-2.01-1.23,0-1.98.98-2.07,2.26h4.06Z"></path><path class="cls-16" d="M422.16,438.91h.78v1.09c.43-.78,1.31-1.18,2.02-1.18.33,0,.66.07.99.24l-.39.7c-.21-.1-.51-.17-.77-.17-.68,0-1.46.36-1.74,1.3-.08.27-.12.57-.12,1.27v3.15h-.78v-6.41Z"></path></g><g><path class="cls-16" d="M53.99,376.86h.65l1.71,6.06,1.76-5.7h.63l1.76,5.7,1.7-6.06h.65l-2.01,6.98h-.63l-1.79-5.71-1.79,5.71h-.64l-2.01-6.98Z"></path><path class="cls-16" d="M64,376.86h.62v6.98h-.62v-6.98Z"></path><path class="cls-16" d="M66.05,380.34c0-2.16,1.26-3.58,3.16-3.58,1.35,0,2.39.71,2.84,1.89l-.58.22c-.38-.96-1.17-1.52-2.26-1.52-1.55,0-2.54,1.17-2.54,2.99s.99,3,2.54,3c1.09,0,1.89-.56,2.26-1.52l.58.21c-.45,1.18-1.49,1.9-2.84,1.9-1.89,0-3.16-1.42-3.16-3.59Z"></path></g><path class="cls-16" d="M469.7,423.94h.65l1.71,6.06,1.76-5.7h.63l1.76,5.7,1.7-6.06h.65l-2.01,6.98h-.63l-1.79-5.71-1.79,5.71h-.64l-2.01-6.98Z"></path><path class="cls-16" d="M481.97,422.94h.48l-3.55,9.08h-.48l3.55-9.08Z"></path><path class="cls-16" d="M483.68,423.94h1.87c2.26,0,3.56,1.29,3.56,3.54s-1.27,3.43-3.57,3.43h-1.86v-6.98ZM485.48,430.34c1.92,0,2.99-.89,2.99-2.88s-1.08-2.95-2.94-2.95h-1.24v5.83h1.19Z"></path><path class="cls-16" d="M333.92,495.37c0-2.17,1.27-3.59,3.16-3.59s3.18,1.42,3.18,3.59-1.27,3.58-3.18,3.58-3.16-1.42-3.16-3.58ZM337.08,498.36c1.57,0,2.55-1.16,2.55-2.99s-.99-3-2.55-3-2.54,1.15-2.54,3,.99,2.99,2.54,2.99Z"></path><path class="cls-16" d="M343.95,490.88h.48l-3.55,9.08h-.47l3.55-9.08Z"></path><path class="cls-16" d="M345.65,491.88h.93l2.35,5.66,2.35-5.66h.92v6.98h-.62v-6.16l-2.35,5.59h-.61l-2.36-5.59v6.16h-.62v-6.98Z"></path><g><path class="cls-16" d="M195.48,491.88h1.94c1.53,0,2.29.72,2.29,1.92,0,.97-.5,1.6-1.43,1.83l1.88,3.22h-.71l-1.8-3.13c-.16,0-.34,0-.5,0h-1.05v3.13h-.62v-6.98ZM197.36,495.18c1.06,0,1.73-.42,1.73-1.37s-.68-1.37-1.73-1.37h-1.26v2.74h1.26Z"></path><path class="cls-16" d="M201.33,491.88h4.56v.56h-3.94v2.59h3.53v.56h-3.53v2.7h3.94v.56h-4.56v-6.98Z"></path><path class="cls-16" d="M207.19,491.88h4.51v.56h-3.89v2.59h3.38v.56h-3.38v3.26h-.62v-6.98Z"></path></g><g><path class="cls-16" d="M232.28,412.48h.65l1.71,6.06,1.76-5.7h.63l1.76,5.7,1.7-6.06h.65l-2.01,6.98h-.63l-1.79-5.71-1.79,5.71h-.64l-2.01-6.98Z"></path><path class="cls-16" d="M242.29,412.48h4.51v.56h-3.89v2.59h3.38v.56h-3.38v3.26h-.62v-6.98Z"></path></g><g><path class="cls-16" d="M314.79,412.48h1.87c2.26,0,3.56,1.29,3.56,3.54s-1.27,3.43-3.57,3.43h-1.86v-6.98ZM316.6,418.88c1.92,0,2.99-.89,2.99-2.88s-1.08-2.95-2.94-2.95h-1.24v5.83h1.19Z"></path><path class="cls-16" d="M320.88,412.48h.65l1.71,6.06,1.76-5.7h.63l1.76,5.7,1.7-6.06h.65l-2.01,6.98h-.63l-1.79-5.71-1.79,5.71h-.64l-2.01-6.98Z"></path></g><polyline class="cls-1" points="460.21 48.33 446.06 48.33 439.22 65.04"></polyline><path class="cls-19" d="M437.69,68.78l4.06-4.47s-2.53.73-3.82-1.57l-.24,6.03Z"></path><g><path class="cls-20" d="M466.65,45.17h1.67c1.03,0,1.65.52,1.65,1.38,0,.58-.28,1.03-.76,1.23.68.16,1.04.66,1.04,1.42,0,.99-.63,1.54-1.77,1.54h-1.83v-5.57ZM468.48,47.63c.6,0,1-.39,1-1.01s-.42-.99-1.16-.99h-1.17v2h1.33ZM468.45,50.28c.88,0,1.32-.37,1.32-1.1,0-.7-.41-1.1-1.1-1.1h-1.51v2.2h1.3Z"></path><path class="cls-20" d="M471.32,49.25v-2.45h.47v2.28c0,.89.34,1.3,1,1.3.71,0,1.13-.48,1.13-1.57v-2.01h.48v3.94h-.48v-.65c-.25.47-.7.7-1.25.7-.84,0-1.35-.51-1.35-1.55Z"></path><path class="cls-20" d="M475.67,45.17h.58v.86h-.58v-.86ZM475.73,46.8h.47v3.94h-.47v-3.94Z"></path><path class="cls-20" d="M477.54,49.92v-4.75h.48v4.67c0,.37.14.52.39.52.1,0,.24-.02.38-.07v.41c-.18.07-.37.1-.52.1-.44,0-.72-.27-.72-.88Z"></path><path class="cls-20" d="M479.4,48.76c0-1.21.79-2.02,1.8-2.02.64,0,1.15.33,1.41.84v-2.41h.47v5.57h-.47v-.78c-.27.52-.77.83-1.41.83-1.06,0-1.8-.88-1.8-2.03ZM481.27,50.35c.8,0,1.37-.66,1.37-1.59s-.57-1.59-1.37-1.59-1.39.67-1.39,1.59.58,1.59,1.39,1.59Z"></path><path class="cls-20" d="M484.36,45.17h.58v.86h-.58v-.86ZM484.41,46.8h.47v3.94h-.47v-3.94Z"></path><path class="cls-20" d="M486.22,46.8h.48v.64c.25-.47.69-.7,1.24-.7.85,0,1.36.5,1.36,1.54v2.45h-.48v-2.28c0-.89-.34-1.3-.99-1.3-.71,0-1.13.48-1.13,1.57v2.01h-.48v-3.94Z"></path><path class="cls-20" d="M490.27,51.21s0-.06.02-.16l.68-.54c-.35-.14-.59-.36-.59-.78,0-.32.16-.55.44-.74-.22-.23-.34-.54-.34-.89,0-.8.64-1.35,1.47-1.35.4,0,.75.13,1.01.36l.63-.53.24.3-.62.54c.12.2.18.44.18.7,0,.79-.59,1.31-1.44,1.31-.32,0-.61-.08-.84-.21-.19.11-.28.26-.28.44,0,.41.39.51,1,.6.98.15,1.84.27,1.84,1.08,0,.72-.64,1.1-1.66,1.1-1.12,0-1.75-.43-1.75-1.23ZM492.03,52.06c.67,0,1.18-.21,1.18-.66,0-.53-.71-.59-1.42-.7-.19-.03-.37-.06-.55-.1l-.49.56c0,.06,0,.07,0,.09,0,.55.49.82,1.29.82ZM491.95,49.03c.6,0,.98-.4.98-.94s-.39-.96-.97-.96-1,.4-1,.95.39.95.99.95Z"></path><path class="cls-20" d="M498.43,45.17h.42l2.05,5.57h-.54l-.51-1.45h-2.42l-.51,1.45h-.55l2.05-5.57ZM499.7,48.84l-1.05-2.99-1.06,2.99h2.11Z"></path><path class="cls-20" d="M502.22,49.96v.78h-.47v-5.57h.47v2.41c.26-.5.77-.84,1.41-.84,1,0,1.79.82,1.79,2.02s-.74,2.03-1.79,2.03c-.64,0-1.14-.31-1.41-.83ZM503.56,50.35c.81,0,1.39-.67,1.39-1.59s-.58-1.59-1.39-1.59-1.37.66-1.37,1.59.57,1.59,1.37,1.59Z"></path><path class="cls-20" d="M506.37,48.76c0-1.18.77-2.02,1.88-2.02s1.87.84,1.87,2.02-.78,2.03-1.87,2.03-1.88-.84-1.88-2.03ZM508.24,50.37c.84,0,1.39-.64,1.39-1.6s-.55-1.6-1.39-1.6-1.4.64-1.4,1.6.56,1.6,1.4,1.6Z"></path><path class="cls-20" d="M510.77,46.8h.53l1.29,3.33,1.3-3.33h.52l-1.61,3.94h-.42l-1.61-3.94Z"></path><path class="cls-20" d="M515.09,48.8c0-1.13.61-2.05,1.73-2.05,1.21,0,1.7.94,1.7,1.81,0,.06,0,.24-.02.34h-2.93c.02.93.52,1.47,1.32,1.47.5,0,.83-.14,1.17-.51l.34.3c-.45.46-.88.65-1.51.65-1.16,0-1.79-.87-1.79-2ZM518.05,48.53s0-.1,0-.15c0-.57-.36-1.24-1.23-1.24-.75,0-1.22.6-1.27,1.39h2.49Z"></path></g><g><path class="cls-20" d="M358.21.19h.5v5.12h2.57v.45h-3.07V.19Z"></path><path class="cls-20" d="M364.74,5.03c-.26.5-.77.8-1.38.8-.88,0-1.42-.48-1.42-1.2,0-.42.18-.71.44-.89.28-.19.67-.26,1.09-.26h1.26v-.17c0-.73-.38-1.13-1.12-1.13-.48,0-.86.18-1.22.63l-.34-.3c.42-.52.94-.75,1.59-.75,1,0,1.56.55,1.56,1.54v2.45h-.44l-.02-.74ZM363.4,5.43c.72,0,1.33-.57,1.33-1.35v-.22h-1.2c-.32,0-.63.05-.84.2-.17.13-.27.31-.27.58,0,.49.37.8.98.8Z"></path><path class="cls-20" d="M366.49,1.82h.48v.64c.25-.47.69-.7,1.24-.7.85,0,1.36.5,1.36,1.54v2.45h-.48v-2.28c0-.89-.34-1.3-.99-1.3-.71,0-1.13.48-1.13,1.57v2.01h-.48V1.82Z"></path><path class="cls-20" d="M370.63,3.79c0-1.21.79-2.02,1.8-2.02.64,0,1.15.33,1.41.84V.19h.47v5.57h-.47v-.78c-.27.52-.77.83-1.41.83-1.06,0-1.8-.88-1.8-2.03ZM372.5,5.38c.8,0,1.37-.66,1.37-1.59s-.57-1.59-1.37-1.59-1.39.67-1.39,1.59.58,1.59,1.39,1.59Z"></path><path class="cls-20" d="M375.22,4.92l.34-.28c.2.46.66.77,1.26.77.57,0,.95-.27.95-.72,0-.55-.53-.68-1.1-.82-.66-.16-1.23-.38-1.23-1.06,0-.62.53-1.05,1.29-1.05.6,0,1.1.26,1.37.76l-.37.21c-.21-.38-.57-.58-1.01-.58-.48,0-.84.24-.84.62,0,.4.36.54.93.68.67.16,1.43.34,1.43,1.2,0,.71-.56,1.17-1.42,1.17-.79,0-1.35-.4-1.6-.9Z"></path><path class="cls-20" d="M379.16,3.79c0-1.13.65-2.02,1.76-2.02.72,0,1.28.36,1.54,1.07l-.43.17c-.17-.5-.55-.82-1.11-.82-.87,0-1.29.77-1.29,1.61s.42,1.61,1.29,1.61c.56,0,.94-.31,1.11-.82l.43.16c-.26.71-.82,1.08-1.54,1.08-1.11,0-1.76-.9-1.76-2.03Z"></path><path class="cls-20" d="M386.12,5.03c-.26.5-.77.8-1.38.8-.88,0-1.42-.48-1.42-1.2,0-.42.18-.71.44-.89.28-.19.67-.26,1.09-.26h1.26v-.17c0-.73-.38-1.13-1.12-1.13-.48,0-.86.18-1.22.63l-.34-.3c.42-.52.94-.75,1.59-.75,1,0,1.56.55,1.56,1.54v2.45h-.44l-.02-.74ZM384.79,5.43c.72,0,1.33-.57,1.33-1.35v-.22h-1.2c-.32,0-.63.05-.84.2-.17.13-.27.31-.27.58,0,.49.37.8.98.8Z"></path><path class="cls-20" d="M391.56,3.8c0,1.21-.79,2.02-1.79,2.02-.64,0-1.15-.33-1.41-.84v2.41h-.47V1.82h.47v.78c.27-.52.77-.83,1.41-.83,1.06,0,1.79.88,1.79,2.03ZM389.69,5.39c.81,0,1.39-.67,1.39-1.59s-.58-1.59-1.39-1.59-1.37.66-1.37,1.59.57,1.59,1.37,1.59Z"></path><path class="cls-20" d="M392.54,3.82c0-1.13.61-2.06,1.73-2.06,1.21,0,1.7.94,1.7,1.81,0,.06,0,.24-.02.34h-2.93c.02.93.52,1.47,1.32,1.47.5,0,.83-.14,1.17-.51l.34.3c-.45.46-.88.65-1.51.65-1.16,0-1.79-.87-1.79-2ZM395.5,3.56s0-.1,0-.15c0-.57-.36-1.24-1.23-1.24-.75,0-1.22.6-1.27,1.39h2.49Z"></path><path class="cls-20" d="M396.91,3.79c0-1.21.79-2.02,1.8-2.02.64,0,1.15.33,1.41.84V.19h.47v5.57h-.47v-.78c-.27.52-.77.83-1.41.83-1.06,0-1.8-.88-1.8-2.03ZM398.78,5.38c.8,0,1.37-.66,1.37-1.59s-.57-1.59-1.37-1.59-1.39.67-1.39,1.59.58,1.59,1.39,1.59Z"></path><path class="cls-20" d="M404.14.19h1.55c1.22,0,1.83.57,1.83,1.54,0,.77-.4,1.27-1.14,1.46l1.5,2.57h-.57l-1.44-2.5c-.13,0-.27,0-.4,0h-.84v2.5h-.5V.19ZM405.64,2.83c.85,0,1.38-.34,1.38-1.1s-.54-1.09-1.38-1.09h-1.01v2.19h1.01Z"></path><path class="cls-20" d="M408.53,3.79c0-1.18.77-2.02,1.88-2.02s1.87.84,1.87,2.02-.78,2.03-1.87,2.03-1.88-.84-1.88-2.03ZM410.41,5.39c.84,0,1.39-.64,1.39-1.6s-.55-1.6-1.39-1.6-1.4.64-1.4,1.6.56,1.6,1.4,1.6Z"></path><path class="cls-20" d="M413.24,3.79c0-1.18.77-2.02,1.88-2.02s1.87.84,1.87,2.02-.78,2.03-1.87,2.03-1.88-.84-1.88-2.03ZM415.12,5.39c.84,0,1.39-.64,1.39-1.6s-.55-1.6-1.39-1.6-1.4.64-1.4,1.6.56,1.6,1.4,1.6Z"></path><path class="cls-20" d="M418.47,2.2h-.88v-.38h.88v-.57c0-.82.43-1.12,1.03-1.12.26,0,.47.05.66.15l-.16.36c-.14-.07-.28-.11-.45-.11-.4,0-.6.25-.6.71v.57h.97v.38h-.97v3.56h-.48v-3.56Z"></path></g></g></g></svg> 