<?xml version="1.0" encoding="UTF-8"?> <svg xmlns="http://www.w3.org/2000/svg" id="Layer_2" data-name="Layer 2" viewBox="0 0 591.55 648.76"><defs><style> .cls-1 { stroke-dasharray: 1.02 1.02; } .cls-1, .cls-2, .cls-3, .cls-4, .cls-5, .cls-6, .cls-7, .cls-8, .cls-9, .cls-10, .cls-11, .cls-12, .cls-13, .cls-14, .cls-15, .cls-16, .cls-17, .cls-18, .cls-19, .cls-20, .cls-21, .cls-22, .cls-23 { fill: none; } .cls-1, .cls-3, .cls-4, .cls-5, .cls-6, .cls-7, .cls-8, .cls-9, .cls-10, .cls-11, .cls-12, .cls-13, .cls-14, .cls-15, .cls-16, .cls-19, .cls-20, .cls-21, .cls-22, .cls-23 { stroke-linecap: round; stroke-linejoin: round; } .cls-1, .cls-4, .cls-5, .cls-7, .cls-8, .cls-9, .cls-10, .cls-11, .cls-12, .cls-13, .cls-14, .cls-19, .cls-20, .cls-23 { stroke: #55453d; stroke-width: .15px; } .cls-2 { stroke: #afa49f; } .cls-2, .cls-3, .cls-6, .cls-16, .cls-18, .cls-21 { stroke-width: .25px; } .cls-2, .cls-17, .cls-18 { stroke-miterlimit: 10; } .cls-3 { stroke-dasharray: 1.54 1.54; } .cls-3, .cls-6, .cls-16 { stroke: #75655e; } .cls-24 { fill: #3a2a22; } .cls-4 { stroke-dasharray: .63 .63; } .cls-5 { stroke-dasharray: 1.03 1.03; } .cls-6 { stroke-dasharray: 5.79 4.83; } .cls-7 { stroke-dasharray: .91 .91; } .cls-8 { stroke-dasharray: .84 .84; } .cls-9 { stroke-dasharray: 1.02 1.02; } .cls-11 { stroke-dasharray: 1.02 1.02; } .cls-12 { stroke-dasharray: 1.01 1.01; } .cls-25 { fill: #fff; } .cls-13 { stroke-dasharray: 1.03 1.03; } .cls-14 { stroke-dasharray: .62 .62; } .cls-15 { stroke-width: .5px; } .cls-15, .cls-17, .cls-21, .cls-22 { stroke: #3a2a22; } .cls-26 { fill: #bc8ebc; } .cls-17 { stroke-width: .75px; } .cls-18 { stroke: #bc8ebc; } .cls-27 { fill: #afa49f; } .cls-19 { stroke-dasharray: 1.03 1.03; } .cls-20 { stroke-dasharray: .97 .97; } .cls-22 { stroke-width: .35px; } .cls-28 { fill: #75655e; } .cls-23 { stroke-dasharray: 1.03 1.03; } </style></defs><g id="Layer_1-2" data-name="Layer 1"><g><polygon class="cls-25" points="211.08 114.93 234.45 113.05 270.12 110.46 305.69 108.34 341.36 106.58 377.12 105.1 412.78 104.09 448.45 103.35 484.21 103.07 519.88 103.07 555.63 103.53 591.3 104.27 591.3 239.54 587.44 239.54 587.44 628.38 127.34 628.38 127.34 574.05 69.59 574.05 69.59 129.54 90.88 127.01 91.8 135.04 104.35 133.65 116.83 132.24 149.44 128.73 182.06 125.59 199.53 124.06 211.72 122.94 211.08 114.93"></polygon><line class="cls-10" x1="189.18" y1="124.96" x2="189.14" y2="124.46"></line><line class="cls-11" x1="189.04" y1="123.45" x2="188.53" y2="117.84"></line><line class="cls-10" x1="188.48" y1="117.34" x2="188.44" y2="116.84"></line><line class="cls-10" x1="199.62" y1="124.04" x2="199.58" y2="123.54"></line><line class="cls-11" x1="199.49" y1="122.52" x2="198.97" y2="116.92"></line><line class="cls-10" x1="198.92" y1="116.41" x2="198.88" y2="115.91"></line><line class="cls-10" x1="181.7" y1="125.57" x2="181.65" y2="125.07"></line><line class="cls-9" x1="181.56" y1="124.06" x2="181.04" y2="118.49"></line><polyline class="cls-10" points="181 117.98 180.95 117.48 181.45 117.44"></polyline><polyline class="cls-12" points="182.45 117.35 188.44 116.84 198.88 115.91 210.08 115.01"></polyline><line class="cls-10" x1="210.58" y1="114.97" x2="211.08" y2="114.93"></line><line class="cls-10" x1="180.95" y1="117.48" x2="180.46" y2="117.54"></line><line class="cls-8" x1="179.62" y1="117.63" x2="176.69" y2="117.94"></line><line class="cls-10" x1="176.28" y1="117.99" x2="175.78" y2="118.04"></line><line class="cls-10" x1="176.46" y1="126.13" x2="176.42" y2="125.63"></line><line class="cls-9" x1="176.33" y1="124.61" x2="175.86" y2="119.04"></line><polyline class="cls-10" points="175.82 118.54 175.78 118.04 175.28 118.07"></polyline><line class="cls-14" x1="174.66" y1="118.11" x2="173.72" y2="118.17"></line><line class="cls-10" x1="173.41" y1="118.19" x2="172.91" y2="118.22"></line><line class="cls-10" x1="173.66" y1="126.4" x2="173.61" y2="125.9"></line><line class="cls-19" x1="173.52" y1="124.87" x2="173" y2="119.23"></line><polyline class="cls-10" points="172.96 118.72 172.91 118.22 172.27 118.32"></polyline><line class="cls-10" x1="173.11" y1="126.45" x2="173.06" y2="125.95"></line><line class="cls-1" x1="172.95" y1="124.93" x2="172.37" y2="119.32"></line><line class="cls-10" x1="172.32" y1="118.81" x2="172.27" y2="118.32"></line><line class="cls-10" x1="114.34" y1="132.52" x2="114.28" y2="132.02"></line><line class="cls-11" x1="114.17" y1="131.01" x2="113.52" y2="125.42"></line><line class="cls-10" x1="113.47" y1="124.91" x2="113.41" y2="124.41"></line><line class="cls-10" x1="104.18" y1="133.67" x2="104.13" y2="133.17"></line><line class="cls-23" x1="104.02" y1="132.15" x2="103.44" y2="126.53"></line><line class="cls-10" x1="103.39" y1="126.02" x2="103.34" y2="125.52"></line><line class="cls-10" x1="122.11" y1="131.67" x2="122.05" y2="131.17"></line><line class="cls-13" x1="121.93" y1="130.15" x2="121.29" y2="124.5"></line><line class="cls-10" x1="121.23" y1="123.99" x2="121.17" y2="123.49"></line><line class="cls-10" x1="127.56" y1="131.08" x2="127.5" y2="130.59"></line><line class="cls-23" x1="127.4" y1="129.56" x2="126.82" y2="123.94"></line><polyline class="cls-10" points="126.77 123.43 126.71 122.94 126.22 122.99"></polyline><line class="cls-7" x1="125.31" y1="123.08" x2="122.12" y2="123.39"></line><line class="cls-10" x1="121.67" y1="123.44" x2="121.17" y2="123.49"></line><line class="cls-10" x1="113.41" y1="124.41" x2="112.91" y2="124.47"></line><polyline class="cls-5" points="111.89 124.58 103.34 125.52 91.89 126.89"></polyline><line class="cls-10" x1="91.38" y1="126.95" x2="90.88" y2="127"></line><line class="cls-10" x1="121.17" y1="123.49" x2="120.67" y2="123.55"></line><line class="cls-20" x1="119.71" y1="123.66" x2="114.39" y2="124.3"></line><line class="cls-10" x1="113.9" y1="124.36" x2="113.41" y2="124.41"></line><line class="cls-10" x1="129.58" y1="122.66" x2="129.08" y2="122.71"></line><line class="cls-4" x1="128.46" y1="122.77" x2="127.52" y2="122.86"></line><line class="cls-10" x1="127.21" y1="122.89" x2="126.71" y2="122.94"></line><polyline class="cls-10" points="130.13 122.57 129.58 122.66 129.63 123.16"></polyline><line class="cls-11" x1="129.73" y1="124.17" x2="130.31" y2="129.77"></line><line class="cls-10" x1="130.37" y1="130.28" x2="130.42" y2="130.77"></line><line class="cls-10" x1="130.13" y1="122.57" x2="130.18" y2="123.06"></line><line class="cls-23" x1="130.29" y1="124.09" x2="130.87" y2="129.71"></line><line class="cls-10" x1="130.92" y1="130.22" x2="130.97" y2="130.71"></line><polygon class="cls-22" points="84.21 139.94 116.83 136.24 149.44 132.73 182.06 129.59 214.77 126.72 214.77 128.73 182.06 131.59 149.44 134.73 116.83 138.24 84.21 141.94 84.21 139.94"></polygon><g><path class="cls-10" d="M180.06,572.09c25.57,0,43.48,20.73,43.48,46.29"></path><path class="cls-10" d="M123.48,517.93c0-23.13,18.62-39.35,41.58-39.35"></path><path class="cls-10" d="M181.23,374.71c0-23.13,18.62-39.35,41.58-39.35"></path><path class="cls-10" d="M173.19,208.39c0-23.13,18.62-39.35,41.58-39.35"></path><path class="cls-10" d="M459.63,382.84c0-23.13-18.62-39.35-41.58-39.35"></path><path class="cls-10" d="M520.8,506.23c0,23.13-18.62,39.35-41.58,39.35"></path><path class="cls-10" d="M424.9,454.37c23.13,0,39.35-18.62,39.35-41.58"></path></g><line class="cls-10" x1="223.55" y1="628.38" x2="177.26" y2="628.38"></line><line class="cls-10" x1="180.06" y1="618.38" x2="223.55" y2="618.38"></line><rect class="cls-22" x="177.26" y="572.09" width="2.81" height="46.29"></rect><rect class="cls-22" x="176.06" y="426.75" width="41.58" height="2.21"></rect><rect class="cls-22" x="479.96" y="318.08" width="2.21" height="41.58"></rect><rect class="cls-22" x="123.48" y="517.93" width="41.58" height="2.23"></rect><rect class="cls-22" x="181.23" y="374.71" width="41.58" height="2.23"></rect><rect class="cls-22" x="173.19" y="208.39" width="41.58" height="2.23"></rect><rect class="cls-22" x="418.05" y="382.84" width="41.58" height="2.23"></rect><rect class="cls-22" x="479.22" y="503.99" width="41.58" height="2.23"></rect><rect class="cls-22" x="428.4" y="568.67" width="41.58" height="2.23"></rect><rect class="cls-22" x="422.67" y="412.79" width="2.23" height="41.58"></rect><rect class="cls-22" x="168.67" y="571.63" width="2.21" height="41.58"></rect><rect class="cls-22" x="126.97" y="381.56" width="34.67" height="2.21"></rect><rect class="cls-22" x="92.35" y="383.78" width="34.67" height="2.21"></rect><polyline class="cls-16" points="363.57 506.42 364.32 506.42 364.32 507.17"></polyline><line class="cls-3" x1="364.32" y1="508.7" x2="364.32" y2="532.51"></line><polyline class="cls-16" points="364.32 533.28 364.32 534.03 363.57 534.03"></polyline><line class="cls-3" x1="362.03" y1="534.03" x2="338.23" y2="534.03"></line><polyline class="cls-16" points="337.46 534.03 336.71 534.03 336.71 533.28"></polyline><line class="cls-3" x1="336.71" y1="531.74" x2="336.71" y2="507.94"></line><polyline class="cls-16" points="336.71 507.17 336.71 506.42 337.46 506.42"></polyline><line class="cls-3" x1="339" y1="506.42" x2="362.8" y2="506.42"></line><polyline class="cls-16" points="280.88 506.42 281.63 506.42 281.63 507.17"></polyline><line class="cls-3" x1="281.63" y1="508.7" x2="281.63" y2="532.51"></line><polyline class="cls-16" points="281.63 533.28 281.63 534.03 280.88 534.03"></polyline><line class="cls-3" x1="279.34" y1="534.03" x2="255.53" y2="534.03"></line><polyline class="cls-16" points="254.77 534.03 254.02 534.03 254.02 533.28"></polyline><line class="cls-3" x1="254.02" y1="531.74" x2="254.02" y2="507.93"></line><polyline class="cls-16" points="254.02 507.17 254.02 506.42 254.77 506.42"></polyline><line class="cls-3" x1="256.3" y1="506.42" x2="280.11" y2="506.42"></line><line class="cls-16" x1="286.68" y1="596.75" x2="289.68" y2="596.75"></line><line class="cls-6" x1="294.51" y1="596.75" x2="366.44" y2="596.75"></line><line class="cls-16" x1="368.85" y1="596.75" x2="371.85" y2="596.75"></line><line class="cls-22" x1="413.43" y1="584.83" x2="250.53" y2="584.84"></line><line class="cls-22" x1="286.68" y1="584.84" x2="286.68" y2="612.27"></line><line class="cls-22" x1="371.85" y1="584.84" x2="371.85" y2="612.26"></line><line class="cls-22" x1="286.68" y1="587.34" x2="250.53" y2="587.34"></line><line class="cls-22" x1="413.43" y1="587.34" x2="371.85" y2="587.34"></line><rect class="cls-22" x="250.53" y="484.41" width="117.81" height="49.62"></rect><g><rect class="cls-22" x="300" y="504.09" width="1.74" height="9.78" rx=".59" ry=".59"></rect><path class="cls-22" d="M300.87,519.76c-.49,0-.9.4-.9.9s.4.9.9.9.9-.4.9-.9-.4-.9-.9-.9Z"></path></g><polyline class="cls-22" points="300 505.4 297.58 505.4 297.58 506.95 300 506.95"></polyline><line class="cls-22" x1="298.44" y1="506.95" x2="298.44" y2="505.4"></line><polyline class="cls-22" points="300 509.26 287.95 509.26 287.95 531.02 313.8 531.02 313.8 509.26 301.74 509.26"></polyline><polyline class="cls-22" points="301.74 510.34 312.72 510.34 312.72 529.94 289.03 529.94 289.03 510.34 300 510.34"></polyline><rect class="cls-22" x="433.93" y="577.42" width="30.61" height="38.03"></rect><polyline class="cls-22" points="418.05 466.27 494.86 466.27 494.86 491.41"></polyline><path class="cls-22" d="M474.11,483.33h9.87c.4,0,.72-.32.72-.72v-10.9c0-.4-.32-.72-.72-.72h-20.82c-.4,0-.72.32-.72.72v10.9c0,.4.32.72.72.72h9.48"></path><rect class="cls-22" x="472.64" y="480.89" width="1.47" height="5.89"></rect><g><circle class="cls-22" cx="473.38" cy="477.16" r=".84"></circle><path class="cls-22" d="M439.36,483.33h9.87c.4,0,.72-.32.72-.72v-10.9c0-.4-.32-.72-.72-.72h-20.82c-.4,0-.72.32-.72.72v10.9c0,.4.32.72.72.72h9.48"></path></g><rect class="cls-22" x="437.89" y="480.89" width="1.47" height="5.89"></rect><circle class="cls-22" cx="438.62" cy="477.16" r=".84"></circle><line class="cls-22" x1="535.86" y1="415.1" x2="535.86" y2="490.47"></line><line class="cls-22" x1="537.14" y1="415.1" x2="537.14" y2="491.29"></line><line class="cls-22" x1="537.14" y1="419.79" x2="535.86" y2="419.79"></line><line class="cls-22" x1="537.14" y1="457.79" x2="535.86" y2="457.79"></line><line class="cls-22" x1="577.44" y1="477.9" x2="537.14" y2="477.9"></line><g><path class="cls-22" d="M558.51,426.99c0,.67-.54,1.21-1.21,1.21s-1.21-.54-1.21-1.21.54-1.21,1.21-1.21,1.21.54,1.21,1.21Z"></path><path class="cls-22" d="M562.48,426.99c0,2.86-2.32,5.18-5.18,5.18s-5.18-2.32-5.18-5.18,2.32-5.18,5.18-5.18,5.18,2.32,5.18,5.18Z"></path><path class="cls-22" d="M507.63,483.84h15.44c.6,0,1.08.48,1.08,1.08v5.3c0,.6-.48,1.08-1.08,1.08h-15.44c-.6,0-1.08-.48-1.08-1.08v-5.29c0-.6.48-1.08,1.08-1.08Z"></path><path class="cls-22" d="M510.9,479.69c-.28,0-.54-.11-.73-.32-1.88-2.09-3.08-5.3-3.08-8.9,0-6.31,3.7-11.42,8.28-11.42s8.28,5.11,8.28,11.42c0,3.6-1.2,6.8-3.08,8.9-.19.21-.46.32-.73.32h-8.92Z"></path></g><line class="cls-22" x1="507.08" y1="470.47" x2="507.08" y2="483.99"></line><line class="cls-22" x1="523.63" y1="470.47" x2="523.63" y2="483.99"></line><line class="cls-22" x1="93.82" y1="540.64" x2="93.82" y2="543.85"></line><g><path class="cls-22" d="M93.82,544.72v11.6c0,1.38,1.12,2.5,2.5,2.5h61.83c1.38,0,2.5-1.12,2.5-2.5v-24.04c0-1.38-1.12-2.5-2.5-2.5h-61.83c-1.38,0-2.5,1.12-2.5,2.5v8.37"></path><path class="cls-22" d="M89.8,543.85h10.86c.24,0,.43.19.43.43s-.19.43-.43.43h-10.81"></path><path class="cls-22" d="M99.58,544.72c.17.46.61.79,1.14.79.67,0,1.21-.54,1.21-1.21s-.54-1.21-1.21-1.21c-.51,0-.95.32-1.13.77"></path><path class="cls-22" d="M95.54,544.72c.22,2.67,2.45,4.76,5.17,4.76,2.86,0,5.18-2.32,5.18-5.18s-2.32-5.18-5.18-5.18c-2.72,0-4.94,2.09-5.17,4.74"></path></g><rect class="cls-22" x="88.83" y="541.75" width=".97" height="5.08"></rect><line class="cls-22" x1="88.83" y1="526.07" x2="165.06" y2="526.07"></line><line class="cls-22" x1="88.83" y1="524.78" x2="165.02" y2="524.79"></line><line class="cls-22" x1="93.51" y1="524.78" x2="93.51" y2="526.07"></line><line class="cls-22" x1="131.51" y1="524.78" x2="131.51" y2="526.06"></line><g><rect class="cls-22" x="91.16" y="423.14" width="17.6" height="7.45" rx="1.08" ry="1.08"></rect><path class="cls-22" d="M95.5,434.74c-.28,0-.54.11-.73.32-1.88,2.09-3.09,5.3-3.09,8.9,0,6.31,3.71,11.42,8.28,11.42s8.28-5.11,8.28-11.42c0-3.6-1.2-6.8-3.08-8.9-.19-.21-.46-.32-.73-.32h-8.92Z"></path></g><line class="cls-22" x1="91.69" y1="443.96" x2="91.69" y2="430.44"></line><line class="cls-22" x1="108.24" y1="443.96" x2="108.24" y2="430.44"></line><polyline class="cls-22" points="120.64 423.14 120.64 448.16 165.06 448.16"></polyline><path class="cls-22" d="M138.65,431.21h9.87c.4,0,.72.32.72.72v10.9c0,.4-.32.72-.72.72h-20.82c-.4,0-.72-.32-.72-.72v-10.9c0-.4.32-.72.72-.72h9.48"></path><rect class="cls-22" x="137.18" y="427.76" width="1.47" height="5.89"></rect><circle class="cls-22" cx="137.91" cy="437.38" r=".84"></circle><rect class="cls-22" x="309.91" y="586.12" width="36.98" height="24.28"></rect><rect class="cls-22" x="310.99" y="587.2" width="34.82" height="22.12"></rect><path class="cls-22" d="M328.4,587.95c.71,0,1.28.57,1.28,1.28s-.57,1.28-1.28,1.28-1.28-.57-1.28-1.28c0-.71.57-1.28,1.28-1.28Z"></path><line class="cls-22" x1="345.81" y1="587.2" x2="346.89" y2="586.12"></line><line class="cls-22" x1="310.99" y1="587.21" x2="309.91" y2="586.13"></line><line class="cls-22" x1="311" y1="609.32" x2="309.92" y2="610.4"></line><line class="cls-22" x1="345.81" y1="609.32" x2="346.89" y2="610.4"></line><polygon class="cls-22" points="327.35 589.23 328.4 590.29 329.46 589.23 328.4 588.18 327.35 589.23"></polygon><line class="cls-22" x1="328.4" y1="590.29" x2="328.4" y2="588.18"></line><g><path class="cls-21" d="M201.88,409.99c.03,1.51.06,3.03.13,4.57.04.8.09,1.6.13,2.35.03.57.07,1.11.16,1.78.09.65.25,1.42-.23,1.73-.11.07-.25.12-.38.13-.77.06-.9-1.18-.97-2.24-.15-2.35.04-3.74.16-5.44.06-.9.1-1.9.14-2.89-.04-.99-.08-1.98-.14-2.89-.12-1.7-.3-3.09-.16-5.44.07-1.05.2-2.3.97-2.24.13.01.27.06.38.13.48.3.32,1.08.23,1.73-.1.67-.13,1.21-.16,1.78-.04.75-.09,1.56-.13,2.36-.07,1.54-.1,3.06-.13,4.57Z"></path><path class="cls-21" d="M197.19,409.99c.03,1.51.06,3.03.13,4.57.04.8.09,1.6.13,2.35.03.57.07,1.11.16,1.78.09.65.25,1.42-.23,1.73-.11.07-.25.12-.38.13-.77.06-.9-1.18-.97-2.24-.15-2.35.04-3.74.16-5.44.06-.9.1-1.9.14-2.89-.04-.99-.08-1.98-.14-2.89-.12-1.7-.3-3.09-.16-5.44.07-1.05.2-2.3.97-2.24.13.01.27.06.38.12.48.31.33,1.08.23,1.73-.1.67-.13,1.21-.16,1.78-.04.75-.09,1.56-.13,2.36-.07,1.54-.1,3.06-.13,4.57Z"></path><path class="cls-21" d="M192.49,409.99c.03,1.51.06,3.03.13,4.57.04.8.09,1.6.13,2.35.03.57.07,1.11.16,1.78.09.65.25,1.42-.23,1.73-.11.07-.25.12-.38.13-.77.06-.9-1.18-.97-2.24-.15-2.35.04-3.74.16-5.44.06-.9.1-1.9.14-2.89-.04-.99-.08-1.98-.14-2.89-.12-1.7-.3-3.09-.16-5.44.07-1.05.2-2.3.97-2.24.13.01.27.06.38.13.48.3.33,1.08.23,1.73-.1.67-.13,1.21-.16,1.78-.04.75-.09,1.56-.13,2.36-.07,1.54-.1,3.06-.13,4.57Z"></path></g><line class="cls-21" x1="170.88" y1="409.99" x2="222.81" y2="409.99"></line><g><path class="cls-21" d="M151.91,587.46c1.51-.03,3.03-.06,4.57-.13.8-.04,1.6-.09,2.35-.13.57-.03,1.11-.07,1.78-.16.65-.09,1.42-.25,1.73.23.07.11.12.25.13.38.06.77-1.18.9-2.24.97-2.35.15-3.74-.04-5.44-.16-.9-.06-1.9-.1-2.89-.14-.99.04-1.98.08-2.89.14-1.7.11-3.09.3-5.44.16-1.05-.07-2.3-.2-2.24-.97.01-.13.06-.27.13-.38.3-.48,1.08-.33,1.73-.23.67.1,1.21.13,1.78.16.75.04,1.56.09,2.36.13,1.54.07,3.06.1,4.57.13Z"></path><path class="cls-21" d="M151.91,592.16c1.51-.03,3.03-.06,4.57-.13.8-.04,1.6-.09,2.35-.13.57-.03,1.11-.07,1.78-.16.65-.09,1.42-.25,1.73.23.07.11.12.25.13.38.06.77-1.18.9-2.24.97-2.35.15-3.74-.04-5.44-.16-.9-.06-1.9-.1-2.89-.14-.99.04-1.98.08-2.89.14-1.7.11-3.09.3-5.44.16-1.05-.07-2.3-.2-2.24-.97.01-.13.06-.27.13-.38.3-.48,1.08-.33,1.73-.23.67.1,1.21.13,1.78.16.75.04,1.56.09,2.36.13,1.54.07,3.06.1,4.57.13Z"></path><path class="cls-21" d="M151.91,596.85c1.51-.03,3.03-.06,4.57-.13.8-.04,1.6-.09,2.35-.13.57-.03,1.11-.07,1.78-.16.65-.09,1.42-.25,1.73.23.07.11.12.25.13.38.06.77-1.18.9-2.24.97-2.35.15-3.74-.04-5.44-.16-.9-.06-1.9-.1-2.89-.14-.99.04-1.98.08-2.89.14-1.7.11-3.09.3-5.44.16-1.05-.07-2.3-.2-2.24-.97.01-.13.06-.27.13-.38.3-.48,1.08-.33,1.73-.23.67.1,1.21.13,1.78.16.75.04,1.56.09,2.36.13,1.54.07,3.06.1,4.57.13Z"></path></g><line class="cls-21" x1="151.91" y1="614.87" x2="151.91" y2="570.14"></line><g><path class="cls-21" d="M127.36,400.54c.03,1.51.06,3.03.13,4.57.04.8.09,1.6.13,2.35.03.57.07,1.11.16,1.78.09.65.25,1.42-.23,1.73-.11.07-.25.12-.38.13-.77.06-.9-1.18-.97-2.24-.15-2.35.04-3.74.16-5.44.06-.9.1-1.9.14-2.89-.04-.99-.08-1.98-.14-2.89-.12-1.7-.3-3.09-.16-5.44.07-1.05.2-2.3.97-2.24.13.01.27.06.38.13.48.3.32,1.08.23,1.73-.1.67-.13,1.21-.16,1.78-.04.75-.09,1.56-.13,2.36-.07,1.54-.1,3.06-.13,4.57Z"></path><path class="cls-21" d="M122.67,400.54c.03,1.51.06,3.03.13,4.57.04.8.09,1.6.13,2.35.03.57.07,1.11.16,1.78.09.65.25,1.42-.23,1.73-.11.07-.25.12-.38.13-.77.06-.9-1.18-.97-2.24-.15-2.35.04-3.74.16-5.44.06-.9.1-1.9.14-2.89-.04-.99-.08-1.98-.14-2.89-.12-1.7-.3-3.09-.16-5.44.07-1.05.2-2.3.97-2.24.13.01.27.06.38.13.48.3.33,1.08.23,1.73-.1.67-.13,1.21-.16,1.78-.04.75-.09,1.56-.13,2.36-.07,1.54-.1,3.06-.13,4.57Z"></path><path class="cls-21" d="M117.97,400.54c.03,1.51.06,3.03.13,4.57.04.8.09,1.6.13,2.35.03.57.07,1.11.16,1.78.09.65.25,1.42-.23,1.73-.11.07-.25.12-.38.13-.77.06-.9-1.18-.97-2.24-.15-2.35.04-3.74.16-5.44.06-.9.1-1.9.14-2.89-.04-.99-.08-1.98-.14-2.89-.12-1.7-.3-3.09-.16-5.44.07-1.05.2-2.3.97-2.24.13.01.27.06.38.13.48.3.33,1.08.23,1.73-.1.67-.13,1.21-.16,1.78-.04.75-.09,1.56-.13,2.36-.07,1.54-.1,3.06-.13,4.57Z"></path></g><line class="cls-21" x1="79.59" y1="400.54" x2="165.06" y2="400.54"></line><line class="cls-21" x1="214.77" y1="221.06" x2="84.21" y2="221.06"></line><polyline class="cls-21" points="583.17 112.13 548.33 111.48 513.41 111.11 478.48 111.2 443.55 111.57 408.72 112.22 373.79 113.33 338.86 114.71 304.03 116.56 269.19 118.69 234.36 121.18 217.08 122.56"></polyline><polyline class="cls-21" points="222.81 122.1 222.81 166.73 217.08 166.73"></polyline><line class="cls-21" x1="69.59" y1="131.9" x2="69.59" y2="137.67"></line><polyline class="cls-21" points="214.77 122.72 182.06 125.59 149.44 128.73 116.83 132.24 84.21 135.93"></polyline><polyline class="cls-21" points="211.26 117.24 211.72 122.94 213.29 122.84"></polyline><polyline class="cls-15" points="211.26 117.24 234.45 115.36 269.84 112.86 305.23 110.65 340.71 108.89 376.1 107.51 411.58 106.4 447.06 105.66 482.55 105.38 518.03 105.38 553.51 105.75 588.99 106.49 588.99 239.55 591.3 239.55 591.3 104.27 555.63 103.53 519.88 103.07 484.21 103.07 448.45 103.35 412.78 104.09 377.12 105.1 341.36 106.58 305.69 108.34 270.12 110.46 234.45 113.05 211.08 114.93 211.26 117.24"></polyline><polygon class="cls-15" points="91.14 129.32 69.59 131.9 69.59 129.54 90.88 127 91.14 129.32"></polygon><polygon class="cls-15" points="217.08 122.56 217.08 166.73 214.77 166.73 214.77 122.74 217.08 122.56"></polygon><line class="cls-15" x1="587.44" y1="239.54" x2="588.99" y2="239.54"></line><rect class="cls-15" x="583.17" y="230.3" width="5.82" height="2.31"></rect><rect class="cls-15" x="214.77" y="166.73" width="8.04" height="2.31"></rect><polygon class="cls-15" points="222.81 212.93 222.81 210.62 214.77 210.62 214.77 212.93 84.21 212.93 84.21 135.93 81.9 136.21 81.9 215.24 222.81 215.24 222.81 212.93"></polygon><polygon class="cls-15" points="77.29 130.98 78.03 136.67 75.7 136.95 74.97 131.25 77.29 130.98"></polygon><polygon class="cls-15" points="91.14 129.33 91.8 135.04 89.58 135.33 88.93 129.58 91.14 129.33"></polygon><rect class="cls-15" x="213.06" y="117.01" width="2.32" height="5.75" transform="translate(-8.81 17.31) rotate(-4.53)"></rect><polyline class="cls-15" points="249.7 114.25 250.07 119.98 247.76 120.16 247.39 114.34 249.7 114.25"></polyline><polyline class="cls-15" points="388.02 107.04 388.21 112.86 385.9 112.96 385.71 107.14 388.02 107.04"></polyline><polyline class="cls-15" points="422.67 106.12 422.76 111.94 420.45 111.94 420.36 106.21 422.67 106.12"></polyline><polyline class="cls-15" points="457.32 105.56 457.32 111.29 455.01 111.39 455.01 105.56 457.32 105.56"></polyline><polyline class="cls-15" points="526.53 105.47 526.53 111.2 524.22 111.2 524.22 105.38 526.53 105.47"></polyline><rect class="cls-15" x="148.89" y="215.24" width="2.31" height="5.82"></rect><rect class="cls-15" x="213.57" y="215.24" width="2.31" height="5.82"></rect><rect class="cls-15" x="83.1" y="215.24" width="2.31" height="5.82"></rect><rect class="cls-15" x="76.17" y="211.82" width="5.73" height="2.31"></rect><rect class="cls-15" x="76.17" y="177.82" width="5.73" height="2.31"></rect><polyline class="cls-15" points="76.17 136.89 81.9 136.21 81.9 139.2 76.17 139.2 76.17 136.89"></polyline><rect class="cls-15" x="583.17" y="184.57" width="5.82" height="2.31"></rect><rect class="cls-15" x="583.17" y="138.83" width="5.82" height="2.31"></rect><polyline class="cls-15" points="588.99 106.49 587.42 106.49 581.6 112.12 583.17 112.12 583.17 113.79 588.99 108.15 588.99 106.49"></polyline><polyline class="cls-15" points="318.95 110 319.14 115.82 316.83 115.91 316.64 110.09 318.95 110"></polyline><polygon class="cls-24" points="587.44 239.54 587.44 628.38 223.55 628.38 223.55 618.38 244.8 618.38 244.8 584.84 250.53 584.84 250.53 612.26 413.43 612.26 413.43 584.84 416.85 584.84 416.85 568.67 428.4 568.67 428.4 574.49 424.98 574.49 424.98 618.38 473.49 618.38 473.49 574.49 469.98 574.49 469.98 568.67 473.49 568.67 473.49 545.57 479.27 545.57 479.27 618.38 577.44 618.38 577.44 499.37 479.22 499.37 479.22 503.99 473.49 503.99 473.49 499.37 412.23 499.37 412.23 385.07 418.05 385.07 418.05 406.97 422.67 406.97 422.67 412.79 418.05 412.79 418.05 491.33 577.44 491.33 577.44 415.1 535.86 415.1 535.86 412.79 464.25 412.79 464.25 406.97 476.36 406.97 476.36 359.66 482.18 359.66 482.18 406.97 577.44 406.97 577.44 313.46 482.18 313.46 482.18 318.08 476.36 318.08 476.36 307.64 577.44 307.64 577.44 112.03 583.17 112.12 583.17 112.03 583.17 239.54 587.44 239.54"></polygon><polygon class="cls-17" points="587.44 239.54 587.44 628.38 223.55 628.38 223.55 618.38 244.8 618.38 244.8 584.84 250.53 584.84 250.53 612.26 413.43 612.26 413.43 584.84 416.85 584.84 416.85 568.67 428.4 568.67 428.4 574.49 424.98 574.49 424.98 618.38 473.49 618.38 473.49 574.49 469.98 574.49 469.98 568.67 473.49 568.67 473.49 545.57 479.27 545.57 479.27 618.38 577.44 618.38 577.44 499.37 479.22 499.37 479.22 503.99 473.49 503.99 473.49 499.37 412.23 499.37 412.23 385.07 418.05 385.07 418.05 406.97 422.67 406.97 422.67 412.79 418.05 412.79 418.05 491.33 577.44 491.33 577.44 415.1 535.86 415.1 535.86 412.79 464.25 412.79 464.25 406.97 476.36 406.97 476.36 359.66 482.18 359.66 482.18 406.97 577.44 406.97 577.44 313.46 482.18 313.46 482.18 318.08 476.36 318.08 476.36 307.64 577.44 307.64 577.44 112.03 583.17 112.12 583.17 112.03 583.17 239.54 587.44 239.54"></polygon><polygon class="cls-24" points="127.34 628.38 177.26 628.38 177.26 618.38 170.88 618.38 170.88 613.21 165.06 613.21 165.06 614.87 137.34 614.87 137.34 569.87 165.06 569.87 165.06 571.63 170.88 571.63 170.88 520.16 165.06 520.16 165.06 564.05 88.83 564.05 88.83 524.78 79.59 524.78 79.59 423.14 165.06 423.14 165.06 478.58 170.88 478.58 170.88 428.96 176.06 428.96 176.06 423.14 170.88 423.14 170.88 395.42 222.81 395.42 222.81 423.14 217.64 423.14 217.64 428.92 228.63 428.92 228.63 376.94 222.81 376.94 222.81 381.56 161.64 381.56 161.64 387.38 165.06 387.38 165.06 415.1 79.59 415.1 79.59 387.38 92.34 387.38 92.34 381.56 79.59 381.56 79.59 226.79 84.21 226.79 84.21 221.06 76.17 221.06 76.17 136.89 69.59 137.67 69.59 574.05 127.34 574.05 127.34 628.38"></polygon><polygon class="cls-17" points="127.34 628.38 177.26 628.38 177.26 618.38 170.88 618.38 170.88 613.21 165.06 613.21 165.06 614.87 137.34 614.87 137.34 569.87 165.06 569.87 165.06 571.63 170.88 571.63 170.88 520.16 165.06 520.16 165.06 564.05 88.83 564.05 88.83 524.78 79.59 524.78 79.59 423.14 165.06 423.14 165.06 478.58 170.88 478.58 170.88 428.96 176.06 428.96 176.06 423.14 170.88 423.14 170.88 395.42 222.81 395.42 222.81 423.14 217.64 423.14 217.64 428.92 228.63 428.92 228.63 376.94 222.81 376.94 222.81 381.56 161.64 381.56 161.64 387.38 165.06 387.38 165.06 415.1 79.59 415.1 79.59 387.38 92.34 387.38 92.34 381.56 79.59 381.56 79.59 226.79 84.21 226.79 84.21 221.06 76.17 221.06 76.17 136.89 69.59 137.67 69.59 574.05 127.34 574.05 127.34 628.38"></polygon><polygon class="cls-24" points="228.63 211.82 222.81 211.82 222.81 221.06 214.77 221.06 214.77 226.79 222.81 226.79 222.81 335.36 228.63 335.36 228.63 211.82"></polygon><polygon class="cls-17" points="228.63 211.82 222.81 211.82 222.81 221.06 214.77 221.06 214.77 226.79 222.81 226.79 222.81 335.36 228.63 335.36 228.63 211.82"></polygon><polygon class="cls-24" points="222.81 122.1 234.36 121.18 248.95 120.14 248.94 120.07 249.33 126.11 234.36 127.19 222.81 128.1 222.81 122.1"></polygon><polygon class="cls-17" points="222.81 122.1 234.36 121.18 248.95 120.14 248.94 120.07 249.33 126.11 234.36 127.19 222.81 128.1 222.81 122.1"></polygon><polygon class="cls-24" points="409.37 117.95 421.75 117.67 421.65 111.94 387.1 112.86 387.28 118.59 403.64 118.13 403.64 314.02 412.23 314.02 412.23 343.49 418.1 343.49 418.1 314.02 425.54 314.02 425.54 211.18 409.37 211.18 409.37 117.95"></polygon><polygon class="cls-17" points="409.37 117.95 421.75 117.67 421.65 111.94 387.1 112.86 387.28 118.59 403.64 118.13 403.64 314.02 412.23 314.02 412.23 343.49 418.1 343.49 418.1 314.02 425.54 314.02 425.54 211.18 409.37 211.18 409.37 117.95"></polygon><g><path class="cls-26" d="M200.26,640.54c.02-.08.07-.14.14-.14s.13.06.14.14c.56,3.3,2.74,4.94,6.02,4.94h3.84c1.16,0,1.98,1.01,2.2,2.66.05.33-.23.61-.47.45-.46-.31-1.06-.47-1.78-.47h-3.48c-2.95,0-5.22-1.67-6.17-4.98-.11-.37-.5-.37-.61,0-.96,3.31-3.22,4.98-6.18,4.98h-3.48c-.72,0-1.32.16-1.78.47-.23.16-.51-.12-.47-.45.22-1.64,1.05-2.66,2.21-2.66h3.84c3.29,0,5.47-1.64,6.02-4.95h0Z"></path><path class="cls-18" d="M200.26,640.54c.02-.08.07-.14.14-.14s.13.06.14.14c.56,3.3,2.74,4.94,6.02,4.94h3.84c1.16,0,1.98,1.01,2.2,2.66.05.33-.23.61-.47.45-.46-.31-1.06-.47-1.78-.47h-3.48c-2.95,0-5.22-1.67-6.17-4.98-.11-.37-.5-.37-.61,0-.96,3.31-3.22,4.98-6.18,4.98h-3.48c-.72,0-1.32.16-1.78.47-.23.16-.51-.12-.47-.45.22-1.64,1.05-2.66,2.21-2.66h3.84c3.29,0,5.47-1.64,6.02-4.95h0Z"></path></g><g><path class="cls-24" d="M452.28,211.48h2.52c1.9,0,2.97.89,2.97,2.53s-1.07,2.54-2.97,2.54h-1.72v3.99h-.8v-9.06ZM454.73,215.83c1.41,0,2.24-.61,2.24-1.81s-.81-1.81-2.24-1.81h-1.64v3.62h1.64Z"></path><path class="cls-24" d="M459.28,214.13h.78v1.09c.43-.78,1.31-1.18,2.02-1.18.33,0,.66.07.99.24l-.39.7c-.21-.1-.51-.17-.77-.17-.68,0-1.46.36-1.74,1.3-.08.27-.12.57-.12,1.27v3.15h-.78v-6.41Z"></path><path class="cls-24" d="M464.33,211.48h.94v1.39h-.94v-1.39ZM464.42,214.13h.77v6.41h-.77v-6.41Z"></path><path class="cls-24" d="M467.23,214.13h.78v1.1c.38-.85,1.11-1.19,1.88-1.19.91,0,1.57.4,1.89,1.25.4-.83,1.09-1.25,2-1.25,1.55,0,2.13,1.16,2.13,2.68v3.82h-.78v-3.64c0-1.33-.39-2.18-1.52-2.18-1.02,0-1.65.77-1.65,2.26v3.57h-.78v-3.76c0-1.4-.52-2.07-1.5-2.07-1.03,0-1.67.79-1.67,2.26v3.57h-.78v-6.41Z"></path><path class="cls-24" d="M482.05,219.34c-.43.82-1.25,1.29-2.25,1.29-1.44,0-2.31-.77-2.31-1.94,0-.69.29-1.16.72-1.44.46-.31,1.09-.42,1.77-.42h2.05v-.28c0-1.19-.62-1.83-1.82-1.83-.79,0-1.4.29-1.98,1.02l-.56-.48c.68-.85,1.53-1.22,2.59-1.22,1.63,0,2.54.89,2.54,2.51v3.99h-.71l-.04-1.2ZM479.87,219.99c1.18,0,2.17-.93,2.17-2.2v-.36h-1.95c-.51,0-1.03.08-1.37.33-.28.21-.44.51-.44.94,0,.79.6,1.3,1.6,1.3Z"></path><path class="cls-24" d="M484.76,214.13h.78v1.09c.43-.78,1.31-1.18,2.02-1.18.33,0,.66.07.99.24l-.39.7c-.21-.1-.51-.17-.77-.17-.68,0-1.46.36-1.74,1.3-.08.27-.12.57-.12,1.27v3.15h-.78v-6.41Z"></path><path class="cls-24" d="M491.81,220.34l-2.55-6.21h.86l2.1,5.42,2.11-5.42h.85l-3.69,9.05h-.84l1.17-2.84Z"></path><path class="cls-24" d="M500.08,211.48h2.72c1.68,0,2.68.84,2.68,2.25,0,.94-.46,1.68-1.24,2,1.1.25,1.7,1.07,1.7,2.31,0,1.61-1.02,2.5-2.88,2.5h-2.97v-9.06ZM503.05,215.49c.98,0,1.63-.64,1.63-1.64s-.69-1.61-1.88-1.61h-1.91v3.26h2.16ZM502.99,219.8c1.42,0,2.14-.6,2.14-1.79,0-1.13-.66-1.79-1.79-1.79h-2.46v3.58h2.11Z"></path><path class="cls-24" d="M507.4,217.38c0-1.84.99-3.34,2.81-3.34,1.96,0,2.76,1.53,2.76,2.94,0,.1-.01.4-.04.55h-4.76c.03,1.51.84,2.39,2.14,2.39.82,0,1.35-.23,1.91-.83l.55.49c-.73.75-1.43,1.05-2.46,1.05-1.89,0-2.91-1.41-2.91-3.25ZM512.22,216.96c0-.08,0-.16,0-.24,0-.92-.58-2.02-2-2.02-1.23,0-1.98.98-2.07,2.26h4.06Z"></path><path class="cls-24" d="M514.37,217.33c0-1.96,1.29-3.29,2.92-3.29,1.05,0,1.87.54,2.29,1.36v-3.92h.77v9.06h-.77v-1.26c-.44.85-1.25,1.35-2.29,1.35-1.72,0-2.92-1.42-2.92-3.3ZM517.41,219.91c1.3,0,2.23-1.08,2.23-2.58s-.93-2.58-2.23-2.58-2.26,1.09-2.26,2.58.95,2.58,2.26,2.58Z"></path><path class="cls-24" d="M522.38,214.13h.78v1.09c.43-.78,1.31-1.18,2.02-1.18.33,0,.66.07.99.24l-.39.7c-.21-.1-.51-.17-.77-.17-.68,0-1.46.36-1.74,1.3-.08.27-.12.57-.12,1.27v3.15h-.78v-6.41Z"></path><path class="cls-24" d="M526.76,217.33c0-1.92,1.25-3.29,3.05-3.29s3.04,1.36,3.04,3.29-1.27,3.3-3.04,3.3-3.05-1.36-3.05-3.3ZM529.81,219.94c1.37,0,2.26-1.04,2.26-2.61s-.9-2.61-2.26-2.61-2.28,1.05-2.28,2.61.9,2.61,2.28,2.61Z"></path><path class="cls-24" d="M534.3,217.33c0-1.92,1.25-3.29,3.05-3.29s3.04,1.36,3.04,3.29-1.27,3.3-3.04,3.3-3.05-1.36-3.05-3.3ZM537.35,219.94c1.37,0,2.26-1.04,2.26-2.61s-.9-2.61-2.26-2.61-2.28,1.05-2.28,2.61.9,2.61,2.28,2.61Z"></path><path class="cls-24" d="M542.14,214.13h.78v1.1c.38-.85,1.11-1.19,1.88-1.19.91,0,1.57.4,1.89,1.25.4-.83,1.09-1.25,2-1.25,1.55,0,2.13,1.16,2.13,2.68v3.82h-.78v-3.64c0-1.33-.39-2.18-1.52-2.18-1.02,0-1.65.77-1.65,2.26v3.57h-.78v-3.76c0-1.4-.52-2.07-1.5-2.07-1.03,0-1.67.79-1.67,2.26v3.57h-.78v-6.41Z"></path></g><g><path class="cls-24" d="M125.69,298.86h2.72c1.68,0,2.68.84,2.68,2.25,0,.94-.46,1.68-1.24,2,1.1.25,1.7,1.07,1.7,2.31,0,1.61-1.02,2.5-2.88,2.5h-2.97v-9.06ZM128.66,302.87c.98,0,1.63-.64,1.63-1.64s-.69-1.61-1.88-1.61h-1.91v3.26h2.16ZM128.61,307.18c1.42,0,2.14-.6,2.14-1.79,0-1.13-.66-1.79-1.79-1.79h-2.46v3.58h2.11Z"></path><path class="cls-24" d="M132.99,304.76c0-1.84.99-3.34,2.81-3.34,1.96,0,2.76,1.53,2.76,2.94,0,.1-.01.4-.04.55h-4.76c.03,1.51.84,2.39,2.14,2.39.82,0,1.35-.23,1.91-.83l.55.49c-.73.75-1.43,1.05-2.46,1.05-1.89,0-2.91-1.41-2.91-3.25ZM137.81,304.33c0-.08,0-.16,0-.24,0-.92-.58-2.02-2-2.02-1.23,0-1.98.98-2.07,2.26h4.06Z"></path><path class="cls-24" d="M139.96,304.71c0-1.96,1.29-3.29,2.92-3.29,1.05,0,1.87.54,2.29,1.36v-3.92h.77v9.06h-.77v-1.26c-.44.85-1.25,1.35-2.29,1.35-1.72,0-2.92-1.42-2.92-3.3ZM143,307.29c1.3,0,2.23-1.08,2.23-2.58s-.93-2.58-2.23-2.58-2.26,1.09-2.26,2.58.95,2.58,2.26,2.58Z"></path><path class="cls-24" d="M147.97,301.51h.78v1.09c.43-.78,1.31-1.18,2.02-1.18.33,0,.66.07.99.24l-.39.7c-.21-.1-.51-.17-.77-.17-.68,0-1.46.36-1.74,1.3-.08.27-.12.57-.12,1.27v3.15h-.78v-6.41Z"></path><path class="cls-24" d="M152.35,304.71c0-1.92,1.25-3.29,3.05-3.29s3.04,1.36,3.04,3.29-1.27,3.3-3.04,3.3-3.05-1.36-3.05-3.3ZM155.4,307.32c1.37,0,2.26-1.04,2.26-2.61s-.9-2.61-2.26-2.61-2.28,1.05-2.28,2.61.9,2.61,2.28,2.61Z"></path><path class="cls-24" d="M159.89,304.71c0-1.92,1.25-3.29,3.05-3.29s3.04,1.36,3.04,3.29-1.27,3.3-3.04,3.3-3.05-1.36-3.05-3.3ZM162.94,307.32c1.37,0,2.26-1.04,2.26-2.61s-.9-2.61-2.26-2.61-2.28,1.05-2.28,2.61.9,2.61,2.28,2.61Z"></path><path class="cls-24" d="M167.73,301.51h.78v1.1c.38-.85,1.11-1.19,1.88-1.19.91,0,1.57.4,1.89,1.25.4-.83,1.09-1.25,2-1.25,1.55,0,2.13,1.16,2.13,2.68v3.82h-.78v-3.64c0-1.33-.39-2.18-1.52-2.18-1.02,0-1.65.77-1.65,2.26v3.57h-.78v-3.76c0-1.4-.52-2.07-1.5-2.07-1.03,0-1.67.79-1.67,2.26v3.57h-.78v-6.41Z"></path></g><g><path class="cls-24" d="M285.8,398.32h2.43c2.94,0,4.62,1.68,4.62,4.6s-1.64,4.46-4.63,4.46h-2.42v-9.06ZM288.15,406.64c2.5,0,3.89-1.16,3.89-3.74s-1.4-3.83-3.82-3.83h-1.61v7.57h1.54Z"></path><path class="cls-24" d="M294.46,398.32h.94v1.39h-.94v-1.39ZM294.55,400.97h.77v6.41h-.77v-6.41Z"></path><path class="cls-24" d="M297.35,400.97h.78v1.05c.4-.76,1.12-1.14,2.01-1.14,1.38,0,2.2.81,2.2,2.51v3.99h-.78v-3.71c0-1.45-.55-2.11-1.61-2.11-1.16,0-1.83.79-1.83,2.55v3.27h-.78v-6.41Z"></path><path class="cls-24" d="M304.23,398.32h.94v1.39h-.94v-1.39ZM304.32,400.97h.77v6.41h-.77v-6.41Z"></path><path class="cls-24" d="M307.12,400.97h.78v1.05c.4-.76,1.12-1.14,2.01-1.14,1.38,0,2.2.81,2.2,2.51v3.99h-.78v-3.71c0-1.45-.55-2.11-1.61-2.11-1.16,0-1.83.79-1.83,2.55v3.27h-.78v-6.41Z"></path><path class="cls-24" d="M313.58,408.14s0-.1.03-.26l1.11-.88c-.57-.22-.96-.59-.96-1.26,0-.53.27-.9.72-1.2-.36-.37-.56-.87-.56-1.45,0-1.3,1.04-2.2,2.39-2.2.64,0,1.22.21,1.64.58l1.02-.86.4.49-1,.88c.19.33.3.71.3,1.14,0,1.28-.96,2.13-2.33,2.13-.53,0-.99-.12-1.37-.34-.31.17-.45.42-.45.71,0,.66.63.83,1.62.98,1.6.25,2.99.44,2.99,1.75,0,1.16-1.05,1.78-2.7,1.78-1.82,0-2.85-.7-2.85-2ZM316.44,409.53c1.09,0,1.92-.34,1.92-1.08,0-.86-1.16-.96-2.31-1.14-.31-.05-.6-.1-.89-.17l-.8.92c-.01.09-.01.11-.01.15,0,.9.79,1.33,2.09,1.33ZM316.31,404.61c.98,0,1.59-.65,1.59-1.53s-.64-1.56-1.58-1.56-1.62.65-1.62,1.55.63,1.55,1.61,1.55Z"></path><path class="cls-24" d="M324.06,398.32h2.52c1.99,0,2.97.93,2.97,2.5,0,1.25-.64,2.07-1.85,2.38l2.44,4.19h-.92l-2.34-4.07c-.21,0-.44,0-.65,0h-1.36v4.06h-.81v-9.06ZM326.51,402.61c1.38,0,2.24-.55,2.24-1.78s-.88-1.77-2.24-1.77h-1.64v3.56h1.64Z"></path><path class="cls-24" d="M331.07,404.17c0-1.92,1.25-3.29,3.05-3.29s3.04,1.37,3.04,3.29-1.27,3.3-3.04,3.3-3.05-1.37-3.05-3.3ZM334.12,406.78c1.37,0,2.26-1.04,2.26-2.61s-.9-2.61-2.26-2.61-2.28,1.05-2.28,2.61.9,2.61,2.28,2.61Z"></path><path class="cls-24" d="M338.6,404.17c0-1.92,1.25-3.29,3.05-3.29s3.04,1.37,3.04,3.29-1.27,3.3-3.04,3.3-3.05-1.37-3.05-3.3ZM341.65,406.78c1.37,0,2.26-1.04,2.26-2.61s-.9-2.61-2.26-2.61-2.28,1.05-2.28,2.61.9,2.61,2.28,2.61Z"></path><path class="cls-24" d="M346.44,400.97h.78v1.1c.38-.84,1.11-1.19,1.88-1.19.91,0,1.57.4,1.89,1.25.4-.83,1.09-1.25,2-1.25,1.55,0,2.13,1.16,2.13,2.68v3.82h-.78v-3.64c0-1.33-.39-2.18-1.52-2.18-1.02,0-1.65.77-1.65,2.26v3.57h-.78v-3.76c0-1.4-.52-2.07-1.5-2.07-1.03,0-1.67.79-1.67,2.26v3.57h-.78v-6.41Z"></path></g><g><path class="cls-24" d="M282.5,211.48h.81v8.33h4.18v.73h-4.99v-9.06Z"></path><path class="cls-24" d="M288.62,211.48h.94v1.39h-.94v-1.39ZM288.71,214.13h.77v6.41h-.77v-6.41Z"></path><path class="cls-24" d="M290.88,214.13h.86l2.1,5.42,2.11-5.42h.85l-2.61,6.41h-.68l-2.63-6.41Z"></path><path class="cls-24" d="M298.13,211.48h.94v1.39h-.94v-1.39ZM298.22,214.13h.77v6.41h-.77v-6.41Z"></path><path class="cls-24" d="M301.02,214.13h.78v1.05c.4-.76,1.12-1.14,2.01-1.14,1.38,0,2.2.81,2.2,2.51v3.99h-.78v-3.71c0-1.45-.55-2.11-1.61-2.11-1.16,0-1.83.79-1.83,2.55v3.27h-.78v-6.41Z"></path><path class="cls-24" d="M307.48,221.3s0-.1.03-.26l1.11-.88c-.57-.22-.96-.59-.96-1.26,0-.53.27-.9.72-1.2-.36-.37-.56-.87-.56-1.45,0-1.3,1.04-2.2,2.39-2.2.64,0,1.22.21,1.64.58l1.02-.86.4.49-1,.88c.19.33.3.71.3,1.14,0,1.28-.96,2.13-2.33,2.13-.53,0-.99-.12-1.37-.34-.31.18-.45.42-.45.72,0,.66.63.83,1.62.98,1.6.25,2.99.44,2.99,1.75,0,1.16-1.05,1.78-2.7,1.78-1.82,0-2.85-.7-2.85-2ZM310.34,222.69c1.09,0,1.92-.34,1.92-1.08,0-.86-1.16-.96-2.31-1.14-.31-.05-.6-.1-.89-.17l-.8.92c-.01.09-.01.11-.01.15,0,.9.79,1.33,2.09,1.33ZM310.21,217.77c.98,0,1.59-.65,1.59-1.53s-.64-1.56-1.58-1.56-1.62.65-1.62,1.55.63,1.55,1.61,1.55Z"></path><path class="cls-24" d="M317.96,211.48h2.52c1.99,0,2.97.93,2.97,2.5,0,1.25-.64,2.07-1.85,2.38l2.44,4.19h-.92l-2.34-4.07c-.21,0-.44,0-.65,0h-1.36v4.06h-.81v-9.06ZM320.41,215.77c1.38,0,2.24-.55,2.24-1.78s-.88-1.77-2.24-1.77h-1.64v3.56h1.64Z"></path><path class="cls-24" d="M324.97,217.33c0-1.92,1.25-3.29,3.05-3.29s3.04,1.36,3.04,3.29-1.27,3.3-3.04,3.3-3.05-1.36-3.05-3.3ZM328.02,219.94c1.37,0,2.26-1.04,2.26-2.61s-.9-2.61-2.26-2.61-2.28,1.05-2.28,2.61.9,2.61,2.28,2.61Z"></path><path class="cls-24" d="M332.5,217.33c0-1.92,1.25-3.29,3.05-3.29s3.04,1.36,3.04,3.29-1.27,3.3-3.04,3.3-3.05-1.36-3.05-3.3ZM335.55,219.94c1.37,0,2.26-1.04,2.26-2.61s-.9-2.61-2.26-2.61-2.28,1.05-2.28,2.61.9,2.61,2.28,2.61Z"></path><path class="cls-24" d="M340.34,214.13h.78v1.1c.38-.85,1.11-1.19,1.88-1.19.91,0,1.57.4,1.89,1.25.4-.83,1.09-1.25,2-1.25,1.55,0,2.13,1.16,2.13,2.68v3.82h-.78v-3.64c0-1.33-.39-2.18-1.52-2.18-1.02,0-1.65.77-1.65,2.26v3.57h-.78v-3.76c0-1.4-.52-2.07-1.5-2.07-1.03,0-1.67.79-1.67,2.26v3.57h-.78v-6.41Z"></path></g><g><path class="cls-24" d="M127.58,168.36h2.72c1.68,0,2.68.84,2.68,2.25,0,.94-.46,1.68-1.24,2,1.1.25,1.7,1.07,1.7,2.31,0,1.61-1.02,2.5-2.88,2.5h-2.97v-9.06ZM130.55,172.37c.98,0,1.63-.64,1.63-1.64s-.69-1.61-1.88-1.61h-1.91v3.26h2.16ZM130.49,176.68c1.42,0,2.14-.6,2.14-1.79,0-1.13-.66-1.79-1.79-1.79h-2.46v3.58h2.11Z"></path><path class="cls-24" d="M139.39,176.22c-.43.82-1.25,1.29-2.25,1.29-1.44,0-2.31-.77-2.31-1.94,0-.69.29-1.16.72-1.44.46-.31,1.09-.42,1.77-.42h2.05v-.28c0-1.19-.62-1.83-1.82-1.83-.79,0-1.4.29-1.98,1.02l-.56-.48c.68-.85,1.53-1.22,2.59-1.22,1.63,0,2.54.89,2.54,2.51v3.99h-.71l-.04-1.2ZM137.22,176.87c1.18,0,2.17-.93,2.17-2.2v-.36h-1.95c-.51,0-1.03.08-1.37.33-.28.21-.44.51-.44.94,0,.79.6,1.3,1.6,1.3Z"></path><path class="cls-24" d="M141.98,176.09v-7.73h.77v7.59c0,.6.23.85.64.85.17,0,.38-.04.61-.12v.67c-.29.11-.6.17-.84.17-.72,0-1.18-.44-1.18-1.42Z"></path><path class="cls-24" d="M144.94,174.21c0-1.83,1.06-3.29,2.86-3.29,1.17,0,2.09.58,2.51,1.74l-.7.27c-.27-.82-.9-1.33-1.81-1.33-1.42,0-2.09,1.25-2.09,2.61s.68,2.62,2.09,2.62c.91,0,1.53-.51,1.81-1.33l.7.27c-.42,1.16-1.34,1.75-2.51,1.75-1.8,0-2.86-1.46-2.86-3.3Z"></path><path class="cls-24" d="M151.55,174.21c0-1.92,1.25-3.29,3.05-3.29s3.04,1.36,3.04,3.29-1.27,3.3-3.04,3.3-3.05-1.36-3.05-3.3ZM154.6,176.82c1.37,0,2.26-1.04,2.26-2.61s-.9-2.61-2.26-2.61-2.28,1.05-2.28,2.61.9,2.61,2.28,2.61Z"></path><path class="cls-24" d="M159.39,171.01h.78v1.05c.4-.76,1.12-1.14,2.01-1.14,1.38,0,2.2.81,2.2,2.51v3.99h-.78v-3.71c0-1.45-.55-2.11-1.61-2.11-1.16,0-1.83.79-1.83,2.55v3.27h-.78v-6.41Z"></path><path class="cls-24" d="M168.1,177.22l-2.55-6.21h.86l2.1,5.42,2.11-5.42h.85l-3.69,9.05h-.84l1.17-2.84Z"></path></g><g><path class="cls-24" d="M313.18,554.81h.81v4.86l4.65-4.86h1.09l-3.45,3.54,3.48,5.52h-.95l-3.11-4.93-1.71,1.75v3.17h-.81v-9.06Z"></path><path class="cls-24" d="M320.91,554.81h.94v1.39h-.94v-1.39ZM320.99,557.46h.77v6.41h-.77v-6.41Z"></path><path class="cls-24" d="M324.56,562.39v-4.31h-1.42v-.62h1.42v-1.85l.79-.46v2.31h1.54v.62h-1.54v4.12c0,.71.22,1.11.81,1.11.19,0,.46-.04.73-.12v.62c-.32.1-.64.16-.92.16-.85,0-1.4-.49-1.4-1.57Z"></path><path class="cls-24" d="M327.92,560.66c0-1.83,1.06-3.29,2.86-3.29,1.17,0,2.09.58,2.51,1.74l-.7.27c-.27-.82-.9-1.33-1.81-1.33-1.42,0-2.09,1.25-2.09,2.61s.68,2.62,2.09,2.62c.91,0,1.53-.51,1.81-1.33l.7.27c-.42,1.16-1.34,1.75-2.51,1.75-1.8,0-2.86-1.46-2.86-3.3Z"></path><path class="cls-24" d="M334.92,554.81h.78v3.69c.4-.75,1.1-1.13,2.01-1.13,1.4,0,2.2.85,2.2,2.51v3.99h-.78v-3.71c0-1.43-.53-2.11-1.61-2.11-1.18,0-1.83.83-1.83,2.55v3.27h-.78v-9.06Z"></path><path class="cls-24" d="M341.55,560.71c0-1.84.99-3.34,2.81-3.34,1.96,0,2.76,1.53,2.76,2.94,0,.1-.01.4-.04.55h-4.76c.03,1.51.84,2.39,2.14,2.39.82,0,1.35-.23,1.91-.83l.55.49c-.73.75-1.43,1.05-2.46,1.05-1.89,0-2.91-1.41-2.91-3.25ZM346.36,560.28c0-.08,0-.16,0-.24,0-.92-.58-2.01-2-2.01-1.23,0-1.98.98-2.07,2.26h4.06Z"></path><path class="cls-24" d="M348.85,557.46h.78v1.05c.4-.76,1.12-1.14,2.01-1.14,1.38,0,2.2.81,2.2,2.51v3.99h-.78v-3.71c0-1.45-.55-2.11-1.61-2.11-1.16,0-1.83.79-1.83,2.55v3.27h-.78v-6.41Z"></path></g><g><path class="cls-24" d="M517.15,553.75h5.86v.73h-5.06v3.37h4.39v.73h-4.39v4.24h-.81v-9.06Z"></path><path class="cls-24" d="M524.33,561.47v-7.73h.77v7.59c0,.6.23.84.64.84.17,0,.38-.04.61-.12v.67c-.29.11-.6.17-.84.17-.72,0-1.18-.44-1.18-1.42Z"></path><path class="cls-24" d="M527.3,559.65c0-1.84.99-3.34,2.81-3.34,1.96,0,2.76,1.53,2.76,2.94,0,.1-.01.4-.04.55h-4.76c.03,1.51.84,2.39,2.14,2.39.82,0,1.35-.23,1.91-.83l.55.49c-.73.75-1.43,1.05-2.46,1.05-1.89,0-2.91-1.41-2.91-3.25ZM532.12,559.22c0-.08,0-.16,0-.24,0-.92-.58-2.01-2-2.01-1.23,0-1.98.98-2.07,2.26h4.06Z"></path><path class="cls-24" d="M536.27,559.59l-2.37-3.19h.96l1.92,2.65,1.94-2.65h.94l-2.38,3.19,2.39,3.22h-.96l-1.93-2.67-1.94,2.67h-.94l2.37-3.22Z"></path></g><g><path class="cls-24" d="M520.58,356.78h.65l1.71,6.06,1.76-5.7h.63l1.76,5.7,1.7-6.06h.65l-2.01,6.98h-.63l-1.79-5.71-1.79,5.71h-.64l-2.01-6.98Z"></path><path class="cls-24" d="M530.58,356.78h.62v6.98h-.62v-6.98Z"></path><path class="cls-24" d="M532.63,360.26c0-2.16,1.26-3.58,3.16-3.58,1.35,0,2.39.71,2.84,1.89l-.58.22c-.38-.96-1.17-1.52-2.26-1.52-1.55,0-2.54,1.17-2.54,2.99s.99,3,2.54,3c1.09,0,1.89-.56,2.26-1.52l.58.22c-.45,1.18-1.49,1.9-2.84,1.9-1.89,0-3.16-1.42-3.16-3.59Z"></path></g><path class="cls-24" d="M439.57,593.43h.65l1.71,6.06,1.76-5.7h.63l1.76,5.7,1.7-6.06h.65l-2.01,6.98h-.63l-1.79-5.71-1.79,5.71h-.64l-2.01-6.98Z"></path><path class="cls-24" d="M451.85,592.55h.48l-3.55,9.08h-.47l3.55-9.08Z"></path><path class="cls-24" d="M453.55,593.43h1.87c2.26,0,3.56,1.29,3.56,3.54s-1.27,3.43-3.57,3.43h-1.86v-6.98ZM455.36,599.83c1.92,0,2.99-.89,2.99-2.88s-1.08-2.95-2.94-2.95h-1.24v5.83h1.19Z"></path><path class="cls-24" d="M259.08,599.67c0-2.17,1.27-3.59,3.16-3.59s3.18,1.42,3.18,3.59-1.27,3.58-3.18,3.58-3.16-1.42-3.16-3.58ZM262.24,602.66c1.57,0,2.55-1.16,2.55-2.99s-.99-3-2.55-3-2.54,1.15-2.54,3,.99,2.99,2.54,2.99Z"></path><path class="cls-24" d="M269.11,595.18h.48l-3.55,9.08h-.48l3.55-9.08Z"></path><path class="cls-24" d="M270.81,596.18h.93l2.35,5.66,2.35-5.66h.92v6.98h-.62v-6.16l-2.35,5.59h-.61l-2.36-5.59v6.16h-.62v-6.98Z"></path><g><path class="cls-24" d="M384.74,596.18h1.94c1.53,0,2.29.72,2.29,1.92,0,.97-.5,1.6-1.43,1.83l1.88,3.22h-.71l-1.8-3.13c-.16,0-.34,0-.5,0h-1.05v3.13h-.62v-6.98ZM386.62,599.48c1.06,0,1.73-.42,1.73-1.37s-.68-1.37-1.73-1.37h-1.26v2.74h1.26Z"></path><path class="cls-24" d="M390.6,596.18h4.56v.56h-3.94v2.59h3.53v.56h-3.53v2.7h3.94v.56h-4.56v-6.98Z"></path><path class="cls-24" d="M396.45,596.18h4.51v.56h-3.89v2.59h3.38v.56h-3.38v3.26h-.62v-6.98Z"></path></g><g><path class="cls-24" d="M343.37,516.79h.65l1.71,6.06,1.76-5.7h.63l1.76,5.7,1.7-6.06h.65l-2.01,6.98h-.63l-1.79-5.71-1.79,5.71h-.64l-2.01-6.98Z"></path><path class="cls-24" d="M353.37,516.79h4.51v.56h-3.89v2.59h3.38v.56h-3.38v3.26h-.62v-6.98Z"></path></g><g><path class="cls-24" d="M260.28,516.79h1.87c2.26,0,3.56,1.29,3.56,3.54s-1.27,3.43-3.57,3.43h-1.86v-6.98ZM262.08,523.19c1.92,0,2.99-.89,2.99-2.88s-1.08-2.95-2.94-2.95h-1.24v5.83h1.19Z"></path><path class="cls-24" d="M266.37,516.79h.65l1.71,6.06,1.76-5.7h.63l1.76,5.7,1.7-6.06h.65l-2.01,6.98h-.63l-1.79-5.71-1.79,5.71h-.64l-2.01-6.98Z"></path></g><g><path class="cls-28" d="M244.46,0h3.61v.45h-3.11v2.07h2.7v.45h-2.7v2.61h-.5V0Z"></path><path class="cls-28" d="M248.8,0h.58v.86h-.58v-.86ZM248.86,1.63h.47v3.94h-.47V1.63Z"></path><path class="cls-28" d="M250.66,1.63h.48v.64c.25-.47.69-.7,1.24-.7.85,0,1.36.5,1.36,1.54v2.45h-.48v-2.28c0-.89-.34-1.3-.99-1.3-.71,0-1.13.48-1.13,1.57v2.01h-.48V1.63Z"></path><path class="cls-28" d="M257.23,0h3.64v.45h-3.15v2.07h2.82v.45h-2.82v2.16h3.15v.45h-3.64V0Z"></path><path class="cls-28" d="M263.04,3.59l-1.46-1.96h.59l1.18,1.63,1.2-1.63h.58l-1.46,1.96,1.47,1.98h-.59l-1.19-1.64-1.19,1.64h-.58l1.46-1.98Z"></path><path class="cls-28" d="M266.56,4.66v-2.65h-.88v-.38h.88V.49l.48-.28v1.42h.95v.38h-.95v2.53c0,.44.14.68.5.68.12,0,.28-.02.45-.08v.38c-.2.06-.4.1-.57.1-.52,0-.86-.3-.86-.97Z"></path><path class="cls-28" d="M268.71,3.63c0-1.13.61-2.05,1.73-2.05,1.21,0,1.7.94,1.7,1.81,0,.06,0,.24-.02.34h-2.93c.02.93.52,1.47,1.32,1.47.5,0,.83-.14,1.17-.51l.34.3c-.45.46-.88.65-1.51.65-1.16,0-1.79-.87-1.79-2ZM271.67,3.37s0-.1,0-.15c0-.57-.36-1.24-1.23-1.24-.75,0-1.22.6-1.27,1.39h2.49Z"></path><path class="cls-28" d="M273.28,1.63h.48v.64c.25-.47.69-.7,1.24-.7.85,0,1.36.5,1.36,1.54v2.45h-.48v-2.28c0-.89-.34-1.3-.99-1.3-.71,0-1.13.48-1.13,1.57v2.01h-.48V1.63Z"></path><path class="cls-28" d="M277.23,4.73l.34-.28c.2.46.66.77,1.26.77.57,0,.95-.27.95-.72,0-.55-.53-.68-1.1-.82-.66-.16-1.23-.38-1.23-1.06,0-.62.53-1.05,1.29-1.05.6,0,1.1.26,1.37.76l-.37.21c-.21-.38-.57-.58-1.01-.58-.48,0-.84.24-.84.62,0,.4.36.54.93.68.67.16,1.43.34,1.43,1.2,0,.71-.56,1.17-1.42,1.17-.79,0-1.35-.4-1.6-.9Z"></path><path class="cls-28" d="M281.34,0h.58v.86h-.58v-.86ZM281.39,1.63h.47v3.94h-.47V1.63Z"></path><path class="cls-28" d="M283.01,3.6c0-1.18.77-2.02,1.88-2.02s1.87.84,1.87,2.02-.78,2.03-1.87,2.03-1.88-.84-1.88-2.03ZM284.89,5.2c.84,0,1.39-.64,1.39-1.6s-.55-1.6-1.39-1.6-1.4.64-1.4,1.6.56,1.6,1.4,1.6Z"></path><path class="cls-28" d="M287.91,1.63h.48v.64c.25-.47.69-.7,1.24-.7.85,0,1.36.5,1.36,1.54v2.45h-.48v-2.28c0-.89-.34-1.3-.99-1.3-.71,0-1.13.48-1.13,1.57v2.01h-.48V1.63Z"></path><path class="cls-28" d="M292.31,1.81h.58v.86h-.58v-.86ZM292.31,4.72h.58v.85h-.58v-.85Z"></path></g><g><path class="cls-28" d="M246.2,10.89h-1.47v-.39h1.03c.29,0,.44-.1.44-.41v-.49h.48v5.57h-.48v-4.28Z"></path><path class="cls-28" d="M248.84,12.37c0-1.33.3-2.84,1.72-2.84s1.75,1.39,1.75,2.85-.4,2.84-1.72,2.84c-1.44,0-1.75-1.51-1.75-2.85ZM250.59,14.77c.88,0,1.23-1,1.23-2.36s-.36-2.41-1.26-2.41c-.96,0-1.23,1.1-1.23,2.4s.28,2.37,1.26,2.37Z"></path><path class="cls-28" d="M253.39,12.37c0-1.33.3-2.84,1.72-2.84s1.75,1.39,1.75,2.85-.4,2.84-1.72,2.84c-1.44,0-1.75-1.51-1.75-2.85ZM255.15,14.77c.88,0,1.23-1,1.23-2.36s-.36-2.41-1.26-2.41c-.96,0-1.23,1.1-1.23,2.4s.28,2.37,1.26,2.37Z"></path><path class="cls-28" d="M259.87,10.89h-1.47v-.39h1.03c.29,0,.44-.1.44-.41v-.49h.48v5.57h-.48v-4.28Z"></path><path class="cls-28" d="M263.09,14.05h.53l-1.06,2.38h-.34l.87-2.38Z"></path><path class="cls-28" d="M266.43,10.89h-1.47v-.39h1.03c.29,0,.44-.1.44-.41v-.49h.48v5.57h-.48v-4.28Z"></path><path class="cls-28" d="M270.98,10.89h-1.47v-.39h1.03c.29,0,.44-.1.44-.41v-.49h.48v5.57h-.48v-4.28Z"></path><path class="cls-28" d="M273.62,12.37c0-1.33.3-2.84,1.72-2.84s1.75,1.39,1.75,2.85-.4,2.84-1.72,2.84c-1.44,0-1.75-1.51-1.75-2.85ZM275.38,14.77c.88,0,1.23-1,1.23-2.36s-.36-2.41-1.26-2.41c-.96,0-1.23,1.1-1.23,2.4s.28,2.37,1.26,2.37Z"></path><path class="cls-28" d="M280.1,10.89h-1.47v-.39h1.03c.29,0,.44-.1.44-.41v-.49h.48v5.57h-.48v-4.28Z"></path><path class="cls-28" d="M283.33,14.05h.53l-1.06,2.38h-.34l.87-2.38Z"></path><path class="cls-28" d="M286.66,10.89h-1.47v-.39h1.03c.29,0,.44-.1.44-.41v-.49h.48v5.57h-.48v-4.28Z"></path><path class="cls-28" d="M292.17,11.21c0-.73-.43-1.2-1.19-1.2-.83,0-1.26.58-1.27,1.45l-.47-.03c0-1.07.62-1.88,1.76-1.88.99,0,1.64.65,1.64,1.65,0,1.49-1.5,2.65-2.81,3.53h3.04v.45h-3.64v-.44c1.02-.82,2.94-2.02,2.94-3.53Z"></path><path class="cls-28" d="M293.86,12.37c0-1.33.3-2.84,1.72-2.84s1.75,1.39,1.75,2.85-.4,2.84-1.72,2.84c-1.44,0-1.75-1.51-1.75-2.85ZM295.62,14.77c.88,0,1.23-1,1.23-2.36s-.36-2.41-1.26-2.41c-.96,0-1.23,1.1-1.23,2.4s.28,2.37,1.26,2.37Z"></path><path class="cls-28" d="M300.33,10.89h-1.47v-.39h1.03c.29,0,.44-.1.44-.41v-.49h.48v5.57h-.48v-4.28Z"></path></g><g><path class="cls-28" d="M246.71,22.57c-.23.14-.5.22-.76.22-1.01,0-1.81-.81-1.81-1.81s.84-1.83,1.87-1.83,1.88.8,1.88,1.82c0,.37-.12.7-.29,1l-1.67,2.81h-.54l1.34-2.21ZM246.01,22.35c.76,0,1.39-.59,1.39-1.38s-.62-1.38-1.39-1.38-1.39.6-1.39,1.38.62,1.38,1.39,1.38Z"></path><path class="cls-28" d="M248.84,21.97c0-1.33.3-2.84,1.72-2.84s1.75,1.39,1.75,2.85-.4,2.84-1.72,2.84c-1.44,0-1.75-1.51-1.75-2.85ZM250.59,24.36c.88,0,1.23-1,1.23-2.36s-.36-2.41-1.26-2.41c-.96,0-1.23,1.1-1.23,2.4s.28,2.37,1.26,2.37Z"></path><path class="cls-28" d="M255.31,20.49h-1.47v-.39h1.03c.29,0,.44-.1.44-.41v-.49h.48v5.57h-.48v-4.28Z"></path></g><g><path class="cls-28" d="M244.16,32.79c0-.7.41-1.25,1.08-1.45-.46-.18-.76-.62-.76-1.19,0-.9.78-1.41,1.54-1.41.86,0,1.53.57,1.53,1.45,0,.55-.3.97-.77,1.15.67.21,1.07.76,1.07,1.45,0,1.09-.9,1.64-1.84,1.64s-1.85-.55-1.85-1.64ZM246.01,33.98c.72,0,1.36-.41,1.36-1.22,0-.73-.56-1.22-1.36-1.22s-1.38.48-1.38,1.22c0,.82.66,1.22,1.38,1.22ZM246.03,31.2c.61,0,1.05-.4,1.05-.98,0-.61-.42-1.03-1.06-1.03-.56,0-1.06.36-1.06.98s.44,1.02,1.07,1.02Z"></path><path class="cls-28" d="M248.84,31.57c0-1.33.3-2.84,1.72-2.84s1.75,1.39,1.75,2.85-.4,2.84-1.72,2.84c-1.44,0-1.75-1.51-1.75-2.85ZM250.59,33.96c.88,0,1.23-1,1.23-2.36s-.36-2.41-1.26-2.41c-.96,0-1.23,1.1-1.23,2.39s.28,2.38,1.26,2.38Z"></path><path class="cls-28" d="M255.31,30.09h-1.47v-.39h1.03c.29,0,.44-.1.44-.41v-.49h.48v5.57h-.48v-4.28Z"></path></g><g><path class="cls-28" d="M247.44,38.85h-3.43v-.45h3.98v.4l-2.75,5.18h-.53l2.74-5.12Z"></path><path class="cls-28" d="M248.84,41.17c0-1.33.3-2.84,1.72-2.84s1.75,1.39,1.75,2.85-.4,2.84-1.72,2.84c-1.44,0-1.75-1.51-1.75-2.85ZM250.59,43.56c.88,0,1.23-1,1.23-2.36s-.36-2.41-1.26-2.41c-.96,0-1.23,1.1-1.23,2.4s.28,2.37,1.26,2.37Z"></path><path class="cls-28" d="M255.31,39.69h-1.47v-.39h1.03c.29,0,.44-.1.44-.41v-.49h.48v5.57h-.48v-4.28Z"></path></g><g><path class="cls-28" d="M245.21,50.21c.23-.14.5-.22.76-.22,1.01,0,1.81.81,1.81,1.81s-.84,1.83-1.87,1.83-1.88-.8-1.88-1.82c0-.37.12-.7.29-1l1.67-2.81h.54l-1.34,2.21ZM245.91,53.18c.76,0,1.39-.6,1.39-1.38s-.62-1.38-1.39-1.38-1.39.59-1.39,1.38.62,1.38,1.39,1.38Z"></path><path class="cls-28" d="M248.84,50.77c0-1.33.3-2.84,1.72-2.84s1.75,1.39,1.75,2.85-.4,2.84-1.72,2.84c-1.44,0-1.75-1.51-1.75-2.85ZM250.59,53.17c.88,0,1.23-1,1.23-2.36s-.36-2.41-1.26-2.41c-.96,0-1.23,1.1-1.23,2.39s.28,2.38,1.26,2.38Z"></path><path class="cls-28" d="M255.31,49.29h-1.47v-.39h1.03c.29,0,.44-.1.44-.41v-.49h.48v5.57h-.48v-4.28Z"></path></g><g><path class="cls-28" d="M244.13,61.65l.47-.08c.14.7.66,1.21,1.4,1.21.85,0,1.41-.68,1.41-1.48s-.52-1.38-1.34-1.38c-.51,0-.95.24-1.26.69l-.5-.15.5-2.86h2.84v.45h-2.45l-.34,1.96c.38-.39.82-.55,1.27-.55,1.04,0,1.78.82,1.78,1.83s-.81,1.94-1.91,1.94c-.94,0-1.7-.64-1.88-1.58Z"></path><path class="cls-28" d="M248.84,60.37c0-1.33.3-2.84,1.72-2.84s1.75,1.39,1.75,2.85-.4,2.84-1.72,2.84c-1.44,0-1.75-1.51-1.75-2.85ZM250.59,62.77c.88,0,1.23-1,1.23-2.36s-.36-2.41-1.26-2.41c-.96,0-1.23,1.1-1.23,2.4s.28,2.37,1.26,2.37Z"></path><path class="cls-28" d="M255.31,58.89h-1.47v-.39h1.03c.29,0,.44-.1.44-.41v-.49h.48v5.57h-.48v-4.28Z"></path></g><g><path class="cls-28" d="M246.71,71.44h-2.77v-.4l2.79-3.84h.46v3.79h.91v.45h-.91v1.34h-.48v-1.34ZM246.71,70.99v-3.15l-2.25,3.15h2.25Z"></path><path class="cls-28" d="M248.84,69.97c0-1.33.3-2.84,1.72-2.84s1.75,1.39,1.75,2.85-.4,2.84-1.72,2.84c-1.44,0-1.75-1.51-1.75-2.85ZM250.59,72.36c.88,0,1.23-1,1.23-2.36s-.36-2.41-1.26-2.41c-.96,0-1.23,1.1-1.23,2.4s.28,2.37,1.26,2.37Z"></path><path class="cls-28" d="M255.31,68.49h-1.47v-.39h1.03c.29,0,.44-.1.44-.41v-.49h.48v5.57h-.48v-4.28Z"></path></g><g><path class="cls-28" d="M8.55,11.3h3.61v.45h-3.11v2.07h2.7v.45h-2.7v2.61h-.5v-5.57Z"></path><path class="cls-28" d="M12.9,11.3h.58v.86h-.58v-.86ZM12.95,12.93h.47v3.94h-.47v-3.94Z"></path><path class="cls-28" d="M14.76,12.93h.48v.64c.25-.47.69-.7,1.24-.7.85,0,1.36.5,1.36,1.54v2.45h-.48v-2.28c0-.89-.34-1.3-.99-1.3-.71,0-1.13.48-1.13,1.57v2.01h-.48v-3.94Z"></path><path class="cls-28" d="M21.33,11.3h3.64v.45h-3.15v2.07h2.82v.45h-2.82v2.16h3.15v.45h-3.64v-5.57Z"></path><path class="cls-28" d="M27.13,14.89l-1.46-1.96h.59l1.18,1.63,1.2-1.63h.58l-1.46,1.96,1.47,1.98h-.59l-1.19-1.64-1.19,1.64h-.58l1.46-1.98Z"></path><path class="cls-28" d="M30.66,15.96v-2.65h-.88v-.38h.88v-1.14l.48-.28v1.42h.95v.38h-.95v2.53c0,.44.14.68.5.68.12,0,.28-.02.45-.08v.38c-.2.06-.4.1-.57.1-.52,0-.86-.3-.86-.97Z"></path><path class="cls-28" d="M32.8,14.93c0-1.13.61-2.05,1.73-2.05,1.21,0,1.7.94,1.7,1.81,0,.06,0,.24-.02.34h-2.93c.02.93.52,1.47,1.32,1.47.5,0,.83-.14,1.18-.51l.34.3c-.45.46-.88.65-1.52.65-1.16,0-1.79-.87-1.79-2ZM35.77,14.66s0-.1,0-.15c0-.57-.36-1.24-1.23-1.24-.76,0-1.22.6-1.27,1.39h2.49Z"></path><path class="cls-28" d="M37.37,12.93h.48v.64c.25-.47.69-.7,1.24-.7.85,0,1.36.5,1.36,1.54v2.45h-.48v-2.28c0-.89-.34-1.3-.99-1.3-.71,0-1.13.48-1.13,1.57v2.01h-.48v-3.94Z"></path><path class="cls-28" d="M41.33,16.03l.34-.28c.2.46.66.77,1.26.77.57,0,.95-.27.95-.72,0-.55-.53-.68-1.1-.82-.66-.16-1.23-.38-1.23-1.06,0-.62.53-1.05,1.3-1.05.6,0,1.1.26,1.37.76l-.37.21c-.21-.38-.57-.58-1.02-.58-.48,0-.84.24-.84.62,0,.4.36.54.93.68.67.16,1.44.34,1.44,1.2,0,.71-.56,1.17-1.42,1.17-.79,0-1.35-.4-1.6-.9Z"></path><path class="cls-28" d="M45.43,11.3h.58v.86h-.58v-.86ZM45.48,12.93h.47v3.94h-.47v-3.94Z"></path><path class="cls-28" d="M47.1,14.89c0-1.18.77-2.02,1.88-2.02s1.87.84,1.87,2.02-.78,2.03-1.87,2.03-1.88-.84-1.88-2.03ZM48.98,16.5c.84,0,1.39-.64,1.39-1.6s-.55-1.6-1.39-1.6-1.4.64-1.4,1.6.56,1.6,1.4,1.6Z"></path><path class="cls-28" d="M52,12.93h.48v.64c.25-.47.69-.7,1.24-.7.85,0,1.36.5,1.36,1.54v2.45h-.48v-2.28c0-.89-.34-1.3-.99-1.3-.71,0-1.13.48-1.13,1.57v2.01h-.48v-3.94Z"></path><path class="cls-28" d="M56.4,13.1h.58v.86h-.58v-.86ZM56.4,16.02h.58v.85h-.58v-.85Z"></path></g><g><path class="cls-28" d="M1.47,22.19H0v-.39h1.03c.29,0,.44-.1.44-.41v-.49h.48v5.57h-.48v-4.28Z"></path><path class="cls-28" d="M4.11,23.67c0-1.33.3-2.84,1.72-2.84s1.75,1.39,1.75,2.85-.4,2.84-1.72,2.84c-1.44,0-1.75-1.51-1.75-2.85ZM5.87,26.06c.88,0,1.23-1,1.23-2.36s-.36-2.41-1.26-2.41c-.96,0-1.23,1.1-1.23,2.4s.28,2.37,1.26,2.37Z"></path><path class="cls-28" d="M8.66,23.67c0-1.33.3-2.84,1.72-2.84s1.75,1.39,1.75,2.85-.4,2.84-1.72,2.84c-1.44,0-1.75-1.51-1.75-2.85ZM10.42,26.06c.88,0,1.23-1,1.23-2.36s-.36-2.41-1.26-2.41c-.96,0-1.23,1.1-1.23,2.4s.28,2.37,1.26,2.37Z"></path><path class="cls-28" d="M15.14,22.19h-1.47v-.39h1.03c.29,0,.44-.1.44-.41v-.49h.48v5.57h-.48v-4.28Z"></path><path class="cls-28" d="M18.37,25.35h.53l-1.06,2.38h-.34l.87-2.38Z"></path><path class="cls-28" d="M21.7,22.19h-1.47v-.39h1.03c.29,0,.44-.1.44-.41v-.49h.48v5.57h-.48v-4.28Z"></path><path class="cls-28" d="M26.25,22.19h-1.47v-.39h1.03c.29,0,.44-.1.44-.41v-.49h.48v5.57h-.48v-4.28Z"></path><path class="cls-28" d="M28.9,23.67c0-1.33.3-2.84,1.72-2.84s1.75,1.39,1.75,2.85-.4,2.84-1.72,2.84c-1.44,0-1.75-1.51-1.75-2.85ZM30.65,26.06c.88,0,1.23-1,1.23-2.36s-.36-2.41-1.26-2.41c-.96,0-1.23,1.1-1.23,2.4s.28,2.37,1.26,2.37Z"></path><path class="cls-28" d="M35.38,22.19h-1.47v-.39h1.03c.29,0,.44-.1.44-.41v-.49h.48v5.57h-.48v-4.28Z"></path><path class="cls-28" d="M38.59,25.35h.53l-1.06,2.38h-.34l.87-2.38Z"></path><path class="cls-28" d="M41.93,22.19h-1.47v-.39h1.03c.29,0,.44-.1.44-.41v-.49h.48v5.57h-.48v-4.28Z"></path><path class="cls-28" d="M47.43,22.51c0-.73-.43-1.2-1.19-1.2-.84,0-1.26.58-1.27,1.45l-.47-.03c0-1.07.62-1.88,1.75-1.88.99,0,1.64.65,1.64,1.65,0,1.49-1.5,2.65-2.81,3.53h3.04v.45h-3.64v-.44c1.02-.82,2.94-2.02,2.94-3.53Z"></path><path class="cls-28" d="M49.13,23.67c0-1.33.3-2.84,1.72-2.84s1.75,1.39,1.75,2.85-.4,2.84-1.72,2.84c-1.44,0-1.75-1.51-1.75-2.85ZM50.88,26.06c.88,0,1.23-1,1.23-2.36s-.36-2.41-1.26-2.41c-.96,0-1.23,1.1-1.23,2.4s.28,2.37,1.26,2.37Z"></path><path class="cls-28" d="M55.61,22.19h-1.47v-.39h1.03c.29,0,.44-.1.44-.41v-.49h.48v5.57h-.48v-4.28Z"></path></g><g><path class="cls-28" d="M47.02,33.86c-.23.14-.5.22-.76.22-1.01,0-1.81-.81-1.81-1.81s.84-1.83,1.87-1.83,1.88.8,1.88,1.82c0,.37-.12.7-.29,1l-1.68,2.81h-.54l1.34-2.21ZM46.32,33.65c.76,0,1.39-.59,1.39-1.38s-.62-1.38-1.39-1.38-1.39.6-1.39,1.38.62,1.38,1.39,1.38Z"></path><path class="cls-28" d="M49.15,33.27c0-1.33.3-2.84,1.72-2.84s1.75,1.39,1.75,2.85-.4,2.84-1.72,2.84c-1.44,0-1.75-1.51-1.75-2.85ZM50.91,35.66c.88,0,1.23-1,1.23-2.36s-.36-2.41-1.26-2.41c-.96,0-1.23,1.1-1.23,2.39s.28,2.38,1.26,2.38Z"></path><path class="cls-28" d="M55.62,31.79h-1.47v-.39h1.03c.29,0,.44-.1.44-.41v-.49h.48v5.57h-.48v-4.28Z"></path></g><g><path class="cls-28" d="M44.48,44.09c0-.7.41-1.25,1.08-1.45-.46-.18-.76-.62-.76-1.19,0-.9.78-1.41,1.54-1.41.86,0,1.53.57,1.53,1.45,0,.55-.3.97-.77,1.15.67.21,1.07.76,1.07,1.45,0,1.09-.9,1.64-1.84,1.64s-1.85-.55-1.85-1.64ZM46.33,45.27c.72,0,1.36-.41,1.36-1.22,0-.73-.56-1.22-1.36-1.22s-1.38.48-1.38,1.22c0,.82.66,1.22,1.38,1.22ZM46.35,42.5c.61,0,1.05-.4,1.05-.98,0-.61-.42-1.03-1.06-1.03-.56,0-1.06.36-1.06.98s.44,1.02,1.07,1.02Z"></path><path class="cls-28" d="M49.15,42.87c0-1.33.3-2.84,1.72-2.84s1.75,1.39,1.75,2.85-.4,2.84-1.72,2.84c-1.44,0-1.75-1.51-1.75-2.85ZM50.91,45.26c.88,0,1.23-1,1.23-2.36s-.36-2.41-1.26-2.41c-.96,0-1.23,1.1-1.23,2.4s.28,2.37,1.26,2.37Z"></path><path class="cls-28" d="M55.62,41.39h-1.47v-.39h1.03c.29,0,.44-.1.44-.41v-.49h.48v5.57h-.48v-4.28Z"></path></g><g><path class="cls-28" d="M47.75,50.15h-3.43v-.45h3.98v.4l-2.75,5.18h-.53l2.74-5.12Z"></path><path class="cls-28" d="M49.15,52.47c0-1.33.3-2.84,1.72-2.84s1.75,1.39,1.75,2.85-.4,2.84-1.72,2.84c-1.44,0-1.75-1.51-1.75-2.85ZM50.91,54.86c.88,0,1.23-1,1.23-2.36s-.36-2.41-1.26-2.41c-.96,0-1.23,1.1-1.23,2.39s.28,2.38,1.26,2.38Z"></path><path class="cls-28" d="M55.62,50.99h-1.47v-.39h1.03c.29,0,.44-.1.44-.41v-.49h.48v5.57h-.48v-4.28Z"></path></g><g><path class="cls-28" d="M45.52,61.5c.23-.14.5-.22.76-.22,1.01,0,1.81.81,1.81,1.81s-.84,1.83-1.87,1.83-1.88-.8-1.88-1.82c0-.37.12-.7.29-1l1.67-2.81h.54l-1.34,2.21ZM46.22,64.47c.76,0,1.39-.6,1.39-1.38s-.62-1.38-1.39-1.38-1.39.59-1.39,1.38.62,1.38,1.39,1.38Z"></path><path class="cls-28" d="M49.15,62.07c0-1.33.3-2.84,1.72-2.84s1.75,1.39,1.75,2.85-.4,2.84-1.72,2.84c-1.44,0-1.75-1.51-1.75-2.85ZM50.91,64.46c.88,0,1.23-1,1.23-2.36s-.36-2.41-1.26-2.41c-.96,0-1.23,1.1-1.23,2.39s.28,2.38,1.26,2.38Z"></path><path class="cls-28" d="M55.62,60.59h-1.47v-.39h1.03c.29,0,.44-.1.44-.41v-.49h.48v5.57h-.48v-4.28Z"></path></g><g><path class="cls-28" d="M44.44,72.94l.47-.08c.14.7.66,1.21,1.4,1.21.85,0,1.41-.68,1.41-1.48s-.52-1.38-1.34-1.38c-.51,0-.95.24-1.26.69l-.5-.15.5-2.86h2.84v.45h-2.45l-.34,1.96c.38-.39.82-.55,1.27-.55,1.04,0,1.78.82,1.78,1.83s-.81,1.94-1.91,1.94c-.94,0-1.69-.64-1.88-1.58Z"></path><path class="cls-28" d="M49.15,71.67c0-1.33.3-2.84,1.72-2.84s1.75,1.39,1.75,2.85-.4,2.84-1.72,2.84c-1.44,0-1.75-1.51-1.75-2.85ZM50.91,74.06c.88,0,1.23-1,1.23-2.36s-.36-2.41-1.26-2.41c-.96,0-1.23,1.1-1.23,2.4s.28,2.37,1.26,2.37Z"></path><path class="cls-28" d="M55.62,70.19h-1.47v-.39h1.03c.29,0,.44-.1.44-.41v-.49h.48v5.57h-.48v-4.28Z"></path></g><g><path class="cls-28" d="M47.03,82.73h-2.77v-.4l2.79-3.84h.46v3.79h.91v.45h-.91v1.34h-.48v-1.34ZM47.03,82.29v-3.15l-2.25,3.15h2.25Z"></path><path class="cls-28" d="M49.15,81.27c0-1.33.3-2.84,1.72-2.84s1.75,1.39,1.75,2.85-.4,2.84-1.72,2.84c-1.44,0-1.75-1.51-1.75-2.85ZM50.91,83.66c.88,0,1.23-1,1.23-2.36s-.36-2.41-1.26-2.41c-.96,0-1.23,1.1-1.23,2.39s.28,2.38,1.26,2.38Z"></path><path class="cls-28" d="M55.62,79.79h-1.47v-.39h1.03c.29,0,.44-.1.44-.41v-.49h.48v5.57h-.48v-4.28Z"></path></g><polyline class="cls-2" points="237.46 70.37 225.31 70.37 213.21 106.86"></polyline><polygon class="cls-27" points="211.94 110.69 215.68 105.96 213.21 106.86 211.76 104.66 211.94 110.69"></polygon><polyline class="cls-2" points="64.01 81.66 76.16 81.66 88.26 118.16"></polyline><path class="cls-27" d="M89.53,121.99l-3.74-4.73s2.47.9,3.92-1.3l-.17,6.03Z"></path><polyline class="cls-2" points="237.46 60.69 215.6 60.69 201.4 107.83"></polyline><polygon class="cls-27" points="200.24 111.69 203.85 106.86 201.4 107.83 199.9 105.67 200.24 111.69"></polygon><polyline class="cls-2" points="64.01 71.99 86.87 71.99 101.37 116.85"></polyline><path class="cls-27" d="M102.61,120.69l-3.71-4.76s2.47.92,3.93-1.27l-.22,6.03Z"></path><polyline class="cls-2" points="237.46 51.01 206.45 51.01 190.04 108.32"></polyline><polygon class="cls-27" points="188.93 112.2 192.47 107.31 190.04 108.32 188.5 106.17 188.93 112.2"></polygon><polyline class="cls-2" points="64.01 62.31 94.02 62.31 110.9 115.98"></polyline><path class="cls-27" d="M112.11,119.83l-3.67-4.79s2.46.94,3.94-1.24l-.27,6.03Z"></path><polyline class="cls-2" points="237.46 41.33 200.33 41.33 182.26 109.71"></polyline><polygon class="cls-27" points="181.23 113.62 184.68 108.66 182.26 109.71 180.69 107.61 181.23 113.62"></polygon><polyline class="cls-2" points="64.01 52.63 99.13 52.63 118.41 114.96"></polyline><path class="cls-27" d="M119.6,118.82l-3.65-4.81s2.46.95,3.94-1.22l-.3,6.03Z"></path><polyline class="cls-2" points="237.46 31.65 196.77 31.65 177.31 109.7"></polyline><polygon class="cls-27" points="176.34 113.62 179.71 108.61 177.31 109.7 175.71 107.61 176.34 113.62"></polygon><polyline class="cls-2" points="64.01 42.95 102.69 42.95 123.92 114.09"></polyline><path class="cls-27" d="M125.07,117.96l-3.6-4.85s2.45.98,3.96-1.18l-.36,6.03Z"></path><polyline class="cls-2" points="237.46 21.97 194.61 21.97 174.36 109.68"></polyline><polygon class="cls-27" points="173.46 113.62 176.74 108.55 174.36 109.68 172.72 107.63 173.46 113.62"></polygon><polyline class="cls-2" points="64.01 33.27 103.86 33.27 127.03 114.08"></polyline><path class="cls-27" d="M128.14,117.96l-3.55-4.88s2.43,1,3.97-1.14l-.42,6.02Z"></path><polyline class="cls-2" points="237.46 12.29 193.2 12.29 172.15 109.67"></polyline><polygon class="cls-27" points="171.3 113.62 174.51 108.51 172.15 109.67 170.48 107.64 171.3 113.62"></polygon><polyline class="cls-2" points="64.01 23.59 104.26 23.59 129.18 114.07"></polyline><path class="cls-27" d="M130.26,117.96l-3.5-4.92s2.42,1.03,3.98-1.1l-.48,6.02Z"></path></g></g></svg> 