<?xml version="1.0" encoding="UTF-8"?> <svg xmlns="http://www.w3.org/2000/svg" id="Layer_2" data-name="Layer 2" viewBox="0 0 693.48 683.54"><defs><style> .cls-1 { stroke: #afa49f; } .cls-1, .cls-2, .cls-3, .cls-4, .cls-5, .cls-6, .cls-7, .cls-8, .cls-9, .cls-10, .cls-11, .cls-12, .cls-13, .cls-14, .cls-15, .cls-16, .cls-17, .cls-18 { fill: none; } .cls-1, .cls-2, .cls-3, .cls-10, .cls-13, .cls-16 { stroke-width: .25px; } .cls-1, .cls-12, .cls-13 { stroke-miterlimit: 10; } .cls-2 { stroke-dasharray: 1.54 1.54; } .cls-2, .cls-3, .cls-4, .cls-5, .cls-6, .cls-7, .cls-8, .cls-9, .cls-10, .cls-11, .cls-14, .cls-15, .cls-16, .cls-17, .cls-18 { stroke-linecap: round; stroke-linejoin: round; } .cls-2, .cls-3, .cls-10 { stroke: #75655e; } .cls-19 { fill: #3a2a22; } .cls-3 { stroke-dasharray: 5.65 4.7; } .cls-4 { stroke-dasharray: 1.01 1.01; } .cls-4, .cls-5, .cls-6, .cls-7, .cls-8, .cls-11, .cls-14, .cls-15, .cls-18 { stroke: #55453d; stroke-width: .15px; } .cls-5 { stroke-dasharray: 1.02 1.02; } .cls-6 { stroke-dasharray: 1.01 1.01; } .cls-8 { stroke-dasharray: 1.01 1.01; } .cls-20 { fill: #fff; } .cls-9, .cls-12 { stroke-width: .75px; } .cls-9, .cls-12, .cls-16, .cls-17 { stroke: #3a2a22; } .cls-21 { fill: #bc8ebc; } .cls-11 { stroke-dasharray: 1.02 1.02; } .cls-13 { stroke: #bc8ebc; } .cls-14 { stroke-dasharray: 1.01 1.01; } .cls-22 { fill: #afa49f; } .cls-15 { stroke-dasharray: 1.02 1.02; } .cls-17 { stroke-width: .35px; } .cls-23 { fill: #75655e; } .cls-18 { stroke-dasharray: 1.01 1.01; } </style></defs><g id="Layer_1-2" data-name="Layer 1"><g><polygon class="cls-20" points="221.98 679.3 585.41 679.3 585.41 636.52 673.19 636.52 673.19 537.98 651.2 537.98 651.2 489.47 593.45 489.47 593.45 52.13 579.94 53.73 543.53 58.54 507.13 63.62 470.81 69.16 434.5 75.08 398.37 81.36 362.24 88.11 326.21 95.13 290.17 102.52 254.32 110.37 218.47 118.6 197.41 123.63 199.34 131.48 181.78 135.69 145.28 144.93 108.79 154.54 72.47 164.62 36.25 175.06 .13 185.87 54 313.57 98.48 313.57 124.31 683.16 221.98 683.16 221.98 679.3"></polygon><line class="cls-7" x1="169.13" y1="130.52" x2="169.25" y2="131"></line><line class="cls-5" x1="169.49" y1="131.99" x2="170.83" y2="137.42"></line><line class="cls-7" x1="170.95" y1="137.92" x2="171.07" y2="138.4"></line><line class="cls-7" x1="158.13" y1="133.29" x2="158.26" y2="133.77"></line><line class="cls-11" x1="158.51" y1="134.76" x2="159.92" y2="140.19"></line><line class="cls-7" x1="160.04" y1="140.68" x2="160.17" y2="141.16"></line><line class="cls-7" x1="151.95" y1="143.25" x2="151.82" y2="142.76"></line><line class="cls-15" x1="151.56" y1="141.78" x2="150.16" y2="136.35"></line><line class="cls-7" x1="150.03" y1="135.85" x2="149.91" y2="135.37"></line><line class="cls-7" x1="146.18" y1="144.7" x2="146.06" y2="144.22"></line><line class="cls-14" x1="145.8" y1="143.24" x2="144.41" y2="137.84"></line><line class="cls-7" x1="144.28" y1="137.35" x2="144.16" y2="136.87"></line><line class="cls-7" x1="142.44" y1="145.68" x2="142.31" y2="145.2"></line><line class="cls-4" x1="142.05" y1="144.22" x2="140.65" y2="138.85"></line><line class="cls-7" x1="140.52" y1="138.36" x2="140.39" y2="137.88"></line><line class="cls-7" x1="140.84" y1="146.1" x2="140.72" y2="145.62"></line><line class="cls-8" x1="140.47" y1="144.64" x2="139.07" y2="139.25"></line><polyline class="cls-7" points="138.94 138.76 138.82 138.28 139.3 138.16"></polyline><polyline class="cls-6" points="140.28 137.91 143.72 136.99 149.72 135.41 158.13 133.29 169.13 130.52 183.26 127.01 196.43 123.86"></polyline><line class="cls-7" x1="196.92" y1="123.74" x2="197.41" y2="123.63"></line><line class="cls-7" x1="183.26" y1="127.01" x2="183.38" y2="127.49"></line><line class="cls-18" x1="183.63" y1="128.48" x2="184.97" y2="133.89"></line><line class="cls-7" x1="185.09" y1="134.39" x2="185.21" y2="134.87"></line><polygon class="cls-17" points="218.47 132.83 183.17 141.33 147.87 150.2 112.76 159.53 77.65 169.14 42.72 179.12 7.89 189.47 57.88 307.74 98.07 307.74 98.2 309.74 56.55 309.74 5.17 188.19 42.15 177.2 77.1 167.22 112.23 157.6 147.36 148.27 182.68 139.39 218.47 130.77 218.47 132.83"></polygon><g><path class="cls-7" d="M276.3,564.8c-23.13,0-39.35-18.62-39.35-41.58"></path><path class="cls-7" d="M458.71,314.75c0-23.13-18.62-39.35-41.58-39.35"></path><path class="cls-7" d="M205.89,266.16c-23.13,0-39.35,18.61-39.35,41.58"></path><path class="cls-7" d="M615.76,619.03c0-26.19,21.23-44.55,47.43-44.55"></path></g><line class="cls-7" x1="663.19" y1="619.03" x2="663.19" y2="574.47"></line><line class="cls-7" x1="673.19" y1="621.97" x2="673.19" y2="574.47"></line><g><path class="cls-7" d="M481.91,601.94c-22.93,0-39-18.45-39-41.21"></path><path class="cls-7" d="M430.91,404.76c23.13,0,39.35-18.61,39.35-41.58"></path></g><rect class="cls-17" x="276.3" y="523.22" width="2.23" height="41.58"></rect><rect class="cls-17" x="286.74" y="593.07" width="2.23" height="41.58"></rect><rect class="cls-17" x="417.13" y="314.75" width="41.58" height="2.23"></rect><rect class="cls-17" x="205.89" y="266.16" width="2.23" height="41.58"></rect><rect class="cls-17" x="615.76" y="619.03" width="47.43" height="2.88"></rect><rect class="cls-17" x="428.68" y="363.18" width="2.23" height="41.58"></rect><rect class="cls-17" x="539.56" y="554.91" width="41.58" height="2.21"></rect><rect class="cls-17" x="518.77" y="557.12" width="41.58" height="2.21"></rect><rect class="cls-17" x="481.91" y="560.73" width="2.21" height="41.21"></rect><rect class="cls-17" x="488.18" y="497.26" width="41.58" height="2.21"></rect><rect class="cls-17" x="427.57" y="497.26" width="41.58" height="2.21"></rect><rect class="cls-17" x="478.2" y="282.33" width="2.5" height="41.58"></rect><line class="cls-10" x1="337.48" y1="437.1" x2="336.73" y2="437.1"></line><line class="cls-2" x1="335.2" y1="437.1" x2="311.39" y2="437.1"></line><polyline class="cls-10" points="310.62 437.1 309.87 437.1 309.87 437.85"></polyline><line class="cls-2" x1="309.87" y1="439.39" x2="309.87" y2="463.19"></line><polyline class="cls-10" points="309.87 463.96 309.87 464.71 310.62 464.71"></polyline><line class="cls-2" x1="312.16" y1="464.71" x2="335.97" y2="464.71"></line><line class="cls-10" x1="336.73" y1="464.71" x2="337.48" y2="464.71"></line><line class="cls-10" x1="337.48" y1="354.01" x2="336.73" y2="354.01"></line><line class="cls-2" x1="335.2" y1="354.01" x2="311.39" y2="354.01"></line><polyline class="cls-10" points="310.62 354.01 309.87 354.01 309.87 354.76"></polyline><line class="cls-2" x1="309.87" y1="356.3" x2="309.87" y2="380.1"></line><polyline class="cls-10" points="309.87 380.87 309.87 381.62 310.62 381.62"></polyline><line class="cls-2" x1="312.16" y1="381.62" x2="335.96" y2="381.62"></line><line class="cls-10" x1="336.73" y1="381.62" x2="337.48" y2="381.62"></line><line class="cls-10" x1="400.22" y1="447.54" x2="400.22" y2="444.54"></line><line class="cls-3" x1="400.22" y1="439.84" x2="400.22" y2="369.73"></line><line class="cls-10" x1="400.21" y1="367.38" x2="400.21" y2="364.38"></line><rect class="cls-17" x="287.77" y="350.52" width="49.71" height="117.81"></rect><g><rect class="cls-17" x="307.54" y="417.71" width="9.78" height="1.74" rx=".59" ry=".59"></rect><circle class="cls-17" cx="324.11" cy="418.57" r=".9"></circle></g><polyline class="cls-17" points="308.86 417.71 308.86 415.28 310.41 415.28 310.41 417.71"></polyline><line class="cls-17" x1="310.41" y1="416.14" x2="308.86" y2="416.14"></line><polyline class="cls-17" points="312.72 417.71 312.72 405.65 334.48 405.65 334.48 431.5 312.72 431.5 312.72 419.45"></polyline><polyline class="cls-17" points="313.8 419.44 313.8 430.42 333.4 430.42 333.4 406.73 313.8 406.73 313.8 417.7"></polyline><line class="cls-17" x1="388.3" y1="327.42" x2="388.31" y2="490.23"></line><line class="cls-17" x1="388.31" y1="447.54" x2="415.73" y2="447.54"></line><line class="cls-17" x1="388.3" y1="364.38" x2="415.73" y2="364.38"></line><line class="cls-17" x1="390.81" y1="447.54" x2="390.81" y2="490.23"></line><line class="cls-17" x1="390.81" y1="327.42" x2="390.81" y2="364.38"></line><g><path class="cls-17" d="M416.22,645.68h15.44c.6,0,1.08.48,1.08,1.08v5.3c0,.6-.48,1.08-1.08,1.08h-15.44c-.6,0-1.08-.48-1.08-1.08v-5.29c0-.6.48-1.08,1.08-1.08Z"></path><path class="cls-17" d="M419.49,641.53c-.28,0-.54-.11-.73-.32-1.88-2.09-3.08-5.3-3.08-8.9,0-6.31,3.7-11.42,8.28-11.42s8.28,5.11,8.28,11.42c0,3.6-1.2,6.8-3.08,8.9-.19.21-.46.32-.73.32h-8.92Z"></path></g><line class="cls-17" x1="415.67" y1="632.31" x2="415.67" y2="645.83"></line><line class="cls-17" x1="432.22" y1="632.31" x2="432.22" y2="645.83"></line><polyline class="cls-17" points="444.62 653.13 444.62 628.11 488.74 628.11"></polyline><path class="cls-17" d="M462.63,645.07h9.87c.4,0,.72-.32.72-.72v-10.9c0-.4-.32-.72-.72-.72h-20.82c-.4,0-.72.32-.72.72v10.9c0,.4.32.72.72.72h9.48"></path><rect class="cls-17" x="461.16" y="642.63" width="1.47" height="5.89"></rect><circle class="cls-17" cx="461.89" cy="638.9" r=".84"></circle><rect class="cls-17" x="433.01" y="452.78" width="30.61" height="38.03"></rect><polyline class="cls-17" points="423.53 416.65 500.87 416.66 500.86 441.8"></polyline><path class="cls-17" d="M480.12,433.72h9.87c.4,0,.72-.32.72-.72v-10.9c0-.4-.32-.72-.72-.72h-20.82c-.4,0-.72.32-.72.72v10.9c0,.4.32.72.72.72h9.48"></path><rect class="cls-17" x="478.65" y="431.28" width="1.47" height="5.89"></rect><g><circle class="cls-17" cx="479.39" cy="427.54" r=".84"></circle><path class="cls-17" d="M445.37,433.72h9.87c.4,0,.72-.32.72-.72v-10.9c0-.4-.32-.72-.72-.72h-20.82c-.4,0-.72.32-.72.72v10.9c0,.4.32.72.72.72h9.48"></path></g><rect class="cls-17" x="443.89" y="431.28" width="1.47" height="5.89"></rect><circle class="cls-17" cx="444.63" cy="427.54" r=".84"></circle><line class="cls-17" x1="541.87" y1="365.49" x2="541.86" y2="440.86"></line><line class="cls-17" x1="541.87" y1="365.49" x2="541.86" y2="441.68"></line><line class="cls-17" x1="543.15" y1="365.49" x2="543.14" y2="441.68"></line><line class="cls-17" x1="543.15" y1="370.17" x2="541.87" y2="370.17"></line><line class="cls-17" x1="543.15" y1="408.18" x2="541.87" y2="408.18"></line><line class="cls-17" x1="583.45" y1="428.29" x2="543.15" y2="428.29"></line><g><path class="cls-17" d="M564.52,377.41c0,.67-.54,1.21-1.21,1.21s-1.21-.54-1.21-1.21.54-1.21,1.21-1.21,1.21.54,1.21,1.21Z"></path><path class="cls-17" d="M568.49,377.41c0,2.86-2.32,5.18-5.18,5.18s-5.18-2.32-5.18-5.18,2.32-5.18,5.18-5.18,5.18,2.32,5.18,5.18Z"></path><rect class="cls-17" x="512.56" y="434.22" width="17.6" height="7.45" rx="1.08" ry="1.08"></rect><path class="cls-17" d="M516.9,430.08c-.28,0-.54-.11-.73-.32-1.88-2.09-3.08-5.3-3.08-8.9,0-6.31,3.7-11.42,8.28-11.42s8.28,5.11,8.28,11.42c0,3.6-1.2,6.8-3.08,8.9-.19.21-.46.32-.73.32h-8.92Z"></path></g><line class="cls-17" x1="513.09" y1="420.86" x2="513.09" y2="434.38"></line><line class="cls-17" x1="529.64" y1="420.86" x2="529.64" y2="434.38"></line><line class="cls-17" x1="358.27" y1="554.91" x2="288.97" y2="554.91"></line><line class="cls-17" x1="387.41" y1="568.03" x2="384.2" y2="568.03"></line><g><path class="cls-17" d="M383.34,568.03h-11.6c-1.38,0-2.5,1.12-2.5,2.5v61.83c0,1.38,1.12,2.5,2.5,2.5h24.04c1.38,0,2.5-1.12,2.5-2.5v-61.83c0-1.38-1.12-2.5-2.5-2.5h-8.37"></path><path class="cls-17" d="M384.2,564.01v10.86c0,.24-.19.43-.43.43s-.43-.19-.43-.43v-10.81"></path><path class="cls-17" d="M383.34,573.79c-.46.17-.79.61-.79,1.14,0,.67.54,1.21,1.21,1.21s1.21-.54,1.21-1.21c0-.51-.32-.95-.77-1.13"></path><path class="cls-17" d="M383.34,569.76c-2.67.21-4.76,2.45-4.76,5.17,0,2.86,2.32,5.18,5.18,5.18s5.18-2.32,5.18-5.18c0-2.71-2.09-4.94-4.74-5.16"></path></g><rect class="cls-17" x="381.22" y="563.04" width="5.08" height=".97"></rect><line class="cls-17" x1="401.99" y1="563.04" x2="401.98" y2="639.27"></line><line class="cls-17" x1="403.27" y1="563.04" x2="403.26" y2="639.23"></line><line class="cls-17" x1="403.27" y1="567.73" x2="401.99" y2="567.73"></line><line class="cls-17" x1="403.27" y1="605.73" x2="401.99" y2="605.73"></line><rect class="cls-17" x="389.42" y="387.2" width="24.28" height="36.98"></rect><rect class="cls-17" x="390.5" y="388.28" width="22.12" height="34.82"></rect><path class="cls-17" d="M391.25,405.69c0-.71.57-1.28,1.28-1.28s1.28.57,1.28,1.28-.57,1.28-1.28,1.28c-.71,0-1.28-.57-1.28-1.28Z"></path><line class="cls-17" x1="390.49" y1="388.28" x2="389.41" y2="387.2"></line><line class="cls-17" x1="390.5" y1="423.1" x2="389.42" y2="424.18"></line><line class="cls-17" x1="412.62" y1="423.09" x2="413.7" y2="424.17"></line><line class="cls-17" x1="412.61" y1="388.28" x2="413.69" y2="387.2"></line><polygon class="cls-17" points="392.53 406.74 393.58 405.69 392.53 404.63 391.47 405.69 392.53 406.74"></polygon><line class="cls-17" x1="393.58" y1="405.69" x2="391.47" y2="405.69"></line><g><path class="cls-16" d="M514.01,480.63c.03,1.51.06,3.03.13,4.57.04.8.09,1.6.13,2.35.03.57.07,1.11.16,1.78.09.65.25,1.42-.23,1.73-.11.07-.25.12-.38.13-.77.06-.9-1.18-.97-2.24-.15-2.35.04-3.74.16-5.44.06-.9.1-1.9.14-2.89-.04-.99-.08-1.98-.14-2.89-.11-1.7-.3-3.09-.16-5.44.07-1.05.2-2.3.97-2.24.13.01.27.06.38.13.48.3.32,1.08.23,1.73-.1.67-.13,1.21-.16,1.78-.04.75-.09,1.56-.13,2.36-.07,1.54-.1,3.06-.13,4.57Z"></path><path class="cls-16" d="M509.32,480.63c.03,1.51.06,3.03.13,4.57.04.8.09,1.6.13,2.35.03.57.07,1.11.16,1.78.09.65.25,1.42-.23,1.73-.11.07-.25.12-.38.13-.77.06-.9-1.18-.97-2.24-.15-2.35.04-3.74.16-5.44.06-.9.1-1.9.14-2.89-.04-.99-.08-1.98-.14-2.89-.11-1.7-.3-3.09-.16-5.44.07-1.05.2-2.3.97-2.24.13.01.27.06.38.13.48.3.32,1.08.23,1.73-.1.67-.13,1.21-.16,1.78-.04.75-.09,1.56-.13,2.36-.07,1.54-.1,3.06-.13,4.57Z"></path><path class="cls-16" d="M504.62,480.63c.03,1.51.06,3.03.13,4.57.04.8.09,1.6.13,2.35.03.57.07,1.11.16,1.78.09.65.25,1.42-.23,1.73-.11.07-.25.12-.38.13-.77.06-.9-1.18-.97-2.24-.15-2.35.04-3.74.16-5.44.06-.9.1-1.9.14-2.89-.04-.99-.08-1.98-.14-2.89-.11-1.7-.3-3.09-.16-5.44.07-1.05.2-2.3.97-2.24.13.01.27.06.38.13.48.3.32,1.08.23,1.73-.1.67-.13,1.21-.16,1.78-.05.75-.09,1.56-.13,2.36-.07,1.54-.1,3.06-.13,4.57Z"></path></g><line class="cls-16" x1="480.7" y1="480.63" x2="537.25" y2="480.63"></line><g><path class="cls-16" d="M343.7,616.49c1.51-.03,3.03-.06,4.57-.13.8-.04,1.6-.09,2.35-.13.57-.03,1.11-.07,1.78-.16.65-.09,1.42-.25,1.73.23.07.11.12.25.13.38.06.77-1.18.9-2.24.97-2.35.15-3.74-.04-5.44-.16-.9-.06-1.9-.1-2.89-.14-.99.04-1.98.08-2.89.14-1.7.11-3.09.3-5.44.16-1.05-.07-2.3-.2-2.24-.97.01-.13.06-.27.13-.38.31-.48,1.08-.33,1.73-.23.67.1,1.21.13,1.78.16.75.04,1.56.09,2.35.13,1.55.07,3.06.1,4.57.13Z"></path><path class="cls-16" d="M343.7,621.18c1.51-.03,3.03-.06,4.57-.13.8-.04,1.6-.09,2.35-.13.57-.03,1.11-.07,1.78-.16.65-.09,1.42-.25,1.73.23.07.11.12.25.13.38.06.77-1.18.9-2.24.97-2.35.15-3.74-.04-5.44-.16-.9-.06-1.9-.1-2.89-.14-.99.04-1.98.08-2.89.14-1.7.11-3.09.3-5.44.16-1.05-.07-2.3-.2-2.24-.97.01-.13.06-.27.13-.38.31-.48,1.08-.33,1.73-.23.67.1,1.21.13,1.78.16.75.04,1.56.09,2.35.13,1.55.07,3.06.1,4.57.13Z"></path><path class="cls-16" d="M343.7,625.88c1.51-.03,3.03-.06,4.57-.13.8-.04,1.6-.09,2.35-.13.57-.03,1.11-.07,1.78-.16.65-.09,1.42-.25,1.73.23.07.11.12.25.13.38.06.77-1.18.9-2.24.97-2.35.15-3.74-.04-5.44-.16-.9-.06-1.9-.1-2.89-.14-.99.04-1.98.08-2.89.14-1.7.11-3.09.3-5.44.16-1.05-.07-2.3-.2-2.24-.97.01-.13.05-.27.12-.38.31-.48,1.08-.33,1.73-.23.67.1,1.21.13,1.78.16.75.04,1.56.09,2.35.13,1.55.07,3.06.1,4.57.13Z"></path><path class="cls-16" d="M321.37,654.73c.03,1.51.06,3.03.13,4.57.04.8.09,1.6.13,2.36.03.57.07,1.11.16,1.78.09.65.25,1.42-.23,1.73-.11.07-.25.12-.38.13-.77.06-.9-1.18-.97-2.24-.15-2.35.04-3.74.16-5.44.06-.9.1-1.89.14-2.89-.04-.99-.08-1.98-.14-2.89-.12-1.7-.3-3.09-.16-5.44.07-1.05.2-2.3.97-2.24.13,0,.27.06.38.13.48.31.33,1.08.23,1.73-.1.67-.13,1.21-.16,1.78-.04.75-.09,1.56-.13,2.35-.07,1.55-.1,3.06-.13,4.57Z"></path><path class="cls-16" d="M316.68,654.73c.03,1.51.06,3.03.13,4.57.04.8.09,1.6.13,2.36.03.57.07,1.11.16,1.78.09.65.25,1.42-.23,1.73-.11.07-.25.12-.38.13-.77.06-.9-1.18-.97-2.24-.15-2.35.04-3.74.16-5.44.06-.9.1-1.89.14-2.89-.04-.99-.08-1.98-.14-2.89-.12-1.7-.3-3.09-.16-5.44.07-1.05.2-2.3.97-2.24.13,0,.27.06.38.13.48.31.33,1.08.23,1.73-.1.67-.13,1.21-.16,1.78-.04.75-.09,1.56-.13,2.35-.07,1.55-.1,3.06-.13,4.57Z"></path><path class="cls-16" d="M311.98,654.73c.03,1.51.06,3.03.13,4.57.04.8.09,1.6.13,2.36.03.57.07,1.11.16,1.78.09.65.25,1.42-.23,1.73-.11.07-.25.12-.38.13-.77.06-.9-1.18-.97-2.24-.15-2.35.04-3.74.16-5.44.06-.9.1-1.89.14-2.89-.04-.99-.08-1.98-.14-2.89-.12-1.7-.3-3.09-.16-5.44.07-1.05.2-2.3.97-2.24.13,0,.27.06.38.13.48.31.32,1.08.23,1.73-.1.67-.13,1.21-.16,1.78-.04.75-.09,1.56-.13,2.35-.07,1.55-.1,3.06-.13,4.57Z"></path></g><polyline class="cls-16" points="288.97 654.73 343.7 654.73 343.7 588.45"></polyline><polyline class="cls-16" points="582.34 61.58 581.51 61.68 545.75 66.39 509.99 71.38 474.32 76.83 438.75 82.56 403.18 88.75 367.69 95.22 332.3 102.15 297.01 109.36 261.71 117.03 226.6 124.97 226.6 218.85 220.78 218.85 226.6 218.85 226.6 124.97"></polyline><polyline class="cls-16" points="131.89 675.03 106.76 315.87 164.23 315.87"></polyline><polyline class="cls-16" points="218.46 126.91 181.78 135.69 145.28 144.93 108.79 154.54 72.47 164.62 36.25 175.06 .12 185.87 54 313.57 98.48 313.57"></polyline><polygon class="cls-9" points="593.45 52.13 579.94 53.73 543.53 58.54 507.13 63.62 470.81 69.16 434.5 75.08 398.37 81.36 362.24 88.11 326.21 95.13 290.17 102.52 254.32 110.37 218.47 118.6 218.47 218.85 220.78 218.85 220.78 120.45 256.44 112.31 292.11 104.55 327.96 97.16 363.81 90.14 399.76 83.49 435.7 77.2 471.83 71.38 507.96 65.84 544.09 60.76 580.4 56.04 593.45 54.48 593.45 52.13"></polygon><line class="cls-9" x1="220.78" y1="120.45" x2="218.47" y2="118.6"></line><line class="cls-9" x1="593.45" y1="54.48" x2="593.45" y2="60.39"></line><polygon class="cls-9" points="221.98 683.16 124.31 683.16 98.07 307.74 164.23 307.74 164.23 310.05 100.57 310.05 126.44 680.85 221.98 680.85 221.98 683.16"></polygon><line class="cls-9" x1="100.57" y1="310.05" x2="98.07" y2="307.74"></line><line class="cls-9" x1="221.98" y1="680.85" x2="221.98" y2="679.3"></line><polyline class="cls-9" points="218.47 121 197.95 125.92 197.4 123.61 218.47 118.6"></polyline><polyline class="cls-9" points="283.06 106.49 284.26 112.13 282.04 112.59 280.75 106.96 283.06 106.49"></polyline><polyline class="cls-9" points="350.88 92.63 351.99 98.27 349.77 98.73 348.66 93 350.88 92.63"></polyline><polyline class="cls-9" points="384.97 86.17 385.99 91.8 383.77 92.26 382.66 86.63 384.97 86.17"></polyline><polyline class="cls-9" points="419.07 80.07 419.99 85.8 417.77 86.17 416.76 80.44 419.07 80.07"></polyline><polyline class="cls-9" points="487.44 68.98 488.28 74.62 486.06 74.99 485.13 69.26 487.44 68.98"></polyline><polyline class="cls-9" points="556.01 59.18 556.74 64.91 554.53 65.19 553.7 59.46 556.01 59.18"></polyline><polyline class="cls-9" points="226.6 126.45 226.6 124.97 227.99 124.7 222.26 120.08 220.78 120.45 220.78 121.92 226.6 126.45"></polyline><rect class="cls-9" x="220.78" y="179.12" width="5.82" height="2.31"></rect><rect class="cls-9" x="220.78" y="216.54" width="5.82" height="2.31"></rect><rect class="cls-9" x="179.2" y="675.03" width="2.31" height="5.82"></rect><polyline class="cls-9" points="126.53 598.15 120.71 598.52 120.52 596.21 126.35 595.84 126.53 598.15"></polyline><polyline class="cls-9" points="121.63 529.04 115.9 529.41 115.72 527.1 121.54 526.73 121.63 529.04"></polyline><polyline class="cls-9" points="119.23 494.48 113.5 494.85 113.32 492.54 119.05 492.17 119.23 494.48"></polyline><polyline class="cls-9" points="116.83 459.83 111.1 460.29 110.91 457.98 116.64 457.61 116.83 459.83"></polyline><polyline class="cls-9" points="112.02 390.72 106.2 391.18 106.11 388.87 111.84 388.41 112.02 390.72"></polyline><polyline class="cls-9" points="126.35 679.28 126.44 680.85 128.1 680.85 133.46 675.03 131.89 675.03 131.8 673.46 126.35 679.28"></polyline><polyline class="cls-9" points="100.57 310.05 100.66 311.81 106.85 317.54 106.76 315.87 108.42 315.87 102.23 310.05 100.57 310.05"></polyline><rect class="cls-9" x="208.12" y="307.74" width="2.31" height="8.13"></rect><rect class="cls-9" x="164.23" y="307.74" width="2.31" height="8.13"></rect><polygon class="cls-9" points="200.17 125.39 201.56 130.95 199.34 131.48 197.95 125.92 200.17 125.39"></polygon><polygon class="cls-19" points="221.98 679.3 585.41 679.3 585.41 636.52 673.19 636.52 673.19 621.9 663.19 621.9 663.19 626.52 590.38 626.52 590.38 554.91 581.14 554.91 581.14 560.73 584.65 560.73 584.65 626.52 575.41 626.52 575.41 661.17 494.56 661.17 494.56 560.73 497.98 560.73 497.98 554.91 484.12 554.91 484.12 560.73 488.74 560.73 488.74 653.13 403.27 653.13 403.27 639.27 364 639.27 364 563.04 403.27 563.04 403.27 560.73 442.91 560.73 442.91 554.91 358.27 554.91 358.27 582.63 288.97 582.63 288.97 517.4 278.53 517.4 278.53 523.22 283.15 523.22 283.15 593.07 288.97 593.07 288.97 588.45 358.27 588.45 358.27 669.3 288.97 669.3 288.97 634.65 283.15 634.65 283.15 669.3 137.25 669.3 136.97 665.7 131.24 666.16 131.89 675.03 221.98 675.03 221.98 679.3"></polygon><polygon class="cls-12" points="221.98 679.3 585.41 679.3 585.41 636.52 673.19 636.52 673.19 621.9 663.19 621.9 663.19 626.52 590.38 626.52 590.38 554.91 581.14 554.91 581.14 560.73 584.65 560.73 584.65 626.52 575.41 626.52 575.41 661.17 494.56 661.17 494.56 560.73 497.98 560.73 497.98 554.91 484.12 554.91 484.12 560.73 488.74 560.73 488.74 653.13 403.27 653.13 403.27 639.27 364 639.27 364 563.04 403.27 563.04 403.27 560.73 442.91 560.73 442.91 554.91 358.27 554.91 358.27 582.63 288.97 582.63 288.97 517.4 278.53 517.4 278.53 523.22 283.15 523.22 283.15 593.07 288.97 593.07 288.97 588.45 358.27 588.45 358.27 669.3 288.97 669.3 288.97 634.65 283.15 634.65 283.15 669.3 137.25 669.3 136.97 665.7 131.24 666.16 131.89 675.03 221.98 675.03 221.98 679.3"></polygon><polygon class="cls-19" points="119.23 493.27 121.54 527.93 127.36 527.47 126.99 523.22 236.95 523.22 236.95 517.4 232.33 517.4 232.33 501.23 125.51 501.23 124.96 492.91 119.23 493.27"></polygon><polygon class="cls-12" points="119.23 493.27 121.54 527.93 127.36 527.47 126.99 523.22 236.95 523.22 236.95 517.4 232.33 517.4 232.33 501.23 125.51 501.23 124.96 492.91 119.23 493.27"></polygon><polygon class="cls-19" points="417.13 275.4 417.13 92.08 419.9 91.62 418.88 85.98 384.88 92.08 385.9 97.72 411.4 93.1 411.4 275.4 417.13 275.4"></polygon><polygon class="cls-12" points="417.13 275.4 417.13 92.08 419.9 91.62 418.88 85.98 384.88 92.08 385.9 97.72 411.4 93.1 411.4 275.4 417.13 275.4"></polygon><polygon class="cls-19" points="651.2 537.98 651.2 489.47 593.45 489.47 593.45 60.39 582.34 61.6 555.64 65.09 556.52 70.98 582.34 67.59 582.34 112.59 570.23 112.59 570.23 271.98 474.88 271.98 474.88 282.33 480.7 282.33 480.7 277.71 583.45 277.71 583.45 357.45 480.7 357.45 480.7 323.91 474.88 323.91 474.88 357.45 470.26 357.45 470.26 363.18 541.87 363.18 541.87 365.49 583.45 365.49 583.45 441.72 424.06 441.72 424.06 363.18 428.68 363.18 428.68 357.45 424.06 357.45 424.06 321.6 417.13 321.6 417.13 316.98 411.4 316.98 411.4 321.6 388.3 321.6 388.3 327.42 415.73 327.42 415.73 490.23 388.3 490.23 388.3 499.47 427.57 499.47 427.57 493.74 424.06 493.74 424.06 449.85 472.57 449.85 472.57 493.74 469.15 493.74 469.15 499.47 488.18 499.47 488.18 493.74 480.7 493.74 480.7 466.02 537.25 466.02 537.25 493.74 529.76 493.74 529.76 499.47 641.2 499.47 641.2 547.98 663.19 547.98 663.19 574.47 673.19 574.47 673.19 537.98 651.2 537.98"></polygon><polygon class="cls-12" points="651.2 537.98 651.2 489.47 593.45 489.47 593.45 60.39 582.34 61.6 555.64 65.09 556.52 70.98 582.34 67.59 582.34 112.59 570.23 112.59 570.23 271.98 474.88 271.98 474.88 282.33 480.7 282.33 480.7 277.71 583.45 277.71 583.45 357.45 480.7 357.45 480.7 323.91 474.88 323.91 474.88 357.45 470.26 357.45 470.26 363.18 541.87 363.18 541.87 365.49 583.45 365.49 583.45 441.72 424.06 441.72 424.06 363.18 428.68 363.18 428.68 357.45 424.06 357.45 424.06 321.6 417.13 321.6 417.13 316.98 411.4 316.98 411.4 321.6 388.3 321.6 388.3 327.42 415.73 327.42 415.73 490.23 388.3 490.23 388.3 499.47 427.57 499.47 427.57 493.74 424.06 493.74 424.06 449.85 472.57 449.85 472.57 493.74 469.15 493.74 469.15 499.47 488.18 499.47 488.18 493.74 480.7 493.74 480.7 466.02 537.25 466.02 537.25 493.74 529.76 493.74 529.76 499.47 641.2 499.47 641.2 547.98 663.19 547.98 663.19 574.47 673.19 574.47 673.19 537.98 651.2 537.98"></polygon><rect class="cls-19" x="210.43" y="218.85" width="21.9" height="102.75"></rect><rect class="cls-12" x="210.43" y="218.85" width="21.9" height="102.75"></rect><g><path class="cls-21" d="M685.25,598.49c-.08-.02-.14-.07-.14-.14s.06-.13.14-.14c3.3-.56,4.94-2.74,4.94-6.02v-3.83c0-1.16,1.01-1.98,2.66-2.2.33-.05.61.23.45.47-.31.46-.47,1.06-.47,1.78v3.48c0,2.95-1.67,5.22-4.98,6.17-.37.11-.37.5,0,.61,3.31.96,4.98,3.22,4.98,6.18v3.48c0,.72.16,1.32.47,1.78.16.23-.12.51-.45.47-1.64-.22-2.66-1.05-2.66-2.2v-3.84c0-3.29-1.64-5.46-4.94-6.02h0Z"></path><path class="cls-13" d="M685.25,598.49c-.08-.02-.14-.07-.14-.14s.06-.13.14-.14c3.3-.56,4.94-2.74,4.94-6.02v-3.83c0-1.16,1.01-1.98,2.66-2.2.33-.05.61.23.45.47-.31.46-.47,1.06-.47,1.78v3.48c0,2.95-1.67,5.22-4.98,6.17-.37.11-.37.5,0,.61,3.31.96,4.98,3.22,4.98,6.18v3.48c0,.72.16,1.32.47,1.78.16.23-.12.51-.45.47-1.64-.22-2.66-1.05-2.66-2.2v-3.84c0-3.29-1.64-5.46-4.94-6.02h0Z"></path></g><g><path class="cls-19" d="M444.81,175.63h2.52c1.9,0,2.97.89,2.97,2.53s-1.07,2.54-2.97,2.54h-1.72v3.99h-.8v-9.06ZM447.26,179.98c1.41,0,2.24-.61,2.24-1.81s-.81-1.81-2.24-1.81h-1.64v3.62h1.64Z"></path><path class="cls-19" d="M451.81,178.28h.78v1.09c.43-.78,1.31-1.18,2.02-1.18.33,0,.66.07.99.24l-.39.7c-.21-.1-.51-.17-.77-.17-.68,0-1.46.36-1.74,1.3-.08.27-.12.57-.12,1.27v3.15h-.78v-6.41Z"></path><path class="cls-19" d="M456.86,175.63h.94v1.39h-.94v-1.39ZM456.95,178.28h.77v6.41h-.77v-6.41Z"></path><path class="cls-19" d="M459.75,178.28h.78v1.1c.38-.85,1.11-1.19,1.88-1.19.91,0,1.57.4,1.89,1.25.4-.83,1.09-1.25,2-1.25,1.55,0,2.13,1.16,2.13,2.68v3.82h-.78v-3.64c0-1.33-.39-2.18-1.52-2.18-1.02,0-1.65.77-1.65,2.26v3.57h-.78v-3.76c0-1.4-.52-2.07-1.5-2.07-1.03,0-1.67.79-1.67,2.26v3.57h-.78v-6.41Z"></path><path class="cls-19" d="M474.58,183.49c-.43.82-1.25,1.29-2.25,1.29-1.44,0-2.31-.77-2.31-1.94,0-.69.29-1.16.72-1.44.46-.31,1.09-.42,1.77-.42h2.05v-.28c0-1.19-.62-1.83-1.82-1.83-.79,0-1.4.29-1.98,1.02l-.56-.48c.68-.85,1.53-1.22,2.59-1.22,1.63,0,2.54.89,2.54,2.51v3.99h-.71l-.04-1.2ZM472.4,184.14c1.18,0,2.17-.93,2.17-2.2v-.36h-1.95c-.51,0-1.03.08-1.37.33-.28.21-.44.51-.44.94,0,.79.6,1.3,1.6,1.3Z"></path><path class="cls-19" d="M477.29,178.28h.78v1.09c.43-.78,1.31-1.18,2.02-1.18.33,0,.66.07.99.24l-.39.7c-.21-.1-.51-.17-.77-.17-.68,0-1.46.36-1.74,1.3-.08.27-.12.57-.12,1.27v3.15h-.78v-6.41Z"></path><path class="cls-19" d="M484.34,184.49l-2.55-6.21h.86l2.1,5.42,2.11-5.42h.85l-3.69,9.05h-.84l1.17-2.84Z"></path><path class="cls-19" d="M492.61,175.63h2.72c1.68,0,2.68.84,2.68,2.25,0,.94-.46,1.68-1.24,2,1.1.25,1.7,1.07,1.7,2.31,0,1.61-1.02,2.5-2.88,2.5h-2.97v-9.06ZM495.58,179.63c.98,0,1.63-.64,1.63-1.64s-.69-1.61-1.88-1.61h-1.91v3.26h2.16ZM495.52,183.94c1.42,0,2.14-.6,2.14-1.79,0-1.13-.66-1.79-1.79-1.79h-2.46v3.58h2.11Z"></path><path class="cls-19" d="M499.93,181.53c0-1.84.99-3.34,2.81-3.34,1.96,0,2.76,1.53,2.76,2.94,0,.1-.01.4-.04.55h-4.76c.03,1.51.84,2.39,2.14,2.39.82,0,1.35-.23,1.91-.83l.55.49c-.73.75-1.43,1.05-2.46,1.05-1.89,0-2.91-1.41-2.91-3.25ZM504.75,181.1c0-.08,0-.16,0-.24,0-.92-.58-2.02-2-2.02-1.23,0-1.98.98-2.07,2.26h4.06Z"></path><path class="cls-19" d="M506.91,181.48c0-1.96,1.29-3.29,2.92-3.29,1.05,0,1.87.54,2.29,1.36v-3.92h.77v9.06h-.77v-1.26c-.44.85-1.25,1.35-2.29,1.35-1.72,0-2.92-1.42-2.92-3.3ZM509.95,184.06c1.3,0,2.23-1.08,2.23-2.58s-.93-2.58-2.23-2.58-2.26,1.09-2.26,2.58.95,2.58,2.26,2.58Z"></path><path class="cls-19" d="M514.93,178.28h.78v1.09c.43-.78,1.31-1.18,2.02-1.18.33,0,.66.07.99.24l-.39.7c-.21-.1-.51-.17-.77-.17-.68,0-1.46.36-1.74,1.3-.08.27-.12.57-.12,1.27v3.15h-.78v-6.41Z"></path><path class="cls-19" d="M519.31,181.48c0-1.92,1.25-3.29,3.05-3.29s3.04,1.36,3.04,3.29-1.27,3.3-3.04,3.3-3.05-1.36-3.05-3.3ZM522.36,184.09c1.37,0,2.26-1.04,2.26-2.61s-.9-2.61-2.26-2.61-2.28,1.05-2.28,2.61.9,2.61,2.28,2.61Z"></path><path class="cls-19" d="M526.84,181.48c0-1.92,1.25-3.29,3.05-3.29s3.04,1.36,3.04,3.29-1.27,3.3-3.04,3.3-3.05-1.36-3.05-3.3ZM529.89,184.09c1.37,0,2.26-1.04,2.26-2.61s-.9-2.61-2.26-2.61-2.28,1.05-2.28,2.61.9,2.61,2.28,2.61Z"></path><path class="cls-19" d="M534.68,178.28h.78v1.1c.38-.85,1.11-1.19,1.88-1.19.91,0,1.57.4,1.89,1.25.4-.83,1.09-1.25,2-1.25,1.55,0,2.13,1.16,2.13,2.68v3.82h-.78v-3.64c0-1.33-.39-2.18-1.52-2.18-1.02,0-1.65.77-1.65,2.26v3.57h-.78v-3.76c0-1.4-.52-2.07-1.5-2.07-1.03,0-1.67.79-1.67,2.26v3.57h-.78v-6.41Z"></path></g><g><path class="cls-19" d="M178.98,594.99h2.72c1.68,0,2.68.84,2.68,2.25,0,.94-.46,1.68-1.24,2,1.1.25,1.7,1.07,1.7,2.31,0,1.61-1.02,2.5-2.88,2.5h-2.97v-9.06ZM181.95,598.99c.98,0,1.63-.64,1.63-1.64s-.69-1.61-1.88-1.61h-1.91v3.26h2.16ZM181.9,603.3c1.42,0,2.14-.6,2.14-1.79,0-1.13-.66-1.79-1.79-1.79h-2.46v3.58h2.11Z"></path><path class="cls-19" d="M186.28,600.89c0-1.84.99-3.34,2.81-3.34,1.96,0,2.76,1.53,2.76,2.94,0,.1-.01.4-.04.55h-4.76c.03,1.51.84,2.39,2.14,2.39.82,0,1.35-.23,1.91-.83l.55.49c-.73.75-1.43,1.05-2.46,1.05-1.89,0-2.91-1.41-2.91-3.25ZM191.1,600.46c0-.08,0-.16,0-.24,0-.92-.58-2.01-2-2.01-1.23,0-1.98.98-2.07,2.26h4.06Z"></path><path class="cls-19" d="M193.25,600.84c0-1.96,1.29-3.29,2.92-3.29,1.05,0,1.87.54,2.29,1.36v-3.92h.77v9.06h-.77v-1.26c-.44.84-1.25,1.35-2.29,1.35-1.72,0-2.92-1.42-2.92-3.3ZM196.29,603.42c1.3,0,2.23-1.08,2.23-2.58s-.93-2.58-2.23-2.58-2.26,1.09-2.26,2.58.95,2.58,2.26,2.58Z"></path><path class="cls-19" d="M201.26,597.64h.78v1.09c.43-.78,1.31-1.18,2.02-1.18.33,0,.66.07.99.24l-.39.7c-.21-.1-.51-.17-.77-.17-.68,0-1.46.36-1.74,1.3-.08.27-.12.57-.12,1.27v3.15h-.78v-6.41Z"></path><path class="cls-19" d="M205.65,600.84c0-1.92,1.25-3.29,3.05-3.29s3.04,1.37,3.04,3.29-1.27,3.3-3.04,3.3-3.05-1.37-3.05-3.3ZM208.69,603.45c1.37,0,2.26-1.04,2.26-2.61s-.9-2.61-2.26-2.61-2.28,1.05-2.28,2.61.9,2.61,2.28,2.61Z"></path><path class="cls-19" d="M213.18,600.84c0-1.92,1.25-3.29,3.05-3.29s3.04,1.37,3.04,3.29-1.27,3.3-3.04,3.3-3.05-1.37-3.05-3.3ZM216.23,603.45c1.37,0,2.26-1.04,2.26-2.61s-.9-2.61-2.26-2.61-2.28,1.05-2.28,2.61.9,2.61,2.28,2.61Z"></path><path class="cls-19" d="M221.02,597.64h.78v1.1c.38-.84,1.11-1.19,1.88-1.19.91,0,1.57.4,1.89,1.25.4-.83,1.09-1.25,2-1.25,1.55,0,2.13,1.16,2.13,2.68v3.82h-.78v-3.64c0-1.33-.39-2.18-1.52-2.18-1.02,0-1.65.77-1.65,2.26v3.57h-.78v-3.76c0-1.4-.52-2.07-1.5-2.07-1.03,0-1.67.79-1.67,2.26v3.57h-.78v-6.41Z"></path></g><g><path class="cls-19" d="M165.47,405.16h2.43c2.94,0,4.62,1.68,4.62,4.6s-1.64,4.46-4.63,4.46h-2.42v-9.06ZM167.82,413.47c2.5,0,3.89-1.16,3.89-3.74s-1.4-3.83-3.82-3.83h-1.61v7.57h1.54Z"></path><path class="cls-19" d="M174.13,405.16h.94v1.39h-.94v-1.39ZM174.22,407.81h.77v6.41h-.77v-6.41Z"></path><path class="cls-19" d="M177.02,407.81h.78v1.05c.4-.76,1.12-1.14,2.01-1.14,1.38,0,2.2.81,2.2,2.51v3.99h-.78v-3.71c0-1.45-.55-2.11-1.61-2.11-1.16,0-1.83.79-1.83,2.55v3.27h-.78v-6.41Z"></path><path class="cls-19" d="M183.9,405.16h.94v1.39h-.94v-1.39ZM183.98,407.81h.77v6.41h-.77v-6.41Z"></path><path class="cls-19" d="M186.79,407.81h.78v1.05c.4-.76,1.12-1.14,2.01-1.14,1.38,0,2.2.81,2.2,2.51v3.99h-.78v-3.71c0-1.45-.55-2.11-1.61-2.11-1.16,0-1.83.79-1.83,2.55v3.27h-.78v-6.41Z"></path><path class="cls-19" d="M193.25,414.98s0-.1.03-.26l1.11-.88c-.57-.22-.96-.59-.96-1.26,0-.53.27-.9.72-1.2-.36-.37-.56-.87-.56-1.45,0-1.3,1.04-2.2,2.38-2.2.64,0,1.22.21,1.64.58l1.02-.86.4.49-1,.88c.19.33.3.71.3,1.14,0,1.28-.96,2.13-2.33,2.13-.53,0-.99-.12-1.37-.34-.31.17-.45.42-.45.71,0,.66.63.83,1.62.98,1.6.25,2.99.44,2.99,1.75,0,1.16-1.05,1.78-2.7,1.78-1.82,0-2.85-.7-2.85-2ZM196.11,416.37c1.09,0,1.92-.34,1.92-1.08,0-.86-1.16-.96-2.31-1.14-.31-.05-.6-.1-.89-.17l-.8.92c-.01.09-.01.11-.01.15,0,.9.79,1.33,2.09,1.33ZM195.98,411.45c.98,0,1.59-.65,1.59-1.53s-.64-1.56-1.58-1.56-1.62.65-1.62,1.55.63,1.55,1.61,1.55Z"></path><path class="cls-19" d="M203.73,405.16h2.52c1.99,0,2.97.93,2.97,2.5,0,1.25-.64,2.07-1.85,2.38l2.44,4.19h-.92l-2.34-4.07c-.21,0-.44,0-.65,0h-1.36v4.06h-.81v-9.06ZM206.18,409.44c1.38,0,2.24-.55,2.24-1.78s-.88-1.77-2.24-1.77h-1.64v3.56h1.64Z"></path><path class="cls-19" d="M210.74,411.01c0-1.92,1.25-3.29,3.05-3.29s3.04,1.37,3.04,3.29-1.27,3.3-3.04,3.3-3.05-1.37-3.05-3.3ZM213.79,413.62c1.37,0,2.26-1.04,2.26-2.61s-.9-2.61-2.26-2.61-2.28,1.05-2.28,2.61.9,2.61,2.28,2.61Z"></path><path class="cls-19" d="M218.27,411.01c0-1.92,1.25-3.29,3.05-3.29s3.04,1.37,3.04,3.29-1.27,3.3-3.04,3.3-3.05-1.37-3.05-3.3ZM221.32,413.62c1.37,0,2.26-1.04,2.26-2.61s-.9-2.61-2.26-2.61-2.28,1.05-2.28,2.61.9,2.61,2.28,2.61Z"></path><path class="cls-19" d="M226.11,407.81h.78v1.1c.38-.84,1.11-1.19,1.88-1.19.91,0,1.57.4,1.89,1.25.4-.83,1.09-1.25,2-1.25,1.55,0,2.13,1.16,2.13,2.68v3.82h-.78v-3.64c0-1.33-.39-2.18-1.52-2.18-1.02,0-1.65.77-1.65,2.26v3.57h-.78v-3.76c0-1.4-.52-2.07-1.5-2.07-1.03,0-1.67.79-1.67,2.26v3.57h-.78v-6.41Z"></path></g><g><path class="cls-19" d="M289.45,219.33h.81v8.33h4.18v.73h-4.99v-9.06Z"></path><path class="cls-19" d="M295.57,219.33h.94v1.39h-.94v-1.39ZM295.66,221.98h.77v6.41h-.77v-6.41Z"></path><path class="cls-19" d="M297.83,221.98h.86l2.1,5.42,2.11-5.42h.85l-2.61,6.41h-.68l-2.63-6.41Z"></path><path class="cls-19" d="M305.08,219.33h.94v1.39h-.94v-1.39ZM305.17,221.98h.77v6.41h-.77v-6.41Z"></path><path class="cls-19" d="M307.98,221.98h.78v1.05c.4-.76,1.12-1.14,2.01-1.14,1.38,0,2.2.81,2.2,2.51v3.99h-.78v-3.71c0-1.45-.55-2.11-1.61-2.11-1.16,0-1.83.79-1.83,2.55v3.27h-.78v-6.41Z"></path><path class="cls-19" d="M314.43,229.15s0-.1.03-.26l1.11-.88c-.57-.22-.96-.59-.96-1.26,0-.53.27-.9.72-1.2-.36-.37-.56-.87-.56-1.45,0-1.3,1.04-2.2,2.39-2.2.64,0,1.22.21,1.64.59l1.02-.86.4.49-1,.88c.19.33.3.71.3,1.14,0,1.28-.96,2.13-2.33,2.13-.53,0-.99-.12-1.37-.34-.31.18-.45.42-.45.72,0,.66.63.83,1.62.98,1.6.25,2.99.44,2.99,1.75,0,1.16-1.05,1.78-2.7,1.78-1.82,0-2.85-.7-2.85-2ZM317.29,230.54c1.09,0,1.92-.34,1.92-1.08,0-.86-1.16-.96-2.31-1.14-.31-.05-.6-.1-.89-.17l-.8.92c-.01.09-.01.11-.01.15,0,.9.79,1.33,2.09,1.33ZM317.16,225.62c.98,0,1.59-.65,1.59-1.53s-.64-1.56-1.58-1.56-1.62.65-1.62,1.55.63,1.55,1.61,1.55Z"></path><path class="cls-19" d="M324.91,219.33h2.52c1.99,0,2.97.93,2.97,2.5,0,1.25-.64,2.07-1.85,2.38l2.44,4.19h-.92l-2.34-4.07c-.21,0-.44,0-.65,0h-1.36v4.06h-.81v-9.06ZM327.36,223.61c1.38,0,2.24-.55,2.24-1.78s-.88-1.77-2.24-1.77h-1.64v3.56h1.64Z"></path><path class="cls-19" d="M331.92,225.18c0-1.92,1.25-3.29,3.05-3.29s3.04,1.37,3.04,3.29-1.27,3.3-3.04,3.3-3.05-1.36-3.05-3.3ZM334.97,227.79c1.37,0,2.26-1.04,2.26-2.61s-.9-2.61-2.26-2.61-2.28,1.05-2.28,2.61.9,2.61,2.28,2.61Z"></path><path class="cls-19" d="M339.45,225.18c0-1.92,1.25-3.29,3.05-3.29s3.04,1.37,3.04,3.29-1.27,3.3-3.04,3.3-3.05-1.36-3.05-3.3ZM342.5,227.79c1.37,0,2.26-1.04,2.26-2.61s-.9-2.61-2.26-2.61-2.28,1.05-2.28,2.61.9,2.61,2.28,2.61Z"></path><path class="cls-19" d="M347.29,221.98h.78v1.1c.38-.85,1.11-1.19,1.88-1.19.91,0,1.57.4,1.89,1.25.4-.83,1.09-1.25,2-1.25,1.55,0,2.13,1.16,2.13,2.69v3.82h-.78v-3.64c0-1.33-.39-2.18-1.52-2.18-1.02,0-1.65.77-1.65,2.26v3.57h-.78v-3.76c0-1.4-.52-2.07-1.5-2.07-1.03,0-1.67.79-1.67,2.26v3.57h-.78v-6.41Z"></path></g><g><path class="cls-19" d="M104.11,225.81h2.72c1.68,0,2.68.84,2.68,2.25,0,.94-.46,1.68-1.24,2,1.1.25,1.7,1.07,1.7,2.31,0,1.61-1.02,2.5-2.88,2.5h-2.97v-9.06ZM107.08,229.81c.98,0,1.63-.64,1.63-1.64s-.69-1.61-1.88-1.61h-1.91v3.26h2.16ZM107.03,234.12c1.42,0,2.14-.6,2.14-1.79,0-1.13-.66-1.79-1.79-1.79h-2.46v3.58h2.11Z"></path><path class="cls-19" d="M115.92,233.67c-.43.82-1.25,1.29-2.25,1.29-1.44,0-2.31-.77-2.31-1.94,0-.69.29-1.16.72-1.44.46-.31,1.09-.42,1.77-.42h2.05v-.28c0-1.19-.62-1.83-1.82-1.83-.79,0-1.4.29-1.98,1.02l-.56-.48c.68-.85,1.53-1.22,2.59-1.22,1.63,0,2.54.89,2.54,2.51v3.99h-.71l-.04-1.2ZM113.75,234.32c1.18,0,2.17-.93,2.17-2.2v-.36h-1.95c-.51,0-1.03.08-1.37.33-.28.21-.44.51-.44.94,0,.79.6,1.3,1.6,1.3Z"></path><path class="cls-19" d="M118.51,233.54v-7.73h.77v7.59c0,.6.23.85.64.85.17,0,.38-.04.61-.12v.67c-.29.11-.6.17-.84.17-.72,0-1.18-.44-1.18-1.42Z"></path><path class="cls-19" d="M121.48,231.66c0-1.83,1.06-3.29,2.86-3.29,1.17,0,2.09.58,2.51,1.74l-.7.27c-.27-.82-.9-1.33-1.81-1.33-1.42,0-2.09,1.25-2.09,2.61s.68,2.62,2.09,2.62c.91,0,1.53-.51,1.81-1.33l.7.27c-.42,1.16-1.34,1.75-2.51,1.75-1.8,0-2.86-1.46-2.86-3.3Z"></path><path class="cls-19" d="M128.08,231.66c0-1.92,1.25-3.29,3.05-3.29s3.04,1.36,3.04,3.29-1.27,3.3-3.04,3.3-3.05-1.36-3.05-3.3ZM131.13,234.27c1.37,0,2.26-1.04,2.26-2.61s-.9-2.61-2.26-2.61-2.28,1.05-2.28,2.61.9,2.61,2.28,2.61Z"></path><path class="cls-19" d="M135.92,228.46h.78v1.05c.4-.76,1.12-1.14,2.01-1.14,1.38,0,2.2.81,2.2,2.51v3.99h-.78v-3.71c0-1.45-.55-2.11-1.61-2.11-1.16,0-1.83.79-1.83,2.55v3.27h-.78v-6.41Z"></path><path class="cls-19" d="M144.63,234.67l-2.55-6.21h.86l2.1,5.42,2.11-5.42h.85l-3.69,9.05h-.84l1.17-2.84Z"></path></g><g><path class="cls-19" d="M529.01,595.26h5.86v.73h-5.06v3.37h4.39v.73h-4.39v4.24h-.81v-9.06Z"></path><path class="cls-19" d="M536.19,602.99v-7.73h.77v7.59c0,.6.23.84.64.84.17,0,.38-.04.61-.12v.67c-.29.11-.6.17-.84.17-.72,0-1.18-.44-1.18-1.42Z"></path><path class="cls-19" d="M539.16,601.16c0-1.84.99-3.34,2.81-3.34,1.96,0,2.76,1.53,2.76,2.94,0,.1-.01.4-.04.55h-4.76c.03,1.51.84,2.39,2.14,2.39.82,0,1.35-.23,1.91-.83l.55.49c-.73.75-1.43,1.05-2.46,1.05-1.89,0-2.91-1.41-2.91-3.25ZM543.98,600.74c0-.08,0-.16,0-.24,0-.92-.58-2.01-2-2.01-1.23,0-1.98.98-2.07,2.26h4.06Z"></path><path class="cls-19" d="M548.13,601.11l-2.37-3.19h.96l1.92,2.65,1.94-2.65h.94l-2.38,3.19,2.39,3.22h-.96l-1.93-2.67-1.94,2.67h-.94l2.37-3.22Z"></path></g><g><path class="cls-19" d="M611.42,557.02h5.86v.73h-5.06v3.37h4.39v.73h-4.39v4.24h-.81v-9.06Z"></path><path class="cls-19" d="M618.01,562.87c0-1.92,1.25-3.29,3.05-3.29s3.04,1.37,3.04,3.29-1.27,3.3-3.04,3.3-3.05-1.37-3.05-3.3ZM621.06,565.48c1.37,0,2.26-1.04,2.26-2.61s-.9-2.61-2.26-2.61-2.28,1.05-2.28,2.61.9,2.61,2.28,2.61Z"></path><path class="cls-19" d="M627.58,565.88l-2.55-6.21h.86l2.1,5.42,2.11-5.42h.85l-3.69,9.05h-.84l1.17-2.84Z"></path><path class="cls-19" d="M631.91,562.93c0-1.84.99-3.34,2.81-3.34,1.96,0,2.76,1.53,2.76,2.94,0,.1-.01.4-.04.55h-4.76c.03,1.51.84,2.39,2.14,2.39.82,0,1.35-.23,1.91-.83l.55.49c-.73.75-1.43,1.05-2.46,1.05-1.89,0-2.91-1.41-2.91-3.25ZM636.72,562.5c0-.08,0-.16,0-.24,0-.92-.58-2.01-2-2.01-1.23,0-1.98.98-2.07,2.26h4.06Z"></path><path class="cls-19" d="M639.2,559.68h.78v1.09c.43-.78,1.31-1.18,2.02-1.18.33,0,.66.07.99.24l-.39.7c-.21-.1-.51-.17-.77-.17-.68,0-1.46.36-1.74,1.3-.08.27-.12.57-.12,1.27v3.15h-.78v-6.41Z"></path></g><g><path class="cls-19" d="M523.07,314.07h.65l1.71,6.06,1.76-5.7h.63l1.76,5.7,1.7-6.06h.65l-2.01,6.98h-.63l-1.79-5.71-1.79,5.71h-.64l-2.01-6.98Z"></path><path class="cls-19" d="M533.07,314.07h.62v6.98h-.62v-6.98Z"></path><path class="cls-19" d="M535.12,317.55c0-2.16,1.26-3.58,3.16-3.58,1.35,0,2.39.71,2.84,1.89l-.58.22c-.38-.96-1.17-1.52-2.26-1.52-1.55,0-2.54,1.17-2.54,2.99s.99,3,2.54,3c1.09,0,1.89-.56,2.26-1.52l.58.22c-.45,1.18-1.49,1.9-2.84,1.9-1.89,0-3.16-1.42-3.16-3.59Z"></path></g><path class="cls-19" d="M438.75,468.45h.65l1.71,6.06,1.76-5.7h.63l1.76,5.7,1.7-6.06h.65l-2.01,6.98h-.63l-1.79-5.71-1.79,5.71h-.64l-2.01-6.98Z"></path><path class="cls-19" d="M451.03,467.57h.48l-3.55,9.08h-.47l3.55-9.08Z"></path><path class="cls-19" d="M452.73,468.45h1.87c2.26,0,3.56,1.29,3.56,3.54s-1.27,3.43-3.57,3.43h-1.86v-6.98ZM454.54,474.85c1.92,0,2.99-.89,2.99-2.88s-1.08-2.95-2.94-2.95h-1.24v5.83h1.19Z"></path><path class="cls-19" d="M393.79,346.08c0-2.17,1.27-3.59,3.16-3.59s3.18,1.42,3.18,3.59-1.27,3.58-3.18,3.58-3.16-1.42-3.16-3.58ZM396.95,349.06c1.57,0,2.55-1.16,2.55-2.99s-.99-3-2.55-3-2.54,1.15-2.54,3,.99,2.99,2.54,2.99Z"></path><path class="cls-19" d="M403.82,341.58h.48l-3.55,9.08h-.48l3.55-9.08Z"></path><path class="cls-19" d="M405.53,342.58h.93l2.35,5.66,2.35-5.66h.92v6.98h-.62v-6.16l-2.35,5.59h-.61l-2.36-5.59v6.16h-.62v-6.98Z"></path><g><path class="cls-19" d="M395.25,465.31h1.94c1.53,0,2.29.72,2.29,1.92,0,.97-.5,1.6-1.43,1.83l1.88,3.22h-.71l-1.8-3.13c-.16,0-.34,0-.5,0h-1.05v3.13h-.62v-6.98ZM397.13,468.61c1.06,0,1.73-.42,1.73-1.37s-.68-1.37-1.73-1.37h-1.26v2.74h1.26Z"></path><path class="cls-19" d="M401.1,465.31h4.56v.56h-3.94v2.59h3.53v.56h-3.53v2.7h3.94v.56h-4.56v-6.98Z"></path><path class="cls-19" d="M406.96,465.31h4.51v.56h-3.89v2.59h3.38v.56h-3.38v3.26h-.62v-6.98Z"></path></g><g><path class="cls-19" d="M316.55,364.35h.65l1.71,6.06,1.76-5.7h.63l1.76,5.7,1.7-6.06h.65l-2.01,6.98h-.63l-1.79-5.71-1.79,5.71h-.64l-2.01-6.98Z"></path><path class="cls-19" d="M326.56,364.35h4.51v.56h-3.89v2.59h3.38v.56h-3.38v3.26h-.62v-6.98Z"></path></g><g><path class="cls-19" d="M316.62,447.51h1.87c2.26,0,3.56,1.29,3.56,3.54s-1.27,3.43-3.57,3.43h-1.86v-6.98ZM318.43,453.92c1.92,0,2.99-.89,2.99-2.88s-1.08-2.95-2.94-2.95h-1.24v5.83h1.19Z"></path><path class="cls-19" d="M322.71,447.51h.65l1.71,6.06,1.76-5.7h.63l1.76,5.7,1.7-6.06h.65l-2.01,6.98h-.63l-1.79-5.71-1.79,5.71h-.64l-2.01-6.98Z"></path></g><g><path class="cls-19" d="M317.08,485.01h.81v4.86l4.65-4.86h1.09l-3.45,3.54,3.48,5.52h-.95l-3.11-4.93-1.71,1.75v3.17h-.81v-9.06Z"></path><path class="cls-19" d="M324.81,485.01h.94v1.39h-.94v-1.39ZM324.89,487.66h.77v6.41h-.77v-6.41Z"></path><path class="cls-19" d="M328.46,492.59v-4.31h-1.42v-.62h1.42v-1.85l.79-.46v2.31h1.54v.62h-1.54v4.12c0,.71.22,1.11.81,1.11.19,0,.46-.04.73-.12v.62c-.32.1-.64.16-.92.16-.85,0-1.4-.49-1.4-1.57Z"></path><path class="cls-19" d="M331.81,490.86c0-1.83,1.06-3.29,2.86-3.29,1.17,0,2.09.58,2.51,1.74l-.7.27c-.27-.82-.9-1.33-1.81-1.33-1.42,0-2.09,1.25-2.09,2.61s.68,2.62,2.09,2.62c.91,0,1.53-.51,1.81-1.33l.7.27c-.42,1.16-1.34,1.75-2.51,1.75-1.8,0-2.86-1.46-2.86-3.3Z"></path><path class="cls-19" d="M338.81,485.01h.78v3.69c.4-.75,1.1-1.13,2.01-1.13,1.4,0,2.2.85,2.2,2.51v3.99h-.78v-3.71c0-1.43-.53-2.11-1.61-2.11-1.18,0-1.83.83-1.83,2.55v3.27h-.78v-9.06Z"></path><path class="cls-19" d="M345.44,490.91c0-1.84.99-3.34,2.81-3.34,1.96,0,2.76,1.53,2.76,2.94,0,.1-.01.4-.04.55h-4.76c.03,1.51.84,2.39,2.14,2.39.82,0,1.35-.23,1.91-.83l.55.49c-.73.75-1.43,1.05-2.46,1.05-1.89,0-2.91-1.41-2.91-3.25ZM350.26,490.48c0-.08,0-.16,0-.24,0-.92-.58-2.01-2-2.01-1.23,0-1.98.98-2.07,2.26h4.06Z"></path><path class="cls-19" d="M352.75,487.66h.78v1.05c.4-.76,1.12-1.14,2.01-1.14,1.38,0,2.2.81,2.2,2.51v3.99h-.78v-3.71c0-1.45-.55-2.11-1.61-2.11-1.16,0-1.83.79-1.83,2.55v3.27h-.78v-6.41Z"></path></g><g><path class="cls-19" d="M304.38,618.17h.65l1.71,6.06,1.76-5.7h.63l1.76,5.7,1.7-6.06h.65l-2.01,6.98h-.63l-1.79-5.71-1.79,5.71h-.64l-2.01-6.98Z"></path><path class="cls-19" d="M314.39,618.17h.62v6.98h-.62v-6.98Z"></path><path class="cls-19" d="M316.44,621.65c0-2.16,1.26-3.58,3.16-3.58,1.35,0,2.39.71,2.84,1.89l-.58.22c-.38-.96-1.17-1.52-2.26-1.52-1.55,0-2.54,1.17-2.54,2.99s.99,3,2.54,3c1.09,0,1.89-.56,2.26-1.52l.58.21c-.45,1.18-1.49,1.9-2.84,1.9-1.89,0-3.16-1.42-3.16-3.59Z"></path></g><path class="cls-19" d="M321.8,565.23h1.94c1.46,0,2.29.69,2.29,1.95s-.83,1.96-2.29,1.96h-1.33v3.07h-.62v-6.98ZM323.68,568.58c1.09,0,1.73-.47,1.73-1.4s-.62-1.39-1.73-1.39h-1.27v2.79h1.27Z"></path><g><path class="cls-23" d="M48.54,0h3.61v.45h-3.11v2.07h2.7v.45h-2.7v2.61h-.5V0Z"></path><path class="cls-23" d="M52.89,0h.58v.86h-.58v-.86ZM52.94,1.63h.47v3.94h-.47V1.63Z"></path><path class="cls-23" d="M54.75,1.63h.48v.64c.25-.47.69-.7,1.24-.7.85,0,1.36.5,1.36,1.54v2.45h-.48v-2.28c0-.89-.34-1.3-.99-1.3-.71,0-1.13.48-1.13,1.57v2.01h-.48V1.63Z"></path><path class="cls-23" d="M61.32,0h3.64v.45h-3.15v2.07h2.82v.45h-2.82v2.16h3.15v.45h-3.64V0Z"></path><path class="cls-23" d="M67.12,3.59l-1.46-1.96h.59l1.18,1.63,1.2-1.63h.58l-1.46,1.96,1.47,1.98h-.59l-1.19-1.64-1.19,1.64h-.58l1.46-1.98Z"></path><path class="cls-23" d="M70.65,4.66v-2.65h-.88v-.38h.88V.49l.48-.28v1.42h.95v.38h-.95v2.53c0,.44.14.68.5.68.12,0,.28-.02.45-.08v.38c-.2.06-.4.1-.57.1-.52,0-.86-.3-.86-.97Z"></path><path class="cls-23" d="M72.79,3.63c0-1.13.61-2.05,1.73-2.05,1.21,0,1.7.94,1.7,1.81,0,.06,0,.24-.02.34h-2.93c.02.93.52,1.47,1.32,1.47.5,0,.83-.14,1.18-.51l.34.3c-.45.46-.88.65-1.52.65-1.16,0-1.79-.87-1.79-2ZM75.76,3.37s0-.1,0-.15c0-.57-.36-1.24-1.23-1.24-.76,0-1.22.6-1.27,1.39h2.49Z"></path><path class="cls-23" d="M77.36,1.63h.48v.64c.25-.47.69-.7,1.24-.7.85,0,1.36.5,1.36,1.54v2.45h-.48v-2.28c0-.89-.34-1.3-.99-1.3-.71,0-1.13.48-1.13,1.57v2.01h-.48V1.63Z"></path><path class="cls-23" d="M81.32,4.73l.34-.28c.2.46.66.77,1.26.77.57,0,.95-.27.95-.72,0-.55-.53-.68-1.1-.82-.66-.16-1.23-.38-1.23-1.06,0-.62.53-1.05,1.29-1.05.6,0,1.1.26,1.37.76l-.37.21c-.21-.38-.57-.58-1.01-.58-.48,0-.84.24-.84.62,0,.4.36.54.93.68.67.16,1.43.34,1.43,1.2,0,.71-.56,1.17-1.42,1.17-.79,0-1.35-.4-1.6-.9Z"></path><path class="cls-23" d="M85.42,0h.58v.86h-.58v-.86ZM85.47,1.63h.47v3.94h-.47V1.63Z"></path><path class="cls-23" d="M87.09,3.6c0-1.18.77-2.02,1.88-2.02s1.87.84,1.87,2.02-.78,2.03-1.87,2.03-1.88-.84-1.88-2.03ZM88.97,5.2c.84,0,1.39-.64,1.39-1.6s-.55-1.6-1.39-1.6-1.4.64-1.4,1.6.56,1.6,1.4,1.6Z"></path><path class="cls-23" d="M91.99,1.63h.48v.64c.25-.47.69-.7,1.24-.7.85,0,1.36.5,1.36,1.54v2.45h-.48v-2.28c0-.89-.34-1.3-.99-1.3-.71,0-1.13.48-1.13,1.57v2.01h-.48V1.63Z"></path><path class="cls-23" d="M96.39,1.81h.58v.86h-.58v-.86ZM96.39,4.72h.58v.85h-.58v-.85Z"></path></g><g><path class="cls-23" d="M87.02,13.84h-2.77v-.4l2.79-3.84h.46v3.79h.91v.45h-.91v1.34h-.48v-1.34ZM87.02,13.39v-3.15l-2.25,3.15h2.25Z"></path><path class="cls-23" d="M89.14,12.37c0-1.33.3-2.84,1.72-2.84s1.75,1.39,1.75,2.85-.4,2.84-1.72,2.84c-1.44,0-1.75-1.51-1.75-2.85ZM90.9,14.77c.88,0,1.23-1,1.23-2.36s-.36-2.41-1.26-2.41c-.96,0-1.23,1.1-1.23,2.4s.28,2.37,1.26,2.37Z"></path><path class="cls-23" d="M96.56,11.21c0-.73-.43-1.2-1.19-1.2-.83,0-1.26.58-1.27,1.45l-.47-.03c0-1.07.62-1.88,1.76-1.88.99,0,1.64.65,1.64,1.65,0,1.49-1.5,2.65-2.81,3.53h3.04v.45h-3.64v-.44c1.02-.82,2.94-2.02,2.94-3.53Z"></path></g><g><path class="cls-23" d="M84.43,23.25l.47-.08c.14.7.66,1.21,1.4,1.21.85,0,1.41-.68,1.41-1.48s-.52-1.38-1.34-1.38c-.51,0-.95.24-1.26.69l-.5-.15.5-2.86h2.84v.45h-2.45l-.34,1.96c.38-.39.82-.55,1.27-.55,1.04,0,1.78.82,1.78,1.83s-.81,1.94-1.91,1.94c-.94,0-1.7-.64-1.88-1.58Z"></path><path class="cls-23" d="M89.14,21.97c0-1.33.3-2.84,1.72-2.84s1.75,1.39,1.75,2.85-.4,2.84-1.72,2.84c-1.44,0-1.75-1.51-1.75-2.85ZM90.9,24.37c.88,0,1.23-1,1.23-2.36s-.36-2.41-1.26-2.41c-.96,0-1.23,1.1-1.23,2.39s.28,2.38,1.26,2.38Z"></path><path class="cls-23" d="M96.56,20.81c0-.73-.43-1.2-1.19-1.2-.83,0-1.26.58-1.27,1.45l-.47-.03c0-1.07.62-1.88,1.76-1.88.99,0,1.64.65,1.64,1.65,0,1.49-1.5,2.65-2.81,3.53h3.04v.45h-3.64v-.44c1.02-.82,2.94-2.02,2.94-3.53Z"></path></g><g><path class="cls-23" d="M85.51,31.01c.23-.14.5-.22.76-.22,1.01,0,1.81.81,1.81,1.81s-.84,1.83-1.87,1.83-1.88-.8-1.88-1.82c0-.37.12-.7.29-1l1.67-2.81h.54l-1.34,2.21ZM86.21,33.98c.76,0,1.39-.6,1.39-1.38s-.62-1.38-1.39-1.38-1.39.59-1.39,1.38.62,1.38,1.39,1.38Z"></path><path class="cls-23" d="M89.14,31.57c0-1.33.3-2.84,1.72-2.84s1.75,1.39,1.75,2.85-.4,2.84-1.72,2.84c-1.44,0-1.75-1.51-1.75-2.85ZM90.9,33.96c.88,0,1.23-1,1.23-2.36s-.36-2.41-1.26-2.41c-.96,0-1.23,1.1-1.23,2.39s.28,2.38,1.26,2.38Z"></path><path class="cls-23" d="M96.56,30.41c0-.73-.43-1.2-1.19-1.2-.83,0-1.26.58-1.27,1.45l-.47-.03c0-1.07.62-1.88,1.76-1.88.99,0,1.64.65,1.64,1.65,0,1.49-1.5,2.65-2.81,3.53h3.04v.45h-3.64v-.44c1.02-.82,2.94-2.02,2.94-3.53Z"></path></g><g><path class="cls-23" d="M87.74,38.85h-3.43v-.45h3.98v.4l-2.75,5.18h-.53l2.74-5.12Z"></path><path class="cls-23" d="M89.14,41.17c0-1.33.3-2.84,1.72-2.84s1.75,1.39,1.75,2.85-.4,2.84-1.72,2.84c-1.44,0-1.75-1.51-1.75-2.85ZM90.9,43.56c.88,0,1.23-1,1.23-2.36s-.36-2.41-1.26-2.41c-.96,0-1.23,1.1-1.23,2.4s.28,2.37,1.26,2.37Z"></path><path class="cls-23" d="M96.56,40.01c0-.73-.43-1.2-1.19-1.2-.83,0-1.26.58-1.27,1.45l-.47-.03c0-1.07.62-1.88,1.76-1.88.99,0,1.64.65,1.64,1.65,0,1.49-1.5,2.65-2.81,3.53h3.04v.45h-3.64v-.44c1.02-.82,2.94-2.02,2.94-3.53Z"></path></g><g><path class="cls-23" d="M84.47,51.99c0-.7.41-1.25,1.08-1.45-.46-.18-.76-.62-.76-1.19,0-.9.78-1.41,1.54-1.41.86,0,1.53.57,1.53,1.45,0,.55-.3.97-.77,1.15.67.21,1.07.76,1.07,1.45,0,1.09-.9,1.64-1.84,1.64s-1.85-.55-1.85-1.64ZM86.32,53.18c.72,0,1.36-.41,1.36-1.22,0-.73-.56-1.22-1.36-1.22s-1.38.48-1.38,1.22c0,.82.66,1.22,1.38,1.22ZM86.34,50.4c.61,0,1.05-.4,1.05-.98,0-.61-.42-1.03-1.06-1.03-.56,0-1.06.36-1.06.98s.44,1.02,1.07,1.02Z"></path><path class="cls-23" d="M89.14,50.77c0-1.33.3-2.84,1.72-2.84s1.75,1.39,1.75,2.85-.4,2.84-1.72,2.84c-1.44,0-1.75-1.51-1.75-2.85ZM90.9,53.17c.88,0,1.23-1,1.23-2.36s-.36-2.41-1.26-2.41c-.96,0-1.23,1.1-1.23,2.39s.28,2.38,1.26,2.38Z"></path><path class="cls-23" d="M96.56,49.61c0-.73-.43-1.2-1.19-1.2-.83,0-1.26.58-1.27,1.45l-.47-.03c0-1.07.62-1.88,1.76-1.88.99,0,1.64.65,1.64,1.65,0,1.49-1.5,2.65-2.81,3.53h3.04v.45h-3.64v-.44c1.02-.82,2.94-2.02,2.94-3.53Z"></path></g><g><path class="cls-23" d="M87.01,60.97c-.23.14-.5.22-.76.22-1.01,0-1.81-.81-1.81-1.81s.84-1.83,1.87-1.83,1.88.8,1.88,1.82c0,.37-.12.7-.29,1l-1.67,2.81h-.54l1.34-2.21ZM86.31,60.75c.76,0,1.39-.59,1.39-1.38s-.62-1.38-1.39-1.38-1.39.6-1.39,1.38.62,1.38,1.39,1.38Z"></path><path class="cls-23" d="M89.14,60.37c0-1.33.3-2.84,1.72-2.84s1.75,1.39,1.75,2.85-.4,2.84-1.72,2.84c-1.44,0-1.75-1.51-1.75-2.85ZM90.9,62.77c.88,0,1.23-1,1.23-2.36s-.36-2.41-1.26-2.41c-.96,0-1.23,1.1-1.23,2.4s.28,2.37,1.26,2.37Z"></path><path class="cls-23" d="M96.56,59.21c0-.73-.43-1.2-1.19-1.2-.83,0-1.26.58-1.27,1.45l-.47-.03c0-1.07.62-1.88,1.76-1.88.99,0,1.64.65,1.64,1.65,0,1.49-1.5,2.65-2.81,3.53h3.04v.45h-3.64v-.44c1.02-.82,2.94-2.02,2.94-3.53Z"></path></g><g><path class="cls-23" d="M81.94,68.49h-1.47v-.39h1.03c.29,0,.44-.1.44-.41v-.49h.48v5.57h-.48v-4.28Z"></path><path class="cls-23" d="M84.58,69.97c0-1.33.3-2.84,1.72-2.84s1.75,1.39,1.75,2.85-.4,2.84-1.72,2.84c-1.44,0-1.75-1.51-1.75-2.85ZM86.34,72.37c.88,0,1.23-1,1.23-2.36s-.36-2.41-1.26-2.41c-.96,0-1.23,1.1-1.23,2.39s.28,2.38,1.26,2.38Z"></path><path class="cls-23" d="M89.13,69.97c0-1.33.3-2.84,1.72-2.84s1.75,1.39,1.75,2.85-.4,2.84-1.72,2.84c-1.44,0-1.75-1.51-1.75-2.85ZM90.89,72.37c.88,0,1.23-1,1.23-2.36s-.36-2.41-1.26-2.41c-.96,0-1.23,1.1-1.23,2.39s.28,2.38,1.26,2.38Z"></path><path class="cls-23" d="M96.56,68.81c0-.73-.43-1.2-1.19-1.2-.83,0-1.26.58-1.27,1.45l-.47-.03c0-1.07.62-1.88,1.76-1.88.99,0,1.64.65,1.64,1.65,0,1.49-1.5,2.65-2.81,3.53h3.04v.45h-3.64v-.44c1.02-.82,2.94-2.02,2.94-3.53Z"></path></g><g><path class="cls-23" d="M59.54,78.09h-1.47v-.39h1.03c.29,0,.44-.1.44-.41v-.49h.48v5.57h-.48v-4.28Z"></path><path class="cls-23" d="M64.1,78.09h-1.47v-.39h1.03c.29,0,.44-.1.44-.41v-.49h.48v5.57h-.48v-4.28Z"></path><path class="cls-23" d="M66.73,79.57c0-1.33.3-2.84,1.72-2.84s1.75,1.39,1.75,2.85-.4,2.84-1.72,2.84c-1.44,0-1.75-1.51-1.75-2.85ZM68.49,81.96c.88,0,1.23-1,1.23-2.36s-.36-2.41-1.26-2.41c-.96,0-1.23,1.1-1.23,2.39s.28,2.38,1.26,2.38Z"></path><path class="cls-23" d="M74.16,78.41c0-.73-.43-1.2-1.19-1.2-.84,0-1.26.58-1.27,1.45l-.47-.03c0-1.07.62-1.88,1.75-1.88.99,0,1.64.65,1.64,1.65,0,1.49-1.5,2.65-2.81,3.53h3.04v.45h-3.64v-.44c1.02-.82,2.94-2.02,2.94-3.53Z"></path><path class="cls-23" d="M76.44,81.25h.53l-1.06,2.38h-.34l.87-2.38Z"></path><path class="cls-23" d="M81.92,78.09h-1.47v-.39h1.03c.29,0,.44-.1.44-.41v-.49h.48v5.57h-.48v-4.28Z"></path><path class="cls-23" d="M87.43,78.41c0-.73-.43-1.2-1.19-1.2-.83,0-1.26.58-1.27,1.45l-.47-.03c0-1.07.62-1.88,1.76-1.88.99,0,1.64.65,1.64,1.65,0,1.49-1.5,2.65-2.81,3.53h3.04v.45h-3.64v-.44c1.02-.82,2.94-2.02,2.94-3.53Z"></path><path class="cls-23" d="M89.13,79.57c0-1.33.3-2.84,1.72-2.84s1.75,1.39,1.75,2.85-.4,2.84-1.72,2.84c-1.44,0-1.75-1.51-1.75-2.85ZM90.88,81.96c.88,0,1.23-1,1.23-2.36s-.36-2.41-1.26-2.41c-.96,0-1.23,1.1-1.23,2.39s.28,2.38,1.26,2.38Z"></path><path class="cls-23" d="M96.54,78.41c0-.73-.43-1.2-1.19-1.2-.83,0-1.26.58-1.27,1.45l-.47-.03c0-1.07.62-1.88,1.76-1.88.99,0,1.64.65,1.64,1.65,0,1.49-1.5,2.65-2.81,3.53h3.04v.45h-3.64v-.44c1.02-.82,2.94-2.02,2.94-3.53Z"></path></g><polyline class="cls-1" points="104 79.97 116.15 79.97 135.42 128.03"></polyline><path class="cls-22" d="M136.92,131.77l-4.03-4.5s2.52.75,3.83-1.54l.2,6.03Z"></path><polyline class="cls-1" points="104 70.29 116.86 70.29 137.97 127.41"></polyline><path class="cls-22" d="M139.37,131.2l-3.9-4.6s2.5.82,3.87-1.43l.03,6.04Z"></path><polyline class="cls-1" points="104 60.61 118.48 60.61 142.04 126.39"></polyline><path class="cls-22" d="M143.4,130.19l-3.86-4.64s2.49.84,3.89-1.39l-.03,6.04Z"></path><polyline class="cls-1" points="104 50.93 122.22 50.93 147.84 125.08"></polyline><path class="cls-22" d="M149.16,128.89l-3.8-4.69s2.49.87,3.9-1.35l-.1,6.04Z"></path><polyline class="cls-1" points="104 41.25 128.78 41.25 155.67 122.9"></polyline><path class="cls-22" d="M156.94,126.73l-3.73-4.74s2.47.91,3.92-1.29l-.19,6.03Z"></path><polyline class="cls-1" points="104 31.57 137.56 31.45 166.77 120.88"></polyline><path class="cls-22" d="M168.02,124.72l-3.72-4.75s2.47.91,3.92-1.28l-.2,6.03Z"></path><polyline class="cls-1" points="104 21.89 149.25 21.89 180.45 117.47"></polyline><path class="cls-22" d="M181.7,121.31l-3.72-4.75s2.47.92,3.93-1.28l-.2,6.03Z"></path><polyline class="cls-1" points="104 12.31 162.73 12.31 195.02 113.96"></polyline><path class="cls-22" d="M196.25,117.8l-3.68-4.78s2.46.93,3.93-1.25l-.25,6.03Z"></path></g></g></svg> 