<?xml version="1.0" encoding="UTF-8"?> <svg xmlns="http://www.w3.org/2000/svg" id="Layer_2" data-name="Layer 2" viewBox="0 0 671.76 772.53"><defs><style> .cls-1 { stroke: #afa49f; } .cls-1, .cls-2, .cls-3, .cls-4, .cls-5, .cls-6, .cls-7, .cls-8, .cls-9, .cls-10, .cls-11, .cls-12, .cls-13, .cls-14, .cls-15 { fill: none; } .cls-1, .cls-2, .cls-4, .cls-8, .cls-11, .cls-12, .cls-15 { stroke-width: .25px; } .cls-1, .cls-9, .cls-11 { stroke-miterlimit: 10; } .cls-2 { stroke-dasharray: 1.54 1.54; } .cls-2, .cls-3, .cls-4, .cls-5, .cls-6, .cls-7, .cls-8, .cls-10, .cls-12, .cls-13, .cls-14, .cls-15 { stroke-linecap: round; stroke-linejoin: round; } .cls-2, .cls-4, .cls-8, .cls-15 { stroke: #75655e; } .cls-16 { fill: #3a2a22; } .cls-3 { stroke-dasharray: 1.03 1.03; } .cls-3, .cls-5, .cls-6, .cls-10, .cls-14 { stroke: #55453d; stroke-width: .15px; } .cls-4 { stroke-dasharray: 6.08 5.07; } .cls-6 { stroke-dasharray: 1.01 1.01; } .cls-17 { fill: #fff; } .cls-7, .cls-9 { stroke-width: .75px; } .cls-7, .cls-9, .cls-12, .cls-13 { stroke: #3a2a22; } .cls-18 { fill: #bc8ebc; } .cls-10 { stroke-dasharray: .91 .91; } .cls-11 { stroke: #bc8ebc; } .cls-19 { fill: #afa49f; } .cls-13 { stroke-width: .35px; } .cls-20 { fill: #75655e; } .cls-14 { stroke-dasharray: 1.05 1.05; } .cls-15 { stroke-dasharray: 1.44 1.44; } </style></defs><g id="Layer_1-2" data-name="Layer 1"><g><polygon class="cls-17" points="264.85 730.78 283.6 734.22 321.3 740.87 359.19 747.25 397.07 753.16 434.96 758.8 472.93 764.06 497.98 767.29 497.99 764.92 497.99 759.12 497.99 371.11 651.7 371.11 651.66 175.55 555.74 175.55 555.74 34.64 110.35 34.64 103.48 34.64 101.19 34.64 102.78 57.39 103.96 73.56 112 73 122.28 219.64 160.44 219.64 138.51 591 138.54 591 104.07 591 61.57 679.42 98.34 688.02 135.3 696.33 172.26 704.28 209.32 711.86 248.62 719.45 266.42 722.85 264.85 730.78"></polygon><line class="cls-5" x1="249.9" y1="719.69" x2="249.8" y2="720.19"></line><line class="cls-3" x1="249.6" y1="721.2" x2="248.5" y2="726.75"></line><line class="cls-5" x1="248.41" y1="727.26" x2="248.31" y2="727.75"></line><line class="cls-5" x1="264.85" y1="730.8" x2="264.36" y2="730.71"></line><line class="cls-14" x1="263.32" y1="730.52" x2="249.32" y2="727.94"></line><line class="cls-5" x1="248.8" y1="727.84" x2="248.31" y2="727.75"></line><line class="cls-5" x1="112.76" y1="84" x2="112.26" y2="84.03"></line><line class="cls-6" x1="111.25" y1="84.1" x2="105.72" y2="84.49"></line><polyline class="cls-5" points="105.22 84.52 104.72 84.55 104.68 84.06"></polyline><line class="cls-10" x1="104.62" y1="83.15" x2="104.03" y2="74.51"></line><line class="cls-5" x1="104" y1="74.06" x2="103.96" y2="73.56"></line><polygon class="cls-13" points="283.61 720.17 247.75 713.52 212.09 706.5 176.42 699.2 140.85 691.62 105.27 683.68 69.88 675.45 107.77 596.82 138.17 596.82 138.17 594.82 106.51 594.82 67 676.83 104.84 685.63 140.43 693.58 176.02 701.16 211.7 708.46 247.39 715.49 283.61 722.21 283.61 720.17"></polygon><polygon class="cls-13" points="116.73 57.39 127.63 213.91 166.35 213.91 166.35 219.64 164.35 219.64 164.35 215.91 125.77 215.91 114.74 57.53 116.73 57.39"></polygon><g><path class="cls-5" d="M323.9,167.71c23.13,0,39.35,18.61,39.35,41.58"></path><path class="cls-5" d="M304.32,630.27c23.13,0,39.35-18.61,39.35-41.58"></path><path class="cls-5" d="M217.8,638.4c-23.13,0-39.35-18.61-39.35-41.58"></path><path class="cls-5" d="M158.87,198.93c0-23.13,18.61-39.35,41.58-39.35"></path><path class="cls-5" d="M508.78,202.44c0-23.13-18.61-39.35-41.58-39.35"></path><path class="cls-5" d="M477.72,262.98c-23.13,0-39.35,18.61-39.35,41.58"></path><path class="cls-5" d="M593.7,245.65c0,26.48,21.47,45.05,47.95,45.05"></path></g><line class="cls-5" x1="641.66" y1="245.65" x2="641.66" y2="290.7"></line><line class="cls-5" x1="651.66" y1="242.67" x2="651.66" y2="290.7"></line><rect class="cls-13" x="321.67" y="167.71" width="2.23" height="41.58"></rect><rect class="cls-13" x="302.08" y="588.69" width="2.23" height="41.58"></rect><rect class="cls-13" x="217.8" y="596.82" width="2.23" height="41.58"></rect><rect class="cls-13" x="158.87" y="198.93" width="41.58" height="2.23"></rect><rect class="cls-13" x="467.2" y="202.44" width="41.58" height="2.23"></rect><rect class="cls-13" x="477.72" y="262.98" width="2.23" height="41.58"></rect><rect class="cls-13" x="395.59" y="146.35" width="41.58" height="2.23"></rect><rect class="cls-13" x="593.7" y="242.74" width="47.95" height="2.91"></rect><rect class="cls-13" x="568.84" y="233.03" width="69.3" height="2.23"></rect><line class="cls-13" x1="603.49" y1="233.03" x2="603.49" y2="235.26"></line><rect class="cls-13" x="431.44" y="586.46" width="34.65" height="2.23"></rect><rect class="cls-13" x="396.79" y="584.22" width="34.65" height="2.23"></rect><rect class="cls-13" x="563.19" y="239.88" width="2.23" height="62.37"></rect><line class="cls-13" x1="565.43" y1="271.06" x2="563.19" y2="271.06"></line><line class="cls-8" x1="409.45" y1="416.55" x2="408.7" y2="416.55"></line><line class="cls-15" x1="407.26" y1="416.55" x2="382.02" y2="416.55"></line><polyline class="cls-8" points="381.3 416.55 380.55 416.55 380.55 415.8"></polyline><line class="cls-2" x1="380.55" y1="414.26" x2="380.55" y2="390.46"></line><polyline class="cls-8" points="380.55 389.69 380.55 388.94 381.3 388.94"></polyline><line class="cls-15" x1="382.74" y1="388.94" x2="407.98" y2="388.94"></line><line class="cls-8" x1="408.7" y1="388.94" x2="409.45" y2="388.94"></line><line class="cls-8" x1="409.45" y1="499.24" x2="408.7" y2="499.24"></line><line class="cls-15" x1="407.26" y1="499.24" x2="382.02" y2="499.24"></line><polyline class="cls-8" points="381.3 499.24 380.55 499.24 380.55 498.49"></polyline><line class="cls-2" x1="380.55" y1="496.96" x2="380.55" y2="473.15"></line><polyline class="cls-8" points="380.55 472.38 380.55 471.63 381.3 471.63"></polyline><line class="cls-15" x1="382.74" y1="471.63" x2="407.98" y2="471.63"></line><line class="cls-8" x1="408.7" y1="471.63" x2="409.45" y2="471.63"></line><line class="cls-8" x1="472.18" y1="403.08" x2="472.18" y2="406.08"></line><line class="cls-4" x1="472.18" y1="411.14" x2="472.18" y2="497.78"></line><line class="cls-8" x1="472.18" y1="500.31" x2="472.18" y2="503.31"></line><line class="cls-13" x1="460.27" y1="545.63" x2="460.27" y2="366.93"></line><line class="cls-13" x1="460.27" y1="403.08" x2="487.7" y2="403.08"></line><line class="cls-13" x1="460.27" y1="503.31" x2="487.7" y2="503.31"></line><line class="cls-13" x1="462.77" y1="403.08" x2="462.77" y2="366.93"></line><rect class="cls-13" x="359.88" y="385.41" width="49.58" height="117.81"></rect><g><rect class="cls-13" x="378.21" y="451.52" width="11.07" height="1.74" rx=".59" ry=".59"></rect><circle class="cls-13" cx="396.08" cy="452.39" r=".9"></circle></g><polyline class="cls-13" points="379.53 453.26 379.53 455.68 382.38 455.68 382.38 453.26"></polyline><line class="cls-13" x1="382.38" y1="454.82" x2="379.53" y2="454.82"></line><polyline class="cls-13" points="384.69 453.26 384.69 465.31 406.45 465.31 406.45 439.46 384.69 439.46 384.69 451.52"></polyline><polyline class="cls-13" points="385.77 451.52 385.77 440.54 405.37 440.54 405.37 464.23 385.77 464.23 385.77 453.26"></polyline><rect class="cls-13" x="604.49" y="188.48" width="30.61" height="38.03"></rect><rect class="cls-13" x="571.89" y="188.48" width="30.61" height="38.03"></rect><line class="cls-13" x1="462.77" y1="503.31" x2="462.77" y2="545.63"></line><polyline class="cls-13" points="382.94 260.09 407.95 260.09 407.95 304.51"></polyline><g><path class="cls-13" d="M384.02,229.61h5.29c.6,0,1.08.48,1.08,1.08v15.44c0,.6-.48,1.08-1.08,1.08h-5.29c-.6,0-1.08-.48-1.08-1.08v-15.44c0-.6.48-1.08,1.08-1.08Z"></path><path class="cls-13" d="M394.53,233.96c0-.28.11-.54.32-.73,2.09-1.88,5.3-3.09,8.9-3.09,6.31,0,11.42,3.71,11.42,8.28s-5.11,8.28-11.42,8.28c-3.59,0-6.8-1.2-8.9-3.08-.21-.19-.32-.46-.32-.73v-8.92Z"></path></g><line class="cls-13" x1="403.75" y1="230.14" x2="390.23" y2="230.14"></line><line class="cls-13" x1="403.75" y1="246.69" x2="390.23" y2="246.69"></line><path class="cls-13" d="M391,278.1v9.87c0,.4.32.72.72.72h10.9c.4,0,.72-.32.72-.72v-20.82c0-.4-.32-.72-.72-.72h-10.9c-.4,0-.72.32-.72.72v9.48"></path><rect class="cls-13" x="387.55" y="276.63" width="5.89" height="1.47"></rect><circle class="cls-13" cx="397.17" cy="277.36" r=".84"></circle><polyline class="cls-13" points="520.33 204.03 520.34 126.7 545.74 126.7"></polyline><path class="cls-13" d="M537.4,147.44v-9.87c0-.4-.32-.72-.72-.72h-10.9c-.4,0-.72.32-.72.72v20.82c0,.4.32.72.72.72h10.9c.4,0,.72-.32.72-.72v-9.48"></path><rect class="cls-13" x="534.96" y="147.44" width="5.89" height="1.47"></rect><g><circle class="cls-13" cx="531.23" cy="148.18" r=".84"></circle><path class="cls-13" d="M537.4,182.2v-9.87c0-.4-.32-.72-.72-.72h-10.9c-.4,0-.72.32-.72.72v20.82c0,.4.32.72.72.72h10.9c.4,0,.72-.32.72-.72v-9.48"></path></g><rect class="cls-13" x="534.96" y="182.2" width="5.89" height="1.47"></rect><circle class="cls-13" cx="531.23" cy="182.93" r=".84"></circle><line class="cls-13" x1="469.51" y1="86.22" x2="544.92" y2="86.23"></line><line class="cls-13" x1="469.51" y1="86.22" x2="545.74" y2="86.23"></line><line class="cls-13" x1="469.51" y1="84.94" x2="545.74" y2="84.95"></line><line class="cls-13" x1="474.2" y1="84.94" x2="474.2" y2="86.22"></line><line class="cls-13" x1="512.2" y1="84.94" x2="512.2" y2="86.22"></line><line class="cls-13" x1="532.36" y1="44.64" x2="532.36" y2="84.94"></line><g><path class="cls-13" d="M482.61,64.79c0,.67-.54,1.21-1.21,1.21s-1.21-.54-1.21-1.21.54-1.21,1.21-1.21,1.21.54,1.21,1.21Z"></path><path class="cls-13" d="M486.58,64.79c0,2.86-2.32,5.18-5.18,5.18s-5.18-2.32-5.18-5.18,2.32-5.18,5.18-5.18,5.18,2.32,5.18,5.18Z"></path><path class="cls-13" d="M538.29,114.45v-15.44c0-.6.48-1.08,1.08-1.08h5.29c.6,0,1.08.48,1.08,1.08v15.44c0,.6-.48,1.08-1.08,1.08h-5.29c-.6,0-1.08-.48-1.08-1.08Z"></path><path class="cls-13" d="M534.14,111.19c0,.28-.11.54-.32.73-2.09,1.88-5.3,3.09-8.9,3.08-6.31,0-11.42-3.7-11.42-8.28s5.11-8.27,11.42-8.27c3.6,0,6.8,1.2,8.9,3.08.21.19.32.46.32.73v8.92Z"></path></g><line class="cls-13" x1="524.93" y1="115" x2="538.45" y2="115"></line><line class="cls-13" x1="524.93" y1="98.45" x2="538.45" y2="98.45"></line><line class="cls-13" x1="500.86" y1="233.32" x2="504.07" y2="233.32"></line><g><path class="cls-13" d="M505.27,233.32h11.6c1.38,0,2.5,1.12,2.5,2.5v61.83c0,1.38-1.12,2.5-2.5,2.5h-24.04c-1.38,0-2.5-1.12-2.5-2.5v-61.83c0-1.38,1.12-2.5,2.5-2.5h8.37"></path><path class="cls-13" d="M504.41,229.29v10.86c0,.24.19.43.43.43s.43-.19.43-.43v-10.81"></path><path class="cls-13" d="M505.27,239.07c.46.17.79.61.79,1.14,0,.67-.54,1.21-1.21,1.21s-1.21-.54-1.21-1.21c0-.51.32-.95.77-1.13"></path><path class="cls-13" d="M505.27,235.04c2.67.22,4.76,2.45,4.76,5.17,0,2.86-2.32,5.18-5.18,5.18s-5.18-2.32-5.18-5.18c0-2.72,2.09-4.94,4.74-5.17"></path></g><rect class="cls-13" x="502.31" y="228.33" width="5.08" height=".97"></rect><line class="cls-13" x1="485.86" y1="228.33" x2="485.86" y2="304.56"></line><line class="cls-13" x1="484.57" y1="228.33" x2="484.58" y2="304.51"></line><line class="cls-13" x1="484.57" y1="233.01" x2="485.86" y2="233.01"></line><line class="cls-13" x1="484.57" y1="271.01" x2="485.86" y2="271.01"></line><rect class="cls-13" x="461.55" y="441.63" width="24.28" height="36.98"></rect><rect class="cls-13" x="462.64" y="442.71" width="22.12" height="34.82"></rect><path class="cls-13" d="M463.39,460.12c0-.71.57-1.28,1.28-1.28s1.28.57,1.28,1.28c0,.71-.57,1.28-1.28,1.28s-1.28-.57-1.28-1.28Z"></path><line class="cls-13" x1="462.63" y1="442.71" x2="461.55" y2="441.63"></line><line class="cls-13" x1="462.64" y1="477.53" x2="461.56" y2="478.61"></line><line class="cls-13" x1="484.75" y1="477.53" x2="485.83" y2="478.61"></line><line class="cls-13" x1="484.75" y1="442.71" x2="485.83" y2="441.63"></line><polygon class="cls-13" points="464.67 461.17 465.72 460.12 464.67 459.07 463.61 460.12 464.67 461.17"></polygon><line class="cls-13" x1="465.72" y1="460.12" x2="463.61" y2="460.12"></line><g><path class="cls-12" d="M546.45,254.75c1.51-.03,3.03-.06,4.57-.13.8-.04,1.6-.09,2.35-.13.57-.03,1.11-.07,1.78-.16.65-.09,1.42-.25,1.73.23.07.11.12.25.13.38.06.77-1.18.9-2.24.97-2.35.15-3.74-.04-5.44-.16-.9-.06-1.9-.1-2.89-.14-.99.04-1.98.08-2.89.14-1.7.12-3.09.3-5.44.16-1.05-.07-2.3-.2-2.24-.97.01-.13.06-.27.12-.38.31-.48,1.08-.33,1.73-.23.67.1,1.21.13,1.78.16.75.04,1.56.09,2.35.13,1.55.07,3.06.1,4.57.13Z"></path><path class="cls-12" d="M546.45,259.45c1.51-.03,3.03-.06,4.57-.13.8-.04,1.6-.09,2.35-.13.57-.03,1.11-.07,1.78-.16.65-.09,1.42-.25,1.73.23.07.11.12.25.13.38.06.77-1.18.9-2.24.97-2.35.15-3.74-.04-5.44-.16-.9-.06-1.9-.1-2.89-.14-.99.04-1.98.08-2.89.14-1.7.12-3.09.3-5.44.16-1.05-.07-2.3-.2-2.24-.97.01-.13.06-.27.12-.38.31-.48,1.08-.33,1.73-.23.67.1,1.21.13,1.78.16.75.04,1.56.09,2.35.13,1.55.07,3.06.1,4.57.13Z"></path><path class="cls-12" d="M546.45,264.14c1.51-.03,3.03-.06,4.57-.13.8-.04,1.6-.09,2.35-.13.57-.03,1.11-.07,1.78-.16.65-.09,1.42-.25,1.73.23.07.11.12.25.13.38.06.77-1.18.9-2.24.97-2.35.15-3.74-.04-5.44-.16-.9-.06-1.9-.1-2.89-.14-.99.04-1.98.08-2.89.14-1.7.12-3.09.3-5.44.16-1.05-.07-2.3-.2-2.24-.97.01-.13.06-.27.12-.38.31-.48,1.08-.32,1.73-.23.67.1,1.21.13,1.78.16.75.04,1.56.09,2.35.13,1.55.07,3.06.1,4.57.13Z"></path></g><line class="cls-12" x1="546.45" y1="304.56" x2="546.45" y2="215.02"></line><g><path class="cls-12" d="M454.56,570.19c.03,1.51.06,3.03.13,4.57.04.8.09,1.6.13,2.36.03.57.07,1.11.16,1.78.09.65.25,1.42-.23,1.73-.11.07-.25.12-.38.13-.77.06-.9-1.18-.97-2.24-.15-2.35.04-3.74.16-5.44.06-.9.1-1.89.14-2.89-.04-.99-.08-1.98-.14-2.89-.11-1.7-.3-3.09-.16-5.44.07-1.05.2-2.3.97-2.24.13,0,.27.06.38.13.48.31.32,1.08.23,1.73-.1.67-.13,1.21-.16,1.78-.04.75-.09,1.56-.13,2.35-.07,1.55-.1,3.06-.13,4.57Z"></path><path class="cls-12" d="M449.86,570.19c.03,1.51.06,3.03.13,4.57.04.8.09,1.6.13,2.36.03.57.07,1.11.16,1.78.09.65.25,1.42-.23,1.73-.11.07-.25.12-.38.13-.77.06-.9-1.18-.97-2.24-.15-2.35.04-3.74.16-5.44.06-.9.1-1.89.14-2.89-.04-.99-.08-1.98-.14-2.89-.11-1.7-.3-3.09-.16-5.44.07-1.05.2-2.3.97-2.24.13,0,.27.06.38.13.48.31.32,1.08.23,1.73-.1.67-.13,1.21-.16,1.78-.05.75-.09,1.56-.13,2.35-.07,1.55-.1,3.06-.13,4.57Z"></path><path class="cls-12" d="M445.17,570.19c.03,1.51.06,3.03.13,4.57.04.8.09,1.6.13,2.36.03.57.07,1.11.16,1.78.09.65.25,1.42-.23,1.73-.11.07-.25.12-.38.13-.77.06-.9-1.18-.97-2.24-.15-2.35.04-3.74.16-5.44.06-.9.1-1.89.14-2.89-.04-.99-.08-1.98-.14-2.89-.11-1.7-.3-3.09-.16-5.44.07-1.05.2-2.3.97-2.24.13,0,.27.06.38.13.48.31.32,1.08.23,1.73-.1.67-.13,1.21-.16,1.78-.04.75-.09,1.56-.13,2.35-.07,1.55-.1,3.06-.13,4.57Z"></path></g><line class="cls-12" x1="377.83" y1="570.19" x2="487.49" y2="570.19"></line><g><path class="cls-12" d="M417.81,570.19c.03,1.51.06,3.03.13,4.57.04.8.09,1.6.13,2.36.03.57.07,1.11.16,1.78.09.65.25,1.42-.23,1.73-.11.07-.25.12-.38.13-.77.06-.9-1.18-.97-2.24-.15-2.35.04-3.74.16-5.44.06-.9.1-1.89.14-2.89-.04-.99-.08-1.98-.14-2.89-.11-1.7-.3-3.09-.16-5.44.07-1.05.2-2.3.97-2.24.13,0,.27.06.38.13.48.31.32,1.08.23,1.73-.1.67-.13,1.21-.16,1.78-.04.75-.09,1.56-.13,2.35-.07,1.55-.1,3.06-.13,4.57Z"></path><path class="cls-12" d="M413.12,570.19c.03,1.51.06,3.03.13,4.57.04.8.09,1.6.13,2.36.03.57.07,1.11.16,1.78.09.65.25,1.42-.23,1.73-.11.07-.25.12-.38.13-.77.06-.9-1.18-.97-2.24-.15-2.35.04-3.74.16-5.44.06-.9.1-1.89.14-2.89-.04-.99-.08-1.98-.14-2.89-.11-1.7-.3-3.09-.16-5.44.07-1.05.2-2.3.97-2.24.13,0,.27.06.38.13.48.31.32,1.08.23,1.73-.1.67-.13,1.21-.16,1.78-.04.75-.09,1.56-.13,2.35-.07,1.55-.1,3.06-.13,4.57Z"></path><path class="cls-12" d="M408.42,570.19c.03,1.51.06,3.03.13,4.57.04.8.09,1.6.13,2.36.03.57.07,1.11.16,1.78.09.65.25,1.42-.23,1.73-.11.07-.25.12-.38.13-.77.06-.9-1.18-.97-2.24-.15-2.35.04-3.74.16-5.44.06-.9.1-1.89.14-2.89-.04-.99-.08-1.98-.14-2.89-.11-1.7-.3-3.09-.16-5.44.07-1.05.2-2.3.97-2.24.13,0,.27.06.38.13.48.31.32,1.08.23,1.73-.1.67-.13,1.21-.16,1.78-.04.75-.09,1.56-.13,2.35-.07,1.55-.1,3.06-.13,4.57Z"></path></g><line class="cls-12" x1="208.48" y1="157.27" x2="208.48" y2="49.26"></line><line class="cls-12" x1="103.48" y1="34.64" x2="110.36" y2="34.64"></line><polyline class="cls-12" points="110.91 57.39 122.27 219.64 166.35 219.64"></polyline><polyline class="cls-12" points="458.19 753.83 451.77 752.98 411.67 747.25 371.57 741.06 331.56 734.5 291.64 727.47 291.64 604.86"></polyline><line class="cls-12" x1="497.99" y1="764.92" x2="497.99" y2="759.12"></line><polyline class="cls-12" points="283.61 726.01 262.91 722.21 209.32 711.86 172.26 704.28 135.3 696.33 98.34 688.02 61.57 679.42 104.07 591 138.54 591 138.17 596.82"></polyline><polyline class="cls-12" points="176.14 588.69 146.76 588.69 168.1 227.77 208.48 227.77"></polyline><polygon class="cls-7" points="140.66 594.51 162.65 221.95 202.76 221.95 202.76 203.47 200.45 203.47 200.45 219.64 160.44 219.64 138.17 596.82 176.14 596.82 176.14 594.51 140.66 594.51"></polygon><polygon class="cls-7" points="104.9 55.08 103.48 34.64 101.19 34.64 102.78 57.39 200.45 57.39 200.45 157.27 202.76 157.27 202.76 55.08 104.9 55.08"></polygon><polygon class="cls-7" points="102.78 57.39 103.96 73.56 106.28 73.4 106.27 73.37 105.09 57.39 102.78 57.39"></polygon><polygon class="cls-7" points="497.99 764.92 473.21 761.75 435.6 756.58 398.09 751.03 360.67 745.12 323.24 738.93 285.92 732.37 285.92 604.86 283.6 604.86 283.6 734.22 321.3 740.87 359.19 747.25 397.07 753.16 434.96 758.8 472.93 764.06 497.98 767.29 497.99 764.92"></polygon><polygon class="cls-7" points="265.31 728.49 283.6 731.91 283.6 734.22 264.85 730.8 265.31 728.49"></polygon><rect class="cls-7" x="202.75" y="87.97" width="5.73" height="2.31"></rect><rect class="cls-7" x="200.44" y="157.27" width="8.04" height="2.31"></rect><rect class="cls-7" x="199.24" y="49.26" width="2.31" height="5.82"></rect><rect class="cls-7" x="157.66" y="49.26" width="2.31" height="5.82"></rect><rect class="cls-7" x="202.75" y="56.19" width="5.73" height="2.31"></rect><polyline class="cls-7" points="112 73 106.27 73.37 106.09 71.06 111.82 70.69 112 73"></polyline><polyline class="cls-7" points="104.81 53.51 104.9 55.08 106.57 55.08 111.93 49.26 110.35 49.26 110.26 47.69 104.81 53.51"></polyline><polyline class="cls-7" points="168.01 226.02 166.53 224.45 164.22 221.95 162.65 221.95 162.56 223.52 164.87 226.02 164.78 226.02 166.63 227.96 167.64 228.98 167.92 229.34 168.1 227.77 169.68 227.77 168.57 226.57 168.01 226.02"></polyline><rect class="cls-7" x="176.14" y="588.69" width="2.31" height="8.13"></rect><polyline class="cls-7" points="147.68 475.13 153.41 475.5 153.32 477.81 147.59 477.44 147.68 475.13"></polyline><polyline class="cls-7" points="151.75 406.01 157.57 406.29 157.39 408.6 151.66 408.32 151.75 406.01"></polyline><polyline class="cls-7" points="155.82 336.81 161.64 337.18 161.45 339.49 155.72 339.12 155.82 336.81"></polyline><polyline class="cls-7" points="159.88 267.6 165.7 267.97 165.52 270.28 159.79 269.91 159.88 267.6"></polyline><polyline class="cls-7" points="148.42 588.69 146.76 588.69 146.85 587.03 140.75 592.75 140.66 594.51 142.33 594.51 148.42 588.69"></polyline><rect class="cls-7" x="200.44" y="201.16" width="8.04" height="2.31"></rect><rect class="cls-7" x="202.75" y="218.53" width="5.73" height="2.31"></rect><rect class="cls-7" x="198.13" y="221.95" width="2.31" height="5.82"></rect><polyline class="cls-7" points="143.62 544.34 149.35 544.71 149.25 547.02 143.43 546.65 143.62 544.34"></polyline><rect class="cls-7" x="220.03" y="588.69" width="2.31" height="8.13"></rect><rect class="cls-7" x="285.91" y="618.72" width="5.73" height="2.31"></rect><polyline class="cls-7" points="459.72 754.08 458.89 759.81 456.67 759.44 457.41 753.81 459.72 754.08"></polyline><polyline class="cls-7" points="391.25 744.11 390.33 749.83 388.11 749.46 388.94 743.74 391.25 744.11"></polyline><polyline class="cls-7" points="322.97 733.02 321.95 738.65 319.73 738.28 320.66 732.56 322.97 733.02"></polyline><rect class="cls-7" x="285.91" y="604.86" width="5.73" height="2.31"></rect><rect class="cls-7" x="285.91" y="666.77" width="5.73" height="2.31"></rect><polyline class="cls-7" points="285.92 730.8 285.92 732.37 287.39 732.56 293.12 727.75 291.64 727.47 291.64 725.99 285.92 730.8"></polyline><polygon class="cls-7" points="268.73 723.28 267.62 728.92 265.31 728.49 266.42 722.85 268.73 723.28"></polygon><polygon class="cls-16" points="317.61 233.5 317.61 215.02 321.67 215.02 321.67 209.29 317.61 209.29 214.31 209.29 214.31 202.36 208.48 202.36 208.48 227.77 200.45 227.77 200.45 233.5 208.48 233.5 317.61 233.5"></polygon><polygon class="cls-9" points="317.61 233.5 317.61 215.02 321.67 215.02 321.67 209.29 317.61 209.29 214.31 209.29 214.31 202.36 208.48 202.36 208.48 227.77 200.45 227.77 200.45 233.5 208.48 233.5 317.61 233.5"></polygon><polygon class="cls-16" points="641.66 242.74 641.66 235.26 638.14 235.26 638.14 229.44 641.66 229.44 641.66 185.55 565.43 185.55 565.43 229.44 568.84 229.44 568.84 235.26 565.43 235.26 565.43 239.88 559.6 239.88 559.6 215.02 531.88 215.02 531.88 304.56 559.6 304.56 559.6 302.25 565.43 302.25 565.43 310.29 479.96 310.29 479.96 304.56 523.84 304.56 523.84 228.33 484.58 228.33 484.58 215.02 382.94 215.02 382.94 304.51 438.38 304.51 438.38 310.29 374.8 310.29 374.8 215.02 363.25 215.02 363.25 209.29 461.48 209.29 461.48 204.67 467.2 204.67 467.2 209.29 520.33 209.29 520.33 204.03 545.74 204.03 545.74 44.64 469.51 44.64 469.51 86.22 467.2 86.22 467.2 163.09 461.48 163.09 461.48 148.59 437.17 148.59 437.17 142.86 461.48 142.86 461.48 44.64 390.97 44.64 390.97 142.86 395.59 142.86 395.59 148.59 385.24 148.59 385.24 52.77 214.31 52.77 214.31 57.39 208.48 57.39 208.48 49.26 110.36 49.26 110.36 34.64 555.74 34.64 555.74 175.55 651.66 175.55 651.66 242.74 641.66 242.74"></polygon><polygon class="cls-9" points="641.66 242.74 641.66 235.26 638.14 235.26 638.14 229.44 641.66 229.44 641.66 185.55 565.43 185.55 565.43 229.44 568.84 229.44 568.84 235.26 565.43 235.26 565.43 239.88 559.6 239.88 559.6 215.02 531.88 215.02 531.88 304.56 559.6 304.56 559.6 302.25 565.43 302.25 565.43 310.29 479.96 310.29 479.96 304.56 523.84 304.56 523.84 228.33 484.58 228.33 484.58 215.02 382.94 215.02 382.94 304.51 438.38 304.51 438.38 310.29 374.8 310.29 374.8 215.02 363.25 215.02 363.25 209.29 461.48 209.29 461.48 204.67 467.2 204.67 467.2 209.29 520.33 209.29 520.33 204.03 545.74 204.03 545.74 44.64 469.51 44.64 469.51 86.22 467.2 86.22 467.2 163.09 461.48 163.09 461.48 148.59 437.17 148.59 437.17 142.86 461.48 142.86 461.48 44.64 390.97 44.64 390.97 142.86 395.59 142.86 395.59 148.59 385.24 148.59 385.24 52.77 214.31 52.77 214.31 57.39 208.48 57.39 208.48 49.26 110.36 49.26 110.36 34.64 555.74 34.64 555.74 175.55 651.66 175.55 651.66 242.74 641.66 242.74"></polygon><polygon class="cls-16" points="651.66 290.7 641.7 290.7 641.7 316.11 634.73 316.11 634.73 361.11 460.27 361.11 460.27 366.93 487.7 366.93 487.7 545.63 460.27 545.63 460.27 549.42 371.55 549.42 371.55 582.96 343.67 582.96 343.67 588.69 396.8 588.69 396.8 582.96 377.28 582.96 377.28 555.24 487.99 555.24 487.99 582.96 466.1 582.96 466.1 588.69 482.82 588.69 482.82 751.31 459.35 748.17 458.52 753.9 497.99 759.12 497.99 371.11 651.7 371.11 651.67 290.7 651.66 290.7"></polygon><polygon class="cls-9" points="651.66 290.7 641.7 290.7 641.7 316.11 634.73 316.11 634.73 361.11 460.27 361.11 460.27 366.93 487.7 366.93 487.7 545.63 460.27 545.63 460.27 549.42 371.55 549.42 371.55 582.96 343.67 582.96 343.67 588.69 396.8 588.69 396.8 582.96 377.28 582.96 377.28 555.24 487.99 555.24 487.99 582.96 466.1 582.96 466.1 588.69 482.82 588.69 482.82 751.31 459.35 748.17 458.52 753.9 497.99 759.12 497.99 371.11 651.7 371.11 651.67 290.7 651.66 290.7"></polygon><polygon class="cls-16" points="222.34 582.96 302.08 582.96 302.08 588.69 297.46 588.69 297.46 619.73 291.64 619.73 291.64 604.86 222.34 604.86 222.34 582.96"></polygon><polygon class="cls-9" points="222.34 582.96 302.08 582.96 302.08 588.69 297.46 588.69 297.46 619.73 291.64 619.73 291.64 604.86 222.34 604.86 222.34 582.96"></polygon><g><path class="cls-18" d="M663.54,266.83c-.08-.02-.14-.07-.14-.14s.06-.13.14-.14c3.3-.56,4.94-2.74,4.94-6.02v-3.84c0-1.16,1.01-1.98,2.66-2.2.33-.05.61.23.45.47-.31.46-.47,1.06-.47,1.78v3.48c0,2.95-1.67,5.22-4.98,6.17-.37.11-.37.5,0,.61,3.31.96,4.98,3.22,4.98,6.18v3.48c0,.72.16,1.32.47,1.78.16.23-.12.51-.45.47-1.64-.22-2.66-1.05-2.66-2.21v-3.84c0-3.29-1.64-5.47-4.94-6.02h0Z"></path><path class="cls-11" d="M663.54,266.83c-.08-.02-.14-.07-.14-.14s.06-.13.14-.14c3.3-.56,4.94-2.74,4.94-6.02v-3.84c0-1.16,1.01-1.98,2.66-2.2.33-.05.61.23.45.47-.31.46-.47,1.06-.47,1.78v3.48c0,2.95-1.67,5.22-4.98,6.17-.37.11-.37.5,0,.61,3.31.96,4.98,3.22,4.98,6.18v3.48c0,.72.16,1.32.47,1.78.16.23-.12.51-.45.47-1.64-.22-2.66-1.05-2.66-2.21v-3.84c0-3.29-1.64-5.47-4.94-6.02h0Z"></path></g><g><path class="cls-16" d="M247.21,126.13h2.52c1.9,0,2.97.89,2.97,2.53s-1.07,2.54-2.97,2.54h-1.72v3.99h-.8v-9.06ZM249.65,130.48c1.41,0,2.24-.61,2.24-1.81s-.81-1.81-2.24-1.81h-1.64v3.62h1.64Z"></path><path class="cls-16" d="M254.22,128.79h.78v1.09c.43-.78,1.31-1.18,2.02-1.18.33,0,.66.07.99.24l-.39.7c-.21-.1-.51-.17-.77-.17-.68,0-1.46.36-1.74,1.3-.08.27-.12.57-.12,1.27v3.15h-.78v-6.41Z"></path><path class="cls-16" d="M259.27,126.13h.94v1.39h-.94v-1.39ZM259.36,128.79h.77v6.41h-.77v-6.41Z"></path><path class="cls-16" d="M262.16,128.79h.78v1.1c.38-.85,1.11-1.19,1.88-1.19.91,0,1.57.4,1.89,1.25.4-.83,1.09-1.25,2-1.25,1.55,0,2.13,1.16,2.13,2.69v3.82h-.78v-3.64c0-1.33-.39-2.18-1.52-2.18-1.02,0-1.65.77-1.65,2.26v3.57h-.78v-3.76c0-1.4-.52-2.07-1.5-2.07-1.03,0-1.67.79-1.67,2.26v3.57h-.78v-6.41Z"></path><path class="cls-16" d="M276.99,133.99c-.43.82-1.25,1.29-2.25,1.29-1.44,0-2.31-.77-2.31-1.94,0-.69.29-1.16.72-1.44.46-.31,1.09-.42,1.77-.42h2.05v-.28c0-1.19-.62-1.83-1.82-1.83-.79,0-1.4.29-1.98,1.02l-.56-.48c.68-.85,1.53-1.22,2.59-1.22,1.63,0,2.54.89,2.54,2.51v3.99h-.71l-.04-1.2ZM274.81,134.64c1.18,0,2.17-.93,2.17-2.2v-.36h-1.95c-.51,0-1.03.08-1.37.33-.28.21-.44.51-.44.94,0,.79.6,1.3,1.6,1.3Z"></path><path class="cls-16" d="M279.7,128.79h.78v1.09c.43-.78,1.31-1.18,2.02-1.18.33,0,.66.07.99.24l-.39.7c-.21-.1-.51-.17-.77-.17-.68,0-1.46.36-1.74,1.3-.08.27-.12.57-.12,1.27v3.15h-.78v-6.41Z"></path><path class="cls-16" d="M286.75,134.99l-2.55-6.21h.86l2.1,5.42,2.11-5.42h.85l-3.69,9.05h-.84l1.17-2.84Z"></path><path class="cls-16" d="M295.01,126.13h2.72c1.68,0,2.68.84,2.68,2.25,0,.94-.46,1.68-1.24,2,1.1.25,1.7,1.07,1.7,2.31,0,1.61-1.02,2.5-2.88,2.5h-2.97v-9.06ZM297.98,130.14c.98,0,1.63-.64,1.63-1.64s-.69-1.61-1.88-1.61h-1.91v3.26h2.16ZM297.93,134.45c1.42,0,2.14-.6,2.14-1.79,0-1.13-.66-1.79-1.79-1.79h-2.46v3.58h2.11Z"></path><path class="cls-16" d="M302.34,132.04c0-1.84.99-3.34,2.81-3.34,1.96,0,2.76,1.53,2.76,2.94,0,.1-.01.4-.04.55h-4.76c.03,1.51.84,2.39,2.14,2.39.82,0,1.35-.23,1.91-.83l.55.49c-.73.75-1.43,1.05-2.46,1.05-1.89,0-2.91-1.41-2.91-3.25ZM307.16,131.61c0-.08,0-.16,0-.24,0-.92-.58-2.02-2-2.02-1.23,0-1.98.98-2.07,2.26h4.06Z"></path><path class="cls-16" d="M309.32,131.99c0-1.96,1.29-3.29,2.92-3.29,1.05,0,1.87.54,2.29,1.36v-3.92h.77v9.06h-.77v-1.26c-.44.85-1.25,1.35-2.29,1.35-1.72,0-2.92-1.42-2.92-3.3ZM312.36,134.57c1.3,0,2.23-1.08,2.23-2.58s-.93-2.58-2.23-2.58-2.26,1.09-2.26,2.58.95,2.58,2.26,2.58Z"></path><path class="cls-16" d="M317.34,128.79h.78v1.09c.43-.78,1.31-1.18,2.02-1.18.33,0,.66.07.99.24l-.39.7c-.21-.1-.51-.17-.77-.17-.68,0-1.46.36-1.74,1.3-.08.27-.12.57-.12,1.27v3.15h-.78v-6.41Z"></path><path class="cls-16" d="M321.72,131.99c0-1.92,1.25-3.29,3.05-3.29s3.04,1.37,3.04,3.29-1.27,3.3-3.04,3.3-3.05-1.36-3.05-3.3ZM324.77,134.59c1.37,0,2.26-1.04,2.26-2.61s-.9-2.61-2.26-2.61-2.28,1.05-2.28,2.61.9,2.61,2.28,2.61Z"></path><path class="cls-16" d="M329.25,131.99c0-1.92,1.25-3.29,3.05-3.29s3.04,1.37,3.04,3.29-1.27,3.3-3.04,3.3-3.05-1.36-3.05-3.3ZM332.3,134.59c1.37,0,2.26-1.04,2.26-2.61s-.9-2.61-2.26-2.61-2.28,1.05-2.28,2.61.9,2.61,2.28,2.61Z"></path><path class="cls-16" d="M337.09,128.79h.78v1.1c.38-.85,1.11-1.19,1.88-1.19.91,0,1.57.4,1.89,1.25.4-.83,1.09-1.25,2-1.25,1.55,0,2.13,1.16,2.13,2.69v3.82h-.78v-3.64c0-1.33-.39-2.18-1.52-2.18-1.02,0-1.65.77-1.65,2.26v3.57h-.78v-3.76c0-1.4-.52-2.07-1.5-2.07-1.03,0-1.67.79-1.67,2.26v3.57h-.78v-6.41Z"></path></g><g><path class="cls-16" d="M364.52,652.61h2.72c1.68,0,2.68.84,2.68,2.25,0,.94-.46,1.68-1.24,2,1.1.25,1.7,1.07,1.7,2.31,0,1.61-1.02,2.5-2.88,2.5h-2.97v-9.06ZM367.49,656.62c.98,0,1.63-.64,1.63-1.64s-.69-1.61-1.88-1.61h-1.91v3.26h2.16ZM367.44,660.93c1.42,0,2.14-.6,2.14-1.79,0-1.13-.66-1.79-1.79-1.79h-2.46v3.58h2.11Z"></path><path class="cls-16" d="M371.82,658.52c0-1.84.99-3.34,2.81-3.34,1.96,0,2.76,1.53,2.76,2.94,0,.1-.01.4-.04.55h-4.76c.03,1.51.84,2.39,2.14,2.39.82,0,1.35-.23,1.91-.83l.55.49c-.73.75-1.43,1.05-2.46,1.05-1.89,0-2.91-1.41-2.91-3.25ZM376.63,658.09c0-.08,0-.16,0-.24,0-.92-.58-2.01-2-2.01-1.23,0-1.98.98-2.07,2.26h4.06Z"></path><path class="cls-16" d="M378.79,658.47c0-1.96,1.29-3.29,2.92-3.29,1.05,0,1.87.54,2.29,1.36v-3.92h.77v9.06h-.77v-1.26c-.44.84-1.25,1.35-2.29,1.35-1.72,0-2.92-1.42-2.92-3.3ZM381.83,661.05c1.3,0,2.23-1.08,2.23-2.58s-.93-2.58-2.23-2.58-2.26,1.09-2.26,2.58.95,2.58,2.26,2.58Z"></path><path class="cls-16" d="M386.8,655.27h.78v1.09c.43-.78,1.31-1.18,2.02-1.18.33,0,.66.07.99.24l-.39.7c-.21-.1-.51-.17-.77-.17-.68,0-1.46.36-1.74,1.3-.08.27-.12.57-.12,1.27v3.15h-.78v-6.41Z"></path><path class="cls-16" d="M391.18,658.47c0-1.92,1.25-3.29,3.05-3.29s3.04,1.37,3.04,3.29-1.27,3.3-3.04,3.3-3.05-1.37-3.05-3.3ZM394.23,661.07c1.37,0,2.26-1.04,2.26-2.61s-.9-2.61-2.26-2.61-2.28,1.05-2.28,2.61.9,2.61,2.28,2.61Z"></path><path class="cls-16" d="M398.71,658.47c0-1.92,1.25-3.29,3.05-3.29s3.04,1.37,3.04,3.29-1.27,3.3-3.04,3.3-3.05-1.37-3.05-3.3ZM401.76,661.07c1.37,0,2.26-1.04,2.26-2.61s-.9-2.61-2.26-2.61-2.28,1.05-2.28,2.61.9,2.61,2.28,2.61Z"></path><path class="cls-16" d="M406.55,655.27h.78v1.1c.38-.84,1.11-1.19,1.88-1.19.91,0,1.57.4,1.89,1.25.4-.83,1.09-1.25,2-1.25,1.55,0,2.13,1.16,2.13,2.68v3.82h-.78v-3.64c0-1.33-.39-2.18-1.52-2.18-1.02,0-1.65.77-1.65,2.26v3.57h-.78v-3.76c0-1.4-.52-2.07-1.5-2.07-1.03,0-1.67.79-1.67,2.26v3.57h-.78v-6.41Z"></path></g><g><path class="cls-16" d="M240.39,439.32h2.43c2.94,0,4.62,1.68,4.62,4.6s-1.64,4.46-4.63,4.46h-2.42v-9.06ZM242.74,447.64c2.5,0,3.89-1.16,3.89-3.74s-1.4-3.83-3.82-3.83h-1.61v7.57h1.54Z"></path><path class="cls-16" d="M249.05,439.32h.94v1.39h-.94v-1.39ZM249.13,441.98h.77v6.41h-.77v-6.41Z"></path><path class="cls-16" d="M251.94,441.98h.78v1.05c.4-.76,1.12-1.14,2.01-1.14,1.38,0,2.2.81,2.2,2.51v3.99h-.78v-3.71c0-1.45-.55-2.11-1.61-2.11-1.16,0-1.83.79-1.83,2.55v3.27h-.78v-6.41Z"></path><path class="cls-16" d="M258.82,439.32h.94v1.39h-.94v-1.39ZM258.9,441.98h.77v6.41h-.77v-6.41Z"></path><path class="cls-16" d="M261.71,441.98h.78v1.05c.4-.76,1.12-1.14,2.01-1.14,1.38,0,2.2.81,2.2,2.51v3.99h-.78v-3.71c0-1.45-.55-2.11-1.61-2.11-1.16,0-1.83.79-1.83,2.55v3.27h-.78v-6.41Z"></path><path class="cls-16" d="M268.16,449.15s0-.1.03-.26l1.11-.88c-.57-.22-.96-.59-.96-1.26,0-.53.27-.9.72-1.2-.36-.37-.56-.87-.56-1.45,0-1.3,1.04-2.2,2.39-2.2.64,0,1.22.21,1.64.58l1.02-.86.4.49-1,.88c.19.33.3.71.3,1.14,0,1.28-.96,2.13-2.33,2.13-.53,0-.99-.12-1.37-.34-.31.17-.45.42-.45.71,0,.66.63.83,1.62.98,1.6.25,2.99.44,2.99,1.75,0,1.16-1.05,1.78-2.7,1.78-1.82,0-2.85-.7-2.85-2ZM271.02,450.54c1.09,0,1.92-.34,1.92-1.08,0-.86-1.16-.96-2.31-1.14-.31-.05-.6-.1-.89-.17l-.8.92c-.01.09-.01.11-.01.15,0,.9.79,1.33,2.09,1.33ZM270.89,445.61c.98,0,1.59-.65,1.59-1.53s-.64-1.56-1.58-1.56-1.62.65-1.62,1.55.63,1.55,1.61,1.55Z"></path><path class="cls-16" d="M278.65,439.32h2.52c1.99,0,2.97.93,2.97,2.5,0,1.25-.64,2.07-1.85,2.38l2.44,4.19h-.92l-2.34-4.07c-.21,0-.44,0-.65,0h-1.36v4.06h-.81v-9.06ZM281.09,443.61c1.38,0,2.24-.55,2.24-1.78s-.88-1.77-2.24-1.77h-1.64v3.56h1.64Z"></path><path class="cls-16" d="M285.65,445.18c0-1.92,1.25-3.29,3.05-3.29s3.04,1.37,3.04,3.29-1.27,3.3-3.04,3.3-3.05-1.37-3.05-3.3ZM288.7,447.78c1.37,0,2.26-1.04,2.26-2.61s-.9-2.61-2.26-2.61-2.28,1.05-2.28,2.61.9,2.61,2.28,2.61Z"></path><path class="cls-16" d="M293.19,445.18c0-1.92,1.25-3.29,3.05-3.29s3.04,1.37,3.04,3.29-1.27,3.3-3.04,3.3-3.05-1.37-3.05-3.3ZM296.24,447.78c1.37,0,2.26-1.04,2.26-2.61s-.9-2.61-2.26-2.61-2.28,1.05-2.28,2.61.9,2.61,2.28,2.61Z"></path><path class="cls-16" d="M301.03,441.98h.78v1.1c.38-.84,1.11-1.19,1.88-1.19.91,0,1.57.4,1.89,1.25.4-.83,1.09-1.25,2-1.25,1.55,0,2.13,1.16,2.13,2.68v3.82h-.78v-3.64c0-1.33-.39-2.18-1.52-2.18-1.02,0-1.65.77-1.65,2.26v3.57h-.78v-3.76c0-1.4-.52-2.07-1.5-2.07-1.03,0-1.67.79-1.67,2.26v3.57h-.78v-6.41Z"></path></g><g><path class="cls-16" d="M241.79,304.44h.81v8.33h4.18v.73h-4.99v-9.06Z"></path><path class="cls-16" d="M247.91,304.44h.94v1.39h-.94v-1.39ZM248,307.09h.77v6.41h-.77v-6.41Z"></path><path class="cls-16" d="M250.17,307.09h.86l2.1,5.42,2.11-5.42h.85l-2.61,6.41h-.68l-2.63-6.41Z"></path><path class="cls-16" d="M257.42,304.44h.94v1.39h-.94v-1.39ZM257.5,307.09h.77v6.41h-.77v-6.41Z"></path><path class="cls-16" d="M260.31,307.09h.78v1.05c.4-.76,1.12-1.14,2.01-1.14,1.38,0,2.2.81,2.2,2.51v3.99h-.78v-3.71c0-1.45-.55-2.11-1.61-2.11-1.16,0-1.83.79-1.83,2.55v3.27h-.78v-6.41Z"></path><path class="cls-16" d="M266.77,314.26s0-.1.03-.26l1.11-.88c-.57-.22-.96-.59-.96-1.26,0-.53.27-.9.72-1.2-.36-.37-.56-.87-.56-1.45,0-1.3,1.04-2.2,2.38-2.2.64,0,1.22.21,1.64.58l1.02-.86.4.49-1,.88c.19.33.3.71.3,1.14,0,1.28-.96,2.13-2.33,2.13-.53,0-.99-.12-1.37-.34-.31.18-.45.42-.45.72,0,.66.63.83,1.62.98,1.6.25,2.99.44,2.99,1.75,0,1.16-1.05,1.78-2.7,1.78-1.82,0-2.85-.7-2.85-2ZM269.63,315.65c1.09,0,1.92-.34,1.92-1.08,0-.86-1.16-.96-2.31-1.14-.31-.05-.6-.1-.89-.17l-.8.92c-.01.09-.01.11-.01.15,0,.9.79,1.33,2.09,1.33ZM269.5,310.72c.98,0,1.59-.65,1.59-1.53s-.64-1.56-1.58-1.56-1.62.65-1.62,1.55.63,1.55,1.61,1.55Z"></path><path class="cls-16" d="M277.25,304.44h2.52c1.99,0,2.97.93,2.97,2.5,0,1.25-.64,2.07-1.85,2.38l2.44,4.19h-.92l-2.34-4.07c-.21,0-.44,0-.65,0h-1.36v4.06h-.81v-9.06ZM279.69,308.72c1.38,0,2.24-.55,2.24-1.78s-.88-1.77-2.24-1.77h-1.64v3.56h1.64Z"></path><path class="cls-16" d="M284.26,310.29c0-1.92,1.25-3.29,3.05-3.29s3.04,1.36,3.04,3.29-1.27,3.3-3.04,3.3-3.05-1.36-3.05-3.3ZM287.31,312.89c1.37,0,2.26-1.04,2.26-2.61s-.9-2.61-2.26-2.61-2.28,1.05-2.28,2.61.9,2.61,2.28,2.61Z"></path><path class="cls-16" d="M291.79,310.29c0-1.92,1.25-3.29,3.05-3.29s3.04,1.36,3.04,3.29-1.27,3.3-3.04,3.3-3.05-1.36-3.05-3.3ZM294.84,312.89c1.37,0,2.26-1.04,2.26-2.61s-.9-2.61-2.26-2.61-2.28,1.05-2.28,2.61.9,2.61,2.28,2.61Z"></path><path class="cls-16" d="M299.63,307.09h.78v1.1c.38-.85,1.11-1.19,1.88-1.19.91,0,1.57.4,1.89,1.25.4-.83,1.09-1.25,2-1.25,1.55,0,2.13,1.16,2.13,2.68v3.82h-.78v-3.64c0-1.33-.39-2.18-1.52-2.18-1.02,0-1.65.77-1.65,2.26v3.57h-.78v-3.76c0-1.4-.52-2.07-1.5-2.07-1.03,0-1.67.79-1.67,2.26v3.57h-.78v-6.41Z"></path></g><g><path class="cls-16" d="M138.61,109.49h2.72c1.68,0,2.68.84,2.68,2.25,0,.94-.46,1.68-1.24,2,1.1.25,1.7,1.07,1.7,2.31,0,1.61-1.02,2.5-2.88,2.5h-2.97v-9.06ZM141.58,113.5c.98,0,1.63-.64,1.63-1.64s-.69-1.61-1.88-1.61h-1.91v3.26h2.16ZM141.53,117.81c1.42,0,2.14-.6,2.14-1.79,0-1.13-.66-1.79-1.79-1.79h-2.46v3.58h2.11Z"></path><path class="cls-16" d="M150.43,117.35c-.43.82-1.25,1.29-2.25,1.29-1.44,0-2.31-.77-2.31-1.94,0-.69.29-1.16.72-1.44.46-.31,1.09-.42,1.77-.42h2.05v-.28c0-1.19-.62-1.83-1.82-1.83-.79,0-1.4.29-1.98,1.02l-.56-.48c.68-.85,1.53-1.22,2.59-1.22,1.63,0,2.54.89,2.54,2.51v3.99h-.71l-.04-1.2ZM148.25,118c1.18,0,2.17-.93,2.17-2.2v-.36h-1.95c-.51,0-1.03.08-1.37.33-.28.21-.44.51-.44.94,0,.79.6,1.3,1.6,1.3Z"></path><path class="cls-16" d="M153.02,117.22v-7.73h.77v7.59c0,.6.23.85.64.85.17,0,.38-.04.61-.12v.67c-.29.11-.6.17-.84.17-.72,0-1.18-.44-1.18-1.42Z"></path><path class="cls-16" d="M155.98,115.35c0-1.83,1.06-3.29,2.86-3.29,1.17,0,2.09.58,2.51,1.74l-.7.27c-.27-.82-.9-1.33-1.81-1.33-1.42,0-2.09,1.25-2.09,2.61s.68,2.62,2.09,2.62c.91,0,1.53-.51,1.81-1.33l.7.27c-.42,1.16-1.34,1.75-2.51,1.75-1.8,0-2.86-1.46-2.86-3.3Z"></path><path class="cls-16" d="M162.59,115.35c0-1.92,1.25-3.29,3.05-3.29s3.04,1.36,3.04,3.29-1.27,3.3-3.04,3.3-3.05-1.36-3.05-3.3ZM165.63,117.95c1.37,0,2.26-1.04,2.26-2.61s-.9-2.61-2.26-2.61-2.28,1.05-2.28,2.61.9,2.61,2.28,2.61Z"></path><path class="cls-16" d="M170.42,112.15h.78v1.05c.4-.76,1.12-1.14,2.01-1.14,1.38,0,2.2.81,2.2,2.51v3.99h-.78v-3.71c0-1.45-.55-2.11-1.61-2.11-1.16,0-1.83.79-1.83,2.55v3.27h-.78v-6.41Z"></path><path class="cls-16" d="M179.14,118.35l-2.55-6.21h.86l2.1,5.42,2.11-5.42h.85l-3.69,9.05h-.84l1.17-2.84Z"></path></g><g><path class="cls-16" d="M159.04,652.61h2.72c1.68,0,2.68.84,2.68,2.25,0,.94-.46,1.68-1.24,2,1.1.25,1.7,1.07,1.7,2.31,0,1.61-1.02,2.5-2.88,2.5h-2.97v-9.06ZM162.01,656.62c.98,0,1.63-.64,1.63-1.64s-.69-1.61-1.88-1.61h-1.91v3.26h2.16ZM161.96,660.93c1.42,0,2.14-.6,2.14-1.79,0-1.13-.66-1.79-1.79-1.79h-2.46v3.58h2.11Z"></path><path class="cls-16" d="M170.86,660.47c-.43.82-1.25,1.29-2.25,1.29-1.44,0-2.31-.77-2.31-1.94,0-.69.29-1.16.72-1.44.46-.31,1.09-.42,1.77-.42h2.05v-.28c0-1.19-.62-1.83-1.82-1.83-.79,0-1.4.29-1.98,1.02l-.56-.48c.68-.84,1.53-1.21,2.59-1.21,1.63,0,2.54.89,2.54,2.51v3.99h-.71l-.04-1.2ZM168.68,661.12c1.18,0,2.17-.93,2.17-2.2v-.36h-1.95c-.51,0-1.03.08-1.37.32-.28.21-.44.51-.44.94,0,.79.6,1.3,1.6,1.3Z"></path><path class="cls-16" d="M173.45,660.34v-7.73h.77v7.59c0,.6.23.84.64.84.17,0,.38-.04.61-.12v.67c-.29.11-.6.17-.84.17-.72,0-1.18-.44-1.18-1.42Z"></path><path class="cls-16" d="M176.41,658.47c0-1.83,1.06-3.29,2.86-3.29,1.17,0,2.09.58,2.51,1.74l-.7.27c-.27-.82-.9-1.33-1.81-1.33-1.42,0-2.09,1.25-2.09,2.61s.68,2.62,2.09,2.62c.91,0,1.53-.51,1.81-1.33l.7.27c-.42,1.16-1.34,1.75-2.51,1.75-1.8,0-2.86-1.46-2.86-3.3Z"></path><path class="cls-16" d="M183.02,658.47c0-1.92,1.25-3.29,3.05-3.29s3.04,1.37,3.04,3.29-1.27,3.3-3.04,3.3-3.05-1.37-3.05-3.3ZM186.06,661.07c1.37,0,2.26-1.04,2.26-2.61s-.9-2.61-2.26-2.61-2.28,1.05-2.28,2.61.9,2.61,2.28,2.61Z"></path><path class="cls-16" d="M190.85,655.27h.78v1.05c.4-.76,1.12-1.14,2.01-1.14,1.38,0,2.2.81,2.2,2.51v3.99h-.78v-3.71c0-1.45-.55-2.11-1.61-2.11-1.16,0-1.83.79-1.83,2.55v3.27h-.78v-6.41Z"></path><path class="cls-16" d="M199.57,661.48l-2.55-6.21h.86l2.1,5.42,2.11-5.42h.85l-3.69,9.05h-.84l1.17-2.84Z"></path></g><g><path class="cls-16" d="M389.77,521.4h.81v4.86l4.65-4.86h1.09l-3.45,3.54,3.48,5.52h-.95l-3.11-4.93-1.71,1.75v3.17h-.81v-9.06Z"></path><path class="cls-16" d="M397.5,521.4h.94v1.39h-.94v-1.39ZM397.59,524.06h.77v6.41h-.77v-6.41Z"></path><path class="cls-16" d="M401.16,528.98v-4.31h-1.42v-.62h1.42v-1.85l.79-.46v2.31h1.54v.62h-1.54v4.12c0,.71.22,1.11.81,1.11.19,0,.46-.04.73-.12v.62c-.32.1-.64.16-.92.16-.85,0-1.4-.49-1.4-1.57Z"></path><path class="cls-16" d="M404.51,527.26c0-1.83,1.06-3.29,2.86-3.29,1.17,0,2.09.58,2.51,1.74l-.7.27c-.27-.82-.9-1.33-1.81-1.33-1.42,0-2.09,1.25-2.09,2.61s.68,2.62,2.09,2.62c.91,0,1.53-.51,1.81-1.33l.7.27c-.42,1.16-1.34,1.75-2.51,1.75-1.8,0-2.86-1.46-2.86-3.3Z"></path><path class="cls-16" d="M411.51,521.4h.78v3.69c.4-.75,1.1-1.13,2.01-1.13,1.4,0,2.2.85,2.2,2.51v3.99h-.78v-3.71c0-1.43-.53-2.11-1.61-2.11-1.18,0-1.83.83-1.83,2.55v3.27h-.78v-9.06Z"></path><path class="cls-16" d="M418.14,527.31c0-1.84.99-3.34,2.81-3.34,1.96,0,2.76,1.53,2.76,2.94,0,.1-.01.4-.04.55h-4.76c.03,1.51.84,2.39,2.14,2.39.82,0,1.35-.23,1.91-.83l.55.49c-.73.75-1.43,1.05-2.46,1.05-1.89,0-2.91-1.41-2.91-3.25ZM422.96,526.88c0-.08,0-.16,0-.24,0-.92-.58-2.01-2-2.01-1.23,0-1.98.98-2.07,2.26h4.06Z"></path><path class="cls-16" d="M425.45,524.06h.78v1.05c.4-.76,1.12-1.14,2.01-1.14,1.38,0,2.2.81,2.2,2.51v3.99h-.78v-3.71c0-1.45-.55-2.11-1.61-2.11-1.16,0-1.83.79-1.83,2.55v3.27h-.78v-6.41Z"></path></g><g><path class="cls-16" d="M417.04,90.37h.65l1.71,6.06,1.76-5.7h.63l1.76,5.7,1.7-6.06h.65l-2.01,6.98h-.63l-1.79-5.71-1.79,5.71h-.64l-2.01-6.98Z"></path><path class="cls-16" d="M427.04,90.37h.62v6.98h-.62v-6.98Z"></path><path class="cls-16" d="M429.09,93.86c0-2.16,1.26-3.58,3.16-3.58,1.35,0,2.39.71,2.84,1.89l-.58.22c-.38-.96-1.17-1.52-2.26-1.52-1.55,0-2.54,1.17-2.54,2.99s.99,3,2.54,3c1.09,0,1.89-.56,2.26-1.52l.58.22c-.45,1.18-1.49,1.9-2.84,1.9-1.89,0-3.16-1.42-3.16-3.59Z"></path></g><path class="cls-16" d="M582.69,204.1h.65l1.71,6.06,1.76-5.7h.63l1.76,5.7,1.7-6.06h.65l-2.01,6.98h-.63l-1.79-5.71-1.79,5.71h-.64l-2.01-6.98Z"></path><path class="cls-16" d="M616.8,204.1h1.87c2.26,0,3.56,1.29,3.56,3.54s-1.27,3.43-3.57,3.43h-1.86v-6.98ZM618.61,210.5c1.92,0,2.99-.89,2.99-2.88s-1.08-2.95-2.94-2.95h-1.24v5.83h1.19Z"></path><path class="cls-16" d="M465.61,385.64c0-2.17,1.27-3.59,3.16-3.59s3.18,1.42,3.18,3.59-1.27,3.58-3.18,3.58-3.16-1.42-3.16-3.58ZM468.77,388.63c1.57,0,2.55-1.16,2.55-2.99s-.99-3-2.55-3-2.54,1.15-2.54,3,.99,2.99,2.54,2.99Z"></path><path class="cls-16" d="M475.64,381.15h.48l-3.55,9.08h-.48l3.55-9.08Z"></path><path class="cls-16" d="M477.34,382.15h.93l2.35,5.66,2.35-5.66h.92v6.98h-.62v-6.16l-2.35,5.59h-.61l-2.36-5.59v6.16h-.62v-6.98Z"></path><g><path class="cls-16" d="M467.06,520.71h1.94c1.53,0,2.29.72,2.29,1.92,0,.97-.5,1.6-1.43,1.83l1.88,3.22h-.71l-1.8-3.13c-.16,0-.34,0-.5,0h-1.05v3.13h-.62v-6.98ZM468.94,524.01c1.06,0,1.73-.42,1.73-1.37s-.68-1.37-1.73-1.37h-1.26v2.74h1.26Z"></path><path class="cls-16" d="M472.92,520.71h4.56v.56h-3.94v2.59h3.53v.56h-3.53v2.7h3.94v.56h-4.56v-6.98Z"></path><path class="cls-16" d="M478.77,520.71h4.51v.56h-3.89v2.59h3.38v.56h-3.38v3.26h-.62v-6.98Z"></path></g><g><path class="cls-16" d="M387.4,399.31h.65l1.71,6.06,1.76-5.7h.63l1.76,5.7,1.7-6.06h.65l-2.01,6.98h-.63l-1.79-5.71-1.79,5.71h-.64l-2.01-6.98Z"></path><path class="cls-16" d="M397.4,399.31h4.51v.56h-3.89v2.59h3.38v.56h-3.38v3.26h-.62v-6.98Z"></path></g><g><path class="cls-16" d="M387.47,482.26h1.87c2.26,0,3.56,1.29,3.56,3.54s-1.27,3.43-3.57,3.43h-1.86v-6.98ZM389.28,488.66c1.92,0,2.99-.89,2.99-2.88s-1.08-2.95-2.94-2.95h-1.24v5.83h1.19Z"></path><path class="cls-16" d="M393.56,482.26h.65l1.71,6.06,1.76-5.7h.63l1.76,5.7,1.7-6.06h.65l-2.01,6.98h-.63l-1.79-5.71-1.79,5.71h-.64l-2.01-6.98Z"></path></g><g><path class="cls-16" d="M584.14,299.92h5.86v.73h-5.06v3.37h4.39v.73h-4.39v4.24h-.81v-9.06Z"></path><path class="cls-16" d="M590.73,305.77c0-1.92,1.25-3.29,3.05-3.29s3.04,1.36,3.04,3.29-1.27,3.3-3.04,3.3-3.05-1.36-3.05-3.3ZM593.78,308.38c1.37,0,2.26-1.04,2.26-2.61s-.9-2.61-2.26-2.61-2.28,1.05-2.28,2.61.9,2.61,2.28,2.61Z"></path><path class="cls-16" d="M600.3,308.78l-2.55-6.21h.86l2.1,5.42,2.11-5.42h.85l-3.69,9.05h-.84l1.17-2.84Z"></path><path class="cls-16" d="M604.63,305.82c0-1.84.99-3.34,2.81-3.34,1.96,0,2.76,1.53,2.76,2.94,0,.1-.01.4-.04.55h-4.76c.03,1.51.84,2.39,2.14,2.39.82,0,1.35-.23,1.91-.83l.55.49c-.73.75-1.43,1.05-2.46,1.05-1.89,0-2.91-1.41-2.91-3.25ZM609.45,305.39c0-.08,0-.16,0-.24,0-.92-.58-2.02-2-2.02-1.23,0-1.98.98-2.07,2.26h4.06Z"></path><path class="cls-16" d="M611.92,302.57h.78v1.09c.43-.78,1.31-1.18,2.02-1.18.33,0,.66.07.99.24l-.39.7c-.21-.1-.51-.17-.77-.17-.68,0-1.46.36-1.74,1.3-.08.27-.12.57-.12,1.27v3.15h-.78v-6.41Z"></path></g><g><path class="cls-20" d="M0,83.59h3.61v.45H.5v2.07h2.7v.45H.5v2.61h-.5v-5.57Z"></path><path class="cls-20" d="M4.34,83.59h.58v.86h-.58v-.86ZM4.4,85.23h.47v3.94h-.47v-3.94Z"></path><path class="cls-20" d="M6.2,85.23h.48v.64c.25-.47.69-.7,1.24-.7.85,0,1.36.5,1.36,1.54v2.45h-.48v-2.28c0-.89-.34-1.3-.99-1.3-.71,0-1.13.48-1.13,1.57v2.01h-.48v-3.94Z"></path><path class="cls-20" d="M12.78,83.59h3.64v.45h-3.15v2.07h2.82v.45h-2.82v2.16h3.15v.45h-3.64v-5.57Z"></path><path class="cls-20" d="M18.58,87.19l-1.46-1.96h.59l1.18,1.63,1.2-1.63h.58l-1.46,1.96,1.47,1.98h-.59l-1.19-1.64-1.19,1.64h-.58l1.46-1.98Z"></path><path class="cls-20" d="M22.1,88.26v-2.65h-.88v-.38h.88v-1.14l.48-.28v1.42h.95v.38h-.95v2.53c0,.44.14.68.5.68.12,0,.28-.02.45-.08v.38c-.2.06-.4.1-.57.1-.52,0-.86-.3-.86-.97Z"></path><path class="cls-20" d="M24.25,87.22c0-1.13.61-2.05,1.73-2.05,1.21,0,1.7.94,1.7,1.81,0,.06,0,.24-.02.34h-2.93c.02.93.52,1.47,1.32,1.47.5,0,.83-.14,1.18-.51l.34.3c-.45.46-.88.65-1.52.65-1.16,0-1.79-.87-1.79-2ZM27.21,86.96s0-.1,0-.15c0-.57-.36-1.24-1.23-1.24-.76,0-1.22.6-1.27,1.39h2.49Z"></path><path class="cls-20" d="M28.82,85.23h.48v.64c.25-.47.69-.7,1.24-.7.85,0,1.36.5,1.36,1.54v2.45h-.48v-2.28c0-.89-.34-1.3-.99-1.3-.71,0-1.13.48-1.13,1.57v2.01h-.48v-3.94Z"></path><path class="cls-20" d="M32.78,88.32l.34-.28c.2.46.66.77,1.26.77.57,0,.95-.27.95-.72,0-.55-.53-.68-1.1-.82-.66-.16-1.23-.38-1.23-1.06,0-.62.53-1.05,1.3-1.05.6,0,1.1.26,1.37.76l-.37.21c-.21-.38-.57-.58-1.02-.58-.48,0-.84.24-.84.62,0,.4.36.54.93.68.67.16,1.44.34,1.44,1.2,0,.71-.56,1.17-1.42,1.17-.79,0-1.35-.4-1.6-.9Z"></path><path class="cls-20" d="M36.88,83.59h.58v.86h-.58v-.86ZM36.93,85.23h.47v3.94h-.47v-3.94Z"></path><path class="cls-20" d="M38.55,87.19c0-1.18.77-2.02,1.88-2.02s1.87.84,1.87,2.02-.78,2.03-1.87,2.03-1.88-.84-1.88-2.03ZM40.43,88.8c.84,0,1.39-.64,1.39-1.6s-.55-1.6-1.39-1.6-1.4.64-1.4,1.6.56,1.6,1.4,1.6Z"></path><path class="cls-20" d="M43.45,85.23h.48v.64c.25-.47.69-.7,1.24-.7.85,0,1.36.5,1.36,1.54v2.45h-.48v-2.28c0-.89-.34-1.3-.99-1.3-.71,0-1.13.48-1.13,1.57v2.01h-.48v-3.94Z"></path><path class="cls-20" d="M47.85,85.4h.58v.86h-.58v-.86ZM47.85,88.32h.58v.85h-.58v-.85Z"></path></g><g><path class="cls-20" d="M38.47,97.43h-2.77v-.4l2.79-3.84h.46v3.79h.91v.45h-.91v1.34h-.48v-1.34ZM38.47,96.98v-3.15l-2.25,3.15h2.25Z"></path><path class="cls-20" d="M40.6,95.97c0-1.33.3-2.84,1.72-2.84s1.75,1.39,1.75,2.85-.4,2.84-1.72,2.84c-1.44,0-1.75-1.51-1.75-2.85ZM42.35,98.36c.88,0,1.23-1,1.23-2.36s-.36-2.41-1.26-2.41c-.96,0-1.23,1.1-1.23,2.39s.28,2.38,1.26,2.38Z"></path><path class="cls-20" d="M44.91,97.12l.48-.02c0,.78.58,1.27,1.48,1.27s1.44-.47,1.44-1.2c0-.9-.86-1.14-1.78-1.14v-.38c.7,0,1.48-.21,1.48-1.03,0-.6-.48-1.01-1.16-1.01-.74,0-1.19.44-1.2,1.09l-.47-.02c0-.9.7-1.52,1.68-1.52s1.62.6,1.62,1.42c0,.74-.55,1.08-1.1,1.22.67.11,1.4.5,1.4,1.39,0,.98-.78,1.66-1.93,1.66s-1.94-.68-1.94-1.71Z"></path></g><g><path class="cls-20" d="M35.89,106.84l.47-.08c.14.7.66,1.21,1.4,1.21.85,0,1.41-.68,1.41-1.48s-.52-1.38-1.34-1.38c-.51,0-.95.24-1.26.69l-.5-.15.5-2.86h2.84v.45h-2.45l-.34,1.96c.38-.39.82-.55,1.27-.55,1.04,0,1.78.82,1.78,1.83s-.81,1.94-1.91,1.94c-.94,0-1.69-.64-1.87-1.58Z"></path><path class="cls-20" d="M40.6,105.57c0-1.33.3-2.84,1.72-2.84s1.75,1.39,1.75,2.85-.4,2.84-1.72,2.84c-1.44,0-1.75-1.51-1.75-2.85ZM42.35,107.96c.88,0,1.23-1,1.23-2.36s-.36-2.41-1.26-2.41c-.96,0-1.23,1.1-1.23,2.4s.28,2.37,1.26,2.37Z"></path><path class="cls-20" d="M44.91,106.72l.48-.02c0,.78.58,1.27,1.48,1.27s1.44-.47,1.44-1.2c0-.9-.86-1.14-1.78-1.14v-.38c.7,0,1.48-.21,1.48-1.03,0-.6-.48-1.01-1.16-1.01-.74,0-1.19.44-1.2,1.09l-.47-.02c0-.9.7-1.52,1.68-1.52s1.62.6,1.62,1.42c0,.74-.55,1.08-1.1,1.22.67.11,1.4.5,1.4,1.39,0,.98-.78,1.66-1.93,1.66s-1.94-.68-1.94-1.71Z"></path></g><g><path class="cls-20" d="M166.15,747.7h3.61v.45h-3.11v2.07h2.7v.45h-2.7v2.61h-.5v-5.57Z"></path><path class="cls-20" d="M170.5,747.7h.58v.86h-.58v-.86ZM170.55,749.33h.47v3.94h-.47v-3.94Z"></path><path class="cls-20" d="M172.36,749.33h.48v.64c.25-.47.69-.7,1.24-.7.85,0,1.36.5,1.36,1.54v2.46h-.48v-2.28c0-.89-.34-1.3-.99-1.3-.71,0-1.13.48-1.13,1.57v2.01h-.48v-3.94Z"></path><path class="cls-20" d="M178.93,747.7h3.64v.45h-3.15v2.07h2.82v.45h-2.82v2.16h3.15v.45h-3.64v-5.57Z"></path><path class="cls-20" d="M184.73,751.3l-1.46-1.96h.59l1.18,1.63,1.2-1.63h.58l-1.46,1.96,1.47,1.98h-.59l-1.19-1.64-1.19,1.64h-.58l1.46-1.98Z"></path><path class="cls-20" d="M188.26,752.36v-2.65h-.88v-.38h.88v-1.14l.48-.28v1.42h.95v.38h-.95v2.54c0,.44.14.68.5.68.12,0,.28-.02.45-.08v.38c-.2.06-.4.1-.57.1-.52,0-.86-.3-.86-.97Z"></path><path class="cls-20" d="M190.4,751.33c0-1.13.61-2.05,1.73-2.05,1.21,0,1.7.94,1.7,1.81,0,.06,0,.24-.02.34h-2.93c.02.93.52,1.47,1.32,1.47.5,0,.83-.14,1.17-.51l.34.3c-.45.46-.88.65-1.51.65-1.16,0-1.79-.87-1.79-2ZM193.37,751.07s0-.1,0-.15c0-.57-.36-1.24-1.23-1.24-.75,0-1.22.6-1.27,1.39h2.49Z"></path><path class="cls-20" d="M194.97,749.33h.48v.64c.25-.47.69-.7,1.24-.7.85,0,1.36.5,1.36,1.54v2.46h-.48v-2.28c0-.89-.34-1.3-.99-1.3-.71,0-1.13.48-1.13,1.57v2.01h-.48v-3.94Z"></path><path class="cls-20" d="M198.93,752.43l.34-.28c.2.46.66.77,1.26.77.57,0,.95-.27.95-.72,0-.55-.53-.68-1.1-.82-.66-.16-1.23-.38-1.23-1.06,0-.62.53-1.05,1.29-1.05.6,0,1.1.26,1.37.76l-.37.21c-.21-.38-.57-.58-1.01-.58-.48,0-.84.24-.84.62,0,.4.36.54.93.68.67.16,1.43.34,1.43,1.2,0,.71-.56,1.17-1.42,1.17-.79,0-1.35-.4-1.6-.9Z"></path><path class="cls-20" d="M203.03,747.7h.58v.86h-.58v-.86ZM203.08,749.33h.47v3.94h-.47v-3.94Z"></path><path class="cls-20" d="M204.7,751.3c0-1.18.77-2.02,1.88-2.02s1.87.84,1.87,2.02-.78,2.03-1.87,2.03-1.88-.84-1.88-2.03ZM206.58,752.9c.84,0,1.39-.64,1.39-1.6s-.55-1.6-1.39-1.6-1.4.64-1.4,1.6.56,1.6,1.4,1.6Z"></path><path class="cls-20" d="M209.6,749.33h.48v.64c.25-.47.69-.7,1.24-.7.85,0,1.36.5,1.36,1.54v2.46h-.48v-2.28c0-.89-.34-1.3-.99-1.3-.71,0-1.13.48-1.13,1.57v2.01h-.48v-3.94Z"></path><path class="cls-20" d="M214,749.51h.58v.86h-.58v-.86ZM214,752.42h.58v.85h-.58v-.85Z"></path></g><g><path class="cls-20" d="M202.04,761.35l.47-.08c.14.7.66,1.21,1.4,1.21.85,0,1.41-.68,1.41-1.48s-.52-1.38-1.34-1.38c-.51,0-.95.24-1.26.69l-.5-.15.5-2.86h2.84v.45h-2.45l-.34,1.96c.38-.39.82-.55,1.27-.55,1.04,0,1.78.82,1.78,1.83s-.81,1.94-1.91,1.94c-.94,0-1.7-.64-1.88-1.58Z"></path><path class="cls-20" d="M206.75,760.08c0-1.33.3-2.84,1.72-2.84s1.75,1.39,1.75,2.85-.4,2.84-1.72,2.84c-1.44,0-1.75-1.51-1.75-2.85ZM208.51,762.47c.88,0,1.23-1,1.23-2.36s-.36-2.41-1.26-2.41c-.96,0-1.23,1.1-1.23,2.39s.28,2.37,1.26,2.37Z"></path><path class="cls-20" d="M211.06,761.22l.48-.02c0,.78.58,1.27,1.48,1.27s1.44-.47,1.44-1.2c0-.9-.86-1.14-1.78-1.14v-.38c.7,0,1.48-.21,1.48-1.03,0-.6-.48-1.01-1.16-1.01-.74,0-1.19.44-1.2,1.09l-.47-.02c0-.9.7-1.52,1.68-1.52s1.62.6,1.62,1.42c0,.74-.55,1.08-1.1,1.22.67.11,1.4.5,1.4,1.39,0,.98-.78,1.66-1.93,1.66s-1.94-.68-1.94-1.71Z"></path></g><g><path class="cls-20" d="M204.63,771.14h-2.77v-.4l2.79-3.84h.46v3.79h.91v.45h-.91v1.33h-.48v-1.33ZM204.63,770.69v-3.15l-2.25,3.15h2.25Z"></path><path class="cls-20" d="M206.75,769.68c0-1.33.3-2.84,1.72-2.84s1.75,1.39,1.75,2.85-.4,2.84-1.72,2.84c-1.44,0-1.75-1.51-1.75-2.85ZM208.51,772.07c.88,0,1.23-1,1.23-2.36s-.36-2.41-1.26-2.41c-.96,0-1.23,1.1-1.23,2.39s.28,2.37,1.26,2.37Z"></path><path class="cls-20" d="M211.06,770.82l.48-.02c0,.78.58,1.27,1.48,1.27s1.44-.47,1.44-1.2c0-.9-.86-1.14-1.78-1.14v-.38c.7,0,1.48-.21,1.48-1.03,0-.6-.48-1.01-1.16-1.01-.74,0-1.19.44-1.2,1.09l-.47-.02c0-.9.7-1.52,1.68-1.52s1.62.6,1.62,1.42c0,.74-.55,1.08-1.1,1.22.67.11,1.4.5,1.4,1.39,0,.98-.78,1.65-1.93,1.65s-1.94-.68-1.94-1.71Z"></path></g><polyline class="cls-1" points="55.46 95.98 73.71 95.98 95.66 75.72"></polyline><path class="cls-19" d="M98.62,72.99l-5.57,2.33s2.6.41,2.8,3.03l2.77-5.36Z"></path><polyline class="cls-1" points="220.73 760.59 238.98 760.59 244.84 736.29"></polyline><path class="cls-19" d="M245.78,732.36l-3.34,5.03s2.39-1.11,4.01.97l-.68-6Z"></path><polyline class="cls-1" points="55.46 105.57 77.54 105.57 95.67 88.7"></polyline><path class="cls-19" d="M98.62,85.95l-5.56,2.35s2.6.4,2.81,3.02l2.75-5.38Z"></path><polyline class="cls-1" points="220.3 770.17 254.38 770.17 261.02 740.91"></polyline><path class="cls-19" d="M261.91,736.97l-3.27,5.08s2.38-1.14,4.03.91l-.76-5.99Z"></path><g><path class="cls-16" d="M375.92,2.79l.86-1.09-1.34-.39.12-.36,1.3.5-.06-1.39h.37l-.05,1.39,1.3-.5.11.36-1.33.39.87,1.09-.29.22-.78-1.16-.78,1.16-.29-.22Z"></path><path class="cls-16" d="M379.77.07h1.94c1.53,0,2.29.72,2.29,1.92,0,.97-.5,1.6-1.43,1.83l1.88,3.22h-.71l-1.8-3.13c-.16,0-.34,0-.5,0h-1.05v3.13h-.62V.07ZM381.65,3.37c1.06,0,1.73-.43,1.73-1.37s-.68-1.37-1.73-1.37h-1.26v2.74h1.26Z"></path><path class="cls-16" d="M385.17,4.61c0-1.42.77-2.57,2.16-2.57,1.51,0,2.13,1.18,2.13,2.27,0,.08,0,.31-.03.43h-3.66c.03,1.16.65,1.84,1.65,1.84.63,0,1.04-.18,1.47-.64l.42.38c-.56.58-1.1.81-1.9.81-1.46,0-2.24-1.09-2.24-2.5ZM388.88,4.28c0-.06,0-.12,0-.19,0-.71-.45-1.55-1.54-1.55-.95,0-1.53.76-1.59,1.74h3.12Z"></path><path class="cls-16" d="M390.31,5.99l.42-.35c.25.57.82.97,1.58.97.72,0,1.19-.34,1.19-.9,0-.69-.66-.85-1.38-1.03-.82-.21-1.54-.47-1.54-1.33,0-.78.66-1.31,1.62-1.31.75,0,1.37.33,1.71.95l-.46.27c-.27-.48-.71-.73-1.27-.73-.6,0-1.05.3-1.05.77,0,.51.45.68,1.16.85.84.2,1.8.42,1.8,1.5,0,.89-.7,1.47-1.78,1.47-.99,0-1.69-.5-2-1.13Z"></path><path class="cls-16" d="M395.35.07h.72v1.07h-.72V.07ZM395.41,2.11h.59v4.94h-.59V2.11Z"></path><path class="cls-16" d="M397.34,4.57c0-1.51.99-2.53,2.25-2.53.81,0,1.44.42,1.77,1.05V.07h.59v6.98h-.59v-.97c-.34.65-.97,1.04-1.77,1.04-1.32,0-2.25-1.1-2.25-2.54ZM399.68,6.56c1,0,1.72-.83,1.72-1.99s-.72-1.99-1.72-1.99-1.74.84-1.74,1.99.73,1.99,1.74,1.99Z"></path><path class="cls-16" d="M403.3,4.61c0-1.42.77-2.57,2.16-2.57,1.51,0,2.13,1.18,2.13,2.27,0,.08,0,.31-.03.43h-3.66c.03,1.16.65,1.84,1.65,1.84.63,0,1.04-.18,1.47-.64l.42.38c-.56.58-1.1.81-1.9.81-1.46,0-2.24-1.09-2.24-2.5ZM407.01,4.28c0-.06,0-.12,0-.19,0-.71-.45-1.55-1.54-1.55-.95,0-1.53.76-1.59,1.74h3.12Z"></path><path class="cls-16" d="M408.92,2.11h.6v.81c.31-.59.87-.88,1.55-.88,1.06,0,1.7.63,1.7,1.93v3.07h-.6v-2.86c0-1.12-.42-1.63-1.24-1.63-.89,0-1.41.61-1.41,1.97v2.52h-.6V2.11Z"></path><path class="cls-16" d="M414.02,4.57c0-1.41.82-2.53,2.2-2.53.9,0,1.61.45,1.93,1.34l-.54.21c-.21-.63-.69-1.03-1.39-1.03-1.09,0-1.61.96-1.61,2.01s.52,2.02,1.61,2.02c.7,0,1.18-.39,1.39-1.03l.54.21c-.33.89-1.03,1.35-1.93,1.35-1.39,0-2.2-1.12-2.2-2.54Z"></path><path class="cls-16" d="M419.12,4.61c0-1.42.77-2.57,2.16-2.57,1.51,0,2.13,1.18,2.13,2.27,0,.08,0,.31-.03.43h-3.66c.03,1.16.65,1.84,1.65,1.84.63,0,1.04-.18,1.47-.64l.42.38c-.56.58-1.1.81-1.9.81-1.46,0-2.24-1.09-2.24-2.5ZM422.83,4.28c0-.06,0-.12,0-.19,0-.71-.45-1.55-1.54-1.55-.95,0-1.53.76-1.59,1.74h3.12Z"></path><path class="cls-16" d="M424.24,5.99l.42-.35c.25.57.82.97,1.58.97.72,0,1.19-.34,1.19-.9,0-.69-.66-.85-1.38-1.03-.82-.21-1.54-.47-1.54-1.33,0-.78.66-1.31,1.62-1.31.75,0,1.37.33,1.71.95l-.46.27c-.27-.48-.71-.73-1.27-.73-.6,0-1.05.3-1.05.77,0,.51.45.68,1.16.85.84.2,1.8.42,1.8,1.5,0,.89-.7,1.47-1.78,1.47-.99,0-1.69-.5-2-1.13Z"></path><path class="cls-16" d="M432.54,2.59h-1.1v-.48h1.11v-.72c0-1.02.54-1.4,1.29-1.4.33,0,.59.06.82.19l-.2.46c-.17-.09-.36-.14-.56-.14-.5,0-.75.31-.75.89v.72h1.21v.48h-1.21v4.46h-.6V2.59Z"></path><path class="cls-16" d="M434.85,4.61c0-1.42.77-2.57,2.16-2.57,1.51,0,2.13,1.18,2.13,2.27,0,.08,0,.31-.03.43h-3.66c.03,1.16.65,1.84,1.65,1.84.63,0,1.04-.18,1.47-.64l.42.38c-.56.58-1.1.81-1.9.81-1.46,0-2.24-1.09-2.24-2.5ZM438.56,4.28c0-.06,0-.12,0-.19,0-.71-.45-1.55-1.54-1.55-.95,0-1.53.76-1.59,1.74h3.12Z"></path><path class="cls-16" d="M443.65,6.12c-.33.63-.97,1-1.73,1-1.11,0-1.78-.6-1.78-1.5,0-.53.22-.89.56-1.11.36-.24.84-.32,1.36-.32h1.58v-.21c0-.92-.48-1.41-1.4-1.41-.61,0-1.08.23-1.52.79l-.43-.37c.52-.65,1.18-.94,1.99-.94,1.26,0,1.95.69,1.95,1.93v3.07h-.55l-.03-.93ZM441.98,6.62c.91,0,1.67-.72,1.67-1.69v-.28h-1.5c-.4,0-.79.06-1.06.25-.21.16-.34.39-.34.72,0,.61.46,1,1.23,1Z"></path><path class="cls-16" d="M446.25,5.91v-3.32h-1.1v-.48h1.1V.69l.61-.35v1.78h1.19v.48h-1.19v3.17c0,.55.17.86.62.86.15,0,.35-.03.57-.1v.48c-.25.08-.5.12-.71.12-.66,0-1.08-.38-1.08-1.21Z"></path><path class="cls-16" d="M449.09,5.18v-3.07h.59v2.86c0,1.11.43,1.62,1.25,1.62.89,0,1.41-.61,1.41-1.97v-2.51h.6v4.94h-.6v-.81c-.32.59-.88.88-1.56.88-1.05,0-1.69-.64-1.69-1.94Z"></path><path class="cls-16" d="M454.49,2.11h.6v.84c.33-.6,1.01-.91,1.56-.91.26,0,.51.06.77.19l-.3.54c-.17-.08-.39-.13-.59-.13-.53,0-1.12.28-1.34,1-.06.21-.09.44-.09.98v2.43h-.6V2.11Z"></path><path class="cls-16" d="M457.88,4.61c0-1.42.77-2.57,2.16-2.57,1.51,0,2.13,1.18,2.13,2.27,0,.08,0,.31-.03.43h-3.66c.03,1.16.65,1.84,1.65,1.84.63,0,1.04-.18,1.47-.64l.42.38c-.56.58-1.1.81-1.9.81-1.46,0-2.24-1.09-2.24-2.5ZM461.59,4.28c0-.06,0-.12,0-.19,0-.71-.45-1.55-1.54-1.55-.95,0-1.53.76-1.59,1.74h3.12Z"></path><path class="cls-16" d="M469.38,6.12c-.33.63-.97,1-1.73,1-1.11,0-1.78-.6-1.78-1.5,0-.53.22-.89.56-1.11.36-.24.84-.32,1.36-.32h1.58v-.21c0-.92-.48-1.41-1.4-1.41-.61,0-1.08.23-1.52.79l-.43-.37c.52-.65,1.18-.94,1.99-.94,1.26,0,1.95.69,1.95,1.93v3.07h-.55l-.03-.93ZM467.7,6.62c.91,0,1.67-.72,1.67-1.69v-.28h-1.5c-.4,0-.79.06-1.06.25-.21.16-.34.39-.34.72,0,.61.46,1,1.23,1Z"></path><path class="cls-16" d="M471.47,2.11h.6v.81c.31-.59.87-.88,1.55-.88,1.06,0,1.7.63,1.7,1.93v3.07h-.6v-2.86c0-1.12-.42-1.63-1.24-1.63-.89,0-1.41.61-1.41,1.97v2.52h-.6V2.11Z"></path><path class="cls-16" d="M482.7,6.12c-.33.63-.97,1-1.73,1-1.11,0-1.78-.6-1.78-1.5,0-.53.22-.89.56-1.11.36-.24.84-.32,1.36-.32h1.58v-.21c0-.92-.48-1.41-1.4-1.41-.61,0-1.08.23-1.52.79l-.43-.37c.52-.65,1.18-.94,1.99-.94,1.26,0,1.95.69,1.95,1.93v3.07h-.55l-.03-.93ZM481.02,6.62c.91,0,1.67-.72,1.67-1.69v-.28h-1.5c-.4,0-.79.06-1.06.25-.21.16-.34.39-.34.72,0,.61.46,1,1.23,1Z"></path><path class="cls-16" d="M484.54,4.57c0-1.41.82-2.53,2.2-2.53.9,0,1.61.45,1.93,1.34l-.54.21c-.21-.63-.69-1.03-1.39-1.03-1.09,0-1.61.96-1.61,2.01s.52,2.02,1.61,2.02c.7,0,1.18-.39,1.39-1.03l.54.21c-.33.89-1.03,1.35-1.93,1.35-1.39,0-2.2-1.12-2.2-2.54Z"></path><path class="cls-16" d="M489.62,4.57c0-1.41.82-2.53,2.2-2.53.9,0,1.61.45,1.93,1.34l-.54.21c-.21-.63-.69-1.03-1.39-1.03-1.09,0-1.61.96-1.61,2.01s.52,2.02,1.61,2.02c.7,0,1.18-.39,1.39-1.03l.54.21c-.33.89-1.03,1.35-1.93,1.35-1.39,0-2.2-1.12-2.2-2.54Z"></path><path class="cls-16" d="M494.72,4.61c0-1.42.77-2.57,2.16-2.57,1.51,0,2.13,1.18,2.13,2.27,0,.08,0,.31-.03.43h-3.66c.03,1.16.65,1.84,1.65,1.84.63,0,1.04-.18,1.47-.64l.42.38c-.56.58-1.1.81-1.9.81-1.46,0-2.24-1.09-2.24-2.5ZM498.43,4.28c0-.06,0-.12,0-.19,0-.71-.45-1.55-1.54-1.55-.95,0-1.53.76-1.59,1.74h3.12Z"></path><path class="cls-16" d="M499.85,5.99l.42-.35c.25.57.82.97,1.58.97.72,0,1.19-.34,1.19-.9,0-.69-.66-.85-1.38-1.03-.82-.21-1.54-.47-1.54-1.33,0-.78.66-1.31,1.62-1.31.75,0,1.37.33,1.71.95l-.46.27c-.27-.48-.71-.73-1.27-.73-.6,0-1.05.3-1.05.77,0,.51.45.68,1.16.85.84.2,1.8.42,1.8,1.5,0,.89-.7,1.47-1.78,1.47-.99,0-1.69-.5-2-1.13Z"></path><path class="cls-16" d="M504.52,5.99l.42-.35c.25.57.82.97,1.58.97.72,0,1.19-.34,1.19-.9,0-.69-.66-.85-1.38-1.03-.82-.21-1.54-.47-1.54-1.33,0-.78.66-1.31,1.62-1.31.75,0,1.37.33,1.71.95l-.46.27c-.27-.48-.71-.73-1.27-.73-.6,0-1.05.3-1.05.77,0,.51.45.68,1.16.85.84.2,1.8.42,1.8,1.5,0,.89-.7,1.47-1.78,1.47-.99,0-1.69-.5-2-1.13Z"></path><path class="cls-16" d="M509.56.07h.72v1.07h-.72V.07ZM509.62,2.11h.59v4.94h-.59V2.11Z"></path><path class="cls-16" d="M512.38,6.08v.97h-.59V.07h.59v3.02c.33-.63.96-1.05,1.77-1.05,1.26,0,2.25,1.02,2.25,2.53s-.93,2.54-2.25,2.54c-.8,0-1.43-.39-1.77-1.04ZM514.05,6.56c1.01,0,1.74-.84,1.74-1.99s-.73-1.99-1.74-1.99-1.72.83-1.72,1.99.72,1.99,1.72,1.99Z"></path><path class="cls-16" d="M517.62,6.02V.07h.6v5.84c0,.46.18.65.49.65.13,0,.3-.03.47-.09v.52c-.22.08-.47.13-.65.13-.56,0-.91-.33-.91-1.1Z"></path><path class="cls-16" d="M519.92,4.61c0-1.42.77-2.57,2.16-2.57,1.51,0,2.13,1.18,2.13,2.27,0,.08,0,.31-.03.43h-3.66c.03,1.16.65,1.84,1.65,1.84.63,0,1.04-.18,1.47-.64l.42.38c-.56.58-1.1.81-1.9.81-1.46,0-2.24-1.09-2.24-2.5ZM523.63,4.28c0-.06,0-.12,0-.19,0-.71-.45-1.55-1.54-1.55-.95,0-1.53.76-1.59,1.74h3.12Z"></path><path class="cls-16" d="M528.12,6.02V.07h.6v5.84c0,.46.18.65.49.65.13,0,.3-.03.47-.09v.52c-.22.08-.47.13-.65.13-.56,0-.91-.33-.91-1.1Z"></path><path class="cls-16" d="M534.06,6.12c-.33.63-.97,1-1.73,1-1.11,0-1.78-.6-1.78-1.5,0-.53.22-.89.56-1.11.36-.24.84-.32,1.36-.32h1.58v-.21c0-.92-.48-1.41-1.4-1.41-.61,0-1.08.23-1.52.79l-.43-.37c.52-.65,1.18-.94,1.99-.94,1.26,0,1.95.69,1.95,1.93v3.07h-.55l-.03-.93ZM532.38,6.62c.91,0,1.67-.72,1.67-1.69v-.28h-1.5c-.4,0-.79.06-1.06.25-.21.16-.34.39-.34.72,0,.61.46,1,1.23,1Z"></path><path class="cls-16" d="M537.49,6.89l-1.96-4.78h.66l1.62,4.17,1.62-4.17h.66l-2.84,6.97h-.65l.9-2.19Z"></path><path class="cls-16" d="M540.81,4.57c0-1.48.97-2.53,2.35-2.53s2.34,1.05,2.34,2.53-.98,2.54-2.34,2.54-2.35-1.05-2.35-2.54ZM543.15,6.58c1.05,0,1.74-.8,1.74-2.01s-.69-2.01-1.74-2.01-1.75.81-1.75,2.01.7,2.01,1.75,2.01Z"></path><path class="cls-16" d="M546.74,5.18v-3.07h.59v2.86c0,1.11.43,1.62,1.25,1.62.89,0,1.41-.61,1.41-1.97v-2.51h.6v4.94h-.6v-.81c-.32.59-.88.88-1.56.88-1.05,0-1.69-.64-1.69-1.94Z"></path><path class="cls-16" d="M552.66,5.91v-3.32h-1.1v-.48h1.1V.69l.61-.35v1.78h1.19v.48h-1.19v3.17c0,.55.17.86.62.86.15,0,.35-.03.57-.1v.48c-.25.08-.5.12-.71.12-.66,0-1.08-.38-1.08-1.21Z"></path></g></g></g></svg> 