<?xml version="1.0" encoding="UTF-8"?> <svg xmlns="http://www.w3.org/2000/svg" id="Layer_2" data-name="Layer 2" viewBox="0 0 360.07 574.87"><defs><style> .cls-1 { stroke-dasharray: 5.37 5.37; } .cls-1, .cls-2, .cls-3, .cls-4, .cls-5, .cls-6, .cls-7, .cls-8, .cls-9, .cls-10, .cls-11, .cls-12, .cls-13, .cls-14, .cls-15, .cls-16, .cls-17, .cls-18, .cls-19, .cls-20, .cls-21, .cls-22, .cls-23, .cls-24, .cls-25 { fill: none; } .cls-1, .cls-2, .cls-4, .cls-5, .cls-6, .cls-7, .cls-8, .cls-9, .cls-10, .cls-11, .cls-12, .cls-13, .cls-14, .cls-15, .cls-16, .cls-17, .cls-18, .cls-21, .cls-22, .cls-23, .cls-24, .cls-25 { stroke-linecap: round; stroke-linejoin: round; } .cls-1, .cls-3, .cls-6, .cls-11, .cls-12, .cls-13, .cls-16, .cls-18, .cls-20, .cls-23 { stroke-width: .25px; } .cls-1, .cls-6, .cls-11, .cls-12, .cls-13, .cls-16, .cls-18 { stroke: #75655e; } .cls-2 { stroke-dasharray: 1.02 1.02; } .cls-2, .cls-4, .cls-5, .cls-7, .cls-8, .cls-9, .cls-10, .cls-15, .cls-17, .cls-21, .cls-22, .cls-24 { stroke: #55453d; stroke-width: .15px; } .cls-3 { stroke: #afa49f; } .cls-3, .cls-19, .cls-20 { stroke-miterlimit: 10; } .cls-26 { fill: #3a2a22; } .cls-4 { stroke-dasharray: .89 .89; } .cls-5 { stroke-dasharray: 1.21 1.21; } .cls-6 { stroke-dasharray: 2.83 2.83; } .cls-8 { stroke-dasharray: 1.02 1.02; } .cls-9 { stroke-dasharray: 1.01 1.01; } .cls-27 { fill: #fff; } .cls-10 { stroke-dasharray: 1.02 1.02; } .cls-11 { stroke-dasharray: 1.42 1.42; } .cls-12 { stroke-dasharray: 3.6 3.6; } .cls-13 { stroke-dasharray: 5.08 5.08; } .cls-14, .cls-19 { stroke-width: .75px; } .cls-14, .cls-19, .cls-23, .cls-25 { stroke: #3a2a22; } .cls-15 { stroke-dasharray: .85 .85; } .cls-28 { fill: #bc8ebc; } .cls-17 { stroke-dasharray: 1.02 1.02; } .cls-18 { stroke-dasharray: 4.89 4.89; } .cls-20 { stroke: #bc8ebc; } .cls-21 { stroke-dasharray: 1.01 1.01; } .cls-29 { fill: #afa49f; } .cls-22 { stroke-dasharray: 1.02 1.02; } .cls-24 { stroke-dasharray: .72 .72; } .cls-25 { stroke-width: .35px; } .cls-30 { fill: #75655e; } </style></defs><g id="Layer_1-2" data-name="Layer 1"><g><polygon class="cls-27" points=".38 469.67 16.01 471.68 54.08 476.21 92.15 480.37 130.31 484.25 168.47 487.76 206.73 490.9 206.73 482.77 211.99 483.14 211.99 483.15 247.38 485.73 288.13 488.22 328.88 490.44 359.94 491.78 359.94 486.05 359.94 1.9 240.61 1.9 240.61 20.38 139.07 20.38 139.07 71.2 .38 71.2 .38 469.67"></polygon><line class="cls-7" x1="219.48" y1="483.69" x2="219.44" y2="484.19"></line><line class="cls-17" x1="219.36" y1="485.21" x2="218.91" y2="490.82"></line><polyline class="cls-7" points="218.87 491.33 218.83 491.82 219.33 491.86"></polyline><line class="cls-15" x1="220.18" y1="491.92" x2="224.84" y2="492.23"></line><line class="cls-7" x1="225.26" y1="492.25" x2="225.76" y2="492.29"></line><line class="cls-7" x1="226.31" y1="484.25" x2="226.28" y2="484.75"></line><line class="cls-9" x1="226.21" y1="485.75" x2="225.83" y2="491.29"></line><polyline class="cls-7" points="225.79 491.79 225.76 492.29 226.26 492.33"></polyline><line class="cls-8" x1="227.28" y1="492.4" x2="230.85" y2="492.67"></line><line class="cls-7" x1="231.36" y1="492.71" x2="231.86" y2="492.75"></line><line class="cls-7" x1="232.41" y1="484.71" x2="232.38" y2="485.21"></line><line class="cls-9" x1="232.31" y1="486.22" x2="231.93" y2="491.75"></line><polyline class="cls-7" points="231.89 492.25 231.86 492.75 232.36 492.78"></polyline><line class="cls-4" x1="233.25" y1="492.84" x2="236.37" y2="493.05"></line><line class="cls-7" x1="236.81" y1="493.09" x2="237.31" y2="493.12"></line><line class="cls-7" x1="237.86" y1="485.08" x2="237.83" y2="485.58"></line><line class="cls-9" x1="237.76" y1="486.58" x2="237.38" y2="492.12"></line><polyline class="cls-7" points="237.34 492.62 237.31 493.12 237.81 493.15"></polyline><line class="cls-5" x1="239.02" y1="493.22" x2="240.83" y2="493.33"></line><line class="cls-7" x1="241.43" y1="493.37" x2="241.93" y2="493.4"></line><line class="cls-7" x1="242.48" y1="485.36" x2="242.45" y2="485.86"></line><line class="cls-9" x1="242.38" y1="486.86" x2="242" y2="492.39"></line><polyline class="cls-7" points="241.96 492.9 241.93 493.4 242.43 493.43"></polyline><line class="cls-2" x1="243.45" y1="493.5" x2="244.98" y2="493.6"></line><line class="cls-7" x1="245.5" y1="493.64" x2="245.99" y2="493.67"></line><line class="cls-7" x1="246.55" y1="485.63" x2="246.52" y2="486.13"></line><line class="cls-9" x1="246.45" y1="487.14" x2="246.06" y2="492.67"></line><polyline class="cls-7" points="246.03 493.17 246 493.67 246.49 493.72"></polyline><line class="cls-24" x1="247.21" y1="493.78" x2="248.28" y2="493.88"></line><line class="cls-7" x1="248.64" y1="493.91" x2="249.14" y2="493.95"></line><line class="cls-7" x1="249.69" y1="485.82" x2="249.66" y2="486.32"></line><line class="cls-10" x1="249.59" y1="487.34" x2="249.21" y2="492.94"></line><line class="cls-7" x1="249.17" y1="493.45" x2="249.14" y2="493.95"></line><line class="cls-7" x1="206.72" y1="490.9" x2="207.22" y2="490.94"></line><line class="cls-21" x1="208.23" y1="491.02" x2="217.83" y2="491.75"></line><line class="cls-7" x1="218.33" y1="491.79" x2="218.83" y2="491.83"></line><line class="cls-7" x1="211.99" y1="483.14" x2="211.95" y2="483.64"></line><line class="cls-22" x1="211.87" y1="484.65" x2="211.41" y2="490.25"></line><line class="cls-7" x1="211.37" y1="490.75" x2="211.33" y2="491.25"></line><polyline class="cls-25" points="206.72 477.06 247.38 480.01 288.13 482.6 328.88 484.73 350 485.64"></polyline><polyline class="cls-25" points="206.72 474.95 247.38 477.9 288.13 480.49 328.88 482.62 349.94 483.52"></polyline><g><path class="cls-7" d="M248.3,402.21c0,23.13-18.61,39.35-41.58,39.35"></path><path class="cls-7" d="M226.47,76.58c-25.52,0-43.4-20.68-43.4-46.2"></path><path class="cls-7" d="M240.17,224.34c0,23.13-18.62,39.35-41.58,39.35"></path><path class="cls-7" d="M289.88,58.02c0,23.13-18.61,39.35-41.58,39.35"></path></g><line class="cls-7" x1="183.07" y1="20.38" x2="229.27" y2="20.38"></line><line class="cls-7" x1="226.47" y1="30.38" x2="183.07" y2="30.38"></line><rect class="cls-25" x="206.72" y="399.98" width="41.58" height="2.23"></rect><rect class="cls-25" x="226.47" y="30.38" width="2.8" height="46.2"></rect><rect class="cls-25" x="192.87" y="164.36" width="2.69" height="41.58"></rect><rect class="cls-25" x="203.21" y="119.27" width="34.65" height="2.69"></rect><rect class="cls-25" x="198.59" y="222.11" width="41.58" height="2.23"></rect><rect class="cls-25" x="248.31" y="55.79" width="41.58" height="2.23"></rect><rect class="cls-25" x="253.2" y="211.48" width="41.58" height="2.23"></rect><polyline class="cls-16" points="12.43 145.21 12.43 145.96 13.18 145.96"></polyline><line class="cls-11" x1="14.6" y1="145.96" x2="36.63" y2="145.96"></line><polyline class="cls-16" points="37.34 145.96 38.09 145.96 38.09 145.21"></polyline><line class="cls-11" x1="38.09" y1="143.79" x2="38.09" y2="121.76"></line><polyline class="cls-16" points="38.09 121.05 38.09 120.3 37.34 120.3"></polyline><line class="cls-11" x1="35.92" y1="120.3" x2="13.89" y2="120.3"></line><polyline class="cls-16" points="13.18 120.3 12.43 120.3 12.43 121.05"></polyline><line class="cls-11" x1="12.43" y1="122.47" x2="12.43" y2="144.5"></line><polyline class="cls-16" points="12.43 211.17 12.43 211.92 13.18 211.92"></polyline><line class="cls-11" x1="14.6" y1="211.92" x2="36.63" y2="211.92"></line><polyline class="cls-16" points="37.34 211.92 38.09 211.92 38.09 211.17"></polyline><line class="cls-11" x1="38.09" y1="209.75" x2="38.09" y2="187.72"></line><polyline class="cls-16" points="38.09 187.01 38.09 186.26 37.34 186.26"></polyline><line class="cls-11" x1="35.92" y1="186.26" x2="13.89" y2="186.26"></line><polyline class="cls-16" points="13.18 186.26 12.43 186.26 12.43 187.01"></polyline><line class="cls-11" x1="12.43" y1="188.43" x2="12.43" y2="210.46"></line><line class="cls-16" x1="107.01" y1="97.01" x2="104.51" y2="97.01"></line><polyline class="cls-16" points="98.53 97.01 96.03 97.01 96.03 94.51"></polyline><line class="cls-12" x1="96.03" y1="90.91" x2="96.03" y2="85.5"></line><line class="cls-16" x1="96.03" y1="83.7" x2="96.03" y2="81.2"></line><line class="cls-16" x1="26.19" y1="214.49" x2="26.19" y2="211.99"></line><line class="cls-18" x1="26.19" y1="207.1" x2="26.19" y2="101.96"></line><polyline class="cls-16" points="26.19 99.51 26.19 97.01 28.69 97.01"></polyline><line class="cls-6" x1="31.51" y1="97.01" x2="35.76" y2="97.01"></line><polyline class="cls-16" points="37.17 97.01 39.67 97.01 39.67 94.51"></polyline><line class="cls-12" x1="39.67" y1="90.91" x2="39.67" y2="85.5"></line><line class="cls-16" x1="39.67" y1="83.7" x2="39.67" y2="81.2"></line><line class="cls-16" x1="88.12" y1="81.2" x2="88.12" y2="83.7"></line><line class="cls-1" x1="88.12" y1="89.07" x2="88.12" y2="97.12"></line><polyline class="cls-16" points="88.12 99.8 88.12 102.3 85.62 102.3"></polyline><line class="cls-13" x1="80.54" y1="102.3" x2="52.62" y2="102.3"></line><polyline class="cls-16" points="50.08 102.3 47.58 102.3 47.58 99.8"></polyline><line class="cls-1" x1="47.58" y1="94.44" x2="47.58" y2="86.38"></line><line class="cls-16" x1="47.58" y1="83.7" x2="47.58" y2="81.2"></line><line class="cls-25" x1="38.09" y1="108.92" x2="143.15" y2="108.92"></line><line class="cls-25" x1="107.01" y1="108.92" x2="107" y2="81.2"></line><line class="cls-25" x1="107.01" y1="106.42" x2="143.15" y2="106.42"></line><g><rect class="cls-25" x="12.1" y="165.87" width="7.83" height="1.59" rx=".54" ry=".54"></rect><circle class="cls-25" cx="26.14" cy="166.67" r=".82"></circle></g><polyline class="cls-25" points="13.3 165.87 13.3 163.66 14.72 163.66 14.72 165.87"></polyline><line class="cls-25" x1="14.72" y1="164.45" x2="13.3" y2="164.45"></line><polyline class="cls-25" points="15.72 165.87 15.72 154.86 35.61 154.86 35.61 178.48 15.72 178.48 15.72 167.46"></polyline><polyline class="cls-25" points="16.71 167.46 16.71 177.5 34.62 177.5 34.62 155.84 16.71 155.84 16.71 165.87"></polyline><line class="cls-25" x1="38.1" y1="108.92" x2="38.09" y2="275.24"></line><line class="cls-25" x1="38.1" y1="233.09" x2="10.37" y2="233.09"></line><line class="cls-25" x1="38.1" y1="214.49" x2="10.37" y2="214.49"></line><line class="cls-25" x1="35.6" y1="233.09" x2="35.6" y2="275.24"></line><line class="cls-25" x1="35.6" y1="214.49" x2="35.6" y2="233.09"></line><rect class="cls-25" x="201.52" y="169.8" width="38.03" height="30.61"></rect><line class="cls-25" x1="255.61" y1="35.31" x2="255.61" y2="32.1"></line><g><path class="cls-25" d="M255.61,31.24v-11.6c0-1.38,1.12-2.5,2.5-2.5h61.83c1.38.01,2.5,1.13,2.5,2.51v24.04c0,1.38-1.12,2.5-2.5,2.5h-61.83c-1.38-.01-2.5-1.13-2.5-2.51v-8.37"></path><path class="cls-25" d="M251.58,32.1h10.86c.24,0,.43-.19.43-.43s-.19-.43-.43-.43h-10.81"></path><path class="cls-25" d="M261.36,31.24c.17-.46.61-.79,1.14-.79.67,0,1.21.54,1.21,1.21s-.54,1.21-1.21,1.21c-.51,0-.95-.32-1.13-.77"></path><path class="cls-25" d="M257.33,31.24c.22-2.66,2.45-4.76,5.17-4.76,2.86,0,5.18,2.32,5.18,5.18,0,2.86-2.32,5.18-5.18,5.18-2.71,0-4.94-2.09-5.16-4.74"></path></g><rect class="cls-25" x="250.62" y="29.12" width=".97" height="5.08"></rect><line class="cls-25" x1="250.61" y1="49.89" x2="326.84" y2="49.9"></line><line class="cls-25" x1="250.61" y1="51.17" x2="326.8" y2="51.18"></line><line class="cls-25" x1="255.3" y1="51.17" x2="255.3" y2="49.89"></line><line class="cls-25" x1="293.3" y1="51.18" x2="293.3" y2="49.89"></line><g><path class="cls-25" d="M334.32,62.81h5.29c.6,0,1.08.48,1.08,1.08v15.44c0,.6-.48,1.08-1.08,1.08h-5.29c-.6,0-1.08-.48-1.08-1.08v-15.44c0-.6.48-1.08,1.08-1.08Z"></path><path class="cls-25" d="M329.1,67.15c0-.28-.11-.54-.32-.73-2.09-1.88-5.3-3.09-8.9-3.09-6.31,0-11.42,3.71-11.42,8.28s5.11,8.28,11.42,8.28c3.6,0,6.8-1.2,8.9-3.08.21-.19.32-.46.32-.73v-8.92Z"></path></g><line class="cls-25" x1="319.88" y1="63.34" x2="333.4" y2="63.34"></line><line class="cls-25" x1="319.88" y1="79.89" x2="333.4" y2="79.89"></line><polyline class="cls-25" points="340.7 92.29 315.68 92.29 315.68 136.71"></polyline><path class="cls-25" d="M332.63,110.29v9.87c0,.4-.32.72-.72.72h-10.9c-.4,0-.72-.32-.72-.72v-20.82c0-.4.32-.72.72-.72h10.9c.4,0,.72.32.72.72v9.48"></path><rect class="cls-25" x="330.2" y="108.82" width="5.89" height="1.47"></rect><circle class="cls-25" cx="326.46" cy="109.56" r=".84"></circle><rect class="cls-25" x="49.36" y="83.36" width="36.98" height="24.28"></rect><rect class="cls-25" x="50.44" y="84.44" width="34.82" height="22.12"></rect><path class="cls-25" d="M67.85,105.81c-.71,0-1.28-.57-1.28-1.28s.57-1.28,1.28-1.28,1.28.57,1.28,1.28c0,.71-.57,1.28-1.28,1.28Z"></path><line class="cls-25" x1="50.44" y1="106.56" x2="49.36" y2="107.64"></line><line class="cls-25" x1="85.25" y1="106.55" x2="86.33" y2="107.63"></line><line class="cls-25" x1="85.25" y1="84.44" x2="86.33" y2="83.36"></line><line class="cls-25" x1="50.44" y1="84.44" x2="49.36" y2="83.36"></line><polygon class="cls-25" points="68.9 104.52 67.85 103.47 66.79 104.52 67.85 105.58 68.9 104.52"></polygon><line class="cls-25" x1="67.84" y1="103.47" x2="67.84" y2="105.58"></line><g><path class="cls-23" d="M225.58,138.32c.03,1.51.06,3.03.13,4.57.04.8.09,1.6.13,2.35.03.57.07,1.11.16,1.78.09.65.25,1.42-.23,1.73-.11.07-.25.12-.38.13-.77.06-.9-1.18-.97-2.24-.15-2.35.04-3.74.16-5.44.06-.9.1-1.9.14-2.89-.04-.99-.08-1.98-.14-2.89-.11-1.7-.3-3.09-.16-5.44.07-1.05.2-2.3.97-2.24.13.01.27.06.38.13.48.3.32,1.08.23,1.73-.1.67-.13,1.21-.16,1.78-.04.75-.09,1.56-.13,2.36-.07,1.54-.1,3.06-.13,4.57Z"></path><path class="cls-23" d="M220.88,138.32c.03,1.51.06,3.03.13,4.57.04.8.09,1.6.13,2.35.03.57.07,1.11.16,1.78.09.65.25,1.42-.23,1.73-.11.07-.25.12-.38.13-.77.06-.9-1.18-.97-2.24-.15-2.35.04-3.74.16-5.44.06-.9.1-1.9.14-2.89-.04-.99-.08-1.98-.14-2.89-.11-1.7-.3-3.09-.16-5.44.07-1.05.2-2.3.97-2.24.13.01.27.06.38.13.48.3.32,1.08.23,1.73-.1.67-.13,1.21-.16,1.78-.04.75-.09,1.56-.13,2.36-.07,1.54-.1,3.06-.13,4.57Z"></path><path class="cls-23" d="M216.19,138.32c.03,1.51.06,3.03.13,4.57.04.8.09,1.6.13,2.35.03.57.07,1.11.16,1.78.09.65.25,1.42-.23,1.73-.11.07-.25.12-.38.13-.77.06-.9-1.18-.97-2.24-.15-2.35.04-3.74.16-5.44.06-.9.1-1.9.14-2.89-.04-.99-.08-1.98-.14-2.89-.11-1.7-.3-3.09-.16-5.44.07-1.05.2-2.3.97-2.24.13.01.27.06.38.13.48.3.32,1.08.23,1.73-.1.67-.13,1.21-.16,1.78-.04.75-.09,1.56-.13,2.36-.07,1.54-.1,3.06-.13,4.57Z"></path></g><line class="cls-23" x1="198.59" y1="138.32" x2="242.48" y2="138.32"></line><polyline class="cls-23" points="198.59 443.87 198.59 482.12 158.21 478.7 117.84 474.92 77.55 470.67 37.26 466.05 32.18 465.49"></polyline><line class="cls-23" x1="323.38" y1="389.63" x2="206.72" y2="389.63"></line><polyline class="cls-23" points="206.72 482.77 247.38 485.73 288.13 488.22 328.88 490.44 359.94 491.78 359.94 486.05"></polyline><line class="cls-23" x1=".38" y1="467.31" x2=".38" y2="461.58"></line><rect class="cls-14" x="206.72" y="395.36" width="143.22" height="2.31"></rect><polygon class="cls-14" points=".38 467.31 15.83 469.28 53.43 473.81 91.13 477.97 128.83 481.75 166.62 485.26 204.41 488.41 204.41 443.87 206.73 443.87 206.73 490.9 168.47 487.76 130.31 484.25 92.15 480.37 54.08 476.21 16.01 471.68 .38 469.67 .38 467.31"></polygon><polyline class="cls-14" points="170.97 479.81 170.5 485.54 168.19 485.36 168.66 479.63 170.97 479.81"></polyline><polyline class="cls-14" points="102.13 473.35 101.48 479.07 99.17 478.8 99.82 473.07 102.13 473.35"></polyline><polygon class="cls-14" points="33.38 465.62 32.64 471.3 30.35 471.03 31.07 465.35 33.38 465.62"></polygon><rect class="cls-14" x="322.22" y="389.63" width="2.31" height="5.73"></rect><rect class="cls-14" x="252.92" y="389.63" width="2.31" height="5.73"></rect><rect class="cls-14" x="205.52" y="389.63" width="2.31" height="5.73"></rect><rect class="cls-14" x="198.59" y="395.36" width="8.13" height="4.62"></rect><polyline class="cls-14" points="198.59 480.37 198.59 482.12 196.93 482.03 198.04 483.14 202.75 488.22 204.41 488.41 204.41 486.65 198.59 480.37"></polyline><rect class="cls-14" x="347.63" y="389.63" width="2.31" height="5.73"></rect><rect class="cls-14" x="198.59" y="441.56" width="8.13" height="2.31"></rect><polygon class="cls-26" points="183.07 30.38 149.07 30.38 149.07 108.92 143.15 108.92 143.15 81.2 10.37 81.2 10.37 275.24 38.09 275.24 38.09 284.48 10.37 284.48 10.37 456.99 32.92 459.76 32.18 465.49 .38 461.58 .38 71.2 139.07 71.2 139.07 20.38 183.07 20.38 183.07 30.38"></polygon><polygon class="cls-19" points="183.07 30.38 149.07 30.38 149.07 108.92 143.15 108.92 143.15 81.2 10.37 81.2 10.37 275.24 38.09 275.24 38.09 284.48 10.37 284.48 10.37 456.99 32.92 459.76 32.18 465.49 .38 461.58 .38 71.2 139.07 71.2 139.07 20.38 183.07 20.38 183.07 30.38"></polygon><polygon class="cls-26" points="198.64 263.69 192.86 263.69 192.86 397.67 198.59 397.67 198.59 389.63 206.72 389.63 206.72 383.81 198.59 383.81 198.64 263.69"></polygon><polygon class="cls-19" points="198.64 263.69 192.86 263.69 192.86 397.67 198.59 397.67 198.59 389.63 206.72 389.63 206.72 383.81 198.59 383.81 198.64 263.69"></polygon><polygon class="cls-26" points="248.3 142.37 248.3 211.67 252.92 211.67 252.92 217.49 198.59 217.49 198.59 222.11 192.86 222.11 192.86 205.94 198.59 205.94 198.59 209.36 242.48 209.36 242.48 160.85 198.59 160.85 198.59 164.36 192.86 164.36 192.86 119.27 203.21 119.27 203.21 125.09 198.59 125.09 198.59 152.81 242.48 152.81 242.48 125.09 237.86 125.09 237.86 119.27 242.48 119.27 242.48 97.37 248.35 97.37 248.3 136.64 340.7 136.64 340.7 51.17 326.84 51.17 326.84 11.9 250.61 11.9 250.61 51.17 248.3 51.17 248.3 55.79 242.48 55.79 242.48 30.38 229.27 30.38 229.27 20.38 240.61 20.38 240.61 1.9 357.94 1.9 357.94 487.07 349.94 486.74 349.94 389.63 323.33 389.63 323.33 383.81 340.15 383.81 340.15 217.49 295.02 217.49 295.02 211.67 348.74 211.67 348.74 142.37 248.3 142.37"></polygon><polygon class="cls-19" points="248.3 142.37 248.3 211.67 252.92 211.67 252.92 217.49 198.59 217.49 198.59 222.11 192.86 222.11 192.86 205.94 198.59 205.94 198.59 209.36 242.48 209.36 242.48 160.85 198.59 160.85 198.59 164.36 192.86 164.36 192.86 119.27 203.21 119.27 203.21 125.09 198.59 125.09 198.59 152.81 242.48 152.81 242.48 125.09 237.86 125.09 237.86 119.27 242.48 119.27 242.48 97.37 248.35 97.37 248.3 136.64 340.7 136.64 340.7 51.17 326.84 51.17 326.84 11.9 250.61 11.9 250.61 51.17 248.3 51.17 248.3 55.79 242.48 55.79 242.48 30.38 229.27 30.38 229.27 20.38 240.61 20.38 240.61 1.9 357.94 1.9 357.94 487.07 349.94 486.74 349.94 389.63 323.33 389.63 323.33 383.81 340.15 383.81 340.15 217.49 295.02 217.49 295.02 211.67 348.74 211.67 348.74 142.37 248.3 142.37"></polygon><g><path class="cls-28" d="M206.31,8.23c-.02.08-.07.14-.14.14s-.13-.06-.14-.14c-.56-3.3-2.74-4.94-6.02-4.94h-3.84c-1.16,0-1.98-1.01-2.2-2.66-.05-.33.23-.61.47-.45.46.31,1.06.47,1.78.47h3.48c2.95,0,5.21,1.68,6.17,4.98.11.37.5.37.61,0,.96-3.31,3.22-4.98,6.18-4.98h3.48c.72,0,1.32-.16,1.78-.47.23-.16.51.12.47.46-.22,1.64-1.05,2.66-2.2,2.66h-3.84c-3.29,0-5.47,1.64-6.02,4.94h0Z"></path><path class="cls-20" d="M206.31,8.23c-.02.08-.07.14-.14.14s-.13-.06-.14-.14c-.56-3.3-2.74-4.94-6.02-4.94h-3.84c-1.16,0-1.98-1.01-2.2-2.66-.05-.33.23-.61.47-.45.46.31,1.06.47,1.78.47h3.48c2.95,0,5.21,1.68,6.17,4.98.11.37.5.37.61,0,.96-3.31,3.22-4.98,6.18-4.98h3.48c.72,0,1.32-.16,1.78-.47.23-.16.51.12.47.46-.22,1.64-1.05,2.66-2.2,2.66h-3.84c-3.29,0-5.47,1.64-6.02,4.94h0Z"></path></g><g><path class="cls-26" d="M80.45,210.86h2.43c2.94,0,4.62,1.68,4.62,4.6s-1.64,4.46-4.63,4.46h-2.42v-9.06ZM82.8,219.17c2.5,0,3.89-1.16,3.89-3.74s-1.4-3.83-3.82-3.83h-1.61v7.57h1.54Z"></path><path class="cls-26" d="M89.11,210.86h.94v1.39h-.94v-1.39ZM89.2,213.51h.77v6.41h-.77v-6.41Z"></path><path class="cls-26" d="M92,213.51h.78v1.05c.4-.76,1.12-1.14,2.01-1.14,1.38,0,2.2.81,2.2,2.51v3.99h-.78v-3.71c0-1.45-.55-2.11-1.61-2.11-1.16,0-1.83.79-1.83,2.55v3.27h-.78v-6.41Z"></path><path class="cls-26" d="M98.88,210.86h.94v1.39h-.94v-1.39ZM98.97,213.51h.77v6.41h-.77v-6.41Z"></path><path class="cls-26" d="M101.77,213.51h.78v1.05c.4-.76,1.12-1.14,2.01-1.14,1.38,0,2.2.81,2.2,2.51v3.99h-.78v-3.71c0-1.45-.55-2.11-1.61-2.11-1.16,0-1.83.79-1.83,2.55v3.27h-.78v-6.41Z"></path><path class="cls-26" d="M108.23,220.68s0-.1.03-.26l1.11-.88c-.57-.22-.96-.59-.96-1.26,0-.53.27-.9.72-1.2-.36-.37-.56-.87-.56-1.45,0-1.3,1.04-2.2,2.39-2.2.64,0,1.22.21,1.64.58l1.02-.86.4.49-1,.88c.19.33.3.71.3,1.14,0,1.28-.96,2.13-2.33,2.13-.53,0-.99-.12-1.37-.34-.31.18-.45.42-.45.72,0,.66.63.83,1.62.98,1.6.25,2.99.44,2.99,1.75,0,1.16-1.05,1.78-2.7,1.78-1.82,0-2.85-.7-2.85-2ZM111.09,222.07c1.09,0,1.92-.34,1.92-1.08,0-.86-1.16-.96-2.31-1.14-.31-.05-.6-.1-.89-.17l-.8.92c-.01.09-.01.11-.01.15,0,.9.79,1.33,2.09,1.33ZM110.96,217.14c.98,0,1.59-.65,1.59-1.53s-.64-1.56-1.58-1.56-1.62.65-1.62,1.55.63,1.55,1.61,1.55Z"></path><path class="cls-26" d="M118.71,210.86h2.52c1.99,0,2.97.93,2.97,2.5,0,1.25-.64,2.07-1.85,2.38l2.44,4.19h-.92l-2.34-4.07c-.21,0-.44,0-.65,0h-1.36v4.06h-.81v-9.06ZM121.16,215.14c1.38,0,2.24-.55,2.24-1.78s-.88-1.77-2.24-1.77h-1.64v3.56h1.64Z"></path><path class="cls-26" d="M125.72,216.71c0-1.92,1.25-3.29,3.05-3.29s3.04,1.36,3.04,3.29-1.27,3.3-3.04,3.3-3.05-1.36-3.05-3.3ZM128.77,219.31c1.37,0,2.26-1.04,2.26-2.61s-.9-2.61-2.26-2.61-2.28,1.05-2.28,2.61.9,2.61,2.28,2.61Z"></path><path class="cls-26" d="M133.25,216.71c0-1.92,1.25-3.29,3.05-3.29s3.04,1.36,3.04,3.29-1.27,3.3-3.04,3.3-3.05-1.36-3.05-3.3ZM136.3,219.31c1.37,0,2.26-1.04,2.26-2.61s-.9-2.61-2.26-2.61-2.28,1.05-2.28,2.61.9,2.61,2.28,2.61Z"></path><path class="cls-26" d="M141.09,213.51h.78v1.1c.38-.85,1.11-1.19,1.88-1.19.91,0,1.57.4,1.89,1.25.4-.83,1.09-1.25,2-1.25,1.55,0,2.13,1.16,2.13,2.68v3.82h-.78v-3.64c0-1.33-.39-2.18-1.52-2.18-1.02,0-1.65.77-1.65,2.26v3.57h-.78v-3.76c0-1.4-.52-2.07-1.5-2.07-1.03,0-1.67.79-1.67,2.26v3.57h-.78v-6.41Z"></path></g><g><path class="cls-26" d="M68.62,361.3h.81v8.33h4.18v.73h-4.99v-9.06Z"></path><path class="cls-26" d="M74.74,361.3h.94v1.39h-.94v-1.39ZM74.82,363.95h.77v6.41h-.77v-6.41Z"></path><path class="cls-26" d="M76.99,363.95h.86l2.1,5.42,2.11-5.42h.85l-2.61,6.41h-.68l-2.63-6.41Z"></path><path class="cls-26" d="M84.25,361.3h.94v1.39h-.94v-1.39ZM84.33,363.95h.77v6.41h-.77v-6.41Z"></path><path class="cls-26" d="M87.14,363.95h.78v1.05c.4-.76,1.12-1.14,2.01-1.14,1.38,0,2.2.81,2.2,2.51v3.99h-.78v-3.71c0-1.45-.55-2.11-1.61-2.11-1.16,0-1.83.79-1.83,2.55v3.27h-.78v-6.41Z"></path><path class="cls-26" d="M93.6,371.12s0-.1.03-.26l1.11-.88c-.57-.22-.96-.59-.96-1.26,0-.53.27-.9.72-1.2-.36-.37-.56-.87-.56-1.45,0-1.3,1.04-2.2,2.39-2.2.64,0,1.22.21,1.64.58l1.02-.86.4.49-1,.88c.19.33.3.71.3,1.14,0,1.28-.96,2.13-2.33,2.13-.53,0-.99-.12-1.37-.34-.31.17-.45.42-.45.71,0,.66.63.83,1.62.98,1.6.25,2.99.44,2.99,1.75,0,1.16-1.05,1.78-2.7,1.78-1.82,0-2.85-.7-2.85-2ZM96.45,372.51c1.09,0,1.92-.34,1.92-1.08,0-.86-1.16-.96-2.31-1.14-.31-.05-.6-.1-.89-.17l-.8.92c-.01.09-.01.11-.01.15,0,.9.79,1.33,2.09,1.33ZM96.32,367.59c.98,0,1.59-.65,1.59-1.53s-.64-1.56-1.58-1.56-1.62.65-1.62,1.55.63,1.55,1.61,1.55Z"></path><path class="cls-26" d="M104.08,361.3h2.52c1.99,0,2.97.93,2.97,2.5,0,1.25-.64,2.07-1.85,2.38l2.44,4.19h-.92l-2.34-4.07c-.21,0-.44,0-.65,0h-1.36v4.06h-.81v-9.06ZM106.52,365.59c1.38,0,2.24-.55,2.24-1.78s-.88-1.77-2.24-1.77h-1.64v3.56h1.64Z"></path><path class="cls-26" d="M111.09,367.15c0-1.92,1.25-3.29,3.05-3.29s3.04,1.37,3.04,3.29-1.27,3.3-3.04,3.3-3.05-1.37-3.05-3.3ZM114.13,369.76c1.37,0,2.26-1.04,2.26-2.61s-.9-2.61-2.26-2.61-2.28,1.05-2.28,2.61.9,2.61,2.28,2.61Z"></path><path class="cls-26" d="M118.62,367.15c0-1.92,1.25-3.29,3.05-3.29s3.04,1.37,3.04,3.29-1.27,3.3-3.04,3.3-3.05-1.37-3.05-3.3ZM121.67,369.76c1.37,0,2.26-1.04,2.26-2.61s-.9-2.61-2.26-2.61-2.28,1.05-2.28,2.61.9,2.61,2.28,2.61Z"></path><path class="cls-26" d="M126.46,363.95h.78v1.1c.38-.84,1.11-1.19,1.88-1.19.91,0,1.57.4,1.89,1.25.4-.83,1.09-1.25,2-1.25,1.55,0,2.13,1.16,2.13,2.68v3.82h-.78v-3.64c0-1.33-.39-2.18-1.52-2.18-1.02,0-1.65.77-1.65,2.26v3.57h-.78v-3.76c0-1.4-.52-2.07-1.5-2.07-1.03,0-1.67.79-1.67,2.26v3.57h-.78v-6.41Z"></path></g><g><path class="cls-26" d="M256.05,434.38h2.72c1.68,0,2.68.84,2.68,2.25,0,.94-.46,1.68-1.24,2,1.1.25,1.7,1.07,1.7,2.31,0,1.61-1.02,2.5-2.88,2.5h-2.97v-9.06ZM259.02,438.39c.98,0,1.63-.64,1.63-1.64s-.69-1.61-1.88-1.61h-1.91v3.26h2.16ZM258.97,442.7c1.42,0,2.14-.6,2.14-1.79,0-1.13-.66-1.79-1.79-1.79h-2.46v3.58h2.11Z"></path><path class="cls-26" d="M267.88,442.24c-.43.82-1.25,1.29-2.25,1.29-1.44,0-2.31-.77-2.31-1.94,0-.69.29-1.16.72-1.44.46-.31,1.09-.42,1.77-.42h2.05v-.28c0-1.19-.62-1.83-1.82-1.83-.79,0-1.4.29-1.98,1.02l-.56-.48c.68-.84,1.53-1.21,2.59-1.21,1.63,0,2.54.89,2.54,2.51v3.99h-.71l-.04-1.2ZM265.7,442.89c1.18,0,2.17-.93,2.17-2.2v-.36h-1.95c-.51,0-1.03.08-1.37.32-.28.21-.44.51-.44.94,0,.79.6,1.3,1.6,1.3Z"></path><path class="cls-26" d="M270.47,442.11v-7.73h.77v7.59c0,.6.23.84.64.84.17,0,.38-.04.61-.12v.67c-.29.11-.6.17-.84.17-.72,0-1.18-.44-1.18-1.42Z"></path><path class="cls-26" d="M273.43,440.23c0-1.83,1.06-3.29,2.86-3.29,1.17,0,2.09.58,2.51,1.74l-.7.27c-.27-.82-.9-1.33-1.81-1.33-1.42,0-2.09,1.25-2.09,2.61s.68,2.62,2.09,2.62c.91,0,1.53-.51,1.81-1.33l.7.27c-.42,1.16-1.34,1.75-2.51,1.75-1.8,0-2.86-1.46-2.86-3.3Z"></path><path class="cls-26" d="M280.04,440.23c0-1.92,1.25-3.29,3.05-3.29s3.04,1.37,3.04,3.29-1.27,3.3-3.04,3.3-3.05-1.37-3.05-3.3ZM283.09,442.84c1.37,0,2.26-1.04,2.26-2.61s-.9-2.61-2.26-2.61-2.28,1.05-2.28,2.61.9,2.61,2.28,2.61Z"></path><path class="cls-26" d="M287.88,437.03h.78v1.05c.4-.76,1.12-1.14,2.01-1.14,1.38,0,2.2.81,2.2,2.51v3.99h-.78v-3.71c0-1.45-.55-2.11-1.61-2.11-1.16,0-1.83.79-1.83,2.55v3.27h-.78v-6.41Z"></path><path class="cls-26" d="M296.59,443.24l-2.55-6.21h.86l2.1,5.42,2.11-5.42h.85l-3.69,9.05h-.84l1.17-2.84Z"></path></g><g><path class="cls-26" d="M68.35,128.6h.81v4.86l4.65-4.86h1.09l-3.45,3.54,3.48,5.52h-.95l-3.11-4.93-1.71,1.75v3.17h-.81v-9.06Z"></path><path class="cls-26" d="M76.08,128.6h.94v1.39h-.94v-1.39ZM76.16,131.25h.77v6.41h-.77v-6.41Z"></path><path class="cls-26" d="M79.73,136.18v-4.31h-1.42v-.62h1.42v-1.85l.79-.46v2.31h1.54v.62h-1.54v4.12c0,.71.22,1.11.81,1.11.19,0,.46-.04.73-.12v.62c-.32.1-.64.16-.92.16-.85,0-1.4-.49-1.4-1.57Z"></path><path class="cls-26" d="M83.08,134.45c0-1.83,1.06-3.29,2.86-3.29,1.17,0,2.09.59,2.51,1.74l-.7.27c-.27-.82-.9-1.33-1.81-1.33-1.42,0-2.09,1.25-2.09,2.61s.68,2.62,2.09,2.62c.91,0,1.53-.51,1.81-1.33l.7.27c-.42,1.16-1.34,1.75-2.51,1.75-1.8,0-2.86-1.46-2.86-3.3Z"></path><path class="cls-26" d="M90.08,128.6h.78v3.69c.4-.75,1.1-1.13,2.01-1.13,1.4,0,2.2.85,2.2,2.51v3.99h-.78v-3.71c0-1.43-.53-2.11-1.61-2.11-1.18,0-1.83.83-1.83,2.55v3.27h-.78v-9.06Z"></path><path class="cls-26" d="M96.72,134.5c0-1.84.99-3.34,2.81-3.34,1.96,0,2.76,1.53,2.76,2.94,0,.1-.01.4-.04.55h-4.76c.03,1.51.84,2.39,2.14,2.39.82,0,1.35-.23,1.91-.83l.55.49c-.73.75-1.43,1.05-2.46,1.05-1.89,0-2.91-1.41-2.91-3.25ZM101.53,134.07c0-.08,0-.16,0-.24,0-.92-.58-2.02-2-2.02-1.23,0-1.98.98-2.07,2.26h4.06Z"></path><path class="cls-26" d="M104.02,131.25h.78v1.05c.4-.76,1.12-1.14,2.01-1.14,1.38,0,2.2.81,2.2,2.51v3.99h-.78v-3.71c0-1.45-.55-2.11-1.61-2.11-1.16,0-1.83.79-1.83,2.55v3.27h-.78v-6.41Z"></path></g><path class="cls-26" d="M115.7,94.17c0-2.17,1.27-3.59,3.16-3.59s3.18,1.42,3.18,3.59-1.27,3.58-3.18,3.58-3.16-1.42-3.16-3.58ZM118.86,97.16c1.57,0,2.55-1.16,2.55-2.99s-.99-3-2.55-3-2.54,1.15-2.54,3,.99,2.99,2.54,2.99Z"></path><path class="cls-26" d="M125.74,89.68h.48l-3.55,9.08h-.48l3.55-9.08Z"></path><path class="cls-26" d="M127.44,90.68h.93l2.35,5.66,2.35-5.66h.92v6.98h-.62v-6.16l-2.35,5.59h-.61l-2.36-5.59v6.16h-.62v-6.98Z"></path><g><path class="cls-26" d="M15.49,250.56h1.94c1.53,0,2.29.72,2.29,1.92,0,.97-.5,1.6-1.43,1.83l1.88,3.22h-.71l-1.8-3.13c-.16,0-.34,0-.5,0h-1.05v3.13h-.62v-6.98ZM17.37,253.86c1.06,0,1.73-.43,1.73-1.37s-.68-1.37-1.73-1.37h-1.26v2.74h1.26Z"></path><path class="cls-26" d="M21.35,250.56h4.56v.56h-3.94v2.59h3.53v.56h-3.53v2.7h3.94v.56h-4.56v-6.98Z"></path><path class="cls-26" d="M27.2,250.56h4.51v.56h-3.89v2.59h3.38v.56h-3.38v3.26h-.62v-6.98Z"></path></g><path class="cls-26" d="M21.43,220.68h1.94c1.46,0,2.29.69,2.29,1.95s-.83,1.96-2.29,1.96h-1.33v3.07h-.62v-6.98ZM23.32,224.03c1.09,0,1.73-.47,1.73-1.4s-.62-1.39-1.73-1.39h-1.27v2.79h1.27Z"></path><g><path class="cls-26" d="M18,196.02h.65l1.71,6.06,1.76-5.7h.63l1.76,5.7,1.7-6.06h.65l-2.01,6.98h-.63l-1.79-5.71-1.79,5.71h-.64l-2.01-6.98Z"></path><path class="cls-26" d="M28.01,196.02h4.51v.56h-3.89v2.59h3.38v.56h-3.38v3.26h-.62v-6.98Z"></path></g><g><path class="cls-26" d="M18.07,129.64h1.87c2.26,0,3.56,1.29,3.56,3.54s-1.27,3.43-3.57,3.43h-1.86v-6.98ZM19.88,136.04c1.92,0,2.99-.89,2.99-2.88s-1.08-2.95-2.94-2.95h-1.24v5.83h1.19Z"></path><path class="cls-26" d="M24.16,129.64h.65l1.71,6.06,1.76-5.7h.63l1.76,5.7,1.7-6.06h.65l-2.01,6.98h-.63l-1.79-5.71-1.79,5.71h-.64l-2.01-6.98Z"></path></g><path class="cls-26" d="M210.66,181.84h.65l1.71,6.06,1.76-5.7h.63l1.76,5.7,1.7-6.06h.65l-2.01,6.98h-.63l-1.79-5.71-1.79,5.71h-.64l-2.01-6.98Z"></path><path class="cls-26" d="M222.94,180.96h.48l-3.55,9.08h-.47l3.55-9.08Z"></path><path class="cls-26" d="M224.64,181.84h1.87c2.26,0,3.56,1.29,3.56,3.54s-1.27,3.43-3.57,3.43h-1.86v-6.98ZM226.45,188.24c1.92,0,2.99-.89,2.99-2.88s-1.08-2.95-2.94-2.95h-1.24v5.83h1.19Z"></path><g><path class="cls-26" d="M180.04,93.08h5.86v.73h-5.06v3.37h4.39v.73h-4.39v4.24h-.81v-9.06Z"></path><path class="cls-26" d="M186.63,98.93c0-1.92,1.25-3.29,3.05-3.29s3.04,1.36,3.04,3.29-1.27,3.3-3.04,3.3-3.05-1.36-3.05-3.3ZM189.68,101.54c1.37,0,2.26-1.04,2.26-2.61s-.9-2.61-2.26-2.61-2.28,1.05-2.28,2.61.9,2.61,2.28,2.61Z"></path><path class="cls-26" d="M196.2,101.94l-2.55-6.21h.86l2.1,5.42,2.11-5.42h.85l-3.69,9.05h-.84l1.17-2.84Z"></path><path class="cls-26" d="M200.53,98.99c0-1.84.99-3.34,2.81-3.34,1.96,0,2.76,1.53,2.76,2.94,0,.1-.01.4-.04.55h-4.76c.03,1.51.84,2.39,2.14,2.39.82,0,1.35-.23,1.91-.83l.55.49c-.73.75-1.43,1.05-2.46,1.05-1.89,0-2.91-1.41-2.91-3.25ZM205.34,98.56c0-.08,0-.16,0-.24,0-.92-.58-2.02-2-2.02-1.23,0-1.98.98-2.07,2.26h4.06Z"></path><path class="cls-26" d="M207.82,95.74h.78v1.09c.43-.78,1.31-1.18,2.02-1.18.33,0,.66.07.99.24l-.39.7c-.21-.1-.51-.17-.77-.17-.68,0-1.46.36-1.74,1.3-.08.27-.12.57-.12,1.27v3.15h-.78v-6.41Z"></path></g><g><path class="cls-26" d="M219.2,296.28h2.52c1.9,0,2.97.89,2.97,2.53s-1.07,2.54-2.97,2.54h-1.72v3.99h-.8v-9.06ZM221.64,300.62c1.41,0,2.24-.61,2.24-1.81s-.81-1.81-2.24-1.81h-1.64v3.62h1.64Z"></path><path class="cls-26" d="M226.19,298.93h.78v1.09c.43-.78,1.31-1.18,2.02-1.18.33,0,.66.07.99.24l-.39.7c-.21-.1-.51-.17-.77-.17-.68,0-1.46.36-1.74,1.3-.08.27-.12.57-.12,1.27v3.15h-.78v-6.41Z"></path><path class="cls-26" d="M231.25,296.28h.94v1.39h-.94v-1.39ZM231.33,298.93h.77v6.41h-.77v-6.41Z"></path><path class="cls-26" d="M234.14,298.93h.78v1.1c.38-.84,1.11-1.19,1.88-1.19.91,0,1.57.4,1.89,1.25.4-.83,1.09-1.25,2-1.25,1.55,0,2.13,1.16,2.13,2.68v3.82h-.78v-3.64c0-1.33-.39-2.18-1.52-2.18-1.02,0-1.65.77-1.65,2.26v3.57h-.78v-3.76c0-1.4-.52-2.07-1.5-2.07-1.03,0-1.67.79-1.67,2.26v3.57h-.78v-6.41Z"></path><path class="cls-26" d="M248.97,304.14c-.43.82-1.25,1.29-2.25,1.29-1.44,0-2.31-.77-2.31-1.94,0-.69.29-1.16.72-1.44.46-.31,1.09-.42,1.77-.42h2.05v-.28c0-1.19-.62-1.83-1.82-1.83-.79,0-1.4.29-1.98,1.02l-.56-.48c.68-.84,1.53-1.21,2.59-1.21,1.63,0,2.54.89,2.54,2.51v3.99h-.71l-.04-1.2ZM246.79,304.78c1.18,0,2.17-.93,2.17-2.2v-.36h-1.95c-.51,0-1.03.08-1.37.32-.28.21-.44.51-.44.94,0,.79.6,1.3,1.6,1.3Z"></path><path class="cls-26" d="M251.68,298.93h.78v1.09c.43-.78,1.31-1.18,2.02-1.18.33,0,.66.07.99.24l-.39.7c-.21-.1-.51-.17-.77-.17-.68,0-1.46.36-1.74,1.3-.08.27-.12.57-.12,1.27v3.15h-.78v-6.41Z"></path><path class="cls-26" d="M258.73,305.14l-2.55-6.21h.86l2.1,5.42,2.11-5.42h.85l-3.69,9.05h-.84l1.17-2.84Z"></path><path class="cls-26" d="M266.99,296.28h2.72c1.68,0,2.68.84,2.68,2.25,0,.94-.46,1.68-1.24,2,1.1.25,1.7,1.07,1.7,2.31,0,1.61-1.02,2.5-2.88,2.5h-2.97v-9.06ZM269.96,300.28c.98,0,1.63-.64,1.63-1.64s-.69-1.61-1.88-1.61h-1.91v3.26h2.16ZM269.91,304.59c1.42,0,2.14-.6,2.14-1.79,0-1.13-.66-1.79-1.79-1.79h-2.46v3.58h2.11Z"></path><path class="cls-26" d="M274.32,302.18c0-1.84.99-3.34,2.81-3.34,1.96,0,2.76,1.53,2.76,2.94,0,.1-.01.4-.04.55h-4.76c.03,1.51.84,2.39,2.14,2.39.82,0,1.35-.23,1.91-.83l.55.49c-.73.75-1.43,1.05-2.46,1.05-1.89,0-2.91-1.41-2.91-3.25ZM279.13,301.75c0-.08,0-.16,0-.24,0-.92-.58-2.01-2-2.01-1.23,0-1.98.98-2.07,2.26h4.06Z"></path><path class="cls-26" d="M281.28,302.13c0-1.96,1.29-3.29,2.92-3.29,1.05,0,1.87.54,2.29,1.36v-3.92h.77v9.06h-.77v-1.26c-.44.84-1.25,1.35-2.29,1.35-1.72,0-2.92-1.42-2.92-3.3ZM284.32,304.71c1.3,0,2.23-1.08,2.23-2.58s-.93-2.58-2.23-2.58-2.26,1.09-2.26,2.58.95,2.58,2.26,2.58Z"></path><path class="cls-26" d="M289.3,298.93h.78v1.09c.43-.78,1.31-1.18,2.02-1.18.33,0,.66.07.99.24l-.39.7c-.21-.1-.51-.17-.77-.17-.68,0-1.46.36-1.74,1.3-.08.27-.12.57-.12,1.27v3.15h-.78v-6.41Z"></path><path class="cls-26" d="M293.68,302.13c0-1.92,1.25-3.29,3.05-3.29s3.04,1.37,3.04,3.29-1.27,3.3-3.04,3.3-3.05-1.37-3.05-3.3ZM296.73,304.73c1.37,0,2.26-1.04,2.26-2.61s-.9-2.61-2.26-2.61-2.28,1.05-2.28,2.61.9,2.61,2.28,2.61Z"></path><path class="cls-26" d="M301.21,302.13c0-1.92,1.25-3.29,3.05-3.29s3.04,1.37,3.04,3.29-1.27,3.3-3.04,3.3-3.05-1.37-3.05-3.3ZM304.26,304.73c1.37,0,2.26-1.04,2.26-2.61s-.9-2.61-2.26-2.61-2.28,1.05-2.28,2.61.9,2.61,2.28,2.61Z"></path><path class="cls-26" d="M309.05,298.93h.78v1.1c.38-.84,1.11-1.19,1.88-1.19.91,0,1.57.4,1.89,1.25.4-.83,1.09-1.25,2-1.25,1.55,0,2.13,1.16,2.13,2.68v3.82h-.78v-3.64c0-1.33-.39-2.18-1.52-2.18-1.02,0-1.65.77-1.65,2.26v3.57h-.78v-3.76c0-1.4-.52-2.07-1.5-2.07-1.03,0-1.67.79-1.67,2.26v3.57h-.78v-6.41Z"></path></g><g><path class="cls-26" d="M289.56,173.61h.65l1.71,6.06,1.76-5.7h.63l1.76,5.7,1.7-6.06h.65l-2.01,6.98h-.63l-1.79-5.71-1.79,5.71h-.64l-2.01-6.98Z"></path><path class="cls-26" d="M299.57,173.61h.62v6.98h-.62v-6.98Z"></path><path class="cls-26" d="M301.62,177.09c0-2.16,1.26-3.58,3.16-3.58,1.35,0,2.39.71,2.84,1.89l-.58.22c-.38-.96-1.17-1.52-2.26-1.52-1.55,0-2.54,1.17-2.54,2.99s.99,3,2.54,3c1.09,0,1.89-.56,2.26-1.52l.58.22c-.45,1.18-1.49,1.9-2.84,1.9-1.89,0-3.16-1.42-3.16-3.59Z"></path></g><g><path class="cls-30" d="M118.66,521.24h3.61v.45h-3.11v2.07h2.7v.45h-2.7v2.61h-.5v-5.57Z"></path><path class="cls-30" d="M123,521.24h.58v.86h-.58v-.86ZM123.06,522.87h.47v3.94h-.47v-3.94Z"></path><path class="cls-30" d="M124.86,522.87h.48v.64c.25-.47.69-.7,1.24-.7.85,0,1.36.5,1.36,1.54v2.46h-.48v-2.28c0-.89-.34-1.3-.99-1.3-.71,0-1.13.48-1.13,1.57v2.01h-.48v-3.94Z"></path><path class="cls-30" d="M131.43,521.24h3.64v.45h-3.15v2.07h2.82v.45h-2.82v2.16h3.15v.45h-3.64v-5.57Z"></path><path class="cls-30" d="M137.24,524.84l-1.46-1.96h.59l1.18,1.63,1.2-1.63h.58l-1.46,1.96,1.47,1.98h-.59l-1.19-1.64-1.19,1.64h-.58l1.46-1.98Z"></path><path class="cls-30" d="M140.76,525.9v-2.65h-.88v-.38h.88v-1.14l.48-.28v1.42h.95v.38h-.95v2.54c0,.44.14.68.5.68.12,0,.28-.02.45-.08v.38c-.2.06-.4.1-.57.1-.52,0-.86-.3-.86-.97Z"></path><path class="cls-30" d="M142.91,524.87c0-1.13.61-2.05,1.73-2.05,1.21,0,1.7.94,1.7,1.81,0,.06,0,.24-.02.34h-2.93c.02.93.52,1.47,1.32,1.47.5,0,.83-.14,1.17-.51l.34.3c-.45.46-.88.65-1.51.65-1.16,0-1.79-.87-1.79-2ZM145.87,524.61s0-.1,0-.15c0-.57-.36-1.24-1.23-1.24-.75,0-1.22.6-1.27,1.39h2.49Z"></path><path class="cls-30" d="M147.48,522.87h.48v.64c.25-.47.69-.7,1.24-.7.85,0,1.36.5,1.36,1.54v2.46h-.48v-2.28c0-.89-.34-1.3-.99-1.3-.71,0-1.13.48-1.13,1.57v2.01h-.48v-3.94Z"></path><path class="cls-30" d="M151.43,525.97l.34-.28c.2.46.66.77,1.26.77.57,0,.95-.27.95-.72,0-.55-.53-.68-1.1-.82-.66-.16-1.23-.38-1.23-1.06,0-.62.53-1.05,1.29-1.05.6,0,1.1.26,1.37.76l-.37.21c-.21-.38-.57-.58-1.01-.58-.48,0-.84.24-.84.62,0,.4.36.54.93.68.67.16,1.43.34,1.43,1.2,0,.71-.56,1.17-1.42,1.17-.79,0-1.35-.4-1.6-.9Z"></path><path class="cls-30" d="M155.54,521.24h.58v.86h-.58v-.86ZM155.59,522.87h.47v3.94h-.47v-3.94Z"></path><path class="cls-30" d="M157.21,524.84c0-1.18.77-2.02,1.88-2.02s1.87.84,1.87,2.02-.78,2.03-1.87,2.03-1.88-.84-1.88-2.03ZM159.08,526.44c.84,0,1.39-.64,1.39-1.6s-.55-1.6-1.39-1.6-1.4.64-1.4,1.6.56,1.6,1.4,1.6Z"></path><path class="cls-30" d="M162.11,522.87h.48v.64c.25-.47.69-.7,1.24-.7.85,0,1.36.5,1.36,1.54v2.46h-.48v-2.28c0-.89-.34-1.3-.99-1.3-.71,0-1.13.48-1.13,1.57v2.01h-.48v-3.94Z"></path><path class="cls-30" d="M166.51,523.05h.58v.86h-.58v-.86ZM166.51,525.96h.58v.85h-.58v-.85Z"></path></g><g><path class="cls-30" d="M157.13,535.08h-2.77v-.4l2.79-3.84h.46v3.79h.91v.45h-.91v1.33h-.48v-1.33ZM157.13,534.63v-3.15l-2.25,3.15h2.25Z"></path><path class="cls-30" d="M159.26,533.61c0-1.33.3-2.84,1.72-2.84s1.75,1.39,1.75,2.85-.4,2.84-1.72,2.84c-1.44,0-1.75-1.51-1.75-2.85ZM161.01,536.01c.88,0,1.23-1,1.23-2.36s-.36-2.41-1.26-2.41c-.96,0-1.23,1.1-1.23,2.39s.28,2.37,1.26,2.37Z"></path><path class="cls-30" d="M166.25,535.08h-2.77v-.4l2.79-3.84h.46v3.79h.91v.45h-.91v1.33h-.48v-1.33ZM166.25,534.63v-3.15l-2.25,3.15h2.25Z"></path></g><g><path class="cls-30" d="M154.55,544.49l.47-.08c.14.7.66,1.21,1.4,1.21.85,0,1.41-.68,1.41-1.48s-.52-1.38-1.34-1.38c-.51,0-.95.24-1.26.69l-.5-.15.5-2.86h2.84v.45h-2.45l-.34,1.96c.38-.39.82-.55,1.27-.55,1.04,0,1.78.82,1.78,1.83s-.81,1.94-1.91,1.94c-.94,0-1.7-.64-1.88-1.58Z"></path><path class="cls-30" d="M159.26,543.22c0-1.33.3-2.84,1.72-2.84s1.75,1.39,1.75,2.85-.4,2.84-1.72,2.84c-1.44,0-1.75-1.51-1.75-2.85ZM161.01,545.61c.88,0,1.23-1,1.23-2.36s-.36-2.41-1.26-2.41c-.96,0-1.23,1.1-1.23,2.39s.28,2.37,1.26,2.37Z"></path><path class="cls-30" d="M166.25,544.68h-2.77v-.4l2.79-3.84h.46v3.79h.91v.45h-.91v1.33h-.48v-1.33ZM166.25,544.23v-3.15l-2.25,3.15h2.25Z"></path></g><g><path class="cls-30" d="M155.63,552.25c.23-.14.5-.22.76-.22,1.01,0,1.81.81,1.81,1.81s-.84,1.83-1.87,1.83-1.88-.79-1.88-1.82c0-.37.12-.7.29-1l1.67-2.81h.54l-1.34,2.21ZM156.33,555.22c.76,0,1.39-.6,1.39-1.38s-.62-1.38-1.39-1.38-1.39.59-1.39,1.38.62,1.38,1.39,1.38Z"></path><path class="cls-30" d="M159.26,552.81c0-1.33.3-2.84,1.72-2.84s1.75,1.39,1.75,2.85-.4,2.84-1.72,2.84c-1.44,0-1.75-1.51-1.75-2.85ZM161.01,555.21c.88,0,1.23-1,1.23-2.36s-.36-2.41-1.26-2.41c-.96,0-1.23,1.1-1.23,2.39s.28,2.37,1.26,2.37Z"></path><path class="cls-30" d="M166.25,554.28h-2.77v-.4l2.79-3.84h.46v3.79h.91v.45h-.91v1.33h-.48v-1.33ZM166.25,553.83v-3.15l-2.25,3.15h2.25Z"></path></g><g><path class="cls-30" d="M157.86,560.09h-3.43v-.45h3.98v.4l-2.75,5.18h-.53l2.74-5.12Z"></path><path class="cls-30" d="M159.26,562.41c0-1.33.3-2.84,1.72-2.84s1.75,1.39,1.75,2.85-.4,2.84-1.72,2.84c-1.44,0-1.75-1.51-1.75-2.85ZM161.01,564.81c.88,0,1.23-1,1.23-2.36s-.36-2.41-1.26-2.41c-.96,0-1.23,1.1-1.23,2.39s.28,2.37,1.26,2.37Z"></path><path class="cls-30" d="M166.25,563.88h-2.77v-.4l2.79-3.84h.46v3.79h.91v.45h-.91v1.33h-.48v-1.33ZM166.25,563.43v-3.15l-2.25,3.15h2.25Z"></path></g><g><path class="cls-30" d="M154.58,573.23c0-.7.41-1.25,1.08-1.45-.46-.18-.76-.62-.76-1.19,0-.9.78-1.41,1.54-1.41.86,0,1.53.57,1.53,1.45,0,.55-.3.97-.77,1.15.67.21,1.07.76,1.07,1.45,0,1.09-.9,1.63-1.84,1.63s-1.85-.55-1.85-1.63ZM156.43,574.42c.72,0,1.36-.41,1.36-1.22,0-.73-.56-1.21-1.36-1.21s-1.38.48-1.38,1.21c0,.82.66,1.22,1.38,1.22ZM156.45,571.64c.61,0,1.05-.4,1.05-.98,0-.61-.42-1.03-1.06-1.03-.56,0-1.06.36-1.06.98s.44,1.02,1.07,1.02Z"></path><path class="cls-30" d="M159.26,572.02c0-1.33.3-2.84,1.72-2.84s1.75,1.39,1.75,2.85-.4,2.84-1.72,2.84c-1.44,0-1.75-1.51-1.75-2.85ZM161.01,574.41c.88,0,1.23-1,1.23-2.36s-.36-2.41-1.26-2.41c-.96,0-1.23,1.1-1.23,2.39s.28,2.37,1.26,2.37Z"></path><path class="cls-30" d="M166.25,573.48h-2.77v-.4l2.79-3.84h.46v3.79h.91v.45h-.91v1.33h-.48v-1.33ZM166.25,573.03v-3.15l-2.25,3.15h2.25Z"></path></g><g><path class="cls-30" d="M291.67,526.24h3.61v.45h-3.11v2.07h2.7v.45h-2.7v2.61h-.5v-5.57Z"></path><path class="cls-30" d="M296.02,526.24h.58v.86h-.58v-.86ZM296.07,527.87h.47v3.94h-.47v-3.94Z"></path><path class="cls-30" d="M297.88,527.87h.48v.64c.25-.47.69-.7,1.24-.7.85,0,1.36.5,1.36,1.54v2.46h-.48v-2.28c0-.89-.34-1.3-.99-1.3-.71,0-1.13.48-1.13,1.57v2.01h-.48v-3.94Z"></path><path class="cls-30" d="M304.44,526.24h3.64v.45h-3.15v2.07h2.82v.45h-2.82v2.16h3.15v.45h-3.64v-5.57Z"></path><path class="cls-30" d="M310.24,529.84l-1.46-1.96h.59l1.18,1.63,1.2-1.63h.58l-1.46,1.96,1.47,1.98h-.59l-1.19-1.64-1.19,1.64h-.58l1.46-1.98Z"></path><path class="cls-30" d="M313.77,530.9v-2.65h-.88v-.38h.88v-1.14l.48-.28v1.42h.95v.38h-.95v2.54c0,.44.14.68.5.68.12,0,.28-.02.45-.08v.38c-.2.06-.4.1-.57.1-.52,0-.86-.3-.86-.97Z"></path><path class="cls-30" d="M315.92,529.87c0-1.13.61-2.05,1.73-2.05,1.21,0,1.7.94,1.7,1.81,0,.06,0,.24-.02.34h-2.93c.02.93.52,1.47,1.32,1.47.5,0,.83-.14,1.17-.51l.34.3c-.45.46-.88.65-1.51.65-1.16,0-1.79-.87-1.79-2ZM318.88,529.61s0-.1,0-.15c0-.57-.36-1.24-1.23-1.24-.75,0-1.22.6-1.27,1.39h2.49Z"></path><path class="cls-30" d="M320.49,527.87h.48v.64c.25-.47.69-.7,1.24-.7.85,0,1.36.5,1.36,1.54v2.46h-.48v-2.28c0-.89-.34-1.3-.99-1.3-.71,0-1.13.48-1.13,1.57v2.01h-.48v-3.94Z"></path><path class="cls-30" d="M324.44,530.97l.34-.28c.2.46.66.77,1.26.77.57,0,.95-.27.95-.72,0-.55-.53-.68-1.1-.82-.66-.16-1.23-.38-1.23-1.06,0-.62.53-1.05,1.29-1.05.6,0,1.1.26,1.37.76l-.37.21c-.21-.38-.57-.58-1.01-.58-.48,0-.84.24-.84.62,0,.4.36.54.93.68.67.16,1.43.34,1.43,1.2,0,.71-.56,1.17-1.42,1.17-.79,0-1.35-.4-1.6-.9Z"></path><path class="cls-30" d="M328.54,526.24h.58v.86h-.58v-.86ZM328.6,527.87h.47v3.94h-.47v-3.94Z"></path><path class="cls-30" d="M330.22,529.84c0-1.18.77-2.02,1.88-2.02s1.87.84,1.87,2.02-.78,2.03-1.87,2.03-1.88-.84-1.88-2.03ZM332.09,531.44c.84,0,1.39-.64,1.39-1.6s-.55-1.6-1.39-1.6-1.4.64-1.4,1.6.56,1.6,1.4,1.6Z"></path><path class="cls-30" d="M335.11,527.87h.48v.64c.25-.47.69-.7,1.24-.7.85,0,1.36.5,1.36,1.54v2.46h-.48v-2.28c0-.89-.34-1.3-.99-1.3-.71,0-1.13.48-1.13,1.57v2.01h-.48v-3.94Z"></path><path class="cls-30" d="M339.51,528.05h.58v.86h-.58v-.86ZM339.51,530.96h.58v.85h-.58v-.85Z"></path></g><g><path class="cls-30" d="M293.41,537.13h-1.47v-.39h1.03c.29,0,.44-.1.44-.41v-.49h.48v5.57h-.48v-4.28Z"></path><path class="cls-30" d="M298.91,537.45c0-.73-.43-1.2-1.19-1.2-.83,0-1.26.58-1.27,1.45l-.47-.03c0-1.07.62-1.88,1.76-1.88.99,0,1.64.65,1.64,1.65,0,1.49-1.5,2.65-2.81,3.53h3.04v.45h-3.64v-.44c1.02-.82,2.94-2.02,2.94-3.53Z"></path><path class="cls-30" d="M300.61,538.61c0-1.33.3-2.84,1.72-2.84s1.75,1.39,1.75,2.85-.4,2.84-1.72,2.84c-1.44,0-1.75-1.51-1.75-2.85ZM302.36,541.01c.88,0,1.23-1,1.23-2.36s-.36-2.41-1.26-2.41c-.96,0-1.23,1.1-1.23,2.39s.28,2.37,1.26,2.37Z"></path><path class="cls-30" d="M307.59,540.08h-2.77v-.4l2.79-3.84h.46v3.79h.91v.45h-.91v1.33h-.48v-1.33ZM307.59,539.63v-3.15l-2.25,3.15h2.25Z"></path></g><g><path class="cls-30" d="M293.41,546.73h-1.47v-.39h1.03c.29,0,.44-.1.44-.41v-.49h.48v5.57h-.48v-4.28Z"></path><path class="cls-30" d="M297.96,546.73h-1.47v-.39h1.03c.29,0,.44-.1.44-.41v-.49h.48v5.57h-.48v-4.28Z"></path><path class="cls-30" d="M300.61,548.22c0-1.33.3-2.84,1.72-2.84s1.75,1.39,1.75,2.85-.4,2.84-1.72,2.84c-1.44,0-1.75-1.51-1.75-2.85ZM302.36,550.61c.88,0,1.23-1,1.23-2.36s-.36-2.41-1.26-2.41c-.96,0-1.23,1.1-1.23,2.39s.28,2.37,1.26,2.37Z"></path><path class="cls-30" d="M307.59,549.68h-2.77v-.4l2.79-3.84h.46v3.79h.91v.45h-.91v1.33h-.48v-1.33ZM307.59,549.23v-3.15l-2.25,3.15h2.25Z"></path></g><g><path class="cls-30" d="M293.41,556.33h-1.47v-.39h1.03c.29,0,.44-.1.44-.41v-.49h.48v5.57h-.48v-4.28Z"></path><path class="cls-30" d="M296.05,557.81c0-1.33.3-2.84,1.72-2.84s1.75,1.39,1.75,2.85-.4,2.84-1.72,2.84c-1.44,0-1.75-1.51-1.75-2.85ZM297.8,560.21c.88,0,1.23-1,1.23-2.36s-.36-2.41-1.26-2.41c-.96,0-1.23,1.1-1.23,2.39s.28,2.37,1.26,2.37Z"></path><path class="cls-30" d="M300.61,557.81c0-1.33.3-2.84,1.72-2.84s1.75,1.39,1.75,2.85-.4,2.84-1.72,2.84c-1.44,0-1.75-1.51-1.75-2.85ZM302.36,560.21c.88,0,1.23-1,1.23-2.36s-.36-2.41-1.26-2.41c-.96,0-1.23,1.1-1.23,2.39s.28,2.37,1.26,2.37Z"></path><path class="cls-30" d="M307.59,559.28h-2.77v-.4l2.79-3.84h.46v3.79h.91v.45h-.91v1.33h-.48v-1.33ZM307.59,558.83v-3.15l-2.25,3.15h2.25Z"></path></g><g><path class="cls-30" d="M293.92,568.01c-.23.14-.5.22-.76.22-1.01,0-1.81-.81-1.81-1.81s.84-1.83,1.87-1.83,1.88.8,1.88,1.82c0,.37-.12.7-.29,1l-1.67,2.81h-.54l1.34-2.21ZM293.22,567.79c.76,0,1.39-.59,1.39-1.38s-.62-1.38-1.39-1.38-1.39.6-1.39,1.38.62,1.38,1.39,1.38Z"></path><path class="cls-30" d="M296.05,567.41c0-1.33.3-2.84,1.72-2.84s1.75,1.39,1.75,2.85-.4,2.84-1.72,2.84c-1.44,0-1.75-1.51-1.75-2.85ZM297.8,569.81c.88,0,1.23-1,1.23-2.36s-.36-2.41-1.26-2.41c-.96,0-1.23,1.1-1.23,2.39s.28,2.37,1.26,2.37Z"></path><path class="cls-30" d="M303.04,568.88h-2.77v-.4l2.79-3.84h.46v3.79h.91v.45h-.91v1.33h-.48v-1.33ZM303.04,568.43v-3.15l-2.25,3.15h2.25Z"></path></g><polyline class="cls-3" points="175.8 533.02 185.94 533.02 203.71 500.25"></polyline><path class="cls-29" d="M205.63,496.7l-4.52,4s2.59-.45,3.63,1.97l.89-5.97Z"></path><polyline class="cls-3" points="282.99 538.02 271.84 538.02 253.96 502.31"></polyline><path class="cls-29" d="M252.15,498.7l4.39,4.15s-2.58-.54-3.69,1.85l-.69-6Z"></path><polyline class="cls-3" points="175.8 542.7 186.65 542.7 208.51 501.27"></polyline><path class="cls-29" d="M210.39,497.7l-4.47,4.05s2.59-.48,3.65,1.93l.82-5.98Z"></path><polyline class="cls-3" points="282.99 547.7 271.13 547.7 250.12 503.35"></polyline><path class="cls-29" d="M248.39,499.7l4.29,4.24s-2.57-.6-3.73,1.77l-.56-6.01Z"></path><polyline class="cls-3" points="175.8 552.38 189.81 552.38 216.53 501.16"></polyline><path class="cls-29" d="M218.39,497.58l-4.45,4.08s2.59-.5,3.66,1.91l.79-5.98Z"></path><polyline class="cls-3" points="282.99 557.38 268.98 557.38 245.03 503.27"></polyline><path class="cls-29" d="M243.39,499.58l4.18,4.35s-2.55-.66-3.78,1.67l-.41-6.02Z"></path><polyline class="cls-3" points="175.8 562.06 190.39 562.06 222.97 502.25"></polyline><path class="cls-29" d="M224.9,498.7l-4.53,3.99s2.59-.45,3.62,1.98l.9-5.97Z"></path><polyline class="cls-3" points="282.99 567.06 267.39 567.06 238.55 503.38"></polyline><path class="cls-29" d="M236.88,499.7l4.22,4.32s-2.55-.64-3.76,1.7l-.46-6.02Z"></path><polyline class="cls-3" points="175.8 571.74 193.39 571.74 229.51 503.27"></polyline><path class="cls-29" d="M231.39,499.7l-4.47,4.05s2.59-.48,3.65,1.93l.82-5.98Z"></path></g></g></svg> 