<?xml version="1.0" encoding="UTF-8"?> <svg xmlns="http://www.w3.org/2000/svg" id="Layer_2" data-name="Layer 2" viewBox="0 0 364.94 535.9"><defs><style> .cls-1 { stroke-dasharray: 1.91 1.91; } .cls-1, .cls-2, .cls-3, .cls-4, .cls-5, .cls-6, .cls-7, .cls-8, .cls-9, .cls-10, .cls-11, .cls-12, .cls-13, .cls-14 { fill: none; } .cls-1, .cls-2, .cls-3, .cls-4, .cls-5, .cls-6, .cls-7, .cls-8, .cls-9, .cls-10, .cls-13, .cls-14 { stroke-linecap: round; stroke-linejoin: round; } .cls-1, .cls-2, .cls-3, .cls-4, .cls-6, .cls-7, .cls-8, .cls-10 { stroke: #75655e; } .cls-1, .cls-2, .cls-3, .cls-4, .cls-6, .cls-7, .cls-8, .cls-10, .cls-12, .cls-13 { stroke-width: .25px; } .cls-15 { fill: #3a2a22; } .cls-2 { stroke-dasharray: 5.13 5.13; } .cls-3 { stroke-dasharray: 5.16 5.16; } .cls-4 { stroke-dasharray: 4.8 4.8; } .cls-5 { stroke: #55453d; stroke-width: .15px; } .cls-16 { fill: #fff; } .cls-6 { stroke-dasharray: 1.42 1.42; } .cls-7 { stroke-dasharray: 3.6 3.6; } .cls-8 { stroke-dasharray: 5.26 5.26; } .cls-9, .cls-11 { stroke-width: .75px; } .cls-9, .cls-11, .cls-13, .cls-14 { stroke: #3a2a22; } .cls-17 { fill: #bc8ebc; } .cls-11, .cls-12 { stroke-miterlimit: 10; } .cls-12 { stroke: #bc8ebc; } .cls-14 { stroke-width: .35px; } </style></defs><g id="Layer_1-2" data-name="Layer 1"><g><polygon class="cls-16" points=".38 498.14 23.13 499.12 63.87 500.42 104.72 501.34 145.46 501.89 145.46 527.21 109.8 526.59 109.61 532.31 109.61 534.62 145.46 535.25 180.21 535.53 214.95 535.34 249.6 534.88 284.34 534.05 319.08 532.85 353.73 531.37 364.56 530.76 364.56 46.9 238.62 46.9 238.62 8.83 190.9 8.83 190.9 20.38 121.26 20.38 121.26 8.83 .38 8.83 .38 498.14"></polygon><polyline class="cls-14" points="10.38 492.84 23.13 493.39 63.87 494.78 104.72 495.7 145.46 496.25"></polyline><polyline class="cls-14" points="10.37 490.84 23.13 491.39 63.87 492.77 104.71 493.7 145.46 494.25"></polyline><g><path class="cls-5" d="M130.44,76.67c25.57,0,43.49-20.73,43.49-46.29"></path><path class="cls-5" d="M70.44,64.95c0,23.13,18.62,39.35,41.58,39.35"></path><path class="cls-5" d="M120.05,245.13c0,23.13,18.62,39.35,41.58,39.35"></path><path class="cls-5" d="M103.88,409.14c0,23.13,18.62,39.35,41.58,39.35"></path></g><line class="cls-5" x1="127.63" y1="20.38" x2="173.92" y2="20.38"></line><line class="cls-5" x1="130.44" y1="30.38" x2="173.92" y2="30.38"></line><rect class="cls-14" x="127.63" y="30.38" width="2.81" height="46.29"></rect><rect class="cls-14" x="70.43" y="62.72" width="41.58" height="2.23"></rect><rect class="cls-14" x="120.05" y="242.9" width="41.58" height="2.23"></rect><rect class="cls-14" x="65.81" y="234.21" width="41.58" height="2.31"></rect><rect class="cls-14" x="103.88" y="406.91" width="41.58" height="2.23"></rect><rect class="cls-14" x="164.76" y="159.74" width="2.69" height="69.3"></rect><line class="cls-14" x1="167.46" y1="194.39" x2="164.76" y2="194.39"></line><rect class="cls-14" x="195.18" y="35" width="2.69" height="41.58"></rect><line class="cls-10" x1="344.5" y1="134.15" x2="344.5" y2="134.9"></line><line class="cls-6" x1="344.5" y1="136.33" x2="344.5" y2="158.36"></line><polyline class="cls-10" points="344.5 159.07 344.5 159.82 343.75 159.82"></polyline><line class="cls-6" x1="342.33" y1="159.82" x2="320.3" y2="159.82"></line><polyline class="cls-10" points="319.59 159.82 318.84 159.82 318.84 159.07"></polyline><line class="cls-6" x1="318.84" y1="157.65" x2="318.84" y2="135.61"></line><polyline class="cls-10" points="318.84 134.9 318.84 134.15 319.59 134.15"></polyline><line class="cls-1" x1="321.5" y1="134.15" x2="324.37" y2="134.15"></line><line class="cls-10" x1="325.32" y1="134.15" x2="326.07" y2="134.15"></line><polyline class="cls-10" points="344.5 225.03 344.5 225.78 343.75 225.78"></polyline><line class="cls-6" x1="342.33" y1="225.78" x2="320.3" y2="225.78"></line><polyline class="cls-10" points="319.59 225.78 318.84 225.78 318.84 225.03"></polyline><line class="cls-6" x1="318.84" y1="223.61" x2="318.84" y2="201.58"></line><polyline class="cls-10" points="318.84 200.87 318.84 200.12 319.59 200.12"></polyline><line class="cls-6" x1="321.01" y1="200.12" x2="343.04" y2="200.12"></line><polyline class="cls-10" points="343.75 200.12 344.5 200.12 344.5 200.87"></polyline><line class="cls-6" x1="344.5" y1="202.29" x2="344.5" y2="224.32"></line><line class="cls-10" x1="272.9" y1="72.71" x2="275.4" y2="72.71"></line><line class="cls-4" x1="280.21" y1="72.71" x2="325.85" y2="72.71"></line><polyline class="cls-10" points="328.25 72.71 330.75 72.71 330.75 75.21"></polyline><polyline class="cls-10" points="330.75 77.61 330.75 80.11 333.25 80.11"></polyline><line class="cls-7" x1="336.85" y1="80.11" x2="342.26" y2="80.11"></line><line class="cls-10" x1="344.06" y1="80.11" x2="346.56" y2="80.11"></line><line class="cls-10" x1="330.75" y1="228.34" x2="330.75" y2="225.84"></line><line class="cls-2" x1="330.75" y1="220.72" x2="330.75" y2="151.47"></line><polyline class="cls-10" points="330.75 148.91 330.75 146.41 333.25 146.41"></polyline><line class="cls-7" x1="336.85" y1="146.41" x2="342.26" y2="146.41"></line><line class="cls-10" x1="344.06" y1="146.41" x2="346.56" y2="146.41"></line><line class="cls-10" x1="346.56" y1="134.15" x2="344.06" y2="134.15"></line><line class="cls-3" x1="338.9" y1="134.15" x2="331.15" y2="134.15"></line><polyline class="cls-10" points="328.57 134.15 326.07 134.15 326.07 131.65"></polyline><line class="cls-8" x1="326.07" y1="126.4" x2="326.07" y2="97.49"></line><polyline class="cls-10" points="326.07 94.87 326.07 92.37 328.57 92.37"></polyline><line class="cls-3" x1="333.73" y1="92.37" x2="341.48" y2="92.37"></line><line class="cls-10" x1="344.06" y1="92.37" x2="346.56" y2="92.37"></line><g><rect class="cls-14" x="23.47" y="147.66" width="17.6" height="7.45" rx="1.08" ry="1.08"></rect><path class="cls-14" d="M27.81,143.52c-.28,0-.54-.11-.73-.32-1.88-2.09-3.09-5.3-3.09-8.9,0-6.31,3.71-11.42,8.28-11.42s8.28,5.11,8.28,11.42c0,3.6-1.2,6.8-3.08,8.9-.19.21-.46.32-.73.32h-8.92Z"></path></g><line class="cls-14" x1="24" y1="134.3" x2="24" y2="147.82"></line><line class="cls-14" x1="40.55" y1="134.3" x2="40.55" y2="147.82"></line><polyline class="cls-14" points="53.06 155.12 53.06 130.1 112.01 130.1"></polyline><path class="cls-14" d="M83.08,147.05h9.87c.4,0,.72-.32.72-.72v-10.9c0-.4-.32-.72-.72-.72h-20.82c-.4,0-.72.32-.72.72v10.9c0,.4.32.72.72.72h9.48"></path><rect class="cls-14" x="81.61" y="144.62" width="1.47" height="5.89"></rect><circle class="cls-14" cx="82.35" cy="140.88" r=".84"></circle><line class="cls-14" x1="318.84" y1="84.62" x2="236.75" y2="84.62"></line><line class="cls-14" x1="272.9" y1="84.62" x2="272.9" y2="56.9"></line><line class="cls-14" x1="272.9" y1="82.12" x2="236.75" y2="82.12"></line><g><rect class="cls-14" x="337.01" y="179.73" width="7.83" height="1.59" rx=".54" ry=".54"></rect><path class="cls-14" d="M331.61,180.53c0-.45-.37-.82-.82-.82s-.82.37-.82.82.37.82.82.82.82-.37.82-.82Z"></path></g><polyline class="cls-14" points="343.63 179.73 343.63 177.52 342.22 177.52 342.22 179.73"></polyline><line class="cls-14" x1="342.22" y1="178.3" x2="343.63" y2="178.3"></line><polyline class="cls-14" points="341.21 179.73 341.21 168.71 321.32 168.71 321.32 192.34 341.21 192.34 341.21 181.32"></polyline><polyline class="cls-14" points="340.22 181.32 340.22 191.35 322.31 191.35 322.31 169.7 340.22 169.7 340.22 179.73"></polyline><line class="cls-14" x1="318.83" y1="84.62" x2="318.84" y2="289.1"></line><line class="cls-14" x1="318.84" y1="246.95" x2="346.56" y2="246.94"></line><line class="cls-14" x1="318.84" y1="228.35" x2="346.56" y2="228.34"></line><line class="cls-14" x1="321.34" y1="246.95" x2="321.34" y2="289.1"></line><line class="cls-14" x1="321.34" y1="228.34" x2="321.34" y2="246.94"></line><rect class="cls-14" x="120.67" y="162.78" width="38.03" height="30.61"></rect><rect class="cls-14" x="120.67" y="195.39" width="38.03" height="30.61"></rect><line class="cls-14" x1="28.67" y1="42.24" x2="28.67" y2="39.03"></line><g><path class="cls-14" d="M28.68,38.17v-11.6c0-1.38,1.12-2.5,2.5-2.5h61.83c1.38.01,2.5,1.13,2.5,2.51v24.04c0,1.38-1.12,2.5-2.5,2.5H31.17c-1.38-.01-2.5-1.13-2.5-2.51v-8.37"></path><path class="cls-14" d="M24.65,39.03h10.86c.24,0,.43-.19.43-.43s-.19-.43-.43-.43h-10.81"></path><path class="cls-14" d="M34.43,38.17c.17-.46.61-.79,1.14-.79.67,0,1.21.54,1.21,1.21s-.54,1.21-1.21,1.21c-.51,0-.95-.32-1.13-.77"></path><path class="cls-14" d="M30.4,38.17c.22-2.66,2.45-4.76,5.17-4.76,2.86,0,5.18,2.32,5.18,5.18,0,2.86-2.32,5.18-5.18,5.18-2.71,0-4.94-2.09-5.16-4.74"></path></g><rect class="cls-14" x="23.68" y="36.05" width=".97" height="5.08"></rect><line class="cls-14" x1="23.68" y1="56.82" x2="99.91" y2="56.82"></line><line class="cls-14" x1="23.68" y1="58.1" x2="99.87" y2="58.11"></line><line class="cls-14" x1="28.36" y1="58.1" x2="28.36" y2="56.82"></line><line class="cls-14" x1="66.37" y1="58.1" x2="66.37" y2="56.82"></line><rect class="cls-14" x="319.84" y="94.77" width="24.28" height="36.98"></rect><rect class="cls-14" x="320.92" y="95.85" width="22.12" height="34.82"></rect><path class="cls-14" d="M321.67,113.26c0-.71.57-1.28,1.28-1.28s1.28.57,1.28,1.28-.57,1.28-1.28,1.28c-.71,0-1.28-.57-1.28-1.28Z"></path><line class="cls-14" x1="320.92" y1="95.85" x2="319.84" y2="94.77"></line><line class="cls-14" x1="320.92" y1="130.67" x2="319.84" y2="131.75"></line><line class="cls-14" x1="343.04" y1="130.67" x2="344.12" y2="131.75"></line><line class="cls-14" x1="343.03" y1="95.85" x2="344.11" y2="94.77"></line><polygon class="cls-14" points="322.95 114.31 324.01 113.26 322.95 112.21 321.9 113.26 322.95 114.31"></polygon><line class="cls-14" x1="324.01" y1="113.26" x2="321.9" y2="113.26"></line><g><path class="cls-13" d="M214.18,53.89c-1.51.03-3.03.06-4.57.13-.8.04-1.6.09-2.35.13-.57.03-1.11.07-1.78.16-.65.09-1.42.25-1.73-.23-.07-.11-.12-.25-.13-.38-.06-.77,1.18-.9,2.24-.97,2.35-.15,3.74.04,5.44.16.9.06,1.9.1,2.89.14.99-.04,1.98-.08,2.89-.14,1.7-.12,3.09-.3,5.44-.16,1.05.07,2.3.2,2.24.97-.01.13-.06.27-.12.38-.31.48-1.08.33-1.73.23-.67-.1-1.21-.13-1.78-.16-.75-.04-1.56-.09-2.35-.13-1.55-.07-3.06-.1-4.57-.13Z"></path><path class="cls-13" d="M214.18,49.2c-1.51.03-3.03.06-4.57.13-.8.04-1.6.09-2.35.13-.57.03-1.11.07-1.78.16-.65.09-1.42.25-1.73-.23-.07-.11-.12-.25-.13-.38-.06-.77,1.18-.9,2.24-.97,2.35-.15,3.74.04,5.44.16.9.06,1.9.1,2.89.14.99-.04,1.98-.08,2.89-.14,1.7-.12,3.09-.3,5.44-.16,1.05.07,2.3.2,2.24.97-.01.13-.06.27-.12.38-.31.48-1.08.33-1.73.23-.67-.1-1.21-.13-1.78-.16-.75-.04-1.56-.09-2.35-.13-1.55-.07-3.06-.1-4.57-.13Z"></path><path class="cls-13" d="M214.18,44.51c-1.51.03-3.03.06-4.57.13-.8.04-1.6.09-2.35.13-.57.03-1.11.07-1.78.16-.65.09-1.42.25-1.73-.23-.07-.11-.12-.25-.13-.38-.06-.77,1.18-.9,2.24-.97,2.35-.15,3.74.04,5.44.16.9.06,1.9.1,2.89.14.99-.04,1.98-.08,2.89-.14,1.7-.12,3.09-.3,5.44-.16,1.05.07,2.3.2,2.24.97-.01.13-.06.27-.12.38-.31.48-1.08.32-1.73.23-.67-.1-1.21-.13-1.78-.16-.75-.04-1.56-.09-2.35-.13-1.55-.07-3.06-.1-4.57-.13Z"></path></g><line class="cls-13" x1="214.18" y1="18.83" x2="214.18" y2="78.89"></line><line class="cls-13" x1="17.3" y1="396.56" x2="145.46" y2="396.56"></line><polyline class="cls-13" points="153.59 450.8 153.59 527.3 190 527.4 226.41 527.12 262.81 526.57 299.12 525.55 335.53 524.07 344.12 523.7"></polyline><polyline class="cls-13" points="145.46 501.89 104.72 501.34 63.87 500.42 23.13 499.12 .38 498.14 .38 492.84"></polyline><line class="cls-13" x1="112.11" y1="526.63" x2="145.46" y2="527.21"></line><line class="cls-13" x1="364.56" y1="528.48" x2="364.56" y2="522.74"></line><rect class="cls-9" x="10.37" y="402.29" width="135.09" height="2.31"></rect><polygon class="cls-9" points="364.56 530.76 353.73 531.37 319.08 532.85 284.34 534.05 249.6 534.88 214.95 535.34 180.21 535.53 145.46 535.25 145.46 450.8 147.77 450.8 147.77 533.03 182.15 533.22 216.43 533.03 250.8 532.57 285.08 531.74 319.45 530.54 353.73 529.06 364.56 528.48 364.56 530.76"></polygon><polygon class="cls-9" points="109.61 534.62 145.46 535.25 145.46 532.94 109.61 532.31 109.61 534.62"></polygon><polyline class="cls-9" points="153.59 527.3 153.59 525.64 147.77 531.37 147.77 533.03 149.44 533.03 155.26 527.3 153.59 527.3"></polyline><polygon class="cls-9" points="345.32 523.65 345.6 529.43 343.29 529.52 343.01 523.75 345.32 523.65"></polygon><polyline class="cls-9" points="310.77 525.09 310.95 530.84 308.64 530.91 308.46 525.18 310.77 525.09"></polyline><polygon class="cls-9" points="241.65 526.89 241.74 532.69 239.43 532.69 239.34 526.93 241.65 526.89"></polygon><rect class="cls-9" x="170.13" y="527.35" width="2.31" height="5.8"></rect><polygon class="cls-9" points="112.11 526.63 111.92 532.36 109.61 532.31 109.8 526.59 112.11 526.63"></polygon><rect class="cls-9" x="144.35" y="396.56" width="2.31" height="5.73"></rect><rect class="cls-9" x="145.46" y="402.29" width="8.13" height="4.62"></rect><rect class="cls-9" x="145.46" y="448.49" width="8.13" height="2.31"></rect><rect class="cls-9" x="85.4" y="396.56" width="2.31" height="5.73"></rect><rect class="cls-9" x="16.1" y="396.56" width="2.31" height="5.73"></rect><rect class="cls-9" x="147.77" y="497.18" width="5.82" height="2.31"></rect><rect class="cls-9" x="10.37" y="396.56" width="2.31" height="5.73"></rect><polygon class="cls-15" points="127.63 30.38 127.63 20.38 121.26 20.38 121.26 8.83 .38 8.83 .38 492.84 10.38 492.84 10.38 396.56 17.3 396.56 17.3 238.28 65.82 238.28 65.82 236.52 26.54 236.52 26.54 234.21 65.82 234.21 65.82 232.46 11.48 232.46 11.48 163.16 112.02 163.16 112.02 232.46 107.4 232.46 107.4 238.28 161.63 238.28 161.63 242.9 167.46 242.9 167.46 229.04 161.63 229.04 161.63 232.46 117.74 232.46 117.74 156.23 161.63 156.23 161.63 159.74 167.46 159.74 167.46 148.19 117.74 148.19 117.74 104.3 112.02 104.3 112.02 155.12 11.48 155.12 11.48 58.1 23.68 58.1 23.68 18.83 99.91 18.83 99.91 58.1 112.02 58.1 112.02 62.72 117.74 62.72 117.74 30.38 127.63 30.38"></polygon><polygon class="cls-11" points="127.63 30.38 127.63 20.38 121.26 20.38 121.26 8.83 .38 8.83 .38 492.84 10.38 492.84 10.38 396.56 17.3 396.56 17.3 238.28 65.82 238.28 65.82 236.52 26.54 236.52 26.54 234.21 65.82 234.21 65.82 232.46 11.48 232.46 11.48 163.16 112.02 163.16 112.02 232.46 107.4 232.46 107.4 238.28 161.63 238.28 161.63 242.9 167.46 242.9 167.46 229.04 161.63 229.04 161.63 232.46 117.74 232.46 117.74 156.23 161.63 156.23 161.63 159.74 167.46 159.74 167.46 148.19 117.74 148.19 117.74 104.3 112.02 104.3 112.02 155.12 11.48 155.12 11.48 58.1 23.68 58.1 23.68 18.83 99.91 18.83 99.91 58.1 112.02 58.1 112.02 62.72 117.74 62.72 117.74 30.38 127.63 30.38"></polygon><polygon class="cls-15" points="173.92 30.33 195.17 30.33 195.17 35 200.9 35 200.9 18.83 228.62 18.83 228.62 78.89 200.9 78.89 200.9 76.58 195.22 76.58 195.22 84.62 236.75 84.62 236.75 56.9 346.56 56.9 346.56 289.1 318.84 289.1 318.84 298.34 354.56 298.34 354.56 517.42 343.85 517.97 344.12 523.7 364.56 522.74 364.56 46.9 238.62 46.9 238.62 8.83 190.9 8.83 190.9 20.33 173.92 20.33 173.92 30.33"></polygon><polygon class="cls-11" points="173.92 30.33 195.17 30.33 195.17 35 200.9 35 200.9 18.83 228.62 18.83 228.62 78.89 200.9 78.89 200.9 76.58 195.22 76.58 195.22 84.62 236.75 84.62 236.75 56.9 346.56 56.9 346.56 289.1 318.84 289.1 318.84 298.34 354.56 298.34 354.56 517.42 343.85 517.97 344.12 523.7 364.56 522.74 364.56 46.9 238.62 46.9 238.62 8.83 190.9 8.83 190.9 20.33 173.92 20.33 173.92 30.33"></polygon><polygon class="cls-15" points="161.63 284.48 161.63 390.74 145.46 390.74 145.46 396.56 153.59 396.56 153.59 404.6 159.32 404.6 159.32 396.56 167.45 396.56 167.45 284.48 161.63 284.48"></polygon><polygon class="cls-11" points="161.63 284.48 161.63 390.74 145.46 390.74 145.46 396.56 153.59 396.56 153.59 404.6 159.32 404.6 159.32 396.56 167.45 396.56 167.45 284.48 161.63 284.48"></polygon><g><path class="cls-17" d="M150.92,8.22c-.02.08-.07.14-.14.14s-.13-.06-.14-.14c-.56-3.3-2.74-4.94-6.02-4.94h-3.84c-1.16,0-1.98-1.01-2.2-2.66-.05-.34.23-.61.47-.46.46.31,1.06.47,1.78.47h3.48c2.95,0,5.22,1.67,6.17,4.98.11.37.5.37.61,0,.96-3.31,3.22-4.98,6.18-4.98h3.48c.72,0,1.32-.16,1.78-.47.23-.16.51.12.47.46-.22,1.64-1.05,2.66-2.21,2.66h-3.84c-3.29,0-5.47,1.64-6.02,4.95h0Z"></path><path class="cls-12" d="M150.92,8.22c-.02.08-.07.14-.14.14s-.13-.06-.14-.14c-.56-3.3-2.74-4.94-6.02-4.94h-3.84c-1.16,0-1.98-1.01-2.2-2.66-.05-.34.23-.61.47-.46.46.31,1.06.47,1.78.47h3.48c2.95,0,5.22,1.67,6.17,4.98.11.37.5.37.61,0,.96-3.31,3.22-4.98,6.18-4.98h3.48c.72,0,1.32-.16,1.78-.47.23-.16.51.12.47.46-.22,1.64-1.05,2.66-2.21,2.66h-3.84c-3.29,0-5.47,1.64-6.02,4.95h0Z"></path></g><g><path class="cls-15" d="M56.33,444.56h2.72c1.68,0,2.68.84,2.68,2.25,0,.94-.46,1.68-1.24,2,1.1.25,1.7,1.07,1.7,2.31,0,1.61-1.02,2.5-2.88,2.5h-2.97v-9.06ZM59.3,448.56c.98,0,1.63-.64,1.63-1.64s-.69-1.61-1.88-1.61h-1.91v3.26h2.16ZM59.25,452.88c1.42,0,2.14-.6,2.14-1.79,0-1.13-.66-1.79-1.79-1.79h-2.46v3.58h2.11Z"></path><path class="cls-15" d="M68.15,452.42c-.43.82-1.25,1.29-2.25,1.29-1.44,0-2.31-.77-2.31-1.94,0-.69.29-1.16.72-1.44.46-.31,1.09-.42,1.77-.42h2.05v-.28c0-1.19-.62-1.83-1.82-1.83-.79,0-1.4.29-1.98,1.02l-.56-.48c.68-.84,1.53-1.21,2.59-1.21,1.63,0,2.54.89,2.54,2.51v3.99h-.71l-.04-1.2ZM65.97,453.07c1.18,0,2.17-.93,2.17-2.2v-.36h-1.95c-.51,0-1.03.08-1.37.32-.28.21-.44.51-.44.94,0,.79.6,1.3,1.6,1.3Z"></path><path class="cls-15" d="M70.73,452.29v-7.73h.77v7.59c0,.6.23.84.64.84.17,0,.38-.04.61-.12v.67c-.29.11-.6.17-.84.17-.72,0-1.18-.44-1.18-1.42Z"></path><path class="cls-15" d="M73.7,450.41c0-1.83,1.06-3.29,2.86-3.29,1.17,0,2.09.58,2.51,1.74l-.7.27c-.27-.82-.9-1.33-1.81-1.33-1.42,0-2.09,1.25-2.09,2.61s.68,2.62,2.09,2.62c.91,0,1.53-.51,1.81-1.33l.7.27c-.42,1.16-1.34,1.75-2.51,1.75-1.8,0-2.86-1.46-2.86-3.3Z"></path><path class="cls-15" d="M80.3,450.41c0-1.92,1.25-3.29,3.05-3.29s3.04,1.37,3.04,3.29-1.27,3.3-3.04,3.3-3.05-1.37-3.05-3.3ZM83.35,453.02c1.37,0,2.26-1.04,2.26-2.61s-.9-2.61-2.26-2.61-2.28,1.05-2.28,2.61.9,2.61,2.28,2.61Z"></path><path class="cls-15" d="M88.14,447.21h.78v1.05c.4-.76,1.12-1.14,2.01-1.14,1.38,0,2.2.81,2.2,2.51v3.99h-.78v-3.71c0-1.45-.55-2.11-1.61-2.11-1.16,0-1.83.79-1.83,2.55v3.27h-.78v-6.41Z"></path><path class="cls-15" d="M96.86,453.42l-2.55-6.21h.86l2.1,5.42,2.11-5.42h.85l-3.69,9.05h-.84l1.17-2.84Z"></path></g><path class="cls-15" d="M135.02,174.88h.65l1.71,6.06,1.76-5.7h.63l1.76,5.7,1.7-6.06h.65l-2.01,6.98h-.63l-1.79-5.71-1.79,5.71h-.64l-2.01-6.98Z"></path><path class="cls-15" d="M136.87,206.92h1.87c2.26,0,3.56,1.29,3.56,3.54s-1.27,3.43-3.57,3.43h-1.86v-6.98ZM138.68,213.32c1.92,0,2.99-.89,2.99-2.88s-1.08-2.95-2.94-2.95h-1.24v5.83h1.19Z"></path><g><path class="cls-15" d="M52.57,194.35h.65l1.71,6.06,1.76-5.7h.63l1.76,5.7,1.7-6.06h.65l-2.01,6.98h-.63l-1.79-5.71-1.79,5.71h-.64l-2.01-6.98Z"></path><path class="cls-15" d="M62.58,194.35h.62v6.98h-.62v-6.98Z"></path><path class="cls-15" d="M64.63,197.84c0-2.16,1.26-3.58,3.16-3.58,1.35,0,2.39.71,2.84,1.89l-.58.22c-.38-.96-1.17-1.52-2.26-1.52-1.55,0-2.54,1.17-2.54,2.99s.99,3,2.54,3c1.09,0,1.89-.56,2.26-1.52l.58.22c-.45,1.18-1.49,1.9-2.84,1.9-1.89,0-3.16-1.42-3.16-3.59Z"></path></g><g><path class="cls-15" d="M140.69,108.84h5.86v.73h-5.06v3.37h4.39v.73h-4.39v4.24h-.81v-9.06Z"></path><path class="cls-15" d="M147.28,114.69c0-1.92,1.25-3.29,3.05-3.29s3.04,1.37,3.04,3.29-1.27,3.3-3.04,3.3-3.05-1.36-3.05-3.3ZM150.33,117.3c1.37,0,2.26-1.04,2.26-2.61s-.9-2.61-2.26-2.61-2.28,1.05-2.28,2.61.9,2.61,2.28,2.61Z"></path><path class="cls-15" d="M156.85,117.7l-2.55-6.21h.86l2.1,5.42,2.11-5.42h.85l-3.69,9.05h-.84l1.17-2.84Z"></path><path class="cls-15" d="M161.18,114.74c0-1.84.99-3.34,2.81-3.34,1.96,0,2.76,1.53,2.76,2.94,0,.1-.01.4-.04.55h-4.76c.03,1.51.84,2.39,2.14,2.39.82,0,1.35-.23,1.91-.83l.55.49c-.73.75-1.43,1.05-2.46,1.05-1.89,0-2.91-1.41-2.91-3.25ZM165.99,114.31c0-.08,0-.16,0-.24,0-.92-.58-2.02-2-2.02-1.23,0-1.98.98-2.07,2.26h4.06Z"></path><path class="cls-15" d="M168.47,111.49h.78v1.09c.43-.78,1.31-1.18,2.02-1.18.33,0,.66.07.99.24l-.39.7c-.21-.1-.51-.17-.77-.17-.68,0-1.46.36-1.74,1.3-.08.27-.12.57-.12,1.27v3.15h-.78v-6.41Z"></path></g><g><path class="cls-15" d="M208.71,214.48h2.43c2.94,0,4.62,1.68,4.62,4.6s-1.64,4.46-4.63,4.46h-2.42v-9.06ZM211.06,222.8c2.5,0,3.89-1.16,3.89-3.74s-1.4-3.83-3.82-3.83h-1.61v7.57h1.54Z"></path><path class="cls-15" d="M217.37,214.48h.94v1.39h-.94v-1.39ZM217.46,217.13h.77v6.41h-.77v-6.41Z"></path><path class="cls-15" d="M220.26,217.13h.78v1.05c.4-.76,1.12-1.14,2.01-1.14,1.38,0,2.2.81,2.2,2.51v3.99h-.78v-3.71c0-1.45-.55-2.11-1.61-2.11-1.16,0-1.83.79-1.83,2.55v3.27h-.78v-6.41Z"></path><path class="cls-15" d="M227.14,214.48h.94v1.39h-.94v-1.39ZM227.23,217.13h.77v6.41h-.77v-6.41Z"></path><path class="cls-15" d="M230.03,217.13h.78v1.05c.4-.76,1.12-1.14,2.01-1.14,1.38,0,2.2.81,2.2,2.51v3.99h-.78v-3.71c0-1.45-.55-2.11-1.61-2.11-1.16,0-1.83.79-1.83,2.55v3.27h-.78v-6.41Z"></path><path class="cls-15" d="M236.49,224.3s0-.1.03-.26l1.11-.88c-.57-.22-.96-.59-.96-1.26,0-.53.27-.9.72-1.2-.36-.37-.56-.87-.56-1.45,0-1.3,1.04-2.2,2.39-2.2.64,0,1.22.21,1.64.59l1.02-.86.4.49-1,.88c.19.33.3.71.3,1.14,0,1.28-.96,2.13-2.33,2.13-.53,0-.99-.12-1.37-.34-.31.18-.45.42-.45.72,0,.66.63.83,1.62.98,1.6.25,2.99.44,2.99,1.75,0,1.16-1.05,1.78-2.7,1.78-1.82,0-2.85-.7-2.85-2ZM239.35,225.69c1.09,0,1.92-.34,1.92-1.08,0-.86-1.16-.96-2.31-1.14-.31-.05-.6-.1-.89-.17l-.8.92c-.01.09-.01.11-.01.15,0,.9.79,1.33,2.09,1.33ZM239.22,220.77c.98,0,1.59-.65,1.59-1.53s-.64-1.56-1.58-1.56-1.62.65-1.62,1.55.63,1.55,1.61,1.55Z"></path><path class="cls-15" d="M246.97,214.48h2.52c1.99,0,2.97.93,2.97,2.5,0,1.25-.64,2.07-1.85,2.38l2.44,4.19h-.92l-2.34-4.07c-.21,0-.44,0-.65,0h-1.36v4.06h-.81v-9.06ZM249.42,218.76c1.38,0,2.24-.55,2.24-1.78s-.88-1.77-2.24-1.77h-1.64v3.56h1.64Z"></path><path class="cls-15" d="M253.98,220.33c0-1.92,1.25-3.29,3.05-3.29s3.04,1.37,3.04,3.29-1.27,3.3-3.04,3.3-3.05-1.36-3.05-3.3ZM257.03,222.94c1.37,0,2.26-1.04,2.26-2.61s-.9-2.61-2.26-2.61-2.28,1.05-2.28,2.61.9,2.61,2.28,2.61Z"></path><path class="cls-15" d="M261.51,220.33c0-1.92,1.25-3.29,3.05-3.29s3.04,1.37,3.04,3.29-1.27,3.3-3.04,3.3-3.05-1.36-3.05-3.3ZM264.56,222.94c1.37,0,2.26-1.04,2.26-2.61s-.9-2.61-2.26-2.61-2.28,1.05-2.28,2.61.9,2.61,2.28,2.61Z"></path><path class="cls-15" d="M269.35,217.13h.78v1.1c.38-.85,1.11-1.19,1.88-1.19.91,0,1.57.4,1.89,1.25.4-.83,1.09-1.25,2-1.25,1.55,0,2.13,1.16,2.13,2.69v3.82h-.78v-3.64c0-1.33-.39-2.18-1.52-2.18-1.02,0-1.65.77-1.65,2.26v3.57h-.78v-3.76c0-1.4-.52-2.07-1.5-2.07-1.03,0-1.67.79-1.67,2.26v3.57h-.78v-6.41Z"></path></g><g><path class="cls-15" d="M255.05,108.44h.81v4.86l4.65-4.86h1.09l-3.45,3.54,3.48,5.52h-.95l-3.11-4.93-1.71,1.76v3.17h-.81v-9.06Z"></path><path class="cls-15" d="M262.78,108.44h.94v1.39h-.94v-1.39ZM262.86,111.09h.77v6.41h-.77v-6.41Z"></path><path class="cls-15" d="M266.43,116.02v-4.31h-1.42v-.62h1.42v-1.85l.79-.46v2.31h1.54v.62h-1.54v4.12c0,.71.22,1.11.81,1.11.19,0,.46-.04.73-.12v.62c-.32.1-.64.16-.92.16-.85,0-1.4-.49-1.4-1.57Z"></path><path class="cls-15" d="M269.78,114.29c0-1.83,1.06-3.29,2.86-3.29,1.17,0,2.09.58,2.51,1.74l-.7.27c-.27-.82-.9-1.33-1.81-1.33-1.42,0-2.09,1.25-2.09,2.61s.68,2.62,2.09,2.62c.91,0,1.53-.51,1.81-1.33l.7.27c-.42,1.16-1.34,1.75-2.51,1.75-1.8,0-2.86-1.46-2.86-3.3Z"></path><path class="cls-15" d="M276.78,108.44h.78v3.69c.4-.75,1.1-1.13,2.01-1.13,1.4,0,2.2.85,2.2,2.51v3.99h-.78v-3.71c0-1.43-.53-2.11-1.61-2.11-1.18,0-1.83.83-1.83,2.55v3.27h-.78v-9.06Z"></path><path class="cls-15" d="M283.41,114.34c0-1.84.99-3.34,2.81-3.34,1.96,0,2.76,1.53,2.76,2.94,0,.1-.01.4-.04.55h-4.76c.03,1.51.84,2.39,2.14,2.39.82,0,1.35-.23,1.91-.83l.55.49c-.73.75-1.43,1.05-2.46,1.05-1.89,0-2.91-1.41-2.91-3.25ZM288.23,113.91c0-.08,0-.16,0-.24,0-.92-.58-2.02-2-2.02-1.23,0-1.98.98-2.07,2.26h4.06Z"></path><path class="cls-15" d="M290.72,111.09h.78v1.05c.4-.76,1.12-1.14,2.01-1.14,1.38,0,2.2.81,2.2,2.51v3.99h-.78v-3.71c0-1.45-.55-2.11-1.61-2.11-1.16,0-1.83.79-1.83,2.55v3.27h-.78v-6.41Z"></path></g><path class="cls-15" d="M245.61,69.66c0-2.17,1.27-3.59,3.16-3.59s3.18,1.42,3.18,3.59-1.27,3.58-3.18,3.58-3.16-1.42-3.16-3.58ZM248.77,72.65c1.57,0,2.55-1.16,2.55-2.99s-.99-3-2.55-3-2.54,1.15-2.54,3,.99,2.99,2.54,2.99Z"></path><path class="cls-15" d="M255.64,65.17h.48l-3.55,9.08h-.47l3.55-9.08Z"></path><path class="cls-15" d="M257.35,66.17h.93l2.35,5.66,2.35-5.66h.92v6.98h-.62v-6.16l-2.35,5.59h-.61l-2.36-5.59v6.16h-.62v-6.98Z"></path><g><path class="cls-15" d="M326.2,263.87h1.94c1.53,0,2.29.72,2.29,1.92,0,.97-.5,1.6-1.43,1.83l1.88,3.22h-.71l-1.8-3.13c-.16,0-.34,0-.5,0h-1.05v3.13h-.62v-6.98ZM328.08,267.17c1.06,0,1.73-.43,1.73-1.37s-.68-1.37-1.73-1.37h-1.26v2.74h1.26Z"></path><path class="cls-15" d="M332.05,263.87h4.56v.56h-3.94v2.59h3.53v.56h-3.53v2.7h3.94v.56h-4.56v-6.98Z"></path><path class="cls-15" d="M337.91,263.87h4.51v.56h-3.89v2.59h3.38v.56h-3.38v3.26h-.62v-6.98Z"></path></g><path class="cls-15" d="M332.14,233.99h1.94c1.46,0,2.29.69,2.29,1.95s-.83,1.96-2.29,1.96h-1.33v3.07h-.62v-6.98ZM334.02,237.33c1.09,0,1.73-.47,1.73-1.4s-.62-1.39-1.73-1.39h-1.27v2.79h1.27Z"></path><g><path class="cls-15" d="M324.44,209.33h.65l1.71,6.06,1.76-5.7h.63l1.76,5.7,1.7-6.06h.65l-2.01,6.98h-.63l-1.79-5.71-1.79,5.71h-.64l-2.01-6.98Z"></path><path class="cls-15" d="M334.45,209.33h4.51v.56h-3.89v2.59h3.38v.56h-3.38v3.26h-.62v-6.98Z"></path></g><g><path class="cls-15" d="M324.51,143.21h1.87c2.26,0,3.56,1.29,3.56,3.54s-1.27,3.43-3.57,3.43h-1.86v-6.98ZM326.32,149.61c1.92,0,2.99-.89,2.99-2.88s-1.08-2.95-2.94-2.95h-1.24v5.83h1.19Z"></path><path class="cls-15" d="M330.6,143.21h.65l1.71,6.06,1.76-5.7h.63l1.76,5.7,1.7-6.06h.65l-2.01,6.98h-.63l-1.79-5.71-1.79,5.71h-.64l-2.01-6.98Z"></path></g><g><path class="cls-15" d="M40.14,313.3h2.52c1.9,0,2.97.89,2.97,2.53s-1.07,2.54-2.97,2.54h-1.72v3.99h-.8v-9.06ZM42.59,317.65c1.41,0,2.24-.61,2.24-1.81s-.81-1.81-2.24-1.81h-1.64v3.62h1.64Z"></path><path class="cls-15" d="M47.15,315.95h.78v1.09c.43-.78,1.31-1.18,2.02-1.18.33,0,.66.07.99.24l-.39.7c-.21-.1-.51-.17-.77-.17-.68,0-1.46.36-1.74,1.3-.08.27-.12.57-.12,1.27v3.15h-.78v-6.41Z"></path><path class="cls-15" d="M52.21,313.3h.94v1.39h-.94v-1.39ZM52.29,315.95h.77v6.41h-.77v-6.41Z"></path><path class="cls-15" d="M55.1,315.95h.78v1.1c.38-.84,1.11-1.19,1.88-1.19.91,0,1.57.4,1.89,1.25.4-.83,1.09-1.25,2-1.25,1.55,0,2.13,1.16,2.13,2.68v3.82h-.78v-3.64c0-1.33-.39-2.18-1.52-2.18-1.02,0-1.65.77-1.65,2.26v3.57h-.78v-3.76c0-1.4-.52-2.07-1.5-2.07-1.03,0-1.67.79-1.67,2.26v3.57h-.78v-6.41Z"></path><path class="cls-15" d="M69.92,321.16c-.43.82-1.25,1.29-2.25,1.29-1.44,0-2.31-.77-2.31-1.94,0-.69.29-1.16.72-1.44.46-.31,1.09-.42,1.77-.42h2.05v-.28c0-1.19-.62-1.83-1.82-1.83-.79,0-1.4.29-1.98,1.02l-.56-.48c.68-.84,1.53-1.21,2.59-1.21,1.63,0,2.54.89,2.54,2.51v3.99h-.71l-.04-1.2ZM67.75,321.81c1.18,0,2.17-.93,2.17-2.2v-.36h-1.95c-.51,0-1.03.08-1.37.32-.28.21-.44.51-.44.94,0,.79.6,1.3,1.6,1.3Z"></path><path class="cls-15" d="M72.63,315.95h.78v1.09c.43-.78,1.31-1.18,2.02-1.18.33,0,.66.07.99.24l-.39.7c-.21-.1-.51-.17-.77-.17-.68,0-1.46.36-1.74,1.3-.08.27-.12.57-.12,1.27v3.15h-.78v-6.41Z"></path><path class="cls-15" d="M79.69,322.16l-2.55-6.21h.86l2.1,5.42,2.11-5.42h.85l-3.69,9.05h-.84l1.17-2.84Z"></path><path class="cls-15" d="M87.95,313.3h2.72c1.68,0,2.68.84,2.68,2.25,0,.94-.46,1.68-1.24,2,1.1.25,1.7,1.07,1.7,2.31,0,1.61-1.02,2.5-2.88,2.5h-2.97v-9.06ZM90.92,317.3c.98,0,1.63-.64,1.63-1.64s-.69-1.61-1.88-1.61h-1.91v3.26h2.16ZM90.87,321.62c1.42,0,2.14-.6,2.14-1.79,0-1.13-.66-1.79-1.79-1.79h-2.46v3.58h2.11Z"></path><path class="cls-15" d="M95.27,319.2c0-1.84.99-3.34,2.81-3.34,1.96,0,2.76,1.53,2.76,2.94,0,.1-.01.4-.04.55h-4.76c.03,1.51.84,2.39,2.14,2.39.82,0,1.35-.23,1.91-.83l.55.49c-.73.75-1.43,1.05-2.46,1.05-1.89,0-2.91-1.41-2.91-3.25ZM100.09,318.77c0-.08,0-.16,0-.24,0-.92-.58-2.01-2-2.01-1.23,0-1.98.98-2.07,2.26h4.06Z"></path><path class="cls-15" d="M102.25,319.15c0-1.96,1.29-3.29,2.92-3.29,1.05,0,1.87.54,2.29,1.36v-3.92h.77v9.06h-.77v-1.26c-.44.84-1.25,1.35-2.29,1.35-1.72,0-2.92-1.42-2.92-3.3ZM105.3,321.73c1.3,0,2.23-1.08,2.23-2.58s-.93-2.58-2.23-2.58-2.26,1.09-2.26,2.58.95,2.58,2.26,2.58Z"></path><path class="cls-15" d="M110.27,315.95h.78v1.09c.43-.78,1.31-1.18,2.02-1.18.33,0,.66.07.99.24l-.39.7c-.21-.1-.51-.17-.77-.17-.68,0-1.46.36-1.74,1.3-.08.27-.12.57-.12,1.27v3.15h-.78v-6.41Z"></path><path class="cls-15" d="M114.65,319.15c0-1.92,1.25-3.29,3.05-3.29s3.04,1.37,3.04,3.29-1.27,3.3-3.04,3.3-3.05-1.37-3.05-3.3ZM117.7,321.76c1.37,0,2.26-1.04,2.26-2.61s-.9-2.61-2.26-2.61-2.28,1.05-2.28,2.61.9,2.61,2.28,2.61Z"></path><path class="cls-15" d="M122.18,319.15c0-1.92,1.25-3.29,3.05-3.29s3.04,1.37,3.04,3.29-1.27,3.3-3.04,3.3-3.05-1.37-3.05-3.3ZM125.23,321.76c1.37,0,2.26-1.04,2.26-2.61s-.9-2.61-2.26-2.61-2.28,1.05-2.28,2.61.9,2.61,2.28,2.61Z"></path><path class="cls-15" d="M130.02,315.95h.78v1.1c.38-.84,1.11-1.19,1.88-1.19.91,0,1.57.4,1.89,1.25.4-.83,1.09-1.25,2-1.25,1.55,0,2.13,1.16,2.13,2.68v3.82h-.78v-3.64c0-1.33-.39-2.18-1.52-2.18-1.02,0-1.65.77-1.65,2.26v3.57h-.78v-3.76c0-1.4-.52-2.07-1.5-2.07-1.03,0-1.67.79-1.67,2.26v3.57h-.78v-6.41Z"></path></g><g><path class="cls-15" d="M227.58,391.06h.81v8.33h4.18v.73h-4.99v-9.06Z"></path><path class="cls-15" d="M233.71,391.06h.94v1.39h-.94v-1.39ZM233.79,393.71h.77v6.41h-.77v-6.41Z"></path><path class="cls-15" d="M235.96,393.71h.86l2.1,5.42,2.11-5.42h.85l-2.61,6.41h-.68l-2.63-6.41Z"></path><path class="cls-15" d="M243.21,391.06h.94v1.39h-.94v-1.39ZM243.3,393.71h.77v6.41h-.77v-6.41Z"></path><path class="cls-15" d="M246.11,393.71h.78v1.05c.4-.76,1.12-1.14,2.01-1.14,1.38,0,2.2.81,2.2,2.51v3.99h-.78v-3.71c0-1.45-.55-2.11-1.61-2.11-1.16,0-1.83.79-1.83,2.55v3.27h-.78v-6.41Z"></path><path class="cls-15" d="M252.56,400.88s0-.1.03-.26l1.11-.88c-.57-.22-.96-.59-.96-1.26,0-.53.27-.9.72-1.2-.36-.37-.56-.87-.56-1.45,0-1.3,1.04-2.2,2.38-2.2.64,0,1.22.21,1.64.58l1.02-.86.4.49-1,.88c.19.33.3.71.3,1.14,0,1.28-.96,2.13-2.33,2.13-.53,0-.99-.12-1.37-.34-.31.17-.45.42-.45.71,0,.66.63.83,1.62.98,1.6.25,2.99.44,2.99,1.75,0,1.16-1.05,1.78-2.7,1.78-1.82,0-2.85-.7-2.85-2ZM255.42,402.27c1.09,0,1.92-.34,1.92-1.08,0-.86-1.16-.96-2.31-1.14-.31-.05-.6-.1-.89-.17l-.8.92c-.01.09-.01.11-.01.15,0,.9.79,1.33,2.09,1.33ZM255.29,397.35c.98,0,1.59-.65,1.59-1.53s-.64-1.56-1.58-1.56-1.62.65-1.62,1.55.63,1.55,1.61,1.55Z"></path><path class="cls-15" d="M263.04,391.06h2.52c1.99,0,2.97.93,2.97,2.5,0,1.25-.64,2.07-1.85,2.38l2.44,4.19h-.92l-2.34-4.07c-.21,0-.44,0-.65,0h-1.36v4.06h-.81v-9.06ZM265.49,395.34c1.38,0,2.24-.55,2.24-1.78s-.88-1.77-2.24-1.77h-1.64v3.56h1.64Z"></path><path class="cls-15" d="M270.05,396.91c0-1.92,1.25-3.29,3.05-3.29s3.04,1.37,3.04,3.29-1.27,3.3-3.04,3.3-3.05-1.37-3.05-3.3ZM273.1,399.52c1.37,0,2.26-1.04,2.26-2.61s-.9-2.61-2.26-2.61-2.28,1.05-2.28,2.61.9,2.61,2.28,2.61Z"></path><path class="cls-15" d="M277.59,396.91c0-1.92,1.25-3.29,3.05-3.29s3.04,1.37,3.04,3.29-1.27,3.3-3.04,3.3-3.05-1.37-3.05-3.3ZM280.63,399.52c1.37,0,2.26-1.04,2.26-2.61s-.9-2.61-2.26-2.61-2.28,1.05-2.28,2.61.9,2.61,2.28,2.61Z"></path><path class="cls-15" d="M285.42,393.71h.78v1.1c.38-.84,1.11-1.19,1.88-1.19.91,0,1.57.4,1.89,1.25.4-.83,1.09-1.25,2-1.25,1.55,0,2.13,1.16,2.13,2.68v3.82h-.78v-3.64c0-1.33-.39-2.18-1.52-2.18-1.02,0-1.65.77-1.65,2.26v3.57h-.78v-3.76c0-1.4-.52-2.07-1.5-2.07-1.03,0-1.67.79-1.67,2.26v3.57h-.78v-6.41Z"></path></g></g></g></svg> 