<?xml version="1.0" encoding="UTF-8"?> <svg xmlns="http://www.w3.org/2000/svg" xmlns:xlink="http://www.w3.org/1999/xlink" id="Layer_2" data-name="Layer 2" viewBox="0 0 380.87 420.53"><defs><style> .cls-1, .cls-2, .cls-3, .cls-4, .cls-5, .cls-6, .cls-7, .cls-8, .cls-9, .cls-10, .cls-11, .cls-12, .cls-13, .cls-14, .cls-15, .cls-16 { fill: none; } .cls-2 { stroke: #55453d; stroke-width: .12px; } .cls-2, .cls-3, .cls-4, .cls-5, .cls-6, .cls-7, .cls-8, .cls-9, .cls-10, .cls-12, .cls-14, .cls-15, .cls-16 { stroke-linecap: round; stroke-linejoin: round; } .cls-3 { stroke-dasharray: 4.03 4.03; } .cls-3, .cls-4, .cls-8, .cls-9, .cls-10, .cls-12, .cls-13, .cls-14, .cls-15, .cls-16 { stroke-width: .19px; } .cls-3, .cls-4, .cls-9, .cls-10, .cls-12, .cls-14, .cls-15, .cls-16 { stroke: #75655e; } .cls-5, .cls-6, .cls-7, .cls-8, .cls-11 { stroke: #3a2a22; } .cls-5, .cls-11 { stroke-width: .58px; } .cls-6 { stroke-width: .27px; } .cls-7 { stroke-width: .27px; } .cls-9 { stroke-dasharray: 4 4; } .cls-10 { stroke-dasharray: 4.1 4.1; } .cls-17 { fill: #bc8ebc; } .cls-11, .cls-13 { stroke-miterlimit: 10; } .cls-18 { clip-path: url(#clippath-11); } .cls-19 { clip-path: url(#clippath-10); } .cls-20 { clip-path: url(#clippath-3); } .cls-21 { clip-path: url(#clippath-4); } .cls-22 { clip-path: url(#clippath-2); } .cls-23 { clip-path: url(#clippath-7); } .cls-24 { clip-path: url(#clippath-6); } .cls-25 { clip-path: url(#clippath-9); } .cls-26 { clip-path: url(#clippath-8); } .cls-27 { clip-path: url(#clippath-5); } .cls-12 { stroke-dasharray: 2.81 2.81; } .cls-13 { stroke: #bc8ebc; } .cls-28 { fill: #fff; } .cls-14 { stroke-dasharray: 3.75 3.75; } .cls-15 { stroke-dasharray: 1.11 1.11; } .cls-29 { fill: #3a2a22; } .cls-16 { stroke-dasharray: 1.49 1.49; } </style><clipPath id="clippath"><rect class="cls-1" width="291.48" height="420.53"></rect></clipPath><clipPath id="clippath-2"><rect class="cls-1" width="291.48" height="420.53"></rect></clipPath><clipPath id="clippath-3"><rect class="cls-1" width="291.48" height="420.53"></rect></clipPath><clipPath id="clippath-4"><rect class="cls-1" width="291.48" height="420.53"></rect></clipPath><clipPath id="clippath-5"><rect class="cls-1" width="291.48" height="420.53"></rect></clipPath><clipPath id="clippath-6"><rect class="cls-1" width="291.48" height="420.53"></rect></clipPath><clipPath id="clippath-7"><rect class="cls-1" width="291.48" height="420.53"></rect></clipPath><clipPath id="clippath-8"><rect class="cls-1" width="291.48" height="420.53"></rect></clipPath><clipPath id="clippath-9"><rect class="cls-1" width="291.48" height="420.53"></rect></clipPath><clipPath id="clippath-10"><rect class="cls-1" width="291.48" height="420.53"></rect></clipPath><clipPath id="clippath-11"><rect class="cls-1" width="291.48" height="420.53"></rect></clipPath></defs><g id="Layer_1-2" data-name="Layer 1"><g><polygon class="cls-28" points="3.71 390.3 21.45 391.06 53.23 392.07 85.09 392.79 116.87 393.22 116.87 412.97 89.05 412.48 88.91 416.95 88.91 418.75 116.87 419.24 143.97 419.46 171.07 419.31 198.1 418.95 225.2 418.3 252.3 417.37 279.32 416.21 287.77 415.74 287.77 38.32 189.54 38.32 189.54 8.63 152.32 8.63 152.32 17.64 97.99 17.64 97.99 8.63 3.71 8.63 3.71 390.3"></polygon><polyline class="cls-7" points="11.51 386.16 21.45 386.59 53.24 387.67 85.09 388.39 116.87 388.82"></polyline><polyline class="cls-7" points="11.51 384.6 21.45 385.03 53.23 386.11 85.09 386.83 116.87 387.26"></polyline><g class="cls-22"><path class="cls-2" d="M105.15,61.55c19.94,0,33.92-16.17,33.92-36.11"></path><path class="cls-2" d="M58.35,52.4c0,18.04,14.52,30.69,32.43,30.69"></path><path class="cls-2" d="M97.05,192.94c0,18.04,14.52,30.69,32.43,30.69"></path><path class="cls-2" d="M84.44,320.87c0,18.05,14.52,30.69,32.43,30.69"></path></g><line class="cls-2" x1="102.96" y1="17.64" x2="139.07" y2="17.64"></line><line class="cls-2" x1="105.15" y1="25.44" x2="139.07" y2="25.44"></line><rect class="cls-7" x="102.96" y="25.44" width="2.19" height="36.11"></rect><rect class="cls-7" x="58.35" y="50.66" width="32.43" height="1.74"></rect><rect class="cls-7" x="97.05" y="191.2" width="32.43" height="1.74"></rect><rect class="cls-6" x="54.93" y="184.43" width="32.25" height="1.8"></rect><rect class="cls-7" x="84.44" y="319.13" width="32.43" height="1.74"></rect><rect class="cls-7" x="131.93" y="126.34" width="2.1" height="54.05"></rect><line class="cls-7" x1="134.03" y1="153.37" x2="131.93" y2="153.37"></line><rect class="cls-7" x="155.65" y="29.04" width="2.1" height="32.43"></rect><line class="cls-4" x1="272.13" y1="106.38" x2="272.13" y2="106.97"></line><line class="cls-15" x1="272.13" y1="108.08" x2="272.13" y2="125.26"></line><polyline class="cls-4" points="272.13 125.82 272.13 126.4 271.54 126.4"></polyline><line class="cls-15" x1="270.43" y1="126.4" x2="253.25" y2="126.4"></line><polyline class="cls-4" points="252.69 126.4 252.11 126.4 252.11 125.82"></polyline><line class="cls-15" x1="252.11" y1="124.71" x2="252.11" y2="107.52"></line><polyline class="cls-4" points="252.11 106.97 252.11 106.38 252.69 106.38"></polyline><line class="cls-16" x1="254.18" y1="106.38" x2="256.42" y2="106.38"></line><line class="cls-4" x1="257.16" y1="106.38" x2="257.75" y2="106.38"></line><polyline class="cls-4" points="272.13 177.27 272.13 177.85 271.54 177.85"></polyline><line class="cls-15" x1="270.43" y1="177.85" x2="253.25" y2="177.85"></line><polyline class="cls-4" points="252.69 177.85 252.11 177.85 252.11 177.27"></polyline><line class="cls-15" x1="252.11" y1="176.16" x2="252.11" y2="158.97"></line><polyline class="cls-4" points="252.11 158.42 252.11 157.83 252.69 157.83"></polyline><line class="cls-15" x1="253.8" y1="157.83" x2="270.99" y2="157.83"></line><polyline class="cls-4" points="271.54 157.83 272.13 157.83 272.13 158.42"></polyline><line class="cls-15" x1="272.13" y1="159.53" x2="272.13" y2="176.71"></line><line class="cls-4" x1="216.28" y1="58.46" x2="218.23" y2="58.46"></line><line class="cls-14" x1="221.97" y1="58.46" x2="257.57" y2="58.46"></line><polyline class="cls-4" points="259.45 58.46 261.4 58.46 261.4 60.41"></polyline><polyline class="cls-4" points="261.4 62.28 261.4 64.23 263.35 64.23"></polyline><line class="cls-12" x1="266.16" y1="64.23" x2="270.37" y2="64.23"></line><line class="cls-4" x1="271.78" y1="64.23" x2="273.73" y2="64.23"></line><line class="cls-4" x1="261.4" y1="179.85" x2="261.4" y2="177.9"></line><line class="cls-9" x1="261.4" y1="173.9" x2="261.4" y2="119.89"></line><polyline class="cls-4" points="261.4 117.89 261.4 115.94 263.35 115.94"></polyline><line class="cls-12" x1="266.16" y1="115.94" x2="270.37" y2="115.94"></line><line class="cls-4" x1="271.78" y1="115.94" x2="273.73" y2="115.94"></line><line class="cls-4" x1="273.73" y1="106.38" x2="271.78" y2="106.38"></line><line class="cls-3" x1="267.75" y1="106.38" x2="261.71" y2="106.38"></line><polyline class="cls-4" points="259.7 106.38 257.75 106.38 257.75 104.43"></polyline><line class="cls-10" x1="257.75" y1="100.33" x2="257.75" y2="77.79"></line><polyline class="cls-4" points="257.75 75.74 257.75 73.79 259.7 73.79"></polyline><line class="cls-3" x1="263.72" y1="73.79" x2="269.76" y2="73.79"></line><line class="cls-4" x1="271.78" y1="73.79" x2="273.73" y2="73.79"></line><g class="cls-20"><rect class="cls-7" x="21.72" y="116.92" width="13.73" height="5.81" rx=".84" ry=".84"></rect><path class="cls-7" d="M25.11,113.69c-.22,0-.42-.09-.57-.25-1.47-1.63-2.41-4.13-2.41-6.94,0-4.92,2.89-8.91,6.46-8.91s6.45,3.99,6.45,8.91c0,2.8-.94,5.31-2.41,6.94-.15.17-.36.25-.57.25h-6.96Z"></path></g><line class="cls-7" x1="22.13" y1="106.5" x2="22.13" y2="117.04"></line><line class="cls-7" x1="35.04" y1="106.5" x2="35.04" y2="117.04"></line><polyline class="cls-7" points="44.8 122.74 44.8 103.22 90.78 103.22"></polyline><g class="cls-21"><path class="cls-7" d="M68.22,116.45h7.7c.31,0,.56-.25.56-.56v-8.5c0-.31-.25-.56-.56-.56h-16.24c-.31,0-.56.25-.56.56v8.5c0,.31.25.56.56.56h7.4"></path></g><rect class="cls-7" x="67.07" y="114.55" width="1.15" height="4.59"></rect><g class="cls-27"><path class="cls-7" d="M66.99,111.63c0,.36.29.66.66.66s.66-.29.66-.66-.3-.66-.66-.66-.66.29-.66.66Z"></path></g><line class="cls-7" x1="252.11" y1="67.75" x2="188.08" y2="67.74"></line><line class="cls-7" x1="216.28" y1="67.74" x2="216.28" y2="46.12"></line><line class="cls-7" x1="216.28" y1="65.8" x2="188.08" y2="65.8"></line><g class="cls-24"><path class="cls-7" d="M266.7,141.94h5.26c.23,0,.42.19.42.42v.4c0,.23-.19.42-.42.42h-5.26c-.23,0-.42-.19-.42-.42v-.4c0-.23.19-.42.42-.42Z"></path><path class="cls-7" d="M262.07,142.56c0-.35-.29-.64-.64-.64s-.64.29-.64.64.29.64.64.64.64-.29.64-.64Z"></path></g><polyline class="cls-7" points="271.45 141.94 271.45 140.21 270.34 140.21 270.34 141.94"></polyline><line class="cls-7" x1="270.34" y1="140.82" x2="271.45" y2="140.82"></line><polyline class="cls-7" points="269.56 141.94 269.56 133.34 254.04 133.34 254.04 151.77 269.56 151.77 269.56 143.18"></polyline><polyline class="cls-7" points="268.79 143.18 268.79 151 254.81 151 254.81 134.11 268.79 134.11 268.79 141.94"></polyline><line class="cls-7" x1="252.1" y1="67.75" x2="252.11" y2="227.24"></line><line class="cls-7" x1="252.11" y1="194.36" x2="273.73" y2="194.36"></line><line class="cls-7" x1="252.11" y1="179.85" x2="273.73" y2="179.85"></line><line class="cls-7" x1="254.05" y1="194.36" x2="254.06" y2="227.24"></line><line class="cls-7" x1="254.05" y1="179.85" x2="254.05" y2="194.36"></line><rect class="cls-7" x="97.54" y="128.71" width="29.66" height="23.87"></rect><rect class="cls-7" x="97.54" y="154.15" width="29.66" height="23.87"></rect><line class="cls-7" x1="25.78" y1="34.69" x2="25.78" y2="32.19"></line><g class="cls-23"><path class="cls-7" d="M25.78,31.51v-9.05c0-1.07.87-1.95,1.95-1.95h48.23c1.07,0,1.95.88,1.95,1.96v18.75c0,1.08-.88,1.95-1.95,1.95H27.72c-1.08,0-1.95-.88-1.95-1.96v-6.53"></path><path class="cls-7" d="M22.64,32.19h8.47c.18,0,.34-.15.34-.34s-.15-.34-.34-.34h-8.43"></path><path class="cls-7" d="M30.27,31.51c.13-.36.48-.61.89-.61.52,0,.94.42.94.95s-.42.94-.94.94c-.4,0-.74-.25-.88-.6"></path><path class="cls-7" d="M27.12,31.51c.17-2.08,1.91-3.71,4.03-3.71,2.23,0,4.04,1.81,4.04,4.04,0,2.23-1.81,4.04-4.04,4.04-2.12,0-3.85-1.63-4.03-3.7"></path></g><rect class="cls-7" x="21.89" y="29.86" width=".75" height="3.96"></rect><line class="cls-7" x1="21.88" y1="46.06" x2="81.34" y2="46.07"></line><line class="cls-7" x1="21.88" y1="47.06" x2="81.31" y2="47.07"></line><line class="cls-7" x1="25.54" y1="47.06" x2="25.54" y2="46.06"></line><line class="cls-7" x1="55.18" y1="47.07" x2="55.18" y2="46.07"></line><rect class="cls-7" x="252.89" y="75.67" width="18.94" height="28.84"></rect><rect class="cls-7" x="253.73" y="76.51" width="17.25" height="27.16"></rect><g class="cls-26"><path class="cls-7" d="M254.32,90.09c0-.55.45-1,1-1s1,.45,1,1-.45,1-1,1c-.55,0-1-.45-1-1Z"></path></g><line class="cls-7" x1="253.73" y1="76.51" x2="252.89" y2="75.67"></line><line class="cls-7" x1="253.73" y1="103.67" x2="252.89" y2="104.51"></line><line class="cls-7" x1="270.98" y1="103.66" x2="271.82" y2="104.51"></line><line class="cls-7" x1="270.98" y1="76.51" x2="271.82" y2="75.67"></line><g class="cls-25"><polygon class="cls-7" points="255.32 90.91 256.14 90.09 255.32 89.27 254.49 90.09 255.32 90.91"></polygon></g><line class="cls-7" x1="256.14" y1="90.09" x2="254.49" y2="90.09"></line><g class="cls-19"><path class="cls-8" d="M170.48,43.78c-1.18.02-2.36.04-3.57.1-.62.03-1.25.07-1.84.1-.45.03-.87.05-1.39.13-.51.07-1.11.19-1.35-.18-.05-.09-.09-.2-.1-.3-.05-.6.92-.7,1.75-.75,1.83-.11,2.91.03,4.24.12.71.05,1.48.08,2.25.11.77-.03,1.55-.06,2.25-.11,1.33-.09,2.41-.24,4.24-.12.82.05,1.8.15,1.75.75,0,.1-.04.21-.1.3-.24.37-.84.25-1.35.18-.52-.08-.95-.1-1.39-.13-.59-.03-1.21-.07-1.84-.1-1.21-.06-2.39-.08-3.57-.1Z"></path><path class="cls-8" d="M170.48,40.12c-1.18.02-2.36.04-3.57.1-.62.03-1.25.07-1.84.1-.45.03-.87.05-1.39.13-.51.07-1.11.19-1.35-.18-.05-.09-.09-.2-.1-.3-.05-.6.92-.7,1.75-.75,1.83-.11,2.91.03,4.24.12.71.05,1.48.08,2.25.11.77-.03,1.55-.06,2.25-.11,1.33-.09,2.41-.24,4.24-.12.82.05,1.8.15,1.75.75,0,.1-.04.21-.1.3-.24.37-.84.25-1.35.18-.52-.08-.95-.1-1.39-.13-.59-.03-1.21-.07-1.84-.1-1.21-.06-2.39-.08-3.57-.1Z"></path><path class="cls-8" d="M170.48,36.46c-1.18.02-2.36.04-3.57.1-.62.03-1.25.07-1.84.1-.45.03-.87.05-1.39.13-.51.07-1.11.19-1.35-.18-.05-.09-.09-.2-.1-.3-.05-.6.92-.7,1.75-.75,1.83-.11,2.91.03,4.24.12.71.05,1.48.08,2.25.11.77-.03,1.55-.06,2.25-.11,1.33-.09,2.41-.24,4.24-.12.82.05,1.8.15,1.75.75,0,.1-.04.21-.1.3-.24.37-.84.25-1.35.18-.52-.08-.95-.1-1.39-.13-.59-.03-1.21-.07-1.84-.1-1.21-.06-2.39-.08-3.57-.1Z"></path></g><line class="cls-8" x1="170.48" y1="16.43" x2="170.48" y2="63.28"></line><line class="cls-8" x1="16.91" y1="311.06" x2="116.87" y2="311.06"></line><polyline class="cls-8" points="123.22 353.37 123.22 413.04 151.61 413.11 180.01 412.9 208.41 412.46 236.73 411.67 265.13 410.52 271.83 410.23"></polyline><polyline class="cls-8" points="116.87 393.22 85.09 392.79 53.24 392.07 21.45 391.06 3.71 390.29 3.71 386.16"></polyline><line class="cls-8" x1="90.86" y1="412.51" x2="116.87" y2="412.97"></line><line class="cls-8" x1="287.77" y1="413.96" x2="287.77" y2="409.48"></line><rect class="cls-5" x="11.51" y="315.53" width="105.37" height="1.8"></rect><polygon class="cls-5" points="287.77 415.74 279.32 416.21 252.3 417.37 225.2 418.3 198.1 418.95 171.07 419.31 143.97 419.46 116.87 419.24 116.87 353.37 118.68 353.37 118.68 417.51 145.49 417.65 172.23 417.51 199.04 417.15 225.78 416.5 252.59 415.56 279.32 414.41 287.77 413.96 287.77 415.74"></polygon><polygon class="cls-5" points="88.91 418.75 116.87 419.24 116.87 417.44 88.91 416.95 88.91 418.75"></polygon><polyline class="cls-5" points="123.22 413.04 123.22 411.74 118.68 416.21 118.68 417.51 119.97 417.51 124.51 413.04 123.22 413.04"></polyline><polygon class="cls-5" points="272.76 410.19 272.98 414.7 271.18 414.77 270.96 410.27 272.76 410.19"></polygon><polyline class="cls-5" points="245.81 411.31 245.95 415.8 244.15 415.85 244.01 411.38 245.81 411.31"></polyline><polygon class="cls-5" points="191.9 412.72 191.97 417.25 190.17 417.25 190.1 412.75 191.9 412.72"></polygon><rect class="cls-5" x="136.12" y="413.08" width="1.8" height="4.53"></rect><polygon class="cls-5" points="90.86 412.51 90.71 416.98 88.91 416.95 89.05 412.48 90.86 412.51"></polygon><rect class="cls-5" x="116.01" y="311.06" width="1.8" height="4.47"></rect><rect class="cls-5" x="116.87" y="315.53" width="6.34" height="3.6"></rect><rect class="cls-5" x="116.87" y="351.56" width="6.34" height="1.8"></rect><rect class="cls-5" x="70.03" y="311.06" width="1.8" height="4.47"></rect><rect class="cls-5" x="15.97" y="311.06" width="1.8" height="4.47"></rect><rect class="cls-5" x="118.68" y="389.55" width="4.54" height="1.8"></rect><rect class="cls-5" x="11.51" y="311.06" width="1.8" height="4.47"></rect><polygon class="cls-29" points="102.96 25.44 102.96 17.64 97.99 17.64 97.99 8.63 3.71 8.63 3.71 386.16 11.51 386.16 11.51 311.06 16.91 311.06 16.91 187.6 54.75 187.6 54.75 186.23 29.09 186.23 29.09 184.43 54.75 184.43 54.75 183.06 12.37 183.06 12.37 129.01 90.78 129.01 90.78 183.06 87.18 183.06 87.18 187.6 129.49 187.6 129.49 191.2 134.03 191.2 134.03 180.39 129.49 180.39 129.49 183.06 95.25 183.06 95.25 123.6 129.49 123.6 129.49 126.34 134.03 126.34 134.03 117.33 95.25 117.33 95.25 83.1 90.78 83.1 90.78 122.74 12.37 122.74 12.37 47.06 21.88 47.06 21.88 16.43 81.34 16.43 81.34 47.06 90.78 47.06 90.78 50.66 95.25 50.66 95.25 25.44 102.96 25.44"></polygon><polygon class="cls-11" points="102.96 25.44 102.96 17.64 97.99 17.64 97.99 8.63 3.71 8.63 3.71 386.16 11.51 386.16 11.51 311.06 16.91 311.06 16.91 187.6 54.75 187.6 54.75 186.23 29.09 186.23 29.09 184.43 54.75 184.43 54.75 183.06 12.37 183.06 12.37 129.01 90.78 129.01 90.78 183.06 87.18 183.06 87.18 187.6 129.49 187.6 129.49 191.2 134.03 191.2 134.03 180.39 129.49 180.39 129.49 183.06 95.25 183.06 95.25 123.6 129.49 123.6 129.49 126.34 134.03 126.34 134.03 117.33 95.25 117.33 95.25 83.1 90.78 83.1 90.78 122.74 12.37 122.74 12.37 47.06 21.88 47.06 21.88 16.43 81.34 16.43 81.34 47.06 90.78 47.06 90.78 50.66 95.25 50.66 95.25 25.44 102.96 25.44"></polygon><polygon class="cls-29" points="139.07 25.4 155.65 25.4 155.65 29.04 160.12 29.04 160.12 16.43 181.74 16.43 181.74 63.28 160.12 63.28 160.12 61.47 155.68 61.47 155.68 67.74 188.08 67.74 188.08 46.12 273.73 46.12 273.73 227.24 252.11 227.24 252.11 234.45 279.97 234.45 279.97 405.33 271.61 405.76 271.83 410.23 287.77 409.48 287.77 38.32 189.54 38.32 189.54 8.63 152.32 8.63 152.32 17.6 139.07 17.6 139.07 25.4"></polygon><polygon class="cls-11" points="139.07 25.4 155.65 25.4 155.65 29.04 160.12 29.04 160.12 16.43 181.74 16.43 181.74 63.28 160.12 63.28 160.12 61.47 155.68 61.47 155.68 67.74 188.08 67.74 188.08 46.12 273.73 46.12 273.73 227.24 252.11 227.24 252.11 234.45 279.97 234.45 279.97 405.33 271.61 405.76 271.83 410.23 287.77 409.48 287.77 38.32 189.54 38.32 189.54 8.63 152.32 8.63 152.32 17.6 139.07 17.6 139.07 25.4"></polygon><polygon class="cls-29" points="129.49 223.64 129.49 306.52 116.87 306.52 116.87 311.06 123.22 311.06 123.22 317.33 127.68 317.33 127.68 311.06 134.03 311.06 134.03 223.64 129.49 223.64"></polygon><polygon class="cls-11" points="129.49 223.64 129.49 306.52 116.87 306.52 116.87 311.06 123.22 311.06 123.22 317.33 127.68 317.33 127.68 311.06 134.03 311.06 134.03 223.64 129.49 223.64"></polygon><g class="cls-18"><path class="cls-17" d="M121.13,8.16c-.01.07-.06.11-.11.11s-.1-.05-.11-.11c-.43-2.58-2.13-3.86-4.7-3.86h-2.99c-.9,0-1.55-.79-1.72-2.07-.04-.26.18-.48.36-.35.36.24.83.36,1.39.36h2.71c2.3,0,4.07,1.31,4.82,3.89.08.29.39.29.47,0,.75-2.58,2.51-3.89,4.82-3.89h2.71c.56,0,1.03-.12,1.39-.36.18-.12.4.09.36.35-.17,1.28-.82,2.07-1.72,2.07h-2.99c-2.56,0-4.26,1.28-4.7,3.86h0Z"></path><path class="cls-13" d="M121.13,8.16c-.01.07-.06.11-.11.11s-.1-.05-.11-.11c-.43-2.58-2.13-3.86-4.7-3.86h-2.99c-.9,0-1.55-.79-1.72-2.07-.04-.26.18-.48.36-.35.36.24.83.36,1.39.36h2.71c2.3,0,4.07,1.31,4.82,3.89.08.29.39.29.47,0,.75-2.58,2.51-3.89,4.82-3.89h2.71c.56,0,1.03-.12,1.39-.36.18-.12.4.09.36.35-.17,1.28-.82,2.07-1.72,2.07h-2.99c-2.56,0-4.26,1.28-4.7,3.86h0Z"></path></g><g><path class="cls-29" d="M47.23,347.41h2.09c1.29,0,2.06.65,2.06,1.73,0,.73-.35,1.29-.96,1.54.85.2,1.31.82,1.31,1.78,0,1.24-.79,1.93-2.22,1.93h-2.29v-6.98ZM49.52,350.49c.75,0,1.26-.49,1.26-1.27s-.53-1.24-1.45-1.24h-1.47v2.51h1.67ZM49.48,353.81c1.1,0,1.65-.46,1.65-1.38,0-.87-.51-1.38-1.38-1.38h-1.89v2.76h1.63Z"></path><path class="cls-29" d="M56.33,353.46c-.33.63-.97,1-1.73,1-1.11,0-1.78-.6-1.78-1.5,0-.53.22-.89.56-1.11.36-.24.84-.32,1.36-.32h1.58v-.22c0-.92-.48-1.41-1.4-1.41-.61,0-1.08.23-1.52.79l-.43-.37c.52-.65,1.18-.94,1.99-.94,1.26,0,1.95.69,1.95,1.93v3.07h-.55l-.03-.93ZM54.66,353.96c.91,0,1.67-.71,1.67-1.69v-.28h-1.5c-.4,0-.79.06-1.06.25-.21.16-.34.39-.34.72,0,.61.46,1,1.23,1Z"></path><path class="cls-29" d="M58.32,353.36v-5.95h.6v5.84c0,.46.18.65.49.65.13,0,.3-.03.47-.09v.51c-.22.09-.47.13-.65.13-.56,0-.91-.34-.91-1.1Z"></path><path class="cls-29" d="M60.6,351.91c0-1.41.82-2.53,2.2-2.53.9,0,1.61.45,1.93,1.34l-.54.21c-.21-.63-.69-1.03-1.39-1.03-1.09,0-1.61.96-1.61,2.01s.52,2.02,1.61,2.02c.7,0,1.18-.39,1.39-1.03l.54.21c-.33.89-1.03,1.35-1.93,1.35-1.39,0-2.2-1.12-2.2-2.54Z"></path><path class="cls-29" d="M65.68,351.91c0-1.48.97-2.53,2.35-2.53s2.34,1.05,2.34,2.53-.98,2.54-2.34,2.54-2.35-1.05-2.35-2.54ZM68.03,353.92c1.05,0,1.74-.8,1.74-2.01s-.69-2.01-1.74-2.01-1.75.81-1.75,2.01.7,2.01,1.75,2.01Z"></path><path class="cls-29" d="M71.71,349.45h.6v.81c.31-.59.87-.88,1.55-.88,1.06,0,1.7.63,1.7,1.93v3.07h-.6v-2.86c0-1.12-.42-1.63-1.24-1.63-.89,0-1.41.61-1.41,1.97v2.52h-.6v-4.93Z"></path><path class="cls-29" d="M78.42,354.23l-1.96-4.78h.66l1.62,4.17,1.62-4.17h.66l-2.84,6.97h-.65l.9-2.19Z"></path></g><path class="cls-29" d="M107.4,136.25h.65l1.71,6.06,1.76-5.7h.63l1.76,5.7,1.7-6.06h.65l-2.01,6.98h-.63l-1.79-5.71-1.79,5.71h-.64l-2.01-6.98Z"></path><path class="cls-29" d="M109.26,161.24h1.87c2.26,0,3.56,1.29,3.56,3.54s-1.27,3.43-3.57,3.43h-1.86v-6.98ZM111.07,167.64c1.92,0,2.99-.89,2.99-2.88s-1.08-2.95-2.94-2.95h-1.24v5.83h1.19Z"></path><g><path class="cls-29" d="M42.07,151.44h.65l1.71,6.06,1.76-5.7h.63l1.76,5.7,1.7-6.06h.65l-2.01,6.98h-.63l-1.79-5.71-1.79,5.71h-.64l-2.01-6.98Z"></path><path class="cls-29" d="M52.08,151.44h.62v6.98h-.62v-6.98Z"></path><path class="cls-29" d="M54.13,154.92c0-2.16,1.26-3.58,3.16-3.58,1.35,0,2.39.71,2.84,1.89l-.58.22c-.38-.96-1.17-1.52-2.26-1.52-1.55,0-2.54,1.17-2.54,2.99s.99,3,2.54,3c1.09,0,1.89-.56,2.26-1.52l.58.22c-.45,1.18-1.49,1.9-2.84,1.9-1.89,0-3.16-1.42-3.16-3.59Z"></path></g><g><path class="cls-29" d="M112.97,85.55h4.51v.56h-3.89v2.59h3.38v.56h-3.38v3.26h-.62v-6.98Z"></path><path class="cls-29" d="M118.04,90.05c0-1.48.97-2.53,2.35-2.53s2.34,1.05,2.34,2.53-.98,2.54-2.34,2.54-2.35-1.05-2.35-2.54ZM120.39,92.06c1.05,0,1.74-.8,1.74-2.01s-.69-2.01-1.74-2.01-1.75.81-1.75,2.01.7,2.01,1.75,2.01Z"></path><path class="cls-29" d="M125.4,92.37l-1.96-4.78h.66l1.62,4.17,1.62-4.17h.66l-2.84,6.97h-.65l.9-2.19Z"></path><path class="cls-29" d="M128.73,90.09c0-1.42.77-2.57,2.16-2.57,1.51,0,2.13,1.18,2.13,2.27,0,.08,0,.31-.03.43h-3.66c.03,1.16.65,1.84,1.65,1.84.63,0,1.04-.18,1.47-.64l.42.38c-.56.58-1.1.81-1.9.81-1.46,0-2.24-1.09-2.24-2.5ZM132.44,89.76c0-.06,0-.12,0-.19,0-.71-.45-1.55-1.54-1.55-.95,0-1.53.76-1.59,1.74h3.12Z"></path><path class="cls-29" d="M134.34,87.59h.6v.84c.33-.6,1.01-.91,1.56-.91.26,0,.51.06.77.19l-.3.54c-.17-.08-.39-.13-.59-.13-.53,0-1.12.28-1.34,1-.06.21-.09.44-.09.98v2.43h-.6v-4.93Z"></path></g><g><path class="cls-29" d="M166.24,167.95h1.87c2.26,0,3.56,1.29,3.56,3.54s-1.27,3.43-3.57,3.43h-1.86v-6.98ZM168.05,174.35c1.92,0,2.99-.89,2.99-2.88s-1.08-2.95-2.94-2.95h-1.24v5.83h1.19Z"></path><path class="cls-29" d="M172.9,167.95h.72v1.07h-.72v-1.07ZM172.96,169.99h.59v4.94h-.59v-4.94Z"></path><path class="cls-29" d="M175.13,169.99h.6v.81c.31-.59.87-.88,1.55-.88,1.06,0,1.7.63,1.7,1.93v3.07h-.6v-2.86c0-1.12-.42-1.63-1.24-1.63-.89,0-1.41.61-1.41,1.97v2.52h-.6v-4.94Z"></path><path class="cls-29" d="M180.41,167.95h.72v1.07h-.72v-1.07ZM180.48,169.99h.59v4.94h-.59v-4.94Z"></path><path class="cls-29" d="M182.64,169.99h.6v.81c.31-.59.87-.88,1.55-.88,1.06,0,1.7.63,1.7,1.93v3.07h-.6v-2.86c0-1.12-.42-1.63-1.24-1.63-.89,0-1.41.61-1.41,1.97v2.52h-.6v-4.94Z"></path><path class="cls-29" d="M187.6,175.51s0-.08.02-.2l.86-.68c-.44-.17-.74-.46-.74-.97,0-.41.21-.69.56-.93-.28-.29-.43-.67-.43-1.12,0-1,.8-1.7,1.84-1.7.5,0,.94.17,1.26.45l.79-.67.31.38-.77.68c.15.25.23.55.23.88,0,.99-.74,1.64-1.8,1.64-.41,0-.77-.1-1.06-.26-.24.14-.35.33-.35.55,0,.51.49.64,1.25.76,1.23.19,2.3.34,2.3,1.35,0,.9-.81,1.37-2.08,1.37-1.4,0-2.19-.54-2.19-1.54ZM189.81,176.58c.84,0,1.48-.26,1.48-.83,0-.67-.89-.74-1.78-.88-.24-.04-.47-.08-.69-.13l-.62.71c0,.07,0,.08,0,.12,0,.69.61,1.02,1.61,1.02ZM189.71,172.79c.75,0,1.22-.5,1.22-1.18s-.49-1.2-1.22-1.2-1.25.5-1.25,1.19.49,1.19,1.24,1.19Z"></path><path class="cls-29" d="M195.67,167.95h1.94c1.53,0,2.29.72,2.29,1.92,0,.97-.5,1.6-1.43,1.83l1.88,3.22h-.71l-1.8-3.13c-.16,0-.34,0-.5,0h-1.05v3.13h-.62v-6.98ZM197.55,171.25c1.06,0,1.73-.43,1.73-1.37s-.68-1.37-1.73-1.37h-1.26v2.74h1.26Z"></path><path class="cls-29" d="M201.06,172.45c0-1.48.97-2.53,2.35-2.53s2.34,1.05,2.34,2.53-.98,2.54-2.34,2.54-2.35-1.05-2.35-2.54ZM203.41,174.46c1.05,0,1.74-.8,1.74-2.01s-.69-2.01-1.74-2.01-1.75.81-1.75,2.01.7,2.01,1.75,2.01Z"></path><path class="cls-29" d="M206.85,172.45c0-1.48.97-2.53,2.35-2.53s2.34,1.05,2.34,2.53-.98,2.54-2.34,2.54-2.35-1.05-2.35-2.54ZM209.2,174.46c1.05,0,1.74-.8,1.74-2.01s-.69-2.01-1.74-2.01-1.75.81-1.75,2.01.7,2.01,1.75,2.01Z"></path><path class="cls-29" d="M212.88,169.99h.6v.85c.29-.65.86-.92,1.45-.92.7,0,1.21.31,1.46.97.31-.64.84-.97,1.54-.97,1.2,0,1.64.9,1.64,2.07v2.94h-.6v-2.8c0-1.03-.3-1.68-1.17-1.68-.79,0-1.27.6-1.27,1.74v2.75h-.6v-2.89c0-1.08-.4-1.59-1.16-1.59-.8,0-1.29.61-1.29,1.74v2.75h-.6v-4.94Z"></path></g><g><path class="cls-29" d="M202.23,85.24h.62v3.74l3.58-3.74h.84l-2.66,2.73,2.68,4.25h-.73l-2.4-3.79-1.32,1.35v2.44h-.62v-6.98Z"></path><path class="cls-29" d="M208.17,85.24h.72v1.07h-.72v-1.07ZM208.24,87.28h.59v4.94h-.59v-4.94Z"></path><path class="cls-29" d="M210.99,91.07v-3.32h-1.1v-.48h1.1v-1.43l.61-.35v1.78h1.19v.48h-1.19v3.17c0,.55.17.86.62.86.15,0,.35-.03.57-.1v.48c-.25.08-.5.12-.71.12-.66,0-1.08-.38-1.08-1.21Z"></path><path class="cls-29" d="M213.56,89.74c0-1.41.82-2.53,2.2-2.53.9,0,1.61.45,1.93,1.34l-.54.21c-.21-.63-.69-1.03-1.39-1.03-1.09,0-1.61.96-1.61,2.01s.52,2.02,1.61,2.02c.7,0,1.18-.39,1.39-1.03l.54.21c-.33.89-1.03,1.35-1.93,1.35-1.39,0-2.2-1.12-2.2-2.54Z"></path><path class="cls-29" d="M218.95,85.24h.6v2.84c.3-.58.85-.87,1.55-.87,1.08,0,1.7.66,1.7,1.93v3.07h-.6v-2.86c0-1.1-.41-1.63-1.24-1.63-.91,0-1.41.64-1.41,1.97v2.52h-.6v-6.98Z"></path><path class="cls-29" d="M224.05,89.78c0-1.42.77-2.57,2.16-2.57,1.51,0,2.13,1.18,2.13,2.27,0,.08,0,.31-.03.43h-3.66c.03,1.16.65,1.84,1.65,1.84.63,0,1.04-.18,1.47-.64l.42.38c-.56.58-1.1.81-1.9.81-1.46,0-2.24-1.09-2.24-2.5ZM227.76,89.45c0-.06,0-.12,0-.19,0-.71-.45-1.55-1.54-1.55-.95,0-1.53.76-1.59,1.74h3.12Z"></path><path class="cls-29" d="M229.67,87.28h.6v.81c.31-.59.87-.88,1.55-.88,1.06,0,1.7.63,1.7,1.93v3.07h-.6v-2.86c0-1.12-.42-1.63-1.24-1.63-.89,0-1.41.61-1.41,1.97v2.52h-.6v-4.94Z"></path></g><path class="cls-29" d="M192.6,54.95c0-2.17,1.27-3.59,3.16-3.59s3.18,1.42,3.18,3.59-1.27,3.58-3.18,3.58-3.16-1.42-3.16-3.58ZM195.76,57.94c1.57,0,2.55-1.16,2.55-2.99s-.99-3-2.55-3-2.54,1.15-2.54,3,.99,2.99,2.54,2.99Z"></path><path class="cls-29" d="M202.64,50.68h.48l-3.55,9.08h-.47l3.55-9.08Z"></path><path class="cls-29" d="M204.34,51.46h.93l2.35,5.66,2.35-5.66h.92v6.98h-.62v-6.16l-2.35,5.59h-.61l-2.36-5.59v6.16h-.62v-6.98Z"></path><g><path class="cls-29" d="M255.78,206.75h1.94c1.53,0,2.29.72,2.29,1.92,0,.97-.5,1.6-1.43,1.83l1.88,3.22h-.71l-1.8-3.13c-.16,0-.34,0-.5,0h-1.05v3.13h-.62v-6.98ZM257.66,210.05c1.06,0,1.73-.43,1.73-1.37s-.68-1.37-1.73-1.37h-1.26v2.74h1.26Z"></path><path class="cls-29" d="M261.63,206.75h4.56v.56h-3.94v2.59h3.53v.56h-3.53v2.7h3.94v.56h-4.56v-6.98Z"></path><path class="cls-29" d="M267.49,206.75h4.51v.56h-3.89v2.59h3.38v.56h-3.38v3.26h-.62v-6.98Z"></path></g><path class="cls-29" d="M261.72,183.44h1.94c1.46,0,2.29.69,2.29,1.95s-.83,1.96-2.29,1.96h-1.33v3.07h-.62v-6.98ZM263.6,186.79c1.09,0,1.73-.47,1.73-1.4s-.62-1.39-1.73-1.39h-1.27v2.79h1.27Z"></path><g><path class="cls-29" d="M254.54,164.21h.65l1.71,6.06,1.76-5.7h.63l1.76,5.7,1.7-6.06h.65l-2.01,6.98h-.63l-1.79-5.71-1.79,5.71h-.64l-2.01-6.98Z"></path><path class="cls-29" d="M264.54,164.21h4.51v.56h-3.89v2.59h3.38v.56h-3.38v3.26h-.62v-6.98Z"></path></g><g><path class="cls-29" d="M254.61,112.63h1.87c2.26,0,3.56,1.29,3.56,3.54s-1.27,3.43-3.57,3.43h-1.86v-6.98ZM256.42,119.03c1.92,0,2.99-.89,2.99-2.88s-1.08-2.95-2.94-2.95h-1.24v5.83h1.19Z"></path><path class="cls-29" d="M260.7,112.63h.65l1.71,6.06,1.76-5.7h.63l1.76,5.7,1.7-6.06h.65l-2.01,6.98h-.63l-1.79-5.71-1.79,5.71h-.64l-2.01-6.98Z"></path></g><g><path class="cls-29" d="M34.91,245.03h1.94c1.46,0,2.29.69,2.29,1.95s-.83,1.96-2.29,1.96h-1.33v3.07h-.62v-6.98ZM36.79,248.38c1.09,0,1.73-.47,1.73-1.4s-.62-1.39-1.73-1.39h-1.27v2.79h1.27Z"></path><path class="cls-29" d="M40.3,247.07h.6v.84c.33-.6,1.01-.91,1.56-.91.26,0,.51.05.77.19l-.3.54c-.17-.08-.39-.13-.59-.13-.53,0-1.12.28-1.34,1-.06.21-.09.44-.09.98v2.43h-.6v-4.93Z"></path><path class="cls-29" d="M44.19,245.03h.72v1.07h-.72v-1.07ZM44.26,247.07h.59v4.93h-.59v-4.93Z"></path><path class="cls-29" d="M46.41,247.07h.6v.85c.29-.65.86-.92,1.45-.92.7,0,1.21.31,1.46.97.31-.64.84-.97,1.54-.97,1.2,0,1.64.9,1.64,2.07v2.94h-.6v-2.8c0-1.03-.3-1.68-1.17-1.68-.79,0-1.27.6-1.27,1.74v2.75h-.6v-2.89c0-1.08-.4-1.59-1.16-1.59-.8,0-1.29.61-1.29,1.74v2.75h-.6v-4.93Z"></path><path class="cls-29" d="M57.82,251.08c-.33.63-.97,1-1.73,1-1.11,0-1.78-.6-1.78-1.5,0-.53.22-.89.56-1.11.35-.24.84-.32,1.36-.32h1.58v-.22c0-.92-.48-1.41-1.4-1.41-.61,0-1.08.23-1.52.79l-.43-.37c.52-.65,1.18-.94,1.99-.94,1.26,0,1.95.69,1.95,1.93v3.07h-.55l-.03-.93ZM56.15,251.58c.91,0,1.67-.72,1.67-1.69v-.28h-1.5c-.4,0-.79.06-1.06.25-.21.16-.34.39-.34.72,0,.61.46,1,1.23,1Z"></path><path class="cls-29" d="M59.9,247.07h.6v.84c.33-.6,1.01-.91,1.56-.91.26,0,.51.05.77.19l-.3.54c-.17-.08-.39-.13-.59-.13-.53,0-1.12.28-1.34,1-.06.21-.09.44-.09.98v2.43h-.6v-4.93Z"></path><path class="cls-29" d="M65.33,251.85l-1.96-4.78h.66l1.62,4.17,1.62-4.17h.66l-2.84,6.97h-.65l.9-2.19Z"></path><path class="cls-29" d="M71.68,245.03h2.09c1.29,0,2.06.65,2.06,1.73,0,.73-.35,1.29-.96,1.54.85.2,1.31.82,1.31,1.78,0,1.24-.79,1.93-2.22,1.93h-2.29v-6.98ZM73.97,248.11c.76,0,1.26-.49,1.26-1.27s-.53-1.24-1.45-1.24h-1.47v2.51h1.67ZM73.93,251.43c1.1,0,1.65-.46,1.65-1.38,0-.87-.51-1.38-1.38-1.38h-1.89v2.76h1.63Z"></path><path class="cls-29" d="M77.32,249.57c0-1.42.77-2.57,2.16-2.57,1.51,0,2.13,1.18,2.13,2.27,0,.08,0,.3-.03.42h-3.66c.03,1.16.65,1.84,1.65,1.84.63,0,1.04-.18,1.47-.64l.42.38c-.56.58-1.1.81-1.9.81-1.46,0-2.24-1.09-2.24-2.5ZM81.03,249.24c0-.06,0-.12,0-.19,0-.71-.45-1.55-1.54-1.55-.95,0-1.53.76-1.59,1.74h3.12Z"></path><path class="cls-29" d="M82.69,249.53c0-1.51.99-2.53,2.25-2.53.81,0,1.44.42,1.77,1.05v-3.02h.59v6.98h-.59v-.97c-.34.65-.97,1.04-1.77,1.04-1.32,0-2.25-1.1-2.25-2.54ZM85.03,251.52c1,0,1.72-.83,1.72-1.99s-.72-1.99-1.72-1.99-1.74.83-1.74,1.99.73,1.99,1.74,1.99Z"></path><path class="cls-29" d="M88.85,247.07h.6v.84c.33-.6,1.01-.91,1.56-.91.26,0,.51.05.77.19l-.3.54c-.17-.08-.39-.13-.59-.13-.53,0-1.12.28-1.34,1-.06.21-.09.44-.09.98v2.43h-.6v-4.93Z"></path><path class="cls-29" d="M92.22,249.53c0-1.48.97-2.53,2.35-2.53s2.34,1.05,2.34,2.53-.98,2.54-2.34,2.54-2.35-1.05-2.35-2.54ZM94.57,251.54c1.05,0,1.74-.8,1.74-2.01s-.69-2.01-1.74-2.01-1.75.81-1.75,2.01.7,2.01,1.75,2.01Z"></path><path class="cls-29" d="M98.02,249.53c0-1.48.97-2.53,2.35-2.53s2.34,1.05,2.34,2.53-.98,2.54-2.34,2.54-2.35-1.05-2.35-2.54ZM100.37,251.54c1.05,0,1.74-.8,1.74-2.01s-.69-2.01-1.74-2.01-1.75.81-1.75,2.01.7,2.01,1.75,2.01Z"></path><path class="cls-29" d="M104.05,247.07h.6v.85c.29-.65.86-.92,1.45-.92.7,0,1.21.31,1.46.97.31-.64.84-.97,1.54-.97,1.2,0,1.64.9,1.64,2.07v2.94h-.6v-2.8c0-1.03-.3-1.68-1.17-1.68-.79,0-1.27.6-1.27,1.74v2.75h-.6v-2.89c0-1.08-.4-1.59-1.16-1.59-.8,0-1.29.61-1.29,1.74v2.75h-.6v-4.93Z"></path></g><g><path class="cls-29" d="M180.94,305.68h.62v6.42h3.22v.56h-3.84v-6.98Z"></path><path class="cls-29" d="M185.65,305.68h.72v1.07h-.72v-1.07ZM185.71,307.72h.59v4.93h-.59v-4.93Z"></path><path class="cls-29" d="M187.38,307.72h.66l1.62,4.17,1.62-4.17h.66l-2.01,4.93h-.52l-2.02-4.93Z"></path><path class="cls-29" d="M192.96,305.68h.72v1.07h-.72v-1.07ZM193.03,307.72h.59v4.93h-.59v-4.93Z"></path><path class="cls-29" d="M195.19,307.72h.6v.81c.31-.59.87-.88,1.55-.88,1.06,0,1.7.63,1.7,1.93v3.07h-.6v-2.86c0-1.12-.42-1.63-1.24-1.63-.89,0-1.41.61-1.41,1.97v2.52h-.6v-4.93Z"></path><path class="cls-29" d="M200.15,313.24s0-.08.02-.2l.86-.68c-.44-.17-.74-.46-.74-.97,0-.41.21-.69.56-.93-.28-.29-.43-.67-.43-1.12,0-1,.8-1.7,1.84-1.7.5,0,.94.17,1.26.45l.79-.67.31.38-.77.68c.15.25.23.55.23.88,0,.99-.74,1.64-1.8,1.64-.41,0-.77-.09-1.06-.26-.24.14-.35.33-.35.55,0,.51.49.64,1.25.76,1.23.19,2.3.34,2.3,1.35,0,.9-.81,1.37-2.08,1.37-1.4,0-2.19-.54-2.19-1.54ZM202.36,314.31c.84,0,1.48-.26,1.48-.83,0-.67-.89-.74-1.78-.88-.24-.04-.47-.08-.69-.13l-.62.71c0,.07,0,.08,0,.12,0,.69.61,1.02,1.61,1.02ZM202.26,310.52c.75,0,1.22-.5,1.22-1.18s-.49-1.2-1.22-1.2-1.25.5-1.25,1.19.49,1.19,1.24,1.19Z"></path><path class="cls-29" d="M208.22,305.68h1.94c1.53,0,2.29.72,2.29,1.92,0,.97-.5,1.6-1.43,1.83l1.88,3.22h-.71l-1.8-3.13c-.16,0-.34,0-.5,0h-1.05v3.13h-.62v-6.98ZM210.1,308.98c1.06,0,1.73-.42,1.73-1.37s-.68-1.37-1.73-1.37h-1.26v2.74h1.26Z"></path><path class="cls-29" d="M213.61,310.18c0-1.48.97-2.53,2.35-2.53s2.34,1.05,2.34,2.53-.98,2.54-2.34,2.54-2.35-1.05-2.35-2.54ZM215.96,312.19c1.05,0,1.74-.8,1.74-2.01s-.69-2.01-1.74-2.01-1.75.81-1.75,2.01.7,2.01,1.75,2.01Z"></path><path class="cls-29" d="M219.4,310.18c0-1.48.97-2.53,2.35-2.53s2.34,1.05,2.34,2.53-.98,2.54-2.34,2.54-2.35-1.05-2.35-2.54ZM221.75,312.19c1.05,0,1.74-.8,1.74-2.01s-.69-2.01-1.74-2.01-1.75.81-1.75,2.01.7,2.01,1.75,2.01Z"></path><path class="cls-29" d="M225.43,307.72h.6v.85c.29-.65.86-.92,1.45-.92.7,0,1.21.31,1.46.97.31-.64.84-.97,1.54-.97,1.2,0,1.64.9,1.64,2.07v2.94h-.6v-2.8c0-1.03-.3-1.68-1.17-1.68-.79,0-1.27.6-1.27,1.74v2.75h-.6v-2.89c0-1.08-.4-1.59-1.16-1.59-.8,0-1.29.61-1.29,1.74v2.75h-.6v-4.93Z"></path></g><g><path class="cls-29" d="M311.01,39.16l.69-.87-1.07-.31.09-.28,1.04.4-.05-1.11h.3l-.04,1.11,1.04-.4.08.28-1.06.31.69.87-.24.18-.62-.92-.62.92-.23-.18Z"></path><path class="cls-29" d="M314.09,36.99h1.55c1.22,0,1.83.57,1.83,1.54,0,.77-.4,1.27-1.14,1.46l1.5,2.57h-.57l-1.44-2.5c-.13,0-.27,0-.4,0h-.84v2.5h-.5v-5.57ZM315.6,39.62c.85,0,1.38-.34,1.38-1.1s-.54-1.09-1.38-1.09h-1.01v2.19h1.01Z"></path><path class="cls-29" d="M318.42,40.62c0-1.13.61-2.06,1.73-2.06,1.21,0,1.7.94,1.7,1.81,0,.06,0,.24-.02.34h-2.93c.02.93.52,1.47,1.32,1.47.5,0,.83-.14,1.17-.51l.34.3c-.45.46-.88.65-1.51.65-1.16,0-1.79-.87-1.79-2ZM321.38,40.36s0-.1,0-.15c0-.57-.36-1.24-1.23-1.24-.75,0-1.22.6-1.27,1.39h2.49Z"></path><path class="cls-29" d="M322.52,41.72l.34-.28c.2.46.66.77,1.26.77.57,0,.95-.27.95-.72,0-.55-.53-.68-1.1-.82-.66-.16-1.23-.38-1.23-1.06,0-.62.53-1.05,1.29-1.05.6,0,1.1.26,1.37.76l-.37.21c-.21-.38-.57-.58-1.01-.58-.48,0-.84.24-.84.62,0,.4.36.54.93.68.67.16,1.43.34,1.43,1.2,0,.71-.56,1.17-1.42,1.17-.79,0-1.35-.4-1.6-.9Z"></path><path class="cls-29" d="M326.55,36.99h.58v.86h-.58v-.86ZM326.6,38.62h.47v3.94h-.47v-3.94Z"></path><path class="cls-29" d="M328.15,40.59c0-1.21.79-2.02,1.8-2.02.64,0,1.15.33,1.41.84v-2.41h.47v5.57h-.47v-.78c-.27.52-.77.83-1.41.83-1.06,0-1.8-.88-1.8-2.03ZM330.02,42.18c.8,0,1.37-.66,1.37-1.59s-.57-1.59-1.37-1.59-1.39.67-1.39,1.59.58,1.59,1.39,1.59Z"></path><path class="cls-29" d="M332.91,40.62c0-1.13.61-2.06,1.73-2.06,1.21,0,1.7.94,1.7,1.81,0,.06,0,.24-.02.34h-2.93c.02.93.52,1.47,1.32,1.47.5,0,.83-.14,1.17-.51l.34.3c-.45.46-.88.65-1.51.65-1.16,0-1.79-.87-1.79-2ZM335.88,40.36s0-.1,0-.15c0-.57-.36-1.24-1.23-1.24-.75,0-1.22.6-1.27,1.39h2.49Z"></path><path class="cls-29" d="M337.41,38.62h.48v.64c.25-.47.69-.7,1.24-.7.85,0,1.36.5,1.36,1.54v2.45h-.48v-2.28c0-.89-.34-1.3-.99-1.3-.71,0-1.13.48-1.13,1.57v2.01h-.48v-3.94Z"></path><path class="cls-29" d="M341.49,40.59c0-1.13.65-2.02,1.76-2.02.72,0,1.28.36,1.54,1.07l-.43.17c-.17-.5-.55-.82-1.11-.82-.87,0-1.29.77-1.29,1.61s.42,1.61,1.29,1.61c.56,0,.94-.31,1.11-.82l.43.16c-.26.71-.82,1.08-1.54,1.08-1.11,0-1.76-.9-1.76-2.03Z"></path><path class="cls-29" d="M345.57,40.62c0-1.13.61-2.06,1.73-2.06,1.21,0,1.7.94,1.7,1.81,0,.06,0,.24-.02.34h-2.93c.02.93.52,1.47,1.32,1.47.5,0,.83-.14,1.17-.51l.34.3c-.45.46-.88.65-1.51.65-1.16,0-1.79-.87-1.79-2ZM348.54,40.36s0-.1,0-.15c0-.57-.36-1.24-1.23-1.24-.75,0-1.22.6-1.27,1.39h2.49Z"></path><path class="cls-29" d="M352.62,39h-.88v-.38h.88v-.57c0-.82.43-1.12,1.03-1.12.26,0,.47.05.66.15l-.16.36c-.14-.07-.28-.11-.45-.11-.4,0-.6.25-.6.71v.57h.97v.38h-.97v3.56h-.48v-3.56Z"></path><path class="cls-29" d="M354.47,40.62c0-1.13.61-2.06,1.73-2.06,1.21,0,1.7.94,1.7,1.81,0,.06,0,.24-.02.34h-2.93c.02.93.52,1.47,1.32,1.47.5,0,.83-.14,1.17-.51l.34.3c-.45.46-.88.65-1.51.65-1.16,0-1.79-.87-1.79-2ZM357.43,40.36s0-.1,0-.15c0-.57-.36-1.24-1.23-1.24-.75,0-1.22.6-1.27,1.39h2.49Z"></path><path class="cls-29" d="M361.51,41.82c-.26.5-.77.8-1.38.8-.88,0-1.42-.48-1.42-1.2,0-.42.18-.71.44-.89.28-.19.67-.26,1.09-.26h1.26v-.17c0-.73-.38-1.13-1.12-1.13-.48,0-.86.18-1.22.63l-.34-.3c.42-.52.94-.75,1.59-.75,1,0,1.56.55,1.56,1.54v2.45h-.44l-.02-.74ZM360.17,42.22c.72,0,1.33-.57,1.33-1.35v-.22h-1.2c-.32,0-.63.05-.84.2-.17.13-.27.31-.27.58,0,.49.37.8.98.8Z"></path><path class="cls-29" d="M363.58,41.65v-2.65h-.88v-.38h.88v-1.14l.48-.28v1.42h.95v.38h-.95v2.53c0,.44.14.68.5.68.12,0,.28-.02.45-.08v.38c-.2.06-.4.1-.57.1-.52,0-.86-.3-.86-.97Z"></path><path class="cls-29" d="M365.85,41.07v-2.45h.47v2.28c0,.89.34,1.3,1,1.3.71,0,1.13-.48,1.13-1.57v-2.01h.48v3.94h-.48v-.65c-.25.47-.7.7-1.25.7-.84,0-1.35-.51-1.35-1.55Z"></path><path class="cls-29" d="M370.18,38.62h.48v.67c.26-.48.8-.73,1.24-.73.2,0,.4.04.61.15l-.24.43c-.13-.06-.31-.1-.47-.1-.42,0-.9.22-1.07.8-.05.17-.07.35-.07.78v1.94h-.48v-3.94Z"></path><path class="cls-29" d="M372.89,40.62c0-1.13.61-2.06,1.73-2.06,1.21,0,1.7.94,1.7,1.81,0,.06,0,.24-.02.34h-2.93c.02.93.52,1.47,1.32,1.47.5,0,.83-.14,1.17-.51l.34.3c-.45.46-.88.65-1.51.65-1.16,0-1.79-.87-1.79-2ZM375.85,40.36s0-.1,0-.15c0-.57-.36-1.24-1.23-1.24-.75,0-1.22.6-1.27,1.39h2.49Z"></path><path class="cls-29" d="M376.99,41.72l.34-.28c.2.46.66.77,1.26.77.57,0,.95-.27.95-.72,0-.55-.53-.68-1.1-.82-.66-.16-1.23-.38-1.23-1.06,0-.62.53-1.05,1.29-1.05.6,0,1.1.26,1.37.76l-.37.21c-.21-.38-.57-.58-1.01-.58-.48,0-.84.24-.84.62,0,.4.36.54.93.68.67.16,1.43.34,1.43,1.2,0,.71-.56,1.17-1.42,1.17-.79,0-1.35-.4-1.6-.9Z"></path></g><g><path class="cls-29" d="M312.83,51.42c-.26.5-.77.8-1.38.8-.88,0-1.42-.48-1.42-1.2,0-.42.18-.71.44-.89.28-.19.67-.26,1.09-.26h1.26v-.17c0-.73-.38-1.13-1.12-1.13-.48,0-.86.18-1.22.63l-.34-.3c.42-.52.94-.75,1.59-.75,1,0,1.56.55,1.56,1.54v2.45h-.44l-.02-.74ZM311.49,51.82c.72,0,1.33-.57,1.33-1.35v-.22h-1.2c-.32,0-.63.05-.84.2-.17.13-.27.31-.27.58,0,.49.37.8.98.8Z"></path><path class="cls-29" d="M314.5,48.22h.48v.64c.25-.47.69-.7,1.24-.7.85,0,1.36.5,1.36,1.54v2.45h-.48v-2.28c0-.89-.34-1.3-.99-1.3-.71,0-1.13.48-1.13,1.57v2.01h-.48v-3.94Z"></path><path class="cls-29" d="M323.48,51.42c-.26.5-.77.8-1.38.8-.88,0-1.42-.48-1.42-1.2,0-.42.18-.71.44-.89.28-.19.67-.26,1.09-.26h1.26v-.17c0-.73-.38-1.13-1.12-1.13-.48,0-.86.18-1.22.63l-.34-.3c.42-.52.94-.75,1.59-.75,1,0,1.56.55,1.56,1.54v2.45h-.44l-.02-.74ZM322.14,51.82c.72,0,1.33-.57,1.33-1.35v-.22h-1.2c-.32,0-.63.05-.84.2-.17.13-.27.31-.27.58,0,.49.37.8.98.8Z"></path><path class="cls-29" d="M324.95,50.19c0-1.13.65-2.02,1.76-2.02.72,0,1.28.36,1.54,1.07l-.43.17c-.17-.5-.55-.82-1.11-.82-.87,0-1.29.77-1.29,1.61s.42,1.61,1.29,1.61c.56,0,.94-.31,1.11-.82l.43.16c-.26.71-.82,1.08-1.54,1.08-1.11,0-1.76-.9-1.76-2.03Z"></path><path class="cls-29" d="M329.03,50.19c0-1.13.65-2.02,1.76-2.02.72,0,1.28.36,1.54,1.07l-.43.17c-.17-.5-.55-.82-1.11-.82-.87,0-1.29.77-1.29,1.61s.42,1.61,1.29,1.61c.56,0,.94-.31,1.11-.82l.43.16c-.26.71-.82,1.08-1.54,1.08-1.11,0-1.76-.9-1.76-2.03Z"></path><path class="cls-29" d="M333.11,50.22c0-1.13.61-2.05,1.73-2.05,1.21,0,1.7.94,1.7,1.81,0,.06,0,.24-.02.34h-2.93c.02.93.52,1.47,1.32,1.47.5,0,.83-.14,1.17-.51l.34.3c-.45.46-.88.65-1.51.65-1.16,0-1.79-.87-1.79-2ZM336.07,49.96s0-.1,0-.15c0-.57-.36-1.24-1.23-1.24-.75,0-1.22.6-1.27,1.39h2.49Z"></path><path class="cls-29" d="M337.2,51.32l.34-.28c.2.46.66.77,1.26.77.57,0,.95-.27.95-.72,0-.55-.53-.68-1.1-.82-.66-.16-1.23-.38-1.23-1.06,0-.62.53-1.05,1.29-1.05.6,0,1.1.26,1.37.76l-.37.21c-.21-.38-.57-.58-1.01-.58-.48,0-.84.24-.84.62,0,.4.36.54.93.68.67.16,1.43.34,1.43,1.2,0,.71-.56,1.17-1.42,1.17-.79,0-1.35-.4-1.6-.9Z"></path><path class="cls-29" d="M340.93,51.32l.34-.28c.2.46.66.77,1.26.77.57,0,.95-.27.95-.72,0-.55-.53-.68-1.1-.82-.66-.16-1.23-.38-1.23-1.06,0-.62.53-1.05,1.29-1.05.6,0,1.1.26,1.37.76l-.37.21c-.21-.38-.57-.58-1.01-.58-.48,0-.84.24-.84.62,0,.4.36.54.93.68.67.16,1.43.34,1.43,1.2,0,.71-.56,1.17-1.42,1.17-.79,0-1.35-.4-1.6-.9Z"></path><path class="cls-29" d="M344.97,46.59h.58v.86h-.58v-.86ZM345.02,48.22h.47v3.94h-.47v-3.94Z"></path><path class="cls-29" d="M347.22,51.39v.78h-.47v-5.57h.47v2.41c.26-.5.77-.84,1.41-.84,1,0,1.79.82,1.79,2.02s-.74,2.03-1.79,2.03c-.64,0-1.14-.31-1.41-.83ZM348.56,51.78c.81,0,1.39-.67,1.39-1.59s-.58-1.59-1.39-1.59-1.37.66-1.37,1.59.57,1.59,1.37,1.59Z"></path><path class="cls-29" d="M351.42,51.34v-4.75h.48v4.67c0,.37.14.52.39.52.1,0,.24-.02.38-.07v.41c-.18.07-.37.1-.52.1-.44,0-.72-.27-.72-.88Z"></path><path class="cls-29" d="M353.26,50.22c0-1.13.61-2.05,1.73-2.05,1.21,0,1.7.94,1.7,1.81,0,.06,0,.24-.02.34h-2.93c.02.93.52,1.47,1.32,1.47.5,0,.83-.14,1.17-.51l.34.3c-.45.46-.88.65-1.51.65-1.16,0-1.79-.87-1.79-2ZM356.22,49.96s0-.1,0-.15c0-.57-.36-1.24-1.23-1.24-.75,0-1.22.6-1.27,1.39h2.49Z"></path><path class="cls-29" d="M359.82,51.34v-4.75h.48v4.67c0,.37.14.52.39.52.1,0,.24-.02.38-.07v.41c-.18.07-.37.1-.52.1-.44,0-.72-.27-.72-.88Z"></path><path class="cls-29" d="M364.56,51.42c-.26.5-.77.8-1.38.8-.88,0-1.42-.48-1.42-1.2,0-.42.18-.71.44-.89.28-.19.67-.26,1.09-.26h1.26v-.17c0-.73-.38-1.13-1.12-1.13-.48,0-.86.18-1.22.63l-.34-.3c.42-.52.94-.75,1.59-.75,1,0,1.56.55,1.56,1.54v2.45h-.44l-.02-.74ZM363.22,51.82c.72,0,1.33-.57,1.33-1.35v-.22h-1.2c-.32,0-.63.05-.84.2-.17.13-.27.31-.27.58,0,.49.37.8.98.8Z"></path><path class="cls-29" d="M367.31,52.04l-1.57-3.82h.53l1.29,3.33,1.3-3.33h.52l-2.27,5.56h-.52l.72-1.75Z"></path><path class="cls-29" d="M369.97,50.19c0-1.18.77-2.02,1.88-2.02s1.87.84,1.87,2.02-.78,2.03-1.87,2.03-1.88-.84-1.88-2.03ZM371.84,51.79c.84,0,1.39-.64,1.39-1.6s-.55-1.6-1.39-1.6-1.4.64-1.4,1.6.56,1.6,1.4,1.6Z"></path><path class="cls-29" d="M374.7,50.67v-2.45h.47v2.28c0,.89.34,1.3,1,1.3.71,0,1.13-.48,1.13-1.57v-2.01h.48v3.94h-.48v-.65c-.25.47-.7.7-1.25.7-.84,0-1.35-.51-1.35-1.55Z"></path><path class="cls-29" d="M379.44,51.25v-2.65h-.88v-.38h.88v-1.14l.48-.28v1.42h.95v.38h-.95v2.53c0,.44.14.68.5.68.12,0,.28-.02.45-.08v.38c-.2.06-.4.1-.57.1-.52,0-.86-.3-.86-.97Z"></path></g></g></g></svg> 