<?xml version="1.0" encoding="UTF-8"?> <svg xmlns="http://www.w3.org/2000/svg" id="Layer_2" data-name="Layer 2" viewBox="0 0 472.7 673.48"><defs><style> .cls-1 { stroke: #afa49f; } .cls-1, .cls-2, .cls-3, .cls-4, .cls-5, .cls-6, .cls-7, .cls-8, .cls-9, .cls-10, .cls-11, .cls-12, .cls-13, .cls-14, .cls-15, .cls-16, .cls-17, .cls-18, .cls-19, .cls-20, .cls-21, .cls-22, .cls-23, .cls-24, .cls-25, .cls-26, .cls-27 { fill: none; } .cls-1, .cls-2, .cls-12, .cls-13, .cls-15, .cls-17, .cls-18, .cls-21, .cls-23, .cls-27 { stroke-width: .25px; } .cls-1, .cls-20, .cls-21 { stroke-miterlimit: 10; } .cls-2 { stroke-dasharray: 5.14 5.14; } .cls-2, .cls-3, .cls-4, .cls-5, .cls-6, .cls-7, .cls-8, .cls-9, .cls-10, .cls-11, .cls-12, .cls-13, .cls-14, .cls-15, .cls-16, .cls-17, .cls-18, .cls-19, .cls-22, .cls-23, .cls-24, .cls-25, .cls-26, .cls-27 { stroke-linecap: round; stroke-linejoin: round; } .cls-2, .cls-12, .cls-13, .cls-15, .cls-17, .cls-18, .cls-27 { stroke: #75655e; } .cls-3 { stroke-dasharray: 1 1; } .cls-3, .cls-4, .cls-5, .cls-6, .cls-7, .cls-8, .cls-9, .cls-10, .cls-11, .cls-16, .cls-19, .cls-22, .cls-24, .cls-26 { stroke: #55453d; stroke-width: .15px; } .cls-28 { fill: #3a2a22; } .cls-29 { fill: #231f20; } .cls-4 { stroke-dasharray: 1.02 1.02; } .cls-5 { stroke-dasharray: 1.02 1.02; } .cls-7 { stroke-dasharray: .63 .63; } .cls-8 { stroke-dasharray: .95 .95; } .cls-9 { stroke-dasharray: .91 .91; } .cls-30 { fill: #fff; } .cls-10 { stroke-dasharray: 1.07 1.07; } .cls-11 { stroke-dasharray: 1.23 1.23; } .cls-12 { stroke-dasharray: 1.42 1.42; } .cls-13 { stroke-dasharray: 3.6 3.6; } .cls-14, .cls-20 { stroke-width: .75px; } .cls-14, .cls-20, .cls-23, .cls-25 { stroke: #3a2a22; } .cls-31 { fill: #bc8ebc; } .cls-16 { stroke-dasharray: 1.02 1.02; } .cls-17 { stroke-dasharray: 5.44 5.44; } .cls-18 { stroke-dasharray: 5.26 5.26; } .cls-19 { stroke-dasharray: 1.13 1.13; } .cls-21 { stroke: #bc8ebc; } .cls-22 { stroke-dasharray: 1.01 1.01; } .cls-32 { fill: #afa49f; } .cls-24 { stroke-dasharray: 1 1; } .cls-25 { stroke-width: .35px; } .cls-33 { fill: #75655e; } .cls-26 { stroke-dasharray: 1.01 1.01; } .cls-27 { stroke-dasharray: 5.24 5.24; } </style></defs><g id="Layer_1-2" data-name="Layer 1"><g><polygon class="cls-30" points=".38 531.37 35.03 529.43 69.67 527.21 104.33 524.72 138.88 521.76 173.44 518.53 208 514.92 238.02 511.41 237 503.46 248.83 502.05 282.01 497.83 318.97 492.75 355.84 487.3 355.84 495.52 373.88 492.63 373.88 108.16 232.97 108.16 232.97 20.38 89.43 20.38 89.43 46.9 .45 46.9 .38 531.37"></polygon><line class="cls-6" x1="238.02" y1="511.41" x2="238.51" y2="511.35"></line><line class="cls-5" x1="239.52" y1="511.23" x2="257.17" y2="509.13"></line><line class="cls-6" x1="257.67" y1="509.07" x2="258.17" y2="509.01"></line><line class="cls-6" x1="257.25" y1="500.97" x2="257.3" y2="501.47"></line><line class="cls-22" x1="257.42" y1="502.47" x2="258.06" y2="508.01"></line><polyline class="cls-6" points="258.11 508.51 258.17 509.01 258.67 508.95"></polyline><line class="cls-9" x1="259.57" y1="508.83" x2="264.52" y2="508.21"></line><line class="cls-6" x1="264.97" y1="508.15" x2="265.47" y2="508.09"></line><line class="cls-6" x1="264.45" y1="500.14" x2="264.52" y2="500.64"></line><line class="cls-3" x1="264.64" y1="501.63" x2="265.34" y2="507.09"></line><polyline class="cls-6" points="265.41 507.59 265.47 508.09 265.97 508.03"></polyline><line class="cls-8" x1="266.91" y1="507.92" x2="270.23" y2="507.55"></line><line class="cls-6" x1="270.7" y1="507.5" x2="271.2" y2="507.44"></line><line class="cls-6" x1="270.18" y1="499.4" x2="270.25" y2="499.9"></line><line class="cls-26" x1="270.37" y1="500.9" x2="271.07" y2="506.44"></line><polyline class="cls-6" points="271.14 506.94 271.2 507.44 271.69 507.37"></polyline><line class="cls-19" x1="272.81" y1="507.2" x2="274.49" y2="506.95"></line><line class="cls-6" x1="275.05" y1="506.87" x2="275.54" y2="506.79"></line><line class="cls-6" x1="274.53" y1="498.85" x2="274.59" y2="499.34"></line><line class="cls-3" x1="274.72" y1="500.34" x2="275.42" y2="505.8"></line><polyline class="cls-6" points="275.48 506.3 275.54 506.79 276.04 506.73"></polyline><line class="cls-7" x1="276.66" y1="506.65" x2="277.6" y2="506.53"></line><line class="cls-6" x1="277.91" y1="506.49" x2="278.41" y2="506.42"></line><line class="cls-6" x1="277.39" y1="498.48" x2="277.45" y2="498.97"></line><line class="cls-3" x1="277.58" y1="499.97" x2="278.28" y2="505.43"></line><polyline class="cls-6" points="278.34 505.93 278.41 506.42 278.9 506.37"></polyline><line class="cls-6" x1="279.67" y1="506.29" x2="280.16" y2="506.24"></line><line class="cls-6" x1="279.15" y1="498.2" x2="279.21" y2="498.7"></line><line class="cls-26" x1="279.34" y1="499.7" x2="280.04" y2="505.24"></line><polyline class="cls-6" points="280.1 505.74 280.16 506.24 280.44 506.24"></polyline><line class="cls-6" x1="279.42" y1="498.2" x2="279.49" y2="498.7"></line><line class="cls-26" x1="279.61" y1="499.7" x2="280.31" y2="505.24"></line><line class="cls-6" x1="280.38" y1="505.74" x2="280.44" y2="506.24"></line><line class="cls-6" x1="248.83" y1="502.05" x2="248.9" y2="502.54"></line><line class="cls-3" x1="249.03" y1="503.54" x2="249.73" y2="509.01"></line><line class="cls-6" x1="249.79" y1="509.51" x2="249.85" y2="510"></line><line class="cls-6" x1="341.05" y1="497.74" x2="341.55" y2="497.66"></line><line class="cls-10" x1="342.61" y1="497.5" x2="354.81" y2="495.67"></line><line class="cls-6" x1="355.34" y1="495.59" x2="355.84" y2="495.52"></line><line class="cls-6" x1="335.05" y1="498.57" x2="335.54" y2="498.5"></line><line class="cls-22" x1="336.55" y1="498.36" x2="340.06" y2="497.88"></line><polyline class="cls-6" points="340.56 497.81 341.05 497.74 340.98 497.24"></polyline><line class="cls-4" x1="340.83" y1="496.24" x2="340" y2="490.7"></line><line class="cls-6" x1="339.93" y1="490.19" x2="339.85" y2="489.7"></line><line class="cls-6" x1="330.71" y1="499.22" x2="331.2" y2="499.14"></line><line class="cls-19" x1="332.32" y1="498.98" x2="333.99" y2="498.73"></line><polyline class="cls-6" points="334.55 498.64 335.05 498.57 334.97 498.07"></polyline><line class="cls-24" x1="334.82" y1="497.08" x2="334" y2="491.61"></line><line class="cls-6" x1="333.92" y1="491.12" x2="333.85" y2="490.62"></line><line class="cls-6" x1="326.09" y1="499.95" x2="326.58" y2="499.88"></line><line class="cls-11" x1="327.79" y1="499.68" x2="329.61" y2="499.39"></line><polyline class="cls-6" points="330.21 499.29 330.71 499.22 330.63 498.72"></polyline><line class="cls-24" x1="330.48" y1="497.73" x2="329.65" y2="492.26"></line><line class="cls-6" x1="329.58" y1="491.76" x2="329.5" y2="491.27"></line><polyline class="cls-6" points="325.81 499.95 326.08 499.95 326.01 499.46"></polyline><line class="cls-4" x1="325.86" y1="498.45" x2="325.03" y2="492.91"></line><line class="cls-6" x1="324.96" y1="492.41" x2="324.88" y2="491.92"></line><polyline class="cls-6" points="325.16 500.05 325.81 499.96 325.73 499.46"></polyline><line class="cls-4" x1="325.58" y1="498.45" x2="324.76" y2="492.91"></line><line class="cls-6" x1="324.68" y1="492.41" x2="324.61" y2="491.92"></line><line class="cls-6" x1="325.16" y1="500.05" x2="325.09" y2="499.55"></line><line class="cls-5" x1="324.95" y1="498.54" x2="324.19" y2="493.01"></line><line class="cls-6" x1="324.12" y1="492.5" x2="324.05" y2="492.01"></line><line class="cls-6" x1="347.87" y1="496.71" x2="347.8" y2="496.22"></line><line class="cls-16" x1="347.65" y1="495.21" x2="346.81" y2="489.65"></line><line class="cls-6" x1="346.73" y1="489.15" x2="346.66" y2="488.66"></line><polyline class="cls-25" points="208 500.97 244.96 496.72 282.01 492.01 318.97 486.93 355.84 481.48"></polyline><polyline class="cls-25" points="208 498.97 244.96 494.72 282.01 490.01 318.97 484.92 355.84 479.47"></polyline><g><path class="cls-6" d="M213.78,76.67c-25.57,0-43.49-20.73-43.49-46.29"></path><path class="cls-6" d="M241.45,235.89c0,23.13-18.62,39.35-41.58,39.35"></path><path class="cls-6" d="M277.3,125.01c0,23.13-18.62,39.35-41.58,39.35"></path><path class="cls-6" d="M249.58,417.27c0,23.13-18.62,39.35-41.58,39.35"></path></g><line class="cls-6" x1="170.39" y1="20.38" x2="216.59" y2="20.38"></line><line class="cls-6" x1="170.3" y1="30.38" x2="213.78" y2="30.38"></line><rect class="cls-25" x="213.78" y="30.38" width="2.81" height="46.29"></rect><rect class="cls-25" x="199.87" y="233.66" width="41.58" height="2.23"></rect><rect class="cls-25" x="235.72" y="122.78" width="41.58" height="2.23"></rect><rect class="cls-25" x="208" y="415.04" width="41.58" height="2.23"></rect><rect class="cls-25" x="302.71" y="249.83" width="34.65" height="2.69"></rect><rect class="cls-25" x="268.06" y="252.53" width="34.65" height="2.69"></rect><rect class="cls-25" x="194.14" y="178.22" width="2.69" height="41.58"></rect><rect class="cls-25" x="146.35" y="33.8" width="2.69" height="41.58"></rect><polyline class="cls-15" points="12.5 159.07 12.5 159.82 13.25 159.82"></polyline><line class="cls-12" x1="14.67" y1="159.82" x2="36.71" y2="159.82"></line><polyline class="cls-15" points="37.42 159.82 38.17 159.82 38.17 159.07"></polyline><line class="cls-12" x1="38.17" y1="157.65" x2="38.17" y2="135.62"></line><polyline class="cls-15" points="38.17 134.9 38.17 134.15 37.42 134.15"></polyline><line class="cls-12" x1="36" y1="134.15" x2="13.96" y2="134.15"></line><polyline class="cls-15" points="13.25 134.15 12.5 134.15 12.5 134.9"></polyline><line class="cls-12" x1="12.5" y1="136.33" x2="12.5" y2="158.36"></line><polyline class="cls-15" points="12.5 225.03 12.5 225.78 13.25 225.78"></polyline><line class="cls-12" x1="14.67" y1="225.78" x2="36.71" y2="225.78"></line><polyline class="cls-15" points="37.42 225.78 38.17 225.78 38.17 225.03"></polyline><line class="cls-12" x1="38.17" y1="223.61" x2="38.17" y2="201.58"></line><polyline class="cls-15" points="38.17 200.87 38.17 200.12 37.42 200.12"></polyline><line class="cls-12" x1="36" y1="200.12" x2="13.96" y2="200.12"></line><polyline class="cls-15" points="13.25 200.12 12.5 200.12 12.5 200.87"></polyline><line class="cls-12" x1="12.5" y1="202.29" x2="12.5" y2="224.32"></line><line class="cls-15" x1="57.46" y1="72.71" x2="54.96" y2="72.71"></line><line class="cls-27" x1="49.72" y1="72.71" x2="31.38" y2="72.71"></line><polyline class="cls-15" points="28.76 72.71 26.26 72.71 26.26 75.21"></polyline><polyline class="cls-15" points="26.26 77.69 26.26 80.19 23.76 80.19"></polyline><line class="cls-13" x1="20.15" y1="80.19" x2="14.75" y2="80.19"></line><line class="cls-15" x1="12.95" y1="80.19" x2="10.45" y2="80.19"></line><line class="cls-15" x1="26.26" y1="228.35" x2="26.26" y2="225.85"></line><line class="cls-2" x1="26.26" y1="220.71" x2="26.26" y2="151.4"></line><polyline class="cls-15" points="26.26 148.83 26.26 146.33 23.76 146.33"></polyline><line class="cls-13" x1="20.15" y1="146.33" x2="14.75" y2="146.33"></line><line class="cls-15" x1="12.95" y1="146.33" x2="10.45" y2="146.33"></line><line class="cls-15" x1="10.45" y1="92.36" x2="12.95" y2="92.36"></line><line class="cls-17" x1="18.38" y1="92.36" x2="26.54" y2="92.36"></line><polyline class="cls-15" points="29.25 92.36 31.75 92.36 31.75 94.86"></polyline><line class="cls-18" x1="31.75" y1="100.12" x2="31.75" y2="129.03"></line><polyline class="cls-15" points="31.75 131.65 31.75 134.15 29.25 134.15"></polyline><line class="cls-17" x1="23.82" y1="134.15" x2="15.66" y2="134.15"></line><line class="cls-15" x1="12.95" y1="134.15" x2="10.45" y2="134.15"></line><line class="cls-25" x1="38.17" y1="84.62" x2="93.61" y2="84.62"></line><line class="cls-25" x1="57.46" y1="84.62" x2="57.46" y2="56.9"></line><line class="cls-25" x1="57.46" y1="82.12" x2="93.61" y2="82.12"></line><g><rect class="cls-25" x="12.17" y="179.73" width="7.83" height="1.59" rx=".54" ry=".54"></rect><circle class="cls-25" cx="26.21" cy="180.53" r=".82"></circle></g><polyline class="cls-25" points="13.37 179.73 13.37 177.52 14.79 177.52 14.79 179.73"></polyline><line class="cls-25" x1="14.79" y1="178.31" x2="13.37" y2="178.31"></line><polyline class="cls-25" points="15.8 179.73 15.8 168.71 35.68 168.71 35.68 192.34 15.8 192.34 15.8 181.32"></polyline><polyline class="cls-25" points="16.78 181.32 16.78 191.36 34.7 191.36 34.7 169.7 16.78 169.7 16.78 179.73"></polyline><line class="cls-25" x1="38.17" y1="84.62" x2="38.17" y2="289.1"></line><line class="cls-25" x1="38.17" y1="246.95" x2="10.45" y2="246.95"></line><line class="cls-25" x1="38.17" y1="228.35" x2="10.45" y2="228.35"></line><line class="cls-25" x1="35.67" y1="246.95" x2="35.67" y2="289.1"></line><line class="cls-25" x1="35.67" y1="228.35" x2="35.67" y2="246.95"></line><rect class="cls-25" x="102.36" y="39.33" width="38.03" height="30.61"></rect><line class="cls-25" x1="337.05" y1="128.88" x2="340.26" y2="128.88"></line><g><path class="cls-25" d="M341.12,128.88h11.6c1.38,0,2.5,1.12,2.5,2.5v61.83c-.01,1.38-1.13,2.5-2.51,2.5h-24.04c-1.38,0-2.5-1.12-2.5-2.5v-61.83c.01-1.38,1.13-2.5,2.51-2.5h8.37"></path><path class="cls-25" d="M340.26,124.86v10.86c0,.24.19.43.43.43s.43-.19.43-.43v-10.81"></path><path class="cls-25" d="M341.12,134.64c.46.17.79.61.79,1.14,0,.67-.54,1.21-1.21,1.21s-1.21-.54-1.21-1.21c0-.51.32-.95.77-1.13"></path><path class="cls-25" d="M341.12,130.6c2.67.22,4.76,2.45,4.76,5.17,0,2.86-2.32,5.18-5.18,5.18-2.86,0-5.18-2.32-5.18-5.18,0-2.71,2.09-4.94,4.74-5.16"></path></g><rect class="cls-25" x="338.16" y="123.89" width="5.08" height=".97"></rect><line class="cls-25" x1="322.47" y1="123.89" x2="322.46" y2="200.11"></line><line class="cls-25" x1="321.19" y1="123.89" x2="321.18" y2="200.07"></line><line class="cls-25" x1="321.19" y1="128.57" x2="322.47" y2="128.57"></line><line class="cls-25" x1="321.18" y1="166.57" x2="322.46" y2="166.57"></line><g><path class="cls-25" d="M293.03,206.51h15.44c.6,0,1.08.48,1.08,1.08v5.29c0,.6-.48,1.08-1.08,1.08h-15.44c-.6,0-1.08-.48-1.08-1.08v-5.29c0-.6.48-1.08,1.08-1.08Z"></path><path class="cls-25" d="M305.21,202.37c.28,0,.54-.11.73-.32,1.88-2.09,3.08-5.3,3.08-8.9,0-6.31-3.71-11.42-8.28-11.42s-8.28,5.11-8.28,11.42c0,3.6,1.2,6.8,3.08,8.9.19.21.46.32.73.32h8.92Z"></path></g><line class="cls-25" x1="309.02" y1="193.15" x2="309.02" y2="206.67"></line><line class="cls-25" x1="292.47" y1="193.15" x2="292.47" y2="206.67"></line><polyline class="cls-25" points="280.07 213.97 280.07 188.95 235.65 188.95"></polyline><path class="cls-25" d="M262.06,205.9h-9.87c-.4,0-.72-.32-.72-.72v-10.9c0-.4.32-.72.72-.72h20.82c.4,0,.72.32.72.72v10.9c0,.4-.32.72-.72.72h-9.48"></path><rect class="cls-25" x="262.06" y="203.47" width="1.47" height="5.89"></rect><circle class="cls-25" cx="262.8" cy="199.73" r=".84"></circle><rect class="cls-25" x="12.89" y="94.77" width="24.28" height="36.98"></rect><rect class="cls-25" x="13.97" y="95.85" width="22.12" height="34.82"></rect><path class="cls-25" d="M35.34,113.26c0,.71-.57,1.28-1.28,1.28s-1.28-.57-1.28-1.28.57-1.28,1.28-1.28c.71,0,1.28.57,1.28,1.28Z"></path><line class="cls-25" x1="36.09" y1="130.66" x2="37.17" y2="131.74"></line><line class="cls-25" x1="36.08" y1="95.85" x2="37.16" y2="94.77"></line><line class="cls-25" x1="13.97" y1="95.85" x2="12.89" y2="94.77"></line><line class="cls-25" x1="13.97" y1="130.67" x2="12.89" y2="131.75"></line><polygon class="cls-25" points="34.05 112.2 33 113.26 34.05 114.31 35.11 113.26 34.05 112.2"></polygon><line class="cls-25" x1="33" y1="113.26" x2="35.11" y2="113.26"></line><g><path class="cls-23" d="M213.02,204c-1.51.03-3.03.06-4.57.13-.8.04-1.6.09-2.35.13-.57.03-1.11.07-1.78.16-.65.09-1.42.25-1.73-.23-.07-.11-.12-.25-.13-.38-.06-.77,1.18-.9,2.24-.97,2.35-.15,3.74.04,5.44.16.9.06,1.9.1,2.89.14.99-.04,1.98-.08,2.89-.14,1.7-.12,3.09-.3,5.44-.16,1.05.07,2.3.2,2.24.97-.01.13-.06.27-.12.38-.31.48-1.08.33-1.73.23-.67-.1-1.21-.13-1.78-.16-.75-.04-1.56-.09-2.35-.13-1.55-.07-3.06-.1-4.57-.13Z"></path><path class="cls-23" d="M213.02,199.3c-1.51.03-3.03.06-4.57.13-.8.04-1.6.09-2.35.13-.57.03-1.11.07-1.78.16-.65.09-1.42.25-1.73-.23-.07-.11-.12-.25-.13-.38-.06-.77,1.18-.9,2.24-.97,2.35-.15,3.74.04,5.44.16.9.06,1.9.1,2.89.14.99-.04,1.98-.08,2.89-.14,1.7-.12,3.09-.3,5.44-.16,1.05.07,2.3.2,2.24.97-.01.13-.06.27-.12.38-.31.48-1.08.32-1.73.23-.67-.1-1.21-.13-1.78-.16-.75-.04-1.56-.09-2.35-.13-1.55-.07-3.06-.1-4.57-.13Z"></path><path class="cls-23" d="M213.02,194.61c-1.51.03-3.03.06-4.57.13-.8.04-1.6.09-2.35.13-.57.03-1.11.07-1.78.16-.65.09-1.42.25-1.73-.23-.07-.11-.12-.25-.13-.38-.06-.77,1.18-.9,2.24-.97,2.35-.15,3.74.04,5.44.16.9.06,1.9.1,2.89.14.99-.04,1.98-.08,2.89-.14,1.7-.12,3.09-.3,5.44-.16,1.05.07,2.3.2,2.24.97-.01.13-.06.27-.12.38-.31.48-1.08.33-1.73.23-.67-.1-1.21-.13-1.78-.16-.75-.04-1.56-.09-2.35-.13-1.55-.07-3.06-.1-4.57-.13Z"></path></g><line class="cls-23" x1="213.02" y1="174.71" x2="213.02" y2="223.22"></line><line class="cls-23" x1="208.09" y1="404.6" x2="345.4" y2="404.6"></line><polyline class="cls-23" points="199.87 458.93 199.87 507.62 163.65 511.32 127.42 514.65 91.11 517.6 54.8 520.19 25.36 521.91"></polyline><polyline class="cls-23" points="208 506.79 244.96 502.54 282.01 497.83 318.97 492.75 355.84 487.3"></polyline><line class="cls-23" x1="373.88" y1="490.33" x2="373.88" y2="484.47"></line><line class="cls-23" x1=".38" y1="529.06" x2=".38" y2="523.28"></line><polygon class="cls-14" points="373.88 492.63 355.84 495.52 355.84 412.73 208 412.73 208 410.42 358.15 410.42 358.15 492.84 373.88 490.33 373.88 492.63"></polygon><polygon class="cls-14" points=".38 529.06 34.66 527.21 68.94 524.99 103.12 522.5 137.31 519.64 171.5 516.4 205.69 512.8 205.69 458.93 208 458.93 208 514.92 173.44 518.53 138.88 521.76 104.33 524.72 69.67 527.21 35.03 529.43 .38 531.37 .38 529.06"></polygon><polyline class="cls-14" points="208 514.92 238.02 511.41 237.73 509.19 237.74 509.19 208 512.61"></polyline><rect class="cls-14" x="346.6" y="404.6" width="2.31" height="5.82"></rect><rect class="cls-14" x="358.15" y="411.53" width="5.73" height="2.31"></rect><polyline class="cls-14" points="370.16 485.08 371.08 490.81 368.77 491.18 367.94 485.45 370.16 485.08"></polyline><polyline class="cls-14" points="164.39 511.32 164.94 517.05 162.63 517.23 162.08 511.5 164.39 511.32"></polyline><polyline class="cls-14" points="95.45 517.23 95.92 523.05 93.61 523.24 93.14 517.42 95.45 517.23"></polyline><polyline class="cls-14" points="26.43 521.85 26.8 527.67 24.49 527.77 24.21 522.04 26.43 521.85"></polyline><polygon class="cls-14" points="237 503.46 237.73 509.19 235.43 509.46 234.69 503.72 237 503.46"></polygon><rect class="cls-14" x="199.87" y="410.42" width="8.13" height="4.62"></rect><rect class="cls-14" x="199.87" y="456.62" width="8.13" height="2.31"></rect><rect class="cls-14" x="292.27" y="404.6" width="2.31" height="5.82"></rect><rect class="cls-14" x="222.97" y="404.6" width="2.31" height="5.82"></rect><rect class="cls-14" x="206.8" y="404.6" width="2.31" height="5.82"></rect><polyline class="cls-14" points="363.88 484.25 358.15 490.99 358.15 492.84 359.9 492.56 365.63 485.82 363.88 486.09 363.88 484.25"></polyline><polyline class="cls-14" points="199.87 507.62 198.3 507.81 204.12 512.98 205.69 512.8 205.69 511.32 199.87 506.15 199.87 507.62"></polyline><polygon class="cls-28" points="373.88 484.47 363.88 486.09 363.88 404.6 345.4 404.6 345.4 255.65 337.36 255.65 337.36 249.83 360.46 249.83 360.46 222.11 261.13 222.11 261.13 249.83 268.06 249.83 268.06 255.65 255.31 255.65 255.31 229.04 199.87 229.04 199.87 233.66 194.14 233.66 194.14 219.8 199.87 219.8 199.87 223.22 227.59 223.22 227.59 174.71 199.87 174.71 199.87 178.22 194.14 178.22 194.14 168.98 229.9 168.98 229.9 164.36 235.72 164.36 235.72 213.98 321.19 213.98 321.19 200.12 360.46 200.12 360.46 123.89 321.19 123.89 321.19 118.16 235.72 118.16 235.72 122.78 229.9 122.78 229.9 118.16 222.97 118.16 222.97 30.38 216.59 30.38 216.59 20.38 232.97 20.38 232.97 108.16 373.88 108.16 373.88 484.47"></polygon><polygon class="cls-20" points="373.88 484.47 363.88 486.09 363.88 404.6 345.4 404.6 345.4 255.65 337.36 255.65 337.36 249.83 360.46 249.83 360.46 222.11 261.13 222.11 261.13 249.83 268.06 249.83 268.06 255.65 255.31 255.65 255.31 229.04 199.87 229.04 199.87 233.66 194.14 233.66 194.14 219.8 199.87 219.8 199.87 223.22 227.59 223.22 227.59 174.71 199.87 174.71 199.87 178.22 194.14 178.22 194.14 168.98 229.9 168.98 229.9 164.36 235.72 164.36 235.72 213.98 321.19 213.98 321.19 200.12 360.46 200.12 360.46 123.89 321.19 123.89 321.19 118.16 235.72 118.16 235.72 122.78 229.9 122.78 229.9 118.16 222.97 118.16 222.97 30.38 216.59 30.38 216.59 20.38 232.97 20.38 232.97 108.16 373.88 108.16 373.88 484.47"></polygon><polygon class="cls-28" points="199.91 275.24 199.91 398.87 208.09 398.87 208.09 404.6 199.87 404.6 199.87 413.84 194.14 413.84 194.14 275.24 199.91 275.24"></polygon><polygon class="cls-20" points="199.91 275.24 199.91 398.87 208.09 398.87 208.09 404.6 199.87 404.6 199.87 413.84 194.14 413.84 194.14 275.24 199.91 275.24"></polygon><polygon class="cls-28" points=".45 523.28 25.32 521.95 24.95 516.22 10.45 516.96 10.45 442.76 23.75 442.76 23.75 298.34 38.17 298.34 38.17 289.1 10.45 289.1 10.45 56.9 93.61 56.9 93.61 84.62 149.09 84.62 149.09 75.38 143.32 75.38 143.32 78.89 99.43 78.89 99.43 30.38 143.32 30.38 143.32 33.8 149.05 33.8 149.05 30.38 170.39 30.38 170.39 20.38 89.43 20.38 89.43 46.9 .45 46.9 .45 523.28"></polygon><polygon class="cls-20" points=".45 523.28 25.32 521.95 24.95 516.22 10.45 516.96 10.45 442.76 23.75 442.76 23.75 298.34 38.17 298.34 38.17 289.1 10.45 289.1 10.45 56.9 93.61 56.9 93.61 84.62 149.09 84.62 149.09 75.38 143.32 75.38 143.32 78.89 99.43 78.89 99.43 30.38 143.32 30.38 143.32 33.8 149.05 33.8 149.05 30.38 170.39 30.38 170.39 20.38 89.43 20.38 89.43 46.9 .45 46.9 .45 523.28"></polygon><g><path class="cls-31" d="M193.63,8.22c-.02.08-.07.14-.14.14s-.13-.06-.14-.14c-.56-3.3-2.74-4.94-6.02-4.94h-3.83c-1.16,0-1.98-1.01-2.21-2.66-.05-.34.23-.61.47-.46.46.31,1.06.47,1.78.47h3.48c2.95,0,5.22,1.67,6.17,4.98.11.37.5.37.61,0,.96-3.31,3.22-4.98,6.18-4.98h3.48c.72,0,1.31-.16,1.78-.47.23-.16.51.12.47.46-.22,1.64-1.05,2.66-2.2,2.66h-3.84c-3.29,0-5.46,1.64-6.02,4.95h0Z"></path><path class="cls-21" d="M193.63,8.22c-.02.08-.07.14-.14.14s-.13-.06-.14-.14c-.56-3.3-2.74-4.94-6.02-4.94h-3.83c-1.16,0-1.98-1.01-2.21-2.66-.05-.34.23-.61.47-.46.46.31,1.06.47,1.78.47h3.48c2.95,0,5.22,1.67,6.17,4.98.11.37.5.37.61,0,.96-3.31,3.22-4.98,6.18-4.98h3.48c.72,0,1.31-.16,1.78-.47.23-.16.51.12.47.46-.22,1.64-1.05,2.66-2.2,2.66h-3.84c-3.29,0-5.46,1.64-6.02,4.95h0Z"></path></g><g><path class="cls-28" d="M223.08,325.93h2.52c1.9,0,2.97.89,2.97,2.53s-1.07,2.54-2.97,2.54h-1.72v3.99h-.8v-9.06ZM225.52,330.28c1.41,0,2.24-.61,2.24-1.81s-.81-1.81-2.24-1.81h-1.64v3.62h1.64Z"></path><path class="cls-28" d="M230.07,328.59h.78v1.09c.43-.78,1.31-1.18,2.02-1.18.33,0,.66.07.99.24l-.39.7c-.21-.1-.51-.17-.77-.17-.68,0-1.46.36-1.74,1.3-.08.27-.12.57-.12,1.27v3.15h-.78v-6.41Z"></path><path class="cls-28" d="M235.13,325.93h.94v1.39h-.94v-1.39ZM235.21,328.59h.77v6.41h-.77v-6.41Z"></path><path class="cls-28" d="M238.02,328.59h.78v1.1c.38-.84,1.11-1.19,1.88-1.19.91,0,1.57.4,1.89,1.25.4-.83,1.09-1.25,2-1.25,1.55,0,2.13,1.16,2.13,2.68v3.82h-.78v-3.64c0-1.33-.39-2.18-1.52-2.18-1.02,0-1.65.77-1.65,2.26v3.57h-.78v-3.76c0-1.4-.52-2.07-1.5-2.07-1.03,0-1.67.79-1.67,2.26v3.57h-.78v-6.41Z"></path><path class="cls-28" d="M252.84,333.79c-.43.82-1.25,1.29-2.25,1.29-1.44,0-2.31-.77-2.31-1.94,0-.69.29-1.16.72-1.44.46-.31,1.09-.42,1.77-.42h2.05v-.28c0-1.19-.62-1.83-1.82-1.83-.79,0-1.4.29-1.98,1.02l-.56-.48c.68-.84,1.53-1.21,2.59-1.21,1.63,0,2.54.89,2.54,2.51v3.99h-.71l-.04-1.2ZM250.67,334.44c1.18,0,2.17-.93,2.17-2.2v-.36h-1.95c-.51,0-1.03.08-1.37.32-.28.21-.44.51-.44.94,0,.79.6,1.3,1.6,1.3Z"></path><path class="cls-28" d="M255.56,328.59h.78v1.09c.43-.78,1.31-1.18,2.02-1.18.33,0,.66.07.99.24l-.39.7c-.21-.1-.51-.17-.77-.17-.68,0-1.46.36-1.74,1.3-.08.27-.12.57-.12,1.27v3.15h-.78v-6.41Z"></path><path class="cls-28" d="M262.61,334.79l-2.55-6.21h.86l2.1,5.42,2.11-5.42h.85l-3.69,9.05h-.84l1.17-2.84Z"></path><path class="cls-28" d="M270.87,325.93h2.72c1.68,0,2.68.84,2.68,2.25,0,.94-.46,1.68-1.24,2,1.1.25,1.7,1.07,1.7,2.31,0,1.61-1.02,2.5-2.88,2.5h-2.97v-9.06ZM273.84,329.94c.98,0,1.63-.64,1.63-1.64s-.69-1.61-1.88-1.61h-1.91v3.26h2.16ZM273.79,334.25c1.42,0,2.14-.6,2.14-1.79,0-1.13-.66-1.79-1.79-1.79h-2.46v3.58h2.11Z"></path><path class="cls-28" d="M278.19,331.84c0-1.84.99-3.34,2.81-3.34,1.96,0,2.76,1.53,2.76,2.94,0,.1-.01.4-.04.55h-4.76c.03,1.51.84,2.39,2.14,2.39.82,0,1.35-.23,1.91-.83l.55.49c-.73.75-1.43,1.05-2.46,1.05-1.89,0-2.91-1.41-2.91-3.25ZM283.01,331.41c0-.08,0-.16,0-.24,0-.92-.58-2.01-2-2.01-1.23,0-1.98.98-2.07,2.26h4.06Z"></path><path class="cls-28" d="M285.16,331.78c0-1.96,1.29-3.29,2.92-3.29,1.05,0,1.87.54,2.29,1.36v-3.92h.77v9.06h-.77v-1.26c-.44.84-1.25,1.35-2.29,1.35-1.72,0-2.92-1.42-2.92-3.3ZM288.2,334.36c1.3,0,2.23-1.08,2.23-2.58s-.93-2.58-2.23-2.58-2.26,1.09-2.26,2.58.95,2.58,2.26,2.58Z"></path><path class="cls-28" d="M293.18,328.59h.78v1.09c.43-.78,1.31-1.18,2.02-1.18.33,0,.66.07.99.24l-.39.7c-.21-.1-.51-.17-.77-.17-.68,0-1.46.36-1.74,1.3-.08.27-.12.57-.12,1.27v3.15h-.78v-6.41Z"></path><path class="cls-28" d="M297.56,331.78c0-1.92,1.25-3.29,3.05-3.29s3.04,1.37,3.04,3.29-1.27,3.3-3.04,3.3-3.05-1.37-3.05-3.3ZM300.61,334.39c1.37,0,2.26-1.04,2.26-2.61s-.9-2.61-2.26-2.61-2.28,1.05-2.28,2.61.9,2.61,2.28,2.61Z"></path><path class="cls-28" d="M305.09,331.78c0-1.92,1.25-3.29,3.05-3.29s3.04,1.37,3.04,3.29-1.27,3.3-3.04,3.3-3.05-1.37-3.05-3.3ZM308.14,334.39c1.37,0,2.26-1.04,2.26-2.61s-.9-2.61-2.26-2.61-2.28,1.05-2.28,2.61.9,2.61,2.28,2.61Z"></path><path class="cls-28" d="M312.93,328.59h.78v1.1c.38-.84,1.11-1.19,1.88-1.19.91,0,1.57.4,1.89,1.25.4-.83,1.09-1.25,2-1.25,1.55,0,2.13,1.16,2.13,2.68v3.82h-.78v-3.64c0-1.33-.39-2.18-1.52-2.18-1.02,0-1.65.77-1.65,2.26v3.57h-.78v-3.76c0-1.4-.52-2.07-1.5-2.07-1.03,0-1.67.79-1.67,2.26v3.57h-.78v-6.41Z"></path></g><g><path class="cls-28" d="M81.93,224.28h2.43c2.94,0,4.62,1.68,4.62,4.6s-1.64,4.46-4.63,4.46h-2.42v-9.06ZM84.28,232.59c2.5,0,3.89-1.16,3.89-3.74s-1.4-3.83-3.82-3.83h-1.61v7.57h1.54Z"></path><path class="cls-28" d="M90.59,224.28h.94v1.39h-.94v-1.39ZM90.67,226.93h.77v6.41h-.77v-6.41Z"></path><path class="cls-28" d="M93.48,226.93h.78v1.05c.4-.76,1.12-1.14,2.01-1.14,1.38,0,2.2.81,2.2,2.51v3.99h-.78v-3.71c0-1.45-.55-2.11-1.61-2.11-1.16,0-1.83.79-1.83,2.55v3.27h-.78v-6.41Z"></path><path class="cls-28" d="M100.36,224.28h.94v1.39h-.94v-1.39ZM100.44,226.93h.77v6.41h-.77v-6.41Z"></path><path class="cls-28" d="M103.25,226.93h.78v1.05c.4-.76,1.12-1.14,2.01-1.14,1.38,0,2.2.81,2.2,2.51v3.99h-.78v-3.71c0-1.45-.55-2.11-1.61-2.11-1.16,0-1.83.79-1.83,2.55v3.27h-.78v-6.41Z"></path><path class="cls-28" d="M109.71,234.1s0-.1.03-.26l1.11-.88c-.57-.22-.96-.59-.96-1.26,0-.53.27-.9.72-1.2-.36-.37-.56-.87-.56-1.45,0-1.3,1.04-2.2,2.39-2.2.64,0,1.22.21,1.64.58l1.02-.86.4.49-1,.88c.19.33.3.71.3,1.14,0,1.28-.96,2.13-2.33,2.13-.53,0-.99-.12-1.37-.34-.31.18-.45.42-.45.72,0,.66.63.83,1.62.98,1.6.25,2.99.44,2.99,1.75,0,1.16-1.05,1.78-2.7,1.78-1.82,0-2.85-.7-2.85-2ZM112.57,235.49c1.09,0,1.92-.34,1.92-1.08,0-.86-1.16-.96-2.31-1.14-.31-.05-.6-.1-.89-.17l-.8.92c-.01.09-.01.11-.01.15,0,.9.79,1.33,2.09,1.33ZM112.44,230.56c.98,0,1.59-.65,1.59-1.53s-.64-1.56-1.58-1.56-1.62.65-1.62,1.55.63,1.55,1.61,1.55Z"></path><path class="cls-28" d="M120.19,224.28h2.52c1.99,0,2.97.93,2.97,2.5,0,1.25-.64,2.07-1.85,2.38l2.44,4.19h-.92l-2.34-4.07c-.21,0-.44,0-.65,0h-1.36v4.06h-.81v-9.06ZM122.63,228.56c1.38,0,2.24-.55,2.24-1.78s-.88-1.77-2.24-1.77h-1.64v3.56h1.64Z"></path><path class="cls-28" d="M127.2,230.13c0-1.92,1.25-3.29,3.05-3.29s3.04,1.36,3.04,3.29-1.27,3.3-3.04,3.3-3.05-1.36-3.05-3.3ZM130.25,232.73c1.37,0,2.26-1.04,2.26-2.61s-.9-2.61-2.26-2.61-2.28,1.05-2.28,2.61.9,2.61,2.28,2.61Z"></path><path class="cls-28" d="M134.73,230.13c0-1.92,1.25-3.29,3.05-3.29s3.04,1.36,3.04,3.29-1.27,3.3-3.04,3.3-3.05-1.36-3.05-3.3ZM137.78,232.73c1.37,0,2.26-1.04,2.26-2.61s-.9-2.61-2.26-2.61-2.28,1.05-2.28,2.61.9,2.61,2.28,2.61Z"></path><path class="cls-28" d="M142.57,226.93h.78v1.1c.38-.85,1.11-1.19,1.88-1.19.91,0,1.57.4,1.89,1.25.4-.83,1.09-1.25,2-1.25,1.55,0,2.13,1.16,2.13,2.68v3.82h-.78v-3.64c0-1.33-.39-2.18-1.52-2.18-1.02,0-1.65.77-1.65,2.26v3.57h-.78v-3.76c0-1.4-.52-2.07-1.5-2.07-1.03,0-1.67.79-1.67,2.26v3.57h-.78v-6.41Z"></path></g><g><path class="cls-28" d="M75.92,396.68h.81v8.33h4.18v.73h-4.99v-9.06Z"></path><path class="cls-28" d="M82.04,396.68h.94v1.39h-.94v-1.39ZM82.13,399.33h.77v6.41h-.77v-6.41Z"></path><path class="cls-28" d="M84.3,399.33h.86l2.1,5.42,2.11-5.42h.85l-2.61,6.41h-.68l-2.63-6.41Z"></path><path class="cls-28" d="M91.55,396.68h.94v1.39h-.94v-1.39ZM91.64,399.33h.77v6.41h-.77v-6.41Z"></path><path class="cls-28" d="M94.44,399.33h.78v1.05c.4-.76,1.12-1.14,2.01-1.14,1.38,0,2.2.81,2.2,2.51v3.99h-.78v-3.71c0-1.45-.55-2.11-1.61-2.11-1.16,0-1.83.79-1.83,2.55v3.27h-.78v-6.41Z"></path><path class="cls-28" d="M100.9,406.5s0-.1.03-.26l1.11-.88c-.57-.22-.96-.59-.96-1.26,0-.53.27-.9.72-1.2-.36-.37-.56-.87-.56-1.45,0-1.3,1.04-2.2,2.38-2.2.64,0,1.22.21,1.64.58l1.02-.86.4.49-1,.88c.19.33.3.71.3,1.14,0,1.28-.96,2.13-2.33,2.13-.53,0-.99-.12-1.37-.34-.31.17-.45.42-.45.71,0,.66.63.83,1.62.98,1.6.25,2.99.44,2.99,1.75,0,1.16-1.05,1.78-2.7,1.78-1.82,0-2.85-.7-2.85-2ZM103.76,407.89c1.09,0,1.92-.34,1.92-1.08,0-.86-1.16-.96-2.31-1.14-.31-.05-.6-.1-.89-.17l-.8.92c-.01.09-.01.11-.01.15,0,.9.79,1.33,2.09,1.33ZM103.63,402.97c.98,0,1.59-.65,1.59-1.53s-.64-1.56-1.58-1.56-1.62.65-1.62,1.55.63,1.55,1.61,1.55Z"></path><path class="cls-28" d="M111.38,396.68h2.52c1.99,0,2.97.93,2.97,2.5,0,1.25-.64,2.07-1.85,2.38l2.44,4.19h-.92l-2.34-4.07c-.21,0-.44,0-.65,0h-1.36v4.06h-.81v-9.06ZM113.83,400.96c1.38,0,2.24-.55,2.24-1.78s-.88-1.77-2.24-1.77h-1.64v3.56h1.64Z"></path><path class="cls-28" d="M118.39,402.53c0-1.92,1.25-3.29,3.05-3.29s3.04,1.37,3.04,3.29-1.27,3.3-3.04,3.3-3.05-1.37-3.05-3.3ZM121.44,405.14c1.37,0,2.26-1.04,2.26-2.61s-.9-2.61-2.26-2.61-2.28,1.05-2.28,2.61.9,2.61,2.28,2.61Z"></path><path class="cls-28" d="M125.92,402.53c0-1.92,1.25-3.29,3.05-3.29s3.04,1.37,3.04,3.29-1.27,3.3-3.04,3.3-3.05-1.37-3.05-3.3ZM128.97,405.14c1.37,0,2.26-1.04,2.26-2.61s-.9-2.61-2.26-2.61-2.28,1.05-2.28,2.61.9,2.61,2.28,2.61Z"></path><path class="cls-28" d="M133.76,399.33h.78v1.1c.38-.84,1.11-1.19,1.88-1.19.91,0,1.57.4,1.89,1.25.4-.83,1.09-1.25,2-1.25,1.55,0,2.13,1.16,2.13,2.68v3.82h-.78v-3.64c0-1.33-.39-2.18-1.52-2.18-1.02,0-1.65.77-1.65,2.26v3.57h-.78v-3.76c0-1.4-.52-2.07-1.5-2.07-1.03,0-1.67.79-1.67,2.26v3.57h-.78v-6.41Z"></path></g><g><path class="cls-28" d="M259.88,446.62h2.72c1.68,0,2.68.84,2.68,2.25,0,.94-.46,1.68-1.24,2,1.1.25,1.7,1.07,1.7,2.31,0,1.61-1.02,2.5-2.88,2.5h-2.97v-9.06ZM262.85,450.63c.98,0,1.63-.64,1.63-1.64s-.69-1.61-1.88-1.61h-1.91v3.26h2.16ZM262.8,454.94c1.42,0,2.14-.6,2.14-1.79,0-1.13-.66-1.79-1.79-1.79h-2.46v3.58h2.11Z"></path><path class="cls-28" d="M271.71,454.48c-.43.82-1.25,1.29-2.25,1.29-1.44,0-2.31-.77-2.31-1.94,0-.69.29-1.16.72-1.44.46-.31,1.09-.42,1.77-.42h2.05v-.28c0-1.19-.62-1.83-1.82-1.83-.79,0-1.4.29-1.98,1.02l-.56-.48c.68-.84,1.53-1.21,2.59-1.21,1.63,0,2.54.89,2.54,2.51v3.99h-.71l-.04-1.2ZM269.54,455.13c1.18,0,2.17-.93,2.17-2.2v-.36h-1.95c-.51,0-1.03.08-1.37.32-.28.21-.44.51-.44.94,0,.79.6,1.3,1.6,1.3Z"></path><path class="cls-28" d="M274.3,454.35v-7.73h.77v7.59c0,.6.23.84.64.84.17,0,.38-.04.61-.12v.67c-.29.11-.6.17-.84.17-.72,0-1.18-.44-1.18-1.42Z"></path><path class="cls-28" d="M277.26,452.47c0-1.83,1.06-3.29,2.86-3.29,1.17,0,2.09.58,2.51,1.74l-.7.27c-.27-.82-.9-1.33-1.81-1.33-1.42,0-2.09,1.25-2.09,2.61s.68,2.62,2.09,2.62c.91,0,1.53-.51,1.81-1.33l.7.27c-.42,1.16-1.34,1.75-2.51,1.75-1.8,0-2.86-1.46-2.86-3.3Z"></path><path class="cls-28" d="M283.87,452.47c0-1.92,1.25-3.29,3.05-3.29s3.04,1.37,3.04,3.29-1.27,3.3-3.04,3.3-3.05-1.37-3.05-3.3ZM286.92,455.08c1.37,0,2.26-1.04,2.26-2.61s-.9-2.61-2.26-2.61-2.28,1.05-2.28,2.61.9,2.61,2.28,2.61Z"></path><path class="cls-28" d="M291.71,449.27h.78v1.05c.4-.76,1.12-1.14,2.01-1.14,1.38,0,2.2.81,2.2,2.51v3.99h-.78v-3.71c0-1.45-.55-2.11-1.61-2.11-1.16,0-1.83.79-1.83,2.55v3.27h-.78v-6.41Z"></path><path class="cls-28" d="M300.42,455.48l-2.55-6.21h.86l2.1,5.42,2.11-5.42h.85l-3.69,9.05h-.84l1.17-2.84Z"></path></g><g><path class="cls-28" d="M69.07,108.78h.81v4.86l4.65-4.86h1.09l-3.45,3.54,3.48,5.52h-.95l-3.11-4.93-1.71,1.76v3.17h-.81v-9.06Z"></path><path class="cls-28" d="M76.8,108.78h.94v1.39h-.94v-1.39ZM76.88,111.44h.77v6.41h-.77v-6.41Z"></path><path class="cls-28" d="M80.45,116.36v-4.31h-1.42v-.62h1.42v-1.85l.79-.46v2.31h1.54v.62h-1.54v4.12c0,.71.22,1.11.81,1.11.19,0,.46-.04.73-.12v.62c-.32.1-.64.16-.92.16-.85,0-1.4-.49-1.4-1.57Z"></path><path class="cls-28" d="M83.8,114.63c0-1.83,1.06-3.29,2.86-3.29,1.17,0,2.09.58,2.51,1.74l-.7.27c-.27-.82-.9-1.33-1.81-1.33-1.42,0-2.09,1.25-2.09,2.61s.68,2.62,2.09,2.62c.91,0,1.53-.51,1.81-1.33l.7.27c-.42,1.16-1.34,1.75-2.51,1.75-1.8,0-2.86-1.46-2.86-3.3Z"></path><path class="cls-28" d="M90.8,108.78h.78v3.69c.4-.75,1.1-1.13,2.01-1.13,1.4,0,2.2.85,2.2,2.51v3.99h-.78v-3.71c0-1.43-.53-2.11-1.61-2.11-1.18,0-1.83.83-1.83,2.55v3.27h-.78v-9.06Z"></path><path class="cls-28" d="M97.43,114.69c0-1.84.99-3.34,2.81-3.34,1.96,0,2.76,1.53,2.76,2.94,0,.1-.01.4-.04.55h-4.76c.03,1.51.84,2.39,2.14,2.39.82,0,1.35-.23,1.91-.83l.55.49c-.73.75-1.43,1.05-2.46,1.05-1.89,0-2.91-1.41-2.91-3.25ZM102.25,114.26c0-.08,0-.16,0-.24,0-.92-.58-2.02-2-2.02-1.23,0-1.98.98-2.07,2.26h4.06Z"></path><path class="cls-28" d="M104.74,111.44h.78v1.05c.4-.76,1.12-1.14,2.01-1.14,1.38,0,2.2.81,2.2,2.51v3.99h-.78v-3.71c0-1.45-.55-2.11-1.61-2.11-1.16,0-1.83.79-1.83,2.55v3.27h-.78v-6.41Z"></path></g><path class="cls-28" d="M66.02,69.91c0-2.17,1.27-3.59,3.16-3.59s3.18,1.42,3.18,3.59-1.27,3.58-3.18,3.58-3.16-1.42-3.16-3.58ZM69.18,72.9c1.57,0,2.55-1.16,2.55-2.99s-.99-3-2.55-3-2.54,1.15-2.54,3,.99,2.99,2.54,2.99Z"></path><path class="cls-28" d="M76.06,65.42h.48l-3.55,9.08h-.48l3.55-9.08Z"></path><path class="cls-28" d="M77.76,66.42h.93l2.35,5.66,2.35-5.66h.92v6.98h-.62v-6.16l-2.35,5.59h-.61l-2.36-5.59v6.16h-.62v-6.98Z"></path><g><path class="cls-28" d="M15.75,264.38h1.94c1.53,0,2.29.72,2.29,1.92,0,.97-.5,1.6-1.43,1.83l1.88,3.22h-.71l-1.8-3.13c-.16,0-.34,0-.5,0h-1.05v3.13h-.62v-6.98ZM17.63,267.67c1.06,0,1.73-.43,1.73-1.37s-.68-1.37-1.73-1.37h-1.26v2.74h1.26Z"></path><path class="cls-28" d="M21.6,264.38h4.56v.56h-3.94v2.59h3.53v.56h-3.53v2.7h3.94v.56h-4.56v-6.98Z"></path><path class="cls-28" d="M27.46,264.38h4.51v.56h-3.89v2.59h3.38v.56h-3.38v3.26h-.62v-6.98Z"></path></g><path class="cls-28" d="M21.69,234.49h1.94c1.46,0,2.29.69,2.29,1.95s-.83,1.96-2.29,1.96h-1.33v3.07h-.62v-6.98ZM23.57,237.84c1.09,0,1.73-.47,1.73-1.4s-.62-1.39-1.73-1.39h-1.27v2.79h1.27Z"></path><g><path class="cls-28" d="M18.14,209.84h.65l1.71,6.06,1.76-5.7h.63l1.76,5.7,1.7-6.06h.65l-2.01,6.98h-.63l-1.79-5.71-1.79,5.71h-.64l-2.01-6.98Z"></path><path class="cls-28" d="M28.15,209.84h4.51v.56h-3.89v2.59h3.38v.56h-3.38v3.26h-.62v-6.98Z"></path></g><g><path class="cls-28" d="M18.21,143.89h1.87c2.26,0,3.56,1.29,3.56,3.54s-1.27,3.43-3.57,3.43h-1.86v-6.98ZM20.02,150.29c1.92,0,2.99-.89,2.99-2.88s-1.08-2.95-2.94-2.95h-1.24v5.83h1.19Z"></path><path class="cls-28" d="M24.3,143.89h.65l1.71,6.06,1.76-5.7h.63l1.76,5.7,1.7-6.06h.65l-2.01,6.98h-.63l-1.79-5.71-1.79,5.71h-.64l-2.01-6.98Z"></path></g><path class="cls-28" d="M111.62,51.37h.65l1.71,6.06,1.76-5.7h.63l1.76,5.7,1.7-6.06h.65l-2.01,6.98h-.63l-1.79-5.71-1.79,5.71h-.64l-2.01-6.98Z"></path><path class="cls-28" d="M123.89,50.49h.48l-3.55,9.08h-.47l3.55-9.08Z"></path><path class="cls-28" d="M125.6,51.37h1.87c2.26,0,3.56,1.29,3.56,3.54s-1.27,3.43-3.57,3.43h-1.86v-6.98ZM127.4,57.77c1.92,0,2.99-.89,2.99-2.88s-1.08-2.95-2.94-2.95h-1.24v5.83h1.19Z"></path><g><path class="cls-33" d="M149.75,557.12h3.61v.45h-3.11v2.07h2.7v.45h-2.7v2.61h-.5v-5.57Z"></path><path class="cls-33" d="M154.1,557.12h.58v.86h-.58v-.86ZM154.15,558.75h.47v3.94h-.47v-3.94Z"></path><path class="cls-33" d="M155.96,558.75h.48v.64c.25-.47.69-.7,1.24-.7.85,0,1.36.5,1.36,1.54v2.46h-.48v-2.28c0-.89-.34-1.3-.99-1.3-.71,0-1.13.48-1.13,1.57v2.01h-.48v-3.94Z"></path><path class="cls-33" d="M162.53,557.12h3.64v.45h-3.15v2.07h2.82v.45h-2.82v2.16h3.15v.45h-3.64v-5.57Z"></path><path class="cls-33" d="M168.33,560.72l-1.46-1.96h.59l1.18,1.63,1.2-1.63h.58l-1.46,1.96,1.47,1.98h-.59l-1.19-1.64-1.19,1.64h-.58l1.46-1.98Z"></path><path class="cls-33" d="M171.86,561.78v-2.65h-.88v-.38h.88v-1.14l.48-.28v1.42h.95v.38h-.95v2.54c0,.44.14.68.5.68.12,0,.28-.02.45-.08v.38c-.2.06-.4.1-.57.1-.52,0-.86-.3-.86-.97Z"></path><path class="cls-33" d="M174,560.75c0-1.13.61-2.05,1.73-2.05,1.21,0,1.7.94,1.7,1.81,0,.06,0,.24-.02.34h-2.93c.02.93.52,1.47,1.32,1.47.5,0,.83-.14,1.17-.51l.34.3c-.45.46-.88.65-1.51.65-1.16,0-1.79-.87-1.79-2ZM176.97,560.49s0-.1,0-.15c0-.57-.36-1.24-1.23-1.24-.75,0-1.22.6-1.27,1.39h2.49Z"></path><path class="cls-33" d="M178.57,558.75h.48v.64c.25-.47.69-.7,1.24-.7.85,0,1.36.5,1.36,1.54v2.46h-.48v-2.28c0-.89-.34-1.3-.99-1.3-.71,0-1.13.48-1.13,1.57v2.01h-.48v-3.94Z"></path><path class="cls-33" d="M182.53,561.85l.34-.28c.2.46.66.77,1.26.77.57,0,.95-.27.95-.72,0-.55-.53-.68-1.1-.82-.66-.16-1.23-.38-1.23-1.06,0-.62.53-1.05,1.29-1.05.6,0,1.1.26,1.37.76l-.37.21c-.21-.38-.57-.58-1.01-.58-.48,0-.84.24-.84.62,0,.4.36.54.93.68.67.16,1.43.34,1.43,1.2,0,.71-.56,1.17-1.42,1.17-.79,0-1.35-.4-1.6-.9Z"></path><path class="cls-33" d="M186.63,557.12h.58v.86h-.58v-.86ZM186.68,558.75h.47v3.94h-.47v-3.94Z"></path><path class="cls-33" d="M188.3,560.72c0-1.18.77-2.02,1.88-2.02s1.87.84,1.87,2.02-.78,2.03-1.87,2.03-1.88-.84-1.88-2.03ZM190.18,562.32c.84,0,1.39-.64,1.39-1.6s-.55-1.6-1.39-1.6-1.4.64-1.4,1.6.56,1.6,1.4,1.6Z"></path><path class="cls-33" d="M193.2,558.75h.48v.64c.25-.47.69-.7,1.24-.7.85,0,1.36.5,1.36,1.54v2.46h-.48v-2.28c0-.89-.34-1.3-.99-1.3-.71,0-1.13.48-1.13,1.57v2.01h-.48v-3.94Z"></path><path class="cls-33" d="M197.6,558.93h.58v.86h-.58v-.86ZM197.6,561.84h.58v.85h-.58v-.85Z"></path></g><g><path class="cls-33" d="M188.23,570.96h-2.77v-.4l2.79-3.84h.46v3.79h.91v.45h-.91v1.33h-.48v-1.33ZM188.23,570.51v-3.15l-2.25,3.15h2.25Z"></path><path class="cls-33" d="M190.34,569.5c0-1.33.3-2.84,1.72-2.84s1.75,1.39,1.75,2.85-.4,2.84-1.72,2.84c-1.44,0-1.75-1.51-1.75-2.85ZM192.1,571.89c.88,0,1.23-1,1.23-2.36s-.36-2.41-1.26-2.41c-.96,0-1.23,1.1-1.23,2.39s.28,2.37,1.26,2.37Z"></path><path class="cls-33" d="M195.83,568.93c.23-.14.5-.22.76-.22,1.01,0,1.81.81,1.81,1.81s-.84,1.83-1.87,1.83-1.88-.79-1.88-1.82c0-.37.12-.7.29-1l1.67-2.81h.54l-1.34,2.21ZM196.54,571.9c.76,0,1.39-.6,1.39-1.38s-.62-1.38-1.39-1.38-1.39.59-1.39,1.38.62,1.38,1.39,1.38Z"></path></g><g><path class="cls-33" d="M185.64,580.37l.47-.08c.14.7.66,1.21,1.4,1.21.85,0,1.41-.68,1.41-1.48s-.52-1.38-1.34-1.38c-.51,0-.95.24-1.26.69l-.5-.15.5-2.86h2.84v.45h-2.45l-.34,1.96c.38-.39.82-.55,1.27-.55,1.04,0,1.78.82,1.78,1.83s-.81,1.94-1.91,1.94c-.94,0-1.7-.64-1.88-1.58Z"></path><path class="cls-33" d="M190.34,579.1c0-1.33.3-2.84,1.72-2.84s1.75,1.39,1.75,2.85-.4,2.84-1.72,2.84c-1.44,0-1.75-1.51-1.75-2.85ZM192.1,581.49c.88,0,1.23-1,1.23-2.36s-.36-2.41-1.26-2.41c-.96,0-1.23,1.1-1.23,2.39s.28,2.37,1.26,2.37Z"></path><path class="cls-33" d="M195.83,578.53c.23-.14.5-.22.76-.22,1.01,0,1.81.81,1.81,1.81s-.84,1.83-1.87,1.83-1.88-.79-1.88-1.82c0-.37.12-.7.29-1l1.67-2.81h.54l-1.34,2.21ZM196.54,581.5c.76,0,1.39-.6,1.39-1.38s-.62-1.38-1.39-1.38-1.39.59-1.39,1.38.62,1.38,1.39,1.38Z"></path></g><g><path class="cls-33" d="M186.72,588.13c.23-.14.5-.22.76-.22,1.01,0,1.81.81,1.81,1.81s-.84,1.83-1.87,1.83-1.88-.79-1.88-1.82c0-.37.12-.7.29-1l1.67-2.81h.54l-1.34,2.21ZM187.42,591.1c.76,0,1.39-.6,1.39-1.38s-.62-1.38-1.39-1.38-1.39.59-1.39,1.38.62,1.38,1.39,1.38Z"></path><path class="cls-33" d="M190.34,588.7c0-1.33.3-2.84,1.72-2.84s1.75,1.39,1.75,2.85-.4,2.84-1.72,2.84c-1.44,0-1.75-1.51-1.75-2.85ZM192.1,591.09c.88,0,1.23-1,1.23-2.36s-.36-2.41-1.26-2.41c-.96,0-1.23,1.1-1.23,2.39s.28,2.37,1.26,2.37Z"></path><path class="cls-33" d="M195.83,588.13c.23-.14.5-.22.76-.22,1.01,0,1.81.81,1.81,1.81s-.84,1.83-1.87,1.83-1.88-.79-1.88-1.82c0-.37.12-.7.29-1l1.67-2.81h.54l-1.34,2.21ZM196.54,591.1c.76,0,1.39-.6,1.39-1.38s-.62-1.38-1.39-1.38-1.39.59-1.39,1.38.62,1.38,1.39,1.38Z"></path></g><g><path class="cls-33" d="M188.95,595.97h-3.43v-.45h3.98v.4l-2.75,5.18h-.53l2.74-5.12Z"></path><path class="cls-33" d="M190.34,598.3c0-1.33.3-2.84,1.72-2.84s1.75,1.39,1.75,2.85-.4,2.84-1.72,2.84c-1.44,0-1.75-1.51-1.75-2.85ZM192.1,600.69c.88,0,1.23-1,1.23-2.36s-.36-2.41-1.26-2.41c-.96,0-1.23,1.1-1.23,2.39s.28,2.37,1.26,2.37Z"></path><path class="cls-33" d="M195.83,597.73c.23-.14.5-.22.76-.22,1.01,0,1.81.81,1.81,1.81s-.84,1.83-1.87,1.83-1.88-.79-1.88-1.82c0-.37.12-.7.29-1l1.67-2.81h.54l-1.34,2.21ZM196.54,600.7c.76,0,1.39-.6,1.39-1.38s-.62-1.38-1.39-1.38-1.39.59-1.39,1.38.62,1.38,1.39,1.38Z"></path></g><g><path class="cls-33" d="M185.68,609.12c0-.7.41-1.25,1.08-1.45-.46-.18-.76-.62-.76-1.19,0-.9.78-1.41,1.54-1.41.86,0,1.53.57,1.53,1.45,0,.55-.3.97-.77,1.15.67.21,1.07.76,1.07,1.45,0,1.09-.9,1.63-1.84,1.63s-1.85-.55-1.85-1.63ZM187.53,610.3c.72,0,1.36-.41,1.36-1.22,0-.73-.56-1.21-1.36-1.21s-1.38.48-1.38,1.21c0,.82.66,1.22,1.38,1.22ZM187.55,607.53c.61,0,1.05-.4,1.05-.98,0-.61-.42-1.03-1.06-1.03-.56,0-1.06.36-1.06.98s.44,1.02,1.07,1.02Z"></path><path class="cls-33" d="M190.34,607.9c0-1.33.3-2.84,1.72-2.84s1.75,1.39,1.75,2.85-.4,2.84-1.72,2.84c-1.44,0-1.75-1.51-1.75-2.85ZM192.1,610.29c.88,0,1.23-1,1.23-2.36s-.36-2.41-1.26-2.41c-.96,0-1.23,1.1-1.23,2.39s.28,2.37,1.26,2.37Z"></path><path class="cls-33" d="M195.83,607.33c.23-.14.5-.22.76-.22,1.01,0,1.81.81,1.81,1.81s-.84,1.83-1.87,1.83-1.88-.79-1.88-1.82c0-.37.12-.7.29-1l1.67-2.81h.54l-1.34,2.21ZM196.54,610.3c.76,0,1.39-.6,1.39-1.38s-.62-1.38-1.39-1.38-1.39.59-1.39,1.38.62,1.38,1.39,1.38Z"></path></g><g><path class="cls-33" d="M188.22,618.09c-.23.14-.5.22-.76.22-1.01,0-1.81-.81-1.81-1.81s.84-1.83,1.87-1.83,1.88.8,1.88,1.82c0,.37-.12.7-.29,1l-1.67,2.81h-.54l1.34-2.21ZM187.52,617.88c.76,0,1.39-.59,1.39-1.38s-.62-1.38-1.39-1.38-1.39.6-1.39,1.38.62,1.38,1.39,1.38Z"></path><path class="cls-33" d="M190.34,617.5c0-1.33.3-2.84,1.72-2.84s1.75,1.39,1.75,2.85-.4,2.84-1.72,2.84c-1.44,0-1.75-1.51-1.75-2.85ZM192.1,619.89c.88,0,1.23-1,1.23-2.36s-.36-2.41-1.26-2.41c-.96,0-1.23,1.1-1.23,2.39s.28,2.37,1.26,2.37Z"></path><path class="cls-33" d="M195.83,616.93c.23-.14.5-.22.76-.22,1.01,0,1.81.81,1.81,1.81s-.84,1.83-1.87,1.83-1.88-.79-1.88-1.82c0-.37.12-.7.29-1l1.67-2.81h.54l-1.34,2.21ZM196.54,619.9c.76,0,1.39-.6,1.39-1.38s-.62-1.38-1.39-1.38-1.39.59-1.39,1.38.62,1.38,1.39,1.38Z"></path></g><g><path class="cls-33" d="M183.15,625.61h-1.47v-.39h1.03c.29,0,.44-.1.44-.41v-.49h.48v5.57h-.48v-4.28Z"></path><path class="cls-33" d="M185.78,627.1c0-1.33.3-2.84,1.72-2.84s1.75,1.39,1.75,2.85-.4,2.84-1.72,2.84c-1.44,0-1.75-1.51-1.75-2.85ZM187.54,629.49c.88,0,1.23-1,1.23-2.36s-.36-2.41-1.26-2.41c-.96,0-1.23,1.1-1.23,2.39s.28,2.37,1.26,2.37Z"></path><path class="cls-33" d="M190.34,627.1c0-1.33.3-2.84,1.72-2.84s1.75,1.39,1.75,2.85-.4,2.84-1.72,2.84c-1.44,0-1.75-1.51-1.75-2.85ZM192.1,629.49c.88,0,1.23-1,1.23-2.36s-.36-2.41-1.26-2.41c-.96,0-1.23,1.1-1.23,2.39s.28,2.37,1.26,2.37Z"></path><path class="cls-33" d="M195.82,626.53c.23-.14.5-.22.76-.22,1.01,0,1.81.81,1.81,1.81s-.84,1.83-1.87,1.83-1.88-.79-1.88-1.82c0-.37.12-.7.29-1l1.67-2.81h.54l-1.34,2.21ZM196.53,629.5c.76,0,1.39-.6,1.39-1.38s-.62-1.38-1.39-1.38-1.39.59-1.39,1.38.62,1.38,1.39,1.38Z"></path></g><g><path class="cls-33" d="M183.15,635.21h-1.47v-.39h1.03c.29,0,.44-.1.44-.41v-.49h.48v5.57h-.48v-4.28Z"></path><path class="cls-33" d="M187.7,635.21h-1.47v-.39h1.03c.29,0,.44-.1.44-.41v-.49h.48v5.57h-.48v-4.28Z"></path><path class="cls-33" d="M190.34,636.7c0-1.33.3-2.84,1.72-2.84s1.75,1.39,1.75,2.85-.4,2.84-1.72,2.84c-1.44,0-1.75-1.51-1.75-2.85ZM192.1,639.09c.88,0,1.23-1,1.23-2.36s-.36-2.41-1.26-2.41c-.96,0-1.23,1.1-1.23,2.39s.28,2.37,1.26,2.37Z"></path><path class="cls-33" d="M195.82,636.13c.23-.14.5-.22.76-.22,1.01,0,1.81.81,1.81,1.81s-.84,1.83-1.87,1.83-1.88-.79-1.88-1.82c0-.37.12-.7.29-1l1.67-2.81h.54l-1.34,2.21ZM196.53,639.1c.76,0,1.39-.6,1.39-1.38s-.62-1.38-1.39-1.38-1.39.59-1.39,1.38.62,1.38,1.39,1.38Z"></path></g><g><path class="cls-33" d="M183.15,644.81h-1.47v-.39h1.03c.29,0,.44-.1.44-.41v-.49h.48v5.57h-.48v-4.28Z"></path><path class="cls-33" d="M188.65,645.13c0-.73-.43-1.2-1.19-1.2-.83,0-1.26.58-1.27,1.45l-.47-.03c0-1.07.62-1.88,1.76-1.88.99,0,1.64.65,1.64,1.65,0,1.49-1.5,2.65-2.81,3.53h3.04v.45h-3.64v-.44c1.02-.82,2.94-2.02,2.94-3.53Z"></path><path class="cls-33" d="M190.34,646.3c0-1.33.3-2.84,1.72-2.84s1.75,1.39,1.75,2.85-.4,2.84-1.72,2.84c-1.44,0-1.75-1.51-1.75-2.85ZM192.1,648.69c.88,0,1.23-1,1.23-2.36s-.36-2.41-1.26-2.41c-.96,0-1.23,1.1-1.23,2.39s.28,2.37,1.26,2.37Z"></path><path class="cls-33" d="M195.82,645.73c.23-.14.5-.22.76-.22,1.01,0,1.81.81,1.81,1.81s-.84,1.83-1.87,1.83-1.88-.79-1.88-1.82c0-.37.12-.7.29-1l1.67-2.81h.54l-1.34,2.21ZM196.53,648.7c.76,0,1.39-.6,1.39-1.38s-.62-1.38-1.39-1.38-1.39.59-1.39,1.38.62,1.38,1.39,1.38Z"></path></g><g><path class="cls-33" d="M407.84,550.92h3.61v.45h-3.11v2.07h2.7v.45h-2.7v2.61h-.5v-5.57Z"></path><path class="cls-33" d="M412.18,550.92h.58v.86h-.58v-.86ZM412.23,552.55h.47v3.94h-.47v-3.94Z"></path><path class="cls-33" d="M414.04,552.55h.48v.64c.25-.47.69-.7,1.24-.7.85,0,1.36.5,1.36,1.54v2.46h-.48v-2.28c0-.89-.34-1.3-.99-1.3-.71,0-1.13.48-1.13,1.57v2.01h-.48v-3.94Z"></path><path class="cls-33" d="M420.61,550.92h3.64v.45h-3.15v2.07h2.82v.45h-2.82v2.16h3.15v.45h-3.64v-5.57Z"></path><path class="cls-33" d="M426.41,554.52l-1.46-1.96h.59l1.18,1.63,1.2-1.63h.58l-1.46,1.96,1.47,1.98h-.59l-1.19-1.64-1.19,1.64h-.58l1.46-1.98Z"></path><path class="cls-33" d="M429.93,555.58v-2.65h-.88v-.38h.88v-1.14l.48-.28v1.42h.95v.38h-.95v2.54c0,.44.14.68.5.68.12,0,.28-.02.45-.08v.38c-.2.06-.4.1-.57.1-.52,0-.86-.3-.86-.97Z"></path><path class="cls-33" d="M432.08,554.55c0-1.13.61-2.05,1.73-2.05,1.21,0,1.7.94,1.7,1.81,0,.06,0,.24-.02.34h-2.93c.02.93.52,1.47,1.32,1.47.5,0,.83-.14,1.17-.51l.34.3c-.45.46-.88.65-1.51.65-1.16,0-1.79-.87-1.79-2ZM435.04,554.29s0-.1,0-.15c0-.57-.36-1.24-1.23-1.24-.75,0-1.22.6-1.27,1.39h2.49Z"></path><path class="cls-33" d="M436.65,552.55h.48v.64c.25-.47.69-.7,1.24-.7.85,0,1.36.5,1.36,1.54v2.46h-.48v-2.28c0-.89-.34-1.3-.99-1.3-.71,0-1.13.48-1.13,1.57v2.01h-.48v-3.94Z"></path><path class="cls-33" d="M440.61,555.65l.34-.28c.2.46.66.77,1.26.77.57,0,.95-.27.95-.72,0-.55-.53-.68-1.1-.82-.66-.16-1.23-.38-1.23-1.06,0-.62.53-1.05,1.29-1.05.6,0,1.1.26,1.37.76l-.37.21c-.21-.38-.57-.58-1.01-.58-.48,0-.84.24-.84.62,0,.4.36.54.93.68.67.16,1.43.34,1.43,1.2,0,.71-.56,1.17-1.42,1.17-.79,0-1.35-.4-1.6-.9Z"></path><path class="cls-33" d="M444.71,550.92h.58v.86h-.58v-.86ZM444.76,552.55h.47v3.94h-.47v-3.94Z"></path><path class="cls-33" d="M446.38,554.52c0-1.18.77-2.02,1.88-2.02s1.87.84,1.87,2.02-.78,2.03-1.87,2.03-1.88-.84-1.88-2.03ZM448.26,556.12c.84,0,1.39-.64,1.39-1.6s-.55-1.6-1.39-1.6-1.4.64-1.4,1.6.56,1.6,1.4,1.6Z"></path><path class="cls-33" d="M451.28,552.55h.48v.64c.25-.47.69-.7,1.24-.7.85,0,1.36.5,1.36,1.54v2.46h-.48v-2.28c0-.89-.34-1.3-.99-1.3-.71,0-1.13.48-1.13,1.57v2.01h-.48v-3.94Z"></path><path class="cls-33" d="M455.68,552.73h.58v.86h-.58v-.86ZM455.68,555.64h.58v.85h-.58v-.85Z"></path></g><g><path class="cls-33" d="M410.09,564.76h-2.77v-.4l2.79-3.84h.46v3.79h.91v.45h-.91v1.33h-.48v-1.33ZM410.09,564.31v-3.15l-2.25,3.15h2.25Z"></path><path class="cls-33" d="M412.21,563.3c0-1.33.3-2.84,1.72-2.84s1.75,1.39,1.75,2.85-.4,2.84-1.72,2.84c-1.44,0-1.75-1.51-1.75-2.85ZM413.96,565.69c.88,0,1.23-1,1.23-2.36s-.36-2.41-1.26-2.41c-.96,0-1.23,1.1-1.23,2.39s.28,2.37,1.26,2.37Z"></path><path class="cls-33" d="M417.7,562.73c.23-.14.5-.22.76-.22,1.01,0,1.81.81,1.81,1.81s-.84,1.83-1.87,1.83-1.88-.79-1.88-1.82c0-.37.12-.7.29-1l1.67-2.81h.54l-1.34,2.21ZM418.4,565.7c.76,0,1.39-.6,1.39-1.38s-.62-1.38-1.39-1.38-1.39.59-1.39,1.38.62,1.38,1.39,1.38Z"></path></g><g><path class="cls-33" d="M407.51,574.17l.47-.08c.14.7.66,1.21,1.4,1.21.85,0,1.41-.68,1.41-1.48s-.52-1.38-1.34-1.38c-.51,0-.95.24-1.26.69l-.5-.15.5-2.86h2.84v.45h-2.45l-.34,1.96c.38-.39.82-.55,1.27-.55,1.04,0,1.78.82,1.78,1.83s-.81,1.94-1.91,1.94c-.94,0-1.7-.64-1.88-1.58Z"></path><path class="cls-33" d="M412.21,572.9c0-1.33.3-2.84,1.72-2.84s1.75,1.39,1.75,2.85-.4,2.84-1.72,2.84c-1.44,0-1.75-1.51-1.75-2.85ZM413.96,575.29c.88,0,1.23-1,1.23-2.36s-.36-2.41-1.26-2.41c-.96,0-1.23,1.1-1.23,2.39s.28,2.37,1.26,2.37Z"></path><path class="cls-33" d="M417.7,572.33c.23-.14.5-.22.76-.22,1.01,0,1.81.81,1.81,1.81s-.84,1.83-1.87,1.83-1.88-.79-1.88-1.82c0-.37.12-.7.29-1l1.67-2.81h.54l-1.34,2.21ZM418.4,575.3c.76,0,1.39-.6,1.39-1.38s-.62-1.38-1.39-1.38-1.39.59-1.39,1.38.62,1.38,1.39,1.38Z"></path></g><g><path class="cls-33" d="M408.59,581.93c.23-.14.5-.22.76-.22,1.01,0,1.81.81,1.81,1.81s-.84,1.83-1.87,1.83-1.88-.79-1.88-1.82c0-.37.12-.7.29-1l1.67-2.81h.54l-1.34,2.21ZM409.29,584.9c.76,0,1.39-.6,1.39-1.38s-.62-1.38-1.39-1.38-1.39.59-1.39,1.38.62,1.38,1.39,1.38Z"></path><path class="cls-33" d="M412.21,582.5c0-1.33.3-2.84,1.72-2.84s1.75,1.39,1.75,2.85-.4,2.84-1.72,2.84c-1.44,0-1.75-1.51-1.75-2.85ZM413.96,584.89c.88,0,1.23-1,1.23-2.36s-.36-2.41-1.26-2.41c-.96,0-1.23,1.1-1.23,2.39s.28,2.37,1.26,2.37Z"></path><path class="cls-33" d="M417.7,581.93c.23-.14.5-.22.76-.22,1.01,0,1.81.81,1.81,1.81s-.84,1.83-1.87,1.83-1.88-.79-1.88-1.82c0-.37.12-.7.29-1l1.67-2.81h.54l-1.34,2.21ZM418.4,584.9c.76,0,1.39-.6,1.39-1.38s-.62-1.38-1.39-1.38-1.39.59-1.39,1.38.62,1.38,1.39,1.38Z"></path></g><g><path class="cls-33" d="M410.82,589.77h-3.43v-.45h3.98v.4l-2.75,5.18h-.53l2.74-5.12Z"></path><path class="cls-33" d="M412.21,592.1c0-1.33.3-2.84,1.72-2.84s1.75,1.39,1.75,2.85-.4,2.84-1.72,2.84c-1.44,0-1.75-1.51-1.75-2.85ZM413.96,594.49c.88,0,1.23-1,1.23-2.36s-.36-2.41-1.26-2.41c-.96,0-1.23,1.1-1.23,2.39s.28,2.37,1.26,2.37Z"></path><path class="cls-33" d="M417.7,591.53c.23-.14.5-.22.76-.22,1.01,0,1.81.81,1.81,1.81s-.84,1.83-1.87,1.83-1.88-.79-1.88-1.82c0-.37.12-.7.29-1l1.67-2.81h.54l-1.34,2.21ZM418.4,594.5c.76,0,1.39-.6,1.39-1.38s-.62-1.38-1.39-1.38-1.39.59-1.39,1.38.62,1.38,1.39,1.38Z"></path></g><g><path class="cls-33" d="M407.54,602.92c0-.7.41-1.25,1.08-1.45-.46-.18-.76-.62-.76-1.19,0-.9.78-1.41,1.54-1.41.86,0,1.53.57,1.53,1.45,0,.55-.3.97-.77,1.15.67.21,1.07.76,1.07,1.45,0,1.09-.9,1.63-1.84,1.63s-1.85-.55-1.85-1.63ZM409.39,604.1c.72,0,1.36-.41,1.36-1.22,0-.73-.56-1.21-1.36-1.21s-1.38.48-1.38,1.21c0,.82.66,1.22,1.38,1.22ZM409.41,601.33c.61,0,1.05-.4,1.05-.98,0-.61-.42-1.03-1.06-1.03-.56,0-1.06.36-1.06.98s.44,1.02,1.07,1.02Z"></path><path class="cls-33" d="M412.21,601.7c0-1.33.3-2.84,1.72-2.84s1.75,1.39,1.75,2.85-.4,2.84-1.72,2.84c-1.44,0-1.75-1.51-1.75-2.85ZM413.96,604.09c.88,0,1.23-1,1.23-2.36s-.36-2.41-1.26-2.41c-.96,0-1.23,1.1-1.23,2.39s.28,2.37,1.26,2.37Z"></path><path class="cls-33" d="M417.7,601.13c.23-.14.5-.22.76-.22,1.01,0,1.81.81,1.81,1.81s-.84,1.83-1.87,1.83-1.88-.79-1.88-1.82c0-.37.12-.7.29-1l1.67-2.81h.54l-1.34,2.21ZM418.4,604.1c.76,0,1.39-.6,1.39-1.38s-.62-1.38-1.39-1.38-1.39.59-1.39,1.38.62,1.38,1.39,1.38Z"></path></g><g><path class="cls-33" d="M410.09,611.89c-.23.14-.5.22-.76.22-1.01,0-1.81-.81-1.81-1.81s.84-1.83,1.87-1.83,1.88.8,1.88,1.82c0,.37-.12.7-.29,1l-1.67,2.81h-.54l1.34-2.21ZM409.38,611.68c.76,0,1.39-.59,1.39-1.38s-.62-1.38-1.39-1.38-1.39.6-1.39,1.38.62,1.38,1.39,1.38Z"></path><path class="cls-33" d="M412.21,611.3c0-1.33.3-2.84,1.72-2.84s1.75,1.39,1.75,2.85-.4,2.84-1.72,2.84c-1.44,0-1.75-1.51-1.75-2.85ZM413.96,613.69c.88,0,1.23-1,1.23-2.36s-.36-2.41-1.26-2.41c-.96,0-1.23,1.1-1.23,2.39s.28,2.37,1.26,2.37Z"></path><path class="cls-33" d="M417.7,610.73c.23-.14.5-.22.76-.22,1.01,0,1.81.81,1.81,1.81s-.84,1.83-1.87,1.83-1.88-.79-1.88-1.82c0-.37.12-.7.29-1l1.67-2.81h.54l-1.34,2.21ZM418.4,613.7c.76,0,1.39-.6,1.39-1.38s-.62-1.38-1.39-1.38-1.39.59-1.39,1.38.62,1.38,1.39,1.38Z"></path></g><g><path class="cls-33" d="M409.58,619.41h-1.47v-.39h1.03c.29,0,.44-.1.44-.41v-.49h.48v5.57h-.48v-4.28Z"></path><path class="cls-33" d="M412.21,620.9c0-1.33.3-2.84,1.72-2.84s1.75,1.39,1.75,2.85-.4,2.84-1.72,2.84c-1.44,0-1.75-1.51-1.75-2.85ZM413.96,623.29c.88,0,1.23-1,1.23-2.36s-.36-2.41-1.26-2.41c-.96,0-1.23,1.1-1.23,2.39s.28,2.37,1.26,2.37Z"></path><path class="cls-33" d="M416.77,620.9c0-1.33.3-2.84,1.72-2.84s1.75,1.39,1.75,2.85-.4,2.84-1.72,2.84c-1.44,0-1.75-1.51-1.75-2.85ZM418.53,623.29c.88,0,1.23-1,1.23-2.36s-.36-2.41-1.26-2.41c-.96,0-1.23,1.1-1.23,2.39s.28,2.37,1.26,2.37Z"></path><path class="cls-33" d="M422.25,620.33c.23-.14.5-.22.76-.22,1.01,0,1.81.81,1.81,1.81s-.84,1.83-1.87,1.83-1.88-.79-1.88-1.82c0-.37.12-.7.29-1l1.67-2.81h.54l-1.34,2.21ZM422.95,623.3c.76,0,1.39-.6,1.39-1.38s-.62-1.38-1.39-1.38-1.39.59-1.39,1.38.62,1.38,1.39,1.38Z"></path></g><g><path class="cls-33" d="M409.58,629.01h-1.47v-.39h1.03c.29,0,.44-.1.44-.41v-.49h.48v5.57h-.48v-4.28Z"></path><path class="cls-33" d="M414.13,629.01h-1.47v-.39h1.03c.29,0,.44-.1.44-.41v-.49h.48v5.57h-.48v-4.28Z"></path><path class="cls-33" d="M416.77,630.5c0-1.33.3-2.84,1.72-2.84s1.75,1.39,1.75,2.85-.4,2.84-1.72,2.84c-1.44,0-1.75-1.51-1.75-2.85ZM418.53,632.89c.88,0,1.23-1,1.23-2.36s-.36-2.41-1.26-2.41c-.96,0-1.23,1.1-1.23,2.39s.28,2.37,1.26,2.37Z"></path><path class="cls-33" d="M422.25,629.93c.23-.14.5-.22.76-.22,1.01,0,1.81.81,1.81,1.81s-.84,1.83-1.87,1.83-1.88-.79-1.88-1.82c0-.37.12-.7.29-1l1.67-2.81h.54l-1.34,2.21ZM422.95,632.9c.76,0,1.39-.6,1.39-1.38s-.62-1.38-1.39-1.38-1.39.59-1.39,1.38.62,1.38,1.39,1.38Z"></path><path class="cls-33" d="M426.46,632.17h.53l-1.06,2.37h-.34l.87-2.37Z"></path><path class="cls-33" d="M429.79,629.01h-1.47v-.39h1.03c.29,0,.44-.1.44-.41v-.49h.48v5.57h-.48v-4.28Z"></path><path class="cls-33" d="M435.29,629.33c0-.73-.43-1.2-1.19-1.2-.83,0-1.26.58-1.27,1.45l-.47-.03c0-1.07.62-1.88,1.76-1.88.99,0,1.64.65,1.64,1.65,0,1.49-1.5,2.65-2.81,3.53h3.04v.45h-3.64v-.44c1.02-.82,2.94-2.02,2.94-3.53Z"></path><path class="cls-33" d="M436.99,630.5c0-1.33.3-2.84,1.72-2.84s1.75,1.39,1.75,2.85-.4,2.84-1.72,2.84c-1.44,0-1.75-1.51-1.75-2.85ZM438.74,632.89c.88,0,1.23-1,1.23-2.36s-.36-2.41-1.26-2.41c-.96,0-1.23,1.1-1.23,2.39s.28,2.37,1.26,2.37Z"></path><path class="cls-33" d="M442.47,629.93c.23-.14.5-.22.76-.22,1.01,0,1.81.81,1.81,1.81s-.84,1.83-1.87,1.83-1.88-.79-1.88-1.82c0-.37.12-.7.29-1l1.67-2.81h.54l-1.34,2.21ZM443.17,632.9c.76,0,1.39-.6,1.39-1.38s-.62-1.38-1.39-1.38-1.39.59-1.39,1.38.62,1.38,1.39,1.38Z"></path></g><polyline class="cls-1" points="206.89 636.57 247.95 636.57 279.11 515.46"></polyline><path class="cls-32" d="M280.11,511.55l-3.41,4.98s2.41-1.07,4,1.03l-.59-6.01Z"></path><polyline class="cls-1" points="399.15 630.37 358.09 630.37 326.94 509.26"></polyline><path class="cls-32" d="M325.93,505.35l3.41,4.98s-2.41-1.07-4,1.03l.59-6.01Z"></path><polyline class="cls-1" points="206.89 646.51 251.68 646.51 280.26 515.49"></polyline><path class="cls-32" d="M281.12,511.55l-3.23,5.1s2.37-1.16,4.03.88l-.81-5.98Z"></path><polyline class="cls-1" points="206.89 568.81 222.04 568.81 235.97 521.37"></polyline><path class="cls-32" d="M237.11,517.49l-3.58,4.86s2.44-.99,3.96,1.16l-.38-6.02Z"></path><polyline class="cls-1" points="399.15 562.61 384.01 562.61 358.74 505.19"></polyline><path class="cls-32" d="M357.11,501.49l4.17,4.36s-2.55-.67-3.78,1.66l-.4-6.02Z"></path><polyline class="cls-1" points="206.89 578.49 230.75 578.49 247.98 519.37"></polyline><path class="cls-32" d="M249.11,515.49l-3.57,4.87s2.44-.99,3.96,1.16l-.39-6.02Z"></path><polyline class="cls-1" points="399.15 572.29 375.29 572.29 350.53 506.27"></polyline><path class="cls-32" d="M349.11,502.49l3.93,4.59s-2.51-.81-3.86,1.45l-.06-6.04Z"></path><polyline class="cls-1" points="206.89 588.17 236.9 588.17 257.32 518.38"></polyline><path class="cls-32" d="M258.46,514.51l-3.57,4.86s2.44-.99,3.96,1.16l-.39-6.02Z"></path><polyline class="cls-1" points="399.15 581.97 369.14 581.97 343.43 507.31"></polyline><path class="cls-32" d="M342.11,503.49l3.8,4.69s-2.48-.88-3.9,1.35l.1-6.04Z"></path><polyline class="cls-1" points="206.89 597.85 240.01 597.85 263.67 517.54"></polyline><path class="cls-32" d="M264.81,513.67l-3.58,4.86s2.44-.99,3.96,1.17l-.38-6.02Z"></path><polyline class="cls-1" points="399.15 591.65 366.03 591.65 337.42 508.31"></polyline><path class="cls-32" d="M336.11,504.49l3.79,4.7s-2.48-.88-3.9,1.34l.11-6.04Z"></path><polyline class="cls-1" points="206.89 607.53 242.57 607.53 269.32 516.42"></polyline><path class="cls-32" d="M270.46,512.55l-3.58,4.86s2.44-.99,3.96,1.16l-.38-6.02Z"></path><polyline class="cls-1" points="399.15 601.33 363.47 601.33 333.35 508.33"></polyline><path class="cls-32" d="M332.11,504.49l3.71,4.76s-2.47-.92-3.93,1.27l.22-6.03Z"></path><polyline class="cls-1" points="206.89 617.21 244.74 617.21 274.41 515.91"></polyline><path class="cls-32" d="M275.54,512.04l-3.57,4.86s2.44-.99,3.96,1.16l-.39-6.02Z"></path><polyline class="cls-1" points="399.15 611.01 361.3 611.01 329.32 509.2"></polyline><path class="cls-32" d="M328.11,505.35l3.67,4.79s-2.46-.94-3.94,1.24l.27-6.03Z"></path><polyline class="cls-1" points="206.89 626.89 246.14 626.89 277.03 515.93"></polyline><path class="cls-32" d="M278.11,512.04l-3.51,4.91s2.43-1.02,3.98,1.11l-.47-6.02Z"></path><polyline class="cls-1" points="399.15 620.69 359.9 620.69 327.82 509.23"></polyline><path class="cls-32" d="M326.71,505.35l3.55,4.88s-2.44-1-3.97,1.14l.42-6.02Z"></path><g><path class="cls-29" d="M412.94,669.91h-4.16v3.42h-1.29v-8.01h5.72v1.22h-4.42v2.14h4.16v1.22Z"></path><path class="cls-29" d="M420.67,673.33h-5.73v-8.01h1.29v6.79h4.43v1.22Z"></path><path class="cls-29" d="M429.59,669.33c0,2.39-1.73,4.15-4.19,4.15s-4.19-1.76-4.19-4.15,1.73-4.15,4.19-4.15,4.19,1.76,4.19,4.15ZM422.56,669.33c0,1.73,1.2,2.91,2.84,2.91s2.84-1.18,2.84-2.91-1.2-2.91-2.84-2.91-2.84,1.18-2.84,2.91Z"></path><path class="cls-29" d="M439.28,669.33c0,2.39-1.73,4.15-4.19,4.15s-4.19-1.76-4.19-4.15,1.73-4.15,4.19-4.15,4.19,1.76,4.19,4.15ZM432.25,669.33c0,1.73,1.2,2.91,2.84,2.91s2.84-1.18,2.84-2.91-1.2-2.91-2.84-2.91-2.84,1.18-2.84,2.91Z"></path><path class="cls-29" d="M444.31,665.32c1.84,0,2.84.82,2.84,2.32,0,1.36-1.04,2.27-2.67,2.32l2.64,3.37h-1.6l-2.55-3.37h-.65v3.37h-1.29v-8.01h3.3ZM442.31,666.53v2.25h1.97c1.04,0,1.53-.38,1.53-1.15s-.52-1.1-1.53-1.1h-1.97Z"></path><path class="cls-29" d="M455.96,670.6h1.22v1.18h-1.22v1.56h-1.24v-1.56h-3.58v-.96l3-5.49h1.41l-2.91,5.26h2.08v-2.15h1.24v2.15Z"></path><path class="cls-29" d="M461.65,670.83h-3.32v-1.09h3.32v1.09Z"></path><path class="cls-29" d="M465.71,673.33h-1.24v-6.33l-2.04.88v-1.29l3.28-1.38v8.14Z"></path><path class="cls-29" d="M467.27,666.52c.38-.52,1.11-1.34,2.56-1.34,1.66,0,2.66,1.07,2.66,2.58,0,1.01-.57,1.71-1.06,2.24l-2.01,2.15h3.29v1.18h-5.13v-.97l2.9-3.08c.45-.48.72-.96.72-1.53,0-.8-.53-1.38-1.39-1.38-.81,0-1.24.41-1.64.89l-.89-.73Z"></path></g></g></g></svg> 