<?xml version="1.0" encoding="UTF-8"?> <svg xmlns="http://www.w3.org/2000/svg" id="Layer_2" data-name="Layer 2" viewBox="0 0 689.97 793.26"><defs><style> .cls-1 { stroke-dasharray: .99 .99; } .cls-1, .cls-2, .cls-3, .cls-4, .cls-5, .cls-6, .cls-7, .cls-8, .cls-9, .cls-10, .cls-11, .cls-12, .cls-13, .cls-14, .cls-15, .cls-16, .cls-17, .cls-18, .cls-19, .cls-20, .cls-21, .cls-22, .cls-23 { fill: none; } .cls-1, .cls-2, .cls-3, .cls-5, .cls-6, .cls-7, .cls-8, .cls-9, .cls-10, .cls-11, .cls-12, .cls-13, .cls-14, .cls-15, .cls-18, .cls-19, .cls-20, .cls-21, .cls-22, .cls-23 { stroke-linecap: round; stroke-linejoin: round; } .cls-1, .cls-2, .cls-3, .cls-6, .cls-7, .cls-8, .cls-10, .cls-11, .cls-12, .cls-15, .cls-18, .cls-19, .cls-22, .cls-23 { stroke: #55453d; stroke-width: .15px; } .cls-2 { stroke-dasharray: 1 1; } .cls-3 { stroke-dasharray: 1.01 1.01; } .cls-4 { stroke: #afa49f; } .cls-4, .cls-5, .cls-9, .cls-14, .cls-17, .cls-20 { stroke-width: .25px; } .cls-4, .cls-16, .cls-17 { stroke-miterlimit: 10; } .cls-5 { stroke-dasharray: 1.54 1.54; } .cls-5, .cls-9, .cls-14 { stroke: #75655e; } .cls-6 { stroke-dasharray: 1 1; } .cls-24 { fill: #3a2a22; } .cls-7 { stroke-dasharray: .99 .99; } .cls-8 { stroke-dasharray: 1 1; } .cls-9 { stroke-dasharray: 5.79 4.83; } .cls-25 { fill: #231f20; } .cls-11 { stroke-dasharray: 1.01 1.01; } .cls-26 { fill: #fff; } .cls-12 { stroke-dasharray: 1 1; } .cls-13, .cls-16 { stroke-width: .75px; } .cls-13, .cls-16, .cls-20, .cls-21 { stroke: #3a2a22; } .cls-27 { fill: #bc8ebc; } .cls-15 { stroke-dasharray: 1.01 1.01; } .cls-17 { stroke: #bc8ebc; } .cls-18 { stroke-dasharray: 1.01 1.01; } .cls-28 { fill: #afa49f; } .cls-19 { stroke-dasharray: 1.02 1.02; } .cls-21 { stroke-width: .35px; } .cls-29 { fill: #75655e; } .cls-22 { stroke-dasharray: 1.01 1.01; } .cls-23 { stroke-dasharray: .99 .99; } </style></defs><g id="Layer_1-2" data-name="Layer 1"><g><polygon class="cls-26" points="528.98 48.38 526 74.64 517.96 73.71 519.17 63.08 456.62 63.08 456.62 212.12 503.19 212.12 502.56 207.04 510.6 206.12 537.47 438.5 561.12 438.5 614.35 584.67 581.91 595.21 549.39 605.46 516.86 615.35 484.15 624.96 460.22 631.7 443.44 636.36 445.54 644.12 418.46 651.48 382.24 660.9 345.92 669.96 309.52 678.64 273.02 686.87 236.43 694.72 199.75 702.21 163.06 709.23 126.2 715.88 89.33 722.16 52.37 728.08 52.37 637.16 56.23 637.16 56.23 255.01 20.38 255.01 20.38 172.41 8.83 172.41 8.83 128.2 102.43 128.2 102.43 48.46 528.98 48.38"></polygon><line class="cls-10" x1="526" y1="74.63" x2="525.95" y2="75.13"></line><polyline class="cls-8" points="525.84 76.12 525 83.59 520.95 119.28"></polyline><polyline class="cls-10" points="520.89 119.77 520.84 120.27 520.34 120.21"></polyline><line class="cls-18" x1="519.33" y1="120.1" x2="513.8" y2="119.46"></line><polyline class="cls-10" points="513.29 119.4 512.8 119.35 512.85 118.85"></polyline><polyline class="cls-12" points="512.97 117.86 516.96 82.66 517.86 74.69"></polyline><line class="cls-10" x1="517.92" y1="74.2" x2="517.97" y2="73.7"></line><line class="cls-10" x1="516.03" y1="90.82" x2="516.53" y2="90.87"></line><line class="cls-18" x1="517.54" y1="90.99" x2="523.07" y2="91.62"></line><line class="cls-10" x1="523.57" y1="91.68" x2="524.07" y2="91.74"></line><line class="cls-10" x1="515.22" y1="98" x2="515.71" y2="98.06"></line><line class="cls-18" x1="516.72" y1="98.17" x2="522.26" y2="98.81"></line><line class="cls-10" x1="522.76" y1="98.87" x2="523.26" y2="98.93"></line><line class="cls-10" x1="514.57" y1="103.73" x2="515.07" y2="103.79"></line><line class="cls-18" x1="516.07" y1="103.9" x2="521.61" y2="104.53"></line><line class="cls-10" x1="522.11" y1="104.59" x2="522.61" y2="104.65"></line><line class="cls-10" x1="513.97" y1="108.99" x2="514.47" y2="109.05"></line><line class="cls-18" x1="515.48" y1="109.16" x2="521.01" y2="109.81"></line><line class="cls-10" x1="521.51" y1="109.86" x2="522.01" y2="109.92"></line><line class="cls-10" x1="513.48" y1="113.34" x2="513.98" y2="113.4"></line><line class="cls-18" x1="514.98" y1="113.52" x2="520.52" y2="114.15"></line><line class="cls-10" x1="521.02" y1="114.21" x2="521.52" y2="114.26"></line><line class="cls-10" x1="513.08" y1="116.78" x2="513.57" y2="116.84"></line><line class="cls-22" x1="514.58" y1="116.95" x2="520.13" y2="117.57"></line><line class="cls-10" x1="520.63" y1="117.63" x2="521.13" y2="117.68"></line><line class="cls-10" x1="517.02" y1="82.08" x2="517.52" y2="82.13"></line><line class="cls-18" x1="518.53" y1="82.25" x2="524.06" y2="82.89"></line><line class="cls-10" x1="524.57" y1="82.94" x2="525.06" y2="83"></line><line class="cls-10" x1="510.6" y1="206.12" x2="510.54" y2="205.62"></line><polyline class="cls-1" points="510.43 204.64 509.66 197.98 506.17 167.74"></polyline><polyline class="cls-10" points="506.11 167.24 506.05 166.75 505.56 166.8"></polyline><line class="cls-18" x1="504.55" y1="166.92" x2="499.01" y2="167.56"></line><polyline class="cls-10" points="498.51 167.61 498.01 167.67 498.07 168.17"></polyline><polyline class="cls-23" points="498.19 169.16 501.62 198.9 502.46 206.17"></polyline><line class="cls-10" x1="502.52" y1="206.67" x2="502.57" y2="207.16"></line><line class="cls-10" x1="500.79" y1="191.38" x2="501.28" y2="191.33"></line><line class="cls-11" x1="502.28" y1="191.22" x2="507.79" y2="190.61"></line><line class="cls-10" x1="508.3" y1="190.55" x2="508.79" y2="190.5"></line><line class="cls-10" x1="500.02" y1="185.04" x2="500.52" y2="184.99"></line><line class="cls-18" x1="501.52" y1="184.87" x2="507.06" y2="184.24"></line><line class="cls-10" x1="507.56" y1="184.18" x2="508.06" y2="184.12"></line><line class="cls-10" x1="499.42" y1="179.87" x2="499.92" y2="179.81"></line><line class="cls-18" x1="500.92" y1="179.7" x2="506.46" y2="179.06"></line><line class="cls-10" x1="506.96" y1="179" x2="507.46" y2="178.94"></line><line class="cls-10" x1="498.89" y1="175.24" x2="499.38" y2="175.19"></line><line class="cls-18" x1="500.39" y1="175.07" x2="505.93" y2="174.43"></line><line class="cls-10" x1="506.43" y1="174.38" x2="506.93" y2="174.32"></line><line class="cls-10" x1="498.48" y1="171.74" x2="498.98" y2="171.68"></line><line class="cls-18" x1="499.99" y1="171.56" x2="505.52" y2="170.93"></line><line class="cls-10" x1="506.03" y1="170.87" x2="506.52" y2="170.81"></line><line class="cls-10" x1="498.18" y1="169.15" x2="498.68" y2="169.09"></line><line class="cls-18" x1="499.69" y1="168.98" x2="505.22" y2="168.34"></line><line class="cls-10" x1="505.73" y1="168.28" x2="506.22" y2="168.23"></line><line class="cls-10" x1="501.62" y1="198.9" x2="502.11" y2="198.85"></line><line class="cls-18" x1="503.12" y1="198.73" x2="508.66" y2="198.09"></line><line class="cls-10" x1="509.16" y1="198.04" x2="509.66" y2="197.98"></line><line class="cls-10" x1="521.02" y1="614.06" x2="521.16" y2="614.54"></line><line class="cls-3" x1="521.45" y1="615.51" x2="523.04" y2="620.85"></line><polyline class="cls-10" points="523.19 621.34 523.33 621.82 522.85 621.96"></polyline><polyline class="cls-15" points="521.88 622.24 462.35 639.56 446.51 643.86"></polyline><line class="cls-10" x1="446.02" y1="643.99" x2="445.54" y2="644.12"></line><line class="cls-10" x1="520.72" y1="622.58" x2="520.58" y2="622.1"></line><line class="cls-2" x1="520.29" y1="621.14" x2="518.72" y2="615.85"></line><line class="cls-10" x1="518.58" y1="615.37" x2="518.43" y2="614.89"></line><line class="cls-10" x1="515.73" y1="624.03" x2="515.59" y2="623.55"></line><line class="cls-6" x1="515.32" y1="622.59" x2="513.81" y2="617.33"></line><line class="cls-10" x1="513.67" y1="616.85" x2="513.54" y2="616.37"></line><line class="cls-10" x1="511.12" y1="625.37" x2="510.98" y2="624.89"></line><line class="cls-2" x1="510.71" y1="623.93" x2="509.19" y2="618.62"></line><line class="cls-10" x1="509.05" y1="618.14" x2="508.92" y2="617.66"></line><line class="cls-10" x1="500.48" y1="628.47" x2="500.34" y2="627.99"></line><line class="cls-12" x1="500.05" y1="627.03" x2="498.48" y2="621.76"></line><line class="cls-10" x1="498.34" y1="621.28" x2="498.2" y2="620.8"></line><line class="cls-10" x1="489.78" y1="631.58" x2="489.64" y2="631.1"></line><line class="cls-7" x1="489.37" y1="630.14" x2="487.85" y2="624.9"></line><line class="cls-10" x1="487.71" y1="624.42" x2="487.57" y2="623.94"></line><line class="cls-10" x1="477.09" y1="635.27" x2="476.96" y2="634.79"></line><line class="cls-2" x1="476.69" y1="633.82" x2="475.19" y2="628.51"></line><line class="cls-10" x1="475.05" y1="628.03" x2="474.91" y2="627.55"></line><line class="cls-10" x1="460.52" y1="631.62" x2="460.65" y2="632.1"></line><line class="cls-19" x1="460.92" y1="633.09" x2="462.38" y2="638.5"></line><line class="cls-10" x1="462.51" y1="639" x2="462.65" y2="639.48"></line><polygon class="cls-21" points="418.46 637.16 450.06 628.56 481.66 619.6 513.08 610.45 544.4 600.94 575.72 591.14 606.86 581.07 557.06 444.23 538.12 444.23 537.89 442.23 558.46 442.23 609.45 582.33 576.34 593.05 545 602.84 513.66 612.37 482.22 621.52 450.6 630.49 418.46 639.23 418.46 637.16"></polygon><g><path class="cls-10" d="M435.73,485.43c22.93,0,39-18.45,39-41.21"></path><path class="cls-10" d="M76.58,180.82c0,25.52-20.68,43.4-46.2,43.4"></path><path class="cls-10" d="M198.02,162.36c-23.16,0-39.39,18.64-39.39,41.62"></path><path class="cls-10" d="M217.41,162.36c23.16,0,39.39,18.64,39.39,41.62"></path><path class="cls-10" d="M180.48,452.28c0,23.16,18.64,39.39,41.62,39.39"></path><path class="cls-10" d="M213.5,392.25c-23.16,0-39.39,18.64-39.39,41.62"></path></g><line class="cls-10" x1="20.38" y1="178.02" x2="20.38" y2="224.22"></line><line class="cls-10" x1="30.38" y1="180.82" x2="30.38" y2="224.22"></line><rect class="cls-21" x="433.52" y="444.23" width="2.21" height="41.21"></rect><rect class="cls-21" x="30.38" y="178.02" width="46.2" height="2.8"></rect><rect class="cls-21" x="198.02" y="162.36" width="2.23" height="41.62"></rect><rect class="cls-21" x="215.18" y="162.36" width="2.23" height="41.62"></rect><rect class="cls-21" x="180.48" y="450.05" width="41.62" height="2.23"></rect><rect class="cls-21" x="213.5" y="392.25" width="2.23" height="41.62"></rect><rect class="cls-21" x="157.47" y="463.91" width="2.23" height="41.62"></rect><rect class="cls-21" x="235.97" y="142.82" width="41.58" height="2.23"></rect><rect class="cls-21" x="70.85" y="265.25" width="41.58" height="2.23"></rect><rect class="cls-21" x="154.56" y="265.25" width="41.58" height="2.23"></rect><rect class="cls-21" x="133.77" y="267.48" width="41.58" height="2.23"></rect><rect class="cls-21" x="36.2" y="169.41" width="62.37" height="2.23"></rect><line class="cls-21" x1="67.38" y1="169.41" x2="67.38" y2="171.6"></line><polyline class="cls-14" points="339.81 289.11 339.81 288.36 339.06 288.36"></polyline><line class="cls-5" x1="337.52" y1="288.36" x2="313.72" y2="288.36"></line><polyline class="cls-14" points="312.95 288.36 312.2 288.36 312.2 289.11"></polyline><line class="cls-5" x1="312.2" y1="290.65" x2="312.2" y2="314.46"></line><polyline class="cls-14" points="312.2 315.22 312.2 315.97 312.95 315.97"></polyline><line class="cls-5" x1="314.48" y1="315.97" x2="338.29" y2="315.97"></line><polyline class="cls-14" points="339.06 315.97 339.81 315.97 339.81 315.22"></polyline><line class="cls-5" x1="339.81" y1="313.69" x2="339.81" y2="289.88"></line><polyline class="cls-14" points="339.81 371.81 339.81 371.06 339.06 371.06"></polyline><line class="cls-5" x1="337.52" y1="371.06" x2="313.72" y2="371.06"></line><polyline class="cls-14" points="312.95 371.06 312.2 371.06 312.2 371.81"></polyline><line class="cls-5" x1="312.2" y1="373.34" x2="312.2" y2="397.15"></line><polyline class="cls-14" points="312.2 397.92 312.2 398.67 312.95 398.67"></polyline><line class="cls-5" x1="314.48" y1="398.67" x2="338.29" y2="398.67"></line><polyline class="cls-14" points="339.06 398.67 339.81 398.67 339.81 397.92"></polyline><line class="cls-5" x1="339.81" y1="396.38" x2="339.81" y2="372.57"></line><line class="cls-14" x1="249.47" y1="307.12" x2="249.47" y2="310.12"></line><line class="cls-9" x1="249.47" y1="314.95" x2="249.47" y2="386.88"></line><line class="cls-14" x1="249.47" y1="389.3" x2="249.47" y2="392.3"></line><line class="cls-21" x1="261.38" y1="433.88" x2="261.38" y2="270.98"></line><line class="cls-21" x1="261.38" y1="307.12" x2="233.95" y2="307.12"></line><line class="cls-21" x1="261.38" y1="392.3" x2="233.96" y2="392.3"></line><line class="cls-21" x1="258.88" y1="307.12" x2="258.88" y2="270.97"></line><line class="cls-21" x1="258.88" y1="433.88" x2="258.88" y2="392.3"></line><rect class="cls-21" x="312.2" y="284.83" width="49.71" height="117.32"></rect><g><rect class="cls-21" x="332.36" y="333.68" width="9.78" height="1.74" rx=".59" ry=".59"></rect><circle class="cls-21" cx="325.57" cy="334.55" r=".9"></circle></g><polyline class="cls-21" points="340.82 335.42 340.82 337.84 339.27 337.84 339.27 335.42"></polyline><line class="cls-21" x1="339.27" y1="336.98" x2="340.82" y2="336.98"></line><polyline class="cls-21" points="336.96 335.42 336.96 347.47 315.2 347.47 315.2 321.62 336.96 321.62 336.96 333.68"></polyline><polyline class="cls-21" points="335.88 333.68 335.88 322.7 316.28 322.7 316.28 346.39 335.88 346.39 335.88 335.42"></polyline><polyline class="cls-21" points="225.62 380.4 148.81 380.4 148.81 355.26"></polyline><path class="cls-21" d="M169.56,363.34h-9.87c-.4,0-.72.32-.72.72v10.9c0,.4.32.72.72.72h20.82c.4,0,.72-.32.72-.72v-10.9c0-.4-.32-.72-.72-.72h-9.48"></path><rect class="cls-21" x="169.56" y="359.89" width="1.47" height="5.89"></rect><g><circle class="cls-21" cx="170.29" cy="369.51" r=".84"></circle><path class="cls-21" d="M204.31,363.34h-9.87c-.4,0-.72.32-.72.72v10.9c0,.4.32.72.72.72h20.82c.4,0,.72-.32.72-.72v-10.9c0-.4-.32-.72-.72-.72h-9.48"></path></g><rect class="cls-21" x="204.31" y="359.89" width="1.47" height="5.89"></rect><circle class="cls-21" cx="205.05" cy="369.51" r=".84"></circle><line class="cls-21" x1="107.81" y1="431.57" x2="107.81" y2="356.2"></line><line class="cls-21" x1="107.81" y1="431.57" x2="107.81" y2="355.38"></line><line class="cls-21" x1="106.53" y1="431.57" x2="106.53" y2="355.38"></line><line class="cls-21" x1="106.53" y1="426.88" x2="107.81" y2="426.88"></line><line class="cls-21" x1="106.53" y1="388.88" x2="107.81" y2="388.88"></line><line class="cls-21" x1="66.23" y1="368.77" x2="106.53" y2="368.77"></line><g><path class="cls-21" d="M89.08,419.65c0,.67-.54,1.21-1.21,1.21s-1.21-.54-1.21-1.21.54-1.21,1.21-1.21,1.21.54,1.21,1.21Z"></path><path class="cls-21" d="M93.05,419.65c0,2.86-2.32,5.18-5.18,5.18s-5.18-2.32-5.18-5.18,2.32-5.18,5.18-5.18,5.18,2.32,5.18,5.18Z"></path><rect class="cls-21" x="119.51" y="355.38" width="17.6" height="7.45" rx="1.08" ry="1.08"></rect><path class="cls-21" d="M132.77,366.98c.28,0,.54.11.73.32,1.88,2.09,3.09,5.3,3.09,8.9,0,6.31-3.71,11.42-8.28,11.42s-8.28-5.11-8.28-11.42c0-3.6,1.2-6.8,3.08-8.9.19-.21.46-.32.73-.32h8.92Z"></path></g><line class="cls-21" x1="136.59" y1="376.2" x2="136.59" y2="362.68"></line><line class="cls-21" x1="120.04" y1="376.2" x2="120.04" y2="362.68"></line><g><rect class="cls-21" x="112.43" y="109.58" width="7.45" height="17.6" rx="1.08" ry="1.08"></rect><path class="cls-21" d="M124.03,113.93c0-.28.11-.54.32-.73,2.09-1.88,5.3-3.09,8.9-3.09,6.31,0,11.42,3.71,11.42,8.28s-5.11,8.28-11.42,8.28c-3.6,0-6.8-1.2-8.9-3.08-.21-.19-.32-.46-.32-.73v-8.92Z"></path></g><line class="cls-21" x1="133.25" y1="110.11" x2="119.73" y2="110.11"></line><line class="cls-21" x1="133.25" y1="126.66" x2="119.73" y2="126.66"></line><line class="cls-21" x1="197.53" y1="81.86" x2="197.53" y2="78.65"></line><g><path class="cls-21" d="M197.53,77.79v-11.6c0-1.38-1.12-2.5-2.5-2.5h-61.83c-1.38,0-2.5,1.12-2.5,2.5v24.04c0,1.38,1.12,2.5,2.5,2.5h61.83c1.38,0,2.5-1.12,2.5-2.5v-8.37"></path><path class="cls-21" d="M201.55,78.65h-10.86c-.24,0-.43-.19-.43-.43s.19-.43.43-.43h10.81"></path><path class="cls-21" d="M191.77,77.79c-.17-.46-.61-.79-1.14-.79-.67,0-1.21.54-1.21,1.21s.54,1.21,1.21,1.21c.51,0,.95-.32,1.13-.77"></path><path class="cls-21" d="M195.81,77.79c-.22-2.66-2.45-4.76-5.17-4.76-2.86,0-5.18,2.32-5.18,5.18s2.32,5.18,5.18,5.18c2.72,0,4.94-2.09,5.17-4.74"></path></g><rect class="cls-21" x="201.55" y="75.67" width=".97" height="5.08"></rect><line class="cls-21" x1="202.52" y1="96.44" x2="127.15" y2="96.44"></line><line class="cls-21" x1="202.52" y1="96.44" x2="126.33" y2="96.44"></line><line class="cls-21" x1="202.52" y1="97.72" x2="126.33" y2="97.72"></line><line class="cls-21" x1="197.84" y1="97.72" x2="197.84" y2="96.44"></line><line class="cls-21" x1="159.83" y1="97.72" x2="159.83" y2="96.44"></line><polyline class="cls-21" points="112.43 139.29 137.45 139.29 137.45 203.97"></polyline><path class="cls-21" d="M120.49,172.13v9.87c0,.4.32.72.72.72h10.9c.4,0,.72-.32.72-.72v-20.82c0-.4-.32-.72-.72-.72h-10.9c-.4,0-.72.32-.72.72v9.48"></path><rect class="cls-21" x="117.04" y="170.65" width="5.89" height="1.47"></rect><circle class="cls-21" cx="126.66" cy="171.39" r=".84"></circle><rect class="cls-21" x="76.34" y="305.27" width="30.61" height="38.03"></rect><rect class="cls-21" x="235.82" y="330.36" width="24.28" height="36.98"></rect><rect class="cls-21" x="236.9" y="331.44" width="22.12" height="34.82"></rect><path class="cls-21" d="M258.27,348.85c0,.71-.57,1.28-1.28,1.28s-1.28-.57-1.28-1.28.57-1.28,1.28-1.28c.71,0,1.28.57,1.28,1.28Z"></path><line class="cls-21" x1="259.02" y1="366.25" x2="260.1" y2="367.33"></line><line class="cls-21" x1="259.01" y1="331.44" x2="260.09" y2="330.36"></line><line class="cls-21" x1="236.9" y1="331.44" x2="235.82" y2="330.36"></line><line class="cls-21" x1="236.9" y1="366.26" x2="235.82" y2="367.34"></line><polygon class="cls-21" points="256.98 347.79 255.93 348.85 256.98 349.9 258.04 348.85 256.98 347.79"></polygon><line class="cls-21" x1="255.93" y1="348.85" x2="258.04" y2="348.85"></line><g><path class="cls-20" d="M66.62,152.76c.03,1.51.06,3.03.13,4.57.04.8.09,1.6.13,2.35.03.57.07,1.11.16,1.78.09.65.25,1.42-.23,1.73-.11.07-.25.12-.38.13-.77.06-.9-1.18-.97-2.24-.15-2.35.04-3.74.16-5.44.06-.9.1-1.9.14-2.89-.04-.99-.08-1.98-.14-2.89-.12-1.7-.3-3.09-.16-5.44.07-1.05.2-2.3.97-2.24.13.01.27.06.38.13.48.3.32,1.08.23,1.73-.1.67-.13,1.21-.16,1.78-.04.75-.09,1.56-.13,2.36-.07,1.54-.1,3.06-.13,4.57Z"></path><path class="cls-20" d="M61.93,152.76c.03,1.51.06,3.03.13,4.57.04.8.09,1.6.13,2.35.03.57.07,1.11.16,1.78.09.65.25,1.42-.23,1.73-.11.07-.25.12-.38.13-.77.06-.9-1.18-.97-2.24-.15-2.35.04-3.74.16-5.44.06-.9.1-1.9.14-2.89-.04-.99-.08-1.98-.14-2.89-.12-1.7-.3-3.09-.16-5.44.07-1.05.2-2.3.97-2.24.13.01.27.06.38.13.48.3.33,1.08.23,1.73-.1.67-.13,1.21-.16,1.78-.04.75-.09,1.56-.13,2.36-.07,1.54-.1,3.06-.13,4.57Z"></path><path class="cls-20" d="M57.23,152.76c.03,1.51.06,3.03.13,4.57.04.8.09,1.6.13,2.35.03.57.07,1.11.16,1.78.09.65.25,1.42-.23,1.73-.11.07-.25.12-.38.13-.77.06-.9-1.18-.97-2.24-.15-2.35.04-3.74.16-5.44.06-.9.1-1.9.14-2.89-.04-.99-.08-1.98-.14-2.89-.12-1.7-.3-3.09-.16-5.44.07-1.05.2-2.3.97-2.24.13.01.27.06.38.13.48.3.33,1.08.23,1.73-.1.67-.13,1.21-.16,1.78-.04.75-.09,1.56-.13,2.36-.07,1.54-.1,3.06-.13,4.57Z"></path></g><line class="cls-20" x1="18.87" y1="152.76" x2="104.3" y2="152.76"></line><g><path class="cls-20" d="M258.62,73.02c.03,1.51.06,3.03.13,4.57.04.8.09,1.6.13,2.35.03.57.07,1.11.16,1.78.09.65.25,1.42-.23,1.73-.11.07-.25.12-.38.13-.77.06-.9-1.18-.97-2.24-.15-2.35.04-3.74.16-5.44.06-.9.1-1.9.14-2.89-.04-.99-.08-1.98-.14-2.89-.12-1.7-.3-3.09-.16-5.44.07-1.05.2-2.3.97-2.24.13.01.27.06.38.13.48.3.32,1.08.23,1.73-.1.67-.13,1.21-.16,1.78-.04.75-.09,1.56-.13,2.36-.07,1.54-.1,3.06-.13,4.57Z"></path><path class="cls-20" d="M253.93,73.02c.03,1.51.06,3.03.13,4.57.04.8.09,1.6.13,2.35.03.57.07,1.11.16,1.78.09.65.25,1.42-.23,1.73-.11.07-.25.12-.38.13-.77.06-.9-1.18-.97-2.24-.15-2.35.04-3.74.16-5.44.06-.9.1-1.9.14-2.89-.04-.99-.08-1.98-.14-2.89-.12-1.7-.3-3.09-.16-5.44.07-1.05.2-2.3.97-2.24.13.01.27.06.38.13.48.3.33,1.08.23,1.73-.1.67-.13,1.21-.16,1.78-.04.75-.09,1.56-.13,2.36-.07,1.54-.1,3.06-.13,4.57Z"></path><path class="cls-20" d="M249.23,73.02c.03,1.51.06,3.03.13,4.57.04.8.09,1.6.13,2.35.03.57.07,1.11.16,1.78.09.65.25,1.42-.23,1.73-.11.07-.25.12-.38.13-.77.06-.9-1.18-.97-2.24-.15-2.35.04-3.74.16-5.44.06-.9.1-1.9.14-2.89-.04-.99-.08-1.98-.14-2.89-.12-1.7-.3-3.09-.16-5.44.07-1.05.2-2.3.97-2.24.13.01.27.06.38.13.48.3.33,1.08.23,1.73-.1.67-.13,1.21-.16,1.78-.04.75-.09,1.56-.13,2.36-.07,1.54-.1,3.06-.13,4.57Z"></path><path class="cls-20" d="M225,102.88c1.51-.03,3.03-.06,4.57-.13.8-.04,1.6-.09,2.35-.13.57-.03,1.11-.07,1.78-.16.65-.09,1.42-.25,1.73.23.07.11.12.25.13.38.06.77-1.18.9-2.24.97-2.35.15-3.74-.04-5.44-.16-.9-.06-1.9-.1-2.89-.14-.99.04-1.98.08-2.89.14-1.7.12-3.09.3-5.44.16-1.05-.07-2.3-.2-2.24-.97.01-.13.06-.27.13-.38.3-.48,1.08-.33,1.73-.23.67.1,1.21.13,1.78.16.75.04,1.56.09,2.36.13,1.54.07,3.06.1,4.57.13Z"></path><path class="cls-20" d="M225,107.58c1.51-.03,3.03-.06,4.57-.13.8-.04,1.6-.09,2.35-.13.57-.03,1.11-.07,1.78-.16.65-.09,1.42-.25,1.73.23.07.11.12.25.13.38.06.77-1.18.9-2.24.97-2.35.15-3.74-.04-5.44-.16-.9-.06-1.9-.1-2.89-.14-.99.04-1.98.08-2.89.14-1.7.12-3.09.3-5.44.16-1.05-.07-2.3-.2-2.24-.97.01-.13.06-.27.13-.38.3-.48,1.08-.33,1.73-.23.67.1,1.21.13,1.78.16.75.04,1.56.09,2.36.13,1.54.07,3.06.1,4.57.13Z"></path><path class="cls-20" d="M225,112.27c1.51-.03,3.03-.06,4.57-.13.8-.04,1.6-.09,2.35-.13.57-.03,1.11-.07,1.78-.16.65-.09,1.42-.25,1.73.23.07.11.12.25.13.38.06.77-1.18.9-2.24.97-2.35.15-3.74-.04-5.44-.16-.9-.06-1.9-.1-2.89-.14-.99.04-1.98.08-2.89.14-1.7.12-3.09.3-5.44.16-1.05-.07-2.3-.2-2.24-.97.01-.13.06-.27.13-.38.3-.48,1.08-.32,1.73-.23.67.1,1.21.13,1.78.16.75.04,1.56.09,2.36.13,1.54.07,3.06.1,4.57.13Z"></path></g><polyline class="cls-20" points="225 142.82 225 73.02 282.17 73.02"></polyline><line class="cls-20" x1="448.49" y1="64.28" x2="448.49" y2="202.88"></line><polyline class="cls-20" points="456.62 220.15 504.11 220.15 529.06 436.19 477.41 436.19"></polyline><polyline class="cls-20" points="431.21 436.19 410.42 436.19 410.42 485.9"></polyline><polyline class="cls-20" points="410.42 574.51 410.42 645.29 375.77 654.25 341.03 662.84 306.19 671.07 271.36 678.92 236.34 686.5 201.32 693.61 166.21 700.45 131 706.83 95.7 712.92 60.41 718.65"></polyline><line class="cls-20" x1="502.83" y1="209.35" x2="503.19" y2="212.12"></line><line class="cls-20" x1="517.96" y1="73.71" x2="519.17" y2="63.07"></line><polyline class="cls-20" points="537.47 438.5 561.12 438.5 614.35 584.67 581.91 595.21 549.39 605.46 516.86 615.35 484.15 624.96 451.35 634.2 418.46 643.16"></polyline><line class="cls-20" x1="520.85" y1="48.38" x2="526.68" y2="48.38"></line><line class="cls-13" x1="54.68" y1="637.16" x2="56.23" y2="637.16"></line><polygon class="cls-13" points="528.98 48.38 527.31 63.08 456.62 63.08 456.62 212.12 511.32 212.12 538.12 444.23 477.41 444.23 477.41 441.92 535.53 441.92 509.19 214.43 454.31 214.43 454.31 60.77 525.27 60.77 526.68 48.38 528.98 48.38"></polygon><polygon class="cls-13" points="54.68 637.16 54.68 725.4 91.18 719.58 127.58 713.29 163.9 706.73 200.21 699.71 236.43 692.41 272.56 684.65 308.59 676.43 344.54 667.93 380.39 659.06 416.15 649.72 416.15 556.31 418.46 556.31 418.46 651.48 382.24 660.9 345.92 669.96 309.52 678.64 273.02 686.87 236.43 694.72 199.75 702.21 163.06 709.23 126.2 715.88 89.33 722.16 52.37 728.08 52.37 637.16 54.68 637.16"></polygon><polygon class="cls-13" points="510.6 206.12 511.32 212.12 510.6 206.12 508.29 206.38 508.29 206.4 509.01 212.12 508.29 206.4 510.6 206.12"></polygon><polygon class="cls-13" points="527.3 63.07 526 74.63 523.69 74.37 523.69 74.36 524.99 63.07 527.3 63.07"></polygon><polygon class="cls-13" points="418.46 651.48 445.54 644.12 444.94 641.89 444.89 641.91 418.46 649.1 418.46 651.48"></polygon><polyline class="cls-13" points="431.21 444.22 418.46 444.22 418.46 485.9"></polyline><polyline class="cls-13" points="431.21 441.91 416.15 441.91 416.15 485.9"></polyline><rect class="cls-13" x="54.68" y="644.09" width="5.73" height="2.31"></rect><rect class="cls-13" x="431.21" y="436.19" width="2.31" height="8.04"></rect><rect class="cls-13" x="475.1" y="436.19" width="2.31" height="8.04"></rect><polyline class="cls-13" points="405.06 646.67 406.54 652.31 404.32 652.86 402.84 647.32 405.06 646.67"></polyline><polyline class="cls-13" points="337.98 663.58 339.36 669.22 337.05 669.77 335.76 664.14 337.98 663.58"></polyline><polyline class="cls-13" points="270.62 679.11 271.82 684.74 269.6 685.3 268.31 679.66 270.62 679.11"></polyline><polyline class="cls-13" points="236.8 686.41 238 692.04 235.69 692.5 234.49 686.87 236.8 686.41"></polyline><polyline class="cls-13" points="202.89 693.34 204 698.97 201.78 699.43 200.67 693.8 202.89 693.34"></polyline><polyline class="cls-13" points="134.97 706.18 135.9 711.81 133.68 712.28 132.66 706.55 134.97 706.18"></polyline><polyline class="cls-13" points="66.69 717.64 67.61 723.37 65.3 723.73 64.47 718.01 66.69 717.64"></polyline><rect class="cls-13" x="455.42" y="55.04" width="2.31" height="5.73"></rect><rect class="cls-13" x="448.49" y="61.97" width="5.82" height="2.31"></rect><rect class="cls-13" x="448.49" y="133.58" width="5.82" height="2.31"></rect><rect class="cls-13" x="448.49" y="202.88" width="5.82" height="2.31"></rect><rect class="cls-13" x="455.42" y="214.43" width="2.31" height="5.73"></rect><polyline class="cls-13" points="505.96 236.23 511.69 235.59 511.97 237.9 506.24 238.54 505.96 236.23"></polyline><polyline class="cls-13" points="513.91 305.07 519.64 304.42 519.91 306.73 514.18 307.38 513.91 305.07"></polyline><polyline class="cls-13" points="521.85 373.91 527.58 373.26 527.86 375.57 522.13 376.22 521.85 373.91"></polyline><rect class="cls-13" x="410.42" y="443.12" width="5.73" height="2.31"></rect><rect class="cls-13" x="410.42" y="483.59" width="5.73" height="2.31"></rect><rect class="cls-13" x="417.35" y="436.19" width="2.31" height="5.73"></rect><rect class="cls-13" x="410.42" y="556.31" width="5.73" height="2.31"></rect><rect class="cls-13" x="410.42" y="572.2" width="5.73" height="2.31"></rect><polyline class="cls-13" points="520.1 55.04 518.53 55.04 523.7 60.77 525.27 60.77 525.46 59.29 520.28 53.47 520.1 55.04"></polyline><polyline class="cls-13" points="504.11 220.15 504.3 221.73 509.38 216 509.19 214.43 507.72 214.43 502.54 220.15 504.11 220.15"></polyline><polyline class="cls-13" points="529.06 436.19 527.3 436.19 533.87 441.92 535.53 441.92 535.34 440.25 528.88 434.43 529.06 436.19"></polyline><polyline class="cls-13" points="409.03 645.66 414.76 650.09 416.15 649.72 416.15 648.24 410.42 643.81 410.42 645.29 409.03 645.66"></polyline><polyline class="cls-13" points="60.41 716.8 54.68 723.55 54.68 725.4 56.43 725.12 62.16 718.38 60.41 718.65 60.41 716.8"></polyline><polygon class="cls-13" points="443.44 636.36 444.94 641.89 442.78 642.48 441.21 636.96 443.44 636.36"></polygon><polyline class="cls-13" points="518.24 71.4 523.97 72.14 523.69 74.36 517.96 73.71 518.24 71.4"></polyline><polyline class="cls-13" points="502.56 207.04 502.84 209.35 508.56 208.61 508.29 206.4 502.56 207.04"></polyline><polygon class="cls-24" points="520.85 48.38 102.43 48.46 102.43 128.2 8.83 128.2 8.83 172.41 20.38 172.41 20.38 178.02 30.38 178.02 30.38 171.65 36.2 171.65 36.2 165.92 30.38 165.92 30.38 162.41 18.83 162.41 18.83 138.2 104.3 138.2 104.3 165.92 98.57 165.92 98.57 171.65 106.61 171.65 106.61 209.81 158.63 209.81 158.63 203.99 112.43 203.99 112.43 97.73 126.29 97.73 126.29 58.46 202.52 58.46 202.52 97.73 204.83 97.73 204.83 203.99 200.26 203.99 200.26 209.81 215.18 209.81 215.18 203.99 210.56 203.99 210.56 148.55 235.97 148.55 235.97 142.82 210.56 142.82 210.56 58.46 282.17 58.46 282.17 142.82 277.55 142.82 277.55 148.55 287.99 148.55 287.99 58.46 442.76 58.46 442.76 64.28 448.49 64.28 448.49 55.04 520.1 55.04 520.85 48.38"></polygon><polygon class="cls-16" points="520.85 48.38 102.43 48.46 102.43 128.2 8.83 128.2 8.83 172.41 20.38 172.41 20.38 178.02 30.38 178.02 30.38 171.65 36.2 171.65 36.2 165.92 30.38 165.92 30.38 162.41 18.83 162.41 18.83 138.2 104.3 138.2 104.3 165.92 98.57 165.92 98.57 171.65 106.61 171.65 106.61 209.81 158.63 209.81 158.63 203.99 112.43 203.99 112.43 97.73 126.29 97.73 126.29 58.46 202.52 58.46 202.52 97.73 204.83 97.73 204.83 203.99 200.26 203.99 200.26 209.81 215.18 209.81 215.18 203.99 210.56 203.99 210.56 148.55 235.97 148.55 235.97 142.82 210.56 142.82 210.56 58.46 282.17 58.46 282.17 142.82 277.55 142.82 277.55 148.55 287.99 148.55 287.99 58.46 442.76 58.46 442.76 64.28 448.49 64.28 448.49 55.04 520.1 55.04 520.85 48.38"></polygon><polygon class="cls-24" points="448.49 203.98 448.49 220.15 456.62 220.15 456.62 225.98 313.4 225.98 313.4 209.81 256.76 209.81 256.76 204.03 448.49 203.98"></polygon><polygon class="cls-16" points="448.49 203.98 448.49 220.15 456.62 220.15 456.62 225.98 313.4 225.98 313.4 209.81 256.76 209.81 256.76 204.03 448.49 203.98"></polygon><polygon class="cls-24" points="30.38 224.22 30.38 245.01 66.23 245.01 66.23 265.25 70.85 265.25 70.85 270.97 66.23 270.97 66.23 347.2 117.05 347.2 117.05 271.07 112.43 271.07 112.43 265.25 133.77 265.25 133.77 270.97 125.09 270.97 125.09 347.3 225.62 347.3 225.62 270.97 216.93 270.97 216.93 265.25 261.38 265.25 261.38 270.97 233.95 270.97 233.95 433.88 261.38 433.88 261.38 443.12 227.93 443.12 227.93 450.05 222.11 450.05 222.11 439.6 215.73 439.6 215.73 433.88 225.62 433.88 225.62 355.34 66.23 355.34 66.23 431.57 107.81 431.57 107.81 433.88 174.15 433.88 174.15 439.6 163.25 439.6 163.25 463.91 157.43 463.91 157.43 439.6 66.23 439.6 66.23 510.11 157.47 510.11 157.47 505.49 163.25 505.49 163.25 515.93 66.23 515.93 66.23 717.73 60.41 718.65 60.41 637.16 56.23 637.16 56.23 255.01 20.38 255.01 20.38 224.22 30.38 224.22"></polygon><polygon class="cls-16" points="30.38 224.22 30.38 245.01 66.23 245.01 66.23 265.25 70.85 265.25 70.85 270.97 66.23 270.97 66.23 347.2 117.05 347.2 117.05 271.07 112.43 271.07 112.43 265.25 133.77 265.25 133.77 270.97 125.09 270.97 125.09 347.3 225.62 347.3 225.62 270.97 216.93 270.97 216.93 265.25 261.38 265.25 261.38 270.97 233.95 270.97 233.95 433.88 261.38 433.88 261.38 443.12 227.93 443.12 227.93 450.05 222.11 450.05 222.11 439.6 215.73 439.6 215.73 433.88 225.62 433.88 225.62 355.34 66.23 355.34 66.23 431.57 107.81 431.57 107.81 433.88 174.15 433.88 174.15 439.6 163.25 439.6 163.25 463.91 157.43 463.91 157.43 439.6 66.23 439.6 66.23 510.11 157.47 510.11 157.47 505.49 163.25 505.49 163.25 515.93 66.23 515.93 66.23 717.73 60.41 718.65 60.41 637.16 56.23 637.16 56.23 255.01 20.38 255.01 20.38 224.22 30.38 224.22"></polygon><polygon class="cls-24" points="428.9 485.9 404.6 485.9 404.6 573.31 410.42 573.31 410.42 556.31 428.9 556.31 428.9 485.9"></polygon><polygon class="cls-16" points="428.9 485.9 404.6 485.9 404.6 573.31 410.42 573.31 410.42 556.31 428.9 556.31 428.9 485.9"></polygon><polygon class="cls-24" points="234.49 680.95 227.93 682.34 227.93 491.63 222.11 491.63 222.11 683.54 200.67 687.88 201.78 693.52 235.69 686.59 234.49 680.95"></polygon><polygon class="cls-16" points="234.49 680.95 227.93 682.34 227.93 491.63 222.11 491.63 222.11 683.54 200.67 687.88 201.78 693.52 235.69 686.59 234.49 680.95"></polygon><g><path class="cls-27" d="M8.22,200.98c.08.02.14.07.14.14s-.06.13-.14.14c-3.3.56-4.94,2.74-4.94,6.02v3.84c0,1.16-1.01,1.98-2.66,2.2-.34.05-.61-.23-.46-.47.31-.46.47-1.06.47-1.78v-3.48c0-2.95,1.67-5.22,4.98-6.17.37-.11.37-.5,0-.61-3.31-.96-4.98-3.22-4.98-6.18v-3.48c0-.72-.16-1.32-.47-1.78-.16-.23.12-.51.46-.47,1.64.22,2.66,1.05,2.66,2.21v3.84c0,3.29,1.64,5.47,4.95,6.02h0Z"></path><path class="cls-17" d="M8.22,200.98c.08.02.14.07.14.14s-.06.13-.14.14c-3.3.56-4.94,2.74-4.94,6.02v3.84c0,1.16-1.01,1.98-2.66,2.2-.34.05-.61-.23-.46-.47.31-.46.47-1.06.47-1.78v-3.48c0-2.95,1.67-5.22,4.98-6.17.37-.11.37-.5,0-.61-3.31-.96-4.98-3.22-4.98-6.18v-3.48c0-.72-.16-1.32-.47-1.78-.16-.23.12-.51.46-.47,1.64.22,2.66,1.05,2.66,2.21v3.84c0,3.29,1.64,5.47,4.95,6.02h0Z"></path></g><g><path class="cls-24" d="M282.83,529h.81v8.33h4.18v.73h-4.99v-9.06Z"></path><path class="cls-24" d="M288.96,529h.94v1.39h-.94v-1.39ZM289.04,531.65h.77v6.41h-.77v-6.41Z"></path><path class="cls-24" d="M291.21,531.65h.86l2.1,5.42,2.11-5.42h.85l-2.61,6.41h-.68l-2.63-6.41Z"></path><path class="cls-24" d="M298.46,529h.94v1.39h-.94v-1.39ZM298.55,531.65h.77v6.41h-.77v-6.41Z"></path><path class="cls-24" d="M301.36,531.65h.78v1.05c.4-.76,1.12-1.14,2.01-1.14,1.38,0,2.2.81,2.2,2.51v3.99h-.78v-3.71c0-1.45-.55-2.11-1.61-2.11-1.16,0-1.83.79-1.83,2.55v3.27h-.78v-6.41Z"></path><path class="cls-24" d="M307.81,538.82s0-.1.03-.26l1.11-.88c-.57-.22-.96-.59-.96-1.26,0-.53.27-.9.72-1.2-.36-.37-.56-.87-.56-1.45,0-1.3,1.04-2.2,2.39-2.2.64,0,1.22.21,1.64.58l1.02-.86.4.49-1,.88c.19.33.3.71.3,1.14,0,1.28-.96,2.13-2.33,2.13-.53,0-.99-.12-1.37-.34-.31.17-.45.42-.45.71,0,.66.63.83,1.62.98,1.6.25,2.99.44,2.99,1.75,0,1.16-1.05,1.78-2.7,1.78-1.82,0-2.85-.7-2.85-2ZM310.67,540.21c1.09,0,1.92-.34,1.92-1.08,0-.86-1.16-.96-2.31-1.14-.31-.05-.6-.1-.89-.17l-.8.92c-.01.09-.01.11-.01.15,0,.9.79,1.33,2.09,1.33ZM310.54,535.28c.98,0,1.59-.65,1.59-1.53s-.64-1.56-1.58-1.56-1.62.65-1.62,1.55.63,1.55,1.61,1.55Z"></path><path class="cls-24" d="M318.3,529h2.52c1.99,0,2.97.93,2.97,2.5,0,1.25-.64,2.07-1.85,2.38l2.44,4.19h-.92l-2.34-4.07c-.21,0-.44,0-.65,0h-1.36v4.06h-.81v-9.06ZM320.74,533.28c1.38,0,2.24-.55,2.24-1.78s-.88-1.77-2.24-1.77h-1.64v3.56h1.64Z"></path><path class="cls-24" d="M325.3,534.85c0-1.92,1.25-3.29,3.05-3.29s3.04,1.37,3.04,3.29-1.27,3.3-3.04,3.3-3.05-1.37-3.05-3.3ZM328.35,537.45c1.37,0,2.26-1.04,2.26-2.61s-.9-2.61-2.26-2.61-2.28,1.05-2.28,2.61.9,2.61,2.28,2.61Z"></path><path class="cls-24" d="M332.84,534.85c0-1.92,1.25-3.29,3.05-3.29s3.04,1.37,3.04,3.29-1.27,3.3-3.04,3.3-3.05-1.37-3.05-3.3ZM335.89,537.45c1.37,0,2.26-1.04,2.26-2.61s-.9-2.61-2.26-2.61-2.28,1.05-2.28,2.61.9,2.61,2.28,2.61Z"></path><path class="cls-24" d="M340.68,531.65h.78v1.1c.38-.84,1.11-1.19,1.88-1.19.91,0,1.57.4,1.89,1.25.4-.83,1.09-1.25,2-1.25,1.55,0,2.13,1.16,2.13,2.68v3.82h-.78v-3.64c0-1.33-.39-2.18-1.52-2.18-1.02,0-1.65.77-1.65,2.26v3.57h-.78v-3.76c0-1.4-.52-2.07-1.5-2.07-1.03,0-1.67.79-1.67,2.26v3.57h-.78v-6.41Z"></path></g><g><path class="cls-24" d="M95.34,597.74h2.52c1.9,0,2.97.89,2.97,2.53s-1.07,2.54-2.97,2.54h-1.72v3.99h-.8v-9.06ZM97.78,602.09c1.41,0,2.24-.61,2.24-1.81s-.81-1.81-2.24-1.81h-1.64v3.62h1.64Z"></path><path class="cls-24" d="M102.35,600.39h.78v1.09c.43-.78,1.31-1.18,2.02-1.18.33,0,.66.07.99.24l-.39.7c-.21-.1-.51-.17-.77-.17-.68,0-1.46.36-1.74,1.3-.08.27-.12.57-.12,1.27v3.15h-.78v-6.41Z"></path><path class="cls-24" d="M107.4,597.74h.94v1.39h-.94v-1.39ZM107.49,600.39h.77v6.41h-.77v-6.41Z"></path><path class="cls-24" d="M110.29,600.39h.78v1.1c.38-.84,1.11-1.19,1.88-1.19.91,0,1.57.4,1.89,1.25.4-.83,1.09-1.25,2-1.25,1.55,0,2.13,1.16,2.13,2.68v3.82h-.78v-3.64c0-1.33-.39-2.18-1.52-2.18-1.02,0-1.65.77-1.65,2.26v3.57h-.78v-3.76c0-1.4-.52-2.07-1.5-2.07-1.03,0-1.67.79-1.67,2.26v3.57h-.78v-6.41Z"></path><path class="cls-24" d="M125.12,605.6c-.43.82-1.25,1.29-2.25,1.29-1.44,0-2.31-.77-2.31-1.94,0-.69.29-1.16.72-1.44.46-.31,1.09-.42,1.77-.42h2.05v-.28c0-1.19-.62-1.83-1.82-1.83-.79,0-1.4.29-1.98,1.02l-.56-.48c.68-.84,1.53-1.21,2.59-1.21,1.63,0,2.54.89,2.54,2.51v3.99h-.71l-.04-1.2ZM122.94,606.25c1.18,0,2.17-.93,2.17-2.2v-.36h-1.95c-.51,0-1.03.08-1.37.32-.28.21-.44.51-.44.94,0,.79.6,1.3,1.6,1.3Z"></path><path class="cls-24" d="M127.83,600.39h.78v1.09c.43-.78,1.31-1.18,2.02-1.18.33,0,.66.07.99.24l-.39.7c-.21-.1-.51-.17-.77-.17-.68,0-1.46.36-1.74,1.3-.08.27-.12.57-.12,1.27v3.15h-.78v-6.41Z"></path><path class="cls-24" d="M134.88,606.6l-2.55-6.21h.86l2.1,5.42,2.11-5.42h.85l-3.69,9.05h-.84l1.17-2.84Z"></path><path class="cls-24" d="M143.14,597.74h2.72c1.68,0,2.68.84,2.68,2.25,0,.94-.46,1.68-1.24,2,1.1.25,1.7,1.07,1.7,2.31,0,1.61-1.02,2.5-2.88,2.5h-2.97v-9.06ZM146.11,601.75c.98,0,1.63-.64,1.63-1.64s-.69-1.61-1.88-1.61h-1.91v3.26h2.16ZM146.06,606.06c1.42,0,2.14-.6,2.14-1.79,0-1.13-.66-1.79-1.79-1.79h-2.46v3.58h2.11Z"></path><path class="cls-24" d="M150.47,603.64c0-1.84.99-3.34,2.81-3.34,1.96,0,2.76,1.53,2.76,2.94,0,.1-.01.4-.04.55h-4.76c.03,1.51.84,2.39,2.14,2.39.82,0,1.35-.23,1.91-.83l.55.49c-.73.75-1.43,1.05-2.46,1.05-1.89,0-2.91-1.41-2.91-3.25ZM155.29,603.22c0-.08,0-.16,0-.24,0-.92-.58-2.01-2-2.01-1.23,0-1.98.98-2.07,2.26h4.06Z"></path><path class="cls-24" d="M157.45,603.59c0-1.96,1.29-3.29,2.92-3.29,1.05,0,1.87.54,2.29,1.36v-3.92h.77v9.06h-.77v-1.26c-.44.84-1.25,1.35-2.29,1.35-1.72,0-2.92-1.42-2.92-3.3ZM160.49,606.17c1.3,0,2.23-1.08,2.23-2.58s-.93-2.58-2.23-2.58-2.26,1.09-2.26,2.58.95,2.58,2.26,2.58Z"></path><path class="cls-24" d="M165.47,600.39h.78v1.09c.43-.78,1.31-1.18,2.02-1.18.33,0,.66.07.99.24l-.39.7c-.21-.1-.51-.17-.77-.17-.68,0-1.46.36-1.74,1.3-.08.27-.12.57-.12,1.27v3.15h-.78v-6.41Z"></path><path class="cls-24" d="M169.85,603.59c0-1.92,1.25-3.29,3.05-3.29s3.04,1.37,3.04,3.29-1.27,3.3-3.04,3.3-3.05-1.37-3.05-3.3ZM172.9,606.2c1.37,0,2.26-1.04,2.26-2.61s-.9-2.61-2.26-2.61-2.28,1.05-2.28,2.61.9,2.61,2.28,2.61Z"></path><path class="cls-24" d="M177.38,603.59c0-1.92,1.25-3.29,3.05-3.29s3.04,1.37,3.04,3.29-1.27,3.3-3.04,3.3-3.05-1.37-3.05-3.3ZM180.43,606.2c1.37,0,2.26-1.04,2.26-2.61s-.9-2.61-2.26-2.61-2.28,1.05-2.28,2.61.9,2.61,2.28,2.61Z"></path><path class="cls-24" d="M185.22,600.39h.78v1.1c.38-.84,1.11-1.19,1.88-1.19.91,0,1.57.4,1.89,1.25.4-.83,1.09-1.25,2-1.25,1.55,0,2.13,1.16,2.13,2.68v3.82h-.78v-3.64c0-1.33-.39-2.18-1.52-2.18-1.02,0-1.65.77-1.65,2.26v3.57h-.78v-3.76c0-1.4-.52-2.07-1.5-2.07-1.03,0-1.67.79-1.67,2.26v3.57h-.78v-6.41Z"></path></g><g><path class="cls-24" d="M343.1,126.74h2.72c1.68,0,2.68.84,2.68,2.25,0,.94-.46,1.68-1.24,2,1.1.25,1.7,1.07,1.7,2.31,0,1.61-1.02,2.5-2.88,2.5h-2.97v-9.06ZM346.07,130.75c.98,0,1.63-.64,1.63-1.64s-.69-1.61-1.88-1.61h-1.91v3.26h2.16ZM346.02,135.06c1.42,0,2.14-.6,2.14-1.79,0-1.13-.66-1.79-1.79-1.79h-2.46v3.58h2.11Z"></path><path class="cls-24" d="M350.4,132.64c0-1.84.99-3.34,2.81-3.34,1.96,0,2.76,1.53,2.76,2.94,0,.1-.01.4-.04.55h-4.76c.03,1.51.84,2.39,2.14,2.39.82,0,1.35-.23,1.91-.83l.55.49c-.73.75-1.43,1.05-2.46,1.05-1.89,0-2.91-1.41-2.91-3.25ZM355.22,132.22c0-.08,0-.16,0-.24,0-.92-.58-2.02-2-2.02-1.23,0-1.98.98-2.07,2.26h4.06Z"></path><path class="cls-24" d="M357.37,132.59c0-1.96,1.29-3.29,2.92-3.29,1.05,0,1.87.54,2.29,1.36v-3.92h.77v9.06h-.77v-1.26c-.44.85-1.25,1.35-2.29,1.35-1.72,0-2.92-1.42-2.92-3.3ZM360.41,135.17c1.3,0,2.23-1.08,2.23-2.58s-.93-2.58-2.23-2.58-2.26,1.09-2.26,2.58.95,2.58,2.26,2.58Z"></path><path class="cls-24" d="M365.39,129.39h.78v1.09c.43-.78,1.31-1.18,2.02-1.18.33,0,.66.07.99.24l-.39.7c-.21-.1-.51-.17-.77-.17-.68,0-1.46.36-1.74,1.3-.08.27-.12.57-.12,1.27v3.15h-.78v-6.41Z"></path><path class="cls-24" d="M369.77,132.59c0-1.92,1.25-3.29,3.05-3.29s3.04,1.36,3.04,3.29-1.27,3.3-3.04,3.3-3.05-1.36-3.05-3.3ZM372.82,135.2c1.37,0,2.26-1.04,2.26-2.61s-.9-2.61-2.26-2.61-2.28,1.05-2.28,2.61.9,2.61,2.28,2.61Z"></path><path class="cls-24" d="M377.3,132.59c0-1.92,1.25-3.29,3.05-3.29s3.04,1.36,3.04,3.29-1.27,3.3-3.04,3.3-3.05-1.36-3.05-3.3ZM380.35,135.2c1.37,0,2.26-1.04,2.26-2.61s-.9-2.61-2.26-2.61-2.28,1.05-2.28,2.61.9,2.61,2.28,2.61Z"></path><path class="cls-24" d="M385.14,129.39h.78v1.1c.38-.85,1.11-1.19,1.88-1.19.91,0,1.57.4,1.89,1.25.4-.83,1.09-1.25,2-1.25,1.55,0,2.13,1.16,2.13,2.68v3.82h-.78v-3.64c0-1.33-.39-2.18-1.52-2.18-1.02,0-1.65.77-1.65,2.26v3.57h-.78v-3.76c0-1.4-.52-2.07-1.5-2.07-1.03,0-1.67.79-1.67,2.26v3.57h-.78v-6.41Z"></path></g><g><path class="cls-24" d="M404.94,327.3h2.43c2.94,0,4.62,1.68,4.62,4.6s-1.64,4.46-4.63,4.46h-2.42v-9.06ZM407.29,335.61c2.5,0,3.89-1.16,3.89-3.74s-1.4-3.83-3.82-3.83h-1.61v7.57h1.54Z"></path><path class="cls-24" d="M413.6,327.3h.94v1.39h-.94v-1.39ZM413.68,329.95h.77v6.41h-.77v-6.41Z"></path><path class="cls-24" d="M416.49,329.95h.78v1.05c.4-.76,1.12-1.14,2.01-1.14,1.38,0,2.2.81,2.2,2.51v3.99h-.78v-3.71c0-1.45-.55-2.11-1.61-2.11-1.16,0-1.83.79-1.83,2.55v3.27h-.78v-6.41Z"></path><path class="cls-24" d="M423.37,327.3h.94v1.39h-.94v-1.39ZM423.45,329.95h.77v6.41h-.77v-6.41Z"></path><path class="cls-24" d="M426.26,329.95h.78v1.05c.4-.76,1.12-1.14,2.01-1.14,1.38,0,2.2.81,2.2,2.51v3.99h-.78v-3.71c0-1.45-.55-2.11-1.61-2.11-1.16,0-1.83.79-1.83,2.55v3.27h-.78v-6.41Z"></path><path class="cls-24" d="M432.71,337.12s0-.1.03-.26l1.11-.88c-.57-.22-.96-.59-.96-1.26,0-.53.27-.9.72-1.2-.36-.37-.56-.87-.56-1.45,0-1.3,1.04-2.2,2.39-2.2.64,0,1.22.21,1.64.59l1.02-.86.4.49-1,.88c.19.33.3.71.3,1.14,0,1.28-.96,2.13-2.33,2.13-.53,0-.99-.12-1.37-.34-.31.18-.45.42-.45.72,0,.66.63.83,1.62.98,1.6.25,2.99.44,2.99,1.75,0,1.16-1.05,1.78-2.7,1.78-1.82,0-2.85-.7-2.85-2ZM435.57,338.51c1.09,0,1.92-.34,1.92-1.08,0-.86-1.16-.96-2.31-1.14-.31-.05-.6-.1-.89-.17l-.8.92c-.01.09-.01.11-.01.15,0,.9.79,1.33,2.09,1.33ZM435.44,333.58c.98,0,1.59-.65,1.59-1.53s-.64-1.56-1.58-1.56-1.62.65-1.62,1.55.63,1.55,1.61,1.55Z"></path><path class="cls-24" d="M443.2,327.3h2.52c1.99,0,2.97.93,2.97,2.5,0,1.25-.64,2.07-1.85,2.38l2.44,4.19h-.92l-2.34-4.07c-.21,0-.44,0-.65,0h-1.36v4.06h-.81v-9.06ZM445.64,331.58c1.38,0,2.24-.55,2.24-1.78s-.88-1.77-2.24-1.77h-1.64v3.56h1.64Z"></path><path class="cls-24" d="M450.2,333.15c0-1.92,1.25-3.29,3.05-3.29s3.04,1.37,3.04,3.29-1.27,3.3-3.04,3.3-3.05-1.36-3.05-3.3ZM453.25,335.75c1.37,0,2.26-1.04,2.26-2.61s-.9-2.61-2.26-2.61-2.28,1.05-2.28,2.61.9,2.61,2.28,2.61Z"></path><path class="cls-24" d="M457.74,333.15c0-1.92,1.25-3.29,3.05-3.29s3.04,1.37,3.04,3.29-1.27,3.3-3.04,3.3-3.05-1.36-3.05-3.3ZM460.79,335.75c1.37,0,2.26-1.04,2.26-2.61s-.9-2.61-2.26-2.61-2.28,1.05-2.28,2.61.9,2.61,2.28,2.61Z"></path><path class="cls-24" d="M465.58,329.95h.78v1.1c.38-.85,1.11-1.19,1.88-1.19.91,0,1.57.4,1.89,1.25.4-.83,1.09-1.25,2-1.25,1.55,0,2.13,1.16,2.13,2.69v3.82h-.78v-3.64c0-1.33-.39-2.18-1.52-2.18-1.02,0-1.65.77-1.65,2.26v3.57h-.78v-3.76c0-1.4-.52-2.07-1.5-2.07-1.03,0-1.67.79-1.67,2.26v3.57h-.78v-6.41Z"></path></g><g><path class="cls-24" d="M66.08,223.27h5.86v.73h-5.06v3.37h4.39v.73h-4.39v4.24h-.81v-9.06Z"></path><path class="cls-24" d="M72.67,229.12c0-1.92,1.25-3.29,3.05-3.29s3.04,1.37,3.04,3.29-1.27,3.3-3.04,3.3-3.05-1.36-3.05-3.3ZM75.72,231.73c1.37,0,2.26-1.04,2.26-2.61s-.9-2.61-2.26-2.61-2.28,1.05-2.28,2.61.9,2.61,2.28,2.61Z"></path><path class="cls-24" d="M82.24,232.13l-2.55-6.21h.86l2.1,5.42,2.11-5.42h.85l-3.69,9.05h-.84l1.17-2.84Z"></path><path class="cls-24" d="M86.57,229.17c0-1.84.99-3.34,2.81-3.34,1.96,0,2.76,1.53,2.76,2.94,0,.1-.01.4-.04.55h-4.76c.03,1.51.84,2.39,2.14,2.39.82,0,1.35-.23,1.91-.83l.55.49c-.73.75-1.43,1.05-2.46,1.05-1.89,0-2.91-1.41-2.91-3.25ZM91.39,228.75c0-.08,0-.16,0-.24,0-.92-.58-2.02-2-2.02-1.23,0-1.98.98-2.07,2.26h4.06Z"></path><path class="cls-24" d="M93.86,225.92h.78v1.09c.43-.78,1.31-1.18,2.02-1.18.33,0,.66.07.99.24l-.39.7c-.21-.1-.51-.17-.77-.17-.68,0-1.46.36-1.74,1.3-.08.27-.12.57-.12,1.27v3.15h-.78v-6.41Z"></path></g><g><path class="cls-24" d="M164.97,304.77h5.86v.73h-5.06v3.37h4.39v.73h-4.39v4.24h-.81v-9.06Z"></path><path class="cls-24" d="M172.14,312.5v-7.73h.77v7.59c0,.6.23.85.64.85.17,0,.38-.04.61-.12v.67c-.29.11-.6.17-.84.17-.72,0-1.18-.44-1.18-1.42Z"></path><path class="cls-24" d="M175.11,310.67c0-1.84.99-3.34,2.81-3.34,1.96,0,2.76,1.53,2.76,2.94,0,.1-.01.4-.04.55h-4.76c.03,1.51.84,2.39,2.14,2.39.82,0,1.35-.23,1.91-.83l.55.49c-.73.75-1.43,1.05-2.46,1.05-1.89,0-2.91-1.41-2.91-3.25ZM179.93,310.24c0-.08,0-.16,0-.24,0-.92-.58-2.02-2-2.02-1.23,0-1.98.98-2.07,2.26h4.06Z"></path><path class="cls-24" d="M184.07,310.61l-2.37-3.19h.96l1.92,2.65,1.94-2.65h.94l-2.38,3.19,2.39,3.22h-.96l-1.93-2.67-1.94,2.67h-.94l2.37-3.22Z"></path></g><g><path class="cls-24" d="M482.1,529h2.72c1.68,0,2.68.84,2.68,2.25,0,.94-.46,1.68-1.24,2,1.1.25,1.7,1.07,1.7,2.31,0,1.61-1.02,2.5-2.88,2.5h-2.97v-9.06ZM485.07,533c.98,0,1.63-.64,1.63-1.64s-.69-1.61-1.88-1.61h-1.91v3.26h2.16ZM485.01,537.31c1.42,0,2.14-.6,2.14-1.79,0-1.13-.66-1.79-1.79-1.79h-2.46v3.58h2.11Z"></path><path class="cls-24" d="M493.93,536.85c-.43.82-1.25,1.29-2.25,1.29-1.44,0-2.31-.77-2.31-1.94,0-.69.29-1.16.72-1.44.46-.31,1.09-.42,1.77-.42h2.05v-.28c0-1.19-.62-1.83-1.82-1.83-.79,0-1.4.29-1.98,1.02l-.56-.48c.68-.84,1.53-1.21,2.59-1.21,1.63,0,2.54.89,2.54,2.51v3.99h-.71l-.04-1.2ZM491.75,537.5c1.18,0,2.17-.93,2.17-2.2v-.36h-1.95c-.51,0-1.03.08-1.37.32-.28.21-.44.51-.44.94,0,.79.6,1.3,1.6,1.3Z"></path><path class="cls-24" d="M496.51,536.72v-7.73h.77v7.59c0,.6.23.84.64.84.17,0,.38-.04.61-.12v.67c-.29.11-.6.17-.84.17-.72,0-1.18-.44-1.18-1.42Z"></path><path class="cls-24" d="M499.48,534.85c0-1.83,1.06-3.29,2.86-3.29,1.17,0,2.09.58,2.51,1.74l-.7.27c-.27-.82-.9-1.33-1.81-1.33-1.42,0-2.09,1.25-2.09,2.61s.68,2.62,2.09,2.62c.91,0,1.53-.51,1.81-1.33l.7.27c-.42,1.16-1.34,1.75-2.51,1.75-1.8,0-2.86-1.46-2.86-3.3Z"></path><path class="cls-24" d="M506.08,534.85c0-1.92,1.25-3.29,3.05-3.29s3.04,1.37,3.04,3.29-1.27,3.3-3.04,3.3-3.05-1.37-3.05-3.3ZM509.13,537.45c1.37,0,2.26-1.04,2.26-2.61s-.9-2.61-2.26-2.61-2.28,1.05-2.28,2.61.9,2.61,2.28,2.61Z"></path><path class="cls-24" d="M513.92,531.65h.78v1.05c.4-.76,1.12-1.14,2.01-1.14,1.38,0,2.2.81,2.2,2.51v3.99h-.78v-3.71c0-1.45-.55-2.11-1.61-2.11-1.16,0-1.83.79-1.83,2.55v3.27h-.78v-6.41Z"></path><path class="cls-24" d="M522.64,537.86l-2.55-6.21h.86l2.1,5.42,2.11-5.42h.85l-3.69,9.05h-.84l1.17-2.84Z"></path></g><g><path class="cls-24" d="M291.75,421.63h.81v4.86l4.65-4.86h1.09l-3.45,3.54,3.48,5.52h-.95l-3.11-4.93-1.71,1.75v3.17h-.81v-9.06Z"></path><path class="cls-24" d="M299.48,421.63h.94v1.39h-.94v-1.39ZM299.56,424.28h.77v6.41h-.77v-6.41Z"></path><path class="cls-24" d="M303.13,429.21v-4.31h-1.42v-.62h1.42v-1.85l.79-.46v2.31h1.54v.62h-1.54v4.12c0,.71.22,1.11.81,1.11.19,0,.46-.04.73-.12v.62c-.32.1-.64.16-.92.16-.85,0-1.4-.49-1.4-1.57Z"></path><path class="cls-24" d="M306.48,427.48c0-1.83,1.06-3.29,2.86-3.29,1.17,0,2.09.58,2.51,1.74l-.7.27c-.27-.82-.9-1.33-1.81-1.33-1.42,0-2.09,1.25-2.09,2.61s.68,2.62,2.09,2.62c.91,0,1.53-.51,1.81-1.33l.7.27c-.42,1.16-1.34,1.75-2.51,1.75-1.8,0-2.86-1.46-2.86-3.3Z"></path><path class="cls-24" d="M313.48,421.63h.78v3.69c.4-.75,1.1-1.13,2.01-1.13,1.4,0,2.2.85,2.2,2.51v3.99h-.78v-3.71c0-1.43-.53-2.11-1.61-2.11-1.18,0-1.83.83-1.83,2.55v3.27h-.78v-9.06Z"></path><path class="cls-24" d="M320.11,427.53c0-1.84.99-3.34,2.81-3.34,1.96,0,2.76,1.53,2.76,2.94,0,.1-.01.4-.04.55h-4.76c.03,1.51.84,2.39,2.14,2.39.82,0,1.35-.23,1.91-.83l.55.49c-.73.75-1.43,1.05-2.46,1.05-1.89,0-2.91-1.41-2.91-3.25ZM324.93,427.1c0-.08,0-.16,0-.24,0-.92-.58-2.01-2-2.01-1.23,0-1.98.98-2.07,2.26h4.06Z"></path><path class="cls-24" d="M327.42,424.28h.78v1.05c.4-.76,1.12-1.14,2.01-1.14,1.38,0,2.2.81,2.2,2.51v3.99h-.78v-3.71c0-1.45-.55-2.11-1.61-2.11-1.16,0-1.83.79-1.83,2.55v3.27h-.78v-6.41Z"></path></g><path class="cls-24" d="M237.44,289.27c0-2.17,1.27-3.59,3.16-3.59s3.18,1.42,3.18,3.59-1.27,3.58-3.18,3.58-3.16-1.42-3.16-3.58ZM240.6,292.26c1.57,0,2.55-1.16,2.55-2.99s-.99-3-2.55-3-2.54,1.15-2.54,3,.99,2.99,2.54,2.99Z"></path><path class="cls-24" d="M247.47,284.78h.48l-3.55,9.08h-.48l3.55-9.08Z"></path><path class="cls-24" d="M249.18,285.78h.93l2.35,5.66,2.35-5.66h.92v6.98h-.62v-6.16l-2.35,5.59h-.61l-2.36-5.59v6.16h-.62v-6.98Z"></path><g><path class="cls-24" d="M244.93,105.46h.65l1.71,6.06,1.76-5.7h.63l1.76,5.7,1.7-6.06h.65l-2.01,6.98h-.63l-1.79-5.71-1.79,5.71h-.64l-2.01-6.98Z"></path><path class="cls-24" d="M254.94,105.46h.62v6.98h-.62v-6.98Z"></path><path class="cls-24" d="M256.99,108.94c0-2.16,1.26-3.58,3.16-3.58,1.35,0,2.39.71,2.84,1.89l-.58.22c-.38-.96-1.17-1.52-2.26-1.52-1.55,0-2.54,1.17-2.54,2.99s.99,3,2.54,3c1.09,0,1.89-.56,2.26-1.52l.58.22c-.45,1.18-1.49,1.9-2.84,1.9-1.89,0-3.16-1.42-3.16-3.59Z"></path></g><g><path class="cls-24" d="M238.9,409.56h1.94c1.53,0,2.29.72,2.29,1.92,0,.97-.5,1.6-1.43,1.83l1.88,3.22h-.71l-1.8-3.13c-.16,0-.34,0-.5,0h-1.05v3.13h-.62v-6.98ZM240.78,412.85c1.06,0,1.73-.43,1.73-1.37s-.68-1.37-1.73-1.37h-1.26v2.74h1.26Z"></path><path class="cls-24" d="M244.75,409.56h4.56v.56h-3.94v2.59h3.53v.56h-3.53v2.7h3.94v.56h-4.56v-6.98Z"></path><path class="cls-24" d="M250.61,409.56h4.51v.56h-3.89v2.59h3.38v.56h-3.38v3.26h-.62v-6.98Z"></path></g><g><path class="cls-24" d="M103,471.4h.65l1.71,6.06,1.76-5.7h.63l1.76,5.7,1.7-6.06h.65l-2.01,6.98h-.63l-1.79-5.71-1.79,5.71h-.64l-2.01-6.98Z"></path><path class="cls-24" d="M113.01,471.4h.62v6.98h-.62v-6.98Z"></path><path class="cls-24" d="M115.06,474.89c0-2.16,1.26-3.58,3.16-3.58,1.35,0,2.39.71,2.84,1.89l-.58.22c-.38-.96-1.17-1.52-2.26-1.52-1.55,0-2.54,1.17-2.54,2.99s.99,3,2.54,3c1.09,0,1.89-.56,2.26-1.52l.58.21c-.45,1.18-1.49,1.9-2.84,1.9-1.89,0-3.16-1.42-3.16-3.59Z"></path></g><g><path class="cls-24" d="M318.93,298.32h1.87c2.26,0,3.56,1.29,3.56,3.54s-1.27,3.43-3.57,3.43h-1.86v-6.98ZM320.73,304.72c1.92,0,2.99-.89,2.99-2.88s-1.08-2.95-2.94-2.95h-1.24v5.83h1.19Z"></path><path class="cls-24" d="M325.02,298.32h.65l1.71,6.06,1.76-5.7h.63l1.76,5.7,1.7-6.06h.65l-2.01,6.98h-.63l-1.79-5.71-1.79,5.71h-.64l-2.01-6.98Z"></path></g><g><path class="cls-24" d="M318.86,381.12h.65l1.71,6.06,1.76-5.7h.63l1.76,5.7,1.7-6.06h.65l-2.01,6.98h-.63l-1.79-5.71-1.79,5.71h-.64l-2.01-6.98Z"></path><path class="cls-24" d="M328.86,381.12h4.51v.56h-3.89v2.59h3.38v.56h-3.38v3.26h-.62v-6.98Z"></path></g><path class="cls-24" d="M82.03,320.86h.65l1.71,6.06,1.76-5.7h.63l1.76,5.7,1.7-6.06h.65l-2.01,6.98h-.63l-1.79-5.71-1.79,5.71h-.64l-2.01-6.98Z"></path><path class="cls-24" d="M94.31,319.98h.48l-3.55,9.08h-.47l3.55-9.08Z"></path><path class="cls-24" d="M96.01,320.86h1.87c2.26,0,3.56,1.29,3.56,3.54s-1.27,3.43-3.57,3.43h-1.86v-6.98ZM97.82,327.26c1.92,0,2.99-.89,2.99-2.88s-1.08-2.95-2.94-2.95h-1.24v5.83h1.19Z"></path><g><path class="cls-29" d="M573.6,697.85h3.61v.45h-3.11v2.07h2.7v.45h-2.7v2.61h-.5v-5.57Z"></path><path class="cls-29" d="M577.94,697.85h.58v.86h-.58v-.86ZM577.99,699.48h.47v3.94h-.47v-3.94Z"></path><path class="cls-29" d="M579.8,699.48h.48v.64c.25-.47.69-.7,1.24-.7.85,0,1.36.5,1.36,1.54v2.46h-.48v-2.28c0-.89-.34-1.3-.99-1.3-.71,0-1.13.48-1.13,1.57v2.01h-.48v-3.94Z"></path><path class="cls-29" d="M586.36,697.85h3.64v.45h-3.15v2.07h2.82v.45h-2.82v2.16h3.15v.45h-3.64v-5.57Z"></path><path class="cls-29" d="M592.17,701.44l-1.46-1.96h.59l1.18,1.63,1.2-1.63h.58l-1.46,1.96,1.47,1.98h-.59l-1.19-1.64-1.19,1.64h-.58l1.46-1.98Z"></path><path class="cls-29" d="M595.69,702.51v-2.65h-.88v-.38h.88v-1.14l.48-.28v1.42h.95v.38h-.95v2.54c0,.44.14.68.5.68.12,0,.28-.02.45-.08v.38c-.2.06-.4.1-.57.1-.52,0-.86-.3-.86-.97Z"></path><path class="cls-29" d="M597.84,701.48c0-1.13.61-2.05,1.73-2.05,1.21,0,1.7.94,1.7,1.81,0,.06,0,.24-.02.34h-2.93c.02.93.52,1.47,1.32,1.47.5,0,.83-.14,1.17-.51l.34.3c-.45.46-.88.65-1.51.65-1.16,0-1.79-.87-1.79-2ZM600.8,701.21s0-.1,0-.15c0-.57-.36-1.24-1.23-1.24-.75,0-1.22.6-1.27,1.39h2.49Z"></path><path class="cls-29" d="M602.41,699.48h.48v.64c.25-.47.69-.7,1.24-.7.85,0,1.36.5,1.36,1.54v2.46h-.48v-2.28c0-.89-.34-1.3-.99-1.3-.71,0-1.13.48-1.13,1.57v2.01h-.48v-3.94Z"></path><path class="cls-29" d="M606.36,702.57l.34-.28c.2.46.66.77,1.26.77.57,0,.95-.27.95-.72,0-.55-.53-.68-1.1-.82-.66-.16-1.23-.38-1.23-1.06,0-.62.53-1.05,1.29-1.05.6,0,1.1.26,1.37.76l-.37.21c-.21-.38-.57-.58-1.01-.58-.48,0-.84.24-.84.62,0,.4.36.54.93.68.67.16,1.43.34,1.43,1.2,0,.71-.56,1.17-1.42,1.17-.79,0-1.35-.4-1.6-.9Z"></path><path class="cls-29" d="M610.47,697.85h.58v.86h-.58v-.86ZM610.52,699.48h.47v3.94h-.47v-3.94Z"></path><path class="cls-29" d="M612.14,701.44c0-1.18.77-2.02,1.88-2.02s1.87.84,1.87,2.02-.78,2.03-1.87,2.03-1.88-.84-1.88-2.03ZM614.01,703.05c.84,0,1.39-.64,1.39-1.6s-.55-1.6-1.39-1.6-1.4.64-1.4,1.6.56,1.6,1.4,1.6Z"></path><path class="cls-29" d="M617.03,699.48h.48v.64c.25-.47.69-.7,1.24-.7.85,0,1.36.5,1.36,1.54v2.46h-.48v-2.28c0-.89-.34-1.3-.99-1.3-.71,0-1.13.48-1.13,1.57v2.01h-.48v-3.94Z"></path><path class="cls-29" d="M621.44,699.65h.58v.86h-.58v-.86ZM621.44,702.57h.58v.85h-.58v-.85Z"></path></g><g><path class="cls-29" d="M575.33,708.74h-1.47v-.39h1.03c.29,0,.44-.1.44-.41v-.49h.48v5.57h-.48v-4.28Z"></path><path class="cls-29" d="M580.83,709.06c0-.73-.43-1.2-1.19-1.2-.83,0-1.26.58-1.27,1.45l-.47-.03c0-1.07.62-1.88,1.76-1.88.99,0,1.64.65,1.64,1.65,0,1.49-1.5,2.65-2.81,3.53h3.04v.45h-3.64v-.44c1.02-.82,2.94-2.02,2.94-3.53Z"></path><path class="cls-29" d="M582.53,710.22c0-1.33.3-2.84,1.72-2.84s1.75,1.39,1.75,2.85-.4,2.84-1.72,2.84c-1.44,0-1.75-1.51-1.75-2.85ZM584.28,712.61c.88,0,1.23-1,1.23-2.36s-.36-2.41-1.26-2.41c-.96,0-1.23,1.1-1.23,2.39s.28,2.37,1.26,2.37Z"></path><path class="cls-29" d="M590.24,707.89h-3.43v-.45h3.98v.4l-2.75,5.18h-.53l2.74-5.12Z"></path></g><g><path class="cls-29" d="M575.33,718.34h-1.47v-.39h1.03c.29,0,.44-.1.44-.41v-.49h.48v5.57h-.48v-4.28Z"></path><path class="cls-29" d="M579.89,718.34h-1.47v-.39h1.03c.29,0,.44-.1.44-.41v-.49h.48v5.57h-.48v-4.28Z"></path><path class="cls-29" d="M582.53,719.82c0-1.33.3-2.84,1.72-2.84s1.75,1.39,1.75,2.85-.4,2.84-1.72,2.84c-1.44,0-1.75-1.51-1.75-2.85ZM584.28,722.21c.88,0,1.23-1,1.23-2.36s-.36-2.41-1.26-2.41c-.96,0-1.23,1.1-1.23,2.39s.28,2.37,1.26,2.37Z"></path><path class="cls-29" d="M590.24,717.49h-3.43v-.45h3.98v.4l-2.75,5.18h-.53l2.74-5.12Z"></path></g><g><path class="cls-29" d="M575.33,727.94h-1.47v-.39h1.03c.29,0,.44-.1.44-.41v-.49h.48v5.57h-.48v-4.28Z"></path><path class="cls-29" d="M577.97,729.42c0-1.33.3-2.84,1.72-2.84s1.75,1.39,1.75,2.85-.4,2.84-1.72,2.84c-1.44,0-1.75-1.51-1.75-2.85ZM579.72,731.81c.88,0,1.23-1,1.23-2.36s-.36-2.41-1.26-2.41c-.96,0-1.23,1.1-1.23,2.39s.28,2.37,1.26,2.37Z"></path><path class="cls-29" d="M582.53,729.42c0-1.33.3-2.84,1.72-2.84s1.75,1.39,1.75,2.85-.4,2.84-1.72,2.84c-1.44,0-1.75-1.51-1.75-2.85ZM584.28,731.81c.88,0,1.23-1,1.23-2.36s-.36-2.41-1.26-2.41c-.96,0-1.23,1.1-1.23,2.39s.28,2.37,1.26,2.37Z"></path><path class="cls-29" d="M590.24,727.09h-3.43v-.45h3.98v.4l-2.75,5.18h-.53l2.74-5.12Z"></path></g><g><path class="cls-29" d="M575.85,739.61c-.23.14-.5.22-.76.22-1.01,0-1.81-.81-1.81-1.81s.84-1.83,1.87-1.83,1.88.8,1.88,1.82c0,.37-.12.7-.29,1l-1.67,2.81h-.54l1.34-2.21ZM575.14,739.4c.76,0,1.39-.59,1.39-1.38s-.62-1.38-1.39-1.38-1.39.6-1.39,1.38.62,1.38,1.39,1.38Z"></path><path class="cls-29" d="M577.97,739.02c0-1.33.3-2.84,1.72-2.84s1.75,1.39,1.75,2.85-.4,2.84-1.72,2.84c-1.44,0-1.75-1.51-1.75-2.85ZM579.72,741.41c.88,0,1.23-1,1.23-2.36s-.36-2.41-1.26-2.41c-.96,0-1.23,1.1-1.23,2.39s.28,2.37,1.26,2.37Z"></path><path class="cls-29" d="M585.69,736.69h-3.43v-.45h3.98v.4l-2.75,5.18h-.53l2.74-5.12Z"></path></g><g><path class="cls-29" d="M573.3,749.84c0-.7.41-1.25,1.08-1.45-.46-.18-.76-.62-.76-1.19,0-.9.78-1.41,1.54-1.41.86,0,1.53.57,1.53,1.45,0,.55-.3.97-.77,1.15.67.21,1.07.76,1.07,1.45,0,1.09-.9,1.63-1.84,1.63s-1.85-.55-1.85-1.63ZM575.15,751.02c.72,0,1.36-.41,1.36-1.22,0-.73-.56-1.21-1.36-1.21s-1.38.48-1.38,1.21c0,.82.66,1.22,1.38,1.22ZM575.17,748.25c.61,0,1.05-.4,1.05-.98,0-.61-.42-1.03-1.06-1.03-.56,0-1.06.36-1.06.98s.44,1.02,1.07,1.02Z"></path><path class="cls-29" d="M577.97,748.62c0-1.33.3-2.84,1.72-2.84s1.75,1.39,1.75,2.85-.4,2.84-1.72,2.84c-1.44,0-1.75-1.51-1.75-2.85ZM579.72,751.01c.88,0,1.23-1,1.23-2.36s-.36-2.41-1.26-2.41c-.96,0-1.23,1.1-1.23,2.39s.28,2.37,1.26,2.37Z"></path><path class="cls-29" d="M585.69,746.29h-3.43v-.45h3.98v.4l-2.75,5.18h-.53l2.74-5.12Z"></path></g><g><path class="cls-29" d="M576.57,755.89h-3.43v-.45h3.98v.4l-2.75,5.18h-.53l2.74-5.12Z"></path><path class="cls-29" d="M577.97,758.22c0-1.33.3-2.84,1.72-2.84s1.75,1.39,1.75,2.85-.4,2.84-1.72,2.84c-1.44,0-1.75-1.51-1.75-2.85ZM579.72,760.61c.88,0,1.23-1,1.23-2.36s-.36-2.41-1.26-2.41c-.96,0-1.23,1.1-1.23,2.39s.28,2.37,1.26,2.37Z"></path><path class="cls-29" d="M585.69,755.89h-3.43v-.45h3.98v.4l-2.75,5.18h-.53l2.74-5.12Z"></path></g><g><path class="cls-29" d="M574.34,767.25c.23-.14.5-.22.76-.22,1.01,0,1.81.81,1.81,1.81s-.84,1.83-1.87,1.83-1.88-.79-1.88-1.82c0-.37.12-.7.29-1l1.67-2.81h.54l-1.34,2.21ZM575.05,770.22c.76,0,1.39-.6,1.39-1.38s-.62-1.38-1.39-1.38-1.39.59-1.39,1.38.62,1.38,1.39,1.38Z"></path><path class="cls-29" d="M577.97,767.82c0-1.33.3-2.84,1.72-2.84s1.75,1.39,1.75,2.85-.4,2.84-1.72,2.84c-1.44,0-1.75-1.51-1.75-2.85ZM579.72,770.21c.88,0,1.23-1,1.23-2.36s-.36-2.41-1.26-2.41c-.96,0-1.23,1.1-1.23,2.39s.28,2.37,1.26,2.37Z"></path><path class="cls-29" d="M585.69,765.49h-3.43v-.45h3.98v.4l-2.75,5.18h-.53l2.74-5.12Z"></path></g><g><path class="cls-29" d="M573.26,778.69l.47-.08c.14.7.66,1.21,1.4,1.21.85,0,1.41-.68,1.41-1.48s-.52-1.38-1.34-1.38c-.51,0-.95.24-1.26.69l-.5-.15.5-2.86h2.84v.45h-2.45l-.34,1.96c.38-.39.82-.55,1.27-.55,1.04,0,1.78.82,1.78,1.83s-.81,1.94-1.91,1.94c-.94,0-1.7-.64-1.88-1.58Z"></path><path class="cls-29" d="M577.97,777.42c0-1.33.3-2.84,1.72-2.84s1.75,1.39,1.75,2.85-.4,2.84-1.72,2.84c-1.44,0-1.75-1.51-1.75-2.85ZM579.72,779.81c.88,0,1.23-1,1.23-2.36s-.36-2.41-1.26-2.41c-.96,0-1.23,1.1-1.23,2.39s.28,2.37,1.26,2.37Z"></path><path class="cls-29" d="M585.69,775.09h-3.43v-.45h3.98v.4l-2.75,5.18h-.53l2.74-5.12Z"></path></g><g><path class="cls-29" d="M575.85,788.48h-2.77v-.4l2.79-3.84h.46v3.79h.91v.45h-.91v1.33h-.48v-1.33ZM575.85,788.04v-3.15l-2.25,3.15h2.25Z"></path><path class="cls-29" d="M577.97,787.02c0-1.33.3-2.84,1.72-2.84s1.75,1.39,1.75,2.85-.4,2.84-1.72,2.84c-1.44,0-1.75-1.51-1.75-2.85ZM579.72,789.41c.88,0,1.23-1,1.23-2.36s-.36-2.41-1.26-2.41c-.96,0-1.23,1.1-1.23,2.39s.28,2.37,1.26,2.37Z"></path><path class="cls-29" d="M585.69,784.69h-3.43v-.45h3.98v.4l-2.75,5.18h-.53l2.74-5.12Z"></path></g><g><path class="cls-29" d="M641.55,188.7h3.61v.45h-3.11v2.07h2.7v.45h-2.7v2.61h-.5v-5.57Z"></path><path class="cls-29" d="M645.9,188.7h.58v.86h-.58v-.86ZM645.95,190.33h.47v3.94h-.47v-3.94Z"></path><path class="cls-29" d="M647.76,190.33h.48v.64c.25-.47.69-.7,1.24-.7.85,0,1.36.5,1.36,1.54v2.45h-.48v-2.28c0-.89-.34-1.3-.99-1.3-.71,0-1.13.48-1.13,1.57v2.01h-.48v-3.94Z"></path><path class="cls-29" d="M654.32,188.7h3.64v.45h-3.15v2.07h2.82v.45h-2.82v2.16h3.15v.45h-3.64v-5.57Z"></path><path class="cls-29" d="M660.12,192.29l-1.46-1.96h.59l1.18,1.63,1.2-1.63h.58l-1.46,1.96,1.47,1.98h-.59l-1.19-1.64-1.19,1.64h-.58l1.46-1.98Z"></path><path class="cls-29" d="M663.65,193.36v-2.65h-.88v-.38h.88v-1.14l.48-.28v1.42h.95v.38h-.95v2.53c0,.44.14.68.5.68.12,0,.28-.02.45-.08v.38c-.2.06-.4.1-.57.1-.52,0-.86-.3-.86-.97Z"></path><path class="cls-29" d="M665.8,192.33c0-1.13.61-2.06,1.73-2.06,1.21,0,1.7.94,1.7,1.81,0,.06,0,.24-.02.34h-2.93c.02.93.52,1.47,1.32,1.47.5,0,.83-.14,1.17-.51l.34.3c-.45.46-.88.65-1.51.65-1.16,0-1.79-.87-1.79-2ZM668.76,192.07s0-.1,0-.15c0-.57-.36-1.24-1.23-1.24-.75,0-1.22.6-1.27,1.39h2.49Z"></path><path class="cls-29" d="M670.36,190.33h.48v.64c.25-.47.69-.7,1.24-.7.85,0,1.36.5,1.36,1.54v2.45h-.48v-2.28c0-.89-.34-1.3-.99-1.3-.71,0-1.13.48-1.13,1.57v2.01h-.48v-3.94Z"></path><path class="cls-29" d="M674.32,193.43l.34-.28c.2.46.66.77,1.26.77.57,0,.95-.27.95-.72,0-.55-.53-.68-1.1-.82-.66-.16-1.23-.38-1.23-1.06,0-.62.53-1.05,1.29-1.05.6,0,1.1.26,1.37.76l-.37.21c-.21-.38-.57-.58-1.01-.58-.48,0-.84.24-.84.62,0,.4.36.54.93.68.67.16,1.43.34,1.43,1.2,0,.71-.56,1.17-1.42,1.17-.79,0-1.35-.4-1.6-.9Z"></path><path class="cls-29" d="M678.42,188.7h.58v.86h-.58v-.86ZM678.48,190.33h.47v3.94h-.47v-3.94Z"></path><path class="cls-29" d="M680.1,192.3c0-1.18.77-2.02,1.88-2.02s1.87.84,1.87,2.02-.78,2.03-1.87,2.03-1.88-.84-1.88-2.03ZM681.97,193.9c.84,0,1.39-.64,1.39-1.6s-.55-1.6-1.39-1.6-1.4.64-1.4,1.6.56,1.6,1.4,1.6Z"></path><path class="cls-29" d="M684.99,190.33h.48v.64c.25-.47.69-.7,1.24-.7.85,0,1.36.5,1.36,1.54v2.45h-.48v-2.28c0-.89-.34-1.3-.99-1.3-.71,0-1.13.48-1.13,1.57v2.01h-.48v-3.94Z"></path><path class="cls-29" d="M689.39,190.51h.58v.86h-.58v-.86ZM689.39,193.42h.58v.85h-.58v-.85Z"></path></g><g><path class="cls-29" d="M643.29,199.59h-1.47v-.39h1.03c.29,0,.44-.1.44-.41v-.49h.48v5.57h-.48v-4.28Z"></path><path class="cls-29" d="M648.79,199.91c0-.73-.43-1.2-1.19-1.2-.83,0-1.26.58-1.27,1.45l-.47-.03c0-1.07.62-1.88,1.76-1.88.99,0,1.64.65,1.64,1.65,0,1.49-1.5,2.65-2.81,3.53h3.04v.45h-3.64v-.44c1.02-.82,2.94-2.02,2.94-3.53Z"></path><path class="cls-29" d="M650.49,201.07c0-1.33.3-2.84,1.72-2.84s1.75,1.39,1.75,2.85-.4,2.84-1.72,2.84c-1.44,0-1.75-1.51-1.75-2.85ZM652.24,203.47c.88,0,1.23-1,1.23-2.36s-.36-2.41-1.26-2.41c-.96,0-1.23,1.1-1.23,2.39s.28,2.38,1.26,2.38Z"></path><path class="cls-29" d="M658.19,198.75h-3.43v-.45h3.98v.4l-2.75,5.18h-.53l2.74-5.12Z"></path></g><g><path class="cls-29" d="M643.29,209.19h-1.47v-.39h1.03c.29,0,.44-.1.44-.41v-.49h.48v5.57h-.48v-4.28Z"></path><path class="cls-29" d="M647.84,209.19h-1.47v-.39h1.03c.29,0,.44-.1.44-.41v-.49h.48v5.57h-.48v-4.28Z"></path><path class="cls-29" d="M650.49,210.67c0-1.33.3-2.84,1.72-2.84s1.75,1.39,1.75,2.85-.4,2.84-1.72,2.84c-1.44,0-1.75-1.51-1.75-2.85ZM652.24,213.07c.88,0,1.23-1,1.23-2.36s-.36-2.41-1.26-2.41c-.96,0-1.23,1.1-1.23,2.4s.28,2.37,1.26,2.37Z"></path><path class="cls-29" d="M658.19,208.35h-3.43v-.45h3.98v.4l-2.75,5.18h-.53l2.74-5.12Z"></path></g><g><path class="cls-29" d="M643.29,218.79h-1.47v-.39h1.03c.29,0,.44-.1.44-.41v-.49h.48v5.57h-.48v-4.28Z"></path><path class="cls-29" d="M645.92,220.27c0-1.33.3-2.84,1.72-2.84s1.75,1.39,1.75,2.85-.4,2.84-1.72,2.84c-1.44,0-1.75-1.51-1.75-2.85ZM647.68,222.67c.88,0,1.23-1,1.23-2.36s-.36-2.41-1.26-2.41c-.96,0-1.23,1.1-1.23,2.4s.28,2.37,1.26,2.37Z"></path><path class="cls-29" d="M650.49,220.27c0-1.33.3-2.84,1.72-2.84s1.75,1.39,1.75,2.85-.4,2.84-1.72,2.84c-1.44,0-1.75-1.51-1.75-2.85ZM652.24,222.67c.88,0,1.23-1,1.23-2.36s-.36-2.41-1.26-2.41c-.96,0-1.23,1.1-1.23,2.4s.28,2.37,1.26,2.37Z"></path><path class="cls-29" d="M658.19,217.95h-3.43v-.45h3.98v.4l-2.75,5.18h-.53l2.74-5.12Z"></path></g><g><path class="cls-29" d="M643.8,230.47c-.23.14-.5.22-.76.22-1.01,0-1.81-.81-1.81-1.81s.84-1.83,1.87-1.83,1.88.8,1.88,1.82c0,.37-.12.7-.29,1l-1.67,2.81h-.54l1.34-2.21ZM643.1,230.25c.76,0,1.39-.59,1.39-1.38s-.62-1.38-1.39-1.38-1.39.6-1.39,1.38.62,1.38,1.39,1.38Z"></path><path class="cls-29" d="M645.92,229.87c0-1.33.3-2.84,1.72-2.84s1.75,1.39,1.75,2.85-.4,2.84-1.72,2.84c-1.44,0-1.75-1.51-1.75-2.85ZM647.68,232.27c.88,0,1.23-1,1.23-2.36s-.36-2.41-1.26-2.41c-.96,0-1.23,1.1-1.23,2.39s.28,2.38,1.26,2.38Z"></path><path class="cls-29" d="M653.64,227.55h-3.43v-.45h3.98v.4l-2.75,5.18h-.53l2.74-5.12Z"></path></g><g><path class="cls-29" d="M641.26,240.69c0-.7.41-1.25,1.08-1.45-.46-.18-.76-.62-.76-1.19,0-.9.78-1.41,1.54-1.41.86,0,1.53.57,1.53,1.45,0,.55-.3.97-.77,1.15.67.21,1.07.76,1.07,1.45,0,1.09-.9,1.64-1.84,1.64s-1.85-.55-1.85-1.64ZM643.11,241.88c.72,0,1.36-.41,1.36-1.22,0-.73-.56-1.22-1.36-1.22s-1.38.48-1.38,1.22c0,.82.66,1.22,1.38,1.22ZM643.13,239.1c.61,0,1.05-.4,1.05-.98,0-.61-.42-1.03-1.06-1.03-.56,0-1.06.36-1.06.98s.44,1.02,1.07,1.02Z"></path><path class="cls-29" d="M645.92,239.47c0-1.33.3-2.84,1.72-2.84s1.75,1.39,1.75,2.85-.4,2.84-1.72,2.84c-1.44,0-1.75-1.51-1.75-2.85ZM647.68,241.87c.88,0,1.23-1,1.23-2.36s-.36-2.41-1.26-2.41c-.96,0-1.23,1.1-1.23,2.4s.28,2.37,1.26,2.37Z"></path><path class="cls-29" d="M653.64,237.15h-3.43v-.45h3.98v.4l-2.75,5.18h-.53l2.74-5.12Z"></path></g><g><path class="cls-29" d="M644.53,246.75h-3.43v-.45h3.98v.4l-2.75,5.18h-.53l2.74-5.12Z"></path><path class="cls-29" d="M645.92,249.07c0-1.33.3-2.84,1.72-2.84s1.75,1.39,1.75,2.85-.4,2.84-1.72,2.84c-1.44,0-1.75-1.51-1.75-2.85ZM647.68,251.47c.88,0,1.23-1,1.23-2.36s-.36-2.41-1.26-2.41c-.96,0-1.23,1.1-1.23,2.39s.28,2.38,1.26,2.38Z"></path><path class="cls-29" d="M653.64,246.75h-3.43v-.45h3.98v.4l-2.75,5.18h-.53l2.74-5.12Z"></path></g><g><path class="cls-29" d="M642.3,258.11c.23-.14.5-.22.76-.22,1.01,0,1.81.81,1.81,1.81s-.84,1.83-1.87,1.83-1.88-.8-1.88-1.82c0-.37.12-.7.29-1l1.67-2.81h.54l-1.34,2.21ZM643,261.08c.76,0,1.39-.6,1.39-1.38s-.62-1.38-1.39-1.38-1.39.59-1.39,1.38.62,1.38,1.39,1.38Z"></path><path class="cls-29" d="M645.92,258.67c0-1.33.3-2.84,1.72-2.84s1.75,1.39,1.75,2.85-.4,2.84-1.72,2.84c-1.44,0-1.75-1.51-1.75-2.85ZM647.68,261.07c.88,0,1.23-1,1.23-2.36s-.36-2.41-1.26-2.41c-.96,0-1.23,1.1-1.23,2.4s.28,2.37,1.26,2.37Z"></path><path class="cls-29" d="M653.64,256.35h-3.43v-.45h3.98v.4l-2.75,5.18h-.53l2.74-5.12Z"></path></g><g><path class="cls-29" d="M641.22,269.55l.47-.08c.14.7.66,1.21,1.4,1.21.85,0,1.41-.68,1.41-1.48s-.52-1.38-1.34-1.38c-.51,0-.95.24-1.26.69l-.5-.15.5-2.86h2.84v.45h-2.45l-.34,1.96c.38-.39.82-.55,1.27-.55,1.04,0,1.78.82,1.78,1.83s-.81,1.94-1.91,1.94c-.94,0-1.7-.64-1.88-1.58Z"></path><path class="cls-29" d="M645.92,268.27c0-1.33.3-2.84,1.72-2.84s1.75,1.39,1.75,2.85-.4,2.84-1.72,2.84c-1.44,0-1.75-1.51-1.75-2.85ZM647.68,270.67c.88,0,1.23-1,1.23-2.36s-.36-2.41-1.26-2.41c-.96,0-1.23,1.1-1.23,2.4s.28,2.37,1.26,2.37Z"></path><path class="cls-29" d="M653.64,265.95h-3.43v-.45h3.98v.4l-2.75,5.18h-.53l2.74-5.12Z"></path></g><g><path class="cls-29" d="M643.81,279.34h-2.77v-.4l2.79-3.84h.46v3.79h.91v.45h-.91v1.34h-.48v-1.34ZM643.81,278.89v-3.15l-2.25,3.15h2.25Z"></path><path class="cls-29" d="M645.92,277.87c0-1.33.3-2.84,1.72-2.84s1.75,1.39,1.75,2.85-.4,2.84-1.72,2.84c-1.44,0-1.75-1.51-1.75-2.85ZM647.68,280.27c.88,0,1.23-1,1.23-2.36s-.36-2.41-1.26-2.41c-.96,0-1.23,1.1-1.23,2.39s.28,2.38,1.26,2.38Z"></path><path class="cls-29" d="M653.64,275.55h-3.43v-.45h3.98v.4l-2.75,5.18h-.53l2.74-5.12Z"></path></g><g><path class="cls-29" d="M641.55,0h3.61v.45h-3.11v2.07h2.7v.45h-2.7v2.61h-.5V0Z"></path><path class="cls-29" d="M645.9,0h.58v.86h-.58v-.86ZM645.95,1.63h.47v3.94h-.47V1.63Z"></path><path class="cls-29" d="M647.76,1.63h.48v.64c.25-.47.69-.7,1.24-.7.85,0,1.36.5,1.36,1.54v2.45h-.48v-2.28c0-.89-.34-1.3-.99-1.3-.71,0-1.13.48-1.13,1.57v2.01h-.48V1.63Z"></path><path class="cls-29" d="M654.32,0h3.64v.45h-3.15v2.07h2.82v.45h-2.82v2.16h3.15v.45h-3.64V0Z"></path><path class="cls-29" d="M660.12,3.59l-1.46-1.96h.59l1.18,1.63,1.2-1.63h.58l-1.46,1.96,1.47,1.98h-.59l-1.19-1.64-1.19,1.64h-.58l1.46-1.98Z"></path><path class="cls-29" d="M663.65,4.66v-2.65h-.88v-.38h.88V.49l.48-.28v1.42h.95v.38h-.95v2.53c0,.44.14.68.5.68.12,0,.28-.02.45-.08v.38c-.2.06-.4.1-.57.1-.52,0-.86-.3-.86-.97Z"></path><path class="cls-29" d="M665.8,3.63c0-1.13.61-2.06,1.73-2.06,1.21,0,1.7.94,1.7,1.81,0,.06,0,.24-.02.34h-2.93c.02.93.52,1.47,1.32,1.47.5,0,.83-.14,1.17-.51l.34.3c-.45.46-.88.65-1.51.65-1.16,0-1.79-.87-1.79-2ZM668.76,3.37s0-.1,0-.15c0-.57-.36-1.24-1.23-1.24-.75,0-1.22.6-1.27,1.39h2.49Z"></path><path class="cls-29" d="M670.36,1.63h.48v.64c.25-.47.69-.7,1.24-.7.85,0,1.36.5,1.36,1.54v2.45h-.48v-2.28c0-.89-.34-1.3-.99-1.3-.71,0-1.13.48-1.13,1.57v2.01h-.48V1.63Z"></path><path class="cls-29" d="M674.32,4.73l.34-.28c.2.46.66.77,1.26.77.57,0,.95-.27.95-.72,0-.55-.53-.68-1.1-.82-.66-.16-1.23-.38-1.23-1.06,0-.62.53-1.05,1.29-1.05.6,0,1.1.26,1.37.76l-.37.21c-.21-.38-.57-.58-1.01-.58-.48,0-.84.24-.84.62,0,.4.36.54.93.68.67.16,1.43.34,1.43,1.2,0,.71-.56,1.17-1.42,1.17-.79,0-1.35-.4-1.6-.9Z"></path><path class="cls-29" d="M678.42,0h.58v.86h-.58v-.86ZM678.48,1.63h.47v3.94h-.47V1.63Z"></path><path class="cls-29" d="M680.1,3.6c0-1.18.77-2.02,1.88-2.02s1.87.84,1.87,2.02-.78,2.03-1.87,2.03-1.88-.84-1.88-2.03ZM681.97,5.2c.84,0,1.39-.64,1.39-1.6s-.55-1.6-1.39-1.6-1.4.64-1.4,1.6.56,1.6,1.4,1.6Z"></path><path class="cls-29" d="M684.99,1.63h.48v.64c.25-.47.69-.7,1.24-.7.85,0,1.36.5,1.36,1.54v2.45h-.48v-2.28c0-.89-.34-1.3-.99-1.3-.71,0-1.13.48-1.13,1.57v2.01h-.48V1.63Z"></path><path class="cls-29" d="M689.39,1.81h.58v.86h-.58v-.86ZM689.39,4.72h.58v.85h-.58v-.85Z"></path></g><g><path class="cls-29" d="M643.81,13.84h-2.77v-.4l2.79-3.84h.46v3.79h.91v.45h-.91v1.34h-.48v-1.34ZM643.81,13.39v-3.15l-2.25,3.15h2.25Z"></path><path class="cls-29" d="M645.92,12.37c0-1.33.3-2.84,1.72-2.84s1.75,1.39,1.75,2.85-.4,2.84-1.72,2.84c-1.44,0-1.75-1.51-1.75-2.85ZM647.68,14.77c.88,0,1.23-1,1.23-2.36s-.36-2.41-1.26-2.41c-.96,0-1.23,1.1-1.23,2.39s.28,2.38,1.26,2.38Z"></path><path class="cls-29" d="M653.64,10.05h-3.43v-.45h3.98v.4l-2.75,5.18h-.53l2.74-5.12Z"></path></g><g><path class="cls-29" d="M641.22,23.25l.47-.08c.14.7.66,1.21,1.4,1.21.85,0,1.41-.68,1.41-1.48s-.52-1.38-1.34-1.38c-.51,0-.95.24-1.26.69l-.5-.15.5-2.86h2.84v.45h-2.45l-.34,1.96c.38-.39.82-.55,1.27-.55,1.04,0,1.78.82,1.78,1.83s-.81,1.94-1.91,1.94c-.94,0-1.7-.64-1.88-1.58Z"></path><path class="cls-29" d="M645.92,21.97c0-1.33.3-2.84,1.72-2.84s1.75,1.39,1.75,2.85-.4,2.84-1.72,2.84c-1.44,0-1.75-1.51-1.75-2.85ZM647.68,24.37c.88,0,1.23-1,1.23-2.36s-.36-2.41-1.26-2.41c-.96,0-1.23,1.1-1.23,2.4s.28,2.37,1.26,2.37Z"></path><path class="cls-29" d="M653.64,19.65h-3.43v-.45h3.98v.4l-2.75,5.18h-.53l2.74-5.12Z"></path></g><g><path class="cls-29" d="M642.3,31.01c.23-.14.5-.22.76-.22,1.01,0,1.81.81,1.81,1.81s-.84,1.83-1.87,1.83-1.88-.8-1.88-1.82c0-.37.12-.7.29-1l1.67-2.81h.54l-1.34,2.21ZM643,33.98c.76,0,1.39-.6,1.39-1.38s-.62-1.38-1.39-1.38-1.39.59-1.39,1.38.62,1.38,1.39,1.38Z"></path><path class="cls-29" d="M645.92,31.57c0-1.33.3-2.84,1.72-2.84s1.75,1.39,1.75,2.85-.4,2.84-1.72,2.84c-1.44,0-1.75-1.51-1.75-2.85ZM647.68,33.97c.88,0,1.23-1,1.23-2.36s-.36-2.41-1.26-2.41c-.96,0-1.23,1.1-1.23,2.39s.28,2.38,1.26,2.38Z"></path><path class="cls-29" d="M653.64,29.25h-3.43v-.45h3.98v.4l-2.75,5.18h-.53l2.74-5.12Z"></path></g><g><path class="cls-29" d="M644.53,38.85h-3.43v-.45h3.98v.4l-2.75,5.18h-.53l2.74-5.12Z"></path><path class="cls-29" d="M645.92,41.17c0-1.33.3-2.84,1.72-2.84s1.75,1.39,1.75,2.85-.4,2.84-1.72,2.84c-1.44,0-1.75-1.51-1.75-2.85ZM647.68,43.57c.88,0,1.23-1,1.23-2.36s-.36-2.41-1.26-2.41c-.96,0-1.23,1.1-1.23,2.4s.28,2.37,1.26,2.37Z"></path><path class="cls-29" d="M653.64,38.85h-3.43v-.45h3.98v.4l-2.75,5.18h-.53l2.74-5.12Z"></path></g><g><path class="cls-29" d="M641.26,51.99c0-.7.41-1.25,1.08-1.45-.46-.18-.76-.62-.76-1.19,0-.9.78-1.41,1.54-1.41.86,0,1.53.57,1.53,1.45,0,.55-.3.97-.77,1.15.67.21,1.07.76,1.07,1.45,0,1.09-.9,1.64-1.84,1.64s-1.85-.55-1.85-1.64ZM643.11,53.18c.72,0,1.36-.41,1.36-1.22,0-.73-.56-1.22-1.36-1.22s-1.38.48-1.38,1.22c0,.82.66,1.22,1.38,1.22ZM643.13,50.4c.61,0,1.05-.4,1.05-.98,0-.61-.42-1.03-1.06-1.03-.56,0-1.06.36-1.06.98s.44,1.02,1.07,1.02Z"></path><path class="cls-29" d="M645.92,50.77c0-1.33.3-2.84,1.72-2.84s1.75,1.39,1.75,2.85-.4,2.84-1.72,2.84c-1.44,0-1.75-1.51-1.75-2.85ZM647.68,53.17c.88,0,1.23-1,1.23-2.36s-.36-2.41-1.26-2.41c-.96,0-1.23,1.1-1.23,2.4s.28,2.37,1.26,2.37Z"></path><path class="cls-29" d="M653.64,48.45h-3.43v-.45h3.98v.4l-2.75,5.18h-.53l2.74-5.12Z"></path></g><g><path class="cls-29" d="M643.8,60.97c-.23.14-.5.22-.76.22-1.01,0-1.81-.81-1.81-1.81s.84-1.83,1.87-1.83,1.88.8,1.88,1.82c0,.37-.12.7-.29,1l-1.67,2.81h-.54l1.34-2.21ZM643.1,60.75c.76,0,1.39-.59,1.39-1.38s-.62-1.38-1.39-1.38-1.39.6-1.39,1.38.62,1.38,1.39,1.38Z"></path><path class="cls-29" d="M645.92,60.37c0-1.33.3-2.84,1.72-2.84s1.75,1.39,1.75,2.85-.4,2.84-1.72,2.84c-1.44,0-1.75-1.51-1.75-2.85ZM647.68,62.77c.88,0,1.23-1,1.23-2.36s-.36-2.41-1.26-2.41c-.96,0-1.23,1.1-1.23,2.39s.28,2.38,1.26,2.38Z"></path><path class="cls-29" d="M653.64,58.05h-3.43v-.45h3.98v.4l-2.75,5.18h-.53l2.74-5.12Z"></path></g><g><path class="cls-29" d="M643.29,68.49h-1.47v-.39h1.03c.29,0,.44-.1.44-.41v-.49h.48v5.57h-.48v-4.28Z"></path><path class="cls-29" d="M645.92,69.97c0-1.33.3-2.84,1.72-2.84s1.75,1.39,1.75,2.85-.4,2.84-1.72,2.84c-1.44,0-1.75-1.51-1.75-2.85ZM647.68,72.37c.88,0,1.23-1,1.23-2.36s-.36-2.41-1.26-2.41c-.96,0-1.23,1.1-1.23,2.4s.28,2.37,1.26,2.37Z"></path><path class="cls-29" d="M650.49,69.97c0-1.33.3-2.84,1.72-2.84s1.75,1.39,1.75,2.85-.4,2.84-1.72,2.84c-1.44,0-1.75-1.51-1.75-2.85ZM652.24,72.37c.88,0,1.23-1,1.23-2.36s-.36-2.41-1.26-2.41c-.96,0-1.23,1.1-1.23,2.4s.28,2.37,1.26,2.37Z"></path><path class="cls-29" d="M658.19,67.65h-3.43v-.45h3.98v.4l-2.75,5.18h-.53l2.74-5.12Z"></path></g><g><path class="cls-29" d="M643.29,78.09h-1.47v-.39h1.03c.29,0,.44-.1.44-.41v-.49h.48v5.57h-.48v-4.28Z"></path><path class="cls-29" d="M647.84,78.09h-1.47v-.39h1.03c.29,0,.44-.1.44-.41v-.49h.48v5.57h-.48v-4.28Z"></path><path class="cls-29" d="M650.49,79.57c0-1.33.3-2.84,1.72-2.84s1.75,1.39,1.75,2.85-.4,2.84-1.72,2.84c-1.44,0-1.75-1.51-1.75-2.85ZM652.24,81.97c.88,0,1.23-1,1.23-2.36s-.36-2.41-1.26-2.41c-.96,0-1.23,1.1-1.23,2.39s.28,2.38,1.26,2.38Z"></path><path class="cls-29" d="M658.19,77.25h-3.43v-.45h3.98v.4l-2.75,5.18h-.53l2.74-5.12Z"></path></g><g><path class="cls-29" d="M643.29,87.69h-1.47v-.39h1.03c.29,0,.44-.1.44-.41v-.49h.48v5.57h-.48v-4.28Z"></path><path class="cls-29" d="M648.79,88.01c0-.73-.43-1.2-1.19-1.2-.83,0-1.26.58-1.27,1.45l-.47-.03c0-1.07.62-1.88,1.76-1.88.99,0,1.64.65,1.64,1.65,0,1.49-1.5,2.65-2.81,3.53h3.04v.45h-3.64v-.44c1.02-.82,2.94-2.02,2.94-3.53Z"></path><path class="cls-29" d="M650.49,89.17c0-1.33.3-2.84,1.72-2.84s1.75,1.39,1.75,2.85-.4,2.84-1.72,2.84c-1.44,0-1.75-1.51-1.75-2.85ZM652.24,91.57c.88,0,1.23-1,1.23-2.36s-.36-2.41-1.26-2.41c-.96,0-1.23,1.1-1.23,2.4s.28,2.37,1.26,2.37Z"></path><path class="cls-29" d="M658.19,86.85h-3.43v-.45h3.98v.4l-2.75,5.18h-.53l2.74-5.12Z"></path></g><polyline class="cls-4" points="564.91 777.29 504.85 777.29 466.06 651.13"></polyline><path class="cls-28" d="M464.87,647.27l3.64,4.82s-2.45-.96-3.95,1.21l.31-6.03Z"></path><polyline class="cls-4" points="632.87 269.03 584.81 269.03 518.69 201.16"></polyline><path class="cls-28" d="M515.87,198.27l5.44,2.62s-2.62.27-2.96,2.88l-2.48-5.5Z"></path><polyline class="cls-4" points="632.87 21.92 588.81 21.92 534.59 81.29"></polyline><path class="cls-28" d="M531.87,84.27l5.35-2.8s-2.63-.18-3.05-2.78l-2.3,5.58Z"></path><polyline class="cls-4" points="564.91 787.24 490.11 787.24 448.89 656.12"></polyline><path class="cls-28" d="M447.68,652.27l3.67,4.79s-2.46-.94-3.94,1.24l.27-6.03Z"></path><polyline class="cls-4" points="632.87 278.97 576.07 278.97 519.96 211.38"></polyline><path class="cls-28" d="M517.39,208.27l5.21,3.05s-2.63.06-3.18,2.64l-2.04-5.68Z"></path><polyline class="cls-4" points="632.87 11.97 580.07 11.97 535.28 72.04"></polyline><path class="cls-28" d="M532.87,75.27l5.05-3.31s-2.63.08-3.31-2.47l-1.74,5.78Z"></path><polyline class="cls-4" points="564.91 709.54 549.76 709.54 526.06 633.13"></polyline><path class="cls-28" d="M524.87,629.27l3.65,4.81s-2.46-.95-3.94,1.22l.29-6.03Z"></path><polyline class="cls-4" points="632.87 201.27 612.72 201.27 516.68 167.61"></polyline><path class="cls-28" d="M512.87,166.27l6.04-.07s-2.23,1.41-1.36,3.9l-4.67-3.82Z"></path><polyline class="cls-4" points="632.87 89.67 616.72 89.67 531.68 119.34"></polyline><path class="cls-28" d="M527.87,120.67l6.04.08s-2.22-1.41-1.36-3.9l-4.68,3.82Z"></path><polyline class="cls-4" points="564.91 719.22 548.05 719.22 522.05 634.13"></polyline><path class="cls-28" d="M520.87,630.27l3.63,4.82s-2.45-.96-3.95,1.21l.32-6.03Z"></path><polyline class="cls-4" points="632.87 210.95 613.01 210.95 516.58 169.86"></polyline><path class="cls-28" d="M512.87,168.27l6.03.33s-2.31,1.26-1.62,3.8l-4.41-4.12Z"></path><polyline class="cls-4" points="632.87 79.99 617.01 79.99 531.57 117.07"></polyline><path class="cls-28" d="M527.87,118.67l6.03-.36s-2.32-1.24-1.64-3.79l-4.38,4.15Z"></path><polyline class="cls-4" points="564.91 728.9 546.87 728.9 518.11 635.13"></polyline><path class="cls-28" d="M516.92,631.27l3.64,4.82s-2.45-.96-3.95,1.21l.31-6.03Z"></path><polyline class="cls-4" points="632.87 220.63 613.83 220.63 516.49 173.05"></polyline><path class="cls-28" d="M512.87,171.27l6,.64s-2.38,1.14-1.81,3.71l-4.19-4.35Z"></path><polyline class="cls-4" points="632.87 70.31 617.83 70.31 531.47 113.86"></polyline><path class="cls-28" d="M527.87,115.67l5.99-.71s-2.39-1.11-1.86-3.69l-4.14,4.4Z"></path><polyline class="cls-4" points="564.91 738.58 545.73 738.58 514.07 637.13"></polyline><path class="cls-28" d="M512.87,633.27l3.66,4.8s-2.46-.95-3.94,1.23l.28-6.03Z"></path><polyline class="cls-4" points="632.87 230.31 612.69 230.31 517.38 176.26"></polyline><path class="cls-28" d="M513.87,174.27l5.95,1s-2.44.99-2.04,3.59l-3.92-4.59Z"></path><polyline class="cls-4" points="632.87 60.64 616.69 60.64 532.37 109.26"></polyline><path class="cls-28" d="M528.87,111.27l5.94-1.04s-2.45-.97-2.06-3.58l-3.88,4.62Z"></path><polyline class="cls-4" points="564.91 748.26 538.23 748.26 504.08 640.12"></polyline><path class="cls-28" d="M502.87,636.27l3.68,4.79s-2.46-.94-3.94,1.24l.26-6.03Z"></path><polyline class="cls-4" points="632.87 239.99 610.19 239.99 517.28 181.43"></polyline><path class="cls-28" d="M513.87,179.27l5.9,1.28s-2.48.87-2.2,3.49l-3.7-4.77Z"></path><polyline class="cls-4" points="632.87 50.96 614.19 50.96 532.26 104.08"></polyline><path class="cls-28" d="M528.87,106.27l5.88-1.35s-2.5-.84-2.25-3.46l-3.64,4.82Z"></path><polyline class="cls-4" points="564.91 757.94 530.06 757.94 494.08 643.12"></polyline><path class="cls-28" d="M492.87,639.27l3.67,4.8s-2.46-.94-3.94,1.23l.27-6.03Z"></path><polyline class="cls-4" points="632.87 249.67 603.02 249.67 518.11 186.68"></polyline><path class="cls-28" d="M514.87,184.27l5.79,1.72s-2.54.68-2.46,3.32l-3.33-5.04Z"></path><polyline class="cls-4" points="632.87 41.28 607.02 41.28 533.08 97.82"></polyline><path class="cls-28" d="M529.87,100.27l5.76-1.81s-2.55-.65-2.51-3.28l-3.25,5.09Z"></path><polyline class="cls-4" points="564.91 767.61 517.66 767.61 480.07 647.13"></polyline><path class="cls-28" d="M478.87,643.27l3.66,4.8s-2.46-.95-3.94,1.23l.28-6.03Z"></path><polyline class="cls-4" points="632.87 259.35 593.61 259.35 518.89 192.95"></polyline><path class="cls-28" d="M515.87,190.27l5.61,2.22s-2.59.46-2.74,3.09l-2.87-5.31Z"></path><polyline class="cls-4" points="632.87 31.6 597.61 31.6 533.86 89.56"></polyline><path class="cls-28" d="M530.87,92.27l5.59-2.29s-2.6-.43-2.78-3.05l-2.81,5.34Z"></path><g><path class="cls-29" d="M614.8,137.34h1.55c1.22,0,1.83.57,1.83,1.54,0,.77-.4,1.27-1.14,1.46l1.5,2.57h-.57l-1.44-2.5c-.13,0-.27,0-.4,0h-.84v2.5h-.5v-5.57ZM616.3,139.97c.85,0,1.38-.34,1.38-1.1s-.54-1.09-1.38-1.09h-1.01v2.19h1.01Z"></path><path class="cls-29" d="M619.19,140.94c0-1.18.77-2.02,1.88-2.02s1.87.84,1.87,2.02-.78,2.03-1.87,2.03-1.88-.84-1.88-2.03ZM621.07,142.54c.84,0,1.39-.64,1.39-1.6s-.55-1.6-1.39-1.6-1.4.64-1.4,1.6.56,1.6,1.4,1.6Z"></path><path class="cls-29" d="M623.9,140.94c0-1.18.77-2.02,1.88-2.02s1.87.84,1.87,2.02-.78,2.03-1.87,2.03-1.88-.84-1.88-2.03ZM625.77,142.54c.84,0,1.39-.64,1.39-1.6s-.55-1.6-1.39-1.6-1.4.64-1.4,1.6.56,1.6,1.4,1.6Z"></path><path class="cls-29" d="M629.12,139.35h-.88v-.38h.88v-.57c0-.82.43-1.12,1.03-1.12.26,0,.47.05.66.15l-.16.36c-.14-.07-.28-.11-.45-.11-.4,0-.6.25-.6.71v.57h.97v.38h-.97v3.56h-.48v-3.56Z"></path><path class="cls-29" d="M633.45,140.94c0-1.18.77-2.02,1.88-2.02s1.87.84,1.87,2.02-.78,2.03-1.87,2.03-1.88-.84-1.88-2.03ZM635.32,142.54c.84,0,1.39-.64,1.39-1.6s-.55-1.6-1.39-1.6-1.4.64-1.4,1.6.56,1.6,1.4,1.6Z"></path><path class="cls-29" d="M638.35,138.97h.48v.64c.25-.47.69-.7,1.24-.7.85,0,1.36.5,1.36,1.54v2.45h-.48v-2.28c0-.89-.34-1.3-.99-1.3-.71,0-1.13.48-1.13,1.57v2.01h-.48v-3.94Z"></path><path class="cls-29" d="M644.91,137.34h.5v5.12h2.57v.45h-3.07v-5.57Z"></path><path class="cls-29" d="M648.51,140.97c0-1.13.61-2.05,1.73-2.05,1.21,0,1.7.94,1.7,1.81,0,.06,0,.24-.02.34h-2.93c.02.93.52,1.47,1.32,1.47.5,0,.83-.14,1.17-.51l.34.3c-.45.46-.88.65-1.51.65-1.16,0-1.79-.87-1.79-2ZM651.47,140.7s0-.1,0-.15c0-.57-.36-1.24-1.23-1.24-.75,0-1.22.6-1.27,1.39h2.49Z"></path><path class="cls-29" d="M652.61,138.97h.53l1.29,3.33,1.3-3.33h.52l-1.61,3.94h-.42l-1.61-3.94Z"></path><path class="cls-29" d="M656.93,140.97c0-1.13.61-2.05,1.73-2.05,1.21,0,1.7.94,1.7,1.81,0,.06,0,.24-.02.34h-2.93c.02.93.52,1.47,1.32,1.47.5,0,.83-.14,1.17-.51l.34.3c-.45.46-.88.65-1.51.65-1.16,0-1.79-.87-1.79-2ZM659.9,140.7s0-.1,0-.15c0-.57-.36-1.24-1.23-1.24-.75,0-1.22.6-1.27,1.39h2.49Z"></path><path class="cls-29" d="M661.43,142.09v-4.75h.48v4.67c0,.37.14.52.39.52.1,0,.24-.02.38-.07v.41c-.18.07-.37.1-.52.1-.44,0-.72-.27-.72-.88Z"></path><path class="cls-29" d="M668.15,141.58h-2.77v-.4l2.79-3.84h.46v3.79h.91v.45h-.91v1.34h-.48v-1.34ZM668.15,141.13v-3.15l-2.25,3.15h2.25Z"></path><path class="cls-29" d="M672.36,140.94c0-1.18.77-2.02,1.88-2.02s1.87.84,1.87,2.02-.78,2.03-1.87,2.03-1.88-.84-1.88-2.03ZM674.23,142.54c.84,0,1.39-.64,1.39-1.6s-.55-1.6-1.39-1.6-1.4.64-1.4,1.6.56,1.6,1.4,1.6Z"></path><path class="cls-29" d="M677.25,138.97h.48v.64c.25-.47.69-.7,1.24-.7.85,0,1.36.5,1.36,1.54v2.45h-.48v-2.28c0-.89-.34-1.3-.99-1.3-.71,0-1.13.48-1.13,1.57v2.01h-.48v-3.94Z"></path><path class="cls-29" d="M681.53,142.09v-4.75h.48v4.67c0,.37.14.52.39.52.1,0,.24-.02.38-.07v.41c-.18.07-.37.1-.52.1-.44,0-.72-.27-.72-.88Z"></path><path class="cls-29" d="M684.58,142.79l-1.57-3.82h.53l1.29,3.33,1.3-3.33h.52l-2.27,5.56h-.52l.72-1.75Z"></path></g><g><path class="cls-25" d="M524.7,789.69h-4.16v3.42h-1.29v-8.01h5.72v1.22h-4.42v2.14h4.16v1.22Z"></path><path class="cls-25" d="M532.43,793.11h-5.73v-8.01h1.29v6.79h4.43v1.22Z"></path><path class="cls-25" d="M541.35,789.1c0,2.39-1.73,4.15-4.19,4.15s-4.19-1.76-4.19-4.15,1.73-4.15,4.19-4.15,4.19,1.76,4.19,4.15ZM534.32,789.1c0,1.73,1.2,2.91,2.84,2.91s2.84-1.18,2.84-2.91-1.2-2.91-2.84-2.91-2.84,1.18-2.84,2.91Z"></path><path class="cls-25" d="M551.04,789.1c0,2.39-1.73,4.15-4.19,4.15s-4.19-1.76-4.19-4.15,1.73-4.15,4.19-4.15,4.19,1.76,4.19,4.15ZM544.01,789.1c0,1.73,1.2,2.91,2.84,2.91s2.84-1.18,2.84-2.91-1.2-2.91-2.84-2.91-2.84,1.18-2.84,2.91Z"></path><path class="cls-25" d="M556.07,785.1c1.84,0,2.84.82,2.84,2.32,0,1.36-1.04,2.27-2.67,2.32l2.64,3.37h-1.6l-2.55-3.37h-.65v3.37h-1.29v-8.01h3.3ZM554.07,786.31v2.25h1.97c1.04,0,1.53-.38,1.53-1.15s-.52-1.1-1.53-1.1h-1.97Z"></path><path class="cls-25" d="M567.72,790.38h1.22v1.18h-1.22v1.56h-1.24v-1.56h-3.58v-.96l3-5.49h1.41l-2.91,5.26h2.08v-2.15h1.24v2.15Z"></path><path class="cls-25" d="M573.41,790.6h-3.32v-1.09h3.32v1.09Z"></path><path class="cls-25" d="M577.46,793.11h-1.24v-6.33l-2.04.88v-1.29l3.28-1.38v8.14Z"></path><path class="cls-25" d="M579.02,786.3c.38-.52,1.11-1.34,2.56-1.34,1.66,0,2.66,1.07,2.66,2.58,0,1.01-.57,1.71-1.06,2.24l-2.01,2.15h3.29v1.18h-5.13v-.97l2.9-3.08c.45-.48.72-.96.72-1.53,0-.8-.53-1.38-1.39-1.38-.81,0-1.24.41-1.64.89l-.89-.73Z"></path></g></g></g></svg> 