<?xml version="1.0" encoding="UTF-8"?> <svg xmlns="http://www.w3.org/2000/svg" id="Layer_2" data-name="Layer 2" viewBox="0 0 630.99 643.37"><defs><style> .cls-1 { stroke: #afa49f; } .cls-1, .cls-2, .cls-3, .cls-4, .cls-5, .cls-6, .cls-7, .cls-8, .cls-9, .cls-10 { fill: none; } .cls-1, .cls-2, .cls-3, .cls-6, .cls-8, .cls-9 { stroke-width: .25px; } .cls-1, .cls-7, .cls-8 { stroke-miterlimit: 10; } .cls-2 { stroke-dasharray: 1.54 1.54; } .cls-2, .cls-3, .cls-4, .cls-5, .cls-6, .cls-9, .cls-10 { stroke-linecap: round; stroke-linejoin: round; } .cls-2, .cls-3, .cls-6 { stroke: #75655e; } .cls-11 { fill: #3a2a22; } .cls-3 { stroke-dasharray: 6.08 5.07; } .cls-4 { stroke: #55453d; stroke-width: .15px; } .cls-12 { fill: #fff; } .cls-5, .cls-7 { stroke-width: .75px; } .cls-5, .cls-7, .cls-9, .cls-10 { stroke: #3a2a22; } .cls-13 { fill: #bc8ebc; } .cls-8 { stroke: #bc8ebc; } .cls-14 { fill: #afa49f; } .cls-10 { stroke-width: .35px; } .cls-15 { fill: #75655e; } </style></defs><g id="Layer_1-2" data-name="Layer 1"><g><path class="cls-12" d="M452.11,73.91s-129-31.77-193.51-44.02c-37.05-7.56-88.45-16.61-127.29-23.24-15.89-2.71-29.67-5.02-39.51-6.65h0v325.7h-24.58v133.75H20.67v83.21h-11.37v95.26h436.22v5.08h78.78l44.71-391.1h15.05l44.43-121.39-168.47-46.98-7.92-2.21v-7.42Z"></path><line class="cls-9" x1="630.86" y1="626.19" x2="526.24" y2="626.19"></line><line class="cls-9" x1="524.64" y1="640.12" x2="630.86" y2="640.12"></line><polyline class="cls-10" points="452.11 86.09 622.49 133.6 580.86 247.31 569.55 247.31"></polyline><polyline class="cls-10" points="569.74 245.65 579.71 245.65 620.31 134.71 452.12 87.81"></polyline><g><path class="cls-4" d="M395.92,473.46c0,22.93-18.45,39-41.21,39"></path><path class="cls-4" d="M212.41,269.2c0-22.93,18.45-39,41.21-39"></path><path class="cls-4" d="M468.59,204.44c22.93,0,39,18.45,39,41.21"></path><path class="cls-4" d="M76.84,533c0-26.19-21.23-44.55-47.43-44.55"></path></g><line class="cls-4" x1="29.41" y1="533" x2="29.41" y2="488.44"></line><line class="cls-4" x1="20.67" y1="535.94" x2="20.67" y2="488.44"></line><g><path class="cls-4" d="M222.44,570.63c-22.93,0-39-18.45-39-41.21"></path><path class="cls-4" d="M227.37,321.95c-22.93,0-39-18.45-39-41.21"></path></g><rect class="cls-10" x="35.24" y="547.95" width="41.69" height="2.21"></rect><polyline class="cls-10" points="56.08 547.95 56.08 545.74 97.76 545.74 97.76 547.95 76.92 547.95"></polyline><rect class="cls-10" x="109.94" y="466.35" width="39.52" height="2.21"></rect><rect class="cls-10" x="354.71" y="471.25" width="41.21" height="2.21"></rect><rect class="cls-10" x="212.41" y="269.2" width="41.21" height="2.21"></rect><rect class="cls-10" x="466.37" y="204.45" width="2.21" height="41.21"></rect><rect class="cls-10" x="349.72" y="560.58" width="2.21" height="41.21"></rect><rect class="cls-10" x="29.41" y="533" width="47.43" height="2.88"></rect><rect class="cls-10" x="161.68" y="465.87" width="69.64" height="2.69"></rect><rect class="cls-10" x="178.53" y="231.11" width="2.5" height="41.21"></rect><line class="cls-10" x1="196.5" y1="465.86" x2="196.5" y2="468.56"></line><rect class="cls-10" x="227.37" y="280.74" width="2.21" height="41.21"></rect><rect class="cls-10" x="222.44" y="529.42" width="2.21" height="41.21"></rect><polyline class="cls-6" points="349.23 292.17 349.23 291.42 348.48 291.42"></polyline><line class="cls-2" x1="346.94" y1="291.42" x2="323.13" y2="291.42"></line><polyline class="cls-6" points="322.37 291.42 321.62 291.42 321.62 292.17"></polyline><line class="cls-2" x1="321.62" y1="293.71" x2="321.62" y2="317.51"></line><polyline class="cls-6" points="321.62 318.28 321.62 319.03 322.37 319.03"></polyline><line class="cls-2" x1="323.9" y1="319.03" x2="347.71" y2="319.03"></line><polyline class="cls-6" points="348.48 319.03 349.23 319.03 349.23 318.28"></polyline><line class="cls-2" x1="349.23" y1="316.74" x2="349.23" y2="292.94"></line><polyline class="cls-6" points="349.23 374.86 349.23 374.11 348.48 374.11"></polyline><line class="cls-2" x1="346.94" y1="374.11" x2="323.13" y2="374.11"></line><polyline class="cls-6" points="322.37 374.11 321.62 374.11 321.62 374.86"></polyline><line class="cls-2" x1="321.62" y1="376.4" x2="321.62" y2="400.21"></line><polyline class="cls-6" points="321.62 400.97 321.62 401.72 322.37 401.72"></polyline><line class="cls-2" x1="323.9" y1="401.72" x2="347.71" y2="401.72"></line><polyline class="cls-6" points="348.48 401.72 349.23 401.72 349.23 400.97"></polyline><line class="cls-2" x1="349.23" y1="399.44" x2="349.23" y2="375.63"></line><line class="cls-6" x1="257.59" y1="316.89" x2="257.59" y2="319.89"></line><line class="cls-3" x1="257.59" y1="324.96" x2="257.59" y2="411.6"></line><line class="cls-6" x1="257.59" y1="414.13" x2="257.59" y2="417.13"></line><line class="cls-10" x1="116.25" y1="334.45" x2="116.25" y2="409.81"></line><line class="cls-10" x1="116.25" y1="334.45" x2="116.25" y2="410.63"></line><line class="cls-10" x1="114.97" y1="334.45" x2="114.97" y2="410.63"></line><line class="cls-10" x1="114.97" y1="339.13" x2="116.25" y2="339.13"></line><line class="cls-10" x1="114.97" y1="377.13" x2="116.25" y2="377.13"></line><line class="cls-10" x1="269.5" y1="459.45" x2="269.5" y2="280.75"></line><line class="cls-10" x1="269.5" y1="316.89" x2="242.07" y2="316.89"></line><line class="cls-10" x1="269.5" y1="417.13" x2="242.08" y2="417.13"></line><line class="cls-10" x1="267" y1="316.89" x2="267" y2="280.74"></line><line class="cls-10" x1="267" y1="459.45" x2="267" y2="417.13"></line><rect class="cls-10" x="321.62" y="287.89" width="48.28" height="117.32"></rect><rect class="cls-10" x="197.5" y="422.58" width="30.61" height="38.03"></rect><rect class="cls-10" x="164.89" y="422.58" width="30.61" height="38.03"></rect><g><rect class="cls-10" x="341.78" y="354" width="9.78" height="1.74" rx=".59" ry=".59"></rect><circle class="cls-10" cx="334.98" cy="354.87" r=".9"></circle></g><polyline class="cls-10" points="350.24 355.74 350.24 358.16 348.69 358.16 348.69 355.74"></polyline><line class="cls-10" x1="348.69" y1="357.3" x2="350.24" y2="357.3"></line><polyline class="cls-10" points="346.38 355.74 346.38 367.79 324.62 367.79 324.62 341.94 346.38 341.94 346.38 354"></polyline><polyline class="cls-10" points="345.3 354 345.3 343.02 325.7 343.02 325.7 366.71 345.3 366.71 345.3 355.74"></polyline><g><path class="cls-10" d="M97.53,346.37c0,.67-.54,1.21-1.21,1.21s-1.21-.54-1.21-1.21.54-1.21,1.21-1.21,1.21.54,1.21,1.21Z"></path><path class="cls-10" d="M101.5,346.37c0,2.86-2.32,5.18-5.18,5.18s-5.18-2.32-5.18-5.18,2.32-5.18,5.18-5.18,5.18,2.32,5.18,5.18Z"></path></g><polyline class="cls-10" points="234.58 385.61 157.25 385.62 157.25 410.76"></polyline><path class="cls-10" d="M177.99,402.67h-9.87c-.4,0-.72-.32-.72-.72v-10.9c0-.4.32-.72.72-.72h20.82c.4,0,.72.32.72.72v10.9c0,.4-.32.72-.72.72h-9.48"></path><rect class="cls-10" x="178" y="400.24" width="1.47" height="5.89"></rect><g><circle class="cls-10" cx="178.73" cy="396.5" r=".84"></circle><path class="cls-10" d="M212.75,402.67h-9.87c-.4,0-.72-.32-.72-.72v-10.9c0-.4.32-.72.72-.72h20.82c.4,0,.72.32.72.72v10.9c0,.4-.32.72-.72.72h-9.48"></path></g><rect class="cls-10" x="212.75" y="400.24" width="1.47" height="5.89"></rect><circle class="cls-10" cx="213.49" cy="396.5" r=".84"></circle><line class="cls-10" x1="75.97" y1="397.25" x2="114.97" y2="397.25"></line><g><rect class="cls-10" x="127.95" y="403.18" width="17.6" height="7.45" rx="1.08" ry="1.08"></rect><path class="cls-10" d="M141.21,399.03c.28,0,.54-.11.73-.32,1.88-2.09,3.09-5.3,3.09-8.9,0-6.31-3.71-11.42-8.28-11.42s-8.28,5.11-8.28,11.42c0,3.6,1.2,6.8,3.08,8.9.19.21.46.32.73.32h8.92Z"></path></g><line class="cls-10" x1="145.03" y1="389.82" x2="145.03" y2="403.34"></line><line class="cls-10" x1="128.48" y1="389.82" x2="128.48" y2="403.34"></line><g><rect class="cls-10" x="132.25" y="600.96" width="7.45" height="17.6" rx="1.08" ry="1.08"></rect><path class="cls-10" d="M143.85,614.22c0,.27.11.54.32.73,2.09,1.88,5.3,3.08,8.9,3.08,6.31,0,11.42-3.7,11.42-8.27,0-4.57-5.11-8.28-11.42-8.28-3.6,0-6.8,1.2-8.9,3.08-.21.19-.32.46-.32.73v8.92Z"></path></g><line class="cls-10" x1="153.07" y1="618.04" x2="139.55" y2="618.04"></line><line class="cls-10" x1="153.07" y1="601.48" x2="139.55" y2="601.48"></line><polyline class="cls-10" points="132.26 588.81 157.27 588.81 157.27 529.42"></polyline><path class="cls-10" d="M140.32,558.57v-9.87c0-.4.32-.72.72-.72h10.9c.4,0,.72.32.72.72v20.82c0,.4-.32.72-.72.72h-10.9c-.4,0-.72-.32-.72-.72v-9.48"></path><rect class="cls-10" x="136.87" y="558.57" width="5.89" height="1.47"></rect><circle class="cls-10" cx="146.49" cy="559.31" r=".84"></circle><line class="cls-10" x1="273.73" y1="524.42" x2="349.72" y2="524.42"></line><line class="cls-10" x1="245.57" y1="613.46" x2="248.78" y2="613.46"></line><g><path class="cls-10" d="M249.64,613.46h11.6c1.38,0,2.5-1.12,2.5-2.5v-61.83c0-1.38-1.12-2.5-2.5-2.5h-24.04c-1.38,0-2.5,1.12-2.5,2.5v61.83c0,1.38,1.12,2.5,2.5,2.5h8.37"></path><path class="cls-10" d="M248.78,617.48v-10.86c0-.24.19-.43.43-.43s.43.19.43.43v10.81"></path><path class="cls-10" d="M249.64,607.71c.46-.17.79-.61.79-1.14,0-.67-.54-1.21-1.21-1.21s-1.21.54-1.21,1.21c0,.51.32.95.77,1.13"></path><path class="cls-10" d="M249.64,611.74c2.66-.21,4.76-2.45,4.76-5.17,0-2.86-2.32-5.18-5.18-5.18s-5.18,2.32-5.18,5.18c0,2.71,2.09,4.94,4.74,5.16"></path></g><rect class="cls-10" x="246.68" y="617.48" width="5.08" height=".97"></rect><line class="cls-10" x1="230.99" y1="618.45" x2="230.99" y2="542.22"></line><line class="cls-10" x1="229.71" y1="618.45" x2="229.71" y2="542.27"></line><line class="cls-10" x1="229.71" y1="613.77" x2="230.99" y2="613.77"></line><line class="cls-10" x1="229.71" y1="575.77" x2="230.99" y2="575.77"></line><rect class="cls-10" x="243.94" y="348.87" width="24.28" height="36.98"></rect><rect class="cls-10" x="245.02" y="349.95" width="22.12" height="34.82"></rect><path class="cls-10" d="M266.39,367.35c0,.71-.57,1.28-1.28,1.28s-1.28-.57-1.28-1.28.57-1.28,1.28-1.28c.71,0,1.28.57,1.28,1.28Z"></path><line class="cls-10" x1="267.14" y1="384.76" x2="268.22" y2="385.84"></line><line class="cls-10" x1="267.13" y1="349.94" x2="268.21" y2="348.86"></line><line class="cls-10" x1="245.02" y1="349.95" x2="243.94" y2="348.87"></line><line class="cls-10" x1="245.02" y1="384.76" x2="243.94" y2="385.84"></line><polygon class="cls-10" points="265.1 366.3 264.05 367.35 265.1 368.41 266.16 367.35 265.1 366.3"></polygon><line class="cls-10" x1="264.05" y1="367.35" x2="266.16" y2="367.35"></line><g><path class="cls-9" d="M324.07,615.63c.03,1.51.06,3.03.13,4.57.04.8.09,1.6.13,2.36.03.57.07,1.11.16,1.78.09.65.25,1.42-.23,1.73-.11.07-.25.12-.38.13-.77.06-.9-1.18-.97-2.24-.15-2.35.04-3.74.16-5.44.06-.9.1-1.89.14-2.89-.04-.99-.08-1.98-.14-2.89-.11-1.7-.3-3.09-.16-5.44.07-1.05.2-2.3.97-2.24.13,0,.27.06.38.13.48.31.32,1.08.23,1.73-.1.67-.13,1.21-.16,1.78-.04.75-.09,1.56-.13,2.35-.07,1.55-.1,3.06-.13,4.57Z"></path><path class="cls-9" d="M319.37,615.63c.03,1.51.06,3.03.13,4.57.04.8.09,1.6.13,2.36.03.57.07,1.11.16,1.78.09.65.25,1.42-.23,1.73-.11.07-.25.12-.38.13-.77.06-.9-1.18-.97-2.24-.15-2.35.04-3.74.16-5.44.06-.9.1-1.89.14-2.89-.04-.99-.08-1.98-.14-2.89-.11-1.7-.3-3.09-.16-5.44.07-1.05.2-2.3.97-2.24.13,0,.27.06.38.13.48.31.32,1.08.23,1.73-.1.67-.13,1.21-.16,1.78-.04.75-.09,1.56-.13,2.35-.07,1.55-.1,3.06-.13,4.57Z"></path><path class="cls-9" d="M314.68,615.63c.03,1.51.06,3.03.13,4.57.04.8.09,1.6.13,2.36.03.57.07,1.11.16,1.78.09.65.25,1.42-.23,1.73-.11.07-.25.12-.38.13-.77.06-.9-1.18-.97-2.24-.15-2.35.04-3.74.16-5.44.06-.9.1-1.89.14-2.89-.04-.99-.08-1.98-.14-2.89-.11-1.7-.3-3.09-.16-5.44.07-1.05.2-2.3.97-2.24.13,0,.27.06.38.13.48.31.32,1.08.23,1.73-.1.67-.13,1.21-.16,1.78-.05.75-.09,1.56-.13,2.35-.07,1.55-.1,3.06-.13,4.57Z"></path><path class="cls-9" d="M288.52,590.82c-1.51.03-3.03.06-4.57.13-.8.04-1.6.09-2.35.13-.57.03-1.11.07-1.78.16-.65.09-1.42.25-1.73-.23-.07-.11-.12-.25-.13-.38-.06-.77,1.18-.9,2.24-.97,2.35-.15,3.74.04,5.44.16.9.06,1.9.1,2.89.14.99-.04,1.98-.08,2.89-.14,1.7-.11,3.09-.3,5.44-.16,1.05.07,2.3.2,2.24.97-.01.13-.06.27-.13.38-.31.48-1.08.33-1.73.23-.67-.1-1.21-.13-1.78-.16-.75-.04-1.56-.09-2.35-.13-1.55-.07-3.06-.1-4.57-.13Z"></path><path class="cls-9" d="M288.52,586.13c-1.51.03-3.03.06-4.57.13-.8.04-1.6.09-2.35.13-.57.03-1.11.07-1.78.16-.65.09-1.42.25-1.73-.23-.07-.11-.12-.25-.13-.38-.06-.77,1.18-.9,2.24-.97,2.35-.15,3.74.04,5.44.16.9.06,1.9.1,2.89.14.99-.04,1.98-.08,2.89-.14,1.7-.11,3.09-.3,5.44-.16,1.05.07,2.3.2,2.24.97-.01.13-.06.27-.13.38-.31.48-1.08.33-1.73.23-.67-.1-1.21-.13-1.78-.16-.75-.04-1.56-.09-2.35-.13-1.55-.07-3.06-.1-4.57-.13Z"></path><path class="cls-9" d="M288.52,581.43c-1.51.03-3.03.06-4.57.13-.8.04-1.6.09-2.35.13-.57.03-1.11.07-1.78.16-.65.09-1.42.25-1.73-.23-.07-.11-.12-.25-.13-.38-.06-.77,1.18-.9,2.24-.97,2.35-.15,3.74.04,5.44.16.9.06,1.9.1,2.89.14.99-.04,1.98-.08,2.89-.14,1.7-.11,3.09-.3,5.44-.16,1.05.07,2.3.2,2.24.97-.01.13-.06.27-.13.38-.31.48-1.08.33-1.73.23-.67-.1-1.21-.13-1.78-.16-.75-.04-1.56-.09-2.35-.13-1.55-.07-3.06-.1-4.57-.13Z"></path><path class="cls-9" d="M133.9,441.73c.03,1.51.06,3.03.13,4.57.04.8.09,1.6.13,2.35.03.57.07,1.11.16,1.78.09.65.25,1.42-.23,1.73-.11.07-.25.12-.38.13-.77.06-.9-1.18-.97-2.24-.15-2.35.04-3.74.16-5.44.06-.9.1-1.9.14-2.89-.04-.99-.08-1.98-.14-2.89-.12-1.7-.3-3.09-.16-5.44.07-1.05.2-2.3.97-2.24.13.01.27.06.38.13.48.3.33,1.08.23,1.73-.1.67-.13,1.21-.16,1.78-.04.75-.09,1.56-.13,2.36-.07,1.54-.1,3.06-.13,4.57Z"></path><path class="cls-9" d="M129.21,441.73c.03,1.51.06,3.03.13,4.57.04.8.09,1.6.13,2.35.03.57.07,1.11.16,1.78.09.65.25,1.42-.23,1.73-.11.07-.25.12-.38.13-.77.06-.9-1.18-.97-2.24-.15-2.35.04-3.74.16-5.44.06-.9.1-1.9.14-2.89-.04-.99-.08-1.98-.14-2.89-.12-1.7-.3-3.09-.16-5.44.07-1.05.2-2.3.97-2.24.13.01.27.06.38.13.48.3.33,1.08.23,1.73-.1.67-.13,1.21-.16,1.78-.04.75-.09,1.56-.13,2.36-.07,1.54-.1,3.06-.13,4.57Z"></path><path class="cls-9" d="M124.51,441.73c.03,1.51.06,3.03.13,4.57.04.8.09,1.6.13,2.35.03.57.07,1.11.16,1.78.09.65.25,1.42-.23,1.73-.11.07-.25.12-.38.13-.77.06-.9-1.18-.97-2.24-.15-2.35.04-3.74.16-5.44.06-.9.1-1.9.14-2.89-.04-.99-.08-1.98-.14-2.89-.12-1.7-.3-3.09-.16-5.44.07-1.05.2-2.3.97-2.24.13.01.27.06.38.13.48.3.32,1.08.23,1.73-.1.67-.13,1.21-.16,1.78-.04.75-.09,1.56-.13,2.36-.07,1.54-.1,3.06-.13,4.57Z"></path></g><polyline class="cls-9" points="288.52 556.13 288.52 615.44 349.55 615.44"></polyline><line class="cls-9" x1="107.17" y1="441.73" x2="152.56" y2="441.73"></line><polyline class="cls-9" points="538.58 452.48 561.36 253.16 561.35 253.15 509.8 253.15 509.8 248.15"></polyline><line class="cls-9" x1="517.81" y1="634.17" x2="534.67" y2="486.69"></line><g><path class="cls-9" d="M443.72,182.37v-102.6c-28.5-6.93-122.9-29.67-178.67-40.62"></path><path class="cls-9" d="M129.77,14.39c30.31,5.17,68.62,11.87,101.81,18.19"></path></g><polyline class="cls-9" points="452.11 81.32 628.5 130.51 584.07 251.9 569.02 251.9"></polyline><line class="cls-5" x1="509.8" y1="248.15" x2="509.8" y2="245.65"></line><line class="cls-5" x1="452.11" y1="184.59" x2="452.11" y2="73.9"></line><line class="cls-5" x1="449.61" y1="182.37" x2="449.61" y2="75.9"></line><path class="cls-5" d="M452.11,73.91c-48.06-11.63-145.92-34.98-193.51-44.02-37.05-7.56-88.45-16.61-127.29-23.24,0,0-33.91-5.38-39.51-5.98v2.41c5.6.6,39.03,5.98,39.03,5.98,38.84,6.63,90.72,15.77,127.77,23.33h0c45.62,8.66,141.2,31.47,191.01,43.51"></path><line class="cls-5" x1="449.61" y1="75.9" x2="452.11" y2="73.91"></line><polyline class="cls-5" points="445.53 640.46 522.08 640.46 566.93 248.15 566.94 248.15 509.8 248.15 509.8 245.65"></polyline><polyline class="cls-5" points="445.53 637.92 445.53 643 524.31 643 569.74 245.65 509.8 245.65"></polyline><rect class="cls-5" x="547.78" y="381.7" width="2.21" height="4.97" transform="translate(104.84 885.87) rotate(-83.48)"></rect><rect class="cls-5" x="555.62" y="313.07" width="2.21" height="4.97" transform="translate(179.97 832.83) rotate(-83.48)"></rect><rect class="cls-5" x="539.93" y="450.33" width="2.21" height="4.96" transform="translate(29.7 938.91) rotate(-83.48)"></rect><rect class="cls-5" x="536.01" y="484.63" width="2.21" height="4.96" transform="translate(-7.85 965.42) rotate(-83.48)"></rect><rect class="cls-5" x="532.1" y="518.81" width="2.21" height="4.97" transform="translate(-45.28 991.84) rotate(-83.48)"></rect><rect class="cls-5" x="524.27" y="587.28" width="2.21" height="4.96" transform="translate(-120.24 1044.75) rotate(-83.48)"></rect><rect class="cls-5" x="520.37" y="621.46" width="2.21" height="4.96" transform="translate(-157.67 1071.17) rotate(-83.48)"></rect><rect class="cls-5" x="397.77" y="65.6" width="5.13" height="2.21" transform="translate(241.55 440.21) rotate(-76.43)"></rect><polygon class="cls-5" points="333.65 53.87 331.49 53.38 332.71 48.32 334.83 48.8 333.65 53.87"></polygon><polygon class="cls-5" points="266.23 39.38 264.06 38.95 265.18 33.67 267.31 34.09 266.23 39.38"></polygon><polygon class="cls-5" points="232.6 32.78 230.43 32.35 231.55 27.07 233.68 27.49 232.6 32.78"></polygon><polygon class="cls-5" points="198.8 26.49 196.62 26.1 197.55 20.77 199.68 21.17 198.8 26.49"></polygon><rect class="cls-5" x="443.73" y="182.37" width="5.89" height="2.21"></rect><rect class="cls-5" x="443.73" y="131.6" width="5.89" height="2.21"></rect><rect class="cls-5" x="507.59" y="245.65" width="2.21" height="7.5"></rect><rect class="cls-5" x="462.16" y="245.65" width="4.21" height="7.5"></rect><polygon class="cls-5" points="447.64 75.42 442.35 79.44 443.72 79.77 443.72 81.36 449.61 76.9 449.61 75.9 447.64 75.42"></polygon><polygon class="cls-5" points="517.9 633.38 522.32 638.36 522.08 640.46 520.02 640.41 515.41 635.22 517.7 635.21 517.9 633.38"></polygon><rect class="cls-5" x="452.85" y="635.22" width="2.27" height="5.24"></rect><polygon class="cls-5" points="561.17 254.85 566.7 250.2 566.93 248.15 565.46 248.15 559.53 253.15 561.36 253.15 561.17 254.85"></polygon><polygon class="cls-11" points="530.93 462.41 349.72 462.41 349.72 471.25 354.71 471.25 354.71 467.4 423.19 467.4 423.19 483.68 528.49 483.68 528.23 485.95 534.67 486.69 538.58 452.47 532.15 451.74 530.93 462.41"></polygon><polygon class="cls-7" points="530.93 462.41 349.72 462.41 349.72 471.25 354.71 471.25 354.71 467.4 423.19 467.4 423.19 483.68 528.49 483.68 528.23 485.95 534.67 486.69 538.58 452.47 532.15 451.74 530.93 462.41"></polygon><polygon class="cls-11" points="265.06 39.14 264.19 45.27 258.61 44.19 258.61 230.2 253.61 230.2 253.61 43.06 230.34 38.55 231.59 32.58 265.06 39.14"></polygon><polygon class="cls-7" points="265.06 39.14 264.19 45.27 258.61 44.19 258.61 230.2 253.61 230.2 253.61 43.06 230.34 38.55 231.59 32.58 265.06 39.14"></polygon><rect class="cls-11" x="438.1" y="184.59" width="24.06" height="74.77"></rect><rect class="cls-7" x="438.1" y="184.59" width="24.06" height="74.77"></rect><g><path class="cls-11" d="M91.81,3.08v322.62h-24.58v133.75H20.67v28.99h8.74v-19.89h80.52v-5.94h-2.76v-35.87h45.38v35.87h-3.1v5.94h12.22v-5.94h-2.67v-43.62h75.57s0,43.62,0,43.62h-3.27v5.94h38.18v-9.11h-27.42v-178.71s27.42,0,27.42,0v-4.99h-10.89v-4.34h-4.99v4.34h-13.93s-10.1,0-10.1,0v4.99s5,0,5,0v129.88s-158.61,0-158.61,0v-76.19h40.28v-2.5h67.27v-51.2h4.99v-4.99h-4.99v-3.43h-4.99v53.38h-77.97s0-100.12,0-100.12h77.97v5.53h4.99v-10.52h-82.96V15.09h.31l27.76,5.05s1.44-7.21,2.21-11.09"></path><path class="cls-7" d="M91.81,3.08v322.62h-24.58v133.75H20.67v28.99h8.74v-19.89h80.52v-5.94h-2.76v-35.87h45.38v35.87h-3.1v5.94h12.22v-5.94h-2.67v-43.62h75.57s0,43.62,0,43.62h-3.27v5.94h38.18v-9.11h-27.42v-178.71s27.42,0,27.42,0v-4.99h-10.89v-4.34h-4.99v4.34h-13.93s-10.1,0-10.1,0v4.99s5,0,5,0v129.88s-158.61,0-158.61,0v-76.19h40.28v-2.5h67.27v-51.2h4.99v-4.99h-4.99v-3.43h-4.99v53.38h-77.97s0-100.12,0-100.12h77.97v5.53h4.99v-10.52h-82.96V15.09h.31l27.76,5.05s1.44-7.21,2.21-11.09"></path><polygon class="cls-11" points="183.44 529.42 183.44 524.42 124.12 524.42 124.12 545.74 118.61 545.74 118.61 552.16 124.12 552.16 124.12 629.18 18.05 629.18 18.05 552.16 35.23 552.16 35.23 545.74 29.41 545.74 29.41 535.94 20.67 535.94 20.67 542.66 9.3 542.66 9.3 637.92 445.52 637.92 445.52 635.22 517.7 635.22 517.7 635.21 518.88 623.95 512.8 623.3 512.24 629.18 354.71 629.18 354.71 601.79 349.72 601.79 349.72 629.18 273.72 629.18 273.72 555.97 349.72 555.97 349.72 560.58 354.71 560.58 354.71 512.46 349.72 512.46 349.72 550.97 273.72 550.97 273.72 524.42 224.65 524.42 224.65 529.42 229.71 529.42 229.71 542.27 268.73 542.26 268.73 618.45 229.71 618.45 229.71 630.56 132.26 630.56 132.25 529.42 183.44 529.42"></polygon><polygon class="cls-7" points="183.44 529.42 183.44 524.42 124.12 524.42 124.12 545.74 118.61 545.74 118.61 552.16 124.12 552.16 124.12 629.18 18.05 629.18 18.05 552.16 35.23 552.16 35.23 545.74 29.41 545.74 29.41 535.94 20.67 535.94 20.67 542.66 9.3 542.66 9.3 637.92 445.52 637.92 445.52 635.22 517.7 635.22 517.7 635.21 518.88 623.95 512.8 623.3 512.24 629.18 354.71 629.18 354.71 601.79 349.72 601.79 349.72 629.18 273.72 629.18 273.72 555.97 349.72 555.97 349.72 560.58 354.71 560.58 354.71 512.46 349.72 512.46 349.72 550.97 273.72 550.97 273.72 524.42 224.65 524.42 224.65 529.42 229.71 529.42 229.71 542.27 268.73 542.26 268.73 618.45 229.71 618.45 229.71 630.56 132.26 630.56 132.25 529.42 183.44 529.42"></polygon><path class="cls-13" d="M8.22,512.05c.08.02.14.07.14.14s-.06.13-.14.14c-3.3.56-4.94,2.74-4.94,6.02v3.83c0,1.16-1.01,1.98-2.66,2.2-.34.05-.61-.23-.46-.47.31-.46.47-1.06.47-1.78v-3.48c0-2.95,1.67-5.22,4.98-6.17.37-.11.37-.5,0-.61-3.31-.96-4.98-3.22-4.98-6.18v-3.48c0-.72-.16-1.32-.47-1.78-.16-.23.12-.51.46-.47,1.64.22,2.66,1.05,2.66,2.2v3.84c0,3.29,1.64,5.46,4.95,6.02h0Z"></path><path class="cls-8" d="M8.22,512.05c.08.02.14.07.14.14s-.06.13-.14.14c-3.3.56-4.94,2.74-4.94,6.02v3.83c0,1.16-1.01,1.98-2.66,2.2-.34.05-.61-.23-.46-.47.31-.46.47-1.06.47-1.78v-3.48c0-2.95,1.67-5.22,4.98-6.17.37-.11.37-.5,0-.61-3.31-.96-4.98-3.22-4.98-6.18v-3.48c0-.72-.16-1.32-.47-1.78-.16-.23.12-.51.46-.47,1.64.22,2.66,1.05,2.66,2.2v3.84c0,3.29,1.64,5.46,4.95,6.02h0Z"></path></g><g><path class="cls-11" d="M127.43,129.49h2.52c1.9,0,2.97.89,2.97,2.53s-1.07,2.54-2.97,2.54h-1.72v3.99h-.8v-9.06ZM129.88,133.84c1.41,0,2.24-.61,2.24-1.81s-.81-1.81-2.24-1.81h-1.64v3.62h1.64Z"></path><path class="cls-11" d="M134.44,132.15h.78v1.09c.43-.78,1.31-1.18,2.02-1.18.33,0,.66.07.99.24l-.39.7c-.21-.1-.51-.17-.77-.17-.68,0-1.46.36-1.74,1.3-.08.27-.12.57-.12,1.27v3.15h-.78v-6.41Z"></path><path class="cls-11" d="M139.5,129.49h.94v1.39h-.94v-1.39ZM139.58,132.15h.77v6.41h-.77v-6.41Z"></path><path class="cls-11" d="M142.39,132.15h.78v1.1c.38-.85,1.11-1.19,1.88-1.19.91,0,1.57.4,1.89,1.25.4-.83,1.09-1.25,2-1.25,1.55,0,2.13,1.16,2.13,2.68v3.82h-.78v-3.64c0-1.33-.39-2.18-1.52-2.18-1.02,0-1.65.77-1.65,2.26v3.57h-.78v-3.76c0-1.4-.52-2.07-1.5-2.07-1.03,0-1.67.79-1.67,2.26v3.57h-.78v-6.41Z"></path><path class="cls-11" d="M157.22,137.35c-.43.82-1.25,1.29-2.25,1.29-1.44,0-2.31-.77-2.31-1.94,0-.69.29-1.16.72-1.44.46-.31,1.09-.42,1.77-.42h2.05v-.28c0-1.19-.62-1.83-1.82-1.83-.79,0-1.4.29-1.98,1.02l-.56-.48c.68-.85,1.53-1.22,2.59-1.22,1.63,0,2.54.89,2.54,2.51v3.99h-.71l-.04-1.2ZM155.04,138c1.18,0,2.17-.93,2.17-2.2v-.36h-1.95c-.51,0-1.03.08-1.37.33-.28.21-.44.51-.44.94,0,.79.6,1.3,1.6,1.3Z"></path><path class="cls-11" d="M159.93,132.15h.78v1.09c.43-.78,1.31-1.18,2.02-1.18.33,0,.66.07.99.24l-.39.7c-.21-.1-.51-.17-.77-.17-.68,0-1.46.36-1.74,1.3-.08.27-.12.57-.12,1.27v3.15h-.78v-6.41Z"></path><path class="cls-11" d="M166.98,138.35l-2.55-6.21h.86l2.1,5.42,2.11-5.42h.85l-3.69,9.05h-.84l1.17-2.84Z"></path><path class="cls-11" d="M175.24,129.49h2.72c1.68,0,2.68.84,2.68,2.25,0,.94-.46,1.68-1.24,2,1.1.25,1.7,1.07,1.7,2.31,0,1.61-1.02,2.5-2.88,2.5h-2.97v-9.06ZM178.21,133.5c.98,0,1.63-.64,1.63-1.64s-.69-1.61-1.88-1.61h-1.91v3.26h2.16ZM178.16,137.81c1.42,0,2.14-.6,2.14-1.79,0-1.13-.66-1.79-1.79-1.79h-2.46v3.58h2.11Z"></path><path class="cls-11" d="M182.57,135.4c0-1.84.99-3.34,2.81-3.34,1.96,0,2.76,1.53,2.76,2.94,0,.1-.01.4-.04.55h-4.76c.03,1.51.84,2.39,2.14,2.39.82,0,1.35-.23,1.91-.83l.55.49c-.73.75-1.43,1.05-2.46,1.05-1.89,0-2.91-1.41-2.91-3.25ZM187.38,134.97c0-.08,0-.16,0-.24,0-.92-.58-2.02-2-2.02-1.23,0-1.98.98-2.07,2.26h4.06Z"></path><path class="cls-11" d="M189.55,135.34c0-1.96,1.29-3.29,2.92-3.29,1.05,0,1.87.54,2.29,1.36v-3.92h.77v9.06h-.77v-1.26c-.44.85-1.25,1.35-2.29,1.35-1.72,0-2.92-1.42-2.92-3.3ZM192.59,137.92c1.3,0,2.23-1.08,2.23-2.58s-.93-2.58-2.23-2.58-2.26,1.09-2.26,2.58.95,2.58,2.26,2.58Z"></path><path class="cls-11" d="M197.56,132.15h.78v1.09c.43-.78,1.31-1.18,2.02-1.18.33,0,.66.07.99.24l-.39.7c-.21-.1-.51-.17-.77-.17-.68,0-1.46.36-1.74,1.3-.08.27-.12.57-.12,1.27v3.15h-.78v-6.41Z"></path><path class="cls-11" d="M201.94,135.34c0-1.92,1.25-3.29,3.05-3.29s3.04,1.36,3.04,3.29-1.27,3.3-3.04,3.3-3.05-1.36-3.05-3.3ZM204.99,137.95c1.37,0,2.26-1.04,2.26-2.61s-.9-2.61-2.26-2.61-2.28,1.05-2.28,2.61.9,2.61,2.28,2.61Z"></path><path class="cls-11" d="M209.48,135.34c0-1.92,1.25-3.29,3.05-3.29s3.04,1.36,3.04,3.29-1.27,3.3-3.04,3.3-3.05-1.36-3.05-3.3ZM212.53,137.95c1.37,0,2.26-1.04,2.26-2.61s-.9-2.61-2.26-2.61-2.28,1.05-2.28,2.61.9,2.61,2.28,2.61Z"></path><path class="cls-11" d="M217.32,132.15h.78v1.1c.38-.85,1.11-1.19,1.88-1.19.91,0,1.57.4,1.89,1.25.4-.83,1.09-1.25,2-1.25,1.55,0,2.13,1.16,2.13,2.68v3.82h-.78v-3.64c0-1.33-.39-2.18-1.52-2.18-1.02,0-1.65.77-1.65,2.26v3.57h-.78v-3.76c0-1.4-.52-2.07-1.5-2.07-1.03,0-1.67.79-1.67,2.26v3.57h-.78v-6.41Z"></path></g><g><path class="cls-11" d="M317.27,167.87h.81v8.33h4.18v.73h-4.99v-9.06Z"></path><path class="cls-11" d="M323.4,167.87h.94v1.39h-.94v-1.39ZM323.48,170.53h.77v6.41h-.77v-6.41Z"></path><path class="cls-11" d="M325.65,170.53h.86l2.1,5.42,2.11-5.42h.85l-2.61,6.41h-.68l-2.63-6.41Z"></path><path class="cls-11" d="M332.9,167.87h.94v1.39h-.94v-1.39ZM332.99,170.53h.77v6.41h-.77v-6.41Z"></path><path class="cls-11" d="M335.8,170.53h.78v1.05c.4-.76,1.12-1.14,2.01-1.14,1.38,0,2.2.81,2.2,2.51v3.99h-.78v-3.71c0-1.45-.55-2.11-1.61-2.11-1.16,0-1.83.79-1.83,2.55v3.27h-.78v-6.41Z"></path><path class="cls-11" d="M342.25,177.7s0-.1.03-.26l1.11-.88c-.57-.22-.96-.59-.96-1.26,0-.53.27-.9.72-1.2-.36-.37-.56-.87-.56-1.45,0-1.3,1.04-2.2,2.39-2.2.64,0,1.22.21,1.64.59l1.02-.86.4.49-1,.88c.19.33.3.71.3,1.14,0,1.28-.96,2.13-2.33,2.13-.53,0-.99-.12-1.37-.34-.31.18-.45.42-.45.72,0,.66.63.83,1.62.98,1.6.25,2.99.44,2.99,1.75,0,1.16-1.05,1.78-2.7,1.78-1.82,0-2.85-.7-2.85-2ZM345.11,179.09c1.09,0,1.92-.34,1.92-1.08,0-.86-1.16-.96-2.31-1.14-.31-.05-.6-.1-.89-.17l-.8.92c-.01.09-.01.11-.01.15,0,.9.79,1.33,2.09,1.33ZM344.98,174.16c.98,0,1.59-.65,1.59-1.53s-.64-1.56-1.58-1.56-1.62.65-1.62,1.55.63,1.55,1.61,1.55Z"></path><path class="cls-11" d="M352.74,167.87h2.52c1.99,0,2.97.93,2.97,2.5,0,1.25-.64,2.07-1.85,2.38l2.44,4.19h-.92l-2.34-4.07c-.21,0-.44,0-.65,0h-1.36v4.06h-.81v-9.06ZM355.18,172.16c1.38,0,2.24-.55,2.24-1.78s-.88-1.77-2.24-1.77h-1.64v3.56h1.64Z"></path><path class="cls-11" d="M359.74,173.72c0-1.92,1.25-3.29,3.05-3.29s3.04,1.37,3.04,3.29-1.27,3.3-3.04,3.3-3.05-1.36-3.05-3.3ZM362.79,176.33c1.37,0,2.26-1.04,2.26-2.61s-.9-2.61-2.26-2.61-2.28,1.05-2.28,2.61.9,2.61,2.28,2.61Z"></path><path class="cls-11" d="M367.28,173.72c0-1.92,1.25-3.29,3.05-3.29s3.04,1.37,3.04,3.29-1.27,3.3-3.04,3.3-3.05-1.36-3.05-3.3ZM370.33,176.33c1.37,0,2.26-1.04,2.26-2.61s-.9-2.61-2.26-2.61-2.28,1.05-2.28,2.61.9,2.61,2.28,2.61Z"></path><path class="cls-11" d="M375.12,170.53h.78v1.1c.38-.85,1.11-1.19,1.88-1.19.91,0,1.57.4,1.89,1.25.4-.83,1.09-1.25,2-1.25,1.55,0,2.13,1.16,2.13,2.69v3.82h-.78v-3.64c0-1.33-.39-2.18-1.52-2.18-1.02,0-1.65.77-1.65,2.26v3.57h-.78v-3.76c0-1.4-.52-2.07-1.5-2.07-1.03,0-1.67.79-1.67,2.26v3.57h-.78v-6.41Z"></path></g><g><path class="cls-11" d="M426.58,343.13h2.43c2.94,0,4.62,1.68,4.62,4.6s-1.64,4.46-4.63,4.46h-2.42v-9.06ZM428.93,351.45c2.5,0,3.89-1.16,3.89-3.74s-1.4-3.83-3.82-3.83h-1.61v7.57h1.54Z"></path><path class="cls-11" d="M435.24,343.13h.94v1.39h-.94v-1.39ZM435.32,345.78h.77v6.41h-.77v-6.41Z"></path><path class="cls-11" d="M438.13,345.78h.78v1.05c.4-.76,1.12-1.14,2.01-1.14,1.38,0,2.2.81,2.2,2.51v3.99h-.78v-3.71c0-1.45-.55-2.11-1.61-2.11-1.16,0-1.83.79-1.83,2.55v3.27h-.78v-6.41Z"></path><path class="cls-11" d="M445.01,343.13h.94v1.39h-.94v-1.39ZM445.09,345.78h.77v6.41h-.77v-6.41Z"></path><path class="cls-11" d="M447.9,345.78h.78v1.05c.4-.76,1.12-1.14,2.01-1.14,1.38,0,2.2.81,2.2,2.51v3.99h-.78v-3.71c0-1.45-.55-2.11-1.61-2.11-1.16,0-1.83.79-1.83,2.55v3.27h-.78v-6.41Z"></path><path class="cls-11" d="M454.36,352.95s0-.1.03-.26l1.11-.88c-.57-.22-.96-.59-.96-1.26,0-.53.27-.9.72-1.2-.36-.37-.56-.87-.56-1.45,0-1.3,1.04-2.2,2.39-2.2.64,0,1.22.21,1.64.58l1.02-.86.4.49-1,.88c.19.33.3.71.3,1.14,0,1.28-.96,2.13-2.33,2.13-.53,0-.99-.12-1.37-.34-.31.17-.45.42-.45.71,0,.66.63.83,1.62.98,1.6.25,2.99.44,2.99,1.75,0,1.16-1.05,1.78-2.7,1.78-1.82,0-2.85-.7-2.85-2ZM457.22,354.35c1.09,0,1.92-.34,1.92-1.08,0-.86-1.16-.96-2.31-1.14-.31-.05-.6-.1-.89-.17l-.8.92c-.01.09-.01.11-.01.15,0,.9.79,1.33,2.09,1.33ZM457.09,349.42c.98,0,1.59-.65,1.59-1.53s-.64-1.56-1.58-1.56-1.62.65-1.62,1.55.63,1.55,1.61,1.55Z"></path><path class="cls-11" d="M464.84,343.13h2.52c1.99,0,2.97.93,2.97,2.5,0,1.25-.64,2.07-1.85,2.38l2.44,4.19h-.92l-2.34-4.07c-.21,0-.44,0-.65,0h-1.36v4.06h-.81v-9.06ZM467.28,347.42c1.38,0,2.24-.55,2.24-1.78s-.88-1.77-2.24-1.77h-1.64v3.56h1.64Z"></path><path class="cls-11" d="M471.85,348.98c0-1.92,1.25-3.29,3.05-3.29s3.04,1.37,3.04,3.29-1.27,3.3-3.04,3.3-3.05-1.37-3.05-3.3ZM474.89,351.59c1.37,0,2.26-1.04,2.26-2.61s-.9-2.61-2.26-2.61-2.28,1.05-2.28,2.61.9,2.61,2.28,2.61Z"></path><path class="cls-11" d="M479.38,348.98c0-1.92,1.25-3.29,3.05-3.29s3.04,1.37,3.04,3.29-1.27,3.3-3.04,3.3-3.05-1.37-3.05-3.3ZM482.43,351.59c1.37,0,2.26-1.04,2.26-2.61s-.9-2.61-2.26-2.61-2.28,1.05-2.28,2.61.9,2.61,2.28,2.61Z"></path><path class="cls-11" d="M487.22,345.78h.78v1.1c.38-.84,1.11-1.19,1.88-1.19.91,0,1.57.4,1.89,1.25.4-.83,1.09-1.25,2-1.25,1.55,0,2.13,1.16,2.13,2.68v3.82h-.78v-3.64c0-1.33-.39-2.18-1.52-2.18-1.02,0-1.65.77-1.65,2.26v3.57h-.78v-3.76c0-1.4-.52-2.07-1.5-2.07-1.03,0-1.67.79-1.67,2.26v3.57h-.78v-6.41Z"></path></g><g><path class="cls-11" d="M415.93,551.03h2.72c1.68,0,2.68.84,2.68,2.25,0,.94-.46,1.68-1.24,2,1.1.25,1.7,1.07,1.7,2.31,0,1.61-1.02,2.5-2.88,2.5h-2.97v-9.06ZM418.9,555.03c.98,0,1.63-.64,1.63-1.64s-.69-1.61-1.88-1.61h-1.91v3.26h2.16ZM418.84,559.34c1.42,0,2.14-.6,2.14-1.79,0-1.13-.66-1.79-1.79-1.79h-2.46v3.58h2.11Z"></path><path class="cls-11" d="M423.22,556.93c0-1.84.99-3.34,2.81-3.34,1.96,0,2.76,1.53,2.76,2.94,0,.1-.01.4-.04.55h-4.76c.03,1.51.84,2.39,2.14,2.39.82,0,1.35-.23,1.91-.83l.55.49c-.73.75-1.43,1.05-2.46,1.05-1.89,0-2.91-1.41-2.91-3.25ZM428.04,556.5c0-.08,0-.16,0-.24,0-.92-.58-2.01-2-2.01-1.23,0-1.98.98-2.07,2.26h4.06Z"></path><path class="cls-11" d="M430.19,556.88c0-1.96,1.29-3.29,2.92-3.29,1.05,0,1.87.54,2.29,1.36v-3.92h.77v9.06h-.77v-1.26c-.44.84-1.25,1.35-2.29,1.35-1.72,0-2.92-1.42-2.92-3.3ZM433.23,559.46c1.3,0,2.23-1.08,2.23-2.58s-.93-2.58-2.23-2.58-2.26,1.09-2.26,2.58.95,2.58,2.26,2.58Z"></path><path class="cls-11" d="M438.21,553.68h.78v1.09c.43-.78,1.31-1.18,2.02-1.18.33,0,.66.07.99.24l-.39.7c-.21-.1-.51-.17-.77-.17-.68,0-1.46.36-1.74,1.3-.08.27-.12.57-.12,1.27v3.15h-.78v-6.41Z"></path><path class="cls-11" d="M442.59,556.88c0-1.92,1.25-3.29,3.05-3.29s3.04,1.37,3.04,3.29-1.27,3.3-3.04,3.3-3.05-1.37-3.05-3.3ZM445.64,559.49c1.37,0,2.26-1.04,2.26-2.61s-.9-2.61-2.26-2.61-2.28,1.05-2.28,2.61.9,2.61,2.28,2.61Z"></path><path class="cls-11" d="M450.12,556.88c0-1.92,1.25-3.29,3.05-3.29s3.04,1.37,3.04,3.29-1.27,3.3-3.04,3.3-3.05-1.37-3.05-3.3ZM453.17,559.49c1.37,0,2.26-1.04,2.26-2.61s-.9-2.61-2.26-2.61-2.28,1.05-2.28,2.61.9,2.61,2.28,2.61Z"></path><path class="cls-11" d="M457.96,553.68h.78v1.1c.38-.84,1.11-1.19,1.88-1.19.91,0,1.57.4,1.89,1.25.4-.83,1.09-1.25,2-1.25,1.55,0,2.13,1.16,2.13,2.68v3.82h-.78v-3.64c0-1.33-.39-2.18-1.52-2.18-1.02,0-1.65.77-1.65,2.26v3.57h-.78v-3.76c0-1.4-.52-2.07-1.5-2.07-1.03,0-1.67.79-1.67,2.26v3.57h-.78v-6.41Z"></path></g><g><path class="cls-11" d="M508.96,167.87h2.72c1.68,0,2.68.84,2.68,2.25,0,.94-.46,1.68-1.24,2,1.1.25,1.7,1.07,1.7,2.31,0,1.61-1.02,2.5-2.88,2.5h-2.97v-9.06ZM511.93,171.88c.98,0,1.63-.64,1.63-1.64s-.69-1.61-1.88-1.61h-1.91v3.26h2.16ZM511.88,176.19c1.42,0,2.14-.6,2.14-1.79,0-1.13-.66-1.79-1.79-1.79h-2.46v3.58h2.11Z"></path><path class="cls-11" d="M520.79,175.73c-.43.82-1.25,1.29-2.25,1.29-1.44,0-2.31-.77-2.31-1.94,0-.69.29-1.16.72-1.44.46-.31,1.09-.42,1.77-.42h2.05v-.28c0-1.19-.62-1.83-1.82-1.83-.79,0-1.4.29-1.98,1.02l-.56-.48c.68-.85,1.53-1.22,2.59-1.22,1.63,0,2.54.89,2.54,2.51v3.99h-.71l-.04-1.2ZM518.61,176.38c1.18,0,2.17-.93,2.17-2.2v-.36h-1.95c-.51,0-1.03.08-1.37.33-.28.21-.44.51-.44.94,0,.79.6,1.3,1.6,1.3Z"></path><path class="cls-11" d="M523.37,175.6v-7.73h.77v7.59c0,.6.23.85.64.85.17,0,.38-.04.61-.12v.67c-.29.11-.6.17-.84.17-.72,0-1.18-.44-1.18-1.42Z"></path><path class="cls-11" d="M526.34,173.72c0-1.83,1.06-3.29,2.86-3.29,1.17,0,2.09.59,2.51,1.74l-.7.27c-.27-.82-.9-1.33-1.81-1.33-1.42,0-2.09,1.25-2.09,2.61s.68,2.62,2.09,2.62c.91,0,1.53-.51,1.81-1.33l.7.27c-.42,1.16-1.34,1.75-2.51,1.75-1.8,0-2.86-1.46-2.86-3.3Z"></path><path class="cls-11" d="M532.94,173.72c0-1.92,1.25-3.29,3.05-3.29s3.04,1.37,3.04,3.29-1.27,3.3-3.04,3.3-3.05-1.36-3.05-3.3ZM535.99,176.33c1.37,0,2.26-1.04,2.26-2.61s-.9-2.61-2.26-2.61-2.28,1.05-2.28,2.61.9,2.61,2.28,2.61Z"></path><path class="cls-11" d="M540.78,170.53h.78v1.05c.4-.76,1.12-1.14,2.01-1.14,1.38,0,2.2.81,2.2,2.51v3.99h-.78v-3.71c0-1.45-.55-2.11-1.61-2.11-1.16,0-1.83.79-1.83,2.55v3.27h-.78v-6.41Z"></path><path class="cls-11" d="M549.5,176.73l-2.55-6.21h.86l2.1,5.42,2.11-5.42h.85l-3.69,9.05h-.84l1.17-2.84Z"></path></g><g><path class="cls-11" d="M298.46,429.12h.81v4.86l4.65-4.86h1.09l-3.45,3.54,3.48,5.52h-.95l-3.11-4.93-1.71,1.75v3.17h-.81v-9.06Z"></path><path class="cls-11" d="M306.19,429.12h.94v1.39h-.94v-1.39ZM306.28,431.78h.77v6.41h-.77v-6.41Z"></path><path class="cls-11" d="M309.84,436.7v-4.31h-1.42v-.62h1.42v-1.85l.79-.46v2.31h1.54v.62h-1.54v4.12c0,.71.22,1.11.81,1.11.19,0,.46-.04.73-.12v.62c-.32.1-.64.16-.92.16-.85,0-1.4-.49-1.4-1.57Z"></path><path class="cls-11" d="M313.2,434.98c0-1.83,1.06-3.29,2.86-3.29,1.17,0,2.09.58,2.51,1.74l-.7.27c-.27-.82-.9-1.33-1.81-1.33-1.42,0-2.09,1.25-2.09,2.61s.68,2.62,2.09,2.62c.91,0,1.53-.51,1.81-1.33l.7.27c-.42,1.16-1.34,1.75-2.51,1.75-1.8,0-2.86-1.46-2.86-3.3Z"></path><path class="cls-11" d="M320.2,429.12h.78v3.69c.4-.75,1.1-1.13,2.01-1.13,1.4,0,2.2.85,2.2,2.51v3.99h-.78v-3.71c0-1.43-.53-2.11-1.61-2.11-1.18,0-1.83.83-1.83,2.55v3.27h-.78v-9.06Z"></path><path class="cls-11" d="M326.83,435.03c0-1.84.99-3.34,2.81-3.34,1.96,0,2.76,1.53,2.76,2.94,0,.1-.01.4-.04.55h-4.76c.03,1.51.84,2.39,2.14,2.39.82,0,1.35-.23,1.91-.83l.55.49c-.73.75-1.43,1.05-2.46,1.05-1.89,0-2.91-1.41-2.91-3.25ZM331.65,434.6c0-.08,0-.16,0-.24,0-.92-.58-2.01-2-2.01-1.23,0-1.98.98-2.07,2.26h4.06Z"></path><path class="cls-11" d="M334.13,431.78h.78v1.05c.4-.76,1.12-1.14,2.01-1.14,1.38,0,2.2.81,2.2,2.51v3.99h-.78v-3.71c0-1.45-.55-2.11-1.61-2.11-1.16,0-1.83.79-1.83,2.55v3.27h-.78v-6.41Z"></path></g><g><path class="cls-11" d="M60.74,584.44h5.86v.73h-5.06v3.37h4.39v.73h-4.39v4.24h-.81v-9.06Z"></path><path class="cls-11" d="M67.92,592.17v-7.73h.77v7.59c0,.6.23.84.64.84.17,0,.38-.04.61-.12v.67c-.29.11-.6.17-.84.17-.72,0-1.18-.44-1.18-1.42Z"></path><path class="cls-11" d="M70.89,590.34c0-1.84.99-3.34,2.81-3.34,1.96,0,2.76,1.53,2.76,2.94,0,.1-.01.4-.04.55h-4.76c.03,1.51.84,2.39,2.14,2.39.82,0,1.35-.23,1.91-.83l.55.49c-.73.75-1.43,1.05-2.46,1.05-1.89,0-2.91-1.41-2.91-3.25ZM75.7,589.91c0-.08,0-.16,0-.24,0-.92-.58-2.01-2-2.01-1.23,0-1.98.98-2.07,2.26h4.06Z"></path><path class="cls-11" d="M79.84,590.28l-2.37-3.19h.96l1.92,2.65,1.94-2.65h.94l-2.38,3.19,2.39,3.22h-.96l-1.93-2.67-1.94,2.67h-.94l2.37-3.22Z"></path></g><g><path class="cls-11" d="M85.51,492.45h5.86v.73h-5.06v3.37h4.39v.73h-4.39v4.24h-.81v-9.06Z"></path><path class="cls-11" d="M92.1,498.3c0-1.92,1.25-3.29,3.05-3.29s3.04,1.37,3.04,3.29-1.27,3.3-3.04,3.3-3.05-1.37-3.05-3.3ZM95.15,500.9c1.37,0,2.26-1.04,2.26-2.61s-.9-2.61-2.26-2.61-2.28,1.05-2.28,2.61.9,2.61,2.28,2.61Z"></path><path class="cls-11" d="M101.67,501.31l-2.55-6.21h.86l2.1,5.42,2.11-5.42h.85l-3.69,9.05h-.84l1.17-2.84Z"></path><path class="cls-11" d="M106,498.35c0-1.84.99-3.34,2.81-3.34,1.96,0,2.76,1.53,2.76,2.94,0,.1-.01.4-.04.55h-4.76c.03,1.51.84,2.39,2.14,2.39.82,0,1.35-.23,1.91-.83l.55.49c-.73.75-1.43,1.05-2.46,1.05-1.89,0-2.91-1.41-2.91-3.25ZM110.81,497.92c0-.08,0-.16,0-.24,0-.92-.58-2.01-2-2.01-1.23,0-1.98.98-2.07,2.26h4.06Z"></path><path class="cls-11" d="M113.29,495.1h.78v1.09c.43-.78,1.31-1.18,2.02-1.18.33,0,.66.07.99.24l-.39.7c-.21-.1-.51-.17-.77-.17-.68,0-1.46.36-1.74,1.3-.08.27-.12.57-.12,1.27v3.15h-.78v-6.41Z"></path></g><g><path class="cls-11" d="M130.59,272.18h.65l1.71,6.06,1.76-5.7h.63l1.76,5.7,1.7-6.06h.65l-2.01,6.98h-.63l-1.79-5.71-1.79,5.71h-.64l-2.01-6.98Z"></path><path class="cls-11" d="M140.59,272.18h.62v6.98h-.62v-6.98Z"></path><path class="cls-11" d="M142.64,275.66c0-2.16,1.26-3.58,3.16-3.58,1.35,0,2.39.71,2.84,1.89l-.58.22c-.38-.96-1.17-1.52-2.26-1.52-1.55,0-2.54,1.17-2.54,2.99s.99,3,2.54,3c1.09,0,1.89-.56,2.26-1.52l.58.22c-.45,1.18-1.49,1.9-2.84,1.9-1.89,0-3.16-1.42-3.16-3.59Z"></path></g><g><path class="cls-11" d="M310.47,581.62h.65l1.71,6.06,1.76-5.7h.63l1.76,5.7,1.7-6.06h.65l-2.01,6.98h-.63l-1.79-5.71-1.79,5.71h-.64l-2.01-6.98Z"></path><path class="cls-11" d="M320.47,581.62h.62v6.98h-.62v-6.98Z"></path><path class="cls-11" d="M322.52,585.1c0-2.16,1.26-3.58,3.16-3.58,1.35,0,2.39.71,2.84,1.89l-.58.22c-.38-.96-1.17-1.52-2.26-1.52-1.55,0-2.54,1.17-2.54,2.99s.99,3,2.54,3c1.09,0,1.89-.56,2.26-1.52l.58.21c-.45,1.18-1.49,1.9-2.84,1.9-1.89,0-3.16-1.42-3.16-3.59Z"></path></g><path class="cls-11" d="M175.92,438.06h.65l1.71,6.06,1.76-5.7h.63l1.76,5.7,1.7-6.06h.65l-2.01,6.98h-.63l-1.79-5.71-1.79,5.71h-.64l-2.01-6.98Z"></path><path class="cls-11" d="M210.27,438.06h1.87c2.26,0,3.56,1.29,3.56,3.54s-1.27,3.43-3.57,3.43h-1.86v-6.98ZM212.07,444.46c1.92,0,2.99-.89,2.99-2.88s-1.08-2.95-2.94-2.95h-1.24v5.83h1.19Z"></path><path class="cls-11" d="M245.51,299.2c0-2.17,1.27-3.59,3.16-3.59s3.18,1.42,3.18,3.59-1.27,3.58-3.18,3.58-3.16-1.42-3.16-3.58ZM248.66,302.19c1.57,0,2.55-1.16,2.55-2.99s-.99-3-2.55-3-2.54,1.15-2.54,3,.99,2.99,2.54,2.99Z"></path><path class="cls-11" d="M255.54,294.7h.48l-3.55,9.08h-.48l3.55-9.08Z"></path><path class="cls-11" d="M257.24,295.7h.93l2.35,5.66,2.35-5.66h.92v6.98h-.62v-6.16l-2.35,5.59h-.61l-2.36-5.59v6.16h-.62v-6.98Z"></path><g><path class="cls-11" d="M248.22,434.89h1.94c1.53,0,2.29.72,2.29,1.92,0,.97-.5,1.6-1.43,1.83l1.88,3.22h-.71l-1.8-3.13c-.16,0-.34,0-.5,0h-1.05v3.13h-.62v-6.98ZM250.11,438.19c1.06,0,1.73-.43,1.73-1.37s-.68-1.37-1.73-1.37h-1.26v2.74h1.26Z"></path><path class="cls-11" d="M254.08,434.89h4.56v.56h-3.94v2.59h3.53v.56h-3.53v2.7h3.94v.56h-4.56v-6.98Z"></path><path class="cls-11" d="M259.93,434.89h4.51v.56h-3.89v2.59h3.38v.56h-3.38v3.26h-.62v-6.98Z"></path></g><g><path class="cls-11" d="M328.17,301.59h.65l1.71,6.06,1.76-5.7h.63l1.76,5.7,1.7-6.06h.65l-2.01,6.98h-.63l-1.79-5.71-1.79,5.71h-.64l-2.01-6.98Z"></path><path class="cls-11" d="M338.17,301.59h4.51v.56h-3.89v2.59h3.38v.56h-3.38v3.26h-.62v-6.98Z"></path></g><g><path class="cls-11" d="M328.24,384.36h1.87c2.26,0,3.56,1.29,3.56,3.54s-1.27,3.43-3.57,3.43h-1.86v-6.98ZM330.04,390.76c1.92,0,2.99-.89,2.99-2.88s-1.08-2.95-2.94-2.95h-1.24v5.83h1.19Z"></path><path class="cls-11" d="M334.32,384.36h.65l1.71,6.06,1.76-5.7h.63l1.76,5.7,1.7-6.06h.65l-2.01,6.98h-.63l-1.79-5.71-1.79,5.71h-.64l-2.01-6.98Z"></path></g><path class="cls-11" d="M309.88,533.84h1.94c1.46,0,2.29.69,2.29,1.95s-.83,1.96-2.29,1.96h-1.33v3.07h-.62v-6.98ZM311.76,537.19c1.09,0,1.73-.47,1.73-1.4s-.62-1.39-1.73-1.39h-1.27v2.79h1.27Z"></path><polyline class="cls-1" points="607.8 601.3 593.65 601.3 586.81 618"></polyline><path class="cls-14" d="M585.28,621.74l4.06-4.47s-2.53.73-3.82-1.57l-.24,6.03Z"></path><g><path class="cls-15" d="M614.25,598.13h1.55c1.22,0,1.83.57,1.83,1.54,0,.77-.4,1.28-1.14,1.46l1.5,2.57h-.57l-1.44-2.5c-.13,0-.27,0-.4,0h-.84v2.5h-.5v-5.57ZM615.75,600.77c.85,0,1.38-.34,1.38-1.1s-.54-1.09-1.38-1.09h-1.01v2.19h1.01Z"></path><path class="cls-15" d="M618.63,601.73c0-1.18.77-2.02,1.88-2.02s1.87.84,1.87,2.02-.78,2.03-1.87,2.03-1.88-.84-1.88-2.03ZM620.5,603.33c.84,0,1.39-.64,1.39-1.6s-.55-1.6-1.39-1.6-1.4.64-1.4,1.6.56,1.6,1.4,1.6Z"></path><path class="cls-15" d="M623.34,601.73c0-1.18.77-2.02,1.88-2.02s1.87.84,1.87,2.02-.78,2.03-1.87,2.03-1.88-.84-1.88-2.03ZM625.21,603.33c.84,0,1.39-.64,1.39-1.6s-.55-1.6-1.39-1.6-1.4.64-1.4,1.6.56,1.6,1.4,1.6Z"></path><path class="cls-15" d="M628.56,600.14h-.88v-.38h.88v-.57c0-.82.43-1.12,1.03-1.12.26,0,.47.05.66.15l-.16.36c-.14-.07-.28-.11-.45-.11-.4,0-.6.25-.6.71v.57h.97v.38h-.97v3.56h-.48v-3.56Z"></path></g></g></g></svg> 