<?xml version="1.0" encoding="UTF-8"?> <svg xmlns="http://www.w3.org/2000/svg" xmlns:xlink="http://www.w3.org/1999/xlink" id="Layer_2" data-name="Layer 2" viewBox="0 0 496.11 528.94"><defs><style> .cls-1, .cls-2, .cls-3, .cls-4, .cls-5, .cls-6, .cls-7, .cls-8, .cls-9, .cls-10, .cls-11 { fill: none; } .cls-2 { stroke: #55453d; stroke-width: .12px; } .cls-2, .cls-3, .cls-4, .cls-5, .cls-6, .cls-9, .cls-10 { stroke-linecap: round; stroke-linejoin: round; } .cls-3, .cls-6, .cls-8, .cls-9, .cls-10, .cls-11 { stroke-width: .19px; } .cls-3, .cls-9, .cls-10 { stroke: #75655e; } .cls-4, .cls-5, .cls-6, .cls-7 { stroke: #3a2a22; } .cls-4, .cls-7 { stroke-width: .58px; } .cls-5 { stroke-width: .27px; } .cls-12 { fill: #bc8ebc; } .cls-7, .cls-8, .cls-11 { stroke-miterlimit: 10; } .cls-13 { clip-path: url(#clippath-17); } .cls-14 { clip-path: url(#clippath-19); } .cls-15 { clip-path: url(#clippath-11); } .cls-16 { clip-path: url(#clippath-16); } .cls-17 { clip-path: url(#clippath-18); } .cls-18 { clip-path: url(#clippath-10); } .cls-19 { clip-path: url(#clippath-15); } .cls-20 { clip-path: url(#clippath-13); } .cls-21 { clip-path: url(#clippath-14); } .cls-22 { clip-path: url(#clippath-12); } .cls-23 { clip-path: url(#clippath-3); } .cls-24 { clip-path: url(#clippath-4); } .cls-25 { clip-path: url(#clippath-2); } .cls-26 { clip-path: url(#clippath-7); } .cls-27 { clip-path: url(#clippath-6); } .cls-28 { clip-path: url(#clippath-9); } .cls-29 { clip-path: url(#clippath-8); } .cls-30 { clip-path: url(#clippath-5); } .cls-8 { stroke: #bc8ebc; } .cls-9 { stroke-dasharray: 1.2 1.2; } .cls-31 { fill: #fff; } .cls-10 { stroke-dasharray: 4.74 3.95; } .cls-32 { fill: #afa49f; } .cls-33 { fill: #3a2a22; } .cls-34 { fill: #75655e; } .cls-35 { clip-path: url(#clippath); } .cls-11 { stroke: #afa49f; } </style><clipPath id="clippath"><rect class="cls-1" width="494.7" height="503.91"></rect></clipPath><clipPath id="clippath-2"><rect class="cls-1" width="494.7" height="503.91"></rect></clipPath><clipPath id="clippath-3"><rect class="cls-1" width="494.7" height="503.91"></rect></clipPath><clipPath id="clippath-4"><rect class="cls-1" width="494.7" height="503.91"></rect></clipPath><clipPath id="clippath-5"><rect class="cls-1" width="494.7" height="503.91"></rect></clipPath><clipPath id="clippath-6"><rect class="cls-1" width="494.7" height="503.91"></rect></clipPath><clipPath id="clippath-7"><rect class="cls-1" width="494.7" height="503.91"></rect></clipPath><clipPath id="clippath-8"><rect class="cls-1" width="494.7" height="503.91"></rect></clipPath><clipPath id="clippath-9"><rect class="cls-1" width="494.7" height="503.91"></rect></clipPath><clipPath id="clippath-10"><rect class="cls-1" width="494.7" height="503.91"></rect></clipPath><clipPath id="clippath-11"><rect class="cls-1" width="494.7" height="503.91"></rect></clipPath><clipPath id="clippath-12"><rect class="cls-1" width="494.7" height="503.91"></rect></clipPath><clipPath id="clippath-13"><rect class="cls-1" width="494.7" height="503.91"></rect></clipPath><clipPath id="clippath-14"><rect class="cls-1" width="494.7" height="503.91"></rect></clipPath><clipPath id="clippath-15"><rect class="cls-1" width="494.7" height="503.91"></rect></clipPath><clipPath id="clippath-16"><rect class="cls-1" width="494.7" height="503.91"></rect></clipPath><clipPath id="clippath-17"><rect class="cls-1" width="494.7" height="503.91"></rect></clipPath><clipPath id="clippath-18"><rect class="cls-1" width="494.7" height="503.91"></rect></clipPath><clipPath id="clippath-19"><rect class="cls-1" width="494.7" height="503.91"></rect></clipPath></defs><g id="Layer_1-2" data-name="Layer 1"><g><g class="cls-35"><path class="cls-31" d="M354.39,58.95s-100.62-24.78-150.94-34.33c-28.9-5.9-68.99-12.96-99.29-18.13-12.39-2.11-23.14-3.91-30.82-5.18h0v254.05h-19.18v104.32H17.87v64.9h-8.86v74.3h340.25v3.96h61.45l34.88-305.06h11.74l34.65-94.69-131.41-36.64-6.17-1.72v-5.78Z"></path></g><line class="cls-6" x1="493.82" y1="489.73" x2="412.21" y2="489.73"></line><line class="cls-6" x1="410.96" y1="500.59" x2="493.82" y2="500.59"></line><polyline class="cls-5" points="354.39 68.45 487.28 105.51 454.82 194.21 445.99 194.21"></polyline><polyline class="cls-5" points="446.14 192.91 453.91 192.91 485.59 106.38 354.39 69.79"></polyline><g class="cls-25"><path class="cls-2" d="M310.56,370.6c0,17.88-14.39,30.42-32.14,30.42"></path><path class="cls-2" d="M167.42,211.28c0-17.88,14.39-30.42,32.14-30.42"></path><path class="cls-2" d="M367.24,160.77c17.88,0,30.42,14.39,30.42,32.14"></path><path class="cls-2" d="M61.68,417.04c0-20.43-16.56-34.75-36.99-34.75"></path></g><line class="cls-2" x1="24.69" y1="417.04" x2="24.69" y2="382.29"></line><line class="cls-2" x1="17.87" y1="419.33" x2="17.87" y2="382.29"></line><g class="cls-23"><path class="cls-2" d="M175.25,446.39c-17.88,0-30.42-14.39-30.42-32.14"></path><path class="cls-2" d="M179.09,252.42c-17.88,0-30.42-14.39-30.42-32.14"></path></g><rect class="cls-5" x="29.23" y="428.7" width="32.52" height="1.73"></rect><polyline class="cls-5" points="45.49 428.7 45.49 426.97 78 426.97 78 428.7 61.74 428.7"></polyline><rect class="cls-5" x="87.49" y="365.05" width="30.83" height="1.73"></rect><rect class="cls-5" x="278.42" y="368.87" width="32.14" height="1.73"></rect><rect class="cls-5" x="167.42" y="211.28" width="32.14" height="1.73"></rect><rect class="cls-5" x="365.52" y="160.77" width="1.73" height="32.14"></rect><rect class="cls-5" x="274.52" y="438.55" width="1.73" height="32.14"></rect><rect class="cls-5" x="24.69" y="417.04" width="36.99" height="2.24"></rect><rect class="cls-5" x="127.85" y="364.68" width="54.32" height="2.1"></rect><rect class="cls-5" x="141" y="181.57" width="1.95" height="32.14"></rect><line class="cls-5" x1="155.01" y1="364.68" x2="155.01" y2="366.78"></line><rect class="cls-5" x="179.09" y="220.28" width="1.73" height="32.14"></rect><rect class="cls-5" x="175.25" y="414.25" width="1.72" height="32.14"></rect><polyline class="cls-3" points="274.14 229.19 274.14 228.61 273.56 228.61"></polyline><line class="cls-9" x1="272.36" y1="228.61" x2="253.79" y2="228.61"></line><polyline class="cls-3" points="253.19 228.61 252.6 228.61 252.6 229.19"></polyline><line class="cls-9" x1="252.6" y1="230.39" x2="252.6" y2="248.96"></line><polyline class="cls-3" points="252.6 249.56 252.6 250.14 253.19 250.14"></polyline><line class="cls-9" x1="254.39" y1="250.14" x2="272.96" y2="250.14"></line><polyline class="cls-3" points="273.56 250.14 274.14 250.14 274.14 249.56"></polyline><line class="cls-9" x1="274.14" y1="248.36" x2="274.14" y2="229.79"></line><polyline class="cls-3" points="274.14 293.69 274.14 293.11 273.56 293.11"></polyline><line class="cls-9" x1="272.36" y1="293.11" x2="253.79" y2="293.11"></line><polyline class="cls-3" points="253.19 293.11 252.6 293.11 252.6 293.69"></polyline><line class="cls-9" x1="252.6" y1="294.89" x2="252.6" y2="313.46"></line><polyline class="cls-3" points="252.6 314.06 252.6 314.64 253.19 314.64"></polyline><line class="cls-9" x1="254.39" y1="314.64" x2="272.96" y2="314.64"></line><polyline class="cls-3" points="273.56 314.64 274.14 314.64 274.14 314.06"></polyline><line class="cls-9" x1="274.14" y1="312.86" x2="274.14" y2="294.29"></line><line class="cls-3" x1="202.66" y1="248.48" x2="202.66" y2="250.82"></line><line class="cls-10" x1="202.66" y1="254.77" x2="202.66" y2="322.35"></line><line class="cls-3" x1="202.66" y1="324.32" x2="202.66" y2="326.66"></line><line class="cls-5" x1="92.42" y1="262.17" x2="92.42" y2="320.96"></line><line class="cls-5" x1="92.42" y1="262.17" x2="92.42" y2="321.59"></line><line class="cls-5" x1="91.42" y1="262.17" x2="91.42" y2="321.59"></line><line class="cls-5" x1="91.42" y1="265.82" x2="92.42" y2="265.82"></line><line class="cls-5" x1="91.42" y1="295.46" x2="92.42" y2="295.46"></line><line class="cls-5" x1="211.96" y1="359.67" x2="211.95" y2="220.28"></line><line class="cls-5" x1="211.95" y1="248.48" x2="190.56" y2="248.48"></line><line class="cls-5" x1="211.96" y1="326.66" x2="190.56" y2="326.66"></line><line class="cls-5" x1="210" y1="248.48" x2="210" y2="220.28"></line><line class="cls-5" x1="210" y1="359.67" x2="210" y2="326.66"></line><rect class="cls-5" x="252.6" y="225.86" width="37.66" height="91.51"></rect><rect class="cls-5" x="155.79" y="330.91" width="23.87" height="29.66"></rect><rect class="cls-5" x="130.36" y="330.91" width="23.87" height="29.66"></rect><g class="cls-24"><rect class="cls-5" x="268.33" y="277.42" width="7.62" height="1.36" rx=".46" ry=".46"></rect><path class="cls-5" d="M263.73,278.1c0,.39-.31.7-.7.7s-.7-.31-.7-.7.31-.7.7-.7.7.31.7.7Z"></path></g><polyline class="cls-5" points="274.93 278.78 274.93 280.67 273.72 280.67 273.72 278.78"></polyline><line class="cls-5" x1="273.72" y1="279.99" x2="274.93" y2="279.99"></line><polyline class="cls-5" points="271.92 278.78 271.92 288.18 254.95 288.18 254.95 268.02 271.92 268.02 271.92 277.42"></polyline><polyline class="cls-5" points="271.08 277.42 271.08 268.86 255.79 268.86 255.79 287.34 271.08 287.34 271.08 278.78"></polyline><g class="cls-30"><path class="cls-5" d="M77.82,271.47c0,.52-.42.95-.95.95s-.94-.42-.94-.95.42-.95.94-.95.95.42.95.95Z"></path><path class="cls-5" d="M80.92,271.47c0,2.23-1.81,4.04-4.04,4.04s-4.04-1.81-4.04-4.04,1.81-4.04,4.04-4.04,4.04,1.81,4.04,4.04Z"></path></g><polyline class="cls-5" points="184.72 302.08 124.4 302.08 124.4 321.69"></polyline><g class="cls-27"><path class="cls-5" d="M140.58,315.38h-7.7c-.31,0-.56-.25-.56-.56v-8.5c0-.31.25-.56.56-.56h16.24c.31,0,.56.25.56.56v8.5c0,.31-.25.56-.56.56h-7.4"></path></g><rect class="cls-5" x="140.58" y="313.49" width="1.15" height="4.59"></rect><g class="cls-26"><path class="cls-5" d="M141.81,310.57c0,.36-.29.66-.66.66s-.66-.29-.66-.66.3-.66.66-.66.66.29.66.66Z"></path><path class="cls-5" d="M167.69,315.38h-7.7c-.31,0-.56-.25-.56-.56v-8.5c0-.31.25-.56.56-.56h16.24c.31,0,.56.25.56.56v8.5c0,.31-.25.56-.56.56h-7.4"></path></g><rect class="cls-5" x="167.69" y="313.49" width="1.15" height="4.59"></rect><g class="cls-29"><path class="cls-5" d="M168.92,310.57c0,.36-.29.66-.66.66s-.66-.29-.66-.66.3-.66.66-.66.66.29.66.66Z"></path></g><line class="cls-5" x1="61" y1="311.15" x2="91.42" y2="311.15"></line><g class="cls-28"><rect class="cls-5" x="101.55" y="315.78" width="13.73" height="5.81" rx=".84" ry=".84"></rect><path class="cls-5" d="M111.89,312.55c.21,0,.42-.09.57-.25,1.47-1.63,2.41-4.13,2.41-6.94,0-4.92-2.89-8.91-6.46-8.91s-6.45,3.99-6.45,8.91c0,2.8.94,5.31,2.41,6.94.15.17.36.25.57.25h6.96Z"></path></g><line class="cls-5" x1="114.87" y1="305.36" x2="114.87" y2="315.9"></line><line class="cls-5" x1="101.96" y1="305.36" x2="101.96" y2="315.9"></line><g class="cls-18"><rect class="cls-5" x="104.9" y="470.05" width="5.81" height="13.73" rx=".84" ry=".84"></rect><path class="cls-5" d="M113.95,480.39c0,.21.09.42.25.57,1.63,1.47,4.13,2.41,6.94,2.41,4.92,0,8.91-2.89,8.91-6.45,0-3.57-3.99-6.46-8.91-6.46-2.8,0-5.3.94-6.94,2.41-.16.15-.25.36-.25.57v6.96Z"></path></g><line class="cls-5" x1="121.14" y1="483.37" x2="110.59" y2="483.37"></line><line class="cls-5" x1="121.14" y1="470.46" x2="110.59" y2="470.46"></line><polyline class="cls-5" points="104.9 460.58 124.42 460.58 124.42 414.25"></polyline><g class="cls-15"><path class="cls-5" d="M111.19,436.99v-7.7c0-.31.25-.56.56-.56h8.5c.31,0,.56.25.56.56v16.24c0,.31-.25.56-.56.56h-8.5c-.31,0-.56-.25-.56-.56v-7.4"></path></g><rect class="cls-5" x="108.5" y="436.99" width="4.59" height="1.15"></rect><g class="cls-22"><path class="cls-5" d="M116.01,438.22c-.36,0-.66-.29-.66-.66s.3-.66.66-.66.66.29.66.66-.3.66-.66.66Z"></path></g><line class="cls-5" x1="215.25" y1="410.35" x2="274.52" y2="410.35"></line><line class="cls-5" x1="193.29" y1="479.8" x2="195.79" y2="479.8"></line><g class="cls-20"><path class="cls-5" d="M196.47,479.8h9.05c1.07,0,1.95-.87,1.95-1.95v-48.23c0-1.07-.87-1.95-1.95-1.95h-18.75c-1.08,0-1.95.87-1.95,1.95v48.23c0,1.08.87,1.95,1.95,1.95h6.53"></path><path class="cls-5" d="M195.79,482.94v-8.48c0-.18.15-.34.34-.34s.34.15.34.34v8.43"></path><path class="cls-5" d="M196.47,475.31c.36-.13.61-.48.61-.88,0-.52-.42-.94-.94-.94s-.94.42-.94.94c0,.4.25.74.6.88"></path><path class="cls-5" d="M196.46,478.46c2.08-.17,3.71-1.91,3.71-4.03,0-2.23-1.81-4.04-4.04-4.04s-4.04,1.81-4.04,4.04c0,2.12,1.63,3.85,3.7,4.03"></path></g><rect class="cls-5" x="194.15" y="482.94" width="3.96" height=".75"></rect><line class="cls-5" x1="181.92" y1="483.69" x2="181.92" y2="424.23"></line><line class="cls-5" x1="180.92" y1="483.69" x2="180.92" y2="424.27"></line><line class="cls-5" x1="180.92" y1="480.04" x2="181.92" y2="480.04"></line><line class="cls-5" x1="180.92" y1="450.4" x2="181.92" y2="450.4"></line><rect class="cls-5" x="192.02" y="273.42" width="18.94" height="28.84"></rect><rect class="cls-5" x="192.86" y="274.26" width="17.25" height="27.16"></rect><g class="cls-21"><path class="cls-5" d="M209.53,287.84c0,.55-.45,1-1,1s-1-.45-1-1,.45-1,1-1c.55,0,1,.45,1,1Z"></path></g><line class="cls-5" x1="210.11" y1="301.41" x2="210.96" y2="302.25"></line><line class="cls-5" x1="210.11" y1="274.26" x2="210.95" y2="273.41"></line><line class="cls-5" x1="192.86" y1="274.26" x2="192.02" y2="273.42"></line><line class="cls-5" x1="192.86" y1="301.42" x2="192.02" y2="302.26"></line><g class="cls-19"><polygon class="cls-5" points="208.53 287.01 207.7 287.84 208.53 288.66 209.35 287.84 208.53 287.01"></polygon></g><line class="cls-5" x1="207.7" y1="287.84" x2="209.35" y2="287.84"></line><g class="cls-16"><path class="cls-6" d="M254.52,481.49c.02,1.18.04,2.36.1,3.57.03.62.07,1.25.1,1.84.03.45.05.87.13,1.39.07.51.19,1.11-.18,1.35-.09.05-.2.09-.3.1-.6.05-.7-.92-.75-1.75-.11-1.83.03-2.91.12-4.24.05-.71.08-1.48.11-2.25-.03-.77-.06-1.55-.11-2.25-.09-1.33-.24-2.41-.12-4.24.05-.82.15-1.8.75-1.75.1,0,.21.04.3.1.37.24.25.84.18,1.35-.08.52-.1.95-.13,1.39-.03.59-.07,1.22-.1,1.84-.06,1.21-.08,2.39-.1,3.57Z"></path><path class="cls-6" d="M250.86,481.49c.02,1.18.04,2.36.1,3.57.03.62.07,1.25.1,1.84.03.45.05.87.13,1.39.07.51.19,1.11-.18,1.35-.09.05-.2.09-.3.1-.6.05-.7-.92-.75-1.75-.11-1.83.03-2.91.12-4.24.05-.71.08-1.48.11-2.25-.03-.77-.06-1.55-.11-2.25-.09-1.33-.24-2.41-.12-4.24.05-.82.15-1.8.75-1.75.1,0,.21.04.3.1.37.24.25.84.18,1.35-.08.52-.1.95-.13,1.39-.03.59-.07,1.22-.1,1.84-.06,1.21-.08,2.39-.1,3.57Z"></path><path class="cls-6" d="M247.2,481.49c.02,1.18.04,2.36.1,3.57.03.62.07,1.25.1,1.84.03.45.05.87.13,1.39.07.51.19,1.11-.18,1.35-.09.05-.2.09-.3.1-.6.05-.7-.92-.75-1.75-.11-1.83.03-2.91.12-4.24.05-.71.08-1.48.11-2.25-.03-.77-.06-1.55-.11-2.25-.09-1.33-.24-2.41-.12-4.24.05-.82.15-1.8.75-1.75.1,0,.21.04.3.1.37.24.25.84.18,1.35-.08.52-.1.95-.13,1.39-.03.59-.07,1.22-.1,1.84-.06,1.21-.08,2.39-.1,3.57Z"></path><path class="cls-6" d="M226.79,462.14c-1.18.02-2.36.04-3.57.1-.62.03-1.25.07-1.84.1-.45.03-.87.05-1.39.13-.51.07-1.11.19-1.35-.18-.05-.09-.09-.2-.1-.3-.05-.6.92-.7,1.75-.75,1.83-.11,2.92.03,4.24.12.7.05,1.48.08,2.25.11.77-.03,1.55-.06,2.25-.11,1.33-.09,2.41-.24,4.24-.12.82.05,1.79.15,1.74.75,0,.1-.04.21-.1.3-.24.37-.84.25-1.35.18-.52-.08-.95-.1-1.39-.13-.59-.04-1.22-.07-1.84-.1-1.21-.06-2.39-.08-3.57-.1Z"></path><path class="cls-6" d="M226.79,458.48c-1.18.02-2.36.04-3.57.1-.62.03-1.25.07-1.84.1-.45.03-.87.05-1.39.13-.51.07-1.11.19-1.35-.18-.05-.09-.09-.2-.1-.3-.05-.6.92-.7,1.75-.75,1.83-.11,2.92.03,4.24.12.7.05,1.48.08,2.25.11.77-.03,1.55-.06,2.25-.11,1.33-.09,2.41-.24,4.24-.12.82.05,1.79.15,1.74.75,0,.1-.04.21-.1.3-.24.37-.84.25-1.35.18-.52-.08-.95-.1-1.39-.13-.59-.04-1.22-.07-1.84-.1-1.21-.06-2.39-.08-3.57-.1Z"></path><path class="cls-6" d="M226.79,454.82c-1.18.02-2.36.04-3.57.1-.62.03-1.25.07-1.84.1-.45.03-.87.05-1.39.13-.51.07-1.11.19-1.35-.18-.05-.09-.09-.2-.1-.3-.05-.6.92-.7,1.75-.75,1.83-.11,2.92.03,4.24.12.7.05,1.48.08,2.25.11.77-.03,1.55-.06,2.25-.11,1.33-.09,2.41-.24,4.24-.12.82.05,1.79.15,1.74.75,0,.1-.04.21-.1.3-.24.37-.84.25-1.35.18-.52-.08-.95-.1-1.39-.13-.59-.04-1.22-.07-1.84-.1-1.21-.06-2.39-.08-3.57-.1Z"></path><path class="cls-6" d="M106.19,345.85c.02,1.18.04,2.36.1,3.57.03.62.07,1.25.1,1.84.03.45.05.87.13,1.39.07.51.19,1.11-.18,1.35-.09.05-.2.09-.3.1-.6.05-.7-.92-.75-1.75-.11-1.83.03-2.92.12-4.24.05-.7.08-1.48.11-2.25-.03-.77-.06-1.55-.11-2.25-.09-1.33-.24-2.41-.12-4.24.05-.82.15-1.8.75-1.75.1,0,.21.04.3.1.37.24.25.84.18,1.35-.08.52-.1.95-.13,1.39-.03.59-.07,1.22-.1,1.84-.06,1.21-.08,2.39-.1,3.57Z"></path><path class="cls-6" d="M102.53,345.85c.02,1.18.04,2.36.1,3.57.03.62.07,1.25.1,1.84.03.45.05.87.13,1.39.07.51.19,1.11-.18,1.35-.09.05-.2.09-.3.1-.6.05-.7-.92-.75-1.75-.11-1.83.03-2.92.12-4.24.05-.7.08-1.48.11-2.25-.03-.77-.06-1.55-.11-2.25-.09-1.33-.24-2.41-.12-4.24.05-.82.15-1.8.75-1.75.1,0,.21.04.3.1.37.24.25.84.18,1.35-.08.52-.1.95-.13,1.39-.03.59-.07,1.22-.1,1.84-.06,1.21-.08,2.39-.1,3.57Z"></path><path class="cls-6" d="M98.86,345.85c.02,1.18.04,2.36.1,3.57.03.62.07,1.25.1,1.84.03.45.05.87.13,1.39.07.51.19,1.11-.18,1.35-.09.05-.2.09-.3.1-.6.05-.7-.92-.75-1.75-.11-1.83.03-2.92.12-4.24.05-.7.08-1.48.11-2.25-.03-.77-.06-1.55-.11-2.25-.09-1.33-.24-2.41-.12-4.24.05-.82.15-1.8.75-1.75.1,0,.21.04.3.1.37.24.25.84.18,1.35-.08.52-.1.95-.13,1.39-.03.59-.07,1.22-.1,1.84-.06,1.21-.08,2.39-.1,3.57Z"></path></g><polyline class="cls-6" points="226.79 435.08 226.79 481.34 274.39 481.34"></polyline><line class="cls-6" x1="85.34" y1="345.85" x2="120.74" y2="345.85"></line><polyline class="cls-6" points="421.84 354.23 439.61 198.76 439.6 198.76 399.39 198.76 399.39 194.86"></polyline><line class="cls-6" x1="405.63" y1="495.96" x2="418.78" y2="380.92"></line><g class="cls-13"><path class="cls-6" d="M347.85,143.55V63.52c-22.23-5.4-95.86-23.14-139.36-31.69"></path><path class="cls-6" d="M102.97,12.52c23.64,4.03,53.52,9.26,79.41,14.19"></path></g><polyline class="cls-6" points="354.39 64.73 491.98 103.1 457.32 197.79 445.58 197.79"></polyline><line class="cls-4" x1="399.39" y1="194.86" x2="399.39" y2="192.91"></line><line class="cls-4" x1="354.39" y1="145.28" x2="354.39" y2="58.95"></line><line class="cls-4" x1="352.44" y1="143.55" x2="352.44" y2="60.5"></line><g class="cls-17"><path class="cls-4" d="M354.39,58.95c-37.49-9.07-113.82-27.29-150.94-34.33-28.9-5.9-68.99-12.96-99.29-18.13,0,0-26.45-4.19-30.82-4.66v1.88c4.37.47,30.44,4.66,30.44,4.66,30.29,5.17,70.76,12.3,99.66,18.2h0c35.59,6.76,110.14,24.54,148.98,33.94"></path></g><line class="cls-4" x1="352.44" y1="60.5" x2="354.39" y2="58.95"></line><polyline class="cls-4" points="349.25 500.86 408.97 500.86 443.95 194.86 443.96 194.86 399.39 194.86 399.39 192.91"></polyline><polyline class="cls-4" points="349.25 498.88 349.25 502.84 410.71 502.84 446.14 192.91 399.39 192.91"></polyline><rect class="cls-4" x="429.01" y="299.03" width="1.73" height="3.87" transform="translate(82.02 693.86) rotate(-83.48)"></rect><rect class="cls-4" x="435.13" y="245.5" width="1.73" height="3.87" transform="translate(140.63 652.5) rotate(-83.48)"></rect><rect class="cls-4" x="422.89" y="352.56" width="1.73" height="3.87" transform="translate(23.42 735.23) rotate(-83.48)"></rect><rect class="cls-4" x="419.83" y="379.31" width="1.73" height="3.87" transform="translate(-5.88 755.91) rotate(-83.48)"></rect><rect class="cls-4" x="416.78" y="405.97" width="1.73" height="3.87" transform="translate(-35.07 776.51) rotate(-83.48)"></rect><rect class="cls-4" x="410.68" y="459.38" width="1.73" height="3.87" transform="translate(-93.54 817.79) rotate(-83.48)"></rect><rect class="cls-4" x="407.63" y="486.04" width="1.73" height="3.87" transform="translate(-122.73 838.39) rotate(-83.48)"></rect><rect class="cls-4" x="312" y="52.47" width="4" height="1.72" transform="translate(188.44 346.04) rotate(-76.42)"></rect><polygon class="cls-4" points="261.99 43.32 260.31 42.94 261.26 38.99 262.91 39.37 261.99 43.32"></polygon><polygon class="cls-4" points="209.41 32.02 207.71 31.68 208.59 27.56 210.25 27.89 209.41 32.02"></polygon><polygon class="cls-4" points="183.17 26.87 181.48 26.53 182.36 22.41 184.01 22.74 183.17 26.87"></polygon><polygon class="cls-4" points="156.81 21.96 155.11 21.66 155.84 17.5 157.5 17.81 156.81 21.96"></polygon><rect class="cls-4" x="347.85" y="143.55" width="4.59" height="1.73"></rect><rect class="cls-4" x="347.85" y="103.95" width="4.59" height="1.72"></rect><rect class="cls-4" x="397.66" y="192.91" width="1.72" height="5.85"></rect><rect class="cls-4" x="362.23" y="192.91" width="3.29" height="5.85"></rect><polygon class="cls-4" points="350.9 60.13 346.78 63.26 347.85 63.52 347.85 64.76 352.44 61.28 352.44 60.5 350.9 60.13"></polygon><polygon class="cls-4" points="405.7 495.34 409.16 499.22 408.97 500.86 407.36 500.82 403.76 496.78 405.55 496.77 405.7 495.34"></polygon><rect class="cls-4" x="354.97" y="496.78" width="1.77" height="4.08"></rect><polygon class="cls-4" points="439.46 200.08 443.77 196.46 443.95 194.86 442.81 194.86 438.17 198.76 439.61 198.76 439.46 200.08"></polygon><polygon class="cls-33" points="415.87 361.98 274.52 361.98 274.52 368.87 278.42 368.87 278.42 365.88 331.83 365.88 331.83 378.57 413.97 378.57 413.77 380.34 418.78 380.92 421.84 354.23 416.82 353.66 415.87 361.98"></polygon><polygon class="cls-7" points="415.87 361.98 274.52 361.98 274.52 368.87 278.42 368.87 278.42 365.88 331.83 365.88 331.83 378.57 413.97 378.57 413.77 380.34 418.78 380.92 421.84 354.23 416.82 353.66 415.87 361.98"></polygon><polygon class="cls-33" points="208.49 31.83 207.82 36.61 203.46 35.77 203.46 180.86 199.56 180.86 199.56 34.89 181.41 31.37 182.38 26.71 208.49 31.83"></polygon><polygon class="cls-7" points="208.49 31.83 207.82 36.61 203.46 35.77 203.46 180.86 199.56 180.86 199.56 34.89 181.41 31.37 182.38 26.71 208.49 31.83"></polygon><rect class="cls-33" x="343.46" y="145.28" width="18.77" height="58.32"></rect><rect class="cls-7" x="343.46" y="145.28" width="18.77" height="58.32"></rect><g class="cls-14"><path class="cls-33" d="M73.36,3.71v251.64h-19.17v104.32H17.87v22.61h6.82v-15.51h62.81v-4.63h-2.15v-27.98h35.4v27.98h-2.42v4.63h9.53v-4.63h-2.08v-34.02h58.95s0,34.02,0,34.02h-2.55v4.63h29.78v-7.1h-21.39v-139.39s21.39,0,21.39,0v-3.89h-8.49v-3.39h-3.89v3.39h-10.87s-7.88,0-7.88,0v3.89s3.9,0,3.9,0v101.31s-123.72,0-123.72,0v-59.43h31.42v-1.95h52.47v-39.94h3.89v-3.89h-3.89v-2.68h-3.89v41.64h-60.82s0-78.1,0-78.1h60.82v4.31h3.89v-8.21h-64.71V13.07h.24l21.65,3.94s1.12-5.62,1.73-8.65"></path><path class="cls-7" d="M73.36,3.71v251.64h-19.17v104.32H17.87v22.61h6.82v-15.51h62.81v-4.63h-2.15v-27.98h35.4v27.98h-2.42v4.63h9.53v-4.63h-2.08v-34.02h58.95s0,34.02,0,34.02h-2.55v4.63h29.78v-7.1h-21.39v-139.39s21.39,0,21.39,0v-3.89h-8.49v-3.39h-3.89v3.39h-10.87s-7.88,0-7.88,0v3.89s3.9,0,3.9,0v101.31s-123.72,0-123.72,0v-59.43h31.42v-1.95h52.47v-39.94h3.89v-3.89h-3.89v-2.68h-3.89v41.64h-60.82s0-78.1,0-78.1h60.82v4.31h3.89v-8.21h-64.71V13.07h.24l21.65,3.94s1.12-5.62,1.73-8.65"></path><polygon class="cls-33" points="144.83 414.24 144.83 410.35 98.56 410.35 98.56 426.97 94.26 426.97 94.26 431.99 98.56 431.99 98.56 492.06 15.82 492.06 15.82 431.99 29.23 431.99 29.23 426.97 24.69 426.97 24.69 419.33 17.87 419.33 17.87 424.58 9 424.58 9 498.88 349.25 498.88 349.25 496.77 405.55 496.77 405.55 496.77 406.47 487.98 401.73 487.47 401.3 492.06 278.42 492.06 278.42 470.69 274.52 470.69 274.52 492.06 215.25 492.06 215.25 434.95 274.52 434.95 274.52 438.55 278.42 438.55 278.42 401.02 274.52 401.02 274.52 431.06 215.25 431.06 215.25 410.35 176.97 410.35 176.97 414.25 180.92 414.24 180.92 424.27 211.35 424.27 211.35 483.69 180.92 483.69 180.92 493.13 104.9 493.13 104.9 414.25 144.83 414.24"></polygon><polygon class="cls-7" points="144.83 414.24 144.83 410.35 98.56 410.35 98.56 426.97 94.26 426.97 94.26 431.99 98.56 431.99 98.56 492.06 15.82 492.06 15.82 431.99 29.23 431.99 29.23 426.97 24.69 426.97 24.69 419.33 17.87 419.33 17.87 424.58 9 424.58 9 498.88 349.25 498.88 349.25 496.77 405.55 496.77 405.55 496.77 406.47 487.98 401.73 487.47 401.3 492.06 278.42 492.06 278.42 470.69 274.52 470.69 274.52 492.06 215.25 492.06 215.25 434.95 274.52 434.95 274.52 438.55 278.42 438.55 278.42 401.02 274.52 401.02 274.52 431.06 215.25 431.06 215.25 410.35 176.97 410.35 176.97 414.25 180.92 414.24 180.92 424.27 211.35 424.27 211.35 483.69 180.92 483.69 180.92 493.13 104.9 493.13 104.9 414.25 144.83 414.24"></polygon><path class="cls-12" d="M8.16,400.7c.07.01.11.06.11.11s-.05.1-.11.11c-2.58.44-3.86,2.13-3.86,4.7v2.99c0,.9-.79,1.55-2.07,1.72-.26.04-.48-.18-.35-.36.24-.36.36-.83.36-1.39v-2.71c0-2.3,1.31-4.07,3.89-4.82.29-.08.29-.39,0-.47-2.58-.75-3.89-2.51-3.89-4.82v-2.71c0-.56-.12-1.03-.36-1.39-.12-.18.09-.4.35-.36,1.28.17,2.07.82,2.07,1.72v2.99c0,2.56,1.28,4.26,3.86,4.7h0Z"></path><path class="cls-8" d="M8.16,400.7c.07.01.11.06.11.11s-.05.1-.11.11c-2.58.44-3.86,2.13-3.86,4.7v2.99c0,.9-.79,1.55-2.07,1.72-.26.04-.48-.18-.35-.36.24-.36.36-.83.36-1.39v-2.71c0-2.3,1.31-4.07,3.89-4.82.29-.08.29-.39,0-.47-2.58-.75-3.89-2.51-3.89-4.82v-2.71c0-.56-.12-1.03-.36-1.39-.12-.18.09-.4.35-.36,1.28.17,2.07.82,2.07,1.72v2.99c0,2.56,1.28,4.26,3.86,4.7h0Z"></path></g><g><path class="cls-33" d="M101.56,102.91h1.94c1.46,0,2.29.69,2.29,1.95s-.83,1.96-2.29,1.96h-1.33v3.07h-.62v-6.98ZM103.44,106.26c1.09,0,1.73-.47,1.73-1.4s-.62-1.39-1.73-1.39h-1.27v2.79h1.27Z"></path><path class="cls-33" d="M106.95,104.95h.6v.84c.33-.6,1.01-.91,1.56-.91.26,0,.51.06.77.19l-.3.54c-.17-.08-.39-.13-.59-.13-.53,0-1.12.28-1.34,1-.06.21-.09.44-.09.98v2.43h-.6v-4.94Z"></path><path class="cls-33" d="M110.84,102.91h.72v1.07h-.72v-1.07ZM110.9,104.95h.59v4.94h-.59v-4.94Z"></path><path class="cls-33" d="M113.06,104.95h.6v.85c.29-.65.86-.92,1.45-.92.7,0,1.21.31,1.46.97.31-.64.84-.97,1.54-.97,1.2,0,1.64.9,1.64,2.07v2.94h-.6v-2.8c0-1.03-.3-1.68-1.17-1.68-.79,0-1.27.6-1.27,1.74v2.75h-.6v-2.89c0-1.08-.4-1.59-1.16-1.59-.8,0-1.29.61-1.29,1.74v2.75h-.6v-4.94Z"></path><path class="cls-33" d="M124.47,108.96c-.33.63-.97,1-1.73,1-1.11,0-1.78-.6-1.78-1.5,0-.53.22-.89.56-1.11.36-.24.84-.32,1.36-.32h1.58v-.21c0-.92-.48-1.41-1.4-1.41-.61,0-1.08.23-1.52.79l-.43-.37c.52-.65,1.18-.94,1.99-.94,1.26,0,1.95.69,1.95,1.93v3.07h-.55l-.03-.93ZM122.79,109.46c.91,0,1.67-.72,1.67-1.69v-.28h-1.5c-.4,0-.79.06-1.06.25-.21.16-.34.39-.34.72,0,.61.46,1,1.23,1Z"></path><path class="cls-33" d="M126.55,104.95h.6v.84c.33-.6,1.01-.91,1.56-.91.26,0,.51.06.77.19l-.3.54c-.17-.08-.39-.13-.59-.13-.53,0-1.12.28-1.34,1-.06.21-.09.44-.09.98v2.43h-.6v-4.94Z"></path><path class="cls-33" d="M131.98,109.73l-1.96-4.78h.66l1.62,4.17,1.62-4.17h.66l-2.84,6.97h-.65l.9-2.19Z"></path><path class="cls-33" d="M138.33,102.91h2.09c1.29,0,2.06.65,2.06,1.73,0,.73-.35,1.29-.96,1.54.85.2,1.31.82,1.31,1.78,0,1.24-.79,1.93-2.22,1.93h-2.29v-6.98ZM140.62,105.99c.75,0,1.26-.49,1.26-1.27s-.53-1.24-1.45-1.24h-1.47v2.51h1.67ZM140.58,109.31c1.1,0,1.65-.46,1.65-1.38,0-.87-.51-1.38-1.38-1.38h-1.89v2.76h1.63Z"></path><path class="cls-33" d="M143.96,107.45c0-1.42.77-2.57,2.16-2.57,1.51,0,2.13,1.18,2.13,2.27,0,.08,0,.31-.03.43h-3.66c.03,1.16.65,1.84,1.65,1.84.63,0,1.04-.18,1.47-.64l.42.38c-.56.58-1.1.81-1.9.81-1.46,0-2.24-1.09-2.24-2.5ZM147.67,107.12c0-.06,0-.12,0-.19,0-.71-.45-1.55-1.54-1.55-.95,0-1.53.76-1.59,1.74h3.12Z"></path><path class="cls-33" d="M149.33,107.41c0-1.51.99-2.53,2.25-2.53.81,0,1.44.42,1.77,1.05v-3.02h.59v6.98h-.59v-.97c-.34.65-.97,1.04-1.77,1.04-1.32,0-2.25-1.1-2.25-2.54ZM151.68,109.4c1,0,1.72-.83,1.72-1.99s-.72-1.99-1.72-1.99-1.74.84-1.74,1.99.73,1.99,1.74,1.99Z"></path><path class="cls-33" d="M155.5,104.95h.6v.84c.33-.6,1.01-.91,1.56-.91.26,0,.51.06.77.19l-.3.54c-.17-.08-.39-.13-.59-.13-.53,0-1.12.28-1.34,1-.06.21-.09.44-.09.98v2.43h-.6v-4.94Z"></path><path class="cls-33" d="M158.87,107.41c0-1.48.97-2.53,2.35-2.53s2.34,1.05,2.34,2.53-.98,2.54-2.34,2.54-2.35-1.05-2.35-2.54ZM161.22,109.42c1.05,0,1.74-.8,1.74-2.01s-.69-2.01-1.74-2.01-1.75.81-1.75,2.01.7,2.01,1.75,2.01Z"></path><path class="cls-33" d="M164.66,107.41c0-1.48.97-2.53,2.35-2.53s2.34,1.05,2.34,2.53-.98,2.54-2.34,2.54-2.35-1.05-2.35-2.54ZM167.01,109.42c1.05,0,1.74-.8,1.74-2.01s-.69-2.01-1.74-2.01-1.75.81-1.75,2.01.7,2.01,1.75,2.01Z"></path><path class="cls-33" d="M170.7,104.95h.6v.85c.29-.65.86-.92,1.45-.92.7,0,1.21.31,1.46.97.31-.64.84-.97,1.54-.97,1.2,0,1.64.9,1.64,2.07v2.94h-.6v-2.8c0-1.03-.3-1.68-1.17-1.68-.79,0-1.27.6-1.27,1.74v2.75h-.6v-2.89c0-1.08-.4-1.59-1.16-1.59-.8,0-1.29.61-1.29,1.74v2.75h-.6v-4.94Z"></path></g><g><path class="cls-33" d="M249.46,132.85h.62v6.42h3.22v.56h-3.84v-6.98Z"></path><path class="cls-33" d="M254.17,132.85h.72v1.07h-.72v-1.07ZM254.23,134.89h.59v4.93h-.59v-4.93Z"></path><path class="cls-33" d="M255.9,134.89h.66l1.62,4.17,1.62-4.17h.66l-2.01,4.93h-.52l-2.02-4.93Z"></path><path class="cls-33" d="M261.48,132.85h.72v1.07h-.72v-1.07ZM261.55,134.89h.59v4.93h-.59v-4.93Z"></path><path class="cls-33" d="M263.71,134.89h.6v.81c.31-.59.87-.88,1.55-.88,1.06,0,1.7.63,1.7,1.93v3.07h-.6v-2.86c0-1.12-.42-1.63-1.24-1.63-.89,0-1.41.61-1.41,1.97v2.52h-.6v-4.93Z"></path><path class="cls-33" d="M268.67,140.41s0-.08.02-.2l.86-.68c-.44-.17-.74-.46-.74-.97,0-.41.21-.69.56-.93-.28-.29-.43-.67-.43-1.12,0-1,.8-1.7,1.84-1.7.5,0,.94.17,1.26.45l.79-.67.31.38-.77.68c.15.25.23.55.23.88,0,.99-.74,1.64-1.8,1.64-.41,0-.77-.1-1.06-.26-.24.14-.35.33-.35.55,0,.51.49.64,1.25.76,1.23.19,2.3.34,2.3,1.35,0,.9-.81,1.37-2.08,1.37-1.4,0-2.19-.54-2.19-1.54ZM270.87,141.48c.84,0,1.48-.26,1.48-.83,0-.67-.89-.74-1.78-.88-.24-.03-.47-.07-.69-.13l-.62.71c0,.07,0,.08,0,.12,0,.69.61,1.02,1.61,1.02ZM270.77,137.69c.75,0,1.22-.5,1.22-1.18s-.49-1.2-1.22-1.2-1.25.5-1.25,1.19.49,1.19,1.24,1.19Z"></path><path class="cls-33" d="M276.74,132.85h1.94c1.53,0,2.29.72,2.29,1.92,0,.97-.5,1.6-1.43,1.83l1.88,3.22h-.71l-1.8-3.13c-.16,0-.34,0-.5,0h-1.05v3.13h-.62v-6.98ZM278.62,136.15c1.06,0,1.73-.43,1.73-1.37s-.68-1.37-1.73-1.37h-1.26v2.74h1.26Z"></path><path class="cls-33" d="M282.13,137.35c0-1.48.97-2.53,2.35-2.53s2.34,1.05,2.34,2.53-.98,2.54-2.34,2.54-2.35-1.05-2.35-2.54ZM284.47,139.36c1.05,0,1.74-.8,1.74-2.01s-.69-2.01-1.74-2.01-1.75.81-1.75,2.01.7,2.01,1.75,2.01Z"></path><path class="cls-33" d="M287.92,137.35c0-1.48.97-2.53,2.35-2.53s2.34,1.05,2.34,2.53-.98,2.54-2.34,2.54-2.35-1.05-2.35-2.54ZM290.27,139.36c1.05,0,1.74-.8,1.74-2.01s-.69-2.01-1.74-2.01-1.75.81-1.75,2.01.7,2.01,1.75,2.01Z"></path><path class="cls-33" d="M293.95,134.89h.6v.85c.29-.65.86-.92,1.45-.92.7,0,1.21.31,1.46.97.31-.64.84-.97,1.54-.97,1.2,0,1.64.9,1.64,2.07v2.94h-.6v-2.8c0-1.03-.3-1.68-1.17-1.68-.79,0-1.27.6-1.27,1.74v2.75h-.6v-2.89c0-1.08-.4-1.59-1.16-1.59-.8,0-1.29.61-1.29,1.74v2.75h-.6v-4.93Z"></path></g><g><path class="cls-33" d="M334.74,269.55h1.87c2.26,0,3.56,1.29,3.56,3.54s-1.27,3.43-3.57,3.43h-1.86v-6.98ZM336.54,275.95c1.92,0,2.99-.89,2.99-2.88s-1.08-2.95-2.94-2.95h-1.24v5.83h1.19Z"></path><path class="cls-33" d="M341.4,269.55h.72v1.07h-.72v-1.07ZM341.46,271.59h.59v4.93h-.59v-4.93Z"></path><path class="cls-33" d="M343.62,271.59h.6v.81c.31-.59.87-.88,1.55-.88,1.06,0,1.7.63,1.7,1.93v3.07h-.6v-2.86c0-1.12-.42-1.63-1.24-1.63-.89,0-1.41.61-1.41,1.97v2.52h-.6v-4.93Z"></path><path class="cls-33" d="M348.91,269.55h.72v1.07h-.72v-1.07ZM348.98,271.59h.59v4.93h-.59v-4.93Z"></path><path class="cls-33" d="M351.14,271.59h.6v.81c.31-.59.87-.88,1.55-.88,1.06,0,1.7.63,1.7,1.93v3.07h-.6v-2.86c0-1.12-.42-1.63-1.24-1.63-.89,0-1.41.61-1.41,1.97v2.52h-.6v-4.93Z"></path><path class="cls-33" d="M356.1,277.11s0-.08.02-.2l.86-.68c-.44-.17-.74-.46-.74-.97,0-.41.21-.69.56-.93-.28-.29-.43-.67-.43-1.12,0-1,.8-1.7,1.84-1.7.5,0,.94.17,1.26.45l.79-.67.31.38-.77.68c.15.25.23.55.23.88,0,.99-.74,1.64-1.8,1.64-.41,0-.77-.09-1.06-.26-.24.14-.35.33-.35.55,0,.51.49.64,1.25.76,1.23.19,2.3.34,2.3,1.35,0,.9-.81,1.37-2.08,1.37-1.4,0-2.19-.54-2.19-1.54ZM358.3,278.18c.84,0,1.48-.26,1.48-.83,0-.67-.89-.74-1.78-.88-.24-.04-.47-.08-.69-.13l-.62.71c0,.07,0,.08,0,.12,0,.69.61,1.02,1.61,1.02ZM358.2,274.39c.75,0,1.22-.5,1.22-1.18s-.49-1.2-1.22-1.2-1.25.5-1.25,1.19.49,1.19,1.24,1.19Z"></path><path class="cls-33" d="M364.16,269.55h1.94c1.53,0,2.29.72,2.29,1.92,0,.97-.5,1.6-1.43,1.83l1.88,3.22h-.71l-1.8-3.13c-.16,0-.34,0-.5,0h-1.05v3.13h-.62v-6.98ZM366.05,272.85c1.06,0,1.73-.42,1.73-1.37s-.68-1.37-1.73-1.37h-1.26v2.74h1.26Z"></path><path class="cls-33" d="M369.55,274.05c0-1.48.97-2.53,2.35-2.53s2.34,1.05,2.34,2.53-.98,2.54-2.34,2.54-2.35-1.05-2.35-2.54ZM371.9,276.06c1.05,0,1.74-.8,1.74-2.01s-.69-2.01-1.74-2.01-1.75.81-1.75,2.01.7,2.01,1.75,2.01Z"></path><path class="cls-33" d="M375.35,274.05c0-1.48.97-2.53,2.35-2.53s2.34,1.05,2.34,2.53-.98,2.54-2.34,2.54-2.35-1.05-2.35-2.54ZM377.7,276.06c1.05,0,1.74-.8,1.74-2.01s-.69-2.01-1.74-2.01-1.75.81-1.75,2.01.7,2.01,1.75,2.01Z"></path><path class="cls-33" d="M381.38,271.59h.6v.85c.29-.65.86-.92,1.45-.92.7,0,1.21.31,1.46.97.31-.64.84-.97,1.54-.97,1.2,0,1.64.9,1.64,2.07v2.94h-.6v-2.8c0-1.03-.3-1.68-1.17-1.68-.79,0-1.27.6-1.27,1.74v2.75h-.6v-2.89c0-1.08-.4-1.59-1.16-1.59-.8,0-1.29.61-1.29,1.74v2.75h-.6v-4.93Z"></path></g><g><path class="cls-33" d="M326.33,431.71h2.09c1.29,0,2.06.65,2.06,1.73,0,.73-.35,1.29-.96,1.54.85.2,1.31.82,1.31,1.78,0,1.24-.79,1.93-2.22,1.93h-2.29v-6.98ZM328.61,434.79c.75,0,1.26-.49,1.26-1.27s-.53-1.24-1.45-1.24h-1.47v2.51h1.67ZM328.57,438.11c1.1,0,1.65-.46,1.65-1.38,0-.87-.51-1.38-1.38-1.38h-1.89v2.76h1.63Z"></path><path class="cls-33" d="M331.95,436.25c0-1.42.77-2.57,2.16-2.57,1.51,0,2.13,1.18,2.13,2.27,0,.08,0,.3-.03.42h-3.66c.03,1.16.65,1.84,1.65,1.84.63,0,1.04-.18,1.47-.64l.42.38c-.56.58-1.1.81-1.9.81-1.46,0-2.24-1.09-2.24-2.5ZM335.66,435.92c0-.06,0-.12,0-.19,0-.71-.45-1.55-1.54-1.55-.95,0-1.53.75-1.59,1.74h3.12Z"></path><path class="cls-33" d="M337.31,436.21c0-1.51.99-2.53,2.25-2.53.81,0,1.44.42,1.77,1.05v-3.02h.59v6.98h-.59v-.97c-.34.65-.97,1.04-1.77,1.04-1.32,0-2.25-1.1-2.25-2.54ZM339.65,438.2c1,0,1.72-.83,1.72-1.99s-.72-1.99-1.72-1.99-1.74.84-1.74,1.99.73,1.99,1.74,1.99Z"></path><path class="cls-33" d="M343.48,433.75h.6v.84c.33-.6,1.01-.91,1.56-.91.26,0,.51.05.77.19l-.3.54c-.17-.08-.39-.13-.59-.13-.53,0-1.12.28-1.34,1-.06.21-.09.44-.09.98v2.43h-.6v-4.93Z"></path><path class="cls-33" d="M346.85,436.21c0-1.48.97-2.53,2.35-2.53s2.34,1.05,2.34,2.53-.98,2.54-2.34,2.54-2.35-1.05-2.35-2.54ZM349.19,438.22c1.05,0,1.74-.8,1.74-2.01s-.69-2.01-1.74-2.01-1.75.81-1.75,2.01.7,2.01,1.75,2.01Z"></path><path class="cls-33" d="M352.64,436.21c0-1.48.97-2.53,2.35-2.53s2.34,1.05,2.34,2.53-.98,2.54-2.34,2.54-2.35-1.05-2.35-2.54ZM354.99,438.22c1.05,0,1.74-.8,1.74-2.01s-.69-2.01-1.74-2.01-1.75.81-1.75,2.01.7,2.01,1.75,2.01Z"></path><path class="cls-33" d="M358.67,433.75h.6v.85c.29-.65.86-.92,1.45-.92.7,0,1.21.31,1.46.97.31-.64.84-.97,1.54-.97,1.2,0,1.64.9,1.64,2.07v2.94h-.6v-2.8c0-1.03-.3-1.68-1.17-1.68-.79,0-1.27.6-1.27,1.74v2.75h-.6v-2.89c0-1.08-.4-1.59-1.16-1.59-.8,0-1.29.61-1.29,1.74v2.75h-.6v-4.93Z"></path></g><g><path class="cls-33" d="M398.86,132.85h2.09c1.29,0,2.06.65,2.06,1.73,0,.73-.35,1.29-.96,1.54.85.19,1.31.82,1.31,1.78,0,1.24-.79,1.93-2.22,1.93h-2.29v-6.98ZM401.14,135.93c.75,0,1.26-.49,1.26-1.27s-.53-1.24-1.45-1.24h-1.47v2.51h1.67ZM401.1,139.25c1.1,0,1.65-.46,1.65-1.38,0-.87-.51-1.38-1.38-1.38h-1.89v2.76h1.63Z"></path><path class="cls-33" d="M407.96,138.9c-.33.63-.97,1-1.73,1-1.11,0-1.78-.6-1.78-1.5,0-.53.22-.89.56-1.11.36-.23.84-.32,1.36-.32h1.58v-.22c0-.92-.48-1.41-1.4-1.41-.61,0-1.08.23-1.52.79l-.43-.37c.52-.65,1.18-.94,1.99-.94,1.26,0,1.95.69,1.95,1.93v3.07h-.55l-.03-.93ZM406.28,139.4c.91,0,1.67-.72,1.67-1.69v-.28h-1.5c-.4,0-.79.06-1.06.25-.21.16-.34.39-.34.72,0,.61.46,1,1.23,1Z"></path><path class="cls-33" d="M409.95,138.8v-5.95h.6v5.84c0,.46.18.65.49.65.13,0,.3-.03.47-.09v.52c-.22.08-.47.13-.65.13-.56,0-.91-.34-.91-1.1Z"></path><path class="cls-33" d="M412.23,137.35c0-1.41.82-2.53,2.2-2.53.9,0,1.61.45,1.93,1.34l-.54.21c-.21-.63-.69-1.03-1.39-1.03-1.09,0-1.61.96-1.61,2.01s.52,2.02,1.61,2.02c.7,0,1.18-.39,1.39-1.03l.54.21c-.33.89-1.03,1.35-1.93,1.35-1.39,0-2.2-1.12-2.2-2.54Z"></path><path class="cls-33" d="M417.31,137.35c0-1.48.97-2.53,2.35-2.53s2.34,1.05,2.34,2.53-.98,2.54-2.34,2.54-2.35-1.05-2.35-2.54ZM419.65,139.36c1.05,0,1.74-.8,1.74-2.01s-.69-2.01-1.74-2.01-1.75.81-1.75,2.01.7,2.01,1.75,2.01Z"></path><path class="cls-33" d="M423.34,134.89h.6v.81c.31-.59.87-.88,1.55-.88,1.06,0,1.7.63,1.7,1.93v3.07h-.6v-2.86c0-1.12-.42-1.63-1.24-1.63-.89,0-1.41.61-1.41,1.97v2.52h-.6v-4.93Z"></path><path class="cls-33" d="M430.04,139.67l-1.96-4.78h.66l1.62,4.17,1.62-4.17h.66l-2.84,6.97h-.65l.9-2.19Z"></path></g><g><path class="cls-33" d="M234.66,336.63h.62v3.74l3.58-3.74h.84l-2.66,2.73,2.68,4.25h-.73l-2.4-3.79-1.32,1.35v2.44h-.62v-6.98Z"></path><path class="cls-33" d="M240.6,336.63h.72v1.07h-.72v-1.07ZM240.67,338.67h.59v4.93h-.59v-4.93Z"></path><path class="cls-33" d="M243.41,342.46v-3.32h-1.1v-.48h1.1v-1.43l.61-.36v1.78h1.19v.48h-1.19v3.17c0,.55.17.86.62.86.15,0,.35-.03.57-.09v.48c-.25.08-.5.12-.71.12-.66,0-1.08-.38-1.08-1.21Z"></path><path class="cls-33" d="M245.99,341.13c0-1.41.82-2.53,2.2-2.53.9,0,1.61.45,1.93,1.34l-.54.21c-.21-.63-.69-1.03-1.39-1.03-1.09,0-1.61.96-1.61,2.01s.52,2.02,1.61,2.02c.7,0,1.18-.39,1.39-1.03l.54.21c-.33.89-1.03,1.35-1.93,1.35-1.39,0-2.2-1.12-2.2-2.54Z"></path><path class="cls-33" d="M251.38,336.63h.6v2.84c.3-.58.85-.87,1.55-.87,1.08,0,1.7.66,1.7,1.93v3.07h-.6v-2.86c0-1.1-.41-1.63-1.24-1.63-.91,0-1.41.64-1.41,1.97v2.52h-.6v-6.98Z"></path><path class="cls-33" d="M256.48,341.17c0-1.42.77-2.57,2.16-2.57,1.51,0,2.13,1.18,2.13,2.27,0,.08,0,.3-.03.42h-3.66c.03,1.16.65,1.84,1.65,1.84.63,0,1.04-.18,1.47-.64l.42.38c-.56.58-1.1.81-1.9.81-1.46,0-2.24-1.09-2.24-2.5ZM260.18,340.84c0-.06,0-.12,0-.19,0-.71-.45-1.55-1.54-1.55-.95,0-1.53.75-1.59,1.74h3.12Z"></path><path class="cls-33" d="M262.1,338.67h.6v.81c.31-.59.87-.88,1.55-.88,1.06,0,1.7.63,1.7,1.93v3.07h-.6v-2.86c0-1.12-.42-1.63-1.24-1.63-.89,0-1.41.61-1.41,1.97v2.52h-.6v-4.93Z"></path></g><g><path class="cls-33" d="M49.14,457.78h4.51v.56h-3.89v2.59h3.38v.56h-3.38v3.26h-.62v-6.98Z"></path><path class="cls-33" d="M54.66,463.73v-5.95h.6v5.84c0,.46.18.65.49.65.13,0,.29-.03.47-.09v.51c-.22.09-.47.13-.65.13-.56,0-.91-.34-.91-1.1Z"></path><path class="cls-33" d="M56.94,462.32c0-1.42.77-2.57,2.16-2.57,1.51,0,2.13,1.18,2.13,2.27,0,.08-.01.3-.03.42h-3.66c.03,1.16.65,1.84,1.65,1.84.63,0,1.04-.18,1.47-.64l.42.38c-.56.58-1.1.81-1.9.81-1.46,0-2.24-1.09-2.24-2.5ZM60.65,461.99c0-.06,0-.12,0-.19,0-.71-.45-1.55-1.54-1.55-.95,0-1.53.75-1.59,1.74h3.12Z"></path><path class="cls-33" d="M63.83,462.28l-1.82-2.46h.74l1.48,2.04,1.5-2.04h.72l-1.83,2.46,1.84,2.48h-.74l-1.49-2.06-1.49,2.06h-.73l1.82-2.48Z"></path></g><g><path class="cls-33" d="M68.51,386.03h4.51v.56h-3.89v2.59h3.38v.56h-3.38v3.26h-.62v-6.98Z"></path><path class="cls-33" d="M73.58,390.53c0-1.48.97-2.53,2.35-2.53s2.34,1.05,2.34,2.53-.98,2.54-2.34,2.54-2.35-1.05-2.35-2.54ZM75.92,392.54c1.05,0,1.74-.8,1.74-2.01s-.69-2.01-1.74-2.01-1.75.81-1.75,2.01.7,2.01,1.75,2.01Z"></path><path class="cls-33" d="M80.94,392.85l-1.96-4.78h.66l1.62,4.17,1.62-4.17h.66l-2.84,6.97h-.65l.9-2.19Z"></path><path class="cls-33" d="M84.27,390.57c0-1.42.77-2.57,2.16-2.57,1.51,0,2.13,1.18,2.13,2.27,0,.08,0,.3-.03.42h-3.66c.03,1.16.65,1.84,1.65,1.84.63,0,1.04-.18,1.47-.64l.42.38c-.56.58-1.1.81-1.9.81-1.46,0-2.24-1.09-2.24-2.5ZM87.97,390.24c0-.06,0-.12,0-.19,0-.71-.45-1.55-1.54-1.55-.95,0-1.53.75-1.59,1.74h3.12Z"></path><path class="cls-33" d="M89.88,388.07h.6v.84c.33-.6,1.01-.91,1.56-.91.26,0,.51.05.77.19l-.3.54c-.17-.08-.39-.13-.59-.13-.53,0-1.12.28-1.34,1-.06.21-.09.44-.09.98v2.43h-.6v-4.93Z"></path></g><g><path class="cls-33" d="M101.5,213.41h.65l1.71,6.06,1.76-5.7h.63l1.76,5.7,1.7-6.06h.65l-2.01,6.98h-.63l-1.79-5.71-1.79,5.71h-.64l-2.01-6.98Z"></path><path class="cls-33" d="M111.51,213.41h.62v6.98h-.62v-6.98Z"></path><path class="cls-33" d="M113.56,216.89c0-2.16,1.26-3.58,3.16-3.58,1.35,0,2.39.71,2.84,1.89l-.58.22c-.38-.96-1.17-1.52-2.26-1.52-1.55,0-2.54,1.17-2.54,2.99s.99,3,2.54,3c1.09,0,1.89-.56,2.26-1.52l.58.22c-.45,1.18-1.49,1.9-2.84,1.9-1.89,0-3.16-1.42-3.16-3.59Z"></path></g><g><path class="cls-33" d="M241.81,454.77h.65l1.71,6.06,1.76-5.7h.63l1.76,5.7,1.7-6.06h.65l-2.01,6.98h-.63l-1.79-5.71-1.79,5.71h-.64l-2.01-6.98Z"></path><path class="cls-33" d="M251.82,454.77h.62v6.98h-.62v-6.98Z"></path><path class="cls-33" d="M253.87,458.25c0-2.16,1.26-3.58,3.16-3.58,1.35,0,2.39.71,2.84,1.89l-.58.22c-.38-.96-1.17-1.52-2.26-1.52-1.55,0-2.54,1.17-2.54,2.99s.99,3,2.54,3c1.09,0,1.89-.56,2.26-1.52l.58.21c-.45,1.18-1.49,1.9-2.84,1.9-1.89,0-3.16-1.42-3.16-3.59Z"></path></g><path class="cls-33" d="M138.1,342.57h.65l1.71,6.06,1.76-5.7h.63l1.76,5.7,1.7-6.06h.65l-2.01,6.98h-.63l-1.79-5.71-1.79,5.71h-.64l-2.01-6.98Z"></path><path class="cls-33" d="M165.31,342.57h1.87c2.26,0,3.56,1.29,3.56,3.54s-1.27,3.43-3.57,3.43h-1.86v-6.98ZM167.11,348.97c1.92,0,2.99-.89,2.99-2.88s-1.08-2.95-2.94-2.95h-1.24v5.83h1.19Z"></path><path class="cls-33" d="M191.25,235.16c0-2.17,1.27-3.59,3.16-3.59s3.18,1.42,3.18,3.59-1.27,3.58-3.18,3.58-3.16-1.42-3.16-3.58ZM194.41,238.15c1.57,0,2.55-1.16,2.55-2.99s-.99-3-2.55-3-2.54,1.15-2.54,3,.99,2.99,2.54,2.99Z"></path><path class="cls-33" d="M201.29,230.89h.48l-3.55,9.08h-.48l3.55-9.08Z"></path><path class="cls-33" d="M202.99,231.67h.93l2.35,5.66,2.35-5.66h.92v6.98h-.62v-6.16l-2.35,5.59h-.61l-2.36-5.59v6.16h-.62v-6.98Z"></path><g><path class="cls-33" d="M193.54,340.32h1.94c1.53,0,2.29.72,2.29,1.92,0,.97-.5,1.6-1.43,1.83l1.88,3.22h-.71l-1.8-3.13c-.16,0-.34,0-.5,0h-1.05v3.13h-.62v-6.98ZM195.42,343.62c1.06,0,1.73-.43,1.73-1.37s-.68-1.37-1.73-1.37h-1.26v2.74h1.26Z"></path><path class="cls-33" d="M199.39,340.32h4.56v.56h-3.94v2.59h3.53v.56h-3.53v2.7h3.94v.56h-4.56v-6.98Z"></path><path class="cls-33" d="M205.25,340.32h4.51v.56h-3.89v2.59h3.38v.56h-3.38v3.26h-.62v-6.98Z"></path></g><g><path class="cls-33" d="M256.23,236.13h.65l1.71,6.06,1.76-5.7h.63l1.76,5.7,1.7-6.06h.65l-2.01,6.98h-.63l-1.79-5.71-1.79,5.71h-.64l-2.01-6.98Z"></path><path class="cls-33" d="M266.24,236.13h4.51v.56h-3.89v2.59h3.38v.56h-3.38v3.26h-.62v-6.98Z"></path></g><g><path class="cls-33" d="M256.3,300.69h1.87c2.26,0,3.56,1.29,3.56,3.54s-1.27,3.43-3.57,3.43h-1.86v-6.98ZM258.1,307.09c1.92,0,2.99-.89,2.99-2.88s-1.08-2.95-2.94-2.95h-1.24v5.83h1.19Z"></path><path class="cls-33" d="M262.39,300.69h.65l1.71,6.06,1.76-5.7h.63l1.76,5.7,1.7-6.06h.65l-2.01,6.98h-.63l-1.79-5.71-1.79,5.71h-.64l-2.01-6.98Z"></path></g><path class="cls-33" d="M242.93,417.5h1.94c1.46,0,2.29.69,2.29,1.95s-.83,1.96-2.29,1.96h-1.33v3.07h-.62v-6.98ZM244.81,420.85c1.09,0,1.73-.47,1.73-1.4s-.62-1.39-1.73-1.39h-1.27v2.79h1.27Z"></path><polyline class="cls-11" points="474.82 468.59 463.78 468.59 458.78 480.81"></polyline><path class="cls-32" d="M457.25,484.53l4.05-4.46s-2.53.73-3.82-1.56l-.24,6.02Z"></path><g><path class="cls-34" d="M480.11,466.65h1.55c1.22,0,1.83.57,1.83,1.54,0,.77-.4,1.28-1.14,1.46l1.5,2.57h-.57l-1.44-2.5c-.13,0-.27,0-.4,0h-.84v2.5h-.5v-5.57ZM481.61,469.29c.85,0,1.38-.34,1.38-1.1s-.54-1.09-1.38-1.09h-1.01v2.19h1.01Z"></path><path class="cls-34" d="M484.49,470.25c0-1.18.77-2.02,1.88-2.02s1.87.84,1.87,2.02-.78,2.03-1.87,2.03-1.88-.84-1.88-2.03ZM486.36,471.85c.84,0,1.39-.64,1.39-1.6s-.55-1.6-1.39-1.6-1.4.64-1.4,1.6.56,1.6,1.4,1.6Z"></path><path class="cls-34" d="M489.2,470.25c0-1.18.77-2.02,1.88-2.02s1.87.84,1.87,2.02-.78,2.03-1.87,2.03-1.88-.84-1.88-2.03ZM491.07,471.85c.84,0,1.39-.64,1.39-1.6s-.55-1.6-1.39-1.6-1.4.64-1.4,1.6.56,1.6,1.4,1.6Z"></path><path class="cls-34" d="M494.42,468.66h-.88v-.38h.88v-.57c0-.82.43-1.12,1.03-1.12.26,0,.47.05.66.15l-.16.36c-.14-.07-.28-.11-.45-.11-.4,0-.6.25-.6.71v.57h.97v.38h-.97v3.56h-.48v-3.56Z"></path></g><g><path class="cls-33" d="M8.78,523.91l.69-.87-1.07-.31.09-.28,1.04.4-.05-1.11h.3l-.04,1.11,1.04-.4.08.28-1.06.31.69.87-.24.18-.62-.92-.62.92-.23-.18Z"></path><path class="cls-33" d="M11.86,521.74h1.55c1.22,0,1.83.57,1.83,1.54,0,.77-.4,1.28-1.14,1.46l1.5,2.57h-.57l-1.44-2.5c-.13,0-.27,0-.4,0h-.84v2.5h-.5v-5.57ZM13.37,524.37c.85,0,1.38-.34,1.38-1.1s-.54-1.09-1.38-1.09h-1.01v2.19h1.01Z"></path><path class="cls-33" d="M16.19,525.37c0-1.13.61-2.05,1.73-2.05,1.21,0,1.7.94,1.7,1.81,0,.06,0,.24-.02.34h-2.93c.02.93.52,1.47,1.32,1.47.5,0,.83-.14,1.18-.51l.34.3c-.45.46-.88.65-1.52.65-1.16,0-1.79-.87-1.79-2ZM19.15,525.11s0-.1,0-.15c0-.57-.36-1.24-1.23-1.24-.76,0-1.22.6-1.27,1.39h2.49Z"></path><path class="cls-33" d="M20.29,526.47l.34-.28c.2.46.66.77,1.26.77.57,0,.95-.27.95-.72,0-.55-.53-.68-1.1-.82-.66-.16-1.23-.38-1.23-1.06,0-.62.53-1.05,1.3-1.05.6,0,1.1.26,1.37.76l-.37.21c-.21-.38-.57-.58-1.02-.58-.48,0-.84.24-.84.62,0,.4.36.54.93.68.67.16,1.44.34,1.44,1.2,0,.71-.56,1.17-1.42,1.17-.79,0-1.35-.4-1.6-.9Z"></path><path class="cls-33" d="M24.32,521.74h.58v.86h-.58v-.86ZM24.37,523.37h.47v3.94h-.47v-3.94Z"></path><path class="cls-33" d="M25.91,525.34c0-1.21.79-2.02,1.79-2.02.64,0,1.15.33,1.41.84v-2.41h.47v5.57h-.47v-.78c-.27.52-.77.83-1.41.83-1.06,0-1.79-.88-1.79-2.03ZM27.79,526.92c.8,0,1.37-.66,1.37-1.59s-.57-1.59-1.37-1.59-1.39.67-1.39,1.59.58,1.59,1.39,1.59Z"></path><path class="cls-33" d="M30.68,525.37c0-1.13.61-2.05,1.73-2.05,1.21,0,1.7.94,1.7,1.81,0,.06,0,.24-.02.34h-2.93c.02.93.52,1.47,1.32,1.47.5,0,.83-.14,1.18-.51l.34.3c-.45.46-.88.65-1.52.65-1.16,0-1.79-.87-1.79-2ZM33.64,525.11s0-.1,0-.15c0-.57-.36-1.24-1.23-1.24-.76,0-1.22.6-1.27,1.39h2.49Z"></path><path class="cls-33" d="M35.18,523.37h.48v.64c.25-.47.69-.7,1.24-.7.85,0,1.36.5,1.36,1.54v2.46h-.48v-2.28c0-.89-.34-1.3-.99-1.3-.71,0-1.13.48-1.13,1.57v2.01h-.48v-3.94Z"></path><path class="cls-33" d="M39.26,525.34c0-1.13.65-2.02,1.76-2.02.72,0,1.28.36,1.54,1.07l-.43.17c-.17-.5-.55-.82-1.11-.82-.87,0-1.29.77-1.29,1.61s.42,1.61,1.29,1.61c.56,0,.94-.31,1.11-.82l.43.16c-.26.71-.82,1.08-1.54,1.08-1.11,0-1.76-.9-1.76-2.03Z"></path><path class="cls-33" d="M43.34,525.37c0-1.13.61-2.05,1.73-2.05,1.21,0,1.7.94,1.7,1.81,0,.06,0,.24-.02.34h-2.93c.02.93.52,1.47,1.32,1.47.5,0,.83-.14,1.18-.51l.34.3c-.45.46-.88.65-1.52.65-1.16,0-1.79-.87-1.79-2ZM46.3,525.11s0-.1,0-.15c0-.57-.36-1.24-1.23-1.24-.76,0-1.22.6-1.27,1.39h2.49Z"></path><path class="cls-33" d="M50.39,523.75h-.88v-.38h.88v-.57c0-.82.43-1.12,1.03-1.12.26,0,.47.05.66.15l-.16.36c-.14-.07-.28-.11-.45-.11-.4,0-.6.25-.6.71v.57h.97v.38h-.97v3.56h-.48v-3.56Z"></path><path class="cls-33" d="M52.24,525.37c0-1.13.61-2.05,1.73-2.05,1.21,0,1.7.94,1.7,1.81,0,.06,0,.24-.02.34h-2.93c.02.93.52,1.47,1.32,1.47.5,0,.83-.14,1.18-.51l.34.3c-.45.46-.88.65-1.52.65-1.16,0-1.79-.87-1.79-2ZM55.2,525.11s0-.1,0-.15c0-.57-.36-1.24-1.23-1.24-.76,0-1.22.6-1.27,1.39h2.49Z"></path><path class="cls-33" d="M59.28,526.57c-.26.5-.77.79-1.38.79-.88,0-1.42-.48-1.42-1.2,0-.42.18-.71.44-.89.28-.19.67-.26,1.09-.26h1.26v-.17c0-.73-.38-1.13-1.12-1.13-.48,0-.86.18-1.22.63l-.34-.3c.42-.52.94-.75,1.59-.75,1,0,1.56.55,1.56,1.54v2.46h-.44l-.02-.74ZM57.94,526.97c.72,0,1.33-.57,1.33-1.35v-.22h-1.2c-.32,0-.63.05-.84.2-.17.13-.27.31-.27.58,0,.49.37.8.98.8Z"></path><path class="cls-33" d="M61.35,526.4v-2.65h-.88v-.38h.88v-1.14l.48-.28v1.42h.95v.38h-.95v2.54c0,.44.14.68.5.68.12,0,.28-.02.45-.08v.38c-.2.06-.4.1-.57.1-.52,0-.86-.3-.86-.97Z"></path><path class="cls-33" d="M63.62,525.82v-2.45h.47v2.28c0,.89.34,1.29,1,1.29.71,0,1.13-.48,1.13-1.57v-2.01h.48v3.94h-.48v-.65c-.25.47-.7.7-1.25.7-.84,0-1.35-.51-1.35-1.55Z"></path><path class="cls-33" d="M67.95,523.37h.48v.67c.26-.48.8-.73,1.24-.73.2,0,.4.04.61.15l-.24.43c-.13-.06-.31-.1-.47-.1-.42,0-.9.22-1.07.8-.05.17-.07.35-.07.78v1.94h-.48v-3.94Z"></path><path class="cls-33" d="M70.66,525.37c0-1.13.61-2.05,1.73-2.05,1.21,0,1.7.94,1.7,1.81,0,.06,0,.24-.02.34h-2.93c.02.93.52,1.47,1.32,1.47.5,0,.83-.14,1.17-.51l.34.3c-.45.46-.88.65-1.51.65-1.16,0-1.79-.87-1.79-2ZM73.62,525.11s0-.1,0-.15c0-.57-.36-1.24-1.23-1.24-.75,0-1.22.6-1.27,1.39h2.49Z"></path><path class="cls-33" d="M74.75,526.47l.34-.28c.2.46.66.77,1.26.77.57,0,.95-.27.95-.72,0-.55-.53-.68-1.1-.82-.66-.16-1.23-.38-1.23-1.06,0-.62.53-1.05,1.29-1.05.6,0,1.1.26,1.37.76l-.37.21c-.21-.38-.57-.58-1.01-.58-.48,0-.84.24-.84.62,0,.4.36.54.93.68.67.16,1.43.34,1.43,1.2,0,.71-.56,1.17-1.42,1.17-.79,0-1.35-.4-1.6-.9Z"></path><path class="cls-33" d="M83.53,526.57c-.26.5-.77.79-1.38.79-.88,0-1.42-.48-1.42-1.2,0-.42.18-.71.44-.89.28-.19.67-.26,1.09-.26h1.26v-.17c0-.73-.38-1.13-1.12-1.13-.48,0-.86.18-1.22.63l-.34-.3c.42-.52.94-.75,1.59-.75,1,0,1.56.55,1.56,1.54v2.46h-.44l-.02-.74ZM82.19,526.97c.72,0,1.33-.57,1.33-1.35v-.22h-1.2c-.32,0-.63.05-.84.2-.17.13-.27.31-.27.58,0,.49.37.8.98.8Z"></path><path class="cls-33" d="M85.21,523.37h.48v.64c.25-.47.69-.7,1.24-.7.85,0,1.36.5,1.36,1.54v2.46h-.48v-2.28c0-.89-.34-1.3-.99-1.3-.71,0-1.13.48-1.13,1.57v2.01h-.48v-3.94Z"></path><path class="cls-33" d="M94.19,526.57c-.26.5-.77.79-1.38.79-.88,0-1.42-.48-1.42-1.2,0-.42.18-.71.44-.89.28-.19.67-.26,1.09-.26h1.26v-.17c0-.73-.38-1.13-1.12-1.13-.48,0-.86.18-1.22.63l-.34-.3c.42-.52.94-.75,1.59-.75,1,0,1.56.55,1.56,1.54v2.46h-.44l-.02-.74ZM92.85,526.97c.72,0,1.33-.57,1.33-1.35v-.22h-1.2c-.32,0-.63.05-.84.2-.17.13-.27.31-.27.58,0,.49.37.8.98.8Z"></path><path class="cls-33" d="M95.67,525.34c0-1.13.65-2.02,1.76-2.02.72,0,1.28.36,1.54,1.07l-.43.17c-.17-.5-.55-.82-1.11-.82-.87,0-1.29.77-1.29,1.61s.42,1.61,1.29,1.61c.56,0,.94-.31,1.11-.82l.43.16c-.26.71-.82,1.08-1.54,1.08-1.11,0-1.76-.9-1.76-2.03Z"></path><path class="cls-33" d="M99.74,525.34c0-1.13.65-2.02,1.76-2.02.72,0,1.28.36,1.54,1.07l-.43.17c-.17-.5-.55-.82-1.11-.82-.87,0-1.29.77-1.29,1.61s.42,1.61,1.29,1.61c.56,0,.94-.31,1.11-.82l.43.16c-.26.71-.82,1.08-1.54,1.08-1.11,0-1.76-.9-1.76-2.03Z"></path><path class="cls-33" d="M103.82,525.37c0-1.13.61-2.05,1.73-2.05,1.21,0,1.7.94,1.7,1.81,0,.06,0,.24-.02.34h-2.93c.02.93.52,1.47,1.32,1.47.5,0,.83-.14,1.17-.51l.34.3c-.45.46-.88.65-1.51.65-1.16,0-1.79-.87-1.79-2ZM106.78,525.11s0-.1,0-.15c0-.57-.36-1.24-1.23-1.24-.75,0-1.22.6-1.27,1.39h2.49Z"></path><path class="cls-33" d="M107.92,526.47l.34-.28c.2.46.66.77,1.26.77.57,0,.95-.27.95-.72,0-.55-.53-.68-1.1-.82-.66-.16-1.23-.38-1.23-1.06,0-.62.53-1.05,1.29-1.05.6,0,1.1.26,1.37.76l-.37.21c-.21-.38-.57-.58-1.01-.58-.48,0-.84.24-.84.62,0,.4.36.54.93.68.67.16,1.43.34,1.43,1.2,0,.71-.56,1.17-1.42,1.17-.79,0-1.35-.4-1.6-.9Z"></path><path class="cls-33" d="M111.65,526.47l.34-.28c.2.46.66.77,1.26.77.57,0,.95-.27.95-.72,0-.55-.53-.68-1.1-.82-.66-.16-1.23-.38-1.23-1.06,0-.62.53-1.05,1.29-1.05.6,0,1.1.26,1.37.76l-.37.21c-.21-.38-.57-.58-1.01-.58-.48,0-.84.24-.84.62,0,.4.36.54.93.68.67.16,1.43.34,1.43,1.2,0,.71-.56,1.17-1.42,1.17-.79,0-1.35-.4-1.6-.9Z"></path><path class="cls-33" d="M115.68,521.74h.58v.86h-.58v-.86ZM115.73,523.37h.47v3.94h-.47v-3.94Z"></path><path class="cls-33" d="M117.94,526.54v.78h-.47v-5.57h.47v2.41c.26-.5.77-.84,1.41-.84,1,0,1.79.82,1.79,2.02s-.74,2.03-1.79,2.03c-.64,0-1.14-.31-1.41-.83ZM119.27,526.92c.81,0,1.39-.67,1.39-1.59s-.58-1.59-1.39-1.59-1.37.66-1.37,1.59.57,1.59,1.37,1.59Z"></path><path class="cls-33" d="M122.13,526.49v-4.75h.48v4.67c0,.37.14.52.39.52.1,0,.24-.02.38-.07v.41c-.18.07-.37.1-.52.1-.44,0-.72-.27-.72-.88Z"></path><path class="cls-33" d="M123.97,525.37c0-1.13.61-2.05,1.73-2.05,1.21,0,1.7.94,1.7,1.81,0,.06,0,.24-.02.34h-2.93c.02.93.52,1.47,1.32,1.47.5,0,.83-.14,1.17-.51l.34.3c-.45.46-.88.65-1.51.65-1.16,0-1.79-.87-1.79-2ZM126.93,525.11s0-.1,0-.15c0-.57-.36-1.24-1.23-1.24-.75,0-1.22.6-1.27,1.39h2.49Z"></path><path class="cls-33" d="M130.53,526.49v-4.75h.48v4.67c0,.37.14.52.39.52.1,0,.24-.02.38-.07v.41c-.18.07-.37.1-.52.1-.44,0-.72-.27-.72-.88Z"></path><path class="cls-33" d="M135.28,526.57c-.26.5-.77.79-1.38.79-.88,0-1.42-.48-1.42-1.2,0-.42.18-.71.44-.89.28-.19.67-.26,1.09-.26h1.26v-.17c0-.73-.38-1.13-1.12-1.13-.48,0-.86.18-1.22.63l-.34-.3c.42-.52.94-.75,1.59-.75,1,0,1.56.55,1.56,1.54v2.46h-.44l-.02-.74ZM133.94,526.97c.72,0,1.33-.57,1.33-1.35v-.22h-1.2c-.32,0-.63.05-.84.2-.17.13-.27.31-.27.58,0,.49.37.8.98.8Z"></path><path class="cls-33" d="M138.02,527.19l-1.57-3.82h.53l1.29,3.33,1.3-3.33h.52l-2.27,5.56h-.52l.72-1.75Z"></path><path class="cls-33" d="M140.68,525.34c0-1.18.77-2.02,1.88-2.02s1.87.84,1.87,2.02-.78,2.03-1.87,2.03-1.88-.84-1.88-2.03ZM142.56,526.94c.84,0,1.39-.64,1.39-1.6s-.55-1.6-1.39-1.6-1.4.64-1.4,1.6.56,1.6,1.4,1.6Z"></path><path class="cls-33" d="M145.42,525.82v-2.45h.47v2.28c0,.89.34,1.29,1,1.29.71,0,1.13-.48,1.13-1.57v-2.01h.48v3.94h-.48v-.65c-.25.47-.7.7-1.25.7-.84,0-1.35-.51-1.35-1.55Z"></path><path class="cls-33" d="M150.15,526.4v-2.65h-.88v-.38h.88v-1.14l.48-.28v1.42h.95v.38h-.95v2.54c0,.44.14.68.5.68.12,0,.28-.02.45-.08v.38c-.2.06-.4.1-.57.1-.52,0-.86-.3-.86-.97Z"></path></g></g></g></svg> 