<?xml version="1.0" encoding="UTF-8"?> <svg xmlns="http://www.w3.org/2000/svg" id="Layer_2" data-name="Layer 2" viewBox="0 0 600.27 655.65"><defs><style> .cls-1 { stroke: #afa49f; } .cls-1, .cls-2, .cls-3, .cls-4, .cls-5, .cls-6, .cls-7, .cls-8, .cls-9, .cls-10, .cls-11, .cls-12, .cls-13, .cls-14, .cls-15, .cls-16, .cls-17, .cls-18, .cls-19, .cls-20, .cls-21, .cls-22, .cls-23, .cls-24, .cls-25, .cls-26, .cls-27, .cls-28, .cls-29, .cls-30 { fill: none; } .cls-1, .cls-3, .cls-7, .cls-18, .cls-24, .cls-28 { stroke-width: .25px; } .cls-1, .cls-23, .cls-24 { stroke-miterlimit: 10; } .cls-2 { stroke-dasharray: 1.12 1.12; } .cls-2, .cls-3, .cls-4, .cls-5, .cls-6, .cls-7, .cls-8, .cls-9, .cls-10, .cls-11, .cls-12, .cls-13, .cls-14, .cls-15, .cls-16, .cls-17, .cls-18, .cls-19, .cls-20, .cls-21, .cls-22, .cls-25, .cls-26, .cls-27, .cls-28, .cls-29, .cls-30 { stroke-linecap: round; stroke-linejoin: round; } .cls-2, .cls-4, .cls-5, .cls-6, .cls-8, .cls-9, .cls-10, .cls-11, .cls-12, .cls-13, .cls-14, .cls-16, .cls-17, .cls-19, .cls-20, .cls-21, .cls-22, .cls-25, .cls-26, .cls-27, .cls-30 { stroke: #55453d; stroke-width: .15px; } .cls-3 { stroke-dasharray: 1.54 1.54; } .cls-3, .cls-7, .cls-18 { stroke: #75655e; } .cls-4 { stroke-dasharray: 1.12 1.12; } .cls-31 { fill: #3a2a22; } .cls-5 { stroke-dasharray: .84 .84; } .cls-6 { stroke-dasharray: 1.01 1.01; } .cls-7 { stroke-dasharray: 6.13 5.11; } .cls-8 { stroke-dasharray: 1.01 1.01; } .cls-10 { stroke-dasharray: .72 .72; } .cls-11 { stroke-dasharray: 1.02 1.02; } .cls-12 { stroke-dasharray: .89 .89; } .cls-13 { stroke-dasharray: .93 .93; } .cls-32 { fill: #fff; } .cls-14 { stroke-dasharray: 1.02 1.02; } .cls-15, .cls-23 { stroke-width: .75px; } .cls-15, .cls-23, .cls-28, .cls-29 { stroke: #3a2a22; } .cls-16 { stroke-dasharray: 1.12 1.12; } .cls-17 { stroke-dasharray: .95 .95; } .cls-33 { fill: #bc8ebc; } .cls-19 { stroke-dasharray: 1.01 1.01; } .cls-20 { stroke-dasharray: 1.02 1.02; } .cls-21 { stroke-dasharray: .78 .78; } .cls-22 { stroke-dasharray: 1.02 1.02; } .cls-24 { stroke: #bc8ebc; } .cls-34 { fill: #afa49f; } .cls-25 { stroke-dasharray: 1.02 1.02; } .cls-26 { stroke-dasharray: .53 .53; } .cls-27 { stroke-dasharray: 1.03 1.03; } .cls-29 { stroke-width: .35px; } .cls-35 { fill: #75655e; } .cls-30 { stroke-dasharray: .97 .97; } </style></defs><g id="Layer_1-2" data-name="Layer 1"><g><polygon class="cls-32" points="217.06 142.68 222.05 143.02 222.05 142.99 222.05 143.02 250.23 144.93 289.59 147.89 329.05 151.31 368.41 155.1 407.68 159.26 446.95 163.78 486.22 168.68 525.4 174.04 564.48 179.77 587.14 183.3 587.14 355.49 599.89 355.49 599.89 649.27 511.15 649.27 511.15 635.41 64.12 635.41 64.12 110.92 82.25 111.3 89.22 111.49 88.99 119.62 82.25 119.43 82.25 144.56 117.18 145.67 152.2 147.24 187.12 149 210.23 150.41 216.6 150.79 217.06 142.68"></polygon><line class="cls-9" x1="120.69" y1="112.59" x2="120.19" y2="112.57"></line><line class="cls-30" x1="119.22" y1="112.52" x2="115.85" y2="112.36"></line><line class="cls-9" x1="115.37" y1="112.34" x2="114.87" y2="112.32"></line><line class="cls-9" x1="120.32" y1="120.63" x2="119.82" y2="120.62"></line><line class="cls-17" x1="118.87" y1="120.59" x2="115.56" y2="120.48"></line><line class="cls-9" x1="115.09" y1="120.46" x2="114.59" y2="120.45"></line><line class="cls-9" x1="107.66" y1="112.04" x2="107.16" y2="112.02"></line><polyline class="cls-27" points="106.13 111.99 99.07 111.76 90.19 111.52"></polyline><line class="cls-9" x1="89.68" y1="111.51" x2="89.18" y2="111.49"></line><line class="cls-9" x1="107.38" y1="120.17" x2="106.88" y2="120.15"></line><polyline class="cls-11" points="105.86 120.12 98.79 119.89 90 119.65"></polyline><line class="cls-9" x1="89.49" y1="119.64" x2="88.99" y2="119.62"></line><line class="cls-9" x1="114.87" y1="112.32" x2="114.37" y2="112.3"></line><line class="cls-12" x1="113.48" y1="112.26" x2="108.6" y2="112.08"></line><line class="cls-9" x1="108.16" y1="112.06" x2="107.66" y2="112.04"></line><line class="cls-9" x1="114.87" y1="112.32" x2="114.85" y2="112.82"></line><line class="cls-22" x1="114.81" y1="113.84" x2="114.62" y2="119.44"></line><polyline class="cls-9" points="114.61 119.95 114.59 120.45 114.09 120.43"></polyline><line class="cls-12" x1="113.2" y1="120.39" x2="108.32" y2="120.21"></line><polyline class="cls-9" points="107.88 120.19 107.38 120.17 107.4 119.67"></polyline><line class="cls-22" x1="107.43" y1="118.65" x2="107.62" y2="113.05"></line><line class="cls-9" x1="107.64" y1="112.54" x2="107.66" y2="112.04"></line><line class="cls-9" x1="124.66" y1="120.82" x2="124.68" y2="120.32"></line><line class="cls-25" x1="124.73" y1="119.3" x2="124.98" y2="113.7"></line><polyline class="cls-9" points="125.01 113.19 125.03 112.69 124.53 112.68"></polyline><line class="cls-16" x1="123.42" y1="112.65" x2="121.74" y2="112.62"></line><polyline class="cls-9" points="121.19 112.6 120.69 112.59 120.66 113.09"></polyline><line class="cls-8" x1="120.62" y1="114.1" x2="120.36" y2="119.63"></line><polyline class="cls-9" points="120.34 120.13 120.32 120.63 120.82 120.65"></polyline><line class="cls-4" x1="121.93" y1="120.7" x2="123.6" y2="120.77"></line><line class="cls-9" x1="124.16" y1="120.8" x2="124.66" y2="120.82"></line><line class="cls-9" x1="127.62" y1="112.78" x2="127.12" y2="112.76"></line><line class="cls-26" x1="126.59" y1="112.74" x2="125.79" y2="112.71"></line><line class="cls-9" x1="125.53" y1="112.7" x2="125.03" y2="112.69"></line><line class="cls-9" x1="128.73" y1="112.87" x2="128.23" y2="112.83"></line><polyline class="cls-9" points="128.12 112.82 127.62 112.78 127.59 113.28"></polyline><line class="cls-25" x1="127.55" y1="114.3" x2="127.29" y2="119.9"></line><polyline class="cls-9" points="127.27 120.41 127.25 120.91 126.75 120.89"></polyline><line class="cls-26" x1="126.22" y1="120.87" x2="125.42" y2="120.85"></line><line class="cls-9" x1="125.16" y1="120.84" x2="124.66" y2="120.82"></line><line class="cls-9" x1="128.73" y1="112.87" x2="128.71" y2="113.37"></line><line class="cls-6" x1="128.67" y1="114.38" x2="128.48" y2="119.91"></line><polyline class="cls-9" points="128.47 120.41 128.45 120.91 127.95 120.91"></polyline><line class="cls-9" x1="127.75" y1="120.91" x2="127.25" y2="120.91"></line><line class="cls-9" x1="99.07" y1="111.76" x2="99.05" y2="112.26"></line><line class="cls-22" x1="99.01" y1="113.28" x2="98.82" y2="118.88"></line><line class="cls-9" x1="98.81" y1="119.39" x2="98.79" y2="119.89"></line><line class="cls-9" x1="204.96" y1="141.88" x2="205.46" y2="141.92"></line><polyline class="cls-19" points="206.46 141.98 210.78 142.25 216.05 142.61"></polyline><line class="cls-9" x1="216.56" y1="142.64" x2="217.06" y2="142.68"></line><line class="cls-9" x1="204.49" y1="150.02" x2="204.52" y2="149.52"></line><line class="cls-14" x1="204.58" y1="148.5" x2="204.9" y2="142.89"></line><polyline class="cls-9" points="204.93 142.38 204.96 141.89 204.46 141.86"></polyline><line class="cls-5" x1="203.62" y1="141.81" x2="200.7" y2="141.66"></line><line class="cls-9" x1="200.28" y1="141.63" x2="199.78" y2="141.61"></line><line class="cls-9" x1="199.32" y1="149.65" x2="199.35" y2="149.15"></line><line class="cls-8" x1="199.41" y1="148.14" x2="199.72" y2="142.61"></line><polyline class="cls-9" points="199.75 142.11 199.78 141.61 199.28 141.58"></polyline><line class="cls-21" x1="198.5" y1="141.54" x2="195.77" y2="141.38"></line><line class="cls-9" x1="195.38" y1="141.36" x2="194.88" y2="141.33"></line><line class="cls-9" x1="194.42" y1="149.37" x2="194.45" y2="148.87"></line><line class="cls-8" x1="194.51" y1="147.86" x2="194.83" y2="142.33"></line><polyline class="cls-9" points="194.86 141.83 194.88 141.33 194.39 141.3"></polyline><line class="cls-2" x1="193.27" y1="141.23" x2="191.6" y2="141.12"></line><line class="cls-9" x1="191.04" y1="141.09" x2="190.54" y2="141.05"></line><line class="cls-9" x1="190.08" y1="149.18" x2="190.11" y2="148.69"></line><line class="cls-14" x1="190.17" y1="147.67" x2="190.48" y2="142.06"></line><polyline class="cls-9" points="190.51 141.55 190.54 141.05 190.04 141.03"></polyline><line class="cls-13" x1="189.11" y1="140.98" x2="187.72" y2="140.92"></line><line class="cls-9" x1="187.25" y1="140.89" x2="186.75" y2="140.87"></line><line class="cls-9" x1="186.38" y1="148.91" x2="186.41" y2="148.41"></line><line class="cls-8" x1="186.45" y1="147.4" x2="186.71" y2="141.87"></line><polyline class="cls-9" points="186.73 141.37 186.75 140.87 186.25 140.84"></polyline><line class="cls-10" x1="185.54" y1="140.8" x2="184.47" y2="140.73"></line><line class="cls-9" x1="184.11" y1="140.71" x2="183.61" y2="140.68"></line><line class="cls-9" x1="183.15" y1="148.81" x2="183.18" y2="148.32"></line><line class="cls-14" x1="183.24" y1="147.3" x2="183.55" y2="141.69"></line><polyline class="cls-9" points="183.58 141.18 183.61 140.68 183.11 140.67"></polyline><line class="cls-26" x1="182.58" y1="140.65" x2="181.79" y2="140.62"></line><line class="cls-9" x1="181.52" y1="140.61" x2="181.02" y2="140.59"></line><line class="cls-9" x1="180.56" y1="148.63" x2="180.59" y2="148.13"></line><line class="cls-8" x1="180.65" y1="147.13" x2="180.97" y2="141.59"></line><line class="cls-9" x1="181" y1="141.09" x2="181.02" y2="140.59"></line><line class="cls-9" x1="210.78" y1="142.25" x2="210.74" y2="142.75"></line><line class="cls-20" x1="210.67" y1="143.78" x2="210.3" y2="149.4"></line><line class="cls-9" x1="210.26" y1="149.91" x2="210.23" y2="150.41"></line><polyline class="cls-29" points="222.05 156.13 187.12 154 152.2 152.25 117.18 150.68 82.25 149.57"></polyline><polyline class="cls-29" points="222.05 158.13 187.12 156.01 152.2 154.25 117.18 152.68 82.25 151.57"></polyline><g><path class="cls-9" d="M498.11,579.21c-25.52,0-43.4,20.69-43.4,46.2"></path><path class="cls-9" d="M470.8,452.16c23.13,0,39.35,18.62,39.35,41.58"></path><path class="cls-9" d="M230.17,582.63c-23.13,0-39.35-18.62-39.35-41.58"></path><path class="cls-9" d="M195.44,488c0-23.13,18.61-39.35,41.58-39.35"></path><path class="cls-9" d="M180.47,214.32c0-23.13,18.61-39.35,41.58-39.35"></path><path class="cls-9" d="M474.95,386.36c0-23.13-18.61-39.35-41.58-39.35"></path></g><line class="cls-9" x1="500.91" y1="635.41" x2="454.71" y2="635.41"></line><line class="cls-9" x1="454.71" y1="625.42" x2="498.11" y2="625.42"></line><rect class="cls-29" x="530.39" y="359.76" width="34.65" height="2.21"></rect><rect class="cls-29" x="495.74" y="361.98" width="34.65" height="2.21"></rect><rect class="cls-29" x="498.11" y="579.21" width="2.8" height="46.2"></rect><rect class="cls-29" x="468.57" y="452.17" width="2.23" height="41.58"></rect><rect class="cls-29" x="230.17" y="541.05" width="2.23" height="41.58"></rect><rect class="cls-29" x="195.44" y="488" width="41.58" height="2.23"></rect><rect class="cls-29" x="180.47" y="214.31" width="41.58" height="2.23"></rect><rect class="cls-29" x="433.37" y="386.36" width="41.58" height="2.23"></rect><rect class="cls-29" x="515.42" y="505.2" width="2.21" height="41.67"></rect><rect class="cls-29" x="515.42" y="561.75" width="2.21" height="60.06"></rect><line class="cls-29" x1="515.42" y1="591.78" x2="517.63" y2="591.78"></line><rect class="cls-29" x="175.85" y="448.65" width="2.21" height="41.58"></rect><polyline class="cls-18" points="290.3 513.45 289.55 513.45 289.55 514.2"></polyline><line class="cls-3" x1="289.55" y1="515.73" x2="289.55" y2="539.54"></line><polyline class="cls-18" points="289.55 540.31 289.55 541.06 290.3 541.06"></polyline><line class="cls-3" x1="291.84" y1="541.06" x2="315.64" y2="541.06"></line><polyline class="cls-18" points="316.41 541.06 317.16 541.06 317.16 540.31"></polyline><line class="cls-3" x1="317.16" y1="538.77" x2="317.16" y2="514.96"></line><polyline class="cls-18" points="317.16 514.2 317.16 513.45 316.41 513.45"></polyline><line class="cls-3" x1="314.87" y1="513.45" x2="291.07" y2="513.45"></line><polyline class="cls-18" points="372.99 513.45 372.24 513.45 372.24 514.2"></polyline><line class="cls-3" x1="372.24" y1="515.73" x2="372.24" y2="539.54"></line><polyline class="cls-18" points="372.24 540.31 372.24 541.06 372.99 541.06"></polyline><line class="cls-3" x1="374.53" y1="541.06" x2="398.33" y2="541.06"></line><polyline class="cls-18" points="399.1 541.06 399.85 541.06 399.85 540.31"></polyline><line class="cls-3" x1="399.85" y1="538.77" x2="399.85" y2="514.96"></line><polyline class="cls-18" points="399.85 514.19 399.85 513.44 399.1 513.44"></polyline><line class="cls-3" x1="397.57" y1="513.45" x2="373.76" y2="513.45"></line><line class="cls-18" x1="287.84" y1="603.78" x2="290.84" y2="603.78"></line><line class="cls-7" x1="295.95" y1="603.78" x2="383.26" y2="603.78"></line><line class="cls-18" x1="385.82" y1="603.78" x2="388.82" y2="603.78"></line><line class="cls-29" x1="424.97" y1="591.86" x2="246.26" y2="591.87"></line><line class="cls-29" x1="287.84" y1="591.87" x2="287.84" y2="619.3"></line><line class="cls-29" x1="388.82" y1="591.87" x2="388.82" y2="619.29"></line><line class="cls-29" x1="287.84" y1="594.37" x2="246.26" y2="594.37"></line><line class="cls-29" x1="424.97" y1="594.37" x2="388.82" y2="594.37"></line><rect class="cls-29" x="286.02" y="491.47" width="117.32" height="49.58"></rect><g><rect class="cls-29" x="352.13" y="511.11" width="1.74" height="9.78" rx=".59" ry=".59"></rect><path class="cls-29" d="M353,526.79c.49,0,.9.4.9.9s-.4.9-.9.9-.9-.4-.9-.9.4-.9.9-.9Z"></path></g><polyline class="cls-29" points="353.87 512.43 356.29 512.43 356.29 513.98 353.87 513.98"></polyline><line class="cls-29" x1="355.43" y1="513.98" x2="355.43" y2="512.43"></line><polyline class="cls-29" points="353.87 516.29 365.92 516.29 365.92 538.05 340.07 538.05 340.07 516.29 352.13 516.29"></polyline><polyline class="cls-29" points="352.13 517.37 341.15 517.37 341.15 536.97 364.84 536.97 364.84 517.37 353.87 517.37"></polyline><line class="cls-29" x1="566.49" y1="486.44" x2="569.69" y2="486.44"></line><g><path class="cls-29" d="M570.56,486.44h11.6c1.38,0,2.5-1.12,2.5-2.5v-61.83c0-1.38-1.12-2.5-2.5-2.5h-24.04c-1.38,0-2.5,1.12-2.5,2.5v61.83c0,1.38,1.12,2.5,2.5,2.5h8.37"></path><path class="cls-29" d="M569.69,490.47v-10.86c0-.24.19-.43.43-.43s.43.19.43.43v10.81"></path><path class="cls-29" d="M570.56,480.69c.46-.17.79-.61.79-1.14,0-.67-.54-1.21-1.21-1.21s-1.21.54-1.21,1.21c0,.51.32.95.77,1.13"></path><path class="cls-29" d="M570.56,484.72c2.67-.22,4.76-2.45,4.76-5.17,0-2.86-2.32-5.18-5.18-5.18-2.86,0-5.18,2.32-5.18,5.18,0,2.71,2.09,4.94,4.74,5.16"></path></g><rect class="cls-29" x="567.59" y="490.47" width="5.08" height=".97"></rect><line class="cls-29" x1="551.91" y1="491.43" x2="551.91" y2="415.21"></line><line class="cls-29" x1="550.62" y1="491.43" x2="550.62" y2="415.25"></line><line class="cls-29" x1="550.62" y1="486.75" x2="551.91" y2="486.75"></line><line class="cls-29" x1="550.62" y1="448.75" x2="551.9" y2="448.75"></line><g><rect class="cls-29" x="520.25" y="401.35" width="17.6" height="7.45" rx="1.08" ry="1.08"></rect><path class="cls-29" d="M533.51,412.95c.28,0,.54.11.73.32,1.88,2.09,3.08,5.3,3.08,8.9,0,6.31-3.71,11.42-8.28,11.42-4.57,0-8.27-5.11-8.27-11.42,0-3.6,1.2-6.8,3.08-8.9.19-.21.46-.32.73-.32h8.92Z"></path></g><line class="cls-29" x1="537.33" y1="422.17" x2="537.33" y2="408.65"></line><line class="cls-29" x1="520.77" y1="422.17" x2="520.78" y2="408.65"></line><polyline class="cls-29" points="508.38 401.35 508.37 426.37 463.95 426.36"></polyline><path class="cls-29" d="M490.37,409.41h-9.87c-.4,0-.72.32-.72.72v10.9c0,.4.32.72.72.72h20.82c.4,0,.72-.32.72-.72v-10.9c0-.4-.32-.72-.72-.72h-9.48"></path><rect class="cls-29" x="490.37" y="405.96" width="1.47" height="5.89"></rect><circle class="cls-29" cx="491.1" cy="415.58" r=".84"></circle><rect class="cls-29" x="524.08" y="510.74" width="38.03" height="30.61"></rect><polyline class="cls-29" points="237.02 594.53 160.21 594.53 160.21 619.67"></polyline><path class="cls-29" d="M180.96,611.59h-9.87c-.4,0-.72-.32-.72-.72v-10.9c0-.4.32-.72.72-.72h20.82c.4,0,.72.32.72.72v10.9c0,.4-.32.72-.72.72h-9.48"></path><rect class="cls-29" x="180.96" y="609.15" width="1.47" height="5.89"></rect><circle class="cls-29" cx="181.69" cy="605.42" r=".84"></circle><line class="cls-29" x1="119.21" y1="543.36" x2="119.21" y2="619.55"></line><line class="cls-29" x1="117.93" y1="543.36" x2="117.93" y2="619.55"></line><line class="cls-29" x1="117.93" y1="548.05" x2="119.21" y2="548.05"></line><line class="cls-29" x1="117.93" y1="586.05" x2="119.21" y2="586.05"></line><line class="cls-29" x1="77.63" y1="606.16" x2="117.93" y2="606.16"></line><g><path class="cls-29" d="M98.99,555.25c0,.67-.54,1.21-1.21,1.21s-1.21-.54-1.21-1.21.54-1.21,1.21-1.21,1.21.54,1.21,1.21Z"></path><path class="cls-29" d="M102.96,555.25c0,2.86-2.32,5.18-5.18,5.18s-5.18-2.32-5.18-5.18,2.32-5.18,5.18-5.18,5.18,2.32,5.18,5.18Z"></path><rect class="cls-29" x="130.91" y="612.09" width="17.6" height="7.45" rx="1.08" ry="1.08"></rect><path class="cls-29" d="M144.17,607.95c.28,0,.54-.11.73-.32,1.88-2.09,3.09-5.3,3.09-8.9,0-6.31-3.71-11.42-8.28-11.42s-8.28,5.11-8.28,11.42c0,3.6,1.2,6.8,3.08,8.9.19.21.46.32.73.32h8.92Z"></path></g><line class="cls-29" x1="147.99" y1="598.73" x2="147.99" y2="612.25"></line><line class="cls-29" x1="131.44" y1="598.73" x2="131.44" y2="612.25"></line><path class="cls-29" d="M215.71,611.59h-9.87c-.4,0-.72-.32-.72-.72v-10.9c0-.4.32-.72.72-.72h20.82c.4,0,.72.32.72.72v10.9c0,.4-.32.72-.72.72h-9.48"></path><rect class="cls-29" x="215.71" y="609.15" width="1.47" height="5.89"></rect><circle class="cls-28" cx="216.45" cy="605.42" r=".84"></circle><rect class="cls-29" x="320.35" y="593.15" width="36.98" height="24.28"></rect><rect class="cls-29" x="321.43" y="594.23" width="34.82" height="22.12"></rect><path class="cls-29" d="M338.84,594.98c.71,0,1.28.57,1.28,1.28s-.57,1.28-1.28,1.28-1.28-.57-1.28-1.28c0-.71.57-1.28,1.28-1.28Z"></path><line class="cls-29" x1="356.24" y1="594.23" x2="357.32" y2="593.15"></line><line class="cls-29" x1="321.43" y1="594.23" x2="320.35" y2="593.15"></line><line class="cls-29" x1="321.43" y1="616.35" x2="320.35" y2="617.43"></line><line class="cls-29" x1="356.25" y1="616.34" x2="357.33" y2="617.42"></line><polygon class="cls-29" points="337.78 596.26 338.84 597.32 339.89 596.26 338.84 595.21 337.78 596.26"></polygon><line class="cls-29" x1="338.84" y1="597.32" x2="338.84" y2="595.21"></line><g><path class="cls-28" d="M534.3,603.89c-1.51.03-3.03.06-4.57.13-.8.04-1.6.09-2.35.13-.57.03-1.11.07-1.78.16-.65.09-1.42.25-1.73-.23-.07-.11-.12-.25-.13-.38-.06-.77,1.18-.9,2.24-.97,2.35-.15,3.74.04,5.44.16.9.06,1.9.1,2.89.14.99-.04,1.98-.08,2.89-.14,1.7-.11,3.09-.3,5.44-.16,1.05.07,2.3.2,2.24.97-.01.13-.06.27-.12.38-.31.48-1.08.33-1.73.23-.67-.1-1.21-.13-1.78-.16-.75-.04-1.56-.09-2.35-.13-1.55-.07-3.06-.1-4.57-.13Z"></path><path class="cls-28" d="M534.3,599.19c-1.51.03-3.03.06-4.57.13-.8.04-1.6.09-2.35.13-.57.03-1.11.07-1.78.16-.65.09-1.42.25-1.73-.23-.07-.11-.12-.25-.13-.38-.06-.77,1.18-.9,2.24-.97,2.35-.15,3.74.04,5.44.16.9.06,1.9.1,2.89.14.99-.04,1.98-.08,2.89-.14,1.7-.11,3.09-.3,5.44-.16,1.05.07,2.3.2,2.24.97-.01.13-.06.27-.12.38-.31.48-1.08.33-1.73.23-.67-.1-1.21-.13-1.78-.16-.75-.04-1.56-.09-2.35-.13-1.55-.07-3.06-.1-4.57-.13Z"></path><path class="cls-28" d="M534.3,594.5c-1.51.03-3.03.06-4.57.13-.8.04-1.6.09-2.35.13-.57.03-1.11.07-1.78.16-.65.09-1.42.25-1.73-.23-.07-.11-.12-.25-.13-.38-.06-.77,1.18-.9,2.24-.97,2.35-.15,3.74.04,5.44.16.9.06,1.9.1,2.89.14.99-.04,1.98-.08,2.89-.14,1.7-.11,3.09-.3,5.44-.16,1.05.07,2.3.2,2.24.97-.01.13-.06.27-.12.38-.31.48-1.08.33-1.73.23-.67-.1-1.21-.13-1.78-.16-.75-.04-1.56-.09-2.35-.13-1.55-.07-3.06-.1-4.57-.13Z"></path></g><line class="cls-28" x1="534.3" y1="558.42" x2="534.3" y2="639.27"></line><g><path class="cls-28" d="M536.07,378.65c-.03-1.51-.06-3.03-.13-4.57-.04-.8-.09-1.6-.13-2.35-.03-.57-.07-1.11-.16-1.78-.09-.65-.25-1.42.23-1.73.11-.07.25-.12.38-.13.77-.06.9,1.18.97,2.24.15,2.35-.04,3.74-.16,5.44-.06.9-.1,1.9-.14,2.89.04.99.08,1.98.14,2.89.11,1.7.3,3.09.16,5.44-.07,1.05-.2,2.3-.97,2.24-.13-.01-.27-.06-.38-.13-.48-.3-.32-1.08-.23-1.73.1-.67.13-1.21.16-1.78.04-.75.09-1.56.13-2.36.07-1.54.1-3.06.13-4.57Z"></path><path class="cls-28" d="M540.77,378.65c-.03-1.51-.06-3.03-.13-4.57-.04-.8-.09-1.6-.13-2.35-.03-.57-.07-1.11-.16-1.78-.09-.65-.25-1.42.23-1.73.11-.07.25-.12.38-.13.77-.06.9,1.18.97,2.24.15,2.35-.04,3.74-.16,5.44-.06.9-.1,1.9-.14,2.89.04.99.08,1.98.14,2.89.11,1.7.3,3.09.16,5.44-.07,1.05-.2,2.3-.97,2.24-.13-.01-.27-.06-.38-.13-.48-.3-.32-1.08-.23-1.73.1-.67.13-1.21.16-1.78.04-.75.09-1.56.13-2.36.07-1.54.1-3.06.13-4.57Z"></path><path class="cls-28" d="M545.46,378.65c-.03-1.51-.06-3.03-.13-4.57-.04-.8-.09-1.6-.13-2.35-.03-.57-.07-1.11-.16-1.78-.09-.65-.25-1.42.23-1.73.11-.07.25-.12.38-.13.77-.06.9,1.18.97,2.24.15,2.35-.04,3.74-.16,5.44-.06.9-.1,1.9-.14,2.89.04.99.08,1.98.14,2.89.11,1.7.3,3.09.16,5.44-.07,1.05-.2,2.3-.97,2.24-.13-.01-.27-.06-.38-.13-.48-.3-.32-1.08-.23-1.73.1-.67.13-1.21.16-1.78.04-.75.09-1.56.13-2.36.07-1.54.1-3.06.13-4.57Z"></path></g><line class="cls-28" x1="589.89" y1="378.65" x2="492.32" y2="378.65"></line><polyline class="cls-28" points="222.05 151.12 187.12 149 152.2 147.24 117.18 145.67 82.25 144.56"></polyline><line class="cls-28" x1="230.09" y1="246.57" x2="74.12" y2="246.57"></line><polyline class="cls-28" points="230.09 172.65 230.09 151.59 268.07 154.36 306.04 157.41 344.02 160.83 381.9 164.62 419.69 168.68 457.58 173.21 495.28 178.11 533.07 183.28 560.23 187.28"></polyline><line class="cls-28" x1="86.7" y1="119.56" x2="82.25" y2="119.43"></line><line class="cls-28" x1="587.14" y1="191.44" x2="587.14" y2="185.62"></line><line class="cls-28" x1="64.12" y1="113.19" x2="64.12" y2="119.15"></line><polygon class="cls-15" points="64.12 110.92 82.25 111.3 82.25 238.44 222.05 238.44 222.05 218.85 224.36 218.85 224.36 240.75 79.94 240.75 79.94 113.52 64.12 113.19 64.12 110.92"></polygon><polygon class="cls-15" points="587.14 185.62 570.49 183 532.24 177.37 493.89 172.1 455.45 167.11 417.01 162.58 378.58 158.42 340.04 154.64 301.51 151.22 262.89 148.17 224.36 145.49 224.36 172.65 222.05 172.65 222.05 142.99 222.05 143.02 250.23 144.93 289.59 147.89 329.05 151.31 368.41 155.1 407.68 159.26 446.95 163.78 486.22 168.68 525.4 174.04 564.48 179.77 587.14 183.3 587.14 185.62"></polygon><polygon class="cls-15" points="82.25 111.3 89.18 111.49 89.14 113.8 89.09 113.8 82.25 113.61 82.25 111.3"></polygon><polygon class="cls-15" points="222.05 143.02 217.06 142.68 216.93 144.99 222.05 145.35 222.05 143.02"></polygon><rect class="cls-15" x="150.44" y="240.75" width="2.31" height="5.82"></rect><rect class="cls-15" x="81.05" y="240.75" width="2.31" height="5.82"></rect><rect class="cls-15" x="74.12" y="237.33" width="5.82" height="2.31"></rect><polyline class="cls-15" points="287.01 150.02 286.55 155.75 284.24 155.56 284.7 149.83 287.01 150.02"></polyline><polyline class="cls-15" points="355.94 156.21 355.38 161.94 353.07 161.66 353.63 155.93 355.94 156.21"></polyline><polyline class="cls-15" points="424.87 163.51 424.22 169.24 421.91 168.96 422.56 163.23 424.87 163.51"></polyline><polyline class="cls-15" points="459.24 167.57 458.59 173.39 456.28 173.02 456.93 167.3 459.24 167.57"></polyline><polyline class="cls-15" points="493.61 172.01 492.87 177.74 490.56 177.46 491.3 171.73 493.61 172.01"></polyline><polyline class="cls-15" points="562.27 181.71 561.34 187.44 559.13 187.07 559.96 181.43 562.27 181.71"></polyline><polygon class="cls-15" points="219.21 145.15 218.9 150.93 216.6 150.79 216.93 144.99 219.21 145.15"></polygon><polyline class="cls-15" points="89.14 113.8 88.99 119.62 86.7 119.56 86.83 113.74 89.14 113.8"></polyline><rect class="cls-15" x="222.05" y="216.54" width="8.04" height="2.31"></rect><rect class="cls-15" x="222.05" y="172.65" width="8.04" height="2.31"></rect><rect class="cls-15" x="74.12" y="191.6" width="5.82" height="2.31"></rect><rect class="cls-15" x="74.12" y="145.86" width="5.82" height="2.31"></rect><polyline class="cls-15" points="79.94 113.52 78.37 113.52 72.55 119.15 74.12 119.15 74.12 120.82 79.94 115.18 79.94 113.52"></polyline><rect class="cls-15" x="220.85" y="240.75" width="2.31" height="5.82"></rect><rect class="cls-15" x="224.36" y="237.33" width="5.73" height="2.31"></rect><polyline class="cls-15" points="228.06 151.12 229.26 152.42 230.09 153.34 230.09 151.59 231.75 151.77 226.02 145.58 224.36 145.49 224.36 147.15 227.32 150.29 228.06 151.12"></polyline><polygon class="cls-31" points="422.37 174.87 423.02 169.14 457.39 173.21 456.65 178.94 433.37 176.17 433.37 347.01 427.64 347.01 427.64 175.43 422.37 174.87"></polygon><polygon class="cls-23" points="422.37 174.87 423.02 169.14 457.39 173.21 456.65 178.94 433.37 176.17 433.37 347.01 427.64 347.01 427.64 175.43 422.37 174.87"></polygon><polygon class="cls-31" points="500.91 625.41 515.42 625.41 515.42 621.81 521.15 621.81 521.15 639.27 548.87 639.27 548.87 558.42 521.15 558.42 521.15 561.75 515.42 561.75 515.42 546.87 521.15 546.87 521.15 550.29 565.04 550.29 565.04 501.78 521.15 501.78 521.15 505.2 515.42 505.2 515.42 499.47 510.15 499.47 510.15 493.74 550.62 493.74 550.62 491.43 589.89 491.43 589.89 415.2 550.62 415.2 550.62 401.34 463.95 401.34 463.95 493.74 468.57 493.74 468.57 499.47 458.22 499.47 458.22 399.03 427.64 399.03 427.64 388.59 433.37 388.59 433.37 393.21 486.5 393.21 486.5 359.76 495.74 359.76 495.74 365.49 492.32 365.49 492.32 393.21 589.89 393.21 589.89 365.49 565.04 365.49 565.04 359.76 577.14 359.76 577.14 195.66 559.4 192.98 560.23 187.25 587.14 191.45 587.14 355.49 599.89 355.49 599.89 649.27 511.15 649.27 511.15 635.41 500.91 635.41 500.91 625.41"></polygon><polygon class="cls-23" points="500.91 625.41 515.42 625.41 515.42 621.81 521.15 621.81 521.15 639.27 548.87 639.27 548.87 558.42 521.15 558.42 521.15 561.75 515.42 561.75 515.42 546.87 521.15 546.87 521.15 550.29 565.04 550.29 565.04 501.78 521.15 501.78 521.15 505.2 515.42 505.2 515.42 499.47 510.15 499.47 510.15 493.74 550.62 493.74 550.62 491.43 589.89 491.43 589.89 415.2 550.62 415.2 550.62 401.34 463.95 401.34 463.95 493.74 468.57 493.74 468.57 499.47 458.22 499.47 458.22 399.03 427.64 399.03 427.64 388.59 433.37 388.59 433.37 393.21 486.5 393.21 486.5 359.76 495.74 359.76 495.74 365.49 492.32 365.49 492.32 393.21 589.89 393.21 589.89 365.49 565.04 365.49 565.04 359.76 577.14 359.76 577.14 195.66 559.4 192.98 560.23 187.25 587.14 191.45 587.14 355.49 599.89 355.49 599.89 649.27 511.15 649.27 511.15 635.41 500.91 635.41 500.91 625.41"></polygon><polygon class="cls-31" points="454.71 625.41 431.06 625.41 431.06 591.87 425.33 591.87 425.33 619.29 246.26 619.29 246.26 591.87 242.84 591.87 242.84 490.23 237.02 490.23 237.02 535.32 232.4 535.32 232.4 541.05 237.02 541.05 237.02 619.59 77.63 619.59 77.63 543.36 119.21 543.36 119.21 541.05 190.82 541.05 190.82 535.32 181.58 535.32 181.58 490.23 175.85 490.23 175.85 535.32 77.63 535.32 77.63 444.03 175.85 444.03 175.85 448.65 181.58 448.65 181.58 438.3 77.63 438.3 77.63 246.57 74.12 246.57 74.12 119.15 64.12 119.15 64.12 635.41 454.71 635.41 454.71 625.41"></polygon><polygon class="cls-23" points="454.71 625.41 431.06 625.41 431.06 591.87 425.33 591.87 425.33 619.29 246.26 619.29 246.26 591.87 242.84 591.87 242.84 490.23 237.02 490.23 237.02 535.32 232.4 535.32 232.4 541.05 237.02 541.05 237.02 619.59 77.63 619.59 77.63 543.36 119.21 543.36 119.21 541.05 190.82 541.05 190.82 535.32 181.58 535.32 181.58 490.23 175.85 490.23 175.85 535.32 77.63 535.32 77.63 444.03 175.85 444.03 175.85 448.65 181.58 448.65 181.58 438.3 77.63 438.3 77.63 246.57 74.12 246.57 74.12 119.15 64.12 119.15 64.12 635.41 454.71 635.41 454.71 625.41"></polygon><polygon class="cls-31" points="252.63 218.85 230.09 218.85 230.09 320.49 246.81 320.49 246.81 438.3 237.02 438.3 237.02 448.65 242.84 448.65 242.84 444.03 252.63 444.03 252.63 218.85"></polygon><polygon class="cls-23" points="252.63 218.85 230.09 218.85 230.09 320.49 246.81 320.49 246.81 438.3 237.02 438.3 237.02 448.65 242.84 448.65 242.84 444.03 252.63 444.03 252.63 218.85"></polygon><g><path class="cls-33" d="M477.67,647.42c.02-.08.07-.14.14-.14s.13.06.14.14c.56,3.3,2.74,4.94,6.02,4.94h3.83c1.16,0,1.98,1.01,2.21,2.66.05.33-.23.61-.47.45-.46-.31-1.06-.47-1.78-.47h-3.48c-2.95,0-5.21-1.67-6.17-4.98-.11-.37-.5-.37-.61,0-.96,3.31-3.22,4.98-6.18,4.98h-3.48c-.72,0-1.31.16-1.78.47-.23.16-.51-.12-.47-.45.22-1.64,1.05-2.66,2.2-2.66h3.84c3.29,0,5.46-1.64,6.02-4.95h0Z"></path><path class="cls-24" d="M477.67,647.42c.02-.08.07-.14.14-.14s.13.06.14.14c.56,3.3,2.74,4.94,6.02,4.94h3.83c1.16,0,1.98,1.01,2.21,2.66.05.33-.23.61-.47.45-.46-.31-1.06-.47-1.78-.47h-3.48c-2.95,0-5.21-1.67-6.17-4.98-.11-.37-.5-.37-.61,0-.96,3.31-3.22,4.98-6.18,4.98h-3.48c-.72,0-1.31.16-1.78.47-.23.16-.51-.12-.47-.45.22-1.64,1.05-2.66,2.2-2.66h3.84c3.29,0,5.46-1.64,6.02-4.95h0Z"></path></g><g><path class="cls-31" d="M112.75,348.9h2.52c1.9,0,2.97.89,2.97,2.53s-1.07,2.54-2.97,2.54h-1.72v3.99h-.8v-9.06ZM115.19,353.25c1.41,0,2.24-.61,2.24-1.81s-.81-1.81-2.24-1.81h-1.64v3.62h1.64Z"></path><path class="cls-31" d="M119.76,351.55h.78v1.09c.43-.78,1.31-1.18,2.02-1.18.33,0,.66.07.99.24l-.39.7c-.21-.1-.51-.17-.77-.17-.68,0-1.46.36-1.74,1.3-.08.27-.12.57-.12,1.27v3.15h-.78v-6.41Z"></path><path class="cls-31" d="M124.81,348.9h.94v1.39h-.94v-1.39ZM124.9,351.55h.77v6.41h-.77v-6.41Z"></path><path class="cls-31" d="M127.71,351.55h.78v1.1c.38-.85,1.11-1.19,1.88-1.19.91,0,1.57.4,1.89,1.25.4-.83,1.09-1.25,2-1.25,1.55,0,2.13,1.16,2.13,2.69v3.82h-.78v-3.64c0-1.33-.39-2.18-1.52-2.18-1.02,0-1.65.77-1.65,2.26v3.57h-.78v-3.76c0-1.4-.52-2.07-1.5-2.07-1.03,0-1.67.79-1.67,2.26v3.57h-.78v-6.41Z"></path><path class="cls-31" d="M142.53,356.76c-.43.82-1.25,1.29-2.25,1.29-1.44,0-2.31-.77-2.31-1.94,0-.69.29-1.16.72-1.44.46-.31,1.09-.42,1.77-.42h2.05v-.28c0-1.19-.62-1.83-1.82-1.83-.79,0-1.4.29-1.98,1.02l-.56-.48c.68-.85,1.53-1.22,2.59-1.22,1.63,0,2.54.89,2.54,2.51v3.99h-.71l-.04-1.2ZM140.36,357.41c1.18,0,2.17-.93,2.17-2.2v-.36h-1.95c-.51,0-1.03.08-1.37.33-.28.21-.44.51-.44.94,0,.79.6,1.3,1.6,1.3Z"></path><path class="cls-31" d="M145.24,351.55h.78v1.09c.43-.78,1.31-1.18,2.02-1.18.33,0,.66.07.99.24l-.39.7c-.21-.1-.51-.17-.77-.17-.68,0-1.46.36-1.74,1.3-.08.27-.12.57-.12,1.27v3.15h-.78v-6.41Z"></path><path class="cls-31" d="M152.3,357.76l-2.55-6.21h.86l2.1,5.42,2.11-5.42h.85l-3.69,9.05h-.84l1.17-2.84Z"></path><path class="cls-31" d="M160.56,348.9h2.72c1.68,0,2.68.84,2.68,2.25,0,.94-.46,1.68-1.24,2,1.1.25,1.7,1.07,1.7,2.31,0,1.61-1.02,2.5-2.88,2.5h-2.97v-9.06ZM163.53,352.9c.98,0,1.63-.64,1.63-1.64s-.69-1.61-1.88-1.61h-1.91v3.26h2.16ZM163.48,357.21c1.42,0,2.14-.6,2.14-1.79,0-1.13-.66-1.79-1.79-1.79h-2.46v3.58h2.11Z"></path><path class="cls-31" d="M167.88,354.8c0-1.84.99-3.34,2.81-3.34,1.96,0,2.76,1.53,2.76,2.94,0,.1-.01.4-.04.55h-4.76c.03,1.51.84,2.39,2.14,2.39.82,0,1.35-.23,1.91-.83l.55.49c-.73.75-1.43,1.05-2.46,1.05-1.89,0-2.91-1.41-2.91-3.25ZM172.7,354.37c0-.08,0-.16,0-.24,0-.92-.58-2.02-2-2.02-1.23,0-1.98.98-2.07,2.26h4.06Z"></path><path class="cls-31" d="M174.86,354.75c0-1.96,1.29-3.29,2.92-3.29,1.05,0,1.87.54,2.29,1.36v-3.92h.77v9.06h-.77v-1.26c-.44.85-1.25,1.35-2.29,1.35-1.72,0-2.92-1.42-2.92-3.3ZM177.91,357.33c1.3,0,2.23-1.08,2.23-2.58s-.93-2.58-2.23-2.58-2.26,1.09-2.26,2.58.95,2.58,2.26,2.58Z"></path><path class="cls-31" d="M182.88,351.55h.78v1.09c.43-.78,1.31-1.18,2.02-1.18.33,0,.66.07.99.24l-.39.7c-.21-.1-.51-.17-.77-.17-.68,0-1.46.36-1.74,1.3-.08.27-.12.57-.12,1.27v3.15h-.78v-6.41Z"></path><path class="cls-31" d="M187.26,354.75c0-1.92,1.25-3.29,3.05-3.29s3.04,1.37,3.04,3.29-1.27,3.3-3.04,3.3-3.05-1.36-3.05-3.3ZM190.31,357.36c1.37,0,2.26-1.04,2.26-2.61s-.9-2.61-2.26-2.61-2.28,1.05-2.28,2.61.9,2.61,2.28,2.61Z"></path><path class="cls-31" d="M194.79,354.75c0-1.92,1.25-3.29,3.05-3.29s3.04,1.37,3.04,3.29-1.27,3.3-3.04,3.3-3.05-1.36-3.05-3.3ZM197.84,357.36c1.37,0,2.26-1.04,2.26-2.61s-.9-2.61-2.26-2.61-2.28,1.05-2.28,2.61.9,2.61,2.28,2.61Z"></path><path class="cls-31" d="M202.63,351.55h.78v1.1c.38-.85,1.11-1.19,1.88-1.19.91,0,1.57.4,1.89,1.25.4-.83,1.09-1.25,2-1.25,1.55,0,2.13,1.16,2.13,2.69v3.82h-.78v-3.64c0-1.33-.39-2.18-1.52-2.18-1.02,0-1.65.77-1.65,2.26v3.57h-.78v-3.76c0-1.4-.52-2.07-1.5-2.07-1.03,0-1.67.79-1.67,2.26v3.57h-.78v-6.41Z"></path></g><g><path class="cls-31" d="M306.97,267.38h.81v8.33h4.18v.73h-4.99v-9.06Z"></path><path class="cls-31" d="M313.1,267.38h.94v1.39h-.94v-1.39ZM313.18,270.03h.77v6.41h-.77v-6.41Z"></path><path class="cls-31" d="M315.35,270.03h.86l2.1,5.42,2.11-5.42h.85l-2.61,6.41h-.68l-2.63-6.41Z"></path><path class="cls-31" d="M322.61,267.38h.94v1.39h-.94v-1.39ZM322.69,270.03h.77v6.41h-.77v-6.41Z"></path><path class="cls-31" d="M325.5,270.03h.78v1.05c.4-.76,1.12-1.14,2.01-1.14,1.38,0,2.2.81,2.2,2.51v3.99h-.78v-3.71c0-1.45-.55-2.11-1.61-2.11-1.16,0-1.83.79-1.83,2.55v3.27h-.78v-6.41Z"></path><path class="cls-31" d="M331.95,277.2s0-.1.03-.26l1.11-.88c-.57-.22-.96-.59-.96-1.26,0-.53.27-.9.72-1.2-.36-.37-.56-.87-.56-1.45,0-1.3,1.04-2.2,2.38-2.2.64,0,1.22.21,1.64.58l1.02-.86.4.49-1,.88c.19.33.3.71.3,1.14,0,1.28-.96,2.13-2.33,2.13-.53,0-.99-.12-1.37-.34-.31.18-.45.42-.45.72,0,.66.63.83,1.62.98,1.6.25,2.99.44,2.99,1.75,0,1.16-1.05,1.78-2.7,1.78-1.82,0-2.85-.7-2.85-2ZM334.81,278.59c1.09,0,1.92-.34,1.92-1.08,0-.86-1.16-.96-2.31-1.14-.31-.05-.6-.1-.89-.17l-.8.92c-.01.09-.01.11-.01.15,0,.9.79,1.33,2.09,1.33ZM334.68,273.67c.98,0,1.59-.65,1.59-1.53s-.64-1.56-1.58-1.56-1.62.65-1.62,1.55.63,1.55,1.61,1.55Z"></path><path class="cls-31" d="M342.44,267.38h2.52c1.99,0,2.97.93,2.97,2.5,0,1.25-.64,2.07-1.85,2.38l2.44,4.19h-.92l-2.34-4.07c-.21,0-.44,0-.65,0h-1.36v4.06h-.81v-9.06ZM344.88,271.66c1.38,0,2.24-.55,2.24-1.78s-.88-1.77-2.24-1.77h-1.64v3.56h1.64Z"></path><path class="cls-31" d="M349.44,273.23c0-1.92,1.25-3.29,3.05-3.29s3.04,1.36,3.04,3.29-1.27,3.3-3.04,3.3-3.05-1.36-3.05-3.3ZM352.49,275.84c1.37,0,2.26-1.04,2.26-2.61s-.9-2.61-2.26-2.61-2.28,1.05-2.28,2.61.9,2.61,2.28,2.61Z"></path><path class="cls-31" d="M356.98,273.23c0-1.92,1.25-3.29,3.05-3.29s3.04,1.36,3.04,3.29-1.27,3.3-3.04,3.3-3.05-1.36-3.05-3.3ZM360.03,275.84c1.37,0,2.26-1.04,2.26-2.61s-.9-2.61-2.26-2.61-2.28,1.05-2.28,2.61.9,2.61,2.28,2.61Z"></path><path class="cls-31" d="M364.82,270.03h.78v1.1c.38-.85,1.11-1.19,1.88-1.19.91,0,1.57.4,1.89,1.25.4-.83,1.09-1.25,2-1.25,1.55,0,2.13,1.16,2.13,2.68v3.82h-.78v-3.64c0-1.33-.39-2.18-1.52-2.18-1.02,0-1.65.77-1.65,2.26v3.57h-.78v-3.76c0-1.4-.52-2.07-1.5-2.07-1.03,0-1.67.79-1.67,2.26v3.57h-.78v-6.41Z"></path></g><g><path class="cls-31" d="M480.38,267.38h2.72c1.68,0,2.68.84,2.68,2.25,0,.94-.46,1.68-1.24,2,1.1.25,1.7,1.07,1.7,2.31,0,1.61-1.02,2.5-2.88,2.5h-2.97v-9.06ZM483.35,271.38c.98,0,1.63-.64,1.63-1.64s-.69-1.61-1.88-1.61h-1.91v3.26h2.16ZM483.29,275.69c1.42,0,2.14-.6,2.14-1.79,0-1.13-.66-1.79-1.79-1.79h-2.46v3.58h2.11Z"></path><path class="cls-31" d="M487.67,273.28c0-1.84.99-3.34,2.81-3.34,1.96,0,2.76,1.53,2.76,2.94,0,.1-.01.4-.04.55h-4.76c.03,1.51.84,2.39,2.14,2.39.82,0,1.35-.23,1.91-.83l.55.49c-.73.75-1.43,1.05-2.46,1.05-1.89,0-2.91-1.41-2.91-3.25ZM492.49,272.85c0-.08,0-.16,0-.24,0-.92-.58-2.02-2-2.02-1.23,0-1.98.98-2.07,2.26h4.06Z"></path><path class="cls-31" d="M494.64,273.23c0-1.96,1.29-3.29,2.92-3.29,1.05,0,1.87.54,2.29,1.36v-3.92h.77v9.06h-.77v-1.26c-.44.85-1.25,1.35-2.29,1.35-1.72,0-2.92-1.42-2.92-3.3ZM497.68,275.81c1.3,0,2.23-1.08,2.23-2.58s-.93-2.58-2.23-2.58-2.26,1.09-2.26,2.58.95,2.58,2.26,2.58Z"></path><path class="cls-31" d="M502.66,270.03h.78v1.09c.43-.78,1.31-1.18,2.02-1.18.33,0,.66.07.99.24l-.39.7c-.21-.1-.51-.17-.77-.17-.68,0-1.46.36-1.74,1.3-.08.27-.12.57-.12,1.27v3.15h-.78v-6.41Z"></path><path class="cls-31" d="M507.04,273.23c0-1.92,1.25-3.29,3.05-3.29s3.04,1.36,3.04,3.29-1.27,3.3-3.04,3.3-3.05-1.36-3.05-3.3ZM510.09,275.84c1.37,0,2.26-1.04,2.26-2.61s-.9-2.61-2.26-2.61-2.28,1.05-2.28,2.61.9,2.61,2.28,2.61Z"></path><path class="cls-31" d="M514.57,273.23c0-1.92,1.25-3.29,3.05-3.29s3.04,1.36,3.04,3.29-1.27,3.3-3.04,3.3-3.05-1.36-3.05-3.3ZM517.62,275.84c1.37,0,2.26-1.04,2.26-2.61s-.9-2.61-2.26-2.61-2.28,1.05-2.28,2.61.9,2.61,2.28,2.61Z"></path><path class="cls-31" d="M522.41,270.03h.78v1.1c.38-.85,1.11-1.19,1.88-1.19.91,0,1.57.4,1.89,1.25.4-.83,1.09-1.25,2-1.25,1.55,0,2.13,1.16,2.13,2.68v3.82h-.78v-3.64c0-1.33-.39-2.18-1.52-2.18-1.02,0-1.65.77-1.65,2.26v3.57h-.78v-3.76c0-1.4-.52-2.07-1.5-2.07-1.03,0-1.67.79-1.67,2.26v3.57h-.78v-6.41Z"></path></g><g><path class="cls-31" d="M305.58,418.13h2.43c2.94,0,4.62,1.68,4.62,4.6s-1.64,4.46-4.63,4.46h-2.42v-9.06ZM307.92,426.44c2.5,0,3.89-1.16,3.89-3.74s-1.4-3.83-3.82-3.83h-1.61v7.57h1.54Z"></path><path class="cls-31" d="M314.23,418.13h.94v1.39h-.94v-1.39ZM314.32,420.78h.77v6.41h-.77v-6.41Z"></path><path class="cls-31" d="M317.13,420.78h.78v1.05c.4-.76,1.12-1.14,2.01-1.14,1.38,0,2.2.81,2.2,2.51v3.99h-.78v-3.71c0-1.45-.55-2.11-1.61-2.11-1.16,0-1.83.79-1.83,2.55v3.27h-.78v-6.41Z"></path><path class="cls-31" d="M324,418.13h.94v1.39h-.94v-1.39ZM324.09,420.78h.77v6.41h-.77v-6.41Z"></path><path class="cls-31" d="M326.9,420.78h.78v1.05c.4-.76,1.12-1.14,2.01-1.14,1.38,0,2.2.81,2.2,2.51v3.99h-.78v-3.71c0-1.45-.55-2.11-1.61-2.11-1.16,0-1.83.79-1.83,2.55v3.27h-.78v-6.41Z"></path><path class="cls-31" d="M333.35,427.95s0-.1.03-.26l1.11-.88c-.57-.22-.96-.59-.96-1.26,0-.53.27-.9.72-1.2-.36-.37-.56-.87-.56-1.45,0-1.3,1.04-2.2,2.39-2.2.64,0,1.22.21,1.64.58l1.02-.86.4.49-1,.88c.19.33.3.71.3,1.14,0,1.28-.96,2.13-2.33,2.13-.53,0-.99-.12-1.37-.34-.31.17-.45.42-.45.71,0,.66.63.83,1.62.98,1.6.25,2.99.44,2.99,1.75,0,1.16-1.05,1.78-2.7,1.78-1.82,0-2.85-.7-2.85-2ZM336.21,429.34c1.09,0,1.92-.34,1.92-1.08,0-.86-1.16-.96-2.31-1.14-.31-.05-.6-.1-.89-.17l-.8.92c-.01.09-.01.11-.01.15,0,.9.79,1.33,2.09,1.33ZM336.08,424.41c.98,0,1.59-.65,1.59-1.53s-.64-1.56-1.58-1.56-1.62.65-1.62,1.55.63,1.55,1.61,1.55Z"></path><path class="cls-31" d="M343.83,418.13h2.52c1.99,0,2.97.93,2.97,2.5,0,1.25-.64,2.07-1.85,2.38l2.44,4.19h-.92l-2.34-4.07c-.21,0-.44,0-.65,0h-1.36v4.06h-.81v-9.06ZM346.28,422.41c1.38,0,2.24-.55,2.24-1.78s-.88-1.77-2.24-1.77h-1.64v3.56h1.64Z"></path><path class="cls-31" d="M350.84,423.98c0-1.92,1.25-3.29,3.05-3.29s3.04,1.37,3.04,3.29-1.27,3.3-3.04,3.3-3.05-1.37-3.05-3.3ZM353.89,426.59c1.37,0,2.26-1.04,2.26-2.61s-.9-2.61-2.26-2.61-2.28,1.05-2.28,2.61.9,2.61,2.28,2.61Z"></path><path class="cls-31" d="M358.38,423.98c0-1.92,1.25-3.29,3.05-3.29s3.04,1.37,3.04,3.29-1.27,3.3-3.04,3.3-3.05-1.37-3.05-3.3ZM361.42,426.59c1.37,0,2.26-1.04,2.26-2.61s-.9-2.61-2.26-2.61-2.28,1.05-2.28,2.61.9,2.61,2.28,2.61Z"></path><path class="cls-31" d="M366.21,420.78h.78v1.1c.38-.84,1.11-1.19,1.88-1.19.91,0,1.57.4,1.89,1.25.4-.83,1.09-1.25,2-1.25,1.55,0,2.13,1.16,2.13,2.68v3.82h-.78v-3.64c0-1.33-.39-2.18-1.52-2.18-1.02,0-1.65.77-1.65,2.26v3.57h-.78v-3.76c0-1.4-.52-2.07-1.5-2.07-1.03,0-1.67.79-1.67,2.26v3.57h-.78v-6.41Z"></path></g><g><path class="cls-31" d="M126.89,182.76h2.72c1.68,0,2.68.84,2.68,2.25,0,.94-.46,1.68-1.24,2,1.1.25,1.7,1.07,1.7,2.31,0,1.61-1.02,2.5-2.88,2.5h-2.97v-9.06ZM129.86,186.76c.98,0,1.63-.64,1.63-1.64s-.69-1.61-1.88-1.61h-1.91v3.26h2.16ZM129.81,191.07c1.42,0,2.14-.6,2.14-1.79,0-1.13-.66-1.79-1.79-1.79h-2.46v3.58h2.11Z"></path><path class="cls-31" d="M138.71,190.62c-.43.82-1.25,1.29-2.25,1.29-1.44,0-2.31-.77-2.31-1.94,0-.69.29-1.16.72-1.44.46-.31,1.09-.42,1.77-.42h2.05v-.28c0-1.19-.62-1.83-1.82-1.83-.79,0-1.4.29-1.98,1.02l-.56-.48c.68-.85,1.53-1.22,2.59-1.22,1.63,0,2.54.89,2.54,2.51v3.99h-.71l-.04-1.2ZM136.53,191.27c1.18,0,2.17-.93,2.17-2.2v-.36h-1.95c-.51,0-1.03.08-1.37.33-.28.21-.44.51-.44.94,0,.79.6,1.3,1.6,1.3Z"></path><path class="cls-31" d="M141.29,190.49v-7.73h.77v7.59c0,.6.23.85.64.85.17,0,.38-.04.61-.12v.67c-.29.11-.6.17-.84.17-.72,0-1.18-.44-1.18-1.42Z"></path><path class="cls-31" d="M144.26,188.61c0-1.83,1.06-3.29,2.86-3.29,1.17,0,2.09.58,2.51,1.74l-.7.27c-.27-.82-.9-1.33-1.81-1.33-1.42,0-2.09,1.25-2.09,2.61s.68,2.62,2.09,2.62c.91,0,1.53-.51,1.81-1.33l.7.27c-.42,1.16-1.34,1.75-2.51,1.75-1.8,0-2.86-1.46-2.86-3.3Z"></path><path class="cls-31" d="M150.86,188.61c0-1.92,1.25-3.29,3.05-3.29s3.04,1.36,3.04,3.29-1.27,3.3-3.04,3.3-3.05-1.36-3.05-3.3ZM153.91,191.22c1.37,0,2.26-1.04,2.26-2.61s-.9-2.61-2.26-2.61-2.28,1.05-2.28,2.61.9,2.61,2.28,2.61Z"></path><path class="cls-31" d="M158.7,185.41h.78v1.05c.4-.76,1.12-1.14,2.01-1.14,1.38,0,2.2.81,2.2,2.51v3.99h-.78v-3.71c0-1.45-.55-2.11-1.61-2.11-1.16,0-1.83.79-1.83,2.55v3.27h-.78v-6.41Z"></path><path class="cls-31" d="M167.42,191.62l-2.55-6.21h.86l2.1,5.42,2.11-5.42h.85l-3.69,9.05h-.84l1.17-2.84Z"></path></g><g><path class="cls-31" d="M324.4,561.82h.81v4.86l4.65-4.86h1.09l-3.45,3.54,3.48,5.52h-.95l-3.11-4.93-1.71,1.75v3.17h-.81v-9.06Z"></path><path class="cls-31" d="M332.13,561.82h.94v1.39h-.94v-1.39ZM332.21,564.48h.77v6.41h-.77v-6.41Z"></path><path class="cls-31" d="M335.78,569.4v-4.31h-1.42v-.62h1.42v-1.85l.79-.46v2.31h1.54v.62h-1.54v4.12c0,.71.22,1.11.81,1.11.19,0,.46-.04.73-.12v.62c-.32.1-.64.16-.92.16-.85,0-1.4-.49-1.4-1.57Z"></path><path class="cls-31" d="M339.13,567.67c0-1.83,1.06-3.29,2.86-3.29,1.17,0,2.09.58,2.51,1.74l-.7.27c-.27-.82-.9-1.33-1.81-1.33-1.42,0-2.09,1.25-2.09,2.61s.68,2.62,2.09,2.62c.91,0,1.53-.51,1.81-1.33l.7.27c-.42,1.16-1.34,1.75-2.51,1.75-1.8,0-2.86-1.46-2.86-3.3Z"></path><path class="cls-31" d="M346.13,561.82h.78v3.69c.4-.75,1.1-1.13,2.01-1.13,1.4,0,2.2.85,2.2,2.51v3.99h-.78v-3.71c0-1.43-.53-2.11-1.61-2.11-1.18,0-1.83.83-1.83,2.55v3.27h-.78v-9.06Z"></path><path class="cls-31" d="M352.77,567.73c0-1.84.99-3.34,2.81-3.34,1.96,0,2.76,1.53,2.76,2.94,0,.1-.01.4-.04.55h-4.76c.03,1.51.84,2.39,2.14,2.39.82,0,1.35-.23,1.91-.83l.55.49c-.73.75-1.43,1.05-2.46,1.05-1.89,0-2.91-1.41-2.91-3.25ZM357.58,567.3c0-.08,0-.16,0-.24,0-.92-.58-2.01-2-2.01-1.23,0-1.98.98-2.07,2.26h4.06Z"></path><path class="cls-31" d="M360.07,564.48h.78v1.05c.4-.76,1.12-1.14,2.01-1.14,1.38,0,2.2.81,2.2,2.51v3.99h-.78v-3.71c0-1.45-.55-2.11-1.61-2.11-1.16,0-1.83.79-1.83,2.55v3.27h-.78v-6.41Z"></path></g><g><path class="cls-31" d="M117.73,488h.65l1.71,6.06,1.76-5.7h.63l1.76,5.7,1.7-6.06h.65l-2.01,6.98h-.63l-1.79-5.71-1.79,5.71h-.64l-2.01-6.98Z"></path><path class="cls-31" d="M127.74,488h.62v6.98h-.62v-6.98Z"></path><path class="cls-31" d="M129.79,491.48c0-2.16,1.26-3.58,3.16-3.58,1.35,0,2.39.71,2.84,1.89l-.58.22c-.38-.96-1.17-1.52-2.26-1.52-1.55,0-2.54,1.17-2.54,2.99s.99,3,2.54,3c1.09,0,1.89-.56,2.26-1.52l.58.21c-.45,1.18-1.49,1.9-2.84,1.9-1.89,0-3.16-1.42-3.16-3.59Z"></path></g><path class="cls-31" d="M533.44,522.08h.65l1.71,6.06,1.76-5.7h.63l1.76,5.7,1.7-6.06h.65l-2.01,6.98h-.63l-1.79-5.71-1.79,5.71h-.64l-2.01-6.98Z"></path><path class="cls-31" d="M545.72,521.08h.48l-3.55,9.08h-.48l3.55-9.08Z"></path><path class="cls-31" d="M547.42,522.08h1.87c2.26,0,3.56,1.29,3.56,3.54s-1.27,3.43-3.57,3.43h-1.86v-6.98ZM549.23,528.48c1.92,0,2.99-.89,2.99-2.88s-1.08-2.95-2.94-2.95h-1.24v5.83h1.19Z"></path><path class="cls-31" d="M397.66,606.51c0-2.17,1.27-3.59,3.16-3.59s3.18,1.42,3.18,3.59-1.27,3.58-3.18,3.58-3.16-1.42-3.16-3.58ZM400.82,609.5c1.57,0,2.55-1.16,2.55-2.99s-.99-3-2.55-3-2.54,1.15-2.54,3,.99,2.99,2.54,2.99Z"></path><path class="cls-31" d="M407.69,602.02h.48l-3.55,9.08h-.47l3.55-9.08Z"></path><path class="cls-31" d="M409.4,603.02h.93l2.35,5.66,2.35-5.66h.92v6.98h-.62v-6.16l-2.35,5.59h-.61l-2.36-5.59v6.16h-.62v-6.98Z"></path><g><path class="cls-31" d="M259.22,603.02h1.94c1.53,0,2.29.72,2.29,1.92,0,.97-.5,1.6-1.43,1.83l1.88,3.22h-.71l-1.8-3.13c-.16,0-.34,0-.5,0h-1.05v3.13h-.62v-6.98ZM261.1,606.32c1.06,0,1.73-.42,1.73-1.37s-.68-1.37-1.73-1.37h-1.26v2.74h1.26Z"></path><path class="cls-31" d="M265.07,603.02h4.56v.56h-3.94v2.59h3.53v.56h-3.53v2.7h3.94v.56h-4.56v-6.98Z"></path><path class="cls-31" d="M270.93,603.02h4.51v.56h-3.89v2.59h3.38v.56h-3.38v3.26h-.62v-6.98Z"></path></g><g><path class="cls-31" d="M296.02,523.62h.65l1.71,6.06,1.76-5.7h.63l1.76,5.7,1.7-6.06h.65l-2.01,6.98h-.63l-1.79-5.71-1.79,5.71h-.64l-2.01-6.98Z"></path><path class="cls-31" d="M306.03,523.62h4.51v.56h-3.89v2.59h3.38v.56h-3.38v3.26h-.62v-6.98Z"></path></g><g><path class="cls-31" d="M378.53,523.62h1.87c2.26,0,3.56,1.29,3.56,3.54s-1.27,3.43-3.57,3.43h-1.86v-6.98ZM380.34,530.02c1.92,0,2.99-.89,2.99-2.88s-1.08-2.95-2.94-2.95h-1.24v5.83h1.19Z"></path><path class="cls-31" d="M384.62,523.62h.65l1.71,6.06,1.76-5.7h.63l1.76,5.7,1.7-6.06h.65l-2.01,6.98h-.63l-1.79-5.71-1.79,5.71h-.64l-2.01-6.98Z"></path></g><g><path class="cls-35" d="M251.5,30.12h3.61v.45h-3.11v2.07h2.7v.45h-2.7v2.61h-.5v-5.57Z"></path><path class="cls-35" d="M255.85,30.12h.58v.86h-.58v-.86ZM255.9,31.75h.47v3.94h-.47v-3.94Z"></path><path class="cls-35" d="M257.71,31.75h.48v.64c.25-.47.69-.7,1.24-.7.85,0,1.36.5,1.36,1.54v2.45h-.48v-2.28c0-.89-.34-1.3-.99-1.3-.71,0-1.13.48-1.13,1.57v2.01h-.48v-3.94Z"></path><path class="cls-35" d="M264.28,30.12h3.64v.45h-3.15v2.07h2.82v.45h-2.82v2.16h3.15v.45h-3.64v-5.57Z"></path><path class="cls-35" d="M270.08,33.71l-1.46-1.96h.59l1.18,1.63,1.2-1.63h.58l-1.46,1.96,1.47,1.98h-.59l-1.19-1.64-1.19,1.64h-.58l1.46-1.98Z"></path><path class="cls-35" d="M273.61,34.78v-2.65h-.88v-.38h.88v-1.14l.48-.28v1.42h.95v.38h-.95v2.53c0,.44.14.68.5.68.12,0,.28-.02.45-.08v.38c-.2.06-.4.1-.57.1-.52,0-.86-.3-.86-.97Z"></path><path class="cls-35" d="M275.75,33.75c0-1.13.61-2.05,1.73-2.05,1.21,0,1.7.94,1.7,1.81,0,.06,0,.24-.02.34h-2.93c.02.93.52,1.47,1.32,1.47.5,0,.83-.14,1.17-.51l.34.3c-.45.46-.88.65-1.51.65-1.16,0-1.79-.87-1.79-2ZM278.72,33.48s0-.1,0-.15c0-.57-.36-1.24-1.23-1.24-.75,0-1.22.6-1.27,1.39h2.49Z"></path><path class="cls-35" d="M280.32,31.75h.48v.64c.25-.47.69-.7,1.24-.7.85,0,1.36.5,1.36,1.54v2.45h-.48v-2.28c0-.89-.34-1.3-.99-1.3-.71,0-1.13.48-1.13,1.57v2.01h-.48v-3.94Z"></path><path class="cls-35" d="M284.28,34.85l.34-.28c.2.46.66.77,1.26.77.57,0,.95-.27.95-.72,0-.55-.53-.68-1.1-.82-.66-.16-1.23-.38-1.23-1.06,0-.62.53-1.05,1.29-1.05.6,0,1.1.26,1.37.76l-.37.21c-.21-.38-.57-.58-1.01-.58-.48,0-.84.24-.84.62,0,.4.36.54.93.68.67.16,1.43.34,1.43,1.2,0,.71-.56,1.17-1.42,1.17-.79,0-1.35-.4-1.6-.9Z"></path><path class="cls-35" d="M288.38,30.12h.58v.86h-.58v-.86ZM288.43,31.75h.47v3.94h-.47v-3.94Z"></path><path class="cls-35" d="M290.05,33.71c0-1.18.77-2.02,1.88-2.02s1.87.84,1.87,2.02-.78,2.03-1.87,2.03-1.88-.84-1.88-2.03ZM291.93,35.32c.84,0,1.39-.64,1.39-1.6s-.55-1.6-1.39-1.6-1.4.64-1.4,1.6.56,1.6,1.4,1.6Z"></path><path class="cls-35" d="M294.95,31.75h.48v.64c.25-.47.69-.7,1.24-.7.85,0,1.36.5,1.36,1.54v2.45h-.48v-2.28c0-.89-.34-1.3-.99-1.3-.71,0-1.13.48-1.13,1.57v2.01h-.48v-3.94Z"></path><path class="cls-35" d="M299.35,31.92h.58v.86h-.58v-.86ZM299.35,34.84h.58v.85h-.58v-.85Z"></path></g><g><path class="cls-35" d="M253.24,41.01h-1.47v-.39h1.03c.29,0,.44-.1.44-.41v-.49h.48v5.57h-.48v-4.28Z"></path><path class="cls-35" d="M258.75,41.33c0-.73-.43-1.2-1.19-1.2-.83,0-1.26.58-1.27,1.45l-.47-.03c0-1.07.62-1.88,1.76-1.88.99,0,1.64.65,1.64,1.65,0,1.49-1.5,2.65-2.81,3.53h3.04v.45h-3.64v-.44c1.02-.82,2.94-2.02,2.94-3.53Z"></path><path class="cls-35" d="M260.44,42.49c0-1.33.3-2.84,1.72-2.84s1.75,1.39,1.75,2.85-.4,2.84-1.72,2.84c-1.44,0-1.75-1.51-1.75-2.85ZM262.19,44.88c.88,0,1.23-1,1.23-2.36s-.36-2.41-1.26-2.41c-.96,0-1.23,1.1-1.23,2.4s.28,2.37,1.26,2.37Z"></path><path class="cls-35" d="M267.43,43.08c-.23.14-.5.22-.76.22-1.01,0-1.81-.81-1.81-1.81s.84-1.83,1.87-1.83,1.88.8,1.88,1.82c0,.37-.12.7-.29,1l-1.67,2.81h-.54l1.34-2.21ZM266.72,42.87c.76,0,1.39-.59,1.39-1.38s-.62-1.38-1.39-1.38-1.39.6-1.39,1.38.62,1.38,1.39,1.38Z"></path></g><g><path class="cls-35" d="M253.24,50.61h-1.47v-.39h1.03c.29,0,.44-.1.44-.41v-.49h.48v5.57h-.48v-4.28Z"></path><path class="cls-35" d="M257.8,50.61h-1.47v-.39h1.03c.29,0,.44-.1.44-.41v-.49h.48v5.57h-.48v-4.28Z"></path><path class="cls-35" d="M260.44,52.09c0-1.33.3-2.84,1.72-2.84s1.75,1.39,1.75,2.85-.4,2.84-1.72,2.84c-1.44,0-1.75-1.51-1.75-2.85ZM262.19,54.48c.88,0,1.23-1,1.23-2.36s-.36-2.41-1.26-2.41c-.96,0-1.23,1.1-1.23,2.39s.28,2.38,1.26,2.38Z"></path><path class="cls-35" d="M267.43,52.68c-.23.14-.5.22-.76.22-1.01,0-1.81-.81-1.81-1.81s.84-1.83,1.87-1.83,1.88.8,1.88,1.82c0,.37-.12.7-.29,1l-1.67,2.81h-.54l1.34-2.21ZM266.72,52.47c.76,0,1.39-.59,1.39-1.38s-.62-1.38-1.39-1.38-1.39.6-1.39,1.38.62,1.38,1.39,1.38Z"></path></g><g><path class="cls-35" d="M253.24,60.21h-1.47v-.39h1.03c.29,0,.44-.1.44-.41v-.49h.48v5.57h-.48v-4.28Z"></path><path class="cls-35" d="M255.88,61.69c0-1.33.3-2.84,1.72-2.84s1.75,1.39,1.75,2.85-.4,2.84-1.72,2.84c-1.44,0-1.75-1.51-1.75-2.85ZM257.64,64.08c.88,0,1.23-1,1.23-2.36s-.36-2.41-1.26-2.41c-.96,0-1.23,1.1-1.23,2.4s.28,2.37,1.26,2.37Z"></path><path class="cls-35" d="M260.44,61.69c0-1.33.3-2.84,1.72-2.84s1.75,1.39,1.75,2.85-.4,2.84-1.72,2.84c-1.44,0-1.75-1.51-1.75-2.85ZM262.19,64.08c.88,0,1.23-1,1.23-2.36s-.36-2.41-1.26-2.41c-.96,0-1.23,1.1-1.23,2.4s.28,2.37,1.26,2.37Z"></path><path class="cls-35" d="M267.43,62.28c-.23.14-.5.22-.76.22-1.01,0-1.81-.81-1.81-1.81s.84-1.83,1.87-1.83,1.88.8,1.88,1.82c0,.37-.12.7-.29,1l-1.67,2.81h-.54l1.34-2.21ZM266.72,62.07c.76,0,1.39-.59,1.39-1.38s-.62-1.38-1.39-1.38-1.39.6-1.39,1.38.62,1.38,1.39,1.38Z"></path></g><g><path class="cls-35" d="M253.75,71.88c-.23.14-.5.22-.76.22-1.01,0-1.81-.81-1.81-1.81s.84-1.83,1.87-1.83,1.88.8,1.88,1.82c0,.37-.12.7-.29,1l-1.67,2.81h-.54l1.34-2.21ZM253.05,71.67c.76,0,1.39-.59,1.39-1.38s-.62-1.38-1.39-1.38-1.39.6-1.39,1.38.62,1.38,1.39,1.38Z"></path><path class="cls-35" d="M255.88,71.29c0-1.33.3-2.84,1.72-2.84s1.75,1.39,1.75,2.85-.4,2.84-1.72,2.84c-1.44,0-1.75-1.51-1.75-2.85ZM257.64,73.68c.88,0,1.23-1,1.23-2.36s-.36-2.41-1.26-2.41c-.96,0-1.23,1.1-1.23,2.4s.28,2.37,1.26,2.37Z"></path><path class="cls-35" d="M262.87,71.88c-.23.14-.5.22-.76.22-1.01,0-1.81-.81-1.81-1.81s.84-1.83,1.87-1.83,1.88.8,1.88,1.82c0,.37-.12.7-.29,1l-1.67,2.81h-.54l1.34-2.21ZM262.16,71.67c.76,0,1.39-.59,1.39-1.38s-.62-1.38-1.39-1.38-1.39.6-1.39,1.38.62,1.38,1.39,1.38Z"></path></g><g><path class="cls-35" d="M251.21,82.11c0-.7.41-1.25,1.08-1.45-.46-.18-.76-.62-.76-1.19,0-.9.78-1.41,1.54-1.41.86,0,1.53.57,1.53,1.45,0,.55-.3.97-.77,1.15.67.21,1.07.76,1.07,1.45,0,1.09-.9,1.64-1.84,1.64s-1.85-.55-1.85-1.64ZM253.06,83.29c.72,0,1.36-.41,1.36-1.22,0-.73-.56-1.22-1.36-1.22s-1.38.48-1.38,1.22c0,.82.66,1.22,1.38,1.22ZM253.08,80.52c.61,0,1.05-.4,1.05-.98,0-.61-.42-1.03-1.06-1.03-.56,0-1.06.36-1.06.98s.44,1.02,1.07,1.02Z"></path><path class="cls-35" d="M255.88,80.89c0-1.33.3-2.84,1.72-2.84s1.75,1.39,1.75,2.85-.4,2.84-1.72,2.84c-1.44,0-1.75-1.51-1.75-2.85ZM257.64,83.28c.88,0,1.23-1,1.23-2.36s-.36-2.41-1.26-2.41c-.96,0-1.23,1.1-1.23,2.39s.28,2.38,1.26,2.38Z"></path><path class="cls-35" d="M262.87,81.48c-.23.14-.5.22-.76.22-1.01,0-1.81-.81-1.81-1.81s.84-1.83,1.87-1.83,1.88.8,1.88,1.82c0,.37-.12.7-.29,1l-1.67,2.81h-.54l1.34-2.21ZM262.16,81.27c.76,0,1.39-.59,1.39-1.38s-.62-1.38-1.39-1.38-1.39.6-1.39,1.38.62,1.38,1.39,1.38Z"></path></g><g><path class="cls-35" d="M254.48,88.16h-3.43v-.45h3.98v.4l-2.75,5.18h-.53l2.74-5.12Z"></path><path class="cls-35" d="M255.88,90.49c0-1.33.3-2.84,1.72-2.84s1.75,1.39,1.75,2.85-.4,2.84-1.72,2.84c-1.44,0-1.75-1.51-1.75-2.85ZM257.64,92.88c.88,0,1.23-1,1.23-2.36s-.36-2.41-1.26-2.41c-.96,0-1.23,1.1-1.23,2.4s.28,2.37,1.26,2.37Z"></path><path class="cls-35" d="M262.87,91.08c-.23.14-.5.22-.76.22-1.01,0-1.81-.81-1.81-1.81s.84-1.83,1.87-1.83,1.88.8,1.88,1.82c0,.37-.12.7-.29,1l-1.67,2.81h-.54l1.34-2.21ZM262.16,90.87c.76,0,1.39-.59,1.39-1.38s-.62-1.38-1.39-1.38-1.39.6-1.39,1.38.62,1.38,1.39,1.38Z"></path></g><g><path class="cls-35" d="M252.25,99.52c.23-.14.5-.22.76-.22,1.01,0,1.81.81,1.81,1.81s-.84,1.83-1.87,1.83-1.88-.8-1.88-1.82c0-.37.12-.7.29-1l1.67-2.81h.54l-1.34,2.21ZM252.95,102.49c.76,0,1.39-.6,1.39-1.38s-.62-1.38-1.39-1.38-1.39.59-1.39,1.38.62,1.38,1.39,1.38Z"></path><path class="cls-35" d="M255.88,100.09c0-1.33.3-2.84,1.72-2.84s1.75,1.39,1.75,2.85-.4,2.84-1.72,2.84c-1.44,0-1.75-1.51-1.75-2.85ZM257.64,102.48c.88,0,1.23-1,1.23-2.36s-.36-2.41-1.26-2.41c-.96,0-1.23,1.1-1.23,2.39s.28,2.38,1.26,2.38Z"></path><path class="cls-35" d="M262.87,100.68c-.23.14-.5.22-.76.22-1.01,0-1.81-.81-1.81-1.81s.84-1.83,1.87-1.83,1.88.8,1.88,1.82c0,.37-.12.7-.29,1l-1.67,2.81h-.54l1.34-2.21ZM262.16,100.47c.76,0,1.39-.59,1.39-1.38s-.62-1.38-1.39-1.38-1.39.6-1.39,1.38.62,1.38,1.39,1.38Z"></path></g><g><path class="cls-35" d="M251.17,110.96l.47-.08c.14.7.66,1.21,1.4,1.21.85,0,1.41-.68,1.41-1.48s-.52-1.38-1.34-1.38c-.51,0-.95.24-1.26.69l-.5-.15.5-2.86h2.84v.45h-2.45l-.34,1.96c.38-.39.82-.55,1.27-.55,1.04,0,1.78.82,1.78,1.83s-.81,1.94-1.91,1.94c-.94,0-1.7-.64-1.88-1.58Z"></path><path class="cls-35" d="M255.88,109.69c0-1.33.3-2.84,1.72-2.84s1.75,1.39,1.75,2.85-.4,2.84-1.72,2.84c-1.44,0-1.75-1.51-1.75-2.85ZM257.64,112.08c.88,0,1.23-1,1.23-2.36s-.36-2.41-1.26-2.41c-.96,0-1.23,1.1-1.23,2.4s.28,2.37,1.26,2.37Z"></path><path class="cls-35" d="M262.87,110.28c-.23.14-.5.22-.76.22-1.01,0-1.81-.81-1.81-1.81s.84-1.83,1.87-1.83,1.88.8,1.88,1.82c0,.37-.12.7-.29,1l-1.67,2.81h-.54l1.34-2.21ZM262.16,110.07c.76,0,1.39-.59,1.39-1.38s-.62-1.38-1.39-1.38-1.39.6-1.39,1.38.62,1.38,1.39,1.38Z"></path></g><g><path class="cls-35" d="M253.76,120.75h-2.77v-.4l2.79-3.84h.46v3.79h.91v.45h-.91v1.34h-.48v-1.34ZM253.76,120.31v-3.15l-2.25,3.15h2.25Z"></path><path class="cls-35" d="M255.88,119.29c0-1.33.3-2.84,1.72-2.84s1.75,1.39,1.75,2.85-.4,2.84-1.72,2.84c-1.44,0-1.75-1.51-1.75-2.85ZM257.64,121.68c.88,0,1.23-1,1.23-2.36s-.36-2.41-1.26-2.41c-.96,0-1.23,1.1-1.23,2.4s.28,2.37,1.26,2.37Z"></path><path class="cls-35" d="M262.87,119.88c-.23.14-.5.22-.76.22-1.01,0-1.81-.81-1.81-1.81s.84-1.83,1.87-1.83,1.88.8,1.88,1.82c0,.37-.12.7-.29,1l-1.67,2.81h-.54l1.34-2.21ZM262.16,119.67c.76,0,1.39-.59,1.39-1.38s-.62-1.38-1.39-1.38-1.39.6-1.39,1.38.62,1.38,1.39,1.38Z"></path></g><g><path class="cls-35" d="M0,0h3.61v.45H.5v2.07h2.7v.45H.5v2.61h-.5V0Z"></path><path class="cls-35" d="M4.34,0h.58v.86h-.58v-.86ZM4.4,1.63h.47v3.94h-.47V1.63Z"></path><path class="cls-35" d="M6.2,1.63h.48v.64c.25-.47.69-.7,1.24-.7.85,0,1.36.5,1.36,1.54v2.45h-.48v-2.28c0-.89-.34-1.3-.99-1.3-.71,0-1.13.48-1.13,1.57v2.01h-.48V1.63Z"></path><path class="cls-35" d="M12.78,0h3.64v.45h-3.15v2.07h2.82v.45h-2.82v2.16h3.15v.45h-3.64V0Z"></path><path class="cls-35" d="M18.58,3.59l-1.46-1.96h.59l1.18,1.63,1.2-1.63h.58l-1.46,1.96,1.47,1.98h-.59l-1.19-1.64-1.19,1.64h-.58l1.46-1.98Z"></path><path class="cls-35" d="M22.1,4.66v-2.65h-.88v-.38h.88V.49l.48-.28v1.42h.95v.38h-.95v2.53c0,.44.14.68.5.68.12,0,.28-.02.45-.08v.38c-.2.06-.4.1-.57.1-.52,0-.86-.3-.86-.97Z"></path><path class="cls-35" d="M24.25,3.63c0-1.13.61-2.06,1.73-2.06,1.21,0,1.7.94,1.7,1.81,0,.06,0,.24-.02.34h-2.93c.02.93.52,1.47,1.32,1.47.5,0,.83-.14,1.18-.51l.34.3c-.45.46-.88.65-1.52.65-1.16,0-1.79-.87-1.79-2ZM27.21,3.37s0-.1,0-.15c0-.57-.36-1.24-1.23-1.24-.76,0-1.22.6-1.27,1.39h2.49Z"></path><path class="cls-35" d="M28.82,1.63h.48v.64c.25-.47.69-.7,1.24-.7.85,0,1.36.5,1.36,1.54v2.45h-.48v-2.28c0-.89-.34-1.3-.99-1.3-.71,0-1.13.48-1.13,1.57v2.01h-.48V1.63Z"></path><path class="cls-35" d="M32.78,4.73l.34-.28c.2.46.66.77,1.26.77.57,0,.95-.27.95-.72,0-.55-.53-.68-1.1-.82-.66-.16-1.23-.38-1.23-1.06,0-.62.53-1.05,1.3-1.05.6,0,1.1.26,1.37.76l-.37.21c-.21-.38-.57-.58-1.02-.58-.48,0-.84.24-.84.62,0,.4.36.54.93.68.67.16,1.44.34,1.44,1.2,0,.71-.56,1.17-1.42,1.17-.79,0-1.35-.4-1.6-.9Z"></path><path class="cls-35" d="M36.88,0h.58v.86h-.58v-.86ZM36.93,1.63h.47v3.94h-.47V1.63Z"></path><path class="cls-35" d="M38.55,3.6c0-1.18.77-2.02,1.88-2.02s1.87.84,1.87,2.02-.78,2.03-1.87,2.03-1.88-.84-1.88-2.03ZM40.43,5.2c.84,0,1.39-.64,1.39-1.6s-.55-1.6-1.39-1.6-1.4.64-1.4,1.6.56,1.6,1.4,1.6Z"></path><path class="cls-35" d="M43.45,1.63h.48v.64c.25-.47.69-.7,1.24-.7.85,0,1.36.5,1.36,1.54v2.45h-.48v-2.28c0-.89-.34-1.3-.99-1.3-.71,0-1.13.48-1.13,1.57v2.01h-.48V1.63Z"></path><path class="cls-35" d="M47.85,1.81h.58v.86h-.58v-.86ZM47.85,4.72h.58v.85h-.58v-.85Z"></path></g><g><path class="cls-35" d="M13.16,10.89h-1.47v-.39h1.03c.29,0,.44-.1.44-.41v-.49h.48v5.57h-.48v-4.28Z"></path><path class="cls-35" d="M17.72,10.89h-1.47v-.39h1.03c.29,0,.44-.1.44-.41v-.49h.48v5.57h-.48v-4.28Z"></path><path class="cls-35" d="M20.35,12.37c0-1.33.3-2.84,1.72-2.84s1.75,1.39,1.75,2.85-.4,2.84-1.72,2.84c-1.44,0-1.75-1.51-1.75-2.85ZM22.11,14.76c.88,0,1.23-1,1.23-2.36s-.36-2.41-1.26-2.41c-.96,0-1.23,1.1-1.23,2.4s.28,2.37,1.26,2.37Z"></path><path class="cls-35" d="M27.34,12.97c-.23.14-.5.22-.76.22-1.01,0-1.81-.81-1.81-1.81s.84-1.83,1.87-1.83,1.88.8,1.88,1.82c0,.37-.12.7-.29,1l-1.68,2.81h-.54l1.34-2.21ZM26.64,12.75c.76,0,1.39-.59,1.39-1.38s-.62-1.38-1.39-1.38-1.39.6-1.39,1.38.62,1.38,1.39,1.38Z"></path><path class="cls-35" d="M30.06,14.05h.53l-1.06,2.38h-.34l.87-2.38Z"></path><path class="cls-35" d="M33.39,10.89h-1.47v-.39h1.03c.29,0,.44-.1.44-.41v-.49h.48v5.57h-.48v-4.28Z"></path><path class="cls-35" d="M38.89,11.21c0-.73-.43-1.2-1.19-1.2-.84,0-1.26.58-1.27,1.45l-.47-.03c0-1.07.62-1.88,1.75-1.88.99,0,1.64.65,1.64,1.65,0,1.49-1.5,2.65-2.81,3.53h3.04v.45h-3.64v-.44c1.02-.82,2.94-2.02,2.94-3.53Z"></path><path class="cls-35" d="M40.58,12.37c0-1.33.3-2.84,1.72-2.84s1.75,1.39,1.75,2.85-.4,2.84-1.72,2.84c-1.44,0-1.75-1.51-1.75-2.85ZM42.34,14.76c.88,0,1.23-1,1.23-2.36s-.36-2.41-1.26-2.41c-.96,0-1.23,1.1-1.23,2.4s.28,2.37,1.26,2.37Z"></path><path class="cls-35" d="M47.57,12.97c-.23.14-.5.22-.76.22-1.01,0-1.81-.81-1.81-1.81s.84-1.83,1.87-1.83,1.88.8,1.88,1.82c0,.37-.12.7-.29,1l-1.68,2.81h-.54l1.34-2.21ZM46.87,12.75c.76,0,1.39-.59,1.39-1.38s-.62-1.38-1.39-1.38-1.39.6-1.39,1.38.62,1.38,1.39,1.38Z"></path></g><g><path class="cls-35" d="M33.4,20.49h-1.47v-.39h1.03c.29,0,.44-.1.44-.41v-.49h.48v5.57h-.48v-4.28Z"></path><path class="cls-35" d="M36.04,21.97c0-1.33.3-2.84,1.72-2.84s1.75,1.39,1.75,2.85-.4,2.84-1.72,2.84c-1.44,0-1.75-1.51-1.75-2.85ZM37.79,24.36c.88,0,1.23-1,1.23-2.36s-.36-2.41-1.26-2.41c-.96,0-1.23,1.1-1.23,2.39s.28,2.38,1.26,2.38Z"></path><path class="cls-35" d="M40.59,21.97c0-1.33.3-2.84,1.72-2.84s1.75,1.39,1.75,2.85-.4,2.84-1.72,2.84c-1.44,0-1.75-1.51-1.75-2.85ZM42.35,24.36c.88,0,1.23-1,1.23-2.36s-.36-2.41-1.26-2.41c-.96,0-1.23,1.1-1.23,2.39s.28,2.38,1.26,2.38Z"></path><path class="cls-35" d="M47.58,22.57c-.23.14-.5.22-.76.22-1.01,0-1.81-.81-1.81-1.81s.84-1.83,1.87-1.83,1.88.8,1.88,1.82c0,.37-.12.7-.29,1l-1.68,2.81h-.54l1.34-2.21ZM46.88,22.35c.76,0,1.39-.59,1.39-1.38s-.62-1.38-1.39-1.38-1.39.6-1.39,1.38.62,1.38,1.39,1.38Z"></path></g><g><path class="cls-35" d="M38.47,32.17c-.23.14-.5.22-.76.22-1.01,0-1.81-.81-1.81-1.81s.84-1.83,1.87-1.83,1.88.8,1.88,1.82c0,.37-.12.7-.29,1l-1.68,2.81h-.54l1.34-2.21ZM37.77,31.95c.76,0,1.39-.59,1.39-1.38s-.62-1.38-1.39-1.38-1.39.6-1.39,1.38.62,1.38,1.39,1.38Z"></path><path class="cls-35" d="M40.6,31.57c0-1.33.3-2.84,1.72-2.84s1.75,1.39,1.75,2.85-.4,2.84-1.72,2.84c-1.44,0-1.75-1.51-1.75-2.85ZM42.35,33.96c.88,0,1.23-1,1.23-2.36s-.36-2.41-1.26-2.41c-.96,0-1.23,1.1-1.23,2.4s.28,2.37,1.26,2.37Z"></path><path class="cls-35" d="M47.58,32.17c-.23.14-.5.22-.76.22-1.01,0-1.81-.81-1.81-1.81s.84-1.83,1.87-1.83,1.88.8,1.88,1.82c0,.37-.12.7-.29,1l-1.68,2.81h-.54l1.34-2.21ZM46.88,31.95c.76,0,1.39-.59,1.39-1.38s-.62-1.38-1.39-1.38-1.39.6-1.39,1.38.62,1.38,1.39,1.38Z"></path></g><g><path class="cls-35" d="M35.92,42.39c0-.7.41-1.25,1.08-1.45-.46-.18-.76-.62-.76-1.19,0-.9.78-1.41,1.54-1.41.86,0,1.53.57,1.53,1.45,0,.55-.3.97-.77,1.15.67.21,1.07.76,1.07,1.45,0,1.09-.9,1.64-1.84,1.64s-1.85-.55-1.85-1.64ZM37.77,43.58c.72,0,1.36-.41,1.36-1.22,0-.73-.56-1.22-1.36-1.22s-1.38.48-1.38,1.22c0,.82.66,1.22,1.38,1.22ZM37.79,40.8c.61,0,1.05-.4,1.05-.98,0-.61-.42-1.03-1.06-1.03-.56,0-1.06.36-1.06.98s.44,1.02,1.07,1.02Z"></path><path class="cls-35" d="M40.6,41.17c0-1.33.3-2.84,1.72-2.84s1.75,1.39,1.75,2.85-.4,2.84-1.72,2.84c-1.44,0-1.75-1.51-1.75-2.85ZM42.35,43.56c.88,0,1.23-1,1.23-2.36s-.36-2.41-1.26-2.41c-.96,0-1.23,1.1-1.23,2.39s.28,2.38,1.26,2.38Z"></path><path class="cls-35" d="M47.58,41.77c-.23.14-.5.22-.76.22-1.01,0-1.81-.81-1.81-1.81s.84-1.83,1.87-1.83,1.88.8,1.88,1.82c0,.37-.12.7-.29,1l-1.68,2.81h-.54l1.34-2.21ZM46.88,41.55c.76,0,1.39-.59,1.39-1.38s-.62-1.38-1.39-1.38-1.39.6-1.39,1.38.62,1.38,1.39,1.38Z"></path></g><g><path class="cls-35" d="M39.2,48.45h-3.43v-.45h3.98v.4l-2.75,5.18h-.53l2.74-5.12Z"></path><path class="cls-35" d="M40.6,50.77c0-1.33.3-2.84,1.72-2.84s1.75,1.39,1.75,2.85-.4,2.84-1.72,2.84c-1.44,0-1.75-1.51-1.75-2.85ZM42.35,53.17c.88,0,1.23-1,1.23-2.36s-.36-2.41-1.26-2.41c-.96,0-1.23,1.1-1.23,2.4s.28,2.37,1.26,2.37Z"></path><path class="cls-35" d="M47.58,51.37c-.23.14-.5.22-.76.22-1.01,0-1.81-.81-1.81-1.81s.84-1.83,1.87-1.83,1.88.8,1.88,1.82c0,.37-.12.7-.29,1l-1.68,2.81h-.54l1.34-2.21ZM46.88,51.15c.76,0,1.39-.59,1.39-1.38s-.62-1.38-1.39-1.38-1.39.6-1.39,1.38.62,1.38,1.39,1.38Z"></path></g><g><path class="cls-35" d="M36.97,59.81c.23-.14.5-.22.76-.22,1.01,0,1.81.81,1.81,1.81s-.84,1.83-1.87,1.83-1.88-.8-1.88-1.82c0-.37.12-.7.29-1l1.67-2.81h.54l-1.34,2.21ZM37.67,62.78c.76,0,1.39-.6,1.39-1.38s-.62-1.38-1.39-1.38-1.39.59-1.39,1.38.62,1.38,1.39,1.38Z"></path><path class="cls-35" d="M40.6,60.37c0-1.33.3-2.84,1.72-2.84s1.75,1.39,1.75,2.85-.4,2.84-1.72,2.84c-1.44,0-1.75-1.51-1.75-2.85ZM42.35,62.77c.88,0,1.23-1,1.23-2.36s-.36-2.41-1.26-2.41c-.96,0-1.23,1.1-1.23,2.39s.28,2.38,1.26,2.38Z"></path><path class="cls-35" d="M47.58,60.97c-.23.14-.5.22-.76.22-1.01,0-1.81-.81-1.81-1.81s.84-1.83,1.87-1.83,1.88.8,1.88,1.82c0,.37-.12.7-.29,1l-1.68,2.81h-.54l1.34-2.21ZM46.88,60.75c.76,0,1.39-.59,1.39-1.38s-.62-1.38-1.39-1.38-1.39.6-1.39,1.38.62,1.38,1.39,1.38Z"></path></g><g><path class="cls-35" d="M35.89,71.25l.47-.08c.14.7.66,1.21,1.4,1.21.85,0,1.41-.68,1.41-1.48s-.52-1.38-1.34-1.38c-.51,0-.95.24-1.26.69l-.5-.15.5-2.86h2.84v.45h-2.45l-.34,1.96c.38-.39.82-.55,1.27-.55,1.04,0,1.78.82,1.78,1.83s-.81,1.94-1.91,1.94c-.94,0-1.69-.64-1.87-1.58Z"></path><path class="cls-35" d="M40.6,69.97c0-1.33.3-2.84,1.72-2.84s1.75,1.39,1.75,2.85-.4,2.84-1.72,2.84c-1.44,0-1.75-1.51-1.75-2.85ZM42.35,72.36c.88,0,1.23-1,1.23-2.36s-.36-2.41-1.26-2.41c-.96,0-1.23,1.1-1.23,2.39s.28,2.38,1.26,2.38Z"></path><path class="cls-35" d="M47.58,70.57c-.23.14-.5.22-.76.22-1.01,0-1.81-.81-1.81-1.81s.84-1.83,1.87-1.83,1.88.8,1.88,1.82c0,.37-.12.7-.29,1l-1.68,2.81h-.54l1.34-2.21ZM46.88,70.35c.76,0,1.39-.59,1.39-1.38s-.62-1.38-1.39-1.38-1.39.6-1.39,1.38.62,1.38,1.39,1.38Z"></path></g><g><path class="cls-35" d="M38.47,81.04h-2.77v-.4l2.79-3.84h.46v3.79h.91v.45h-.91v1.34h-.48v-1.34ZM38.47,80.59v-3.15l-2.25,3.15h2.25Z"></path><path class="cls-35" d="M40.6,79.57c0-1.33.3-2.84,1.72-2.84s1.75,1.39,1.75,2.85-.4,2.84-1.72,2.84c-1.44,0-1.75-1.51-1.75-2.85ZM42.35,81.96c.88,0,1.23-1,1.23-2.36s-.36-2.41-1.26-2.41c-.96,0-1.23,1.1-1.23,2.4s.28,2.37,1.26,2.37Z"></path><path class="cls-35" d="M47.58,80.17c-.23.14-.5.22-.76.22-1.01,0-1.81-.81-1.81-1.81s.84-1.83,1.87-1.83,1.88.8,1.88,1.82c0,.37-.12.7-.29,1l-1.68,2.81h-.54l1.34-2.21ZM46.88,79.95c.76,0,1.39-.59,1.39-1.38s-.62-1.38-1.39-1.38-1.39.6-1.39,1.38.62,1.38,1.39,1.38Z"></path></g><polyline class="cls-1" points="242.82 51.93 206.47 51.93 185.51 130.27"></polyline><path class="cls-34" d="M184.47,134.16l3.46-4.95s-2.42,1.05-3.99-1.07l.53,6.01Z"></path><polyline class="cls-1" points="57.14 21.21 110.47 21.21 126.68 102.07"></polyline><path class="cls-34" d="M127.47,106.03l-3.14-5.16s2.35,1.2,4.05-.81l-.91,5.97Z"></path><polyline class="cls-1" points="242.82 42.27 205.47 42.27 182.49 129.39"></polyline><path class="cls-34" d="M181.46,133.29l3.44-4.96s-2.41,1.05-3.99-1.05l.55,6.01Z"></path><polyline class="cls-1" points="57.14 11.56 111.47 11.56 128.71 102.07"></polyline><path class="cls-34" d="M129.47,106.03l-3.09-5.19s2.33,1.22,4.05-.77l-.97,5.96Z"></path><polyline class="cls-1" points="242.82 119.68 222.67 119.68 218.84 133.12"></polyline><path class="cls-34" d="M217.73,137.01l3.54-4.89s-2.43,1.01-3.97-1.13l.43,6.02Z"></path><polyline class="cls-1" points="242.82 110.01 217.47 110.01 212 131.87"></polyline><path class="cls-34" d="M211.02,135.79l3.38-5s-2.4,1.09-4.01-1l.63,6Z"></path><polyline class="cls-1" points="57.14 79.29 83.48 79.29 88.1 101.12"></polyline><path class="cls-34" d="M88.93,105.07l-3.19-5.12s2.36,1.17,4.04-.85l-.85,5.98Z"></path><polyline class="cls-1" points="242.82 100.33 214.47 100.33 206.46 131.88"></polyline><path class="cls-34" d="M205.47,135.79l3.4-4.99s-2.4,1.08-4-1.01l.6,6.01Z"></path><polyline class="cls-1" points="57.14 69.61 92.48 69.61 98.69 101.11"></polyline><path class="cls-34" d="M99.47,105.07l-3.12-5.17s2.34,1.21,4.05-.8l-.93,5.97Z"></path><polyline class="cls-1" points="242.82 90.65 212.47 90.65 201.52 131.39"></polyline><path class="cls-34" d="M200.47,135.29l3.47-4.94s-2.42,1.04-3.99-1.07l.52,6.01Z"></path><polyline class="cls-1" points="57.14 59.93 99.48 59.93 107.68 101.14"></polyline><path class="cls-34" d="M108.47,105.1l-3.13-5.16s2.34,1.2,4.05-.8l-.92,5.97Z"></path><polyline class="cls-1" points="242.82 80.97 209.47 80.97 196.48 131.38"></polyline><path class="cls-34" d="M195.47,135.29l3.41-4.98s-2.41,1.07-4-1.03l.58,6.01Z"></path><polyline class="cls-1" points="57.14 50.25 104.48 50.25 114.68 101.33"></polyline><path class="cls-34" d="M115.47,105.29l-3.14-5.16s2.35,1.2,4.05-.81l-.91,5.97Z"></path><polyline class="cls-1" points="242.82 71.29 207.47 71.29 192.47 130.25"></polyline><path class="cls-34" d="M191.47,134.16l3.4-4.99s-2.4,1.08-4-1.02l.6,6.01Z"></path><polyline class="cls-1" points="57.14 40.57 107.48 40.57 119.68 101.33"></polyline><path class="cls-34" d="M120.47,105.29l-3.14-5.16s2.35,1.2,4.05-.81l-.91,5.97Z"></path><polyline class="cls-1" points="242.82 61.61 206.47 61.61 188.49 130.26"></polyline><path class="cls-34" d="M187.47,134.16l3.43-4.97s-2.41,1.06-3.99-1.04l.56,6.01Z"></path><polyline class="cls-1" points="57.14 30.89 109.48 30.89 123.68 102.07"></polyline><path class="cls-34" d="M124.47,106.03l-3.13-5.16s2.34,1.2,4.05-.81l-.91,5.97Z"></path></g></g></svg> 