<?xml version="1.0" encoding="UTF-8"?> <svg xmlns="http://www.w3.org/2000/svg" id="Layer_2" data-name="Layer 2" viewBox="0 0 387.53 644.65"><defs><style> .cls-1 { stroke: #afa49f; } .cls-1, .cls-2, .cls-3, .cls-4, .cls-5, .cls-6, .cls-7, .cls-8, .cls-9, .cls-10, .cls-11, .cls-12, .cls-13, .cls-14, .cls-15, .cls-16, .cls-17, .cls-18, .cls-19, .cls-20, .cls-21, .cls-22, .cls-23, .cls-24, .cls-25 { fill: none; } .cls-1, .cls-2, .cls-5, .cls-6, .cls-7, .cls-14, .cls-15, .cls-16, .cls-18, .cls-23, .cls-24 { stroke-width: .25px; } .cls-1, .cls-22, .cls-23 { stroke-miterlimit: 10; } .cls-2 { stroke-dasharray: 1.91 1.91; } .cls-2, .cls-3, .cls-4, .cls-5, .cls-6, .cls-7, .cls-8, .cls-9, .cls-10, .cls-11, .cls-12, .cls-13, .cls-14, .cls-15, .cls-16, .cls-17, .cls-18, .cls-19, .cls-20, .cls-21, .cls-24, .cls-25 { stroke-linecap: round; stroke-linejoin: round; } .cls-2, .cls-5, .cls-6, .cls-7, .cls-14, .cls-15, .cls-16, .cls-18 { stroke: #75655e; } .cls-3 { stroke-dasharray: 1.09 1.09; } .cls-3, .cls-4, .cls-8, .cls-9, .cls-10, .cls-11, .cls-12, .cls-13, .cls-19, .cls-20, .cls-21 { stroke: #55453d; stroke-width: .15px; } .cls-26 { fill: #3a2a22; } .cls-4 { stroke-dasharray: 1.01 1.01; } .cls-5 { stroke-dasharray: 5.13 5.13; } .cls-6 { stroke-dasharray: 5.16 5.16; } .cls-7 { stroke-dasharray: 4.8 4.8; } .cls-8 { stroke-dasharray: 1.1 1.1; } .cls-10 { stroke-dasharray: .81 .81; } .cls-11 { stroke-dasharray: .89 .89; } .cls-12 { stroke-dasharray: .91 .91; } .cls-13 { stroke-dasharray: 1.01 1.01; } .cls-27 { fill: #fff; } .cls-14 { stroke-dasharray: 1.42 1.42; } .cls-15 { stroke-dasharray: 3.6 3.6; } .cls-16 { stroke-dasharray: 5.26 5.26; } .cls-17, .cls-22 { stroke-width: .75px; } .cls-17, .cls-22, .cls-24, .cls-25 { stroke: #3a2a22; } .cls-28 { fill: #bc8ebc; } .cls-19 { stroke-dasharray: 1.17 1.17; } .cls-20 { stroke-dasharray: .85 .85; } .cls-21 { stroke-dasharray: 1.02 1.02; } .cls-23 { stroke: #bc8ebc; } .cls-29 { fill: #afa49f; } .cls-25 { stroke-width: .35px; } .cls-30 { fill: #75655e; } </style></defs><g id="Layer_1-2" data-name="Layer 1"><g><polygon class="cls-27" points="22.96 498.14 45.71 499.12 86.46 500.42 127.3 501.34 168.05 501.89 168.05 527.21 120.65 526.38 120.46 532.11 120.46 534.42 168.05 535.25 202.79 535.53 237.54 535.34 272.19 534.88 306.93 534.05 341.67 532.85 376.32 531.37 387.15 530.76 387.15 46.9 261.21 46.9 261.21 8.83 213.49 8.83 213.49 20.38 143.84 20.38 143.84 8.83 22.96 8.83 22.96 498.14"></polygon><line class="cls-9" x1="110.3" y1="534.14" x2="110.8" y2="534.16"></line><line class="cls-21" x1="111.82" y1="534.18" x2="119.46" y2="534.39"></line><line class="cls-9" x1="119.97" y1="534.41" x2="120.47" y2="534.42"></line><line class="cls-9" x1="101.71" y1="533.96" x2="102.21" y2="533.97"></line><line class="cls-3" x1="103.29" y1="533.99" x2="109.26" y2="534.12"></line><polyline class="cls-9" points="109.8 534.13 110.3 534.14 110.32 533.64"></polyline><line class="cls-4" x1="110.35" y1="532.64" x2="110.54" y2="527.11"></line><polyline class="cls-9" points="110.56 526.6 110.58 526.1 111.08 526.12"></polyline><line class="cls-13" x1="112.09" y1="526.15" x2="119.65" y2="526.35"></line><line class="cls-9" x1="120.15" y1="526.37" x2="120.65" y2="526.38"></line><line class="cls-9" x1="94.78" y1="533.68" x2="95.28" y2="533.7"></line><line class="cls-20" x1="96.12" y1="533.73" x2="100.78" y2="533.92"></line><polyline class="cls-9" points="101.21 533.94 101.71 533.96 101.72 533.46"></polyline><line class="cls-21" x1="101.74" y1="532.44" x2="101.87" y2="526.84"></line><polyline class="cls-9" points="101.88 526.33 101.89 525.83 102.39 525.84"></polyline><line class="cls-8" x1="103.49" y1="525.88" x2="109.53" y2="526.07"></line><line class="cls-9" x1="110.08" y1="526.09" x2="110.58" y2="526.1"></line><line class="cls-9" x1="89.23" y1="533.5" x2="89.73" y2="533.51"></line><line class="cls-12" x1="90.64" y1="533.54" x2="93.82" y2="533.65"></line><polyline class="cls-9" points="94.28 533.66 94.78 533.68 94.8 533.18"></polyline><line class="cls-4" x1="94.83" y1="532.18" x2="95.02" y2="526.64"></line><polyline class="cls-9" points="95.04 526.14 95.06 525.64 95.56 525.66"></polyline><line class="cls-19" x1="96.72" y1="525.69" x2="100.81" y2="525.8"></line><line class="cls-9" x1="101.39" y1="525.81" x2="101.89" y2="525.83"></line><line class="cls-9" x1="85.82" y1="533.4" x2="86.32" y2="533.42"></line><line class="cls-10" x1="87.12" y1="533.44" x2="88.33" y2="533.47"></line><polyline class="cls-9" points="88.73 533.48 89.23 533.5 89.25 533"></polyline><line class="cls-4" x1="89.29" y1="531.99" x2="89.48" y2="526.46"></line><polyline class="cls-9" points="89.49 525.96 89.51 525.46 90.01 525.47"></polyline><line class="cls-11" x1="90.9" y1="525.5" x2="94.02" y2="525.61"></line><line class="cls-9" x1="94.46" y1="525.62" x2="94.96" y2="525.64"></line><line class="cls-9" x1="83.51" y1="533.31" x2="84.01" y2="533.33"></line><polyline class="cls-9" points="85.32 533.38 85.82 533.4 85.83 532.9"></polyline><line class="cls-4" x1="85.87" y1="531.9" x2="86.06" y2="526.37"></line><polyline class="cls-9" points="86.08 525.86 86.09 525.36 86.59 525.38"></polyline><line class="cls-10" x1="87.4" y1="525.4" x2="88.61" y2="525.43"></line><line class="cls-9" x1="89.01" y1="525.44" x2="89.51" y2="525.46"></line><polyline class="cls-9" points="83.23 533.31 83.5 533.31 83.52 532.81"></polyline><line class="cls-4" x1="83.56" y1="531.81" x2="83.75" y2="526.27"></line><polyline class="cls-9" points="83.77 525.77 83.78 525.27 84.28 525.29"></polyline><line class="cls-9" x1="85.59" y1="525.34" x2="86.09" y2="525.36"></line><line class="cls-9" x1="83.23" y1="533.31" x2="83.24" y2="532.81"></line><line class="cls-4" x1="83.28" y1="531.81" x2="83.47" y2="526.27"></line><polyline class="cls-9" points="83.49 525.77 83.51 525.27 83.78 525.27"></polyline><polyline class="cls-25" points="32.97 492.84 45.71 493.39 86.46 494.78 127.3 495.7 168.05 496.25"></polyline><polyline class="cls-25" points="32.96 490.84 45.71 491.39 86.46 492.77 127.3 493.7 168.05 494.25"></polyline><g><path class="cls-9" d="M153.02,76.67c25.57,0,43.49-20.73,43.49-46.29"></path><path class="cls-9" d="M93.02,64.95c0,23.13,18.62,39.35,41.58,39.35"></path><path class="cls-9" d="M142.64,245.13c0,23.13,18.62,39.35,41.58,39.35"></path><path class="cls-9" d="M126.47,409.14c0,23.13,18.62,39.35,41.58,39.35"></path></g><line class="cls-9" x1="150.22" y1="20.38" x2="196.51" y2="20.38"></line><line class="cls-9" x1="153.02" y1="30.38" x2="196.51" y2="30.38"></line><rect class="cls-25" x="150.22" y="30.38" width="2.81" height="46.29"></rect><rect class="cls-25" x="93.02" y="62.72" width="41.58" height="2.23"></rect><rect class="cls-25" x="142.64" y="242.9" width="41.58" height="2.23"></rect><rect class="cls-25" x="88.4" y="234.21" width="41.58" height="2.31"></rect><rect class="cls-25" x="126.47" y="406.91" width="41.58" height="2.23"></rect><rect class="cls-25" x="187.35" y="159.74" width="2.69" height="69.3"></rect><line class="cls-25" x1="190.04" y1="194.39" x2="187.35" y2="194.39"></line><rect class="cls-25" x="217.76" y="35" width="2.69" height="41.58"></rect><polyline class="cls-18" points="367.09 225.03 367.09 225.78 366.34 225.78"></polyline><line class="cls-14" x1="364.92" y1="225.78" x2="342.89" y2="225.78"></line><polyline class="cls-18" points="342.18 225.78 341.43 225.78 341.43 225.03"></polyline><line class="cls-14" x1="341.43" y1="223.61" x2="341.43" y2="201.58"></line><polyline class="cls-18" points="341.43 200.87 341.43 200.12 342.18 200.12"></polyline><line class="cls-14" x1="343.6" y1="200.12" x2="365.63" y2="200.12"></line><polyline class="cls-18" points="366.34 200.12 367.09 200.12 367.09 200.87"></polyline><line class="cls-14" x1="367.09" y1="202.29" x2="367.09" y2="224.32"></line><line class="cls-18" x1="367.09" y1="134.15" x2="367.09" y2="134.9"></line><line class="cls-14" x1="367.09" y1="136.33" x2="367.09" y2="158.36"></line><polyline class="cls-18" points="367.09 159.07 367.09 159.82 366.34 159.82"></polyline><line class="cls-14" x1="364.92" y1="159.82" x2="342.89" y2="159.82"></line><polyline class="cls-18" points="342.18 159.82 341.43 159.82 341.43 159.07"></polyline><line class="cls-14" x1="341.43" y1="157.65" x2="341.43" y2="135.61"></line><polyline class="cls-18" points="341.43 134.9 341.43 134.15 342.18 134.15"></polyline><line class="cls-2" x1="344.09" y1="134.15" x2="346.95" y2="134.15"></line><line class="cls-18" x1="347.91" y1="134.15" x2="348.66" y2="134.15"></line><polyline class="cls-18" points="367.09 225.03 367.09 225.78 366.34 225.78"></polyline><line class="cls-14" x1="364.92" y1="225.78" x2="342.89" y2="225.78"></line><polyline class="cls-18" points="342.18 225.78 341.43 225.78 341.43 225.03"></polyline><line class="cls-14" x1="341.43" y1="223.61" x2="341.43" y2="201.58"></line><polyline class="cls-18" points="341.43 200.87 341.43 200.12 342.18 200.12"></polyline><line class="cls-14" x1="343.6" y1="200.12" x2="365.63" y2="200.12"></line><polyline class="cls-18" points="366.34 200.12 367.09 200.12 367.09 200.87"></polyline><line class="cls-14" x1="367.09" y1="202.29" x2="367.09" y2="224.32"></line><line class="cls-18" x1="295.49" y1="72.71" x2="297.99" y2="72.71"></line><line class="cls-7" x1="302.8" y1="72.71" x2="348.43" y2="72.71"></line><polyline class="cls-18" points="350.84 72.71 353.34 72.71 353.34 75.21"></polyline><polyline class="cls-18" points="353.34 77.61 353.34 80.11 355.84 80.11"></polyline><line class="cls-15" x1="359.44" y1="80.11" x2="364.84" y2="80.11"></line><line class="cls-18" x1="366.65" y1="80.11" x2="369.15" y2="80.11"></line><line class="cls-18" x1="353.34" y1="228.34" x2="353.34" y2="225.84"></line><line class="cls-5" x1="353.34" y1="220.72" x2="353.34" y2="151.47"></line><polyline class="cls-18" points="353.34 148.91 353.34 146.41 355.84 146.41"></polyline><line class="cls-15" x1="359.44" y1="146.41" x2="364.84" y2="146.41"></line><line class="cls-18" x1="366.65" y1="146.41" x2="369.15" y2="146.41"></line><line class="cls-18" x1="369.15" y1="134.15" x2="366.65" y2="134.15"></line><line class="cls-6" x1="361.48" y1="134.15" x2="353.74" y2="134.15"></line><polyline class="cls-18" points="351.16 134.15 348.66 134.15 348.66 131.65"></polyline><line class="cls-16" x1="348.66" y1="126.4" x2="348.66" y2="97.49"></line><polyline class="cls-18" points="348.66 94.87 348.66 92.37 351.16 92.37"></polyline><line class="cls-6" x1="356.32" y1="92.37" x2="364.07" y2="92.37"></line><line class="cls-18" x1="366.65" y1="92.37" x2="369.15" y2="92.37"></line><g><rect class="cls-25" x="46.06" y="147.66" width="17.6" height="7.45" rx="1.08" ry="1.08"></rect><path class="cls-25" d="M50.4,143.52c-.28,0-.54-.11-.73-.32-1.88-2.09-3.09-5.3-3.09-8.9,0-6.31,3.71-11.42,8.28-11.42s8.28,5.11,8.28,11.42c0,3.6-1.2,6.8-3.08,8.9-.19.21-.46.32-.73.32h-8.92Z"></path></g><line class="cls-25" x1="46.59" y1="134.3" x2="46.59" y2="147.82"></line><line class="cls-25" x1="63.14" y1="134.3" x2="63.14" y2="147.82"></line><polyline class="cls-25" points="75.65 155.12 75.65 130.1 134.6 130.1"></polyline><path class="cls-25" d="M105.67,147.05h9.87c.4,0,.72-.32.72-.72v-10.9c0-.4-.32-.72-.72-.72h-20.82c-.4,0-.72.32-.72.72v10.9c0,.4.32.72.72.72h9.48"></path><rect class="cls-25" x="104.2" y="144.62" width="1.47" height="5.89"></rect><circle class="cls-25" cx="104.94" cy="140.88" r=".84"></circle><line class="cls-25" x1="341.43" y1="84.62" x2="259.34" y2="84.62"></line><line class="cls-25" x1="295.49" y1="84.62" x2="295.49" y2="56.9"></line><line class="cls-25" x1="295.49" y1="82.12" x2="259.34" y2="82.12"></line><g><rect class="cls-25" x="359.6" y="179.73" width="7.83" height="1.59" rx=".54" ry=".54"></rect><path class="cls-25" d="M354.2,180.53c0-.45-.37-.82-.82-.82s-.82.37-.82.82.37.82.82.82.82-.37.82-.82Z"></path></g><polyline class="cls-25" points="366.22 179.73 366.22 177.52 364.8 177.52 364.8 179.73"></polyline><line class="cls-25" x1="364.8" y1="178.3" x2="366.22" y2="178.3"></line><polyline class="cls-25" points="363.8 179.73 363.8 168.71 343.91 168.71 343.91 192.34 363.8 192.34 363.8 181.32"></polyline><polyline class="cls-25" points="362.81 181.32 362.81 191.35 344.9 191.35 344.9 169.7 362.81 169.7 362.81 179.73"></polyline><line class="cls-25" x1="341.42" y1="84.62" x2="341.43" y2="289.1"></line><line class="cls-25" x1="341.43" y1="246.95" x2="369.15" y2="246.94"></line><line class="cls-25" x1="341.43" y1="228.35" x2="369.15" y2="228.34"></line><line class="cls-25" x1="343.92" y1="246.95" x2="343.92" y2="289.1"></line><line class="cls-25" x1="343.92" y1="228.34" x2="343.92" y2="246.94"></line><rect class="cls-25" x="143.26" y="163.47" width="38.03" height="30.61"></rect><polyline class="cls-25" points="157.1 201.32 184.22 201.32 184.22 229.04"></polyline><line class="cls-25" x1="51.26" y1="42.24" x2="51.26" y2="39.03"></line><g><path class="cls-25" d="M51.26,38.17v-11.6c0-1.38,1.12-2.5,2.5-2.5h61.83c1.38.01,2.5,1.13,2.5,2.51v24.04c0,1.38-1.12,2.5-2.5,2.5h-61.83c-1.38-.01-2.5-1.13-2.5-2.51v-8.37"></path><path class="cls-25" d="M47.24,39.03h10.86c.24,0,.43-.19.43-.43s-.19-.43-.43-.43h-10.81"></path><path class="cls-25" d="M57.02,38.17c.17-.46.61-.79,1.14-.79.67,0,1.21.54,1.21,1.21s-.54,1.21-1.21,1.21c-.51,0-.95-.32-1.13-.77"></path><path class="cls-25" d="M52.99,38.17c.22-2.66,2.45-4.76,5.17-4.76,2.86,0,5.18,2.32,5.18,5.18,0,2.86-2.32,5.18-5.18,5.18-2.71,0-4.94-2.09-5.16-4.74"></path></g><rect class="cls-25" x="46.27" y="36.05" width=".97" height="5.08"></rect><line class="cls-25" x1="46.27" y1="56.82" x2="122.49" y2="56.82"></line><line class="cls-25" x1="46.27" y1="58.1" x2="122.45" y2="58.11"></line><line class="cls-25" x1="50.95" y1="58.1" x2="50.95" y2="56.82"></line><line class="cls-25" x1="88.95" y1="58.1" x2="88.95" y2="56.82"></line><rect class="cls-25" x="342.43" y="94.77" width="24.28" height="36.98"></rect><rect class="cls-25" x="343.51" y="95.85" width="22.12" height="34.82"></rect><path class="cls-25" d="M344.26,113.26c0-.71.57-1.28,1.28-1.28s1.28.57,1.28,1.28-.57,1.28-1.28,1.28c-.71,0-1.28-.57-1.28-1.28Z"></path><line class="cls-25" x1="343.5" y1="95.85" x2="342.42" y2="94.77"></line><line class="cls-25" x1="343.51" y1="130.67" x2="342.43" y2="131.75"></line><line class="cls-25" x1="365.63" y1="130.67" x2="366.71" y2="131.75"></line><line class="cls-25" x1="365.62" y1="95.85" x2="366.7" y2="94.77"></line><polygon class="cls-25" points="345.54 114.31 346.59 113.26 345.54 112.21 344.48 113.26 345.54 114.31"></polygon><line class="cls-25" x1="346.59" y1="113.26" x2="344.48" y2="113.26"></line><g><path class="cls-24" d="M236.77,53.89c-1.51.03-3.03.06-4.57.13-.8.04-1.6.09-2.35.13-.57.03-1.11.07-1.78.16-.65.09-1.42.25-1.73-.23-.07-.11-.12-.25-.13-.38-.06-.77,1.18-.9,2.24-.97,2.35-.15,3.74.04,5.44.16.9.06,1.9.1,2.89.14.99-.04,1.98-.08,2.89-.14,1.7-.12,3.09-.3,5.44-.16,1.05.07,2.3.2,2.24.97-.01.13-.06.27-.12.38-.31.48-1.08.33-1.73.23-.67-.1-1.21-.13-1.78-.16-.75-.04-1.56-.09-2.35-.13-1.55-.07-3.06-.1-4.57-.13Z"></path><path class="cls-24" d="M236.77,49.2c-1.51.03-3.03.06-4.57.13-.8.04-1.6.09-2.35.13-.57.03-1.11.07-1.78.16-.65.09-1.42.25-1.73-.23-.07-.11-.12-.25-.13-.38-.06-.77,1.18-.9,2.24-.97,2.35-.15,3.74.04,5.44.16.9.06,1.9.1,2.89.14.99-.04,1.98-.08,2.89-.14,1.7-.12,3.09-.3,5.44-.16,1.05.07,2.3.2,2.24.97-.01.13-.06.27-.12.38-.31.48-1.08.33-1.73.23-.67-.1-1.21-.13-1.78-.16-.75-.04-1.56-.09-2.35-.13-1.55-.07-3.06-.1-4.57-.13Z"></path><path class="cls-24" d="M236.77,44.51c-1.51.03-3.03.06-4.57.13-.8.04-1.6.09-2.35.13-.57.03-1.11.07-1.78.16-.65.09-1.42.25-1.73-.23-.07-.11-.12-.25-.13-.38-.06-.77,1.18-.9,2.24-.97,2.35-.15,3.74.04,5.44.16.9.06,1.9.1,2.89.14.99-.04,1.98-.08,2.89-.14,1.7-.12,3.09-.3,5.44-.16,1.05.07,2.3.2,2.24.97-.01.13-.06.27-.12.38-.31.48-1.08.32-1.73.23-.67-.1-1.21-.13-1.78-.16-.75-.04-1.56-.09-2.35-.13-1.55-.07-3.06-.1-4.57-.13Z"></path></g><line class="cls-24" x1="236.77" y1="18.83" x2="236.77" y2="78.89"></line><line class="cls-24" x1="39.89" y1="396.56" x2="168.05" y2="396.56"></line><polyline class="cls-24" points="176.18 450.8 176.18 527.3 212.59 527.4 248.99 527.12 285.4 526.57 321.71 525.55 358.12 524.07 366.71 523.7"></polyline><polyline class="cls-24" points="168.05 501.89 127.3 501.34 86.46 500.42 45.71 499.12 22.96 498.14 22.96 492.84"></polyline><line class="cls-24" x1="120.65" y1="526.38" x2="168.05" y2="527.21"></line><line class="cls-24" x1="387.15" y1="528.48" x2="387.15" y2="522.74"></line><rect class="cls-17" x="32.96" y="402.29" width="135.09" height="2.31"></rect><polygon class="cls-17" points="387.15 530.76 376.32 531.37 341.67 532.85 306.93 534.05 272.19 534.88 237.54 535.34 202.79 535.53 168.05 535.25 168.05 450.8 170.36 450.8 170.36 533.03 204.73 533.22 239.01 533.03 273.39 532.57 307.67 531.74 342.04 530.54 376.32 529.06 387.15 528.48 387.15 530.76"></polygon><polyline class="cls-17" points="168.05 535.25 120.47 534.42 120.52 532.11 120.47 532.11 168.05 532.94"></polyline><polyline class="cls-17" points="176.18 527.3 176.18 525.64 170.36 531.37 170.36 533.03 172.02 533.03 177.85 527.3 176.18 527.3"></polyline><polygon class="cls-17" points="367.91 523.65 368.19 529.43 365.88 529.52 365.6 523.75 367.91 523.65"></polygon><polyline class="cls-17" points="333.35 525.09 333.54 530.84 331.23 530.91 331.04 525.18 333.35 525.09"></polyline><polygon class="cls-17" points="264.24 526.89 264.33 532.69 262.02 532.69 261.93 526.93 264.24 526.89"></polygon><rect class="cls-17" x="192.72" y="527.35" width="2.31" height="5.8"></rect><polyline class="cls-17" points="122.96 526.38 122.78 532.2 120.47 532.11 120.65 526.38 122.96 526.38"></polyline><rect class="cls-17" x="166.94" y="396.56" width="2.31" height="5.73"></rect><rect class="cls-17" x="168.05" y="402.29" width="8.13" height="4.62"></rect><rect class="cls-17" x="168.05" y="448.49" width="8.13" height="2.31"></rect><rect class="cls-17" x="107.99" y="396.56" width="2.31" height="5.73"></rect><rect class="cls-17" x="38.69" y="396.56" width="2.31" height="5.73"></rect><rect class="cls-17" x="170.36" y="497.18" width="5.82" height="2.31"></rect><rect class="cls-17" x="32.96" y="396.56" width="2.31" height="5.73"></rect><polygon class="cls-26" points="150.22 30.38 150.22 20.38 143.84 20.38 143.84 8.83 22.96 8.83 22.96 492.84 32.96 492.84 32.96 396.56 39.89 396.56 39.89 238.28 88.4 238.28 88.4 236.52 49.13 236.52 49.13 234.21 88.4 234.21 88.4 232.46 34.07 232.46 34.07 163.16 134.6 163.16 134.6 232.46 129.98 232.46 129.98 238.28 184.22 238.28 184.22 242.9 190.04 242.9 190.04 229.04 184.22 229.04 184.22 232.46 156.5 232.46 156.5 201.32 140.33 201.32 140.33 156.23 184.22 156.23 184.22 159.74 190.04 159.74 190.04 148.19 140.33 148.19 140.33 104.3 134.6 104.3 134.6 155.12 34.07 155.12 34.07 58.1 46.27 58.1 46.27 18.83 122.5 18.83 122.5 58.1 134.6 58.1 134.6 62.72 140.33 62.72 140.33 30.38 150.22 30.38"></polygon><polygon class="cls-22" points="150.22 30.38 150.22 20.38 143.84 20.38 143.84 8.83 22.96 8.83 22.96 492.84 32.96 492.84 32.96 396.56 39.89 396.56 39.89 238.28 88.4 238.28 88.4 236.52 49.13 236.52 49.13 234.21 88.4 234.21 88.4 232.46 34.07 232.46 34.07 163.16 134.6 163.16 134.6 232.46 129.98 232.46 129.98 238.28 184.22 238.28 184.22 242.9 190.04 242.9 190.04 229.04 184.22 229.04 184.22 232.46 156.5 232.46 156.5 201.32 140.33 201.32 140.33 156.23 184.22 156.23 184.22 159.74 190.04 159.74 190.04 148.19 140.33 148.19 140.33 104.3 134.6 104.3 134.6 155.12 34.07 155.12 34.07 58.1 46.27 58.1 46.27 18.83 122.5 18.83 122.5 58.1 134.6 58.1 134.6 62.72 140.33 62.72 140.33 30.38 150.22 30.38"></polygon><polygon class="cls-26" points="196.51 30.33 217.76 30.33 217.76 35 223.49 35 223.49 18.83 251.21 18.83 251.21 78.89 223.49 78.89 223.49 76.58 217.81 76.58 217.81 84.62 259.34 84.62 259.34 56.9 369.15 56.9 369.15 289.1 341.43 289.1 341.43 298.34 377.15 298.34 377.15 517.42 366.43 517.97 366.71 523.7 387.15 522.74 387.15 46.9 261.21 46.9 261.21 8.83 213.49 8.83 213.49 20.33 196.51 20.33 196.51 30.33"></polygon><polygon class="cls-22" points="196.51 30.33 217.76 30.33 217.76 35 223.49 35 223.49 18.83 251.21 18.83 251.21 78.89 223.49 78.89 223.49 76.58 217.81 76.58 217.81 84.62 259.34 84.62 259.34 56.9 369.15 56.9 369.15 289.1 341.43 289.1 341.43 298.34 377.15 298.34 377.15 517.42 366.43 517.97 366.71 523.7 387.15 522.74 387.15 46.9 261.21 46.9 261.21 8.83 213.49 8.83 213.49 20.33 196.51 20.33 196.51 30.33"></polygon><polygon class="cls-26" points="184.22 284.48 184.22 390.74 168.05 390.74 168.05 396.56 176.18 396.56 176.18 404.6 181.91 404.6 181.91 396.56 190.04 396.56 190.04 284.48 184.22 284.48"></polygon><polygon class="cls-22" points="184.22 284.48 184.22 390.74 168.05 390.74 168.05 396.56 176.18 396.56 176.18 404.6 181.91 404.6 181.91 396.56 190.04 396.56 190.04 284.48 184.22 284.48"></polygon><g><path class="cls-28" d="M173.51,8.22c-.02.08-.07.14-.14.14s-.13-.06-.14-.14c-.56-3.3-2.74-4.94-6.02-4.94h-3.84c-1.16,0-1.98-1.01-2.2-2.66-.05-.34.23-.61.47-.46.46.31,1.06.47,1.78.47h3.48c2.95,0,5.22,1.67,6.17,4.98.11.37.5.37.61,0,.96-3.31,3.22-4.98,6.18-4.98h3.48c.72,0,1.32-.16,1.78-.47.23-.16.51.12.47.46-.22,1.64-1.05,2.66-2.21,2.66h-3.84c-3.29,0-5.47,1.64-6.02,4.95h0Z"></path><path class="cls-23" d="M173.51,8.22c-.02.08-.07.14-.14.14s-.13-.06-.14-.14c-.56-3.3-2.74-4.94-6.02-4.94h-3.84c-1.16,0-1.98-1.01-2.2-2.66-.05-.34.23-.61.47-.46.46.31,1.06.47,1.78.47h3.48c2.95,0,5.22,1.67,6.17,4.98.11.37.5.37.61,0,.96-3.31,3.22-4.98,6.18-4.98h3.48c.72,0,1.32-.16,1.78-.47.23-.16.51.12.47.46-.22,1.64-1.05,2.66-2.21,2.66h-3.84c-3.29,0-5.47,1.64-6.02,4.95h0Z"></path></g><g><path class="cls-26" d="M78.92,444.56h2.72c1.68,0,2.68.84,2.68,2.25,0,.94-.46,1.68-1.24,2,1.1.25,1.7,1.07,1.7,2.31,0,1.61-1.02,2.5-2.88,2.5h-2.97v-9.06ZM81.89,448.56c.98,0,1.63-.64,1.63-1.64s-.69-1.61-1.88-1.61h-1.91v3.26h2.16ZM81.83,452.88c1.42,0,2.14-.6,2.14-1.79,0-1.13-.66-1.79-1.79-1.79h-2.46v3.58h2.11Z"></path><path class="cls-26" d="M90.73,452.42c-.43.82-1.25,1.29-2.25,1.29-1.44,0-2.31-.77-2.31-1.94,0-.69.29-1.16.72-1.44.46-.31,1.09-.42,1.77-.42h2.05v-.28c0-1.19-.62-1.83-1.82-1.83-.79,0-1.4.29-1.98,1.02l-.56-.48c.68-.84,1.53-1.21,2.59-1.21,1.63,0,2.54.89,2.54,2.51v3.99h-.71l-.04-1.2ZM88.56,453.07c1.18,0,2.17-.93,2.17-2.2v-.36h-1.95c-.51,0-1.03.08-1.37.32-.28.21-.44.51-.44.94,0,.79.6,1.3,1.6,1.3Z"></path><path class="cls-26" d="M93.32,452.29v-7.73h.77v7.59c0,.6.23.84.64.84.17,0,.38-.04.61-.12v.67c-.29.11-.6.17-.84.17-.72,0-1.18-.44-1.18-1.42Z"></path><path class="cls-26" d="M96.28,450.41c0-1.83,1.06-3.29,2.86-3.29,1.17,0,2.09.58,2.51,1.74l-.7.27c-.27-.82-.9-1.33-1.81-1.33-1.42,0-2.09,1.25-2.09,2.61s.68,2.62,2.09,2.62c.91,0,1.53-.51,1.81-1.33l.7.27c-.42,1.16-1.34,1.75-2.51,1.75-1.8,0-2.86-1.46-2.86-3.3Z"></path><path class="cls-26" d="M102.89,450.41c0-1.92,1.25-3.29,3.05-3.29s3.04,1.37,3.04,3.29-1.27,3.3-3.04,3.3-3.05-1.37-3.05-3.3ZM105.94,453.02c1.37,0,2.26-1.04,2.26-2.61s-.9-2.61-2.26-2.61-2.28,1.05-2.28,2.61.9,2.61,2.28,2.61Z"></path><path class="cls-26" d="M110.73,447.21h.78v1.05c.4-.76,1.12-1.14,2.01-1.14,1.38,0,2.2.81,2.2,2.51v3.99h-.78v-3.71c0-1.45-.55-2.11-1.61-2.11-1.16,0-1.83.79-1.83,2.55v3.27h-.78v-6.41Z"></path><path class="cls-26" d="M119.44,453.42l-2.55-6.21h.86l2.1,5.42,2.11-5.42h.85l-3.69,9.05h-.84l1.17-2.84Z"></path></g><path class="cls-26" d="M152.19,174.88h.65l1.71,6.06,1.76-5.7h.63l1.76,5.7,1.7-6.06h.65l-2.01,6.98h-.63l-1.79-5.71-1.79,5.71h-.64l-2.01-6.98Z"></path><path class="cls-26" d="M164.47,173.88h.48l-3.55,9.08h-.47l3.55-9.08Z"></path><path class="cls-26" d="M166.17,174.88h1.87c2.26,0,3.56,1.29,3.56,3.54s-1.27,3.43-3.57,3.43h-1.86v-6.98ZM167.98,181.28c1.92,0,2.99-.89,2.99-2.88s-1.08-2.95-2.94-2.95h-1.24v5.83h1.19Z"></path><path class="cls-26" d="M168.82,212.68h.62v6.42h3.22v.56h-3.84v-6.98Z"></path><g><path class="cls-26" d="M75.16,194.35h.65l1.71,6.06,1.76-5.7h.63l1.76,5.7,1.7-6.06h.65l-2.01,6.98h-.63l-1.79-5.71-1.79,5.71h-.64l-2.01-6.98Z"></path><path class="cls-26" d="M85.17,194.35h.62v6.98h-.62v-6.98Z"></path><path class="cls-26" d="M87.22,197.84c0-2.16,1.26-3.58,3.16-3.58,1.35,0,2.39.71,2.84,1.89l-.58.22c-.38-.96-1.17-1.52-2.26-1.52-1.55,0-2.54,1.17-2.54,2.99s.99,3,2.54,3c1.09,0,1.89-.56,2.26-1.52l.58.22c-.45,1.18-1.49,1.9-2.84,1.9-1.89,0-3.16-1.42-3.16-3.59Z"></path></g><g><path class="cls-26" d="M163.28,108.84h5.86v.73h-5.06v3.37h4.39v.73h-4.39v4.24h-.81v-9.06Z"></path><path class="cls-26" d="M169.87,114.69c0-1.92,1.25-3.29,3.05-3.29s3.04,1.37,3.04,3.29-1.27,3.3-3.04,3.3-3.05-1.36-3.05-3.3ZM172.92,117.3c1.37,0,2.26-1.04,2.26-2.61s-.9-2.61-2.26-2.61-2.28,1.05-2.28,2.61.9,2.61,2.28,2.61Z"></path><path class="cls-26" d="M179.44,117.7l-2.55-6.21h.86l2.1,5.42,2.11-5.42h.85l-3.69,9.05h-.84l1.17-2.84Z"></path><path class="cls-26" d="M183.77,114.74c0-1.84.99-3.34,2.81-3.34,1.96,0,2.76,1.53,2.76,2.94,0,.1-.01.4-.04.55h-4.76c.03,1.51.84,2.39,2.14,2.39.82,0,1.35-.23,1.91-.83l.55.49c-.73.75-1.43,1.05-2.46,1.05-1.89,0-2.91-1.41-2.91-3.25ZM188.58,114.31c0-.08,0-.16,0-.24,0-.92-.58-2.02-2-2.02-1.23,0-1.98.98-2.07,2.26h4.06Z"></path><path class="cls-26" d="M191.06,111.49h.78v1.09c.43-.78,1.31-1.18,2.02-1.18.33,0,.66.07.99.24l-.39.7c-.21-.1-.51-.17-.77-.17-.68,0-1.46.36-1.74,1.3-.08.27-.12.57-.12,1.27v3.15h-.78v-6.41Z"></path></g><g><path class="cls-26" d="M231.3,214.48h2.43c2.94,0,4.62,1.68,4.62,4.6s-1.64,4.46-4.63,4.46h-2.42v-9.06ZM233.65,222.8c2.5,0,3.89-1.16,3.89-3.74s-1.4-3.83-3.82-3.83h-1.61v7.57h1.54Z"></path><path class="cls-26" d="M239.96,214.48h.94v1.39h-.94v-1.39ZM240.04,217.13h.77v6.41h-.77v-6.41Z"></path><path class="cls-26" d="M242.85,217.13h.78v1.05c.4-.76,1.12-1.14,2.01-1.14,1.38,0,2.2.81,2.2,2.51v3.99h-.78v-3.71c0-1.45-.55-2.11-1.61-2.11-1.16,0-1.83.79-1.83,2.55v3.27h-.78v-6.41Z"></path><path class="cls-26" d="M249.73,214.48h.94v1.39h-.94v-1.39ZM249.81,217.13h.77v6.41h-.77v-6.41Z"></path><path class="cls-26" d="M252.62,217.13h.78v1.05c.4-.76,1.12-1.14,2.01-1.14,1.38,0,2.2.81,2.2,2.51v3.99h-.78v-3.71c0-1.45-.55-2.11-1.61-2.11-1.16,0-1.83.79-1.83,2.55v3.27h-.78v-6.41Z"></path><path class="cls-26" d="M259.08,224.3s0-.1.03-.26l1.11-.88c-.57-.22-.96-.59-.96-1.26,0-.53.27-.9.72-1.2-.36-.37-.56-.87-.56-1.45,0-1.3,1.04-2.2,2.39-2.2.64,0,1.22.21,1.64.59l1.02-.86.4.49-1,.88c.19.33.3.71.3,1.14,0,1.28-.96,2.13-2.33,2.13-.53,0-.99-.12-1.37-.34-.31.18-.45.42-.45.72,0,.66.63.83,1.62.98,1.6.25,2.99.44,2.99,1.75,0,1.16-1.05,1.78-2.7,1.78-1.82,0-2.85-.7-2.85-2ZM261.94,225.69c1.09,0,1.92-.34,1.92-1.08,0-.86-1.16-.96-2.31-1.14-.31-.05-.6-.1-.89-.17l-.8.92c-.01.09-.01.11-.01.15,0,.9.79,1.33,2.09,1.33ZM261.81,220.77c.98,0,1.59-.65,1.59-1.53s-.64-1.56-1.58-1.56-1.62.65-1.62,1.55.63,1.55,1.61,1.55Z"></path><path class="cls-26" d="M269.56,214.48h2.52c1.99,0,2.97.93,2.97,2.5,0,1.25-.64,2.07-1.85,2.38l2.44,4.19h-.92l-2.34-4.07c-.21,0-.44,0-.65,0h-1.36v4.06h-.81v-9.06ZM272,218.76c1.38,0,2.24-.55,2.24-1.78s-.88-1.77-2.24-1.77h-1.64v3.56h1.64Z"></path><path class="cls-26" d="M276.57,220.33c0-1.92,1.25-3.29,3.05-3.29s3.04,1.37,3.04,3.29-1.27,3.3-3.04,3.3-3.05-1.36-3.05-3.3ZM279.62,222.94c1.37,0,2.26-1.04,2.26-2.61s-.9-2.61-2.26-2.61-2.28,1.05-2.28,2.61.9,2.61,2.28,2.61Z"></path><path class="cls-26" d="M284.1,220.33c0-1.92,1.25-3.29,3.05-3.29s3.04,1.37,3.04,3.29-1.27,3.3-3.04,3.3-3.05-1.36-3.05-3.3ZM287.15,222.94c1.37,0,2.26-1.04,2.26-2.61s-.9-2.61-2.26-2.61-2.28,1.05-2.28,2.61.9,2.61,2.28,2.61Z"></path><path class="cls-26" d="M291.94,217.13h.78v1.1c.38-.85,1.11-1.19,1.88-1.19.91,0,1.57.4,1.89,1.25.4-.83,1.09-1.25,2-1.25,1.55,0,2.13,1.16,2.13,2.69v3.82h-.78v-3.64c0-1.33-.39-2.18-1.52-2.18-1.02,0-1.65.77-1.65,2.26v3.57h-.78v-3.76c0-1.4-.52-2.07-1.5-2.07-1.03,0-1.67.79-1.67,2.26v3.57h-.78v-6.41Z"></path></g><g><path class="cls-26" d="M277.63,108.44h.81v4.86l4.65-4.86h1.09l-3.45,3.54,3.48,5.52h-.95l-3.11-4.93-1.71,1.76v3.17h-.81v-9.06Z"></path><path class="cls-26" d="M285.36,108.44h.94v1.39h-.94v-1.39ZM285.45,111.09h.77v6.41h-.77v-6.41Z"></path><path class="cls-26" d="M289.02,116.02v-4.31h-1.42v-.62h1.42v-1.85l.79-.46v2.31h1.54v.62h-1.54v4.12c0,.71.22,1.11.81,1.11.19,0,.46-.04.73-.12v.62c-.32.1-.64.16-.92.16-.85,0-1.4-.49-1.4-1.57Z"></path><path class="cls-26" d="M292.37,114.29c0-1.83,1.06-3.29,2.86-3.29,1.17,0,2.09.58,2.51,1.74l-.7.27c-.27-.82-.9-1.33-1.81-1.33-1.42,0-2.09,1.25-2.09,2.61s.68,2.62,2.09,2.62c.91,0,1.53-.51,1.81-1.33l.7.27c-.42,1.16-1.34,1.75-2.51,1.75-1.8,0-2.86-1.46-2.86-3.3Z"></path><path class="cls-26" d="M299.37,108.44h.78v3.69c.4-.75,1.1-1.13,2.01-1.13,1.4,0,2.2.85,2.2,2.51v3.99h-.78v-3.71c0-1.43-.53-2.11-1.61-2.11-1.18,0-1.83.83-1.83,2.55v3.27h-.78v-9.06Z"></path><path class="cls-26" d="M306,114.34c0-1.84.99-3.34,2.81-3.34,1.96,0,2.76,1.53,2.76,2.94,0,.1-.01.4-.04.55h-4.76c.03,1.51.84,2.39,2.14,2.39.82,0,1.35-.23,1.91-.83l.55.49c-.73.75-1.43,1.05-2.46,1.05-1.89,0-2.91-1.41-2.91-3.25ZM310.82,113.91c0-.08,0-.16,0-.24,0-.92-.58-2.02-2-2.02-1.23,0-1.98.98-2.07,2.26h4.06Z"></path><path class="cls-26" d="M313.31,111.09h.78v1.05c.4-.76,1.12-1.14,2.01-1.14,1.38,0,2.2.81,2.2,2.51v3.99h-.78v-3.71c0-1.45-.55-2.11-1.61-2.11-1.16,0-1.83.79-1.83,2.55v3.27h-.78v-6.41Z"></path></g><path class="cls-26" d="M268.2,69.66c0-2.17,1.27-3.59,3.16-3.59s3.18,1.42,3.18,3.59-1.27,3.58-3.18,3.58-3.16-1.42-3.16-3.58ZM271.36,72.65c1.57,0,2.55-1.16,2.55-2.99s-.99-3-2.55-3-2.54,1.15-2.54,3,.99,2.99,2.54,2.99Z"></path><path class="cls-26" d="M278.23,65.17h.48l-3.55,9.08h-.47l3.55-9.08Z"></path><path class="cls-26" d="M279.93,66.17h.93l2.35,5.66,2.35-5.66h.92v6.98h-.62v-6.16l-2.35,5.59h-.61l-2.36-5.59v6.16h-.62v-6.98Z"></path><g><path class="cls-26" d="M348.79,263.87h1.94c1.53,0,2.29.72,2.29,1.92,0,.97-.5,1.6-1.43,1.83l1.88,3.22h-.71l-1.8-3.13c-.16,0-.34,0-.5,0h-1.05v3.13h-.62v-6.98ZM350.67,267.17c1.06,0,1.73-.43,1.73-1.37s-.68-1.37-1.73-1.37h-1.26v2.74h1.26Z"></path><path class="cls-26" d="M354.64,263.87h4.56v.56h-3.94v2.59h3.53v.56h-3.53v2.7h3.94v.56h-4.56v-6.98Z"></path><path class="cls-26" d="M360.5,263.87h4.51v.56h-3.89v2.59h3.38v.56h-3.38v3.26h-.62v-6.98Z"></path></g><path class="cls-26" d="M354.73,233.99h1.94c1.46,0,2.29.69,2.29,1.95s-.83,1.96-2.29,1.96h-1.33v3.07h-.62v-6.98ZM356.61,237.33c1.09,0,1.73-.47,1.73-1.4s-.62-1.39-1.73-1.39h-1.27v2.79h1.27Z"></path><g><path class="cls-26" d="M347.03,209.33h.65l1.71,6.06,1.76-5.7h.63l1.76,5.7,1.7-6.06h.65l-2.01,6.98h-.63l-1.79-5.71-1.79,5.71h-.64l-2.01-6.98Z"></path><path class="cls-26" d="M357.04,209.33h4.51v.56h-3.89v2.59h3.38v.56h-3.38v3.26h-.62v-6.98Z"></path></g><g><path class="cls-26" d="M347.1,143.21h1.87c2.26,0,3.56,1.29,3.56,3.54s-1.27,3.43-3.57,3.43h-1.86v-6.98ZM348.91,149.61c1.92,0,2.99-.89,2.99-2.88s-1.08-2.95-2.94-2.95h-1.24v5.83h1.19Z"></path><path class="cls-26" d="M353.19,143.21h.65l1.71,6.06,1.76-5.7h.63l1.76,5.7,1.7-6.06h.65l-2.01,6.98h-.63l-1.79-5.71-1.79,5.71h-.64l-2.01-6.98Z"></path></g><g><path class="cls-26" d="M62.73,313.3h2.52c1.9,0,2.97.89,2.97,2.53s-1.07,2.54-2.97,2.54h-1.72v3.99h-.8v-9.06ZM65.17,317.65c1.41,0,2.24-.61,2.24-1.81s-.81-1.81-2.24-1.81h-1.64v3.62h1.64Z"></path><path class="cls-26" d="M69.74,315.95h.78v1.09c.43-.78,1.31-1.18,2.02-1.18.33,0,.66.07.99.24l-.39.7c-.21-.1-.51-.17-.77-.17-.68,0-1.46.36-1.74,1.3-.08.27-.12.57-.12,1.27v3.15h-.78v-6.41Z"></path><path class="cls-26" d="M74.79,313.3h.94v1.39h-.94v-1.39ZM74.88,315.95h.77v6.41h-.77v-6.41Z"></path><path class="cls-26" d="M77.69,315.95h.78v1.1c.38-.84,1.11-1.19,1.88-1.19.91,0,1.57.4,1.89,1.25.4-.83,1.09-1.25,2-1.25,1.55,0,2.13,1.16,2.13,2.68v3.82h-.78v-3.64c0-1.33-.39-2.18-1.52-2.18-1.02,0-1.65.77-1.65,2.26v3.57h-.78v-3.76c0-1.4-.52-2.07-1.5-2.07-1.03,0-1.67.79-1.67,2.26v3.57h-.78v-6.41Z"></path><path class="cls-26" d="M92.51,321.16c-.43.82-1.25,1.29-2.25,1.29-1.44,0-2.31-.77-2.31-1.94,0-.69.29-1.16.72-1.44.46-.31,1.09-.42,1.77-.42h2.05v-.28c0-1.19-.62-1.83-1.82-1.83-.79,0-1.4.29-1.98,1.02l-.56-.48c.68-.84,1.53-1.21,2.59-1.21,1.63,0,2.54.89,2.54,2.51v3.99h-.71l-.04-1.2ZM90.33,321.81c1.18,0,2.17-.93,2.17-2.2v-.36h-1.95c-.51,0-1.03.08-1.37.32-.28.21-.44.51-.44.94,0,.79.6,1.3,1.6,1.3Z"></path><path class="cls-26" d="M95.22,315.95h.78v1.09c.43-.78,1.31-1.18,2.02-1.18.33,0,.66.07.99.24l-.39.7c-.21-.1-.51-.17-.77-.17-.68,0-1.46.36-1.74,1.3-.08.27-.12.57-.12,1.27v3.15h-.78v-6.41Z"></path><path class="cls-26" d="M102.28,322.16l-2.55-6.21h.86l2.1,5.42,2.11-5.42h.85l-3.69,9.05h-.84l1.17-2.84Z"></path><path class="cls-26" d="M110.54,313.3h2.72c1.68,0,2.68.84,2.68,2.25,0,.94-.46,1.68-1.24,2,1.1.25,1.7,1.07,1.7,2.31,0,1.61-1.02,2.5-2.88,2.5h-2.97v-9.06ZM113.51,317.3c.98,0,1.63-.64,1.63-1.64s-.69-1.61-1.88-1.61h-1.91v3.26h2.16ZM113.46,321.62c1.42,0,2.14-.6,2.14-1.79,0-1.13-.66-1.79-1.79-1.79h-2.46v3.58h2.11Z"></path><path class="cls-26" d="M117.86,319.2c0-1.84.99-3.34,2.81-3.34,1.96,0,2.76,1.53,2.76,2.94,0,.1-.01.4-.04.55h-4.76c.03,1.51.84,2.39,2.14,2.39.82,0,1.35-.23,1.91-.83l.55.49c-.73.75-1.43,1.05-2.46,1.05-1.89,0-2.91-1.41-2.91-3.25ZM122.68,318.77c0-.08,0-.16,0-.24,0-.92-.58-2.01-2-2.01-1.23,0-1.98.98-2.07,2.26h4.06Z"></path><path class="cls-26" d="M124.84,319.15c0-1.96,1.29-3.29,2.92-3.29,1.05,0,1.87.54,2.29,1.36v-3.92h.77v9.06h-.77v-1.26c-.44.84-1.25,1.35-2.29,1.35-1.72,0-2.92-1.42-2.92-3.3ZM127.88,321.73c1.3,0,2.23-1.08,2.23-2.58s-.93-2.58-2.23-2.58-2.26,1.09-2.26,2.58.95,2.58,2.26,2.58Z"></path><path class="cls-26" d="M132.86,315.95h.78v1.09c.43-.78,1.31-1.18,2.02-1.18.33,0,.66.07.99.24l-.39.7c-.21-.1-.51-.17-.77-.17-.68,0-1.46.36-1.74,1.3-.08.27-.12.57-.12,1.27v3.15h-.78v-6.41Z"></path><path class="cls-26" d="M137.24,319.15c0-1.92,1.25-3.29,3.05-3.29s3.04,1.37,3.04,3.29-1.27,3.3-3.04,3.3-3.05-1.37-3.05-3.3ZM140.29,321.76c1.37,0,2.26-1.04,2.26-2.61s-.9-2.61-2.26-2.61-2.28,1.05-2.28,2.61.9,2.61,2.28,2.61Z"></path><path class="cls-26" d="M144.77,319.15c0-1.92,1.25-3.29,3.05-3.29s3.04,1.37,3.04,3.29-1.27,3.3-3.04,3.3-3.05-1.37-3.05-3.3ZM147.82,321.76c1.37,0,2.26-1.04,2.26-2.61s-.9-2.61-2.26-2.61-2.28,1.05-2.28,2.61.9,2.61,2.28,2.61Z"></path><path class="cls-26" d="M152.61,315.95h.78v1.1c.38-.84,1.11-1.19,1.88-1.19.91,0,1.57.4,1.89,1.25.4-.83,1.09-1.25,2-1.25,1.55,0,2.13,1.16,2.13,2.68v3.82h-.78v-3.64c0-1.33-.39-2.18-1.52-2.18-1.02,0-1.65.77-1.65,2.26v3.57h-.78v-3.76c0-1.4-.52-2.07-1.5-2.07-1.03,0-1.67.79-1.67,2.26v3.57h-.78v-6.41Z"></path></g><g><path class="cls-26" d="M250.17,391.06h.81v8.33h4.18v.73h-4.99v-9.06Z"></path><path class="cls-26" d="M256.29,391.06h.94v1.39h-.94v-1.39ZM256.38,393.71h.77v6.41h-.77v-6.41Z"></path><path class="cls-26" d="M258.55,393.71h.86l2.1,5.42,2.11-5.42h.85l-2.61,6.41h-.68l-2.63-6.41Z"></path><path class="cls-26" d="M265.8,391.06h.94v1.39h-.94v-1.39ZM265.89,393.71h.77v6.41h-.77v-6.41Z"></path><path class="cls-26" d="M268.69,393.71h.78v1.05c.4-.76,1.12-1.14,2.01-1.14,1.38,0,2.2.81,2.2,2.51v3.99h-.78v-3.71c0-1.45-.55-2.11-1.61-2.11-1.16,0-1.83.79-1.83,2.55v3.27h-.78v-6.41Z"></path><path class="cls-26" d="M275.15,400.88s0-.1.03-.26l1.11-.88c-.57-.22-.96-.59-.96-1.26,0-.53.27-.9.72-1.2-.36-.37-.56-.87-.56-1.45,0-1.3,1.04-2.2,2.38-2.2.64,0,1.22.21,1.64.58l1.02-.86.4.49-1,.88c.19.33.3.71.3,1.14,0,1.28-.96,2.13-2.33,2.13-.53,0-.99-.12-1.37-.34-.31.17-.45.42-.45.71,0,.66.63.83,1.62.98,1.6.25,2.99.44,2.99,1.75,0,1.16-1.05,1.78-2.7,1.78-1.82,0-2.85-.7-2.85-2ZM278.01,402.27c1.09,0,1.92-.34,1.92-1.08,0-.86-1.16-.96-2.31-1.14-.31-.05-.6-.1-.89-.17l-.8.92c-.01.09-.01.11-.01.15,0,.9.79,1.33,2.09,1.33ZM277.88,397.35c.98,0,1.59-.65,1.59-1.53s-.64-1.56-1.58-1.56-1.62.65-1.62,1.55.63,1.55,1.61,1.55Z"></path><path class="cls-26" d="M285.63,391.06h2.52c1.99,0,2.97.93,2.97,2.5,0,1.25-.64,2.07-1.85,2.38l2.44,4.19h-.92l-2.34-4.07c-.21,0-.44,0-.65,0h-1.36v4.06h-.81v-9.06ZM288.08,395.34c1.38,0,2.24-.55,2.24-1.78s-.88-1.77-2.24-1.77h-1.64v3.56h1.64Z"></path><path class="cls-26" d="M292.64,396.91c0-1.92,1.25-3.29,3.05-3.29s3.04,1.37,3.04,3.29-1.27,3.3-3.04,3.3-3.05-1.37-3.05-3.3ZM295.69,399.52c1.37,0,2.26-1.04,2.26-2.61s-.9-2.61-2.26-2.61-2.28,1.05-2.28,2.61.9,2.61,2.28,2.61Z"></path><path class="cls-26" d="M300.17,396.91c0-1.92,1.25-3.29,3.05-3.29s3.04,1.37,3.04,3.29-1.27,3.3-3.04,3.3-3.05-1.37-3.05-3.3ZM303.22,399.52c1.37,0,2.26-1.04,2.26-2.61s-.9-2.61-2.26-2.61-2.28,1.05-2.28,2.61.9,2.61,2.28,2.61Z"></path><path class="cls-26" d="M308.01,393.71h.78v1.1c.38-.84,1.11-1.19,1.88-1.19.91,0,1.57.4,1.89,1.25.4-.83,1.09-1.25,2-1.25,1.55,0,2.13,1.16,2.13,2.68v3.82h-.78v-3.64c0-1.33-.39-2.18-1.52-2.18-1.02,0-1.65.77-1.65,2.26v3.57h-.78v-3.76c0-1.4-.52-2.07-1.5-2.07-1.03,0-1.67.79-1.67,2.26v3.57h-.78v-6.41Z"></path></g><g><path class="cls-30" d="M0,562.22h3.61v.45H.5v2.07h2.7v.45H.5v2.61h-.5v-5.57Z"></path><path class="cls-30" d="M4.34,562.22h.58v.86h-.58v-.86ZM4.4,563.85h.47v3.94h-.47v-3.94Z"></path><path class="cls-30" d="M6.2,563.85h.48v.64c.25-.47.69-.7,1.24-.7.85,0,1.36.5,1.36,1.54v2.46h-.48v-2.28c0-.89-.34-1.3-.99-1.3-.71,0-1.13.48-1.13,1.57v2.01h-.48v-3.94Z"></path><path class="cls-30" d="M12.78,562.22h3.64v.45h-3.15v2.07h2.82v.45h-2.82v2.16h3.15v.45h-3.64v-5.57Z"></path><path class="cls-30" d="M18.58,565.81l-1.46-1.96h.59l1.18,1.63,1.2-1.63h.58l-1.46,1.96,1.47,1.98h-.59l-1.19-1.64-1.19,1.64h-.58l1.46-1.98Z"></path><path class="cls-30" d="M22.1,566.88v-2.65h-.88v-.38h.88v-1.14l.48-.28v1.42h.95v.38h-.95v2.54c0,.44.14.68.5.68.12,0,.28-.02.45-.08v.38c-.2.06-.4.1-.57.1-.52,0-.86-.3-.86-.97Z"></path><path class="cls-30" d="M24.25,565.85c0-1.13.61-2.05,1.73-2.05,1.21,0,1.7.94,1.7,1.81,0,.06,0,.24-.02.34h-2.93c.02.93.52,1.47,1.32,1.47.5,0,.83-.14,1.17-.51l.34.3c-.45.46-.88.65-1.51.65-1.16,0-1.79-.87-1.79-2ZM27.21,565.59s0-.1,0-.15c0-.57-.36-1.24-1.23-1.24-.75,0-1.22.6-1.27,1.39h2.49Z"></path><path class="cls-30" d="M28.82,563.85h.48v.64c.25-.47.69-.7,1.24-.7.85,0,1.36.5,1.36,1.54v2.46h-.48v-2.28c0-.89-.34-1.3-.99-1.3-.71,0-1.13.48-1.13,1.57v2.01h-.48v-3.94Z"></path><path class="cls-30" d="M32.78,566.95l.34-.28c.2.46.66.77,1.26.77.57,0,.95-.27.95-.72,0-.55-.53-.68-1.1-.82-.66-.16-1.23-.38-1.23-1.06,0-.62.53-1.05,1.29-1.05.6,0,1.1.26,1.37.76l-.37.21c-.21-.38-.57-.58-1.01-.58-.48,0-.84.24-.84.62,0,.4.36.54.93.68.67.16,1.43.34,1.43,1.2,0,.71-.56,1.17-1.42,1.17-.79,0-1.35-.4-1.6-.9Z"></path><path class="cls-30" d="M36.88,562.22h.58v.86h-.58v-.86ZM36.93,563.85h.47v3.94h-.47v-3.94Z"></path><path class="cls-30" d="M38.55,565.82c0-1.18.77-2.02,1.88-2.02s1.87.84,1.87,2.02-.78,2.03-1.87,2.03-1.88-.84-1.88-2.03ZM40.43,567.42c.84,0,1.39-.64,1.39-1.6s-.55-1.6-1.39-1.6-1.4.64-1.4,1.6.56,1.6,1.4,1.6Z"></path><path class="cls-30" d="M43.45,563.85h.48v.64c.25-.47.69-.7,1.24-.7.85,0,1.36.5,1.36,1.54v2.46h-.48v-2.28c0-.89-.34-1.3-.99-1.3-.71,0-1.13.48-1.13,1.57v2.01h-.48v-3.94Z"></path><path class="cls-30" d="M47.85,564.03h.58v.86h-.58v-.86ZM47.85,566.94h.58v.85h-.58v-.85Z"></path></g><g><path class="cls-30" d="M33.4,573.11h-1.47v-.39h1.03c.29,0,.44-.1.44-.41v-.49h.48v5.57h-.48v-4.28Z"></path><path class="cls-30" d="M38.91,573.43c0-.73-.43-1.2-1.19-1.2-.83,0-1.26.58-1.27,1.45l-.47-.03c0-1.07.62-1.88,1.76-1.88.99,0,1.64.65,1.64,1.65,0,1.49-1.5,2.65-2.81,3.53h3.04v.45h-3.64v-.44c1.02-.82,2.94-2.02,2.94-3.53Z"></path><path class="cls-30" d="M40.59,574.59c0-1.33.3-2.84,1.72-2.84s1.75,1.39,1.75,2.85-.4,2.84-1.72,2.84c-1.44,0-1.75-1.51-1.75-2.85ZM42.35,576.98c.88,0,1.23-1,1.23-2.36s-.36-2.41-1.26-2.41c-.96,0-1.23,1.1-1.23,2.39s.28,2.37,1.26,2.37Z"></path><path class="cls-30" d="M45,575.87l.47-.08c.14.7.66,1.21,1.4,1.21.85,0,1.41-.68,1.41-1.48s-.52-1.38-1.34-1.38c-.51,0-.95.24-1.26.69l-.5-.15.5-2.86h2.84v.45h-2.45l-.34,1.96c.38-.39.82-.55,1.27-.55,1.04,0,1.78.82,1.78,1.83s-.81,1.94-1.91,1.94c-.94,0-1.7-.64-1.88-1.58Z"></path></g><g><path class="cls-30" d="M33.4,582.71h-1.47v-.39h1.03c.29,0,.44-.1.44-.41v-.49h.48v5.57h-.48v-4.28Z"></path><path class="cls-30" d="M37.96,582.71h-1.47v-.39h1.03c.29,0,.44-.1.44-.41v-.49h.48v5.57h-.48v-4.28Z"></path><path class="cls-30" d="M40.59,584.19c0-1.33.3-2.84,1.72-2.84s1.75,1.39,1.75,2.85-.4,2.84-1.72,2.84c-1.44,0-1.75-1.51-1.75-2.85ZM42.35,586.59c.88,0,1.23-1,1.23-2.36s-.36-2.41-1.26-2.41c-.96,0-1.23,1.1-1.23,2.39s.28,2.37,1.26,2.37Z"></path><path class="cls-30" d="M45,585.47l.47-.08c.14.7.66,1.21,1.4,1.21.85,0,1.41-.68,1.41-1.48s-.52-1.38-1.34-1.38c-.51,0-.95.24-1.26.69l-.5-.15.5-2.86h2.84v.45h-2.45l-.34,1.96c.38-.39.82-.55,1.27-.55,1.04,0,1.78.82,1.78,1.83s-.81,1.94-1.91,1.94c-.94,0-1.7-.64-1.88-1.58Z"></path></g><g><path class="cls-30" d="M33.4,592.31h-1.47v-.39h1.03c.29,0,.44-.1.44-.41v-.49h.48v5.57h-.48v-4.28Z"></path><path class="cls-30" d="M36.04,593.79c0-1.33.3-2.84,1.72-2.84s1.75,1.39,1.75,2.85-.4,2.84-1.72,2.84c-1.44,0-1.75-1.51-1.75-2.85ZM37.79,596.18c.88,0,1.23-1,1.23-2.36s-.36-2.41-1.26-2.41c-.96,0-1.23,1.1-1.23,2.39s.28,2.37,1.26,2.37Z"></path><path class="cls-30" d="M40.59,593.79c0-1.33.3-2.84,1.72-2.84s1.75,1.39,1.75,2.85-.4,2.84-1.72,2.84c-1.44,0-1.75-1.51-1.75-2.85ZM42.35,596.18c.88,0,1.23-1,1.23-2.36s-.36-2.41-1.26-2.41c-.96,0-1.23,1.1-1.23,2.39s.28,2.37,1.26,2.37Z"></path><path class="cls-30" d="M45,595.07l.47-.08c.14.7.66,1.21,1.4,1.21.85,0,1.41-.68,1.41-1.48s-.52-1.38-1.34-1.38c-.51,0-.95.24-1.26.69l-.5-.15.5-2.86h2.84v.45h-2.45l-.34,1.96c.38-.39.82-.55,1.27-.55,1.04,0,1.78.82,1.78,1.83s-.81,1.94-1.91,1.94c-.94,0-1.7-.64-1.88-1.58Z"></path></g><g><path class="cls-30" d="M38.47,603.99c-.23.14-.5.22-.76.22-1.01,0-1.81-.81-1.81-1.81s.84-1.83,1.87-1.83,1.88.8,1.88,1.82c0,.37-.12.7-.29,1l-1.67,2.81h-.54l1.34-2.21ZM37.77,603.77c.76,0,1.39-.59,1.39-1.38s-.62-1.38-1.39-1.38-1.39.6-1.39,1.38.62,1.38,1.39,1.38Z"></path><path class="cls-30" d="M40.6,603.39c0-1.33.3-2.84,1.72-2.84s1.75,1.39,1.75,2.85-.4,2.84-1.72,2.84c-1.44,0-1.75-1.51-1.75-2.85ZM42.35,605.78c.88,0,1.23-1,1.23-2.36s-.36-2.41-1.26-2.41c-.96,0-1.23,1.1-1.23,2.39s.28,2.37,1.26,2.37Z"></path><path class="cls-30" d="M45,604.67l.47-.08c.14.7.66,1.21,1.4,1.21.85,0,1.41-.68,1.41-1.48s-.52-1.38-1.34-1.38c-.51,0-.95.24-1.26.69l-.5-.15.5-2.86h2.84v.45h-2.45l-.34,1.96c.38-.39.82-.55,1.27-.55,1.04,0,1.78.82,1.78,1.83s-.81,1.94-1.91,1.94c-.94,0-1.7-.64-1.88-1.58Z"></path></g><g><path class="cls-30" d="M35.92,614.21c0-.7.41-1.25,1.08-1.45-.46-.18-.76-.62-.76-1.19,0-.9.78-1.41,1.54-1.41.86,0,1.53.57,1.53,1.45,0,.55-.3.97-.77,1.15.67.21,1.07.76,1.07,1.45,0,1.09-.9,1.63-1.84,1.63s-1.85-.55-1.85-1.63ZM37.78,615.4c.72,0,1.36-.41,1.36-1.22,0-.73-.56-1.21-1.36-1.21s-1.38.48-1.38,1.21c0,.82.66,1.22,1.38,1.22ZM37.79,612.62c.61,0,1.05-.4,1.05-.98,0-.61-.42-1.03-1.06-1.03-.56,0-1.06.36-1.06.98s.44,1.02,1.07,1.02Z"></path><path class="cls-30" d="M40.6,612.99c0-1.33.3-2.84,1.72-2.84s1.75,1.39,1.75,2.85-.4,2.84-1.72,2.84c-1.44,0-1.75-1.51-1.75-2.85ZM42.35,615.39c.88,0,1.23-1,1.23-2.36s-.36-2.41-1.26-2.41c-.96,0-1.23,1.1-1.23,2.39s.28,2.37,1.26,2.37Z"></path><path class="cls-30" d="M45,614.27l.47-.08c.14.7.66,1.21,1.4,1.21.85,0,1.41-.68,1.41-1.48s-.52-1.38-1.34-1.38c-.51,0-.95.24-1.26.69l-.5-.15.5-2.86h2.84v.45h-2.45l-.34,1.96c.38-.39.82-.55,1.27-.55,1.04,0,1.78.82,1.78,1.83s-.81,1.94-1.91,1.94c-.94,0-1.7-.64-1.88-1.58Z"></path></g><g><path class="cls-30" d="M39.2,620.27h-3.43v-.45h3.98v.4l-2.75,5.18h-.53l2.74-5.12Z"></path><path class="cls-30" d="M40.6,622.59c0-1.33.3-2.84,1.72-2.84s1.75,1.39,1.75,2.85-.4,2.84-1.72,2.84c-1.44,0-1.75-1.51-1.75-2.85ZM42.35,624.98c.88,0,1.23-1,1.23-2.36s-.36-2.41-1.26-2.41c-.96,0-1.23,1.1-1.23,2.39s.28,2.37,1.26,2.37Z"></path><path class="cls-30" d="M45,623.87l.47-.08c.14.7.66,1.21,1.4,1.21.85,0,1.41-.68,1.41-1.48s-.52-1.38-1.34-1.38c-.51,0-.95.24-1.26.69l-.5-.15.5-2.86h2.84v.45h-2.45l-.34,1.96c.38-.39.82-.55,1.27-.55,1.04,0,1.78.82,1.78,1.83s-.81,1.94-1.91,1.94c-.94,0-1.7-.64-1.88-1.58Z"></path></g><g><path class="cls-30" d="M36.97,631.63c.23-.14.5-.22.76-.22,1.01,0,1.81.81,1.81,1.81s-.84,1.83-1.87,1.83-1.88-.79-1.88-1.82c0-.37.12-.7.29-1l1.67-2.81h.54l-1.34,2.21ZM37.67,634.6c.76,0,1.39-.6,1.39-1.38s-.62-1.38-1.39-1.38-1.39.59-1.39,1.38.62,1.38,1.39,1.38Z"></path><path class="cls-30" d="M40.6,632.19c0-1.33.3-2.84,1.72-2.84s1.75,1.39,1.75,2.85-.4,2.84-1.72,2.84c-1.44,0-1.75-1.51-1.75-2.85ZM42.35,634.59c.88,0,1.23-1,1.23-2.36s-.36-2.41-1.26-2.41c-.96,0-1.23,1.1-1.23,2.39s.28,2.37,1.26,2.37Z"></path><path class="cls-30" d="M45,633.47l.47-.08c.14.7.66,1.21,1.4,1.21.85,0,1.41-.68,1.41-1.48s-.52-1.38-1.34-1.38c-.51,0-.95.24-1.26.69l-.5-.15.5-2.86h2.84v.45h-2.45l-.34,1.96c.38-.39.82-.55,1.27-.55,1.04,0,1.78.82,1.78,1.83s-.81,1.94-1.91,1.94c-.94,0-1.7-.64-1.88-1.58Z"></path></g><g><path class="cls-30" d="M35.89,643.07l.47-.08c.14.7.66,1.21,1.4,1.21.85,0,1.41-.68,1.41-1.48s-.52-1.38-1.34-1.38c-.51,0-.95.24-1.26.69l-.5-.15.5-2.86h2.84v.45h-2.45l-.34,1.96c.38-.39.82-.55,1.27-.55,1.04,0,1.78.82,1.78,1.83s-.81,1.94-1.91,1.94c-.94,0-1.7-.64-1.88-1.58Z"></path><path class="cls-30" d="M40.6,641.79c0-1.33.3-2.84,1.72-2.84s1.75,1.39,1.75,2.85-.4,2.84-1.72,2.84c-1.44,0-1.75-1.51-1.75-2.85ZM42.35,644.18c.88,0,1.23-1,1.23-2.36s-.36-2.41-1.26-2.41c-.96,0-1.23,1.1-1.23,2.39s.28,2.37,1.26,2.37Z"></path><path class="cls-30" d="M45,643.07l.47-.08c.14.7.66,1.21,1.4,1.21.85,0,1.41-.68,1.41-1.48s-.52-1.38-1.34-1.38c-.51,0-.95.24-1.26.69l-.5-.15.5-2.86h2.84v.45h-2.45l-.34,1.96c.38-.39.82-.55,1.27-.55,1.04,0,1.78.82,1.78,1.83s-.81,1.94-1.91,1.94c-.94,0-1.7-.64-1.88-1.58Z"></path></g><polyline class="cls-1" points="57.14 642.67 99.93 642.67 120.11 544.55"></polyline><path class="cls-29" d="M120.93,540.59l-3.16,5.14s2.35-1.19,4.04.83l-.88-5.97Z"></path><polyline class="cls-1" points="57.14 574.91 68.28 574.91 79.57 543.17"></polyline><path class="cls-29" d="M80.93,539.36l-3.85,4.65s2.49-.85,3.89,1.38l-.04-6.04Z"></path><polyline class="cls-1" points="57.14 584.59 69.99 584.59 82.43 543.23"></polyline><path class="cls-29" d="M83.59,539.36l-3.61,4.84s2.45-.97,3.95,1.19l-.34-6.03Z"></path><polyline class="cls-1" points="57.14 594.27 71.15 594.27 84.89 543.28"></polyline><path class="cls-29" d="M85.94,539.38l-3.47,4.94s2.42-1.04,3.99,1.07l-.52-6.01Z"></path><polyline class="cls-1" points="57.14 603.95 73.26 603.95 88.31 543.46"></polyline><path class="cls-29" d="M89.29,539.54l-3.37,5.01s2.4-1.09,4.01,1l-.63-6Z"></path><polyline class="cls-1" points="57.14 613.63 77.5 613.63 94 543.52"></polyline><path class="cls-29" d="M94.93,539.59l-3.31,5.05s2.38-1.12,4.02.95l-.71-5.99Z"></path><polyline class="cls-1" points="57.14 623.31 83.52 623.31 101.05 544.53"></polyline><path class="cls-29" d="M101.93,540.59l-3.25,5.09s2.37-1.15,4.03.9l-.78-5.99Z"></path><polyline class="cls-1" points="57.14 632.99 89.93 632.99 109.07 544.54"></polyline><path class="cls-29" d="M109.93,540.59l-3.22,5.11s2.36-1.16,4.04.87l-.82-5.98Z"></path></g></g></svg> 