<?xml version="1.0" encoding="UTF-8"?> <svg xmlns="http://www.w3.org/2000/svg" id="Layer_2" data-name="Layer 2" viewBox="0 0 628.62 650.64"><defs><style> .cls-1 { stroke-dasharray: .94 .94; } .cls-1, .cls-2, .cls-3, .cls-4, .cls-5, .cls-6, .cls-7, .cls-8, .cls-9, .cls-10, .cls-11, .cls-12, .cls-13, .cls-14, .cls-15, .cls-16, .cls-17, .cls-18 { fill: none; } .cls-1, .cls-3, .cls-4, .cls-5, .cls-6, .cls-7, .cls-8, .cls-9, .cls-10, .cls-11, .cls-12, .cls-13, .cls-16, .cls-17, .cls-18 { stroke-linecap: round; stroke-linejoin: round; } .cls-1, .cls-4, .cls-5, .cls-6, .cls-7, .cls-9, .cls-10, .cls-11, .cls-16 { stroke: #55453d; stroke-width: .15px; } .cls-2 { stroke: #afa49f; } .cls-2, .cls-3, .cls-8, .cls-13, .cls-15, .cls-17 { stroke-width: .25px; } .cls-2, .cls-14, .cls-15 { stroke-miterlimit: 10; } .cls-3 { stroke-dasharray: 1.54 1.54; } .cls-3, .cls-8, .cls-13 { stroke: #75655e; } .cls-4 { stroke-dasharray: 1 1; } .cls-19 { fill: #3a2a22; } .cls-5 { stroke-dasharray: .92 .92; } .cls-6 { stroke-dasharray: 1.01 1.01; } .cls-7 { stroke-dasharray: 1.01 1.01; } .cls-8 { stroke-dasharray: 6.08 5.07; } .cls-10 { stroke-dasharray: .95 .95; } .cls-11 { stroke-dasharray: .97 .97; } .cls-20 { fill: #fff; } .cls-12, .cls-14 { stroke-width: .75px; } .cls-12, .cls-14, .cls-17, .cls-18 { stroke: #3a2a22; } .cls-21 { fill: #bc8ebc; } .cls-15 { stroke: #bc8ebc; } .cls-22 { fill: #afa49f; } .cls-16 { stroke-dasharray: .98 .98; } .cls-18 { stroke-width: .35px; } .cls-23 { fill: #75655e; } </style></defs><g id="Layer_1-2" data-name="Layer 1"><g><path class="cls-20" d="M20.67,466.72h46.55v-133.75h24.58V7.28h0c9.84,1.62,23.62,3.93,39.51,6.64,38.84,6.63,90.24,15.68,127.29,23.24,64.51,12.25,203.13,46.58,203.13,46.58l-1.71,7.06,168.47,46.98-44.43,121.39h-15.05l-44.13,386.02H9.3v-95.26h11.37v-83.21Z"></path><line class="cls-9" x1="461.73" y1="83.74" x2="462.22" y2="83.87"></line><line class="cls-7" x1="463.19" y1="84.13" x2="527.04" y2="101.15"></line><line class="cls-9" x1="527.53" y1="101.28" x2="528.01" y2="101.41"></line><line class="cls-9" x1="473.28" y1="94.49" x2="473.4" y2="94.01"></line><line class="cls-5" x1="473.62" y1="93.12" x2="474.8" y2="88.21"></line><line class="cls-9" x1="474.91" y1="87.77" x2="475.03" y2="87.28"></line><line class="cls-9" x1="483.68" y1="97.39" x2="483.8" y2="96.91"></line><line class="cls-1" x1="484.02" y1="96" x2="485.22" y2="91"></line><line class="cls-9" x1="485.33" y1="90.55" x2="485.45" y2="90.06"></line><line class="cls-9" x1="494.85" y1="100.51" x2="494.97" y2="100.02"></line><line class="cls-10" x1="495.19" y1="99.1" x2="496.42" y2="94"></line><line class="cls-9" x1="496.54" y1="93.54" x2="496.65" y2="93.05"></line><line class="cls-9" x1="504.31" y1="103.15" x2="504.43" y2="102.66"></line><line class="cls-11" x1="504.65" y1="101.72" x2="505.91" y2="96.54"></line><line class="cls-9" x1="506.02" y1="96.06" x2="506.14" y2="95.58"></line><line class="cls-9" x1="512.47" y1="105.42" x2="512.59" y2="104.94"></line><line class="cls-16" x1="512.82" y1="103.98" x2="514.09" y2="98.72"></line><line class="cls-9" x1="514.2" y1="98.25" x2="514.32" y2="97.76"></line><line class="cls-9" x1="520.14" y1="107.56" x2="520.25" y2="107.07"></line><line class="cls-4" x1="520.49" y1="106.11" x2="521.77" y2="100.78"></line><line class="cls-9" x1="521.89" y1="100.3" x2="522.01" y2="99.81"></line><line class="cls-9" x1="526.12" y1="109.23" x2="526.24" y2="108.74"></line><line class="cls-6" x1="526.47" y1="107.76" x2="527.78" y2="102.38"></line><line class="cls-9" x1="527.89" y1="101.9" x2="528.01" y2="101.41"></line><polyline class="cls-18" points="452.11 93.36 622.48 140.87 580.86 254.58 569.54 254.58"></polyline><polyline class="cls-18" points="569.73 252.92 579.7 252.92 620.31 141.98 452.11 95.08"></polyline><g><path class="cls-9" d="M395.92,480.73c0,22.93-18.45,39-41.21,39"></path><path class="cls-9" d="M212.4,276.47c0-22.93,18.45-39,41.21-39"></path><path class="cls-9" d="M468.13,211.71c22.93,0,39,18.45,39,41.21"></path><path class="cls-9" d="M76.84,540.26c0-26.19-21.23-44.55-47.43-44.55"></path></g><line class="cls-9" x1="29.41" y1="540.26" x2="29.41" y2="495.71"></line><line class="cls-9" x1="20.67" y1="543.21" x2="20.67" y2="495.71"></line><g><path class="cls-9" d="M149.35,577.89c22.93,0,39-18.45,39-41.21"></path><path class="cls-9" d="M227.37,329.22c-22.93,0-39-18.45-39-41.21"></path></g><rect class="cls-18" x="50.48" y="555.22" width="43.52" height="2.21"></rect><polyline class="cls-18" points="72.24 555.22 72.24 553 115.76 553 115.76 555.22 94 555.22"></polyline><rect class="cls-18" x="109.93" y="473.61" width="39.52" height="2.21"></rect><rect class="cls-18" x="354.71" y="478.52" width="41.21" height="2.21"></rect><rect class="cls-18" x="212.4" y="276.47" width="41.21" height="2.21"></rect><rect class="cls-18" x="465.91" y="211.71" width="2.21" height="41.21"></rect><rect class="cls-18" x="349.71" y="567.85" width="2.21" height="41.21"></rect><rect class="cls-18" x="29.41" y="540.26" width="47.43" height="2.88"></rect><rect class="cls-18" x="161.68" y="473.13" width="69.64" height="2.69"></rect><rect class="cls-18" x="178.52" y="238.38" width="2.5" height="41.21"></rect><line class="cls-18" x1="196.49" y1="473.13" x2="196.49" y2="475.83"></line><rect class="cls-18" x="227.37" y="288.01" width="2.21" height="41.21"></rect><rect class="cls-18" x="147.14" y="536.69" width="2.21" height="41.21"></rect><polyline class="cls-13" points="349.22 299.44 349.22 298.69 348.47 298.69"></polyline><line class="cls-3" x1="346.94" y1="298.69" x2="323.13" y2="298.69"></line><polyline class="cls-13" points="322.36 298.69 321.61 298.69 321.61 299.44"></polyline><line class="cls-3" x1="321.61" y1="300.97" x2="321.61" y2="324.78"></line><polyline class="cls-13" points="321.61 325.55 321.61 326.3 322.36 326.3"></polyline><line class="cls-3" x1="323.9" y1="326.3" x2="347.71" y2="326.3"></line><polyline class="cls-13" points="348.47 326.3 349.22 326.3 349.22 325.55"></polyline><line class="cls-3" x1="349.22" y1="324.01" x2="349.22" y2="300.21"></line><polyline class="cls-13" points="349.22 382.13 349.22 381.38 348.47 381.38"></polyline><line class="cls-3" x1="346.94" y1="381.38" x2="323.13" y2="381.38"></line><polyline class="cls-13" points="322.36 381.38 321.61 381.38 321.61 382.13"></polyline><line class="cls-3" x1="321.61" y1="383.67" x2="321.61" y2="407.47"></line><polyline class="cls-13" points="321.61 408.24 321.61 408.99 322.36 408.99"></polyline><line class="cls-3" x1="323.9" y1="408.99" x2="347.71" y2="408.99"></line><polyline class="cls-13" points="348.47 408.99 349.22 408.99 349.22 408.24"></polyline><line class="cls-3" x1="349.22" y1="406.71" x2="349.22" y2="382.9"></line><line class="cls-13" x1="257.59" y1="324.16" x2="257.59" y2="327.16"></line><line class="cls-8" x1="257.59" y1="332.23" x2="257.59" y2="418.87"></line><line class="cls-13" x1="257.59" y1="421.4" x2="257.59" y2="424.4"></line><line class="cls-18" x1="116.25" y1="341.72" x2="116.25" y2="417.08"></line><line class="cls-18" x1="116.25" y1="341.72" x2="116.25" y2="417.9"></line><line class="cls-18" x1="114.96" y1="341.72" x2="114.97" y2="417.9"></line><line class="cls-18" x1="114.96" y1="346.4" x2="116.25" y2="346.4"></line><line class="cls-18" x1="114.96" y1="384.4" x2="116.25" y2="384.4"></line><line class="cls-18" x1="229.71" y1="615.49" x2="229.71" y2="538.69"></line><line class="cls-18" x1="245.57" y1="543.68" x2="248.78" y2="543.68"></line><path class="cls-18" d="M249.64,543.68h11.6c1.38,0,2.5,1.12,2.5,2.5v61.83c0,1.38-1.12,2.5-2.5,2.5h-24.04c-1.38,0-2.5-1.12-2.5-2.5v-61.83c0-1.38,1.12-2.5,2.5-2.5h8.37"></path><polyline class="cls-18" points="188.35 628.25 188.35 603.23 143.93 603.23"></polyline><line class="cls-18" x1="269.5" y1="466.72" x2="269.49" y2="288.01"></line><line class="cls-18" x1="269.5" y1="324.16" x2="242.07" y2="324.16"></line><line class="cls-18" x1="269.5" y1="424.4" x2="242.07" y2="424.4"></line><line class="cls-18" x1="267" y1="324.16" x2="267" y2="288.01"></line><line class="cls-18" x1="267" y1="466.72" x2="267" y2="425.14"></line><rect class="cls-18" x="321.61" y="295.16" width="48.28" height="117.32"></rect><rect class="cls-18" x="195.12" y="429.84" width="30.61" height="38.03"></rect><g><rect class="cls-18" x="341.78" y="361.27" width="9.78" height="1.74" rx=".59" ry=".59"></rect><circle class="cls-18" cx="334.98" cy="362.14" r=".9"></circle></g><polyline class="cls-18" points="350.24 363.01 350.24 365.43 348.69 365.43 348.69 363.01"></polyline><line class="cls-18" x1="348.69" y1="364.57" x2="350.24" y2="364.57"></line><polyline class="cls-18" points="346.38 363.01 346.38 375.06 324.62 375.06 324.62 349.21 346.38 349.21 346.38 361.27"></polyline><polyline class="cls-18" points="345.29 361.27 345.29 350.29 325.7 350.29 325.7 373.98 345.29 373.98 345.29 363.01"></polyline><g><path class="cls-18" d="M97.53,353.6c0,.67-.54,1.21-1.21,1.21s-1.21-.54-1.21-1.21.54-1.21,1.21-1.21,1.21.54,1.21,1.21Z"></path><path class="cls-18" d="M101.5,353.6c0,2.86-2.32,5.18-5.18,5.18s-5.18-2.32-5.18-5.18,2.32-5.18,5.18-5.18,5.18,2.32,5.18,5.18Z"></path></g><polyline class="cls-18" points="234.58 392.88 157.25 392.89 157.25 418.03"></polyline><path class="cls-18" d="M177.99,409.94h-9.87c-.4,0-.72-.32-.72-.72v-10.9c0-.4.32-.72.72-.72h20.82c.4,0,.72.32.72.72v10.9c0,.4-.32.72-.72.72h-9.48"></path><rect class="cls-18" x="177.99" y="407.51" width="1.47" height="5.89"></rect><g><circle class="cls-17" cx="178.73" cy="403.77" r=".84"></circle><path class="cls-18" d="M212.75,409.94h-9.87c-.4,0-.72-.32-.72-.72v-10.9c0-.4.32-.72.72-.72h20.82c.4,0,.72.32.72.72v10.9c0,.4-.32.72-.72.72h-9.48"></path></g><rect class="cls-18" x="212.75" y="407.51" width="1.47" height="5.89"></rect><circle class="cls-17" cx="213.48" cy="403.77" r=".84"></circle><line class="cls-18" x1="75.97" y1="404.51" x2="114.97" y2="404.51"></line><g><rect class="cls-18" x="127.95" y="410.45" width="17.6" height="7.45" rx="1.08" ry="1.08"></rect><path class="cls-18" d="M141.21,406.3c.28,0,.54-.11.73-.32,1.88-2.09,3.09-5.3,3.09-8.9,0-6.31-3.71-11.42-8.28-11.42s-8.28,5.11-8.28,11.42c0,3.6,1.2,6.8,3.08,8.9.19.21.46.32.73.32h8.92Z"></path></g><line class="cls-18" x1="145.03" y1="397.08" x2="145.03" y2="410.6"></line><line class="cls-18" x1="128.48" y1="397.08" x2="128.48" y2="410.6"></line><g><path class="cls-18" d="M201.31,620.79h15.44c.6,0,1.08.48,1.08,1.08v5.29c0,.6-.48,1.08-1.08,1.08h-15.44c-.6,0-1.08-.48-1.08-1.08v-5.29c0-.6.48-1.08,1.08-1.08Z"></path><path class="cls-18" d="M213.49,616.65c.28,0,.54-.11.73-.32,1.88-2.09,3.09-5.3,3.09-8.9,0-6.31-3.71-11.42-8.28-11.42s-8.28,5.11-8.28,11.42c0,3.6,1.2,6.8,3.08,8.9.19.21.46.32.73.32h8.92Z"></path></g><line class="cls-18" x1="217.3" y1="607.43" x2="217.3" y2="620.95"></line><line class="cls-18" x1="200.75" y1="607.43" x2="200.75" y2="620.95"></line><g><path class="cls-18" d="M248.78,539.65v10.86c0,.24.19.43.43.43s.43-.19.43-.43v-10.81"></path><path class="cls-17" d="M249.64,549.43c.46.17.79.61.79,1.14,0,.67-.54,1.21-1.21,1.21s-1.21-.54-1.21-1.21c0-.51.32-.95.77-1.13"></path><path class="cls-18" d="M249.64,545.4c2.66.21,4.76,2.45,4.76,5.17,0,2.86-2.32,5.18-5.18,5.18s-5.18-2.32-5.18-5.18c0-2.71,2.09-4.94,4.74-5.16"></path></g><rect class="cls-18" x="246.68" y="538.69" width="5.08" height=".97"></rect><path class="cls-18" d="M170.34,620.18h-9.87c-.4,0-.72-.32-.72-.72v-10.9c0-.4.32-.72.72-.72h20.82c.4,0,.72.32.72.72v10.9c0,.4-.32.72-.72.72h-9.48"></path><rect class="cls-18" x="170.35" y="617.75" width="1.47" height="5.89"></rect><circle class="cls-17" cx="171.08" cy="614.01" r=".84"></circle><line class="cls-18" x1="273.72" y1="531.69" x2="349.71" y2="531.69"></line><polyline class="cls-18" points="161.68 469.89 189.5 469.89 189.5 442.71"></polyline><rect class="cls-18" x="243.94" y="356.1" width="24.28" height="36.98"></rect><rect class="cls-18" x="245.02" y="357.18" width="22.12" height="34.82"></rect><path class="cls-18" d="M266.38,374.59c0,.71-.57,1.28-1.28,1.28s-1.28-.57-1.28-1.28.57-1.28,1.28-1.28c.71,0,1.28.57,1.28,1.28Z"></path><line class="cls-18" x1="267.14" y1="391.99" x2="268.22" y2="393.07"></line><line class="cls-18" x1="267.13" y1="357.18" x2="268.21" y2="356.1"></line><line class="cls-18" x1="245.01" y1="357.18" x2="243.93" y2="356.1"></line><line class="cls-18" x1="245.02" y1="392" x2="243.94" y2="393.08"></line><polygon class="cls-18" points="265.1 373.53 264.05 374.59 265.1 375.64 266.16 374.59 265.1 373.53"></polygon><line class="cls-18" x1="264.05" y1="374.59" x2="266.16" y2="374.59"></line><g><path class="cls-17" d="M324.07,622.9c.03,1.51.06,3.03.13,4.57.04.8.09,1.6.13,2.36.03.57.07,1.11.16,1.78.09.65.25,1.42-.23,1.73-.11.07-.25.12-.38.13-.77.06-.9-1.18-.97-2.24-.15-2.35.04-3.74.16-5.44.06-.9.1-1.89.14-2.89-.04-.99-.08-1.98-.14-2.89-.11-1.7-.3-3.09-.16-5.44.07-1.05.2-2.3.97-2.24.13,0,.27.06.38.13.48.31.32,1.08.23,1.73-.1.67-.13,1.21-.16,1.78-.04.75-.09,1.56-.13,2.35-.07,1.55-.1,3.06-.13,4.57Z"></path><path class="cls-17" d="M319.37,622.9c.03,1.51.06,3.03.13,4.57.04.8.09,1.6.13,2.36.03.57.07,1.11.16,1.78.09.65.25,1.42-.23,1.73-.11.07-.25.12-.38.13-.77.06-.9-1.18-.97-2.24-.15-2.35.04-3.74.16-5.44.06-.9.1-1.89.14-2.89-.04-.99-.08-1.98-.14-2.89-.11-1.7-.3-3.09-.16-5.44.07-1.05.2-2.3.97-2.24.13,0,.27.06.38.13.48.31.32,1.08.23,1.73-.1.67-.13,1.21-.16,1.78-.04.75-.09,1.56-.13,2.35-.07,1.55-.1,3.06-.13,4.57Z"></path><path class="cls-17" d="M314.68,622.9c.03,1.51.06,3.03.13,4.57.04.8.09,1.6.13,2.36.03.57.07,1.11.16,1.78.09.65.25,1.42-.23,1.73-.11.07-.25.12-.38.13-.77.06-.9-1.18-.97-2.24-.15-2.35.04-3.74.16-5.44.06-.9.1-1.89.14-2.89-.04-.99-.08-1.98-.14-2.89-.11-1.7-.3-3.09-.16-5.44.07-1.05.2-2.3.97-2.24.13,0,.27.06.38.13.48.31.32,1.08.23,1.73-.1.67-.13,1.21-.16,1.78-.05.75-.09,1.56-.13,2.35-.07,1.55-.1,3.06-.13,4.57Z"></path><path class="cls-17" d="M288.51,598.09c-1.51.03-3.03.06-4.57.13-.8.04-1.6.09-2.35.13-.57.03-1.11.07-1.78.16-.65.09-1.42.25-1.73-.23-.07-.11-.12-.25-.13-.38-.06-.77,1.18-.9,2.24-.97,2.35-.15,3.74.04,5.44.16.9.06,1.9.1,2.89.14.99-.04,1.98-.08,2.89-.14,1.7-.11,3.09-.3,5.44-.16,1.05.07,2.3.2,2.24.97-.01.13-.06.27-.13.38-.31.48-1.08.33-1.73.23-.67-.1-1.21-.13-1.78-.16-.75-.04-1.56-.09-2.35-.13-1.55-.07-3.06-.1-4.57-.13Z"></path><path class="cls-17" d="M288.51,593.4c-1.51.03-3.03.06-4.57.13-.8.04-1.6.09-2.35.13-.57.03-1.11.07-1.78.16-.65.09-1.42.25-1.73-.23-.07-.11-.12-.25-.13-.38-.06-.77,1.18-.9,2.24-.97,2.35-.15,3.74.04,5.44.16.9.06,1.9.1,2.89.14.99-.04,1.98-.08,2.89-.14,1.7-.11,3.09-.3,5.44-.16,1.05.07,2.3.2,2.24.97-.01.13-.06.27-.13.38-.31.48-1.08.33-1.73.23-.67-.1-1.21-.13-1.78-.16-.75-.04-1.56-.09-2.35-.13-1.55-.07-3.06-.1-4.57-.13Z"></path><path class="cls-17" d="M288.51,588.7c-1.51.03-3.03.06-4.57.13-.8.04-1.6.09-2.35.13-.57.03-1.11.07-1.78.16-.65.09-1.42.25-1.73-.23-.07-.11-.12-.25-.13-.38-.06-.77,1.18-.9,2.24-.97,2.35-.15,3.74.04,5.44.16.9.06,1.9.1,2.89.14.99-.04,1.98-.08,2.89-.14,1.7-.11,3.09-.3,5.44-.16,1.05.07,2.3.2,2.24.97-.01.13-.06.27-.13.38-.31.48-1.08.33-1.73.23-.67-.1-1.21-.13-1.78-.16-.75-.04-1.56-.09-2.35-.13-1.55-.07-3.06-.1-4.57-.13Z"></path><path class="cls-17" d="M133.9,449c.03,1.51.06,3.03.13,4.57.04.8.09,1.6.13,2.35.03.57.07,1.11.16,1.78.09.65.25,1.42-.23,1.73-.11.07-.25.12-.38.13-.77.06-.9-1.18-.97-2.24-.15-2.35.04-3.74.16-5.44.06-.9.1-1.9.14-2.89-.04-.99-.08-1.98-.14-2.89-.12-1.7-.3-3.09-.16-5.44.07-1.05.2-2.3.97-2.24.13.01.27.06.38.13.48.3.33,1.08.23,1.73-.1.67-.13,1.21-.16,1.78-.04.75-.09,1.56-.13,2.36-.07,1.54-.1,3.06-.13,4.57Z"></path><path class="cls-17" d="M129.2,449c.03,1.51.06,3.03.13,4.57.04.8.09,1.6.13,2.35.03.57.07,1.11.16,1.78.09.65.25,1.42-.23,1.73-.11.07-.25.12-.38.13-.77.06-.9-1.18-.97-2.24-.15-2.35.04-3.74.16-5.44.06-.9.1-1.9.14-2.89-.04-.99-.08-1.98-.14-2.89-.12-1.7-.3-3.09-.16-5.44.07-1.05.2-2.3.97-2.24.13.01.27.06.38.13.48.3.33,1.08.23,1.73-.1.67-.13,1.21-.16,1.78-.04.75-.09,1.56-.13,2.36-.07,1.54-.1,3.06-.13,4.57Z"></path><path class="cls-17" d="M124.51,449c.03,1.51.06,3.03.13,4.57.04.8.09,1.6.13,2.35.03.57.07,1.11.16,1.78.09.65.25,1.42-.23,1.73-.11.07-.25.12-.38.13-.77.06-.9-1.18-.97-2.24-.15-2.35.04-3.74.16-5.44.06-.9.1-1.9.14-2.89-.04-.99-.08-1.98-.14-2.89-.12-1.7-.3-3.09-.16-5.44.07-1.05.2-2.3.97-2.24.13.01.27.06.38.13.48.3.32,1.08.23,1.73-.1.67-.13,1.21-.16,1.78-.04.75-.09,1.56-.13,2.36-.07,1.54-.1,3.06-.13,4.57Z"></path></g><polyline class="cls-17" points="288.51 563.4 288.51 622.71 349.55 622.71"></polyline><line class="cls-17" x1="107.17" y1="449" x2="152.55" y2="449"></line><polyline class="cls-17" points="538.58 459.74 561.36 260.42 561.35 260.42 509.34 260.42"></polyline><line class="cls-17" x1="517.8" y1="641.44" x2="534.66" y2="493.96"></line><g><path class="cls-17" d="M443.72,189.64v-102.6c-28.5-6.93-122.9-29.67-178.67-40.62"></path><path class="cls-17" d="M129.77,21.65c30.31,5.17,68.62,11.87,101.81,18.19"></path></g><polyline class="cls-17" points="452.11 88.59 628.5 137.78 584.07 259.17 569.02 259.17"></polyline><line class="cls-12" x1="509.34" y1="255.42" x2="509.34" y2="252.92"></line><line class="cls-12" x1="452.11" y1="191.85" x2="452.11" y2="81.17"></line><line class="cls-12" x1="449.61" y1="189.64" x2="449.61" y2="83.17"></line><path class="cls-12" d="M452.11,81.17c-48.06-11.63-145.92-34.98-193.51-44.02-37.05-7.56-88.45-16.61-127.29-23.24,0,0-33.91-5.38-39.51-5.98v2.41c5.6.6,39.03,5.98,39.03,5.98,38.84,6.63,90.72,15.77,127.77,23.33h0c45.62,8.66,141.2,31.47,191.01,43.51"></path><line class="cls-12" x1="449.61" y1="83.17" x2="452.11" y2="81.17"></line><polyline class="cls-12" points="452.11 83.61 461.18 86.03 461.73 83.74 452.11 81.17"></polyline><polyline class="cls-12" points="445.52 647.73 522.08 647.73 566.93 255.42 566.94 255.42 509.34 255.42 509.34 252.92"></polyline><polyline class="cls-12" points="445.52 645.19 445.52 650.27 524.31 650.27 569.73 252.92 509.34 252.92"></polyline><rect class="cls-12" x="547.77" y="388.97" width="2.21" height="4.97" transform="translate(97.61 892.31) rotate(-83.48)"></rect><rect class="cls-12" x="555.62" y="320.34" width="2.21" height="4.97" transform="translate(172.75 839.28) rotate(-83.48)"></rect><rect class="cls-12" x="539.93" y="457.6" width="2.21" height="4.96" transform="translate(22.47 945.35) rotate(-83.48)"></rect><rect class="cls-12" x="536.01" y="491.9" width="2.21" height="4.96" transform="translate(-15.08 971.86) rotate(-83.48)"></rect><rect class="cls-12" x="532.1" y="526.08" width="2.21" height="4.97" transform="translate(-52.5 998.28) rotate(-83.48)"></rect><rect class="cls-12" x="524.27" y="594.55" width="2.21" height="4.96" transform="translate(-127.47 1051.19) rotate(-83.48)"></rect><rect class="cls-12" x="520.36" y="628.73" width="2.21" height="4.96" transform="translate(-164.89 1077.61) rotate(-83.48)"></rect><polygon class="cls-12" points="460.03 90.8 457.9 90.2 459.04 85.46 461.18 86.03 460.03 90.8"></polygon><rect class="cls-12" x="397.76" y="72.87" width="5.13" height="2.21" transform="translate(234.48 445.77) rotate(-76.43)"></rect><polygon class="cls-12" points="333.64 61.14 331.49 60.65 332.71 55.59 334.82 56.07 333.64 61.14"></polygon><polygon class="cls-12" points="266.23 46.65 264.06 46.22 265.18 40.94 267.31 41.36 266.23 46.65"></polygon><polygon class="cls-12" points="232.6 40.05 230.43 39.62 231.55 34.34 233.68 34.76 232.6 40.05"></polygon><polygon class="cls-12" points="198.79 33.76 196.62 33.37 197.55 28.04 199.68 28.44 198.79 33.76"></polygon><rect class="cls-12" x="443.72" y="189.64" width="5.89" height="2.21"></rect><rect class="cls-12" x="443.72" y="138.87" width="5.89" height="2.21"></rect><rect class="cls-12" x="462.16" y="252.92" width="3.76" height="7.5"></rect><polygon class="cls-12" points="447.64 82.69 442.35 86.7 443.72 87.04 443.72 88.63 449.61 84.17 449.61 83.17 447.64 82.69"></polygon><polygon class="cls-12" points="517.89 640.65 522.32 645.63 522.08 647.73 520.02 647.68 515.4 642.49 517.69 642.48 517.89 640.65"></polygon><rect class="cls-12" x="452.85" y="642.49" width="2.27" height="5.24"></rect><rect class="cls-12" x="507.13" y="252.92" width="2.21" height="7.5"></rect><polygon class="cls-12" points="561.17 262.12 566.7 257.47 566.94 255.42 565.47 255.42 559.53 260.42 561.37 260.42 561.17 262.12"></polygon><polygon class="cls-19" points="530.92 469.68 349.71 469.68 349.71 478.52 354.71 478.52 354.71 474.67 423.19 474.67 423.19 490.95 528.49 490.95 528.23 493.22 534.66 493.96 538.58 459.74 532.14 459.01 530.92 469.68"></polygon><polygon class="cls-14" points="530.92 469.68 349.71 469.68 349.71 478.52 354.71 478.52 354.71 474.67 423.19 474.67 423.19 490.95 528.49 490.95 528.23 493.22 534.66 493.96 538.58 459.74 532.14 459.01 530.92 469.68"></polygon><polygon class="cls-19" points="265.05 46.41 264.19 52.54 258.6 51.45 258.6 237.47 253.61 237.47 253.61 50.33 230.34 45.82 231.58 39.85 265.05 46.41"></polygon><polygon class="cls-14" points="265.05 46.41 264.19 52.54 258.6 51.45 258.6 237.47 253.61 237.47 253.61 50.33 230.34 45.82 231.58 39.85 265.05 46.41"></polygon><rect class="cls-19" x="438.1" y="191.85" width="24.06" height="74.77"></rect><rect class="cls-14" x="438.1" y="191.85" width="24.06" height="74.77"></rect><g><path class="cls-19" d="M91.81,10.35v322.62h-24.58v133.75H20.67v28.99h8.74v-19.89h80.52v-5.94h-2.76v-35.87h45.38v35.87h-3.1v5.94h12.22v-5.94h-2.67v-27.18h30.49v-16.44h45.08s0,43.62,0,43.62h-3.27v5.94h38.18v-9.11h-27.42v-178.71s27.42,0,27.42,0v-4.99h-10.89v-4.34h-4.99v4.34h-13.93s-10.1,0-10.1,0v4.99s5,0,5,0v129.88s-158.61,0-158.61,0v-76.19h40.28v-2.5h67.27v-51.2h4.99v-4.99h-4.99v-3.43h-4.99v53.38h-77.97s0-100.12,0-100.12h77.97v5.53h4.99v-10.52h-82.96V22.36h.31l27.76,5.05s1.44-7.21,2.21-11.09"></path><path class="cls-14" d="M91.81,10.35v322.62h-24.58v133.75H20.67v28.99h8.74v-19.89h80.52v-5.94h-2.76v-35.87h45.38v35.87h-3.1v5.94h12.22v-5.94h-2.67v-27.18h30.49v-16.44h45.08s0,43.62,0,43.62h-3.27v5.94h38.18v-9.11h-27.42v-178.71s27.42,0,27.42,0v-4.99h-10.89v-4.34h-4.99v4.34h-13.93s-10.1,0-10.1,0v4.99s5,0,5,0v129.88s-158.61,0-158.61,0v-76.19h40.28v-2.5h67.27v-51.2h4.99v-4.99h-4.99v-3.43h-4.99v53.38h-77.97s0-100.12,0-100.12h77.97v5.53h4.99v-10.52h-82.96V22.36h.31l27.76,5.05s1.44-7.21,2.21-11.09"></path></g><polygon class="cls-19" points="445.52 642.49 517.69 642.49 517.69 642.48 518.88 631.21 512.8 630.57 512.24 636.44 354.71 636.44 354.71 609.06 349.71 609.06 349.71 636.44 273.72 636.44 273.72 563.24 349.71 563.24 349.71 567.85 354.71 567.85 354.71 519.73 349.71 519.73 349.71 558.24 273.72 558.24 273.72 531.69 188.35 531.69 188.35 536.68 229.71 536.68 229.71 538.69 268.73 538.69 268.73 615.49 229.71 615.49 229.71 628.25 143.93 628.25 143.93 536.69 147.14 536.69 147.14 531.69 138.94 531.69 138.94 553 133.42 553 133.42 557.43 138.94 557.43 138.94 636.44 18.04 636.44 18.04 557.43 50.48 557.43 50.48 553.01 29.41 553.01 29.41 543.21 20.67 543.21 20.67 549.93 9.3 549.93 9.3 645.19 445.52 645.19 445.52 642.49"></polygon><polygon class="cls-14" points="445.52 642.49 517.69 642.49 517.69 642.48 518.88 631.21 512.8 630.57 512.24 636.44 354.71 636.44 354.71 609.06 349.71 609.06 349.71 636.44 273.72 636.44 273.72 563.24 349.71 563.24 349.71 567.85 354.71 567.85 354.71 519.73 349.71 519.73 349.71 558.24 273.72 558.24 273.72 531.69 188.35 531.69 188.35 536.68 229.71 536.68 229.71 538.69 268.73 538.69 268.73 615.49 229.71 615.49 229.71 628.25 143.93 628.25 143.93 536.69 147.14 536.69 147.14 531.69 138.94 531.69 138.94 553 133.42 553 133.42 557.43 138.94 557.43 138.94 636.44 18.04 636.44 18.04 557.43 50.48 557.43 50.48 553.01 29.41 553.01 29.41 543.21 20.67 543.21 20.67 549.93 9.3 549.93 9.3 645.19 445.52 645.19 445.52 642.49"></polygon><g><path class="cls-21" d="M8.22,519.32c.08.02.14.07.14.14s-.06.13-.14.14c-3.3.56-4.94,2.74-4.94,6.02v3.83c0,1.16-1.01,1.98-2.66,2.2-.33.05-.61-.23-.45-.47.31-.46.47-1.06.47-1.78v-3.48c0-2.95,1.67-5.22,4.98-6.17.37-.11.37-.5,0-.61-3.31-.96-4.98-3.22-4.98-6.18v-3.48c0-.72-.16-1.32-.47-1.78-.16-.23.12-.51.45-.47,1.64.22,2.66,1.05,2.66,2.2v3.84c0,3.29,1.64,5.46,4.95,6.02h0Z"></path><path class="cls-15" d="M8.22,519.32c.08.02.14.07.14.14s-.06.13-.14.14c-3.3.56-4.94,2.74-4.94,6.02v3.83c0,1.16-1.01,1.98-2.66,2.2-.33.05-.61-.23-.45-.47.31-.46.47-1.06.47-1.78v-3.48c0-2.95,1.67-5.22,4.98-6.17.37-.11.37-.5,0-.61-3.31-.96-4.98-3.22-4.98-6.18v-3.48c0-.72-.16-1.32-.47-1.78-.16-.23.12-.51.45-.47,1.64.22,2.66,1.05,2.66,2.2v3.84c0,3.29,1.64,5.46,4.95,6.02h0Z"></path></g><g><path class="cls-19" d="M127.43,136.76h2.52c1.9,0,2.97.89,2.97,2.53s-1.07,2.54-2.97,2.54h-1.72v3.99h-.8v-9.06ZM129.88,141.11c1.41,0,2.24-.61,2.24-1.81s-.81-1.81-2.24-1.81h-1.64v3.62h1.64Z"></path><path class="cls-19" d="M134.44,139.41h.78v1.09c.43-.78,1.31-1.18,2.02-1.18.33,0,.66.07.99.24l-.39.7c-.21-.1-.51-.17-.77-.17-.68,0-1.46.36-1.74,1.3-.08.27-.12.57-.12,1.27v3.15h-.78v-6.41Z"></path><path class="cls-19" d="M139.5,136.76h.94v1.39h-.94v-1.39ZM139.58,139.41h.77v6.41h-.77v-6.41Z"></path><path class="cls-19" d="M142.39,139.41h.78v1.1c.38-.85,1.11-1.19,1.88-1.19.91,0,1.57.4,1.89,1.25.4-.83,1.09-1.25,2-1.25,1.55,0,2.13,1.16,2.13,2.68v3.82h-.78v-3.64c0-1.33-.39-2.18-1.52-2.18-1.02,0-1.65.77-1.65,2.26v3.57h-.78v-3.76c0-1.4-.52-2.07-1.5-2.07-1.03,0-1.67.79-1.67,2.26v3.57h-.78v-6.41Z"></path><path class="cls-19" d="M157.22,144.62c-.43.82-1.25,1.29-2.25,1.29-1.44,0-2.31-.77-2.31-1.94,0-.69.29-1.16.72-1.44.46-.31,1.09-.42,1.77-.42h2.05v-.28c0-1.19-.62-1.83-1.82-1.83-.79,0-1.4.29-1.98,1.02l-.56-.48c.68-.85,1.53-1.22,2.59-1.22,1.63,0,2.54.89,2.54,2.51v3.99h-.71l-.04-1.2ZM155.04,145.27c1.18,0,2.17-.93,2.17-2.2v-.36h-1.95c-.51,0-1.03.08-1.37.33-.28.21-.44.51-.44.94,0,.79.6,1.3,1.6,1.3Z"></path><path class="cls-19" d="M159.93,139.41h.78v1.09c.43-.78,1.31-1.18,2.02-1.18.33,0,.66.07.99.24l-.39.7c-.21-.1-.51-.17-.77-.17-.68,0-1.46.36-1.74,1.3-.08.27-.12.57-.12,1.27v3.15h-.78v-6.41Z"></path><path class="cls-19" d="M166.98,145.62l-2.55-6.21h.86l2.1,5.42,2.11-5.42h.85l-3.69,9.05h-.84l1.17-2.84Z"></path><path class="cls-19" d="M175.24,136.76h2.72c1.68,0,2.68.84,2.68,2.25,0,.94-.46,1.68-1.24,2,1.1.25,1.7,1.07,1.7,2.31,0,1.61-1.02,2.5-2.88,2.5h-2.97v-9.06ZM178.21,140.77c.98,0,1.63-.64,1.63-1.64s-.69-1.61-1.88-1.61h-1.91v3.26h2.16ZM178.16,145.08c1.42,0,2.14-.6,2.14-1.79,0-1.13-.66-1.79-1.79-1.79h-2.46v3.58h2.11Z"></path><path class="cls-19" d="M182.56,142.66c0-1.84.99-3.34,2.81-3.34,1.96,0,2.76,1.53,2.76,2.94,0,.1-.01.4-.04.55h-4.76c.03,1.51.84,2.39,2.14,2.39.82,0,1.35-.23,1.91-.83l.55.49c-.73.75-1.43,1.05-2.46,1.05-1.89,0-2.91-1.41-2.91-3.25ZM187.38,142.24c0-.08,0-.16,0-.24,0-.92-.58-2.02-2-2.02-1.23,0-1.98.98-2.07,2.26h4.06Z"></path><path class="cls-19" d="M189.55,142.61c0-1.96,1.29-3.29,2.92-3.29,1.05,0,1.87.54,2.29,1.36v-3.92h.77v9.06h-.77v-1.26c-.44.85-1.25,1.35-2.29,1.35-1.72,0-2.92-1.42-2.92-3.3ZM192.59,145.19c1.3,0,2.23-1.08,2.23-2.58s-.93-2.58-2.23-2.58-2.26,1.09-2.26,2.58.95,2.58,2.26,2.58Z"></path><path class="cls-19" d="M197.56,139.41h.78v1.09c.43-.78,1.31-1.18,2.02-1.18.33,0,.66.07.99.24l-.39.7c-.21-.1-.51-.17-.77-.17-.68,0-1.46.36-1.74,1.3-.08.27-.12.57-.12,1.27v3.15h-.78v-6.41Z"></path><path class="cls-19" d="M201.94,142.61c0-1.92,1.25-3.29,3.05-3.29s3.04,1.36,3.04,3.29-1.27,3.3-3.04,3.3-3.05-1.36-3.05-3.3ZM204.99,145.22c1.37,0,2.26-1.04,2.26-2.61s-.9-2.61-2.26-2.61-2.28,1.05-2.28,2.61.9,2.61,2.28,2.61Z"></path><path class="cls-19" d="M209.47,142.61c0-1.92,1.25-3.29,3.05-3.29s3.04,1.36,3.04,3.29-1.27,3.3-3.04,3.3-3.05-1.36-3.05-3.3ZM212.52,145.22c1.37,0,2.26-1.04,2.26-2.61s-.9-2.61-2.26-2.61-2.28,1.05-2.28,2.61.9,2.61,2.28,2.61Z"></path><path class="cls-19" d="M217.31,139.41h.78v1.1c.38-.85,1.11-1.19,1.88-1.19.91,0,1.57.4,1.89,1.25.4-.83,1.09-1.25,2-1.25,1.55,0,2.13,1.16,2.13,2.68v3.82h-.78v-3.64c0-1.33-.39-2.18-1.52-2.18-1.02,0-1.65.77-1.65,2.26v3.57h-.78v-3.76c0-1.4-.52-2.07-1.5-2.07-1.03,0-1.67.79-1.67,2.26v3.57h-.78v-6.41Z"></path></g><g><path class="cls-19" d="M317.27,175.14h.81v8.33h4.18v.73h-4.99v-9.06Z"></path><path class="cls-19" d="M323.39,175.14h.94v1.39h-.94v-1.39ZM323.48,177.8h.77v6.41h-.77v-6.41Z"></path><path class="cls-19" d="M325.65,177.8h.86l2.1,5.42,2.11-5.42h.85l-2.61,6.41h-.68l-2.63-6.41Z"></path><path class="cls-19" d="M332.9,175.14h.94v1.39h-.94v-1.39ZM332.99,177.8h.77v6.41h-.77v-6.41Z"></path><path class="cls-19" d="M335.79,177.8h.78v1.05c.4-.76,1.12-1.14,2.01-1.14,1.38,0,2.2.81,2.2,2.51v3.99h-.78v-3.71c0-1.45-.55-2.11-1.61-2.11-1.16,0-1.83.79-1.83,2.55v3.27h-.78v-6.41Z"></path><path class="cls-19" d="M342.25,184.97s0-.1.03-.26l1.11-.88c-.57-.22-.96-.59-.96-1.26,0-.53.27-.9.72-1.2-.36-.37-.56-.87-.56-1.45,0-1.3,1.04-2.2,2.39-2.2.64,0,1.22.21,1.64.59l1.02-.86.4.49-1,.88c.19.33.3.71.3,1.14,0,1.28-.96,2.13-2.33,2.13-.53,0-.99-.12-1.37-.34-.31.18-.45.42-.45.72,0,.66.63.83,1.62.98,1.6.25,2.99.44,2.99,1.75,0,1.16-1.05,1.78-2.7,1.78-1.82,0-2.85-.7-2.85-2ZM345.11,186.36c1.09,0,1.92-.34,1.92-1.08,0-.86-1.16-.96-2.31-1.14-.31-.05-.6-.1-.89-.17l-.8.92c-.01.09-.01.11-.01.15,0,.9.79,1.33,2.09,1.33ZM344.98,181.43c.98,0,1.59-.65,1.59-1.53s-.64-1.56-1.58-1.56-1.62.65-1.62,1.55.63,1.55,1.61,1.55Z"></path><path class="cls-19" d="M352.73,175.14h2.52c1.99,0,2.97.93,2.97,2.5,0,1.25-.64,2.07-1.85,2.38l2.44,4.19h-.92l-2.34-4.07c-.21,0-.44,0-.65,0h-1.36v4.06h-.81v-9.06ZM355.18,179.43c1.38,0,2.24-.55,2.24-1.78s-.88-1.77-2.24-1.77h-1.64v3.56h1.64Z"></path><path class="cls-19" d="M359.74,180.99c0-1.92,1.25-3.29,3.05-3.29s3.04,1.37,3.04,3.29-1.27,3.3-3.04,3.3-3.05-1.36-3.05-3.3ZM362.79,183.6c1.37,0,2.26-1.04,2.26-2.61s-.9-2.61-2.26-2.61-2.28,1.05-2.28,2.61.9,2.61,2.28,2.61Z"></path><path class="cls-19" d="M367.27,180.99c0-1.92,1.25-3.29,3.05-3.29s3.04,1.37,3.04,3.29-1.27,3.3-3.04,3.3-3.05-1.36-3.05-3.3ZM370.32,183.6c1.37,0,2.26-1.04,2.26-2.61s-.9-2.61-2.26-2.61-2.28,1.05-2.28,2.61.9,2.61,2.28,2.61Z"></path><path class="cls-19" d="M375.11,177.8h.78v1.1c.38-.85,1.11-1.19,1.88-1.19.91,0,1.57.4,1.89,1.25.4-.83,1.09-1.25,2-1.25,1.55,0,2.13,1.16,2.13,2.69v3.82h-.78v-3.64c0-1.33-.39-2.18-1.52-2.18-1.02,0-1.65.77-1.65,2.26v3.57h-.78v-3.76c0-1.4-.52-2.07-1.5-2.07-1.03,0-1.67.79-1.67,2.26v3.57h-.78v-6.41Z"></path></g><g><path class="cls-19" d="M426.58,350.4h2.43c2.94,0,4.62,1.68,4.62,4.6s-1.64,4.46-4.63,4.46h-2.42v-9.06ZM428.93,358.72c2.5,0,3.89-1.16,3.89-3.74s-1.4-3.83-3.82-3.83h-1.61v7.57h1.54Z"></path><path class="cls-19" d="M435.24,350.4h.94v1.39h-.94v-1.39ZM435.32,353.05h.77v6.41h-.77v-6.41Z"></path><path class="cls-19" d="M438.13,353.05h.78v1.05c.4-.76,1.12-1.14,2.01-1.14,1.38,0,2.2.81,2.2,2.51v3.99h-.78v-3.71c0-1.45-.55-2.11-1.61-2.11-1.16,0-1.83.79-1.83,2.55v3.27h-.78v-6.41Z"></path><path class="cls-19" d="M445.01,350.4h.94v1.39h-.94v-1.39ZM445.09,353.05h.77v6.41h-.77v-6.41Z"></path><path class="cls-19" d="M447.9,353.05h.78v1.05c.4-.76,1.12-1.14,2.01-1.14,1.38,0,2.2.81,2.2,2.51v3.99h-.78v-3.71c0-1.45-.55-2.11-1.61-2.11-1.16,0-1.83.79-1.83,2.55v3.27h-.78v-6.41Z"></path><path class="cls-19" d="M454.35,360.22s0-.1.03-.26l1.11-.88c-.57-.22-.96-.59-.96-1.26,0-.53.27-.9.72-1.2-.36-.37-.56-.87-.56-1.45,0-1.3,1.04-2.2,2.39-2.2.64,0,1.22.21,1.64.58l1.02-.86.4.49-1,.88c.19.33.3.71.3,1.14,0,1.28-.96,2.13-2.33,2.13-.53,0-.99-.12-1.37-.34-.31.17-.45.42-.45.71,0,.66.63.83,1.62.98,1.6.25,2.99.44,2.99,1.75,0,1.16-1.05,1.78-2.7,1.78-1.82,0-2.85-.7-2.85-2ZM457.21,361.61c1.09,0,1.92-.34,1.92-1.08,0-.86-1.16-.96-2.31-1.14-.31-.05-.6-.1-.89-.17l-.8.92c-.01.09-.01.11-.01.15,0,.9.79,1.33,2.09,1.33ZM457.08,356.69c.98,0,1.59-.65,1.59-1.53s-.64-1.56-1.58-1.56-1.62.65-1.62,1.55.63,1.55,1.61,1.55Z"></path><path class="cls-19" d="M464.84,350.4h2.52c1.99,0,2.97.93,2.97,2.5,0,1.25-.64,2.07-1.85,2.38l2.44,4.19h-.92l-2.34-4.07c-.21,0-.44,0-.65,0h-1.36v4.06h-.81v-9.06ZM467.28,354.69c1.38,0,2.24-.55,2.24-1.78s-.88-1.77-2.24-1.77h-1.64v3.56h1.64Z"></path><path class="cls-19" d="M471.84,356.25c0-1.92,1.25-3.29,3.05-3.29s3.04,1.37,3.04,3.29-1.27,3.3-3.04,3.3-3.05-1.37-3.05-3.3ZM474.89,358.86c1.37,0,2.26-1.04,2.26-2.61s-.9-2.61-2.26-2.61-2.28,1.05-2.28,2.61.9,2.61,2.28,2.61Z"></path><path class="cls-19" d="M479.38,356.25c0-1.92,1.25-3.29,3.05-3.29s3.04,1.37,3.04,3.29-1.27,3.3-3.04,3.3-3.05-1.37-3.05-3.3ZM482.43,358.86c1.37,0,2.26-1.04,2.26-2.61s-.9-2.61-2.26-2.61-2.28,1.05-2.28,2.61.9,2.61,2.28,2.61Z"></path><path class="cls-19" d="M487.22,353.05h.78v1.1c.38-.84,1.11-1.19,1.88-1.19.91,0,1.57.4,1.89,1.25.4-.83,1.09-1.25,2-1.25,1.55,0,2.13,1.16,2.13,2.68v3.82h-.78v-3.64c0-1.33-.39-2.18-1.52-2.18-1.02,0-1.65.77-1.65,2.26v3.57h-.78v-3.76c0-1.4-.52-2.07-1.5-2.07-1.03,0-1.67.79-1.67,2.26v3.57h-.78v-6.41Z"></path></g><g><path class="cls-19" d="M415.92,558.3h2.72c1.68,0,2.68.84,2.68,2.25,0,.94-.46,1.68-1.24,2,1.1.25,1.7,1.07,1.7,2.31,0,1.61-1.02,2.5-2.88,2.5h-2.97v-9.06ZM418.89,562.3c.98,0,1.63-.64,1.63-1.64s-.69-1.61-1.88-1.61h-1.91v3.26h2.16ZM418.84,566.61c1.42,0,2.14-.6,2.14-1.79,0-1.13-.66-1.79-1.79-1.79h-2.46v3.58h2.11Z"></path><path class="cls-19" d="M423.22,564.2c0-1.84.99-3.34,2.81-3.34,1.96,0,2.76,1.53,2.76,2.94,0,.1-.01.4-.04.55h-4.76c.03,1.51.84,2.39,2.14,2.39.82,0,1.35-.23,1.91-.83l.55.49c-.73.75-1.43,1.05-2.46,1.05-1.89,0-2.91-1.41-2.91-3.25ZM428.04,563.77c0-.08,0-.16,0-.24,0-.92-.58-2.01-2-2.01-1.23,0-1.98.98-2.07,2.26h4.06Z"></path><path class="cls-19" d="M430.19,564.15c0-1.96,1.29-3.29,2.92-3.29,1.05,0,1.87.54,2.29,1.36v-3.92h.77v9.06h-.77v-1.26c-.44.84-1.25,1.35-2.29,1.35-1.72,0-2.92-1.42-2.92-3.3ZM433.23,566.73c1.3,0,2.23-1.08,2.23-2.58s-.93-2.58-2.23-2.58-2.26,1.09-2.26,2.58.95,2.58,2.26,2.58Z"></path><path class="cls-19" d="M438.2,560.95h.78v1.09c.43-.78,1.31-1.18,2.02-1.18.33,0,.66.07.99.24l-.39.7c-.21-.1-.51-.17-.77-.17-.68,0-1.46.36-1.74,1.3-.08.27-.12.57-.12,1.27v3.15h-.78v-6.41Z"></path><path class="cls-19" d="M442.59,564.15c0-1.92,1.25-3.29,3.05-3.29s3.04,1.37,3.04,3.29-1.27,3.3-3.04,3.3-3.05-1.37-3.05-3.3ZM445.63,566.75c1.37,0,2.26-1.04,2.26-2.61s-.9-2.61-2.26-2.61-2.28,1.05-2.28,2.61.9,2.61,2.28,2.61Z"></path><path class="cls-19" d="M450.12,564.15c0-1.92,1.25-3.29,3.05-3.29s3.04,1.37,3.04,3.29-1.27,3.3-3.04,3.3-3.05-1.37-3.05-3.3ZM453.17,566.75c1.37,0,2.26-1.04,2.26-2.61s-.9-2.61-2.26-2.61-2.28,1.05-2.28,2.61.9,2.61,2.28,2.61Z"></path><path class="cls-19" d="M457.96,560.95h.78v1.1c.38-.84,1.11-1.19,1.88-1.19.91,0,1.57.4,1.89,1.25.4-.83,1.09-1.25,2-1.25,1.55,0,2.13,1.16,2.13,2.68v3.82h-.78v-3.64c0-1.33-.39-2.18-1.52-2.18-1.02,0-1.65.77-1.65,2.26v3.57h-.78v-3.76c0-1.4-.52-2.07-1.5-2.07-1.03,0-1.67.79-1.67,2.26v3.57h-.78v-6.41Z"></path></g><g><path class="cls-19" d="M508.95,175.14h2.72c1.68,0,2.68.84,2.68,2.25,0,.94-.46,1.68-1.24,2,1.1.25,1.7,1.07,1.7,2.31,0,1.61-1.02,2.5-2.88,2.5h-2.97v-9.06ZM511.93,179.15c.98,0,1.63-.64,1.63-1.64s-.69-1.61-1.88-1.61h-1.91v3.26h2.16ZM511.87,183.46c1.42,0,2.14-.6,2.14-1.79,0-1.13-.66-1.79-1.79-1.79h-2.46v3.58h2.11Z"></path><path class="cls-19" d="M520.78,183c-.43.82-1.25,1.29-2.25,1.29-1.44,0-2.31-.77-2.31-1.94,0-.69.29-1.16.72-1.44.46-.31,1.09-.42,1.77-.42h2.05v-.28c0-1.19-.62-1.83-1.82-1.83-.79,0-1.4.29-1.98,1.02l-.56-.48c.68-.85,1.53-1.22,2.59-1.22,1.63,0,2.54.89,2.54,2.51v3.99h-.71l-.04-1.2ZM518.61,183.65c1.18,0,2.17-.93,2.17-2.2v-.36h-1.95c-.51,0-1.03.08-1.37.33-.28.21-.44.51-.44.94,0,.79.6,1.3,1.6,1.3Z"></path><path class="cls-19" d="M523.37,182.87v-7.73h.77v7.59c0,.6.23.85.64.85.17,0,.38-.04.61-.12v.67c-.29.11-.6.17-.84.17-.72,0-1.18-.44-1.18-1.42Z"></path><path class="cls-19" d="M526.34,180.99c0-1.83,1.06-3.29,2.86-3.29,1.17,0,2.09.59,2.51,1.74l-.7.27c-.27-.82-.9-1.33-1.81-1.33-1.42,0-2.09,1.25-2.09,2.61s.68,2.62,2.09,2.62c.91,0,1.53-.51,1.81-1.33l.7.27c-.42,1.16-1.34,1.75-2.51,1.75-1.8,0-2.86-1.46-2.86-3.3Z"></path><path class="cls-19" d="M532.94,180.99c0-1.92,1.25-3.29,3.05-3.29s3.04,1.37,3.04,3.29-1.27,3.3-3.04,3.3-3.05-1.36-3.05-3.3ZM535.99,183.6c1.37,0,2.26-1.04,2.26-2.61s-.9-2.61-2.26-2.61-2.28,1.05-2.28,2.61.9,2.61,2.28,2.61Z"></path><path class="cls-19" d="M540.78,177.8h.78v1.05c.4-.76,1.12-1.14,2.01-1.14,1.38,0,2.2.81,2.2,2.51v3.99h-.78v-3.71c0-1.45-.55-2.11-1.61-2.11-1.16,0-1.83.79-1.83,2.55v3.27h-.78v-6.41Z"></path><path class="cls-19" d="M549.49,184l-2.55-6.21h.86l2.1,5.42,2.11-5.42h.85l-3.69,9.05h-.84l1.17-2.84Z"></path></g><g><path class="cls-19" d="M298.46,436.39h.81v4.86l4.65-4.86h1.09l-3.45,3.54,3.48,5.52h-.95l-3.11-4.93-1.71,1.75v3.17h-.81v-9.06Z"></path><path class="cls-19" d="M306.19,436.39h.94v1.39h-.94v-1.39ZM306.27,439.05h.77v6.41h-.77v-6.41Z"></path><path class="cls-19" d="M309.84,443.97v-4.31h-1.42v-.62h1.42v-1.85l.79-.46v2.31h1.54v.62h-1.54v4.12c0,.71.22,1.11.81,1.11.19,0,.46-.04.73-.12v.62c-.32.1-.64.16-.92.16-.85,0-1.4-.49-1.4-1.57Z"></path><path class="cls-19" d="M313.2,442.24c0-1.83,1.06-3.29,2.86-3.29,1.17,0,2.09.58,2.51,1.74l-.7.27c-.27-.82-.9-1.33-1.81-1.33-1.42,0-2.09,1.25-2.09,2.61s.68,2.62,2.09,2.62c.91,0,1.53-.51,1.81-1.33l.7.27c-.42,1.16-1.34,1.75-2.51,1.75-1.8,0-2.86-1.46-2.86-3.3Z"></path><path class="cls-19" d="M320.2,436.39h.78v3.69c.4-.75,1.1-1.13,2.01-1.13,1.4,0,2.2.85,2.2,2.51v3.99h-.78v-3.71c0-1.43-.53-2.11-1.61-2.11-1.18,0-1.83.83-1.83,2.55v3.27h-.78v-9.06Z"></path><path class="cls-19" d="M326.83,442.3c0-1.84.99-3.34,2.81-3.34,1.96,0,2.76,1.53,2.76,2.94,0,.1-.01.4-.04.55h-4.76c.03,1.51.84,2.39,2.14,2.39.82,0,1.35-.23,1.91-.83l.55.49c-.73.75-1.43,1.05-2.46,1.05-1.89,0-2.91-1.41-2.91-3.25ZM331.64,441.87c0-.08,0-.16,0-.24,0-.92-.58-2.01-2-2.01-1.23,0-1.98.98-2.07,2.26h4.06Z"></path><path class="cls-19" d="M334.13,439.05h.78v1.05c.4-.76,1.12-1.14,2.01-1.14,1.38,0,2.2.81,2.2,2.51v3.99h-.78v-3.71c0-1.45-.55-2.11-1.61-2.11-1.16,0-1.83.79-1.83,2.55v3.27h-.78v-6.41Z"></path></g><g><path class="cls-19" d="M67.84,591.71h5.86v.73h-5.06v3.37h4.39v.73h-4.39v4.24h-.81v-9.06Z"></path><path class="cls-19" d="M75.02,599.44v-7.73h.77v7.59c0,.6.23.84.64.84.17,0,.38-.04.61-.12v.67c-.29.11-.6.17-.84.17-.72,0-1.18-.44-1.18-1.42Z"></path><path class="cls-19" d="M77.99,597.61c0-1.84.99-3.34,2.81-3.34,1.96,0,2.76,1.53,2.76,2.94,0,.1-.01.4-.04.55h-4.76c.03,1.51.84,2.39,2.14,2.39.82,0,1.35-.23,1.91-.83l.55.49c-.73.75-1.43,1.05-2.46,1.05-1.89,0-2.91-1.41-2.91-3.25ZM82.81,597.18c0-.08,0-.16,0-.24,0-.92-.58-2.01-2-2.01-1.23,0-1.98.98-2.07,2.26h4.06Z"></path><path class="cls-19" d="M86.95,597.55l-2.37-3.19h.96l1.92,2.65,1.94-2.65h.94l-2.38,3.19,2.39,3.22h-.96l-1.93-2.67-1.94,2.67h-.94l2.37-3.22Z"></path></g><g><path class="cls-19" d="M92.82,510.27h5.86v.73h-5.06v3.37h4.39v.73h-4.39v4.24h-.81v-9.06Z"></path><path class="cls-19" d="M99.41,516.12c0-1.92,1.25-3.29,3.05-3.29s3.04,1.37,3.04,3.29-1.27,3.3-3.04,3.3-3.05-1.37-3.05-3.3ZM102.46,518.73c1.37,0,2.26-1.04,2.26-2.61s-.9-2.61-2.26-2.61-2.28,1.05-2.28,2.61.9,2.61,2.28,2.61Z"></path><path class="cls-19" d="M108.98,519.13l-2.55-6.21h.86l2.1,5.42,2.11-5.42h.85l-3.69,9.05h-.84l1.17-2.84Z"></path><path class="cls-19" d="M113.31,516.17c0-1.84.99-3.34,2.81-3.34,1.96,0,2.76,1.53,2.76,2.94,0,.1-.01.4-.04.55h-4.76c.03,1.51.84,2.39,2.14,2.39.82,0,1.35-.23,1.91-.83l.55.49c-.73.75-1.43,1.05-2.46,1.05-1.89,0-2.91-1.41-2.91-3.25ZM118.12,515.74c0-.08,0-.16,0-.24,0-.92-.58-2.01-2-2.01-1.23,0-1.98.98-2.07,2.26h4.06Z"></path><path class="cls-19" d="M120.6,512.92h.78v1.09c.43-.78,1.31-1.18,2.02-1.18.33,0,.66.07.99.24l-.39.7c-.21-.1-.51-.17-.77-.17-.68,0-1.46.36-1.74,1.3-.08.27-.12.57-.12,1.27v3.15h-.78v-6.41Z"></path></g><g><path class="cls-19" d="M130.58,279.45h.65l1.71,6.06,1.76-5.7h.63l1.76,5.7,1.7-6.06h.65l-2.01,6.98h-.63l-1.79-5.71-1.79,5.71h-.64l-2.01-6.98Z"></path><path class="cls-19" d="M140.59,279.45h.62v6.98h-.62v-6.98Z"></path><path class="cls-19" d="M142.64,282.93c0-2.16,1.26-3.58,3.16-3.58,1.35,0,2.39.71,2.84,1.89l-.58.22c-.38-.96-1.17-1.52-2.26-1.52-1.55,0-2.54,1.17-2.54,2.99s.99,3,2.54,3c1.09,0,1.89-.56,2.26-1.52l.58.22c-.45,1.18-1.49,1.9-2.84,1.9-1.89,0-3.16-1.42-3.16-3.59Z"></path></g><g><path class="cls-19" d="M310.46,588.89h.65l1.71,6.06,1.76-5.7h.63l1.76,5.7,1.7-6.06h.65l-2.01,6.98h-.63l-1.79-5.71-1.79,5.71h-.64l-2.01-6.98Z"></path><path class="cls-19" d="M320.47,588.89h.62v6.98h-.62v-6.98Z"></path><path class="cls-19" d="M322.52,592.37c0-2.16,1.26-3.58,3.16-3.58,1.35,0,2.39.71,2.84,1.89l-.58.22c-.38-.96-1.17-1.52-2.26-1.52-1.55,0-2.54,1.17-2.54,2.99s.99,3,2.54,3c1.09,0,1.89-.56,2.26-1.52l.58.21c-.45,1.18-1.49,1.9-2.84,1.9-1.89,0-3.16-1.42-3.16-3.59Z"></path></g><path class="cls-19" d="M200.72,445.33h.65l1.71,6.06,1.76-5.7h.63l1.76,5.7,1.7-6.06h.65l-2.01,6.98h-.63l-1.79-5.71-1.79,5.71h-.64l-2.01-6.98Z"></path><path class="cls-19" d="M213,444.45h.48l-3.55,9.08h-.48l3.55-9.08Z"></path><path class="cls-19" d="M214.7,445.33h1.87c2.26,0,3.56,1.29,3.56,3.54s-1.27,3.43-3.57,3.43h-1.86v-6.98ZM216.51,451.73c1.92,0,2.99-.89,2.99-2.88s-1.08-2.95-2.94-2.95h-1.24v5.83h1.19Z"></path><path class="cls-19" d="M173.03,453.04h.62v6.42h3.22v.56h-3.84v-6.98Z"></path><path class="cls-19" d="M245.5,306.47c0-2.17,1.27-3.59,3.16-3.59s3.18,1.42,3.18,3.59-1.27,3.58-3.18,3.58-3.16-1.42-3.16-3.58ZM248.66,309.46c1.57,0,2.55-1.16,2.55-2.99s-.99-3-2.55-3-2.54,1.15-2.54,3,.99,2.99,2.54,2.99Z"></path><path class="cls-19" d="M255.54,301.97h.48l-3.55,9.08h-.48l3.55-9.08Z"></path><path class="cls-19" d="M257.24,302.97h.93l2.35,5.66,2.35-5.66h.92v6.98h-.62v-6.16l-2.35,5.59h-.61l-2.36-5.59v6.16h-.62v-6.98Z"></path><g><path class="cls-19" d="M248.22,442.16h1.94c1.53,0,2.29.72,2.29,1.92,0,.97-.5,1.6-1.43,1.83l1.88,3.22h-.71l-1.8-3.13c-.16,0-.34,0-.5,0h-1.05v3.13h-.62v-6.98ZM250.1,445.46c1.06,0,1.73-.43,1.73-1.37s-.68-1.37-1.73-1.37h-1.26v2.74h1.26Z"></path><path class="cls-19" d="M254.08,442.16h4.56v.56h-3.94v2.59h3.53v.56h-3.53v2.7h3.94v.56h-4.56v-6.98Z"></path><path class="cls-19" d="M259.93,442.16h4.51v.56h-3.89v2.59h3.38v.56h-3.38v3.26h-.62v-6.98Z"></path></g><g><path class="cls-19" d="M328.16,308.86h.65l1.71,6.06,1.76-5.7h.63l1.76,5.7,1.7-6.06h.65l-2.01,6.98h-.63l-1.79-5.71-1.79,5.71h-.64l-2.01-6.98Z"></path><path class="cls-19" d="M338.17,308.86h4.51v.56h-3.89v2.59h3.38v.56h-3.38v3.26h-.62v-6.98Z"></path></g><g><path class="cls-19" d="M328.23,391.63h1.87c2.26,0,3.56,1.29,3.56,3.54s-1.27,3.43-3.57,3.43h-1.86v-6.98ZM330.04,398.03c1.92,0,2.99-.89,2.99-2.88s-1.08-2.95-2.94-2.95h-1.24v5.83h1.19Z"></path><path class="cls-19" d="M334.32,391.63h.65l1.71,6.06,1.76-5.7h.63l1.76,5.7,1.7-6.06h.65l-2.01,6.98h-.63l-1.79-5.71-1.79,5.71h-.64l-2.01-6.98Z"></path></g><path class="cls-19" d="M309.87,541.11h1.94c1.46,0,2.29.69,2.29,1.95s-.83,1.96-2.29,1.96h-1.33v3.07h-.62v-6.98ZM311.76,544.46c1.09,0,1.73-.47,1.73-1.4s-.62-1.39-1.73-1.39h-1.27v2.79h1.27Z"></path><g><path class="cls-23" d="M563.24,0h3.61v.45h-3.11v2.07h2.7v.45h-2.7v2.61h-.5V0Z"></path><path class="cls-23" d="M567.59,0h.58v.86h-.58v-.86ZM567.64,1.63h.47v3.94h-.47V1.63Z"></path><path class="cls-23" d="M569.44,1.63h.48v.64c.25-.47.69-.7,1.24-.7.85,0,1.36.5,1.36,1.54v2.45h-.48v-2.28c0-.89-.34-1.3-.99-1.3-.71,0-1.13.48-1.13,1.57v2.01h-.48V1.63Z"></path><path class="cls-23" d="M576.01,0h3.64v.45h-3.15v2.07h2.82v.45h-2.82v2.16h3.15v.45h-3.64V0Z"></path><path class="cls-23" d="M581.81,3.59l-1.46-1.96h.59l1.18,1.63,1.2-1.63h.58l-1.46,1.96,1.47,1.98h-.59l-1.19-1.64-1.19,1.64h-.58l1.46-1.98Z"></path><path class="cls-23" d="M585.34,4.66v-2.65h-.88v-.38h.88V.49l.48-.28v1.42h.95v.38h-.95v2.53c0,.44.14.68.5.68.12,0,.28-.02.45-.08v.38c-.2.06-.4.1-.57.1-.52,0-.86-.3-.86-.97Z"></path><path class="cls-23" d="M587.48,3.63c0-1.13.61-2.05,1.73-2.05,1.21,0,1.7.94,1.7,1.81,0,.06,0,.24-.02.34h-2.93c.02.93.52,1.47,1.32,1.47.5,0,.83-.14,1.17-.51l.34.3c-.45.46-.88.65-1.51.65-1.16,0-1.79-.87-1.79-2ZM590.45,3.37s0-.1,0-.15c0-.57-.36-1.24-1.23-1.24-.75,0-1.22.6-1.27,1.39h2.49Z"></path><path class="cls-23" d="M592.05,1.63h.48v.64c.25-.47.69-.7,1.24-.7.85,0,1.36.5,1.36,1.54v2.45h-.48v-2.28c0-.89-.34-1.3-.99-1.3-.71,0-1.13.48-1.13,1.57v2.01h-.48V1.63Z"></path><path class="cls-23" d="M596.01,4.73l.34-.28c.2.46.66.77,1.26.77.57,0,.95-.27.95-.72,0-.55-.53-.68-1.1-.82-.66-.16-1.23-.38-1.23-1.06,0-.62.53-1.05,1.29-1.05.6,0,1.1.26,1.37.76l-.37.21c-.21-.38-.57-.58-1.01-.58-.48,0-.84.24-.84.62,0,.4.36.54.93.68.67.16,1.43.34,1.43,1.2,0,.71-.56,1.17-1.42,1.17-.79,0-1.35-.4-1.6-.9Z"></path><path class="cls-23" d="M600.11,0h.58v.86h-.58v-.86ZM600.16,1.63h.47v3.94h-.47V1.63Z"></path><path class="cls-23" d="M601.78,3.6c0-1.18.77-2.02,1.88-2.02s1.87.84,1.87,2.02-.78,2.03-1.87,2.03-1.88-.84-1.88-2.03ZM603.66,5.2c.84,0,1.39-.64,1.39-1.6s-.55-1.6-1.39-1.6-1.4.64-1.4,1.6.56,1.6,1.4,1.6Z"></path><path class="cls-23" d="M606.68,1.63h.48v.64c.25-.47.69-.7,1.24-.7.85,0,1.36.5,1.36,1.54v2.45h-.48v-2.28c0-.89-.34-1.3-.99-1.3-.71,0-1.13.48-1.13,1.57v2.01h-.48V1.63Z"></path><path class="cls-23" d="M611.08,1.81h.58v.86h-.58v-.86ZM611.08,4.72h.58v.85h-.58v-.85Z"></path></g><g><path class="cls-23" d="M562.91,13.65l.47-.08c.14.7.66,1.21,1.4,1.21.85,0,1.41-.68,1.41-1.48s-.52-1.38-1.34-1.38c-.51,0-.95.24-1.26.69l-.5-.15.5-2.86h2.84v.45h-2.45l-.34,1.96c.38-.39.82-.55,1.27-.55,1.04,0,1.78.82,1.78,1.83s-.81,1.94-1.91,1.94c-.94,0-1.7-.64-1.88-1.58Z"></path><path class="cls-23" d="M567.61,12.37c0-1.33.3-2.84,1.72-2.84s1.75,1.39,1.75,2.85-.4,2.84-1.72,2.84c-1.44,0-1.75-1.51-1.75-2.85ZM569.37,14.77c.88,0,1.23-1,1.23-2.36s-.36-2.41-1.26-2.41c-.96,0-1.23,1.1-1.23,2.4s.28,2.37,1.26,2.37Z"></path><path class="cls-23" d="M572.06,13.59c0-.7.41-1.25,1.08-1.45-.46-.18-.76-.62-.76-1.19,0-.9.78-1.41,1.54-1.41.86,0,1.53.57,1.53,1.45,0,.55-.3.97-.77,1.15.67.21,1.07.76,1.07,1.45,0,1.09-.9,1.64-1.84,1.64s-1.85-.55-1.85-1.64ZM573.91,14.78c.72,0,1.36-.41,1.36-1.22,0-.73-.56-1.22-1.36-1.22s-1.38.48-1.38,1.22c0,.82.66,1.22,1.38,1.22ZM573.93,12c.61,0,1.05-.4,1.05-.98,0-.61-.42-1.03-1.06-1.03-.56,0-1.06.36-1.06.98s.44,1.02,1.07,1.02Z"></path></g><g><path class="cls-23" d="M563.99,21.41c.23-.14.5-.22.76-.22,1.01,0,1.81.81,1.81,1.81s-.84,1.83-1.87,1.83-1.88-.8-1.88-1.82c0-.37.12-.7.29-1l1.67-2.81h.54l-1.34,2.21ZM564.69,24.38c.76,0,1.39-.6,1.39-1.38s-.62-1.38-1.39-1.38-1.39.59-1.39,1.38.62,1.38,1.39,1.38Z"></path><path class="cls-23" d="M567.61,21.97c0-1.33.3-2.84,1.72-2.84s1.75,1.39,1.75,2.85-.4,2.84-1.72,2.84c-1.44,0-1.75-1.51-1.75-2.85ZM569.37,24.36c.88,0,1.23-1,1.23-2.36s-.36-2.41-1.26-2.41c-.96,0-1.23,1.1-1.23,2.4s.28,2.37,1.26,2.37Z"></path><path class="cls-23" d="M572.06,23.19c0-.7.41-1.25,1.08-1.45-.46-.18-.76-.62-.76-1.19,0-.9.78-1.41,1.54-1.41.86,0,1.53.57,1.53,1.45,0,.55-.3.97-.77,1.15.67.21,1.07.76,1.07,1.45,0,1.09-.9,1.64-1.84,1.64s-1.85-.55-1.85-1.64ZM573.91,24.38c.72,0,1.36-.41,1.36-1.22,0-.73-.56-1.22-1.36-1.22s-1.38.48-1.38,1.22c0,.82.66,1.22,1.38,1.22ZM573.93,21.6c.61,0,1.05-.4,1.05-.98,0-.61-.42-1.03-1.06-1.03-.56,0-1.06.36-1.06.98s.44,1.02,1.07,1.02Z"></path></g><g><path class="cls-23" d="M566.22,29.25h-3.43v-.45h3.98v.4l-2.75,5.18h-.53l2.74-5.12Z"></path><path class="cls-23" d="M567.61,31.57c0-1.33.3-2.84,1.72-2.84s1.75,1.39,1.75,2.85-.4,2.84-1.72,2.84c-1.44,0-1.75-1.51-1.75-2.85ZM569.37,33.96c.88,0,1.23-1,1.23-2.36s-.36-2.41-1.26-2.41c-.96,0-1.23,1.1-1.23,2.39s.28,2.38,1.26,2.38Z"></path><path class="cls-23" d="M572.06,32.79c0-.7.41-1.25,1.08-1.45-.46-.18-.76-.62-.76-1.19,0-.9.78-1.41,1.54-1.41.86,0,1.53.57,1.53,1.45,0,.55-.3.97-.77,1.15.67.21,1.07.76,1.07,1.45,0,1.09-.9,1.64-1.84,1.64s-1.85-.55-1.85-1.64ZM573.91,33.98c.72,0,1.36-.41,1.36-1.22,0-.73-.56-1.22-1.36-1.22s-1.38.48-1.38,1.22c0,.82.66,1.22,1.38,1.22ZM573.93,31.2c.61,0,1.05-.4,1.05-.98,0-.61-.42-1.03-1.06-1.03-.56,0-1.06.36-1.06.98s.44,1.02,1.07,1.02Z"></path></g><g><path class="cls-23" d="M562.94,42.39c0-.7.41-1.25,1.08-1.45-.46-.18-.76-.62-.76-1.19,0-.9.78-1.41,1.54-1.41.86,0,1.53.57,1.53,1.45,0,.55-.3.97-.77,1.15.67.21,1.07.76,1.07,1.45,0,1.09-.9,1.64-1.84,1.64s-1.85-.55-1.85-1.64ZM564.8,43.58c.72,0,1.36-.41,1.36-1.22,0-.73-.56-1.22-1.36-1.22s-1.38.48-1.38,1.22c0,.82.66,1.22,1.38,1.22ZM564.82,40.8c.61,0,1.05-.4,1.05-.98,0-.61-.42-1.03-1.06-1.03-.56,0-1.06.36-1.06.98s.44,1.02,1.07,1.02Z"></path><path class="cls-23" d="M567.61,41.17c0-1.33.3-2.84,1.72-2.84s1.75,1.39,1.75,2.85-.4,2.84-1.72,2.84c-1.44,0-1.75-1.51-1.75-2.85ZM569.37,43.56c.88,0,1.23-1,1.23-2.36s-.36-2.41-1.26-2.41c-.96,0-1.23,1.1-1.23,2.4s.28,2.37,1.26,2.37Z"></path><path class="cls-23" d="M572.06,42.39c0-.7.41-1.25,1.08-1.45-.46-.18-.76-.62-.76-1.19,0-.9.78-1.41,1.54-1.41.86,0,1.53.57,1.53,1.45,0,.55-.3.97-.77,1.15.67.21,1.07.76,1.07,1.45,0,1.09-.9,1.64-1.84,1.64s-1.85-.55-1.85-1.64ZM573.91,43.58c.72,0,1.36-.41,1.36-1.22,0-.73-.56-1.22-1.36-1.22s-1.38.48-1.38,1.22c0,.82.66,1.22,1.38,1.22ZM573.93,40.8c.61,0,1.05-.4,1.05-.98,0-.61-.42-1.03-1.06-1.03-.56,0-1.06.36-1.06.98s.44,1.02,1.07,1.02Z"></path></g><g><path class="cls-23" d="M565.49,51.37c-.23.14-.5.22-.76.22-1.01,0-1.81-.81-1.81-1.81s.84-1.83,1.87-1.83,1.88.8,1.88,1.82c0,.37-.12.7-.29,1l-1.67,2.81h-.54l1.34-2.21ZM564.79,51.15c.76,0,1.39-.59,1.39-1.38s-.62-1.38-1.39-1.38-1.39.6-1.39,1.38.62,1.38,1.39,1.38Z"></path><path class="cls-23" d="M567.61,50.77c0-1.33.3-2.84,1.72-2.84s1.75,1.39,1.75,2.85-.4,2.84-1.72,2.84c-1.44,0-1.75-1.51-1.75-2.85ZM569.37,53.17c.88,0,1.23-1,1.23-2.36s-.36-2.41-1.26-2.41c-.96,0-1.23,1.1-1.23,2.39s.28,2.38,1.26,2.38Z"></path><path class="cls-23" d="M572.06,51.99c0-.7.41-1.25,1.08-1.45-.46-.18-.76-.62-.76-1.19,0-.9.78-1.41,1.54-1.41.86,0,1.53.57,1.53,1.45,0,.55-.3.97-.77,1.15.67.21,1.07.76,1.07,1.45,0,1.09-.9,1.64-1.84,1.64s-1.85-.55-1.85-1.64ZM573.91,53.18c.72,0,1.36-.41,1.36-1.22,0-.73-.56-1.22-1.36-1.22s-1.38.48-1.38,1.22c0,.82.66,1.22,1.38,1.22ZM573.93,50.4c.61,0,1.05-.4,1.05-.98,0-.61-.42-1.03-1.06-1.03-.56,0-1.06.36-1.06.98s.44,1.02,1.07,1.02Z"></path></g><g><path class="cls-23" d="M564.98,58.89h-1.47v-.39h1.03c.29,0,.44-.1.44-.41v-.49h.48v5.57h-.48v-4.28Z"></path><path class="cls-23" d="M567.61,60.37c0-1.33.3-2.84,1.72-2.84s1.75,1.39,1.75,2.85-.4,2.84-1.72,2.84c-1.44,0-1.75-1.51-1.75-2.85ZM569.37,62.77c.88,0,1.23-1,1.23-2.36s-.36-2.41-1.26-2.41c-.96,0-1.23,1.1-1.23,2.4s.28,2.37,1.26,2.37Z"></path><path class="cls-23" d="M572.17,60.37c0-1.33.3-2.84,1.72-2.84s1.75,1.39,1.75,2.85-.4,2.84-1.72,2.84c-1.44,0-1.75-1.51-1.75-2.85ZM573.93,62.77c.88,0,1.23-1,1.23-2.36s-.36-2.41-1.26-2.41c-.96,0-1.23,1.1-1.23,2.4s.28,2.37,1.26,2.37Z"></path><path class="cls-23" d="M576.61,61.59c0-.7.41-1.25,1.08-1.45-.46-.18-.76-.62-.76-1.19,0-.9.78-1.41,1.54-1.41.86,0,1.53.57,1.53,1.45,0,.55-.3.97-.77,1.15.67.21,1.07.76,1.07,1.45,0,1.09-.9,1.64-1.84,1.64s-1.85-.55-1.85-1.64ZM578.46,62.78c.72,0,1.36-.41,1.36-1.22,0-.73-.56-1.22-1.36-1.22s-1.38.48-1.38,1.22c0,.82.66,1.22,1.38,1.22ZM578.48,60c.61,0,1.05-.4,1.05-.98,0-.61-.42-1.03-1.06-1.03-.56,0-1.06.36-1.06.98s.44,1.02,1.07,1.02Z"></path></g><g><path class="cls-23" d="M564.98,68.49h-1.47v-.39h1.03c.29,0,.44-.1.44-.41v-.49h.48v5.57h-.48v-4.28Z"></path><path class="cls-23" d="M569.53,68.49h-1.47v-.39h1.03c.29,0,.44-.1.44-.41v-.49h.48v5.57h-.48v-4.28Z"></path><path class="cls-23" d="M572.17,69.97c0-1.33.3-2.84,1.72-2.84s1.75,1.39,1.75,2.85-.4,2.84-1.72,2.84c-1.44,0-1.75-1.51-1.75-2.85ZM573.93,72.36c.88,0,1.23-1,1.23-2.36s-.36-2.41-1.26-2.41c-.96,0-1.23,1.1-1.23,2.4s.28,2.37,1.26,2.37Z"></path><path class="cls-23" d="M576.61,71.19c0-.7.41-1.25,1.08-1.45-.46-.18-.76-.62-.76-1.19,0-.9.78-1.41,1.54-1.41.86,0,1.53.57,1.53,1.45,0,.55-.3.97-.77,1.15.67.21,1.07.76,1.07,1.45,0,1.09-.9,1.64-1.84,1.64s-1.85-.55-1.85-1.64ZM578.46,72.38c.72,0,1.36-.41,1.36-1.22,0-.73-.56-1.22-1.36-1.22s-1.38.48-1.38,1.22c0,.82.66,1.22,1.38,1.22ZM578.48,69.6c.61,0,1.05-.4,1.05-.98,0-.61-.42-1.03-1.06-1.03-.56,0-1.06.36-1.06.98s.44,1.02,1.07,1.02Z"></path></g><g><path class="cls-23" d="M564.98,78.09h-1.47v-.39h1.03c.29,0,.44-.1.44-.41v-.49h.48v5.57h-.48v-4.28Z"></path><path class="cls-23" d="M570.48,78.41c0-.73-.43-1.2-1.19-1.2-.83,0-1.26.58-1.27,1.45l-.47-.03c0-1.07.62-1.88,1.76-1.88.99,0,1.64.65,1.64,1.65,0,1.49-1.5,2.65-2.81,3.53h3.04v.45h-3.64v-.44c1.02-.82,2.94-2.02,2.94-3.53Z"></path><path class="cls-23" d="M572.17,79.57c0-1.33.3-2.84,1.72-2.84s1.75,1.39,1.75,2.85-.4,2.84-1.72,2.84c-1.44,0-1.75-1.51-1.75-2.85ZM573.93,81.96c.88,0,1.23-1,1.23-2.36s-.36-2.41-1.26-2.41c-.96,0-1.23,1.1-1.23,2.39s.28,2.38,1.26,2.38Z"></path><path class="cls-23" d="M576.61,80.79c0-.7.41-1.25,1.08-1.45-.46-.18-.76-.62-.76-1.19,0-.9.78-1.41,1.54-1.41.86,0,1.53.57,1.53,1.45,0,.55-.3.97-.77,1.15.67.21,1.07.76,1.07,1.45,0,1.09-.9,1.64-1.84,1.64s-1.85-.55-1.85-1.64ZM578.46,81.98c.72,0,1.36-.41,1.36-1.22,0-.73-.56-1.22-1.36-1.22s-1.38.48-1.38,1.22c0,.82.66,1.22,1.38,1.22ZM578.48,79.2c.61,0,1.05-.4,1.05-.98,0-.61-.42-1.03-1.06-1.03-.56,0-1.06.36-1.06.98s.44,1.02,1.07,1.02Z"></path></g><polyline class="cls-2" points="554.56 12.21 482.5 12.21 463.72 75.52"></polyline><path class="cls-22" d="M462.57,79.39l3.59-4.85s-2.44.98-3.96-1.17l.37,6.03Z"></path><polyline class="cls-2" points="554.56 79.97 534.41 79.97 530.58 93.41"></polyline><path class="cls-22" d="M529.47,97.29l3.54-4.89s-2.43,1.01-3.97-1.13l.43,6.02Z"></path><polyline class="cls-2" points="554.56 70.29 530.7 70.29 524.27 91.65"></polyline><path class="cls-22" d="M523.1,95.52l3.61-4.84s-2.45.97-3.95-1.19l.34,6.03Z"></path><polyline class="cls-2" points="554.56 60.61 525.55 60.61 516.91 89.63"></polyline><path class="cls-22" d="M515.76,93.5l3.6-4.85s-2.45.98-3.96-1.18l.36,6.03Z"></path><polyline class="cls-2" points="554.56 50.93 519.44 50.93 508.56 87.47"></polyline><path class="cls-22" d="M507.41,91.34l3.6-4.85s-2.45.98-3.96-1.18l.36,6.03Z"></path><polyline class="cls-2" points="554.56 41.25 511.87 41.25 498.91 84.59"></polyline><path class="cls-22" d="M497.76,88.46l3.6-4.84s-2.45.98-3.96-1.18l.35,6.03Z"></path><polyline class="cls-2" points="554.56 31.57 502.71 31.57 487.81 82.1"></polyline><path class="cls-22" d="M486.67,85.97l3.58-4.86s-2.44.98-3.96-1.17l.38,6.03Z"></path><polyline class="cls-2" points="554.56 21.89 494.3 21.89 477.31 78.98"></polyline><path class="cls-22" d="M476.16,82.84l3.6-4.85s-2.45.98-3.96-1.18l.36,6.03Z"></path></g></g></svg> 