<?xml version="1.0" encoding="UTF-8"?> <svg xmlns="http://www.w3.org/2000/svg" id="Layer_2" data-name="Layer 2" viewBox="0 0 678.64 776.09"><defs><style> .cls-1 { stroke-dasharray: 1 1; } .cls-1, .cls-2, .cls-3, .cls-4, .cls-5, .cls-6, .cls-7, .cls-8, .cls-9, .cls-10, .cls-11, .cls-12, .cls-13, .cls-14, .cls-15, .cls-16, .cls-17, .cls-18, .cls-19, .cls-20, .cls-21 { fill: none; } .cls-1, .cls-2, .cls-4, .cls-5, .cls-6, .cls-7, .cls-8, .cls-9, .cls-10, .cls-11, .cls-12, .cls-13, .cls-14, .cls-17, .cls-18, .cls-19, .cls-20, .cls-21 { stroke-linecap: round; stroke-linejoin: round; } .cls-1, .cls-2, .cls-5, .cls-6, .cls-7, .cls-8, .cls-10, .cls-11, .cls-14, .cls-18, .cls-21 { stroke: #55453d; stroke-width: .15px; } .cls-2 { stroke-dasharray: 1.01 1.01; } .cls-3 { stroke: #afa49f; } .cls-3, .cls-4, .cls-9, .cls-13, .cls-16, .cls-17, .cls-20 { stroke-width: .25px; } .cls-3, .cls-15, .cls-16 { stroke-miterlimit: 10; } .cls-4 { stroke-dasharray: 1.54 1.54; } .cls-4, .cls-9, .cls-13, .cls-20 { stroke: #75655e; } .cls-22 { fill: #3a2a22; } .cls-5 { stroke-dasharray: 1 1; } .cls-6 { stroke-dasharray: 1 1; } .cls-7 { stroke-dasharray: 1.01 1.01; } .cls-23 { fill: #231f20; } .cls-8 { stroke-dasharray: 1.01 1.01; } .cls-9 { stroke-dasharray: 6.08 5.07; } .cls-11 { stroke-dasharray: 1.01 1.01; } .cls-24 { fill: #fff; } .cls-12, .cls-15 { stroke-width: .75px; } .cls-12, .cls-15, .cls-17, .cls-19 { stroke: #3a2a22; } .cls-14 { stroke-dasharray: 1.02 1.02; } .cls-25 { fill: #bc8ebc; } .cls-16 { stroke: #bc8ebc; } .cls-26 { fill: #afa49f; } .cls-18 { stroke-dasharray: 1 1; } .cls-19 { stroke-width: .35px; } .cls-27 { fill: #75655e; } .cls-20 { stroke-dasharray: 1.44 1.44; } .cls-21 { stroke-dasharray: .99 .99; } </style></defs><g id="Layer_1-2" data-name="Layer 1"><g><polygon class="cls-24" points="658.58 336.85 504.87 336.85 504.87 724.85 504.87 730.66 504.86 733.02 479.81 729.8 441.84 724.54 403.95 718.9 366.07 712.99 328.18 706.61 290.48 699.96 239.91 690.69 241.48 682.58 216.19 677.6 179.14 670.02 142.18 662.07 105.22 653.76 68.45 645.16 110.95 556.74 145.42 556.74 145.39 556.74 167.32 185.38 129.15 185.38 119.64 49.74 113.91 50.11 113.91 50.13 111.6 50.29 109.66 23.13 108.07 .38 110.36 .38 117.23 .38 562.62 .38 562.62 141.29 658.53 141.29 658.58 336.85"></polygon><line class="cls-10" x1="227.93" y1="679.91" x2="227.83" y2="680.4"></line><line class="cls-5" x1="227.64" y1="681.38" x2="226.58" y2="686.76"></line><line class="cls-10" x1="226.48" y1="687.25" x2="226.38" y2="687.74"></line><line class="cls-10" x1="215.82" y1="677.52" x2="215.73" y2="678.01"></line><line class="cls-21" x1="215.53" y1="678.99" x2="214.47" y2="684.35"></line><line class="cls-10" x1="214.38" y1="684.84" x2="214.28" y2="685.33"></line><line class="cls-10" x1="205.11" y1="675.38" x2="205.01" y2="675.87"></line><line class="cls-6" x1="204.82" y1="676.84" x2="203.76" y2="682.21"></line><line class="cls-10" x1="203.66" y1="682.7" x2="203.56" y2="683.19"></line><line class="cls-10" x1="196.24" y1="673.53" x2="196.13" y2="674.02"></line><line class="cls-7" x1="195.93" y1="675" x2="194.8" y2="680.42"></line><line class="cls-10" x1="194.69" y1="680.91" x2="194.59" y2="681.4"></line><line class="cls-10" x1="188.48" y1="671.96" x2="188.37" y2="672.45"></line><line class="cls-8" x1="188.17" y1="673.44" x2="187.03" y2="678.87"></line><line class="cls-10" x1="186.93" y1="679.36" x2="186.82" y2="679.85"></line><line class="cls-10" x1="181.82" y1="670.57" x2="181.72" y2="671.06"></line><line class="cls-14" x1="181.51" y1="672.06" x2="180.37" y2="677.53"></line><polyline class="cls-10" points="180.26 678.03 180.16 678.52 180.65 678.62"></polyline><line class="cls-14" x1="181.65" y1="678.82" x2="238.97" y2="690.25"></line><line class="cls-10" x1="239.47" y1="690.35" x2="239.96" y2="690.45"></line><polygon class="cls-19" points="290.48 685.91 254.63 679.26 218.97 672.24 183.3 664.94 147.73 657.36 112.15 649.41 76.76 641.19 114.65 562.56 145.05 562.56 145.05 560.56 113.39 560.56 73.88 642.57 111.72 651.37 147.31 659.32 182.9 666.9 218.58 674.2 254.27 681.23 290.48 687.95 290.48 685.91"></polygon><polygon class="cls-19" points="123.61 23.13 134.51 179.65 173.23 179.65 173.23 185.38 171.23 185.38 171.23 181.65 132.65 181.65 121.62 23.27 123.61 23.13"></polygon><g><path class="cls-10" d="M330.78,133.45c23.13,0,39.35,18.61,39.35,41.58"></path><path class="cls-10" d="M311.2,596.01c23.13,0,39.35-18.61,39.35-41.58"></path><path class="cls-10" d="M224.68,604.14c-23.13,0-39.35-18.61-39.35-41.58"></path><path class="cls-10" d="M165.75,164.67c0-23.13,18.61-39.35,41.58-39.35"></path><path class="cls-10" d="M515.66,168.18c0-23.13-18.61-39.35-41.58-39.35"></path><path class="cls-10" d="M484.6,228.72c-23.13,0-39.35,18.61-39.35,41.58"></path><path class="cls-10" d="M600.58,211.39c0,26.48,21.47,45.05,47.95,45.05"></path></g><line class="cls-10" x1="648.53" y1="211.39" x2="648.53" y2="256.44"></line><line class="cls-10" x1="658.54" y1="208.41" x2="658.54" y2="256.44"></line><rect class="cls-19" x="328.55" y="133.45" width="2.23" height="41.58"></rect><rect class="cls-19" x="308.96" y="554.43" width="2.23" height="41.58"></rect><rect class="cls-19" x="224.68" y="562.56" width="2.23" height="41.58"></rect><rect class="cls-19" x="165.75" y="164.67" width="41.58" height="2.23"></rect><rect class="cls-19" x="474.08" y="168.18" width="41.58" height="2.23"></rect><rect class="cls-19" x="484.6" y="228.72" width="2.23" height="41.58"></rect><rect class="cls-19" x="402.47" y="112.09" width="41.58" height="2.23"></rect><rect class="cls-19" x="600.58" y="208.48" width="47.95" height="2.91"></rect><rect class="cls-19" x="575.72" y="198.76" width="69.3" height="2.23"></rect><line class="cls-19" x1="610.37" y1="198.76" x2="610.37" y2="201"></line><rect class="cls-19" x="438.32" y="552.2" width="34.65" height="2.23"></rect><rect class="cls-19" x="403.67" y="549.96" width="34.65" height="2.23"></rect><rect class="cls-19" x="570.07" y="205.62" width="2.23" height="62.37"></rect><line class="cls-19" x1="572.3" y1="236.8" x2="570.07" y2="236.8"></line><line class="cls-13" x1="416.33" y1="382.29" x2="415.58" y2="382.29"></line><line class="cls-20" x1="414.14" y1="382.29" x2="388.9" y2="382.29"></line><polyline class="cls-13" points="388.18 382.29 387.43 382.29 387.43 381.54"></polyline><line class="cls-4" x1="387.43" y1="380" x2="387.43" y2="356.19"></line><polyline class="cls-13" points="387.43 355.43 387.43 354.68 388.18 354.68"></polyline><line class="cls-20" x1="389.62" y1="354.68" x2="414.86" y2="354.68"></line><line class="cls-13" x1="415.58" y1="354.68" x2="416.33" y2="354.68"></line><line class="cls-13" x1="416.33" y1="464.98" x2="415.58" y2="464.98"></line><line class="cls-20" x1="414.14" y1="464.98" x2="388.9" y2="464.98"></line><polyline class="cls-13" points="388.18 464.98 387.43 464.98 387.43 464.23"></polyline><line class="cls-4" x1="387.43" y1="462.69" x2="387.43" y2="438.89"></line><polyline class="cls-13" points="387.43 438.12 387.43 437.37 388.18 437.37"></polyline><line class="cls-20" x1="389.62" y1="437.37" x2="414.86" y2="437.37"></line><line class="cls-13" x1="415.58" y1="437.37" x2="416.33" y2="437.37"></line><line class="cls-13" x1="479.06" y1="368.81" x2="479.06" y2="371.81"></line><line class="cls-9" x1="479.06" y1="376.88" x2="479.06" y2="463.52"></line><line class="cls-13" x1="479.06" y1="466.05" x2="479.06" y2="469.05"></line><line class="cls-19" x1="467.15" y1="511.37" x2="467.15" y2="332.67"></line><line class="cls-19" x1="467.15" y1="368.81" x2="494.58" y2="368.82"></line><line class="cls-19" x1="467.15" y1="469.05" x2="494.57" y2="469.05"></line><line class="cls-19" x1="469.65" y1="368.81" x2="469.65" y2="332.67"></line><rect class="cls-19" x="366.76" y="351.15" width="49.58" height="117.81"></rect><g><rect class="cls-19" x="385.09" y="417.25" width="11.07" height="1.74" rx=".59" ry=".59"></rect><circle class="cls-19" cx="402.96" cy="418.12" r=".9"></circle></g><polyline class="cls-19" points="386.41 418.99 386.41 421.42 389.26 421.42 389.26 418.99"></polyline><line class="cls-19" x1="389.26" y1="420.56" x2="386.41" y2="420.56"></line><polyline class="cls-19" points="391.57 418.99 391.57 431.05 413.33 431.05 413.33 405.2 391.57 405.2 391.57 417.25"></polyline><polyline class="cls-19" points="392.65 417.25 392.65 406.28 412.25 406.28 412.25 429.97 392.65 429.97 392.65 418.99"></polyline><rect class="cls-19" x="610.69" y="154.22" width="30.61" height="38.03"></rect><line class="cls-19" x1="469.65" y1="469.05" x2="469.65" y2="511.37"></line><polyline class="cls-19" points="389.81 225.83 414.83 225.83 414.83 270.25"></polyline><g><path class="cls-19" d="M390.9,195.35h5.29c.6,0,1.08.48,1.08,1.08v15.44c0,.6-.48,1.08-1.08,1.08h-5.29c-.6,0-1.08-.48-1.08-1.08v-15.44c0-.6.48-1.08,1.08-1.08Z"></path><path class="cls-19" d="M401.41,199.69c0-.28.11-.54.32-.73,2.09-1.88,5.3-3.09,8.9-3.09,6.31,0,11.42,3.71,11.42,8.28s-5.11,8.28-11.42,8.28c-3.59,0-6.8-1.2-8.9-3.08-.21-.19-.32-.46-.32-.73v-8.92Z"></path></g><line class="cls-19" x1="410.63" y1="195.88" x2="397.11" y2="195.88"></line><line class="cls-19" x1="410.63" y1="212.43" x2="397.11" y2="212.43"></line><path class="cls-19" d="M397.88,243.84v9.87c0,.4.32.72.72.72h10.9c.4,0,.72-.32.72-.72v-20.82c0-.4-.32-.72-.72-.72h-10.9c-.4,0-.72.32-.72.72v9.48"></path><rect class="cls-19" x="394.43" y="242.37" width="5.89" height="1.47"></rect><circle class="cls-19" cx="404.05" cy="243.1" r=".84"></circle><polyline class="cls-19" points="527.21 169.77 527.22 92.43 552.62 92.44"></polyline><path class="cls-19" d="M544.28,113.18v-9.87c0-.4-.32-.72-.72-.72h-10.9c-.4,0-.72.32-.72.72v20.82c0,.4.32.72.72.72h10.9c.4,0,.72-.32.72-.72v-9.48"></path><rect class="cls-19" x="541.84" y="113.18" width="5.89" height="1.47"></rect><g><circle class="cls-19" cx="538.11" cy="113.91" r=".84"></circle><path class="cls-19" d="M544.28,147.94v-9.87c0-.4-.32-.72-.72-.72h-10.9c-.4,0-.72.32-.72.72v20.82c0,.4.32.72.72.72h10.9c.4,0,.72-.32.72-.72v-9.48"></path></g><rect class="cls-19" x="541.84" y="147.94" width="5.89" height="1.47"></rect><circle class="cls-19" cx="538.1" cy="148.67" r=".84"></circle><line class="cls-19" x1="476.39" y1="51.96" x2="551.8" y2="51.97"></line><line class="cls-19" x1="476.39" y1="51.96" x2="552.62" y2="51.97"></line><line class="cls-19" x1="476.39" y1="50.67" x2="552.62" y2="50.68"></line><line class="cls-19" x1="481.08" y1="50.67" x2="481.08" y2="51.96"></line><line class="cls-19" x1="519.08" y1="50.68" x2="519.08" y2="51.96"></line><line class="cls-19" x1="539.24" y1="10.38" x2="539.24" y2="50.68"></line><g><path class="cls-19" d="M489.49,30.53c0,.67-.54,1.21-1.21,1.21s-1.21-.54-1.21-1.21.54-1.21,1.21-1.21,1.21.54,1.21,1.21Z"></path><path class="cls-19" d="M493.46,30.53c0,2.86-2.32,5.18-5.18,5.18s-5.18-2.32-5.18-5.18,2.32-5.18,5.18-5.18,5.18,2.32,5.18,5.18Z"></path><path class="cls-19" d="M545.17,80.19v-15.44c0-.6.48-1.08,1.08-1.08h5.29c.6,0,1.08.48,1.08,1.08v15.44c0,.6-.48,1.08-1.08,1.08h-5.29c-.6,0-1.08-.48-1.08-1.08Z"></path><path class="cls-19" d="M541.02,76.92c0,.28-.11.54-.32.73-2.09,1.88-5.3,3.09-8.9,3.08-6.31,0-11.42-3.7-11.42-8.28s5.11-8.27,11.42-8.27c3.6,0,6.8,1.2,8.9,3.08.21.19.32.46.32.73v8.92Z"></path></g><line class="cls-19" x1="531.8" y1="80.74" x2="545.32" y2="80.74"></line><line class="cls-19" x1="531.81" y1="64.19" x2="545.33" y2="64.19"></line><polyline class="cls-19" points="603.44 167.46 603.44 195.35 575.72 195.35"></polyline><line class="cls-19" x1="507.74" y1="199.06" x2="510.95" y2="199.06"></line><g><path class="cls-19" d="M512.15,199.06h11.6c1.38,0,2.5,1.12,2.5,2.5v61.83c0,1.38-1.12,2.5-2.5,2.5h-24.04c-1.38,0-2.5-1.12-2.5-2.5v-61.83c0-1.38,1.12-2.5,2.5-2.5h8.37"></path><path class="cls-19" d="M511.29,195.03v10.86c0,.24.19.43.43.43s.43-.19.43-.43v-10.81"></path><path class="cls-19" d="M512.15,204.81c.46.17.79.61.79,1.14,0,.67-.54,1.21-1.21,1.21s-1.21-.54-1.21-1.21c0-.51.32-.95.77-1.13"></path><path class="cls-19" d="M512.15,200.78c2.67.22,4.76,2.45,4.76,5.17,0,2.86-2.32,5.18-5.18,5.18s-5.18-2.32-5.18-5.18c0-2.72,2.09-4.94,4.74-5.17"></path></g><rect class="cls-19" x="509.19" y="194.07" width="5.08" height=".97"></rect><line class="cls-19" x1="492.74" y1="194.07" x2="492.74" y2="270.3"></line><line class="cls-19" x1="491.45" y1="194.07" x2="491.46" y2="270.25"></line><line class="cls-19" x1="491.45" y1="198.75" x2="492.74" y2="198.75"></line><line class="cls-19" x1="491.45" y1="236.75" x2="492.74" y2="236.75"></line><rect class="cls-19" x="468.43" y="407.37" width="24.28" height="36.98"></rect><rect class="cls-19" x="469.51" y="408.45" width="22.12" height="34.82"></rect><path class="cls-19" d="M470.27,425.86c0-.71.57-1.28,1.28-1.28s1.28.57,1.28,1.28c0,.71-.57,1.28-1.28,1.28s-1.28-.57-1.28-1.28Z"></path><line class="cls-19" x1="469.51" y1="408.45" x2="468.43" y2="407.37"></line><line class="cls-19" x1="469.52" y1="443.27" x2="468.44" y2="444.35"></line><line class="cls-19" x1="491.63" y1="443.27" x2="492.71" y2="444.34"></line><line class="cls-19" x1="491.63" y1="408.45" x2="492.71" y2="407.37"></line><polygon class="cls-19" points="471.55 426.91 472.6 425.86 471.55 424.81 470.49 425.86 471.55 426.91"></polygon><line class="cls-19" x1="472.6" y1="425.86" x2="470.49" y2="425.86"></line><g><path class="cls-17" d="M553.33,220.49c1.51-.03,3.03-.06,4.57-.13.8-.04,1.6-.09,2.35-.13.57-.03,1.11-.07,1.78-.16.65-.09,1.42-.25,1.73.23.07.11.12.25.13.38.06.77-1.18.9-2.24.97-2.35.15-3.74-.04-5.44-.16-.9-.06-1.9-.1-2.89-.14-.99.04-1.98.08-2.89.14-1.7.12-3.09.3-5.44.16-1.05-.07-2.3-.2-2.24-.97.01-.13.06-.27.12-.38.31-.48,1.08-.33,1.73-.23.67.1,1.21.13,1.78.16.75.04,1.56.09,2.35.13,1.55.07,3.06.1,4.57.13Z"></path><path class="cls-17" d="M553.33,225.19c1.51-.03,3.03-.06,4.57-.13.8-.04,1.6-.09,2.35-.13.57-.03,1.11-.07,1.78-.16.65-.09,1.42-.25,1.73.23.07.11.12.25.13.38.06.77-1.18.9-2.24.97-2.35.15-3.74-.04-5.44-.16-.9-.06-1.9-.1-2.89-.14-.99.04-1.98.08-2.89.14-1.7.12-3.09.3-5.44.16-1.05-.07-2.3-.2-2.24-.97.01-.13.06-.27.12-.38.31-.48,1.08-.33,1.73-.23.67.1,1.21.13,1.78.16.75.04,1.56.09,2.35.13,1.55.07,3.06.1,4.57.13Z"></path><path class="cls-17" d="M553.33,229.88c1.51-.03,3.03-.06,4.57-.13.8-.04,1.6-.09,2.35-.13.57-.03,1.11-.07,1.78-.16.65-.09,1.42-.25,1.73.23.07.11.12.25.13.38.06.77-1.18.9-2.24.97-2.35.15-3.74-.04-5.44-.16-.9-.06-1.9-.1-2.89-.14-.99.04-1.98.08-2.89.14-1.7.12-3.09.3-5.44.16-1.05-.07-2.3-.2-2.24-.97.01-.13.06-.27.12-.38.31-.48,1.08-.32,1.73-.23.67.1,1.21.13,1.78.16.75.04,1.56.09,2.35.13,1.55.07,3.06.1,4.57.13Z"></path></g><line class="cls-17" x1="553.33" y1="270.3" x2="553.33" y2="180.76"></line><g><path class="cls-17" d="M461.44,535.93c.03,1.51.06,3.03.13,4.57.04.8.09,1.6.13,2.36.03.57.07,1.11.16,1.78.09.65.25,1.42-.23,1.73-.11.07-.25.12-.38.13-.77.06-.9-1.18-.97-2.24-.15-2.35.04-3.74.16-5.44.06-.9.1-1.89.14-2.89-.04-.99-.08-1.98-.14-2.89-.11-1.7-.3-3.09-.16-5.44.07-1.05.2-2.3.97-2.24.13,0,.27.06.38.13.48.31.32,1.08.23,1.73-.1.67-.13,1.21-.16,1.78-.04.75-.09,1.56-.13,2.35-.07,1.55-.1,3.06-.13,4.57Z"></path><path class="cls-17" d="M456.74,535.93c.03,1.51.06,3.03.13,4.57.04.8.09,1.6.13,2.36.03.57.07,1.11.16,1.78.09.65.25,1.42-.23,1.73-.11.07-.25.12-.38.13-.77.06-.9-1.18-.97-2.24-.15-2.35.04-3.74.16-5.44.06-.9.1-1.89.14-2.89-.04-.99-.08-1.98-.14-2.89-.11-1.7-.3-3.09-.16-5.44.07-1.05.2-2.3.97-2.24.13,0,.27.06.38.13.48.31.32,1.08.23,1.73-.1.67-.13,1.21-.16,1.78-.05.75-.09,1.56-.13,2.35-.07,1.55-.1,3.06-.13,4.57Z"></path><path class="cls-17" d="M452.05,535.93c.03,1.51.06,3.03.13,4.57.04.8.09,1.6.13,2.36.03.57.07,1.11.16,1.78.09.65.25,1.42-.23,1.73-.11.07-.25.12-.38.13-.77.06-.9-1.18-.97-2.24-.15-2.35.04-3.74.16-5.44.06-.9.1-1.89.14-2.89-.04-.99-.08-1.98-.14-2.89-.11-1.7-.3-3.09-.16-5.44.07-1.05.2-2.3.97-2.24.13,0,.27.06.38.13.48.31.32,1.08.23,1.73-.1.67-.13,1.21-.16,1.78-.04.75-.09,1.56-.13,2.35-.07,1.55-.1,3.06-.13,4.57Z"></path></g><line class="cls-17" x1="384.71" y1="535.93" x2="494.37" y2="535.93"></line><g><path class="cls-17" d="M424.69,535.93c.03,1.51.06,3.03.13,4.57.04.8.09,1.6.13,2.36.03.57.07,1.11.16,1.78.09.65.25,1.42-.23,1.73-.11.07-.25.12-.38.13-.77.06-.9-1.18-.97-2.24-.15-2.35.04-3.74.16-5.44.06-.9.1-1.89.14-2.89-.04-.99-.08-1.98-.14-2.89-.11-1.7-.3-3.09-.16-5.44.07-1.05.2-2.3.97-2.24.13,0,.27.06.38.13.48.31.32,1.08.23,1.73-.1.67-.13,1.21-.16,1.78-.04.75-.09,1.56-.13,2.35-.07,1.55-.1,3.06-.13,4.57Z"></path><path class="cls-17" d="M420,535.93c.03,1.51.06,3.03.13,4.57.04.8.09,1.6.13,2.36.03.57.07,1.11.16,1.78.09.65.25,1.42-.23,1.73-.11.07-.25.12-.38.13-.77.06-.9-1.18-.97-2.24-.15-2.35.04-3.74.16-5.44.06-.9.1-1.89.14-2.89-.04-.99-.08-1.98-.14-2.89-.11-1.7-.3-3.09-.16-5.44.07-1.05.2-2.3.97-2.24.13,0,.27.06.38.13.48.31.32,1.08.23,1.73-.1.67-.13,1.21-.16,1.78-.04.75-.09,1.56-.13,2.35-.07,1.55-.1,3.06-.13,4.57Z"></path><path class="cls-17" d="M415.3,535.93c.03,1.51.06,3.03.13,4.57.04.8.09,1.6.13,2.36.03.57.07,1.11.16,1.78.09.65.25,1.42-.23,1.73-.11.07-.25.12-.38.13-.77.06-.9-1.18-.97-2.24-.15-2.35.04-3.74.16-5.44.06-.9.1-1.89.14-2.89-.04-.99-.08-1.98-.14-2.89-.11-1.7-.3-3.09-.16-5.44.07-1.05.2-2.3.97-2.24.13,0,.27.06.38.13.48.31.32,1.08.23,1.73-.1.67-.13,1.21-.16,1.78-.04.75-.09,1.56-.13,2.35-.07,1.55-.1,3.06-.13,4.57Z"></path></g><line class="cls-17" x1="215.36" y1="123.01" x2="215.36" y2="15"></line><line class="cls-17" x1="110.36" y1=".38" x2="117.24" y2=".38"></line><polyline class="cls-17" points="117.79 23.13 129.15 185.38 173.23 185.38"></polyline><polyline class="cls-17" points="465.07 719.57 458.65 718.71 418.55 712.98 378.45 706.79 338.44 700.23 298.52 693.21 298.52 570.6"></polyline><line class="cls-17" x1="504.87" y1="730.66" x2="504.87" y2="724.85"></line><polyline class="cls-17" points="290.48 691.73 253.25 684.89 216.19 677.6 179.14 670.02 142.18 662.07 105.22 653.76 68.45 645.16 110.95 556.74 145.42 556.74 145.05 562.56"></polyline><polyline class="cls-17" points="183.02 554.43 153.64 554.43 174.98 193.51 215.36 193.51"></polyline><polygon class="cls-12" points="147.54 560.25 169.53 187.69 209.64 187.69 209.64 169.21 207.33 169.21 207.33 185.38 167.32 185.38 145.05 562.56 183.02 562.56 183.02 560.25 147.54 560.25"></polygon><polygon class="cls-12" points="111.78 20.82 110.36 .38 108.07 .38 109.66 23.13 207.33 23.13 207.33 123.01 209.64 123.01 209.64 20.82 111.78 20.82"></polygon><polygon class="cls-12" points="109.66 23.13 111.6 50.29 113.91 50.13 113.91 50.11 111.97 23.13 109.66 23.13"></polygon><polygon class="cls-12" points="504.87 730.66 480.09 727.49 442.48 722.32 404.97 716.77 367.55 710.86 330.12 704.67 292.79 698.11 292.79 570.6 290.48 570.6 290.48 699.96 328.18 706.61 366.07 712.99 403.95 718.9 441.84 724.54 479.81 729.8 504.86 733.02 504.87 730.66"></polygon><polygon class="cls-12" points="240.35 688.34 290.49 697.65 290.49 699.96 239.91 690.69 240.35 688.34"></polygon><line class="cls-10" x1="122.04" y1="83.74" x2="121.54" y2="83.78"></line><line class="cls-11" x1="120.53" y1="83.85" x2="115" y2="84.23"></line><polyline class="cls-10" points="114.5 84.26 114 84.3 113.97 83.8"></polyline><line class="cls-1" x1="113.9" y1="82.8" x2="111.67" y2="51.29"></line><line class="cls-10" x1="111.63" y1="50.79" x2="111.6" y2="50.29"></line><line class="cls-10" x1="113.65" y1="79.4" x2="114.15" y2="79.36"></line><line class="cls-18" x1="115.16" y1="79.29" x2="120.67" y2="78.91"></line><line class="cls-10" x1="121.17" y1="78.88" x2="121.67" y2="78.84"></line><line class="cls-10" x1="113.88" y1="82.63" x2="114.38" y2="82.59"></line><line class="cls-11" x1="115.39" y1="82.52" x2="120.92" y2="82.14"></line><line class="cls-10" x1="121.42" y1="82.11" x2="121.92" y2="82.07"></line><line class="cls-10" x1="113.31" y1="74.5" x2="113.81" y2="74.46"></line><line class="cls-11" x1="114.81" y1="74.39" x2="120.35" y2="74.01"></line><line class="cls-10" x1="120.85" y1="73.98" x2="121.35" y2="73.94"></line><line class="cls-10" x1="112.84" y1="67.85" x2="113.34" y2="67.81"></line><line class="cls-1" x1="114.34" y1="67.74" x2="119.84" y2="67.36"></line><line class="cls-10" x1="120.34" y1="67.33" x2="120.84" y2="67.29"></line><line class="cls-10" x1="112.27" y1="59.81" x2="112.77" y2="59.77"></line><line class="cls-2" x1="113.78" y1="59.7" x2="119.32" y2="59.32"></line><line class="cls-10" x1="119.82" y1="59.29" x2="120.32" y2="59.25"></line><rect class="cls-12" x="209.63" y="53.71" width="5.73" height="2.31"></rect><rect class="cls-12" x="207.32" y="123.01" width="8.04" height="2.31"></rect><rect class="cls-12" x="206.12" y="15" width="2.31" height="5.82"></rect><rect class="cls-12" x="164.54" y="15" width="2.31" height="5.82"></rect><rect class="cls-12" x="209.63" y="21.93" width="5.73" height="2.31"></rect><polyline class="cls-12" points="119.64 49.74 113.91 50.11 113.72 47.8 119.45 47.43 119.64 49.74"></polyline><polyline class="cls-12" points="111.69 19.25 111.78 20.82 113.45 20.82 118.81 15 117.23 15 117.14 13.42 111.69 19.25"></polyline><polyline class="cls-12" points="174.89 191.76 173.41 190.19 171.1 187.69 169.53 187.69 169.44 189.26 171.75 191.76 171.66 191.76 173.51 193.7 174.52 194.71 174.8 195.08 174.98 193.51 176.56 193.51 175.45 192.31 174.89 191.76"></polyline><rect class="cls-12" x="183.02" y="554.43" width="2.31" height="8.13"></rect><polyline class="cls-12" points="154.56 440.87 160.29 441.24 160.2 443.55 154.47 443.18 154.56 440.87"></polyline><polyline class="cls-12" points="158.63 371.75 164.45 372.03 164.27 374.34 158.54 374.06 158.63 371.75"></polyline><polyline class="cls-12" points="162.7 302.54 168.52 302.91 168.33 305.22 162.6 304.85 162.7 302.54"></polyline><polyline class="cls-12" points="166.76 233.34 172.58 233.71 172.4 236.02 166.67 235.65 166.76 233.34"></polyline><polyline class="cls-12" points="155.3 554.43 153.64 554.43 153.73 552.76 147.63 558.49 147.54 560.25 149.21 560.25 155.3 554.43"></polyline><rect class="cls-12" x="207.32" y="166.9" width="8.04" height="2.31"></rect><rect class="cls-12" x="209.63" y="184.27" width="5.73" height="2.31"></rect><rect class="cls-12" x="205.01" y="187.69" width="2.31" height="5.82"></rect><polyline class="cls-12" points="150.5 510.07 156.23 510.44 156.13 512.75 150.31 512.38 150.5 510.07"></polyline><rect class="cls-12" x="226.91" y="554.43" width="2.31" height="8.13"></rect><rect class="cls-12" x="292.79" y="584.46" width="5.73" height="2.31"></rect><polyline class="cls-12" points="466.6 719.82 465.77 725.55 463.55 725.18 464.29 719.55 466.6 719.82"></polyline><polyline class="cls-12" points="398.13 709.84 397.21 715.57 394.99 715.2 395.82 709.47 398.13 709.84"></polyline><polyline class="cls-12" points="329.85 698.76 328.83 704.39 326.61 704.02 327.54 698.29 329.85 698.76"></polyline><rect class="cls-12" x="292.79" y="570.6" width="5.73" height="2.31"></rect><rect class="cls-12" x="292.79" y="632.5" width="5.73" height="2.31"></rect><polyline class="cls-12" points="292.79 696.54 292.79 698.11 294.27 698.29 300 693.49 298.52 693.21 298.52 691.73 292.79 696.54"></polyline><polygon class="cls-12" points="243.79 683.03 242.67 688.77 240.35 688.34 241.48 682.58 243.79 683.03"></polygon><polygon class="cls-22" points="324.49 199.24 324.49 180.76 328.55 180.76 328.55 175.03 324.49 175.03 221.19 175.03 221.19 168.1 215.36 168.1 215.36 193.51 207.33 193.51 207.33 199.24 215.36 199.24 324.49 199.24"></polygon><polygon class="cls-15" points="324.49 199.24 324.49 180.76 328.55 180.76 328.55 175.03 324.49 175.03 221.19 175.03 221.19 168.1 215.36 168.1 215.36 193.51 207.33 193.51 207.33 199.24 215.36 199.24 324.49 199.24"></polygon><polygon class="cls-22" points="648.53 208.48 648.53 201 645.02 201 645.02 195.18 648.53 195.18 648.53 151.29 603.44 151.29 603.44 167.46 572.3 167.46 572.3 195.18 575.72 195.18 575.72 201 572.3 201 572.3 205.62 566.48 205.62 566.48 180.76 538.76 180.76 538.76 270.3 566.48 270.3 566.48 267.99 572.3 267.99 572.3 276.03 486.83 276.03 486.83 270.3 530.72 270.3 530.72 194.07 491.45 194.07 491.45 180.76 389.81 180.76 389.81 270.25 445.25 270.25 445.25 276.03 381.68 276.03 381.68 180.76 370.13 180.76 370.13 175.03 468.35 175.03 468.35 170.41 474.08 170.41 474.08 175.03 527.21 175.03 527.21 169.77 552.62 169.77 552.62 10.38 476.39 10.38 476.39 51.96 474.08 51.96 474.08 128.83 468.35 128.83 468.35 114.33 444.05 114.33 444.05 108.6 468.35 108.6 468.35 10.38 397.85 10.38 397.85 108.6 402.47 108.6 402.47 114.33 392.12 114.33 392.12 18.51 221.18 18.51 221.18 23.13 215.36 23.13 215.36 14.99 117.23 14.99 117.23 .38 562.62 .38 562.62 141.29 658.53 141.29 658.53 208.48 648.53 208.48"></polygon><polygon class="cls-15" points="648.53 208.48 648.53 201 645.02 201 645.02 195.18 648.53 195.18 648.53 151.29 603.44 151.29 603.44 167.46 572.3 167.46 572.3 195.18 575.72 195.18 575.72 201 572.3 201 572.3 205.62 566.48 205.62 566.48 180.76 538.76 180.76 538.76 270.3 566.48 270.3 566.48 267.99 572.3 267.99 572.3 276.03 486.83 276.03 486.83 270.3 530.72 270.3 530.72 194.07 491.45 194.07 491.45 180.76 389.81 180.76 389.81 270.25 445.25 270.25 445.25 276.03 381.68 276.03 381.68 180.76 370.13 180.76 370.13 175.03 468.35 175.03 468.35 170.41 474.08 170.41 474.08 175.03 527.21 175.03 527.21 169.77 552.62 169.77 552.62 10.38 476.39 10.38 476.39 51.96 474.08 51.96 474.08 128.83 468.35 128.83 468.35 114.33 444.05 114.33 444.05 108.6 468.35 108.6 468.35 10.38 397.85 10.38 397.85 108.6 402.47 108.6 402.47 114.33 392.12 114.33 392.12 18.51 221.18 18.51 221.18 23.13 215.36 23.13 215.36 14.99 117.23 14.99 117.23 .38 562.62 .38 562.62 141.29 658.53 141.29 658.53 208.48 648.53 208.48"></polygon><polygon class="cls-22" points="658.54 256.44 648.58 256.44 648.58 281.85 641.6 281.85 641.6 326.85 467.15 326.85 467.15 332.67 494.58 332.67 494.58 511.37 467.15 511.37 467.15 515.16 378.43 515.16 378.43 548.7 350.55 548.7 350.55 554.43 403.68 554.43 403.68 548.7 384.16 548.7 384.16 520.98 494.87 520.98 494.87 548.7 472.98 548.7 472.98 554.43 489.7 554.43 489.7 717.05 466.23 713.91 465.4 719.64 504.87 724.85 504.87 336.85 658.58 336.85 658.55 256.44 658.54 256.44"></polygon><polygon class="cls-15" points="658.54 256.44 648.58 256.44 648.58 281.85 641.6 281.85 641.6 326.85 467.15 326.85 467.15 332.67 494.58 332.67 494.58 511.37 467.15 511.37 467.15 515.16 378.43 515.16 378.43 548.7 350.55 548.7 350.55 554.43 403.68 554.43 403.68 548.7 384.16 548.7 384.16 520.98 494.87 520.98 494.87 548.7 472.98 548.7 472.98 554.43 489.7 554.43 489.7 717.05 466.23 713.91 465.4 719.64 504.87 724.85 504.87 336.85 658.58 336.85 658.55 256.44 658.54 256.44"></polygon><polygon class="cls-22" points="229.22 548.7 308.96 548.7 308.96 554.43 304.34 554.43 304.34 585.47 298.52 585.47 298.52 570.6 229.22 570.6 229.22 548.7"></polygon><polygon class="cls-15" points="229.22 548.7 308.96 548.7 308.96 554.43 304.34 554.43 304.34 585.47 298.52 585.47 298.52 570.6 229.22 570.6 229.22 548.7"></polygon><g><path class="cls-25" d="M670.42,232.57c-.08-.02-.14-.07-.14-.14s.06-.13.14-.14c3.3-.56,4.94-2.74,4.94-6.02v-3.84c0-1.16,1.01-1.98,2.66-2.2.33-.05.61.23.45.47-.31.46-.47,1.06-.47,1.78v3.48c0,2.95-1.67,5.22-4.98,6.17-.37.11-.37.5,0,.61,3.31.96,4.98,3.22,4.98,6.18v3.48c0,.72.16,1.32.47,1.78.16.23-.12.51-.45.47-1.64-.22-2.66-1.05-2.66-2.21v-3.84c0-3.29-1.64-5.47-4.94-6.02h0Z"></path><path class="cls-16" d="M670.42,232.57c-.08-.02-.14-.07-.14-.14s.06-.13.14-.14c3.3-.56,4.94-2.74,4.94-6.02v-3.84c0-1.16,1.01-1.98,2.66-2.2.33-.05.61.23.45.47-.31.46-.47,1.06-.47,1.78v3.48c0,2.95-1.67,5.22-4.98,6.17-.37.11-.37.5,0,.61,3.31.96,4.98,3.22,4.98,6.18v3.48c0,.72.16,1.32.47,1.78.16.23-.12.51-.45.47-1.64-.22-2.66-1.05-2.66-2.21v-3.84c0-3.29-1.64-5.47-4.94-6.02h0Z"></path></g><path class="cls-22" d="M616.4,170.06h.65l1.71,6.06,1.76-5.7h.63l1.76,5.7,1.7-6.06h.65l-2.01,6.98h-.63l-1.79-5.71-1.79,5.71h-.64l-2.01-6.98Z"></path><path class="cls-22" d="M628.68,169.06h.48l-3.55,9.08h-.47l3.55-9.08Z"></path><path class="cls-22" d="M630.38,170.06h1.87c2.26,0,3.56,1.29,3.56,3.54s-1.27,3.43-3.57,3.43h-1.86v-6.98ZM632.19,176.46c1.92,0,2.99-.89,2.99-2.88s-1.08-2.95-2.94-2.95h-1.24v5.83h1.19Z"></path><path class="cls-22" d="M586.66,178.26h.62v6.42h3.22v.56h-3.84v-6.98Z"></path><g><path class="cls-22" d="M254.09,91.87h2.52c1.9,0,2.97.89,2.97,2.53s-1.07,2.54-2.97,2.54h-1.72v3.99h-.8v-9.06ZM256.53,96.22c1.41,0,2.24-.61,2.24-1.81s-.81-1.81-2.24-1.81h-1.64v3.62h1.64Z"></path><path class="cls-22" d="M261.1,94.53h.78v1.09c.43-.78,1.31-1.18,2.02-1.18.33,0,.66.07.99.24l-.39.7c-.21-.1-.51-.17-.77-.17-.68,0-1.46.36-1.74,1.3-.08.27-.12.57-.12,1.27v3.15h-.78v-6.41Z"></path><path class="cls-22" d="M266.15,91.87h.94v1.39h-.94v-1.39ZM266.24,94.53h.77v6.41h-.77v-6.41Z"></path><path class="cls-22" d="M269.04,94.53h.78v1.1c.38-.85,1.11-1.19,1.88-1.19.91,0,1.57.4,1.89,1.25.4-.83,1.09-1.25,2-1.25,1.55,0,2.13,1.16,2.13,2.69v3.82h-.78v-3.64c0-1.33-.39-2.18-1.52-2.18-1.02,0-1.65.77-1.65,2.26v3.57h-.78v-3.76c0-1.4-.52-2.07-1.5-2.07-1.03,0-1.67.79-1.67,2.26v3.57h-.78v-6.41Z"></path><path class="cls-22" d="M283.87,99.73c-.43.82-1.25,1.29-2.25,1.29-1.44,0-2.31-.77-2.31-1.94,0-.69.29-1.16.72-1.44.46-.31,1.09-.42,1.77-.42h2.05v-.28c0-1.19-.62-1.83-1.82-1.83-.79,0-1.4.29-1.98,1.02l-.56-.48c.68-.85,1.53-1.22,2.59-1.22,1.63,0,2.54.89,2.54,2.51v3.99h-.71l-.04-1.2ZM281.69,100.38c1.18,0,2.17-.93,2.17-2.2v-.36h-1.95c-.51,0-1.03.08-1.37.33-.28.21-.44.51-.44.94,0,.79.6,1.3,1.6,1.3Z"></path><path class="cls-22" d="M286.58,94.53h.78v1.09c.43-.78,1.31-1.18,2.02-1.18.33,0,.66.07.99.24l-.39.7c-.21-.1-.51-.17-.77-.17-.68,0-1.46.36-1.74,1.3-.08.27-.12.57-.12,1.27v3.15h-.78v-6.41Z"></path><path class="cls-22" d="M293.63,100.73l-2.55-6.21h.86l2.1,5.42,2.11-5.42h.85l-3.69,9.05h-.84l1.17-2.84Z"></path><path class="cls-22" d="M301.89,91.87h2.72c1.68,0,2.68.84,2.68,2.25,0,.94-.46,1.68-1.24,2,1.1.25,1.7,1.07,1.7,2.31,0,1.61-1.02,2.5-2.88,2.5h-2.97v-9.06ZM304.86,95.88c.98,0,1.63-.64,1.63-1.64s-.69-1.61-1.88-1.61h-1.91v3.26h2.16ZM304.81,100.19c1.42,0,2.14-.6,2.14-1.79,0-1.13-.66-1.79-1.79-1.79h-2.46v3.58h2.11Z"></path><path class="cls-22" d="M309.22,97.78c0-1.84.99-3.34,2.81-3.34,1.96,0,2.76,1.53,2.76,2.94,0,.1-.01.4-.04.55h-4.76c.03,1.51.84,2.39,2.14,2.39.82,0,1.35-.23,1.91-.83l.55.49c-.73.75-1.43,1.05-2.46,1.05-1.89,0-2.91-1.41-2.91-3.25ZM314.04,97.35c0-.08,0-.16,0-.24,0-.92-.58-2.02-2-2.02-1.23,0-1.98.98-2.07,2.26h4.06Z"></path><path class="cls-22" d="M316.2,97.72c0-1.96,1.29-3.29,2.92-3.29,1.05,0,1.87.54,2.29,1.36v-3.92h.77v9.06h-.77v-1.26c-.44.85-1.25,1.35-2.29,1.35-1.72,0-2.92-1.42-2.92-3.3ZM319.24,100.3c1.3,0,2.23-1.08,2.23-2.58s-.93-2.58-2.23-2.58-2.26,1.09-2.26,2.58.95,2.58,2.26,2.58Z"></path><path class="cls-22" d="M324.22,94.53h.78v1.09c.43-.78,1.31-1.18,2.02-1.18.33,0,.66.07.99.24l-.39.7c-.21-.1-.51-.17-.77-.17-.68,0-1.46.36-1.74,1.3-.08.27-.12.57-.12,1.27v3.15h-.78v-6.41Z"></path><path class="cls-22" d="M328.6,97.72c0-1.92,1.25-3.29,3.05-3.29s3.04,1.37,3.04,3.29-1.27,3.3-3.04,3.3-3.05-1.36-3.05-3.3ZM331.65,100.33c1.37,0,2.26-1.04,2.26-2.61s-.9-2.61-2.26-2.61-2.28,1.05-2.28,2.61.9,2.61,2.28,2.61Z"></path><path class="cls-22" d="M336.13,97.72c0-1.92,1.25-3.29,3.05-3.29s3.04,1.37,3.04,3.29-1.27,3.3-3.04,3.3-3.05-1.36-3.05-3.3ZM339.18,100.33c1.37,0,2.26-1.04,2.26-2.61s-.9-2.61-2.26-2.61-2.28,1.05-2.28,2.61.9,2.61,2.28,2.61Z"></path><path class="cls-22" d="M343.97,94.53h.78v1.1c.38-.85,1.11-1.19,1.88-1.19.91,0,1.57.4,1.89,1.25.4-.83,1.09-1.25,2-1.25,1.55,0,2.13,1.16,2.13,2.69v3.82h-.78v-3.64c0-1.33-.39-2.18-1.52-2.18-1.02,0-1.65.77-1.65,2.26v3.57h-.78v-3.76c0-1.4-.52-2.07-1.5-2.07-1.03,0-1.67.79-1.67,2.26v3.57h-.78v-6.41Z"></path></g><g><path class="cls-22" d="M371.4,618.35h2.72c1.68,0,2.68.84,2.68,2.25,0,.94-.46,1.68-1.24,2,1.1.25,1.7,1.07,1.7,2.31,0,1.61-1.02,2.5-2.88,2.5h-2.97v-9.06ZM374.37,622.36c.98,0,1.63-.64,1.63-1.64s-.69-1.61-1.88-1.61h-1.91v3.26h2.16ZM374.32,626.67c1.42,0,2.14-.6,2.14-1.79,0-1.13-.66-1.79-1.79-1.79h-2.46v3.58h2.11Z"></path><path class="cls-22" d="M378.7,624.26c0-1.84.99-3.34,2.81-3.34,1.96,0,2.76,1.53,2.76,2.94,0,.1-.01.4-.04.55h-4.76c.03,1.51.84,2.39,2.14,2.39.82,0,1.35-.23,1.91-.83l.55.49c-.73.75-1.43,1.05-2.46,1.05-1.89,0-2.91-1.41-2.91-3.25ZM383.51,623.83c0-.08,0-.16,0-.24,0-.92-.58-2.01-2-2.01-1.23,0-1.98.98-2.07,2.26h4.06Z"></path><path class="cls-22" d="M385.67,624.2c0-1.96,1.29-3.29,2.92-3.29,1.05,0,1.87.54,2.29,1.36v-3.92h.77v9.06h-.77v-1.26c-.44.84-1.25,1.35-2.29,1.35-1.72,0-2.92-1.42-2.92-3.3ZM388.71,626.78c1.3,0,2.23-1.08,2.23-2.58s-.93-2.58-2.23-2.58-2.26,1.09-2.26,2.58.95,2.58,2.26,2.58Z"></path><path class="cls-22" d="M393.68,621.01h.78v1.09c.43-.78,1.31-1.18,2.02-1.18.33,0,.66.07.99.24l-.39.7c-.21-.1-.51-.17-.77-.17-.68,0-1.46.36-1.74,1.3-.08.27-.12.57-.12,1.27v3.15h-.78v-6.41Z"></path><path class="cls-22" d="M398.06,624.2c0-1.92,1.25-3.29,3.05-3.29s3.04,1.37,3.04,3.29-1.27,3.3-3.04,3.3-3.05-1.37-3.05-3.3ZM401.11,626.81c1.37,0,2.26-1.04,2.26-2.61s-.9-2.61-2.26-2.61-2.28,1.05-2.28,2.61.9,2.61,2.28,2.61Z"></path><path class="cls-22" d="M405.59,624.2c0-1.92,1.25-3.29,3.05-3.29s3.04,1.37,3.04,3.29-1.27,3.3-3.04,3.3-3.05-1.37-3.05-3.3ZM408.64,626.81c1.37,0,2.26-1.04,2.26-2.61s-.9-2.61-2.26-2.61-2.28,1.05-2.28,2.61.9,2.61,2.28,2.61Z"></path><path class="cls-22" d="M413.43,621.01h.78v1.1c.38-.84,1.11-1.19,1.88-1.19.91,0,1.57.4,1.89,1.25.4-.83,1.09-1.25,2-1.25,1.55,0,2.13,1.16,2.13,2.68v3.82h-.78v-3.64c0-1.33-.39-2.18-1.52-2.18-1.02,0-1.65.77-1.65,2.26v3.57h-.78v-3.76c0-1.4-.52-2.07-1.5-2.07-1.03,0-1.67.79-1.67,2.26v3.57h-.78v-6.41Z"></path></g><g><path class="cls-22" d="M247.27,405.06h2.43c2.94,0,4.62,1.68,4.62,4.6s-1.64,4.46-4.63,4.46h-2.42v-9.06ZM249.62,413.38c2.5,0,3.89-1.16,3.89-3.74s-1.4-3.83-3.82-3.83h-1.61v7.57h1.54Z"></path><path class="cls-22" d="M255.93,405.06h.94v1.39h-.94v-1.39ZM256.01,407.72h.77v6.41h-.77v-6.41Z"></path><path class="cls-22" d="M258.82,407.72h.78v1.05c.4-.76,1.12-1.14,2.01-1.14,1.38,0,2.2.81,2.2,2.51v3.99h-.78v-3.71c0-1.45-.55-2.11-1.61-2.11-1.16,0-1.83.79-1.83,2.55v3.27h-.78v-6.41Z"></path><path class="cls-22" d="M265.7,405.06h.94v1.39h-.94v-1.39ZM265.78,407.72h.77v6.41h-.77v-6.41Z"></path><path class="cls-22" d="M268.59,407.72h.78v1.05c.4-.76,1.12-1.14,2.01-1.14,1.38,0,2.2.81,2.2,2.51v3.99h-.78v-3.71c0-1.45-.55-2.11-1.61-2.11-1.16,0-1.83.79-1.83,2.55v3.27h-.78v-6.41Z"></path><path class="cls-22" d="M275.04,414.89s0-.1.03-.26l1.11-.88c-.57-.22-.96-.59-.96-1.26,0-.53.27-.9.72-1.2-.36-.37-.56-.87-.56-1.45,0-1.3,1.04-2.2,2.39-2.2.64,0,1.22.21,1.64.58l1.02-.86.4.49-1,.88c.19.33.3.71.3,1.14,0,1.28-.96,2.13-2.33,2.13-.53,0-.99-.12-1.37-.34-.31.17-.45.42-.45.71,0,.66.63.83,1.62.98,1.6.25,2.99.44,2.99,1.75,0,1.16-1.05,1.78-2.7,1.78-1.82,0-2.85-.7-2.85-2ZM277.9,416.28c1.09,0,1.92-.34,1.92-1.08,0-.86-1.16-.96-2.31-1.14-.31-.05-.6-.1-.89-.17l-.8.92c-.01.09-.01.11-.01.15,0,.9.79,1.33,2.09,1.33ZM277.77,411.35c.98,0,1.59-.65,1.59-1.53s-.64-1.56-1.58-1.56-1.62.65-1.62,1.55.63,1.55,1.61,1.55Z"></path><path class="cls-22" d="M285.53,405.06h2.52c1.99,0,2.97.93,2.97,2.5,0,1.25-.64,2.07-1.85,2.38l2.44,4.19h-.92l-2.34-4.07c-.21,0-.44,0-.65,0h-1.36v4.06h-.81v-9.06ZM287.97,409.35c1.38,0,2.24-.55,2.24-1.78s-.88-1.77-2.24-1.77h-1.64v3.56h1.64Z"></path><path class="cls-22" d="M292.53,410.91c0-1.92,1.25-3.29,3.05-3.29s3.04,1.37,3.04,3.29-1.27,3.3-3.04,3.3-3.05-1.37-3.05-3.3ZM295.58,413.52c1.37,0,2.26-1.04,2.26-2.61s-.9-2.61-2.26-2.61-2.28,1.05-2.28,2.61.9,2.61,2.28,2.61Z"></path><path class="cls-22" d="M300.07,410.91c0-1.92,1.25-3.29,3.05-3.29s3.04,1.37,3.04,3.29-1.27,3.3-3.04,3.3-3.05-1.37-3.05-3.3ZM303.12,413.52c1.37,0,2.26-1.04,2.26-2.61s-.9-2.61-2.26-2.61-2.28,1.05-2.28,2.61.9,2.61,2.28,2.61Z"></path><path class="cls-22" d="M307.91,407.72h.78v1.1c.38-.84,1.11-1.19,1.88-1.19.91,0,1.57.4,1.89,1.25.4-.83,1.09-1.25,2-1.25,1.55,0,2.13,1.16,2.13,2.68v3.82h-.78v-3.64c0-1.33-.39-2.18-1.52-2.18-1.02,0-1.65.77-1.65,2.26v3.57h-.78v-3.76c0-1.4-.52-2.07-1.5-2.07-1.03,0-1.67.79-1.67,2.26v3.57h-.78v-6.41Z"></path></g><g><path class="cls-22" d="M248.67,270.17h.81v8.33h4.18v.73h-4.99v-9.06Z"></path><path class="cls-22" d="M254.79,270.17h.94v1.39h-.94v-1.39ZM254.88,272.83h.77v6.41h-.77v-6.41Z"></path><path class="cls-22" d="M257.05,272.83h.86l2.1,5.42,2.11-5.42h.85l-2.61,6.41h-.68l-2.63-6.41Z"></path><path class="cls-22" d="M264.3,270.17h.94v1.39h-.94v-1.39ZM264.38,272.83h.77v6.41h-.77v-6.41Z"></path><path class="cls-22" d="M267.19,272.83h.78v1.05c.4-.76,1.12-1.14,2.01-1.14,1.38,0,2.2.81,2.2,2.51v3.99h-.78v-3.71c0-1.45-.55-2.11-1.61-2.11-1.16,0-1.83.79-1.83,2.55v3.27h-.78v-6.41Z"></path><path class="cls-22" d="M273.65,280s0-.1.03-.26l1.11-.88c-.57-.22-.96-.59-.96-1.26,0-.53.27-.9.72-1.2-.36-.37-.56-.87-.56-1.45,0-1.3,1.04-2.2,2.38-2.2.64,0,1.22.21,1.64.58l1.02-.86.4.49-1,.88c.19.33.3.71.3,1.14,0,1.28-.96,2.13-2.33,2.13-.53,0-.99-.12-1.37-.34-.31.18-.45.42-.45.72,0,.66.63.83,1.62.98,1.6.25,2.99.44,2.99,1.75,0,1.16-1.05,1.78-2.7,1.78-1.82,0-2.85-.7-2.85-2ZM276.51,281.39c1.09,0,1.92-.34,1.92-1.08,0-.86-1.16-.96-2.31-1.14-.31-.05-.6-.1-.89-.17l-.8.92c-.01.09-.01.11-.01.15,0,.9.79,1.33,2.09,1.33ZM276.38,276.46c.98,0,1.59-.65,1.59-1.53s-.64-1.56-1.58-1.56-1.62.65-1.62,1.55.63,1.55,1.61,1.55Z"></path><path class="cls-22" d="M284.13,270.17h2.52c1.99,0,2.97.93,2.97,2.5,0,1.25-.64,2.07-1.85,2.38l2.44,4.19h-.92l-2.34-4.07c-.21,0-.44,0-.65,0h-1.36v4.06h-.81v-9.06ZM286.57,274.46c1.38,0,2.24-.55,2.24-1.78s-.88-1.77-2.24-1.77h-1.64v3.56h1.64Z"></path><path class="cls-22" d="M291.14,276.02c0-1.92,1.25-3.29,3.05-3.29s3.04,1.36,3.04,3.29-1.27,3.3-3.04,3.3-3.05-1.36-3.05-3.3ZM294.19,278.63c1.37,0,2.26-1.04,2.26-2.61s-.9-2.61-2.26-2.61-2.28,1.05-2.28,2.61.9,2.61,2.28,2.61Z"></path><path class="cls-22" d="M298.67,276.02c0-1.92,1.25-3.29,3.05-3.29s3.04,1.36,3.04,3.29-1.27,3.3-3.04,3.3-3.05-1.36-3.05-3.3ZM301.72,278.63c1.37,0,2.26-1.04,2.26-2.61s-.9-2.61-2.26-2.61-2.28,1.05-2.28,2.61.9,2.61,2.28,2.61Z"></path><path class="cls-22" d="M306.51,272.83h.78v1.1c.38-.85,1.11-1.19,1.88-1.19.91,0,1.57.4,1.89,1.25.4-.83,1.09-1.25,2-1.25,1.55,0,2.13,1.16,2.13,2.68v3.82h-.78v-3.64c0-1.33-.39-2.18-1.52-2.18-1.02,0-1.65.77-1.65,2.26v3.57h-.78v-3.76c0-1.4-.52-2.07-1.5-2.07-1.03,0-1.67.79-1.67,2.26v3.57h-.78v-6.41Z"></path></g><g><path class="cls-22" d="M145.49,75.23h2.72c1.68,0,2.68.84,2.68,2.25,0,.94-.46,1.68-1.24,2,1.1.25,1.7,1.07,1.7,2.31,0,1.61-1.02,2.5-2.88,2.5h-2.97v-9.06ZM148.46,79.24c.98,0,1.63-.64,1.63-1.64s-.69-1.61-1.88-1.61h-1.91v3.26h2.16ZM148.41,83.55c1.42,0,2.14-.6,2.14-1.79,0-1.13-.66-1.79-1.79-1.79h-2.46v3.58h2.11Z"></path><path class="cls-22" d="M157.31,83.09c-.43.82-1.25,1.29-2.25,1.29-1.44,0-2.31-.77-2.31-1.94,0-.69.29-1.16.72-1.44.46-.31,1.09-.42,1.77-.42h2.05v-.28c0-1.19-.62-1.83-1.82-1.83-.79,0-1.4.29-1.98,1.02l-.56-.48c.68-.85,1.53-1.22,2.59-1.22,1.63,0,2.54.89,2.54,2.51v3.99h-.71l-.04-1.2ZM155.13,83.74c1.18,0,2.17-.93,2.17-2.2v-.36h-1.95c-.51,0-1.03.08-1.37.33-.28.21-.44.51-.44.94,0,.79.6,1.3,1.6,1.3Z"></path><path class="cls-22" d="M159.9,82.96v-7.73h.77v7.59c0,.6.23.85.64.85.17,0,.38-.04.61-.12v.67c-.29.11-.6.17-.84.17-.72,0-1.18-.44-1.18-1.42Z"></path><path class="cls-22" d="M162.86,81.08c0-1.83,1.06-3.29,2.86-3.29,1.17,0,2.09.58,2.51,1.74l-.7.27c-.27-.82-.9-1.33-1.81-1.33-1.42,0-2.09,1.25-2.09,2.61s.68,2.62,2.09,2.62c.91,0,1.53-.51,1.81-1.33l.7.27c-.42,1.16-1.34,1.75-2.51,1.75-1.8,0-2.86-1.46-2.86-3.3Z"></path><path class="cls-22" d="M169.47,81.08c0-1.92,1.25-3.29,3.05-3.29s3.04,1.36,3.04,3.29-1.27,3.3-3.04,3.3-3.05-1.36-3.05-3.3ZM172.51,83.69c1.37,0,2.26-1.04,2.26-2.61s-.9-2.61-2.26-2.61-2.28,1.05-2.28,2.61.9,2.61,2.28,2.61Z"></path><path class="cls-22" d="M177.3,77.89h.78v1.05c.4-.76,1.12-1.14,2.01-1.14,1.38,0,2.2.81,2.2,2.51v3.99h-.78v-3.71c0-1.45-.55-2.11-1.61-2.11-1.16,0-1.83.79-1.83,2.55v3.27h-.78v-6.41Z"></path><path class="cls-22" d="M186.02,84.09l-2.55-6.21h.86l2.1,5.42,2.11-5.42h.85l-3.69,9.05h-.84l1.17-2.84Z"></path></g><g><path class="cls-22" d="M165.92,618.35h2.72c1.68,0,2.68.84,2.68,2.25,0,.94-.46,1.68-1.24,2,1.1.25,1.7,1.07,1.7,2.31,0,1.61-1.02,2.5-2.88,2.5h-2.97v-9.06ZM168.89,622.36c.98,0,1.63-.64,1.63-1.64s-.69-1.61-1.88-1.61h-1.91v3.26h2.16ZM168.84,626.67c1.42,0,2.14-.6,2.14-1.79,0-1.13-.66-1.79-1.79-1.79h-2.46v3.58h2.11Z"></path><path class="cls-22" d="M177.74,626.21c-.43.82-1.25,1.29-2.25,1.29-1.44,0-2.31-.77-2.31-1.94,0-.69.29-1.16.72-1.44.46-.31,1.09-.42,1.77-.42h2.05v-.28c0-1.19-.62-1.83-1.82-1.83-.79,0-1.4.29-1.98,1.02l-.56-.48c.68-.84,1.53-1.21,2.59-1.21,1.63,0,2.54.89,2.54,2.51v3.99h-.71l-.04-1.2ZM175.56,626.86c1.18,0,2.17-.93,2.17-2.2v-.36h-1.95c-.51,0-1.03.08-1.37.32-.28.21-.44.51-.44.94,0,.79.6,1.3,1.6,1.3Z"></path><path class="cls-22" d="M180.33,626.08v-7.73h.77v7.59c0,.6.23.84.64.84.17,0,.38-.04.61-.12v.67c-.29.11-.6.17-.84.17-.72,0-1.18-.44-1.18-1.42Z"></path><path class="cls-22" d="M183.29,624.2c0-1.83,1.06-3.29,2.86-3.29,1.17,0,2.09.58,2.51,1.74l-.7.27c-.27-.82-.9-1.33-1.81-1.33-1.42,0-2.09,1.25-2.09,2.61s.68,2.62,2.09,2.62c.91,0,1.53-.51,1.81-1.33l.7.27c-.42,1.16-1.34,1.75-2.51,1.75-1.8,0-2.86-1.46-2.86-3.3Z"></path><path class="cls-22" d="M189.9,624.2c0-1.92,1.25-3.29,3.05-3.29s3.04,1.37,3.04,3.29-1.27,3.3-3.04,3.3-3.05-1.37-3.05-3.3ZM192.94,626.81c1.37,0,2.26-1.04,2.26-2.61s-.9-2.61-2.26-2.61-2.28,1.05-2.28,2.61.9,2.61,2.28,2.61Z"></path><path class="cls-22" d="M197.73,621.01h.78v1.05c.4-.76,1.12-1.14,2.01-1.14,1.38,0,2.2.81,2.2,2.51v3.99h-.78v-3.71c0-1.45-.55-2.11-1.61-2.11-1.16,0-1.83.79-1.83,2.55v3.27h-.78v-6.41Z"></path><path class="cls-22" d="M206.45,627.21l-2.55-6.21h.86l2.1,5.42,2.11-5.42h.85l-3.69,9.05h-.84l1.17-2.84Z"></path></g><g><path class="cls-22" d="M396.65,487.14h.81v4.86l4.65-4.86h1.09l-3.45,3.54,3.48,5.52h-.95l-3.11-4.93-1.71,1.75v3.17h-.81v-9.06Z"></path><path class="cls-22" d="M404.38,487.14h.94v1.39h-.94v-1.39ZM404.47,489.8h.77v6.41h-.77v-6.41Z"></path><path class="cls-22" d="M408.04,494.72v-4.31h-1.42v-.62h1.42v-1.85l.79-.46v2.31h1.54v.62h-1.54v4.12c0,.71.22,1.11.81,1.11.19,0,.46-.04.73-.12v.62c-.32.1-.64.16-.92.16-.85,0-1.4-.49-1.4-1.57Z"></path><path class="cls-22" d="M411.39,492.99c0-1.83,1.06-3.29,2.86-3.29,1.17,0,2.09.58,2.51,1.74l-.7.27c-.27-.82-.9-1.33-1.81-1.33-1.42,0-2.09,1.25-2.09,2.61s.68,2.62,2.09,2.62c.91,0,1.53-.51,1.81-1.33l.7.27c-.42,1.16-1.34,1.75-2.51,1.75-1.8,0-2.86-1.46-2.86-3.3Z"></path><path class="cls-22" d="M418.39,487.14h.78v3.69c.4-.75,1.1-1.13,2.01-1.13,1.4,0,2.2.85,2.2,2.51v3.99h-.78v-3.71c0-1.43-.53-2.11-1.61-2.11-1.18,0-1.83.83-1.83,2.55v3.27h-.78v-9.06Z"></path><path class="cls-22" d="M425.02,493.05c0-1.84.99-3.34,2.81-3.34,1.96,0,2.76,1.53,2.76,2.94,0,.1-.01.4-.04.55h-4.76c.03,1.51.84,2.39,2.14,2.39.82,0,1.35-.23,1.91-.83l.55.49c-.73.75-1.43,1.05-2.46,1.05-1.89,0-2.91-1.41-2.91-3.25ZM429.84,492.62c0-.08,0-.16,0-.24,0-.92-.58-2.01-2-2.01-1.23,0-1.98.98-2.07,2.26h4.06Z"></path><path class="cls-22" d="M432.33,489.8h.78v1.05c.4-.76,1.12-1.14,2.01-1.14,1.38,0,2.2.81,2.2,2.51v3.99h-.78v-3.71c0-1.45-.55-2.11-1.61-2.11-1.16,0-1.83.79-1.83,2.55v3.27h-.78v-6.41Z"></path></g><g><path class="cls-22" d="M423.92,56.11h.65l1.71,6.06,1.76-5.7h.63l1.76,5.7,1.7-6.06h.65l-2.01,6.98h-.63l-1.79-5.71-1.79,5.71h-.64l-2.01-6.98Z"></path><path class="cls-22" d="M433.92,56.11h.62v6.98h-.62v-6.98Z"></path><path class="cls-22" d="M435.97,59.6c0-2.16,1.26-3.58,3.16-3.58,1.35,0,2.39.71,2.84,1.89l-.58.22c-.38-.96-1.17-1.52-2.26-1.52-1.55,0-2.54,1.17-2.54,2.99s.99,3,2.54,3c1.09,0,1.89-.56,2.26-1.52l.58.22c-.45,1.18-1.49,1.9-2.84,1.9-1.89,0-3.16-1.42-3.16-3.59Z"></path></g><path class="cls-22" d="M472.49,351.38c0-2.17,1.27-3.59,3.16-3.59s3.18,1.42,3.18,3.59-1.27,3.58-3.18,3.58-3.16-1.42-3.16-3.58ZM475.65,354.37c1.57,0,2.55-1.16,2.55-2.99s-.99-3-2.55-3-2.54,1.15-2.54,3,.99,2.99,2.54,2.99Z"></path><path class="cls-22" d="M482.52,346.89h.48l-3.55,9.08h-.48l3.55-9.08Z"></path><path class="cls-22" d="M484.22,347.89h.93l2.35,5.66,2.35-5.66h.92v6.98h-.62v-6.16l-2.35,5.59h-.61l-2.36-5.59v6.16h-.62v-6.98Z"></path><g><path class="cls-22" d="M473.94,486.45h1.94c1.53,0,2.29.72,2.29,1.92,0,.97-.5,1.6-1.43,1.83l1.88,3.22h-.71l-1.8-3.13c-.16,0-.34,0-.5,0h-1.05v3.13h-.62v-6.98ZM475.82,489.75c1.06,0,1.73-.42,1.73-1.37s-.68-1.37-1.73-1.37h-1.26v2.74h1.26Z"></path><path class="cls-22" d="M479.8,486.45h4.56v.56h-3.94v2.59h3.53v.56h-3.53v2.7h3.94v.56h-4.56v-6.98Z"></path><path class="cls-22" d="M485.65,486.45h4.51v.56h-3.89v2.59h3.38v.56h-3.38v3.26h-.62v-6.98Z"></path></g><g><path class="cls-22" d="M394.28,365.05h.65l1.71,6.06,1.76-5.7h.63l1.76,5.7,1.7-6.06h.65l-2.01,6.98h-.63l-1.79-5.71-1.79,5.71h-.64l-2.01-6.98Z"></path><path class="cls-22" d="M404.28,365.05h4.51v.56h-3.89v2.59h3.38v.56h-3.38v3.26h-.62v-6.98Z"></path></g><g><path class="cls-22" d="M394.35,447.99h1.87c2.26,0,3.56,1.29,3.56,3.54s-1.27,3.43-3.57,3.43h-1.86v-6.98ZM396.16,454.4c1.92,0,2.99-.89,2.99-2.88s-1.08-2.95-2.94-2.95h-1.24v5.83h1.19Z"></path><path class="cls-22" d="M400.44,447.99h.65l1.71,6.06,1.76-5.7h.63l1.76,5.7,1.7-6.06h.65l-2.01,6.98h-.63l-1.79-5.71-1.79,5.71h-.64l-2.01-6.98Z"></path></g><g><path class="cls-22" d="M591.02,265.66h5.86v.73h-5.06v3.37h4.39v.73h-4.39v4.24h-.81v-9.06Z"></path><path class="cls-22" d="M597.61,271.51c0-1.92,1.25-3.29,3.05-3.29s3.04,1.36,3.04,3.29-1.27,3.3-3.04,3.3-3.05-1.36-3.05-3.3ZM600.66,274.12c1.37,0,2.26-1.04,2.26-2.61s-.9-2.61-2.26-2.61-2.28,1.05-2.28,2.61.9,2.61,2.28,2.61Z"></path><path class="cls-22" d="M607.18,274.52l-2.55-6.21h.86l2.1,5.42,2.11-5.42h.85l-3.69,9.05h-.84l1.17-2.84Z"></path><path class="cls-22" d="M611.51,271.56c0-1.84.99-3.34,2.81-3.34,1.96,0,2.76,1.53,2.76,2.94,0,.1-.01.4-.04.55h-4.76c.03,1.51.84,2.39,2.14,2.39.82,0,1.35-.23,1.91-.83l.55.49c-.73.75-1.43,1.05-2.46,1.05-1.89,0-2.91-1.41-2.91-3.25ZM616.33,271.13c0-.08,0-.16,0-.24,0-.92-.58-2.02-2-2.02-1.23,0-1.98.98-2.07,2.26h4.06Z"></path><path class="cls-22" d="M618.8,268.31h.78v1.09c.43-.78,1.31-1.18,2.02-1.18.33,0,.66.07.99.24l-.39.7c-.21-.1-.51-.17-.77-.17-.68,0-1.46.36-1.74,1.3-.08.27-.12.57-.12,1.27v3.15h-.78v-6.41Z"></path></g><g><path class="cls-27" d="M0,51.33h3.61v.45H.5v2.07h2.7v.45H.5v2.61h-.5v-5.57Z"></path><path class="cls-27" d="M4.34,51.33h.58v.86h-.58v-.86ZM4.4,52.96h.47v3.94h-.47v-3.94Z"></path><path class="cls-27" d="M6.2,52.96h.48v.64c.25-.47.69-.7,1.24-.7.85,0,1.36.5,1.36,1.54v2.45h-.48v-2.28c0-.89-.34-1.3-.99-1.3-.71,0-1.13.48-1.13,1.57v2.01h-.48v-3.94Z"></path><path class="cls-27" d="M12.78,51.33h3.64v.45h-3.15v2.07h2.82v.45h-2.82v2.16h3.15v.45h-3.64v-5.57Z"></path><path class="cls-27" d="M18.58,54.93l-1.46-1.96h.59l1.18,1.63,1.2-1.63h.58l-1.46,1.96,1.47,1.98h-.59l-1.19-1.64-1.19,1.64h-.58l1.46-1.98Z"></path><path class="cls-27" d="M22.1,55.99v-2.65h-.88v-.38h.88v-1.14l.48-.28v1.42h.95v.38h-.95v2.53c0,.44.14.68.5.68.12,0,.28-.02.45-.08v.38c-.2.06-.4.1-.57.1-.52,0-.86-.3-.86-.97Z"></path><path class="cls-27" d="M24.25,54.96c0-1.13.61-2.05,1.73-2.05,1.21,0,1.7.94,1.7,1.81,0,.06,0,.24-.02.34h-2.93c.02.93.52,1.47,1.32,1.47.5,0,.83-.14,1.18-.51l.34.3c-.45.46-.88.65-1.52.65-1.16,0-1.79-.87-1.79-2ZM27.21,54.7s0-.1,0-.15c0-.57-.36-1.24-1.23-1.24-.76,0-1.22.6-1.27,1.39h2.49Z"></path><path class="cls-27" d="M28.82,52.96h.48v.64c.25-.47.69-.7,1.24-.7.85,0,1.36.5,1.36,1.54v2.45h-.48v-2.28c0-.89-.34-1.3-.99-1.3-.71,0-1.13.48-1.13,1.57v2.01h-.48v-3.94Z"></path><path class="cls-27" d="M32.78,56.06l.34-.28c.2.46.66.77,1.26.77.57,0,.95-.27.95-.72,0-.55-.53-.68-1.1-.82-.66-.16-1.23-.38-1.23-1.06,0-.62.53-1.05,1.3-1.05.6,0,1.1.26,1.37.76l-.37.21c-.21-.38-.57-.58-1.02-.58-.48,0-.84.24-.84.62,0,.4.36.54.93.68.67.16,1.44.34,1.44,1.2,0,.71-.56,1.17-1.42,1.17-.79,0-1.35-.4-1.6-.9Z"></path><path class="cls-27" d="M36.88,51.33h.58v.86h-.58v-.86ZM36.93,52.96h.47v3.94h-.47v-3.94Z"></path><path class="cls-27" d="M38.55,54.93c0-1.18.77-2.02,1.88-2.02s1.87.84,1.87,2.02-.78,2.03-1.87,2.03-1.88-.84-1.88-2.03ZM40.43,56.53c.84,0,1.39-.64,1.39-1.6s-.55-1.6-1.39-1.6-1.4.64-1.4,1.6.56,1.6,1.4,1.6Z"></path><path class="cls-27" d="M43.45,52.96h.48v.64c.25-.47.69-.7,1.24-.7.85,0,1.36.5,1.36,1.54v2.45h-.48v-2.28c0-.89-.34-1.3-.99-1.3-.71,0-1.13.48-1.13,1.57v2.01h-.48v-3.94Z"></path><path class="cls-27" d="M47.85,53.14h.58v.86h-.58v-.86ZM47.85,56.05h.58v.85h-.58v-.85Z"></path></g><g><path class="cls-27" d="M36.97,63.14c.23-.14.5-.22.76-.22,1.01,0,1.81.81,1.81,1.81s-.84,1.83-1.87,1.83-1.88-.8-1.88-1.82c0-.37.12-.7.29-1l1.67-2.81h.54l-1.34,2.21ZM37.67,66.11c.76,0,1.39-.6,1.39-1.38s-.62-1.38-1.39-1.38-1.39.59-1.39,1.38.62,1.38,1.39,1.38Z"></path><path class="cls-27" d="M40.6,63.71c0-1.33.3-2.84,1.72-2.84s1.75,1.39,1.75,2.85-.4,2.84-1.72,2.84c-1.44,0-1.75-1.51-1.75-2.85ZM42.35,66.1c.88,0,1.23-1,1.23-2.36s-.36-2.41-1.26-2.41c-.96,0-1.23,1.1-1.23,2.39s.28,2.38,1.26,2.38Z"></path><path class="cls-27" d="M44.91,64.85l.48-.02c0,.78.58,1.27,1.48,1.27s1.44-.47,1.44-1.2c0-.9-.86-1.14-1.78-1.14v-.38c.7,0,1.48-.21,1.48-1.03,0-.6-.48-1.01-1.16-1.01-.74,0-1.19.44-1.2,1.09l-.47-.02c0-.9.7-1.52,1.68-1.52s1.62.6,1.62,1.42c0,.74-.55,1.08-1.1,1.22.67.11,1.4.5,1.4,1.39,0,.98-.78,1.66-1.93,1.66s-1.94-.68-1.94-1.71Z"></path></g><g><path class="cls-27" d="M39.2,70.98h-3.43v-.45h3.98v.4l-2.75,5.18h-.53l2.74-5.12Z"></path><path class="cls-27" d="M40.6,73.31c0-1.33.3-2.84,1.72-2.84s1.75,1.39,1.75,2.85-.4,2.84-1.72,2.84c-1.44,0-1.75-1.51-1.75-2.85ZM42.35,75.7c.88,0,1.23-1,1.23-2.36s-.36-2.41-1.26-2.41c-.96,0-1.23,1.1-1.23,2.4s.28,2.37,1.26,2.37Z"></path><path class="cls-27" d="M44.91,74.45l.48-.02c0,.78.58,1.27,1.48,1.27s1.44-.47,1.44-1.2c0-.9-.86-1.14-1.78-1.14v-.38c.7,0,1.48-.21,1.48-1.03,0-.6-.48-1.01-1.16-1.01-.74,0-1.19.44-1.2,1.09l-.47-.02c0-.9.7-1.52,1.68-1.52s1.62.6,1.62,1.42c0,.74-.55,1.08-1.1,1.22.67.11,1.4.5,1.4,1.39,0,.98-.78,1.66-1.93,1.66s-1.94-.68-1.94-1.71Z"></path></g><g><path class="cls-27" d="M35.92,84.13c0-.7.41-1.25,1.08-1.45-.46-.18-.76-.62-.76-1.19,0-.9.78-1.41,1.54-1.41.86,0,1.53.57,1.53,1.45,0,.55-.3.97-.77,1.15.67.21,1.07.76,1.07,1.45,0,1.09-.9,1.64-1.84,1.64s-1.85-.55-1.85-1.64ZM37.77,85.31c.72,0,1.36-.41,1.36-1.22,0-.73-.56-1.22-1.36-1.22s-1.38.48-1.38,1.22c0,.82.66,1.22,1.38,1.22ZM37.79,82.53c.61,0,1.05-.4,1.05-.98,0-.61-.42-1.03-1.06-1.03-.56,0-1.06.36-1.06.98s.44,1.02,1.07,1.02Z"></path><path class="cls-27" d="M40.6,82.91c0-1.33.3-2.84,1.72-2.84s1.75,1.39,1.75,2.85-.4,2.84-1.72,2.84c-1.44,0-1.75-1.51-1.75-2.85ZM42.35,85.3c.88,0,1.23-1,1.23-2.36s-.36-2.41-1.26-2.41c-.96,0-1.23,1.1-1.23,2.39s.28,2.38,1.26,2.38Z"></path><path class="cls-27" d="M44.91,84.05l.48-.02c0,.78.58,1.27,1.48,1.27s1.44-.47,1.44-1.2c0-.9-.86-1.14-1.78-1.14v-.38c.7,0,1.48-.21,1.48-1.03,0-.6-.48-1.01-1.16-1.01-.74,0-1.19.44-1.2,1.09l-.47-.02c0-.9.7-1.52,1.68-1.52s1.62.6,1.62,1.42c0,.74-.55,1.08-1.1,1.22.67.11,1.4.5,1.4,1.39,0,.98-.78,1.66-1.93,1.66s-1.94-.68-1.94-1.71Z"></path></g><g><path class="cls-27" d="M38.47,93.1c-.23.14-.5.22-.76.22-1.01,0-1.81-.81-1.81-1.81s.84-1.83,1.87-1.83,1.88.8,1.88,1.82c0,.37-.12.7-.29,1l-1.68,2.81h-.54l1.34-2.21ZM37.77,92.89c.76,0,1.39-.59,1.39-1.38s-.62-1.38-1.39-1.38-1.39.6-1.39,1.38.62,1.38,1.39,1.38Z"></path><path class="cls-27" d="M40.6,92.51c0-1.33.3-2.84,1.72-2.84s1.75,1.39,1.75,2.85-.4,2.84-1.72,2.84c-1.44,0-1.75-1.51-1.75-2.85ZM42.35,94.9c.88,0,1.23-1,1.23-2.36s-.36-2.41-1.26-2.41c-.96,0-1.23,1.1-1.23,2.4s.28,2.37,1.26,2.37Z"></path><path class="cls-27" d="M44.91,93.65l.48-.02c0,.78.58,1.27,1.48,1.27s1.44-.47,1.44-1.2c0-.9-.86-1.14-1.78-1.14v-.38c.7,0,1.48-.21,1.48-1.03,0-.6-.48-1.01-1.16-1.01-.74,0-1.19.44-1.2,1.09l-.47-.02c0-.9.7-1.52,1.68-1.52s1.62.6,1.62,1.42c0,.74-.55,1.08-1.1,1.22.67.11,1.4.5,1.4,1.39,0,.98-.78,1.66-1.93,1.66s-1.94-.68-1.94-1.71Z"></path></g><g><path class="cls-27" d="M33.4,100.62h-1.47v-.39h1.03c.29,0,.44-.1.44-.41v-.49h.48v5.57h-.48v-4.28Z"></path><path class="cls-27" d="M36.04,102.11c0-1.33.3-2.84,1.72-2.84s1.75,1.39,1.75,2.85-.4,2.84-1.72,2.84c-1.44,0-1.75-1.51-1.75-2.85ZM37.79,104.5c.88,0,1.23-1,1.23-2.36s-.36-2.41-1.26-2.41c-.96,0-1.23,1.1-1.23,2.39s.28,2.38,1.26,2.38Z"></path><path class="cls-27" d="M40.59,102.11c0-1.33.3-2.84,1.72-2.84s1.75,1.39,1.75,2.85-.4,2.84-1.72,2.84c-1.44,0-1.75-1.51-1.75-2.85ZM42.35,104.5c.88,0,1.23-1,1.23-2.36s-.36-2.41-1.26-2.41c-.96,0-1.23,1.1-1.23,2.39s.28,2.38,1.26,2.38Z"></path><path class="cls-27" d="M44.91,103.25l.48-.02c0,.78.58,1.27,1.48,1.27s1.44-.47,1.44-1.2c0-.9-.86-1.14-1.78-1.14v-.38c.7,0,1.48-.21,1.48-1.03,0-.6-.48-1.01-1.16-1.01-.74,0-1.19.44-1.2,1.09l-.47-.02c0-.9.7-1.52,1.68-1.52s1.62.6,1.62,1.42c0,.74-.55,1.08-1.1,1.22.67.11,1.4.5,1.4,1.39,0,.98-.78,1.66-1.93,1.66s-1.94-.68-1.94-1.71Z"></path></g><g><path class="cls-27" d="M33.4,110.22h-1.47v-.39h1.03c.29,0,.44-.1.44-.41v-.49h.48v5.57h-.48v-4.28Z"></path><path class="cls-27" d="M37.96,110.22h-1.47v-.39h1.03c.29,0,.44-.1.44-.41v-.49h.48v5.57h-.48v-4.28Z"></path><path class="cls-27" d="M40.59,111.71c0-1.33.3-2.84,1.72-2.84s1.75,1.39,1.75,2.85-.4,2.84-1.72,2.84c-1.44,0-1.75-1.51-1.75-2.85ZM42.35,114.1c.88,0,1.23-1,1.23-2.36s-.36-2.41-1.26-2.41c-.96,0-1.23,1.1-1.23,2.39s.28,2.38,1.26,2.38Z"></path><path class="cls-27" d="M44.91,112.85l.48-.02c0,.78.58,1.27,1.48,1.27s1.44-.47,1.44-1.2c0-.9-.86-1.14-1.78-1.14v-.38c.7,0,1.48-.21,1.48-1.03,0-.6-.48-1.01-1.16-1.01-.74,0-1.19.44-1.2,1.09l-.47-.02c0-.9.7-1.52,1.68-1.52s1.62.6,1.62,1.42c0,.74-.55,1.08-1.1,1.22.67.11,1.4.5,1.4,1.39,0,.98-.78,1.66-1.93,1.66s-1.94-.68-1.94-1.71Z"></path></g><g><path class="cls-27" d="M33.4,119.82h-1.47v-.39h1.03c.29,0,.44-.1.44-.41v-.49h.48v5.57h-.48v-4.28Z"></path><path class="cls-27" d="M38.91,120.14c0-.73-.43-1.2-1.19-1.2-.84,0-1.26.58-1.27,1.45l-.47-.03c0-1.07.62-1.88,1.75-1.88.99,0,1.64.65,1.64,1.65,0,1.49-1.5,2.65-2.81,3.53h3.04v.45h-3.64v-.44c1.02-.82,2.94-2.02,2.94-3.53Z"></path><path class="cls-27" d="M40.59,121.31c0-1.33.3-2.84,1.72-2.84s1.75,1.39,1.75,2.85-.4,2.84-1.72,2.84c-1.44,0-1.75-1.51-1.75-2.85ZM42.35,123.7c.88,0,1.23-1,1.23-2.36s-.36-2.41-1.26-2.41c-.96,0-1.23,1.1-1.23,2.4s.28,2.37,1.26,2.37Z"></path><path class="cls-27" d="M44.91,122.45l.48-.02c0,.78.58,1.27,1.48,1.27s1.44-.47,1.44-1.2c0-.9-.86-1.14-1.78-1.14v-.38c.7,0,1.48-.21,1.48-1.03,0-.6-.48-1.01-1.16-1.01-.74,0-1.19.44-1.2,1.09l-.47-.02c0-.9.7-1.52,1.68-1.52s1.62.6,1.62,1.42c0,.74-.55,1.08-1.1,1.22.67.11,1.4.5,1.4,1.39,0,.98-.78,1.66-1.93,1.66s-1.94-.68-1.94-1.71Z"></path></g><g><path class="cls-27" d="M93.01,703.26h3.61v.45h-3.11v2.07h2.7v.45h-2.7v2.61h-.5v-5.57Z"></path><path class="cls-27" d="M97.35,703.26h.58v.86h-.58v-.86ZM97.41,704.89h.47v3.94h-.47v-3.94Z"></path><path class="cls-27" d="M99.21,704.89h.48v.64c.25-.47.69-.7,1.24-.7.85,0,1.35.5,1.35,1.54v2.46h-.48v-2.28c0-.89-.34-1.3-.99-1.3-.71,0-1.13.48-1.13,1.57v2.01h-.48v-3.94Z"></path><path class="cls-27" d="M105.79,703.26h3.64v.45h-3.15v2.07h2.82v.45h-2.82v2.16h3.15v.45h-3.64v-5.57Z"></path><path class="cls-27" d="M111.59,706.86l-1.46-1.96h.59l1.18,1.63,1.2-1.63h.58l-1.46,1.96,1.47,1.98h-.59l-1.19-1.64-1.19,1.64h-.58l1.46-1.98Z"></path><path class="cls-27" d="M115.11,707.92v-2.65h-.88v-.38h.88v-1.14l.48-.28v1.42h.95v.38h-.95v2.54c0,.44.14.68.5.68.12,0,.28-.02.45-.08v.38c-.2.06-.4.1-.57.1-.52,0-.86-.3-.86-.97Z"></path><path class="cls-27" d="M117.26,706.89c0-1.13.61-2.05,1.73-2.05,1.21,0,1.7.94,1.7,1.81,0,.06,0,.24-.02.34h-2.93c.02.93.52,1.47,1.32,1.47.5,0,.83-.14,1.17-.51l.34.3c-.45.46-.88.65-1.51.65-1.16,0-1.79-.87-1.79-2ZM120.23,706.63s0-.1,0-.15c0-.57-.36-1.24-1.23-1.24-.75,0-1.22.6-1.27,1.39h2.49Z"></path><path class="cls-27" d="M121.83,704.89h.48v.64c.25-.47.69-.7,1.24-.7.85,0,1.36.5,1.36,1.54v2.46h-.48v-2.28c0-.89-.34-1.3-.99-1.3-.71,0-1.13.48-1.13,1.57v2.01h-.48v-3.94Z"></path><path class="cls-27" d="M125.79,707.99l.34-.28c.2.46.66.77,1.26.77.57,0,.95-.27.95-.72,0-.55-.53-.68-1.1-.82-.66-.16-1.23-.38-1.23-1.06,0-.62.53-1.05,1.29-1.05.6,0,1.1.26,1.37.76l-.37.21c-.21-.38-.57-.58-1.01-.58-.48,0-.84.24-.84.62,0,.4.36.54.93.68.67.16,1.43.34,1.43,1.2,0,.71-.56,1.17-1.42,1.17-.79,0-1.35-.4-1.6-.9Z"></path><path class="cls-27" d="M129.89,703.26h.58v.86h-.58v-.86ZM129.94,704.89h.47v3.94h-.47v-3.94Z"></path><path class="cls-27" d="M131.56,706.86c0-1.18.77-2.02,1.88-2.02s1.87.84,1.87,2.02-.78,2.03-1.87,2.03-1.88-.84-1.88-2.03ZM133.44,708.46c.84,0,1.39-.64,1.39-1.6s-.55-1.6-1.39-1.6-1.4.64-1.4,1.6.56,1.6,1.4,1.6Z"></path><path class="cls-27" d="M136.46,704.89h.48v.64c.25-.47.69-.7,1.24-.7.85,0,1.36.5,1.36,1.54v2.46h-.48v-2.28c0-.89-.34-1.3-.99-1.3-.71,0-1.13.48-1.13,1.57v2.01h-.48v-3.94Z"></path><path class="cls-27" d="M140.86,705.07h.58v.86h-.58v-.86ZM140.86,707.98h.58v.85h-.58v-.85Z"></path></g><g><path class="cls-27" d="M126.41,714.15h-1.47v-.39h1.03c.29,0,.44-.1.44-.41v-.49h.48v5.57h-.48v-4.28Z"></path><path class="cls-27" d="M131.92,714.47c0-.73-.43-1.2-1.19-1.2-.83,0-1.26.58-1.27,1.45l-.47-.03c0-1.07.62-1.88,1.76-1.88.99,0,1.64.65,1.64,1.65,0,1.49-1.5,2.65-2.81,3.53h3.04v.45h-3.64v-.44c1.02-.82,2.94-2.02,2.94-3.53Z"></path><path class="cls-27" d="M133.6,715.64c0-1.33.3-2.84,1.72-2.84s1.75,1.39,1.75,2.85-.4,2.84-1.72,2.84c-1.44,0-1.75-1.51-1.75-2.85ZM135.36,718.03c.88,0,1.23-1,1.23-2.36s-.36-2.41-1.26-2.41c-.96,0-1.23,1.1-1.23,2.39s.28,2.37,1.26,2.37Z"></path><path class="cls-27" d="M137.92,716.78l.48-.02c0,.78.58,1.27,1.48,1.27s1.44-.47,1.44-1.2c0-.9-.86-1.14-1.78-1.14v-.38c.7,0,1.48-.21,1.48-1.03,0-.6-.48-1.01-1.16-1.01-.74,0-1.19.44-1.2,1.09l-.47-.02c0-.9.7-1.52,1.68-1.52s1.62.6,1.62,1.42c0,.74-.55,1.08-1.1,1.22.67.11,1.4.5,1.4,1.39,0,.98-.78,1.66-1.93,1.66s-1.94-.68-1.94-1.71Z"></path></g><g><path class="cls-27" d="M126.41,723.75h-1.47v-.39h1.03c.29,0,.44-.1.44-.41v-.49h.48v5.57h-.48v-4.28Z"></path><path class="cls-27" d="M130.97,723.75h-1.47v-.39h1.03c.29,0,.44-.1.44-.41v-.49h.48v5.57h-.48v-4.28Z"></path><path class="cls-27" d="M133.6,725.24c0-1.33.3-2.84,1.72-2.84s1.75,1.39,1.75,2.85-.4,2.84-1.72,2.84c-1.44,0-1.75-1.51-1.75-2.85ZM135.36,727.63c.88,0,1.23-1,1.23-2.36s-.36-2.41-1.26-2.41c-.96,0-1.23,1.1-1.23,2.39s.28,2.37,1.26,2.37Z"></path><path class="cls-27" d="M137.92,726.38l.48-.02c0,.78.58,1.27,1.48,1.27s1.44-.47,1.44-1.2c0-.9-.86-1.14-1.78-1.14v-.38c.7,0,1.48-.21,1.48-1.03,0-.6-.48-1.01-1.16-1.01-.74,0-1.19.44-1.2,1.09l-.47-.02c0-.9.7-1.52,1.68-1.52s1.62.6,1.62,1.42c0,.74-.55,1.08-1.1,1.22.67.11,1.4.5,1.4,1.39,0,.98-.78,1.66-1.93,1.66s-1.94-.68-1.94-1.71Z"></path></g><g><path class="cls-27" d="M126.41,733.35h-1.47v-.39h1.03c.29,0,.44-.1.44-.41v-.49h.48v5.57h-.48v-4.28Z"></path><path class="cls-27" d="M129.05,734.84c0-1.33.3-2.84,1.72-2.84s1.75,1.39,1.75,2.85-.4,2.84-1.72,2.84c-1.44,0-1.75-1.51-1.75-2.85ZM130.81,737.23c.88,0,1.23-1,1.23-2.36s-.36-2.41-1.26-2.41c-.96,0-1.23,1.1-1.23,2.39s.28,2.37,1.26,2.37Z"></path><path class="cls-27" d="M133.6,734.84c0-1.33.3-2.84,1.72-2.84s1.75,1.39,1.75,2.85-.4,2.84-1.72,2.84c-1.44,0-1.75-1.51-1.75-2.85ZM135.36,737.23c.88,0,1.23-1,1.23-2.36s-.36-2.41-1.26-2.41c-.96,0-1.23,1.1-1.23,2.39s.28,2.37,1.26,2.37Z"></path><path class="cls-27" d="M137.92,735.98l.48-.02c0,.78.58,1.27,1.48,1.27s1.44-.47,1.44-1.2c0-.9-.86-1.14-1.78-1.14v-.38c.7,0,1.48-.21,1.48-1.03,0-.6-.48-1.01-1.16-1.01-.74,0-1.19.44-1.2,1.09l-.47-.02c0-.9.7-1.52,1.68-1.52s1.62.6,1.62,1.42c0,.74-.55,1.08-1.1,1.22.67.11,1.4.5,1.4,1.39,0,.98-.78,1.65-1.93,1.65s-1.94-.68-1.94-1.71Z"></path></g><g><path class="cls-27" d="M131.48,745.03c-.23.14-.5.22-.76.22-1.01,0-1.81-.81-1.81-1.81s.84-1.83,1.87-1.83,1.88.8,1.88,1.82c0,.37-.12.7-.29,1l-1.67,2.81h-.54l1.34-2.21ZM130.78,744.82c.76,0,1.39-.59,1.39-1.38s-.62-1.38-1.39-1.38-1.39.6-1.39,1.38.62,1.38,1.39,1.38Z"></path><path class="cls-27" d="M133.61,744.44c0-1.33.3-2.84,1.72-2.84s1.75,1.39,1.75,2.85-.4,2.84-1.72,2.84c-1.44,0-1.75-1.51-1.75-2.85ZM135.36,746.83c.88,0,1.23-1,1.23-2.36s-.36-2.41-1.26-2.41c-.96,0-1.23,1.1-1.23,2.39s.28,2.37,1.26,2.37Z"></path><path class="cls-27" d="M137.92,745.58l.48-.02c0,.78.58,1.27,1.48,1.27s1.44-.47,1.44-1.2c0-.9-.86-1.14-1.78-1.14v-.38c.7,0,1.48-.21,1.48-1.03,0-.6-.48-1.01-1.16-1.01-.74,0-1.19.44-1.2,1.09l-.47-.02c0-.9.7-1.52,1.68-1.52s1.62.6,1.62,1.42c0,.74-.55,1.08-1.1,1.22.67.11,1.4.5,1.4,1.39,0,.98-.78,1.65-1.93,1.65s-1.94-.68-1.94-1.71Z"></path></g><g><path class="cls-27" d="M128.93,755.26c0-.7.41-1.25,1.08-1.45-.46-.18-.76-.62-.76-1.19,0-.9.78-1.41,1.54-1.41.86,0,1.53.57,1.53,1.45,0,.55-.3.97-.77,1.15.67.21,1.07.76,1.07,1.45,0,1.09-.9,1.63-1.84,1.63s-1.85-.55-1.85-1.63ZM130.78,756.44c.72,0,1.36-.41,1.36-1.22,0-.73-.56-1.21-1.36-1.21s-1.38.48-1.38,1.21c0,.82.66,1.22,1.38,1.22ZM130.81,753.67c.61,0,1.05-.4,1.05-.98,0-.61-.42-1.03-1.06-1.03-.56,0-1.06.36-1.06.98s.44,1.02,1.07,1.02Z"></path><path class="cls-27" d="M133.61,754.04c0-1.33.3-2.84,1.72-2.84s1.75,1.39,1.75,2.85-.4,2.84-1.72,2.84c-1.44,0-1.75-1.51-1.75-2.85ZM135.36,756.43c.88,0,1.23-1,1.23-2.36s-.36-2.41-1.26-2.41c-.96,0-1.23,1.1-1.23,2.39s.28,2.37,1.26,2.37Z"></path><path class="cls-27" d="M137.92,755.18l.48-.02c0,.78.58,1.27,1.48,1.27s1.44-.47,1.44-1.2c0-.9-.86-1.14-1.78-1.14v-.38c.7,0,1.48-.21,1.48-1.03,0-.6-.48-1.01-1.16-1.01-.74,0-1.19.44-1.2,1.09l-.47-.02c0-.9.7-1.52,1.68-1.52s1.62.6,1.62,1.42c0,.74-.55,1.08-1.1,1.22.67.11,1.4.5,1.4,1.39,0,.98-.78,1.66-1.93,1.66s-1.94-.68-1.94-1.71Z"></path></g><g><path class="cls-27" d="M132.21,761.31h-3.43v-.45h3.98v.4l-2.75,5.18h-.53l2.74-5.12Z"></path><path class="cls-27" d="M133.61,763.64c0-1.33.3-2.84,1.72-2.84s1.75,1.39,1.75,2.85-.4,2.84-1.72,2.84c-1.44,0-1.75-1.51-1.75-2.85ZM135.36,766.03c.88,0,1.23-1,1.23-2.36s-.36-2.41-1.26-2.41c-.96,0-1.23,1.1-1.23,2.39s.28,2.37,1.26,2.37Z"></path><path class="cls-27" d="M137.92,764.78l.48-.02c0,.78.58,1.27,1.48,1.27s1.44-.47,1.44-1.2c0-.9-.86-1.14-1.78-1.14v-.38c.7,0,1.48-.21,1.48-1.03,0-.6-.48-1.01-1.16-1.01-.74,0-1.19.44-1.2,1.09l-.47-.02c0-.9.7-1.52,1.68-1.52s1.62.6,1.62,1.42c0,.74-.55,1.08-1.1,1.22.67.11,1.4.5,1.4,1.39,0,.98-.78,1.66-1.93,1.66s-1.94-.68-1.94-1.71Z"></path></g><g><path class="cls-27" d="M129.98,772.67c.23-.14.5-.22.76-.22,1.01,0,1.81.81,1.81,1.81s-.84,1.83-1.87,1.83-1.88-.79-1.88-1.82c0-.37.12-.7.29-1l1.67-2.81h.54l-1.34,2.21ZM130.68,775.64c.76,0,1.39-.6,1.39-1.38s-.62-1.38-1.39-1.38-1.39.59-1.39,1.38.62,1.38,1.39,1.38Z"></path><path class="cls-27" d="M133.61,773.24c0-1.33.3-2.84,1.72-2.84s1.75,1.39,1.75,2.85-.4,2.84-1.72,2.84c-1.44,0-1.75-1.51-1.75-2.85ZM135.36,775.63c.88,0,1.23-1,1.23-2.36s-.36-2.41-1.26-2.41c-.96,0-1.23,1.1-1.23,2.39s.28,2.37,1.26,2.37Z"></path><path class="cls-27" d="M137.92,774.38l.48-.02c0,.78.58,1.27,1.48,1.27s1.44-.47,1.44-1.2c0-.9-.86-1.14-1.78-1.14v-.38c.7,0,1.48-.21,1.48-1.03,0-.6-.48-1.01-1.16-1.01-.74,0-1.19.44-1.2,1.09l-.47-.02c0-.9.7-1.52,1.68-1.52s1.62.6,1.62,1.42c0,.74-.55,1.08-1.1,1.22.67.11,1.4.5,1.4,1.39,0,.98-.78,1.66-1.93,1.66s-1.94-.68-1.94-1.71Z"></path></g><polyline class="cls-3" points="150.15 715.05 170.29 715.05 177.7 686.63"></polyline><path class="cls-26" d="M178.72,682.72l-3.43,4.97s2.41-1.06,3.99,1.04l-.57-6.01Z"></path><polyline class="cls-3" points="150.15 724.73 175.01 724.73 184.7 688.62"></polyline><path class="cls-26" d="M185.74,684.72l-3.46,4.94s2.42-1.04,3.99,1.07l-.52-6.01Z"></path><polyline class="cls-3" points="150.15 734.4 180.16 734.4 191.73 689.63"></polyline><path class="cls-26" d="M192.74,685.72l-3.42,4.98s2.41-1.07,4,1.03l-.58-6.01Z"></path><polyline class="cls-3" points="150.15 744.08 188.27 744.08 201.74 691.63"></polyline><path class="cls-26" d="M202.74,687.72l-3.41,4.98s2.41-1.07,4,1.03l-.59-6.01Z"></path><polyline class="cls-3" points="150.15 753.76 195.83 753.76 211.71 693.62"></polyline><path class="cls-26" d="M212.74,689.71l-3.44,4.96s2.41-1.05,3.99,1.05l-.55-6.01Z"></path><polyline class="cls-3" points="150.15 763.44 207 763.44 223.76 696.64"></polyline><path class="cls-26" d="M224.74,692.72l-3.38,5s2.4-1.08,4,1.01l-.62-6.01Z"></path><polyline class="cls-3" points="150.15 773.12 217.4 773.12 237.68 698.62"></polyline><path class="cls-26" d="M238.74,694.72l-3.48,4.93s2.42-1.04,3.98,1.08l-.5-6.02Z"></path><polyline class="cls-3" points="57.14 63.53 90.28 63.53 101.62 54.28"></polyline><path class="cls-26" d="M104.74,51.72l-5.7,1.99s2.57.57,2.61,3.2l3.09-5.19Z"></path><polyline class="cls-3" points="57.14 89.79 90.28 89.79 102.1 80.26"></polyline><path class="cls-26" d="M105.24,77.72l-5.71,1.96s2.57.58,2.59,3.21l3.12-5.17Z"></path><polyline class="cls-3" points="57.14 73.21 91 73.21 102.09 64.34"></polyline><path class="cls-26" d="M105.24,61.82l-5.72,1.93s2.57.59,2.58,3.23l3.14-5.16Z"></path><polyline class="cls-3" points="57.14 82.89 88.62 82.89 102.54 72.18"></polyline><path class="cls-26" d="M105.74,69.72l-5.76,1.82s2.56.64,2.52,3.27l3.24-5.09Z"></path><polyline class="cls-3" points="57.14 102.25 83.74 102.25 103.73 84.45"></polyline><path class="cls-26" d="M106.74,81.76l-5.61,2.23s2.59.45,2.74,3.08l2.86-5.31Z"></path><polyline class="cls-3" points="57.14 111.93 81.74 112.05 103.91 89.61"></polyline><path class="cls-26" d="M106.74,86.73l-5.46,2.59s2.62.29,2.94,2.9l2.52-5.49Z"></path><polyline class="cls-3" points="57.14 121.6 83.74 121.6 105.36 91.98"></polyline><path class="cls-26" d="M107.74,88.72l-5.01,3.36s2.63-.1,3.34,2.43l1.68-5.8Z"></path><g><path class="cls-23" d="M590.57,767.14h-4.16v3.42h-1.29v-8.01h5.72v1.22h-4.42v2.14h4.16v1.22Z"></path><path class="cls-23" d="M598.3,770.56h-5.73v-8.01h1.29v6.79h4.43v1.22Z"></path><path class="cls-23" d="M607.23,766.56c0,2.39-1.73,4.15-4.19,4.15s-4.19-1.76-4.19-4.15,1.73-4.15,4.19-4.15,4.19,1.76,4.19,4.15ZM600.19,766.56c0,1.73,1.2,2.91,2.84,2.91s2.84-1.18,2.84-2.91-1.2-2.91-2.84-2.91-2.84,1.18-2.84,2.91Z"></path><path class="cls-23" d="M616.91,766.56c0,2.39-1.73,4.15-4.19,4.15s-4.19-1.76-4.19-4.15,1.73-4.15,4.19-4.15,4.19,1.76,4.19,4.15ZM609.88,766.56c0,1.73,1.2,2.91,2.84,2.91s2.84-1.18,2.84-2.91-1.2-2.91-2.84-2.91-2.84,1.18-2.84,2.91Z"></path><path class="cls-23" d="M621.95,762.55c1.84,0,2.84.82,2.84,2.32,0,1.36-1.04,2.27-2.67,2.32l2.64,3.37h-1.6l-2.55-3.37h-.65v3.37h-1.29v-8.01h3.3ZM619.94,763.76v2.25h1.97c1.04,0,1.53-.38,1.53-1.15s-.52-1.1-1.53-1.1h-1.97Z"></path><path class="cls-23" d="M633.59,767.83h1.22v1.18h-1.22v1.56h-1.24v-1.56h-3.58v-.96l3-5.49h1.41l-2.91,5.26h2.08v-2.15h1.24v2.15Z"></path><path class="cls-23" d="M639.28,768.06h-3.32v-1.09h3.32v1.09Z"></path><path class="cls-23" d="M643.34,770.56h-1.24v-6.33l-2.04.88v-1.29l3.28-1.38v8.14Z"></path><path class="cls-23" d="M644.9,763.75c.38-.52,1.11-1.34,2.56-1.34,1.66,0,2.66,1.07,2.66,2.58,0,1.01-.57,1.71-1.06,2.24l-2.01,2.15h3.29v1.18h-5.13v-.97l2.9-3.08c.45-.48.72-.96.72-1.53,0-.8-.53-1.38-1.39-1.38-.81,0-1.24.41-1.64.89l-.89-.73Z"></path></g></g></g></svg> 