<?xml version="1.0" encoding="UTF-8"?> <svg xmlns="http://www.w3.org/2000/svg" id="Layer_2" data-name="Layer 2" viewBox="0 0 854.21 759.3"><defs><style> .cls-1 { stroke-dasharray: 6.09 5.08; } .cls-1, .cls-2, .cls-3, .cls-4, .cls-5, .cls-6, .cls-7, .cls-8, .cls-9, .cls-10, .cls-11, .cls-12, .cls-13, .cls-14, .cls-15, .cls-16, .cls-17 { fill: none; } .cls-1, .cls-2, .cls-3, .cls-4, .cls-5, .cls-6, .cls-8, .cls-10, .cls-11, .cls-13, .cls-14, .cls-15, .cls-17 { stroke-width: .25px; } .cls-1, .cls-3, .cls-4, .cls-5, .cls-6, .cls-7, .cls-8, .cls-9, .cls-10, .cls-11, .cls-14, .cls-15, .cls-16, .cls-17 { stroke-linecap: round; stroke-linejoin: round; } .cls-1, .cls-3, .cls-4, .cls-5, .cls-6, .cls-8, .cls-10, .cls-11, .cls-15, .cls-17 { stroke: #75655e; } .cls-2 { stroke: #afa49f; } .cls-2, .cls-12, .cls-13 { stroke-miterlimit: 10; } .cls-3 { stroke-dasharray: 1.54 1.54; } .cls-18 { fill: #3a2a22; } .cls-4 { stroke-dasharray: 5.95 4.95; } .cls-5 { stroke-dasharray: 6.24 5.2; } .cls-6 { stroke-dasharray: 5.89 4.91; } .cls-7 { stroke: #55453d; stroke-width: .15px; } .cls-8 { stroke-dasharray: 5.6 4.67; } .cls-19 { fill: #fff; } .cls-9, .cls-12 { stroke-width: .75px; } .cls-9, .cls-12, .cls-14, .cls-16 { stroke: #3a2a22; } .cls-11 { stroke-dasharray: 6.04 5.03; } .cls-20 { fill: #bc8ebc; } .cls-13 { stroke: #bc8ebc; } .cls-21 { fill: #afa49f; } .cls-15 { stroke-dasharray: 6.13 5.11; } .cls-16 { stroke-width: .35px; } .cls-22 { fill: #75655e; } .cls-17 { stroke-dasharray: 5.92 4.94; } </style></defs><g id="Layer_1-2" data-name="Layer 1"><g><polygon class="cls-19" points="700.47 742.55 700.47 758.92 522.29 758.92 522.29 522.9 420.28 522.9 420.28 538.89 214.82 538.89 214.82 512.9 214.82 231.9 259.97 223.04 305.13 214.45 350.38 206.23 395.72 198.47 441.05 191 486.49 183.88 531.92 177.05 577.54 170.68 600.44 167.66 600.44 167.63 600.44 34.75 784.2 34.75 784.2 146.21 784.2 146.23 800.72 144.55 837 141.16 837.02 141.13 847.02 140.23 847.02 674.71 700.47 674.71 700.47 695.12 700.47 742.55"></polygon><line class="cls-10" x1="214.82" y1="512.17" x2="211.82" y2="512.17"></line><line class="cls-11" x1="206.79" y1="512.17" x2="65.42" y2="512.17"></line><polyline class="cls-10" points="62.9 512.17 59.9 512.17 58.72 509.41"></polyline><line class="cls-15" x1="56.71" y1="504.72" x2="17.92" y2="414.12"></line><g><path class="cls-10" d="M16.91,411.77l-1.18-2.76s1-.3,2.87-.85"></path><path class="cls-17" d="M23.33,406.77c30.88-9.1,147.09-43.13,186.11-51.04"></path><path class="cls-10" d="M211.87,355.25c1.06-.2,2.04-.38,2.95-.53"></path></g><line class="cls-10" x1="768.64" y1="147.81" x2="768.64" y2="144.81"></line><line class="cls-8" x1="768.64" y1="140.14" x2="768.64" y2="91.15"></line><polyline class="cls-10" points="768.64 88.82 768.64 85.82 765.64 85.82"></polyline><line class="cls-4" x1="760.68" y1="85.82" x2="621.47" y2="85.82"></line><polyline class="cls-10" points="619 85.82 616 85.82 616 88.82"></polyline><line class="cls-5" x1="616" y1="94.02" x2="616" y2="160.01"></line><line class="cls-10" x1="616" y1="162.61" x2="616" y2="165.61"></line><polygon class="cls-16" points="614.29 48.6 614.29 164.31 611.98 164.31 611.98 46.3 772.65 46.3 772.65 145.84 770.34 145.84 770.34 48.6 614.29 48.6"></polygon><path class="cls-7" d="M643.04,739.68c0-26.19,21.23-44.55,47.43-44.55"></path><line class="cls-7" x1="690.47" y1="739.68" x2="690.47" y2="695.12"></line><line class="cls-7" x1="700.47" y1="742.62" x2="700.47" y2="695.12"></line><g><path class="cls-7" d="M576.15,612.8c0-23.12,18.6-39.32,41.55-39.32"></path><path class="cls-7" d="M517.16,314.92c23.12,0,39.32,18.6,39.32,41.55"></path><path class="cls-7" d="M703.33,113.07c-22.99,2.45-37.09,23.07-34.66,45.88"></path><path class="cls-7" d="M464.22,314.92c-23.12,0-39.32,18.6-39.32,41.55"></path><path class="cls-7" d="M373,369.14c0,23.12,18.6,39.32,41.55,39.32"></path><path class="cls-7" d="M461.83,432.57c0,23.12-18.6,39.32-41.55,39.32"></path></g><rect class="cls-16" x="643.04" y="739.68" width="47.43" height="2.88"></rect><rect class="cls-16" x="576.15" y="612.8" width="41.55" height="2.23"></rect><rect class="cls-16" x="514.93" y="314.92" width="2.23" height="41.55"></rect><rect class="cls-16" x="705.53" y="112.83" width="2.23" height="41.55" transform="translate(-10.18 75.65) rotate(-6.08)"></rect><rect class="cls-16" x="464.22" y="314.92" width="2.23" height="41.55"></rect><rect class="cls-16" x="373" y="366.91" width="41.55" height="2.23"></rect><rect class="cls-16" x="233.29" y="360.06" width="41.55" height="2.23"></rect><rect class="cls-16" x="420.28" y="430.34" width="41.55" height="2.23"></rect><rect class="cls-16" x="505.15" y="287.25" width="2.23" height="31.16"></rect><rect class="cls-16" x="507.38" y="318.42" width="2.23" height="31.16"></rect><rect class="cls-16" x="472.42" y="209.11" width="2.23" height="29.66"></rect><rect class="cls-16" x="474.65" y="238.78" width="2.23" height="29.66"></rect><rect class="cls-16" x="590.08" y="668.12" width="2.23" height="69.26"></rect><line class="cls-16" x1="590.08" y1="702.75" x2="592.31" y2="702.75"></line><rect class="cls-16" x="621.29" y="432.1" width="2.23" height="69.26"></rect><line class="cls-16" x1="621.29" y1="466.73" x2="623.52" y2="466.73"></line><line class="cls-10" x1="710.16" y1="559.63" x2="710.16" y2="558.88"></line><line class="cls-3" x1="710.16" y1="557.35" x2="710.16" y2="533.54"></line><polyline class="cls-10" points="710.16 532.77 710.16 532.02 709.41 532.02"></polyline><line class="cls-3" x1="707.88" y1="532.02" x2="684.07" y2="532.02"></line><polyline class="cls-10" points="683.3 532.02 682.55 532.02 682.55 532.77"></polyline><line class="cls-3" x1="682.55" y1="534.31" x2="682.55" y2="558.12"></line><line class="cls-10" x1="682.55" y1="558.88" x2="682.55" y2="559.63"></line><line class="cls-10" x1="747.21" y1="559.63" x2="747.21" y2="558.88"></line><line class="cls-3" x1="747.21" y1="557.35" x2="747.22" y2="533.54"></line><polyline class="cls-10" points="747.22 532.77 747.22 532.02 747.97 532.02"></polyline><line class="cls-3" x1="749.5" y1="532.02" x2="773.31" y2="532.02"></line><polyline class="cls-10" points="774.08 532.02 774.83 532.02 774.83 532.77"></polyline><line class="cls-3" x1="774.83" y1="534.31" x2="774.82" y2="558.12"></line><line class="cls-10" x1="774.82" y1="558.88" x2="774.82" y2="559.63"></line><line class="cls-10" x1="821.21" y1="571.17" x2="821.21" y2="574.17"></line><line class="cls-6" x1="821.21" y1="579.08" x2="821.22" y2="641.45"></line><polyline class="cls-10" points="821.22 643.9 821.22 646.9 821.21 646.9 818.22 646.9"></polyline><line class="cls-1" x1="813.14" y1="646.9" x2="770.99" y2="646.91"></line><line class="cls-10" x1="768.45" y1="646.91" x2="765.45" y2="646.91"></line><rect class="cls-16" x="678.93" y="509.92" width="124.66" height="49.71"></rect><g><rect class="cls-16" x="727.82" y="529.69" width="1.74" height="9.78" rx=".59" ry=".59"></rect><path class="cls-16" d="M728.69,545.36c.49,0,.9.4.9.9s-.4.9-.9.9-.9-.4-.9-.9.4-.9.9-.9Z"></path></g><polyline class="cls-16" points="729.56 531 731.98 531 731.98 532.55 729.56 532.55"></polyline><line class="cls-16" x1="731.12" y1="532.55" x2="731.12" y2="531"></line><polyline class="cls-16" points="729.56 534.87 741.61 534.87 741.61 556.62 715.77 556.62 715.76 534.87 727.82 534.87"></polyline><polyline class="cls-16" points="727.82 535.95 716.84 535.95 716.85 555.55 740.53 555.54 740.53 535.95 729.56 535.95"></polyline><line class="cls-16" x1="730.85" y1="635" x2="730.85" y2="662.71"></line><line class="cls-16" x1="765.45" y1="635" x2="765.45" y2="662.71"></line><line class="cls-16" x1="765.45" y1="637.5" x2="688.16" y2="637.5"></line><polyline class="cls-16" points="809.29 571.17 809.32 635 809.32 634.98 688.16 635"></polyline><rect class="cls-16" x="540.42" y="671.19" width="38.03" height="30.61"></rect><rect class="cls-16" x="540.42" y="703.8" width="38.03" height="30.61"></rect><g><path class="cls-16" d="M545.4,518.07h15.44c.6,0,1.08.48,1.08,1.08v5.29c0,.6-.48,1.08-1.08,1.08h-15.44c-.6,0-1.08-.48-1.08-1.08v-5.29c0-.6.48-1.08,1.08-1.08Z"></path><path class="cls-16" d="M548.66,529.67c-.28,0-.54.11-.73.32-1.88,2.09-3.08,5.3-3.08,8.9,0,6.31,3.7,11.42,8.28,11.42s8.28-5.11,8.28-11.42c0-3.6-1.2-6.8-3.08-8.9-.19-.21-.46-.32-.73-.32h-8.92Z"></path></g><line class="cls-16" x1="544.84" y1="538.89" x2="544.84" y2="525.37"></line><line class="cls-16" x1="561.39" y1="538.89" x2="561.39" y2="525.37"></line><polyline class="cls-16" points="573.79 518.07 573.79 543.09 617.7 543.09"></polyline><path class="cls-16" d="M597.02,526.13h9.87c.4,0,.72.32.72.72v10.9c0,.4-.32.72-.72.72h-20.82c-.4,0-.72-.32-.72-.72v-10.9c0-.4.32-.72.72-.72h9.48"></path><rect class="cls-16" x="595.55" y="522.68" width="1.47" height="5.89"></rect><circle class="cls-16" cx="596.28" cy="532.3" r=".84"></circle><line class="cls-16" x1="546.52" y1="635.51" x2="546.52" y2="638.71"></line><g><path class="cls-16" d="M546.52,639.58v11.6c0,1.38,1.12,2.5,2.5,2.5h61.83c1.38,0,2.5-1.12,2.5-2.5v-24.04c0-1.38-1.12-2.5-2.5-2.5h-61.83c-1.38,0-2.5,1.12-2.5,2.5v8.37"></path><path class="cls-16" d="M542.49,638.71h10.86c.24,0,.43.19.43.43s-.19.43-.43.43h-10.81"></path><path class="cls-16" d="M552.27,639.58c.17.46.61.79,1.14.79.67,0,1.21-.54,1.21-1.21s-.54-1.21-1.21-1.21c-.51,0-.95.32-1.13.77"></path><path class="cls-16" d="M548.24,639.58c.21,2.67,2.45,4.76,5.17,4.76,2.86,0,5.18-2.32,5.18-5.18,0-2.86-2.32-5.18-5.18-5.18-2.71,0-4.94,2.09-5.17,4.74"></path></g><rect class="cls-16" x="541.52" y="636.61" width=".97" height="5.08"></rect><line class="cls-16" x1="541.52" y1="620.93" x2="617.75" y2="620.93"></line><line class="cls-16" x1="541.52" y1="619.64" x2="617.71" y2="619.65"></line><line class="cls-16" x1="546.21" y1="619.64" x2="546.21" y2="620.93"></line><line class="cls-16" x1="584.21" y1="619.64" x2="584.21" y2="620.93"></line><polyline class="cls-16" points="420.28 479.2 497.2 479.2 497.2 504.34"></polyline><path class="cls-16" d="M476.46,496.26h9.87c.4,0,.72-.32.72-.72v-10.9c0-.4-.32-.72-.72-.72h-20.82c-.4,0-.72.32-.72.72v10.9c0,.4.32.72.72.72h9.48"></path><rect class="cls-16" x="474.99" y="493.83" width="1.47" height="5.89"></rect><g><circle class="cls-16" cx="475.72" cy="490.09" r=".84"></circle><path class="cls-16" d="M441.7,496.26h9.87c.4,0,.72-.32.72-.72v-10.9c0-.4-.32-.72-.72-.72h-20.82c-.4,0-.72.32-.72.72v10.9c0,.4.32.72.72.72h9.48"></path></g><rect class="cls-16" x="440.23" y="493.83" width="1.47" height="5.89"></rect><circle class="cls-16" cx="440.96" cy="490.09" r=".84"></circle><line class="cls-16" x1="540.32" y1="428.04" x2="540.32" y2="503.4"></line><line class="cls-16" x1="540.32" y1="428.04" x2="540.32" y2="504.22"></line><line class="cls-16" x1="541.6" y1="428.04" x2="541.6" y2="504.22"></line><line class="cls-16" x1="541.6" y1="432.72" x2="540.32" y2="432.72"></line><line class="cls-16" x1="541.6" y1="470.72" x2="540.32" y2="470.72"></line><g><path class="cls-16" d="M566.93,439.92c0-2.86-2.32-5.18-5.18-5.18s-5.18,2.32-5.18,5.18,2.32,5.18,5.18,5.18,5.18-2.32,5.18-5.18Z"></path><path class="cls-16" d="M562.96,439.92c0,.67-.54,1.21-1.21,1.21s-1.21-.54-1.21-1.21.54-1.21,1.21-1.21,1.21.54,1.21,1.21Z"></path></g><line class="cls-16" x1="581.9" y1="490.83" x2="541.6" y2="490.83"></line><g><path class="cls-16" d="M512.1,496.77h15.44c.6,0,1.08.48,1.08,1.08v5.3c0,.6-.48,1.08-1.08,1.08h-15.44c-.6,0-1.08-.48-1.08-1.08v-5.29c0-.6.48-1.08,1.08-1.08Z"></path><path class="cls-16" d="M515.36,492.62c-.28,0-.54-.11-.73-.32-1.88-2.09-3.08-5.3-3.08-8.9,0-6.31,3.7-11.42,8.28-11.42s8.28,5.11,8.28,11.42c0,3.6-1.2,6.8-3.08,8.9-.19.21-.46.32-.73.32h-8.92Z"></path></g><line class="cls-16" x1="511.54" y1="483.4" x2="511.54" y2="496.92"></line><line class="cls-16" x1="528.09" y1="483.4" x2="528.09" y2="496.92"></line><rect class="cls-16" x="810.59" y="585.05" width="24.28" height="36.98"></rect><rect class="cls-16" x="811.67" y="586.13" width="22.12" height="34.82"></rect><path class="cls-16" d="M812.42,603.54c0-.71.57-1.28,1.28-1.28.71,0,1.28.57,1.28,1.28,0,.71-.57,1.28-1.28,1.28-.71,0-1.28-.57-1.28-1.28Z"></path><line class="cls-16" x1="811.66" y1="586.14" x2="810.58" y2="585.06"></line><line class="cls-16" x1="811.67" y1="620.95" x2="810.59" y2="622.03"></line><line class="cls-16" x1="833.79" y1="620.95" x2="834.87" y2="622.03"></line><line class="cls-16" x1="833.78" y1="586.13" x2="834.86" y2="585.05"></line><rect class="cls-16" x="812.95" y="602.8" width="1.49" height="1.49" transform="translate(-188.37 752.64) rotate(-45.03)"></rect><line class="cls-16" x1="814.75" y1="603.54" x2="812.64" y2="603.54"></line><g><path class="cls-14" d="M604.57,471.76c-1.51.03-3.03.06-4.57.13-.8.04-1.6.09-2.35.13-.57.03-1.11.07-1.78.16-.65.09-1.42.25-1.73-.23-.07-.11-.12-.25-.13-.38-.06-.77,1.18-.9,2.24-.97,2.35-.15,3.74.04,5.44.16.9.06,1.9.1,2.89.14.99-.04,1.98-.08,2.89-.14,1.7-.12,3.09-.3,5.44-.16,1.05.07,2.3.2,2.24.97-.01.13-.06.27-.12.38-.31.48-1.08.33-1.73.23-.67-.1-1.21-.13-1.78-.16-.75-.04-1.56-.09-2.35-.13-1.55-.07-3.06-.1-4.57-.13Z"></path><path class="cls-14" d="M604.57,467.07c-1.51.03-3.03.06-4.57.13-.8.04-1.6.09-2.35.13-.57.03-1.11.07-1.78.16-.65.09-1.42.25-1.73-.23-.07-.11-.12-.25-.13-.38-.06-.77,1.18-.9,2.24-.97,2.35-.15,3.74.04,5.44.16.9.06,1.9.1,2.89.14.99-.04,1.98-.08,2.89-.14,1.7-.12,3.09-.3,5.44-.16,1.05.07,2.3.2,2.24.97-.01.13-.06.27-.12.38-.31.48-1.08.33-1.73.23-.67-.1-1.21-.13-1.78-.16-.75-.04-1.56-.09-2.35-.13-1.55-.07-3.06-.1-4.57-.13Z"></path><path class="cls-14" d="M604.57,462.37c-1.51.03-3.03.06-4.57.13-.8.04-1.6.09-2.35.13-.57.03-1.11.07-1.78.16-.65.09-1.42.25-1.73-.23-.07-.11-.12-.25-.13-.38-.06-.77,1.18-.9,2.24-.97,2.35-.15,3.74.04,5.44.16.9.06,1.9.1,2.89.14.99-.04,1.98-.08,2.89-.14,1.7-.12,3.09-.3,5.44-.16,1.05.07,2.3.2,2.24.97-.01.13-.06.27-.12.38-.31.48-1.08.32-1.73.23-.67-.1-1.21-.13-1.78-.16-.75-.04-1.56-.09-2.35-.13-1.55-.07-3.06-.1-4.57-.13Z"></path></g><line class="cls-14" x1="604.57" y1="425.73" x2="604.57" y2="507.73"></line><g><path class="cls-14" d="M491.45,323.42c-1.51.03-3.03.06-4.57.13-.8.04-1.6.09-2.35.13-.57.03-1.11.07-1.78.16-.65.09-1.42.25-1.73-.23-.07-.11-.12-.25-.13-.38-.06-.77,1.18-.9,2.24-.97,2.35-.15,3.74.04,5.44.16.9.06,1.9.1,2.89.14.99-.04,1.98-.08,2.89-.14,1.7-.12,3.09-.3,5.44-.16,1.05.07,2.3.2,2.24.97-.01.13-.06.27-.12.38-.31.48-1.08.33-1.73.23-.67-.1-1.21-.13-1.78-.16-.75-.04-1.56-.09-2.35-.13-1.55-.07-3.06-.1-4.57-.13Z"></path><path class="cls-14" d="M491.45,318.72c-1.51.03-3.03.06-4.57.13-.8.04-1.6.09-2.35.13-.57.03-1.11.07-1.78.16-.65.09-1.42.25-1.73-.23-.07-.11-.12-.25-.13-.38-.06-.77,1.18-.9,2.24-.97,2.35-.15,3.74.04,5.44.16.9.06,1.9.1,2.89.14.99-.04,1.98-.08,2.89-.14,1.7-.12,3.09-.3,5.44-.16,1.05.07,2.3.2,2.24.97-.01.13-.06.27-.12.38-.31.48-1.08.32-1.73.23-.67-.1-1.21-.13-1.78-.16-.75-.04-1.56-.09-2.35-.13-1.55-.07-3.06-.1-4.57-.13Z"></path><path class="cls-14" d="M491.45,314.03c-1.51.03-3.03.06-4.57.13-.8.04-1.6.09-2.35.13-.57.03-1.11.07-1.78.16-.65.09-1.42.25-1.73-.23-.07-.11-.12-.25-.13-.38-.06-.77,1.18-.9,2.24-.97,2.35-.15,3.74.04,5.44.16.9.06,1.9.1,2.89.14.99-.04,1.98-.08,2.89-.14,1.7-.12,3.09-.3,5.44-.16,1.05.07,2.3.2,2.24.97-.01.13-.06.27-.12.38-.31.48-1.08.32-1.73.23-.67-.1-1.21-.13-1.78-.16-.75-.04-1.56-.09-2.35-.13-1.55-.07-3.06-.1-4.57-.13Z"></path></g><line class="cls-14" x1="491.45" y1="280.29" x2="491.45" y2="356.47"></line><g><path class="cls-14" d="M490.2,244.01c-1.51.03-3.03.06-4.57.13-.8.04-1.6.09-2.35.13-.57.03-1.11.07-1.78.16-.65.09-1.42.25-1.73-.23-.07-.11-.12-.25-.13-.38-.06-.77,1.18-.9,2.24-.97,2.35-.15,3.74.04,5.44.16.9.06,1.9.1,2.89.14.99-.04,1.98-.08,2.89-.14,1.7-.12,3.09-.3,5.44-.16,1.05.07,2.3.2,2.24.97-.01.13-.06.27-.12.38-.31.48-1.08.33-1.73.23-.67-.1-1.21-.13-1.78-.16-.75-.04-1.56-.09-2.35-.13-1.55-.07-3.06-.1-4.57-.13Z"></path><path class="cls-14" d="M490.2,239.32c-1.51.03-3.03.06-4.57.13-.8.04-1.6.09-2.35.13-.57.03-1.11.07-1.78.16-.65.09-1.42.25-1.73-.23-.07-.11-.12-.25-.13-.38-.06-.77,1.18-.9,2.24-.97,2.35-.15,3.74.04,5.44.16.9.06,1.9.1,2.89.14.99-.04,1.98-.08,2.89-.14,1.7-.12,3.09-.3,5.44-.16,1.05.07,2.3.2,2.24.97-.01.13-.06.27-.12.38-.31.48-1.08.32-1.73.23-.67-.1-1.21-.13-1.78-.16-.75-.04-1.56-.09-2.35-.13-1.55-.07-3.06-.1-4.57-.13Z"></path><path class="cls-14" d="M490.2,234.62c-1.51.03-3.03.06-4.57.13-.8.04-1.6.09-2.35.13-.57.03-1.11.07-1.78.16-.65.09-1.42.25-1.73-.23-.07-.11-.12-.25-.13-.38-.06-.77,1.18-.9,2.24-.97,2.35-.15,3.74.04,5.44.16.9.06,1.9.1,2.89.14.99-.04,1.98-.08,2.89-.14,1.7-.12,3.09-.3,5.44-.16,1.05.07,2.3.2,2.24.97-.01.13-.06.27-.12.38-.31.48-1.08.32-1.73.23-.67-.1-1.21-.13-1.78-.16-.75-.04-1.56-.09-2.35-.13-1.55-.07-3.06-.1-4.57-.13Z"></path></g><line class="cls-14" x1="490.2" y1="203.39" x2="490.2" y2="274.56"></line><polyline class="cls-14" points="837.11 149.26 795 153.23 752.98 157.57 713.19 161.93"></polyline><polyline class="cls-14" points="463.13 195.66 445.58 198.38 400.89 205.77 356.38 213.43 325.58 218.98"></polyline><polyline class="cls-14" points="598.97 176.01 579.84 178.53 535.06 184.81 530.45 185.49"></polyline><polyline class="cls-14" points="464.05 201.34 418.25 208.72 372.45 216.48 326.64 224.61"></polyline><line class="cls-14" x1="222.94" y1="362.29" x2="222.94" y2="510.59"></line><line class="cls-14" x1="599.7" y1="181.67" x2="531.27" y2="191.18"></line><line class="cls-14" x1="228.67" y1="362.29" x2="228.67" y2="512.9"></line><polyline class="cls-14" points="837.2 154.98 796.02 158.95 754.92 163.11 713.83 167.63 713.19 161.91"></polyline><polyline class="cls-14" points="600.44 167.63 600.44 34.75 784.2 34.75 784.2 146.21"></polyline><polygon class="cls-9" points="712.53 156.2 752.52 151.75 794.72 147.5 837.01 143.44 836.99 141.16 800.72 144.55 755.29 149.16 712.26 153.9 712.53 156.2"></polygon><polygon class="cls-9" points="666.66 161.55 623.52 166.89 578.18 172.9 532.84 179.27 487.6 186.01 442.35 193.12 397.19 200.51 352.04 208.36 307.07 216.48 262.1 224.98 217.13 233.84 217.13 233.75 217.13 512.9 214.82 512.9 214.82 231.9 259.97 223.04 305.13 214.45 350.38 206.23 395.72 198.47 441.06 191 486.49 183.88 531.92 177.05 577.54 170.68 623.06 164.68 666.37 159.24 666.66 161.55"></polygon><polyline class="cls-9" points="462.29 189.98 463.12 195.61 460.91 195.98 459.99 190.26 462.29 189.98"></polyline><polyline class="cls-9" points="393.96 201.06 394.88 206.79 392.67 207.16 391.65 201.43 393.96 201.06"></polyline><polyline class="cls-9" points="325.72 213.07 326.74 218.7 324.52 219.16 323.5 213.43 325.72 213.07"></polyline><polyline class="cls-9" points="257.67 225.81 258.77 231.44 256.56 231.9 255.45 226.27 257.67 225.81"></polyline><polyline class="cls-9" points="530.72 179.64 531.55 185.27 529.24 185.64 528.41 179.91 530.72 179.64"></polyline><polyline class="cls-9" points="599.33 170.03 600.07 175.76 597.76 176.13 597.02 170.4 599.33 170.03"></polyline><polyline class="cls-9" points="769.51 150 770.07 155.72 767.76 156 767.21 150.27 769.51 150"></polyline><polyline class="cls-9" points="710.88 162.18 713.19 161.91 712.26 153.87 709.95 154.15 710.88 162.18"></polyline><polyline class="cls-9" points="667.38 167.26 669.6 166.99 668.68 158.95 666.37 159.23 667.38 167.26"></polyline><rect class="cls-9" x="217.13" y="359.33" width="5.82" height="2.31"></rect><rect class="cls-9" x="217.13" y="290.08" width="5.82" height="2.31"></rect><rect class="cls-9" x="217.13" y="428.59" width="5.82" height="2.31"></rect><rect class="cls-9" x="217.13" y="510.59" width="5.82" height="2.31"></rect><polyline class="cls-9" points="222.94 240.03 222.94 238.55 224.42 238.27 218.6 233.47 217.13 233.84 217.13 235.32 222.94 240.03"></polyline><polygon class="cls-18" points="690.47 695.12 700.47 695.12 700.47 674.71 847.02 674.71 847.02 140.23 837.02 141.13 837.02 455.74 789.63 455.74 789.63 571.17 837.02 571.17 837.02 662.71 688.16 662.71 688.16 635 678.93 635 678.93 672.74 690.47 672.74 690.47 695.12"></polygon><polygon class="cls-12" points="690.47 695.12 700.47 695.12 700.47 674.71 847.02 674.71 847.02 140.23 837.02 141.13 837.02 455.74 789.63 455.74 789.63 571.17 837.02 571.17 837.02 662.71 688.16 662.71 688.16 635 678.93 635 678.93 672.74 690.47 672.74 690.47 695.12"></polygon><polygon class="cls-18" points="22.02 512.9 414.55 512.9 414.55 471.9 420.28 471.9 420.28 504.22 581.97 504.22 581.97 428.04 540.32 428.04 540.32 425.73 420.28 425.73 420.28 430.34 414.55 430.34 414.55 408.46 420.28 408.46 420.28 420 623.52 420 623.52 432.1 617.7 432.1 617.7 425.73 590 425.73 590 507.73 617.7 507.73 617.7 501.35 623.52 501.35 623.52 573.47 617.7 573.47 617.7 518.07 532.29 518.07 532.29 619.64 541.52 619.64 541.52 658.89 617.7 658.89 617.7 615.03 623.52 615.03 623.52 664.71 592.31 664.71 592.31 668.12 586.59 668.12 586.59 664.71 532.29 664.71 532.29 740.89 586.59 740.89 586.59 737.38 592.31 737.38 592.31 748.92 690.47 748.92 690.47 742.55 700.47 742.55 700.47 758.92 522.29 758.92 522.29 522.9 420.28 522.9 420.28 538.89 22.02 538.89 22.02 512.9"></polygon><polygon class="cls-12" points="22.02 512.9 414.55 512.9 414.55 471.9 420.28 471.9 420.28 504.22 581.97 504.22 581.97 428.04 540.32 428.04 540.32 425.73 420.28 425.73 420.28 430.34 414.55 430.34 414.55 408.46 420.28 408.46 420.28 420 623.52 420 623.52 432.1 617.7 432.1 617.7 425.73 590 425.73 590 507.73 617.7 507.73 617.7 501.35 623.52 501.35 623.52 573.47 617.7 573.47 617.7 518.07 532.29 518.07 532.29 619.64 541.52 619.64 541.52 658.89 617.7 658.89 617.7 615.03 623.52 615.03 623.52 664.71 592.31 664.71 592.31 668.12 586.59 668.12 586.59 664.71 532.29 664.71 532.29 740.89 586.59 740.89 586.59 737.38 592.31 737.38 592.31 748.92 690.47 748.92 690.47 742.55 700.47 742.55 700.47 758.92 522.29 758.92 522.29 522.9 420.28 522.9 420.28 538.89 22.02 538.89 22.02 512.9"></polygon><polygon class="cls-18" points="463.12 195.61 464.05 201.34 471.07 200.23 471.07 209.11 476.88 209.11 476.88 203.39 504.59 203.39 504.59 274.56 476.88 274.56 476.88 268.44 471.07 268.44 471.07 356.47 466.45 356.47 466.45 362.29 514.93 362.29 514.93 356.47 510.31 356.47 510.31 349.55 504.59 349.55 504.59 356.47 476.88 356.47 476.88 280.29 504.59 280.29 504.59 287.22 510.31 287.22 510.31 194.23 531.27 191.18 530.44 185.45 530.45 185.49 490.27 191.46 463.13 195.66 463.12 195.61"></polygon><polygon class="cls-12" points="463.12 195.61 464.05 201.34 471.07 200.23 471.07 209.11 476.88 209.11 476.88 203.39 504.59 203.39 504.59 274.56 476.88 274.56 476.88 268.44 471.07 268.44 471.07 356.47 466.45 356.47 466.45 362.29 514.93 362.29 514.93 356.47 510.31 356.47 510.31 349.55 504.59 349.55 504.59 356.47 476.88 356.47 476.88 280.29 504.59 280.29 504.59 287.22 510.31 287.22 510.31 194.23 531.27 191.18 530.44 185.45 530.45 185.49 490.27 191.46 463.13 195.66 463.12 195.61"></polygon><polygon class="cls-18" points="325.58 218.98 311.78 221.47 267.36 229.78 222.95 238.55 222.95 362.29 233.29 362.29 233.29 356.47 228.67 356.47 228.67 241.04 310.67 241.04 310.67 356.47 274.84 356.47 274.84 362.29 414.55 362.29 414.55 366.91 420.28 366.91 420.28 362.29 424.9 362.29 424.9 356.47 316.39 356.47 316.39 226.45 326.64 224.61 325.58 218.98"></polygon><polygon class="cls-12" points="325.58 218.98 311.78 221.47 267.36 229.78 222.95 238.55 222.95 362.29 233.29 362.29 233.29 356.47 228.67 356.47 228.67 241.04 310.67 241.04 310.67 356.47 274.84 356.47 274.84 362.29 414.55 362.29 414.55 366.91 420.28 366.91 420.28 362.29 424.9 362.29 424.9 356.47 316.39 356.47 316.39 226.45 326.64 224.61 325.58 218.98"></polygon><polygon class="cls-18" points="668.49 167.08 624.72 172.62 598.97 176.01 598.96 175.94 599.7 181.67 621.21 178.9 621.21 186.84 651.22 186.84 651.22 334 643.5 334 643.5 356.47 556.48 356.47 556.48 362.29 656.95 362.29 656.95 174.37 669.14 172.9 668.49 167.08"></polygon><polygon class="cls-12" points="668.49 167.08 624.72 172.62 598.97 176.01 598.96 175.94 599.7 181.67 621.21 178.9 621.21 186.84 651.22 186.84 651.22 334 643.5 334 643.5 356.47 556.48 356.47 556.48 362.29 656.95 362.29 656.95 174.37 669.14 172.9 668.49 167.08"></polygon><g><path class="cls-20" d="M712.53,719.14c-.08-.02-.14-.07-.14-.14s.06-.13.14-.14c3.3-.56,4.94-2.74,4.94-6.02v-3.83c0-1.16,1.01-1.98,2.66-2.2.33-.05.61.23.45.47-.31.46-.47,1.06-.47,1.78v3.48c0,2.95-1.67,5.22-4.98,6.17-.37.11-.37.5,0,.61,3.31.96,4.98,3.22,4.98,6.18v3.48c0,.72.16,1.32.47,1.78.16.23-.12.51-.45.47-1.64-.22-2.66-1.05-2.66-2.2v-3.84c0-3.29-1.64-5.46-4.94-6.02h0Z"></path><path class="cls-13" d="M712.53,719.14c-.08-.02-.14-.07-.14-.14s.06-.13.14-.14c3.3-.56,4.94-2.74,4.94-6.02v-3.83c0-1.16,1.01-1.98,2.66-2.2.33-.05.61.23.45.47-.31.46-.47,1.06-.47,1.78v3.48c0,2.95-1.67,5.22-4.98,6.17-.37.11-.37.5,0,.61,3.31.96,4.98,3.22,4.98,6.18v3.48c0,.72.16,1.32.47,1.78.16.23-.12.51-.45.47-1.64-.22-2.66-1.05-2.66-2.2v-3.84c0-3.29-1.64-5.46-4.94-6.02h0Z"></path></g><path class="cls-18" d="M273.3,433.25h2.52c1.9,0,2.97.89,2.97,2.53s-1.07,2.54-2.97,2.54h-1.72v3.99h-.8v-9.06ZM275.74,437.6c1.41,0,2.24-.61,2.24-1.81s-.81-1.81-2.24-1.81h-1.64v3.62h1.64Z"></path><path class="cls-18" d="M280.31,435.9h.78v1.09c.43-.78,1.31-1.18,2.02-1.18.33,0,.66.07.99.24l-.39.7c-.21-.1-.51-.17-.77-.17-.68,0-1.46.36-1.74,1.3-.08.27-.12.57-.12,1.27v3.15h-.78v-6.41Z"></path><path class="cls-18" d="M285.36,433.25h.94v1.39h-.94v-1.39ZM285.45,435.9h.77v6.41h-.77v-6.41Z"></path><path class="cls-18" d="M288.25,435.9h.78v1.1c.38-.84,1.11-1.19,1.88-1.19.91,0,1.57.4,1.89,1.25.4-.83,1.09-1.25,2-1.25,1.55,0,2.13,1.16,2.13,2.68v3.82h-.78v-3.64c0-1.33-.39-2.18-1.52-2.18-1.02,0-1.65.77-1.65,2.26v3.57h-.78v-3.76c0-1.4-.52-2.07-1.5-2.07-1.03,0-1.67.79-1.67,2.26v3.57h-.78v-6.41Z"></path><path class="cls-18" d="M303.08,441.11c-.43.82-1.25,1.29-2.25,1.29-1.44,0-2.31-.77-2.31-1.94,0-.69.29-1.16.72-1.44.46-.31,1.09-.42,1.77-.42h2.05v-.28c0-1.19-.62-1.83-1.82-1.83-.79,0-1.4.29-1.98,1.02l-.56-.48c.68-.84,1.53-1.21,2.59-1.21,1.63,0,2.54.89,2.54,2.51v3.99h-.71l-.04-1.2ZM300.9,441.76c1.18,0,2.17-.93,2.17-2.2v-.36h-1.95c-.51,0-1.03.08-1.37.32-.28.21-.44.51-.44.94,0,.79.6,1.3,1.6,1.3Z"></path><path class="cls-18" d="M305.79,435.9h.78v1.09c.43-.78,1.31-1.18,2.02-1.18.33,0,.66.07.99.24l-.39.7c-.21-.1-.51-.17-.77-.17-.68,0-1.46.36-1.74,1.3-.08.27-.12.57-.12,1.27v3.15h-.78v-6.41Z"></path><path class="cls-18" d="M312.84,442.11l-2.55-6.21h.86l2.1,5.42,2.11-5.42h.85l-3.69,9.05h-.84l1.17-2.84Z"></path><path class="cls-18" d="M321.1,433.25h2.72c1.68,0,2.68.84,2.68,2.25,0,.94-.46,1.68-1.24,2,1.1.25,1.7,1.07,1.7,2.31,0,1.61-1.02,2.5-2.88,2.5h-2.97v-9.06ZM324.07,437.25c.98,0,1.63-.64,1.63-1.64s-.69-1.61-1.88-1.61h-1.91v3.26h2.16ZM324.02,441.56c1.42,0,2.14-.6,2.14-1.79,0-1.13-.66-1.79-1.79-1.79h-2.46v3.58h2.11Z"></path><path class="cls-18" d="M328.43,439.15c0-1.84.99-3.34,2.81-3.34,1.96,0,2.76,1.53,2.76,2.94,0,.1-.01.4-.04.55h-4.76c.03,1.51.84,2.39,2.14,2.39.82,0,1.35-.23,1.91-.83l.55.49c-.73.75-1.43,1.05-2.46,1.05-1.89,0-2.91-1.41-2.91-3.25ZM333.25,438.72c0-.08,0-.16,0-.24,0-.92-.58-2.01-2-2.01-1.23,0-1.98.98-2.07,2.26h4.06Z"></path><path class="cls-18" d="M335.41,439.1c0-1.96,1.29-3.29,2.92-3.29,1.05,0,1.87.54,2.29,1.36v-3.92h.77v9.06h-.77v-1.26c-.44.84-1.25,1.35-2.29,1.35-1.72,0-2.92-1.42-2.92-3.3ZM338.45,441.68c1.3,0,2.23-1.08,2.23-2.58s-.93-2.58-2.23-2.58-2.26,1.09-2.26,2.58.95,2.58,2.26,2.58Z"></path><path class="cls-18" d="M343.43,435.9h.78v1.09c.43-.78,1.31-1.18,2.02-1.18.33,0,.66.07.99.24l-.39.7c-.21-.1-.51-.17-.77-.17-.68,0-1.46.36-1.74,1.3-.08.27-.12.57-.12,1.27v3.15h-.78v-6.41Z"></path><path class="cls-18" d="M347.81,439.1c0-1.92,1.25-3.29,3.05-3.29s3.04,1.37,3.04,3.29-1.27,3.3-3.04,3.3-3.05-1.37-3.05-3.3ZM350.85,441.71c1.37,0,2.26-1.04,2.26-2.61s-.9-2.61-2.26-2.61-2.28,1.05-2.28,2.61.9,2.61,2.28,2.61Z"></path><path class="cls-18" d="M355.34,439.1c0-1.92,1.25-3.29,3.05-3.29s3.04,1.37,3.04,3.29-1.27,3.3-3.04,3.3-3.05-1.37-3.05-3.3ZM358.39,441.71c1.37,0,2.26-1.04,2.26-2.61s-.9-2.61-2.26-2.61-2.28,1.05-2.28,2.61.9,2.61,2.28,2.61Z"></path><path class="cls-18" d="M363.18,435.9h.78v1.1c.38-.84,1.11-1.19,1.88-1.19.91,0,1.57.4,1.89,1.25.4-.83,1.09-1.25,2-1.25,1.55,0,2.13,1.16,2.13,2.68v3.82h-.78v-3.64c0-1.33-.39-2.18-1.52-2.18-1.02,0-1.65.77-1.65,2.26v3.57h-.78v-3.76c0-1.4-.52-2.07-1.5-2.07-1.03,0-1.67.79-1.67,2.26v3.57h-.78v-6.41Z"></path><path class="cls-18" d="M554.63,271.11h2.72c1.68,0,2.68.84,2.68,2.25,0,.94-.46,1.68-1.24,2,1.1.25,1.7,1.07,1.7,2.31,0,1.61-1.02,2.5-2.88,2.5h-2.97v-9.06ZM557.6,275.12c.98,0,1.63-.64,1.63-1.64s-.69-1.61-1.88-1.61h-1.91v3.26h2.16ZM557.55,279.43c1.42,0,2.14-.6,2.14-1.79,0-1.13-.66-1.79-1.79-1.79h-2.46v3.58h2.11Z"></path><path class="cls-18" d="M561.93,277.02c0-1.84.99-3.34,2.81-3.34,1.96,0,2.76,1.53,2.76,2.94,0,.1-.01.4-.04.55h-4.76c.03,1.51.84,2.39,2.14,2.39.82,0,1.35-.23,1.91-.83l.55.49c-.73.75-1.43,1.05-2.46,1.05-1.89,0-2.91-1.41-2.91-3.25ZM566.74,276.59c0-.08,0-.16,0-.24,0-.92-.58-2.02-2-2.02-1.23,0-1.98.98-2.07,2.26h4.06Z"></path><path class="cls-18" d="M568.89,276.96c0-1.96,1.29-3.29,2.92-3.29,1.05,0,1.87.54,2.29,1.36v-3.92h.77v9.06h-.77v-1.26c-.44.85-1.25,1.35-2.29,1.35-1.72,0-2.92-1.42-2.92-3.3ZM571.94,279.54c1.3,0,2.23-1.08,2.23-2.58s-.93-2.58-2.23-2.58-2.26,1.09-2.26,2.58.95,2.58,2.26,2.58Z"></path><path class="cls-18" d="M576.91,273.77h.78v1.09c.43-.78,1.31-1.18,2.02-1.18.33,0,.66.07.99.24l-.39.7c-.21-.1-.51-.17-.77-.17-.68,0-1.46.36-1.74,1.3-.08.27-.12.57-.12,1.27v3.15h-.78v-6.41Z"></path><path class="cls-18" d="M581.29,276.96c0-1.92,1.25-3.29,3.05-3.29s3.04,1.37,3.04,3.29-1.27,3.3-3.04,3.3-3.05-1.36-3.05-3.3ZM584.34,279.57c1.37,0,2.26-1.04,2.26-2.61s-.9-2.61-2.26-2.61-2.28,1.05-2.28,2.61.9,2.61,2.28,2.61Z"></path><path class="cls-18" d="M588.82,276.96c0-1.92,1.25-3.29,3.05-3.29s3.04,1.37,3.04,3.29-1.27,3.3-3.04,3.3-3.05-1.36-3.05-3.3ZM591.87,279.57c1.37,0,2.26-1.04,2.26-2.61s-.9-2.61-2.26-2.61-2.28,1.05-2.28,2.61.9,2.61,2.28,2.61Z"></path><path class="cls-18" d="M596.66,273.77h.78v1.1c.38-.85,1.11-1.19,1.88-1.19.91,0,1.57.4,1.89,1.25.4-.83,1.09-1.25,2-1.25,1.55,0,2.13,1.16,2.13,2.69v3.82h-.78v-3.64c0-1.33-.39-2.18-1.52-2.18-1.02,0-1.65.77-1.65,2.26v3.57h-.78v-3.76c0-1.4-.52-2.07-1.5-2.07-1.03,0-1.67.79-1.67,2.26v3.57h-.78v-6.41Z"></path><path class="cls-18" d="M368.75,271.11h2.72c1.68,0,2.68.84,2.68,2.25,0,.94-.46,1.68-1.24,2,1.1.25,1.7,1.07,1.7,2.31,0,1.61-1.02,2.5-2.88,2.5h-2.97v-9.06ZM371.72,275.12c.98,0,1.63-.64,1.63-1.64s-.69-1.61-1.88-1.61h-1.91v3.26h2.16ZM371.67,279.43c1.42,0,2.14-.6,2.14-1.79,0-1.13-.66-1.79-1.79-1.79h-2.46v3.58h2.11Z"></path><path class="cls-18" d="M376.05,277.02c0-1.84.99-3.34,2.81-3.34,1.96,0,2.76,1.53,2.76,2.94,0,.1-.01.4-.04.55h-4.76c.03,1.51.84,2.39,2.14,2.39.82,0,1.35-.23,1.91-.83l.55.49c-.73.75-1.43,1.05-2.46,1.05-1.89,0-2.91-1.41-2.91-3.25ZM380.86,276.59c0-.08,0-.16,0-.24,0-.92-.58-2.02-2-2.02-1.23,0-1.98.98-2.07,2.26h4.06Z"></path><path class="cls-18" d="M383.02,276.96c0-1.96,1.29-3.29,2.92-3.29,1.05,0,1.87.54,2.29,1.36v-3.92h.77v9.06h-.77v-1.26c-.44.85-1.25,1.35-2.29,1.35-1.72,0-2.92-1.42-2.92-3.3ZM386.06,279.54c1.3,0,2.23-1.08,2.23-2.58s-.93-2.58-2.23-2.58-2.26,1.09-2.26,2.58.95,2.58,2.26,2.58Z"></path><path class="cls-18" d="M391.03,273.77h.78v1.09c.43-.78,1.31-1.18,2.02-1.18.33,0,.66.07.99.24l-.39.7c-.21-.1-.51-.17-.77-.17-.68,0-1.46.36-1.74,1.3-.08.27-.12.57-.12,1.27v3.15h-.78v-6.41Z"></path><path class="cls-18" d="M395.41,276.96c0-1.92,1.25-3.29,3.05-3.29s3.04,1.37,3.04,3.29-1.27,3.3-3.04,3.3-3.05-1.36-3.05-3.3ZM398.46,279.57c1.37,0,2.26-1.04,2.26-2.61s-.9-2.61-2.26-2.61-2.28,1.05-2.28,2.61.9,2.61,2.28,2.61Z"></path><path class="cls-18" d="M402.94,276.96c0-1.92,1.25-3.29,3.05-3.29s3.04,1.37,3.04,3.29-1.27,3.3-3.04,3.3-3.05-1.36-3.05-3.3ZM405.99,279.57c1.37,0,2.26-1.04,2.26-2.61s-.9-2.61-2.26-2.61-2.28,1.05-2.28,2.61.9,2.61,2.28,2.61Z"></path><path class="cls-18" d="M410.78,273.77h.78v1.1c.38-.85,1.11-1.19,1.88-1.19.91,0,1.57.4,1.89,1.25.4-.83,1.09-1.25,2-1.25,1.55,0,2.13,1.16,2.13,2.69v3.82h-.78v-3.64c0-1.33-.39-2.18-1.52-2.18-1.02,0-1.65.77-1.65,2.26v3.57h-.78v-3.76c0-1.4-.52-2.07-1.5-2.07-1.03,0-1.67.79-1.67,2.26v3.57h-.78v-6.41Z"></path><path class="cls-18" d="M713.58,271.11h.81v8.33h4.18v.73h-4.99v-9.06Z"></path><path class="cls-18" d="M719.7,271.11h.94v1.39h-.94v-1.39ZM719.78,273.77h.77v6.41h-.77v-6.41Z"></path><path class="cls-18" d="M721.96,273.77h.86l2.1,5.42,2.11-5.42h.85l-2.61,6.41h-.68l-2.63-6.41Z"></path><path class="cls-18" d="M729.21,271.11h.94v1.39h-.94v-1.39ZM729.29,273.77h.77v6.41h-.77v-6.41Z"></path><path class="cls-18" d="M732.1,273.77h.78v1.05c.4-.76,1.12-1.14,2.01-1.14,1.38,0,2.2.81,2.2,2.51v3.99h-.78v-3.71c0-1.45-.55-2.11-1.61-2.11-1.16,0-1.83.79-1.83,2.55v3.27h-.78v-6.41Z"></path><path class="cls-18" d="M738.56,280.94s0-.1.03-.26l1.11-.88c-.57-.22-.96-.59-.96-1.26,0-.53.27-.9.72-1.2-.36-.37-.56-.87-.56-1.45,0-1.3,1.04-2.2,2.38-2.2.64,0,1.22.21,1.64.59l1.02-.86.4.49-1,.88c.19.33.3.71.3,1.14,0,1.28-.96,2.13-2.33,2.13-.53,0-.99-.12-1.37-.34-.31.18-.45.42-.45.72,0,.66.63.83,1.62.98,1.6.25,2.99.44,2.99,1.75,0,1.16-1.05,1.78-2.7,1.78-1.82,0-2.85-.7-2.85-2ZM741.42,282.33c1.09,0,1.92-.34,1.92-1.08,0-.86-1.16-.96-2.31-1.14-.31-.05-.6-.1-.89-.17l-.8.92c-.01.09-.01.11-.01.15,0,.9.79,1.33,2.09,1.33ZM741.29,277.4c.98,0,1.59-.65,1.59-1.53s-.64-1.56-1.58-1.56-1.62.65-1.62,1.55.63,1.55,1.61,1.55Z"></path><path class="cls-18" d="M749.04,271.11h2.52c1.99,0,2.97.93,2.97,2.5,0,1.25-.64,2.07-1.85,2.38l2.44,4.19h-.92l-2.34-4.07c-.21,0-.44,0-.65,0h-1.36v4.06h-.81v-9.06ZM751.48,275.4c1.38,0,2.24-.55,2.24-1.78s-.88-1.77-2.24-1.77h-1.64v3.56h1.64Z"></path><path class="cls-18" d="M756.05,276.96c0-1.92,1.25-3.29,3.05-3.29s3.04,1.37,3.04,3.29-1.27,3.3-3.04,3.3-3.05-1.36-3.05-3.3ZM759.1,279.57c1.37,0,2.26-1.04,2.26-2.61s-.9-2.61-2.26-2.61-2.28,1.05-2.28,2.61.9,2.61,2.28,2.61Z"></path><path class="cls-18" d="M763.58,276.96c0-1.92,1.25-3.29,3.05-3.29s3.04,1.37,3.04,3.29-1.27,3.3-3.04,3.3-3.05-1.36-3.05-3.3ZM766.63,279.57c1.37,0,2.26-1.04,2.26-2.61s-.9-2.61-2.26-2.61-2.28,1.05-2.28,2.61.9,2.61,2.28,2.61Z"></path><path class="cls-18" d="M771.42,273.77h.78v1.1c.38-.85,1.11-1.19,1.88-1.19.91,0,1.57.4,1.89,1.25.4-.83,1.09-1.25,2-1.25,1.55,0,2.13,1.16,2.13,2.69v3.82h-.78v-3.64c0-1.33-.39-2.18-1.52-2.18-1.02,0-1.65.77-1.65,2.26v3.57h-.78v-3.76c0-1.4-.52-2.07-1.5-2.07-1.03,0-1.67.79-1.67,2.26v3.57h-.78v-6.41Z"></path><path class="cls-18" d="M712.18,410.29h2.43c2.94,0,4.62,1.68,4.62,4.6s-1.64,4.46-4.63,4.46h-2.42v-9.06ZM714.53,418.6c2.5,0,3.89-1.16,3.89-3.74s-1.4-3.83-3.82-3.83h-1.61v7.57h1.54Z"></path><path class="cls-18" d="M720.84,410.29h.94v1.39h-.94v-1.39ZM720.92,412.94h.77v6.41h-.77v-6.41Z"></path><path class="cls-18" d="M723.73,412.94h.78v1.05c.4-.76,1.12-1.14,2.01-1.14,1.38,0,2.2.81,2.2,2.51v3.99h-.78v-3.71c0-1.45-.55-2.11-1.61-2.11-1.16,0-1.83.79-1.83,2.55v3.27h-.78v-6.41Z"></path><path class="cls-18" d="M730.61,410.29h.94v1.39h-.94v-1.39ZM730.69,412.94h.77v6.41h-.77v-6.41Z"></path><path class="cls-18" d="M733.5,412.94h.78v1.05c.4-.76,1.12-1.14,2.01-1.14,1.38,0,2.2.81,2.2,2.51v3.99h-.78v-3.71c0-1.45-.55-2.11-1.61-2.11-1.16,0-1.83.79-1.83,2.55v3.27h-.78v-6.41Z"></path><path class="cls-18" d="M739.95,420.11s0-.1.03-.26l1.11-.88c-.57-.22-.96-.59-.96-1.26,0-.53.27-.9.72-1.2-.36-.37-.56-.87-.56-1.45,0-1.3,1.04-2.2,2.39-2.2.64,0,1.22.21,1.64.58l1.02-.86.4.49-1,.88c.19.33.3.71.3,1.14,0,1.28-.96,2.13-2.33,2.13-.53,0-.99-.12-1.37-.34-.31.17-.45.42-.45.71,0,.66.63.83,1.62.98,1.6.25,2.99.44,2.99,1.75,0,1.16-1.05,1.78-2.7,1.78-1.82,0-2.85-.7-2.85-2ZM742.81,421.5c1.09,0,1.92-.34,1.92-1.08,0-.86-1.16-.96-2.31-1.14-.31-.05-.6-.1-.89-.17l-.8.92c-.01.09-.01.11-.01.15,0,.9.79,1.33,2.09,1.33ZM742.68,416.58c.98,0,1.59-.65,1.59-1.53s-.64-1.56-1.58-1.56-1.62.65-1.62,1.55.63,1.55,1.61,1.55Z"></path><path class="cls-18" d="M750.44,410.29h2.52c1.99,0,2.97.93,2.97,2.5,0,1.25-.64,2.07-1.85,2.38l2.44,4.19h-.92l-2.34-4.07c-.21,0-.44,0-.65,0h-1.36v4.06h-.81v-9.06ZM752.88,414.57c1.38,0,2.24-.55,2.24-1.78s-.88-1.77-2.24-1.77h-1.64v3.56h1.64Z"></path><path class="cls-18" d="M757.44,416.14c0-1.92,1.25-3.29,3.05-3.29s3.04,1.37,3.04,3.29-1.27,3.3-3.04,3.3-3.05-1.37-3.05-3.3ZM760.49,418.75c1.37,0,2.26-1.04,2.26-2.61s-.9-2.61-2.26-2.61-2.28,1.05-2.28,2.61.9,2.61,2.28,2.61Z"></path><path class="cls-18" d="M764.98,416.14c0-1.92,1.25-3.29,3.05-3.29s3.04,1.37,3.04,3.29-1.27,3.3-3.04,3.3-3.05-1.37-3.05-3.3ZM768.03,418.75c1.37,0,2.26-1.04,2.26-2.61s-.9-2.61-2.26-2.61-2.28,1.05-2.28,2.61.9,2.61,2.28,2.61Z"></path><path class="cls-18" d="M772.82,412.94h.78v1.1c.38-.84,1.11-1.19,1.88-1.19.91,0,1.57.4,1.89,1.25.4-.83,1.09-1.25,2-1.25,1.55,0,2.13,1.16,2.13,2.68v3.82h-.78v-3.64c0-1.33-.39-2.18-1.52-2.18-1.02,0-1.65.77-1.65,2.26v3.57h-.78v-3.76c0-1.4-.52-2.07-1.5-2.07-1.03,0-1.67.79-1.67,2.26v3.57h-.78v-6.41Z"></path><path class="cls-18" d="M678.92,62.62h2.43c2.94,0,4.62,1.68,4.62,4.6s-1.64,4.46-4.63,4.46h-2.42v-9.06ZM681.27,70.93c2.5,0,3.89-1.16,3.89-3.74s-1.4-3.83-3.82-3.83h-1.61v7.57h1.54Z"></path><path class="cls-18" d="M687.43,68.52c0-1.84.99-3.34,2.81-3.34,1.96,0,2.76,1.53,2.76,2.94,0,.1-.01.4-.04.55h-4.76c.03,1.51.84,2.39,2.14,2.39.82,0,1.35-.23,1.91-.83l.55.49c-.73.75-1.43,1.05-2.46,1.05-1.89,0-2.91-1.41-2.91-3.25ZM692.24,68.09c0-.08,0-.16,0-.24,0-.92-.58-2.02-2-2.02-1.23,0-1.98.98-2.07,2.26h4.06Z"></path><path class="cls-18" d="M694.41,68.47c0-1.83,1.06-3.29,2.86-3.29,1.17,0,2.09.59,2.51,1.74l-.7.27c-.27-.82-.9-1.33-1.81-1.33-1.42,0-2.09,1.25-2.09,2.61s.68,2.62,2.09,2.62c.91,0,1.53-.51,1.81-1.33l.7.27c-.42,1.16-1.34,1.75-2.51,1.75-1.8,0-2.86-1.46-2.86-3.3Z"></path><path class="cls-18" d="M703.47,68.15l-1.3,1.37v2.16h-.78v-9.06h.78v5.9l3.15-3.24h1.01l-2.28,2.35,2.67,4.06h-.92l-2.31-3.53Z"></path><path class="cls-18" d="M723.72,592.99h.81v4.86l4.65-4.86h1.09l-3.45,3.54,3.48,5.52h-.95l-3.11-4.93-1.71,1.75v3.17h-.81v-9.06Z"></path><path class="cls-18" d="M731.45,592.99h.94v1.39h-.94v-1.39ZM731.54,595.65h.77v6.41h-.77v-6.41Z"></path><path class="cls-18" d="M735.1,600.57v-4.31h-1.42v-.62h1.42v-1.85l.79-.46v2.31h1.54v.62h-1.54v4.12c0,.71.22,1.11.81,1.11.19,0,.46-.04.73-.12v.62c-.32.1-.64.16-.92.16-.85,0-1.4-.49-1.4-1.57Z"></path><path class="cls-18" d="M738.46,598.84c0-1.83,1.06-3.29,2.86-3.29,1.17,0,2.09.58,2.51,1.74l-.7.27c-.27-.82-.9-1.33-1.81-1.33-1.42,0-2.09,1.25-2.09,2.61s.68,2.62,2.09,2.62c.91,0,1.53-.51,1.81-1.33l.7.27c-.42,1.16-1.34,1.75-2.51,1.75-1.8,0-2.86-1.46-2.86-3.3Z"></path><path class="cls-18" d="M745.46,592.99h.78v3.69c.4-.75,1.1-1.13,2.01-1.13,1.4,0,2.2.85,2.2,2.51v3.99h-.78v-3.71c0-1.43-.53-2.11-1.61-2.11-1.18,0-1.83.83-1.83,2.55v3.27h-.78v-9.06Z"></path><path class="cls-18" d="M752.09,598.9c0-1.84.99-3.34,2.81-3.34,1.96,0,2.76,1.53,2.76,2.94,0,.1-.01.4-.04.55h-4.76c.03,1.51.84,2.39,2.14,2.39.82,0,1.35-.23,1.91-.83l.55.49c-.73.75-1.43,1.05-2.46,1.05-1.89,0-2.91-1.41-2.91-3.25ZM756.9,598.47c0-.08,0-.16,0-.24,0-.92-.58-2.01-2-2.01-1.23,0-1.98.98-2.07,2.26h4.06Z"></path><path class="cls-18" d="M759.39,595.65h.78v1.05c.4-.76,1.12-1.14,2.01-1.14,1.38,0,2.2.81,2.2,2.51v3.99h-.78v-3.71c0-1.45-.55-2.11-1.61-2.11-1.16,0-1.83.79-1.83,2.55v3.27h-.78v-6.41Z"></path><path class="cls-18" d="M613.42,682.6h5.86v.73h-5.06v3.37h4.39v.73h-4.39v4.24h-.81v-9.06Z"></path><path class="cls-18" d="M620.02,688.45c0-1.92,1.25-3.29,3.05-3.29s3.04,1.37,3.04,3.29-1.27,3.3-3.04,3.3-3.05-1.37-3.05-3.3ZM623.06,691.06c1.37,0,2.26-1.04,2.26-2.61s-.9-2.61-2.26-2.61-2.28,1.05-2.28,2.61.9,2.61,2.28,2.61Z"></path><path class="cls-18" d="M629.58,691.46l-2.55-6.21h.86l2.1,5.42,2.11-5.42h.85l-3.69,9.05h-.84l1.17-2.84Z"></path><path class="cls-18" d="M633.91,688.5c0-1.84.99-3.34,2.81-3.34,1.96,0,2.76,1.53,2.76,2.94,0,.1-.01.4-.04.55h-4.76c.03,1.51.84,2.39,2.14,2.39.82,0,1.35-.23,1.91-.83l.55.49c-.73.75-1.43,1.05-2.46,1.05-1.89,0-2.91-1.41-2.91-3.25ZM638.73,688.07c0-.08,0-.16,0-.24,0-.92-.58-2.01-2-2.01-1.23,0-1.98.98-2.07,2.26h4.06Z"></path><path class="cls-18" d="M641.21,685.25h.78v1.09c.43-.78,1.31-1.18,2.02-1.18.33,0,.66.07.99.24l-.39.7c-.21-.1-.51-.17-.77-.17-.68,0-1.46.36-1.74,1.3-.08.27-.12.57-.12,1.27v3.15h-.78v-6.41Z"></path><path class="cls-18" d="M260.8,295.15h.65l1.71,6.06,1.76-5.7h.63l1.76,5.7,1.7-6.06h.65l-2.01,6.98h-.63l-1.79-5.71-1.79,5.71h-.64l-2.01-6.98Z"></path><path class="cls-18" d="M270.8,295.15h.62v6.98h-.62v-6.98Z"></path><path class="cls-18" d="M272.85,298.64c0-2.16,1.26-3.58,3.16-3.58,1.35,0,2.39.71,2.84,1.89l-.58.22c-.38-.96-1.17-1.52-2.26-1.52-1.55,0-2.54,1.17-2.54,2.99s.99,3,2.54,3c1.09,0,1.89-.56,2.26-1.52l.58.22c-.45,1.18-1.49,1.9-2.84,1.9-1.89,0-3.16-1.42-3.16-3.59Z"></path><path class="cls-18" d="M555.03,683.39h.65l1.71,6.06,1.76-5.7h.63l1.76,5.7,1.7-6.06h.65l-2.01,6.98h-.63l-1.79-5.71-1.79,5.71h-.64l-2.01-6.98Z"></path><path class="cls-18" d="M556.88,715.39h1.87c2.26,0,3.56,1.29,3.56,3.54s-1.27,3.43-3.57,3.43h-1.86v-6.98ZM558.69,721.79c1.92,0,2.99-.89,2.99-2.88s-1.08-2.95-2.94-2.95h-1.24v5.83h1.19Z"></path><path class="cls-18" d="M738.67,651.88c0-2.17,1.27-3.59,3.16-3.59s3.18,1.42,3.18,3.59-1.27,3.58-3.18,3.58-3.16-1.42-3.16-3.58ZM741.82,654.87c1.57,0,2.55-1.16,2.55-2.99s-.99-3-2.55-3-2.54,1.15-2.54,3,.99,2.99,2.54,2.99Z"></path><path class="cls-18" d="M748.7,647.39h.48l-3.55,9.08h-.47l3.55-9.08Z"></path><path class="cls-18" d="M750.4,648.39h.93l2.35,5.66,2.35-5.66h.92v6.98h-.62v-6.16l-2.35,5.59h-.61l-2.36-5.59v6.16h-.62v-6.98Z"></path><path class="cls-18" d="M701.99,648.39h1.94c1.53,0,2.29.72,2.29,1.92,0,.97-.5,1.6-1.43,1.83l1.88,3.22h-.71l-1.8-3.13c-.16,0-.34,0-.5,0h-1.05v3.13h-.62v-6.98ZM703.87,651.69c1.06,0,1.73-.43,1.73-1.37s-.68-1.37-1.73-1.37h-1.26v2.74h1.26Z"></path><path class="cls-18" d="M707.84,648.39h4.56v.56h-3.94v2.59h3.53v.56h-3.53v2.7h3.94v.56h-4.56v-6.98Z"></path><path class="cls-18" d="M713.7,648.39h4.51v.56h-3.89v2.59h3.38v.56h-3.38v3.26h-.62v-6.98Z"></path><path class="cls-18" d="M688.82,541.91h.65l1.71,6.06,1.76-5.7h.63l1.76,5.7,1.7-6.06h.65l-2.01,6.98h-.63l-1.79-5.71-1.79,5.71h-.64l-2.01-6.98Z"></path><path class="cls-18" d="M698.83,541.91h4.51v.56h-3.89v2.59h3.38v.56h-3.38v3.26h-.62v-6.98Z"></path><path class="cls-18" d="M753.99,541.91h1.87c2.26,0,3.56,1.29,3.56,3.54s-1.27,3.43-3.57,3.43h-1.86v-6.98ZM755.8,548.32c1.92,0,2.99-.89,2.99-2.88s-1.08-2.95-2.94-2.95h-1.24v5.83h1.19Z"></path><path class="cls-18" d="M760.08,541.91h.65l1.71,6.06,1.76-5.7h.63l1.76,5.7,1.7-6.06h.65l-2.01,6.98h-.63l-1.79-5.71-1.79,5.71h-.64l-2.01-6.98Z"></path><path class="cls-22" d="M802.13,66.09c0-1.72,1-2.86,2.52-2.86,1.08,0,1.91.57,2.27,1.51l-.46.18c-.3-.77-.94-1.22-1.81-1.22-1.24,0-2.03.93-2.03,2.39s.79,2.39,2.03,2.39c.87,0,1.51-.45,1.81-1.22l.46.17c-.36.94-1.19,1.52-2.27,1.52-1.51,0-2.52-1.14-2.52-2.87Z"></path><path class="cls-22" d="M810.53,68.14c-.26.5-.77.8-1.38.8-.88,0-1.42-.48-1.42-1.2,0-.42.18-.71.44-.89.28-.19.67-.26,1.09-.26h1.26v-.17c0-.73-.38-1.13-1.12-1.13-.48,0-.86.18-1.22.63l-.34-.3c.42-.52.94-.75,1.59-.75,1,0,1.56.55,1.56,1.54v2.45h-.44l-.02-.74ZM809.19,68.54c.72,0,1.33-.57,1.33-1.35v-.22h-1.2c-.32,0-.63.05-.84.2-.17.13-.27.31-.27.58,0,.49.37.8.98.8Z"></path><path class="cls-22" d="M812.28,64.94h.48v.64c.25-.47.69-.7,1.24-.7.85,0,1.36.5,1.36,1.54v2.45h-.48v-2.28c0-.89-.34-1.3-.99-1.3-.71,0-1.13.48-1.13,1.57v2.01h-.48v-3.94Z"></path><path class="cls-22" d="M816.41,66.9c0-1.18.77-2.02,1.88-2.02s1.87.84,1.87,2.02-.78,2.03-1.87,2.03-1.88-.84-1.88-2.03ZM818.29,68.51c.84,0,1.39-.64,1.39-1.6s-.55-1.6-1.39-1.6-1.4.64-1.4,1.6.56,1.6,1.4,1.6Z"></path><path class="cls-22" d="M824.99,66.91c0,1.21-.79,2.02-1.79,2.02-.64,0-1.15-.33-1.41-.84v2.41h-.47v-5.57h.47v.78c.27-.52.77-.83,1.41-.83,1.06,0,1.79.88,1.79,2.03ZM823.12,68.5c.81,0,1.39-.67,1.39-1.59s-.58-1.59-1.39-1.59-1.37.66-1.37,1.59.57,1.59,1.37,1.59Z"></path><path class="cls-22" d="M827.31,68.76l-1.57-3.82h.53l1.29,3.33,1.3-3.33h.52l-2.27,5.56h-.52l.72-1.75Z"></path><path class="cls-22" d="M834.12,63.31h.42l2.05,5.57h-.54l-.51-1.45h-2.42l-.51,1.45h-.55l2.05-5.57ZM835.38,66.98l-1.05-2.99-1.06,2.99h2.11Z"></path><path class="cls-22" d="M837.91,68.1v.78h-.47v-5.57h.47v2.41c.26-.5.77-.84,1.41-.84,1,0,1.79.82,1.79,2.02s-.74,2.03-1.79,2.03c-.64,0-1.14-.31-1.41-.83ZM839.24,68.49c.81,0,1.39-.67,1.39-1.59s-.58-1.59-1.39-1.59-1.37.66-1.37,1.59.57,1.59,1.37,1.59Z"></path><path class="cls-22" d="M842.06,66.9c0-1.18.77-2.02,1.88-2.02s1.87.84,1.87,2.02-.78,2.03-1.87,2.03-1.88-.84-1.88-2.03ZM843.93,68.51c.84,0,1.39-.64,1.39-1.6s-.55-1.6-1.39-1.6-1.4.64-1.4,1.6.56,1.6,1.4,1.6Z"></path><path class="cls-22" d="M846.47,64.94h.53l1.29,3.33,1.3-3.33h.52l-1.61,3.94h-.42l-1.61-3.94Z"></path><path class="cls-22" d="M850.79,66.94c0-1.13.61-2.06,1.73-2.06,1.21,0,1.7.94,1.7,1.81,0,.06,0,.24-.02.34h-2.93c.02.93.52,1.47,1.32,1.47.5,0,.83-.14,1.17-.51l.34.3c-.45.46-.88.65-1.51.65-1.16,0-1.79-.87-1.79-2ZM853.75,66.67s0-.1,0-.15c0-.57-.36-1.24-1.23-1.24-.75,0-1.22.6-1.27,1.39h2.49Z"></path><path class="cls-22" d="M27.56,357.77h1.67c1.03,0,1.65.52,1.65,1.38,0,.58-.28,1.03-.76,1.23.68.16,1.04.66,1.04,1.42,0,.99-.63,1.54-1.77,1.54h-1.83v-5.57ZM29.39,360.23c.6,0,1-.39,1-1.01s-.42-.99-1.16-.99h-1.18v2h1.33ZM29.35,362.88c.88,0,1.32-.37,1.32-1.1,0-.7-.41-1.1-1.1-1.1h-1.51v2.2h1.3Z"></path><path class="cls-22" d="M34.9,362.6c-.26.5-.77.8-1.38.8-.88,0-1.42-.48-1.42-1.2,0-.42.18-.71.44-.89.28-.19.67-.26,1.09-.26h1.26v-.17c0-.73-.38-1.13-1.12-1.13-.48,0-.86.18-1.22.63l-.34-.3c.42-.52.94-.75,1.59-.75,1,0,1.56.55,1.56,1.54v2.45h-.44l-.02-.74ZM33.56,363c.72,0,1.33-.57,1.33-1.35v-.22h-1.2c-.32,0-.63.05-.84.2-.17.13-.27.31-.27.58,0,.49.37.8.98.8Z"></path><path class="cls-22" d="M36.57,362.52v-4.75h.48v4.67c0,.37.14.52.39.52.1,0,.24-.02.38-.07v.41c-.18.07-.37.1-.52.1-.44,0-.72-.27-.72-.88Z"></path><path class="cls-22" d="M38.48,361.36c0-1.13.65-2.02,1.76-2.02.72,0,1.28.36,1.54,1.07l-.43.17c-.17-.5-.55-.82-1.11-.82-.87,0-1.29.77-1.29,1.61s.42,1.61,1.29,1.61c.56,0,.94-.31,1.11-.82l.43.16c-.26.71-.82,1.08-1.54,1.08-1.11,0-1.76-.9-1.76-2.03Z"></path><path class="cls-22" d="M42.62,361.36c0-1.18.77-2.02,1.88-2.02s1.87.84,1.87,2.02-.78,2.03-1.87,2.03-1.88-.84-1.88-2.03ZM44.49,362.97c.84,0,1.39-.64,1.39-1.6s-.55-1.6-1.39-1.6-1.4.64-1.4,1.6.56,1.6,1.4,1.6Z"></path><path class="cls-22" d="M47.52,359.4h.48v.64c.25-.47.69-.7,1.24-.7.85,0,1.36.5,1.36,1.54v2.45h-.48v-2.28c0-.89-.34-1.3-.99-1.3-.71,0-1.13.48-1.13,1.57v2.01h-.48v-3.94Z"></path><path class="cls-22" d="M52.96,363.22l-1.57-3.82h.53l1.29,3.33,1.3-3.33h.52l-2.27,5.56h-.52l.72-1.75Z"></path><path class="cls-22" d="M59.77,357.77h.42l2.06,5.57h-.54l-.51-1.45h-2.42l-.51,1.45h-.55l2.06-5.57ZM61.04,361.44l-1.05-2.99-1.06,2.99h2.11Z"></path><path class="cls-22" d="M63.57,362.56v.78h-.47v-5.57h.47v2.41c.26-.5.77-.84,1.41-.84,1,0,1.79.82,1.79,2.02s-.74,2.03-1.79,2.03c-.64,0-1.14-.31-1.41-.83ZM64.9,362.95c.81,0,1.39-.67,1.39-1.59s-.58-1.59-1.39-1.59-1.37.66-1.37,1.59.57,1.59,1.37,1.59Z"></path><path class="cls-22" d="M67.72,361.36c0-1.18.77-2.02,1.88-2.02s1.87.84,1.87,2.02-.78,2.03-1.87,2.03-1.88-.84-1.88-2.03ZM69.59,362.97c.84,0,1.39-.64,1.39-1.6s-.55-1.6-1.39-1.6-1.4.64-1.4,1.6.56,1.6,1.4,1.6Z"></path><path class="cls-22" d="M72.12,359.4h.53l1.29,3.33,1.3-3.33h.52l-1.61,3.94h-.42l-1.62-3.94Z"></path><path class="cls-22" d="M76.43,361.4c0-1.13.61-2.06,1.73-2.06,1.21,0,1.7.94,1.7,1.81,0,.06,0,.24-.02.34h-2.93c.02.93.52,1.47,1.32,1.47.5,0,.83-.14,1.18-.51l.34.3c-.45.46-.88.65-1.52.65-1.16,0-1.79-.87-1.79-2ZM79.39,361.13s0-.1,0-.15c0-.57-.36-1.24-1.23-1.24-.76,0-1.22.6-1.27,1.39h2.49Z"></path><polyline class="cls-2" points="795.35 66.47 762.2 66.47 758.37 79.91"></polyline><path class="cls-21" d="M757.26,83.8l3.54-4.89s-2.43,1.01-3.97-1.13l.43,6.02Z"></path><polyline class="cls-2" points="86.06 360.93 104.21 360.93 108.04 374.38"></polyline><path class="cls-21" d="M109.15,378.26l-3.54-4.89s2.43,1.01,3.97-1.13l-.43,6.02Z"></path><path class="cls-22" d="M375.53,107.23h.5v5.12h2.57v.45h-3.07v-5.57Z"></path><path class="cls-22" d="M382.06,112.07c-.26.5-.77.8-1.38.8-.88,0-1.42-.48-1.42-1.2,0-.42.18-.71.44-.89.28-.19.67-.26,1.09-.26h1.26v-.17c0-.73-.38-1.13-1.12-1.13-.48,0-.86.18-1.22.63l-.34-.3c.42-.52.94-.75,1.59-.75,1,0,1.56.55,1.56,1.54v2.45h-.44l-.02-.74ZM380.72,112.47c.72,0,1.33-.57,1.33-1.35v-.22h-1.2c-.32,0-.63.05-.84.2-.17.13-.27.31-.27.58,0,.49.37.8.98.8Z"></path><path class="cls-22" d="M383.81,108.87h.48v.64c.25-.47.69-.7,1.24-.7.85,0,1.36.5,1.36,1.54v2.45h-.48v-2.28c0-.89-.34-1.3-.99-1.3-.71,0-1.13.48-1.13,1.57v2.01h-.48v-3.94Z"></path><path class="cls-22" d="M387.95,110.83c0-1.21.79-2.02,1.8-2.02.64,0,1.15.33,1.41.84v-2.41h.47v5.57h-.47v-.78c-.27.52-.77.83-1.41.83-1.06,0-1.8-.88-1.8-2.03ZM389.82,112.42c.8,0,1.37-.66,1.37-1.59s-.57-1.59-1.37-1.59-1.39.67-1.39,1.59.58,1.59,1.39,1.59Z"></path><path class="cls-22" d="M392.55,111.96l.34-.28c.2.46.66.77,1.26.77.57,0,.95-.27.95-.72,0-.55-.53-.68-1.1-.82-.66-.16-1.23-.38-1.23-1.06,0-.62.53-1.05,1.29-1.05.6,0,1.1.26,1.37.76l-.37.21c-.21-.38-.57-.58-1.01-.58-.48,0-.84.24-.84.62,0,.4.36.54.93.68.67.16,1.43.34,1.43,1.2,0,.71-.56,1.17-1.42,1.17-.79,0-1.35-.4-1.6-.9Z"></path><path class="cls-22" d="M396.49,110.83c0-1.13.65-2.02,1.76-2.02.72,0,1.28.36,1.54,1.07l-.43.17c-.17-.5-.55-.82-1.11-.82-.87,0-1.29.77-1.29,1.61s.42,1.61,1.29,1.61c.56,0,.94-.31,1.11-.82l.43.16c-.26.71-.82,1.08-1.54,1.08-1.11,0-1.76-.9-1.76-2.03Z"></path><path class="cls-22" d="M403.45,112.07c-.26.5-.77.8-1.38.8-.88,0-1.42-.48-1.42-1.2,0-.42.18-.71.44-.89.28-.19.67-.26,1.09-.26h1.26v-.17c0-.73-.38-1.13-1.12-1.13-.48,0-.86.18-1.22.63l-.34-.3c.42-.52.94-.75,1.59-.75,1,0,1.56.55,1.56,1.54v2.45h-.44l-.02-.74ZM402.11,112.47c.72,0,1.33-.57,1.33-1.35v-.22h-1.2c-.32,0-.63.05-.84.2-.17.13-.27.31-.27.58,0,.49.37.8.98.8Z"></path><path class="cls-22" d="M408.88,110.84c0,1.21-.79,2.02-1.79,2.02-.64,0-1.15-.33-1.41-.84v2.41h-.47v-5.57h.47v.78c.27-.52.77-.83,1.41-.83,1.06,0,1.79.88,1.79,2.03ZM407.01,112.43c.81,0,1.39-.67,1.39-1.59s-.58-1.59-1.39-1.59-1.37.66-1.37,1.59.57,1.59,1.37,1.59Z"></path><path class="cls-22" d="M409.85,110.86c0-1.13.61-2.06,1.73-2.06,1.21,0,1.7.94,1.7,1.81,0,.06,0,.24-.02.34h-2.93c.02.93.52,1.47,1.32,1.47.5,0,.83-.14,1.17-.51l.34.3c-.45.46-.88.65-1.51.65-1.16,0-1.79-.87-1.79-2ZM412.82,110.6s0-.1,0-.15c0-.57-.36-1.24-1.23-1.24-.75,0-1.22.6-1.27,1.39h2.49Z"></path><path class="cls-22" d="M414.21,110.83c0-1.21.79-2.02,1.8-2.02.64,0,1.15.33,1.41.84v-2.41h.47v5.57h-.47v-.78c-.27.52-.77.83-1.41.83-1.06,0-1.8-.88-1.8-2.03ZM416.09,112.42c.8,0,1.37-.66,1.37-1.59s-.57-1.59-1.37-1.59-1.39.67-1.39,1.59.58,1.59,1.39,1.59Z"></path><path class="cls-22" d="M421.44,107.23h1.55c1.22,0,1.83.57,1.83,1.54,0,.77-.4,1.27-1.14,1.46l1.5,2.57h-.57l-1.44-2.5c-.13,0-.27,0-.4,0h-.84v2.5h-.5v-5.57ZM422.95,109.87c.85,0,1.38-.34,1.38-1.1s-.54-1.09-1.38-1.09h-1.01v2.19h1.01Z"></path><path class="cls-22" d="M425.83,110.83c0-1.18.77-2.02,1.88-2.02s1.87.84,1.87,2.02-.78,2.03-1.87,2.03-1.88-.84-1.88-2.03ZM427.71,112.44c.84,0,1.39-.64,1.39-1.6s-.55-1.6-1.39-1.6-1.4.64-1.4,1.6.56,1.6,1.4,1.6Z"></path><path class="cls-22" d="M430.54,110.83c0-1.18.77-2.02,1.88-2.02s1.87.84,1.87,2.02-.78,2.03-1.87,2.03-1.88-.84-1.88-2.03ZM432.42,112.44c.84,0,1.39-.64,1.39-1.6s-.55-1.6-1.39-1.6-1.4.64-1.4,1.6.56,1.6,1.4,1.6Z"></path><path class="cls-22" d="M435.77,109.25h-.88v-.38h.88v-.57c0-.82.43-1.12,1.03-1.12.26,0,.47.05.66.15l-.16.36c-.14-.07-.28-.11-.45-.11-.4,0-.6.25-.6.71v.57h.97v.38h-.97v3.56h-.48v-3.56Z"></path><path class="cls-22" d="M80.92,284.33h.5v5.12h2.57v.45h-3.07v-5.57Z"></path><path class="cls-22" d="M87.45,289.16c-.26.5-.77.8-1.38.8-.88,0-1.42-.48-1.42-1.2,0-.42.18-.71.44-.89.28-.19.67-.26,1.09-.26h1.26v-.17c0-.73-.38-1.13-1.12-1.13-.48,0-.86.18-1.22.63l-.34-.3c.42-.52.94-.75,1.59-.75,1,0,1.56.55,1.56,1.54v2.45h-.44l-.02-.74ZM86.11,289.56c.72,0,1.33-.57,1.33-1.35v-.22h-1.2c-.32,0-.63.05-.84.2-.17.13-.27.31-.27.58,0,.49.37.8.98.8Z"></path><path class="cls-22" d="M89.2,285.96h.48v.64c.25-.47.69-.7,1.24-.7.85,0,1.36.5,1.36,1.54v2.45h-.48v-2.28c0-.89-.34-1.3-.99-1.3-.71,0-1.13.48-1.13,1.57v2.01h-.48v-3.94Z"></path><path class="cls-22" d="M93.34,287.93c0-1.21.79-2.02,1.79-2.02.64,0,1.15.33,1.41.84v-2.41h.47v5.57h-.47v-.78c-.27.52-.77.83-1.41.83-1.06,0-1.79-.88-1.79-2.03ZM95.21,289.52c.8,0,1.37-.66,1.37-1.59s-.57-1.59-1.37-1.59-1.39.67-1.39,1.59.58,1.59,1.39,1.59Z"></path><path class="cls-22" d="M97.94,289.06l.34-.28c.2.46.66.77,1.26.77.57,0,.95-.27.95-.72,0-.55-.53-.68-1.1-.82-.66-.16-1.23-.38-1.23-1.06,0-.62.53-1.05,1.3-1.05.6,0,1.1.26,1.37.76l-.37.21c-.21-.38-.57-.58-1.02-.58-.48,0-.84.24-.84.62,0,.4.36.54.93.68.67.16,1.44.34,1.44,1.2,0,.71-.56,1.17-1.42,1.17-.79,0-1.35-.4-1.6-.9Z"></path><path class="cls-22" d="M101.88,287.93c0-1.13.65-2.02,1.76-2.02.72,0,1.28.36,1.54,1.07l-.43.17c-.17-.5-.55-.82-1.11-.82-.87,0-1.29.77-1.29,1.61s.42,1.61,1.29,1.61c.56,0,.94-.31,1.11-.82l.43.16c-.26.71-.82,1.08-1.54,1.08-1.11,0-1.76-.9-1.76-2.03Z"></path><path class="cls-22" d="M108.84,289.16c-.26.5-.77.8-1.38.8-.88,0-1.42-.48-1.42-1.2,0-.42.18-.71.44-.89.28-.19.67-.26,1.09-.26h1.26v-.17c0-.73-.38-1.13-1.12-1.13-.48,0-.86.18-1.22.63l-.34-.3c.42-.52.94-.75,1.59-.75,1,0,1.56.55,1.56,1.54v2.45h-.44l-.02-.74ZM107.5,289.56c.72,0,1.33-.57,1.33-1.35v-.22h-1.2c-.32,0-.63.05-.84.2-.17.13-.27.31-.27.58,0,.49.37.8.98.8Z"></path><path class="cls-22" d="M114.27,287.94c0,1.21-.79,2.02-1.79,2.02-.64,0-1.15-.33-1.41-.84v2.41h-.47v-5.57h.47v.78c.27-.52.77-.83,1.41-.83,1.06,0,1.79.88,1.79,2.03ZM112.4,289.52c.81,0,1.39-.67,1.39-1.59s-.58-1.59-1.39-1.59-1.37.66-1.37,1.59.57,1.59,1.37,1.59Z"></path><path class="cls-22" d="M115.24,287.96c0-1.13.61-2.05,1.73-2.05,1.21,0,1.7.94,1.7,1.81,0,.06,0,.24-.02.34h-2.93c.02.93.52,1.47,1.32,1.47.5,0,.83-.14,1.18-.51l.34.3c-.45.46-.88.65-1.52.65-1.16,0-1.79-.87-1.79-2ZM118.21,287.7s0-.1,0-.15c0-.57-.36-1.24-1.23-1.24-.76,0-1.22.6-1.27,1.39h2.49Z"></path><path class="cls-22" d="M119.61,287.93c0-1.21.79-2.02,1.79-2.02.64,0,1.15.33,1.41.84v-2.41h.47v5.57h-.47v-.78c-.27.52-.77.83-1.41.83-1.06,0-1.79-.88-1.79-2.03ZM121.48,289.52c.8,0,1.37-.66,1.37-1.59s-.57-1.59-1.37-1.59-1.39.67-1.39,1.59.58,1.59,1.39,1.59Z"></path><path class="cls-22" d="M126.84,284.33h1.55c1.22,0,1.83.57,1.83,1.54,0,.77-.4,1.27-1.14,1.46l1.5,2.57h-.57l-1.44-2.5c-.13,0-.27,0-.4,0h-.84v2.5h-.5v-5.57ZM128.34,286.97c.85,0,1.38-.34,1.38-1.1s-.54-1.09-1.38-1.09h-1.01v2.19h1.01Z"></path><path class="cls-22" d="M131.23,287.93c0-1.18.77-2.02,1.88-2.02s1.87.84,1.87,2.02-.78,2.03-1.87,2.03-1.88-.84-1.88-2.03ZM133.11,289.53c.84,0,1.39-.64,1.39-1.6s-.55-1.6-1.39-1.6-1.4.64-1.4,1.6.56,1.6,1.4,1.6Z"></path><path class="cls-22" d="M135.94,287.93c0-1.18.77-2.02,1.88-2.02s1.87.84,1.87,2.02-.78,2.03-1.87,2.03-1.88-.84-1.88-2.03ZM137.82,289.53c.84,0,1.39-.64,1.39-1.6s-.55-1.6-1.39-1.6-1.4.64-1.4,1.6.56,1.6,1.4,1.6Z"></path><path class="cls-22" d="M141.16,286.34h-.88v-.38h.88v-.57c0-.82.43-1.12,1.03-1.12.26,0,.47.05.66.15l-.16.36c-.14-.07-.28-.11-.45-.11-.4,0-.6.25-.6.71v.57h.97v.38h-.97v3.56h-.48v-3.56Z"></path><path class="cls-18" d="M215.02,551.17l.86-1.09-1.34-.39.12-.36,1.3.5-.06-1.39h.37l-.05,1.39,1.3-.5.11.36-1.33.39.87,1.09-.29.22-.78-1.16-.78,1.16-.29-.22Z"></path><path class="cls-18" d="M218.87,548.46h1.94c1.53,0,2.29.72,2.29,1.92,0,.97-.5,1.6-1.43,1.83l1.88,3.22h-.71l-1.8-3.13c-.16,0-.34,0-.5,0h-1.05v3.13h-.62v-6.98ZM220.76,551.75c1.06,0,1.73-.43,1.73-1.37s-.68-1.37-1.73-1.37h-1.26v2.74h1.26Z"></path><path class="cls-18" d="M224.28,553c0-1.42.77-2.57,2.16-2.57,1.51,0,2.13,1.18,2.13,2.27,0,.08,0,.3-.03.42h-3.66c.03,1.16.65,1.84,1.65,1.84.63,0,1.04-.18,1.47-.64l.42.38c-.56.58-1.1.81-1.9.81-1.46,0-2.24-1.09-2.24-2.5ZM227.99,552.67c0-.06,0-.12,0-.19,0-.71-.45-1.55-1.54-1.55-.95,0-1.53.76-1.59,1.74h3.12Z"></path><path class="cls-18" d="M229.41,554.38l.42-.35c.25.57.82.97,1.58.97.72,0,1.19-.34,1.19-.9,0-.69-.66-.85-1.38-1.03-.82-.21-1.54-.47-1.54-1.33,0-.78.66-1.31,1.62-1.31.75,0,1.37.33,1.71.95l-.46.26c-.26-.48-.71-.73-1.27-.73-.6,0-1.05.3-1.05.77,0,.51.45.68,1.16.85.84.2,1.8.42,1.8,1.5,0,.89-.7,1.47-1.78,1.47-.99,0-1.69-.5-2-1.13Z"></path><path class="cls-18" d="M234.45,548.46h.72v1.07h-.72v-1.07ZM234.52,550.5h.59v4.93h-.59v-4.93Z"></path><path class="cls-18" d="M236.45,552.96c0-1.51.99-2.53,2.25-2.53.81,0,1.44.42,1.77,1.05v-3.02h.59v6.98h-.59v-.97c-.34.65-.97,1.04-1.77,1.04-1.32,0-2.25-1.1-2.25-2.54ZM238.79,554.95c1,0,1.72-.83,1.72-1.99s-.72-1.99-1.72-1.99-1.74.83-1.74,1.99.73,1.99,1.74,1.99Z"></path><path class="cls-18" d="M242.41,553c0-1.42.77-2.57,2.16-2.57,1.51,0,2.13,1.18,2.13,2.27,0,.08,0,.3-.03.42h-3.66c.03,1.16.65,1.84,1.65,1.84.63,0,1.04-.18,1.47-.64l.42.38c-.56.58-1.1.81-1.9.81-1.46,0-2.24-1.09-2.24-2.5ZM246.12,552.67c0-.06,0-.12,0-.19,0-.71-.45-1.55-1.54-1.55-.95,0-1.53.76-1.59,1.74h3.12Z"></path><path class="cls-18" d="M248.03,550.5h.6v.81c.31-.59.87-.88,1.55-.88,1.06,0,1.7.63,1.7,1.93v3.07h-.6v-2.86c0-1.12-.42-1.63-1.24-1.63-.89,0-1.41.61-1.41,1.97v2.52h-.6v-4.93Z"></path><path class="cls-18" d="M253.13,552.96c0-1.41.82-2.53,2.2-2.53.9,0,1.61.45,1.93,1.34l-.54.21c-.21-.63-.69-1.03-1.39-1.03-1.09,0-1.61.96-1.61,2.01s.52,2.02,1.61,2.02c.7,0,1.18-.39,1.39-1.03l.54.21c-.33.89-1.03,1.35-1.93,1.35-1.39,0-2.2-1.12-2.2-2.54Z"></path><path class="cls-18" d="M258.23,553c0-1.42.77-2.57,2.16-2.57,1.51,0,2.13,1.18,2.13,2.27,0,.08,0,.3-.03.42h-3.66c.03,1.16.65,1.84,1.65,1.84.63,0,1.04-.18,1.47-.64l.42.38c-.56.58-1.1.81-1.9.81-1.46,0-2.24-1.09-2.24-2.5ZM261.94,552.67c0-.06,0-.12,0-.19,0-.71-.45-1.55-1.54-1.55-.95,0-1.53.76-1.59,1.74h3.12Z"></path><path class="cls-18" d="M267.04,550.97h-1.1v-.48h1.11v-.72c0-1.02.54-1.4,1.29-1.4.33,0,.59.07.82.19l-.2.46c-.17-.09-.36-.14-.56-.14-.5,0-.75.31-.75.89v.72h1.21v.48h-1.21v4.46h-.6v-4.46Z"></path><path class="cls-18" d="M269.35,553c0-1.42.77-2.57,2.16-2.57,1.51,0,2.13,1.18,2.13,2.27,0,.08,0,.3-.03.42h-3.66c.03,1.16.65,1.84,1.65,1.84.63,0,1.04-.18,1.47-.64l.42.38c-.56.58-1.1.81-1.9.81-1.46,0-2.24-1.09-2.24-2.5ZM273.06,552.67c0-.06,0-.12,0-.19,0-.71-.45-1.55-1.54-1.55-.95,0-1.53.76-1.59,1.74h3.12Z"></path><path class="cls-18" d="M278.16,554.51c-.33.63-.97,1-1.73,1-1.11,0-1.78-.6-1.78-1.5,0-.53.22-.89.56-1.11.36-.24.84-.32,1.36-.32h1.58v-.22c0-.92-.48-1.41-1.4-1.41-.61,0-1.08.23-1.52.79l-.43-.37c.52-.65,1.18-.94,1.99-.94,1.26,0,1.95.69,1.95,1.93v3.07h-.55l-.03-.93ZM276.48,555.01c.91,0,1.67-.72,1.67-1.69v-.28h-1.5c-.4,0-.79.06-1.06.25-.21.16-.34.39-.34.72,0,.61.46,1,1.23,1Z"></path><path class="cls-18" d="M280.74,554.29v-3.32h-1.1v-.48h1.1v-1.43l.61-.36v1.78h1.19v.48h-1.19v3.17c0,.54.17.86.62.86.14,0,.35-.03.57-.09v.48c-.25.08-.5.12-.71.12-.66,0-1.08-.38-1.08-1.21Z"></path><path class="cls-18" d="M283.58,553.56v-3.07h.59v2.86c0,1.11.43,1.62,1.25,1.62.89,0,1.41-.61,1.41-1.97v-2.51h.6v4.93h-.6v-.81c-.32.59-.88.88-1.56.88-1.05,0-1.69-.64-1.69-1.94Z"></path><path class="cls-18" d="M288.99,550.5h.6v.84c.33-.6,1.01-.91,1.56-.91.26,0,.51.05.77.19l-.3.54c-.17-.08-.39-.13-.59-.13-.53,0-1.12.28-1.34,1-.06.21-.09.44-.09.98v2.43h-.6v-4.93Z"></path><path class="cls-18" d="M292.38,553c0-1.42.77-2.57,2.16-2.57,1.51,0,2.13,1.18,2.13,2.27,0,.08,0,.3-.03.42h-3.66c.03,1.16.65,1.84,1.65,1.84.63,0,1.04-.18,1.47-.64l.42.38c-.56.58-1.1.81-1.9.81-1.46,0-2.24-1.09-2.24-2.5ZM296.09,552.67c0-.06,0-.12,0-.19,0-.71-.45-1.55-1.54-1.55-.95,0-1.53.76-1.59,1.74h3.12Z"></path><path class="cls-18" d="M297.51,554.38l.42-.35c.25.57.82.97,1.58.97.72,0,1.19-.34,1.19-.9,0-.69-.66-.85-1.38-1.03-.82-.21-1.54-.47-1.54-1.33,0-.78.66-1.31,1.62-1.31.75,0,1.37.33,1.71.95l-.46.26c-.26-.48-.71-.73-1.27-.73-.6,0-1.05.3-1.05.77,0,.51.45.68,1.16.85.84.2,1.8.42,1.8,1.5,0,.89-.7,1.47-1.78,1.47-.99,0-1.69-.5-2-1.13Z"></path><path class="cls-18" d="M308.48,554.51c-.33.63-.97,1-1.73,1-1.11,0-1.78-.6-1.78-1.5,0-.53.22-.89.56-1.11.35-.24.84-.32,1.36-.32h1.58v-.22c0-.92-.48-1.41-1.4-1.41-.61,0-1.08.23-1.52.79l-.43-.37c.52-.65,1.18-.94,1.99-.94,1.26,0,1.95.69,1.95,1.93v3.07h-.55l-.03-.93ZM306.81,555.01c.91,0,1.67-.72,1.67-1.69v-.28h-1.5c-.4,0-.79.06-1.06.25-.21.16-.34.39-.34.72,0,.61.46,1,1.23,1Z"></path><path class="cls-18" d="M310.58,550.5h.6v.81c.31-.59.87-.88,1.55-.88,1.06,0,1.7.63,1.7,1.93v3.07h-.6v-2.86c0-1.12-.42-1.63-1.24-1.63-.89,0-1.41.61-1.41,1.97v2.52h-.6v-4.93Z"></path><path class="cls-18" d="M321.81,554.51c-.33.63-.97,1-1.73,1-1.11,0-1.78-.6-1.78-1.5,0-.53.22-.89.56-1.11.35-.24.84-.32,1.36-.32h1.58v-.22c0-.92-.48-1.41-1.4-1.41-.61,0-1.08.23-1.52.79l-.43-.37c.52-.65,1.18-.94,1.99-.94,1.26,0,1.95.69,1.95,1.93v3.07h-.55l-.03-.93ZM320.13,555.01c.91,0,1.67-.72,1.67-1.69v-.28h-1.5c-.4,0-.79.06-1.06.25-.21.16-.34.39-.34.72,0,.61.46,1,1.23,1Z"></path><path class="cls-18" d="M323.65,552.96c0-1.41.82-2.53,2.2-2.53.9,0,1.61.45,1.93,1.34l-.54.21c-.21-.63-.69-1.03-1.39-1.03-1.09,0-1.61.96-1.61,2.01s.52,2.02,1.61,2.02c.7,0,1.18-.39,1.39-1.03l.54.21c-.33.89-1.03,1.35-1.93,1.35-1.39,0-2.2-1.12-2.2-2.54Z"></path><path class="cls-18" d="M328.74,552.96c0-1.41.82-2.53,2.2-2.53.9,0,1.61.45,1.93,1.34l-.54.21c-.21-.63-.69-1.03-1.39-1.03-1.09,0-1.61.96-1.61,2.01s.52,2.02,1.61,2.02c.7,0,1.18-.39,1.39-1.03l.54.21c-.33.89-1.03,1.35-1.93,1.35-1.39,0-2.2-1.12-2.2-2.54Z"></path><path class="cls-18" d="M333.84,553c0-1.42.77-2.57,2.16-2.57,1.51,0,2.13,1.18,2.13,2.27,0,.08,0,.3-.03.42h-3.66c.03,1.16.65,1.84,1.65,1.84.63,0,1.04-.18,1.47-.64l.42.38c-.56.58-1.1.81-1.9.81-1.46,0-2.24-1.09-2.24-2.5ZM337.55,552.67c0-.06,0-.12,0-.19,0-.71-.45-1.55-1.54-1.55-.95,0-1.53.76-1.59,1.74h3.12Z"></path><path class="cls-18" d="M338.97,554.38l.42-.35c.25.57.82.97,1.58.97.72,0,1.19-.34,1.19-.9,0-.69-.66-.85-1.38-1.03-.82-.21-1.54-.47-1.54-1.33,0-.78.66-1.31,1.62-1.31.75,0,1.37.33,1.71.95l-.46.26c-.26-.48-.71-.73-1.27-.73-.6,0-1.05.3-1.05.77,0,.51.45.68,1.16.85.84.2,1.8.42,1.8,1.5,0,.89-.7,1.47-1.78,1.47-.99,0-1.69-.5-2-1.13Z"></path><path class="cls-18" d="M343.64,554.38l.42-.35c.25.57.82.97,1.58.97.72,0,1.19-.34,1.19-.9,0-.69-.66-.85-1.38-1.03-.82-.21-1.54-.47-1.54-1.33,0-.78.66-1.31,1.62-1.31.75,0,1.37.33,1.71.95l-.46.26c-.27-.48-.71-.73-1.27-.73-.6,0-1.05.3-1.05.77,0,.51.45.68,1.16.85.84.2,1.8.42,1.8,1.5,0,.89-.7,1.47-1.78,1.47-.99,0-1.69-.5-2-1.13Z"></path><path class="cls-18" d="M348.68,548.46h.72v1.07h-.72v-1.07ZM348.74,550.5h.59v4.93h-.59v-4.93Z"></path><path class="cls-18" d="M351.5,554.46v.97h-.59v-6.98h.59v3.02c.33-.63.96-1.05,1.77-1.05,1.26,0,2.25,1.02,2.25,2.53s-.93,2.54-2.25,2.54c-.8,0-1.43-.39-1.77-1.04ZM353.17,554.95c1.01,0,1.74-.84,1.74-1.99s-.73-1.99-1.74-1.99-1.72.83-1.72,1.99.72,1.99,1.72,1.99Z"></path><path class="cls-18" d="M356.75,554.41v-5.95h.6v5.84c0,.46.18.65.49.65.13,0,.3-.03.47-.09v.52c-.22.08-.47.13-.65.13-.56,0-.91-.34-.91-1.1Z"></path><path class="cls-18" d="M359.05,553c0-1.42.77-2.57,2.16-2.57,1.51,0,2.13,1.18,2.13,2.27,0,.08,0,.3-.03.42h-3.66c.03,1.16.65,1.84,1.65,1.84.63,0,1.04-.18,1.47-.64l.42.38c-.56.58-1.1.81-1.9.81-1.46,0-2.24-1.09-2.24-2.5ZM362.76,552.67c0-.06,0-.12,0-.19,0-.71-.45-1.55-1.54-1.55-.95,0-1.53.76-1.59,1.74h3.12Z"></path><path class="cls-18" d="M367.25,554.41v-5.95h.6v5.84c0,.46.18.65.49.65.13,0,.3-.03.47-.09v.52c-.22.08-.47.13-.65.13-.56,0-.91-.34-.91-1.1Z"></path><path class="cls-18" d="M373.18,554.51c-.33.63-.97,1-1.73,1-1.11,0-1.78-.6-1.78-1.5,0-.53.22-.89.56-1.11.35-.24.84-.32,1.36-.32h1.58v-.22c0-.92-.48-1.41-1.4-1.41-.61,0-1.08.23-1.52.79l-.43-.37c.52-.65,1.18-.94,1.99-.94,1.26,0,1.95.69,1.95,1.93v3.07h-.55l-.03-.93ZM371.51,555.01c.91,0,1.67-.72,1.67-1.69v-.28h-1.5c-.4,0-.79.06-1.06.25-.21.16-.34.39-.34.72,0,.61.46,1,1.23,1Z"></path><path class="cls-18" d="M376.62,555.28l-1.96-4.78h.66l1.62,4.17,1.62-4.17h.66l-2.84,6.97h-.65l.9-2.19Z"></path><path class="cls-18" d="M379.94,552.96c0-1.48.97-2.53,2.35-2.53s2.34,1.05,2.34,2.53-.98,2.54-2.34,2.54-2.35-1.05-2.35-2.54ZM382.28,554.97c1.05,0,1.74-.8,1.74-2.01s-.69-2.01-1.74-2.01-1.75.81-1.75,2.01.7,2.01,1.75,2.01Z"></path><path class="cls-18" d="M385.87,553.56v-3.07h.59v2.86c0,1.11.43,1.62,1.25,1.62.89,0,1.41-.61,1.41-1.97v-2.51h.6v4.93h-.6v-.81c-.32.59-.88.88-1.56.88-1.05,0-1.69-.64-1.69-1.94Z"></path><path class="cls-18" d="M391.79,554.29v-3.32h-1.1v-.48h1.1v-1.43l.61-.36v1.78h1.19v.48h-1.19v3.17c0,.54.17.86.62.86.15,0,.35-.03.57-.09v.48c-.25.08-.5.12-.71.12-.66,0-1.08-.38-1.08-1.21Z"></path></g></g></svg> 